<?xml version="1.0" encoding="utf-8"?>
<!-- Generator: Adobe Illustrator 24.2.3, SVG Export Plug-In . SVG Version: 6.00 Build 0)  -->
<svg version="1.1" xmlns="http://www.w3.org/2000/svg" xmlns:xlink="http://www.w3.org/1999/xlink" x="0px" y="0px"
	 viewBox="0 0 332.783 365.298" enable-background="new 0 0 332.783 365.298" xml:space="preserve">
<g id="apple_x5F_collision">
	<g>
		<path fill="#0EB800" d="M251.528,11.726c0,0,12.573,42.013-13.108,72.992c-19.802,23.887-61.007,16.039-61.007,16.039
			S162.249,63.65,189.47,36.638C217.261,9.062,251.528,11.726,251.528,11.726z"/>
		<path fill="#8CD000" d="M189.471,36.638c24.958-24.766,55.122-25.14,61.016-24.96l-73.072,89.078
			C177.414,100.757,162.25,63.65,189.471,36.638z"/>
		<polygon fill="#A45700" points="163.514,6.469 182.936,6.252 180.851,100.206 163.132,98.843 		"/>
		<path fill="#0EB800" d="M70.607,0.397c0,0-12.474,52.566,21.316,88.841c26.054,27.97,76.174,15.386,76.174,15.386
			s16.011-46.719-19.39-78.003C112.563-5.318,70.607,0.397,70.607,0.397z"/>
		<path fill="#8CD000" d="M148.705,26.621C116.247-2.062,79.12-0.377,71.884,0.265l96.212,104.359
			C168.097,104.624,184.107,57.905,148.705,26.621z"/>
		<path fill="#C30D26" d="M279.852,91.142C235.017,69.179,172.94,88.73,172.94,88.73S87.975,55.567,32.983,107.301
			C9.801,129.11-4.848,177.62,1.476,226.409c5.291-6.045,12.854-10.453,23.681-10.542c18.734-0.154,25.184,30.787,26.811,41.073
			l1.378,0.053c2.795-10.114,12.364-40.534,35.552-41.316c30.29-1.022,36.139,26.882,38.139,44.173l0.489,0.019
			c1.16-7.651,4.685-32.361,20.165-39.746c18.649-9.078,40.216-4.418,46.283,22.783c1.47,5.244,1.869,19.611,1.869,19.611
			s-8.702,51.007-88.096,61.686c-27.354,3.679-48.736-1.702-65.219-10.844c5.465,5.487,11.513,10.639,18.197,15.369
			c88.938,62.941,193.921,38.092,239.135-24.939C347.072,237.97,346.141,123.614,279.852,91.142z"/>
		<g>
			<path fill="#FF4035" d="M267.268,100.519c-35.916-19.392-85.61-2.197-85.61-2.197s-68.056-29.292-112.056,16.28
				c-23.952,24.808-36.475,88.874-16.165,142.065c2.903-10.413,12.507-40.217,35.461-40.991
				c30.29-1.022,36.139,26.882,38.139,44.173l0.489,0.019c1.16-7.651,4.685-32.361,20.165-39.746
				c18.649-9.078,40.216-4.418,46.283,22.783c3.252,21.074-6.499,68.598-81.57,80.605c66.235,37.448,138.271,14.793,171.024-35.509
				C321.19,230.006,320.369,129.19,267.268,100.519z"/>
		</g>
		
			<ellipse transform="matrix(0.989 -0.148 0.148 0.989 -21.7118 37.3494)" opacity="0.25" fill="#FFFFFF" enable-background="new    " cx="240.191" cy="164.612" rx="32.517" ry="38.911"/>
		<g>
			<path fill="#FFFFFF" d="M95.604,139.878c-8.752-17.092-30.171-20.138-48.563-14.419c-13.761,4.279-30.578,23.55-21.991,48.962
				c8.661,25.629,42.645,27.873,57.263,17.365C100.741,178.537,102.792,153.916,95.604,139.878z"/>
			<path fill="#821F1B" d="M55.617,145.39c-3.135-6.122-10.807-7.213-17.394-5.165c-4.929,1.533-10.952,8.435-7.877,17.537
				c3.102,9.18,15.274,9.983,20.51,6.22C57.457,159.237,58.191,150.418,55.617,145.39z"/>
		</g>
		<g>
			<path fill="#FFFFFF" d="M198.614,148.602c-8.752-17.092-30.171-20.138-48.563-14.419c-13.761,4.279-30.578,23.55-21.991,48.962
				c8.661,25.629,42.645,27.873,57.263,17.365C203.752,187.262,205.803,162.64,198.614,148.602z"/>
			<path fill="#821F1B" d="M192.417,155.735c-3.135-6.122-10.807-7.213-17.394-5.165c-4.929,1.533-10.952,8.435-7.877,17.537
				c3.102,9.18,15.274,9.983,20.51,6.22C194.257,169.582,194.991,160.763,192.417,155.735z"/>
		</g>
	</g>
</g>
<g id="Layer_1">
</g>
</svg>
