<?xml version="1.0" encoding="utf-8"?>
<!-- Generator: Adobe Illustrator 24.2.3, SVG Export Plug-In . SVG Version: 6.00 Build 0)  -->
<svg version="1.1" xmlns="http://www.w3.org/2000/svg" xmlns:xlink="http://www.w3.org/1999/xlink" x="0px" y="0px"
	 viewBox="0 0 332.783 365.294" enable-background="new 0 0 332.783 365.294" xml:space="preserve">
<g id="apple_x5F_touch">
	<g>
		<g id="apple_red_2_">
			<g>
				<path fill="#0EB800" d="M251.529,11.726c0,0,12.573,42.012-13.108,72.991c-19.802,23.887-61.006,16.039-61.006,16.039
					s-15.164-37.107,12.056-64.118C217.262,9.062,251.529,11.726,251.529,11.726z"/>
				<path fill="#8CD000" d="M189.472,36.638c24.957-24.765,55.122-25.14,61.015-24.96l-73.072,89.077
					C177.416,100.756,162.251,63.649,189.472,36.638z"/>
				<polygon fill="#A45700" points="163.516,6.469 182.937,6.252 180.853,100.205 163.133,98.842 				"/>
				<path fill="#0EB800" d="M70.609,0.397c0,0-12.473,52.565,21.316,88.84c26.054,27.97,76.173,15.386,76.173,15.386
					s16.011-46.718-19.39-78.002C112.566-5.318,70.609,0.397,70.609,0.397z"/>
				<path fill="#8CD000" d="M148.707,26.621C116.249-2.062,79.123-0.377,71.887,0.265l96.211,104.358
					C168.098,104.623,184.108,57.905,148.707,26.621z"/>
				<path fill="#C30D26" d="M172.941,88.729c0,0-84.964-33.163-139.955,18.571c-41.307,38.86-55.533,162.491,27.741,221.425
					c88.937,62.941,193.919,38.092,239.132-24.939c47.213-65.818,46.281-180.173-20.007-212.645
					C235.019,69.179,172.941,88.729,172.941,88.729z"/>
				<path fill="#FF4035" d="M181.659,98.321c0,0-68.056-29.292-112.055,16.28c-33.05,34.231-44.36,143.215,22.36,195.225
					c71.256,55.547,155.303,33.709,191.465-21.828c37.761-57.994,36.94-158.81-16.16-187.48
					C231.353,81.127,181.659,98.321,181.659,98.321z"/>
				
					<ellipse transform="matrix(0.989 -0.148 0.148 0.989 -21.7115 37.3495)" opacity="0.25" fill="#FFFFFF" enable-background="new    " cx="240.192" cy="164.611" rx="32.517" ry="38.911"/>
			</g>
		</g>
		<g>
			<path fill="#FFFFFF" d="M97.797,123.589c-8.752-17.092-30.171-20.138-48.562-14.419c-13.761,4.279-30.578,23.55-21.991,48.961
				c8.661,25.629,42.644,27.873,57.262,17.365C102.935,162.248,104.986,137.627,97.797,123.589z"/>
			<path fill="#821F1B" d="M75.584,136.571c-3.135-6.122-10.806-7.213-17.394-5.165c-4.929,1.533-10.952,8.435-7.877,17.537
				c3.102,9.18,15.274,9.983,20.51,6.22C77.424,150.418,78.158,141.599,75.584,136.571z"/>
		</g>
		<g>
			<path fill="#FFFFFF" d="M194.864,132.313c-8.752-17.092-30.171-20.138-48.562-14.419c-13.761,4.279-30.578,23.55-21.991,48.961
				c8.661,25.629,42.644,27.873,57.262,17.365C200.001,170.972,202.052,146.351,194.864,132.313z"/>
			<path fill="#821F1B" d="M172.65,145.295c-3.135-6.122-10.806-7.213-17.394-5.165c-4.929,1.533-10.952,8.435-7.877,17.537
				c3.102,9.18,15.274,9.983,20.51,6.22C174.49,159.142,175.225,150.323,172.65,145.295z"/>
		</g>
	</g>
</g>
<g id="Layer_1">
</g>
</svg>
