<?xml version="1.0" encoding="utf-8"?>
<!-- Generator: Adobe Illustrator 24.2.3, SVG Export Plug-In . SVG Version: 6.00 Build 0)  -->
<svg version="1.1" xmlns="http://www.w3.org/2000/svg" xmlns:xlink="http://www.w3.org/1999/xlink" x="0px" y="0px"
	 viewBox="0 0 399.116 251.555" enable-background="new 0 0 399.116 251.555" xml:space="preserve">
<g id="banana_x5F_collision">
	<g>
		<g id="banana_3_">
			<g>
				<path fill="#A45700" d="M399.048,4.807c0,0-20.862-11.614-21.58,1.265c-1.019,18.287-21.872,35.15-21.872,35.15l18.433,9.672
					C374.029,50.893,400.625,20.278,399.048,4.807z"/>
				<path fill="#F6CF12" d="M372.358,133.062c11.219-19.308,29.753-61.236,19.138-83.896c-6.441-13.751-22.164-21.142-22.164-21.142
					L211.71,175.31L1.277,171.585c12.13,60.286,119.847,85.2,184.33,79.066C273.34,242.926,328.612,208.346,372.358,133.062z"/>
				<path fill="#FAE100" d="M186.385,211.859c96.507,6.604,247.314-171.984,175.905-186.358
					c-27.518-5.07-53.691,12.128-70.169,33.909c-55.623,77.468-112.408,98.846-207.668,77.19
					c-21.282-3.439-82.678,8.083-83.175,34.985C38.303,188.787,112.313,217.602,186.385,211.859z"/>
				<path fill="#A45700" d="M0.056,174.873c-1.91,15.299,45.011,92.184,147.096,18.353c0,0-142.669,1.425-138.458-36.533
					C8.694,156.693,1.099,161.393,0.056,174.873z"/>
			</g>
		</g>
		<g>
			<path fill="#FFFFFF" d="M248.449,182.506c-4.386-20.921-26.494-30.473-47.922-29.726c-16.032,0.559-39.743,16.323-37.974,46.13
				c1.785,30.062,37.621,42.438,56.4,35.44C242.628,225.528,252.051,199.69,248.449,182.506z"/>
			<path fill="#821F1B" d="M221.208,188.797c-1.571-7.493-9.49-10.915-17.164-10.647c-5.742,0.2-14.235,5.846-13.601,16.523
				c0.639,10.767,13.475,15.2,20.201,12.694C219.124,204.207,222.499,194.952,221.208,188.797z"/>
		</g>
	</g>
</g>
<g id="Layer_1">
</g>
</svg>
