<?xml version="1.0" encoding="utf-8"?>
<!-- Generator: Adobe Illustrator 24.2.3, SVG Export Plug-In . SVG Version: 6.00 Build 0)  -->
<svg version="1.1" xmlns="http://www.w3.org/2000/svg" xmlns:xlink="http://www.w3.org/1999/xlink" x="0px" y="0px"
	 viewBox="0 0 219.843 235.482" enable-background="new 0 0 219.843 235.482" xml:space="preserve">
<g id="candy_x5F_touch">
	<g>
		<g id="candy_x5F_blue_x5F_pink">
			<g>
				<path fill="#005F8A" d="M219.83,61.982c1.177,4.684-77.026,29.432-83.162,24.355c-6.702-5.544,2.83-81.814,6.434-86.171
					C147.491-3.491,217.102,54.576,219.83,61.982z"/>
				<path fill="#005F8A" d="M0.013,173.501c-1.177-4.684,77.026-29.432,83.162-24.355c6.702,5.544-2.83,81.814-6.434,86.171
					C72.353,238.974,2.741,180.907,0.013,173.501z"/>
				<path fill="#FF9EC5" d="M113.396,59.333c-26.009-4.697-48.595,16.075-59.973,44.331c-10.139,25.178,13.473,57.87,45.94,68.481
					c34.891,11.403,63.187-31.4,62.841-56.788C161.788,84.772,136.07,63.428,113.396,59.333z"/>
				<path fill="#FFE400" d="M124.868,171.292c5.122-2.044,9.883-5.125,14.175-8.889L57.448,94.899
					c-1.461,2.824-2.81,5.748-4.025,8.765c-0.56,1.391-1,2.809-1.359,4.241L124.868,171.292z"/>
				<path fill="#FFE400" d="M148.519,152.061c2.064-2.771,3.931-5.679,5.571-8.652l-82.641-68.37
					c-3.371,3.496-6.486,7.446-9.297,11.76L148.519,152.061z"/>
				<path fill="#FFE400" d="M157.688,135.939c2.073-4.999,3.483-9.997,4.123-14.652L94.453,60.368
					c-6.069,1.794-11.783,4.955-17.02,9.175L157.688,135.939z"/>
			</g>
		</g>
		<g>
			<path fill="#FFFFFF" d="M39.262,186.162c1.664-7.657,9.793-11.099,17.645-10.768c5.875,0.248,14.524,6.089,13.796,17.01
				c-0.735,11.014-13.903,15.455-20.768,12.84C41.281,201.948,37.896,192.451,39.262,186.162z"/>
			<path fill="#4A4A49" d="M47.44,187.903c0.832-3.829,4.897-5.55,8.824-5.384c2.938,0.124,7.263,3.045,6.899,8.506
				c-0.367,5.508-6.953,7.728-10.385,6.42C48.45,195.797,46.757,191.048,47.44,187.903z"/>
		</g>
		<g>
			<path fill="#FFFFFF" d="M148.794,46.335c1.664-7.657,9.793-11.099,17.645-10.768c5.875,0.248,14.524,6.089,13.796,17.01
				c-0.735,11.014-13.903,15.455-20.768,12.84C150.812,62.12,147.427,52.624,148.794,46.335z"/>
			<path fill="#4A4A49" d="M156.972,48.076c0.832-3.829,4.897-5.55,8.824-5.384c2.938,0.124,7.263,3.045,6.899,8.506
				c-0.367,5.508-6.953,7.728-10.385,6.42C157.981,55.969,156.288,51.22,156.972,48.076z"/>
		</g>
	</g>
</g>
<g id="Layer_1">
</g>
</svg>
