<?xml version="1.0" encoding="utf-8"?>
<!-- Generator: Adobe Illustrator 24.2.3, SVG Export Plug-In . SVG Version: 6.00 Build 0)  -->
<svg version="1.1" xmlns="http://www.w3.org/2000/svg" xmlns:xlink="http://www.w3.org/1999/xlink" x="0px" y="0px"
	 viewBox="0 0 219.843 235.482" enable-background="new 0 0 219.843 235.482" xml:space="preserve">
<g id="candy_x5F_collision">
	<g>
		<g id="candy_x5F_blue_x5F_pink_2_">
			<g>
				<path fill="#005F8A" d="M219.83,61.982c1.177,4.684-77.026,29.432-83.162,24.355c-6.702-5.544,2.83-81.814,6.434-86.171
					C147.491-3.491,217.102,54.576,219.83,61.982z"/>
				<path fill="#005F8A" d="M0.013,173.501c-1.177-4.684,77.026-29.432,83.162-24.355c6.702,5.544-2.83,81.814-6.434,86.171
					C72.353,238.974,2.741,180.907,0.013,173.501z"/>
				<path fill="#FF9EC5" d="M113.396,59.333c-26.009-4.697-48.595,16.075-59.973,44.331c-10.139,25.178,13.473,57.87,45.94,68.481
					c34.891,11.403,63.187-31.4,62.841-56.788C161.788,84.772,136.07,63.428,113.396,59.333z"/>
				<path fill="#FFE400" d="M124.868,171.292c5.122-2.044,9.883-5.125,14.175-8.889L57.448,94.899
					c-1.461,2.824-2.81,5.748-4.025,8.765c-0.56,1.391-1,2.809-1.359,4.241L124.868,171.292z"/>
				<path fill="#FFE400" d="M148.519,152.061c2.064-2.771,3.931-5.679,5.571-8.652l-82.641-68.37
					c-3.371,3.496-6.486,7.446-9.297,11.76L148.519,152.061z"/>
				<path fill="#FFE400" d="M157.688,135.939c2.073-4.999,3.483-9.997,4.123-14.652L94.453,60.368
					c-6.069,1.794-11.783,4.955-17.02,9.175L157.688,135.939z"/>
			</g>
		</g>
		<g>
			<path fill="#FFFFFF" d="M145.067,46.916c2.298-10.577,13.528-15.333,24.376-14.875c8.116,0.343,20.064,8.412,19.058,23.499
				c-1.015,15.216-19.207,21.35-28.69,17.737C147.855,68.723,143.179,55.604,145.067,46.916z"/>
			<path fill="#4A4A49" d="M150.548,55.616c0.823-3.789,4.846-5.492,8.731-5.328c2.907,0.123,7.186,3.013,6.826,8.417
				c-0.363,5.45-6.879,7.647-10.276,6.353C151.547,63.427,149.872,58.728,150.548,55.616z"/>
		</g>
		<g>
			<path fill="#FFFFFF" d="M28.251,176.101c2.298-10.577,13.528-15.333,24.376-14.875c8.116,0.343,20.064,8.412,19.058,23.499
				c-1.015,15.216-19.207,21.35-28.69,17.737C31.039,197.908,26.363,184.789,28.251,176.101z"/>
			<path fill="#4A4A49" d="M47.091,170.736c0.823-3.789,4.846-5.492,8.731-5.328c2.907,0.123,7.186,3.013,6.826,8.417
				c-0.363,5.45-6.879,7.647-10.276,6.353C48.09,178.547,46.415,173.848,47.091,170.736z"/>
		</g>
		<path fill="#821F1B" d="M69.189,126.519c-6.343-18.032,5.894-36.547,24.762-47.918c16.813-10.133,42.87,2.97,54.178,24.933
			c12.152,23.603-15.16,48.727-33.328,51.398C92.915,158.149,74.719,142.238,69.189,126.519z"/>
		<g>
			<path fill="#FF9EC5" d="M144.352,117.353c-3.995,3.785,0.091,11.256,2.343,14.704c3.194-5.441,5.07-11.453,4.767-17.614
				C149.102,114.417,146.643,115.183,144.352,117.353z"/>
			<path fill="#FF9EC5" d="M128.991,149.723c-2.754-1.998-7.937-5.23-12.349-3.76c-4.611,1.495-7.972,4.995-7.742,9.719
				c1.948,0.011,3.933-0.121,5.95-0.418C119.257,154.617,124.198,152.656,128.991,149.723z"/>
			<path fill="#FF9EC5" d="M129.531,149.39c6.431-4.043,12.544-9.828,16.681-16.531c-3.546-1.994-11.661-5.828-16.817-1.186
				C122.698,137.702,126.252,144.786,129.531,149.39z"/>
		</g>
		<g>
			<path fill="#FF9EC5" d="M93.823,78.292c-1.67,1.006-3.285,2.071-4.843,3.183c2.052,1.573,8.381,6.461,13.622,4.715
				c5.094-1.652,8.658-5.752,7.544-11.246C104.319,74.361,98.687,75.361,93.823,78.292z"/>
			<path fill="#FF9EC5" d="M89.848,100.48c7.303-6.574,2.416-14.404-1.012-18.904c-6.9,4.948-12.614,10.884-16.444,17.352
				C75.495,100.747,84.352,105.428,89.848,100.48z"/>
			<path fill="#FF9EC5" d="M67.173,117.685c2.542,0.171,5.229-0.527,7.717-2.885c4.279-4.054-0.711-12.336-2.791-15.374
				C68.778,105.207,66.969,111.399,67.173,117.685z"/>
		</g>
	</g>
</g>
<g id="Layer_1">
</g>
</svg>
