<?xml version="1.0" encoding="utf-8"?>
<!-- Generator: Adobe Illustrator 24.2.3, SVG Export Plug-In . SVG Version: 6.00 Build 0)  -->
<svg version="1.1" xmlns="http://www.w3.org/2000/svg" xmlns:xlink="http://www.w3.org/1999/xlink" x="0px" y="0px"
	 viewBox="0 0 272.995 208.009" enable-background="new 0 0 272.995 208.009" xml:space="preserve">
<g id="cheese_x5F_collision">
	<g>
		<g id="cheese_3_">
			<g id="matikka_x5F_cheese_3_">
				<path fill="#FFD200" d="M2.336,87.845L272.23,34.846l-1.727,142.88L4.578,208.009l-3.942-55.881
					c104.772,31.168,151.733-73.943-0.033-43.255L2.336,87.845z"/>
				<path fill="#FCE300" d="M272.995,35.487l-52.435-21.14c-5.794,21.077-32.976,18.195-30.673-9.344L164.229,0
					C114.484,20.251,2.886,86.842,2.688,87.873C2.495,88.903,272.434,36.723,272.995,35.487z"/>
				<path fill="#FFFFFF" d="M172.86,86.97c-15.631-27.597-62.431-9.437-47.251,21.652c7.517,15.393,29.162,17.164,38.91,10.599
					C176.809,110.943,177.803,95.701,172.86,86.97z"/>
				<path fill="#FFFFFF" d="M259.148,98.072c-20.581-36.337-82.203-12.426-62.215,28.51c9.897,20.268,38.399,22.598,51.233,13.954
					C264.348,129.636,265.657,109.566,259.148,98.072z"/>
				<path fill="#FCA419" d="M193.019,162.183c-17.355-30.642-69.319-10.478-52.463,24.041c1.073,2.198,2.41,4.141,3.94,5.852
					l49.079-5.589C197.388,178.1,196.637,168.572,193.019,162.183z"/>
				<path fill="#FCA419" d="M1.252,101.005l-1.09,13.605C118.498,78.184,105.408,183.296,0,145.336l1.305,16.255
					C157.131,235.242,159.68,50.445,1.252,101.005z"/>
				<path fill="#F9D214" d="M193.805,35.849c6.744,2.343,13.538,2.892,20.3-0.742c7.752-3.962,11.906-11.146,13.799-17.8
					l-7.343-2.959c-5.794,21.077-32.976,18.195-30.673-9.344l-8.984-1.752c-1.036,2.661-1.751,5.565-2.001,8.671
					C177.952,23.687,183.472,32.259,193.805,35.849z"/>
				<path fill="#F9D214" d="M120.239,20.98L84.268,40.302C102.487,70.774,141.846,39.606,120.239,20.98z"/>
			</g>
		</g>
		<path fill="#821F1B" d="M250.367,111.278c-3.913-6.21-12.172-6.643-18.98-3.841c-5.094,2.097-10.843,10.005-6.71,19.389
			c4.168,9.464,17.184,9.164,22.392,4.667C253.636,125.824,253.58,116.379,250.367,111.278z"/>
		<path fill="#821F1B" d="M150.785,90.034c-2.922-4.638-9.089-4.961-14.174-2.868c-3.804,1.566-8.097,7.472-5.011,14.479
			c3.113,7.067,12.832,6.844,16.722,3.485C153.227,100.896,153.185,93.844,150.785,90.034z"/>
	</g>
</g>
<g id="Layer_1">
</g>
</svg>
