<?xml version="1.0" encoding="utf-8"?>
<!-- Generator: Adobe Illustrator 24.2.3, SVG Export Plug-In . SVG Version: 6.00 Build 0)  -->
<svg version="1.1" xmlns="http://www.w3.org/2000/svg" xmlns:xlink="http://www.w3.org/1999/xlink" x="0px" y="0px"
	 viewBox="0 0 272.995 208.009" enable-background="new 0 0 272.995 208.009" xml:space="preserve">
<g id="cheese_x5F_touch">
	<g>
		<g id="cheese_2_">
			<g id="matikka_x5F_cheese_1_">
				<path fill="#FFD200" d="M2.336,87.845L272.23,34.846l-1.727,142.88L4.578,208.009l-3.942-55.881
					c41.65-1.041,31.793-49.591-0.033-43.255L2.336,87.845z"/>
				<path fill="#FCE300" d="M272.995,35.487l-52.435-21.14c-5.794,21.077-32.976,18.195-30.673-9.344L164.229,0
					C114.484,20.251,2.886,86.842,2.688,87.873C2.495,88.903,272.434,36.723,272.995,35.487z"/>
				<path fill="#FCA419" d="M104.371,145.812c-13.181-23.272-52.645-7.958-39.845,18.258c6.339,12.98,24.591,14.473,32.811,8.937
					C107.701,166.028,108.541,153.173,104.371,145.812z"/>
				<path fill="#FFFFFF" d="M170.012,89.921c-13.181-23.272-52.646-7.958-39.845,18.258c6.339,12.98,24.591,14.473,32.811,8.937
					C173.342,110.136,174.18,97.283,170.012,89.921z"/>
				<path fill="#FFFFFF" d="M255.683,105.373c-17.355-30.642-69.318-10.478-52.463,24.041c8.345,17.091,32.38,19.055,43.202,11.767
					C260.068,131.99,261.172,115.066,255.683,105.373z"/>
				<path fill="#FCA419" d="M193.019,162.183c-17.355-30.642-69.319-10.478-52.463,24.041c1.073,2.198,2.41,4.141,3.94,5.852
					l49.079-5.589C197.388,178.1,196.637,168.572,193.019,162.183z"/>
				<path fill="#FCA419" d="M1.252,101.005l-1.09,13.605c22.343-4.946,28.116,32.125-0.162,30.726l1.305,16.255
					C43.056,168.238,58.453,95.303,1.252,101.005z"/>
				<path fill="#F9D214" d="M193.805,35.849c6.744,2.343,13.538,2.892,20.3-0.742c7.752-3.962,11.906-11.146,13.799-17.8
					l-7.343-2.959c-5.794,21.077-32.976,18.195-30.673-9.344l-8.984-1.752c-1.036,2.661-1.751,5.565-2.001,8.671
					C177.952,23.687,183.472,32.259,193.805,35.849z"/>
				<path fill="#F9D214" d="M120.239,20.98L84.268,40.302C102.487,70.774,141.846,39.606,120.239,20.98z"/>
			</g>
		</g>
		<path fill="#821F1B" d="M241.827,108.866c-3.913-6.21-12.172-6.643-18.98-3.841c-5.094,2.097-10.843,10.005-6.71,19.389
			c4.168,9.464,17.184,9.164,22.392,4.667C245.096,123.411,245.041,113.967,241.827,108.866z"/>
		<path fill="#821F1B" d="M159.33,92.687c-2.922-4.638-9.089-4.961-14.174-2.868c-3.804,1.566-8.097,7.472-5.011,14.479
			c3.113,7.067,12.832,6.844,16.722,3.485C161.771,103.549,161.73,96.496,159.33,92.687z"/>
	</g>
</g>
<g id="Layer_1">
</g>
</svg>
