<?xml version="1.0" encoding="utf-8"?>
<!-- Generator: Adobe Illustrator 24.2.3, SVG Export Plug-In . SVG Version: 6.00 Build 0)  -->
<svg version="1.1" xmlns="http://www.w3.org/2000/svg" xmlns:xlink="http://www.w3.org/1999/xlink" x="0px" y="0px"
	 viewBox="0 0 197.535 276.737" enable-background="new 0 0 197.535 276.737" xml:space="preserve">
<g id="cotton_x5F_candy_x5F_touch">
	<g>
		<g id="cotton_x5F_candy_4_">
			<g>
				<g id="vaaleanpunainen_x5F_1_4_">
					<path fill="#935803" d="M89.738,276.736c0.158-6.847,2.136-86.171,2.176-87.813c1.383,0.082,18.327-0.352,20.433-0.299
						c0,0.986,2.775,33.686,7.677,87.669C113.913,276.276,95.846,276.756,89.738,276.736z"/>
					<path fill="#ED9EC3" d="M186.762,128.92c-0.86-1.304-1.053-1.167-0.135-2.424c12.393-17.478,4.909-44.529-13.113-55.122
						c-7.834-5.166-17.191-7.168-26.269-7.923c1.1-2.045,2.173-4.222,2.337-6.815c4.495-26.147-43.302-29.554-30.813-56.524
						c-26.417,0.477-49.968,23.87-53.306,50.139c-21.801,10.856-36.678,36.41-34.487,61.159
						c-36.791,10.646-40.054,59.317-13.774,87.1c24.1,30.892,84.815,30.903,118.156,26.499c30.14-7.408,60.632-29.816,62.178-63.136
						C197.443,159.141,197.287,144.895,186.762,128.92z"/>
					<path fill="#FFC3E6" d="M93.569,7.357c-15.792,9.224-25.153,26.415-28.712,43.745c-22.454,9.632-35.643,36.54-33.886,60.194
						c-36.806,10.643-40.042,59.322-13.773,87.101c25.572,26.539,52.941,28.548,93.9,28.109
						C82.934,225.192-0.547,171.331,71.157,128.9c-7.732-16.198-6.24-56.14,21.634-60.614C81.435,38.353,91.975,13.559,118.764,0
						C112.775,0.441,99.481,2.871,93.569,7.357z"/>
				</g>
				<g id="Layer_1_75_">
				</g>
			</g>
			<g id="Layer_1_74_">
			</g>
		</g>
		<g>
			<path fill="#FFFFFF" d="M96.866,106.576c-5.046-8.01-15.698-8.567-24.479-4.954c-6.57,2.704-13.984,12.904-8.654,25.006
				c5.376,12.206,22.162,11.819,28.88,6.019C101.082,125.335,101.01,113.155,96.866,106.576z"/>
			<path fill="#821F1B" d="M86.526,113.924c-1.807-2.869-5.623-3.069-8.768-1.774c-2.353,0.968-5.009,4.622-3.1,8.957
				c1.925,4.372,7.938,4.233,10.344,2.156C88.036,120.643,88.01,116.28,86.526,113.924z"/>
		</g>
		<g>
			<path fill="#FFFFFF" d="M144.914,106.608c-5.046-8.01-15.698-8.567-24.479-4.954c-6.57,2.704-13.984,12.904-8.654,25.006
				c5.376,12.206,22.162,11.819,28.88,6.019C149.13,125.367,149.059,113.187,144.914,106.608z"/>
			<path fill="#821F1B" d="M134.574,113.956c-1.807-2.869-5.623-3.069-8.768-1.774c-2.353,0.968-5.009,4.622-3.1,8.957
				c1.925,4.372,7.938,4.233,10.344,2.156C136.084,120.675,136.059,116.313,134.574,113.956z"/>
		</g>
	</g>
</g>
<g id="Layer_1">
</g>
</svg>
