<?xml version="1.0" encoding="utf-8"?>
<!-- Generator: Adobe Illustrator 24.2.3, SVG Export Plug-In . SVG Version: 6.00 Build 0)  -->
<svg version="1.1" xmlns="http://www.w3.org/2000/svg" xmlns:xlink="http://www.w3.org/1999/xlink" x="0px" y="0px"
	 viewBox="0 0 197.535 276.737" enable-background="new 0 0 197.535 276.737" xml:space="preserve">
<g id="cotton_x5F_candy_x5F_collision">
	<g>
		<g id="cotton_x5F_candy_3_">
			<g>
				<g id="vaaleanpunainen_x5F_1_3_">
					<path fill="#935803" d="M89.738,276.736c0.158-6.847,2.136-86.171,2.176-87.813c1.383,0.082,18.327-0.352,20.433-0.299
						c0,0.986,2.775,33.686,7.677,87.669C113.913,276.276,95.846,276.756,89.738,276.736z"/>
					<path fill="#ED9EC3" d="M186.762,128.92c-0.86-1.304-1.053-1.167-0.135-2.424c12.393-17.478,4.909-44.529-13.113-55.122
						c-7.834-5.166-17.191-7.168-26.269-7.923c1.1-2.045,2.173-4.222,2.337-6.815c4.495-26.147-43.302-29.554-30.813-56.524
						c-26.417,0.477-49.968,23.87-53.306,50.139c-21.801,10.856-36.678,36.41-34.487,61.159
						c-36.791,10.646-40.054,59.317-13.774,87.1c24.1,30.892,84.815,30.903,118.156,26.499c30.14-7.408,60.632-29.816,62.178-63.136
						C197.443,159.141,197.287,144.895,186.762,128.92z"/>
					<path fill="#FFC3E6" d="M93.569,7.357c-15.792,9.224-25.153,26.415-28.712,43.745c-22.454,9.632-35.643,36.54-33.886,60.194
						c-36.806,10.643-40.042,59.322-13.773,87.101c25.572,26.539,52.941,28.548,93.9,28.109
						C82.934,225.192-0.547,171.331,71.157,128.9c-7.732-16.198-6.24-56.14,21.634-60.614C81.435,38.353,91.975,13.559,118.764,0
						C112.775,0.441,99.481,2.871,93.569,7.357z"/>
				</g>
				<g id="Layer_1_73_">
				</g>
			</g>
			<g id="Layer_1_72_">
			</g>
		</g>
		<g>
			<path fill="#FFFFFF" d="M93.507,89.336c-7.252-11.511-22.56-12.313-35.18-7.119c-9.442,3.886-20.097,18.545-12.437,35.938
				c7.725,17.542,31.85,16.986,41.505,8.65C99.566,116.296,99.463,98.791,93.507,89.336z"/>
			<path fill="#821F1B" d="M91.962,99.896c-2.598-4.123-8.081-4.41-12.601-2.55c-3.382,1.392-7.198,6.642-4.455,12.872
				c2.767,6.283,11.408,6.084,14.866,3.098C94.132,109.553,94.095,103.283,91.962,99.896z"/>
		</g>
		<g>
			<path fill="#FFFFFF" d="M162.559,89.382c-7.252-11.511-22.56-12.313-35.18-7.119c-9.442,3.886-20.097,18.545-12.437,35.938
				c7.725,17.542,31.85,16.986,41.505,8.65C168.618,116.342,168.516,98.837,162.559,89.382z"/>
			<path fill="#821F1B" d="M132.983,99.896c-2.598-4.123-8.081-4.41-12.601-2.55c-3.382,1.392-7.198,6.642-4.455,12.872
				c2.767,6.283,11.408,6.084,14.866,3.098C135.153,109.553,135.116,103.283,132.983,99.896z"/>
		</g>
		<path id="XMLID_30_" fill="#821F1B" d="M152.57,143.317c-24.623,3.258-34.016,31.207-66.425,15.531
			c-13.31-7.643-30.391-27.741-45.976-14.29c-14.686,20.174,3.719,47.771,22.178,58.874c23.363,14.621,53.534,14.181,78.178,2.473
			c19.595-9.31,34.237-24.991,34.159-37.571C174.604,155.756,164.661,143.264,152.57,143.317z"/>
	</g>
</g>
<g id="Layer_1">
</g>
</svg>
