<?xml version="1.0" encoding="utf-8"?>
<!-- Generator: Adobe Illustrator 24.2.3, SVG Export Plug-In . SVG Version: 6.00 Build 0)  -->
<svg version="1.1" xmlns="http://www.w3.org/2000/svg" xmlns:xlink="http://www.w3.org/1999/xlink" x="0px" y="0px"
	 viewBox="0 0 262.867 258.523" enable-background="new 0 0 262.867 258.523" xml:space="preserve">
<g id="donut_x5F_collision">
	<g>
		<g id="donut_x5F_pink_3_">
			<g>
				<path fill="#A45700" d="M243.783,49.42C208.591-6.439,134.306-10.329,73.069,14.874c-45.82,18.857-97.525,89.992-60.354,174.394
					c37.489,85.124,154.557,82.427,201.407,41.975C273.186,180.246,272.689,95.3,243.783,49.42z M156.219,157.104
					c-14.5,12.52-50.733,13.355-62.336-12.991c-11.504-26.123,4.498-48.139,18.68-53.976c18.953-7.8,41.945-6.597,52.837,10.692
					C174.345,115.029,174.499,141.32,156.219,157.104z"/>
				<path fill="#FF9EC5" d="M237.024,65.173C208.68,20.104,142.188,11.962,78.708,30.05C22.144,46.168-0.028,122.539,27.355,184.721
					c29.427,66.824,141.005,56.096,183.307,23.91C261.621,169.857,261.734,104.464,237.024,65.173z M156.219,157.104
					c-14.5,12.52-50.733,13.355-62.336-12.991c-11.504-26.123,4.498-48.139,18.68-53.976c18.953-7.8,41.945-6.597,52.837,10.692
					C174.345,115.029,174.499,141.32,156.219,157.104z"/>
				<path fill="#FFF2B2" d="M169.66,176.679c-3.684-5.848-11.462-6.255-17.873-3.617c-4.797,1.974-10.21,9.422-6.319,18.258
					c3.925,8.912,16.182,8.63,21.087,4.395C172.738,190.376,172.686,181.483,169.66,176.679z"/>
				<path fill="#FFF2B2" d="M134.983,55.393c-3.685-5.848-11.462-6.255-17.873-3.617c-4.797,1.974-10.21,9.422-6.319,18.258
					c3.925,8.912,16.182,8.63,21.087,4.395C138.061,69.09,138.009,60.196,134.983,55.393z"/>
				<path fill="#FFF2B2" d="M85.366,55.393c-3.685-5.848-11.462-6.255-17.873-3.617c-4.797,1.974-10.21,9.422-6.319,18.258
					c3.925,8.912,16.182,8.63,21.087,4.395C88.445,69.09,88.393,60.196,85.366,55.393z"/>
				<path fill="#FFF2B2" d="M83.927,185.194c-3.685-5.848-11.462-6.255-17.873-3.617c-4.797,1.974-10.21,9.422-6.319,18.258
					c3.925,8.912,16.182,8.63,21.087,4.395C87.005,198.891,86.953,189.997,83.927,185.194z"/>
				<path fill="#FFF2B2" d="M64.986,145.586c-3.685-5.848-11.462-6.255-17.873-3.617c-4.797,1.974-10.21,9.422-6.319,18.258
					c3.925,8.912,16.182,8.63,21.087,4.395C68.064,159.283,68.012,150.39,64.986,145.586z"/>
				<path fill="#D47A00" d="M201.431,52.875c-3.001-4.764-9.336-5.095-14.559-2.946c-3.908,1.608-8.317,7.675-5.147,14.873
					c3.197,7.26,13.181,7.03,17.176,3.58C203.938,64.032,203.896,56.788,201.431,52.875z"/>
				<path fill="#D47A00" d="M221.021,151.163c-3.001-4.764-9.336-5.095-14.559-2.946c-3.908,1.608-8.317,7.675-5.147,14.873
					c3.197,7.26,13.181,7.03,17.176,3.58C223.528,162.32,223.486,155.076,221.021,151.163z"/>
				<path fill="#D47A00" d="M119.041,182.057c-3.001-4.764-9.336-5.095-14.559-2.946c-3.908,1.608-8.317,7.675-5.147,14.873
					c3.197,7.26,13.181,7.03,17.176,3.58C121.549,193.214,121.506,185.97,119.041,182.057z"/>
				<path fill="#D47A00" d="M196.893,193.729c-3.001-4.764-9.336-5.095-14.559-2.946c-3.908,1.608-8.317,7.675-5.147,14.873
					c3.197,7.26,13.181,7.03,17.176,3.58C199.401,204.886,199.358,197.642,196.893,193.729z"/>
			</g>
		</g>
		<g>
			<path fill="#FFFFFF" d="M82.598,83.522C71.705,66.231,48.711,65.027,29.755,72.828c-14.183,5.837-30.188,27.856-18.682,53.982
				c11.604,26.349,47.842,25.515,62.344,12.993C91.7,124.018,91.546,97.724,82.598,83.522z"/>
			<path fill="#821F1B" d="M70.484,93.065c-6.368-10.108-19.811-10.812-30.893-6.251c-8.292,3.412-17.648,16.285-10.922,31.559
				c6.784,15.404,27.969,14.916,36.447,7.596C75.804,116.739,75.714,101.367,70.484,93.065z"/>
		</g>
		<g>
			<path fill="#FFFFFF" d="M251.76,83.522c-10.894-17.291-33.888-18.495-52.843-10.693c-14.183,5.837-30.188,27.856-18.682,53.982
				c11.604,26.349,47.842,25.515,62.344,12.993C260.861,124.018,260.707,97.724,251.76,83.522z"/>
			<path fill="#821F1B" d="M239.645,93.065c-6.368-10.108-19.811-10.812-30.893-6.251c-8.292,3.412-17.648,16.285-10.922,31.559
				c6.784,15.404,27.969,14.916,36.447,7.596C244.966,116.739,244.876,101.367,239.645,93.065z"/>
		</g>
	</g>
</g>
<g id="Layer_1">
</g>
</svg>
