<?xml version="1.0" encoding="utf-8"?>
<!-- Generator: Adobe Illustrator 24.2.3, SVG Export Plug-In . SVG Version: 6.00 Build 0)  -->
<svg version="1.1" xmlns="http://www.w3.org/2000/svg" xmlns:xlink="http://www.w3.org/1999/xlink" x="0px" y="0px"
	 viewBox="0 0 242.139 224.122" enable-background="new 0 0 242.139 224.122" xml:space="preserve">
<g id="lemon_x5F_collision">
	<g>
		<g>
			<path fill="#FFE400" d="M232.032,150.953C257.663,48.276,159.142-40.351,64.06,19.244C42.073,15.088,6.825,18.231,0.369,43.581
				C-2.464,59.167,11.76,72.576,16.944,87.397C1.877,146.984,30.927,207.765,93.88,220.472
				c25.016,7.662,78.282,3.982,104.123-17.956c16.107-0.675,42.099-6.573,44.129-25.186
				C242.427,169.44,232.47,152.491,232.032,150.953z"/>
		</g>
		<g>
			<path fill="#FFFFFF" d="M128.817,207.312c-23.054,1.629-25.356-33.013-3.609-36.706
				C150.506,164.963,155.96,208.739,128.817,207.312z"/>
			<path fill="#FFFFFF" d="M151.99,144.099c-3.575,28.863-45.078,22.301-36.371-7.55
				C122.828,118.117,151.956,124.489,151.99,144.099z"/>
			<path fill="#FFFFFF" d="M83.126,192.255c-23.932-1.357-21.053-32.708,1.897-32.288
				C110.555,158.735,107.435,192.475,83.126,192.255z"/>
			<path fill="#FFFFFF" d="M56.174,90.045c29.751,3.213,12.704,41.491-12.113,30.358C26.449,110.478,37.381,88.067,56.174,90.045z"
				/>
			<path fill="#FFFFFF" d="M172.55,164.44c24.516,1.724,13.878,33.214-7.516,26.25c-7.529-1.581-9.42-10.542-7.803-17.077
				C158.954,166.337,165.969,164.946,172.55,164.44z"/>
			<path fill="#FFFFFF" d="M68.965,143.805c1.782,19.588-24.385,23.527-26.784,4.045C39.14,126.654,68.325,124.348,68.965,143.805z"
				/>
			<path fill="#FFFFFF" d="M77.217,67.937c0.641,18.291-27.924,17.943-25.751-0.195C52.571,52.489,77.97,51.759,77.217,67.937z"/>
			<path fill="#FFFFFF" d="M94.363,124.867c16.626-0.23,13.221,27.584-2.469,25.535C73.825,150.336,76.994,123.215,94.363,124.867z"
				/>
			<path fill="#4A4A49" d="M143.286,136.96c-3.158-5.012-9.822-5.361-15.317-3.1c-4.111,1.692-8.75,8.074-5.415,15.647
				c3.364,7.637,13.867,7.395,18.07,3.766C145.924,148.698,145.88,141.076,143.286,136.96z"/>
			<path fill="#4A4A49" d="M135.182,183.975c-2.099-3.331-6.529-3.563-10.18-2.06c-2.732,1.125-5.816,5.367-3.599,10.4
				c2.236,5.076,9.217,4.915,12.011,2.503C136.935,191.776,136.906,186.711,135.182,183.975z"/>
			<path fill="#4A4A49" d="M70.991,65.134c-2.099-3.331-6.529-3.563-10.18-2.06c-2.732,1.125-5.816,5.367-3.599,10.4
				c2.236,5.076,9.217,4.915,12.011,2.503C72.745,72.936,72.715,67.87,70.991,65.134z"/>
			<path fill="#4A4A49" d="M61.705,101.509c-2.55-4.047-7.931-4.328-12.367-2.503c-3.319,1.366-7.065,6.519-4.372,12.634
				c2.716,6.167,11.197,5.971,14.591,3.041C63.835,110.987,63.799,104.833,61.705,101.509z"/>
			<path fill="#4A4A49" d="M99.251,134.01c-2.099-3.331-6.529-3.563-10.18-2.06c-2.732,1.125-5.816,5.367-3.599,10.4
				c2.236,5.076,9.217,4.915,12.011,2.503C101.005,141.811,100.975,136.746,99.251,134.01z"/>
			<path fill="#4A4A49" d="M178.378,172.452c-2.099-3.331-6.529-3.563-10.18-2.06c-2.732,1.125-5.816,5.367-3.599,10.4
				c2.236,5.076,9.217,4.915,12.011,2.503C180.131,180.254,180.102,175.188,178.378,172.452z"/>
			<path fill="#4A4A49" d="M91.413,171.334c-2.099-3.331-6.529-3.563-10.18-2.06c-2.732,1.125-5.816,5.367-3.599,10.4
				c2.236,5.076,9.217,4.915,12.011,2.503C93.167,179.136,93.137,174.07,91.413,171.334z"/>
			<path fill="#4A4A49" d="M62.206,141.483c-2.099-3.331-6.529-3.563-10.18-2.06c-2.732,1.125-5.816,5.367-3.599,10.4
				c2.236,5.076,9.217,4.915,12.011,2.503C63.959,149.284,63.93,144.219,62.206,141.483z"/>
		</g>
		<g>
			<path fill="#FFFFFF" d="M127.096,14.32c23.054-1.629,25.356,33.013,3.609,36.706C105.407,56.669,99.953,12.893,127.096,14.32z"/>
			<path fill="#FFFFFF" d="M172.787,29.377c23.932,1.357,21.053,32.708-1.897,32.288C145.358,62.897,148.478,29.157,172.787,29.377z
				"/>
			<path fill="#FFFFFF" d="M199.739,131.587c-29.751-3.213-12.704-41.491,12.113-30.358
				C229.464,111.154,218.532,133.565,199.739,131.587z"/>
			<path fill="#FFFFFF" d="M83.363,57.192c-24.516-1.724-13.878-33.214,7.516-26.25c7.529,1.581,9.42,10.542,7.803,17.077
				C96.959,55.295,89.944,56.686,83.363,57.192z"/>
			<path fill="#FFFFFF" d="M186.948,77.827c-1.782-19.588,24.385-23.527,26.784-4.045C216.773,94.978,187.588,97.284,186.948,77.827
				z"/>
			<path fill="#FFFFFF" d="M178.696,153.695c-0.641-18.291,27.924-17.943,25.751,0.195
				C203.342,169.143,177.943,169.873,178.696,153.695z"/>
			<path fill="#4A4A49" d="M120.732,37.658c2.099,3.331,6.529,3.563,10.18,2.06c2.732-1.125,5.816-5.367,3.599-10.4
				c-2.236-5.076-9.217-4.915-12.011-2.503C118.979,29.856,119.008,34.922,120.732,37.658z"/>
			<path fill="#4A4A49" d="M184.923,156.499c2.099,3.331,6.529,3.563,10.18,2.06c2.732-1.125,5.816-5.367,3.599-10.4
				c-2.236-5.076-9.217-4.915-12.011-2.503C183.169,148.697,183.199,153.763,184.923,156.499z"/>
			<path fill="#4A4A49" d="M194.209,120.124c2.55,4.047,7.931,4.328,12.367,2.503c3.319-1.366,7.065-6.519,4.372-12.634
				c-2.716-6.167-11.197-5.971-14.591-3.041C192.079,110.646,192.115,116.8,194.209,120.124z"/>
			<path fill="#4A4A49" d="M77.536,49.18c2.099,3.331,6.529,3.563,10.18,2.06c2.732-1.125,5.816-5.367,3.599-10.4
				c-2.236-5.076-9.217-4.915-12.011-2.503C75.783,41.378,75.812,46.444,77.536,49.18z"/>
			<path fill="#4A4A49" d="M164.5,50.299c2.099,3.331,6.529,3.563,10.18,2.06c2.732-1.125,5.816-5.367,3.599-10.4
				c-2.236-5.076-9.217-4.915-12.011-2.503C162.747,42.497,162.777,47.562,164.5,50.299z"/>
			<path fill="#4A4A49" d="M193.708,80.15c2.099,3.331,6.529,3.563,10.18,2.06c2.732-1.125,5.816-5.367,3.599-10.4
				c-2.236-5.076-9.217-4.915-12.011-2.503C191.955,72.348,191.984,77.414,193.708,80.15z"/>
		</g>
		<path id="XMLID_29_" fill="#FFA600" d="M92.806,104.982c17.758,1.536,28.674-16.591,48.952-0.581
			c8.14,7.42,16.992,24.15,29.998,17.143c13.419-11.858,4.803-34.049-6.409-44.691c-14.102-13.868-35.311-18.239-54.394-13.857
			c-15.174,3.484-27.865,12.201-29.761,21.028C79.296,92.849,84.325,103.144,92.806,104.982z"/>
	</g>
	<g id="Layer_1_14_">
	</g>
</g>
<g id="Layer_1">
</g>
</svg>
