<?xml version="1.0" encoding="utf-8"?>
<!-- Generator: Adobe Illustrator 24.2.3, SVG Export Plug-In . SVG Version: 6.00 Build 0)  -->
<svg version="1.1" xmlns="http://www.w3.org/2000/svg" xmlns:xlink="http://www.w3.org/1999/xlink" x="0px" y="0px"
	 viewBox="0 0 262.696 260.861" enable-background="new 0 0 262.696 260.861" xml:space="preserve">
<g id="orange_x5F_touch">
	<g>
		<g id="orange_4_">
			<g id="orange_5_">
				<g>
					<path id="XMLID_31_" fill="#FAA219" d="M21.364,55.115C52.18,10.695,124.72-15.511,177.538,10.032
						c31.718,15.339,63.188,46.986,75.847,77.906L96.908,253.992C36.471,248.901-37.067,139.344,21.364,55.115z"/>
					<g>
						<path fill="#BD6F2B" d="M71.987,66.432c-7.064,3.821-16.202,3.456-22.938-0.915c2.942,7.583,0.391,16.943-5.991,21.986
							c7.25-0.142,16.281,0.242,18.825,8.779c3.548-5.852,9.655-10.087,16.379-11.362C72.78,80.725,70.191,73.096,71.987,66.432z"/>
					</g>
					<path fill="#F77F15" d="M51.991,233.121c51.431,45.55,137.508,33.38,184.387-24.602
						c42.629-52.724,31.713-127.621-20.041-171.478c-1.353,35.397-9.25,85.818-40.683,124.269
						C141.641,202.917,87.598,223.333,51.991,233.121z"/>
				</g>
			</g>
		</g>
		<g>
			<path fill="#FFFFFF" d="M177.586,87.768c-10.914-17.323-33.95-18.529-52.941-10.713c-14.209,5.848-30.244,27.907-18.716,54.082
				c11.626,26.398,47.93,25.562,62.459,13.017C186.704,128.339,186.549,101.996,177.586,87.768z"/>
			<path fill="#821F1B" d="M155.224,103.659c-3.909-6.205-12.16-6.637-18.962-3.837c-5.089,2.095-10.832,9.996-6.704,19.371
				c4.164,9.455,17.167,9.156,22.371,4.662C158.49,118.191,158.434,108.756,155.224,103.659z"/>
		</g>
		<g>
			<path fill="#FFFFFF" d="M136.743,18.411c-8.46-13.429-26.319-14.364-41.041-8.305C84.687,14.639,72.257,31.74,81.193,52.031
				c9.012,20.464,37.156,19.816,48.419,10.091C143.812,49.862,143.692,29.441,136.743,18.411z"/>
			<path fill="#821F1B" d="M119.408,30.73c-3.03-4.81-9.427-5.145-14.7-2.975c-3.945,1.624-8.398,7.749-5.197,15.017
				c3.228,7.33,13.309,7.098,17.343,3.614C121.939,41.995,121.897,34.681,119.408,30.73z"/>
		</g>
		<g id="Layer_1_8_">
		</g>
	</g>
</g>
<g id="Layer_1">
</g>
</svg>
