<?xml version="1.0" encoding="utf-8"?>
<!-- Generator: Adobe Illustrator 24.2.3, SVG Export Plug-In . SVG Version: 6.00 Build 0)  -->
<svg version="1.1" xmlns="http://www.w3.org/2000/svg" xmlns:xlink="http://www.w3.org/1999/xlink" x="0px" y="0px"
	 viewBox="0 0 292.8 241.955" enable-background="new 0 0 292.8 241.955" xml:space="preserve">
<g id="pumpkin_x5F_touch">
	<g>
		<g id="pumpkin_1_">
			<g id="pumpkin_4_">
				<g>
					<path fill="#D86713" d="M97.1,27.845c0,0,11.519-13.509,52.777-13.903c43.499-0.415,54.037,17.292,54.037,17.292
						l-52.446,35.071L97.1,27.845z"/>
					<path fill="#F67F15" d="M230.934,30.275c-48.416-14.226-71.654,9.564-80.228,23.785
						c-11.788-12.166-33.603-30.851-76.825-26.704C-50.293,48.765-6.661,265.691,121.07,232.587l62.631,2.961
						C306.252,255.664,330.607,52.024,230.934,30.275z"/>
					<g>
						<path fill="#69B802" d="M128.884,47.317c0,0,11.054-22.178,7.071-47.317l20.676,4.795c0,0,11.523,22.721,12.942,42.195
							L128.884,47.317L128.884,47.317z"/>
						<path fill="#5AA043" d="M148.735,47.157l-2.142-44.691L135.954,0c3.983,25.139-7.071,47.317-7.071,47.317L148.735,47.157z"/>
					</g>
					<path fill="#FAA219" d="M148.887,47.905c0,0-37.798-25.166-73.939,4.157C29.202,89.177,36.219,244.143,149.613,241.91
						c113.394-2.234,129.983-168.528,54.661-197.819C169.318,30.498,148.887,47.905,148.887,47.905z"/>
					<path fill="#E89213" d="M148.886,48.028c0,0-37.798-25.166-73.939,4.157c-44.539,36.137-40.303,187.25,69.968,189.77
						C119.302,112.861,148.886,48.028,148.886,48.028z"/>
				</g>
			</g>
		</g>
		<path fill="#4A4A49" d="M108.823,113.992C98.482,97.577,76.652,96.434,58.657,103.84c-13.465,5.541-28.659,26.445-17.736,51.248
			c11.016,25.015,45.418,24.222,59.186,12.335C117.464,152.437,117.317,127.474,108.823,113.992z"/>
		<path fill="#4A4A49" d="M251.05,113.992c-10.342-16.415-32.171-17.558-50.166-10.152c-13.465,5.541-28.659,26.445-17.736,51.248
			c11.016,25.015,45.418,24.222,59.186,12.335C259.69,152.437,259.544,127.474,251.05,113.992z"/>
		<path fill="#FF8000" d="M87.633,129.051c-3.704-5.879-11.523-6.289-17.968-3.636c-4.823,1.985-10.265,9.472-6.352,18.356
			c3.946,8.96,16.268,8.676,21.199,4.418C90.728,142.821,90.676,133.88,87.633,129.051z"/>
		<path fill="#FF8000" d="M229.86,129.051c-3.704-5.879-11.523-6.289-17.968-3.636c-4.823,1.985-10.265,9.472-6.352,18.356
			c3.946,8.96,16.268,8.676,21.199,4.418C232.955,142.821,232.902,133.88,229.86,129.051z"/>
	</g>
</g>
<g id="Layer_1">
</g>
</svg>
