<?xml version="1.0" encoding="utf-8"?>
<!-- Generator: Adobe Illustrator 24.2.3, SVG Export Plug-In . SVG Version: 6.00 Build 0)  -->
<svg version="1.1" xmlns="http://www.w3.org/2000/svg" xmlns:xlink="http://www.w3.org/1999/xlink" x="0px" y="0px"
	 viewBox="0 0 292.8 242.016" enable-background="new 0 0 292.8 242.016" xml:space="preserve">
<g id="pumpkin_x5F_collision">
	<g>
		<g id="pumpkin_7_">
			<g id="pumpkin_8_">
				<g>
					<path fill="#D86713" d="M97.699,27.601c0,0,11.604-13.437,52.865-13.571c43.502-0.142,53.929,17.633,53.929,17.633
						l-52.668,34.742L97.699,27.601z"/>
					<path fill="#F67F15" d="M231.519,30.874c-48.328-14.531-71.715,9.113-80.379,23.28c-11.712-12.24-33.409-31.063-76.658-27.188
						C-49.828,47.594-7.561,264.798,120.38,232.497l62.613,3.355C305.421,256.74,331.058,53.25,231.519,30.874z"/>
					<g>
						<path fill="#69B802" d="M129.361,47.274c0,0,11.193-22.109,7.369-47.274l20.647,4.925c0,0,11.381,22.793,12.676,42.277
							L129.361,47.274L129.361,47.274z"/>
						<path fill="#5AA043" d="M149.213,47.238l-1.861-44.705L136.728,0c3.825,25.165-7.369,47.274-7.369,47.274L149.213,47.238z"/>
					</g>
					<path fill="#FAA219" d="M149.361,47.987c0,0-37.64-25.405-73.967,3.692C29.414,88.507,35.456,243.52,148.866,242
						c113.41-1.52,131.045-167.712,55.907-197.478C169.902,30.709,149.361,47.987,149.361,47.987z"/>
					<path fill="#E89213" d="M149.359,48.11c0,0-37.64-25.405-73.967,3.692C30.625,87.66,33.91,238.801,144.167,242.016
						C119.367,112.758,149.359,48.11,149.359,48.11z"/>
				</g>
			</g>
		</g>
		<path fill="#4A4A49" d="M268.465,91.529c-12.505-19.848-38.9-21.23-60.659-12.275c-16.281,6.7-34.653,31.976-21.445,61.966
			c13.321,30.246,54.918,29.288,71.565,14.915C278.912,138.015,278.736,107.832,268.465,91.529z"/>
		<path fill="#FF8000" d="M223.327,96.783c-4.218-6.696-13.123-7.162-20.463-4.141c-5.492,2.26-11.69,10.787-7.235,20.904
			c4.494,10.204,18.527,9.88,24.142,5.032C226.852,112.465,226.792,102.282,223.327,96.783z"/>
		<path fill="#4A4A49" d="M93.978,96.319c-11.994-19.037-37.31-20.363-58.18-11.773c-15.616,6.427-33.237,30.669-20.569,59.434
			c12.776,29.011,52.674,28.091,68.64,14.305C103.999,140.905,103.829,111.956,93.978,96.319z"/>
		<path fill="#FF8000" d="M84.811,129.191c-4.046-6.422-12.587-6.869-19.627-3.972c-5.268,2.168-11.212,10.346-6.939,20.05
			c4.31,9.787,17.77,9.477,23.156,4.826C88.191,144.232,88.134,134.466,84.811,129.191z"/>
		<path fill="#4A4A49" d="M100.644,142.276h81.695c0,0-1.738,43.391-41.716,43.391S100.644,142.276,100.644,142.276z"/>
		<path fill="#FF8000" d="M111.728,147.225c1.78,7.98,8.108,9.348,13.579,6.684c5.003-2.387,5.75-10.942,6.001-12.18
			c0.533,5.01,2.048,13.795,11.248,13.485c8.127-0.274,10.554-12.963,10.7-13.073c0,0,1.41,13.071,8.001,13.017
			c10.053-0.083,10.534-12.841,10.544-13.437c-0.932-0.031-23.501-0.122-60.622-0.25
			C111.18,141.471,111.297,145.686,111.728,147.225z"/>
	</g>
	<g id="Layer_1_11_">
	</g>
	<g id="Layer_1_12_">
	</g>
</g>
<g id="Layer_1">
</g>
</svg>
