<?xml version="1.0" encoding="utf-8"?>
<!-- Generator: Adobe Illustrator 24.2.3, SVG Export Plug-In . SVG Version: 6.00 Build 0)  -->
<svg version="1.1" xmlns="http://www.w3.org/2000/svg" xmlns:xlink="http://www.w3.org/1999/xlink" x="0px" y="0px"
	 viewBox="0 0 148.346 168.98" enable-background="new 0 0 148.346 168.98" xml:space="preserve">
<g id="strawberry_x5F_touch">
	<g>
		<g id="strawberry_2_">
			<g>
				<g>
					<path fill="#0EB800" d="M99.27,6.583c-5.746,4.835-17.955,15.092-18.349,14.991C80.434,21.447,74.079,6.994,71.679,0
						C68.385,7.216,61.161,22.979,60.67,23.05c-0.302,0.042-12.574-8.72-18.421-12.898C41.836,24.764,48.408,39.55,57.06,43.469
						l34.766-3.739C103.527,29.277,100.107,10.681,99.27,6.583z"/>
				</g>
				<g>
					<path fill="#FF4035" d="M146.197,69.711c-5.067-16.889-17.916-26.078-30.123-31.562C87.695,25.394,17.862,27.951,4.173,58.952
						C0.182,67.99-1.297,80.251,1.297,91.054s7.742,20.002,13.009,28.657c14.44,23.733,32.502,46.662,54.138,49.06
						c17.939,1.988,34.723-10.62,49.588-24.467c8.993-8.376,17.899-17.617,23.883-30.376
						C147.9,101.171,150.535,84.167,146.197,69.711z"/>
				</g>
				<path fill="#C30D26" d="M38.003,97.238c-3.834-15.457-3.227-32.976,6.161-45.839C51.471,41.386,62.87,35.627,74.53,30.944
					c-29.354-0.145-61.53,8.014-70.358,28.005C0.18,67.987-1.301,80.249,1.296,91.052c2.594,10.803,7.742,20.002,13.009,28.657
					c14.44,23.733,32.502,46.662,54.138,49.06c9.689,1.074,19.043-2.114,27.936-7.454C68.389,150.605,45.255,126.48,38.003,97.238z"
					/>
				<path fill="#FF8000" d="M104.141,53.924c-0.254-4.047-2.448-6.59-5.535-6.418c-3.222,0.18-5.296,3.491-5.022,8.024
					c0.23,3.835,2.299,6.095,5.413,5.917C102.419,61.255,104.417,58.329,104.141,53.924z"/>
				<path fill="#FF8000" d="M58.522,57.857c-0.254-4.047-2.448-6.59-5.535-6.418c-3.222,0.18-5.296,3.491-5.022,8.024
					c0.23,3.835,2.299,6.095,5.413,5.917C56.799,65.185,58.798,62.263,58.522,57.857z"/>
				<path fill="#FF8000" d="M129.198,77.775c-0.254-4.047-2.362-6.596-5.316-6.434c-3.084,0.17-5.058,3.473-4.786,8.009
					c0.232,3.835,2.218,6.1,5.201,5.931C127.569,85.098,129.474,82.178,129.198,77.775z"/>
				<path fill="#FF8000" d="M49.399,90.915c-0.253-4.008-2.358-6.536-5.314-6.373c-3.084,0.17-5.062,3.446-4.79,7.938
					c0.229,3.8,2.213,6.044,5.197,5.876C47.768,98.169,49.674,95.279,49.399,90.915z"/>
				<path fill="#FF8000" d="M23.321,72.052c-0.238-3.791-2.332-6.17-5.286-6.004c-3.084,0.172-5.073,3.276-4.817,7.523
					c0.216,3.593,2.189,5.705,5.172,5.536C21.661,78.922,23.577,76.18,23.321,72.052z"/>
				<path fill="#FF8000" d="M76.088,117.887c-0.238-3.791-2.332-6.17-5.286-6.004c-3.084,0.172-5.073,3.276-4.817,7.523
					c0.216,3.593,2.189,5.705,5.172,5.536C74.428,124.754,76.347,122.012,76.088,117.887z"/>
				<path fill="#FF8000" d="M105.597,102.686c-0.238-3.791-2.332-6.17-5.286-6.004c-3.084,0.172-5.073,3.276-4.817,7.523
					c0.216,3.593,2.189,5.705,5.172,5.536C103.938,109.553,105.854,106.81,105.597,102.686z"/>
				<path fill="#FF8000" d="M130.409,110.147c-0.194-3.088-1.902-5.03-4.309-4.896c-2.514,0.14-4.135,2.671-3.928,6.132
					c0.177,2.93,1.786,4.65,4.218,4.512C129.058,115.746,130.62,113.51,130.409,110.147z"/>
				<path fill="#FF8000" d="M105.632,133.106c-0.194-3.08-1.897-5.015-4.296-4.881c-2.507,0.14-4.123,2.664-3.917,6.115
					c0.176,2.92,1.781,4.638,4.205,4.498C104.283,138.687,105.843,136.459,105.632,133.106z"/>
				<path fill="#FF8000" d="M29.013,108.662c-0.196-3.159-1.945-5.141-4.406-5.002c-2.571,0.144-4.226,2.73-4.014,6.268
					c0.179,2.992,1.824,4.753,4.309,4.612C27.63,114.382,29.229,112.098,29.013,108.662z"/>
				<path fill="#FF8000" d="M50.181,132.878c-0.196-3.159-1.945-5.141-4.406-5.002c-2.571,0.144-4.226,2.73-4.014,6.268
					c0.179,2.992,1.824,4.753,4.309,4.612C48.798,138.6,50.395,136.317,50.181,132.878z"/>
				<path fill="#FF8000" d="M77.335,148.971c-0.196-3.159-1.945-5.141-4.406-5.004c-2.571,0.144-4.226,2.73-4.014,6.268
					c0.179,2.992,1.824,4.753,4.309,4.612C75.954,154.694,77.551,152.408,77.335,148.971z"/>
			</g>
		</g>
		<g>
			<path fill="#FFFFFF" d="M92.575,68.432c-3.859-7.536-13.303-8.879-21.412-6.358c-6.067,1.887-13.482,10.383-9.696,21.588
				c3.819,11.3,18.802,12.289,25.247,7.656C94.84,85.478,95.745,74.622,92.575,68.432z"/>
			<path fill="#821F1B" d="M82.781,74.156c-1.382-2.699-4.765-3.18-7.669-2.277c-2.173,0.676-4.829,3.719-3.473,7.732
				c1.368,4.047,6.735,4.402,9.043,2.742C83.592,80.261,83.916,76.373,82.781,74.156z"/>
		</g>
	</g>
</g>
<g id="Layer_1">
</g>
</svg>
