<?xml version="1.0" encoding="utf-8"?>
<!-- Generator: Adobe Illustrator 26.0.3, SVG Export Plug-In . SVG Version: 6.00 Build 0)  -->
<svg version="1.1" xmlns="http://www.w3.org/2000/svg" xmlns:xlink="http://www.w3.org/1999/xlink" x="0px" y="0px"
	 viewBox="0 0 633.141 295.736" enable-background="new 0 0 633.141 295.736" xml:space="preserve">
<g id="cake_x5F_hill_x5F_triangles_x5F_white">
	<path fill="#FFFFFF" d="M625.314,105.747C615.59,38.694,592.397,8.464,510.82,4.357c-100.114-5.04-266.953-6.531-396.394,0
		C33.037,8.464,15.188,79.836,10.36,105.747c-14.57,78.187-9.327,186.259-9.883,189.989c7.324-1.588,626.29-2.944,632.664,0
		C632.939,284.266,630.83,143.791,625.314,105.747z"/>
	<path fill="#CAD2D3" d="M50.054,225.222c-4.848-3.288,45.941-88.828,55.594-89.189c10.541-0.394,63.499,76.324,63.755,83.176
		C168.384,226.063,58.504,229.722,50.054,225.222z"/>
	<path fill="#CAD2D3" d="M267.019,73.603c4.848,3.288-45.942,88.828-55.594,89.189c-10.541,0.394-63.499-76.324-63.755-83.176
		C148.69,72.762,258.57,69.103,267.019,73.603z"/>
	<path fill="#CAD2D3" d="M486.703,73.603c4.848,3.288-45.941,88.828-55.594,89.189c-10.541,0.394-63.499-76.324-63.755-83.176
		C368.373,72.762,478.253,69.103,486.703,73.603z"/>
	<path fill="#CAD2D3" d="M259.059,225.222c-4.848-3.288,45.941-88.828,55.594-89.189c10.541-0.394,63.499,76.324,63.755,83.176
		C377.389,226.063,267.509,229.722,259.059,225.222z"/>
	<path fill="#CAD2D3" d="M468.758,225.222c-4.848-3.288,45.941-88.828,55.594-89.189c10.541-0.394,63.499,76.324,63.755,83.176
		C587.087,226.063,477.207,229.722,468.758,225.222z"/>
</g>
<g id="Layer_1">
</g>
</svg>
