<?xml version="1.0" encoding="utf-8"?>
<!-- Generator: Adobe Illustrator 26.0.3, SVG Export Plug-In . SVG Version: 6.00 Build 0)  -->
<svg version="1.1" xmlns="http://www.w3.org/2000/svg" xmlns:xlink="http://www.w3.org/1999/xlink" x="0px" y="0px"
	 viewBox="0 0 633.141 295.736" enable-background="new 0 0 633.141 295.736" xml:space="preserve">
<g id="cake_x5F_hill_x5F_stripes_x5F_horizontal_x5F_white">
	<path fill="#FFFFFF" d="M625.314,105.747C615.59,38.694,592.397,8.464,510.82,4.357c-100.114-5.04-266.953-6.531-396.394,0
		C33.037,8.464,15.188,79.836,10.36,105.747c-14.57,78.187-9.327,186.259-9.883,189.989c7.324-1.588,626.29-2.944,632.664,0
		C632.939,284.266,630.83,143.791,625.314,105.747z"/>
	<path fill="#CAD2D3" d="M629.301,159.286c-0.4-8.523-0.835-16.624-1.307-24.009L6.707,128.853
		c-2.25,16.882-3.776,34.473-4.796,51.635L629.301,159.286z"/>
	<path fill="#CAD2D3" d="M13.919,90.161h608.738c-4.209-21.091-10.456-37.905-20.579-50.881L27.049,57.449
		C20.676,68.881,16.591,80.432,13.919,90.161z"/>
	<path fill="#CAD2D3" d="M632.583,265.284c-0.3-14.601-0.724-32.994-1.293-52.242L0.486,213.724
		c-0.318,11.5-0.451,22.39-0.48,32.258L632.583,265.284z"/>
</g>
<g id="Layer_1">
</g>
</svg>
