<?xml version="1.0" encoding="utf-8"?>
<!-- Generator: Adobe Illustrator 26.0.3, SVG Export Plug-In . SVG Version: 6.00 Build 0)  -->
<svg version="1.1" xmlns="http://www.w3.org/2000/svg" xmlns:xlink="http://www.w3.org/1999/xlink" x="0px" y="0px"
	 viewBox="0 0 633.14 298.264" enable-background="new 0 0 633.14 298.264" xml:space="preserve">
<g id="cake_x5F_hill_x5F_waves_x5F_white">
	<path fill="#FFFFFF" d="M625.314,108.275C615.59,41.222,592.397,10.991,510.82,6.885c-100.114-5.04-266.953-6.531-396.394,0
		c-81.39,4.107-99.239,75.479-104.067,101.39c-14.57,78.187-9.327,186.259-9.883,189.989c7.324-1.588,626.29-2.944,632.664,0
		C632.939,286.794,630.83,146.318,625.314,108.275z"/>
	<path fill="#CAD2D3" d="M625.076,105.827C617.341,45.752,594.067,6.764,510.495,4.362C410.307-0.684,243.341-2.176,113.803,4.36
		C31.487,11.662,15.599,70.062,7.059,121.436c13.939,1.282,29.221,5.134,46.986,12.232c120.939,48.314,105.661-41.396,222.53,1.971
		s139.282-34.825,230.535-3.285c59.855,20.688,93.714,14.9,120.792,5.298C627.08,124.337,626.141,113.173,625.076,105.827z"/>
</g>
<g id="Layer_1">
</g>
</svg>
