<?xml version="1.0" encoding="utf-8"?>
<!-- Generator: Adobe Illustrator 26.0.3, SVG Export Plug-In . SVG Version: 6.00 Build 0)  -->
<svg version="1.1" xmlns="http://www.w3.org/2000/svg" xmlns:xlink="http://www.w3.org/1999/xlink" x="0px" y="0px"
	 viewBox="0 0 633.141 295.736" enable-background="new 0 0 633.141 295.736" xml:space="preserve">
<g id="cake_x5F_hill_x5F_stripes_x5F_vertical_x5F_white">
	<path fill="#FFFFFF" d="M625.314,105.747C615.59,38.694,592.397,8.464,510.82,4.357c-100.114-5.04-266.953-6.531-396.394,0
		C33.037,8.464,15.188,79.836,10.36,105.747c-14.57,78.187-9.327,186.259-9.883,189.989c7.324-1.588,626.29-2.944,632.664,0
		C632.939,284.266,630.83,143.791,625.314,105.747z"/>
	<path fill="#CAD2D3" d="M188.951,294.301c-8.85-64.939-37.728-223.804-55.913-290.818c-6.28,0.274-12.488,0.564-18.611,0.873
		c-2.739,0.138-5.4,0.359-7.997,0.645C83.455,73.335,42.805,231.988,30.985,295.144C64.363,294.806,122.066,294.508,188.951,294.301
		z"/>
	<path fill="#CAD2D3" d="M397.865,0.761c-51.216-0.898-107.456-1.048-162.666-0.19c4.55,45.204,34.103,212.314,54.294,293.501
		c11.458-0.017,22.963-0.032,34.457-0.043C349.86,212.572,392.031,44.761,397.865,0.761z"/>
	<path fill="#CAD2D3" d="M570.301,294.487C558.985,218.003,529.345,58.234,512.68,4.461c-0.62-0.035-1.233-0.073-1.86-0.104
		c-5.119-0.258-10.422-0.506-15.877-0.744c-20.001,52.905-61.999,213.871-77.817,290.398
		C476.74,294.051,531.041,294.199,570.301,294.487z"/>
	<g id="Layer_1_00000103944348782864307480000012831908658709841827_">
	</g>
</g>
<g id="Layer_1">
</g>
</svg>
