<?xml version="1.0" encoding="utf-8"?>
<!-- Generator: Adobe Illustrator 26.0.3, SVG Export Plug-In . SVG Version: 6.00 Build 0)  -->
<svg version="1.1" xmlns="http://www.w3.org/2000/svg" xmlns:xlink="http://www.w3.org/1999/xlink" x="0px" y="0px"
	 viewBox="0 0 633.141 295.736" enable-background="new 0 0 633.141 295.736" xml:space="preserve">
<g id="cake_x5F_hill_x5F_dots_x5F_white">
	<path fill="#FFFFFF" d="M625.314,105.747C615.59,38.694,592.397,8.464,510.82,4.357c-100.114-5.04-266.953-6.531-396.394,0
		C33.037,8.464,15.188,79.836,10.36,105.747c-14.57,78.187-9.327,186.259-9.883,189.989c7.324-1.588,626.29-2.944,632.664,0
		C632.939,284.266,630.83,143.791,625.314,105.747z"/>
	<path fill="#CAD2D3" d="M39.247,204.849c-0.754-40.219,67.379-41.22,68.073-1.807C113.04,243.56,37.08,246.111,39.247,204.849z"/>
	<path fill="#CAD2D3" d="M504.164,193.219c-0.754-40.219,67.379-41.22,68.073-1.807
		C577.957,231.931,501.997,234.482,504.164,193.219z"/>
	<path fill="#CAD2D3" d="M129.93,184.026c-0.754-40.219,67.379-41.22,68.073-1.807C203.723,222.738,127.763,225.289,129.93,184.026z
		"/>
	<path fill="#CAD2D3" d="M282.157,177.892c-0.754-40.219,67.379-41.22,68.073-1.807C355.951,216.603,279.99,219.154,282.157,177.892
		z"/>
	<path fill="#CAD2D3" d="M211.606,208.533c-0.604-32.2,53.945-33.002,54.501-1.447C270.687,239.526,209.87,241.569,211.606,208.533z
		"/>
	<path fill="#CAD2D3" d="M367.26,199.226c-0.604-32.2,53.945-33.002,54.501-1.447C426.342,230.219,365.525,232.262,367.26,199.226z"
		/>
	<path fill="#CAD2D3" d="M436.289,223.86c-0.604-32.2,53.945-33.002,54.501-1.447C495.37,254.854,434.554,256.897,436.289,223.86z"
		/>
</g>
<g id="Layer_1">
</g>
</svg>
