<?xml version="1.0" encoding="utf-8"?>
<!-- Generator: Adobe Illustrator 27.1.1, SVG Export Plug-In . SVG Version: 6.00 Build 0)  -->
<svg version="1.1" xmlns="http://www.w3.org/2000/svg" xmlns:xlink="http://www.w3.org/1999/xlink" x="0px" y="0px"
	 viewBox="0 0 554.164 139.345" enable-background="new 0 0 554.164 139.345" xml:space="preserve">
<g id="capsule_x5F_long_x5F_holes_x5F_white">
	
		<ellipse transform="matrix(0.8424 -0.5389 0.5389 0.8424 38.7447 269.3055)" fill="none" cx="479.757" cy="68.418" rx="23.887" ry="23.887"/>
	<g>
		<path fill="#FFFFFF" d="M483.753,0.003H69.425c-93.078,0.736-92.419,140.078,1.101,139.339h414.328
			C580.401,138.587,574.434-0.714,483.753,0.003z M98.094,82.113c-7.564,10.809-22.458,13.439-33.267,5.876
			c-10.809-7.564-13.44-22.458-5.876-33.267c7.564-10.809,22.458-13.439,33.267-5.875C103.027,56.41,105.658,71.304,98.094,82.113z
			 M499.328,82.114c-7.564,10.809-22.458,13.439-33.267,5.875c-10.809-7.564-13.44-22.458-5.876-33.267
			c7.564-10.809,22.458-13.439,33.267-5.875C504.261,56.41,506.892,71.305,499.328,82.114z"/>
	</g>
</g>
<g id="Layer_1">
</g>
</svg>
