<?xml version="1.0" encoding="utf-8"?>
<!-- Generator: Adobe Illustrator 26.0.3, SVG Export Plug-In . SVG Version: 6.00 Build 0)  -->
<svg version="1.1" xmlns="http://www.w3.org/2000/svg" xmlns:xlink="http://www.w3.org/1999/xlink" x="0px" y="0px"
	 viewBox="0 0 410.412 403.631" enable-background="new 0 0 410.412 403.631" xml:space="preserve">
<g id="circle_x5F_icecream_x5F_white">
	<path fill="#FFFFFF" d="M380.618,77.159c-54.946-87.213-170.926-93.285-266.536-53.936
		c-71.538,29.442-152.264,140.503-94.23,272.28c58.531,132.903,241.31,128.693,314.456,65.536
		C426.525,281.417,425.748,148.791,380.618,77.159z"/>
	<path fill="#CAD2D3" d="M409.678,170.786c-2.74-35.464-13.133-68.346-29.06-93.627c-54.946-87.213-170.926-93.285-266.536-53.936
		C61.133,45.014,3.168,111.524,0.141,198.047c14.54,10.004,37.363,14.918,42.326,26.407c6.89,15.953-5.676,35.629,2.619,51.013
		c5.855,10.856,18.399,16.192,29.835,3.1c6.252-7.156,8.296-25.465,8.465-49.127c0.183-25.424,9.593-33.438,19.202-32.739
		c10.956,0.047,20.68,14.026,20.472,21.591c-0.3,10.99-7.174,53.432-6.712,67.485c0.699,21.271,13.979,27.274,20.743,27.599
		c11.689,0.56,18.697-8,20.206-26.478c1.943-23.753,1.92-23.125,1.897-45.123c-0.025-23.552,23.428-42.068,46.199-28.538
		c19.459,11.509,47.054,22.467,76.844,17.404c30.857-5.248,35.473-51.343,114.799-55.323
		C401.858,175.078,406.112,173.414,409.678,170.786z"/>
</g>
<g id="Layer_1">
</g>
</svg>
