<?xml version="1.0" encoding="utf-8"?>
<!-- Generator: Adobe Illustrator 24.2.3, SVG Export Plug-In . SVG Version: 6.00 Build 0)  -->
<svg version="1.1" xmlns="http://www.w3.org/2000/svg" xmlns:xlink="http://www.w3.org/1999/xlink" x="0px" y="0px"
	 viewBox="0 0 410.393 255.278" enable-background="new 0 0 410.393 255.278" xml:space="preserve">
<g id="circles_x5F_stripes_x5F_white">
	<g>
		<path fill="#FFFFFF" d="M410.211,114.193L3.426,102.177c-2.689,14.384-3.89,29.481-3.263,45.161l409.527-5.196
			C410.404,132.74,410.566,123.397,410.211,114.193z"/>
		<path fill="#FFFFFF" d="M382.602,14.457L54.938,0c-17.21,18.644-32.151,41.806-42.092,68.356h391.127
			C399.206,48.436,391.931,30.099,382.602,14.457z"/>
		<path fill="#FFFFFF" d="M7.638,195.178c3.062,11.268,7.083,22.735,12.206,34.368c4.069,9.239,8.758,17.792,13.949,25.732
			l341.441-7.539c10.713-16.845,18.783-34.709,24.466-52.966L7.638,195.178z"/>
	</g>
</g>
<g id="Layer_1">
</g>
</svg>
