<?xml version="1.0" encoding="utf-8"?>
<!-- Generator: Adobe Illustrator 26.0.3, SVG Export Plug-In . SVG Version: 6.00 Build 0)  -->
<svg version="1.1" xmlns="http://www.w3.org/2000/svg" xmlns:xlink="http://www.w3.org/1999/xlink" x="0px" y="0px"
	 viewBox="0 0 410.412 403.631" enable-background="new 0 0 410.412 403.631" xml:space="preserve">
<g id="circle_x5F_dots_x5F_white">
	<path fill="#FFFFFF" d="M380.618,77.159c-54.946-87.213-170.926-93.285-266.536-53.936
		c-71.538,29.442-152.264,140.503-94.23,272.28c58.531,132.903,241.31,128.693,314.456,65.536
		C426.525,281.417,425.748,148.791,380.618,77.159z"/>
	<path fill="#CAD2D3" d="M39.93,141.967c-1.099-58.636,98.233-60.096,99.245-2.634C147.515,198.406,36.771,202.125,39.93,141.967z"
		/>
	<path fill="#CAD2D3" d="M50.471,265.356c-1.099-58.636,98.233-60.096,99.245-2.634C158.056,321.795,47.311,325.514,50.471,265.356z
		"/>
	<path fill="#CAD2D3" d="M175.795,202.393c-0.88-46.946,78.648-48.114,79.458-2.109
		C261.931,247.579,173.265,250.557,175.795,202.393z"/>
	<path fill="#CAD2D3" d="M157.516,85.185c-0.88-46.946,78.648-48.114,79.458-2.109C243.651,130.371,154.986,133.35,157.516,85.185z"
		/>
	<path fill="#CAD2D3" d="M190.45,319.6c-0.88-46.946,78.648-48.114,79.458-2.109C276.586,364.786,187.921,367.764,190.45,319.6z"/>
	<path fill="#CAD2D3" d="M277.335,134.538c-1.099-58.636,98.233-60.096,99.245-2.634
		C384.92,190.977,274.175,194.696,277.335,134.538z"/>
	<path fill="#CAD2D3" d="M286.266,260.212c-0.88-46.946,78.648-48.114,79.458-2.109
		C372.402,305.398,283.736,308.377,286.266,260.212z"/>
</g>
<g id="Layer_1">
</g>
</svg>
