<?xml version="1.0" encoding="utf-8"?>
<!-- Generator: Adobe Illustrator 26.0.3, SVG Export Plug-In . SVG Version: 6.00 Build 0)  -->
<svg version="1.1" xmlns="http://www.w3.org/2000/svg" xmlns:xlink="http://www.w3.org/1999/xlink" x="0px" y="0px"
	 viewBox="0 0 410.412 403.631" enable-background="new 0 0 410.412 403.631" xml:space="preserve">
<g id="circle_x5F_stripes_x5F_white">
	<path fill="#FFFFFF" d="M380.618,77.159c-54.946-87.213-170.926-93.285-266.536-53.936
		c-71.538,29.442-152.264,140.503-94.23,272.28c58.531,132.903,241.31,128.693,314.456,65.536
		C426.525,281.417,425.748,148.791,380.618,77.159z"/>
	<path fill="#CAD2D3" d="M410.22,180.15L3.434,168.135c-2.689,14.384-3.89,29.481-3.263,45.161l409.527-5.196
		C410.413,198.697,410.574,189.354,410.22,180.15z"/>
	<path fill="#CAD2D3" d="M382.611,80.414L54.947,65.957c-17.21,18.644-32.151,41.806-42.092,68.356h391.127
		C399.214,114.393,391.939,96.056,382.611,80.414z"/>
	<path fill="#CAD2D3" d="M7.646,261.135c3.062,11.268,7.083,22.735,12.206,34.368c4.069,9.239,8.758,17.792,13.949,25.732
		l341.441-7.539c10.713-16.845,18.783-34.709,24.466-52.966L7.646,261.135z"/>
</g>
<g id="Layer_1">
</g>
</svg>
