<?xml version="1.0" encoding="utf-8"?>
<!-- Generator: Adobe Illustrator 25.0.0, SVG Export Plug-In . SVG Version: 6.00 Build 0)  -->
<svg version="1.1" xmlns="http://www.w3.org/2000/svg" xmlns:xlink="http://www.w3.org/1999/xlink" x="0px" y="0px"
	 viewBox="0 0 782.892 782.891" enable-background="new 0 0 782.892 782.891" xml:space="preserve">
<g id="circle_x5F_stroke_x5F_white">
	<path fill="#FFFFFF" d="M771.157,342.46c-12.735-50.823-35.312-97.989-67.105-140.19c-31.793-42.2-70.901-76.912-116.24-103.172
		c-43.79-25.363-91.516-41.814-141.852-48.894c-50.338-7.078-100.748-4.433-149.835,7.867
		c-50.823,12.735-97.99,35.312-140.19,67.105c-42.2,31.793-76.913,70.902-103.173,116.24
		c-25.363,43.79-41.813,91.516-48.893,141.852s-4.433,100.749,7.866,149.835c12.735,50.823,35.312,97.989,67.105,140.19
		c31.793,42.2,70.901,76.912,116.239,103.173c43.79,25.363,91.516,41.814,141.852,48.893c5.681,0.799,11.358,1.474,17.038,2.025
		c44.655,4.335,89.25,1.02,132.797-9.891c50.823-12.734,97.99-35.312,140.19-67.104c42.2-31.793,76.913-70.902,103.173-116.24
		c25.363-43.79,41.813-91.516,48.893-141.852C786.103,441.959,783.457,391.547,771.157,342.46z M771.641,491.257
		c-6.946,49.381-23.082,96.199-47.962,139.154c-25.758,44.47-59.808,82.833-101.207,114.021
		c-41.399,31.189-87.666,53.337-137.516,65.828c-48.152,12.066-97.607,14.654-146.985,7.716
		c-49.381-6.946-96.199-23.083-139.154-47.963c-44.47-25.757-82.833-59.808-114.021-101.208
		C53.605,627.407,31.457,581.14,18.967,531.29c-12.065-48.151-14.661-97.604-7.715-146.985
		c6.946-49.381,23.082-96.199,47.962-139.154c25.758-44.47,59.808-82.832,101.207-114.021
		c41.399-31.19,87.666-53.337,137.516-65.828c42.72-10.705,86.458-13.955,130.268-9.702c5.57,0.541,11.148,1.204,16.717,1.987
		c49.381,6.945,96.199,23.083,139.154,47.962c44.47,25.757,82.833,59.809,114.022,101.208
		c31.189,41.398,53.337,87.665,65.828,137.515C775.991,392.423,778.587,441.876,771.641,491.257z"/>
</g>
<g id="Layer_1">
</g>
</svg>
