<?xml version="1.0" encoding="utf-8"?>
<!-- Generator: Adobe Illustrator 25.0.0, SVG Export Plug-In . SVG Version: 6.00 Build 0)  -->
<svg version="1.1" xmlns="http://www.w3.org/2000/svg" xmlns:xlink="http://www.w3.org/1999/xlink" x="0px" y="0px"
	 viewBox="0 0 466.878 484.33" enable-background="new 0 0 466.878 484.33" xml:space="preserve">
<g id="dots_x5F_circles_x5F_white">
	<g>
		<path fill="#FFFFFF" d="M233.82,1185.64c41.805,24.344,112.44-35.193,64.236-81.17
			C240.035,1065.403,180.073,1148.636,233.82,1185.64z"/>
		<path fill="#FFFFFF" d="M386.429,1329.285c41.805,24.344,112.44-35.193,64.236-81.17
			C392.644,1209.048,332.682,1292.281,386.429,1329.285z"/>
		<path fill="#FFFFFF" d="M229.115,1486.72c33.997,19.731,92.247-28.767,52.807-66.284
			C234.741,1388.77,185.05,1456.461,229.115,1486.72z"/>
		<path fill="#FFFFFF" d="M149.953,1425.405c33.997,19.73,92.247-28.767,52.807-66.284
			C155.579,1327.455,105.888,1395.146,149.953,1425.405z"/>
		<path fill="#FFFFFF" d="M17.085,1265.347c33.997,19.73,92.247-28.767,52.807-66.284
			C22.711,1167.397-26.98,1235.089,17.085,1265.347z"/>
		<path fill="#FFFFFF" d="M404.453,1211.413c19.73-33.997-28.767-92.247-66.284-52.807
			C306.503,1205.787,374.195,1255.478,404.453,1211.413z"/>
		<path fill="#FFFFFF" d="M334.511,1522.75c41.805,24.344,112.44-35.193,64.236-81.17
			C340.727,1402.513,280.764,1485.746,334.511,1522.75z"/>
		<path fill="#FFFFFF" d="M110.529,1202.916c46.846,28.574,111.835-37.002,62.082-86.27
			C108.245,1071.497,56.107,1162.574,110.529,1202.916z"/>
		<path fill="#FFFFFF" d="M146.364,1320.933c46.846,28.574,111.835-37.002,62.082-86.27
			C144.08,1189.514,91.942,1280.591,146.364,1320.933z"/>
		<path fill="#FFFFFF" d="M274.01,1396.971c46.846,28.574,111.835-37.002,62.082-86.27
			C271.726,1265.552,219.588,1356.629,274.01,1396.971z"/>
		<path fill="#FFFFFF" d="M411,1421.224c29.921,18.25,71.43-23.633,39.652-55.101C409.541,1337.285,376.241,1395.457,411,1421.224z"
			/>
		<path fill="#FFFFFF" d="M262.965,1276.396c31.23,19.049,74.555-24.667,41.387-57.512
			C261.442,1188.785,226.685,1249.502,262.965,1276.396z"/>
		<path fill="#FFFFFF" d="M34.078,1475.902c31.23,19.049,74.555-24.667,41.387-57.512
			C32.555,1388.291-2.202,1449.008,34.078,1475.902z"/>
		<path fill="#FFFFFF" d="M240.609,1573.971c31.23,19.049,74.555-24.667,41.387-57.512
			C239.087,1486.36,204.329,1547.077,240.609,1573.971z"/>
		<path fill="#FFFFFF" d="M114.562,1554.969c46.846,28.574,111.835-37.002,62.082-86.27
			C112.278,1423.55,60.14,1514.627,114.562,1554.969z"/>
		<path fill="#FFFFFF" d="M24.157,1382.511c46.846,28.574,111.835-37.002,62.082-86.27
			C21.873,1251.092-30.265,1342.169,24.157,1382.511z"/>
	</g>
</g>
<g id="Layer_1">
</g>
</svg>
