<?xml version="1.0" encoding="utf-8"?>
<!-- Generator: Adobe Illustrator 27.1.1, SVG Export Plug-In . SVG Version: 6.00 Build 0)  -->
<svg version="1.1" xmlns="http://www.w3.org/2000/svg" xmlns:xlink="http://www.w3.org/1999/xlink" x="0px" y="0px"
	 viewBox="0 0 190.518 40.779" enable-background="new 0 0 190.518 40.779" xml:space="preserve">
<g id="oval_x5F_shadow_x5F_white">
	<path fill="#FFFFFF" d="M190.518,19.123c-0.143,11.211-29.28,23.101-95.517,21.512C42.402,39.374-0.142,30.334,0,19.123
		S42.908-0.633,95.518,0.037S190.661,7.912,190.518,19.123z"/>
	<path fill="#CAD2D3" d="M19.614,31.75c17.497-4.522,44.645-7.23,75.116-6.842c30.745,0.391,58.031,3.846,75.387,8.885
		c12.712-3.286,20.341-9.952,20.401-14.67c0.143-11.211-42.39-18.417-95-19.086C42.908-0.633,0.143,7.912,0,19.123
		C-0.059,23.783,7.271,28.166,19.614,31.75z"/>
</g>
<g id="Layer_1">
</g>
</svg>
