<?xml version="1.0" encoding="utf-8"?>
<!-- Generator: Adobe Illustrator 26.0.3, SVG Export Plug-In . SVG Version: 6.00 Build 0)  -->
<svg version="1.1" xmlns="http://www.w3.org/2000/svg" xmlns:xlink="http://www.w3.org/1999/xlink" x="0px" y="0px"
	 viewBox="0 0 401.877 86.367" enable-background="new 0 0 401.877 86.367" xml:space="preserve">
<g id="rectangle_x5F_dots_x5F_long_x5F_white">
	<path fill="#FFFFFF" d="M394.065,74.837c-6.418,8.325-19.837,10.071-37.206,11.324c-9.111,0.657-308.291-0.301-331.063-2.211
		C10.175,82.041,4.625,79.432,2.19,74.134c-2.477-6.755-4.394-54.012,3.224-63.218c4.231-6.47,16.423-8.865,31.53-9.956
		c28.505-1.5,299.065-1.193,332.452,0.58c24.1,1.466,27.922,5.83,31.35,11.415C403.687,19.304,400.694,59.424,394.065,74.837z"/>
	<path fill="#CAD2D3" d="M16.163,48.024c-0.691-36.839,61.716-37.756,62.352-1.655C83.755,83.483,14.178,85.82,16.163,48.024z"/>
	<path fill="#CAD2D3" d="M94.81,35.186c-0.553-29.495,49.412-30.229,49.921-1.325C148.926,63.575,93.22,65.446,94.81,35.186z"/>
	<path fill="#CAD2D3" d="M160.977,51.118c-0.691-36.839,61.716-37.756,62.352-1.655C228.57,86.577,158.992,88.914,160.977,51.118z"
		/>
	<path fill="#CAD2D3" d="M244.836,30.336c4.941-29.083,54.172-20.513,49.297,7.981C292.73,68.293,237.648,59.773,244.836,30.336z"/>
	<path fill="#CAD2D3" d="M306.776,48.024c-0.691-36.839,61.716-37.756,62.352-1.655C374.368,83.483,304.791,85.82,306.776,48.024z"
		/>
</g>
<g id="Layer_1">
</g>
</svg>
