<?xml version="1.0" encoding="utf-8"?>
<!-- Generator: Adobe Illustrator 27.0.0, SVG Export Plug-In . SVG Version: 6.00 Build 0)  -->
<svg version="1.1" xmlns="http://www.w3.org/2000/svg" xmlns:xlink="http://www.w3.org/1999/xlink" x="0px" y="0px"
	 viewBox="0 0 253.909 55.838" enable-background="new 0 0 253.909 55.838" xml:space="preserve">
<g id="rectangle_x5F_long_x5F_stripes_x5F_white">
	<g>
		<g id="square_x5F_2_x5F_white">
			<path fill="#FFFFFF" d="M237.437,53.879c-12.074,0.426-173.061,3.836-219.797,0.532C-8.328,57.956-2.971,2.662,16.556,1.585
				C41.611,0.203,200.848-0.99,237.437,1.239C258.322,2.511,260.452,53.067,237.437,53.879z"/>
		</g>
		<g>
			<path fill="#B2B2B2" d="M237.437,1.239c-7.074-0.431-18.746-0.734-33.133-0.932l-103.703,55.53
				c16.51,0.008,20.712-0.101,37.741-0.272L241.182,2.054C240.01,1.603,238.762,1.32,237.437,1.239z"/>
			<path fill="#B2B2B2" d="M47.227,0.777L0.334,26.078c-0.7,6.139-0.271,12.409,1.5,17.508L91.35,0.25
				C75.012,0.385,59.807,0.567,47.227,0.777z"/>
			<path fill="#B2B2B2" d="M251.019,13.117l-80.608,42.147c15.013-0.204,22.295-0.436,33.948-0.655l49.293-21.316
				C254.38,26.449,253.46,19.077,251.019,13.117z"/>
			<path fill="#B2B2B2" d="M133.259,0.023L19.108,54.508c10.354,0.669,25.674,1.044,43.507,1.215L171.673,0.039
				C159.386-0.008,146.36-0.011,133.259,0.023z"/>
		</g>
	</g>
</g>
<g id="Layer_1">
</g>
</svg>
