<?xml version="1.0" encoding="utf-8"?>
<!-- Generator: Adobe Illustrator 26.0.3, SVG Export Plug-In . SVG Version: 6.00 Build 0)  -->
<svg version="1.1" xmlns="http://www.w3.org/2000/svg" xmlns:xlink="http://www.w3.org/1999/xlink" x="0px" y="0px"
	 viewBox="0 0 401.877 86.367" enable-background="new 0 0 401.877 86.367" xml:space="preserve">
<g id="rectangle_x5F_stripes_x5F_long_x5F_white">
	<path fill="#FFFFFF" d="M394.065,74.837c-6.418,8.325-19.837,10.071-37.206,11.324c-9.111,0.657-308.291-0.301-331.063-2.211
		C10.175,82.041,4.625,79.432,2.19,74.134c-2.477-6.755-4.394-54.012,3.224-63.218c4.231-6.47,16.423-8.865,31.53-9.956
		c28.505-1.5,299.065-1.193,332.452,0.58c24.1,1.466,27.922,5.83,31.35,11.415C403.687,19.304,400.694,59.424,394.065,74.837z"/>
	<path fill="#CAD2D3" d="M86.459,0.224c-23.1,0.147-40.464,0.367-47.924,0.664l10.411,83.785c11.9,0.223,27.495,0.427,45.364,0.61
		L86.459,0.224z"/>
	<path fill="#CAD2D3" d="M340.614,0.851c-12.352-0.177-27.638-0.327-44.737-0.45l10.682,85.962
		c18.548,0.015,33.283-0.007,41.942-0.068L340.614,0.851z"/>
	<path fill="#CAD2D3" d="M152.273,0.009c-13.619,0.013-26.746,0.042-38.981,0.085l10.619,85.458
		c11.665,0.094,23.855,0.181,36.282,0.26L152.273,0.009z"/>
	<path fill="#CAD2D3" d="M251.173,0.157c-15.693-0.063-31.979-0.107-48.258-0.132l10.695,86.074
		c15.635,0.07,30.992,0.126,45.511,0.169L251.173,0.157z"/>
</g>
<g id="Layer_1">
</g>
</svg>
