<?xml version="1.0" encoding="utf-8"?>
<!-- Generator: Adobe Illustrator 26.0.3, SVG Export Plug-In . SVG Version: 6.00 Build 0)  -->
<svg version="1.1" xmlns="http://www.w3.org/2000/svg" xmlns:xlink="http://www.w3.org/1999/xlink" x="0px" y="0px"
	 viewBox="0 0 155.886 174.634" enable-background="new 0 0 155.886 174.634" xml:space="preserve">
<g id="pentagon_x5F_white">
	<path fill="#FFFFFF" d="M155.256,86.857c-0.233-5.398-1.963-9.14-4.204-11.749c0.016-0.031,0.034-0.063,0.042-0.095
		c0,0-62.025-75.013-75.096-75.013C64.048,0,8.917,63.617,3.013,75.013c-1.391,2.806-2.158,6.621-2.382,11.843
		c-0.729,16.941-0.945,46.51,0,68.414c0.594,13.773,10.919,16.793,14.667,17.61c10.648,2.321,25.124,1.671,27.233,1.665v0.047h70.58
		c-0.002,0.011-0.004,0.035-0.006,0.04c1.659-0.034,21.981-0.391,27.484-1.324c9.7-1.646,14.073-5.57,14.667-19.375
		C155.985,136.993,156.201,108.761,155.256,86.857z"/>
</g>
<g id="Layer_1">
</g>
</svg>
