<?xml version="1.0" encoding="utf-8"?>
<!-- Generator: Adobe Illustrator 24.2.3, SVG Export Plug-In . SVG Version: 6.00 Build 0)  -->
<svg version="1.1" xmlns="http://www.w3.org/2000/svg" xmlns:xlink="http://www.w3.org/1999/xlink" x="0px" y="0px"
	 viewBox="0 0 155.851 139.811" enable-background="new 0 0 155.851 139.811" xml:space="preserve">
<g id="square_x5F_hole_x5F_white">
	<path fill="#FFFFFF" d="M155.004,19.817c-0.678-17.879-10.029-17.88-14.659-18.547c-21.861-1.693-105.191-1.693-124.84,0
		C10.876,1.936,1.525,1.938,0.847,19.817c-1.482,39.09-0.784,78.424,0.311,99.002c0.964,14.916,5.123,18.79,14.348,20.589
		c3.152,0.538,121.689,0.538,124.84,0c9.225-1.799,13.384-5.673,14.348-20.589C155.788,98.241,156.487,58.907,155.004,19.817z
		 M145.128,109.37c-0.844,12.035-4.485,15.161-12.56,16.612c-2.759,0.434-106.526,0.434-109.285,0
		c-8.075-1.452-11.716-4.578-12.56-16.612c-0.959-16.603-1.57-48.339-0.272-79.878c0.593-14.425,8.779-14.426,12.832-14.964
		c17.201-1.366,90.148-1.366,109.285,0c4.053,0.538,12.239,0.539,12.832,14.964C146.697,61.032,146.086,92.767,145.128,109.37z"/>
</g>
<g id="Layer_1">
</g>
</svg>
