<?xml version="1.0" encoding="utf-8"?>
<!-- Generator: Adobe Illustrator 26.0.3, SVG Export Plug-In . SVG Version: 6.00 Build 0)  -->
<svg version="1.1" xmlns="http://www.w3.org/2000/svg" xmlns:xlink="http://www.w3.org/1999/xlink" x="0px" y="0px"
	 viewBox="0 0 149.223 141.164" enable-background="new 0 0 149.223 141.164" xml:space="preserve">
<g id="square_x5F_stripes_x5F_2_x5F_white">
	<path fill="#FFFFFF" d="M144.117,121.431c-4.195,13.508-12.966,16.342-24.319,18.375c-5.956,1.067-88.052,2.639-102.937-0.46
		c-10.211-3.098-13.839-7.331-15.43-15.927C-0.187,112.458-1.441,32.65,3.539,17.712C6.304,7.214,14.274,3.328,24.148,1.558
		c18.632-2.434,82.021-1.936,103.844,0.941c15.753,2.379,18.251,9.46,20.492,18.522C150.407,31.322,148.45,96.423,144.117,121.431z"
		/>
	<path fill="#CAD2D3" d="M0.856,116.41l143.885,1.025c0.765-5.373,1.445-11.98,2.029-19.207L0.227,98.342
		C0.38,105.515,0.601,111.789,0.856,116.41z"/>
	<path fill="#CAD2D3" d="M148.816,23.778L2.203,24.186C1.507,29.13,1.004,35.811,0.656,43.401H149.2
		C149.279,34.917,149.158,27.93,148.816,23.778z"/>
	<path fill="#CAD2D3" d="M148.856,59.687L0.106,62.351C0.03,67.298-0.002,72.327,0,77.278l147.959,3.204
		C148.343,73.509,148.644,66.432,148.856,59.687z"/>
</g>
<g id="Layer_1">
</g>
</svg>
