<?xml version="1.0" encoding="utf-8"?>
<!-- Generator: Adobe Illustrator 27.0.0, SVG Export Plug-In . SVG Version: 6.00 Build 0)  -->
<svg version="1.1" xmlns="http://www.w3.org/2000/svg" xmlns:xlink="http://www.w3.org/1999/xlink" x="0px" y="0px"
	 viewBox="0 0 86.997 86.611" enable-background="new 0 0 86.997 86.611" xml:space="preserve">
<g id="square_x5F_stripes_x5F_3_x5F_white">
	<path fill="#FFFFFF" d="M86.852,41.969L44.543,0c-5.038,0.101-10.057,0.323-14.508,0.628l56.815,56.817
		C87.059,52.543,87.032,47.203,86.852,41.969z"/>
	<path fill="#FFFFFF" d="M15.635,2.399C12.448,3.352,9.182,5.402,6.66,8.21l72.093,72.093c2.914-1.957,5.261-4.849,6.419-9.058
		L16.121,2.272C15.953,2.314,15.777,2.357,15.635,2.399z"/>
	<path fill="#FFFFFF" d="M0.584,33.09l52.571,52.571c5.753-0.518,10.743-1.141,13.895-1.583L1.962,18.99
		C1.403,22.599,0.928,27.612,0.584,33.09z"/>
	<path fill="#FFFFFF" d="M0.519,63.983l21.943,21.942c4.659,0.649,10.318,0.782,16.105,0.626L0.02,48.005
		C-0.057,54.181,0.087,59.918,0.519,63.983z"/>
	<path fill="#FFFFFF" d="M84.029,13.692C82.383,8.467,79.12,3.837,73.142,1.863C70.288,0.92,65.243,0.374,59.28,0.118l26.623,26.623
		C85.328,20.465,84.623,15.575,84.029,13.692z"/>
</g>
<g id="Layer_1">
</g>
</svg>
