<?xml version="1.0" encoding="utf-8"?>
<!-- Generator: Adobe Illustrator 24.2.3, SVG Export Plug-In . SVG Version: 6.00 Build 0)  -->
<svg version="1.1" xmlns="http://www.w3.org/2000/svg" xmlns:xlink="http://www.w3.org/1999/xlink" x="0px" y="0px"
	 viewBox="0 0 732.3 623.951" enable-background="new 0 0 732.3 623.951" xml:space="preserve">
<g id="square_x5F_stripes_x5F_white">
	<g>
		<g id="square_x5F_1_x5F_white">
			<path fill="#CCD2D3" d="M719.483,489.882c-20.943,59.706-35.999,129.258-161.092,128.063
				c-29.734,4.716-360.221,11.665-434.532-2.033C33.252,605.838,15.086,536.664,7.143,498.669
				c-8.078-48.448-14.338-307.512,10.524-373.539C31.471,78.729,68.179,7.881,173.465,6.884
				c93.018-10.758,283.656-8.557,392.604,4.159c78.645,10.515,137.588,45.894,155.214,128.713
				C730.884,185.287,741.115,379.346,719.483,489.882z"/>
		</g>
		<g>
			<path fill="#FFFFFF" d="M0.605,282.008c-0.639,26.609-0.741,53.856-0.449,79.782l666.086,226.285
				c21.2-17.519,32.649-40.903,41.674-65.059L0.605,282.008z"/>
			<path fill="#FFFFFF" d="M732.277,324.702c0.136-27.334-0.426-54.153-1.447-78.735L81.411,32.59
				C56.257,49.377,40.082,72.171,29.55,94.097L732.277,324.702z"/>
			<path fill="#FFFFFF" d="M1.84,428.079c1.336,32.639,3.261,58.345,5.303,70.591c1.494,7.147,3.351,15.398,5.982,24.151
				l311.98,101.13c106.91-0.06,216.727-3.378,233.285-6.004c5.292,0.051,10.372-0.036,15.279-0.232L1.84,428.079z"/>
			<path fill="#FFFFFF" d="M724.787,456.517c1.598-12.486,2.902-25.6,3.951-39.095L7.774,171.746
				c-1.429,11.019-2.631,23.126-3.63,36.001L724.787,456.517z"/>
			<path fill="#FFFFFF" d="M727.174,186.663c-1.785-20.847-3.851-37.236-5.89-46.906c-1.463-6.878-3.218-13.421-5.24-19.657
				L457.014,2.785c-89.33-4.129-190.903-3.757-259.12,1.741L727.174,186.663z"/>
		</g>
	</g>
</g>
<g id="Layer_1">
</g>
</svg>
