<?xml version="1.0" encoding="utf-8"?>
<!-- Generator: Adobe Illustrator 27.0.0, SVG Export Plug-In . SVG Version: 6.00 Build 0)  -->
<svg version="1.1" xmlns="http://www.w3.org/2000/svg" xmlns:xlink="http://www.w3.org/1999/xlink" x="0px" y="0px"
	 viewBox="0 0 144.031 95.784" enable-background="new 0 0 144.031 95.784" xml:space="preserve">
<g id="triangle_x5F_2_x5F_stripes_x5F_white">
	<g id="cone">
		<g>
			<g>
				<path fill="#FFFFFF" d="M0,75.38l107.977,20.404c20.444-0.977,35.531-2.8,36.054-5.595c0-0.684-0.399-1.939-1.135-3.665
					L7.252,62.545C4.506,67.193,2.052,71.529,0,75.38z"/>
				<path fill="#FFFFFF" d="M129.964,62.98c-3.333-5.515-7.082-11.507-11.059-17.656L28.382,29.322
					c-2.882,4.254-5.737,8.572-8.503,12.856L129.964,62.98z"/>
				<path fill="#FFFFFF" d="M92.689,7.603L49.677,0c-3.029,3.799-6.254,8.056-9.573,12.609l65.12,12.305
					C100.987,18.822,96.745,12.942,92.689,7.603z"/>
			</g>
		</g>
	</g>
</g>
<g id="Layer_1">
</g>
</svg>
