<?xml version="1.0" encoding="utf-8"?>
<!-- Generator: Adobe Illustrator 24.2.3, SVG Export Plug-In . SVG Version: 6.00 Build 0)  -->
<svg version="1.1" xmlns="http://www.w3.org/2000/svg" xmlns:xlink="http://www.w3.org/1999/xlink" x="0px" y="0px"
	 viewBox="0 0 441.214 344.544" enable-background="new 0 0 441.214 344.544" xml:space="preserve">
<g id="triangle_x5F_stripes_x5F_white">
	<g>
		<path fill="#FFFFFF" d="M1.799,334.181C-20.755,318.877,175.456,0,216.074,0c37.188,0,225.139,299.663,225.139,325.135
			C431.163,350.33,88.257,348.359,1.799,334.181z"/>
		<path fill="#CAD2D3" d="M206.382,3.814c-5.627,3.665-12.445,9.856-20.131,18.036l-50.94,321.46
			c13.617,0.389,27.64,0.69,41.844,0.897C183.565,274.682,199.967,80.158,206.382,3.814z"/>
		<path fill="#CAD2D3" d="M75.788,340.891l92.477-298.293c-13.053,16.04-27.507,35.615-42.303,56.964
			c-33.091,84.461-75.615,193.236-92.859,238.336C45.647,339.027,60.052,340.028,75.788,340.891z"/>
		<path fill="#CAD2D3" d="M297.222,87.203c-11.324-15.649-22.263-30.098-32.347-42.546l59.748,297.987
			c15.083-0.625,29.302-1.411,42.28-2.368C355.06,295.981,322.288,177.54,297.222,87.203z"/>
		<path fill="#CAD2D3" d="M263.608,344.269c-3.83-67.329-14.99-241.292-20.359-324.517c-6.875-7.2-12.945-12.673-17.97-16.013
			l-3.003,340.805C236.173,344.547,250.018,344.458,263.608,344.269z"/>
	</g>
</g>
<g id="Layer_1">
</g>
</svg>
