<?xml version="1.0" encoding="utf-8"?>
<!-- Generator: Adobe Illustrator 26.0.1, SVG Export Plug-In . SVG Version: 6.00 Build 0)  -->
<svg version="1.1" xmlns="http://www.w3.org/2000/svg" xmlns:xlink="http://www.w3.org/1999/xlink" x="0px" y="0px"
	 viewBox="0 0 133.927 33.225" enable-background="new 0 0 133.927 33.225" xml:space="preserve">
<g id="curved_x5F_line_x5F_thin_x5F_white">
	<path id="mouth_x5F_smile_00000173868539019618842750000014578710640787961267_" fill="#FFFFFF" d="M133.899,3.276
		c-0.13-0.955-0.713-1.812-1.639-2.413c-0.927-0.601-2.089-0.874-3.264-0.767c-1.179,0.106-2.236,0.578-2.978,1.328
		c-13.946,14.118-36.472,22.949-58.79,23.046c-0.205,0.002-0.41,0.006-0.616,0.002C36.09,23.937,21.771,13.249,8.171,1
		c-2.323-2.093-6.784-0.541-7.78,1.361c-0.797,1.529-0.35,3.256,1.1,4.365c15.917,15.618,40.28,26.499,65.34,26.499
		s50.307-11.295,66.121-27.305C133.694,5.17,134.03,4.231,133.899,3.276z"/>
</g>
<g id="Layer_1">
</g>
</svg>
