<?xml version="1.0" encoding="utf-8"?>
<!-- Generator: Adobe Illustrator 26.0.2, SVG Export Plug-In . SVG Version: 6.00 Build 0)  -->
<svg version="1.1" id="Layer_1" xmlns="http://www.w3.org/2000/svg" xmlns:xlink="http://www.w3.org/1999/xlink" x="0px" y="0px"
	 viewBox="0 0 732.4 444.9" style="enable-background:new 0 0 732.4 444.9;" xml:space="preserve">
<style type="text/css">
	.st0{fill:#FFE400;}
	.st1{fill:#C61824;}
	.st2{fill:#E7E9E9;}
	.st3{fill:#FFD200;}
	.st4{fill:#FF3E31;}
</style>
<path class="st0" d="M98.3,53.1c0,0-1.3,47.4,1.1,96.7c2.1,41.8,12.9,89.3,38.5,115.3c43.3,44,77.1,32.2,77.1,32.2l2.2-24.4
	c0,0-52.3,14-84.7-66.9c-5.6-14.1-10.4-45.2-11.7-71.5c-1.9-39-0.6-78.2-0.6-78.2L98.3,53.1z"/>
<path class="st1" d="M164.6,85.3c0,0,22.1,0.4,25.7,2s-0.1,3.8-0.1,3.8l-21.1,4.2L164.6,85.3z"/>
<path class="st1" d="M468.6,166.3l77.1,3.1l12,0.5v263.9c0,0-187.5-20.3-272.2-23.4c-95.9-3.5-122.2-84.9-122.7-124.8
	c-0.5-36.9,31.4-98.9,95.8-109.4c8.2-1.3,6.1,24.3,21.3,30.4c70.5,28.2,153.8,4.9,168.6-4.9C466.8,189.3,468.6,166.3,468.6,166.3z"
	/>
<path class="st0" d="M258.5,176.1c-4.2,0.8-46.4,22.7,3.7,44.5c42.8,18.6,127.1,16.5,168.8,7.1c72-16.3,86.3-58.1,85.1-59.5
	c-1.2-1.4-49.2-3.3-51.9-1.9c-2.7,1.4-25.1,27.9-59.3,32.5c-38.9,5.2-103.8,8.4-124.3-5.7c-14.8-10.2-7.5-18.2-7.5-18.2
	S262.7,175.3,258.5,176.1z"/>
<path class="st2" d="M704.7,362.8c-22.4,24.1-131.7,78.4-152.4,70.1c-28.9-11.6-42.6-70-41.7-131.1c0.8-57.7,17.8-134,47.1-132
	s145,33.7,163.4,86.2C730.3,282.5,735.9,329.2,704.7,362.8z"/>
<ellipse class="st3" cx="683.5" cy="296.5" rx="48.9" ry="75.7"/>
<ellipse class="st1" cx="690.8" cy="296.4" rx="37.5" ry="58.1"/>
<path class="st2" d="M485.1,299.8l-0.9,38.1c0,0-160.7,87.6-276.1,104c-70.2,10-140.8-5.9-145.8-26.9s4.8-50.1,4.8-50.1l412.8-60.2"
	/>
<path class="st4" d="M255.7,284c0,0-214.3,55.1-191.8,100.2s134.1,30.8,164.2,22.8c59.7-16,259-99.1,256.9-107.2
	C478.2,272.6,255.7,284,255.7,284z"/>
<path class="st3" d="M170.3,95.3c0,0,21.2-7.4,22.1-6.4c1.4,1.4,8.5,9.5-3.4,15s-15,4.2-15,4.2L170.3,95.3z"/>
<path class="st0" d="M74.3,8.3c-21.8,10.6-24.2,136.3-1.8,147.5c10.5,5.3,108.1,6.7,111.9-2c5.9-13.7-24-116.4-54.7-142.7
	C111.8-4.2,96.1-2.2,74.3,8.3z"/>
<path class="st2" d="M60.5,8.3c-21.8,10.6-24.2,136.3-1.8,147.5c10.5,5.3,108.1,6.7,111.9-2c5.9-13.7-24-116.4-54.7-142.7
	C97.9-4.2,82.2-2.2,60.5,8.3z"/>
<path class="st0" d="M137.2,103.9v13.9c0,0-53,16-87.2,20.7c-20.8,2.8-46.6,3.2-49.6-11.1c-1.2-6,0.5-10.5,0.5-10.5l107.9-11.6"/>
<path class="st4" d="M42.4,99.4c0,0-48,8.4-41.3,21.2s49.4,6.2,58.3,3.9c17.7-4.5,78.4-18.3,77.8-20.6
	C135.2,96.2,42.4,99.4,42.4,99.4z"/>
<g id="Layer_1_00000040571052752151027210000002180881376079600301_">
</g>
</svg>
