<?xml version="1.0" encoding="utf-8"?>
<!-- Generator: Adobe Illustrator 26.0.3, SVG Export Plug-In . SVG Version: 6.00 Build 0)  -->
<svg version="1.1" xmlns="http://www.w3.org/2000/svg" xmlns:xlink="http://www.w3.org/1999/xlink" x="0px" y="0px"
	 viewBox="0 0 295 381.401" enable-background="new 0 0 295 381.401" xml:space="preserve">
<g id="balloon_x5F_white">
	<path fill="#E7E9E9" d="M137.633,333.582c0,0-22.009,34.461-16.187,42.525c5.822,8.065,41.951,6.52,46.852-1.959
		c4.902-8.478-14.091-38.042-14.091-38.042L137.633,333.582z"/>
	<path fill="#7C7E7E" d="M143.541,346.45c-3.58,0-7.556-0.769-11.569-3.008c-2.944-1.642-4.001-5.363-2.357-8.308
		c1.642-2.946,5.361-4.003,8.308-2.357c6.293,3.511,12.953-0.416,13.017-0.457c2.87-1.779,6.63-0.897,8.408,1.968
		c1.779,2.867,0.897,6.63-1.968,8.408C157.028,342.916,151.203,346.45,143.541,346.45z"/>
	<path fill="#E7E9E9" d="M145.525,0c-254.456-0.189-120.834,318.299-7.839,335.702l11.369,0.702
		C262.48,332.524,412.779,0.202,145.525,0z"/>
	<ellipse opacity="0.6" fill="#FFFFFF" enable-background="new    " cx="177.894" cy="121.999" rx="97.589" ry="99.355"/>
	<path fill="#FFFFFF" enable-background="new    " d="M208.428,120.43c-12.227,0.261-22.355-13.225-22.622-30.12
		c-0.266-16.895,9.428-30.804,21.656-31.065c12.228-0.261,22.355,13.223,22.622,30.12
		C230.351,106.262,220.655,120.17,208.428,120.43z"/>
</g>
<g id="Layer_1">
</g>
</svg>
