<?xml version="1.0" encoding="utf-8"?>
<!-- Generator: Adobe Illustrator 26.0.3, SVG Export Plug-In . SVG Version: 6.00 Build 0)  -->
<svg version="1.1" xmlns="http://www.w3.org/2000/svg" xmlns:xlink="http://www.w3.org/1999/xlink" x="0px" y="0px"
	 viewBox="0 0 102.384 101.634" enable-background="new 0 0 102.384 101.634" xml:space="preserve">
<g id="basketball">
	<g>
		<path fill="#D47A00" d="M2.672-72.612c4.933-15.495,18.537-31.465,45.366-34.861c24.433-3.093,44.964,5.103,52.683,32.683
			c5.103,18.231,0.743,64.713-45.932,68.116C23.567-4.397,12.24-20.43,7.144-28.22C1.452-36.919-3.101-54.481,2.672-72.612z"/>
		<path opacity="0.5" fill="#A45700" d="M100.72-74.79c-4.903-17.517-14.976-27.213-27.933-31.165
			c7.245,5.34,12.856,13.567,16.143,25.311c5.103,18.231,0.743,64.713-45.932,68.116c-9.621,0.702-17.351-0.337-23.593-2.336
			c7.409,5.287,18.479,9.422,35.382,8.19C101.464-10.077,105.823-56.559,100.72-74.79z"/>
		<path fill="#A45700" d="M74.948-67.82c-0.386-0.664-0.736-1.334-1.059-2.008c10.223-2.239,19.438-3.312,27.143-3.753
			c-0.1-0.414-0.203-0.82-0.311-1.209c-0.135-0.481-0.274-0.954-0.416-1.423c-7.386,0.451-16.779,1.534-27.455,3.91
			c-3.362-9.363-0.797-19.557,7.648-30.412c-0.78-0.431-1.576-0.835-2.386-1.212c-8.586,11.276-11.246,22.243-7.83,32.217
			c-2.078,0.494-4.2,1.037-6.361,1.634c-5.665-15.284-16.152-25.017-23.954-30.49c-2.051-1.439-4.017-2.662-5.826-3.694
			c-1.107,0.388-2.178,0.806-3.223,1.244c2.256,1.192,4.865,2.729,7.611,4.661c7.434,5.231,17.412,14.502,22.845,29
			c-4.527,1.321-9.214,2.881-14.014,4.715c-0.19-0.372-0.391-0.739-0.602-1.1C40.67-76.119,22.294-78.795,5.135-78.826
			c-0.423,0.887-0.813,1.777-1.175,2.669c21.941-0.127,35.939,3.935,40.523,11.752c0.143,0.245,0.272,0.494,0.403,0.743
			c-18.25,7.5-33.201,20.158-41.4,28.062c0.344,0.911,0.704,1.787,1.08,2.619c7.844-7.677,22.891-20.688,41.387-28.27
			c5.57,15.457-8.778,37.407-19.194,50.561c0.823,0.363,1.678,0.709,2.564,1.036c2.859-3.635,5.97-7.883,8.872-12.45
			c5.103-8.033,8.574-15.476,10.316-22.121c1.796-6.849,1.757-12.881-0.103-17.993c4.735-1.806,9.365-3.344,13.855-4.649
			c8.628,25.097,5.981,48.733,4.32,58.221c0.972-0.265,1.916-0.557,2.84-0.866c0.575-3.516,1.195-8.454,1.444-14.436
			c0.446-10.698-0.287-26.751-6.064-43.639c2.191-0.602,4.346-1.149,6.461-1.646c0.416,0.921,0.88,1.834,1.404,2.736
			c4.613,7.939,13.744,15.937,27.183,23.833c0.254-0.892,0.487-1.786,0.7-2.678C90.09-51.564,79.899-59.299,74.948-67.82z"/>
	</g>
</g>
<g id="Layer_1">
</g>
</svg>
