<?xml version="1.0" encoding="utf-8"?>
<!-- Generator: Adobe Illustrator 24.0.3, SVG Export Plug-In . SVG Version: 6.00 Build 0)  -->
<svg version="1.1" xmlns="http://www.w3.org/2000/svg" xmlns:xlink="http://www.w3.org/1999/xlink" x="0px" y="0px"
	 viewBox="0 0 168.99 99.694" enable-background="new 0 0 168.99 99.694" xml:space="preserve">
<g id="basket_x5F_handle_x5F_white">
	<path fill="#E8E9E9" d="M84.921,0c84.045,0,84.302,99.601,84.044,99.694c0,0-6.634-0.01-20.459-0.025
		c-1.309-20.068-12.22-81.271-63.699-81.271c-55.918,0-64.11,61.103-64.52,81.131C6.803,99.512,0.336,99.5,0.101,99.496
		C0.101,99.496-6.404,0,84.921,0z"/>
	<path fill="#FFFFFF" d="M146.56,84.759c-0.432-2.304-0.948-4.724-1.553-7.219l20.87-4.142c0.707,3.309,1.258,6.438,1.684,9.305
		L146.56,84.759z"/>
	<path fill="#FFFFFF" d="M1.721,74.181l20.969,4.162c-0.473,2.37-0.858,4.662-1.172,6.849l-20.93-2.049
		C0.846,80.383,1.209,77.375,1.721,74.181z"/>
	<path fill="#FFFFFF" d="M29.27,56.71l-20.3-8.69c1.107-2.665,2.348-5.323,3.741-7.945l19.442,10.578
		C31.106,52.644,30.146,54.668,29.27,56.71z"/>
	<path fill="#FFFFFF" d="M138.019,56.774c-0.907-2.023-1.888-4.03-2.946-6.004l18.976-10.324c1.408,2.583,2.678,5.201,3.835,7.826
		L138.019,56.774z"/>
	<path fill="#FFFFFF" d="M122.769,33.847c-1.459-1.458-2.994-2.844-4.615-4.142l11.421-17.036c2.199,1.495,4.284,3.087,6.247,4.773
		L122.769,33.847z"/>
	<path fill="#FFFFFF" d="M100.449,20.496c-1.854-0.54-3.78-0.982-5.775-1.327l1.466-18.59c2.474,0.293,4.86,0.684,7.168,1.159
		L100.449,20.496z"/>
	<path fill="#FFFFFF" d="M70.768,19.831c-1.964,0.422-3.851,0.935-5.669,1.526L60.688,2.72c2.282-0.552,4.65-1.025,7.106-1.415
		L70.768,19.831z"/>
	<path fill="#FFFFFF" d="M43.183,35.097L29.798,18.275c1.933-1.667,3.988-3.254,6.177-4.744L47.66,30.96
		C46.08,32.265,44.59,33.648,43.183,35.097z"/>
</g>
<g id="Layer_1">
</g>
</svg>
