<?xml version="1.0" encoding="utf-8"?>
<!-- Generator: Adobe Illustrator 24.0.3, SVG Export Plug-In . SVG Version: 6.00 Build 0)  -->
<svg version="1.1" xmlns="http://www.w3.org/2000/svg" xmlns:xlink="http://www.w3.org/1999/xlink" x="0px" y="0px"
	 viewBox="0 0 193.912 98.043" enable-background="new 0 0 193.912 98.043" xml:space="preserve">
<g id="basket_x5F_front_x5F_white">
	<path fill="#E8E9E9" d="M0.028,0c0,0,192.579,0.179,193.768,0.194c0,0,7.464,97.849-97.329,97.849
		C0.027,98.043-0.267,0.092,0.028,0z"/>
	<path fill="#FFFFFF" d="M50.387,87.015v1.326c-4.126-2.024-7.918-4.304-11.399-6.791l5.221-0.051l-0.43-21.958l-24.823,0.242
		l0.024,1.247c-2.674-3.888-4.981-7.882-6.958-11.878V27.335H3.949C3.493,25.6,3.09,23.911,2.732,22.278l9.289-0.091V0.011
		c1.764,0.002,3.678,0.004,5.764,0.005l0.434,22.11l24.823-0.242L42.613,0.04c2.523,0.002,5.117,0.005,7.774,0.007v21.765
		l29.101-0.284V0.075c1.894,0.002,3.797,0.004,5.706,0.005l0.419,21.388l24.823-0.242l-0.414-21.122
		c2.628,0.003,5.239,0.005,7.832,0.008v21.042l26.734-0.261V0.139c1.942,0.002,3.838,0.004,5.706,0.006l0.405,20.689l24.823-0.242
		l-0.4-20.421c2.901,0.003,5.531,0.006,7.831,0.009v20.34l9.758-0.095c-0.319,2.196-0.719,4.508-1.218,6.912h-8.54v24.826
		c-1.868,3.696-4.049,7.368-6.598,10.932l-0.095-4.844l-24.823,0.242l0.43,21.958l7.428-0.073
		c-4.342,3.183-9.216,6.066-14.707,8.531v-1.892h-26.734v9.497c-1.927,0.29-3.904,0.539-5.93,0.748l-0.201-10.245H86.896
		l0.209,10.697c-2.614-0.184-5.158-0.437-7.617-0.77v-9.928H50.387z M43.148,27.335H18.32l0.504,25.742h24.828L43.148,27.335z
		 M79.488,27.335H50.387v25.742h29.101V27.335z M79.488,59.193l-29.101,0.284V81.44l29.101-0.284V59.193z M151.33,53.078h24.828
		l-0.504-25.742h-24.828L151.33,53.078z M117.853,80.781l26.734-0.261V58.558l-26.734,0.261V80.781z M117.853,53.078h26.734V27.335
		h-26.734V53.078z M86.78,81.085l24.823-0.242l-0.43-21.958l-24.823,0.242L86.78,81.085z M86.231,53.078h24.828l-0.504-25.742
		H85.727L86.231,53.078z"/>
	<path opacity="0.5" fill="#CED0D0" d="M0.028,0c0,0,20.843,0.019,48.853,0.046c-0.248,1.748,0.737,81.494,72.953,95.8
		c-7.629,1.411-16.047,2.198-25.368,2.198C0.027,98.043-0.267,0.092,0.028,0z"/>
</g>
<g id="Layer_1">
</g>
</svg>
