<?xml version="1.0" encoding="utf-8"?>
<!-- Generator: Adobe Illustrator 24.2.3, SVG Export Plug-In . SVG Version: 6.00 Build 0)  -->
<svg version="1.1" xmlns="http://www.w3.org/2000/svg" xmlns:xlink="http://www.w3.org/1999/xlink" x="0px" y="0px"
	 viewBox="0 0 405.272 368.462" enable-background="new 0 0 405.272 368.462" xml:space="preserve">
<g id="bath_x5F_bubblefoam">
	<path fill="#FFFFFF" d="M334.803,109.079c1.765-4.145,2.592-8.26,2.675-12.261c22.075,18.57,55.27-15.622,27.768-36.168
		c33.159-45.993-48.589-92.802-67.916-30.906c-16.645-26.107-52.649-9.614-49.026,17.827c-10.965-4.676-22.988-1.53-32.479,5.52
		c-15.378-9.443-39.267-3.607-48.856,9.152c-3.063-30.81-42.635-32.353-51.793-6.232c-13.239-16.289-42.471-11.486-54.181,1.81
		c-20.424,21.764-7.76,59.444,16.507,62.277c-16.051,21.985,7.682,41.825,27.704,30.067c-4.906,48.95,51.87,69.239,76.781,30.355
		c5.055,16.372,18.68,26.651,34.757,21.677c-0.047,17.749,19.992,23.72,32.265,16.845c2.377,5.506,6.079,9.626,9.91,12.563
		c-51.693-6.114-64.494,66.75-20.452,77.885c-19.928,25.321,12.33,47.995,32.232,29.448c16.996,19.89,54.098,17.961,67.311-4.105
		c10.659,28.401,59.099,14.252,44.292-19.091c45.931-19.629,15.84-91.454-27.813-75.068c2.335-4.866,2.891-10.556,2.12-15.706
		c55.927-10.099,29.471-100.481-27.31-69.44c1.624-12.111-1.637-23.499-11.549-28.858
		C324.967,122.414,331.668,116.442,334.803,109.079z"/>
	<path fill="#DFF5F4" d="M209.572,281.922c3.085,2.435,6.361,4.072,9.71,5.057c-20.923,14.828,0.991,49.982,24.091,31.652
		c31.391,38.524,89.117-19.9,41.561-50.097c25.675-7.652,20.021-42.447-3.786-45.351c6.446-8.161,6.55-19,2.786-28.604
		c11.47-10.784,12.024-32.23,3.477-43.223c26.363,4.766,37.031-28.832,17.099-42.173c16.743-7.416,19.39-33.124,10.877-46.025
		c-13.217-22.102-48.701-20.008-56.204-0.357c-14.656-18.577-37.096-2.952-31.65,16.44c-40.084-15.333-70.157,27.82-43.125,57.689
		c-14.94,0.508-26.709,9.627-26.203,24.298c-15.256-3.953-24.321,11.154-21.565,23.305c-5.179,0.741-9.495,2.914-12.844,5.466
		c16.977-42.116-41.431-69.57-60.882-35.042c-16.439-22.592-43.395-0.433-32.168,20.392c-20.633,9.754-27.502,41.43-11.95,57.602
		c-26.969,2.909-24.853,46.68,5.935,41.655c5.887,42.959,73.755,34.252,69.559-6.231c3.561,3.08,8.224,4.85,12.737,5.379
		c-4.234,49.512,77.879,47.678,64.704-7.097c9.824,4.14,20.156,3.998,26.937-3.118C200.597,270.589,204.091,277.596,209.572,281.922
		z"/>
	<path fill="#FFFFFF" d="M241.877,277.716c-20.522-29.269-49.326-23.179-60.188-8.802c16.612-32.41-38.089-53.11-48.631-21.8
		c-37.538-52.789-104.885,13.809-56.202,51.08c-30.106,19.858,5.407,48.923,22.733,35.513c12.234,29.203,44.114,33.594,63.83,12.951
		c5.053,29.886,51.748,30.366,46.087-6.772C240.613,341.138,256.944,299.203,241.877,277.716z"/>
	<path fill="#FFFFFF" d="M328.231,173.059c-15.378-19.129-34.838-13.661-41.633-3.321c1.863-5.943,4.574-15.083-8.465-21.959
		c-15.179-8.005-24.221,3.193-25.834,9.212c-0.886-1.677-19.158-20.808-37.65-7.017c-18.493,13.79-11.214,40.911,1.444,44.543
		c-3.243,2.612-6.416,5.794-6.98,10.118c-1.324,8.748,5.145,12.19,8.604,14.099c8.553,4.72,14.945-0.454,15.55-0.91
		c2.964,5.804,7.491,10.733,11.37,12.661c8.912,4.428,17.448,5.029,24.188,0.452c2.615-1.775,6.894-5.013,8.756-7.113
		c0.684,6.613,12.142,18.093,23.336,12.811c8.744-4.126,9.37-12.899,7.936-19.526C330.221,216.568,339.521,187.103,328.231,173.059z
		"/>
</g>
<g id="Layer_1">
</g>
</svg>
