<?xml version="1.0" encoding="utf-8"?>
<!-- Generator: Adobe Illustrator 24.2.3, SVG Export Plug-In . SVG Version: 6.00 Build 0)  -->
<svg version="1.1" xmlns="http://www.w3.org/2000/svg" xmlns:xlink="http://www.w3.org/1999/xlink" x="0px" y="0px"
	 viewBox="0 0 242.127 230.513" enable-background="new 0 0 242.127 230.513" xml:space="preserve">
<g id="bell_x5F_white">
	<g>
		<path fill="#B2B2B2" d="M85.647,186.983c-1.797,7.633-1.469,16.21,2.456,24.781c10.016,21.871,45.026,23.023,57.897,11.59
			c10.912-9.693,13.15-23.669,10.957-35.642L85.647,186.983z"/>
		<path fill="#FFFFFF" d="M238.714,181.585c-12.817-5.788-25.524-14.704-32.97-28.398C186.391,117.595,207.678,3.4,118.741,0
			C26.133,5.64,54.014,119.229,35.545,155.287c-7.106,13.873-19.589,23.1-32.259,29.203c-5.577,2.686-3.613,11.065,2.577,10.988
			l115.273-1.422l115.273-1.422C242.599,192.557,244.356,184.132,238.714,181.585z"/>
	</g>
</g>
<g id="Layer_1">
</g>
</svg>
