<?xml version="1.0" encoding="utf-8"?>
<!-- Generator: Adobe Illustrator 25.0.0, SVG Export Plug-In . SVG Version: 6.00 Build 0)  -->
<svg version="1.1" xmlns="http://www.w3.org/2000/svg" xmlns:xlink="http://www.w3.org/1999/xlink" x="0px" y="0px"
	 viewBox="0 0 436.897 125.979" enable-background="new 0 0 436.897 125.979" xml:space="preserve">
<g id="bin_x5F_cover_x5F_white">
	<g>
		<path fill="#CAD2D3" d="M0,103.447v22.532h434.651l2.246-26.438L0,103.447z"/>
		<path fill="#FFFFFF" d="M296.662,47.472c0,0-5.391-29.393-8.996-34.212c-9.074-12.128-114.823-19.564-130.138-6
			c-5.79,5.129-8.113,25.363-9.035,39.161C23.959,57.699,0,103.447,0,103.447l436.896-3.906
			C436.897,99.541,412.253,59.406,296.662,47.472z M173.435,44.712c0,0,1.327-17.628,4.221-21.762
			c6.125-8.751,87.508-4.001,91.992,3.063c2.197,3.462,3.191,19.496,3.191,19.496C258.571,44.62,189.59,43.94,173.435,44.712z"/>
	</g>
</g>
<g id="Layer_1">
</g>
</svg>
