<?xml version="1.0" encoding="utf-8"?>
<!-- Generator: Adobe Illustrator 24.2.3, SVG Export Plug-In . SVG Version: 6.00 Build 0)  -->
<svg version="1.1" xmlns="http://www.w3.org/2000/svg" xmlns:xlink="http://www.w3.org/1999/xlink" x="0px" y="0px"
	 viewBox="0 0 336.371 527.534" enable-background="new 0 0 336.371 527.534" xml:space="preserve">
<g id="bookshelf_x5F_brown">
	<rect x="45.903" y="13.889" fill="#6D3814" width="251.672" height="315.507"/>
	<path fill="#925A24" d="M326.313,121.241c0,0-5.991-88.222-18.831-104.731c0,0-73.007-17.243-245.068-6.604
		c-27.648,1.71-33.893,15.482-41.823,34.486S9.585,146.014,9.585,146.014L5.799,406.71L5.182,527.19l323.747,0.01L326.313,121.241z
		 M177.244,17.977c33.508,0.814,83.22,1.316,100.522,17.977c19.811,19.077,13.574,289.092,13.574,289.092l-239.565,2.568
		c1.836-99.7,3.592-276.86,15.408-292.027S140.709,17.089,177.244,17.977z"/>
	<polygon fill="#77441B" points="18.728,123.779 58.196,102.547 290.908,102.547 321.73,123.779 	"/>
	<polygon fill="#77441B" points="12.807,234.734 54.312,214.047 291.809,214.047 325.412,234.734 	"/>
	<polygon fill="#77441B" points="9.771,341.305 51.856,320.746 291.809,320.746 326.042,341.305 	"/>
	<path fill="#6D3814" d="M139.556,382.386l-0.23-0.008c-2.247-0.078-4.056-0.543-5.094-1.308c-0.988-0.729-1.853-2.054-2.371-3.638
		c-1.31-3.994-0.365-8.931,2.154-11.238c1.338-1.225,3.602-2.171,6.213-2.595c0.817-0.133,1.62-0.2,2.386-0.2
		c1.567,0,2.878,0.266,3.894,0.789c1.148,0.591,1.826,2.055,2.192,3.179c0.699,2.144,0.846,4.841,0.392,7.216
		c-0.475,2.487-1.578,4.681-2.949,5.868c-1.36,1.178-3.661,1.864-6.485,1.936C139.621,382.387,139.588,382.386,139.556,382.386z"/>
	<path fill="#6D3814" d="M191.066,362.775l0.23,0.008c2.247,0.078,4.056,0.543,5.094,1.308c0.988,0.729,1.853,2.054,2.371,3.638
		c1.31,3.994,0.365,8.931-2.154,11.238c-1.338,1.225-3.602,2.171-6.213,2.595c-0.817,0.133-1.62,0.2-2.386,0.2
		c-1.567,0-2.878-0.266-3.894-0.789c-1.148-0.591-1.826-2.055-2.192-3.179c-0.699-2.144-0.846-4.841-0.392-7.216
		c0.475-2.487,1.578-4.681,2.949-5.868c1.36-1.178,3.661-1.864,6.485-1.936C191,362.774,191.034,362.774,191.066,362.775z"/>
	<path fill="#C1A174" d="M316.176,15.948C283.494-1.546,77.193-8.83,27.849,16.075C8.092,26.313,3.529,186.534,2.374,213.596
		c-2.91,68.177-2.352,312.296-2.295,313.938h9.984c-0.894-37.679-0.891-107.999-0.227-174.457h152.799v174.457h5.492V353.077
		h157.898c0.203,75.969-0.521,143.613-1.037,174.457h10.259C336.716,443.649,340.48,33.052,316.176,15.948z M16.585,136.475h305.296
		c1.368,29.741,2.324,63.372,2.973,98.258H12.016c0.161-4.961,0.329-9.566,0.503-13.766
		C12.991,209.543,14.065,174.114,16.585,136.475z M36.589,25.671C82.939,1.015,276.638,8.073,307.311,25.346
		c6.696,4.96,11.101,43.899,13.948,98.433H17.488C20.999,77.213,26.842,30.995,36.589,25.671z M9.96,341.305
		c0.393-34.928,0.967-68.159,1.688-94.255H325.07c0.514,31.291,0.795,63.33,0.916,94.255L9.96,341.305L9.96,341.305z"/>
</g>
<g id="Layer_1">
</g>
</svg>
