<?xml version="1.0" encoding="utf-8"?>
<!-- Generator: Adobe Illustrator 24.2.3, SVG Export Plug-In . SVG Version: 6.00 Build 0)  -->
<svg version="1.1" xmlns="http://www.w3.org/2000/svg" xmlns:xlink="http://www.w3.org/1999/xlink" x="0px" y="0px"
	 viewBox="0 0 347.229 476.554" enable-background="new 0 0 347.229 476.554" xml:space="preserve">
<g id="book_x5F_green_x5F_open">
	<g id="book_x5F_green_x5F_open_1_">
		<path fill="#E8E9E9" d="M269.836,139.767L311.891,0v112.603L269.836,139.767z"/>
		<path fill="#CED0D0" d="M273.451,132.657L322.395,2.298c0,0,4.728,153.872,4.789,154.535L273.451,132.657z"/>
		<path fill="#B2B2B2" d="M279.365,131.445L333.81,9.953c0,0,0.3,91.357,0.361,92.021L279.365,131.445z"/>
		<path fill="#69B802" d="M289.377,123.83l56.329-108.275c0,0,1.462,387.492,1.523,388.156l-55.532,58.66L289.377,123.83z"/>
		<path fill="#E8E9E9" d="M269.7,131.914c0,0-235.946-69.574-236.524-68.553l5.65,108.671
			C39.27,173.644,269.7,131.914,269.7,131.914z"/>
		<path fill="#CED0D0" d="M262.412,131.83c0,0-242.014-54.706-242.616-53.684c-1.032,1.752,4.246,48.112,5.545,52.651
			C25.803,132.409,262.412,131.83,262.412,131.83z"/>
		<path fill="#B2B2B2" d="M256.889,131.836c0,0-246.303-41.298-246.924-40.277c-1.065,1.753-1.763,42.443-0.426,46.98
			C10.013,140.15,256.889,131.836,256.889,131.836z"/>
		<path fill="#69B802" d="M2.184,315.89c1.13,74.175,3.196,102.571,4.621,107.108c0.505,1.612,243.618,49.5,243.618,49.5
			l-1.945-342.162c0,0-246.649-29.357-247.314-28.334c-1.14,1.754-1.182,70.804-1.161,97.852
			C0.005,201.785,1.162,248.656,2.184,315.89z"/>
		<path fill="#23813F" d="M291.892,121.733c-0.192-0.943-4.822,5.361-17.002,8.07c-8.813,1.96-17.229,2.213-27.981,0.538
			c-0.468-0.073-0.012,69.779,0.226,116.565s1.439,225.069,1.561,225.54c4.778,2.793,11.9,5.714,26.08,3.074
			c14-2.607,17.459-9.491,18.725-12.102c0.439-0.904,0.227-85.545,0.201-94.997c-0.026-9.452-0.547-125.946-0.547-125.946
			S292.085,122.676,291.892,121.733z"/>
	</g>
</g>
<g id="Layer_1">
</g>
</svg>
