<?xml version="1.0" encoding="utf-8"?>
<!-- Generator: Adobe Illustrator 24.2.3, SVG Export Plug-In . SVG Version: 6.00 Build 0)  -->
<svg version="1.1" xmlns="http://www.w3.org/2000/svg" xmlns:xlink="http://www.w3.org/1999/xlink" x="0px" y="0px"
	 viewBox="0 0 262.201 302.218" enable-background="new 0 0 262.201 302.218" xml:space="preserve">
<g id="bookshelf_x5F_books">
	<path fill="#F77F15" d="M164.05,4.347c-5.764,0.158-11.527,0.313-17.291,0.469c-0.47,15.103-0.858,63.079-0.852,63.877
		c0.034,4.192,0.051,8.383,0.074,12.575c0.809,0.611,13.267-0.081,18.688-0.094C165.429,81.172,164.609,4.331,164.05,4.347z"/>
	<path fill="#F7D115" d="M162.216,30.608c0.009,3.758-2.495,6.059-6.59,6.055c-4.256-0.004-7.29-2.917-7.337-7.044
		c-0.046-4.078,2.718-6.886,6.789-6.896C159.404,22.714,162.204,25.806,162.216,30.608z"/>
	<path fill="#F7D115" d="M155.795,53.079c-6.147-0.14-8.502-5.276-6.795-10.129c0.808-2.297,3.472-3.811,6.315-3.81
		c2.812,0.001,5.353,1.665,6.364,4.165c0.464,1.147,0.687,2.35,0.732,3.574C162.544,50.576,159.851,53.083,155.795,53.079z"/>
	<path fill="#FDA519" d="M57.548,5.705c-5.764,0.158-11.527,0.313-17.291,0.469c-0.47,15.103-0.858,63.079-0.852,63.877
		c0.034,4.192,0.051,8.383,0.074,12.575l19.823,0.112C59.302,82.738,58.108,5.689,57.548,5.705z"/>
	<path fill="#F77F15" d="M55.714,31.965c0.009,3.758-2.495,6.059-6.59,6.055c-4.256-0.004-7.29-2.917-7.337-7.044
		c-0.046-4.078,2.718-6.886,6.789-6.896C52.902,24.072,55.702,27.164,55.714,31.965z"/>
	<path fill="#F77F15" d="M49.293,54.437c-6.147-0.14-8.502-5.276-6.795-10.129c0.808-2.297,3.472-3.811,6.315-3.81
		c2.812,0.001,5.353,1.665,6.364,4.165c0.464,1.147,0.687,2.35,0.732,3.574C56.042,51.934,53.349,54.44,49.293,54.437z"/>
	<path fill="#F7D115" d="M36.224,15.612c-5.764,0.136-11.527,0.271-17.291,0.406c-0.47,13.064-0.858,54.565-0.852,55.256
		c0.034,3.626,0.051,7.252,0.074,10.878l19.823,0.097C38.738,82.247,36.783,15.599,36.224,15.612z"/>
	<path fill="#417498" d="M34.406,38.991c0.008,3.447-2.289,5.557-6.045,5.554c-3.904-0.004-6.687-2.675-6.73-6.461
		c-0.043-3.741,2.493-6.317,6.226-6.325C31.827,31.75,34.395,34.586,34.406,38.991z"/>
	<path fill="#417498" d="M28.517,59.602c-5.638-0.128-7.798-4.84-6.233-9.291c0.741-2.107,3.184-3.496,5.792-3.495
		c2.58,0.001,4.909,1.528,5.838,3.821c0.426,1.052,0.63,2.156,0.671,3.278C34.706,57.306,32.237,59.606,28.517,59.602z"/>
	<polygon fill="#54BDCF" points="164.976,81.519 164.05,4.347 186.103,4.347 186.103,81.267 	"/>
	<polygon fill="#F7D115" points="164.374,31.343 186.103,31.343 186.103,26.281 164.313,26.281 	"/>
	<polygon fill="#80D8E2" points="95.656,81.267 94.364,3.326 121.973,3.956 121.973,81.267 	"/>
	<polygon fill="#3F7499" points="94.689,22.923 121.973,22.785 121.973,17.723 94.604,17.723 	"/>
	<polygon fill="#3F7499" points="94.86,33.238 121.973,33.102 121.973,28.04 94.774,28.04 	"/>
	<polygon fill="#3F7499" points="95.035,43.802 121.973,43.664 121.973,38.603 94.949,38.603 	"/>
	<polygon fill="#80D8E2" points="74.254,17.191 74.9,82.738 61.096,82.735 61.096,18.212 	"/>
	<polygon fill="#285F87" points="74.738,66.417 61.096,66.532 61.096,70.756 74.781,70.756 	"/>
	<polygon fill="#285F87" points="74.653,57.807 61.096,57.922 61.096,62.146 74.695,62.146 	"/>
	<polygon fill="#285F87" points="74.565,48.992 61.096,49.107 61.096,53.331 74.608,53.331 	"/>
	<polygon fill="#54BDCF" points="193.81,81.255 192.717,1.021 218.743,0 218.743,81.004 	"/>
	<polygon fill="#F7D115" points="193.19,35.701 218.743,35.701 218.743,18.625 193.028,18.625 	"/>
	<polygon fill="#275F88" points="227.042,81.255 226.081,8.139 248.98,7.208 248.98,81.027 	"/>
	<polygon fill="#38ACBF" points="226.497,39.742 248.98,39.742 248.98,27.163 226.354,27.163 	"/>
	<path fill="#F7D115" d="M233.246,129.535c5.284,1.119,10.569,2.236,15.855,3.353c-1.818,12.113-8.613,50.401-8.737,51.036
		c-0.656,3.333-1.297,6.67-1.943,10.005l-18.273-3.327C219.448,190.471,232.733,129.427,233.246,129.535z"/>
	<path fill="#417498" d="M230.892,151.625c-0.602,3.173,1.15,5.513,4.61,6.157c3.597,0.669,6.619-1.311,7.312-4.791
		c0.684-3.438-1.208-6.247-4.645-6.898C234.514,145.4,231.661,147.57,230.892,151.625z"/>
	<path fill="#417498" d="M232.764,171.622c5.215,0.853,8.016-3.113,7.341-7.482c-0.319-2.068-2.33-3.768-4.733-4.217
		c-2.376-0.444-4.785,0.561-6.034,2.513c-0.573,0.895-0.952,1.877-1.183,2.903C227.458,168.441,229.337,170.983,232.764,171.622z"/>
	<polygon fill="#54BDCF" points="86.107,193.137 87.033,115.965 64.98,115.965 64.98,192.885 	"/>
	<polygon fill="#F7D115" points="86.709,142.961 64.98,142.961 64.98,137.899 86.77,137.899 	"/>
	<polygon fill="#54BDCF" points="130.114,143.926 208.056,145.218 207.425,117.61 130.114,117.61 	"/>
	<polygon fill="#3F7499" points="188.459,144.893 188.596,117.61 193.658,117.61 193.658,144.979 	"/>
	<polygon fill="#3F7499" points="178.143,144.722 178.279,117.61 183.341,117.61 183.341,144.808 	"/>
	<polygon fill="#3F7499" points="167.58,144.547 167.717,117.61 172.779,117.61 172.779,144.633 	"/>
	<polygon fill="#80D8E2" points="143.22,172.486 208.765,173.132 208.764,159.327 144.24,159.327 	"/>
	<polygon fill="#285F87" points="192.934,172.969 193.049,159.327 197.273,159.327 197.273,173.012 	"/>
	<polygon fill="#285F87" points="184.325,172.884 184.439,159.327 188.663,159.327 188.663,172.927 	"/>
	<polygon fill="#285F87" points="175.509,172.797 175.624,159.327 179.848,159.327 179.848,172.839 	"/>
	<polygon fill="#54BDCF" points="249.084,128.912 243.282,193.706 257.042,194.801 262.201,129.957 	"/>
	<polygon fill="#F7D115" points="244.74,177.415 258.33,178.611 257.994,182.822 244.353,181.737 	"/>
	<polygon fill="#F7D115" points="245.508,168.839 259.013,170.028 258.678,174.239 245.121,173.16 	"/>
	<polygon fill="#54BDCF" points="56.493,192.742 66.696,113.151 40.954,109.179 31.75,189.659 	"/>
	<polygon fill="#F7D115" points="62.285,147.553 36.897,144.649 38.837,127.684 64.387,130.607 	"/>
	<polygon fill="#F7D115" points="101.739,194.933 85.448,111.163 105.072,109.987 119.688,191.724 	"/>
	<polygon fill="#275F88" points="117.152,177.543 98.988,180.791 96.176,166.33 114.007,159.955 	"/>
	<path fill="#FDA519" d="M135.576,190.204c0.158-5.764,0.313-11.527,0.469-17.291c15.102-0.47,63.079-0.858,63.877-0.852
		c4.192,0.034,8.383,0.051,12.575,0.074l0.112,19.823C212.608,191.957,135.561,190.763,135.576,190.204z"/>
	<path fill="#F57F15" d="M161.837,188.369c3.758,0.009,6.059-2.495,6.055-6.59c-0.004-4.256-2.917-7.29-7.044-7.337
		c-4.078-0.046-6.886,2.718-6.896,6.789C153.943,185.558,157.035,188.358,161.837,188.369z"/>
	<path fill="#F57F15" d="M184.307,181.948c-0.14-6.147-5.276-8.502-10.128-6.795c-2.297,0.808-3.811,3.472-3.81,6.315
		c0.001,2.812,1.665,5.353,4.165,6.364c1.147,0.464,2.35,0.687,3.574,0.732C181.805,188.697,184.312,186.005,184.307,181.948z"/>
	<path fill="#F77F15" d="M203.078,144.674c-0.131,4.768-0.259,9.536-0.388,14.304c-12.494,0.389-52.185,0.71-52.845,0.704
		c-3.468-0.028-6.935-0.043-10.403-0.061c-0.506-0.669,0.068-10.975,0.078-15.46C139.521,143.533,203.09,144.211,203.078,144.674z"
		/>
	<path fill="#F7D115" d="M181.353,146.191c-3.109-0.007-5.013,2.065-5.009,5.452c0.004,3.521,2.413,6.031,5.827,6.07
		c3.374,0.038,5.697-2.249,5.705-5.616C187.883,148.517,185.325,146.201,181.353,146.191z"/>
	<path fill="#F7D115" d="M162.763,151.503c0.116,5.086,4.365,7.034,8.379,5.622c1.9-0.668,3.153-2.873,3.152-5.224
		c-0.001-2.327-1.377-4.428-3.446-5.265c-0.949-0.384-1.944-0.568-2.957-0.605C164.833,145.92,162.759,148.147,162.763,151.503z"/>
	<polygon fill="#275F88" points="78.092,275.234 4.975,274.272 4.044,297.171 77.863,297.171 	"/>
	<polygon fill="#80D8E2" points="36.578,274.688 36.578,297.171 23.999,297.171 23.999,274.545 	"/>
	<polygon fill="#54BDCF" points="0,274.712 77.172,275.638 77.172,253.585 0.252,253.585 	"/>
	<polygon fill="#FDA519" points="50.176,275.314 50.176,253.585 55.238,253.585 55.238,275.375 	"/>
	<polygon fill="#F7D115" points="7.478,255.398 73.024,256.044 73.022,242.24 8.499,242.24 	"/>
	<polygon fill="#285F87" points="57.193,255.881 57.308,242.24 61.532,242.24 61.532,255.925 	"/>
	<polygon fill="#285F87" points="48.584,255.796 48.697,242.24 52.922,242.24 52.922,255.839 	"/>
	<polygon fill="#285F87" points="39.768,255.709 39.882,242.24 44.106,242.24 44.106,255.751 	"/>
	<path fill="#F7D115" d="M143.623,234.447c-5.098,1.785-10.197,3.569-15.295,5.353c3.352,11.781,14.985,48.886,15.191,49.5
		c1.077,3.223,2.139,6.45,3.206,9.675l17.698-5.635C165.098,293.118,144.118,234.274,143.623,234.447z"/>
	<path fill="#417498" d="M148.782,256.054c1.002,3.07-0.437,5.615-3.785,6.695c-3.482,1.123-6.733-0.454-7.863-3.816
		c-1.117-3.322,0.399-6.35,3.724-7.435C144.394,250.344,147.502,252.13,148.782,256.054z"/>
	<path fill="#417498" d="M149.482,276.126c-5.063,1.513-8.348-2.063-8.238-6.483c0.052-2.092,1.83-4.036,4.154-4.787
		c2.3-0.744,4.817-0.056,6.306,1.721c0.683,0.815,1.184,1.74,1.544,2.729C154.337,272.293,152.799,275.055,149.482,276.126z"/>
	<polygon fill="#54BDCF" points="127.836,235.854 141.875,299.374 128.367,302.218 114.96,238.566 	"/>
	<polygon fill="#F7D115" points="138.345,283.403 125.019,286.327 125.89,290.461 139.281,287.64 	"/>
	<polygon fill="#F7D115" points="136.487,274.996 123.245,277.901 124.115,282.035 137.423,279.232 	"/>
	<polygon fill="#275F88" points="114.723,298.062 115.649,220.889 93.596,220.889 93.596,297.81 	"/>
	<polygon fill="#F7D115" points="115.325,247.886 93.596,247.886 93.596,242.824 115.386,242.824 	"/>
	<path fill="#FDA519" d="M232.178,218.733c-5.764,0.158-11.527,0.313-17.291,0.469c-0.47,15.103-0.858,63.079-0.852,63.877
		c0.034,4.192,0.051,8.383,0.074,12.575l19.823,0.112C233.931,295.766,232.737,218.717,232.178,218.733z"/>
	<path fill="#F77F15" d="M230.344,244.994c0.009,3.758-2.495,6.059-6.59,6.055c-4.256-0.004-7.29-2.917-7.337-7.044
		c-0.046-4.078,2.718-6.886,6.789-6.896C227.532,237.1,230.332,240.192,230.344,244.994z"/>
	<path fill="#F77F15" d="M223.923,267.465c-6.147-0.14-8.502-5.276-6.795-10.128c0.808-2.297,3.472-3.811,6.315-3.81
		c2.812,0.001,5.353,1.665,6.364,4.165c0.464,1.147,0.687,2.35,0.732,3.574C230.671,264.962,227.979,267.468,223.923,267.465z"/>
	<path fill="#F7D115" d="M211.587,229.13c-5.764,0.136-11.527,0.271-17.291,0.406c-0.47,13.064-0.858,54.565-0.852,55.256
		c0.034,3.626,0.051,7.252,0.074,10.878l19.823,0.097C214.101,295.764,212.146,229.117,211.587,229.13z"/>
	<path fill="#417498" d="M209.769,252.508c0.008,3.447-2.289,5.557-6.045,5.554c-3.904-0.004-6.687-2.675-6.73-6.461
		c-0.043-3.741,2.493-6.317,6.226-6.325C207.19,245.268,209.759,248.104,209.769,252.508z"/>
	<path fill="#417498" d="M203.88,273.12c-5.638-0.128-7.798-4.84-6.233-9.291c0.741-2.107,3.184-3.496,5.792-3.495
		c2.58,0.001,4.909,1.528,5.838,3.821c0.426,1.052,0.63,2.156,0.671,3.278C210.07,270.824,207.6,273.123,203.88,273.12z"/>
	<polygon fill="#54BDCF" points="249.617,230.22 250.263,295.766 236.459,295.764 236.459,231.241 	"/>
	<polygon fill="#285F87" points="250.101,279.935 236.459,280.049 236.459,284.274 250.144,284.274 	"/>
	<polygon fill="#285F87" points="250.016,271.325 236.459,271.439 236.459,275.664 250.058,275.664 	"/>
	<polygon fill="#285F87" points="249.928,262.509 236.459,262.624 236.459,266.848 249.971,266.848 	"/>
</g>
<g id="Layer_1">
</g>
</svg>
