<?xml version="1.0" encoding="utf-8"?>
<!-- Generator: Adobe Illustrator 26.0.3, SVG Export Plug-In . SVG Version: 6.00 Build 0)  -->
<svg version="1.1" xmlns="http://www.w3.org/2000/svg" xmlns:xlink="http://www.w3.org/1999/xlink" x="0px" y="0px"
	 viewBox="0 0 362.103 189.064" enable-background="new 0 0 362.103 189.064" xml:space="preserve">
<g id="bow_x5F_decorative_x5F_white">
	<path id="XMLID_00000033365438516089516720000013107480708789510531_" fill="#FFFFFF" d="M119.182,105.249
		c-4.076-2.112-8.172-4.125-12.166-6.323c-17.001-9.357-32.3-20.823-44.369-36.221c-8.982-11.46-15.169-24.261-18.38-38.491
		c-0.293-1.297,0.053-1.854,1.128-2.502c5.979-3.606,12.395-6.27,18.8-8.976c1.694-0.716,1.272,0.602,1.354,1.266
		c0.944,7.644,3.029,14.955,6.288,21.933c4.589,9.825,11.001,18.334,18.697,25.916c14.901,14.678,54.074,35.095,54.574,34.538
		c0.636-0.708-0.197-1.229-0.61-1.714c-8.718-10.244-16.433-21.186-22.853-33.015c-6.987-12.874-8.456-26.252-2.982-40.005
		c5.393-13.55,15.825-20.56,30.133-21.554c20.208-1.404,35.538,11.867,38.177,32.546c1.442,11.3,0.541,22.508-1.236,33.677
		c-1.359,8.544-3.282,16.971-5.615,25.303c-0.217,0.774-1.207,3.414-0.782,3.656c0.594,0.338,2.813-3.952,3.722-5.524
		c8.48-14.659,18.239-28.424,30.582-40.047c12.031-11.33,26.417-15.568,42.679-11.152c11.803,3.205,18.815,11.688,22.531,22.826
		c5.864,17.575-1.8,34.973-18.425,43.216c-10.743,5.327-22.21,8.033-33.957,9.824c-10.86,1.656-34.281,2.282-35.054,3.142
		c1.993,0.658,3.866,1.305,5.756,1.897c18.212,5.702,36.721,10.032,55.748,11.901c16.034,1.575,32.013,1.486,47.866-1.825
		c13.987-2.921,26.898-8.278,38.247-17.077c3.514-2.724,6.811-5.721,9.755-9.072c0.627-0.714,0.993-1.226,1.726-0.011
		c4.099,6.801,8.214,13.584,11.311,20.933c0.518,1.228,0.306,1.893-0.627,2.708c-10.891,9.516-23.165,16.6-36.879,21.212
		c-18.201,6.121-36.922,7.678-55.971,6.54c-20.131-1.203-39.674-5.4-58.891-11.351c-15.627-4.839-30.772-10.867-45.476-18.03
		c-1.154-0.562-13.363-6.952-16.465-6.727c-19.36,1.409-38.433,4.533-57.021,10.201c-16.205,4.941-31.614,11.639-45.159,22.037
		c-12.674,9.729-22.189,21.805-26.94,37.281c-0.329,1.07-0.605,1.073-1.497,0.493c-5.62-3.655-11.146-7.424-16.18-11.882
		c-0.838-0.742-0.873-1.324-0.482-2.238c3.817-8.947,8.939-17.081,15.395-24.338c14.963-16.819,34.03-27.11,55.013-34.278
		C85.948,110.715,119.033,105.379,119.182,105.249z"/>
	<path fill="#CAD2D3" d="M147.837,91.168c7.349-10.154,21.47-9.984,32.765-4.462c8.451,4.132,17.379,18.239,9.307,33.777
		c-8.141,15.67-30.288,13.731-38.67,5.496C140.67,115.596,141.801,99.508,147.837,91.168z"/>
</g>
<g id="Layer_1">
</g>
</svg>
