<?xml version="1.0" encoding="utf-8"?>
<!-- Generator: Adobe Illustrator 26.0.3, SVG Export Plug-In . SVG Version: 6.00 Build 0)  -->
<svg version="1.1" xmlns="http://www.w3.org/2000/svg" xmlns:xlink="http://www.w3.org/1999/xlink" x="0px" y="0px"
	 viewBox="0 0 163.789 139.908" enable-background="new 0 0 163.789 139.908" xml:space="preserve">
<g id="bow_x5F_decorative_x5F_white_x5F_2">
	<g>
		<path fill="#FFFFFF" d="M31.972,34.518c-8.544-1.892-10.107-13.215-1.509-16.226c19.783-1.064,39.03,9.579,54.543,21.453
			C75.708,4.394,16.523-19.453,0.029,21.686c-1.545,34.375,59.279,32.931,82.286,20.77C64.83,43.428,47.712,40.739,31.972,34.518z"
			/>
	</g>
	<g>
		<path fill="#FFFFFF" d="M131.732,34.771c8.558-1.829,10.204-13.14,1.629-16.214c-19.775-1.209-39.099,9.292-54.699,21.051
			c9.557-35.281,68.916-58.693,85.107-17.434c1.292,34.386-59.519,32.495-82.437,20.165C98.81,43.439,115.946,40.876,131.732,34.771
			z"/>
	</g>
	<g>
		<path fill="#FFFFFF" d="M78.896,43.708c-25.053,16.331-28.459,67.591-66.277,61.607c14.015,9.493,35.296,13.267,49.717,2.836
			c17.008-14.664,3.753-43.181,16.956-59.829L78.896,43.708z"/>
	</g>
	<g>
		<path fill="#FFFFFF" d="M81.929,42.411c-6.349,31.602,30.515,72.919-2.638,97.497c17.884-3.616,36.852-17.138,39.714-36.108
			c1.558-24.155-30.387-35.485-33.228-58.21L81.929,42.411z"/>
	</g>
	<path fill="#B2B2B2" d="M91.015,32.657c-6.508-10.026-24.532-3.592-18.461,10.459C78.671,56.909,99.096,43.602,91.015,32.657z"/>
</g>
<g id="Layer_1">
</g>
</svg>
