<?xml version="1.0" encoding="utf-8"?>
<!-- Generator: Adobe Illustrator 25.0.0, SVG Export Plug-In . SVG Version: 6.00 Build 0)  -->
<svg version="1.1" xmlns="http://www.w3.org/2000/svg" xmlns:xlink="http://www.w3.org/1999/xlink" x="0px" y="0px"
	 viewBox="0 0 213.939 195.049" enable-background="new 0 0 213.939 195.049" xml:space="preserve">
<g id="bucket_x5F_blue">
	<g>
		<path fill="#00759C" d="M19.666,10.5c0,0,15.595,164.083,21.089,174.757c5.691,11.056,119.504,13.909,126.869,2.496
			c5.658-8.767,29.458-174.4,29.458-174.4L19.666,10.5z"/>
		<g>
			<path fill="#00BDD0" d="M123.129,177.91c9.719-0.729,12.071-7.7,11.906-11.906c-0.157-3.997-2.612-10.144-11.906-10.691
				c-4.276-0.251-12.088,4.556-12.878,11.298C109.753,170.865,113.595,178.625,123.129,177.91z"/>
			<path fill="#00BDD0" d="M132.413,91.167c9.719-0.729,12.071-7.7,11.906-11.906c-0.157-3.997-2.612-10.144-11.906-10.691
				c-4.276-0.252-12.088,4.556-12.878,11.298C119.037,84.123,122.879,91.882,132.413,91.167z"/>
			<path fill="#00BDD0" d="M153.906,138.548c9.719-0.729,12.071-7.7,11.906-11.906c-0.157-3.997-2.612-10.144-11.906-10.691
				c-4.276-0.251-12.088,4.556-12.878,11.298C140.53,131.503,144.372,139.263,153.906,138.548z"/>
			<path fill="#00BDD0" d="M120.756,144.142c9.833,0,13.533-9.229,13.081-13.95c-0.412-4.299-3.064-11.48-12.12-11.663
				c-4.337-0.088-12.272,1.647-13.049,11.8C108.319,134.882,111.243,144.142,120.756,144.142z"/>
			<path fill="#00BDD0" d="M69.245,164.817c9.833,0,13.533-9.229,13.081-13.95c-0.412-4.299-3.064-11.48-12.12-11.663
				c-4.337-0.088-12.272,1.647-13.049,11.8C56.808,155.558,59.732,164.817,69.245,164.817z"/>
			<path fill="#00BDD0" d="M99.131,114.742c9.833,0,13.533-9.229,13.081-13.95c-0.412-4.299-3.064-11.48-12.12-11.663
				c-4.337-0.088-12.272,1.647-13.049,11.8C86.694,105.482,89.618,114.742,99.131,114.742z"/>
			<path fill="#00BDD0" d="M65.034,116.829c9.833,0,13.533-9.229,13.081-13.95c-0.412-4.299-3.064-11.48-12.12-11.663
				c-4.337-0.088-12.272,1.647-13.049,11.8C52.596,107.57,55.52,116.829,65.034,116.829z"/>
			<path fill="#00BDD0" d="M102.169,84.005c9.833,0,13.533-9.229,13.081-13.95c-0.412-4.299-3.064-11.48-12.12-11.663
				c-4.337-0.088-12.272,1.647-13.049,11.8C89.731,74.746,92.655,84.005,102.169,84.005z"/>
			<path fill="#00BDD0" d="M87.015,137.418c3.757,0.143,11.33-2.457,11.01-10.245c-0.274-6.678-5.902-8.522-9.1-8.373
				c-9.788,0.457-10.223,5.66-10.774,9.013C76.94,135.177,83.75,137.294,87.015,137.418z"/>
			<path fill="#00BDD0" d="M72.356,87.932c3.757,0.143,11.33-2.457,11.01-10.245c-0.274-6.678-5.902-8.522-9.1-8.373
				c-9.788,0.457-10.223,5.66-10.774,9.013C62.281,85.691,69.091,87.808,72.356,87.932z"/>
			<path fill="#00BDD0" d="M99.839,158.845c3.757,0.143,11.33-2.457,11.01-10.245c-0.274-6.678-5.902-8.522-9.1-8.373
				c-9.788,0.457-10.223,5.66-10.774,9.013C89.764,156.604,96.573,158.721,99.839,158.845z"/>
			<path fill="#00BDD0" d="M161.149,103.092c0.626-3.707-0.977-11.552-8.742-12.238c-6.657-0.588-9.212,4.755-9.475,7.946
				c-0.807,9.765,4.296,10.866,7.551,11.845C157.629,112.794,160.606,106.314,161.149,103.092z"/>
			<path fill="#00BDD0" d="M127.199,114.742c6.675-0.249,8.861-6.367,8.504-9.543c-0.668-5.953-5.691-7.778-8.504-7.472
				c-2.938,0.321-8.071,0.911-9.051,7.897C117.086,113.191,124.075,114.858,127.199,114.742z"/>
			<path fill="#00BDD0" d="M148.123,161.387c6.496-1.555,7.437-7.984,6.464-11.027c-1.825-5.706-7.108-6.509-9.806-5.655
				c-2.818,0.891-7.735,2.479-7.323,9.521C137.903,161.853,145.082,162.115,148.123,161.387z"/>
			<path fill="#00BDD0" d="M94.538,179.708c6.555-1.284,7.763-7.668,6.917-10.749c-1.586-5.777-6.831-6.799-9.563-6.058
				c-2.852,0.774-7.831,2.155-7.713,9.208C84.308,179.748,91.47,180.308,94.538,179.708z"/>
			<path fill="#00BDD0" d="M55.278,137.601c6.675-0.249,8.861-6.367,8.504-9.543c-0.668-5.953-5.691-7.778-8.504-7.472
				c-2.938,0.321-8.071,0.911-9.051,7.897C45.165,136.05,52.154,137.718,55.278,137.601z"/>
		</g>
		<path fill="#FFA600" d="M213.939,26.077c0-6.84-6.334-11.13-14.561-11.13s-12.72,4.708-12.72,11.549
			c0,5.875,5.496,10.475,11.395,11.501c-7.236,16.422-32.343,60.48-93.36,60.208C45.774,97.94,20.595,44.691,17.356,37.232
			c5.31-1.475,9.926-5.784,9.926-11.167c0-6.84-4.493-11.549-12.72-11.549S0,18.807,0,25.647c0,4.833,2.381,8.734,6.672,10.72
			c2.823,12.677,19.92,70.783,97.016,76.566c80.391,6.029,101.433-58.858,105.795-77.449
			C212.368,33.312,213.939,30.002,213.939,26.077z"/>
		<path fill="#00BDD0" d="M191.898,46.288c3.091-19.443,5.184-33.11,5.184-33.11L19.666,10.5c0,0,1.374,13.564,3.449,32.903
			C43.01,44.618,168.978,46.576,191.898,46.288z"/>
		<path fill="#00759C" d="M22.01,3.805c23.432-6.36,165.807-3.854,173.399,1.004c8.369,5.356,4.017,11.716,4.017,11.716
			s-65.945,1.339-95.068,1.339S15.65,15.856,15.65,15.856S13.192,6.198,22.01,3.805z"/>
	</g>
</g>
<g id="Layer_1">
</g>
</svg>
