<?xml version="1.0" encoding="utf-8"?>
<!-- Generator: Adobe Illustrator 25.0.0, SVG Export Plug-In . SVG Version: 6.00 Build 0)  -->
<svg version="1.1" xmlns="http://www.w3.org/2000/svg" xmlns:xlink="http://www.w3.org/1999/xlink" x="0px" y="0px"
	 viewBox="0 0 213.939 183.717" enable-background="new 0 0 213.939 183.717" xml:space="preserve">
<g id="bucket_x5F_red">
	<g>
		<path fill="#FF4035" d="M19.666,10.5c0,0,15.595,154.008,21.089,164.026c5.691,10.377,119.504,13.055,126.869,2.343
			c5.658-8.229,29.458-163.691,29.458-163.691L19.666,10.5z"/>
		<path fill="#FFA600" d="M213.939,26.077c0-6.84-6.334-11.13-14.561-11.13s-12.72,4.708-12.72,11.549
			c0,5.875,5.496,10.475,11.395,11.501c-7.236,16.422-32.343,60.48-93.36,60.208C45.774,97.94,20.595,44.691,17.356,37.232
			c5.31-1.475,9.926-5.784,9.926-11.167c0-6.84-4.493-11.549-12.72-11.549S0,18.807,0,25.647c0,4.833,2.381,8.734,6.672,10.72
			c2.823,12.677,19.92,70.783,97.016,76.566c80.391,6.029,101.433-58.858,105.795-77.449
			C212.368,33.312,213.939,30.002,213.939,26.077z"/>
		<path fill="#FF9EC5" d="M34.335,138.827c2.556,18.818,4.884,32.896,6.421,35.699c5.691,10.377,119.504,13.055,126.869,2.343
			c1.604-2.333,4.665-16.499,8.229-35.595c-16.281,0.992-44.584,2.455-69.822,2.455C77.625,143.729,48.304,140.577,34.335,138.827z"
			/>
		<path fill="#FF9EC5" d="M191.898,46.288c3.091-19.443,5.184-33.11,5.184-33.11L19.666,10.5c0,0,1.374,13.564,3.449,32.903
			C43.01,44.618,168.978,46.576,191.898,46.288z"/>
		<path fill="#FF4035" d="M22.01,3.805c23.432-6.36,165.807-3.854,173.399,1.004c8.369,5.356,4.017,11.716,4.017,11.716
			s-65.945,1.339-95.068,1.339S15.65,15.856,15.65,15.856S13.192,6.198,22.01,3.805z"/>
	</g>
</g>
<g id="Layer_1">
</g>
</svg>
