<?xml version="1.0" encoding="utf-8"?>
<!-- Generator: Adobe Illustrator 25.0.0, SVG Export Plug-In . SVG Version: 6.00 Build 0)  -->
<svg version="1.1" xmlns="http://www.w3.org/2000/svg" xmlns:xlink="http://www.w3.org/1999/xlink" x="0px" y="0px"
	 viewBox="0 0 151.394 283.211" enable-background="new 0 0 151.394 283.211" xml:space="preserve">
<g id="can_x5F_big_x5F_grey">
	<g>
		<path fill="#B2B2B2" d="M38.015,101.692h113.377c0,0-0.2,164.017,0,164.46c0,0-6.972,17.059-53.8,17.059
			c-47.923,0-59.578-16.621-59.578-16.621L38.015,101.692z"/>
		<path fill="#B2B2B2" d="M83.647,39.328c-1.204-10.894,2.319-4.458-6.111-11.733c-3.284-10.352,1.377-4.85-8.246-10.275
			c-4.971-8.872-0.069-5.283-10.084-8.203c-6.551-7.205-1.521-5.156-11.502-5.475C37.51-5.081,40.64,5.254,31.277,0.388
			c-4.313-1.984-6.603,6.282-11.773,3.919c-4.715-0.265-3.648,8.275-9.488,8.051c-4.602,1.384-0.268,9.228-6.224,11.121
			c-3.632,2.027,0.498,5.532-0.488,8.596c-0.064,3.275-5.234,5.192-2.515,8.37c5.38,4.508-2.303,9.88,1.348,13.335
			C8.6,57.219,1.965,64.048,6.319,66.686c7.118,2.222,1.92,10.297,6.712,11.995c7.188,0.654,3.842,9.538,8.837,10.261
			c6.884-0.904,5.736,8.424,10.746,8.038c6.07-2.406,7.465,6.636,12.075,5.097c9.738-3.809,5.867,6.292,16.696-0.906
			c8.575,0.528,5.141,1.985,10.909-4.419c2.256-1.924,6.928-0.029,7.14-3.946c1.43-10.574,8.032-1.838,6.752-15.315
			c5.414-8.357,4.323-2.972,2.113-12.559c-0.389-3.296,4.625-5.798,1.535-8.661c-5.94-3.996,1.198-10.207-2.837-13.2
			C85.53,42.278,84.322,40.994,83.647,39.328z"/>
		<path fill="#E8E9E9" d="M91.915,212.405c-32.626,0-53.062-7.972-53.9-8.333v-4.715c0.209,0.089,24.882,8.935,60.3,7.81
			c35.611-1.145,52.894-8.799,53.078-8.878v4.736C149.959,204.575,124.724,212.572,91.915,212.405z"/>
		<path fill="#E8E9E9" d="M91.923,237.398c-32.634,0-53.071-7.974-53.908-8.335v-4.715c0.209,0.089,24.906,8.943,60.3,7.812
			c35.492-1.141,52.892-8.803,53.078-8.88v4.735C149.754,229.641,124.867,237.524,91.923,237.398z"/>
		<path fill="#E8E9E9" d="M91.922,262.389c-32.629,0-53.069-7.972-53.906-8.333v-4.715c0.209,0.089,24.906,8.951,60.3,7.81
			c35.492-1.141,52.892-8.803,53.078-8.88v4.735C149.784,254.622,124.844,262.522,91.922,262.389z"/>
		<ellipse fill="#7C7E7E" cx="94.703" cy="101.692" rx="56.689" ry="16.499"/>
	</g>
</g>
<g id="Layer_1">
</g>
</svg>
