<?xml version="1.0" encoding="utf-8"?>
<!-- Generator: Adobe Illustrator 27.0.0, SVG Export Plug-In . SVG Version: 6.00 Build 0)  -->
<svg version="1.1" xmlns="http://www.w3.org/2000/svg" xmlns:xlink="http://www.w3.org/1999/xlink" x="0px" y="0px"
	 viewBox="0 0 259.65 236.381" enable-background="new 0 0 259.65 236.381" xml:space="preserve">
<g id="candletree_x5F_white">
	<path fill="#FFFFFF" d="M259.605,32.873h-76.816c-0.054,11.999,3.443,24.268,12.766,31.946c4.119,3.392,9.927,6.247,16.38,7.91
		c-0.561,10.273-3.364,24.337-13.094,35.98c-11.645,13.932-30.827,21.768-57.076,23.381V39.006c5.27-1.706,9.965-4.19,13.45-7.06
		c9.323-7.678,12.82-19.947,12.766-31.946H91.165c-0.282,6.303,0.723,13.089,3.539,20.133c5.273,13.194,15.326,19.249,26.061,20.835
		v91.136c-27.872-1.594-48.099-9.712-60.164-24.227C51.27,96.655,48.408,83.329,47.759,73.364
		c6.436-1.665,12.227-4.515,16.337-7.899c9.325-7.678,12.82-19.947,12.766-31.946H0.046c-0.282,6.303,0.723,13.089,3.539,20.133
		c4.792,11.991,13.534,18.087,23.146,20.291c0.75,13.325,4.55,31.388,17.537,47.137c16.104,19.527,41.827,30.263,76.497,32.04
		v43.738c-5.963,1.698-11.306,4.401-15.164,7.578c-9.323,7.678-12.82,19.947-12.766,31.946h76.816
		c0.282-6.303-0.723-13.089-3.539-20.133c-4.992-12.49-14.266-18.585-24.347-20.547v-42.598
		c33.01-1.797,57.678-12.229,73.361-31.137c13.442-16.205,17.18-35.055,17.836-48.68c9.595-2.212,18.317-8.307,23.103-20.282
		C258.881,45.962,259.887,39.176,259.605,32.873z"/>
</g>
<g id="Layer_1">
</g>
</svg>
