<?xml version="1.0" encoding="utf-8"?>
<!-- Generator: Adobe Illustrator 26.0.3, SVG Export Plug-In . SVG Version: 6.00 Build 0)  -->
<svg version="1.1" xmlns="http://www.w3.org/2000/svg" xmlns:xlink="http://www.w3.org/1999/xlink" x="0px" y="0px"
	 viewBox="0 0 396.026 310.855" enable-background="new 0 0 396.026 310.855" xml:space="preserve">
<g id="candletree_x5F_2">
	<g>
		<rect x="28.679" y="142.406" fill="#D47A00" width="4.669" height="19.786"/>
		<rect x="80.942" y="95.302" fill="#D47A00" width="4.669" height="19.786"/>
		<rect x="137.517" y="47.347" fill="#D47A00" width="4.669" height="19.786"/>
		<rect x="195.679" y="0" fill="#D47A00" width="4.669" height="19.786"/>
		<rect x="253.709" y="47.834" fill="#D47A00" width="4.669" height="19.786"/>
		<rect x="308.169" y="95.424" fill="#D47A00" width="4.669" height="19.786"/>
		<rect x="360.645" y="143.38" fill="#D47A00" width="4.669" height="19.786"/>
		<path fill="#FFFFFF" d="M211.572,16.52c0.206,4.865-0.694,95.45-0.694,95.45l-26.12-0.3c0,0-0.522-76.329,0.035-94.156
			C184.758,11.696,211.429,12.252,211.572,16.52z"/>
		<path fill="#FFFFFF" d="M269.602,64.814c0.206,4.865-0.694,95.45-0.694,95.45l-26.119-0.3c0,0-0.522-76.329,0.035-94.156
			C242.788,59.989,269.459,60.545,269.602,64.814z"/>
		<path fill="#FFFFFF" d="M324.062,113.107c0.206,4.865-0.694,95.45-0.694,95.45l-26.12-0.3c0,0-0.522-76.329,0.035-94.156
			C297.248,108.283,323.919,108.838,324.062,113.107z"/>
		<path fill="#FFFFFF" d="M377.677,160.543c0.206,4.865-0.694,95.45-0.694,95.45l-26.12-0.3c0,0-0.522-76.329,0.035-94.156
			C350.863,155.718,377.535,156.274,377.677,160.543z"/>
		<path fill="#FFFFFF" d="M153.41,64.814c0.206,4.865-0.694,95.45-0.694,95.45l-26.119-0.3c0,0-0.522-76.329,0.035-94.156
			C126.596,59.989,153.267,60.545,153.41,64.814z"/>
		<path fill="#FFFFFF" d="M96.835,113.107c0.206,4.865-0.694,95.45-0.694,95.45l-26.12-0.3c0,0-0.522-76.329,0.035-94.156
			C70.021,108.283,96.692,108.838,96.835,113.107z"/>
		<path fill="#FFFFFF" d="M43.432,161.401c0.206,4.865-0.694,95.45-0.694,95.45l-26.12-0.3c0,0-0.522-76.329,0.035-94.156
			C16.618,156.576,43.29,157.132,43.432,161.401z"/>
		<path fill="#00A038" d="M51.092,249.971c0-9.984-3.967-26.552-21.788-25.956C13.56,224.54,8.768,238.91,8.768,249.971H51.092z"/>
		<path fill="#00A038" d="M104.438,202.499c0-9.984-3.967-26.552-21.788-25.956c-15.743,0.526-20.536,14.895-20.536,25.956H104.438z
			"/>
		<path fill="#00A038" d="M161.014,153.273c0-9.984-3.967-26.552-21.788-25.956c-15.743,0.526-20.536,14.895-20.536,25.956H161.014z
			"/>
		<path fill="#00A038" d="M219.165,105.38c0-9.984-3.967-26.552-21.788-25.956c-15.743,0.526-20.536,14.895-20.536,25.956H219.165z"
			/>
		<path fill="#00A038" d="M277.205,154.662c0-9.984-3.967-26.552-21.788-25.956c-15.743,0.526-20.536,14.895-20.536,25.956H277.205z
			"/>
		<path fill="#00A038" d="M331.665,202.423c0-9.984-3.967-26.552-21.788-25.956c-15.743,0.526-20.536,14.895-20.536,25.956H331.665z
			"/>
		<path fill="#00A038" d="M385.337,250.184c0-9.984-3.967-26.552-21.788-25.956c-15.743,0.526-20.536,14.895-20.536,25.956H385.337z
			"/>
		<path fill="#FF4035" d="M394.063,255.711c-1.244-4.016-3.72-7.715-8.355-9.077c-7.945-2.919-38.823-1.783-44.132,0.412
			c-0.313,0.06-0.626,0.137-0.939,0.222c1.089-13.144-0.27-35.106-1.564-39.144c-1.244-4.016-3.72-7.715-8.355-9.078
			c-7.657-2.813-36.605-1.86-43.446,0.178c1.021-13.191-0.323-34.696-1.602-38.688c-1.244-4.016-3.72-7.714-8.354-9.077
			c-7.945-2.919-38.823-1.784-44.132,0.412c-0.866,0.166-1.731,0.435-2.572,0.792c1.177-13.07-0.205-35.617-1.517-39.714
			c-1.244-4.015-3.72-7.714-8.355-9.077c-7.945-2.919-38.823-1.783-44.132,0.412c-4.397,0.843-8.782,4.245-10.013,9.24
			c-1.929,6.183-2.04,38.051-2.43,37.937c-7.945-2.919-38.823-1.784-44.132,0.412c-4.397,0.843-8.782,4.245-10.013,9.24
			c-1.887,6.048-1.817,28.802-1.358,37.77c-8.66-2.704-38.414-1.574-43.617,0.578c-4.397,0.843-8.782,4.245-10.013,9.24
			c-1.859,5.957-1.819,28.124-1.379,37.359c-10.244-2.166-37.093-1.045-42.011,0.989c-4.397,0.842-8.782,4.245-10.013,9.24
			c-2.217,7.107-1.733,37.296-1.091,41.059c0.709,4.089,3.871,9.16,8.234,11.614c2.509,1.274,8.209,1.782,14.737,1.879l0.019,0.019
			h28.077l146.01-128.143l146.01,128.143c0,0,38.772-0.036,39.714-0.216c5.055-0.967,9.912-5.005,11.78-11.431
			C397.05,287.31,395.513,260.239,394.063,255.711z"/>
	</g>
</g>
<g id="Layer_1">
</g>
</svg>
