<?xml version="1.0" encoding="utf-8"?>
<!-- Generator: Adobe Illustrator 26.0.3, SVG Export Plug-In . SVG Version: 6.00 Build 0)  -->
<svg version="1.1" xmlns="http://www.w3.org/2000/svg" xmlns:xlink="http://www.w3.org/1999/xlink" x="0px" y="0px"
	 viewBox="0 0 139.239 338.42" enable-background="new 0 0 139.239 338.42" xml:space="preserve">
<g id="candletree_x5F_3">
	<g>
		<rect x="67.608" y="0" fill="#DB7E27" width="4.442" height="18.825"/>
		<g id="candle_x5F_holder_x5F_orange_00000183232528230354961160000010113808966771387286_">
			<path fill="#FF8000" d="M0,338.42h139.239c0,0-9.712-59.708-69.62-59.708S0,338.42,0,338.42z"/>
			<path fill="#E7E7E7" d="M93.988,18.411c0.368,3.282-1.235,64.384-1.235,64.384l-46.484-0.202
				c-0.839-10.267-0.929-51.485,0.062-63.509C46.268,15.158,93.734,15.532,93.988,18.411z"/>
			<circle fill="#FF8000" cx="69.155" cy="180.686" r="40.412"/>
			
				<rect x="35.451" y="209.781" transform="matrix(0.7071 -0.7071 0.7071 0.7071 -151.9155 120.2163)" fill="#FF8000" width="67.411" height="67.411"/>
			<polygon fill="#FF8000" points="116.39,149.267 69.155,77.307 23.919,149.267 			"/>
			<rect x="21.431" y="71.762" fill="#FF8000" width="96.38" height="19.216"/>
			<circle fill="#FFA600" cx="69.155" cy="180.299" r="23.266"/>
			
				<rect x="50.215" y="225.014" transform="matrix(0.7071 -0.7071 0.7071 0.7071 -152.4388 120.8167)" fill="#FFA600" width="38.808" height="38.808"/>
			<polygon fill="#FFA600" points="94.51,138.181 69.62,102.509 44.73,138.181 			"/>
		</g>
	</g>
</g>
<g id="Layer_1">
</g>
</svg>
