<?xml version="1.0" encoding="utf-8"?>
<!-- Generator: Adobe Illustrator 26.0.2, SVG Export Plug-In . SVG Version: 6.00 Build 0)  -->
<svg version="1.1" id="Layer_1" xmlns="http://www.w3.org/2000/svg" xmlns:xlink="http://www.w3.org/1999/xlink" x="0px" y="0px"
	 viewBox="0 0 149.1 323.1" style="enable-background:new 0 0 149.1 323.1;" xml:space="preserve">
<style type="text/css">
	.st0{fill:#DA7D27;}
	.st1{fill:#C61824;}
	.st2{fill:#FF8000;}
	.st3{fill:#FFD200;}
	.st4{fill:#FFA600;}
</style>
<polygon class="st0" points="64.4,107.4 64.4,143.9 75.4,143.9 73.1,105.8 "/>
<path class="st1" d="M0.3,144.8c0.3-1.6,1.1-2.5,2.6-3c3.9-1.4,123.3-8.5,138-7.6c4.9,0.3,4.9,0.4,5.6,5.4
	c0.3,1.9,2.7,177.4,2.6,178.8c0,1.9-1,2.9-2.9,3.2c-3.2,0.6-140.7,1.5-142.4,1.4C2.5,323,2,322.2,1.6,321
	C0.8,317.6-0.7,149.7,0.3,144.8z"/>
<path class="st2" d="M2.4,171c5.1,19.1,20.4,21.8,33.4,14.8c11.8-6.2,12.8-26.9,13.3-29.9c1.8,12,6.3,33.1,28.4,31.4
	c19.6-1.4,24.2-32.2,24.5-32.5c0,0,4.6,31.4,20.5,30.6c24.2-1.2,24.2-32,24.1-33.4c-2.2,0-56.7,1.9-146.1,5.2
	C0.5,157.1,1.2,167.3,2.4,171z"/>
<path class="st3" d="M68.8,0c0,0-63.2,55.2-38.1,107.9c6.1,12.8,20.1,19,38.1,18.9c10.4,0,33.8-4.5,41.3-22.2
	C133.1,49.9,68.8,0,68.8,0z"/>
<path class="st4" d="M100.6,68c-9.6-15.3-30-16.3-46.7-9.5c-12.5,5.2-26.7,24.6-16.5,47.7c10.3,23.3,42.3,22.6,55.1,11.5
	C108.7,103.8,108.6,80.6,100.6,68z"/>
<path class="st2" d="M90.2,85.2C83.8,75.2,70.4,74.5,59.4,79c-8.3,3.4-17.6,16.2-10.9,31.4c6.8,15.3,27.9,14.9,36.3,7.6
	C95.5,108.8,95.4,93.5,90.2,85.2z"/>
<g id="Layer_1_00000176026654239274058920000016303429289137655684_">
</g>
</svg>
