<?xml version="1.0" encoding="utf-8"?>
<!-- Generator: Adobe Illustrator 26.0.3, SVG Export Plug-In . SVG Version: 6.00 Build 0)  -->
<svg version="1.1" xmlns="http://www.w3.org/2000/svg" xmlns:xlink="http://www.w3.org/1999/xlink" x="0px" y="0px"
	 viewBox="0 0 139.239 385.808" enable-background="new 0 0 139.239 385.808" xml:space="preserve">
<g id="candletree_x5F_lit_x5F_3">
	<g>
		<g>
			<path fill="#FFE400" d="M70.26,63.729c-15.663-0.141-25.027-8.948-24.961-23.475C45.369,24.805,69.828,0,69.828,0
				s24.49,25.813,24.529,40.42C94.395,54.789,85.015,63.862,70.26,63.729z"/>
			<path fill="#FFD200" d="M70.164,61.135c-12.2-0.11-19.493-6.97-19.442-18.284c0.055-12.033,8.124-20.143,19.918-20.02
				c10.398,0.109,18.263,8.772,18.293,20.149C88.963,54.172,81.657,61.239,70.164,61.135z"/>
			<path fill="#FF8000" d="M70.065,58.593c-8.592-0.077-13.729-4.909-13.693-12.878c0.039-8.475,5.722-14.187,14.028-14.1
				c7.323,0.077,12.863,6.178,12.884,14.191C83.305,53.689,78.159,58.666,70.065,58.593z"/>
		</g>
		<rect x="67.608" y="47.388" fill="#DB7E27" width="4.442" height="18.825"/>
		<g id="candle_x5F_holder_x5F_orange_00000076574615942672475140000002650533828405399725_">
			<path fill="#FF8000" d="M0,385.808h139.239c0,0-9.712-59.708-69.62-59.708S0,385.808,0,385.808z"/>
			<path fill="#E7E7E7" d="M93.988,65.799c0.368,3.282-1.235,64.384-1.235,64.384l-46.484-0.202
				c-0.839-10.267-0.929-51.485,0.062-63.509C46.268,62.546,93.734,62.92,93.988,65.799z"/>
			<circle fill="#FF8000" cx="69.155" cy="228.074" r="40.412"/>
			
				<rect x="35.451" y="257.169" transform="matrix(0.7071 -0.7071 0.7071 0.7071 -185.4238 134.0959)" fill="#FF8000" width="67.411" height="67.411"/>
			<polygon fill="#FF8000" points="116.39,196.655 69.155,124.694 23.919,196.655 			"/>
			<rect x="21.431" y="119.15" fill="#FF8000" width="96.38" height="19.216"/>
			<circle fill="#FFA600" cx="69.155" cy="227.687" r="23.266"/>
			
				<rect x="50.215" y="272.402" transform="matrix(0.7071 -0.7071 0.7071 0.7071 -185.947 134.6963)" fill="#FFA600" width="38.808" height="38.808"/>
			<polygon fill="#FFA600" points="94.51,185.568 69.62,149.897 44.73,185.568 			"/>
		</g>
	</g>
</g>
<g id="Layer_1">
</g>
</svg>
