<?xml version="1.0" encoding="utf-8"?>
<!-- Generator: Adobe Illustrator 26.0.3, SVG Export Plug-In . SVG Version: 6.00 Build 0)  -->
<svg version="1.1" xmlns="http://www.w3.org/2000/svg" xmlns:xlink="http://www.w3.org/1999/xlink" x="0px" y="0px"
	 viewBox="0 0 149.1 217.208" enable-background="new 0 0 149.1 217.208" xml:space="preserve">
<g id="candle_x5F_red">
	<polygon fill="#DA7D27" points="64.4,1.6 64.4,38.1 75.4,38.1 73.1,0 	"/>
	<path fill="#C61824" d="M0.3,39c0.3-1.6,1.1-2.5,2.6-3c3.9-1.4,123.3-8.5,138-7.6c4.9,0.3,4.9,0.4,5.6,5.4
		c0.3,1.9,2.7,177.4,2.6,178.8c0,1.9-1,2.9-2.9,3.2c-3.2,0.6-140.7,1.5-142.4,1.4c-1.3,0-1.8-0.8-2.2-2C0.8,211.8-0.7,43.9,0.3,39z"
		/>
	<path fill="#FF8000" d="M2.4,65.2C7.5,84.3,22.8,87,35.8,80c11.8-6.2,12.8-26.9,13.3-29.9c1.8,12,6.3,33.1,28.4,31.4
		C97.1,80.1,101.7,49.3,102,49c0,0,4.6,31.4,20.5,30.6c24.2-1.2,24.2-32,24.1-33.4c-2.2,0-56.7,1.9-146.1,5.2
		C0.5,51.3,1.2,61.5,2.4,65.2z"/>
</g>
<g id="Layer_1">
</g>
</svg>
