<?xml version="1.0" encoding="utf-8"?>
<!-- Generator: Adobe Illustrator 26.0.3, SVG Export Plug-In . SVG Version: 6.00 Build 0)  -->
<svg version="1.1" xmlns="http://www.w3.org/2000/svg" xmlns:xlink="http://www.w3.org/1999/xlink" x="0px" y="0px"
	 viewBox="0 0 396.026 362.484" enable-background="new 0 0 396.026 362.484" xml:space="preserve">
<g id="candletree_x5F_lit_x5F_2">
	<g>
		<g>
			<path fill="#FFE400" d="M198.453,64.909c-15.953-0.144-25.491-9.114-25.423-23.91C173.102,25.264,198.013,0,198.013,0
				s24.944,26.291,24.983,41.168C223.035,55.804,213.482,65.044,198.453,64.909z"/>
			<path fill="#FFD200" d="M198.356,62.267c-12.425-0.112-19.854-7.099-19.802-18.623c0.056-12.256,8.274-20.516,20.286-20.39
				c10.59,0.111,18.601,8.934,18.632,20.522C217.503,55.175,210.062,62.373,198.356,62.267z"/>
			<path fill="#FF8000" d="M198.254,59.678c-8.751-0.079-13.984-5-13.947-13.116c0.039-8.632,5.828-14.45,14.288-14.361
				c7.459,0.078,13.101,6.293,13.122,14.454C211.74,54.683,206.499,59.753,198.254,59.678z"/>
		</g>
		<g>
			<path fill="#FFE400" d="M256.483,113.202c-15.953-0.144-25.491-9.114-25.423-23.91c0.072-15.735,24.983-40.999,24.983-40.999
				s24.944,26.291,24.983,41.168C281.065,104.097,271.512,113.338,256.483,113.202z"/>
			<path fill="#FFD200" d="M256.386,110.561c-12.425-0.112-19.854-7.099-19.802-18.623c0.056-12.256,8.274-20.516,20.286-20.39
				c10.59,0.111,18.601,8.934,18.632,20.522C275.532,103.469,268.091,110.666,256.386,110.561z"/>
			<path fill="#FF8000" d="M256.284,107.972c-8.751-0.079-13.984-5-13.947-13.116c0.039-8.632,5.828-14.45,14.288-14.361
				c7.459,0.078,13.101,6.293,13.122,14.454C269.769,102.977,264.529,108.046,256.284,107.972z"/>
		</g>
		<g>
			<path fill="#FFE400" d="M310.943,161.496c-15.953-0.144-25.491-9.114-25.423-23.91c0.072-15.735,24.983-40.999,24.983-40.999
				s24.944,26.291,24.983,41.168C335.525,152.39,325.972,161.631,310.943,161.496z"/>
			<path fill="#FFD200" d="M310.846,158.854c-12.425-0.112-19.854-7.099-19.802-18.623c0.056-12.256,8.274-20.516,20.286-20.39
				c10.59,0.111,18.601,8.934,18.632,20.522C329.993,151.762,322.552,158.96,310.846,158.854z"/>
			<path fill="#FF8000" d="M310.745,156.265c-8.751-0.079-13.984-5-13.946-13.116c0.039-8.632,5.828-14.45,14.288-14.361
				c7.459,0.078,13.101,6.293,13.122,14.454C324.23,151.27,318.989,156.339,310.745,156.265z"/>
		</g>
		<g>
			<path fill="#FFE400" d="M364.559,208.931c-15.953-0.144-25.491-9.114-25.423-23.91c0.072-15.735,24.983-40.999,24.983-40.999
				s24.944,26.291,24.983,41.168C389.141,199.826,379.588,209.067,364.559,208.931z"/>
			<path fill="#FFD200" d="M364.462,206.29c-12.425-0.112-19.854-7.099-19.802-18.623c0.056-12.256,8.274-20.516,20.286-20.39
				c10.59,0.111,18.601,8.934,18.632,20.522C383.608,199.198,376.167,206.395,364.462,206.29z"/>
			<path fill="#FF8000" d="M364.36,203.701c-8.751-0.079-13.984-5-13.947-13.116c0.039-8.632,5.828-14.45,14.288-14.361
				c7.459,0.078,13.101,6.293,13.122,14.454C377.845,198.706,372.605,203.775,364.36,203.701z"/>
		</g>
		<g>
			<path fill="#FFE400" d="M140.292,113.202c-15.953-0.144-25.491-9.114-25.423-23.91c0.072-15.735,24.983-40.999,24.983-40.999
				s24.944,26.291,24.983,41.168C164.874,104.097,155.321,113.338,140.292,113.202z"/>
			<path fill="#FFD200" d="M140.194,110.561c-12.425-0.112-19.854-7.099-19.802-18.623c0.056-12.256,8.274-20.516,20.286-20.39
				c10.59,0.111,18.601,8.934,18.632,20.522C159.341,103.469,151.9,110.666,140.194,110.561z"/>
			<path fill="#FF8000" d="M140.093,107.972c-8.751-0.079-13.984-5-13.947-13.116c0.039-8.632,5.828-14.45,14.288-14.361
				c7.459,0.078,13.101,6.293,13.122,14.454C153.578,102.977,148.337,108.046,140.093,107.972z"/>
		</g>
		<g>
			<path fill="#FFE400" d="M83.717,161.496c-15.953-0.144-25.491-9.114-25.423-23.91c0.072-15.735,24.983-40.999,24.983-40.999
				s24.944,26.291,24.983,41.168C108.299,152.39,98.745,161.631,83.717,161.496z"/>
			<path fill="#FFD200" d="M83.619,158.854c-12.425-0.112-19.854-7.099-19.802-18.623c0.056-12.256,8.274-20.516,20.286-20.39
				c10.59,0.111,18.601,8.934,18.632,20.522C102.766,151.762,95.325,158.96,83.619,158.854z"/>
			<path fill="#FF8000" d="M83.518,156.265c-8.751-0.079-13.984-5-13.946-13.116c0.039-8.632,5.828-14.45,14.288-14.361
				c7.459,0.078,13.101,6.293,13.122,14.454C97.003,151.27,91.762,156.339,83.518,156.265z"/>
		</g>
		<g>
			<path fill="#FFE400" d="M30.314,209.789c-15.953-0.144-25.491-9.114-25.423-23.91c0.072-15.735,24.983-40.999,24.983-40.999
				s24.944,26.291,24.983,41.168C54.896,200.684,45.343,209.925,30.314,209.789z"/>
			<path fill="#FFD200" d="M30.217,207.148c-12.425-0.112-19.854-7.099-19.802-18.623c0.056-12.256,8.274-20.516,20.286-20.39
				c10.59,0.111,18.601,8.934,18.632,20.522C49.363,200.056,41.922,207.253,30.217,207.148z"/>
			<path fill="#FF8000" d="M30.115,204.559c-8.751-0.079-13.984-5-13.946-13.116c0.039-8.632,5.828-14.45,14.288-14.361
				c7.459,0.078,13.101,6.293,13.122,14.454C43.6,199.564,38.36,204.633,30.115,204.559z"/>
		</g>
		<rect x="28.679" y="194.035" fill="#D47A00" width="4.669" height="19.786"/>
		<rect x="80.942" y="146.931" fill="#D47A00" width="4.669" height="19.786"/>
		<rect x="137.517" y="98.976" fill="#D47A00" width="4.669" height="19.786"/>
		<rect x="195.679" y="51.629" fill="#D47A00" width="4.669" height="19.786"/>
		<rect x="253.709" y="99.463" fill="#D47A00" width="4.669" height="19.786"/>
		<rect x="308.169" y="147.053" fill="#D47A00" width="4.669" height="19.786"/>
		<rect x="360.645" y="195.008" fill="#D47A00" width="4.669" height="19.786"/>
		<path fill="#FFFFFF" d="M211.572,68.149c0.206,4.865-0.694,95.45-0.694,95.45l-26.12-0.3c0,0-0.522-76.329,0.035-94.156
			C184.758,63.325,211.429,63.88,211.572,68.149z"/>
		<path fill="#FFFFFF" d="M269.602,116.443c0.206,4.865-0.694,95.45-0.694,95.45l-26.119-0.3c0,0-0.522-76.329,0.035-94.156
			C242.788,111.618,269.459,112.174,269.602,116.443z"/>
		<path fill="#FFFFFF" d="M324.062,164.736c0.206,4.865-0.694,95.45-0.694,95.45l-26.12-0.3c0,0-0.522-76.329,0.035-94.156
			C297.248,159.912,323.919,160.467,324.062,164.736z"/>
		<path fill="#FFFFFF" d="M377.677,212.171c0.206,4.865-0.694,95.45-0.694,95.45l-26.12-0.3c0,0-0.522-76.329,0.035-94.156
			C350.863,207.347,377.535,207.903,377.677,212.171z"/>
		<path fill="#FFFFFF" d="M153.41,116.443c0.206,4.865-0.694,95.45-0.694,95.45l-26.119-0.3c0,0-0.522-76.329,0.035-94.156
			C126.596,111.618,153.267,112.174,153.41,116.443z"/>
		<path fill="#FFFFFF" d="M96.835,164.736c0.206,4.865-0.694,95.45-0.694,95.45l-26.12-0.3c0,0-0.522-76.329,0.035-94.156
			C70.021,159.912,96.692,160.467,96.835,164.736z"/>
		<path fill="#FFFFFF" d="M43.432,213.029c0.206,4.865-0.694,95.45-0.694,95.45l-26.12-0.3c0,0-0.522-76.329,0.035-94.156
			C16.618,208.205,43.29,208.761,43.432,213.029z"/>
		<path fill="#00A038" d="M51.092,301.599c0-9.984-3.967-26.552-21.788-25.956c-15.743,0.526-20.536,14.895-20.536,25.956H51.092z"
			/>
		<path fill="#00A038" d="M104.438,254.128c0-9.984-3.967-26.552-21.788-25.956c-15.743,0.526-20.536,14.895-20.536,25.956H104.438z
			"/>
		<path fill="#00A038" d="M161.014,204.902c0-9.984-3.967-26.552-21.788-25.956c-15.743,0.526-20.536,14.895-20.536,25.956H161.014z
			"/>
		<path fill="#00A038" d="M219.165,157.008c0-9.984-3.967-26.552-21.788-25.956c-15.743,0.526-20.536,14.895-20.536,25.956H219.165z
			"/>
		<path fill="#00A038" d="M277.205,206.291c0-9.984-3.967-26.552-21.788-25.956c-15.743,0.526-20.536,14.895-20.536,25.956H277.205z
			"/>
		<path fill="#00A038" d="M331.665,254.052c0-9.984-3.967-26.552-21.788-25.956c-15.743,0.526-20.536,14.895-20.536,25.956H331.665z
			"/>
		<path fill="#00A038" d="M385.337,301.813c0-9.984-3.967-26.552-21.788-25.956c-15.743,0.526-20.536,14.895-20.536,25.956H385.337z
			"/>
		<path fill="#FF4035" d="M394.063,307.339c-1.244-4.016-3.72-7.715-8.355-9.078c-7.945-2.919-38.823-1.783-44.132,0.412
			c-0.313,0.06-0.626,0.137-0.939,0.222c1.089-13.144-0.27-35.106-1.564-39.144c-1.244-4.016-3.72-7.715-8.355-9.078
			c-7.657-2.813-36.605-1.86-43.446,0.178c1.021-13.191-0.323-34.696-1.602-38.688c-1.244-4.016-3.72-7.714-8.354-9.077
			c-7.945-2.919-38.823-1.784-44.132,0.412c-0.866,0.166-1.731,0.435-2.572,0.792c1.177-13.07-0.205-35.617-1.517-39.714
			c-1.244-4.015-3.72-7.714-8.355-9.077c-7.945-2.919-38.823-1.783-44.132,0.412c-4.397,0.843-8.782,4.245-10.013,9.24
			c-1.929,6.183-2.04,38.051-2.43,37.937c-7.945-2.919-38.823-1.784-44.132,0.412c-4.397,0.843-8.782,4.245-10.013,9.24
			c-1.887,6.048-1.817,28.802-1.358,37.77c-8.66-2.704-38.414-1.574-43.617,0.578c-4.397,0.843-8.782,4.245-10.013,9.24
			c-1.859,5.957-1.819,28.124-1.379,37.359c-10.244-2.166-37.093-1.045-42.011,0.989c-4.397,0.842-8.782,4.245-10.013,9.24
			c-2.217,7.107-1.733,37.296-1.091,41.059c0.709,4.089,3.871,9.16,8.234,11.614c2.509,1.274,8.209,1.782,14.737,1.879l0.019,0.019
			h28.077l146.01-128.143l146.01,128.143c0,0,38.772-0.036,39.714-0.216c5.055-0.967,9.912-5.005,11.78-11.431
			C397.05,338.939,395.513,311.867,394.063,307.339z"/>
	</g>
</g>
<g id="Layer_1">
</g>
</svg>
