<?xml version="1.0" encoding="utf-8"?>
<!-- Generator: Adobe Illustrator 26.0.0, SVG Export Plug-In . SVG Version: 6.00 Build 0)  -->
<svg version="1.1" xmlns="http://www.w3.org/2000/svg" xmlns:xlink="http://www.w3.org/1999/xlink" x="0px" y="0px"
	 viewBox="0 0 197.062 340.273" enable-background="new 0 0 197.062 340.273" xml:space="preserve">
<g id="candletree">
	<g>
		<rect x="26.39" y="62.927" fill="#DB7E27" width="3.491" height="14.798"/>
		<rect x="96.343" y="38.076" fill="#DB7E27" width="3.491" height="14.798"/>
		<rect x="166.297" y="63.746" fill="#DB7E27" width="3.491" height="14.798"/>
		<path fill="#FFFFFF" d="M38.6,79.877c0.159,6.126-0.073,104.879-0.536,120.19c-0.463,10.503-19.893,9.779-20.158-0.378
			c-0.364-19.165-0.403-96.113,0.027-118.56C17.906,73.802,38.489,74.502,38.6,79.877z"/>
		<path fill="#FFFFFF" d="M178.506,79.877c0.159,6.126-0.073,104.879-0.536,120.19c-0.463,10.503-19.893,9.779-20.158-0.378
			c-0.364-19.165-0.403-96.113,0.027-118.56C157.812,73.802,178.396,74.502,178.506,79.877z"/>
		<path fill="#FFFFFF" d="M108.553,54.2c0.159,6.126-0.073,104.879-0.536,120.19c-0.463,10.503-19.893,9.779-20.158-0.378
			c-0.364-19.165-0.403-96.113,0.027-118.56C87.859,48.125,108.443,48.825,108.553,54.2z"/>
		<path fill="#C10D26" d="M197.027,185.819h-58.3c-0.041,9.107,2.613,18.418,9.689,24.246c3.126,2.574,7.534,4.741,12.432,6.003
			c-0.426,7.797-2.553,18.471-9.938,27.307c-8.838,10.574-23.396,16.521-43.318,17.745v-70.646c4-1.295,7.563-3.18,10.208-5.358
			c7.076-5.827,9.73-15.139,9.689-24.246h-58.3c-0.214,4.784,0.549,9.934,2.686,15.28c4.002,10.014,11.632,14.609,19.779,15.813
			v69.168c-21.154-1.21-36.505-7.371-45.662-18.387c-7.082-8.517-9.254-18.631-9.747-26.194c4.885-1.264,9.28-3.427,12.399-5.995
			c7.077-5.827,9.73-15.139,9.689-24.246h-58.3c-0.214,4.784,0.549,9.934,2.686,15.28c3.637,9.101,10.272,13.727,17.567,15.4
			c0.569,10.113,3.453,23.822,13.31,35.775c12.222,14.82,31.745,22.968,58.058,24.317v33.195c-4.526,1.289-8.581,3.34-11.509,5.751
			c-7.076,5.827-9.73,15.139-9.689,24.246h58.3c0.214-4.784-0.549-9.934-2.686-15.28c-3.789-9.479-10.827-14.105-18.478-15.594
			v-32.33c25.053-1.364,43.775-9.281,55.678-23.632c10.202-12.299,13.039-26.605,13.537-36.946
			c7.282-1.679,13.902-6.305,17.534-15.393C196.478,195.753,197.241,190.603,197.027,185.819z"/>
		<g>
			<path fill="#F5E238" d="M28.475,75.771C16.163,75.66,8.802,68.738,8.854,57.319c0.055-12.144,19.281-31.641,19.281-31.641
				s19.251,20.29,19.281,31.772C47.446,68.744,40.073,75.876,28.475,75.771z"/>
			<path fill="#EDD036" d="M28.399,73.733c-9.589-0.086-15.323-5.479-15.282-14.372c0.043-9.459,6.386-15.834,15.656-15.737
				c8.173,0.086,14.356,6.895,14.379,15.838C43.176,68.259,37.434,73.814,28.399,73.733z"/>
			<path fill="#DB7E27" d="M28.321,71.735c-6.754-0.061-10.792-3.859-10.763-10.123c0.03-6.662,4.498-11.152,11.027-11.083
				c5.756,0.06,10.111,4.856,10.127,11.155C38.729,67.88,34.684,71.792,28.321,71.735z"/>
		</g>
		<g>
			<path fill="#F5E238" d="M168.381,75.771c-12.312-0.111-19.673-7.034-19.621-18.453c0.055-12.144,19.281-31.641,19.281-31.641
				s19.251,20.29,19.281,31.772C187.353,68.744,179.98,75.876,168.381,75.771z"/>
			<path fill="#EDD036" d="M168.306,73.733c-9.589-0.086-15.323-5.479-15.282-14.372c0.043-9.459,6.386-15.834,15.656-15.737
				c8.173,0.086,14.356,6.895,14.379,15.838C183.083,68.259,177.34,73.814,168.306,73.733z"/>
			<path fill="#DB7E27" d="M168.228,71.735c-6.754-0.061-10.792-3.859-10.763-10.123c0.03-6.662,4.498-11.152,11.027-11.083
				c5.756,0.06,10.111,4.856,10.127,11.155C178.635,67.88,174.591,71.792,168.228,71.735z"/>
		</g>
		<g>
			<path fill="#F5E238" d="M98.428,50.094c-12.312-0.111-19.673-7.034-19.621-18.453C78.863,19.498,98.088,0,98.088,0
				s19.251,20.29,19.281,31.772C117.4,43.067,110.027,50.199,98.428,50.094z"/>
			<path fill="#EDD036" d="M98.353,48.055c-9.589-0.086-15.323-5.479-15.282-14.372c0.043-9.459,6.386-15.834,15.656-15.737
				c8.173,0.086,14.356,6.895,14.379,15.838C113.129,42.582,107.387,48.137,98.353,48.055z"/>
			<path fill="#DB7E27" d="M98.275,46.057c-6.754-0.061-10.792-3.859-10.763-10.123c0.03-6.662,4.498-11.152,11.027-11.083
				c5.756,0.06,10.111,4.856,10.127,11.155C108.682,42.202,104.637,46.115,98.275,46.057z"/>
		</g>
	</g>
</g>
<g id="Layer_1">
</g>
</svg>
