<?xml version="1.0" encoding="utf-8"?>
<!-- Generator: Adobe Illustrator 26.0.3, SVG Export Plug-In . SVG Version: 6.00 Build 0)  -->
<svg version="1.1" xmlns="http://www.w3.org/2000/svg" xmlns:xlink="http://www.w3.org/1999/xlink" x="0px" y="0px"
	 viewBox="0 0 197.062 302.197" enable-background="new 0 0 197.062 302.197" xml:space="preserve">
<g id="candletree_x5F_1">
	<rect x="26.39" y="24.851" fill="#DB7E27" width="3.491" height="14.798"/>
	<rect x="96.343" y="0" fill="#DB7E27" width="3.491" height="14.798"/>
	<rect x="166.297" y="25.67" fill="#DB7E27" width="3.491" height="14.798"/>
	<path fill="#FFFFFF" d="M38.6,41.801c0.159,6.126-0.073,104.879-0.536,120.19c-0.463,10.503-19.893,9.779-20.158-0.378
		c-0.364-19.165-0.403-96.113,0.027-118.56C17.906,35.726,38.489,36.426,38.6,41.801z"/>
	<path fill="#FFFFFF" d="M178.506,41.801c0.159,6.126-0.073,104.879-0.536,120.19c-0.463,10.503-19.893,9.779-20.158-0.378
		c-0.364-19.165-0.403-96.113,0.027-118.56C157.812,35.726,178.396,36.426,178.506,41.801z"/>
	<path fill="#FFFFFF" d="M108.553,16.124c0.159,6.126-0.073,104.879-0.536,120.19c-0.463,10.503-19.893,9.779-20.158-0.378
		c-0.364-19.165-0.403-96.113,0.027-118.56C87.859,10.049,108.443,10.749,108.553,16.124z"/>
	<path fill="#C10D26" d="M197.027,147.743h-58.3c-0.041,9.107,2.613,18.418,9.689,24.246c3.126,2.574,7.534,4.741,12.432,6.003
		c-0.426,7.797-2.553,18.471-9.938,27.307c-8.838,10.574-23.396,16.521-43.318,17.745v-70.646c4-1.295,7.563-3.18,10.208-5.358
		c7.076-5.827,9.73-15.139,9.689-24.246h-58.3c-0.214,4.784,0.549,9.934,2.686,15.28c4.002,10.014,11.632,14.609,19.779,15.813
		v69.168c-21.154-1.21-36.505-7.371-45.662-18.387c-7.082-8.517-9.254-18.631-9.747-26.194c4.885-1.264,9.28-3.427,12.399-5.995
		c7.077-5.827,9.73-15.139,9.689-24.246h-58.3c-0.214,4.784,0.549,9.934,2.686,15.28c3.637,9.101,10.272,13.727,17.567,15.4
		c0.569,10.113,3.453,23.822,13.31,35.775c12.222,14.82,31.745,22.968,58.058,24.317V272.2c-4.526,1.289-8.581,3.34-11.509,5.751
		c-7.076,5.827-9.73,15.139-9.689,24.246h58.3c0.214-4.784-0.549-9.934-2.686-15.28c-3.789-9.479-10.827-14.105-18.478-15.594
		v-32.33c25.053-1.364,43.775-9.281,55.678-23.632c10.202-12.299,13.039-26.605,13.537-36.946
		c7.282-1.679,13.902-6.305,17.534-15.393C196.478,157.677,197.241,152.527,197.027,147.743z"/>
</g>
<g id="Layer_1">
</g>
</svg>
