<?xml version="1.0" encoding="utf-8"?>
<!-- Generator: Adobe Illustrator 25.0.0, SVG Export Plug-In . SVG Version: 6.00 Build 0)  -->
<svg version="1.1" xmlns="http://www.w3.org/2000/svg" xmlns:xlink="http://www.w3.org/1999/xlink" x="0px" y="0px"
	 viewBox="0 0 613.625 667.372" enable-background="new 0 0 613.625 667.372" xml:space="preserve">
<g id="cardboard_x5F_rocket">
	<g>
		<path fill="#935803" d="M133.231,417.523C54.129,485.743,0,579.64,0,579.64s119.1,27.081,145.386,30.265
			C145.386,609.905,137.047,414.232,133.231,417.523z"/>
		<path fill="#821F1B" d="M145.998,437.445C87.924,487.53,37.431,560.891,37.761,567.797c0.267,5.593,87.532,22.401,106.83,24.738
			C144.59,592.535,148.8,435.029,145.998,437.445z"/>
		<path fill="#821F1B" d="M499.254,145.784l-100.975,19.739L300.084,0L499.254,145.784z"/>
		<path fill="#935803" d="M442.817,126.079c1.875,0,56.437,19.705,56.437,19.705V635.61l-62.437,31.762L442.817,126.079z"/>
		<path fill="#C18C4D" d="M468.239,398.079c79.101,68.22,145.386,181.562,145.386,181.562s-119.1,27.081-145.386,30.265
			C468.239,609.905,464.423,394.788,468.239,398.079z"/>
		<path fill="#821F1B" d="M467.627,437.445C525.7,487.53,576.193,560.891,575.864,567.797c-0.267,5.593-88.532,22.401-107.83,24.738
			C468.034,592.535,464.825,435.029,467.627,437.445z"/>
		<polygon fill="#F1D2B3" points="466.665,456.779 448.035,457.102 448.035,475.935 466.675,472.985 		"/>
		<polygon fill="#BF7900" points="466.665,456.779 473.691,448.5 484.191,456.779 466.675,472.985 		"/>
		<polygon fill="#F1D2B3" points="467.094,505.827 448.465,506.15 448.465,519.983 467.104,522.033 		"/>
		<polygon fill="#BF7900" points="467.094,505.827 486.941,499.75 492.691,515.405 467.104,522.033 		"/>
		<polygon fill="#F1D2B3" points="467.409,560.698 449.779,559.021 449.779,576.854 468.419,574.904 		"/>
		<polygon fill="#BF7900" points="467.409,560.698 485.941,558.299 489.006,572.276 468.419,574.904 		"/>
		<path fill="#C18C4D" d="M111.817,129.079l5,531l321,7.293l5.795-541.293L111.817,129.079z M264.505,483.278
			c-74.926-1.897-123.227-44.569-123.978-127.058c-0.853-93.648,54.593-134.506,131.905-142.644
			c91.565-9.638,134.438,55.426,135.741,132.529C409.612,431.18,346.651,485.358,264.505,483.278z"/>
		<path fill="#FFD200" d="M302.093,561.909C302.093,561.909,302.093,561.909,302.093,561.909c-2.217-4.407-22.951-7.686-23.01-7.774
			l0,0l0,0c-14.625-30.853-13.514-22.981-29.161-0.785c-24.502,5.988-32.708,1.709-9.763,24.031
			c-2.594,28.744-5.935,32.502,22.345,19.408c0.008,0.004,19.279,11.124,23.312,7.901c0,0,0,0,0,0
			c3.379-2.341,0.421-25.359,0.418-25.386C286.233,579.303,302.093,568.824,302.093,561.909z"/>
		<path fill="#935803" d="M111.817,129.079C116.691,125,300.084,0,300.084,0l6.335,6.927l137.398,119.152L111.817,129.079z"/>
		<polygon fill="#F1D2B3" points="409.358,153.667 442.496,155 442.254,176.806 410.693,176 		"/>
		<polygon fill="#C18C4D" points="442.496,155 463.358,164.333 465.691,184.384 442.254,176.806 		"/>
		<polygon fill="#F1D2B3" points="414.65,233.125 441.788,231.458 441.547,253.264 409.985,252.458 		"/>
		<polygon fill="#C18C4D" points="441.788,231.458 462.65,220.791 464.983,240.842 441.547,253.264 		"/>
		<polygon fill="#F1D2B3" points="405.022,612.787 438.16,614.12 437.918,635.926 406.357,635.12 		"/>
		<polygon fill="#C18C4D" points="438.16,614.12 459.022,603.453 461.355,623.503 437.918,635.926 		"/>
		<polygon fill="#F1D2B3" points="110.417,175.587 139.191,179 139.191,197.5 110.417,199.5 		"/>
		<polygon fill="#F1D2B3" points="112.131,447.944 143.906,451.357 140.906,469.857 112.131,471.857 		"/>
		<polygon fill="#F1D2B3" points="114.343,533.761 152.118,535.175 143.118,555.675 114.343,557.675 		"/>
		<polygon fill="#F1D2B3" points="116.843,619.579 149.965,621.286 152.965,641.786 116.843,643.492 		"/>
		<path fill="#FFD200" d="M310.254,66.914C310.254,66.914,310.255,66.914,310.254,66.914c-1.595-2.902-15.585-4.596-15.627-4.654
			l0,0l0,0c-10.565-20.341-9.628-15.087-19.583,0.185c-16.291,4.616-21.901,1.945-5.963,16.36
			c-1.038,19.347-3.188,21.95,15.465,12.475c0.006,0.002,13.206,6.992,15.832,4.732c0,0,0,0,0,0
			c2.21-1.653-0.337-17.023-0.339-17.041C300.039,78.971,310.424,71.553,310.254,66.914z"/>
		<path fill="#FFD200" d="M219.483,170.959C219.483,170.959,219.483,170.959,219.483,170.959
			c-1.595-2.902-15.585-4.596-15.627-4.654l0,0l0,0c-10.565-20.341-9.628-15.087-19.583,0.185
			c-16.291,4.616-21.901,1.945-5.963,16.36c-1.038,19.347-3.188,21.95,15.465,12.475c0.006,0.002,13.206,6.992,15.832,4.732
			c0,0,0,0,0,0c2.21-1.653-0.337-17.023-0.339-17.041C209.268,183.015,219.652,175.598,219.483,170.959z"/>
		<path fill="#FFD200" d="M365.769,516.186C365.769,516.186,365.769,516.186,365.769,516.186
			c-1.595-2.902-15.585-4.596-15.627-4.654l0,0l0,0c-10.565-20.341-9.628-15.087-19.583,0.185
			c-16.291,4.616-21.901,1.945-5.963,16.36c-1.038,19.347-3.188,21.95,15.465,12.475c0.006,0.003,13.206,6.992,15.832,4.732
			c0,0,0,0,0,0c2.21-1.653-0.337-17.023-0.339-17.041C355.553,528.242,365.938,520.825,365.769,516.186z"/>
		<path fill="#FFD200" d="M223.518,516.186C223.518,516.186,223.519,516.186,223.518,516.186
			c-1.595-2.902-15.585-4.596-15.627-4.654l0,0l0,0c-10.565-20.341-9.628-15.087-19.583,0.185
			c-16.291,4.616-21.901,1.945-5.963,16.36c-1.038,19.347-3.188,21.95,15.465,12.475c0.006,0.003,13.206,6.992,15.832,4.732
			c0,0,0,0,0,0c2.21-1.653-0.337-17.023-0.339-17.041C213.303,528.242,223.688,520.825,223.518,516.186z"/>
		<path fill="#FFD200" d="M365.769,597.606C365.769,597.606,365.769,597.606,365.769,597.606
			c-1.595-2.902-15.585-4.596-15.627-4.654l0,0h0c-10.565-20.341-9.628-15.087-19.583,0.185c-16.291,4.616-21.901,1.945-5.963,16.36
			c-1.038,19.347-3.188,21.95,15.465,12.475c0.006,0.003,13.206,6.992,15.832,4.732c0,0,0,0,0,0
			c2.21-1.653-0.337-17.023-0.339-17.041C355.553,609.662,365.938,602.245,365.769,597.606z"/>
	</g>
</g>
<g id="Layer_1">
</g>
</svg>
