<?xml version="1.0" encoding="utf-8"?>
<!-- Generator: Adobe Illustrator 25.0.0, SVG Export Plug-In . SVG Version: 6.00 Build 0)  -->
<svg version="1.1" xmlns="http://www.w3.org/2000/svg" xmlns:xlink="http://www.w3.org/1999/xlink" x="0px" y="0px"
	 viewBox="0 0 242.656 199.985" enable-background="new 0 0 242.656 199.985" xml:space="preserve">
<g id="cardboard_x5F_car_x5F_horse_x5F_back">
	<path fill="#EB4238" d="M7.498,53.772c0,0,89.416-50.528,116.225-53.65s78.787,54.88,78.787,54.88l-11.602,3.179
		c0,0-45.638-52.228-65.374-52.395S24.318,55.002,24.318,55.002S5.788,52.908,7.498,53.772z"/>
	<path fill="#935803" d="M242.656,194.955l-48.118,3.511l1.333-146.153l21.149,2.075l25.635,14.657
		C242.656,69.046,242.656,194.955,242.656,194.955z"/>
	<path fill="#821F1B" d="M200.842,52.582l-3.792,145.801c-56.699,1.929-146.006,2.191-147.951,0.375
		c-0.045-0.058-0.09-0.123-0.134-0.195C41.567,196.521,0,174.2,0,174.2L7.498,53.772C7.498,53.772,155.093,49.87,200.842,52.582z"/>
</g>
<g id="Layer_1">
</g>
</svg>
