<?xml version="1.0" encoding="utf-8"?>
<!-- Generator: Adobe Illustrator 25.0.0, SVG Export Plug-In . SVG Version: 6.00 Build 0)  -->
<svg version="1.1" xmlns="http://www.w3.org/2000/svg" xmlns:xlink="http://www.w3.org/1999/xlink" x="0px" y="0px"
	 viewBox="0 0 320.387 199.508" enable-background="new 0 0 320.387 199.508" xml:space="preserve">
<g id="cardboard_x5F_box">
	<g>
		<path fill="#CCA172" d="M46.284,24.846c0,0-46.284,39.981-46.284,43.328s45.7-7.189,45.7-7.189L46.284,24.846z"/>
		<path fill="#CCA172" d="M46.284,24.846c0,0,24.274-15.367,36.297-20.768s181.107-5.474,187.442,0
			c6.335,5.474,9.361,143.158,5.325,159.752c-2.097,8.624-44.198,35.678-44.198,35.678L46.284,24.846z"/>
		<path fill="#E8CAAE" d="M270.023,4.079c0,0,50.364,42.486,50.364,47.209s-17.884,39.86-25.56,39.405
			c-7.676-0.454-66.339-65.846-66.339-65.846L270.023,4.079z"/>
		<path fill="#C18C4D" d="M46.284,24.846c1.061-1.802,36.297-20.768,36.297-20.768v37.93C82.581,42.009,45.223,26.649,46.284,24.846
			z"/>
		<path fill="#E8CAAE" d="M46.284,24.846h182.204l2.663,174.662l-184.866-3.461L46.284,24.846z"/>
		<path fill="#CCA172" d="M98.537,64.789l66.359,0.936l1.065,19.067l-68.249-2.553L98.537,64.789z"/>
	</g>
</g>
<g id="Layer_1">
</g>
</svg>
