<?xml version="1.0" encoding="utf-8"?>
<!-- Generator: Adobe Illustrator 25.0.0, SVG Export Plug-In . SVG Version: 6.00 Build 0)  -->
<svg version="1.1" xmlns="http://www.w3.org/2000/svg" xmlns:xlink="http://www.w3.org/1999/xlink" x="0px" y="0px"
	 viewBox="0 0 194.246 126.755" enable-background="new 0 0 194.246 126.755" xml:space="preserve">
<g id="cardboard_x5F_cookie_x5F_box">
	<g>
		<path fill="#821F1B" d="M154.525,126.755c0,0,6.079-12.516,11.033-22.717c1.331-2.74,0-100.705,0-100.705L18.955,0L0,16.59
			L154.525,126.755z"/>
		<path fill="#CCA172" d="M154.525,18.256l14.482-9.47l-2.341,95.806l-12.141,22.163V18.256z"/>
		<path fill="#FF4035" d="M154.525,126.755V18.256L0,16.59l1.839,110.165H154.525z"/>
		<path fill="#C30D26" d="M165.558,3.333l28.688,32.715l-12.408,19.227l-27.313-37.018L165.558,3.333z"/>
		<path fill="#E8CAAE" d="M194.246,92.854l-27.58,11.738l-12.141,22.163l36.873-10.33L194.246,92.854z"/>
		<path fill="#E8CAAE" d="M65.065,96.704C60.107,98.458,1.201,78.966,13.76,54.103c7.262-14.376,24.671-12.83,33.537-2.544
			c0,0,6.101-25.366,26.113-20.012C95.476,37.45,74.587,93.336,65.065,96.704z"/>
		<path fill="#E8CAAE" d="M106.091,116.367c-3.863-0.778-34.247-35.951-16.616-47.111c10.195-6.453,20.794,1.233,22.542,11.254
			c0,0,13.672-13.965,24.482-2.831C148.419,89.954,113.509,117.861,106.091,116.367z"/>
		<path fill="#D47A00" d="M106.187,111.299c-2.74-0.552-24.293-25.502-11.787-33.418c7.232-4.577,14.75,0.875,15.99,7.983
			c0,0,9.698-9.906,17.366-2.008C136.213,92.563,111.449,112.359,106.187,111.299z"/>
		<path fill="#D47A00" d="M63.402,92.775c-3.701,1.309-47.668-13.24-38.294-31.797c5.42-10.73,18.414-9.576,25.032-1.899
			c0,0,4.554-18.933,19.491-14.937C86.101,48.548,70.51,90.261,63.402,92.775z"/>
	</g>
</g>
<g id="Layer_1">
</g>
</svg>
