<?xml version="1.0" encoding="utf-8"?>
<!-- Generator: Adobe Illustrator 25.0.0, SVG Export Plug-In . SVG Version: 6.00 Build 0)  -->
<svg version="1.1" xmlns="http://www.w3.org/2000/svg" xmlns:xlink="http://www.w3.org/1999/xlink" x="0px" y="0px"
	 viewBox="0 0 400.032 232.339" enable-background="new 0 0 400.032 232.339" xml:space="preserve">
<g id="cardboard_x5F_car_x5F_front">
	<path fill="#935803" d="M400.032,114.933l-8.769,61.206c-32.316,1.099-74.878,4.729-75.986,3.694
		c-0.026-0.033-0.051-0.07-0.076-0.111c-4.217-1.164,7.66-82.19,8.363-82.131c7.585-1.284,7.4,0.755,31.374,0.719
		C367.734,98.291,400.032,114.933,400.032,114.933z"/>
	<path fill="#BF7900" d="M99.782,43.848l46.095,16.19l-3.424,129.292L92.26,164.688L99.782,43.848z"/>
	<path fill="#935803" d="M140.753,106.317L33.208,164.219L0,95.253c0,0,62.446-8.221,90.32-8.263
		C105.2,86.967,140.753,106.317,140.753,106.317z"/>
	<path fill="#BF7900" d="M0,95.253l46.927,22.637l-2.882,75.682l-42.65-26.331L0,95.253z"/>
	<path fill="#FF4035" d="M144.166,59.174c0,0,88.066-55.938,114.876-59.06s76.705,59.06,76.705,59.06l-12.183,4.994
		c0,0-42.975-58.222-62.71-58.389S158.722,60.402,158.722,60.402S142.456,58.309,144.166,59.174z"/>
	<path fill="#C18C4D" d="M400.031,114.933c-1.885,0-37.235-0.232-61.298-0.392c-1.115-28.79-2.986-55.367-2.986-55.367
		c-5.04,0-191.581,0-191.581,0s-1.509,21.613-2.822,47.247c-12.213,1.105-95.55,10.897-95.55,10.897l-1.749,76.254
		c0,0,344.287-15.72,347.218-17.433L400.031,114.933z"/>
	<polygon fill="#F1D2B3" points="69.95,127.066 67.046,114.971 76.889,113.35 79.03,127.634 	"/>
	<polygon fill="#C18C4D" points="67.046,114.971 60.585,106.419 69.433,103.777 76.889,113.35 	"/>
	<polygon fill="#F1D2B3" points="108.886,122.679 108.815,111.229 118.658,109.608 116.992,123.504 	"/>
	<polygon fill="#C18C4D" points="108.815,111.229 102.354,102.676 112.202,101.034 118.658,109.608 	"/>
	<polygon fill="#F1D2B3" points="360.799,127.855 363.703,115.761 353.86,114.14 351.719,128.423 	"/>
	<polygon fill="#C18C4D" points="363.703,115.761 370.164,107.208 361.316,104.566 353.86,114.14 	"/>
	<path fill="#F1D2B3" d="M41.294,137.98c0.345,5.094-2.647,10.666-8.19,10.551c-9.21-0.19-11.399-11.294-4.89-16.679
		C33.201,128.449,40.792,132.464,41.294,137.98z"/>
	<path fill="#F1D2B3" d="M20.245,127.572c0.345,5.094-2.647,10.666-8.19,10.551c-9.21-0.19-11.399-11.294-4.89-16.679
		C12.153,118.042,19.743,122.056,20.245,127.572z"/>
	<path fill="#935803" d="M137.986,147.071c25.68-7.224,57.378,2.104,62.733,30.573c8.896,47.299-45.539,70.394-80.048,42.88
		C97.927,198.669,110.32,155.555,137.986,147.071z"/>
	<path fill="#BF7900" d="M147.417,169.141c12.012-3.379,26.839,0.984,29.343,14.301c4.161,22.124-21.301,32.927-37.442,20.057
		C128.68,193.276,134.476,173.109,147.417,169.141z"/>
	<path fill="#935803" d="M293.971,138.945c25.68-7.224,57.378,2.104,62.733,30.573c8.896,47.299-45.539,70.394-80.048,42.88
		C253.913,190.542,266.306,147.429,293.971,138.945z"/>
	<path fill="#BF7900" d="M303.402,161.015c12.012-3.379,26.839,0.984,29.343,14.3c4.161,22.124-21.301,32.927-37.442,20.057
		C284.665,185.149,290.462,164.983,303.402,161.015z"/>
	<path fill="#935803" d="M239.492,59.174l-9.636,130.848l8.29,0.54l13.999-131.388L239.492,59.174z"/>
	<polygon fill="#935803" points="190.641,127.753 218.618,125.48 220.163,138.487 190.641,138.421 	"/>
</g>
<g id="Layer_1">
</g>
</svg>
