<?xml version="1.0" encoding="utf-8"?>
<!-- Generator: Adobe Illustrator 25.0.0, SVG Export Plug-In . SVG Version: 6.00 Build 0)  -->
<svg version="1.1" xmlns="http://www.w3.org/2000/svg" xmlns:xlink="http://www.w3.org/1999/xlink" x="0px" y="0px"
	 viewBox="0 0 393.788 299.607" enable-background="new 0 0 393.788 299.607" xml:space="preserve">
<g id="cardboard_x5F_helmet_x5F_front">
	<path fill="#821F1B" d="M55.381,150.151c1.684-11.444-2.767-26.307-9.969-38.312c6.553-3.572,11.976-8.286,14.605-13.922
		c3.776-8.096,4.371-18.082,2.773-27.831c9.688-1.515,17.483-5.482,22.334-11.46c4.266-5.258,7.476-11.654,9.498-18.261
		c5.974,2.144,11.924,3.795,17.169,4.762c1.481,4.211,4.112,7.731,7.868,10.512c18.24,13.512,57.34,4.41,58.995,4.016l-1.389-5.838
		c-0.378,0.09-38.041,8.854-54.04-3.002c-1.833-1.358-3.29-2.927-4.381-4.726c10.486,0.867,17.27-1.456,19.788-6.835
		c3.243-6.927,2.105-14.441-2.969-19.613c-4.507-4.592-11.015-6.125-16.194-3.819c-3.792,1.689-10.011,6.84-9.044,22.347
		c0.012,0.194,0.026,0.388,0.042,0.58c-4.77-1.015-9.66-2.455-14.389-4.168c2.102-10.584,1.096-21.021-3.554-27.572
		c-2.863-4.035-9.691-10.074-23.297-5.183c-9.301,3.346-10.894,8.309-10.593,11.884c0.745,8.829,14.877,18.12,30.316,24.475
		c-1.802,6.073-4.688,11.978-8.488,16.662c-4.286,5.283-11.284,8.227-18.908,9.355c-3.547-13.883-11.291-26.356-20.194-30.9
		c-3.823-1.948-13.529-5.021-21.071,8.556c-4.509,8.116-2.274,16.028,6.13,21.709c7.23,4.888,18.695,7.616,29.903,7.15
		c0.158-0.007,0.314-0.015,0.472-0.022c1.523,8.579,1.17,17.433-2.214,24.686c-2.105,4.513-6.742,8.429-12.45,11.455
		c-5.431-7.572-11.924-13.377-18.394-15.399c-5.231-1.635-15.076-2.216-22.245,12.254c-2.483,5.014-1.406,8.429-0.064,10.41
		c2.789,4.122,9.423,5.99,18.683,5.252c6.337-0.503,13.39-2.196,19.863-4.909c6.635,10.958,10.952,24.77,9.473,34.835
		L55.381,150.151z M36.584,109.375c-5.503,2.164-11.487,3.563-16.949,3.997c-8.027,0.638-12.147-1.021-13.239-2.635
		c-0.651-0.962-0.492-2.437,0.473-4.383c4.014-8.103,8.949-11.106,15.078-9.191C26.948,98.727,32.097,103.309,36.584,109.375z
		 M55.425,64.724c-9.801,0.257-19.73-2.129-25.647-6.128c-5.753-3.889-7.181-8.539-4.245-13.824c5.544-9.98,11.23-7.078,13.1-6.125
		C45.264,42.031,52.032,52.627,55.425,64.724z M124.607,20.749c2.319,0,4.812,1.095,6.774,3.096
		c3.325,3.388,4.005,8.197,1.818,12.865c-1.461,3.118-7.687,4.245-16.569,3.106c-0.101-0.653-0.173-1.326-0.216-2.021
		c-0.541-8.684,1.463-14.695,5.497-16.492C122.751,20.929,123.665,20.749,124.607,20.749z M78.676,5.993
		c3.837,0,6.835,1.499,8.957,4.488c3.517,4.954,4.258,13.238,2.71,21.856c-13.953-5.868-25.27-13.716-25.727-19.132
		c-0.227-2.682,3.488-4.598,6.645-5.732C74.003,6.486,76.477,5.993,78.676,5.993z"/>
	<path fill="#821F1B" d="M33.174,207.644l12.892,7.376h35.575L46.71,176.377L33.174,207.644z"/>
	<path fill="#935803" d="M33.174,207.644h53.715l0.946-62.036l-52.66,2.229L33.174,207.644z"/>
	<path fill="#935803" d="M319.132,299.308c-10.472,3.547-51.303-25.674-51.303-25.674s-1.129-205.03,3.811-205.03
		s45.573,32.144,55.864,39.077C337.796,114.615,329.604,295.761,319.132,299.308z"/>
	<path fill="#C1A174" d="M154.459,83.408c0,0,8.601,5.504,12.892,7.376c2.627,1.147,55.576,2.272,55.575,0
		c0-1.106-1.268-56.109-1.448-57.228c-0.5-3.112-12.359-12.184-12.359-12.184L154.459,83.408z"/>
	<path fill="#935803" d="M154.459,83.408h53.715l0.946-62.036l-52.66,2.229L154.459,83.408z"/>
	<path fill="#821F1B" d="M223.467,32.556c0.261-0.75-14.348-11.184-14.348-11.184l-0.946,62.036l14.752,7.376L223.467,32.556z"/>
	<path fill="#821F1B" d="M335.237,161.835c0.199-9.167,6.058-21.184,14.269-30.908c10.388,6.817,24.155,9.515,33.314,7.173
		c8.457-2.16,12.385-8.209,10.507-16.181c-2.325-9.872-8.924-14.985-18.109-14.013c-8.269,0.87-18.068,6.685-26.49,14.996
		c-3.289-2.973-5.791-6.553-6.924-10.666c-2.067-7.501-1.912-16.153-0.234-24.671c13.439-0.192,27.627-5.531,36.526-12.522
		c9.705-7.623,12.714-16.767,8.047-24.458c-7.687-12.672-17.262-10.93-22.281-8.764c-11.147,4.807-22.11,21.363-26.965,39.6
		c-6.519-0.603-12.499-2.803-16.892-7.187c-7.48-7.467-11.443-15.994-13.025-24.336c10.028-0.589,18.908-3.964,25.244-9.645
		c8.238-7.385,11.156-17.646,7.436-26.143c-4.52-10.318-10.615-12.525-14.998-12.525c-0.06,0-0.119,0-0.18,0.001
		c-7.785,0.106-15.823,7.588-20.477,19.059c-2.622,6.464-4.234,14.585-3.78,23.209c-5.695-0.375-12.016-1.656-18.913-4.097
		c0.439-1.677,0.749-3.45,0.927-5.319c0.768-8.067,1.153-27.169-11.818-30.305c-7.403-1.789-16.312,3.371-19.46,11.267
		c-1.2,3.007-4.065,13.423,9.428,21.183c4.458,2.563,8.843,4.763,13.146,6.596c-1.438,2.531-3.421,4.615-5.97,6.289
		c-16.818,11.042-51.638-0.066-51.988-0.181l-1.854,5.706c1.537,0.502,37.898,12.113,57.129-0.506
		c3.608-2.367,6.384-5.412,8.312-9.105c7.534,2.688,14.795,4.207,21.727,4.54c1.631,9.76,6.108,19.805,14.879,28.559
		c5.275,5.266,12.261,7.979,19.794,8.809c-1.717,9.101-1.8,18.347,0.458,26.541c1.438,5.218,4.568,9.708,8.657,13.39
		c-8.725,10.033-15.18,22.631-15.437,34.484L335.237,161.835z M377.407,113.788c5.272,0,8.576,3.124,10.08,9.506
		c0.407,1.731,1.648,7-6.152,8.993c-7.482,1.912-18.993-0.29-27.782-5.771c6.848-6.85,14.785-11.853,22.293-12.643
		C376.384,113.816,376.904,113.788,377.407,113.788z M370.778,46.303c3.859,0,7.235,2.449,10.235,7.393
		c4.084,6.732-2.397,13.309-6.624,16.629c-7.555,5.934-19.786,10.665-31.378,11.217c4.465-15.85,13.781-30.14,23.225-34.212
		C367.821,46.647,369.334,46.303,370.778,46.303z M324.655,7.585c4.622,0,7.719,4.85,9.508,8.933
		c2.663,6.08,0.33,13.644-5.945,19.269c-4.941,4.43-12.374,7.655-21.984,8.127c-0.478-7.807,0.963-15.173,3.332-21.013
		c3.687-9.088,9.714-15.242,14.999-15.315C324.594,7.585,324.625,7.585,324.655,7.585z M267.341,9.773
		c0.571,0,1.13,0.062,1.669,0.192c5.833,1.41,8.546,10.347,7.256,23.904c-0.123,1.295-0.319,2.523-0.588,3.688
		c-3.935-1.68-8.037-3.725-12.3-6.176c-6.469-3.721-8.9-8.606-6.846-13.759C258.321,13.138,263.143,9.773,267.341,9.773z"/>
	<path fill="#C18C4D" d="M56.507,74.654c9.049-7.535,213.048-10.197,216.164-6.051c6.593,11.968-2.938,206.4-2.938,206.4
		s-207.618,0-213.227,0C56.507,275.004,46.999,82.572,56.507,74.654z M164.053,252.589c38.699,1.51,66.774-25.613,67.163-68.237
		c0.441-48.39-31.827-69.502-71.775-73.707c-47.313-4.98-66.847,28.77-70.14,68.48C85.813,221.179,117.439,250.77,164.053,252.589z"
		/>
	<path fill="#821F1B" d="M292.642,211.751l12.892,7.376h55.575l-26.362-46.03L292.642,211.751z"/>
	<path fill="#C18C4D" d="M292.642,211.751h53.715l0.946-62.036l-52.66,2.229L292.642,211.751z"/>
	<path fill="#935803" d="M361.65,160.899c0.261-0.75-14.348-11.184-14.348-11.184l-0.946,62.036l14.752,7.376L361.65,160.899z"/>
	<polygon fill="#F1D2B3" points="251.431,121.436 274.969,129.764 274.994,105.973 252.245,107.929 	"/>
	<polygon fill="#C18C4D" points="274.969,129.764 297.504,125.957 300.034,110.155 274.992,105.551 	"/>
	<polygon fill="#BF7900" points="294.344,176.266 280.411,172.303 280.411,157.296 294.354,160.06 	"/>
	<polygon fill="#935803" points="294.344,176.266 311.911,173.399 310.161,160.06 294.354,160.06 	"/>
	<polygon fill="#BF7900" points="292.537,204.244 278.604,204.281 278.604,189.274 292.548,192.038 	"/>
	<polygon fill="#935803" points="292.537,204.244 310.104,205.377 308.354,192.038 292.548,192.038 	"/>
	<polygon fill="#F1D2B3" points="250.215,256.027 273.972,262.684 274.678,240.061 251.247,238.893 	"/>
	<polygon fill="#C18C4D" points="273.056,262.69 297.193,257.119 299.723,241.317 274.678,240.061 	"/>
</g>
<g id="Layer_1">
</g>
</svg>
