<?xml version="1.0" encoding="utf-8"?>
<!-- Generator: Adobe Illustrator 27.0.0, SVG Export Plug-In . SVG Version: 6.00 Build 0)  -->
<svg version="1.1" xmlns="http://www.w3.org/2000/svg" xmlns:xlink="http://www.w3.org/1999/xlink" x="0px" y="0px"
	 viewBox="0 0 588.83 538.666" enable-background="new 0 0 588.83 538.666" xml:space="preserve">
<g id="carousel_x5F_horse_x5F_yellow">
	<g>
		<path fill="#F9D214" d="M96.494,63.742c-0.527-1.925-3.463-18.304,6.315-37.332c6.779-13.193,16.11-25.724,19.236-26.391
			c5.679-1.212,27.951,55.247,26.17,57.805C146.434,60.383,97.021,65.667,96.494,63.742z"/>
		<path fill="#EB4238" d="M102.738,63.714c-0.391-1.428-2.569-13.579,4.685-27.696c5.029-9.788,11.952-19.084,14.27-19.579
			c4.213-0.899,20.736,40.986,19.415,42.884C139.787,61.222,103.129,65.142,102.738,63.714z"/>
		<path fill="#3F749A" d="M207.488,87.74c0,0,9.996-10.516,26.273-13.203c12.709-2.098,16.972,9.181,12.598,17.638
			c-3.407,6.588-21.658,23.773-21.658,23.773L207.488,87.74z"/>
		<path fill="#3F749A" d="M219.653,117.39c0,0,10.413-10.954,27.368-13.753c13.239-2.186,17.679,9.563,13.124,18.373
			c-3.549,6.863-22.562,24.764-22.562,24.764L219.653,117.39z"/>
		<path fill="#3F749A" d="M228.058,151.823c0,0,10.413-10.954,27.368-13.753c13.239-2.186,17.679,9.563,13.124,18.373
			c-3.549,6.863-22.562,24.764-22.562,24.764L228.058,151.823z"/>
		<path fill="#3F749A" d="M177.628,63.494c0,0,8.621-13.282,27.28-16.362c14.569-2.405,21.155,13.726,16.141,23.421
			c-3.906,7.553-21.662,28.601-21.662,28.601L177.628,63.494z"/>
		<path fill="#3F749A" d="M475.43,262.31c-2.579-0.35,11.271-2.856,16.635,36.794c4.382,32.393,14.823,64.555,44.621,71.751
			c29.798,7.196,45.088-13.598,50.805-12.798c5.717,0.801-5.947,69.869-53.259,71.306c-44.333,1.347-66.462-28.655-71.11-55.91
			C452.355,310.313,475.43,262.31,475.43,262.31z"/>
		<path fill="#54BDCF" d="M518.44,388.857c-26.206-9.716-34.209-71.3-38.058-95.622c-2.351-14.855-5.514-20.632-8.143-23.058
			c-0.995,2.698-2.133,6.031-3.318,9.972c0.442,8.701,0.903,20.56,0.75,30.128c-0.277,17.294,2.27,66.425,20.998,88.006
			c18.729,21.581,39.639,16.018,58.516,10.599c11.727-3.366,24.888-12.594,33.181-19.105c2.485-6.028,4.191-11.887,5.227-16.91
			C571.84,381.876,541.395,397.367,518.44,388.857z"/>
		<path fill="#FDA519" d="M207.489,358.632c-5.456,4.463-82.663,82.771-82.663,82.771l10.637,12.741l96.265-61.496L207.489,358.632z
			"/>
		<path fill="#FDA519" d="M188.237,332.064c-6.207,3.338-96.935,65.44-96.935,65.44l8.01,14.54l106.227-41.956L188.237,332.064z"/>
		<path fill="#FDA519" d="M394.408,386.219c5.322,4.621,95.555,67.443,95.555,67.443l10.73-12.663l-76.931-84.484L394.408,386.219z"
			/>
		<path fill="#FDA519" d="M371.926,410.227c4.378,5.526,81.461,83.957,81.461,83.957l12.882-10.46l-60.011-97.26L371.926,410.227z"
			/>
		<path fill="#F9D214" d="M138.482,57.117c0.276-1.977,4.051-18.183,20.548-31.789c11.439-9.434,24.959-17.249,28.093-16.624
			c5.695,1.135,3.846,61.809,1.201,63.454C185.678,73.803,138.206,59.094,138.482,57.117z"/>
		<path fill="#EB4238" d="M142.292,60.315c0.188-1.348,2.763-12.403,14.016-21.684c7.803-6.435,17.025-11.766,19.163-11.34
			c3.884,0.774,2.624,42.162,0.819,43.284C174.486,71.697,142.103,61.663,142.292,60.315z"/>
		<path fill="#F9D214" d="M121.183,53.889c-29.532,6.748-78.106,50.635-90.383,64.738c-19.918,22.881-46.602,74.105-18.881,100.548
			c16.344,15.591,42.281,11.637,49.136,2.923c0,0,3.185,11.341,16.101,11.452c24.533,0.21,30.56-27.352,52.425-46.674
			c16.538-14.614,36.987,0.424,37.365,26.757c0.402,27.945-5.258,111.007,27.355,158.457
			c43.837,63.78,122.676,59.981,136.819,58.258c31.251-3.809,71.511-19.01,102.635-60.201
			c38.094-50.418,44.387-107.457,42.434-107.731c-96.759-13.548-166.018,2.423-207.309-45.376
			c-16.637-19.259-27.885-92.679-53.133-125.237C201.217,73.067,170.172,42.694,121.183,53.889z"/>
		<path fill="#3F749A" d="M72.987,98.031c4.739,0.664,52.569-29.822,64.306-36.79c1.854-1.1,7.978-7.204,7.978-7.204
			s-31.515-23.11-59.509-20.425c-38.984,3.739-53.96,23.079-54.347,25.847S68.248,97.367,72.987,98.031z"/>
		<path fill="#3F749A" d="M128.334,437.847c2.803,0.377-47.873,8.596-47.873,8.596l30.502,27.11c0,0,31.509-23.885,30.031-22.941
			S128.334,437.847,128.334,437.847z"/>
		<path fill="#3F749A" d="M95.425,394.684c2.679,0.906-48.632-0.716-48.632-0.716L71.56,426.41c0,0,35.486-17.421,33.856-16.777
			C103.785,410.278,95.425,394.684,95.425,394.684z"/>
		<path fill="#3F749A" d="M485.865,450.806c-0.106-2.829,16.616,45.76,16.616,45.76l21.489-34.706c0,0-28.879-27.013-27.698-25.716
			C497.454,437.441,485.865,450.806,485.865,450.806z"/>
		<path fill="#3F749A" d="M449.886,490.621c0.418-2.8,7.883,48.045,7.883,48.045l27.525-30.133c0,0-23.395-31.89-22.474-30.397
			C463.742,479.629,449.886,490.621,449.886,490.621z"/>
		<path fill="#EB4238" d="M321.112,332.177c-2.823,20.201-10.096,72.256-13.772,98.565c10.967,0.546,19.277-0.044,23.022-0.501
			c3.623-0.442,7.378-1.055,11.215-1.826l11.09-90.754C343.112,337.565,332.515,336.02,321.112,332.177z"/>
		<path fill="#FDA519" d="M232.23,123.886l-80.707,59.656c5.042,2.845,9.284,8.048,11.891,14.942
			c15.633-7.845,63.847-32.075,80.777-40.989C240.515,146.195,236.6,134.643,232.23,123.886z"/>
		<path fill="#FDA519" d="M30.042,118.521c-0.489,0.562-0.996,1.215-1.492,1.81l86.815,81.263c2.075-2.708,4.285-5.415,6.68-8.061
			c-16.603-18.148-61.505-67.353-79.182-87.945C37.254,110.847,32.738,115.424,30.042,118.521z"/>
		<path fill="#E8E9E9" d="M433.367,257.867c-5.757,22.064-18.113,41.988-38.742,50.756c-13.03,5.538-46.777,20.396-89.146-5.854
			c-27.393-16.972-27.398-51.172-23.983-73.24c-3.125-2.389-6.134-5.007-9.012-7.905c-4.858,17.514-16.827,74.38,24.059,99.079
			c8.531,5.154,16.731,8.833,24.57,11.475c11.403,3.843,22,5.389,31.555,5.485c21.327,0.216,37.506-6.556,45.988-10.027
			c27.547-11.271,42.115-39.511,46.768-68.753C441.352,258.51,437.327,258.169,433.367,257.867z"/>
		<path fill="#EB4238" d="M281.496,229.528c-3.415,22.068-3.41,56.269,23.983,73.24c42.368,26.249,76.115,11.392,89.146,5.854
			c20.629-8.768,32.986-28.692,38.742-50.756C367.268,252.824,316.582,256.347,281.496,229.528z"/>
		<path fill="#54BDCF" d="M39.778,49.991L84.81,92.702c2.798-1.532,5.911-3.304,9.234-5.244L52.303,42.304
			C47.071,44.797,42.947,47.479,39.778,49.991z"/>
		<path fill="#54BDCF" d="M63.993,37.814l37.016,45.529c2.971-1.776,5.975-3.59,8.963-5.409L80.677,34.189
			C74.455,35.049,68.914,36.302,63.993,37.814z"/>
		<path fill="#54BDCF" d="M93.684,33.5c7.573,10.83,21.229,31.375,25.959,38.512c4.495-2.766,8.62-5.317,11.946-7.359
			l-16.961-26.617C108,35.683,100.847,33.932,93.684,33.5z"/>
		<path fill="#FFFFFF" d="M119.3,82.576c25.023-22.048,56.569,12.196,35.044,35.499C129.983,138.129,96.943,108.266,119.3,82.576z"
			/>
		<path fill="#4B4B4A" d="M129.671,88.762c13.158-12.174,31.056,6.97,19.112,19.358C135.824,119.292,117.34,102.229,129.671,88.762z
			"/>
		<path fill="#EB4238" d="M108.856,137.693c22.93-20.41,52.341,11.347,32.376,32.797
			C118.827,189.109,88.157,161.213,108.856,137.693z"/>
		<path fill="#FFFFFF" d="M23.454,184.081c1.47-1.595,3.584-2.229,5.411-2.472c3.821-0.507,7.276,1.143,9.104,4.632
			c0.871,1.662,1.387,3.641,1.136,5.51c-0.358,2.661-0.764,4.005-2.538,5.613c-2.711,2.458-5.901,3.029-9.904,1.723
			c-4.285-1.398-6.431-5.154-5.851-9.304C21.095,187.76,22.183,185.459,23.454,184.081z"/>
		<path fill="#FDA519" d="M185.354,226.701c14.317-13.248,33.787,7.586,20.793,21.064
			C192.046,259.922,171.939,241.353,185.354,226.701z"/>
		<path fill="#FDA519" d="M199.41,265.367c28.967-4.31,35.901,36.449,8.74,43.145C180.539,311.667,170.579,273.334,199.41,265.367z"
			/>
		<path fill="#FDA519" d="M241.66,348.421c26.896-4.118,33.446,34.05,8.141,40.192C224.081,391.551,214.803,355.843,241.66,348.421z
			"/>
		<path fill="#FDA519" d="M217.791,316.058c27.306-2.588,26.985,28.059,3.553,30.342
			C196.481,347.714,193.959,318.917,217.791,316.058z"/>
		<path fill="#FDA519" d="M303.423,393.864c-8.962,25.952-36.691,12.959-29.058-9.334
			C283.472,361.332,310.698,370.968,303.423,393.864z"/>
		<path fill="#FDA519" d="M401.958,353.116c14.317-13.248,33.787,7.586,20.793,21.064
			C408.649,386.336,388.542,367.768,401.958,353.116z"/>
		<path fill="#FDA519" d="M361.412,373.167c16.849-15.312,39.165,8.643,24.157,24.472
			C368.979,411.628,345.912,390.497,361.412,373.167z"/>
		<path fill="#EB4238" d="M6.121,212.117c0.684-0.95,9.38,12.366,31.091,12.038c42.996-0.65,35.057-45.546,35.057-45.546
			s8.356,14.838,1.441,32.139c-7.214,18.049-16.964,22.274-36.374,21.049C17.926,230.572,5.436,213.068,6.121,212.117z"/>
	</g>
</g>
<g id="Layer_1">
</g>
</svg>
