<?xml version="1.0" encoding="utf-8"?>
<!-- Generator: Adobe Illustrator 24.2.3, SVG Export Plug-In . SVG Version: 6.00 Build 0)  -->
<svg version="1.1" xmlns="http://www.w3.org/2000/svg" xmlns:xlink="http://www.w3.org/1999/xlink" x="0px" y="0px"
	 viewBox="0 0 588.829 538.666" enable-background="new 0 0 588.829 538.666" xml:space="preserve">
<g id="carousel_x5F_horse_x5F_blue">
	<path fill="#80D8E2" d="M96.673,63.667c-0.525-1.925-3.443-18.295,6.361-37.298c6.796-13.176,16.145-25.686,19.273-26.35
		c5.682-1.204,27.896,55.24,26.112,57.795C146.634,60.367,97.197,65.59,96.673,63.667z"/>
	<path fill="#54BDCF" d="M102.919,63.645c-0.39-1.428-2.554-13.573,4.719-27.67c5.043-9.774,11.978-19.056,14.298-19.547
		c4.216-0.893,20.694,40.98,19.372,42.875C139.985,61.199,103.308,65.073,102.919,63.645z"/>
	<path fill="#3F749A" d="M207.677,87.776c0,0,10.012-10.496,26.297-13.163c12.715-2.081,16.966,9.193,12.582,17.64
		c-3.416,6.58-21.693,23.731-21.693,23.731L207.677,87.776z"/>
	<path fill="#3F749A" d="M219.811,117.419c0,0,10.429-10.934,27.393-13.712c13.247-2.169,17.674,9.577,13.106,18.375
		c-3.558,6.854-22.598,24.72-22.598,24.72L219.811,117.419z"/>
	<path fill="#3F749A" d="M228.179,151.836c0,0,10.429-10.934,27.393-13.712c13.247-2.169,17.674,9.577,13.106,18.375
		c-3.558,6.854-22.598,24.72-22.598,24.72L228.179,151.836z"/>
	<path fill="#3F749A" d="M177.835,63.513c0,0,8.639-13.262,27.308-16.319c14.578-2.386,21.147,13.741,16.119,23.424
		c-3.915,7.542-21.703,28.555-21.703,28.555L177.835,63.513z"/>
	<path fill="#3F749A" d="M475.508,262.532c-2.58-0.353,11.278-2.841,16.598,36.787c4.346,32.374,14.752,64.525,44.553,71.75
		c29.8,7.225,45.119-13.536,50.838-12.73c5.718,0.807-6.03,69.812-53.36,71.192c-44.35,1.293-66.452-28.711-71.07-55.952
		C452.368,310.473,475.508,262.532,475.508,262.532z"/>
	<path fill="#54BDCF" d="M518.384,389.037c-26.203-9.739-34.138-71.289-37.96-95.597c-2.335-14.846-5.493-20.624-8.118-23.051
		c-0.999,2.695-2.14,6.024-3.331,9.961c0.432,8.695,0.88,20.546,0.715,30.107c-0.297,17.281,2.193,66.379,20.903,87.966
		c18.71,21.587,39.634,16.052,58.524,10.659c11.735-3.35,24.911-12.556,33.214-19.052c2.492-6.02,4.206-11.873,5.249-16.892
		C571.811,382.124,541.338,397.568,518.384,389.037z"/>
	<path fill="#54BDCF" d="M207.362,358.471c-5.463,4.454-82.788,82.614-82.788,82.614l10.626,12.744l96.37-61.339L207.362,358.471z"
		/>
	<path fill="#54BDCF" d="M188.134,331.9c-6.212,3.328-97.044,65.28-97.044,65.28l7.996,14.539l106.312-41.802L188.134,331.9z"/>
	<path fill="#54BDCF" d="M394.313,386.256c5.318,4.624,95.51,67.505,95.51,67.505l10.748-12.641l-76.859-84.513L394.313,386.256z"/>
	<path fill="#54BDCF" d="M371.795,410.221c4.372,5.528,81.39,83.991,81.39,83.991l12.899-10.437l-59.918-97.26L371.795,410.221z"/>
	<path fill="#80D8E2" d="M138.684,57.095c0.279-1.975,4.073-18.166,20.592-31.742c11.454-9.414,24.988-17.208,28.122-16.579
		c5.695,1.141,3.775,61.769,1.127,63.41C185.876,73.824,138.405,59.069,138.684,57.095z"/>
	<path fill="#54BDCF" d="M142.491,60.294c0.19-1.348,2.779-12.391,14.046-21.652c7.813-6.421,17.045-11.738,19.183-11.309
		c3.885,0.779,2.576,42.135,0.769,43.254C174.682,71.706,142.3,61.642,142.491,60.294z"/>
	<path fill="#80D8E2" d="M121.382,53.849c-29.55,6.709-78.192,50.507-90.489,64.586c-19.952,22.842-46.705,73.997-19.004,100.453
		c16.332,15.599,42.282,11.678,49.149,2.978c0,0,3.173,11.337,16.092,11.462c24.541,0.239,30.603-27.297,52.498-46.579
		c16.56-14.585,36.999,0.468,37.346,26.782c0.369,27.926-5.389,110.92,27.18,158.374c43.778,63.785,122.648,60.081,136.797,58.375
		c31.266-3.769,71.558-18.912,102.74-60.037c38.166-50.337,44.528-107.327,42.574-107.603
		c-96.777-13.652-166.079,2.227-207.327-45.585c-16.62-19.264-27.787-92.644-53.005-125.208
		C201.421,73.106,170.4,42.719,121.382,53.849z"/>
	<path fill="#3F749A" d="M73.118,97.902c4.74,0.669,52.621-29.74,64.371-36.688c1.855-1.098,7.99-7.19,7.99-7.19
		s-31.498-23.13-59.505-20.48c-39.002,3.69-54.005,23-54.395,25.765C31.188,62.074,68.378,97.233,73.118,97.902z"/>
	<path fill="#3F749A" d="M128.088,437.537c2.803,0.38-47.9,8.534-47.9,8.534l30.48,27.126c0,0,31.548-23.831,30.068-22.89
		C139.258,451.247,128.088,437.537,128.088,437.537z"/>
	<path fill="#3F749A" d="M95.217,394.367c2.679,0.908-48.648-0.773-48.648-0.773l24.738,32.449c0,0,35.518-17.367,33.887-16.725
		C103.563,409.958,95.217,394.367,95.217,394.367z"/>
	<path fill="#3F749A" d="M485.726,450.903c-0.102-2.827,16.568,45.746,16.568,45.746l21.537-34.656c0,0-28.857-27.027-27.677-25.73
		C497.334,437.561,485.726,450.903,485.726,450.903z"/>
	<path fill="#3F749A" d="M449.688,490.647c0.422-2.798,7.829,48.019,7.829,48.019l27.57-30.079c0,0-23.366-31.894-22.446-30.4
		C463.563,479.679,449.688,490.647,449.688,490.647z"/>
	<path fill="#3F749A" d="M321.055,332.168c-2.847,20.183-10.184,72.192-13.891,98.478c10.97,0.558,19.283-0.021,23.03-0.474
		c3.624-0.437,7.382-1.046,11.221-1.812l11.199-90.676C343.056,337.578,332.457,336.022,321.055,332.168z"/>
	<path fill="#54BDCF" d="M232.386,123.924l-80.805,59.519c5.04,2.849,9.278,8.053,11.878,14.945
		c15.647-7.821,63.907-31.976,80.853-40.865C240.647,146.226,236.744,134.68,232.386,123.924z"/>
	<path fill="#54BDCF" d="M30.135,118.327c-0.49,0.561-0.998,1.213-1.495,1.807l86.751,81.305c2.079-2.704,4.293-5.407,6.692-8.047
		c-16.587-18.154-61.447-67.376-79.106-87.973C37.358,110.668,32.835,115.236,30.135,118.327z"/>
	<path fill="#E8E9E9" d="M433.435,258.043c-21.217,70.896-151.89,68.988-151.89-28.494c0-3.934-6.131-5.011-9.006-7.911
		c-4.88,17.495-16.92,74.306,23.951,99.035c59.058,37.987,142.447,9.634,149.004-61.602
		C441.422,258.694,437.396,258.349,433.435,258.043z"/>
	<path fill="#3F749A" d="M281.545,229.547c-22.506,106.383,135.849,116.622,151.89,28.494
		C367.319,252.926,316.611,256.388,281.545,229.547z"/>
	<path fill="#54BDCF" d="M39.954,49.858l44.998,42.734c2.8-1.528,5.917-3.295,9.244-5.23l-41.705-45.17
		C47.254,44.677,43.126,47.352,39.954,49.858z"/>
	<path fill="#54BDCF" d="M64.191,37.719l36.975,45.54c2.974-1.772,5.981-3.581,8.972-5.395L80.886,34.117
		C74.659,34.967,69.116,36.213,64.191,37.719z"/>
	<path fill="#54BDCF" d="M93.898,33.443c7.563,10.831,21.2,31.378,25.923,38.514c4.5-2.76,8.629-5.303,11.958-7.339L114.843,38
		C108.215,35.641,101.062,33.882,93.898,33.443z"/>
	<path fill="#FFFFFF" d="M119.465,82.513c24.832-22.041,56.667,12.318,35.015,35.514C130.222,138.132,97.015,107.948,119.465,82.513
		z"/>
	<path fill="#3F749A" d="M128.984,87.491c14.548-13.599,32.755,8.005,20.183,21.216C134.816,121.135,115.959,101.947,128.984,87.491
		z"/>
	<path opacity="0.5" fill="#ED9EC3" d="M108.954,137.577c22.796-20.405,52.412,11.472,32.348,32.812
		C118.886,188.963,88.211,161.077,108.954,137.577z"/>
	<path fill="#FFFFFF" d="M23.467,183.833c8.87-8.404,21.377,4.941,13.101,13.291C27.848,204.876,14.913,192.828,23.467,183.833z"/>
	<path fill="#54BDCF" d="M185.373,226.61c14.325-13.218,33.794,7.609,20.775,21.073C192.041,259.811,171.933,241.25,185.373,226.61z
		"/>
	<path fill="#54BDCF" d="M199.389,265.265c28.881-4.386,35.878,36.565,8.692,43.125C180.534,311.705,170.63,272.924,199.389,265.265
		z"/>
	<path fill="#54BDCF" d="M241.557,348.307c26.785-4.235,33.415,34.212,8.097,40.173
		C223.993,391.568,214.765,355.442,241.557,348.307z"/>
	<path fill="#54BDCF" d="M217.717,315.94c27.317-2.555,26.963,28.07,3.519,30.325C196.364,347.548,193.874,318.771,217.717,315.94z"
		/>
	<path fill="#54BDCF" d="M303.288,393.791c-8.993,25.919-36.719,12.911-29.058-9.361
		C283.366,361.261,310.593,370.917,303.288,393.791z"/>
	<path fill="#54BDCF" d="M401.904,353.186c14.325-13.218,33.794,7.609,20.775,21.073
		C408.572,386.388,388.462,367.825,401.904,353.186z"/>
	<path fill="#54BDCF" d="M361.322,373.175c16.644-15.356,39.263,8.837,24.138,24.482
		C368.864,411.614,345.794,390.489,361.322,373.175z"/>
	<path fill="#3F749A" d="M6.095,211.828c0.686-0.949,9.369,12.368,31.087,12.065c43.011-0.6,35.122-45.473,35.122-45.473
		s8.342,14.837,1.404,32.118c-7.237,18.028-16.996,22.237-36.411,20.991S5.41,212.776,6.095,211.828z"/>
</g>
<g id="Layer_1">
</g>
</svg>
