<?xml version="1.0" encoding="utf-8"?>
<!-- Generator: Adobe Illustrator 26.0.3, SVG Export Plug-In . SVG Version: 6.00 Build 0)  -->
<svg version="1.1" xmlns="http://www.w3.org/2000/svg" xmlns:xlink="http://www.w3.org/1999/xlink" x="0px" y="0px"
	 viewBox="0 0 208.639 160.773" enable-background="new 0 0 208.639 160.773" xml:space="preserve">
<g id="carrot_x5F_snowman_x5F_nose">
	<g id="carrot_00000080188074803465747380000015672547443454537134_">
		<g>
			<g>
				<path fill="#E6A22F" d="M204.833,92.514c-1.053-2.419-31.699-58.149-65.663-88.869c-3.943-4.779-7.548-4.474-11.647-1.312
					c-12.017,9.365-50.905,54.334-55.083,59.945c-4.68,5.797-47.588,60.316-50.938,65.959c-0.279,0.293-22.474,30.545-21.469,32.177
					c1.005,1.631,26.937-2.663,38.264-5.371l0,0c10.046-1.716,19.827-4.566,29.719-6.936c6.869-1.907,80.982-22.244,87.268-24.069
					c9.988-3.532,38.939-12.963,43.084-15.084C211.32,103.006,210.244,104.947,204.833,92.514z"/>
				<path fill="#DB7E27" d="M99.083,31.443l86.415,82.302c6.245-2.162,11.311-3.993,12.87-4.791
					c0.205-0.094,0.397-0.181,0.595-0.271L114.43,14.866C109.653,19.837,104.316,25.633,99.083,31.443z"/>
				<path fill="#DB7E27" d="M154.716,124.2L85.6,46.679c-6.67,7.669-11.79,13.759-13.161,15.6c-0.17,0.212-0.398,0.495-0.667,0.832
					l63.317,66.533C144.655,127.006,152.128,124.936,154.716,124.2z"/>
				<path fill="#DB7E27" d="M46.682,95.047l39.617,48.026c6.604-1.816,14.348-3.945,22.228-6.114L57.5,81.209
					C54.085,85.563,50.379,90.301,46.682,95.047z"/>
				<path fill="#DB7E27" d="M31.448,114.751c-5.197,6.799-9.035,11.952-9.947,13.487c-0.053,0.056-0.903,1.2-2.233,3.023
					l15.411,24.596c1.316-0.281,2.533-0.555,3.617-0.814c8.98-1.533,17.749-3.972,26.573-6.165L31.448,114.751z"/>
			</g>
		</g>
	</g>
</g>
<g id="Layer_1">
</g>
</svg>
