<?xml version="1.0" encoding="utf-8"?>
<!-- Generator: Adobe Illustrator 26.0.3, SVG Export Plug-In . SVG Version: 6.00 Build 0)  -->
<svg version="1.1" xmlns="http://www.w3.org/2000/svg" xmlns:xlink="http://www.w3.org/1999/xlink" x="0px" y="0px"
	 viewBox="0 0 157.024 92.756" enable-background="new 0 0 157.024 92.756" xml:space="preserve">
<g id="cassetteplayer_x5F_ghettoblaster">
	<g id="cassetteplayer_x5F_ghettoblaster_00000096761404806443808250000001181891786058974396_">
		<g>
			<path fill="#FF4035" d="M51.219,23.362c-0.839-0.231-1.265-0.808-1.364-1.67c-0.111-1.138-0.124-5.482,0.145-6.756
				c0.189-0.688,0.826-1.09,1.351-1.197c0.797-0.165,4.505-0.335,5.417,0c0.641,0.186,1.071,0.905,1.179,1.57
				c0.258,1.456,0.311,5.075,0.136,6.545c-0.145,1.061-0.825,1.532-1.468,1.639C55.985,23.623,52.735,23.695,51.219,23.362z"/>
			<path fill="#FF4035" d="M61.573,23.362c-0.839-0.231-1.265-0.808-1.364-1.67c-0.111-1.138-0.124-5.482,0.145-6.756
				c0.189-0.688,0.826-1.09,1.351-1.197c0.797-0.165,4.505-0.335,5.417,0c0.641,0.186,1.071,0.905,1.179,1.57
				c0.258,1.456,0.311,5.075,0.136,6.545c-0.145,1.061-0.825,1.532-1.468,1.639C66.339,23.623,63.088,23.695,61.573,23.362z"/>
			<path fill="#FF4035" d="M72.052,23.362c-0.839-0.231-1.265-0.808-1.364-1.67c-0.111-1.138-0.124-5.482,0.145-6.756
				c0.189-0.688,0.826-1.09,1.351-1.197c0.797-0.165,4.505-0.335,5.417,0c0.641,0.186,1.071,0.905,1.179,1.57
				c0.258,1.456,0.311,5.075,0.136,6.545c-0.145,1.061-0.825,1.532-1.468,1.639C76.818,23.623,73.568,23.695,72.052,23.362z"/>
			<path fill="#FF4035" d="M82.574,23.362c-0.839-0.231-1.265-0.808-1.364-1.67c-0.111-1.138-0.124-5.482,0.145-6.756
				c0.189-0.688,0.826-1.09,1.351-1.197c0.797-0.165,4.505-0.335,5.417,0c0.641,0.186,1.071,0.905,1.179,1.57
				c0.258,1.456,0.311,5.075,0.136,6.545c-0.145,1.061-0.825,1.532-1.468,1.639C87.34,23.623,84.09,23.695,82.574,23.362z"/>
			<path fill="#00BDD0" d="M133.888,4.409c-2.803-1.67-7.852-2.98-14.599-3.567C106.732-0.2,49.101-0.245,37.472,0.541
				c-8.769,0.739-14.293,2.338-16.304,4.84c-3.48,3.413-1.632,23.754-0.544,25.917c0.191,0.38,2.869,0.69,7.285,0.935
				c-0.842-5.25-1.523-17.816,0.979-20.27c1.739-2.165,6.518-3.548,14.103-4.187c10.06-0.68,61.275-0.134,70.774,0.261
				c5.837,0.508,12.79,1.548,14.355,4.75c2.07,4.234,1.394,14.244,1.116,16.427c-0.086,0.672-0.104,1.794-0.332,2.875
				c3.797-0.196,6.13-0.419,6.438-0.664c1.74-1.384,1.646-4.65,1.831-6.102C137.495,22.8,138.55,7.187,133.888,4.409z"/>
			<path fill="#31D8E2" d="M156.547,75.283c-0.246,3.309-0.121,10.751-2.435,13.904c-3.01,4.104-150.817,5.48-152.51-0.287
				c-1.446-4.928-3.903-51.281,0.724-59.058c2.672-5.702,151.069-1.785,152.363,1.766C157.958,42.688,156.974,69.535,156.547,75.283
				z"/>
			<path fill="#005F8A" d="M56.553,73.75c-0.101,5.009-1.647,10.555-6.596,12.861c-5.176,1.184-33.694,2.089-39.304,0.266
				c-3.681-1.769-5.707-4.671-6.275-8.555c-0.485-3.319-1.075-29.937,0.476-35.174c0.896-3.84,3.358-6.294,7.266-7.428
				c5.183-1.206,31.568-0.237,36.461,0.462c4.101,1.061,6.774,4.348,7.395,8.426C57.074,52.07,56.696,69.878,56.553,73.75z"/>
			<path fill="#005F8A" d="M152.968,73.75c-0.082,2.228-0.338,4.434-1.113,6.557c-1.009,2.763-2.71,4.964-5.482,6.304
				c-5.176,1.184-33.694,2.089-39.304,0.266c-3.681-1.769-5.707-4.671-6.275-8.555c-0.485-3.319-1.075-29.937,0.476-35.174
				c0.896-3.84,3.358-6.294,7.266-7.428c5.183-1.206,31.568-0.237,36.461,0.462c3.007,0.901,5.317,2.593,6.506,5.474
				c0.392,0.95,0.733,1.947,0.889,2.952C153.489,52.07,153.111,69.878,152.968,73.75z"/>
			<path fill="#235E89" d="M96.995,73.801c-0.058,0.609-0.24,1.213-0.79,1.794c-0.716,0.756-1.923,1.358-3.89,1.724
				c-3.672,0.323-23.905,0.571-27.885,0.072c-2.611-0.484-4.049-1.278-4.452-2.34c-0.344-0.908-0.762-8.188,0.338-9.62
				c0.636-1.05,2.382-1.721,5.155-2.032c3.677-0.33,22.397-0.065,25.869,0.126c2.133,0.246,3.772,0.709,4.616,1.497
				c0.278,0.26,0.52,0.532,0.631,0.807C97.365,67.871,97.096,72.742,96.995,73.801z"/>
			<path fill="#3E759A" d="M96.023,85.943c-0.716,0.364-1.741,0.432-3.708,0.609c-3.672,0.156-23.905,0.275-27.885,0.035
				c-2.611-0.233-4.049-0.616-4.452-1.127c-0.344-0.437-0.762-3.945,0.338-4.635c0.636-0.506,2.382-0.829,5.155-0.979
				c3.677-0.159,22.397-0.031,25.869,0.061c2.133,0.119,3.772,0.342,4.616,0.721C96.662,80.805,96.941,85.573,96.023,85.943z"/>
			<path fill="#005F8A" d="M96.995,55.568c-0.135,2.763-1.599,4.699-4.68,5.608c-3.672,0.517-23.905,0.912-27.885,0.117
				c-2.611-0.771-4.049-2.037-4.452-3.731c-0.344-1.447-0.762-13.055,0.338-15.339c0.636-1.675,2.382-2.745,5.155-3.239
				c3.677-0.526,22.397-0.103,25.869,0.202c2.73,0.527,4.538,1.453,5.247,3.674C97.365,46.114,97.096,53.88,96.995,55.568z"/>
			<path fill="#00759C" d="M29.067,84.325c-4.682-0.043-9.518-0.96-13.432-3.658C4.21,72.647,3.802,53.718,14.314,44.74
				c3.699-3.167,8.592-4.93,13.358-5.653c17.509-2.918,27.549,10.217,24.477,26.792C49.801,77.596,40.881,84.336,29.067,84.325
				C26.258,84.299,30.509,84.301,29.067,84.325z"/>
			<path fill="#00759C" d="M126.059,84.325c-4.682-0.043-9.518-0.96-13.432-3.658c-11.425-8.02-11.833-26.949-1.321-35.927
				c3.699-3.167,8.592-4.93,13.358-5.653c17.509-2.919,27.549,10.217,24.476,26.792C146.793,77.596,137.873,84.336,126.059,84.325
				C123.251,84.299,127.501,84.301,126.059,84.325z"/>
			<path fill="#E8E8E8" d="M69.335,54.507c-0.077-0.001-0.129-0.001-0.161-0.002v-0.002c-4.03,0.234-5.183-5.137-2.588-7.368
				c0.795-0.712,2.345-1.176,3.591-1.164c4.143-0.251,4.652,5.558,2.093,7.633C71.386,54.32,70.186,54.49,69.335,54.507z"/>
			<path fill="#235E89" d="M71.634,50.193c-0.069,2.737-4.082,2.737-4.151,0C67.553,47.456,71.565,47.457,71.634,50.193z"/>
			<path fill="#E8E8E8" d="M86.255,54.461c-0.077-0.001-0.129-0.001-0.161-0.002v-0.002c-4.03,0.234-5.183-5.137-2.588-7.368
				c0.795-0.712,2.345-1.176,3.591-1.164c4.143-0.251,4.652,5.558,2.093,7.633C88.306,54.274,87.107,54.444,86.255,54.461z"/>
			<path fill="#235E89" d="M88.554,50.148c-0.069,2.737-4.082,2.737-4.151,0C84.473,47.41,88.485,47.411,88.554,50.148z"/>
			<path fill="#FF9EC5" d="M66.042,66.03c-4.146-0.082-4.205,1.134-4.116,4.866c0.019,4.409,0.904,4.524,5.017,4.55
				c1.744,0.026,4.275,0.054,4.319-2.269c0.099-1.712,0.086-3.422-0.104-5.129C70.925,65.449,67.909,65.992,66.042,66.03z"/>
			<path fill="#54BCCE" d="M88.804,66.056c-1.293,0.089-3.083-0.101-3.618,1.403c-0.461,1.885-0.256,3.881-0.049,5.796
				c0.133,2.494,3.04,2.149,4.801,2.177c1.77,0.055,4.252,0.105,4.339-2.181c0.133-1.761,0.08-3.541-0.112-5.297
				C93.841,65.363,90.665,66.042,88.804,66.056z"/>
			<path fill="#FF4035" d="M76.754,66.037c-2.1,0.223-3.649,2.075-3.51,4.173c0.018,1.38,0.399,2.827,1.387,3.832
				c2.269,2.425,7.06,1.688,7.875-1.726C83.551,68.572,80.572,65.318,76.754,66.037z"/>
			<path fill="#FF4035" d="M69.694,70.797c0.11,4.12-5.862,3.862-6.137,0.235C62.66,66.505,69.918,66.483,69.694,70.797z"/>
			<path fill="#FF9EC5" d="M75.813,70.539c-0.009-1.058,0.016-1.978,0.106-2.895c0.048-0.489,0.104-0.53,0.533-0.304
				c1.51,0.795,2.938,1.718,4.261,2.797c0.554,0.452,0.561,0.609,0.026,1.072c-1.363,1.162-2.847,2.176-4.453,2.97
				c-0.174,0.082-0.251,0.021-0.283-0.162C75.854,72.915,75.809,71.568,75.813,70.539z"/>
			<path fill="#3F7399" d="M89.482,67.587c4.347-0.091,4.334,6.565,0.018,6.24C85.779,73.681,85.316,67.416,89.482,67.587z"/>
			<path fill="#00759C" d="M24.001,18.812C12.343,20.496,4.998,24.14,2.326,29.842c-0.273,0.458-0.52,1.055-0.745,1.766h153.108
				c-0.511-1.356-1.445-2.698-2.509-3.981c-3.547-4.277-10.439-6.791-19.409-8.128C118.171,18.46,39.461,17.021,24.001,18.812z"/>
			<path fill="#00BDD0" d="M50.214,23.71c-1.597,0.187-1.904,4.347,0.654,4.347c16.657,0.002,77.651,0.103,81.19-0.167
				c1.512-0.115,1.871-3.976-0.404-4.18C130.402,23.598,51.704,23.536,50.214,23.71z"/>
			<path fill="#FF4035" d="M36.342,25.685c-0.122-5.834,8.474-6.76,9.105-0.663c0.288,2.174-0.873,4.497-3.164,4.891
				C39.541,30.584,36.107,28.792,36.342,25.685z"/>
			<path fill="#FF9EC5" d="M29.687,29.505c-1.975,0.127-3.946-1.272-4.092-3.33c-0.687-3.643,3.524-5.776,6.641-4.814
				c2.089,0.506,2.737,3.002,2.462,4.893C34.363,28.689,31.886,29.523,29.687,29.505z"/>
			<path fill="#FF4035" d="M18.321,25.845c0.081-4.049,5.447-3.968,5.804-0.576c0.254,1.36-0.439,2.929-1.874,3.237
				C20.478,29.012,18.174,27.886,18.321,25.845z"/>
			<path fill="#E8E8E8" d="M29.038,77.804c-0.293-0.003-0.49-0.005-0.613-0.007V77.79c-3.811-0.124-6.869-0.962-9.089-2.492
				c-8.019-5.499-7.815-19.915-0.78-25.604c4.748-4.102,14.776-5.94,20.804-2.982c6.478,3.443,7.54,11.561,6.401,17.86
				C43.878,73.807,37.275,77.782,29.038,77.804z"/>
			<path fill="#235E89" d="M37.806,61.355c0,4.371-3.543,7.914-7.914,7.914c-10.498-0.417-10.495-15.413,0-15.829
				C34.263,53.44,37.806,56.984,37.806,61.355z"/>
			<path fill="#E8E8E8" d="M126.03,77.804c-0.293-0.003-0.49-0.005-0.613-0.007V77.79c-3.811-0.124-6.869-0.962-9.089-2.492
				c-8.019-5.499-7.815-19.915-0.78-25.604c4.748-4.102,14.776-5.94,20.804-2.982c6.478,3.443,7.54,11.561,6.401,17.86
				C140.871,73.807,134.268,77.782,126.03,77.804z"/>
			<path fill="#235E89" d="M134.623,61.53c0,4.371-3.543,7.914-7.914,7.914c-10.498-0.417-10.495-15.413,0-15.829
				C131.08,53.616,134.623,57.159,134.623,61.53z"/>
		</g>
	</g>
</g>
<g id="Layer_1">
</g>
</svg>
