<?xml version="1.0" encoding="utf-8"?>
<!-- Generator: Adobe Illustrator 26.0.3, SVG Export Plug-In . SVG Version: 6.00 Build 0)  -->
<svg version="1.1" id="Layer_1" xmlns="http://www.w3.org/2000/svg" xmlns:xlink="http://www.w3.org/1999/xlink" x="0px" y="0px"
	 viewBox="0 0 415.1 457.5" style="enable-background:new 0 0 415.1 457.5;" xml:space="preserve">
<style type="text/css">
	.st0{fill:#BA5600;}
	.st1{fill:#005F8D;}
	.st2{fill:#00769F;}
</style>
<path id="XMLID_10_" class="st0" d="M286.5,396.9c0,0.4,0,0.8,0,1.2c0.7,12.1,6.9,25.5,18.3,31c10.7,5.2,25.2,2.3,33-6.8
	c8.1-9.6,6-23.4,1.6-34.2c-8.5-6-28.1-7.9-28.1-7.9S292.2,389.4,286.5,396.9z"/>
<path id="XMLID_487_" class="st0" d="M7.3,300.4c-1.8,2.4-3.2,5.2-4.3,7.9c-4.4,11.3-4.4,26,3.7,35.8c7.6,9.2,22,12.6,32.8,7.6
	c1.4-0.6,2.7-1.4,3.8-2.3c-1.6-11.3-11.6-26.2-11.6-26.2S18.2,307,7.3,300.4z"/>
<path id="XMLID_486_" class="st0" d="M132.8,410.8c-0.2,0.4-0.3,0.7-0.4,1.1c-4.4,11.3-4.4,26,3.7,35.8c7.6,9.2,22,12.6,32.8,7.6
	c11.4-5.3,15.3-18.8,15.8-30.4c-5.2-9-22.2-18.9-22.2-18.9S141.1,406.3,132.8,410.8z"/>
<path id="XMLID_483_" class="st1" d="M345.4,281L84.4,317.3L3.5,246c-6.7,42.3,6.5,75.5,39.8,103.3c39.3,41.7,88.5,73,145.8,78.4
	C262.4,434.6,390.7,423.8,345.4,281z"/>
<path id="XMLID_339_" class="st2" d="M28.2,302.6c53.4,58.8,114.8,90.6,199.4,94.9c61.4,3.1,232.9-76.2,21.8-210.3
	c-57.5-36.5-187.9-31.2-235.7,30.1C-4,245.6,0.7,274.8,28.2,302.6z"/>
<path id="XMLID_178_" class="st1" d="M291.5,261.3c43.7,29.3,84.9-2.1,105.8-48.2c29.9-65.7,11-166.6-164.8-208.2
	c-23.3-5.9-43.5-6.2-60.4-2.2l-56,140.5c5.7,9.9,13.3,18.6,22.8,25.2C182.5,198.7,211.8,191.9,291.5,261.3z"/>
<path class="st2" d="M384.9,87.5c-14.8,10.6-34.3,45.3-48.2,80c-13.3,33.3-14.5,75.3-7,106.1C396,273.7,451.7,170.1,384.9,87.5z"/>
<path class="st2" d="M170.2,83.2c10.2-25.3,11.9-56.8,7.3-81.6c-74.7,12.9-92,103.4-55.1,151.1C134.9,154,156,118.6,170.2,83.2z"/>
<g id="Layer_1_00000039127990718169963730000015546554251873990029_">
</g>
</svg>
