<?xml version="1.0" encoding="utf-8"?>
<!-- Generator: Adobe Illustrator 26.0.3, SVG Export Plug-In . SVG Version: 6.00 Build 0)  -->
<svg version="1.1" xmlns="http://www.w3.org/2000/svg" xmlns:xlink="http://www.w3.org/1999/xlink" x="0px" y="0px"
	 viewBox="0 0 664.914 601.747" enable-background="new 0 0 664.914 601.747" xml:space="preserve">
<g id="chandelier_x5F_lamp">
	<path fill="#F5E238" d="M617.367,443.293c-22.831-0.206-36.481-13.042-36.384-34.216c0.102-22.519,35.754-58.673,35.754-58.673
		s35.698,37.625,35.754,58.916C652.545,430.263,638.873,443.488,617.367,443.293z"/>
	<path fill="#F5E238" d="M543.428,341.444c-22.831-0.206-36.481-13.042-36.384-34.216c0.102-22.519,35.754-58.673,35.754-58.673
		s35.698,37.625,35.754,58.916C578.607,328.414,564.934,341.639,543.428,341.444z"/>
	<path fill="#F5E238" d="M124.628,341.444c-22.831-0.206-36.481-13.042-36.384-34.216c0.102-22.519,35.754-58.673,35.754-58.673
		s35.698,37.625,35.754,58.916C159.806,328.414,146.134,341.639,124.628,341.444z"/>
	<path fill="#F5E238" d="M49.316,452.57c-22.831-0.206-36.481-13.042-36.384-34.216c0.102-22.519,35.754-58.673,35.754-58.673
		s35.698,37.625,35.754,58.916C84.495,439.54,70.823,452.765,49.316,452.57z"/>
	<g>
		<rect x="313.182" y="0" fill="#B6F4F8" width="38.549" height="572.687"/>
		<g>
			<g>
				<g>
					<path fill="#B6F4F8" d="M576.163,570.992c-0.477,0-0.954-0.004-1.437-0.014c-37.737-0.731-57.228-20.424-74.424-37.798
						c-18.466-18.657-35.898-36.271-77.027-34.343c-39.038,1.84-60.925,64.093-61.142,64.722l-20.811-7.129
						c1.075-3.144,26.947-77.023,80.917-79.567c50.898-2.401,73.636,20.573,93.697,40.842c16.315,16.484,30.405,30.72,59.215,31.278
						c9.026,0.178,15.604-1.898,20.131-6.337c6.6-6.473,9.945-18.895,9.945-36.921v-54.224h21.998v54.224
						c0,24.496-5.41,41.709-16.54,52.625C602.131,566.743,590.521,570.992,576.163,570.992z"/>
				</g>
			</g>
			<g id="semicircle_x5F_hill_x5F_2_x5F_white_00000078005605401232864360000009317436929544444051_">
				<g>
					<path fill="#73E3D4" d="M572.249,451.105c13.887,23.839,57.255,23.083,74.61,11.755c12.651-8.258,17.926-19.694,18.055-30.356
						h-97.268C567.142,438.262,568.424,444.54,572.249,451.105z"/>
				</g>
			</g>
		</g>
		<g>
			<g>
				<g>
					<path fill="#B6F4F8" d="M88.749,570.992c-14.358,0-25.967-4.249-34.522-12.64c-11.13-10.916-16.54-28.13-16.54-52.626v-54.224
						h21.998v54.224c0,18.026,3.346,30.449,9.945,36.921c4.526,4.439,11.139,6.522,20.13,6.337
						c28.81-0.558,42.9-14.794,59.216-31.279c20.062-20.268,42.812-43.234,93.696-40.841c53.97,2.544,79.842,76.423,80.917,79.567
						l-20.814,7.117c-0.213-0.617-22.1-62.87-61.138-64.71c-41.122-1.939-58.56,15.686-77.026,34.342
						c-17.196,17.375-36.688,37.067-74.425,37.798C89.704,570.988,89.225,570.992,88.749,570.992z"/>
				</g>
			</g>
			<g id="semicircle_x5F_hill_x5F_2_x5F_white_00000031886027898596756250000005414035572992679324_">
				<g>
					<path fill="#73E3D4" d="M92.664,451.105c-13.887,23.839-57.255,23.083-74.61,11.755C5.403,454.602,0.128,443.166,0,432.504
						h97.268C97.771,438.262,96.489,444.54,92.664,451.105z"/>
				</g>
			</g>
		</g>
		<g>
			<g>
				<path fill="#B6F4F8" d="M348.454,552.075l-21.95-1.455c0.058-0.868,1.482-21.531,8.639-44.956
					c10.082-33,26.064-54.6,47.505-64.201c27.744-12.425,48.51-5.812,68.593,0.583c14.605,4.652,28.405,9.044,46.35,7.219
					c17.45-1.775,33.197-6.802,34.208-48.206v-50.956h21.998l-0.003,51.348c-1.052,44.513-17.699,66.009-53.977,69.698
					c-22.497,2.289-39.898-3.254-55.252-8.143c-18.35-5.843-32.845-10.46-52.927-1.467
					C360.28,475.582,349.833,531.654,348.454,552.075z"/>
			</g>
			<g id="semicircle_x5F_hill_x5F_2_x5F_white_00000151507795567114596680000005897682408351249565_">
				<g>
					<path fill="#73E3D4" d="M497.771,349.708c13.887,23.839,57.255,23.083,74.61,11.755c12.651-8.258,17.926-19.694,18.054-30.356
						h-97.268C492.664,336.864,493.946,343.143,497.771,349.708z"/>
				</g>
			</g>
		</g>
		<g>
			<g>
				<g>
					<path fill="#B6F4F8" d="M317.29,552.065c-1.378-20.411-11.824-76.483-43.182-90.525c-20.083-8.994-34.578-4.377-52.928,1.467
						c-15.352,4.89-32.747,10.433-55.251,8.143c-36.277-3.689-52.925-25.185-53.977-69.698l-0.003-0.26v-51.088h21.998v50.956
						c1.011,41.404,16.758,46.431,34.208,48.206c17.957,1.823,31.746-2.568,46.35-7.219c20.08-6.395,40.847-13.008,68.593-0.583
						c21.44,9.601,37.423,31.201,47.504,64.201c7.156,23.425,8.581,44.088,8.639,44.956L317.29,552.065z"/>
				</g>
			</g>
			<g id="semicircle_x5F_hill_x5F_2_x5F_white_00000142854505904593964880000008850436796139272629_">
				<g>
					<path fill="#73E3D4" d="M167.975,349.708c-13.887,23.839-57.255,23.083-74.61,11.755
						c-12.651-8.258-17.926-19.694-18.054-30.356h97.268C173.082,336.864,171.8,343.143,167.975,349.708z"/>
				</g>
			</g>
		</g>
		<g id="semicircle_x5F_hill_x5F_2_x5F_white_00000170262660458562372280000003649248377353136790_">
			<g>
				<path fill="#73E3D4" d="M279.84,578.424c16.724,28.666,68.951,27.758,89.852,14.136c15.236-9.93,21.588-23.682,21.743-36.504
					H274.296C273.69,562.98,275.234,570.529,279.84,578.424z"/>
			</g>
		</g>
	</g>
	<path fill="#F5E238" d="M248.908,419.39c-22.831-0.206-36.481-13.042-36.384-34.216c0.102-22.519,35.754-58.673,35.754-58.673
		s35.698,37.625,35.754,58.916C284.087,406.359,270.415,419.584,248.908,419.39z"/>
	<g id="semicircle_x5F_hill_x5F_2_x5F_white_00000162321345667410985390000012489555311801267610_">
		<g>
			<path fill="#73E3D4" d="M203.251,427.653c13.887,23.839,57.255,23.083,74.61,11.755c12.651-8.258,17.926-19.694,18.054-30.356
				h-97.267C198.145,414.81,199.426,421.088,203.251,427.653z"/>
		</g>
	</g>
	<path fill="#F5E238" d="M431.608,420.499c-22.831-0.206-36.481-13.042-36.384-34.216c0.102-22.519,35.754-58.673,35.754-58.673
		s35.698,37.625,35.754,58.916C466.787,407.469,453.115,420.694,431.608,420.499z"/>
	<g id="semicircle_x5F_hill_x5F_2_x5F_white_00000101087709848506294880000004457569178648241034_">
		<g>
			<path fill="#73E3D4" d="M385.951,428.763c13.887,23.839,57.255,23.083,74.61,11.755c12.651-8.258,17.926-19.694,18.054-30.356
				h-97.267C380.845,415.92,382.127,422.198,385.951,428.763z"/>
		</g>
	</g>
</g>
<g id="Layer_1">
</g>
</svg>
