<?xml version="1.0" encoding="utf-8"?>
<!-- Generator: Adobe Illustrator 26.0.1, SVG Export Plug-In . SVG Version: 6.00 Build 0)  -->
<svg version="1.1" id="Layer_1" xmlns="http://www.w3.org/2000/svg" xmlns:xlink="http://www.w3.org/1999/xlink" x="0px" y="0px"
	 viewBox="0 0 1496.4 1508.1" style="enable-background:new 0 0 1496.4 1508.1;" xml:space="preserve">
<style type="text/css">
	.st0{fill:#00759C;}
	.st1{fill:#005584;}
	.st2{fill:#48803F;}
	.st3{fill:#7FA649;}
	.st4{fill:#FFFFFF;}
</style>
<g>
	<polygon class="st0" points="600.7,1104.6 658.3,1508.1 841.4,1508.1 894.4,1138.7 	"/>
	<path class="st1" d="M1496.4,799.7c0,1.2,0,2.4,0,3.5c-115.6,136.4-300.3,186.3-473.9,196c12.9,26.1,30.3,42.6,51,61
		c90.8,71.2,179.4,142.8,275.3,207.7c-180,102.4-401.6,67.2-594,22.5c-9.8-2.4-22-0.7-31.5,3.1c-177.7,89.8-400.4,143.6-579.8,26.3
		c123.7-95.5,269.2-175.4,363.5-301.3c-138.4,28.7-340,60.5-413.1-99.1c127.9-83.4,263.5-153.8,367-265.8
		c-166,5.5-357.9,11-460.9-141.5c187.9-85.7,350.7-211.2,506.3-344.7c71.2-61,224.4-236.8,224.4-236.8s486.5,261.5,742,327.3
		c-93.9,150.4-215.8,262.3-389.7,319.4C1209.1,672.1,1349,745.4,1496.4,799.7z"/>
</g>
<g>
	<g>
		<path class="st2" d="M409.3,294.3c-3-13.7-7.9-15.5-11.4-10.4c-3.2,4.6-2,19.5-1.9,21.7c-1.4-8.7-4.4-23.8-11.1-22.4
			c-6,1.2-5.1,23.4-5.2,23.7c0,0,3.8,0.5,31.3-2.5C410.9,304.2,410,296.9,409.3,294.3z"/>
		<path class="st2" d="M381.6,316.2c2.7,13.8,7.6,15.7,11.2,10.7c3.3-4.5,2.4-19.5,2.4-21.6c1.2,8.7,3.9,23.9,10.6,22.7
			c6-1.1,5.6-23.3,5.7-23.5c0,0-3.8-0.6-31.3,1.9C380.2,306.2,381,313.5,381.6,316.2z"/>
		<path class="st2" d="M412.5,315c0.1,14,4.6,16.8,9,12.6c4.1-3.8,6-18.7,6.4-20.8c-0.4,8.8-0.6,24.2,6.2,24.2
			c6.1,0.1,9.9-21.9,10-22.1c0,0-3.6-1.3-31.1-4C413,305,412.4,312.3,412.5,315z"/>
		<path class="st2" d="M441.9,321.4c-3.6,13.5-0.1,17.4,5.4,14.5c5-2.6,10.7-16.4,11.6-18.4c-2.7,8.3-7,23.1-0.4,25
			c5.8,1.7,15.3-18.5,15.5-18.6c0,0-3.1-2.2-29-12.1C445,311.8,442.5,318.7,441.9,321.4z"/>
		<path class="st2" d="M471.1,331.6c-5.4,13-2.3,17.3,3.5,15.1c5.3-1.9,12.8-14.9,13.9-16.7c-3.8,7.9-10,22-3.7,24.8
			c5.6,2.4,17.6-16.3,17.8-16.5c0,0-2.8-2.6-27.1-15.7C475.5,322.5,472.1,329.1,471.1,331.6z"/>
		<path class="st2" d="M498.8,346.1c-5.4,13-2.3,17.3,3.5,15.1c5.3-1.9,12.8-14.9,13.9-16.7c-3.8,7.9-10,22-3.7,24.8
			c5.6,2.4,17.6-16.3,17.8-16.5c0,0-2.8-2.6-27.1-15.7C503.2,337,499.8,343.5,498.8,346.1z"/>
		<path class="st2" d="M525.9,362.4c-4.5,13.3-1.1,17.4,4.5,14.8c5.1-2.3,11.7-15.8,12.7-17.7c-3.2,8.2-8.4,22.7-1.9,25
			c5.7,2,16.4-17.5,16.6-17.7c0,0-3-2.4-28.2-13.8C529.6,353.1,526.7,359.8,525.9,362.4z"/>
		<path class="st2" d="M554.3,377.4c-2.4,13.8,1.5,17.4,6.7,13.9c4.7-3,9.2-17.3,9.9-19.4c-1.9,8.6-4.9,23.7,1.9,25
			c6,1.1,13.5-19.8,13.7-20c0,0-3.3-1.9-30-9.4C556.6,367.6,554.7,374.7,554.3,377.4z"/>
		<path class="st2" d="M584.4,386.8c0.5,14,5,16.7,9.4,12.3c4-3.9,5.5-18.8,5.8-21c-0.1,8.8,0,24.2,6.9,24.1
			c6.1-0.1,9.3-22.1,9.4-22.3c0,0-3.6-1.2-31.2-3.1C584.7,376.7,584.3,384.1,584.4,386.8z"/>
		<path class="st2" d="M617.9,391.1c3.8,13.5,8.8,15,12,9.7c2.9-4.8,0.8-19.6,0.6-21.8c1.9,8.6,5.8,23.5,12.4,21.7
			c5.9-1.5,3.7-23.7,3.8-23.9c0,0-3.8-0.3-31.1,4.4C615.8,381.3,617.2,388.5,617.9,391.1z"/>
		<path class="st2" d="M650.6,383.6c6.6,12.4,11.9,12.8,13.8,6.9c1.8-5.3-3.4-19.3-4.1-21.4c3.7,7.9,10.7,21.7,16.8,18.5
			c5.4-2.8-1.5-24-1.5-24.2c0,0-3.8,0.5-29.4,11C646.3,374.5,649.2,381.3,650.6,383.6z"/>
		<path class="st2" d="M681.2,371.2c8.2,11.4,13.4,11.1,14.6,5c1.1-5.5-5.9-18.7-6.8-20.7c4.7,7.4,13.4,20.1,19.1,16.2
			c5-3.5-4.6-23.6-4.6-23.8c0,0-3.7,1-27.7,14.7C675.8,362.7,679.6,369.1,681.2,371.2z"/>
		<path class="st2" d="M708.2,355.5c7.1,12.1,12.4,12.3,14.1,6.3c1.6-5.4-4.2-19.2-5-21.2c4.1,7.8,11.6,21.2,17.6,17.8
			c5.3-3-2.5-23.9-2.4-24.1c0,0-3.7,0.7-28.9,12.2C703.6,346.6,706.8,353.2,708.2,355.5z"/>
		<path class="st2" d="M735.9,341c4.8,13.2,10,14.3,12.7,8.8c2.6-5-0.7-19.6-1.1-21.7c2.6,8.4,7.6,23,14.1,20.7
			c5.7-2,1.9-23.9,1.9-24.1c0,0-3.8,0-30.6,6.8C732.9,331.4,734.9,338.5,735.9,341z"/>
		<path class="st2" d="M766,335c1.8,13.9,6.6,16.2,10.5,11.4c3.6-4.3,3.7-19.3,3.8-21.4c0.7,8.7,2.3,24.1,9.1,23.3
			c6-0.7,7.1-22.9,7.2-23.1c0,0-3.7-0.8-31.4-0.2C765.2,324.9,765.6,332.3,766,335z"/>
		<path class="st2" d="M796.5,335.9c-1.1,14,3.1,17.2,7.9,13.3c4.4-3.5,7.5-18.1,8.1-20.2c-1.1,8.7-2.7,24,4.2,24.7
			c6,0.6,11.7-21,11.8-21.1c0,0-3.5-1.6-30.7-6.6C797.8,325.9,796.6,333.2,796.5,335.9z"/>
		<path class="st2" d="M826.5,341.9c-3,13.7,0.7,17.4,6,14.2c4.8-2.8,10-16.9,10.8-18.9c-2.3,8.5-6,23.4,0.7,25
			c5.9,1.4,14.5-19.2,14.6-19.3c0,0-3.2-2-29.5-10.7C829.2,332.2,827.1,339.3,826.5,341.9z"/>
		<path class="st2" d="M856.8,351.2c-3,13.7,0.7,17.4,6,14.2c4.8-2.8,10-16.9,10.8-18.9c-2.3,8.5-6,23.4,0.7,25
			c5.9,1.4,14.5-19.2,14.6-19.3c0,0-3.2-2-29.5-10.7C859.5,341.5,857.3,348.6,856.8,351.2z"/>
		<path class="st2" d="M887.2,362.5c-1.5,13.9,2.7,17.2,7.6,13.5c4.5-3.3,8-17.9,8.6-20c-1.4,8.7-3.3,24,3.5,24.8
			c6,0.7,12.2-20.6,12.4-20.8c0,0-3.4-1.7-30.5-7.4C888.8,352.6,887.4,359.8,887.2,362.5z"/>
		<path class="st2" d="M919,368.6c0.5,14,5,16.7,9.4,12.3c4-3.9,5.5-18.8,5.8-21c-0.1,8.8,0,24.2,6.9,24.1
			c6.1-0.1,9.2-22.2,9.4-22.3c0,0-3.6-1.2-31.2-3.1C919.2,358.6,918.9,365.9,919,368.6z"/>
		<path class="st2" d="M951.6,371.1c2,13.9,6.8,16,10.7,11.2c3.5-4.4,3.3-19.3,3.4-21.5c0.8,8.7,2.7,24,9.5,23.1
			c6-0.8,6.7-23,6.8-23.2c0,0-3.7-0.8-31.4,0.4C950.7,361.1,951.1,368.4,951.6,371.1z"/>
		<path class="st2" d="M983.8,368.1c3.7,13.5,8.8,15.1,12,9.8c3-4.8,0.9-19.6,0.7-21.8c1.9,8.6,5.7,23.5,12.3,21.8
			c5.9-1.5,3.8-23.7,3.9-23.9c0,0-3.8-0.3-31.1,4.3C981.6,358.2,983,365.5,983.8,368.1z"/>
		<path class="st2" d="M1016.8,362.1c6.6,12.4,11.9,12.7,13.9,6.9c1.8-5.3-3.5-19.3-4.1-21.4c3.8,7.9,10.7,21.7,16.9,18.5
			c5.4-2.8-1.5-24-1.5-24.2c0,0-3.8,0.6-29.4,11C1012.5,353,1015.4,359.8,1016.8,362.1z"/>
		<path class="st2" d="M1046.3,349.3c9,10.8,14.2,10.1,15,4c0.7-5.6-7.3-18.2-8.3-20.1c5.3,7,14.9,19.1,20.2,14.8
			c4.7-3.8-6.3-23.2-6.3-23.4c0,0-3.6,1.3-26.6,16.7C1040.3,341.2,1044.5,347.2,1046.3,349.3z"/>
		<path class="st2" d="M1073.4,331.7c11.1,8.5,16.1,6.7,15.5,0.6c-0.5-5.6-11.1-16.2-12.6-17.8c6.7,5.7,18.7,15.3,23,9.9
			c3.8-4.8-11.2-21.2-11.3-21.4c0,0-3.2,2.1-22.2,22.2C1065.8,325.1,1071.2,330.1,1073.4,331.7z"/>
		<path class="st2" d="M1095.4,307.3c12.1,7.2,16.8,4.8,15.4-1.3c-1.2-5.5-12.9-14.8-14.6-16.2c7.3,4.9,20.4,13,24,7.2
			c3.2-5.2-13.7-19.7-13.8-19.9c0,0-2.9,2.4-19.5,24.6C1087.1,301.7,1093.1,306,1095.4,307.3z"/>
		<path class="st2" d="M1113.2,281.8c10.6,9.2,15.7,7.6,15.4,1.5c-0.2-5.6-10.1-16.8-11.5-18.5c6.3,6.1,17.8,16.4,22.4,11.3
			c4-4.5-10-21.8-10-22c0,0-3.3,1.9-23.5,20.8C1106,274.8,1111.1,280.1,1113.2,281.8z"/>
		<path class="st2" d="M1135.5,260.1c7.8,11.7,13,11.6,14.4,5.5c1.3-5.4-5.3-18.9-6.1-20.9c4.5,7.5,12.7,20.6,18.5,16.8
			c5.1-3.3-3.8-23.7-3.8-23.9c0,0-3.7,0.9-28.2,13.8C1130.4,251.4,1133.9,257.9,1135.5,260.1z"/>
		<path class="st2" d="M1164.1,245.7c8.2,11.4,13.4,11.1,14.6,5c1.1-5.5-5.9-18.7-6.9-20.7c4.8,7.4,13.5,20.1,19.1,16.2
			c5-3.5-4.6-23.6-4.6-23.8c0,0-3.7,1-27.7,14.8C1158.7,237.2,1162.5,243.5,1164.1,245.7z"/>
		<path class="st2" d="M1192.6,229.4c10.7,9,15.8,7.4,15.4,1.2c-0.3-5.6-10.4-16.6-11.8-18.3c6.4,6,18,16.1,22.5,10.9
			c4-4.6-10.3-21.7-10.4-21.9c0,0-3.3,1.9-23.2,21.2C1185.2,222.5,1190.5,227.7,1192.6,229.4z"/>
		<path class="st2" d="M441.7,298.8c0.4-14-3.9-17-8.6-12.9c-4.2,3.7-6.7,18.5-7.1,20.6c0.7-8.7,1.5-24.1-5.4-24.5
			c-6.1-0.3-10.6,21.5-10.8,21.7c0,0,3.5,1.4,31,5.1C440.8,308.8,441.6,301.5,441.7,298.8z"/>
		<path class="st2" d="M471.8,311.2c3.1-13.7-0.6-17.4-5.9-14.3c-4.9,2.8-10.1,16.8-10.9,18.8c2.4-8.4,6.1-23.4-0.5-25
			c-5.9-1.5-14.6,19.1-14.8,19.2c0,0,3.2,2.1,29.4,11C469.1,320.9,471.3,313.8,471.8,311.2z"/>
		<path class="st2" d="M500.5,324.7c4.7-13.2,1.5-17.4-4.2-14.9c-5.1,2.2-12,15.5-13.1,17.4c3.4-8.1,8.8-22.5,2.4-24.9
			c-5.7-2.1-16.7,17.2-16.9,17.3c0,0,2.9,2.4,27.9,14.4C496.6,334,499.7,327.3,500.5,324.7z"/>
		<path class="st2" d="M526.8,341.3c5.7-12.8,2.7-17.2-3.1-15.1c-5.3,1.8-13.1,14.6-14.3,16.4c3.9-7.8,10.5-21.8,4.2-24.7
			c-5.5-2.5-17.9,15.9-18.1,16.1c0,0,2.8,2.6,26.8,16.3C522.2,350.3,525.7,343.8,526.8,341.3z"/>
		<path class="st2" d="M554.2,355.6c4.7-13.2,1.5-17.4-4.2-14.9c-5.1,2.2-12,15.5-13.1,17.4c3.4-8.1,8.9-22.5,2.4-24.9
			c-5.7-2.1-16.7,17.2-16.9,17.3c0,0,2.9,2.4,27.9,14.4C550.3,364.9,553.3,358.1,554.2,355.6z"/>
		<path class="st2" d="M583.1,365.3c2.8-13.7-1-17.4-6.3-14.1c-4.8,2.9-9.7,17.1-10.5,19.1c2.2-8.5,5.6-23.5-1.1-25
			c-5.9-1.3-14.2,19.4-14.3,19.5c0,0,3.3,2,29.6,10.3C580.6,375.1,582.7,368,583.1,365.3z"/>
		<path class="st2" d="M612.8,368.5c-0.8-14-5.4-16.6-9.6-12.1c-3.9,4-5,19-5.3,21.1c0-8.8-0.6-24.2-7.4-23.9
			c-6.1,0.2-8.8,22.3-8.9,22.5c0,0,3.7,1.1,31.3,2.4C612.8,378.6,613,371.2,612.8,368.5z"/>
		<path class="st2" d="M643.2,365.4c-3.5-13.6-8.6-15.2-11.9-9.9c-3,4.7-1.2,19.6-1,21.8c-1.8-8.6-5.4-23.6-12-22
			c-5.9,1.4-4.1,23.6-4.2,23.9c0,0,3.8,0.3,31.1-3.8C645.2,375.3,644,368,643.2,365.4z"/>
		<path class="st2" d="M672,354.8c-6.5-12.4-11.8-12.9-13.8-7c-1.9,5.3,3.3,19.3,3.9,21.4c-3.7-8-10.5-21.8-16.7-18.7
			c-5.4,2.7,1.3,24,1.3,24.2c0,0,3.8-0.5,29.5-10.8C676.2,364,673.3,357.2,672,354.8z"/>
		<path class="st2" d="M698.7,339.4c-8-11.5-13.3-11.3-14.6-5.2c-1.2,5.5,5.6,18.8,6.5,20.8c-4.6-7.4-13.2-20.3-18.9-16.5
			c-5,3.4,4.3,23.6,4.3,23.8c0,0,3.7-1,27.9-14.4C704,348,700.3,341.6,698.7,339.4z"/>
		<path class="st2" d="M727.1,325c-7.3-12-12.6-12.1-14.2-6.1c-1.5,5.4,4.5,19.1,5.3,21.1c-4.2-7.7-11.9-21-17.8-17.6
			c-5.2,3.1,2.8,23.8,2.8,24.1c0,0,3.7-0.8,28.7-12.6C731.9,333.9,728.6,327.3,727.1,325z"/>
		<path class="st2" d="M758,317.4c-5-13.1-10.2-14.1-12.9-8.5c-2.5,5,1,19.6,1.4,21.7c-2.7-8.3-8-22.8-14.4-20.5
			c-5.7,2.1-1.5,24-1.5,24.2c0,0,3.8-0.1,30.5-7.3C761.2,327,759.1,319.9,758,317.4z"/>
		<path class="st2" d="M790.6,315.4c-2.6-13.8-7.5-15.7-11.2-10.7c-3.3,4.5-2.5,19.5-2.5,21.6c-1.2-8.7-3.8-23.9-10.6-22.7
			c-6,1-5.7,23.3-5.8,23.5c0,0,3.8,0.6,31.3-1.8C792,325.4,791.2,318.1,790.6,315.4z"/>
		<path class="st2" d="M823,320.7c0.5-14-3.8-17-8.5-12.9c-4.2,3.6-6.8,18.4-7.2,20.5c0.8-8.7,1.7-24.1-5.2-24.5
			c-6.1-0.3-10.8,21.4-10.9,21.6c0,0,3.5,1.4,30.9,5.3C822.1,330.7,823,323.4,823,320.7z"/>
		<path class="st2" d="M853.7,330.3c2.8-13.7-1-17.4-6.3-14.1c-4.8,2.9-9.7,17.1-10.5,19.1c2.2-8.5,5.6-23.5-1.1-25
			c-5.9-1.3-14.2,19.4-14.3,19.5c0,0,3.3,2,29.6,10.3C851.1,340,853.2,332.9,853.7,330.3z"/>
		<path class="st2" d="M883.4,340.6c2.8-13.7-1-17.4-6.3-14.1c-4.8,2.9-9.7,17.1-10.5,19.1c2.2-8.5,5.6-23.5-1.1-25
			c-5.9-1.3-14.2,19.4-14.3,19.5c0,0,3.3,2,29.6,10.3C880.9,350.4,883,343.3,883.4,340.6z"/>
		<path class="st2" d="M913.7,347c1.6-13.9-2.5-17.3-7.4-13.6c-4.5,3.3-8.2,17.8-8.8,19.9c1.4-8.7,3.6-23.9-3.3-24.8
			c-6-0.8-12.4,20.5-12.6,20.7c0,0,3.4,1.7,30.4,7.7C911.9,356.9,913.4,349.7,913.7,347z"/>
		<path class="st2" d="M943.9,350.1c-0.1-14-4.6-16.8-9-12.6c-4.1,3.8-6,18.7-6.4,20.8c0.4-8.8,0.6-24.2-6.2-24.2
			c-6.1-0.1-9.9,21.9-10,22.1c0,0,3.6,1.3,31.1,4C943.4,360.2,943.9,352.8,943.9,350.1z"/>
		<path class="st2" d="M974.1,349.6c-2.6-13.8-7.5-15.7-11.1-10.7c-3.3,4.5-2.5,19.5-2.5,21.6c-1.2-8.7-3.7-23.9-10.5-22.7
			c-6,1-5.8,23.3-5.8,23.5c0,0,3.8,0.6,31.3-1.7C975.4,359.6,974.7,352.2,974.1,349.6z"/>
		<path class="st2" d="M1005.3,345.4c-3.5-13.6-8.6-15.2-11.9-9.9c-3,4.7-1.2,19.6-1,21.8c-1.8-8.6-5.4-23.6-12.1-21.9
			c-5.9,1.4-4.1,23.6-4.2,23.9c0,0,3.8,0.3,31.1-3.9C1007.3,355.2,1006,348,1005.3,345.4z"/>
		<path class="st2" d="M1033.6,334.1c-6.6-12.4-11.9-12.8-13.8-6.9c-1.8,5.3,3.4,19.3,4.1,21.4c-3.7-7.9-10.7-21.7-16.8-18.6
			c-5.4,2.8,1.5,24,1.4,24.2c0,0,3.8-0.5,29.4-11C1037.8,343.2,1034.9,336.4,1033.6,334.1z"/>
		<path class="st2" d="M1058.6,316c-8.9-10.8-14.2-10.2-14.9-4c-0.7,5.5,7.2,18.3,8.2,20.2c-5.2-7-14.8-19.1-20.2-14.8
			c-4.7,3.8,6.2,23.2,6.2,23.4c0,0,3.6-1.3,26.6-16.6C1064.6,324.1,1060.4,318.1,1058.6,316z"/>
		<path class="st2" d="M1079.8,293.6c-11.1-8.6-16-6.8-15.5-0.7c0.5,5.6,11,16.3,12.4,17.9c-6.6-5.7-18.6-15.5-22.9-10.1
			c-3.8,4.7,11.1,21.3,11.1,21.5c0,0,3.2-2,22.4-22C1087.4,300.2,1082,295.2,1079.8,293.6z"/>
		<path class="st2" d="M1099.6,269.5c-11.6-7.8-16.5-5.7-15.5,0.4c0.9,5.5,12.1,15.4,13.7,17c-7-5.2-19.6-14.1-23.6-8.5
			c-3.5,5,12.6,20.5,12.6,20.7c0,0,3.1-2.3,20.8-23.5C1107.7,275.6,1101.9,271,1099.6,269.5z"/>
		<path class="st2" d="M1122.5,247.3c-10.7-9-15.8-7.5-15.4-1.3c0.3,5.6,10.3,16.7,11.7,18.4c-6.4-6-18-16.2-22.5-11
			c-4,4.6,10.3,21.7,10.3,21.9c0,0,3.3-1.9,23.2-21.1C1129.8,254.2,1124.6,249,1122.5,247.3z"/>
		<path class="st2" d="M1149.6,230.3c-8.8-10.9-14.1-10.3-14.9-4.2c-0.8,5.5,7,18.3,8.1,20.2c-5.2-7.1-14.6-19.3-20-15
			c-4.8,3.7,6,23.2,6,23.5c0,0,3.6-1.3,26.8-16.4C1155.5,238.5,1151.4,232.4,1149.6,230.3z"/>
		<path class="st2" d="M1177.7,216.3c-7.6-11.8-12.9-11.7-14.4-5.7c-1.4,5.4,5.1,19,5.9,21c-4.4-7.6-12.5-20.7-18.4-17
			c-5.1,3.2,3.5,23.7,3.5,24c0,0,3.7-0.9,28.3-13.5C1182.7,225,1179.3,218.5,1177.7,216.3z"/>
		<path class="st2" d="M1201.9,197.3c-9.7-10.1-14.9-9.1-15.2-2.9c-0.3,5.6,8.5,17.7,9.7,19.5c-5.8-6.6-16.2-18-21.2-13.3
			c-4.5,4.1,7.9,22.7,7.9,22.9c0,0,3.5-1.5,25.3-18.6C1208.5,205,1203.8,199.2,1201.9,197.3z"/>
		<g>
			<path class="st3" d="M381.1,311.2c30.4-8,61.5,1.2,89.1,14.3c27.7,13.2,52.9,30.9,81.1,43.2c28.9,12.6,60.4,17.4,91.4,10.1
				c33.2-7.8,59.3-30.8,91.1-42c15.9-5.6,32.9-8.4,49.8-8.2c16.7,0.2,33,3.6,49,8.4c15.4,4.6,30.4,10.3,45.8,15
				c14.1,4.4,28.6,7.7,43.2,9.8c56.5,8.1,118.4-2.8,157.9-47c19.3-21.6,33.9-47.8,59.1-63.3c21.3-13.1,47.4-20.6,64.9-39.4
				c4.1-4.4,7.4-9.2,10-14.6c2-4-3.9-7.9-5.9-3.8c-11.4,23.5-37.5,33-59.3,44.2c-11.6,6-22.7,12.9-32.2,22
				c-10.6,10.2-19.4,22-28.3,33.6c-8.9,11.5-18.1,22.6-29.5,31.7c-11.1,8.9-23.7,15.8-36.9,20.9c-27,10.3-56.7,12.7-85.3,10.2
				c-14.7-1.3-29.4-3.9-43.7-7.6c-15.2-4-30-9.5-45-14.5c-15-5-30.2-9.4-45.9-11.5c-16.3-2.2-32.9-1.5-49,1.6
				c-16,3.1-31.1,9.1-45.5,16.7c-14.8,7.9-29,17-44.4,23.7c-30.5,13.2-64.4,13.4-95.6,2.5c-55.9-19.6-103.4-68.6-166.1-66.1
				c-7.2,0.3-14.3,1.3-21.3,3.2C375.2,305.5,376.7,312.4,381.1,311.2L381.1,311.2z"/>
		</g>
	</g>
	<path id="XMLID_51_" class="st4" d="M577.4,334.5c-3.2-0.7-5.6-1.2-8.5-1.9c-2.7,10.4-5.3,20.6-8.1,31.4c-5-8.8-9.5-16.8-14.3-25.3
		c-2.3,1.9-4.1,3.4-6,5c5.6,7.7,11.1,15.1,17,23.2c-10.6-2.9-20.4-5.5-30.5-8.2c-0.3,2.2-0.6,3.8-0.8,5.5c9.2,3,18,5.9,27.5,9
		c-7.9,4.4-15,8.2-22.4,12.4c1.9,2.1,3.3,3.7,5,5.6c7-4.4,13.8-8.7,21.2-13.4c-2,9.3-3.8,17.7-5.7,26.4c3.1,0.6,5.5,1.1,8.4,1.7
		c1.2-9.2,2.3-18.3,3.5-27.4c0.3,0,0.5,0,0.8-0.1c4.3,8.1,8.6,16.3,12.9,24.4c2.3-1,4-1.7,6-2.5c-4.6-7.2-9-14.2-14-22.2
		c10.7,3.4,20.3,6.4,30.2,9.5c0.9-3.1,1.7-5.7,2.6-8.5c-10.6-2.9-20.7-5.7-31.5-8.7c8.7-5.5,16.8-10.6,24.9-15.8
		c-0.9-2-1.6-3.7-2.6-5.9c-8.5,5.4-16.7,10.6-25.9,16.4C570.6,354.4,574,344.6,577.4,334.5z"/>
	<path id="XMLID_27_" class="st4" d="M396.9,271.6c-3.2-0.7-5.6-1.2-8.5-1.9c-2.7,10.4-5.3,20.6-8.1,31.4c-5-8.8-9.5-16.8-14.3-25.3
		c-2.3,1.9-4.1,3.4-6,5c5.6,7.7,11.1,15.1,17,23.2c-10.6-2.9-20.4-5.5-30.5-8.2c-0.3,2.2-0.6,3.8-0.8,5.5c9.2,3,18,5.9,27.5,9
		c-7.9,4.4-15,8.2-22.4,12.4c1.9,2.1,3.3,3.7,5,5.6c7-4.4,13.8-8.7,21.2-13.4c-2,9.3-3.8,17.7-5.7,26.4c3.1,0.6,5.5,1.1,8.4,1.7
		c1.2-9.2,2.3-18.3,3.5-27.4c0.3,0,0.5,0,0.8-0.1c4.3,8.1,8.6,16.3,12.9,24.4c2.3-1,4-1.7,6-2.5c-4.6-7.2-9-14.2-14-22.2
		c10.7,3.4,20.3,6.4,30.2,9.5c0.9-3.1,1.7-5.7,2.6-8.5c-10.6-2.9-20.7-5.7-31.5-8.7c8.7-5.5,16.8-10.6,24.9-15.8
		c-0.9-2-1.6-3.7-2.6-5.9c-8.5,5.4-16.7,10.6-25.9,16.4C390.2,291.4,393.5,281.6,396.9,271.6z"/>
	<path id="XMLID_26_" class="st4" d="M753.4,294.7c-3.2-0.7-5.6-1.2-8.5-1.9c-2.7,10.4-5.3,20.6-8.1,31.4c-5-8.8-9.5-16.8-14.3-25.3
		c-2.3,1.9-4.1,3.4-6,5c5.6,7.7,11.1,15.1,17,23.2c-10.6-2.9-20.4-5.5-30.5-8.2c-0.3,2.2-0.6,3.8-0.8,5.5c9.2,3,18,5.9,27.5,9
		c-7.9,4.4-15,8.2-22.4,12.4c1.9,2.1,3.3,3.7,5,5.6c7-4.4,13.8-8.7,21.2-13.4c-2,9.3-3.8,17.7-5.7,26.4c3.1,0.6,5.5,1.1,8.4,1.7
		c1.2-9.2,2.3-18.3,3.5-27.4c0.3,0,0.5,0,0.8-0.1c4.3,8.1,8.6,16.3,12.9,24.4c2.3-1,4-1.7,6-2.5c-4.6-7.2-9-14.2-14-22.2
		c10.7,3.4,20.3,6.4,30.2,9.5c0.9-3.1,1.7-5.7,2.6-8.5c-10.6-2.9-20.7-5.7-31.5-8.7c8.7-5.5,16.8-10.6,24.9-15.8
		c-0.9-2-1.6-3.7-2.6-5.9c-8.5,5.4-16.7,10.6-25.9,16.4C746.7,314.5,750,304.7,753.4,294.7z"/>
	<path id="XMLID_25_" class="st4" d="M985.9,328.9c-3.2-0.7-5.6-1.2-8.5-1.9c-2.7,10.4-5.3,20.6-8.1,31.4c-5-8.8-9.5-16.8-14.3-25.3
		c-2.3,1.9-4.1,3.4-6,5c5.6,7.7,11.1,15.1,17,23.2c-10.6-2.9-20.4-5.5-30.5-8.2c-0.3,2.2-0.6,3.8-0.8,5.5c9.2,3,18,5.9,27.5,9
		c-7.9,4.4-15,8.2-22.4,12.4c1.9,2.1,3.3,3.7,5,5.6c7-4.4,13.8-8.7,21.2-13.4c-2,9.3-3.8,17.7-5.7,26.4c3.1,0.6,5.5,1.1,8.4,1.7
		c1.2-9.2,2.3-18.3,3.5-27.4c0.3,0,0.5,0,0.8-0.1c4.3,8.1,8.6,16.3,12.9,24.4c2.3-1,4-1.7,6-2.5c-4.6-7.2-9-14.2-14-22.2
		c10.7,3.4,20.3,6.4,30.2,9.5c0.9-3.1,1.7-5.7,2.6-8.5c-10.6-2.9-20.7-5.7-31.5-8.7c8.7-5.5,16.8-10.6,24.9-15.8
		c-0.9-2-1.6-3.7-2.6-5.9c-8.5,5.4-16.7,10.6-25.9,16.4C979.1,348.7,982.5,338.9,985.9,328.9z"/>
	<path id="XMLID_3_" class="st4" d="M1228.3,158c-3.2-0.7-5.6-1.2-8.5-1.9c-2.7,10.4-5.3,20.6-8.1,31.4c-5-8.8-9.5-16.8-14.3-25.3
		c-2.3,1.9-4.1,3.4-6,5c5.6,7.7,11.1,15.1,17,23.2c-10.6-2.9-20.4-5.5-30.5-8.2c-0.3,2.2-0.6,3.8-0.8,5.5c9.2,3,18,5.9,27.5,9
		c-7.9,4.4-15,8.2-22.4,12.4c1.9,2.1,3.3,3.7,5,5.6c7-4.4,13.8-8.7,21.2-13.4c-2,9.3-3.8,17.7-5.7,26.4c3.1,0.6,5.5,1.1,8.4,1.7
		c1.2-9.2,2.3-18.3,3.5-27.4c0.3,0,0.5,0,0.8-0.1c4.3,8.1,8.6,16.3,12.9,24.4c2.3-1,4-1.7,6-2.5c-4.6-7.2-9-14.2-14-22.2
		c10.7,3.4,20.3,6.4,30.2,9.5c0.9-3.1,1.7-5.7,2.6-8.5c-10.6-2.9-20.7-5.7-31.5-8.7c8.7-5.5,16.8-10.6,24.9-15.8
		c-0.9-2-1.6-3.7-2.6-5.9c-8.5,5.4-16.7,10.6-25.9,16.4C1221.6,177.9,1224.9,168.1,1228.3,158z"/>
</g>
<g>
	<g>
		<path class="st2" d="M258.2,420.5c1.4-14.1-2.8-17.3-7.7-13.5c-4.5,3.4-8,18.1-8.6,20.2c1.3-8.7,3.2-24.1-3.7-24.9
			c-6.1-0.7-12.2,20.9-12.3,21c0,0,3.5,1.7,30.8,7.3C256.6,430.5,258,423.2,258.2,420.5z"/>
		<path class="st2" d="M224.8,432.9c-1.7,14,2.4,17.4,7.4,13.7c4.6-3.3,8.3-17.9,9-20c-1.5,8.7-3.7,24.1,3.2,25
			c6.1,0.8,12.6-20.6,12.8-20.8c0,0-3.4-1.7-30.6-7.9C226.6,422.9,225.1,430.1,224.8,432.9z"/>
		<path class="st2" d="M254.8,441.3c-4.3,13.5-0.8,17.5,4.8,14.8c5.1-2.4,11.5-16.1,12.5-18c-3.1,8.3-8.1,23-1.5,25.2
			c5.8,1.9,16.2-17.9,16.4-18.1c0,0-3-2.3-28.6-13.4C258.4,431.8,255.5,438.7,254.8,441.3z"/>
		<path class="st2" d="M281,456.5c-7.7,11.8-5.5,16.7,0.7,15.6c5.6-1,15.4-12.4,16.9-14c-5.2,7.2-13.9,20-8.1,23.9
			c5.1,3.4,20.4-13,20.6-13.1c0,0-2.3-3.1-24-20.5C286.9,448.3,282.4,454.2,281,456.5z"/>
		<path class="st2" d="M305.9,475.4c-9.2,10.7-7.6,15.8-1.4,15.5c5.6-0.2,16.8-10.3,18.5-11.7c-6.1,6.4-16.4,18-11.2,22.6
			c4.6,4,21.9-10.2,22.1-10.3c0,0-1.9-3.3-21.1-23.5C312.9,468,307.6,473.2,305.9,475.4z"/>
		<path class="st2" d="M327.9,497.8c-9.2,10.7-7.6,15.8-1.4,15.5c5.6-0.2,16.8-10.3,18.5-11.7c-6.1,6.4-16.4,18-11.2,22.6
			c4.6,4,21.9-10.2,22.1-10.3c0,0-1.9-3.3-21.1-23.5C334.9,490.4,329.6,495.7,327.9,497.8z"/>
		<path class="st2" d="M348.8,521.8c-8.4,11.4-6.5,16.3-0.3,15.6c5.6-0.6,16.1-11.5,17.7-13c-5.6,6.8-15.1,19.1-9.6,23.3
			c4.9,3.7,21.1-11.7,21.3-11.8c0,0-2.1-3.2-22.7-21.9C355.2,514,350.3,519.6,348.8,521.8z"/>
		<path class="st2" d="M371.4,545c-6.6,12.5-3.9,17.1,2.1,15.4c5.4-1.5,14.1-13.8,15.5-15.5c-4.5,7.6-12,21.2-5.9,24.5
			c5.4,2.9,19.1-14.8,19.3-14.9c0,0-2.6-2.8-25.8-18.2C376.6,536.3,372.6,542.6,371.4,545z"/>
		<path class="st2" d="M397.4,563.3c-3.9,13.6-0.4,17.6,5.2,14.7c5-2.5,11.1-16.4,12-18.3c-2.9,8.4-7.5,23.2-0.8,25.2
			c5.9,1.8,15.7-18.4,15.9-18.5c0,0-3.1-2.3-29-12.7C400.7,553.7,398.1,560.7,397.4,563.3z"/>
		<path class="st2" d="M428.1,577.8c-0.6,14.1,3.8,17.1,8.5,13c4.3-3.7,6.9-18.5,7.3-20.7c-0.8,8.8-1.7,24.3,5.2,24.7
			c6.1,0.3,10.9-21.6,11-21.7c0,0-3.6-1.4-31.1-5.4C429.1,567.7,428.2,575.1,428.1,577.8z"/>
		<path class="st2" d="M461.7,580.8c2.5,13.9,7.4,15.9,11.1,10.9c3.4-4.5,2.7-19.6,2.7-21.8c1.1,8.8,3.5,24.1,10.4,23
			c6-1,6-23.4,6.1-23.6c0,0-3.8-0.6-31.6,1.4C460.4,570.7,461.1,578.1,461.7,580.8z"/>
		<path class="st2" d="M494.9,578.4c4.3,13.5,9.4,14.8,12.5,9.3c2.8-4.9,0.1-19.8-0.2-21.9c2.3,8.5,6.7,23.4,13.3,21.4
			c5.9-1.8,2.9-24,3-24.2c0,0-3.8-0.1-31.1,5.6C492.3,568.5,494,575.8,494.9,578.4z"/>
		<path class="st2" d="M525.6,571.7c3.1,13.8,8.1,15.6,11.6,10.4c3.2-4.6,1.9-19.7,1.8-21.9c1.5,8.7,4.5,23.9,11.3,22.5
			c6-1.2,5-23.6,5.1-23.8c0,0-3.8-0.5-31.5,2.7C524,561.7,525,569,525.6,571.7z"/>
		<path class="st2" d="M556.6,566.3c0.5,14.1,5.1,16.8,9.5,12.3c4-4,5.4-19,5.7-21.2c-0.1,8.8,0.1,24.4,7.1,24.2
			c6.1-0.1,9.2-22.3,9.3-22.5c0,0-3.7-1.2-31.5-3C556.8,556.2,556.4,563.6,556.6,566.3z"/>
		<path class="st2" d="M587.3,569.9c-2.6,13.9,1.3,17.5,6.5,14.1c4.8-3,9.5-17.3,10.3-19.4c-2.1,8.6-5.3,23.8,1.5,25.2
			c6,1.2,13.9-19.7,14.1-19.9c0,0-3.3-1.9-30-9.9C589.7,560,587.8,567.2,587.3,569.9z"/>
		<path class="st2" d="M616.3,580.2c-5.4,13.1-2.3,17.4,3.5,15.2c5.3-2,12.8-15,14-16.9c-3.8,8-10,22.2-3.6,24.9
			c5.6,2.4,17.7-16.5,17.9-16.6c0,0-2.8-2.6-27.4-15.8C620.7,571.1,617.3,577.7,616.3,580.2z"/>
		<path class="st2" d="M643.2,595.3c-7.1,12.2-4.7,16.9,1.4,15.5c5.5-1.2,14.8-13.1,16.2-14.8c-4.8,7.4-13,20.6-7,24.2
			c5.2,3.2,19.8-13.9,20-14c0,0-2.5-2.9-24.9-19.4C648.8,586.8,644.5,592.9,643.2,595.3z"/>
		<path class="st2" d="M669.4,613.6c-7.1,12.2-4.7,16.9,1.4,15.5c5.5-1.2,14.8-13.1,16.2-14.8c-4.8,7.4-13,20.6-7,24.2
			c5.2,3.2,19.8-13.9,20-14c0,0-2.5-2.9-24.9-19.4C674.9,605.1,670.7,611.2,669.4,613.6z"/>
		<path class="st2" d="M695,633.8c-5.7,12.9-2.8,17.3,3.1,15.3c5.3-1.8,13.2-14.7,14.5-16.5c-4,7.9-10.6,21.9-4.3,24.8
			c5.5,2.6,18.1-16,18.3-16.1c0,0-2.8-2.7-26.9-16.5C699.6,624.8,696,631.3,695,633.8z"/>
		<path class="st2" d="M723.6,649.5c-3.9,13.6-0.4,17.6,5.2,14.7c5-2.5,11.1-16.4,12-18.3c-2.9,8.4-7.4,23.2-0.8,25.2
			c5.9,1.8,15.7-18.4,15.9-18.5c0,0-3.1-2.2-29-12.6C726.9,639.9,724.3,646.9,723.6,649.5z"/>
		<path class="st2" d="M754,662c-2.4,13.9,1.6,17.5,6.8,14c4.7-3.1,9.2-17.5,9.9-19.6c-1.9,8.6-4.8,23.9,2,25.1
			c6,1.1,13.6-20,13.7-20.2c0,0-3.3-1.9-30.2-9.3C756.2,652.1,754.4,659.3,754,662z"/>
		<path class="st2" d="M785.8,669c-0.6,14.1,3.7,17.2,8.5,13.1c4.3-3.6,6.9-18.5,7.4-20.6c-0.8,8.8-1.9,24.3,5.1,24.7
			c6.1,0.4,11-21.5,11.1-21.7c0,0-3.6-1.5-31.1-5.6C786.8,658.9,785.8,666.3,785.8,669z"/>
		<path class="st2" d="M819.2,673.5c2.5,13.9,7.5,15.9,11.2,10.9c3.4-4.5,2.7-19.6,2.7-21.8c1.1,8.8,3.6,24.1,10.4,23
			c6-1,6-23.4,6.1-23.6c0,0-3.8-0.6-31.6,1.5C818,663.5,818.7,670.9,819.2,673.5z"/>
		<path class="st2" d="M851.5,670.4c5.3,13.1,10.5,14.1,13.1,8.4c2.4-5.1-1.3-19.7-1.7-21.9c2.9,8.4,8.3,22.9,14.8,20.4
			c5.7-2.2,1.1-24.1,1.2-24.4c0,0-3.8,0.1-30.6,7.8C848.2,660.8,850.4,667.9,851.5,670.4z"/>
		<path class="st2" d="M883,661.9c8,11.6,13.3,11.4,14.6,5.3c1.2-5.5-5.6-18.9-6.5-20.9c4.6,7.5,13.2,20.5,18.9,16.6
			c5.1-3.4-4.2-23.8-4.2-24c0,0-3.7,1-28.2,14.4C877.7,653.3,881.4,659.7,883,661.9z"/>
		<path class="st2" d="M911.6,645.4c9.3,10.6,14.6,9.8,15.2,3.6c0.6-5.6-7.8-18.1-8.9-20c5.5,6.9,15.5,18.8,20.8,14.3
			c4.7-4-7-23.1-7-23.4c0,0-3.6,1.4-26.3,17.6C905.3,637.4,909.7,643.4,911.6,645.4z"/>
		<path class="st2" d="M936.5,626.5c7.3,12.1,12.6,12.2,14.3,6.2c1.6-5.4-4.5-19.2-5.3-21.3c4.2,7.8,12,21.2,17.9,17.7
			c5.3-3.1-2.8-24-2.8-24.2c0,0-3.8,0.8-28.9,12.7C931.7,617.5,935,624.2,936.5,626.5z"/>
		<path class="st2" d="M964.6,612.5c3.8,13.6,8.9,15.1,12.1,9.8c2.9-4.8,0.8-19.7,0.6-21.9c2,8.6,5.8,23.6,12.5,21.9
			c5.9-1.6,3.7-23.9,3.8-24.1c0,0-3.8-0.3-31.3,4.5C962.4,602.6,963.8,609.9,964.6,612.5z"/>
		<path class="st2" d="M996.5,607.6c4.3,13.5,9.5,14.8,12.5,9.3c2.8-4.9,0.1-19.8-0.2-21.9c2.3,8.5,6.7,23.4,13.3,21.4
			c5.9-1.8,2.9-24,2.9-24.2c0,0-3.8-0.1-31.1,5.6C993.9,597.7,995.6,605,996.5,607.6z"/>
		<path class="st2" d="M1028.8,600.8c7.5,12,12.8,12,14.4,6c1.5-5.4-4.8-19.2-5.6-21.2c4.3,7.7,12.3,21,18.2,17.4
			c5.2-3.2-3.2-24-3.2-24.2c0,0-3.8,0.8-28.8,13.1C1023.9,591.9,1027.3,598.5,1028.8,600.8z"/>
		<path class="st2" d="M287.8,434.8c4.8-13.3,1.5-17.5-4.2-15c-5.2,2.2-12.1,15.6-13.2,17.5c3.4-8.2,8.9-22.7,2.4-25.1
			c-5.7-2.2-16.9,17.3-17,17.4c0,0,3,2.4,28.1,14.5C283.9,444.1,286.9,437.4,287.8,434.8z"/>
		<path class="st2" d="M312.9,456c7.2-12.1,4.8-16.9-1.3-15.5c-5.5,1.2-14.9,13-16.3,14.6c4.9-7.4,13.1-20.5,7.2-24.2
			c-5.2-3.2-19.9,13.7-20.1,13.8c0,0,2.4,3,24.8,19.6C307.2,464.4,311.5,458.4,312.9,456z"/>
		<path class="st2" d="M336.2,477.8c8.6-11.2,6.8-16.2,0.6-15.6c-5.6,0.5-16.3,11.2-17.9,12.6c5.7-6.7,15.4-18.8,10-23.1
			c-4.8-3.8-21.4,11.3-21.6,11.4c0,0,2.1,3.2,22.3,22.4C329.6,485.5,334.6,480,336.2,477.8z"/>
		<path class="st2" d="M356.2,501.9c9.4-10.5,7.9-15.7,1.7-15.5c-5.6,0.1-17.1,9.9-18.8,11.3c6.2-6.3,16.8-17.7,11.7-22.3
			c-4.5-4.1-22.1,9.7-22.3,9.8c0,0,1.8,3.4,20.6,24C349,509.1,354.4,504,356.2,501.9z"/>
		<path class="st2" d="M378,524c8.6-11.2,6.8-16.2,0.6-15.6c-5.6,0.5-16.3,11.2-17.9,12.6c5.7-6.7,15.5-18.8,10-23.1
			c-4.8-3.8-21.4,11.3-21.6,11.4c0,0,2.1,3.2,22.3,22.4C371.4,531.7,376.4,526.2,378,524z"/>
		<path class="st2" d="M402.7,542.4c6.9-12.3,4.4-17-1.6-15.5c-5.5,1.3-14.6,13.3-16,15c4.7-7.5,12.6-20.8,6.7-24.3
			c-5.3-3.1-19.6,14.2-19.8,14.3c0,0,2.5,2.9,25.2,19C397.3,550.9,401.5,544.8,402.7,542.4z"/>
		<path class="st2" d="M430.2,554.6c3.6-13.7,0-17.6-5.5-14.6c-5,2.6-10.7,16.6-11.6,18.6c2.7-8.4,6.9-23.3,0.3-25.2
			c-5.9-1.7-15.3,18.7-15.5,18.8c0,0,3.2,2.2,29.2,12C427.1,564.2,429.5,557.2,430.2,554.6z"/>
		<path class="st2" d="M460.3,561c0.8-14.1-3.5-17.2-8.3-13.2c-4.3,3.6-7.2,18.4-7.7,20.5c0.9-8.8,2.2-24.3-4.7-24.8
			c-6.1-0.4-11.3,21.4-11.4,21.5c0,0,3.5,1.5,31,6C459.2,571.1,460.2,563.8,460.3,561z"/>
		<path class="st2" d="M491.1,559.8c-2.4-13.9-7.3-16-11.1-11c-3.4,4.5-2.8,19.5-2.9,21.7c-1.1-8.8-3.4-24.1-10.2-23.1
			c-6,0.9-6.2,23.4-6.3,23.6c0,0,3.8,0.7,31.6-1.2C492.3,569.8,491.7,562.4,491.1,559.8z"/>
		<path class="st2" d="M521.5,553.3c-4.1-13.5-9.2-14.9-12.3-9.5c-2.8,4.9-0.4,19.8-0.2,21.9c-2.1-8.6-6.3-23.5-13-21.6
			c-5.9,1.7-3.2,24-3.3,24.2c0,0,3.8,0.2,31.2-5.1C523.9,563.2,522.4,555.9,521.5,553.3z"/>
		<path class="st2" d="M553.2,548.3c-3.3-13.7-8.3-15.5-11.7-10.2c-3.1,4.7-1.6,19.7-1.5,21.9c-1.6-8.7-4.9-23.9-11.7-22.4
			c-6,1.3-4.7,23.7-4.8,23.9c0,0,3.8,0.4,31.4-3.2C555,558.3,553.9,551,553.2,548.3z"/>
		<path class="st2" d="M585.2,550.6c-0.8-14.1-5.4-16.7-9.7-12.2c-3.9,4.1-5.1,19.1-5.4,21.3c0-8.8-0.6-24.3-7.5-24.1
			c-6.1,0.2-8.8,22.5-8.9,22.7c0,0,3.7,1.1,31.5,2.4C585.2,560.8,585.4,553.3,585.2,550.6z"/>
		<path class="st2" d="M617,558.8c1.7-14-2.4-17.4-7.4-13.7c-4.6,3.3-8.4,17.9-9.1,20c1.5-8.7,3.8-24.1-3.1-25
			c-6.1-0.9-12.7,20.6-12.8,20.7c0,0,3.4,1.7,30.6,8C615.2,568.8,616.8,561.5,617,558.8z"/>
		<path class="st2" d="M646.4,573.8c4.8-13.3,1.6-17.5-4.1-15c-5.2,2.2-12.2,15.5-13.3,17.4c3.4-8.1,9.1-22.6,2.6-25.1
			c-5.7-2.2-17,17.2-17.2,17.3c0,0,2.9,2.5,28,14.6C642.4,583.1,645.6,576.4,646.4,573.8z"/>
		<path class="st2" d="M672.8,592.5c7-12.3,4.4-17-1.6-15.5c-5.5,1.3-14.6,13.3-16,15c4.7-7.5,12.7-20.8,6.7-24.3
			c-5.3-3.1-19.6,14.2-19.8,14.3c0,0,2.5,2.9,25.2,19C667.4,601.1,671.5,594.9,672.8,592.5z"/>
		<path class="st2" d="M698.1,611.6c7-12.3,4.4-17-1.6-15.5c-5.5,1.3-14.6,13.3-16,15c4.7-7.5,12.7-20.8,6.7-24.3
			c-5.3-3.1-19.6,14.2-19.8,14.3c0,0,2.5,2.9,25.2,19C692.7,620.2,696.9,614.1,698.1,611.6z"/>
		<path class="st2" d="M725.1,627.1c5.9-12.8,3-17.3-2.9-15.3c-5.4,1.8-13.4,14.5-14.6,16.3c4.1-7.8,10.8-21.8,4.6-24.8
			c-5.5-2.6-18.3,15.8-18.5,15.9c0,0,2.7,2.7,26.8,16.8C720.4,636.1,724,629.6,725.1,627.1z"/>
		<path class="st2" d="M753.1,639.5c4.3-13.5,0.8-17.5-4.8-14.8c-5.1,2.4-11.5,16-12.5,18c3.1-8.3,8.1-23,1.5-25.2
			c-5.8-1.9-16.2,17.9-16.4,18c0,0,3,2.3,28.6,13.4C749.5,649,752.3,642.1,753.1,639.5z"/>
		<path class="st2" d="M782.3,648.3c1.8-14-2.3-17.4-7.4-13.7c-4.6,3.3-8.4,17.9-9.1,20c1.5-8.7,3.8-24.1-3-25
			c-6.1-0.9-12.7,20.5-12.9,20.7c0,0,3.4,1.7,30.6,8.1C780.4,658.3,782,651,782.3,648.3z"/>
		<path class="st2" d="M813.4,653.9c0.8-14.1-3.5-17.2-8.3-13.2c-4.3,3.6-7.2,18.4-7.7,20.5c0.9-8.8,2.1-24.3-4.8-24.8
			c-6.1-0.4-11.3,21.4-11.4,21.6c0,0,3.5,1.5,31,5.9C812.3,664,813.3,656.6,813.4,653.9z"/>
		<path class="st2" d="M844,651.8c-2.5-13.9-7.4-15.9-11.1-10.9c-3.4,4.5-2.7,19.6-2.7,21.8c-1.1-8.8-3.5-24.1-10.4-23
			c-6,1-6,23.4-6.1,23.6c0,0,3.8,0.6,31.6-1.4C845.3,661.9,844.6,654.5,844,651.8z"/>
		<path class="st2" d="M873.6,642.3c-5.2-13.1-10.4-14.1-13.1-8.5c-2.4,5.1,1.2,19.7,1.7,21.9c-2.8-8.4-8.3-22.9-14.7-20.5
			c-5.7,2.2-1.2,24.1-1.3,24.4c0,0,3.8-0.1,30.7-7.7C876.8,651.9,874.6,644.8,873.6,642.3z"/>
		<path class="st2" d="M900.8,627.4c-7.9-11.7-13.2-11.5-14.6-5.4c-1.3,5.5,5.5,19,6.3,21c-4.6-7.5-13-20.6-18.8-16.8
			c-5.1,3.4,4,23.8,4,24.1c0,0,3.7-0.9,28.3-14.1C906.1,636.1,902.4,629.6,900.8,627.4z"/>
		<path class="st2" d="M927.3,610.4c-8.7-11.1-14-10.5-14.9-4.4c-0.9,5.6,6.8,18.5,7.8,20.5c-5.1-7.2-14.5-19.6-20-15.4
			c-4.9,3.7,5.7,23.5,5.7,23.7c0,0,3.6-1.2,27.2-16.1C933.1,618.7,929.1,612.5,927.3,610.4z"/>
		<path class="st2" d="M956.1,596.2c-7.5-12-12.8-12-14.4-6c-1.5,5.4,4.7,19.2,5.5,21.2c-4.3-7.7-12.2-21.1-18.2-17.5
			c-5.2,3.2,3.1,24,3.1,24.2c0,0,3.8-0.8,28.8-13C961,605.1,957.6,598.5,956.1,596.2z"/>
		<path class="st2" d="M987.3,588.4c-5.1-13.2-10.3-14.2-13-8.6c-2.5,5.1,1,19.7,1.5,21.9c-2.8-8.4-8-23-14.5-20.6
			c-5.7,2.1-1.5,24.1-1.5,24.3c0,0,3.8-0.1,30.7-7.4C990.5,598,988.4,590.9,987.3,588.4z"/>
		<path class="st2" d="M1018.6,583.6c-3.7-13.6-8.8-15.2-12-9.9c-3,4.8-1,19.7-0.8,21.9c-1.9-8.6-5.6-23.7-12.3-22
			c-5.9,1.5-4,23.8-4,24.1c0,0,3.8,0.3,31.3-4.2C1020.7,593.6,1019.4,586.3,1018.6,583.6z"/>
		<path class="st2" d="M1047.6,572.9c-6.2-12.7-11.5-13.3-13.7-7.5c-2,5.3,2.7,19.6,3.3,21.7c-3.5-8.1-9.9-22.2-16.2-19.3
			c-5.5,2.6,0.6,24.2,0.5,24.4c0,0,3.8-0.4,30-9.9C1051.6,582.3,1048.9,575.4,1047.6,572.9z"/>
		<g>
			<path class="st3" d="M225.9,428c31.6,1.7,58.6,20.2,80.9,41.3c22.5,21.2,41.2,46,64.4,66.5c23.8,21,52.5,35.3,84.4,38
				c34.3,2.8,66.4-11.2,100.3-12c17-0.4,34.1,2.1,50.3,7.6c16,5.4,30.5,13.7,44.4,23.2c13.3,9.2,26,19.3,39.2,28.6
				c12.2,8.6,25,16.2,38.4,22.8c51.6,25.2,114.3,34,165.8,3.9c25.2-14.7,47.3-35.3,76.3-42.4c24.5-6,51.8-5,74.3-17.6
				c5.2-2.9,10-6.5,14.1-10.8c3.1-3.3-1.3-8.8-4.5-5.5c-18.2,19-46.1,20-70.5,24.1c-13,2.2-25.7,5.3-37.6,11.1
				c-13.3,6.5-25.4,15.1-37.5,23.4c-12,8.2-24.4,16-38,21.3c-13.4,5.1-27.6,7.8-41.9,8.6c-29.1,1.5-58.2-5.4-84.9-16.6
				c-13.7-5.8-26.9-12.8-39.5-20.8c-13.3-8.6-25.8-18.4-38.6-27.8c-12.8-9.4-26.1-18.4-40.5-25.2c-14.9-7.1-31.1-11.7-47.5-13.6
				c-16.3-1.9-32.7-1-48.8,1.9c-16.6,3-33.1,7.3-49.9,9c-33.3,3.2-65.9-7.1-92.4-27.2c-47.5-36.1-77.9-97.7-138.7-114.8
				c-7-2-14.2-3.2-21.4-3.6C222.1,420.6,221.3,427.7,225.9,428L225.9,428z"/>
		</g>
	</g>
	<path id="XMLID_00000025405728029302388610000010997336076291535766_" class="st4" d="M406.8,511.1c-2.8-1.7-5-2.9-7.5-4.4
		c-5.8,9.1-11.5,18.1-17.5,27.6c-2-10-3.9-19.1-5.9-28.7c-2.8,1.1-5,2-7.3,3c3,9.1,5.9,17.9,9.1,27.5c-9.3-6-17.8-11.6-26.7-17.3
		c-1,2-1.7,3.4-2.5,5c7.8,5.7,15.4,11.2,23.6,17.1c-9,1.7-16.9,3.3-25.3,4.9c1.1,2.6,2,4.6,3,6.9c8.1-2.1,15.9-4.1,24.5-6.3
		c-4.8,8.3-9.2,15.8-13.7,23.5c2.8,1.5,5,2.8,7.5,4.2c4-8.5,7.9-16.8,11.8-25.2c0.3,0.1,0.5,0.1,0.8,0.2c1.6,9.1,3.2,18.2,4.8,27.3
		c2.6-0.2,4.3-0.4,6.6-0.6c-2.1-8.4-4.2-16.4-6.6-25.6c9.2,6.5,17.5,12.4,26,18.5c1.8-2.7,3.4-5,5.1-7.4c-9.2-6.1-18.1-11.9-27.5-18
		c10.1-2.6,19.4-5,28.8-7.4c-0.2-2.2-0.4-4.1-0.7-6.5c-9.8,2.5-19.3,5-29.9,7.7C394.2,528,400.4,519.6,406.8,511.1z"/>
	<path id="XMLID_00000000904981310749023980000017293042807474257551_" class="st4" d="M253.4,394.9c-2.8-1.7-5-2.9-7.5-4.4
		c-5.8,9.1-11.5,18.1-17.5,27.6c-2-10-3.9-19.1-5.9-28.7c-2.8,1.1-5,2-7.3,3c3,9.1,5.9,17.9,9.1,27.5c-9.3-6-17.8-11.6-26.7-17.3
		c-1,2-1.7,3.4-2.5,5c7.8,5.7,15.4,11.2,23.6,17.1c-9,1.7-16.9,3.3-25.3,4.9c1.1,2.6,2,4.6,3,6.9c8.1-2.1,15.9-4.1,24.5-6.3
		c-4.8,8.3-9.2,15.8-13.7,23.5c2.8,1.5,5,2.8,7.5,4.2c4-8.5,7.9-16.8,11.8-25.2c0.3,0.1,0.5,0.1,0.8,0.2c1.6,9.1,3.2,18.2,4.8,27.3
		c2.6-0.2,4.3-0.4,6.6-0.6c-2.1-8.4-4.2-16.4-6.6-25.6c9.2,6.5,17.5,12.4,26,18.5c1.8-2.7,3.4-5,5.1-7.4c-9.2-6.1-18.1-11.9-27.5-18
		c10.1-2.6,19.4-5,28.8-7.4c-0.2-2.2-0.4-4.1-0.7-6.5c-9.8,2.5-19.3,5-29.9,7.7C240.8,411.8,247,403.4,253.4,394.9z"/>
	<path id="XMLID_00000008860223469037103860000004451034947803725184_" class="st4" d="M730.2,600.3c-2.8-1.7-5-2.9-7.5-4.4
		c-5.8,9.1-11.5,18.1-17.5,27.6c-2-10-3.9-19.1-5.9-28.7c-2.8,1.1-5,2-7.3,3c3,9.1,5.9,17.9,9.1,27.5c-9.3-6-17.8-11.6-26.7-17.3
		c-1,2-1.7,3.4-2.5,5c7.8,5.7,15.4,11.2,23.6,17.1c-9,1.7-16.9,3.3-25.3,4.9c1.1,2.6,2,4.6,3,6.9c8.1-2.1,15.9-4.1,24.5-6.3
		c-4.8,8.3-9.2,15.8-13.7,23.5c2.8,1.5,5,2.8,7.5,4.2c4-8.5,7.9-16.8,11.8-25.2c0.3,0.1,0.5,0.1,0.8,0.2c1.6,9.1,3.2,18.2,4.8,27.3
		c2.6-0.2,4.3-0.4,6.6-0.6c-2.1-8.4-4.2-16.4-6.6-25.6c9.2,6.5,17.5,12.4,26,18.5c1.8-2.7,3.4-5,5.1-7.4c-9.2-6.1-18.1-11.9-27.5-18
		c10.1-2.6,19.4-5,28.8-7.4c-0.2-2.2-0.4-4.1-0.7-6.5c-9.8,2.5-19.3,5-29.9,7.7C717.6,617.2,723.8,608.8,730.2,600.3z"/>
	<path id="XMLID_00000072238910700431391470000002841179986407427236_" class="st4" d="M1085.1,543.5c-2.8-1.7-5-2.9-7.5-4.4
		c-5.8,9.1-11.5,18.1-17.5,27.6c-2-10-3.9-19.1-5.9-28.7c-2.8,1.1-5,2-7.3,3c3,9.1,5.9,17.9,9.1,27.5c-9.3-6-17.8-11.6-26.7-17.3
		c-1,2-1.7,3.4-2.5,5c7.8,5.7,15.4,11.2,23.6,17.1c-9,1.7-16.9,3.3-25.3,4.9c1.1,2.6,2,4.6,3,6.9c8.1-2.1,15.9-4.1,24.5-6.3
		c-4.8,8.3-9.2,15.8-13.7,23.5c2.8,1.5,5,2.8,7.5,4.2c4-8.5,7.9-16.8,11.8-25.2c0.3,0.1,0.5,0.1,0.8,0.2c1.6,9.1,3.2,18.2,4.8,27.3
		c2.6-0.2,4.3-0.4,6.6-0.6c-2.1-8.4-4.2-16.4-6.6-25.6c9.2,6.5,17.5,12.4,26,18.5c1.8-2.7,3.4-5,5.1-7.4c-9.2-6.1-18.1-11.9-27.5-18
		c10.1-2.6,19.4-5,28.8-7.4c-0.2-2.2-0.4-4.1-0.7-6.5c-9.8,2.5-19.3,5-29.9,7.7C1072.5,560.4,1078.8,552,1085.1,543.5z"/>
</g>
<g>
	<g>
		<path class="st2" d="M359.6,779.4c-2.3-15.5-7.7-17.9-11.9-12.4c-3.9,4.9-3.7,21.6-3.8,24c-0.9-9.7-3.1-26.8-10.7-25.8
			c-6.7,0.9-7.5,25.7-7.6,25.9c0,0,4.2,0.8,35-0.5C360.7,790.6,360.2,782.3,359.6,779.4z"/>
		<path class="st2" d="M327.2,801.7c2,15.5,7.3,18,11.7,12.7c4-4.8,4.1-21.5,4.3-23.9c0.7,9.8,2.5,26.9,10.2,26
			c6.7-0.7,8-25.6,8.1-25.8c0,0-4.1-0.9-35-0.2C326.3,790.5,326.7,798.7,327.2,801.7z"/>
		<path class="st2" d="M361.6,802.7c-1,15.6,3.8,19.1,9.1,14.6c4.8-4,8-20.3,8.6-22.7c-1.1,9.7-2.5,26.9,5.1,27.5
			c6.8,0.5,12.6-23.6,12.8-23.8c0,0-3.9-1.7-34.3-6.7C362.9,791.5,361.7,799.7,361.6,802.7z"/>
		<path class="st2" d="M393.8,812c-5.1,14.8-1.4,19.4,4.9,16.5c5.7-2.5,13.1-17.5,14.3-19.6c-3.6,9.1-9.5,25.2-2.3,27.8
			c6.4,2.3,18.4-19.4,18.6-19.6c0,0-3.3-2.7-31.3-15.6C398,801.5,394.7,809.1,393.8,812z"/>
		<path class="st2" d="M425.7,825.5c-6.9,14-3.9,19.1,2.7,17c6-1.8,15.3-15.6,16.8-17.6c-4.8,8.5-12.7,23.8-5.9,27.3
			c6,3.1,20.8-16.9,21-17c0,0-2.9-3.1-29-19.5C431.2,815.7,426.9,822.8,425.7,825.5z"/>
		<path class="st2" d="M455.4,843.7c-6.9,14-3.9,19.1,2.7,17c6-1.8,15.3-15.6,16.8-17.6c-4.8,8.5-12.7,23.8-5.9,27.3
			c6,3.1,20.8-16.9,21-17c0,0-2.9-3.1-29-19.5C460.9,833.9,456.7,840.9,455.4,843.7z"/>
		<path class="st2" d="M484.3,863.9c-5.9,14.5-2.5,19.3,3.9,16.8c5.9-2.2,14.2-16.7,15.5-18.7c-4.2,8.9-11,24.6-4,27.6
			c6.2,2.7,19.6-18.3,19.8-18.4c0,0-3.2-2.9-30.3-17.5C489.1,853.7,485.4,861.1,484.3,863.9z"/>
		<path class="st2" d="M514.8,882.7c-3.7,15.2,0.4,19.4,6.4,16c5.5-3,11.5-18.6,12.5-20.8c-2.8,9.4-7.2,26,0.3,27.9
			c6.6,1.7,16.5-21,16.7-21.2c0,0-3.5-2.3-32.6-12.6C518,871.9,515.5,879.7,514.8,882.7z"/>
		<path class="st2" d="M547.7,895.3c-0.5,15.6,4.3,19,9.5,14.4c4.7-4.1,7.5-20.6,8-22.9c-0.8,9.8-1.8,26.9,5.9,27.3
			c6.8,0.3,12-24,12.1-24.2c0,0-3.9-1.6-34.5-5.8C548.7,884.1,547.7,892.3,547.7,895.3z"/>
		<path class="st2" d="M584.6,902.7c3.2,15.3,8.7,17.4,12.7,11.7c3.6-5.1,2.4-21.8,2.3-24.2c1.5,9.7,4.7,26.6,12.2,25.1
			c6.7-1.3,5.9-26.1,6-26.3c0,0-4.2-0.6-34.9,2.6C582.9,891.6,583.9,899.7,584.6,902.7z"/>
		<path class="st2" d="M621.5,896.8c6.4,14.3,12.3,15.1,14.9,8.7c2.4-5.8-2.4-21.8-3-24.1c3.6,9.1,10.3,24.9,17.3,21.9
			c6.2-2.7,0.1-26.8,0.2-27c0,0-4.2,0.3-33.5,10.1C617.4,886.3,620.2,894.1,621.5,896.8z"/>
		<path class="st2" d="M656.5,885.2c8.2,13.3,14.1,13.4,15.9,6.7c1.7-6-5.2-21.3-6.1-23.5c4.7,8.6,13.5,23.4,20.1,19.4
			c5.8-3.5-3.4-26.6-3.3-26.8c0,0-4.2,0.9-31.9,14.3C651.1,875.4,654.8,882.7,656.5,885.2z"/>
		<path class="st2" d="M687.7,869.8c7,14,12.9,14.6,15.2,8.1c2.2-5.8-3.3-21.6-3.9-24c3.9,9,11.3,24.5,18.2,21.2
			c6.1-2.9-1-26.8-0.9-27c0,0-4.2,0.5-33.1,11.4C683.2,859.4,686.3,867.1,687.7,869.8z"/>
		<path class="st2" d="M719.6,855.7c4.4,15,10,16.7,13.5,10.7c3.2-5.4,0.7-21.9,0.4-24.3c2.3,9.5,6.7,26.1,14.1,24.1
			c6.5-1.8,3.9-26.5,4-26.7c0,0-4.2-0.3-34.6,5.3C717,844.8,718.7,852.8,719.6,855.7z"/>
		<path class="st2" d="M753.5,851.2c0.9,15.6,6.1,18.5,10.8,13.4c4.3-4.5,5.5-21.2,5.8-23.6c0.1,9.8,0.8,27,8.4,26.6
			c6.8-0.3,9.7-25,9.8-25.2c0,0-4.1-1.2-34.9-2.5C753.5,840,753.3,848.2,753.5,851.2z"/>
		<path class="st2" d="M787.4,854.5c-2.3,15.5,2.2,19.3,7.8,15.4c5.2-3.5,9.7-19.6,10.5-21.9c-1.9,9.6-4.8,26.5,2.8,27.8
			c6.7,1.1,14.6-22.5,14.7-22.7c0,0-3.7-2-33.7-9.6C789.7,843.5,787.8,851.5,787.4,854.5z"/>
		<path class="st2" d="M820.4,863.4c-4.4,15-0.5,19.4,5.7,16.3c5.6-2.8,12.3-18.1,13.4-20.2c-3.2,9.2-8.4,25.6-1,27.9
			c6.5,2,17.5-20.3,17.7-20.4c0,0-3.4-2.5-32-14.2C824.2,852.8,821.2,860.5,820.4,863.4z"/>
		<path class="st2" d="M853.4,876.1c-4.4,15-0.5,19.4,5.7,16.3c5.6-2.8,12.3-18.1,13.4-20.2c-3.2,9.2-8.4,25.6-1,27.9
			c6.5,2,17.5-20.3,17.7-20.4c0,0-3.4-2.5-32-14.2C857.2,865.5,854.2,873.1,853.4,876.1z"/>
		<path class="st2" d="M886.4,890.9c-2.7,15.4,1.7,19.4,7.4,15.6c5.2-3.4,10.3-19.3,11.1-21.6c-2.2,9.5-5.5,26.4,2,27.9
			c6.7,1.3,15.2-22.1,15.3-22.2c0,0-3.7-2.1-33.4-10.5C889,879.9,886.9,887.9,886.4,890.9z"/>
		<path class="st2" d="M921.4,900.1c-0.5,15.6,4.4,19,9.5,14.4c4.7-4.1,7.5-20.6,8-22.9c-0.8,9.8-1.8,26.9,5.9,27.3
			c6.8,0.3,11.9-24,12.1-24.2c0,0-4-1.6-34.5-5.8C922.4,888.9,921.4,897,921.4,900.1z"/>
		<path class="st2" d="M957.4,905.2c1.2,15.6,6.4,18.4,11.1,13.2c4.2-4.6,5.1-21.3,5.4-23.7c0.3,9.8,1.2,26.9,8.9,26.5
			c6.8-0.4,9.2-25.1,9.3-25.4c0,0-4.1-1.1-35-1.9C957.2,894,957.1,902.2,957.4,905.2z"/>
		<path class="st2" d="M993.4,904.3c3.1,15.3,8.6,17.4,12.6,11.8c3.6-5.1,2.5-21.7,2.4-24.2c1.5,9.7,4.6,26.6,12.1,25.2
			c6.7-1.2,6-26.1,6.1-26.3c0,0-4.2-0.6-34.9,2.4C991.8,893.1,992.8,901.3,993.4,904.3z"/>
		<path class="st2" d="M1030.6,900.1c6.5,14.3,12.3,15.1,14.9,8.7c2.4-5.8-2.4-21.7-3-24.1c3.6,9.1,10.3,24.9,17.4,21.9
			c6.2-2.7,0.1-26.8,0.1-27c0,0-4.2,0.3-33.5,10.1C1026.6,889.6,1029.3,897.4,1030.6,900.1z"/>
		<path class="st2" d="M1064.4,888c9.2,12.7,15.1,12.3,16.3,5.5c1.2-6.1-6.7-20.8-7.8-23c5.3,8.2,15.1,22.3,21.4,17.9
			c5.6-3.9-5.3-26.2-5.3-26.5c0,0-4.1,1.2-30.8,16.6C1058.3,878.6,1062.6,885.6,1064.4,888z"/>
		<path class="st2" d="M1096,870.4c11.7,10.3,17.4,8.7,17.2,1.8c-0.2-6.2-11.1-18.8-12.6-20.7c7,6.8,19.7,18.4,24.8,12.8
			c4.6-5-10.9-24.4-11-24.7c0,0-3.7,2.1-26.4,23C1087.9,862.6,1093.6,868.5,1096,870.4z"/>
		<path class="st2" d="M1122.2,844.9c12.9,8.9,18.3,6.6,17.2-0.3c-0.9-6.2-13.3-17.4-15-19.1c7.8,5.9,21.7,16,26.2,9.8
			c3.9-5.5-13.7-23-13.8-23.2c0,0-3.5,2.5-23.5,26C1113.3,838.1,1119.7,843.3,1122.2,844.9z"/>
		<path class="st2" d="M1143.9,817.9c11.1,11,16.9,9.7,17,2.8c0.2-6.2-10-19.5-11.4-21.4c6.6,7.2,18.6,19.6,24,14.2
			c4.8-4.7-9.5-25-9.5-25.3c0,0-3.8,1.8-27.7,21.4C1136.4,809.6,1141.7,815.8,1143.9,817.9z"/>
		<path class="st2" d="M1170.3,795.4c7.8,13.6,13.7,13.8,15.7,7.2c1.9-6-4.5-21.4-5.3-23.7c4.4,8.7,12.7,23.8,19.4,20.1
			c5.9-3.3-2.4-26.7-2.4-26.9c0,0-4.2,0.7-32.4,13.2C1165.3,785.3,1168.8,792.8,1170.3,795.4z"/>
		<path class="st2" d="M1203.3,781.4c8.2,13.3,14.1,13.3,15.9,6.7c1.7-6-5.2-21.3-6.1-23.5c4.7,8.6,13.5,23.4,20.1,19.4
			c5.8-3.5-3.4-26.6-3.4-26.8c0,0-4.2,0.9-31.9,14.4C1197.9,771.6,1201.6,778.9,1203.3,781.4z"/>
		<path class="st2" d="M1236.2,765.5c11.3,10.8,17,9.4,17.1,2.5c0.1-6.2-10.3-19.3-11.7-21.3c6.7,7.1,18.9,19.3,24.3,13.8
			c4.8-4.8-9.9-24.9-9.9-25.1c0,0-3.8,1.9-27.4,21.8C1228.5,757.2,1234,763.4,1236.2,765.5z"/>
		<path class="st2" d="M395.3,786.8c1.5-15.6-3.1-19.2-8.6-15c-5,3.8-8.8,20-9.4,22.4c1.4-9.7,3.5-26.7-4.1-27.6
			c-6.7-0.8-13.5,23.2-13.6,23.3c0,0,3.8,1.8,34.1,8C393.6,797.9,395.1,789.8,395.3,786.8z"/>
		<path class="st2" d="M428,802.8c4.5-15,0.6-19.4-5.5-16.3c-5.6,2.7-12.5,18-13.6,20.1c3.3-9.2,8.6-25.6,1.3-27.9
			c-6.5-2.1-17.7,20.1-17.9,20.3c0,0,3.4,2.5,31.9,14.4C424.2,813.4,427.2,805.8,428,802.8z"/>
		<path class="st2" d="M458.9,820c6.2-14.3,2.9-19.2-3.6-16.9c-5.9,2.1-14.5,16.4-15.9,18.4c4.3-8.8,11.5-24.4,4.5-27.6
			c-6.2-2.8-19.9,17.9-20.1,18c0,0,3.1,2.9,30,18C453.9,830,457.8,822.8,458.9,820z"/>
		<path class="st2" d="M486.9,840.5c7.3-13.9,4.3-19-2.3-17.1c-6,1.6-15.7,15.3-17.2,17.2c5-8.4,13.3-23.5,6.5-27.2
			c-6-3.2-21.2,16.4-21.4,16.5c0,0,2.9,3.1,28.6,20.2C481.1,850.1,485.5,843.2,486.9,840.5z"/>
		<path class="st2" d="M516.3,858.4c6.2-14.3,2.9-19.2-3.6-16.9c-5.9,2.1-14.5,16.4-15.9,18.4c4.3-8.8,11.5-24.4,4.5-27.6
			c-6.2-2.8-19.9,17.9-20.1,18c0,0,3.1,2.9,30,18.1C511.3,868.4,515.2,861.2,516.3,858.4z"/>
		<path class="st2" d="M547.8,871.4c4.2-15.1,0.2-19.4-5.9-16.2c-5.5,2.9-12.1,18.3-13.1,20.4c3.1-9.3,8-25.8,0.6-27.9
			c-6.5-1.9-17.2,20.5-17.4,20.7c0,0,3.5,2.5,32.2,13.7C544.2,882.1,547.1,874.3,547.8,871.4z"/>
		<path class="st2" d="M580.6,877.1c0.2-15.6-4.8-18.9-9.8-14.2c-4.6,4.2-7,20.7-7.5,23.1c0.6-9.8,1.2-26.9-6.5-27.2
			c-6.8-0.2-11.4,24.2-11.6,24.4c0,0,4,1.5,34.6,5C579.8,888.3,580.6,880.1,580.6,877.1z"/>
		<path class="st2" d="M614.7,875.9c-2.9-15.4-8.4-17.5-12.5-11.9c-3.7,5-2.8,21.7-2.7,24.1c-1.4-9.7-4.2-26.6-11.8-25.3
			c-6.7,1.2-6.4,26-6.5,26.2c0,0,4.2,0.7,34.9-2C616.2,887.1,615.3,878.9,614.7,875.9z"/>
		<path class="st2" d="M647.5,866.3c-6.3-14.3-12.2-15.2-14.8-8.8c-2.5,5.7,2.2,21.8,2.8,24.1c-3.5-9.1-10.1-25-17.2-22
			c-6.2,2.6-0.3,26.8-0.4,27c0,0,4.2-0.3,33.6-9.8C651.4,876.8,648.8,869,647.5,866.3z"/>
		<path class="st2" d="M678.4,851.1c-8-13.4-13.9-13.6-15.8-6.9c-1.7,6,4.9,21.3,5.7,23.6c-4.6-8.6-13.1-23.6-19.8-19.7
			c-5.9,3.4,3,26.6,3,26.9c0,0,4.2-0.8,32.1-13.9C683.6,861.1,680,853.7,678.4,851.1z"/>
		<path class="st2" d="M711,837.2c-7.2-13.9-13.1-14.4-15.4-7.9c-2.1,5.9,3.6,21.6,4.3,23.9c-4.1-8.9-11.7-24.3-18.5-20.9
			c-6.1,3,1.4,26.7,1.3,27c0,0,4.2-0.6,32.9-11.9C715.7,847.5,712.5,839.9,711,837.2z"/>
		<path class="st2" d="M746,831.1c-4.6-14.9-10.3-16.5-13.7-10.5c-3.1,5.4-0.3,21.9,0,24.3c-2.4-9.5-7.2-26-14.5-23.8
			c-6.5,1.9-3.4,26.6-3.5,26.8c0,0,4.2,0.2,34.5-5.9C748.8,842,747,834,746,831.1z"/>
		<path class="st2" d="M782.5,831.3c-1.9-15.5-7.2-18.1-11.6-12.7c-4,4.8-4.2,21.5-4.3,23.9c-0.7-9.8-2.4-26.9-10.1-26.1
			c-6.7,0.7-8.1,25.5-8.2,25.7c0,0,4.1,0.9,35,0.4C783.2,842.5,782.9,834.3,782.5,831.3z"/>
		<path class="st2" d="M818.1,839.5c1.6-15.6-3-19.2-8.5-15c-5,3.7-8.9,20-9.6,22.3c1.5-9.7,3.6-26.7-4-27.6
			c-6.7-0.8-13.6,23.1-13.8,23.3c0,0,3.8,1.8,34,8.2C816.3,850.6,817.8,842.5,818.1,839.5z"/>
		<path class="st2" d="M851.5,852.5c4.2-15.1,0.2-19.4-5.9-16.2c-5.5,2.9-12.1,18.3-13.1,20.4c3.1-9.3,8-25.8,0.6-27.9
			c-6.5-1.9-17.2,20.5-17.4,20.7c0,0,3.5,2.5,32.2,13.7C847.9,863.2,850.8,855.4,851.5,852.5z"/>
		<path class="st2" d="M883.9,866.2c4.2-15.1,0.2-19.4-5.9-16.2c-5.5,2.9-12.1,18.3-13.1,20.4c3.1-9.3,8-25.8,0.6-27.9
			c-6.5-1.9-17.2,20.5-17.4,20.7c0,0,3.5,2.5,32.2,13.7C880.3,876.9,883.1,869.2,883.9,866.2z"/>
		<path class="st2" d="M917,875.6c2.8-15.4-1.5-19.4-7.3-15.6c-5.3,3.3-10.4,19.2-11.3,21.5c2.3-9.5,5.7-26.4-1.8-27.9
			c-6.6-1.3-15.4,21.9-15.5,22.1c0,0,3.7,2.1,33.3,10.8C914.4,886.5,916.5,878.5,917,875.6z"/>
		<path class="st2" d="M950.4,881.3c1-15.6-3.8-19.1-9.1-14.6c-4.8,4-8,20.3-8.6,22.7c1.1-9.7,2.5-26.9-5.1-27.5
			c-6.8-0.5-12.6,23.6-12.8,23.8c0,0,3.9,1.7,34.3,6.7C949.1,892.5,950.3,884.3,950.4,881.3z"/>
		<path class="st2" d="M984.1,882.9c-1.9-15.5-7.2-18.1-11.6-12.8c-4,4.8-4.2,21.5-4.4,23.9c-0.7-9.8-2.4-26.9-10-26.1
			c-6.7,0.7-8.1,25.5-8.3,25.7c0,0,4.1,1,35,0.4C984.8,894.1,984.5,885.9,984.1,882.9z"/>
		<path class="st2" d="M1019.1,880.6c-2.9-15.4-8.4-17.5-12.5-11.9c-3.7,5-2.7,21.7-2.7,24.1c-1.4-9.7-4.2-26.6-11.8-25.3
			c-6.7,1.2-6.4,26-6.5,26.2c0,0,4.2,0.7,34.9-2C1020.6,891.7,1019.7,883.5,1019.1,880.6z"/>
		<path class="st2" d="M1051.4,870.1c-6.4-14.3-12.3-15.1-14.9-8.7c-2.4,5.7,2.4,21.8,2.9,24.1c-3.6-9.1-10.3-24.9-17.3-21.9
			c-6.2,2.7-0.2,26.8-0.2,27c0,0,4.2-0.3,33.5-10C1055.5,880.6,1052.7,872.8,1051.4,870.1z"/>
		<path class="st2" d="M1080.6,851.9c-9.1-12.7-15-12.4-16.3-5.6c-1.2,6.1,6.6,20.8,7.7,23c-5.3-8.2-15-22.4-21.3-18
			c-5.6,3.9,5.2,26.3,5.2,26.5c0,0,4.1-1.2,30.9-16.5C1086.7,861.3,1082.4,854.3,1080.6,851.9z"/>
		<path class="st2" d="M1105.9,828.5c-11.7-10.4-17.3-8.8-17.1-1.9c0.1,6.2,11,18.9,12.5,20.8c-7-6.9-19.5-18.6-24.7-13
			c-4.6,5,10.7,24.5,10.8,24.8c0,0,3.7-2,26.6-22.8C1113.8,836.4,1108.2,830.4,1105.9,828.5z"/>
		<path class="st2" d="M1129.7,803.2c-12.4-9.6-17.9-7.5-17.2-0.7c0.6,6.2,12.3,18.1,13.9,19.9c-7.4-6.4-20.8-17.2-25.6-11.2
			c-4.2,5.3,12.5,23.7,12.5,23.9c0,0,3.6-2.3,24.9-24.6C1138.2,810.5,1132.2,805,1129.7,803.2z"/>
		<path class="st2" d="M1156.8,780.2c-11.3-10.9-17-9.5-17.1-2.6c-0.1,6.2,10.3,19.3,11.7,21.3c-6.7-7.1-18.8-19.3-24.2-13.9
			c-4.8,4.8,9.8,24.9,9.8,25.2c0,0,3.8-1.9,27.4-21.8C1164.5,788.4,1159.1,782.2,1156.8,780.2z"/>
		<path class="st2" d="M1188.3,763.3c-9-12.8-14.9-12.5-16.3-5.7c-1.3,6.1,6.4,20.9,7.5,23.1c-5.2-8.3-14.8-22.5-21.2-18.2
			c-5.6,3.8,4.9,26.3,4.9,26.6c0,0,4.1-1.1,31-16.2C1194.2,772.8,1190.1,765.7,1188.3,763.3z"/>
		<path class="st2" d="M1220.6,749.8c-7.6-13.7-13.5-14-15.6-7.4c-1.9,5.9,4.2,21.5,5,23.8c-4.3-8.8-12.4-23.9-19.2-20.3
			c-6,3.2,2.2,26.7,2.1,26.9c0,0,4.2-0.7,32.5-12.9C1225.5,759.9,1222.1,752.4,1220.6,749.8z"/>
		<path class="st2" d="M1248.9,730.5c-10.1-12-15.9-11.2-16.7-4.3c-0.8,6.2,8.2,20.3,9.4,22.4c-5.9-7.8-16.7-21.2-22.6-16.4
			c-5.3,4.3,7.1,25.8,7.1,26.1c0,0,4-1.5,29.5-18.8C1255.7,739.4,1250.9,732.7,1248.9,730.5z"/>
		<g>
			<path class="st3" d="M327,796.2c34.4-6.6,68.4,5.9,98.1,22.5c29.8,16.7,56.6,38.3,87,54.1c31.3,16.2,65.9,23.8,101,18
				c37.6-6.2,68.3-29.9,104.5-40c18.2-5,37.3-6.9,56.1-5.4c18.6,1.5,36.5,6.5,53.9,13c16.8,6.3,33.1,13.7,49.8,20.1
				c15.4,5.9,31.2,10.7,47.3,14.1c62.2,13.2,132,5.7,179.2-40.5c23.1-22.6,41.2-50.7,70.5-66.1c24.7-13,54.3-19.3,75.1-39
				c4.8-4.6,9-9.7,12.3-15.5c2.5-4.4-3.8-9.1-6.3-4.7c-14.4,25.3-44.2,33.9-69.2,44.8c-13.4,5.8-26.2,12.7-37.4,22.1
				c-12.6,10.5-23.2,23.1-34,35.3c-10.7,12.1-21.9,23.8-35.1,33.1c-13,9.1-27.5,15.9-42.7,20.5c-30.8,9.5-64,9.9-95.7,5
				c-16.3-2.5-32.4-6.5-48-11.8c-16.6-5.6-32.7-12.8-49-19.4c-16.3-6.6-33-12.7-50.3-16.2c-17.9-3.6-36.5-4.2-54.7-1.9
				c-18.1,2.3-35.3,7.8-51.9,15.2c-17.1,7.7-33.5,16.8-51.2,23.1c-34.9,12.4-72.7,10.1-106.5-4.3c-60.8-25.9-110-84-179.9-86
				c-8.1-0.2-16.1,0.4-24,1.9C320.9,789.3,322,797.1,327,796.2L327,796.2z"/>
		</g>
	</g>
	<path id="XMLID_00000165954019082445455920000017536810542431251370_" class="st4" d="M496.8,818.1c-3.5-1-6.2-1.8-9.3-2.7
		c-3.8,11.3-7.4,22.5-11.4,34.3c-4.9-10.2-9.3-19.5-14-29.2c-2.7,2-4.8,3.5-7.1,5.1c5.7,8.9,11.2,17.6,17.2,27.1
		c-11.6-4-22.3-7.6-33.3-11.4c-0.5,2.4-0.9,4.2-1.3,6c10,4,19.6,7.9,30,12.1c-9.2,4.3-17.3,8-25.9,12.1c1.9,2.5,3.4,4.4,5.1,6.6
		c8.1-4.4,16-8.7,24.6-13.4c-2.9,10.2-5.6,19.4-8.4,29c3.4,0.9,6.1,1.6,9.2,2.5c2-10.2,4-20.2,5.9-30.2c0.3,0,0.6,0,0.9,0
		c4.2,9.4,8.3,18.7,12.5,28.1c2.7-0.9,4.5-1.6,6.9-2.4c-4.6-8.4-9-16.5-14-25.7c11.7,4.5,22.1,8.6,32.9,12.8
		c1.3-3.4,2.3-6.2,3.5-9.3c-11.6-4-22.7-7.9-34.4-12c10.1-5.5,19.5-10.6,28.9-15.7c-0.8-2.3-1.6-4.3-2.5-6.8
		c-9.8,5.3-19.4,10.5-30.1,16.3C487.9,839.6,492.3,829,496.8,818.1z"/>
	<path id="XMLID_00000025410604789004441730000011128215673160919731_" class="st4" d="M772.7,807.5c-3.5-1-6.2-1.8-9.3-2.7
		c-3.8,11.3-7.4,22.5-11.4,34.3c-4.9-10.2-9.3-19.5-14-29.2c-2.7,2-4.8,3.5-7.1,5.1c5.7,8.9,11.2,17.6,17.2,27.1
		c-11.6-4-22.3-7.6-33.3-11.4c-0.5,2.4-0.9,4.2-1.3,6c10,4,19.6,7.9,30,12.1c-9.2,4.3-17.3,8-25.9,12.1c1.9,2.5,3.4,4.4,5.1,6.6
		c8.1-4.4,16-8.7,24.6-13.4c-2.9,10.2-5.6,19.4-8.4,29c3.4,0.9,6.1,1.6,9.2,2.5c2-10.2,4-20.2,5.9-30.2c0.3,0,0.6,0,0.9,0
		c4.2,9.4,8.3,18.7,12.5,28.1c2.7-0.9,4.5-1.6,6.9-2.4c-4.6-8.4-9-16.5-14-25.7c11.7,4.5,22.1,8.6,32.9,12.8
		c1.3-3.4,2.3-6.2,3.5-9.3c-11.6-4-22.7-7.9-34.4-12c10.1-5.5,19.5-10.6,28.9-15.7c-0.8-2.3-1.6-4.3-2.5-6.8
		c-9.8,5.3-19.4,10.5-30.1,16.3C763.8,829,768.2,818.4,772.7,807.5z"/>
	<path id="XMLID_00000060721849405263365900000003283600107265020323_" class="st4" d="M347.6,753.2c-3.5-1-6.2-1.8-9.3-2.7
		c-3.8,11.3-7.4,22.5-11.4,34.3c-4.9-10.2-9.3-19.5-14-29.2c-2.7,2-4.8,3.5-7.1,5.1c5.7,8.9,11.2,17.6,17.2,27.1
		c-11.6-4-22.3-7.6-33.3-11.4c-0.5,2.4-0.9,4.2-1.3,6c10,4,19.6,7.9,30,12.1c-9.2,4.3-17.3,8-25.9,12.1c1.9,2.5,3.4,4.4,5.1,6.6
		c8.1-4.4,16-8.7,24.6-13.4c-2.9,10.2-5.6,19.4-8.4,29c3.4,0.9,6.1,1.6,9.2,2.5c2-10.2,4-20.2,5.9-30.2c0.3,0,0.6,0,0.9,0
		c4.2,9.4,8.3,18.7,12.5,28.1c2.7-0.9,4.5-1.6,6.9-2.4c-4.6-8.4-9-16.5-14-25.7c11.7,4.5,22.1,8.6,32.9,12.8
		c1.3-3.4,2.3-6.2,3.5-9.3c-11.6-4-22.7-7.9-34.4-12c10.1-5.5,19.5-10.6,28.9-15.7c-0.8-2.3-1.6-4.3-2.5-6.8
		c-9.8,5.3-19.4,10.5-30.1,16.3C338.6,774.7,343,764.1,347.6,753.2z"/>
	<path id="XMLID_00000153704775470668208010000000859644772040279187_" class="st4" d="M1104.2,827.5c-3.5-1-6.2-1.8-9.3-2.7
		c-3.8,11.3-7.4,22.5-11.4,34.3c-4.9-10.2-9.3-19.5-14-29.2c-2.7,2-4.8,3.5-7.1,5.1c5.7,8.9,11.2,17.6,17.2,27.1
		c-11.6-4-22.3-7.6-33.3-11.4c-0.5,2.4-0.9,4.2-1.3,6c10,4,19.6,7.9,30,12.1c-9.2,4.3-17.3,8-25.9,12.1c1.9,2.5,3.4,4.4,5.1,6.6
		c8.1-4.4,16-8.7,24.6-13.4c-2.9,10.2-5.6,19.4-8.4,29c3.4,0.9,6.1,1.6,9.2,2.5c2-10.2,4-20.2,5.9-30.2c0.3,0,0.6,0,0.9,0
		c4.2,9.4,8.3,18.7,12.5,28.1c2.7-0.9,4.5-1.6,6.9-2.4c-4.6-8.4-9-16.5-14-25.7c11.7,4.5,22.1,8.6,32.9,12.8
		c1.3-3.4,2.3-6.2,3.5-9.3c-11.6-4-22.7-7.9-34.4-12c10.1-5.5,19.5-10.6,28.9-15.7c-0.8-2.3-1.6-4.3-2.5-6.8
		c-9.8,5.3-19.4,10.5-30.1,16.3C1095.2,849,1099.7,838.4,1104.2,827.5z"/>
	<path id="XMLID_00000116200285634049348190000003043057740229122713_" class="st4" d="M1281.2,688.7c-3.5-1-6.2-1.8-9.3-2.7
		c-3.8,11.3-7.4,22.5-11.4,34.3c-4.9-10.2-9.3-19.5-14-29.2c-2.7,2-4.8,3.5-7.1,5.1c5.7,8.9,11.2,17.6,17.2,27.1
		c-11.6-4-22.3-7.6-33.3-11.4c-0.5,2.4-0.9,4.2-1.3,6c10,4,19.6,7.9,30,12.1c-9.2,4.3-17.3,8-25.9,12.1c1.9,2.5,3.4,4.4,5.1,6.6
		c8.1-4.4,16-8.7,24.6-13.4c-2.9,10.2-5.6,19.4-8.4,29c3.4,0.9,6.1,1.6,9.2,2.5c2-10.2,4-20.2,5.9-30.2c0.3,0,0.6,0,0.9,0
		c4.2,9.4,8.3,18.7,12.5,28.1c2.7-0.9,4.5-1.6,6.9-2.4c-4.6-8.4-9-16.5-14-25.7c11.7,4.5,22.1,8.6,32.9,12.8
		c1.3-3.4,2.3-6.2,3.5-9.3c-11.6-4-22.7-7.9-34.4-12c10.1-5.5,19.5-10.6,28.9-15.7c-0.8-2.3-1.6-4.3-2.5-6.8
		c-9.8,5.3-19.4,10.5-30.1,16.3C1272.3,710.2,1276.7,699.6,1281.2,688.7z"/>
</g>
<g>
	<g>
		<path class="st2" d="M354.7,1185.8c-5.1-14.8-10.8-16.2-14-10c-3,5.5,0.4,21.9,0.7,24.3c-2.7-9.4-8-25.8-15.3-23.4
			c-6.4,2.1-2.6,26.6-2.7,26.9c0,0,4.3,0.1,34.3-6.9C357.8,1196.6,355.8,1188.6,354.7,1185.8z"/>
		<path class="st2" d="M326.9,1213.7c4.8,14.9,10.5,16.4,13.8,10.3c3.1-5.4,0.1-21.9-0.2-24.3c2.5,9.5,7.4,25.9,14.8,23.7
			c6.5-2,3.2-26.6,3.2-26.8c0,0-4.2-0.2-34.4,6.2C324,1202.8,325.9,1210.8,326.9,1213.7z"/>
		<path class="st2" d="M360.9,1208.4c1.9,15.5,7.3,18,11.7,12.7c4-4.8,4.2-21.5,4.3-23.9c0.7,9.8,2.5,26.9,10.1,26
			c6.7-0.7,8-25.5,8.2-25.8c0,0-4.1-0.9-35-0.3C360.1,1197.2,360.5,1205.4,360.9,1208.4z"/>
		<path class="st2" d="M394.3,1211.5c-2.3,15.5,2.2,19.3,7.9,15.3c5.1-3.5,9.7-19.6,10.5-21.9c-1.9,9.6-4.7,26.6,2.8,27.8
			c6.7,1.1,14.5-22.5,14.7-22.7c0,0-3.8-2-33.7-9.6C396.5,1200.5,394.7,1208.5,394.3,1211.5z"/>
		<path class="st2" d="M428.1,1219c-4.3,15.1-0.3,19.4,5.8,16.2c5.6-2.8,12.2-18.2,13.2-20.4c-3.1,9.3-8.1,25.7-0.8,27.9
			c6.5,1.9,17.3-20.4,17.5-20.6c0,0-3.5-2.5-32.1-13.9C431.7,1208.4,428.8,1216.1,428.1,1219z"/>
		<path class="st2" d="M460.6,1231.4c-4.3,15.1-0.3,19.4,5.8,16.2c5.6-2.8,12.2-18.2,13.2-20.4c-3.1,9.3-8.1,25.7-0.8,27.9
			c6.5,1.9,17.3-20.4,17.5-20.6c0,0-3.5-2.5-32.1-13.9C464.3,1220.8,461.4,1228.5,460.6,1231.4z"/>
		<path class="st2" d="M492.7,1246c-3.2,15.3,1.1,19.4,6.9,15.8c5.3-3.2,10.9-19,11.8-21.2c-2.5,9.5-6.3,26.2,1.2,27.9
			c6.6,1.5,15.9-21.6,16-21.7c0,0-3.6-2.2-33-11.6C495.6,1235.1,493.3,1243,492.7,1246z"/>
		<path class="st2" d="M526.2,1258.8c-0.8,15.6,4,19,9.3,14.6c4.8-4,7.9-20.4,8.4-22.8c-1,9.7-2.3,26.9,5.4,27.4
			c6.8,0.5,12.4-23.7,12.5-23.9c0,0-3.9-1.7-34.4-6.4C527.4,1247.6,526.3,1255.8,526.2,1258.8z"/>
		<path class="st2" d="M560.8,1265.2c2.3,15.5,7.8,17.8,12,12.4c3.9-4.9,3.6-21.6,3.7-24c1,9.7,3.2,26.8,10.8,25.8
			c6.7-0.9,7.3-25.7,7.5-26c0,0-4.2-0.8-35,0.7C559.8,1254,560.3,1262.2,560.8,1265.2z"/>
		<path class="st2" d="M598.5,1265.6c6,14.5,11.8,15.5,14.6,9.2c2.6-5.7-1.7-21.8-2.2-24.2c3.3,9.2,9.5,25.2,16.6,22.4
			c6.3-2.5,1-26.8,1.1-27c0,0-4.2,0.2-33.8,9C594.8,1255,597.3,1262.9,598.5,1265.6z"/>
		<path class="st2" d="M633.6,1253.1c8.9,12.8,14.8,12.6,16.2,5.8c1.3-6.1-6.3-20.9-7.3-23.2c5.2,8.3,14.7,22.6,21.1,18.3
			c5.6-3.8-4.8-26.3-4.8-26.6c0,0-4.1,1.1-31.1,16.1C627.7,1243.5,631.9,1250.6,633.6,1253.1z"/>
		<path class="st2" d="M665.9,1235.3c10.5,11.6,16.3,10.5,16.9,3.6c0.5-6.2-9-19.9-10.3-22c6.2,7.5,17.5,20.5,23.3,15.4
			c5.1-4.5-8.2-25.5-8.2-25.7c0,0-3.9,1.6-28.7,20C658.8,1226.6,663.8,1233.1,665.9,1235.3z"/>
		<path class="st2" d="M693.8,1214.3c9.5,12.5,15.3,12,16.5,5.1c1.1-6.1-7.2-20.7-8.3-22.8c5.5,8.1,15.6,22,21.8,17.4
			c5.5-4-5.9-26.1-5.9-26.4c0,0-4.1,1.3-30.4,17.3C687.5,1205,691.9,1211.9,693.8,1214.3z"/>
		<path class="st2" d="M722.5,1194.6c7.1,14,12.9,14.5,15.3,8c2.2-5.9-3.3-21.6-4-24c4,8.9,11.4,24.4,18.3,21.1c6.1-3-1.1-26.8-1-27
			c0,0-4.2,0.5-33,11.5C718,1184.4,721.1,1192,722.5,1194.6z"/>
		<path class="st2" d="M755.1,1184c3.8,15.2,9.4,17,13.1,11.2c3.4-5.2,1.5-21.8,1.4-24.2c1.9,9.6,5.7,26.4,13.2,24.6
			c6.6-1.5,4.9-26.3,5-26.6c0,0-4.2-0.4-34.8,3.9C752.9,1173,754.3,1181.1,755.1,1184z"/>
		<path class="st2" d="M789,1181c0.6,15.6,5.7,18.6,10.5,13.7c4.4-4.4,6-21.1,6.3-23.5c-0.1,9.8,0.2,27,7.9,26.8
			c6.8-0.2,10.2-24.8,10.3-25c0,0-4.1-1.3-34.9-3.3C789.2,1169.8,788.8,1178,789,1181z"/>
		<path class="st2" d="M823.1,1183.7c-1.5,15.6,3.1,19.2,8.6,15c5-3.8,8.8-20,9.5-22.4c-1.5,9.7-3.5,26.7,4.1,27.6
			c6.7,0.8,13.5-23.1,13.6-23.3c0,0-3.8-1.8-34.1-8C824.8,1172.6,823.3,1180.7,823.1,1183.7z"/>
		<path class="st2" d="M857.8,1190c-1.5,15.6,3.1,19.2,8.6,15c5-3.8,8.8-20,9.5-22.4c-1.5,9.7-3.5,26.7,4.1,27.6
			c6.7,0.8,13.5-23.1,13.6-23.3c0,0-3.8-1.8-34.1-8C859.6,1178.9,858.1,1187,857.8,1190z"/>
		<path class="st2" d="M893,1198.6c0.2,15.6,5.2,18.7,10.2,13.9c4.5-4.3,6.5-20.9,6.9-23.3c-0.4,9.8-0.5,27,7.1,27
			c6.8,0,10.8-24.5,11-24.7c0,0-4-1.4-34.8-4.2C893.5,1187.3,892.9,1195.5,893,1198.6z"/>
		<path class="st2" d="M929,1201.1c2.4,15.5,7.8,17.8,12,12.4c3.9-4.9,3.6-21.6,3.6-24c1,9.7,3.2,26.8,10.8,25.7
			c6.7-0.9,7.3-25.8,7.4-26c0,0-4.2-0.8-35,0.7C928,1189.9,928.5,1198.2,929,1201.1z"/>
		<path class="st2" d="M965.4,1199.6c4.1,15.1,9.7,16.9,13.3,11c3.3-5.3,1.1-21.9,0.9-24.3c2.1,9.6,6.2,26.3,13.6,24.4
			c6.6-1.7,4.4-26.4,4.5-26.6c0,0-4.2-0.4-34.7,4.6C963.1,1188.6,964.6,1196.7,965.4,1199.6z"/>
		<path class="st2" d="M1000.7,1192c5.9,14.5,11.7,15.5,14.6,9.2c2.6-5.7-1.6-21.8-2.1-24.2c3.2,9.2,9.4,25.3,16.5,22.5
			c6.3-2.5,1.1-26.8,1.2-27c0,0-4.2,0.2-33.9,8.8C997,1181.4,999.5,1189.2,1000.7,1192z"/>
		<path class="st2" d="M1036.4,1181.1c9,12.8,14.9,12.6,16.2,5.8c1.3-6.1-6.4-20.9-7.4-23.1c5.2,8.3,14.7,22.6,21.1,18.3
			c5.6-3.8-4.8-26.3-4.8-26.6c0,0-4.1,1.1-31.1,16.1C1030.5,1171.5,1034.7,1178.6,1036.4,1181.1z"/>
		<path class="st2" d="M1067.4,1163c11.4,10.8,17.1,9.3,17.1,2.4c0.1-6.2-10.4-19.2-11.9-21.2c6.8,7.1,19,19.2,24.3,13.7
			c4.7-4.8-10-24.8-10.1-25.1c0,0-3.8,1.9-27.2,22C1059.7,1154.8,1065.2,1160.9,1067.4,1163z"/>
		<path class="st2" d="M1095.2,1139.9c13.4,8,18.7,5.3,17.2-1.4c-1.3-6.1-14.4-16.5-16.2-18.1c8.2,5.4,22.7,14.5,26.8,8
			c3.6-5.8-15.2-22-15.3-22.2c0,0-3.3,2.7-21.7,27.5C1085.9,1133.6,1092.6,1138.4,1095.2,1139.9z"/>
		<path class="st2" d="M1116.3,1110c14.3,6.4,19.2,3.1,16.9-3.4c-2-5.9-16.3-14.6-18.3-16c8.7,4.4,24.3,11.7,27.5,4.8
			c2.9-6.1-17.7-20.1-17.9-20.3c0,0-2.9,3.1-18.3,29.8C1106.3,1104.9,1113.6,1108.9,1116.3,1110z"/>
		<path class="st2" d="M1132.7,1079.5c13,8.8,18.4,6.4,17.2-0.4c-0.9-6.2-13.4-17.3-15.2-19c7.8,5.9,21.8,15.8,26.2,9.5
			c3.9-5.6-13.9-22.9-14-23.1c0,0-3.4,2.5-23.3,26.1C1123.8,1072.7,1130.2,1077.8,1132.7,1079.5z"/>
		<path class="st2" d="M1154.5,1052.5c10.1,11.9,16,11.1,16.7,4.2c0.7-6.2-8.3-20.2-9.5-22.3c6,7.8,16.8,21.1,22.7,16.2
			c5.2-4.3-7.3-25.8-7.3-26c0,0-4,1.5-29.4,19C1147.7,1043.5,1152.5,1050.2,1154.5,1052.5z"/>
		<path class="st2" d="M1184.3,1032.7c10.5,11.6,16.4,10.5,16.9,3.6c0.5-6.2-9-19.9-10.3-22c6.2,7.5,17.5,20.5,23.3,15.4
			c5.1-4.5-8.2-25.5-8.2-25.7c0,0-3.9,1.6-28.7,20C1177.2,1024,1182.2,1030.5,1184.3,1032.7z"/>
		<path class="st2" d="M1213.7,1010.9c13.1,8.6,18.5,6.1,17.2-0.7c-1-6.2-13.7-17.1-15.4-18.7c7.9,5.8,22.1,15.5,26.4,9.1
			c3.8-5.6-14.3-22.7-14.4-22.9c0,0-3.4,2.6-22.9,26.5C1204.7,1004.3,1211.2,1009.3,1213.7,1010.9z"/>
		<path class="st2" d="M391.1,1186.5c-1.4-15.6-6.6-18.3-11.2-13.1c-4.2,4.6-4.9,21.3-5.2,23.7c-0.4-9.8-1.5-26.9-9.2-26.4
			c-6.8,0.5-9,25.2-9.1,25.4c0,0,4.1,1.1,35,1.6C391.5,1197.8,391.4,1189.5,391.1,1186.5z"/>
		<path class="st2" d="M426.2,1196.3c1.7-15.6-2.9-19.2-8.4-15c-5,3.7-9,20-9.7,22.3c1.5-9.7,3.7-26.7-3.9-27.7
			c-6.7-0.8-13.7,23-13.8,23.2c0,0,3.8,1.9,34,8.3C424.4,1207.4,425.9,1199.3,426.2,1196.3z"/>
		<path class="st2" d="M459.7,1207.5c3.5-15.2-0.7-19.4-6.6-15.9c-5.4,3.1-11.2,18.8-12.2,21c2.6-9.4,6.8-26.1-0.6-27.9
			c-6.6-1.6-16.3,21.3-16.5,21.4c0,0,3.6,2.3,32.8,12.2C456.6,1218.3,459.1,1210.4,459.7,1207.5z"/>
		<path class="st2" d="M491,1222.4c4.6-15,0.7-19.4-5.4-16.4c-5.6,2.7-12.6,17.9-13.7,20.1c3.3-9.2,8.7-25.5,1.4-27.9
			c-6.4-2.1-17.8,20-18,20.2c0,0,3.4,2.6,31.8,14.6C487.1,1233,490.2,1225.4,491,1222.4z"/>
		<path class="st2" d="M523.2,1234.6c3.5-15.2-0.7-19.4-6.6-15.9c-5.4,3.1-11.3,18.8-12.2,21c2.7-9.4,6.8-26.1-0.6-27.9
			c-6.6-1.6-16.3,21.3-16.5,21.4c0,0,3.6,2.3,32.8,12.2C520.1,1245.4,522.6,1237.6,523.2,1234.6z"/>
		<path class="st2" d="M556.6,1241.7c1.3-15.6-3.4-19.1-8.8-14.8c-4.9,3.8-8.5,20.2-9.1,22.5c1.3-9.7,3.1-26.8-4.5-27.6
			c-6.7-0.7-13.1,23.3-13.3,23.5c0,0,3.9,1.8,34.2,7.5C555,1252.8,556.4,1244.7,556.6,1241.7z"/>
		<path class="st2" d="M589.8,1241.2c-2.7-15.4-8.1-17.7-12.3-12.1c-3.8,5-3.1,21.7-3.1,24.1c-1.2-9.7-3.8-26.7-11.4-25.5
			c-6.7,1.1-6.8,25.9-6.9,26.1c0,0,4.2,0.7,35-1.4C591.1,1252.4,590.4,1244.2,589.8,1241.2z"/>
		<path class="st2" d="M623.1,1233.8c-5.7-14.6-11.5-15.7-14.4-9.4c-2.7,5.6,1.3,21.8,1.7,24.2c-3.1-9.3-9-25.4-16.2-22.7
			c-6.3,2.4-1.5,26.7-1.5,27c0,0,4.3-0.1,34-8.4C626.7,1244.5,624.3,1236.6,623.1,1233.8z"/>
		<path class="st2" d="M653.6,1218.3c-8.8-12.9-14.7-12.7-16.2-5.9c-1.4,6.1,6.2,21,7.2,23.2c-5.1-8.3-14.5-22.7-20.9-18.5
			c-5.6,3.7,4.6,26.4,4.6,26.6c0,0,4.1-1.1,31.2-15.8C659.4,1227.9,655.4,1220.7,653.6,1218.3z"/>
		<path class="st2" d="M681.2,1197.7c-10.4-11.7-16.2-10.8-16.8-3.9c-0.6,6.2,8.7,20.1,10,22.1c-6.1-7.6-17.2-20.7-23.1-15.7
			c-5.1,4.4,7.8,25.6,7.9,25.8c0,0,4-1.6,29-19.6C688.2,1206.5,683.2,1199.9,681.2,1197.7z"/>
		<path class="st2" d="M710.7,1178.1c-9.6-12.3-15.5-11.7-16.5-4.9c-1,6.2,7.5,20.6,8.6,22.7c-5.6-8-16-21.8-22.1-17.1
			c-5.4,4.1,6.3,26,6.3,26.3c0,0,4-1.3,30.2-17.8C717.2,1187.3,712.7,1180.4,710.7,1178.1z"/>
		<path class="st2" d="M744,1165.6c-7.3-13.8-13.2-14.3-15.4-7.8c-2.1,5.9,3.7,21.6,4.4,23.9c-4.1-8.9-11.8-24.2-18.7-20.8
			c-6,3.1,1.5,26.7,1.5,27c0,0,4.2-0.6,32.8-12.1C748.7,1175.8,745.5,1168.2,744,1165.6z"/>
		<path class="st2" d="M779.8,1159.1c-4.7-14.9-10.4-16.4-13.8-10.4c-3.1,5.4-0.2,21.9,0.1,24.3c-2.5-9.5-7.3-26-14.7-23.8
			c-6.5,1.9-3.3,26.6-3.3,26.8c0,0,4.2,0.2,34.5-6.1C782.6,1170,780.8,1161.9,779.8,1159.1z"/>
		<path class="st2" d="M816.4,1160.6c-1.3-15.6-6.5-18.3-11.1-13.2c-4.2,4.6-5.1,21.3-5.3,23.7c-0.3-9.8-1.3-26.9-9-26.4
			c-6.8,0.4-9.1,25.2-9.2,25.4c0,0,4.1,1.1,35,1.8C816.7,1171.9,816.7,1163.6,816.4,1160.6z"/>
		<path class="st2" d="M851.6,1167.2c1.3-15.6-3.4-19.1-8.8-14.8c-4.9,3.8-8.5,20.2-9.1,22.5c1.3-9.7,3.1-26.8-4.5-27.6
			c-6.7-0.7-13.1,23.3-13.3,23.5c0,0,3.9,1.8,34.2,7.5C850.1,1178.4,851.4,1170.3,851.6,1167.2z"/>
		<path class="st2" d="M885.9,1174.8c1.3-15.6-3.4-19.1-8.8-14.8c-4.9,3.8-8.5,20.2-9.1,22.5c1.3-9.7,3.1-26.8-4.5-27.6
			c-6.7-0.7-13.1,23.3-13.3,23.5c0,0,3.9,1.8,34.2,7.5C884.4,1185.9,885.8,1177.8,885.9,1174.8z"/>
		<path class="st2" d="M920.2,1177.9c0-15.6-5-18.8-10-14c-4.6,4.3-6.7,20.8-7.2,23.2c0.5-9.8,0.8-27-6.9-27.1
			c-6.8-0.1-11.1,24.4-11.2,24.6c0,0,4,1.4,34.7,4.5C919.7,1189.1,920.3,1180.9,920.2,1177.9z"/>
		<path class="st2" d="M954.1,1177.4c-1.9-15.5-7.3-18-11.7-12.7c-4,4.8-4.2,21.5-4.3,23.9c-0.7-9.8-2.5-26.9-10.1-26
			c-6.7,0.7-8.1,25.5-8.2,25.8c0,0,4.1,0.9,35,0.3C954.9,1188.6,954.5,1180.4,954.1,1177.4z"/>
		<path class="st2" d="M987.5,1172.8c-4.7-14.9-10.4-16.4-13.8-10.4c-3.1,5.4-0.2,21.9,0.1,24.3c-2.5-9.5-7.3-26-14.6-23.8
			c-6.5,1.9-3.3,26.6-3.4,26.8c0,0,4.2,0.2,34.5-6C990.3,1183.7,988.5,1175.6,987.5,1172.8z"/>
		<path class="st2" d="M1021.5,1164c-5.7-14.6-11.5-15.7-14.4-9.4c-2.7,5.6,1.3,21.8,1.8,24.2c-3.1-9.3-9.1-25.4-16.2-22.7
			c-6.3,2.4-1.5,26.7-1.5,27c0,0,4.3-0.1,34-8.4C1025,1174.7,1022.7,1166.8,1021.5,1164z"/>
		<path class="st2" d="M1051.4,1147.8c-8.9-12.8-14.8-12.6-16.2-5.8c-1.3,6.1,6.3,20.9,7.3,23.2c-5.2-8.3-14.7-22.6-21.1-18.3
			c-5.6,3.8,4.8,26.3,4.8,26.6c0,0,4.1-1.1,31.1-16C1057.3,1157.3,1053.2,1150.2,1051.4,1147.8z"/>
		<path class="st2" d="M1076.7,1124.5c-11.3-10.8-17-9.4-17.1-2.5c-0.1,6.2,10.4,19.3,11.8,21.2c-6.7-7.1-18.9-19.2-24.3-13.8
			c-4.8,4.8,9.9,24.9,10,25.1c0,0,3.8-1.9,27.3-21.9C1084.4,1132.7,1078.9,1126.5,1076.7,1124.5z"/>
		<path class="st2" d="M1097.2,1096.9c-13.4-8.1-18.7-5.5-17.2,1.3c1.3,6.1,14.3,16.6,16.1,18.2c-8.1-5.5-22.6-14.7-26.7-8.2
			c-3.6,5.7,15.1,22.1,15.2,22.4c0,0,3.3-2.7,21.9-27.3C1106.5,1103.2,1099.9,1098.4,1097.2,1096.9z"/>
		<path class="st2" d="M1116,1067.6c-13.9-7.1-19-4.1-17.1,2.5c1.7,6,15.4,15.5,17.4,17c-8.5-4.9-23.6-13-27.2-6.3
			c-3.2,6,16.6,21,16.7,21.2c0,0,3.1-2.9,19.9-28.8C1125.8,1073.2,1118.8,1068.9,1116,1067.6z"/>
		<path class="st2" d="M1138.4,1040c-13.1-8.6-18.4-6.2-17.2,0.6c1,6.2,13.6,17.1,15.4,18.8c-7.9-5.8-22-15.5-26.4-9.2
			c-3.8,5.6,14.2,22.7,14.3,22.9c0,0,3.4-2.5,22.9-26.4C1147.5,1046.7,1141,1041.6,1138.4,1040z"/>
		<path class="st2" d="M1166.2,1017.6c-11.2-10.9-16.9-9.5-17-2.6c-0.2,6.2,10.2,19.4,11.6,21.3c-6.7-7.2-18.7-19.4-24.2-14
			c-4.8,4.8,9.7,25,9.7,25.2c0,0,3.8-1.9,27.5-21.6C1173.8,1025.9,1168.4,1019.7,1166.2,1017.6z"/>
		<path class="st2" d="M1195.5,998.4c-10-12-15.9-11.2-16.7-4.4c-0.8,6.2,8.1,20.3,9.3,22.4c-5.9-7.8-16.6-21.3-22.6-16.4
			c-5.3,4.3,7,25.8,7.1,26.1c0,0,4-1.5,29.6-18.7C1202.3,1007.4,1197.5,1000.7,1195.5,998.4z"/>
		<path class="st2" d="M1219.8,974.2c-12.1-9.9-17.7-8.1-17.2-1.2c0.4,6.2,11.8,18.4,13.3,20.3c-7.2-6.6-20.3-17.8-25.3-11.9
			c-4.4,5.2,11.7,24.1,11.8,24.3c0,0,3.7-2.2,25.6-23.9C1228.1,981.8,1222.2,976.1,1219.8,974.2z"/>
		<g>
			<path class="st3" d="M325.6,1208.3c32.6-12.9,68.3-6.8,100.6,4.1c32.4,10.9,62.7,27.3,95.5,37.1c33.7,10.1,69.2,11.3,102.6-0.8
				c35.8-13,61.7-41.9,95.4-58.5c16.9-8.3,35.4-13.6,54.1-15.7c18.6-2,37.1-0.4,55.4,2.8c17.6,3.1,35.1,7.4,52.7,10.6
				c16.2,3,32.6,4.8,49.1,5.2c63.6,1.5,130.8-18.7,168.7-72.8c18.5-26.5,31.2-57.4,57.2-77.9c21.9-17.4,49.8-29,66.7-52.1
				c3.9-5.4,7-11.2,9.2-17.4c1.6-4.7-5.4-8.3-7.1-3.5c-9.5,27.5-37.2,41.5-59.8,56.8c-12.1,8.2-23.4,17.2-32.7,28.6
				c-10.4,12.6-18.5,27-26.9,41c-8.3,13.8-17.1,27.4-28.5,39c-11.1,11.3-24.1,20.6-38.2,28c-28.5,15-61.1,21.5-93.1,22.5
				c-16.5,0.5-33-0.4-49.4-2.7c-17.4-2.5-34.5-6.6-51.7-10.1c-17.3-3.5-34.7-6.5-52.4-6.7c-18.3-0.2-36.7,2.6-54.1,8.2
				c-17.3,5.6-33.3,14.1-48.2,24.5c-15.4,10.7-29.9,22.7-46.1,32.1c-32,18.6-69.6,23.3-105.5,15.4c-64.5-14.3-123.6-62.4-192.7-51.4
				c-8,1.3-15.7,3.3-23.2,6.3C318.4,1202.7,320.9,1210.2,325.6,1208.3L325.6,1208.3z"/>
		</g>
	</g>
	<path id="XMLID_00000013189646042513925360000004996047167290698112_" class="st4" d="M546.1,1208.3c-3.6-0.4-6.4-0.6-9.6-1
		c-1.6,11.8-3.2,23.5-4.8,35.8c-6.7-9.1-12.8-17.4-19.2-26.2c-2.3,2.4-4.1,4.3-6,6.4c7.2,7.7,14.2,15.3,21.9,23.5
		c-12.1-1.8-23.3-3.4-34.9-5.1c-0.1,2.5-0.1,4.3-0.2,6.1c10.5,2.1,20.7,4.1,31.7,6.3c-8.2,5.9-15.5,11.1-23.2,16.6
		c2.3,2.1,4.1,3.7,6.2,5.6c7.2-5.8,14.1-11.4,21.7-17.7c-1,10.6-1.9,20.1-2.9,30c3.5,0.3,6.3,0.5,9.5,0.7
		c0.1-10.4,0.2-20.6,0.3-30.8c0.3-0.1,0.6-0.1,0.9-0.2c5.8,8.4,11.6,16.9,17.4,25.3c2.5-1.4,4.2-2.4,6.4-3.6
		c-6-7.4-11.9-14.6-18.5-22.7c12.3,2.3,23.3,4.4,34.7,6.6c0.6-3.5,1.1-6.6,1.7-9.8c-12.1-1.8-23.7-3.6-36-5.4
		c8.9-7.3,17.2-14,25.5-20.7c-1.2-2.1-2.3-3.9-3.7-6.2c-8.7,7-17.1,13.9-26.5,21.6C541.3,1231.1,543.7,1219.9,546.1,1208.3z"/>
	<path id="XMLID_00000166643796100287413250000016420543327679528833_" class="st4" d="M338,1162.3c-3.6-0.4-6.4-0.6-9.6-1
		c-1.6,11.8-3.2,23.5-4.9,35.8c-6.7-9.1-12.8-17.4-19.2-26.2c-2.3,2.4-4.1,4.3-6,6.4c7.2,7.7,14.2,15.3,21.9,23.5
		c-12.1-1.8-23.3-3.4-34.9-5.1c-0.1,2.5-0.1,4.3-0.2,6.1c10.5,2.1,20.7,4.1,31.7,6.3c-8.2,5.9-15.5,11.1-23.2,16.6
		c2.3,2.1,4.1,3.7,6.2,5.6c7.2-5.8,14.1-11.4,21.7-17.7c-1,10.6-1.9,20.1-2.9,30c3.5,0.3,6.3,0.5,9.5,0.7
		c0.1-10.4,0.2-20.6,0.3-30.8c0.3-0.1,0.6-0.1,0.9-0.2c5.8,8.4,11.6,16.9,17.4,25.3c2.5-1.4,4.2-2.4,6.4-3.6
		c-6-7.4-11.9-14.6-18.5-22.7c12.3,2.3,23.3,4.4,34.7,6.6c0.6-3.5,1.1-6.6,1.7-9.8c-12.1-1.8-23.7-3.6-36-5.4
		c8.9-7.3,17.2-14,25.5-20.7c-1.2-2.1-2.3-3.9-3.7-6.2c-8.7,7-17.1,13.9-26.5,21.6C333.2,1185.1,335.6,1173.8,338,1162.3z"/>
	<path id="XMLID_00000132796575010904489440000010012743352431229375_" class="st4" d="M1095.4,1096.2c-3.6-0.4-6.4-0.6-9.6-1
		c-1.6,11.8-3.2,23.5-4.8,35.8c-6.7-9.1-12.8-17.4-19.2-26.2c-2.3,2.4-4.1,4.3-6,6.4c7.2,7.7,14.2,15.3,21.9,23.5
		c-12.1-1.8-23.3-3.4-34.9-5.1c-0.1,2.5-0.1,4.3-0.2,6.1c10.5,2.1,20.7,4.1,31.7,6.3c-8.2,5.9-15.5,11.1-23.2,16.6
		c2.3,2.1,4.1,3.7,6.2,5.6c7.2-5.8,14.1-11.4,21.7-17.7c-1,10.6-1.9,20.1-2.9,30c3.5,0.3,6.3,0.5,9.5,0.7
		c0.1-10.4,0.2-20.6,0.3-30.8c0.3-0.1,0.6-0.1,0.9-0.2c5.8,8.4,11.6,16.9,17.4,25.3c2.5-1.4,4.2-2.4,6.4-3.6
		c-6-7.4-11.9-14.6-18.5-22.7c12.3,2.3,23.3,4.4,34.7,6.6c0.6-3.5,1.1-6.6,1.7-9.8c-12.1-1.8-23.7-3.6-36-5.4
		c8.9-7.3,17.2-14,25.5-20.7c-1.2-2.1-2.3-3.9-3.7-6.2c-8.7,7-17.1,13.9-26.5,21.6C1090.6,1119,1092.9,1107.7,1095.4,1096.2z"/>
	<path id="XMLID_00000031893073180003125100000012000336364741644728_" class="st4" d="M1243.9,927.2c-3.6-0.4-6.4-0.6-9.6-1
		c-1.6,11.8-3.2,23.5-4.8,35.8c-6.7-9.1-12.8-17.4-19.2-26.2c-2.3,2.4-4.1,4.3-6,6.4c7.2,7.7,14.2,15.3,21.9,23.5
		c-12.1-1.8-23.3-3.4-34.9-5.1c-0.1,2.5-0.1,4.3-0.2,6.1c10.5,2.1,20.7,4.1,31.7,6.3c-8.2,5.9-15.5,11.1-23.2,16.6
		c2.3,2.1,4.1,3.7,6.2,5.6c7.2-5.8,14.1-11.4,21.7-17.7c-1,10.6-1.9,20.1-2.9,30c3.5,0.3,6.3,0.5,9.5,0.7
		c0.1-10.4,0.2-20.6,0.3-30.8c0.3-0.1,0.6-0.1,0.9-0.2c5.8,8.4,11.6,16.9,17.4,25.3c2.5-1.4,4.2-2.4,6.4-3.6
		c-6-7.4-11.9-14.6-18.5-22.7c12.3,2.3,23.3,4.4,34.7,6.6c0.6-3.5,1.1-6.6,1.7-9.8c-12.1-1.8-23.7-3.6-36-5.4
		c8.9-7.3,17.2-14,25.5-20.7c-1.2-2.1-2.3-3.9-3.7-6.2c-8.7,7-17.1,13.9-26.5,21.6C1239.1,950,1241.5,938.7,1243.9,927.2z"/>
</g>
<g id="Layer_1_00000068665314014730694390000012592333727092045476_">
</g>
</svg>
