<?xml version="1.0" encoding="utf-8"?>
<!-- Generator: Adobe Illustrator 26.0.3, SVG Export Plug-In . SVG Version: 6.00 Build 0)  -->
<svg version="1.1" xmlns="http://www.w3.org/2000/svg" xmlns:xlink="http://www.w3.org/1999/xlink" x="0px" y="0px"
	 viewBox="0 0 369.838 369.663" enable-background="new 0 0 369.838 369.663" xml:space="preserve">
<g id="christmas_x5F_wreath">
	<g>
		<path fill="#00A038" d="M365.823,179.217c-6.749-4.527-27.98-2.517-32.1-2.251c0.001-0.013,0.002-0.026,0.002-0.04
			c12.916-2.406,35.023-7.233,32.83-17.175c-1.656-7.507-25.762-7.291-33.235-7.125c3.215-1.531,8.378-4.039,10.679-5.426
			c18.175-10.365,18.537-18.245,9.699-20.935c-6.329-1.995-27.938,5.216-27.977,5.052c11.74-6.168,27.644-15.847,23.198-23.936
			c-3.7-6.732-26.739,0.248-33.882,2.516c1.766-1.676,7.899-7.53,10.14-10.149c13.986-15.562,11.847-23.155,2.612-22.924
			c-7.837,0.117-23.285,12.905-27.277,16.117c-0.02-0.026-0.04-0.051-0.06-0.077c9.279-9.392,24.225-25.621,16.855-32.458
			c-5.22-4.841-22.492,6.725-29.824,11.951c1.585-3.108,3.594-7.15,4.438-9.279c8.183-19.256,3.698-25.746-4.963-22.532
			c-6.524,2.346-19.535,21.975-19.64,21.902c5.677-12.035,13.058-30.192,4.399-34.033c-6.267-2.781-18.173,12.459-23.725,20.128
			c0.685-3.505,1.623-8.538,1.864-11.016c2.53-20.769-3.577-25.762-11.009-20.276c-5.875,4.247-10.865,21.104-12.712,27.504
			c-0.08-0.025-0.167-0.052-0.248-0.078c2.169-13.124,4.566-33.538-5.045-34.862c-6.141-0.846-12.631,13.739-16.193,23.128
			c-3.705-32.418-9.436-31.425-15.52-24.473c-5.036,5.638-6.683,30.383-6.74,30.381c-0.654-13.244-2.568-34.568-12.439-33.786
			c-6.382,0.505-9.6,17.164-10.999,27.013c-11.376-28.17-18.227-29.007-22.149-20.643c-3.454,7.179,1.284,27.233,2.271,31.829
			c-0.023,0.005-0.046,0.01-0.069,0.015c-4.236-12.475-12.109-33.364-21.574-29.806c-6.534,2.456-4.138,22.324-2.725,31.483
			C95.262,19.593,87.502,20.545,86.178,29.688c-1.28,8.253,10.171,27.442,11.694,30.306c-7.609-10.649-21.497-28.974-29.64-22.73
			c-5.916,4.536,3.682,25.12,7.29,32.473c-2.845-1.764-8.6-5.286-11.278-6.595c-18.571-9.638-25.386-5.664-22.847,3.218
			c2.097,7.624,18.613,19.51,22.539,22.441c-0.016,0.022-0.031,0.045-0.047,0.068c-11.403-6.625-30.972-17.123-35.758-8.244
			c-3.11,5.767,9.797,17.935,17.25,24.349c-3.231-0.882-7.107-1.894-9.189-2.262c-20.51-4.137-25.963,1.563-21.071,9.399
			c3.82,6.258,26.569,15.11,26.569,15.11c-12.904-3.192-33.302-7.276-35.382,2.261c-1.477,6.773,16.246,15.48,24.774,19.311
			c-3.509,0.108-8.123,0.297-10.432,0.587c-20.816,2.109-24.341,9.167-17.351,15.207c4.989,4.4,20.166,5.732,27.773,6.224
			c0,0-31.847,3.748-31.058,12.976c0.565,6.612,18.464,9.716,28.133,10.969c-2.991,0.885-6.289,1.906-8.064,2.609
			c-19.638,7.22-21.296,14.933-13.024,19.045c5.665,2.887,19.645,0.746,27.408-0.685c0,0-28.799,11.572-25.815,20.099
			c2.47,7.058,25.148,4.33,33.198,3.204c-2.458,1.418-9.267,5.381-11.931,7.306c-17.249,11.843-16.953,19.726-7.922,21.67
			c6.617,1.494,21.004-4.899,27.761-8.062c0,0-26.598,18.69-21.426,26.483c3.765,5.673,21.775-0.655,30.646-4.155
			c-2.337,2.523-5.227,5.712-6.577,7.472c-13.126,16.293-10.581,23.76-1.373,23.032c7.348-0.507,20.8-12.545,25.56-16.835
			c0,0-21.73,26.406-14.208,32.664c5.353,4.453,21.369-7.385,28.655-13.158c-1.266,3.112-2.744,6.867-3.361,8.9
			c-6.556,19.869-1.547,25.964,6.817,22.042c6.462-2.951,14.465-17.939,17.67-24.106c0.091,0.046-10.545,31.778-1.475,34.93
			c6.282,2.183,16.441-12.968,21.515-21.276c-0.211,3.438-0.429,7.754-0.358,9.979c0.161,20.922,6.86,25.089,13.525,18.693
			c5.456-5.133,8.244-23.494,9.165-29.53c0,0-0.213,34.51,9.646,34.588c7.34,0.059,12.385-21.406,14.139-29.72
			c0.586,3.101,6.602,33.994,19.456,23.294c5.36-4.462,2.531-22.298,1.885-29.444c0,0,8.339,32.031,17.59,29.805
			c6.75-1.624,6.852-21.43,6.583-30.757c1.29,2.614,17.042,29.5,24.562,16.508c3.911-6.757-4.923-26.008-6.761-30.891
			c0.033-0.014,0.063-0.028,0.095-0.042c6.026,11.755,16.752,30.965,25.537,26.108c6.362-3.517,0.403-24.315-2.193-32.588
			c2.495,2.566,6.25,6.365,8.205,8.02c15.634,13.905,23.216,11.727,22.937,2.493c-0.151-7.484-11.89-21.845-15.761-26.584
			c0.046-0.039,0.095-0.082,0.142-0.121c9.513,9.256,25.317,23.398,31.982,16.138c5-5.446-7.764-23.802-12.684-30.561
			c3.061,1.698,8.477,4.654,11.06,5.769c19.005,8.751,25.624,4.46,22.669-4.292c-2.052-6.286-14.316-15.071-20.655-19.386
			c0.075-0.145,0.151-0.29,0.231-0.447c11.849,5.963,29.006,13.289,33.001,4.959c2.909-6.064-11.352-18.064-18.977-23.973
			c3.333,0.738,7.45,1.603,9.619,1.877c20.69,3.117,25.853-2.847,20.58-10.431c-3.636-5.342-17.305-10.264-24.728-12.706
			c0,0,31.171,3.91,32.67-5.08c1.219-7.309-19.589-15.742-27.359-18.702c3.377-0.535,9.797-1.592,12.615-2.333
			C370.98,191.746,373.546,184.286,365.823,179.217z M321.784,174.165c0,0-27.779,8.027-21.153,14.463
			c5.138,5.093,22.52,7.265,29.168,8.046c0,0-34.194,1.255-33.563,10.931c0.38,5.829,20.261,11.946,20.261,11.946
			s-25.152-4.799-21.939,7.143c1.936,7.196,19.657,14.961,25.209,17.731c-0.037,0.053-0.077,0.112-0.115,0.167
			c-12.483-4.532-32.589-10.873-35.676-1.544c-2.191,6.621,12.477,18.335,12.477,18.335c-15.702-13.828-23.273-11.613-22.949-2.381
			c0.188,7.509,12.081,21.888,15.932,26.558c-0.045,0.037-0.092,0.078-0.137,0.115c-9.553-9.208-25.467-23.33-32.107-16.026
			c-5.411,5.952,7.504,24.779,5.911,22.312c-10.926-17.844-18.814-17.959-21.226-9.042c-2.153,7.653,5.951,26.522,7.742,30.928
			c-0.023,0.009-0.045,0.018-0.069,0.028c-6.336-11.555-17.699-30.732-26.399-25.591c-7.122,4.208-0.803,27.251-1.414,24.554
			c-4.129-20.512-11.496-23.331-16.826-15.786c-4.76,6.596-3.471,27.914-3.348,32.014l-0.037,0.003
			c-1.962-12.988-6.029-35.267-16.044-33.414c-8.913,1.648-8.163,34.868-8.294,35.17c0,0-2.2-40.696-15.303-30.526
			c-5.752,4.465-7.878,22.555-8.814,29.083l-0.246-0.015c0.346-13.294-0.066-33.964-9.797-33.952
			c-6.961,0.009-11.783,15.73-11.783,15.73c6.964-19.73,2.082-25.926-6.361-22.178c-6.532,2.822-18.45,23.632-18.45,23.632
			c4.943-12.357,11.493-31.446,2.481-34.787c-6.048-2.243-14.725,9.31-14.725,9.31s12.382-22.874,3.144-22.857
			c-6.862-0.057-25.864,13.607-25.864,13.607c9.481-9.33,22.525-23.696,15.766-30.264c-4.934-4.795-21.041,4.075-21.041,4.075
			s19.59-17.11,10.928-20.32c-5.948-2.272-19.656,1.356-27.219,3.604c0,0,27.441-14.584,23.572-22.739
			c-2.975-6.269-22.192-4.977-22.192-4.977s24.079-9.834,16.926-15.679c-4.73-3.945-26.172-6.117-26.172-6.117
			c13.033-1.331,29.924-4.366,28.927-13.166c-0.801-7.067-20.965-11.803-20.965-11.803s25.908-2.297,20.796-9.992
			c-3.622-5.572-24.957-13.92-24.957-13.92c12.991,2.714,31.557,5.41,33.275-3.694c1.444-7.652-18.508-17.486-18.508-17.486
			s30.366,7.893,28.068-1.054c-1.996-8.109-20.698-21.221-23.206-23.278c11.122,6.9,30.993,18.468,36.105,9.57
			c3.617-6.294-8.641-20.439-8.641-20.439s20.071,16.544,21.828,7.475c1.671-8.183-8.852-27.896-10.237-30.829
			c7.093,11,20.092,29.966,28.523,24.117c6.402-4.441-3.131-34.439-3.131-34.439s9.788,31.576,18.895,28.832
			c7.862-2.368,5.488-28.348,5.488-28.348s10.455,30.776,16.538,23.825c5.036-5.639,6.193-24.47,6.575-30.387
			c0.056,0.002,0.109,0.004,0.165,0.005c0.654,13.244,2.568,34.568,12.439,33.786c8.246-0.653,11.458-25.649,11.458-25.649
			s1.176,27.011,10.41,26.75c9.356-0.264,13.027-27.412,13.027-27.412c0.08,0.02-5.684,32.615,3.834,34.555
			c7.431,1.514,16.589-16.862,16.589-16.862s-5.968,25.316,2.944,22.884c6.832-1.791,17.206-15.051,21.465-20.635
			c0.093,0.053,0.183,0.105,0.277,0.158c-6.746,11.474-16.02,29.264-7.639,33.912c6.666,3.698,22.901-11.577,22.901-11.577
			s-16.874,26.949-7.643,27.278c8.214,0.375,25.805-14.025,28.9-16.167c0.005,0.006,0.01,0.011,0.015,0.016
			c-9.783,8.738-26.322,24.415-19.267,31.804c4.866,5.095,23.327-3.115,23.327-3.115s-18.343,11.059-13.341,18.825
			c4.512,7.003,24.926-0.257,30.568-1.262c0.019,0.044,0.039,0.09,0.059,0.135c-12.692,3.782-33.155,10.751-30.027,20.196
			C300.393,175.671,321.784,174.165,321.784,174.165z"/>
		<g>
			<path fill="#8CD000" d="M173.799,337.62c-55.491,0.811-105.745-31.95-126.244-84.28C-10.289,122.23,91.083,4.159,226.721,40.195
				C402.364,98.138,353.053,334.605,173.799,337.62z M181.976,42.198c-52.593-0.567-109.633,24.678-130.904,77.735
				c-32.462,57.731,5.634,192.333,87.443,204.918C352.809,366.164,407.328,56.483,181.976,42.198z"/>
		</g>
		<g>
			<path fill="#FFD200" d="M200.545,139.613c-13.39-19.783-46.913-3.817-36.604,22.272c5.62,12.685,25.803,13.598,33.307,7.096
				C206.708,160.784,205.175,146.988,200.545,139.613z"/>
			<path fill="#FFE400" d="M251.013,145.552c-45.129-15.298-2.114-98.383-67.897-105.577
				c-68.237,7.188-21.981,90.046-67.898,105.575c-3.235,1.511-2.162,6.357,1.408,6.357h66.489h66.489
				C253.175,151.908,254.249,147.062,251.013,145.552z"/>
			<g>
				<path fill="#FF4035" d="M135.928,32.696c-8.093-1.792-9.573-12.517-1.43-15.369c18.739-1.007,36.97,9.073,51.664,20.32
					c-8.807-33.485-64.868-56.074-80.492-17.106c-1.463,32.561,56.15,31.193,77.943,19.674
					C167.051,41.136,150.838,38.588,135.928,32.696z"/>
			</g>
			<g>
				<path fill="#FF4035" d="M230.422,32.936c8.106-1.733,9.665-12.447,1.543-15.359c-18.731-1.145-37.036,8.801-51.812,19.94
					c9.053-33.419,65.278-55.596,80.616-16.514c1.224,32.571-56.378,30.78-78.086,19.101
					C199.238,41.146,215.47,38.718,230.422,32.936z"/>
			</g>
			<g>
				<path fill="#FF4035" d="M180.375,41.401c-23.731,15.469-26.957,64.024-62.779,58.356c13.276,8.992,33.433,12.567,47.093,2.687
					c16.111-13.89,3.555-40.902,16.061-56.671L180.375,41.401z"/>
			</g>
			<g>
				<path fill="#FF4035" d="M183.248,40.172c-6.014,29.935,28.905,69.071-2.499,92.351c16.94-3.425,34.907-16.234,37.618-34.202
					c1.476-22.88-28.783-33.612-31.474-55.138L183.248,40.172z"/>
			</g>
			<path fill="#C10D26" d="M191.855,30.933c-6.165-9.497-23.237-3.402-17.487,9.907C180.162,53.906,199.509,41.301,191.855,30.933z"
				/>
		</g>
		<path fill="#FF4035" d="M336.775,80.872c-6.642-10.543-20.663-11.277-32.221-6.52c-8.648,3.559-18.407,16.985-11.391,32.915
			c7.076,16.066,29.171,15.557,38.014,7.922C342.325,105.564,342.231,89.531,336.775,80.872z"/>
		<path fill="#AA1E28" d="M124.343,281.882c-6.642-10.543-20.663-11.277-32.221-6.52c-8.648,3.559-18.407,16.985-11.391,32.915
			c7.076,16.066,29.171,15.557,38.014,7.923C129.893,306.575,129.799,290.542,124.343,281.882z"/>
		<path fill="#AA1E28" d="M101.31,73.549c-7.992-12.685-24.861-13.568-38.767-7.845c-10.405,4.282-22.146,20.436-13.705,39.602
			c8.513,19.33,35.098,18.718,45.737,9.532C107.987,103.258,107.874,83.968,101.31,73.549z"/>
		<path fill="#AA1E28" d="M322.806,268.618c-7.992-12.685-24.861-13.568-38.767-7.845c-10.405,4.282-22.146,20.436-13.705,39.603
			c8.513,19.33,35.098,18.718,45.737,9.532C329.483,298.326,329.37,279.036,322.806,268.618z"/>
		<path fill="#FF4035" d="M58.167,200.644c-5.053-8.02-15.718-8.578-24.509-4.96c-6.578,2.707-14.002,12.92-8.665,25.038
			c5.382,12.221,22.19,11.834,28.916,6.026C62.388,219.427,62.317,207.231,58.167,200.644z"/>
		<path fill="#FF4035" d="M227.545,298.866c-5.053-8.02-15.718-8.578-24.509-4.96c-6.578,2.707-14.002,12.92-8.665,25.038
			c5.382,12.221,22.19,11.834,28.916,6.026C231.767,317.649,231.695,305.453,227.545,298.866z"/>
		<path fill="#FF4035" d="M167.146,326.172c-5.053-8.02-15.718-8.578-24.509-4.96c-6.578,2.707-14.002,12.92-8.665,25.038
			c5.382,12.221,22.19,11.834,28.916,6.026C171.368,344.955,171.296,332.759,167.146,326.172z"/>
		<path fill="#FF4035" d="M53.091,124.427c-5.053-8.02-15.718-8.578-24.509-4.96c-6.578,2.707-14.002,12.92-8.665,25.038
			c5.382,12.221,22.19,11.834,28.916,6.026C57.313,143.209,57.241,131.014,53.091,124.427z"/>
		<path fill="#FF4035" d="M352.203,186.829c-5.053-8.02-15.718-8.578-24.509-4.96c-6.578,2.707-14.002,12.92-8.665,25.038
			c5.382,12.221,22.19,11.834,28.916,6.026C356.424,205.612,356.353,193.416,352.203,186.829z"/>
	</g>
</g>
<g id="Layer_1">
</g>
</svg>
