<?xml version="1.0" encoding="utf-8"?>
<!-- Generator: Adobe Illustrator 26.0.3, SVG Export Plug-In . SVG Version: 6.00 Build 0)  -->
<svg version="1.1" xmlns="http://www.w3.org/2000/svg" xmlns:xlink="http://www.w3.org/1999/xlink" x="0px" y="0px"
	 viewBox="0 0 374.721 370.02" enable-background="new 0 0 374.721 370.02" xml:space="preserve">
<g id="cleaning_x5F_brush">
	<g>
		<path fill="#E7E9E9" d="M138.428,55.529L10.908,77.748c0,0-38.202,36.331,28.374,72.72c0,0-9.503,55.145,59.645,61.906
			c0,0-7.108,55.468,67.098,59.605c0,0,0.857,55.576,61.992,47.407c0,0-2.353,59.128,57.331,49.594c0,0,18.41-88.649,51.486-107.485
			C336.829,261.489,186.433,121.458,138.428,55.529z"/>
		<path fill="#CAD2D3" d="M253.154,180.904c-17.195,18.031-87.216,91.124-87.216,91.124s0.35,21.219,15.027,35.508l92.656-106.449
			C267.023,194.629,260.162,187.867,253.154,180.904z"/>
		<path fill="#CAD2D3" d="M38.811,150.707c0.042,0.022,0.082,0.047,0.128,0.072c0,0-9.503,55.145,59.644,61.907l95.395-91.891
			c-8.753-9.32-17.132-18.461-24.867-27.191L38.811,150.707z"/>
		<path fill="#CAD2D3" d="M248.104,363.456l71.05-101.619l-13.368-13.534l-77.776,71.369
			C227.953,322.747,228.005,350.527,248.104,363.456z"/>
		<g>
			<g>
				<g id="Kakku-1_x5F_pohja_00000111188013247626316140000005608152760933234618_">
					<path fill="#0EB800" d="M364.664,254.665c15.569-23.099,15.12-41.074-16.078-75.041C310.3,137.94,244.493,70.45,191.209,20.288
						C157.706-11.252,129.938,2,120.514,7.474c-28.44,16.52-57.674,49.558-58.976,50.402c3.368,2.49,249.504,250.905,251.182,254.31
						C315.963,308.822,355.831,267.771,364.664,254.665z"/>
				</g>
				<g id="Layer_1_00000165944811757102514960000004831089877773523124_">
				</g>
			</g>
		</g>
	</g>
</g>
<g id="Layer_1">
</g>
</svg>
