<?xml version="1.0" encoding="utf-8"?>
<!-- Generator: Adobe Illustrator 24.2.3, SVG Export Plug-In . SVG Version: 6.00 Build 0)  -->
<svg version="1.1" xmlns="http://www.w3.org/2000/svg" xmlns:xlink="http://www.w3.org/1999/xlink" x="0px" y="0px"
	 viewBox="0 0 389.101 288.543" enable-background="new 0 0 389.101 288.543" xml:space="preserve">
<g id="cow_x5F_flying">
	<g>
		<g>
			<g id="lehma_x5F_jalat_1_">
				<path fill="#E8E9E9" d="M278.797,174.825c0.664-0.424,66.28,43.882,69.791,46.216c-0.576,1.017-2.574,4.627-2.997,5.415
					c-4.551-1.567-66.981-23.571-67.311-23.754C278.353,199.467,278.333,175.121,278.797,174.825z"/>
				<path fill="#B3B3B3" d="M345.59,226.457c0.423-0.788,0.847-1.575,1.27-2.363c-1.526-0.425-65.021-29.584-68.361-31.096
					c-0.074,3.234-0.146,6.47-0.22,9.705C278.61,202.886,341.04,224.89,345.59,226.457z"/>
				<path fill="#7C7E7E" d="M344.243,226.651c0.425,0.349,14.081,5.723,14.544,5.488c0.402-0.726,9.272-16.531,8.591-16.901
					c-6.281,1.928-19.07,5.042-19.544,4.854C347.259,221.111,344.666,225.864,344.243,226.651z"/>
			</g>
			<g id="Layer_1_162_">
			</g>
		</g>
		<g>
			<g id="lehma_x5F_jalat_2_">
				<path fill="#E8E9E9" d="M272.498,198.142c0.755-0.227,51.841,60.259,54.584,63.461c-0.831,0.822-3.735,3.753-4.357,4.396
					c-3.953-2.746-58.041-40.906-58.309-41.171C265.367,221.734,271.971,198.3,272.498,198.142z"/>
				<path fill="#B3B3B3" d="M322.724,265.998c0.621-0.643,1.244-1.285,1.865-1.928c-1.352-0.824-54.519-46.159-57.322-48.522
					c-0.951,3.092-1.901,6.186-2.852,9.279C264.684,225.093,318.772,263.252,322.724,265.998z"/>
				<path fill="#7C7E7E" d="M321.375,265.819c0.314,0.452,11.993,9.339,12.502,9.238c0.584-0.589,13.42-13.384,12.865-13.926
					c-6.569,0.147-19.722-0.337-20.127-0.646C325.784,261.308,321.996,265.176,321.375,265.819z"/>
			</g>
			<g id="Layer_1_88_">
			</g>
		</g>
		<g>
			<g id="lehma_x5F_jalat_4_">
				<path fill="#E8E9E9" d="M137.55,218.664c0.07,0.785-69.494,38.591-73.184,40.63c-0.637-0.98-2.92-4.417-3.424-5.155
					c3.488-3.316,51.793-48.575,52.107-48.784C115.886,206.911,137.501,218.116,137.55,218.664z"/>
				<path fill="#B3B3B3" d="M60.942,254.138c0.504,0.739,1.007,1.478,1.511,2.216c1.081-1.158,56.225-44.064,59.107-46.331
					c-2.836-1.556-5.674-3.112-8.511-4.668C112.734,205.564,64.43,250.823,60.942,254.138z"/>
				<path fill="#7C7E7E" d="M61.39,252.853c-0.506,0.216-11.57,9.858-11.575,10.377c0.459,0.691,10.396,15.848,11.038,15.414
					c1.184-6.463,4.316-19.247,4.701-19.581C64.917,258.083,61.894,253.591,61.39,252.853z"/>
			</g>
			<g id="Layer_1_93_">
			</g>
		</g>
		<g>
			<g id="lehma_x5F_jalat_3_">
				<path fill="#E8E9E9" d="M119.761,202.326c-0.146,0.775-77.372,18.228-81.477,19.187c-0.347-1.116-1.608-5.045-1.892-5.893
					c4.259-2.242,63.055-32.652,63.414-32.767C102.113,185.123,119.864,201.786,119.761,202.326z"/>
				<path fill="#B3B3B3" d="M36.392,215.62c0.284,0.848,0.567,1.696,0.851,2.544c1.355-0.82,66.093-27.105,69.482-28.502
					c-2.306-2.269-4.613-4.538-6.92-6.808C99.446,182.969,40.65,213.378,36.392,215.62z"/>
				<path fill="#7C7E7E" d="M37.173,214.505c-0.545,0.07-13.816,6.338-13.961,6.836c0.254,0.79,5.692,18.079,6.428,17.836
					c2.898-5.897,9.39-17.347,9.851-17.563C39.144,220.497,37.458,215.353,37.173,214.505z"/>
			</g>
			<g id="Layer_1_89_">
			</g>
		</g>
		<g>
			<g id="lehma_x5F_hanta_1_">
				<path fill="#E8E9E9" d="M24.837,117.263c10.95,10.174,21.17,21.289,42.458,29.875c9.559,3.466,21.023,3.429,38.141,9.983
					c0.055-0.24,11.741-8.516,16.671-11.13c-0.003-0.076-10.247-4.97-14.665-6.021c-18.559-4.411-43.788-4.847-52.084-8.745
					c-8.718-4.096-16.578-9.505-24.007-15.584c-1.107-0.905-2.21-1.813-3.316-2.719C27.161,114.511,26.42,116.198,24.837,117.263z"
					/>
				<path fill="#7C7E7E" d="M31.856,115.96c1.054-7.121-4.897-11.468-9.098-11.549c-2.585-0.05-5.12,0.451-7.655,0.869
					c-8.208,1.347-13.602-6.525-14.217-6.259c-1.01,0.714-1.169,6.539-0.415,9.263c1.505,4.618,4.092,8.077,7.701,10.44
					c5.763,3.773,12.444,4.925,18.239,3.093C30.464,120.536,31.224,118.481,31.856,115.96z"/>
			</g>
			<g id="Layer_1_163_">
			</g>
		</g>
		<g>
			<g id="lehma_1_">
				<path fill="#D9A893" d="M135.371,260.554c-2.857,1.848-4.751,4.347-5.413,7.533c-1.009,4.857,1.835,7.443,6.491,5.732
					c1.977-0.727,3.603-2.031,5.041-3.615C139.353,268.226,136.037,261.306,135.371,260.554z"/>
				<path fill="#D9A893" d="M152.192,276.446c-0.82,3.83-0.127,7.366,2.405,10.359c2.183,2.578,5.351,2.228,7.143-0.642
					c1.378-2.209,1.727-4.671,1.603-7.226C160.433,279.05,153.195,276.506,152.192,276.446z"/>
				<path fill="#D9A893" d="M179.62,280c1.128,2.857,4.679,5.408,7.246,5.267c1.67-0.091,2.82-0.908,3.402-2.414
					c1-2.59,0.745-5.122-0.61-7.543C187.577,276.452,181.046,280.064,179.62,280z"/>
				<path fill="#F1D2B3" d="M202.164,244.932c3.283,24.239-14.318,41.87-42.21,37.39c-26.699-4.29-30.89-24.86-29.598-36.291
					C130.356,246.031,202.049,244.082,202.164,244.932z"/>
				<path fill="#E8E9E9" d="M111.133,139.855c14.632-7.795,28.108-2.523,57.029,3.029c28.921,5.552,81.006-16.397,98.964-15.792
					c17.959,0.604,42.113,39.201,28.294,64.655c-13.819,25.455-31.084,46.502-64.107,62.133
					c-48.076,22.756-94.561,2.442-108.183-16.501C94.284,197.262,94.582,148.672,111.133,139.855z"/>
				<path fill="#4B4B4A" d="M147.899,150.129c15.564,0.021,26.624,8.877,28.382,27.46c1.888,19.957-11.252,34.182-34.111,30.51
					c-21.881-3.516-25.316-20.374-24.258-29.743C119.498,164.325,129.789,150.105,147.899,150.129z"/>
				<path fill="#4B4B4A" d="M221.516,217.025c-21.54-0.029-33.779,16.885-35.663,33.571c-0.424,3.754-0.237,8.518,1.187,13.345
					c13.933,0.031,29.021-2.842,44.274-10.062c8.419-3.985,15.809-8.324,22.383-12.996
					C249.285,224.783,237.369,217.045,221.516,217.025z"/>
				<path fill="#4B4B4A" d="M210.268,155.887c-1.058,9.372,2.377,26.236,24.265,29.753c22.866,3.674,36.011-10.556,34.122-30.52
					c-1.314-13.882-7.819-22.334-17.513-25.734c-9.514,2.162-21.189,5.487-33.222,8.399
					C213.582,142.919,210.998,149.422,210.268,155.887z"/>
			</g>
			<g id="Layer_1_164_">
			</g>
		</g>
		<g>
			<g id="lehma_x5F_paa_1_">
				<path fill="#E8E9E9" d="M293.286,56.041c-2.906-0.688,14.916-17.76,10.904-31.341c-2.397-8.115-14.429-21.85-13.636-22.391
					c8.036-5.478,34.829-1.687,40.975,16.524c6.145,18.211-2.53,30.856-5.246,33.171C323.566,54.32,296.192,56.729,293.286,56.041z"
					/>
				<path fill="#E8E9E9" d="M336.522,49.319c0,0,24.573-34.274,34.756-37.384c14.803-4.522,21.801,21.384,15.511,31.442
					c-11.384,18.205-36.611,17.293-36.611,17.293L336.522,49.319z"/>
				<path fill="#E8E9E9" d="M280.959,62.65c0.772-2.886-22.709,4.712-32.764-5.26c-6.009-5.959-12.397-23.064-13.248-22.622
					c-8.634,4.479-18,29.865-4.879,43.911s28.366,12.403,31.693,11.11C265.087,88.495,280.187,65.535,280.959,62.65z"/>
				<path fill="#E8E9E9" d="M255.98,93.77c0,0-46.307-2.111-54.83,4.269c-12.392,9.276,5.888,30.839,17.719,31.703
					c21.414,1.565,39.998-24.244,39.998-24.244L255.98,93.77z"/>
				<path fill="#7C7D7D" d="M342.453,49.968c0,0,16.539-23.068,23.392-25.161c9.963-3.043,14.673,14.392,10.44,21.161
					c-7.662,12.253-24.641,11.639-24.641,11.639L342.453,49.968z"/>
				<path fill="#7C7D7D" d="M249.997,99.125c0,0-29.514-2.162-35.251,2.132c-8.34,6.243,2.949,20.341,10.912,20.923
					c14.412,1.054,28.844-16.957,28.844-16.957L249.997,99.125z"/>
				<path fill="#B3B3B3" d="M249.315,84.502c22.824-23.217,56.975-38.913,77.826-42.135c22.681-3.505,44.818,38.51,49.219,83.792
					c2.781,28.614-17.219,61.411-50.282,53.77C293.015,172.287,231.935,102.181,249.315,84.502z"/>
				<path fill="#FFFFFF" d="M301.061,114.97c12.906,18.594,26.11,41.12,26.11,41.12l23.741-14.978c0,0-18.548-38.967-23.842-57.797
					c-3.339-11.875-6.669-26.886-9.166-38.933c-15.968,4.346-36.312,13.9-53.827,27.213
					C273.839,82.009,291.917,101.794,301.061,114.97z"/>
				<path fill="#F1D2B3" d="M307.614,166.631c5.205-14.425,54.832-42.949,68.115-37.141c10.581,4.626,16.678,33.665-14.757,52.421
					C329.177,200.882,303.838,177.097,307.614,166.631z"/>
				<path fill="#FDFDFD" d="M280.705,102.059c7.728,0.01,14.155,4.367,15.028,13.594c0.938,9.91-5.876,18.439-17.226,16.616
					c-10.865-1.746-13.217-11.542-12.692-16.194C266.603,109.108,271.712,102.047,280.705,102.059z"/>
				<path fill="#505252" d="M282.815,106.438c4.241,0.006,7.768,2.397,8.247,7.461c0.515,5.438-3.224,10.12-9.454,9.119
					c-5.962-0.958-7.253-6.334-6.965-8.887C275.076,110.307,277.88,106.431,282.815,106.438z"/>
				<path fill="#FDFDFD" d="M344.656,66.131c7.728,0.01,14.155,4.367,15.028,13.594c0.938,9.91-5.876,18.439-17.226,16.616
					c-10.865-1.746-13.217-11.542-12.691-16.194C330.554,73.18,335.663,66.119,344.656,66.131z"/>
				<path fill="#505252" d="M346.766,70.51c4.241,0.006,7.768,2.397,8.247,7.461c0.515,5.438-3.224,10.12-9.454,9.119
					c-5.962-0.958-7.253-6.334-6.965-8.887C339.027,74.378,341.831,70.503,346.766,70.51z"/>
				<path fill="#505252" d="M337.219,174.308c10.95,8.401,29.989-0.444,28.283-14.866
					C373.109,175.343,346.042,189.078,337.219,174.308z"/>
				<path fill="#D9A893" d="M368.451,138.787c3.472,0.004,6.358,1.962,6.75,6.106c0.421,4.451-2.639,8.282-7.738,7.463
					c-4.88-0.784-5.937-5.184-5.701-7.274C362.115,141.954,364.411,138.782,368.451,138.787z"/>
				<g>
					<path fill="#BF7900" d="M365.396,141.798c-1.063-0.001-2.002,0.222-2.821,0.602c-0.434,0.845-0.709,1.764-0.813,2.683
						c-0.236,2.09,0.82,6.49,5.701,7.274c1.541,0.247,2.893,0.064,4.022-0.426c0.557-1.183,0.799-2.569,0.661-4.026
						C371.754,143.76,368.867,141.802,365.396,141.798z"/>
				</g>
				<path fill="#7C7E7E" d="M249.899,58.454c10.134-13.058,19.726-1.513,20.086-1.167c0.361,0.346,2.564-16.914,15.03-19.17
					c9.505-1.72,13.539,2.495,13.539,2.495s3.683-14.349,15.573-14.444c13.831-0.111,22.285,17.54,6.54,30.71
					c-12.879,10.772-32.215,5.012-32.215,5.012s-5.416,19.128-21.923,20.282C251.315,83.234,242.911,67.459,249.899,58.454z"/>
				<path fill="#F1D2B3" d="M307.441,148.866c-0.998-10.554-8.35-15.538-17.19-15.55c-7.535-0.01-12.683,4.322-15.253,9.772
					c7.748,8.459,16.327,16.406,24.769,22.789C305.249,162.566,308.12,156.034,307.441,148.866z"/>
				<path fill="#F1D2B3" d="M369.064,90.436c-0.075-0.001-0.148-0.008-0.224-0.008c-10.286-0.014-16.131,8.064-17.032,16.033
					c-0.601,5.321,2.089,16.527,14.518,18.524c3.732,0.6,7.032,0.216,9.819-0.897C374.863,112.36,372.401,100.897,369.064,90.436z"
					/>
				<path fill="#D9A893" d="M318.485,166.032c-1.267,3.232-0.502,6.635,3.212,8.517c3.988,2.021,8.674,0.576,9.778-4.468
					c1.057-4.829-2.652-7.423-4.683-7.967C323.75,161.296,319.958,162.271,318.485,166.032z"/>
				<g>
					<path fill="#BF7900" d="M322.405,164.291c0.388-0.99,0.939-1.782,1.593-2.404c0.945-0.094,1.902-0.014,2.794,0.226
						c2.031,0.546,5.739,3.139,4.683,7.967c-0.334,1.525-0.999,2.716-1.869,3.587c-1.305,0.086-2.683-0.197-3.989-0.859
						C321.903,170.926,321.138,167.524,322.405,164.291z"/>
				</g>
			</g>
			<g id="Layer_1_161_">
			</g>
		</g>
	</g>
</g>
<g id="Layer_1">
</g>
</svg>
