<?xml version="1.0" encoding="utf-8"?>
<!-- Generator: Adobe Illustrator 26.0.2, SVG Export Plug-In . SVG Version: 6.00 Build 0)  -->
<svg version="1.1" id="Layer_1" xmlns="http://www.w3.org/2000/svg" xmlns:xlink="http://www.w3.org/1999/xlink" x="0px" y="0px"
	 viewBox="0 0 155.9 244" style="enable-background:new 0 0 155.9 244;" xml:space="preserve">
<style type="text/css">
	.st0{fill:#C61824;}
	.st1{fill:#951914;}
	.st2{fill:#FFD200;}
</style>
<path class="st0" d="M139.3,112.3C119.7,87.1,71.1,79.2,36.5,98.1c-25.9,14.2-52.3,64.6-24.8,112c27.8,47.9,96.8,38.6,121.9,11.6
	C165.3,187.7,159.2,137.7,139.3,112.3z"/>
<g>
	<path class="st1" d="M154.6,148.6L0,168.2c0,8,1.2,16.3,4,24.8l151.5-21.7C156.2,163.6,155.8,155.9,154.6,148.6z"/>
	<path class="st1" d="M2,149.9l148.9-16c-2.9-8.2-6.8-15.6-11.6-21.6c-1-1.2-2-2.3-3-3.4L11,125.6C6.9,131.9,2.5,145.3,2,149.9z"/>
	<path class="st1" d="M153.2,185.7L11.7,210c0,0,0,0.1,0.1,0.1c4.6,8,10.4,14.4,17,19.4L145,206.3
		C148.7,199.7,151.4,192.7,153.2,185.7z"/>
</g>
<path class="st2" d="M105.5,27.6C105.5,12.4,93.1,0,77.9,0S50.3,12.4,50.3,27.6c0,12.4,8.2,22.9,19.4,26.4
	c-5.9,7.4-7.9,22.7-7.9,35.2h32c0-11.1-1.6-27.5-7.6-35.3C97.4,50.3,105.5,39.9,105.5,27.6z M77.9,46.1c-10.2,0-18.5-8.3-18.5-18.5
	S67.7,9.1,77.9,9.1s18.5,8.3,18.5,18.5C96.5,37.8,88.2,46.1,77.9,46.1z"/>
<g id="Layer_1_00000085935055662351924920000008669483890106454709_">
</g>
</svg>
