<?xml version="1.0" encoding="utf-8"?>
<!-- Generator: Adobe Illustrator 26.0.0, SVG Export Plug-In . SVG Version: 6.00 Build 0)  -->
<svg version="1.1" xmlns="http://www.w3.org/2000/svg" xmlns:xlink="http://www.w3.org/1999/xlink" x="0px" y="0px"
	 viewBox="0 0 164.345 263.282" enable-background="new 0 0 164.345 263.282" xml:space="preserve">
<g id="decoration_x5F_4">
	<g>
		<polygon fill="#B5D700" points="83.379,64.085 0,161.405 83.379,263.282 164.345,161.405 		"/>
		<path fill="#0EB800" d="M129.605,119.648c-3.95,3.343-7.447,7.445-10.347,12.142c-8.106-14.054-21.399-26.197-36.424-26.197
			c-15.427,0-29.028,12.64-37.063,27.335c-2.886-4.932-6.417-9.247-10.435-12.767L0,161.405l38.028,46.465
			c3.282-3.361,6.172-7.287,8.565-11.663c8.122,13.878,21.328,25.889,36.242,25.889c14.502,0,27.39-11.519,35.558-24.751
			c2.415,4.186,5.293,7.935,8.537,11.14l37.416-47.08L129.605,119.648z"/>
		<g>
			<path fill="#FFD200" d="M83.199,50.255c-13.855,0-25.128-11.272-25.128-25.128S69.343,0,83.199,0s25.128,11.272,25.128,25.128
				S97.054,50.255,83.199,50.255z M83.199,8.246c-9.309,0-16.882,7.573-16.882,16.882c0,9.309,7.573,16.882,16.882,16.882
				s16.882-7.573,16.882-16.882C100.081,15.819,92.507,8.246,83.199,8.246z"/>
			<path fill="#FFD200" d="M97.784,81.181c0-13.888-2.734-36.934-15.017-36.106c-10.85,0.732-14.153,20.72-14.153,36.106H97.784z"/>
		</g>
		<path fill="#8CD000" d="M24.186,133.176L0,161.405l25.976,31.739c8.201-5.347,12.962-16.528,12.962-29.461
			C38.938,149.83,33.344,137.991,24.186,133.176z"/>
		<path fill="#8CD000" d="M140.261,132.456l24.085,28.949l-26.409,33.229c-8.201-5.347-12.529-18.018-12.529-30.951
			C125.408,149.83,131.102,137.271,140.261,132.456z"/>
	</g>
</g>
<g id="Layer_1">
</g>
</svg>
