<?xml version="1.0" encoding="utf-8"?>
<!-- Generator: Adobe Illustrator 26.0.0, SVG Export Plug-In . SVG Version: 6.00 Build 0)  -->
<svg version="1.1" xmlns="http://www.w3.org/2000/svg" xmlns:xlink="http://www.w3.org/1999/xlink" x="0px" y="0px"
	 viewBox="0 0 136.91 339.803" enable-background="new 0 0 136.91 339.803" xml:space="preserve">
<g id="decoration_x5F_2">
	<g>
		<g>
			<path fill="#B5D700" d="M68.772,339.803c0,0,33.281-10.606,56.961-75.123c17.253-47.005,12.925-98.102-2.067-124.997
				c-12.766-22.902-28.904-39.416-54.895-39.389c-15.028,0.016-46.784,10.606-59.49,46.088
				C-1.924,177.673-6.89,239.05,17.368,283.24S68.772,339.803,68.772,339.803z"/>
			<path fill="#8CD000" d="M9.282,146.382c-1.982,5.534-3.767,12.012-5.231,19.167h129.064c-2.271-9.963-5.487-18.759-9.447-25.865
				c-2.27-4.072-4.648-7.936-7.168-11.547H18.787C15.058,133.319,11.796,139.361,9.282,146.382z"/>
			<path fill="#8CD000" d="M120.383,278.019H14.68c0.855,1.764,1.747,3.507,2.688,5.221c6.572,11.972,13.355,21.604,19.753,29.292
				h63.544C107.179,303.89,113.993,292.628,120.383,278.019z"/>
		</g>
		<g>
			<path fill="#FFD200" d="M68.583,64.441c-17.766,0-32.221-14.454-32.221-32.221S50.816,0,68.583,0s32.221,14.454,32.221,32.221
				S86.349,64.441,68.583,64.441z M68.583,10.573c-11.936,0-21.647,9.711-21.647,21.647c0,11.936,9.711,21.647,21.647,21.647
				S90.23,44.157,90.23,32.221C90.23,20.284,80.519,10.573,68.583,10.573z"/>
			<path fill="#FFD200" d="M87.285,104.096c0-17.808-3.506-47.36-19.256-46.297c-13.913,0.938-18.149,26.568-18.149,46.297H87.285z"
				/>
		</g>
	</g>
</g>
<g id="Layer_1">
</g>
</svg>
