<?xml version="1.0" encoding="utf-8"?>
<!-- Generator: Adobe Illustrator 26.0.0, SVG Export Plug-In . SVG Version: 6.00 Build 0)  -->
<svg version="1.1" xmlns="http://www.w3.org/2000/svg" xmlns:xlink="http://www.w3.org/1999/xlink" x="0px" y="0px"
	 viewBox="0 0 141.587 299.65" enable-background="new 0 0 141.587 299.65" xml:space="preserve">
<g id="decoration_x5F_1">
	<g>
		<path fill="#FF4035" d="M71.122,299.65c0,0,34.418-9.352,58.907-66.246c17.842-41.451,13.367-86.509-2.137-110.227
			C114.69,102.981,98,88.418,71.122,88.442C55.58,88.456,22.74,97.795,9.599,129.084C-1.99,156.678-7.125,210.802,17.961,249.77
			S71.122,299.65,71.122,299.65z"/>
		<g>
			<path fill="#FFD200" d="M70.793,56.826c-15.667,0-28.413-12.746-28.413-28.413S55.126,0,70.793,0s28.413,12.746,28.413,28.413
				S86.46,56.826,70.793,56.826z M70.793,9.324c-10.526,0-19.089,8.563-19.089,19.089c0,10.526,8.563,19.089,19.089,19.089
				s19.089-8.563,19.089-19.089C89.883,17.887,81.319,9.324,70.793,9.324z"/>
			<path fill="#FFD200" d="M87.286,91.795c0-15.704-3.092-41.764-16.98-40.826c-12.269,0.827-16.004,23.429-16.004,40.826H87.286z"
				/>
		</g>
		<path fill="#FF8000" d="M114.434,146.674c-9.538-18.208-25.181-30.081-42.862-30.081c-18.154,0-34.159,12.517-43.614,31.556
			c-4.598-8.652-10.585-15.843-17.511-20.984c-0.29,0.631-0.575,1.269-0.848,1.919c-11.377,27.091-16.532,79.751,7.022,118.537
			c4.79-4.838,8.958-10.751,12.303-17.487c9.557,17.981,25.098,29.683,42.648,29.683c17.066,0,32.231-11.065,41.843-28.208
			c2.934,5.6,6.447,10.598,10.417,14.839c2.116-4.045,4.19-8.381,6.197-13.044c16.783-38.991,13.818-81.171,0.503-105.781
			C124.258,132.427,118.777,138.927,114.434,146.674z"/>
	</g>
</g>
<g id="Layer_1">
</g>
</svg>
