<?xml version="1.0" encoding="utf-8"?>
<!-- Generator: Adobe Illustrator 26.0.3, SVG Export Plug-In . SVG Version: 6.00 Build 0)  -->
<svg version="1.1" xmlns="http://www.w3.org/2000/svg" xmlns:xlink="http://www.w3.org/1999/xlink" x="0px" y="0px"
	 viewBox="0 0 658.26 112.426" enable-background="new 0 0 658.26 112.426" xml:space="preserve">
<g id="decoration_x5F_ribbon_x5F_white">
	<g>
		<path fill="#B2B2B2" d="M3.901,20.904c-10.863,27.143,3.121,28.062,15.559,4.218c0.006,0.003,0.013,0.006,0.02,0.01
			c-0.937,2.368-6.987,15.237-5.677,20.466c2.567,10.633,13.529-2.786,17.805-11.873c0.259,0.097,0.52,0.195,0.784,0.293
			c-4.871,26.853,7.275,31.283,15.63,2.544c0.031,0.007,0.064,0.015,0.095,0.022c-0.743,3.768-3.224,16.027-0.904,20.52
			c4.032,9.143,11.824-3.61,14.229-13.833l0.623,0.051c-1.483,25.957,10.676,30.36,15.628,1.284l0.215,0.018
			c-3.181,24.903,10.497,32.976,14.598,1.038l0.409,0.011c0.886,24.604,13.629,32.828,15.857,0.423l0.19,0.005
			c-0.719,23.487,13.735,33.205,14.579,0.389l0.112,0.003c4.055,23.372,17.885,31.283,15.821-1.257l0.232-0.027
			c3.042,24.762,18.294,28.709,14.333-2.658l0.444-0.097c8.11,25.358,20.794,23.953,15.008-4.766
			c0.054-0.013,0.108-0.025,0.162-0.038c5.366,23.465,21.51,28.736,14.155-3.517c0.143-0.038,0.28-0.075,0.418-0.112
			c6.507,23.357,22.041,30.381,15.441-4.091c0.014-0.003,0.027-0.007,0.041-0.01c0.881,2.952,4.671,16.005,8.932,18.984
			c8.239,6.501,8.56-9.864,5.863-19.667c0.178-0.047,0.362-0.096,0.549-0.146c5.518,28.519,17.708,21.883,15.334-4.797
			c0.013-0.001,0.026-0.002,0.039-0.003c1.692,23.69,17.546,34.719,14.635-1.207c0.415-0.043,0.81-0.085,1.174-0.125
			c-1.162,26.356,11.181,31.257,15.747,0.924c0.048,0.008,0.092,0.014,0.139,0.022c-2.988,22.882,10.133,35.5,14.528,2.054
			c0.533,0.06,1.012,0.112,1.436,0.154c-6.553,24.877,4.486,30.943,15.029,4.416c0.082,0.028,0.159,0.054,0.24,0.082
			c-7.034,18.454,1.067,35.894,12.931,6.645c0.309,0.199,0.632,0.406,0.97,0.623c-10.111,21.122-2.671,32.293,13.129,8.425
			c0.132,0.085,0.264,0.169,0.396,0.254c-9.998,17.477-3.19,32.557,12.064,7.707c0.26,0.165,0.504,0.32,0.747,0.474
			c-11.72,20.37-3.287,29.027,12.663,8.636l0.514,0.281c-12.592,19.287-3.472,30.212,12.65,6.925l1.092,0.598
			c-9.445,21.859-0.619,31.637,13.602,7.446l0.389,0.213c-9.54,18.637-1.799,32.776,12.595,6.948l1.286,0.279
			c-4.784,25.451,6.717,31.416,15.349,3.325l0.216,0.047c-6.344,24.789,6.394,33.564,14.332,2.595l0.48-0.022
			c1.636,25.98,14.044,27.745,15.686-0.728l0.253-0.012c-0.903,19.604,12.263,34.49,14.404,2.664
			c9.141,27.979,18.642,14.212,14.081-8.455c0.004-0.001,0.008-0.002,0.011-0.003c0.587,2.427,3.805,16.393,8.095,19.656
			c8.792,7.111,8.803-11.006,6.628-20.592c11.395,24.629,22.142,17.712,13.908-7.442c0.056-0.022,0.113-0.044,0.169-0.066
			c7.531,22.386,24.36,26.246,13.727-4.78c12.522,23.394,24.121,18.7,13.824-7.455c0.059-0.028,0.117-0.056,0.176-0.084
			c7.017,18.046,25.549,26.788,14.335-3.404c0.124-0.076,0.247-0.152,0.375-0.23c12.918,23.549,23.301,16.123,13.353-8.267
			c0.053-0.033,0.11-0.069,0.162-0.102c7.141,18.255,25.638,26.814,14.287-3.489c0.23-0.092,0.469-0.189,0.708-0.284
			c9.386,24.667,21.264,20.701,14.57-5.782c0.067-0.026,0.134-0.052,0.199-0.077c7.96,26.272,22.636,23.594,13.494-5.984
			c0.492-0.151,0.94-0.291,1.347-0.421c2.94,28.788,15.774,24.053,15.667-3.298c0.008,0,0.016-0.001,0.024-0.002
			c0.239,2.605,0.954,16.728,4.57,20.677c7.549,8.575,10.666-10.407,10.122-19.878l1.409-0.155
			c-2.777,27.587,9.909,29.987,15.828,1.002c0.027,0.005,0.054,0.009,0.08,0.014c-4.645,24.833,8.377,36.073,14.538,2.114
			c0.416,0.026,0.559,0.019,0.559,0.019c3.761-22.1-6.457-38.822-15.715-3.059c-0.017-0.003-0.035-0.005-0.052-0.008
			c0.462-3.278,2.421-16.4-0.181-20.884c-4.867-9.472-12.065,5.839-13.689,15.745c-4.127-28.992-16.549-23.42-15.602,3.864
			c-0.008,0-0.017,0-0.025,0.001c-0.363-22.711-15.585-36.642-14.669-0.211c-9.692-27.711-20.744-19.053-14.406,7.092
			c-0.001,0-0.001,0-0.002,0c-0.635-2.068-4.587-16.118-9.143-19.242c-8.13-6.288-8.542,9.589-5.844,19.514
			c-12.514-25.886-22.955-17.128-13.615,8.389c-0.012,0.006-0.026,0.012-0.038,0.017c-1.262-2.772-6.66-15.297-11.265-17.748
			c-8.673-5.248-7.539,10.054-3.627,19.704c-14.042-23.288-22.374-12.669-12.494,9.611c-0.064,0.029-0.127,0.057-0.19,0.085
			c-9.665-21.522-26.516-23.528-13.169,6.092c-0.126,0.061-0.248,0.12-0.369,0.18c-11.357-24.231-23.437-20.366-14.211,6.798
			c-0.056,0.02-0.114,0.042-0.169,0.062c-8.216-22.464-24.958-25.746-13.617,5.202c-0.154,0.062-0.315,0.127-0.463,0.187
			c-8.402-27.391-20.896-23.514-14.997,5.613c-4.448-23.644-22.114-32.864-14.383,3.171c-0.401,0.098-0.768,0.19-1.118,0.278
			c-0.484-25.73-13.336-31.773-15.872-0.155l-0.144-0.012c1.332-22.857-12.426-34.987-14.505-1.192l-1.091-0.09
			c4.053-24.135-7.055-30.116-15.041-3.525l-0.395-0.08c5.325-22.387-6.948-31.931-14.21-2.881l-1.257-0.255
			c10.029-24.661-1.491-30.045-14.66-5.626l-0.203-0.109c10.565-20.26,2.328-35.704-12.813-6.899l-0.433-0.233
			c13.651-23.496,4.325-33.073-13.847-7.799c-0.02-0.013-0.038-0.025-0.058-0.038c13.189-18.5,8.503-37.914-11.787-8.885
			l-0.093-0.054c11.144-20.835,5.592-37.509-13.81-8.02l-0.066-0.038c1.634-3.18,7.521-14.599,6.566-19.595
			c-1.343-10.067-12.521,0.435-17.562,9.565c6.557-25.59-5.945-26.542-15.311-2.982c-0.088-0.029-0.17-0.055-0.257-0.084
			c8.265-22.859-3.022-33.864-13.958-4.388c2.587-26.706-9.788-29.893-15.76-1.456c-0.06-0.006-0.116-0.011-0.176-0.016
			c4.338-23.218-8.462-35.212-14.394-2.614c-3.818-28.106-16.666-25.633-15.647,3.091c-0.016,0.002-0.031,0.003-0.047,0.005
			c-0.337-3.262-1.746-16.502-5.343-20.136c-7.044-7.934-10.272,8.403-9.376,18.468l-0.085,0.018
			c-8.816-27.338-20.298-20.914-14.729,6.156c-0.017,0.004-0.034,0.009-0.051,0.013c-5.245-25.297-21.95-30.376-14.188,3.733
			c-0.044,0.012-0.084,0.024-0.128,0.036c-5.802-22.1-21.102-31.574-15.688,2.797c-0.058,0.014-0.115,0.029-0.172,0.043
			c-5.249-24.406-21.267-28.259-14.167,3.721c-0.122,0.034-0.238,0.067-0.357,0.101c-3.894-22.697-18.757-34.141-15.894,2.485
			l-0.028,0.007c-2.243-22.567-18.556-35.03-14.536,1.122l-0.215,0.002c-1.505-24.797-14.646-32.443-15.859,0.131l-0.17,0.001
			c0.051-23.692-14.606-33.135-14.574,0.12l-0.706,0.006c2.233-29.303-11.519-25.518-16.073,0.843
			c0.169-2.053,2.156-16.657-0.709-21.321c-5.933-9.944-12.3,8.275-13.537,17.686l-0.746-0.21
			c4.631-26.847-7.561-31.922-15.732-2.555c-0.026-0.006-0.053-0.013-0.078-0.019c6.094-22.139-5.267-38.135-14.037-4.193
			l-1.124-0.723C48.076,5.587,36.614-0.562,22.19,26.025c-0.007-0.003-0.013-0.007-0.02-0.01c1.093-2.501,6.949-15.225,5.649-20.414
			C25.479-4.87,17.371-1.147,3.901,20.904z M82.02,42.995c0.171,0.026,0.349,0.053,0.517,0.078
			C82.362,43.048,82.187,43.049,82.02,42.995z"/>
		<g>
			<path fill="#FFFFFF" d="M653.92,39.853c-29.083-10.264-60.232-3.767-88.272,6.826c-28.146,10.682-54.209,25.965-82.771,35.728
				c-29.271,9.999-60.458,12.162-90.184,2.534c-31.837-10.294-55.511-34.88-85.706-48.386
				c-15.098-6.753-31.496-10.856-48.037-12.018c-16.346-1.146-32.557,0.869-48.588,4.278c-15.428,3.261-30.553,7.63-45.989,10.988
				c-14.141,3.17-28.584,5.232-43.029,6.113c-41.003,2.481-82.196-4.121-116.08-26.701c-6.086-4.056-0.669-8.607,3.234-5.996
				c5.568,3.725,10.834,6.578,16.521,9.329c25.574,12.24,54.422,16.973,82.589,16.825c14.478-0.09,29.061-1.452,43.341-3.921
				c15.184-2.69,30.098-6.88,45.167-10.564c15.069-3.684,30.285-6.766,45.806-7.558c16.115-0.842,32.291,1.176,47.785,5.5
				c15.396,4.316,29.679,11.396,43.149,19.984c13.837,8.914,26.991,18.952,41.512,26.741c28.763,15.357,61.895,18.276,93.279,10.124
				c56.234-14.675,106.617-58.773,167.725-51.292c7.016,0.872,13.878,2.42,20.571,4.84C660.147,34.753,658.126,41.38,653.92,39.853
				L653.92,39.853z"/>
		</g>
	</g>
</g>
<g id="Layer_1">
</g>
</svg>
