<?xml version="1.0" encoding="utf-8"?>
<!-- Generator: Adobe Illustrator 26.0.0, SVG Export Plug-In . SVG Version: 6.00 Build 0)  -->
<svg version="1.1" xmlns="http://www.w3.org/2000/svg" xmlns:xlink="http://www.w3.org/1999/xlink" x="0px" y="0px"
	 viewBox="0 0 158.849 281.863" enable-background="new 0 0 158.849 281.863" xml:space="preserve">
<g id="decoration_x5F_5">
	<g>
		<polygon fill="#FF4035" points="80.591,71.047 0,174.044 80.591,281.863 158.849,174.044 		"/>
		<polygon fill="#FF8000" points="0,174.044 16.489,196.104 142.837,196.104 158.849,174.044 139.41,148.46 20.018,148.46 		"/>
		<g>
			<path fill="#FFD200" d="M80.213,57.138c-15.753,0-28.569-12.816-28.569-28.569S64.46,0,80.213,0s28.569,12.816,28.569,28.569
				S95.966,57.138,80.213,57.138z M80.213,9.375c-10.583,0-19.194,8.61-19.194,19.194c0,10.583,8.61,19.194,19.194,19.194
				s19.194-8.61,19.194-19.194C99.407,17.985,90.797,9.375,80.213,9.375z"/>
			<path fill="#FFD200" d="M96.796,92.298c0-15.79-3.109-41.992-17.073-41.05c-12.336,0.832-16.092,23.557-16.092,41.05H96.796z"/>
		</g>
	</g>
</g>
<g id="Layer_1">
</g>
</svg>
