<?xml version="1.0" encoding="utf-8"?>
<!-- Generator: Adobe Illustrator 26.0.2, SVG Export Plug-In . SVG Version: 6.00 Build 0)  -->
<svg version="1.1" id="Layer_1" xmlns="http://www.w3.org/2000/svg" xmlns:xlink="http://www.w3.org/1999/xlink" x="0px" y="0px"
	 viewBox="0 0 185.6 326.1" style="enable-background:new 0 0 185.6 326.1;" xml:space="preserve">
<style type="text/css">
	.st0{fill:#FF4035;}
	.st1{fill:#C61824;}
	.st2{fill:#FFD200;}
</style>
<rect y="161.9" class="st0" width="185.6" height="30.7"/>
<polygon class="st1" points="0,161.9 92.8,75.6 185.6,161.9 "/>
<polygon class="st1" points="0,192.6 100.2,326.1 185.6,192.6 "/>
<g>
	<path class="st2" d="M92.8,55c-15.2,0-27.5-12.3-27.5-27.5S77.7,0,92.8,0s27.5,12.3,27.5,27.5S108,55,92.8,55z M92.8,9
		c-10.2,0-18.5,8.3-18.5,18.5S82.6,46,92.8,46s18.5-8.3,18.5-18.5C111.3,17.3,103,9,92.8,9z"/>
	<path class="st2" d="M108.8,88.8c0-15.2-3-40.4-16.4-39.5C80.5,50.1,76.9,72,76.9,88.8H108.8z"/>
</g>
<path class="st0" d="M100.2,326.1c0,0-15.8-76.9-1.1-76.9S100.2,326.1,100.2,326.1z"/>
<path class="st0" d="M100.2,326.1c0,0,14.6-77.6,27.7-70.4C141.2,262.9,100.2,326.1,100.2,326.1z"/>
<path class="st0" d="M100.2,326.1c0,0-18.3-76.6-31.1-68.6C56.3,265.6,100.2,326.1,100.2,326.1z"/>
<rect y="171.2" class="st1" width="185.6" height="12.3"/>
<g id="Layer_1_00000108307277979712398830000001487434247567988905_">
</g>
</svg>
