<?xml version="1.0" encoding="utf-8"?>
<!-- Generator: Adobe Illustrator 26.0.0, SVG Export Plug-In . SVG Version: 6.00 Build 0)  -->
<svg version="1.1" xmlns="http://www.w3.org/2000/svg" xmlns:xlink="http://www.w3.org/1999/xlink" x="0px" y="0px"
	 viewBox="0 0 142.152 352.815" enable-background="new 0 0 142.152 352.815" xml:space="preserve">
<g id="decoration_x5F_6">
	<g>
		<g>
			<path fill="#82D8E8" d="M71.406,352.815c0,0,34.555-11.012,59.143-78c17.914-48.805,13.42-101.858-2.146-129.784
				c-13.255-23.779-30.011-40.926-56.997-40.898c-15.604,0.016-48.575,11.012-61.768,47.853
				c-11.635,32.49-16.791,96.217,8.396,142.099S71.406,352.815,71.406,352.815z"/>
			<path fill="#FFD200" d="M71.209,66.909c-18.447,0-33.454-15.008-33.454-33.454S52.762,0,71.209,0s33.454,15.008,33.454,33.455
				S89.656,66.909,71.209,66.909z M71.209,10.978c-12.393,0-22.476,10.083-22.476,22.476c0,12.393,10.083,22.476,22.476,22.476
				s22.476-10.083,22.476-22.476C93.685,21.061,83.602,10.978,71.209,10.978z"/>
			<path fill="#FFD200" d="M90.627,108.082c0-18.49-3.64-49.173-19.993-48.07c-14.446,0.974-18.843,27.586-18.843,48.07H90.627z"/>
			<g>
				<defs>
					<path id="SVGID_1_" d="M71.406,352.815c0,0,34.555-11.012,59.143-78c17.914-48.805,13.42-101.858-2.146-129.784
						c-13.255-23.779-30.011-40.926-56.997-40.898c-15.604,0.016-48.575,11.012-61.768,47.853
						c-11.635,32.49-16.791,96.217,8.396,142.099S71.406,352.815,71.406,352.815z"/>
				</defs>
				<clipPath id="SVGID_00000100343092767804754000000001829397234640156605_">
					<use xlink:href="#SVGID_1_"  overflow="visible"/>
				</clipPath>
				<g clip-path="url(#SVGID_00000100343092767804754000000001829397234640156605_)">
					<path fill="#B6F4F8" d="M40.693,92.922c-8.597,5.334-15.569,12.922-20.848,21.423c-5.413,8.715-9.404,18.503-10.274,28.743
						c-0.793,9.332,1.64,21.332,11.873,24.712c4.926,1.627,10.65,0.207,14.716-2.811c4.633-3.44,7.976-8.125,10.942-12.98
						c3.19-5.222,6.187-10.563,9.263-15.851c3.166-5.443,6.331-10.887,9.497-16.33c0.785-1.351,1.571-2.701,2.356-4.052
						c-1.99-1.146-3.98-2.291-5.97-3.437c-4.532,9.266-6.793,19.475-7.15,29.734c-0.183,5.268,0.202,10.532,1.051,15.735
						c0.832,5.097,2.211,10.097,4.449,14.778c2.004,4.191,5.058,8.448,9.325,10.636c4.153,2.129,9.335,2.42,13.384-0.142
						c4.513-2.856,6.407-7.99,7.198-12.993c0.867-5.488,1.154-11.09,1.149-16.639c-0.011-11.065-1.431-22.197-4.272-32.905
						c-0.335-1.263-0.693-2.521-1.069-3.773c-2.222,0.603-4.445,1.207-6.667,1.81c3.121,9.52,7.076,18.901,12.422,27.43
						c4.899,7.815,11.076,15.094,19.002,20.071c4.881,3.064,10.682,5.159,16.509,3.94c4.598-0.962,8.559-4.44,10.642-8.512
						c5.348-10.456-0.434-21.965-6.226-30.933c-5.421-8.394-12.277-15.894-20.566-21.619c-0.916-0.632-1.85-1.238-2.8-1.818
						c-1.538-0.941-3.874-0.375-4.73,1.222c-0.895,1.668-0.402,3.654,1.24,4.659c0.919,0.562,1.824,1.147,2.711,1.757
						c0.418,0.288,0.833,0.581,1.244,0.879c0.206,0.15,0.412,0.301,0.616,0.454c0.103,0.077,0.494,0.376,0.088,0.064
						c-0.454-0.349,0.127,0.099,0.174,0.135c1.736,1.347,3.4,2.783,4.991,4.294c1.667,1.582,3.253,3.246,4.759,4.977
						c0.744,0.855,1.464,1.729,2.173,2.612c0.376,0.469-0.045-0.065-0.102-0.133c0.101,0.119,0.195,0.25,0.29,0.374
						c0.169,0.219,0.337,0.439,0.504,0.66c0.359,0.476,0.713,0.956,1.061,1.439c2.837,3.937,5.416,8.136,7.446,12.536
						c0.063,0.136,0.398,0.651,0.366,0.815c0.044-0.229-0.214-0.522-0.047-0.106c0.064,0.159,0.13,0.317,0.194,0.476
						c0.239,0.599,0.462,1.203,0.667,1.814c0.41,1.223,0.745,2.472,0.975,3.74c0.023,0.127,0.043,0.254,0.066,0.38
						c0.113,0.63,0.01-0.045-0.012-0.141c0.066,0.288,0.07,0.601,0.095,0.895c0.054,0.642,0.077,1.286,0.066,1.93
						c-0.006,0.345-0.022,0.69-0.049,1.034c-0.011,0.145-0.121,1.089-0.042,0.515c0.074-0.541-0.052,0.272-0.083,0.432
						c-0.056,0.288-0.12,0.575-0.193,0.86c-0.124,0.488-0.272,0.97-0.443,1.443c-0.089,0.246-0.517,1.043-0.046,0.166
						c-0.131,0.243-0.232,0.505-0.358,0.751c-0.217,0.425-0.455,0.839-0.712,1.241c-0.144,0.226-0.295,0.448-0.452,0.665
						c-0.058,0.081-0.12,0.16-0.178,0.24c-0.244,0.341,0.499-0.597,0.111-0.146c-0.297,0.345-0.597,0.684-0.921,1.004
						c-0.354,0.35-0.811,0.64-1.141,1.006c-0.019,0.021,0.625-0.441,0.326-0.251c-0.104,0.066-0.202,0.144-0.304,0.214
						c-0.177,0.121-0.358,0.238-0.541,0.35c-0.388,0.236-0.79,0.436-1.197,0.638c-0.704,0.348,0.621-0.214,0.088-0.036
						c-0.222,0.075-0.44,0.157-0.665,0.224c-0.228,0.068-0.458,0.128-0.69,0.181c-0.118,0.027-0.237,0.053-0.355,0.077
						c-0.062,0.012-0.833,0.115-0.254,0.057c0.566-0.057-0.358,0.027-0.496,0.036c-0.279,0.017-0.559,0.024-0.839,0.023
						c-0.28-0.001-0.561-0.01-0.84-0.028c-0.16-0.01-0.32-0.029-0.481-0.039c-0.66-0.04,0.515,0.096,0.078,0.016
						c-1.183-0.215-2.333-0.491-3.466-0.897c-0.109-0.039-0.86-0.406-0.945-0.363c0.02-0.01,0.594,0.265,0.239,0.094
						c-0.154-0.074-0.312-0.139-0.467-0.211c-0.586-0.271-1.163-0.564-1.73-0.873c-0.983-0.537-1.938-1.125-2.868-1.747
						c-0.389-0.261-0.774-0.528-1.155-0.801c-0.219-0.157-0.435-0.317-0.651-0.477c-0.085-0.063-0.378-0.287,0.027,0.022
						c0.456,0.348-0.032-0.027-0.132-0.105c-1.599-1.25-3.113-2.605-4.545-4.037c-1.51-1.509-2.93-3.104-4.27-4.76
						c-0.086-0.107-0.367-0.589-0.475-0.594c0.027,0.001,0.52,0.671,0.137,0.174c-0.067-0.087-0.134-0.173-0.2-0.26
						c-0.357-0.465-0.709-0.935-1.054-1.409c-0.635-0.869-1.25-1.752-1.848-2.647c-2.566-3.838-4.806-7.883-6.799-12.035
						c-0.495-1.032-0.975-2.072-1.441-3.117c-0.113-0.254-0.225-0.508-0.336-0.762c-0.08-0.182-0.464-1.17-0.124-0.281
						c-0.213-0.557-0.465-1.102-0.691-1.654c-0.896-2.185-1.735-4.394-2.521-6.62c-0.401-1.135-0.787-2.274-1.162-3.418
						c-0.555-1.692-2.422-2.962-4.252-2.378c-1.755,0.559-2.964,2.359-2.414,4.188c1.477,4.918,2.637,9.925,3.483,14.985
						c0.102,0.61,0.2,1.222,0.293,1.834c0.047,0.306,0.092,0.613,0.136,0.919c0.025,0.175,0.05,0.351,0.075,0.526
						c0.061,0.43,0.059,0.117-0.015-0.116c0.18,0.559,0.164,1.265,0.233,1.846c0.084,0.705,0.162,1.41,0.233,2.115
						c0.261,2.561,0.444,5.13,0.55,7.702c0.212,5.174,0.109,10.362-0.323,15.523c-0.103,1.227-0.219,2.454-0.372,3.676
						c-0.02,0.163-0.049,0.328-0.064,0.491c0.001-0.007,0.102-0.684,0.038-0.293c-0.047,0.284-0.086,0.569-0.133,0.853
						c-0.101,0.602-0.215,1.202-0.348,1.799c-0.249,1.12-0.58,2.208-0.976,3.285c-0.22,0.597,0.087-0.139,0.085-0.179
						c0.003,0.081-0.165,0.364-0.189,0.413c-0.096,0.203-0.198,0.404-0.304,0.602c-0.271,0.506-0.579,0.985-0.912,1.453
						c-0.345,0.484,0.513-0.598-0.025,0.01c-0.15,0.17-0.305,0.334-0.467,0.493c-0.158,0.155-0.325,0.3-0.489,0.448
						c-0.553,0.501,0.6-0.375-0.034,0.033c-0.356,0.23-0.708,0.454-1.088,0.644c-0.08,0.04-0.162,0.076-0.241,0.116
						c-0.477,0.245,0.299-0.126,0.336-0.134c-0.224,0.048-0.446,0.164-0.668,0.231c-0.389,0.118-0.821,0.146-1.2,0.276
						c0.023-0.008,0.944-0.092,0.395-0.053c-0.088,0.006-0.176,0.016-0.264,0.023c-0.236,0.017-0.471,0.026-0.708,0.027
						c-0.208,0-0.415-0.006-0.623-0.018c-0.137-0.008-0.919-0.098-0.254-0.009c0.669,0.089-0.103-0.026-0.253-0.056
						c-0.238-0.048-0.475-0.104-0.71-0.168c-0.237-0.064-0.472-0.137-0.704-0.216c-0.136-0.047-0.865-0.336-0.283-0.094
						c0.581,0.241-0.161-0.083-0.273-0.139c-0.228-0.112-0.453-0.232-0.673-0.358c-0.356-0.204-0.759-0.607-1.139-0.737
						c-0.02-0.007,0.586,0.466,0.307,0.235c-0.102-0.084-0.207-0.165-0.308-0.25c-0.209-0.175-0.412-0.356-0.611-0.542
						c-0.358-0.333-0.7-0.681-1.03-1.041c-0.167-0.183-0.33-0.368-0.49-0.557c-0.092-0.109-0.182-0.219-0.273-0.329
						c-0.336-0.405,0.16,0.125,0.141,0.182c0.044-0.137-0.78-1.082-0.887-1.243c-0.33-0.494-0.642-1.001-0.938-1.515
						c-0.554-0.962-1.051-1.956-1.503-2.968c-0.047-0.105-0.086-0.221-0.142-0.321c0.042,0.076,0.3,0.725,0.073,0.164
						c-0.104-0.256-0.208-0.511-0.308-0.768c-0.217-0.556-0.422-1.117-0.616-1.681c-0.762-2.22-1.359-4.494-1.833-6.79
						c-0.249-1.209-0.466-2.424-0.652-3.643c-0.037-0.245-0.073-0.49-0.108-0.735c-0.091-0.623,0.003,0.079,0.022,0.169
						c-0.034-0.157-0.044-0.334-0.063-0.492c-0.077-0.615-0.146-1.231-0.208-1.848c-0.239-2.388-0.363-4.788-0.376-7.187
						c-0.013-2.433,0.089-4.867,0.306-7.291c0.051-0.572,0.109-1.144,0.173-1.714c0.032-0.285,0.066-0.569,0.101-0.854
						c0.015-0.122,0.031-0.243,0.046-0.365c0.081-0.657-0.073,0.493-0.009,0.055c0.17-1.167,0.355-2.331,0.575-3.49
						c0.861-4.548,2.152-9.026,3.939-13.308c0.044-0.106,0.094-0.212,0.134-0.32c-0.286,0.773-0.153,0.354-0.074,0.177
						c0.11-0.245,0.217-0.491,0.328-0.735c0.237-0.52,0.482-1.037,0.733-1.551c0.783-1.602,0.5-3.753-1.24-4.659
						c-1.645-0.856-3.77-0.429-4.73,1.222c-6.093,10.477-12.187,20.955-18.28,31.432c-1.351,2.323-2.699,4.65-4.159,6.909
						c-0.709,1.096-1.444,2.176-2.222,3.226c-0.179,0.242-0.448,0.499-0.581,0.768c0.004-0.007,0.411-0.514,0.172-0.219
						c-0.1,0.123-0.198,0.248-0.298,0.371c-0.421,0.516-0.855,1.022-1.305,1.514c-0.822,0.9-1.698,1.755-2.636,2.538
						c-0.115,0.096-0.232,0.189-0.348,0.284c-0.075,0.062-0.393,0.293-0.003,0.009c0.451-0.328-0.345,0.245-0.435,0.307
						c-0.486,0.334-0.991,0.643-1.512,0.923c-0.212,0.114-0.427,0.223-0.644,0.327c-0.123,0.059-0.25,0.113-0.373,0.173
						c-0.401,0.194,0.677-0.262,0.261-0.104c-0.538,0.203-1.076,0.394-1.632,0.543c-0.484,0.129-0.972,0.22-1.465,0.305
						c-0.444,0.076,0.778-0.078,0.33-0.047c-0.098,0.007-0.197,0.019-0.295,0.027c-0.327,0.026-0.655,0.039-0.983,0.038
						c-0.229,0-0.457-0.008-0.686-0.022c-0.126-0.008-1.086-0.092-0.417-0.028c0.642,0.062-0.163-0.041-0.313-0.073
						c-0.321-0.068-0.639-0.151-0.953-0.248c-0.222-0.069-0.437-0.152-0.656-0.227c-0.416-0.143,0.669,0.307,0.271,0.114
						c-0.121-0.059-0.244-0.112-0.365-0.172c-0.527-0.26-1.02-0.568-1.504-0.899c-0.488-0.334,0.582,0.485-0.06-0.059
						c-0.225-0.19-0.441-0.388-0.651-0.593c-0.371-0.363-0.693-0.762-1.04-1.145c-0.281-0.31,0.449,0.61,0.211,0.267
						c-0.068-0.098-0.142-0.192-0.212-0.289c-0.139-0.195-0.273-0.392-0.403-0.593c-0.261-0.404-0.503-0.821-0.727-1.247
						c-0.113-0.215-0.221-0.432-0.325-0.652c-0.052-0.11-0.1-0.223-0.153-0.333c-0.186-0.382,0.275,0.707,0.13,0.306
						c-0.169-0.467-0.361-0.925-0.515-1.397c-0.318-0.971-0.565-1.963-0.753-2.966c-0.048-0.257-0.092-0.514-0.133-0.772
						c-0.131-0.829,0.071,0.629-0.001,0.024c-0.067-0.564-0.125-1.128-0.165-1.695c-0.076-1.09-0.098-2.183-0.074-3.275
						c0.024-1.114,0.096-2.227,0.208-3.335c0.028-0.279,0.059-0.558,0.093-0.837c0.013-0.105,0.026-0.209,0.039-0.314
						c0.071-0.586-0.03,0.221-0.04,0.278c0.101-0.589,0.177-1.181,0.282-1.769c0.388-2.177,0.918-4.329,1.583-6.44
						c0.319-1.014,0.672-2.018,1.055-3.01c0.218-0.563,0.441-1.124,0.671-1.682c0.121-0.295,0.263-0.587,0.371-0.887
						c-0.031,0.086-0.31,0.709-0.064,0.153c0.081-0.182,0.16-0.365,0.241-0.547c1.021-2.296,2.148-4.547,3.383-6.738
						c1.181-2.096,2.461-4.138,3.841-6.112c0.686-0.981,1.43-1.918,2.13-2.887c-0.558,0.773-0.004,0.009,0.149-0.182
						c0.185-0.23,0.371-0.458,0.559-0.685c0.373-0.452,0.753-0.899,1.139-1.34c1.511-1.732,3.115-3.385,4.813-4.941
						c0.828-0.759,1.679-1.495,2.551-2.204c0.431-0.351,0.873-0.687,1.309-1.032c-0.048,0.038-0.665,0.496-0.203,0.158
						c0.111-0.081,0.221-0.164,0.333-0.246c0.222-0.163,0.445-0.324,0.669-0.483c0.889-0.631,1.799-1.233,2.727-1.808
						c1.529-0.949,2.275-3.077,1.24-4.659C44.436,92.635,42.33,91.906,40.693,92.922L40.693,92.922z"/>
					<path fill="#B6F4F8" d="M47.379,346.941c0.788-0.384,1.581-0.756,2.383-1.109c0.16-0.071,0.321-0.139,0.482-0.21
						c0.8-0.353-0.554,0.224-0.033,0.013c0.447-0.181,0.892-0.364,1.341-0.539c1.632-0.636,3.29-1.206,4.967-1.711
						c1.677-0.505,3.374-0.945,5.086-1.319c0.77-0.168,1.543-0.324,2.319-0.465c0.911-0.167,1.927-0.455,2.854-0.46
						c-0.093,0-0.872,0.11-0.198,0.027c0.217-0.027,0.435-0.055,0.652-0.08c0.392-0.046,0.784-0.09,1.176-0.129
						c0.915-0.093,1.833-0.167,2.751-0.224c1.706-0.105,3.415-0.147,5.124-0.125c1.752,0.022,3.504,0.11,5.249,0.265
						c0.873,0.078,1.743,0.177,2.613,0.283c0.228,0.028,0.67-0.002-0.198-0.027c0.214,0.006,0.438,0.062,0.65,0.094
						c0.476,0.071,0.952,0.147,1.427,0.228c3.887,0.665,7.709,1.677,11.418,3.016c1.816,0.655,4.115-0.737,4.533-2.574
						c0.472-2.074-0.63-3.832-2.574-4.533c-13.951-5.035-29.583-5.429-43.833-1.378c-4.096,1.164-8.083,2.728-11.909,4.595
						c-1.737,0.847-2.345,3.456-1.322,5.042C43.485,347.399,45.521,347.847,47.379,346.941L47.379,346.941z"/>
					<path fill="#B6F4F8" d="M33.263,326.685c10.868-3.403,21.969-5.987,33.187-7.046c1.402-0.132,2.805-0.24,4.208-0.322
						c0.659-0.038,1.318-0.071,1.977-0.098c0.329-0.013,0.658-0.025,0.987-0.036c0.164-0.005,0.329-0.01,0.493-0.014
						c0.454-0.012,0.369,0.015-0.033-0.001c1.386,0.056,2.787-0.025,4.177,0.006c1.385,0.031,2.769,0.091,4.151,0.183
						c2.746,0.182,5.482,0.488,8.197,0.933c1.35,0.221,2.695,0.478,4.033,0.77c1.329,0.29,2.646,0.74,3.98,0.984
						c-0.089-0.016-0.756-0.219-0.166-0.046c0.193,0.056,0.386,0.112,0.579,0.169c0.347,0.103,0.693,0.209,1.039,0.317
						c0.768,0.241,1.532,0.495,2.292,0.763c1.408,0.496,2.802,1.038,4.178,1.627c2.889,1.237,5.695,2.687,8.402,4.335
						c0.7,0.426,1.88,0.299,2.594-0.044c0.742-0.356,1.507-1.142,1.798-1.991c0.706-2.062-0.112-3.803-1.735-4.791
						c-9.782-5.953-20.878-9.15-32.074-10.166c-11.445-1.038-23.071,0.029-34.418,2.325c-6.297,1.274-12.533,2.937-18.704,4.869
						c-0.88,0.276-1.602,0.594-2.19,1.428c-0.515,0.731-0.837,1.863-0.692,2.774C29.802,325.369,31.453,327.252,33.263,326.685
						L33.263,326.685z"/>
				</g>
			</g>
		</g>
	</g>
</g>
<g id="Layer_1">
</g>
</svg>
