<?xml version="1.0" encoding="utf-8"?>
<!-- Generator: Adobe Illustrator 26.0.0, SVG Export Plug-In . SVG Version: 6.00 Build 0)  -->
<svg version="1.1" xmlns="http://www.w3.org/2000/svg" xmlns:xlink="http://www.w3.org/1999/xlink" x="0px" y="0px"
	 viewBox="0 0 79.491 128.406" enable-background="new 0 0 79.491 128.406" xml:space="preserve">
<g id="decoration_x5F_hanger">
	<g>
		<path fill="#FFD200" d="M39.745,79.491C17.83,79.491,0,61.661,0,39.746S17.83,0,39.745,0s39.745,17.83,39.745,39.746
			S61.661,79.491,39.745,79.491z M39.745,13.043c-14.724,0-26.703,11.979-26.703,26.703c0,14.724,11.979,26.703,26.703,26.703
			s26.703-11.979,26.703-26.703C66.448,25.021,54.469,13.043,39.745,13.043z"/>
		<path fill="#FFD200" d="M62.815,128.406c0-21.967-4.325-58.42-23.753-57.11c-17.162,1.157-22.387,32.773-22.387,57.11H62.815z"/>
	</g>
</g>
<g id="Layer_1">
</g>
</svg>
