<?xml version="1.0" encoding="utf-8"?>
<!-- Generator: Adobe Illustrator 24.2.3, SVG Export Plug-In . SVG Version: 6.00 Build 0)  -->
<svg version="1.1" xmlns="http://www.w3.org/2000/svg" xmlns:xlink="http://www.w3.org/1999/xlink" x="0px" y="0px"
	 viewBox="0 0 236.816 240.358" enable-background="new 0 0 236.816 240.358" xml:space="preserve">
<g id="duck">
	<g>
		<path fill="#FDE40B" d="M223.001,106.508c-16.64-9.811-20.287,21.244-58.923,26.066c-2.926,0.365-5.879,0.222-8.867-0.266
			c7.365-5.47,13.359-12.622,17.637-21.019c13.808-27.1,10.798-63.717-8.491-87.505C145.449,0.466,113.034-5.132,85.386,4.479
			c-28.999,10.08-46.155,37.968-47.702,67.904c0.098-1.945,0.388-7.8-0.009,0.139c-0.029,0.591-0.034,0.514-0.003,0.11
			c-2.702,35.931,17.821,49.539,20.461,51.027c-24.158,18.822-31.365,55.553-16.596,84.461
			c17.334,33.929,112.148,43.501,154.948,16.986C251.233,191.188,239.642,116.318,223.001,106.508z"/>
		<g>
			<path fill="#F77F15" d="M67.481,78.385c-1.739-14.901-10.958-19.731-18.257-18.879c-10.129,1.182-9.643,6.541-16.84,12.123
				c-10.469,8.119-14.277-5.916-26.477-6.514C-6.291,64.516,1.976,86.82,16.406,96.741c1.204,0.827,2.843,2.256,4.774,3.971
				c-3.754,5.656-5.875,11.044-5.031,14.719c2.219,9.667,19.644,12.494,37.773-0.353c2.061-1.46,3.972-3.29,5.661-5.363
				C65.863,102.773,69.004,91.436,67.481,78.385z"/>
			<path fill="#C30D26" d="M61.869,89.766C37.53,101.704,22.574,93.322,5.345,75.847c1.227,4.969,15.138,19.385,23.32,21.047
				C4.417,127.846,57.07,116.582,61.869,89.766z"/>
		</g>
		<path fill="#F9D214" d="M103.752,154.566c-21.553,9.961-21.523,38.573,6.78,50.192c39.591,16.253,79.107-29.371,74.785-41.208
			c-2.29-6.272-24.283,8.632-39.012-4.094C132.451,147.488,112.783,150.392,103.752,154.566z"/>
		<path fill="#4B4B4A" d="M113.564,69.998c6.658-0.894,11.902,2.253,13.732,10.099c1.965,8.426-2.911,16.005-12.901,15.76
			c-9.563-0.235-11.928-7.978-12.019-12.047C102.24,77.717,105.817,71.038,113.564,69.998z"/>
	</g>
</g>
<g id="Layer_1">
</g>
</svg>
