<?xml version="1.0" encoding="utf-8"?>
<!-- Generator: Adobe Illustrator 25.0.0, SVG Export Plug-In . SVG Version: 6.00 Build 0)  -->
<svg version="1.1" id="Layer_1" xmlns="http://www.w3.org/2000/svg" xmlns:xlink="http://www.w3.org/1999/xlink" x="0px" y="0px"
	 viewBox="0 0 331.897 227.099" enable-background="new 0 0 331.897 227.099" xml:space="preserve">
<g id="envelope_x5F_white">
	<path fill="#E7E9E9" d="M321.779,3.116C308.104-2.938,15.518,1.983,5.904,6.747c-7.5,6.988-7.939,211.269-0.834,215.683
		c6.791,5.565,312.647,6.806,321.453-0.021C336.681,214.533,330.924,7.166,321.779,3.116z"/>
	<path fill="#FFFFFF" d="M5.076,223.096c6.785,4.962,312.636,5.805,321.449-0.299c0.49-0.338,0.942-1.094,1.36-2.217
		c-45.238-37.705-144.158-117.26-161.78-117.116c-20.216,0.164-114.182,76.059-162.348,116.549
		C4.163,221.765,4.602,222.833,5.076,223.096z"/>
	<path fill="#B2B2B2" d="M321.781,2.942c-13.245-6.133-308.95-1.6-315.876,3.805C45.017,48.016,146.818,149.36,163.967,149.22
		C183.998,149.058,327.885,14.854,321.781,2.942z"/>
</g>
<g id="Layer_1_1_">
</g>
</svg>
