<?xml version="1.0" encoding="utf-8"?>
<!-- Generator: Adobe Illustrator 25.0.0, SVG Export Plug-In . SVG Version: 6.00 Build 0)  -->
<svg version="1.1" xmlns="http://www.w3.org/2000/svg" xmlns:xlink="http://www.w3.org/1999/xlink" x="0px" y="0px"
	 viewBox="0 0 367.295 157.502" enable-background="new 0 0 367.295 157.502" xml:space="preserve">
<g id="fishbone">
	<g>
		<path fill="#7C7E7E" d="M367.019,121.255c4.576-7.395-49.105-96.081-55.259-96.867c-2.536-0.323-15.09,19.426-27.624,41.034
			c-5.084-2.534-10.224-4.925-15.402-7.146c-0.037-19.926-22.735-40.719-24.234-40.451c-1.393,0.249,9.177,19.942,10.572,35.018
			c-9-3.3-18.055-6.061-27.064-8.181c-3.949-27.728-38.697-45.733-40.418-44.614c-1.624,1.054,12.746,19.961,16.694,40.557
			c-9.129-0.961-18.048-1.077-27.068-0.458c-9.585-24.085-41.197-35.093-42.657-33.798c-1.339,1.189,16.943,18.125,25.412,35.781
			c-10.929,1.79-21.265,4.497-30.767,7.755C115.002,32.604,81.387,29.21,80.219,30.453c-1.119,1.191,22.542,12.25,33.989,25.304
			c-11.404,5.059-21.026,10.764-28.249,16.258C73.575,54.635,45.686,36.838,0,71.014l59.242,20.699l-19.57,65.673
			c0,0,0.024-0.006,0.062-0.016l-0.028,0.095c0.841,1.088,71.841-21.681,52.077-74.901c7.365-5.433,17.528-9.99,28.818-13.617
			c2.967,17.275-2.545,44.519-1.091,44.519c1.485,0,19.634-23.703,15.99-48.643c9.57-2.264,19.395-3.913,28.617-4.921
			c-0.758,21.957-14.654,56.789-13.174,57.101c1.479,0.312,26.561-25.775,28.829-58.253c8.326-0.336,16.597-0.241,24.768,0.266
			c-3.922,25.952-22.068,60.193-19.664,63.165c0.932,1.151,33.467-28.942,41.782-60.746c8.692,1.378,17.206,3.248,25.481,5.585
			c-7.85,14.523-28.187,35.565-27.191,36.308c1.036,0.772,29.238-12.264,40.191-32.175c4.363,1.547,8.646,3.228,12.835,5.049
			c-12.36,21.918-23.011,42.667-21.638,43.545c7.984,5.107,105.345,10.099,110.685,1.513L367.019,121.255z"/>
		<g>
			<path fill="#FFFFFF" d="M298.373,99.976c2.683,3.127,6.585,5.162,10.972,5.388l-2.074-9.289L298.373,99.976z"/>
			<path fill="#FFFFFF" d="M322.97,81.132c-2.884-4.238-7.97-7.042-13.466-6.741c0.707,2.843,1.682,6.744,2.743,10.978
				C316.371,83.756,320.178,82.245,322.97,81.132z"/>
			<path fill="#FFFFFF" d="M314.174,93.049c0.978,3.892,1.926,7.664,2.715,10.801c5.729-2.698,9.534-9.151,8.669-15.792
				L314.174,93.049z"/>
			<path fill="#FFFFFF" d="M302.832,76.193c-5.482,2.859-9.03,9.317-8.045,15.788c3.103-1.109,6.842-2.514,10.681-3.985
				L302.832,76.193z"/>
		</g>
	</g>
</g>
<g id="Layer_1">
</g>
</svg>
