<?xml version="1.0" encoding="utf-8"?>
<!-- Generator: Adobe Illustrator 24.2.3, SVG Export Plug-In . SVG Version: 6.00 Build 0)  -->
<svg version="1.1" xmlns="http://www.w3.org/2000/svg" xmlns:xlink="http://www.w3.org/1999/xlink" x="0px" y="0px"
	 viewBox="0 0 339.18 268.723" enable-background="new 0 0 339.18 268.723" xml:space="preserve">
<g id="fishing_x5F_rod_x5F_brown">
	<path fill="#FFFFFF" d="M309.11,35.777c-8.027-1.853-15.123-3.58-17.59-10.002c-2.334-10.599,10.516-17.338,18.136-6.956
		c-1.289-6.002-1.73-12.414,0.892-15.98c1.998-4.092,12.19-3.766,14.345,1.022c5.042,8.181-0.046,23.686-4.753,33.667L309.11,35.777
		z M300.441,17.951c-9.187,4.852,1.84,11.812,12.308,12.656C309.422,25.195,304.297,15.915,300.441,17.951z M317.664,4.527
		c-8.63-0.063-3.197,14.486-0.779,22.847C319.005,20.212,326.721,6.547,317.664,4.527z"/>
	<path fill="#935803" d="M6.463,247.453c1.262-0.056,328.436-224.65,328.436-224.65l4.281,6.638L16.943,261.875L6.463,247.453z"/>
	<polygon fill="#7F4F1D" points="0,251.657 71.101,203.593 84.034,213.481 13.544,268.723 	"/>
</g>
<g id="Layer_1">
</g>
</svg>
