<?xml version="1.0" encoding="utf-8"?>
<!-- Generator: Adobe Illustrator 24.2.3, SVG Export Plug-In . SVG Version: 6.00 Build 0)  -->
<svg version="1.1" xmlns="http://www.w3.org/2000/svg" xmlns:xlink="http://www.w3.org/1999/xlink" x="0px" y="0px"
	 viewBox="0 0 422.652 490.077" enable-background="new 0 0 422.652 490.077" xml:space="preserve">
<g id="jackinthebox_x5F_clown_x5F_toy">
	<g>
		<g id="vieteriukko_1_">
			<path fill="#54BDCF" d="M188.35,335.344l80.383-14.327c0,0,30.995,13.485,38.463,22.046c0.116,5.274-26.881,22.374-26.881,22.374
				s30.09,14.601,30.703,19.168c0.894,6.668-18.885,27.349-18.894,28.51c-0.021,2.83,24.276,7.798,27.439,16.018
				c1.616,4.201-24.176,27.745-24.176,27.745l24.919,32.131l-138.754,1.067l19.901-28.703c0,0-22.991-13.012-23.357-17.812
				c-0.367-4.801,20.97-20.596,20.97-20.596s-28.554-13.309-29.182-17.695c-0.628-4.386,20.257-28.749,20.257-28.749
				s-22.572-7.966-24.085-12.554C164.54,359.38,188.35,335.344,188.35,335.344z"/>
			<path fill="#3F749A" d="M306.654,342.507c-8.266-8.575-37.939-21.491-37.939-21.491l-80.383,14.327
				c0,0-22.924,23.147-22.337,28.339c14.734-2.486,47.804-8.095,79.55-12.843C269.47,347.262,292.637,344.259,306.654,342.507z"/>
			<path fill="#3F749A" d="M280.315,365.441c-18.597,2.551-64.087,7.578-90.177,11.085c-4.713,5.606-20.8,25.066-20.276,28.748
				c0.013,0.083,0.054,0.175,0.085,0.264c22.575-3.432,104.683-15.639,141.018-21.037
				C310.023,380.235,284.676,367.587,280.315,365.441z"/>
			<path fill="#3F749A" d="M319.544,429.134c-2.943-7.648-24.499-13.103-27.422-16.018c-25.787,2.915-72.601,7.641-93.061,9.85
				c-5.203,3.99-21.287,16.673-20.987,20.595c0.017,0.227,0.1,0.477,0.214,0.737c34.555-3.536,115.844-11.863,141.31-14.586
				C319.614,429.497,319.607,429.297,319.544,429.134z"/>
			<polygon fill="#3F749A" points="181.531,490.077 320.285,489.01 295.385,456.88 201.432,461.374 			"/>
			<path fill="#EB4238" d="M52.398,222.973c0,0,40.399,25.354,112.682,17.53c43.879-4.749,38.503-3.875,91.59-11.714
				c75.654-11.172,96.12-32.26,96.12-32.26s19.55,24.663,17.472,26.286c-32.847,25.663-81.871,43.135-83.84,45.391
				c17.382,35.462,25.055,55.792,25.055,55.792l-167.005,24.484c0,0,0.562-24.06,11.398-60.706
				c-4.821-0.725-90.547-12.178-119.272-44.866L52.398,222.973z"/>
			<path fill="#54BDCF" d="M169.526,217.235l97.183-16.208c0,0,11.235,8.279,16.159,12.625c3.901,3.443,13.656,13.897,13.656,13.897
				s-10.61,13.011-67.895,23.972c-55.397,10.601-82.53-2.406-82.53-2.406s7.505-10.777,10.915-15.917
				C160.425,228.06,169.526,217.235,169.526,217.235z"/>
			<path fill="#3F749A" d="M296.524,227.556c0,0-9.755-10.452-13.656-13.897c-4.924-4.346-16.159-12.625-16.159-12.625l-7.05,1.176
				c5.289,6.306,20.537,23.405,27.803,31.53C294.5,230.036,296.524,227.556,296.524,227.556z"/>
			<path fill="#3F749A" d="M241.867,205.177c3.285,6.86,13.308,26.783,19.296,38.652c5.017-1.478,9.358-2.93,13.104-4.321
				l-24.774-35.603L241.867,205.177z"/>
			<path fill="#3F749A" d="M223.76,208.198l9.844,42.351c5.941-1.206,11.341-2.431,16.247-3.656l-16.686-40.264L223.76,208.198z"/>
			<path fill="#3F749A" d="M203.973,211.498l0.622,43.423c4.595-0.402,9.473-0.986,14.618-1.773
				c-1.062-10.003-3.581-33.747-4.583-43.427L203.973,211.498z"/>
			<path fill="#3F749A" d="M185.518,214.576l-12.808,40.436c4.885,0.461,10.451,0.725,16.697,0.662
				c1.233-11.617,3.509-33.014,4.547-42.504L185.518,214.576z"/>
			<path fill="#3F749A" d="M169.526,217.244c0,0-9.103,10.826-12.513,15.964c-3.41,5.14-10.915,15.917-10.915,15.917
				s4.443,2.128,13.393,3.96l16.427-36.906L169.526,217.244z"/>
			<path fill="#CAF5F9" d="M372.035,190.866c0,0-9.808-19.864-2.218-23.054c7.59-3.189,13.278,11.19,13.278,11.19
				s1.344-15.486,9.472-13.642c8.176,1.854,2.691,13.992,2.691,13.992s6.281-10.839,11.175-7.32
				c6.561,4.716-2.074,14.677-2.074,14.677s10.553-5.501,13.279,0.789c2.727,6.29-8.886,11.174-8.886,11.174
				s14.038-1.485,13.898,4.508c-0.14,5.996-31.274,11.02-31.274,11.02L372.035,190.866z"/>
			<path fill="#CAF5F9" d="M50.575,218.606c0,0,9.746-19.894,2.148-23.061S39.48,206.776,39.48,206.776s-1.392-15.482-9.514-13.611
				c-8.168,1.88-2.648,14.001-2.648,14.001s-6.314-10.819-11.197-7.286c-6.547,4.738,2.119,14.67,2.119,14.67
				s-10.569-5.468-13.278,0.831c-2.709,6.299,8.922,11.146,8.922,11.146s-14.042-1.444-13.883,4.553
				c0.159,5.997,31.306,10.922,31.306,10.922L50.575,218.606z"/>
			<path fill="#ED9EC3" d="M370.216,189.051c2.847,1.24,21.852,24.663,21.852,24.663l-13.925,25.817c0,0-5.521-2-19.201-19.143
				s-18.614-27.028-18.614-27.028L370.216,189.051z"/>
			<path fill="#ED9EC3" d="M31.165,242.549c0.552-3.055,18.979-26.936,18.979-26.936l28.326,7.618c0,0-0.677,5.833-14.217,23.087
				c-13.54,17.254-22.025,24.33-22.025,24.33L31.165,242.549z"/>
			<path fill="#3F749A" d="M286.066,115.92c5.543-2.527,36.502-6.467,31.319,13.582c-0.351,4.614-17.026,13.842-23.245,13.198
				L286.066,115.92z"/>
			<path fill="#3F749A" d="M294.666,142.719c36.978-8.042,43.401,26.706-2.552,21.985L294.666,142.719z"/>
			<path fill="#3F749A" d="M277.428,188.2c41.034,15.196,62.793-22.018,12.961-24.29L277.428,188.2z"/>
			<path fill="#3F749A" d="M129.246,149.255c-6.051-0.049-35.942,9.26-22.908,25.311c2.22,4.052,21.227,5.574,26.62,2.413
				L129.246,149.255z"/>
			<path fill="#3F749A" d="M132.49,177.212c-36.919,7.905-28.576,42.275,11.409,18.967L132.49,177.212z"/>
			<path fill="#3F749A" d="M166.98,211.507c-31.089,30.792-66.281,5.902-21.843-16.76L166.98,211.507z"/>
			<path fill="#CAF5F9" d="M197.253,89.025c34.518-5.672,82.511-6.927,98.366,40.429c14.592,43.586-19.032,81.416-66.996,91.516
				c-38.399,8.085-67.044,3.462-82.081-9.707c-7.731-6.77-18.058-22.32-20.491-35.701
				C112.352,100.241,183.925,91.214,197.253,89.025z"/>
			<path fill="#EB4238" d="M211.919,156.403c36.579-7.428,41.475,32.081,9.694,38.642
				C188.074,200.478,179.788,163.673,211.919,156.403z"/>
			<path fill="#FFFFFF" d="M229.569,125.761c18.107-20.735,48.298,4.891,32.459,26.018
				C243.883,170.791,213.441,149.016,229.569,125.761z"/>
			<path fill="#4B4B4A" d="M237.752,131.628c9.881-11.835,27.519,3.049,18.375,14.73
				C246.341,157.352,228.352,144.159,237.752,131.628z"/>
			<path fill="#FFFFFF" d="M156.694,143.571c18.107-20.735,48.298,4.891,32.459,26.018
				C171.008,188.601,140.566,166.825,156.694,143.571z"/>
			<path fill="#4B4B4A" d="M164.364,148.437c9.785-11.722,27.26,3.02,18.201,14.588
				C172.875,173.914,155.059,160.848,164.364,148.437z"/>
			<path fill="#EB4238" d="M183.388,186.906c0,0,10.377,22.935,36.714,18.029c35.056-6.53,31.248-32.102,31.248-32.102
				s9.306,31.613-31.052,36.837C187.371,213.933,183.388,186.906,183.388,186.906z"/>
			<path fill="#ED9EC3" d="M298.425,141.181c-1.568-0.627-3.205-1.086-4.904-1.328c-11.304-1.617-25.758,2.122-29.843,12.487
				c-4.57,11.592-3.992,26.265,9.519,33.529c3.826,2.057,8.128,2.496,12.181,2.166C295.807,174.754,300.943,158.626,298.425,141.181
				z"/>
			<path fill="#ED9EC3" d="M168.495,184.344c-3.988-10.402-17.331-15.349-29.228-13.867c-4.848,0.605-9.315,2.697-13.095,5.644
				c2.609,13.258,12.748,28.476,20.374,35.154c2.84,2.488,6.166,4.668,9.952,6.518c0.31-0.127,0.619-0.256,0.923-0.401
				C171.257,210.765,173.127,196.424,168.495,184.344z"/>
			<path fill="#ED9EC3" d="M123.562,147.668c1.806,0.042,50.224-10.287,94.343-18.804c48.297-9.323,70.573-15.501,70.573-15.501
				s5.51-12.111,13.941-23.229c4.37-5.965,15.684-21.074,24.068-31.263c11.484-13.956,12.509-17.468,12.509-17.468
				s-18.779-3.958-46.653,2.368c-24.174,5.486-48.994,19.904-48.994,19.904s-41.014-25.226-65.722-33.898
				c-19.928,25.623-30.446,58.698-30.446,58.698s-20.958-0.962-52.227,5.536c-27.049,5.621-42.447,18.182-42.447,18.182
				s11.556,3.296,36.854,16.028C103.145,135.156,117.068,143.089,123.562,147.668z"/>
			<path fill="#3F749A" d="M184.004,1.607c7.479,2.687,9.233,10.11,8.626,15.143c-2.122,13.718-14.991,15.866-25.089,13.319
				C150.142,23.914,156.48-7.37,184.004,1.607z"/>
			<path fill="#EB4238" d="M243.022,63.475c-2.616-1.598-20.77-12.615-39.506-22.148c3.03,26.33,8.869,73.733,10.663,88.259
				c1.245-0.241,2.487-0.482,3.726-0.722c7.657-1.478,14.654-2.876,21.018-4.184c0.457-10.733,1.321-29.967,1.893-36.458
				C241.534,80.101,242.361,70.862,243.022,63.475z"/>
			<path fill="#EB4238" d="M302.419,90.134c4.37-5.965,15.684-21.074,24.068-31.263c11.484-13.954,12.509-17.468,12.509-17.468
				s-18.779-3.958-46.653,2.368c-2.051,0.466-4.108,0.999-6.151,1.579c-3.075,9.143-9.55,28.735-13.251,42.338
				c-1.451,5.336-5.559,22.513-7.652,31.312c15.691-3.559,23.189-5.637,23.189-5.637S293.986,101.252,302.419,90.134z"/>
			<path fill="#EB4238" d="M147.195,88.433c8.924,17.257,21.635,41.325,25.872,49.337c6.971-1.413,14.318-2.894,21.796-4.382
				c-4.132-12.724-21.769-66.139-28.511-86.891C153.968,67.457,147.411,87.76,147.195,88.433z"/>
			<path fill="#EB4238" d="M97.361,93.522c-0.796,0.159-1.596,0.32-2.406,0.488c-27.049,5.621-42.447,18.182-42.447,18.182
				s11.556,3.296,36.854,16.028c13.782,6.936,27.707,14.869,34.199,19.45c0.852,0.02,12.043-2.262,28.254-5.57
				c-6.353-6.331-16.41-15.932-22.897-21.971C114.873,107.058,104.123,98.466,97.361,93.522z"/>
			<path fill="#ED9EC3" d="M215.026,260.628c20.538-12.641,43.172,12.37,23.616,31.819
				C213.821,309.456,192.686,276.793,215.026,260.628z"/>
			<path fill="#ED9EC3" d="M237.652,301.996c7.479,2.687,9.233,10.11,8.626,15.143c-2.122,13.718-14.991,15.866-25.089,13.319
				C203.79,324.303,210.128,293.019,237.652,301.996z"/>
			<path fill="#3F749A" d="M28.463,96.058c17.073-10.646,36.578,10.519,19.918,26.833C27.585,137.316,9.584,109.542,28.463,96.058z"
				/>
			<path fill="#3F749A" d="M343.908,23.134c16.958-10.964,36.572,10.452,19.916,26.832C343.026,64.392,325.029,36.62,343.908,23.134
				z"/>
		</g>
		<g id="Layer_1_117_">
		</g>
	</g>
	<g id="Layer_1_1_">
	</g>
</g>
<g id="Layer_1">
</g>
</svg>
