<?xml version="1.0" encoding="utf-8"?>
<!-- Generator: Adobe Illustrator 26.0.3, SVG Export Plug-In . SVG Version: 6.00 Build 0)  -->
<svg version="1.1" xmlns="http://www.w3.org/2000/svg" xmlns:xlink="http://www.w3.org/1999/xlink" x="0px" y="0px"
	 viewBox="0 0 303.572 519.883" enable-background="new 0 0 303.572 519.883" xml:space="preserve">
<g id="letterbox_x5F_red">
	<g>
		<rect x="127.61" y="277.131" fill="#A5152A" width="49.742" height="242.753"/>
		<path fill="#CA453A" d="M303.554,131.961c0-3.447-0.232-6.891-0.734-10.308C299.013,95.727,276.509,0,151.777,0
			C32.18,0,0,91.277,0,128.062c0,8.541,0,26.699,0,49.543h303.554V131.961z"/>
		<polygon fill="#A5152A" points="33.781,124.974 33.781,161.74 268.911,161.804 269.773,124.58 		"/>
		<path fill="#A5152A" d="M302.82,121.653C299.013,95.727,276.509,0,151.777,0C32.18,0,0,91.277,0,128.062
			c0,4.705,0,12.334,0,22.052C0,113.329,32.18,33.617,151.777,33.617c124.732,0,147.236,84.162,151.043,110.088
			c0.502,3.417,0.734,6.861,0.734,10.308v-22.052C303.554,128.514,303.322,125.07,302.82,121.653z"/>
		<path fill="#CA453A" d="M0.018,177.605v157.964c0,24.525,19.882,44.407,44.407,44.407h214.741
			c24.525,0,44.407-19.882,44.407-44.407V177.605H0.018z"/>
		<path fill="#D97D2D" d="M233.927,212.543c-7.207-3.627-161.418-0.679-166.485,2.175c-3.953,4.186-4.184,126.573-0.439,129.217
			c3.58,3.334,164.784,4.077,169.425-0.012C241.782,339.205,238.747,214.969,233.927,212.543z"/>
		<path fill="#A5152A" d="M67.002,343.936c3.58,3.334,164.784,4.077,169.425-0.012c0.258-0.227,0.496-0.733,0.715-1.487
			c-23.868-25.326-76.059-78.765-85.347-78.679c-10.656,0.099-60.13,50.968-85.491,78.108
			C66.52,343.042,66.752,343.759,67.002,343.936z"/>
		<path fill="#702421" d="M233.928,212.642c-6.981-3.674-151.834-0.96-165.569,1.921c20.615,24.725,73.353,85.799,82.39,85.716
			c10.558-0.098,62.003-60.259,83.769-86.678C234.325,213.076,234.128,212.747,233.928,212.642z"/>
		<path fill="#A5152A" d="M74.188,213.865c23.355,27.63,68.219,78.767,76.49,78.691c9.824-0.091,55.037-52.173,78.814-80.7
			C206.091,209.636,102.031,211.515,74.188,213.865z"/>
	</g>
</g>
<g id="Layer_1">
</g>
</svg>
