<?xml version="1.0" encoding="utf-8"?>
<!-- Generator: Adobe Illustrator 24.2.3, SVG Export Plug-In . SVG Version: 6.00 Build 0)  -->
<svg version="1.1" xmlns="http://www.w3.org/2000/svg" xmlns:xlink="http://www.w3.org/1999/xlink" x="0px" y="0px"
	 viewBox="0 0 69.981 90.104" enable-background="new 0 0 69.981 90.104" xml:space="preserve">
<g id="note_x5F_1_x5F_white">
	<path fill="#FFFFFF" d="M31.628,0.152c0,0,26.43-2.698,35.678,14.663c4.53,8.503,2.231,18.524,0.871,21.163
		c-4.52,8.769-12.213,9.173-12.445,6.574c-0.131-1.461,6.311-2.216,6.605-11.368c0.118-3.67-1.367-8.431-7.841-13.697
		c-3.533-2.298-10.302-3.298-10.302-3.298c-0.775,13.339-2.121,53.913-2.653,58.183C39.42,89.388,16.374,93.298,7.869,87.745
		C0.955,83.23-2.459,75.898,2.023,67.551c3.649-6.796,15.189-10.764,21.393-10.959c7.012-0.22,11.085,2.477,11.085,2.477
		S31.652,0.336,31.628,0.152z"/>
</g>
<g id="Layer_1">
</g>
</svg>
