<?xml version="1.0" encoding="utf-8"?>
<!-- Generator: Adobe Illustrator 24.2.3, SVG Export Plug-In . SVG Version: 6.00 Build 0)  -->
<svg version="1.1" xmlns="http://www.w3.org/2000/svg" xmlns:xlink="http://www.w3.org/1999/xlink" x="0px" y="0px"
	 viewBox="0 0 96.323 85.615" enable-background="new 0 0 96.323 85.615" xml:space="preserve">
<g id="note_x5F_2_x5F_white">
	<g>
		<g id="nuotti_x5F_valkoinen_x5F_2_1_">
			<path fill="#FFFFFF" d="M30.816,4.842L96.323,0c0,0-5.319,64.426-5.651,66.486c-0.966,5.975-6.958,14.091-21.131,14.989
				c-16.159,1.023-22.658-18.269-10.834-25.652c14.957-9.339,25.569-2.9,25.569-2.9l0.323-44.993L42.25,15.845
				c0,0-3.095,46.3-3.977,53.768c-1.905,16.122-24.015,18.621-30.85,13.822c-6.547-4.597-9.975-10.633-5.175-19.359
				c3.404-6.187,14.055-9.175,19.739-9.176c6.423-0.002,9.581,2.172,9.581,2.172S30.833,5.011,30.816,4.842z"/>
		</g>
		<g id="Layer_1_153_">
		</g>
	</g>
</g>
<g id="Layer_1">
</g>
</svg>
