<?xml version="1.0" encoding="utf-8"?>
<!-- Generator: Adobe Illustrator 24.2.3, SVG Export Plug-In . SVG Version: 6.00 Build 0)  -->
<svg version="1.1" xmlns="http://www.w3.org/2000/svg" xmlns:xlink="http://www.w3.org/1999/xlink" x="0px" y="0px"
	 viewBox="0 0 333.349 258.958" enable-background="new 0 0 333.349 258.958" xml:space="preserve">
<g id="oar">
	<path fill="#935803" d="M0,240.841l23.444,18.116c0,0,27.872-17.45,56.736-35.286c28.416-17.559,56.059-31.026,60.406-42.348
		c2.334-6.079,0.694-10.895,0.694-10.895l173.847-145.52l-1.84-2.695L333.349,7.67L327.54,0l-18.922,17.408
		c0,0-2.395-3.433-2.807-3.134c-0.412,0.298-183.09,140.243-183.09,140.243s-5.912-3.151-15.448-1.642
		c-7.231,1.145-29.271,20.87-51.878,40.315C28.362,216.442,0,240.841,0,240.841z"/>
	<path fill="#935803" d="M185.894,121.373c3.021-2.096,72.846-55.969,95.482-75.783c1.692-1.481,39.333-32.244,49.518-41.162
		L327.54,0l-18.922,17.408c0,0-2.395-3.433-2.806-3.134c-0.411,0.298-183.09,140.243-183.09,140.243s-5.912-3.151-15.448-1.642
		c-7.231,1.145-29.272,20.87-51.878,40.315C28.362,216.442,0,240.841,0,240.841s8.349,6.452,15.285,11.812l116.99-92.167
		C132.275,160.487,182.873,123.469,185.894,121.373z"/>
	<path fill="#7F4F1D" d="M136.351,162.876l5.004,7.489L315.127,24.91l-1.84-2.695l20.062-14.543l-2.456-3.243
		c-10.184,8.918-198.62,156.058-198.62,156.058L15.285,252.653c0.972,0.752,1.326,1.024,2.144,1.657
		C31.356,243.347,136.351,162.876,136.351,162.876z"/>
</g>
<g id="Layer_1">
</g>
</svg>
