<?xml version="1.0" encoding="utf-8"?>
<!-- Generator: Adobe Illustrator 25.0.0, SVG Export Plug-In . SVG Version: 6.00 Build 0)  -->
<svg version="1.1" xmlns="http://www.w3.org/2000/svg" xmlns:xlink="http://www.w3.org/1999/xlink" x="0px" y="0px"
	 viewBox="0 0 199.416 271.234" enable-background="new 0 0 199.416 271.234" xml:space="preserve">
<g id="origami_x5F_rabbit_x5F_green">
	<g id="recycle_x5F_new_x5F_paper_x5F_origami_x5F_bunny">
		<path fill="#A3D02A" d="M165.213,203.713c11.346,2.28,34.203,9.698,34.203,9.698l-15.956,25.182l-31.359-7.47L165.213,203.713z"/>
		<polygon fill="#85A50F" points="144.071,234.914 199.416,213.411 183.459,238.593 		"/>
		<path fill="#A3D02A" d="M55.551,121.489c-1.612,3.179-45.013,76.623-55.405,94.202c-0.542,0.917,0.536,1.926,1.424,1.336
			l82.656-54.862L55.551,121.489z"/>
		<path fill="#85A50F" d="M161.577,0.224L123.134,20.82L86.017,68.066l16.431,14.005l46.642-24.949l13.95-56.074
			C163.187,0.221,162.21-0.33,161.577,0.224z"/>
		<path fill="#BFD731" d="M178.553,13.024l-39.994,13.019L93.205,65.45l13.498,16.85l50.507-15.714l24.266-52.441
			C181.776,13.36,182.084,11.579,178.553,13.024z"/>
		<path fill="#A3D02A" d="M88.297,82.3l50.262-49.477l41.132-19.753c0.797-0.383,1.604,0.506,1.146,1.262L154.655,57.62L88.297,82.3
			z"/>
		<polygon fill="#BFD731" points="8.89,120.91 3.025,86.917 23.233,81.156 		"/>
		<polygon fill="#A3D02A" points="103.645,125.76 172.745,205.952 89.097,256.687 58.342,170.467 		"/>
		<path fill="#CAEB74" d="M45.455,120.91c0,4.849-8.486,135.777-8.486,135.777L98.09,148.812L45.455,120.91z"/>
		<polygon fill="#CAEB74" points="146.075,174.569 60.608,271.234 153.349,271.234 172.745,205.952 		"/>
		<path fill="#CAEB74" d="M93.946,156.067L8.89,120.91l7.469-37.581c3.637-1.212,77.458-25.194,77.458-25.194l27.85,49.398
			L93.946,156.067z"/>
		<path fill="#BFD731" d="M8.89,120.91c2.533-0.687,112.777-13.376,112.777-13.376l-27.721,48.533L8.89,120.91z"/>
		<polygon fill="#BFD731" points="60.608,271.234 172.745,205.952 168.736,219.446 		"/>
	</g>
</g>
<g id="Layer_1">
</g>
</svg>
