<?xml version="1.0" encoding="utf-8"?>
<!-- Generator: Adobe Illustrator 25.0.0, SVG Export Plug-In . SVG Version: 6.00 Build 0)  -->
<svg version="1.1" xmlns="http://www.w3.org/2000/svg" xmlns:xlink="http://www.w3.org/1999/xlink" x="0px" y="0px"
	 viewBox="0 0 257.743 254.258" enable-background="new 0 0 257.743 254.258" xml:space="preserve">
<g id="origami_x5F_bird_x5F_blue">
	<g id="recycle_x5F_new_x5F_paper_x5F_origami_x5F_bird">
		<path fill="#275F88" d="M124.733,239.238l29.943-107.451c0.265-0.95,1.619-0.93,1.856,0.027l30.305,122.444l-61.391-13.826
			C124.911,240.311,124.586,239.766,124.733,239.238z"/>
		<path fill="#3F749A" d="M124.91,238.604c-0.199,0.713,0.444,1.374,1.161,1.188c7.811-2.036,41.436-10.899,41.816-12.65
			c0.405-1.866-10.262-43.971-11.493-48.82c-0.073-0.288-0.275-0.523-0.548-0.641l-11.444-4.959
			c-0.534-0.231-1.15,0.062-1.306,0.623L124.91,238.604z"/>
		<path fill="#275F88" d="M64.398,142.645L90.753,23.227l47.733,63.343c0.317,0.42,0.236,1.017-0.181,1.338l-72.384,55.705
			C65.21,144.159,64.205,143.52,64.398,142.645z"/>
		<path fill="#3F749A" d="M202.463,0.021L90.753,23.227l46.159,63.257c0.382,0.507,1.143,0.51,1.529,0.006L203.42,1.544
			C203.959,0.838,203.333-0.158,202.463,0.021z"/>
		<path fill="#80D8E2" d="M155.053,194.122c-0.01,0.664-0.669,1.12-1.291,0.886c-11.836-4.453-101.134-37.175-99.793-37.751
			c1.327-0.57,88.998-37.424,100.962-42.453c0.638-0.268,1.335,0.21,1.324,0.902L155.053,194.122z"/>
		<path fill="#54BDCF" d="M32.279,66.558L0.204,107.876c-0.503,0.649-0.013,1.589,0.807,1.547l47.312-2.427
			c0.654-0.034,1.083-0.698,0.844-1.308L33.931,66.796C33.659,66.103,32.736,65.97,32.279,66.558z"/>
		<path fill="#80D8E2" d="M54.251,155.691L33.315,66.084l55.046,30.473c0.466,0.258,0.633,0.846,0.371,1.31l-32.711,58.076
			C55.592,156.706,54.45,156.543,54.251,155.691z"/>
		<path fill="#54BDCF" d="M55.888,154.943l69.198-120.674l30.251,84.888c0.177,0.496-0.079,1.041-0.573,1.223l-97.712,35.94
			C56.211,156.63,55.443,155.72,55.888,154.943z"/>
		<path fill="#54BDCF" d="M137.863,226.473l17.793-106.422l31.182,134.207l-48.492-26.787
			C137.989,227.274,137.796,226.874,137.863,226.473z"/>
		<polygon fill="#80D8E2" points="257.743,48.456 125.086,34.268 155.032,120.911 		"/>
	</g>
</g>
<g id="Layer_1">
</g>
</svg>
