<?xml version="1.0" encoding="utf-8"?>
<!-- Generator: Adobe Illustrator 25.0.0, SVG Export Plug-In . SVG Version: 6.00 Build 0)  -->
<svg version="1.1" xmlns="http://www.w3.org/2000/svg" xmlns:xlink="http://www.w3.org/1999/xlink" x="0px" y="0px"
	 viewBox="0 0 189.023 183.468" enable-background="new 0 0 189.023 183.468" xml:space="preserve">
<g id="origami_x5F_fish_x5F_blue">
	<g>
		<polygon fill="#00BDD0" points="50.363,182.557 92.656,138.149 109.043,169.731 95.219,183.468 		"/>
		<path fill="#B6F4F8" d="M95.219,183.468l4.863-29.953l11.62,14.493L95.219,183.468z"/>
		<polygon fill="#00BDD0" points="30,89.649 76.629,119.342 0,149.069 		"/>
		<polygon fill="#82D8E8" points="30,91.107 76.629,61.413 0,31.686 		"/>
		<polygon fill="#82D8E8" points="109.511,170.199 189.023,90.688 109.511,85.688 30,90.688 		"/>
		<polygon fill="#82D8E8" points="54.246,1.1 96.246,46.753 118.703,24.651 98.398,0 		"/>
		<path fill="#B6F4F8" d="M98.398,0l5.694,30.969l11.823-13.239L98.398,0z"/>
		<polygon fill="#00BDD0" points="109.511,11.177 30,90.688 189.023,90.688 		"/>
	</g>
</g>
<g id="Layer_1">
</g>
</svg>
