<?xml version="1.0" encoding="utf-8"?>
<!-- Generator: Adobe Illustrator 25.0.0, SVG Export Plug-In . SVG Version: 6.00 Build 0)  -->
<svg version="1.1" xmlns="http://www.w3.org/2000/svg" xmlns:xlink="http://www.w3.org/1999/xlink" x="0px" y="0px"
	 viewBox="0 0 246.638 141.093" enable-background="new 0 0 246.638 141.093" xml:space="preserve">
<g id="origami_x5F_boat_x5F_orange">
	<g id="recycle_x5F_new_x5F_paper_x5F_origami_x5F_boat_1_">
		<polygon fill="#F77F15" points="123.354,62.902 0,59.953 128.156,102.404 246.638,59.953 		"/>
		<path fill="#F9D214" d="M122.514,0.415L60.89,80.105l62.504,18.728l62.434-18.728l-61.624-79.69
			C123.776-0.138,122.942-0.138,122.514,0.415z"/>
		<path opacity="0.6" fill="#FDA519" enable-background="new    " d="M123.488,1.198l-6.932,82.496h13.606l-6.329-82.496
			C123.806,0.909,123.514,0.909,123.488,1.198z"/>
		<path fill="#BF7900" d="M122.514,0.415L60.89,80.105l62.504,18.728l62.434-18.728l-61.624-79.69
			C123.776-0.138,122.942-0.138,122.514,0.415z"/>
		<path fill="#935803" d="M123.488,1.198l-6.932,82.496h13.606l-6.329-82.496C123.806,0.909,123.514,0.909,123.488,1.198z"/>
		<polygon fill="#F77F15" points="123.354,81.698 69.843,128.551 123.284,141.093 176.865,128.551 		"/>
		<polygon opacity="0.8" fill="#BF7900" enable-background="new    " points="123.284,81.698 176.865,128.551 123.284,141.093 		"/>
		<polygon fill="#FDA519" points="246.638,59.953 123.354,81.698 176.865,128.551 		"/>
		<polygon fill="#FDA519" points="0,59.953 123.284,81.698 69.773,128.551 		"/>
	</g>
</g>
<g id="Layer_1">
</g>
</svg>
