<?xml version="1.0" encoding="utf-8"?>
<!-- Generator: Adobe Illustrator 25.0.0, SVG Export Plug-In . SVG Version: 6.00 Build 0)  -->
<svg version="1.1" xmlns="http://www.w3.org/2000/svg" xmlns:xlink="http://www.w3.org/1999/xlink" x="0px" y="0px"
	 viewBox="0 0 235.606 220.4" enable-background="new 0 0 235.606 220.4" xml:space="preserve">
<g id="origami_x5F_star_x5F_white">
	<g>
		<rect x="62.417" y="64.735" fill="#FFFFFF" width="116.544" height="116.544"/>
		<path fill="#CAD2D3" d="M0.161,80.444l37.12,55.802l26.848-30.386l1.596-38.334L0.893,78.677
			C0.128,78.884-0.233,79.757,0.161,80.444z"/>
		<path fill="#B2B2B2" d="M0.638,79.508l52.623,23.91l8.092-10.553L0.732,79.284C0.535,79.224,0.457,79.414,0.638,79.508z"/>
		<path fill="#E7E9E9" d="M99.076,108.573L79.133,61.51L54.191,95.588l5.392,45.494L99.076,108.573z"/>
		<path fill="#CAD2D3" d="M99.076,108.573l-42.37-17.612L53.2,99.767C53.2,99.767,99.19,108.616,99.076,108.573z"/>
		<path fill="#CAD2D3" d="M119.195,0.432L79.651,54.544l37.791,14.699L153.968,57.5l-32.86-56.992
			C120.649-0.136,119.704-0.174,119.195,0.432z"/>
		<path fill="#B2B2B2" d="M120.238,0.558L115.977,58.2l12.697,3.949l-8.193-61.583C120.471,0.363,120.265,0.355,120.238,0.558z"/>
		<path fill="#E7E9E9" d="M118.254,100.958l40.391-31.326l-39.327-15.387L76.72,71.103L118.254,100.958z"/>
		<path fill="#CAD2D3" d="M118.254,100.958l6.181-45.467l-9.41-1.135C115.024,54.357,118.254,100.958,118.254,100.958z"/>
		<path fill="#CAD2D3" d="M234.845,82.722L171.09,62.055l-2.162,40.491l22.564,31.031l43.878-49.014
			C235.839,83.924,235.58,83.016,234.845,82.722z"/>
		<path fill="#B2B2B2" d="M235.052,83.751l-56.091,13.954l0.214,13.297l55.943-27.017C235.309,83.911,235.253,83.714,235.052,83.751
			z"/>
		<path fill="#E7E9E9" d="M137.61,113.516l42.374,28.587l2.219-47.15l-29.202-30.219L137.61,113.516z"/>
		<path fill="#CAD2D3" d="M137.61,113.516l45.123-8.328l-0.53-10.235C182.202,94.953,137.61,113.516,137.61,113.516z"/>
		<path fill="#CAD2D3" d="M191.002,219.28l0.506-67.019l-39.261,10.134l-22.795,30.861l59.953,27.078
			C190.154,220.591,190.942,220.069,191.002,219.28z"/>
		<path fill="#B2B2B2" d="M190.082,219.787l-27.698-55.714l-9.173,6.457l36.669,49.391
			C190.006,220.081,190.178,219.968,190.082,219.787z"/>
		<path fill="#E7E9E9" d="M128.941,136.753l-17.856,47.843l46.75-16.863l22.256-30.995L128.941,136.753z"/>
		<path fill="#CAD2D3" d="M128.941,136.753l22.198,35.661l11.243-8.341L128.941,136.753z"/>
		<path fill="#CAD2D3" d="M43.426,217.887l63.745-20.696l-22.02-34.048l-36.483-11.875l-6.748,65.438
			C41.914,217.497,42.657,218.08,43.426,217.887z"/>
		<path fill="#B2B2B2" d="M42.652,217.174l43.323-51.099l-11.431-6.384l-32.083,57.333
			C42.351,217.197,42.513,217.323,42.652,217.174z"/>
		<path fill="#E7E9E9" d="M103.43,132.752l-51.086,1.733l29.205,29.59l41.554,16.026L103.43,132.752z"/>
		<path fill="#CAD2D3" d="M103.43,132.752L76.138,160.21l9.838,5.865C85.977,166.075,103.43,132.752,103.43,132.752z"/>
		<path fill="#FFFFFF" d="M52.361,28.594l1.891,66.994l65.34-40.778L53.918,27.483C53.161,27.254,52.391,27.804,52.361,28.594z"/>
		<path fill="#FFFFFF" d="M181.076,28.136L119.592,54.81l62.611,40.142l0.485-65.783C182.618,28.381,181.822,27.871,181.076,28.136z
			"/>
		<path fill="#FFFFFF" d="M226.383,145.183l-44.084-50.482l-24.464,73.032l68.052-20.702
			C226.618,146.726,226.862,145.812,226.383,145.183z"/>
		<path fill="#FFFFFF" d="M115.544,217.988l44.255-50.852l-78.249-3.063l32.083,53.812
			C114.083,218.538,115.027,218.587,115.544,217.988z"/>
		<path fill="#FFFFFF" d="M17.038,145.91l64.513,18.164L54.252,95.588l-37.81,48.504C15.998,144.748,16.291,145.646,17.038,145.91z"
			/>
	</g>
</g>
<g id="Layer_1">
</g>
</svg>
