<?xml version="1.0" encoding="utf-8"?>
<!-- Generator: Adobe Illustrator 25.0.0, SVG Export Plug-In . SVG Version: 6.00 Build 0)  -->
<svg version="1.1" xmlns="http://www.w3.org/2000/svg" xmlns:xlink="http://www.w3.org/1999/xlink" x="0px" y="0px"
	 viewBox="0 0 239.533 202.672" enable-background="new 0 0 239.533 202.672" xml:space="preserve">
<g id="paper_x5F_cartoon_x5F_grey">
	<g>
		<g>
			<path fill="#7C7E7E" d="M119.766,169.026c0,0-0.013,0.002-0.015,0.002C119.755,169.049,119.76,169.049,119.766,169.026z"/>
			<path fill="#7C7E7E" d="M238.869,28.945c0,0-117.058-29.095-117.881-28.932C120.887-0.713,0.663,28.945,0.663,28.945
				s-1.062,154.686-0.498,155.528c0.328,0.489,118.925-15.356,119.586-15.445c-0.027-0.143,0.015-0.002,0.015-0.002
				s119.272,15.937,119.601,15.447C239.932,183.632,238.869,28.945,238.869,28.945z"/>
		</g>
		<path fill="#B2B2B2" d="M234.566,33.942c-0.219-0.784-112.887-29.106-113.657-28.943C120.139,4.835,5.783,33.364,5.564,34.148
			c-0.616,2.208-0.993,154.687-0.465,155.528c0.307,0.491,114.667-15.664,114.667-15.664s114.957,15.948,115.265,15.458
			C235.559,188.628,235.182,36.15,234.566,33.942z"/>
		<path fill="#CED0D0" d="M229.725,40.371c-0.213-0.785-108.103-34.694-108.85-34.53c0,0-110.719,32.683-110.931,33.467
			c-0.597,2.208-0.963,154.686-0.451,155.528c0.299,0.49,110.273-19.982,110.273-19.982s110.111,21.535,110.41,21.045
			C230.688,195.057,230.322,42.579,229.725,40.371z"/>
		<path fill="#E0E2E2" d="M119.766,174.854c0,0,103.895,24.972,104.182,24.482c0.492-0.842,0.14-153.32-0.433-155.528
			c-0.204-0.784-101.967-39.523-102.684-39.36C120.114,4.611,119.766,174.854,119.766,174.854z"/>
		<path fill="#E8E9E9" d="M119.766,174.854c0,0-103.895,28.302-104.182,27.811c-0.492-0.842-0.14-156.65,0.433-158.858
			c0.205-0.783,104.097-39.523,104.814-39.359C121.547,4.611,119.766,174.854,119.766,174.854z"/>
		<polygon opacity="0.85" fill="#B2B2B2" enable-background="new    " points="113.029,107.645 23.323,139.209 23.323,96.808 
			113.029,72.47 		"/>
		<polygon opacity="0.5" fill="#B2B2B2" enable-background="new    " points="64.564,180.494 23.323,191.588 23.323,147.24 
			64.564,134.481 		"/>
		<polygon fill="#FFFFFF" points="113.029,166.604 72.691,178.866 72.691,129.241 113.029,116.979 		"/>
		<polygon fill="#FFFFFF" points="65.768,75.989 23.323,88.38 23.323,48.27 66.972,32.54 		"/>
		<polygon opacity="0.5" fill="#B2B2B2" enable-background="new    " points="113.029,63.491 71.487,74.524 71.487,31.164 
			113.029,17.633 		"/>
		<polygon opacity="0.5" fill="#B2B2B2" enable-background="new    " points="127.121,60.428 216.827,89.955 216.827,49.591 
			127.121,18.028 		"/>
		<polygon fill="#FFFFFF" points="174.244,128.668 216.689,142.17 216.689,96.989 175.449,83.859 		"/>
		<polygon fill="#FFFFFF" points="127.259,116.354 167.597,128.616 167.597,82.603 127.259,66.729 		"/>
		<polygon opacity="0.85" fill="#B2B2B2" enable-background="new    " points="127.121,168.097 216.827,190.028 216.827,150.036 
			127.121,122.917 		"/>
	</g>
</g>
<g id="Layer_1">
</g>
</svg>
