<?xml version="1.0" encoding="utf-8"?>
<!-- Generator: Adobe Illustrator 26.0.3, SVG Export Plug-In . SVG Version: 6.00 Build 0)  -->
<svg version="1.1" xmlns="http://www.w3.org/2000/svg" xmlns:xlink="http://www.w3.org/1999/xlink" x="0px" y="0px"
	 viewBox="0 0 874.391 1264.94" enable-background="new 0 0 874.391 1264.94" xml:space="preserve">
<g id="paper_x5F_note_x5F_white">
	<g>
		<path fill="#FFFFFF" d="M766.052,1264.94H108.339C48.505,1264.94,0,1216.435,0,1156.601V108.339C0,48.505,48.505,0,108.339,0
			h657.713c59.834,0,108.339,48.505,108.339,108.339v1048.262C874.391,1216.435,825.886,1264.94,766.052,1264.94z"/>
		<path opacity="0.5" fill="#E7E9E9" d="M874.391,890.123v-11.754h-87.21v-90.445h87.21v-11.754h-87.21v-90.445h87.21v-11.754
			h-87.21v-88.381h87.21v-11.754h-87.21v-88.53h87.21v-11.754h-87.21v-84.551h87.21v-11.754h-87.21v-84.662h87.21v-11.754h-87.21
			v-84.662h87.21v-11.754h-87.21v-83.1h87.21V89.561h-87.21V0h-11.754v89.561h-83.1V0h-11.754v89.561h-84.662V0h-11.754v89.561
			h-84.662V0h-11.754v89.561h-84.551V0h-11.754v89.561h-88.53V0h-11.754v89.561H202.77V0h-11.754v89.561h-90.444V0H88.817v89.561H0
			v11.754h88.817v83.1H0v11.754h88.817v84.662H0v11.754h88.817v84.662H0v11.754h88.817v84.551H0v11.754h88.817v88.53H0v11.754
			h88.817v88.381H0v11.754h88.817v90.445H0v11.754h88.817v90.445H0v11.754h88.817v83.1H0v11.754h88.817v84.662H0v11.754h88.817
			v84.662H0v11.754h88.817v87.131h11.754v-87.131h90.444v87.131h11.754v-87.131h88.381v87.131h11.754v-87.131h88.53v87.131h11.754
			v-87.131h84.551v87.131h11.754v-87.131h84.662v87.131h11.754v-87.131h84.662v87.131h11.754v-87.131h83.1v87.131h11.754v-87.131
			h87.21v-11.754h-87.21v-84.662h87.21v-11.754h-87.21v-84.662h87.21v-11.754h-87.21v-83.1H874.391z M775.426,878.369h-83.1v-90.445
			h83.1V878.369z M403.189,776.171v-90.445h84.551v90.445H403.189z M487.741,787.925v90.445h-84.551v-90.445H487.741z
			 M403.189,673.972v-88.381h84.551v88.381H403.189z M487.741,485.306v88.53h-84.551v-88.53H487.741z M403.189,473.552v-84.551
			h84.551v84.551H403.189z M499.495,585.591h84.662v88.381h-84.662V585.591z M499.495,573.837v-88.53h84.662v88.53H499.495z
			 M499.495,473.552v-84.551h84.662v84.551H499.495z M499.495,377.247v-84.662h84.662v84.662H499.495z M487.741,377.247h-84.551
			v-84.662h84.551V377.247z M391.436,377.247h-88.53v-84.662h88.53V377.247z M391.436,389.001v84.551h-88.53v-84.551H391.436z
			 M391.436,485.306v88.53h-88.53v-88.53H391.436z M391.436,585.591v88.381h-88.53v-88.381H391.436z M391.436,685.726v90.445h-88.53
			v-90.445H391.436z M391.436,787.925v90.445h-88.53v-90.445H391.436z M391.436,890.123v83.1h-88.53v-83.1H391.436z
			 M403.189,890.123h84.551v83.1h-84.551V890.123z M499.495,890.123h84.662v83.1h-84.662V890.123z M499.495,878.369v-90.445h84.662
			v90.445H499.495z M499.495,776.171v-90.445h84.662v90.445H499.495z M595.911,685.726h84.662v90.445h-84.662V685.726z
			 M595.911,673.972v-88.381h84.662v88.381H595.911z M595.911,573.837v-88.53h84.662v88.53H595.911z M595.911,473.552v-84.551
			h84.662v84.551H595.911z M595.911,377.247v-84.662h84.662v84.662H595.911z M595.911,280.831v-84.662h84.662v84.662H595.911z
			 M584.157,280.831h-84.662v-84.662h84.662V280.831z M487.741,280.831h-84.551v-84.662h84.551V280.831z M391.436,280.831h-88.53
			v-84.662h88.53V280.831z M291.151,280.831H202.77v-84.662h88.381V280.831z M291.151,292.585v84.662H202.77v-84.662H291.151z
			 M291.151,389.001v84.551H202.77v-84.551H291.151z M291.151,485.306v88.53H202.77v-88.53H291.151z M291.151,585.591v88.381H202.77
			v-88.381H291.151z M291.151,685.726v90.445H202.77v-90.445H291.151z M291.151,787.925v90.445H202.77v-90.445H291.151z
			 M291.151,890.123v83.1H202.77v-83.1H291.151z M291.151,984.977v84.662H202.77v-84.662H291.151z M302.905,984.977h88.53v84.662
			h-88.53V984.977z M403.189,984.977h84.551v84.662h-84.551V984.977z M499.495,984.977h84.662v84.662h-84.662V984.977z
			 M595.911,984.977h84.662v84.662h-84.662V984.977z M595.911,973.223v-83.1h84.662v83.1H595.911z M595.911,878.369v-90.445h84.662
			v90.445H595.911z M775.426,776.171h-83.1v-90.445h83.1V776.171z M775.426,673.972h-83.1v-88.381h83.1V673.972z M775.426,573.837
			h-83.1v-88.53h83.1V573.837z M775.426,473.552h-83.1v-84.551h83.1V473.552z M775.426,377.247h-83.1v-84.662h83.1V377.247z
			 M775.426,280.831h-83.1v-84.662h83.1V280.831z M775.426,101.315v83.1h-83.1v-83.1H775.426z M680.572,101.315v83.1h-84.662v-83.1
			H680.572z M584.157,101.315v83.1h-84.662v-83.1H584.157z M487.741,101.315v83.1h-84.551v-83.1H487.741z M391.436,101.315v83.1
			h-88.53v-83.1H391.436z M291.151,101.315v83.1H202.77v-83.1H291.151z M100.571,101.315h90.444v83.1h-90.444V101.315z
			 M100.571,196.169h90.444v84.662h-90.444V196.169z M100.571,292.585h90.444v84.662h-90.444V292.585z M100.571,389.001h90.444
			v84.551h-90.444V389.001z M100.571,485.306h90.444v88.53h-90.444V485.306z M100.571,585.591h90.444v88.381h-90.444V585.591z
			 M100.571,685.726h90.444v90.445h-90.444V685.726z M100.571,787.925h90.444v90.445h-90.444V787.925z M100.571,890.123h90.444v83.1
			h-90.444V890.123z M100.571,984.977h90.444v84.662h-90.444V984.977z M100.571,1166.055v-84.662h90.444v84.662H100.571z
			 M202.77,1166.055v-84.662h88.381v84.662H202.77z M302.905,1166.055v-84.662h88.53v84.662H302.905z M403.189,1166.055v-84.662
			h84.551v84.662H403.189z M499.495,1166.055v-84.662h84.662v84.662H499.495z M595.911,1166.055v-84.662h84.662v84.662H595.911z
			 M775.426,1166.055h-83.1v-84.662h83.1V1166.055z M775.426,1069.639h-83.1v-84.662h83.1V1069.639z M775.426,973.223h-83.1v-83.1
			h83.1V973.223z"/>
	</g>
</g>
<g id="Layer_1">
</g>
</svg>
