<?xml version="1.0" encoding="utf-8"?>
<!-- Generator: Adobe Illustrator 25.0.0, SVG Export Plug-In . SVG Version: 6.00 Build 0)  -->
<svg version="1.1" xmlns="http://www.w3.org/2000/svg" xmlns:xlink="http://www.w3.org/1999/xlink" x="0px" y="0px"
	 viewBox="0 0 113.533 238.26" enable-background="new 0 0 113.533 238.26" xml:space="preserve">
<g id="paper_x5F_invoice_x5F_grey">
	<g id="recycle_x5F_paper_x5F_invoice">
		<path fill="#E0E2E2" d="M0.069,208.322c0,0,112.624,30.529,112.934,29.929c0.533-1.029,0.152-214.503-0.47-217.201
			C112.313,20.091,2-0.198,1.223,0.001S0.069,208.322,0.069,208.322z"/>
		<polygon fill="#FFFFFF" points="5.573,199.396 102.816,225.01 102.816,142.632 5.573,123.936 		"/>
		<polygon fill="#FFFFFF" points="49.47,54.105 5.394,44.404 5.573,11.265 49.158,20.003 		"/>
		<polygon fill="#7C7E7E" points="99.187,80.657 9.311,63.512 9.322,59.883 99.195,77.966 		"/>
		<polygon fill="#7C7E7E" points="99.153,91.142 9.277,73.997 9.289,70.368 99.162,88.451 		"/>
		<polygon fill="#7C7E7E" points="99.115,103.015 9.24,85.747 9.251,82.119 99.124,100.202 		"/>
		<polygon fill="#B2B2B2" points="102.705,202.639 5.065,179.215 5.063,175.375 102.703,199.661 		"/>
		<polygon fill="#7C7E7E" points="102.561,33.692 54.673,25.773 54.9,22.17 102.729,31.021 		"/>
		<polygon fill="#7C7E7E" points="101.904,44.103 54.918,36.184 55.145,32.581 102.072,41.432 		"/>
		<polygon fill="#7C7E7E" points="101.16,64.916 55.084,56.874 55.312,53.271 101.336,62.122 		"/>
		<path fill="#B2B2B2" d="M112.88,129.076l-6.392-1.176l0.653-3.549l6.392,1.176L112.88,129.076z M102.05,127.083l-8.874-1.634
			l0.654-3.549l8.874,1.634L102.05,127.083z M88.739,124.632l-8.874-1.634l0.654-3.549l8.874,1.634L88.739,124.632z M75.428,122.182
			l-8.874-1.634l0.654-3.549l8.874,1.634L75.428,122.182z M62.117,119.731l-8.874-1.634l0.654-3.549l8.874,1.634L62.117,119.731z
			 M48.807,117.281l-8.874-1.634l0.654-3.549l8.874,1.634L48.807,117.281z M35.496,114.831l-8.874-1.634l0.654-3.549l8.874,1.634
			L35.496,114.831z M22.185,112.381l-8.874-1.634l0.654-3.549l8.874,1.634L22.185,112.381z M8.874,109.93L0,108.297l0.654-3.549
			l8.874,1.634L8.874,109.93z"/>
		<polygon fill="#7C7E7E" points="49.46,211.858 5.394,199.429 5.658,189.909 49.294,202.407 		"/>
		<polygon fill="#B2B2B2" points="102.705,162.398 5.363,142.898 5.361,139.058 102.703,159.421 		"/>
		<polygon fill="#B2B2B2" points="60.458,213.107 60.853,134.948 64.69,134.971 65.244,215.782 		"/>
		<polygon fill="#B2B2B2" points="22.839,167.356 25.296,127.766 29.232,128.45 27.427,168.124 		"/>
		<polygon fill="#B2B2B2" points="102.555,183.669 5.214,164.168 5.212,160.328 102.554,180.691 		"/>
	</g>
</g>
<g id="Layer_1">
</g>
</svg>
