<?xml version="1.0" encoding="utf-8"?>
<!-- Generator: Adobe Illustrator 25.0.0, SVG Export Plug-In . SVG Version: 6.00 Build 0)  -->
<svg version="1.1" xmlns="http://www.w3.org/2000/svg" xmlns:xlink="http://www.w3.org/1999/xlink" x="0px" y="0px"
	 viewBox="0 0 236.734 251.209" enable-background="new 0 0 236.734 251.209" xml:space="preserve">
<g id="paper_x5F_magazine">
	<g>
		<path fill="#E0E2E2" d="M98.377,61.022l120.52-17.243l-0.5,179.822L99.607,246.043L98.377,61.022z"/>
		<path fill="#E8E9E9" d="M98.377,61.022L17.837,0l0.5,180.017l81.27,66.026L98.377,61.022z"/>
		<path fill="#CED0D0" d="M98.377,61.022l127.726-11.866l-0.521,179.816L99.662,244.44L98.377,61.022z"/>
		<path fill="#CED0D0" d="M98.377,61.022L10.79,3.836l0.521,180.02l88.348,60.584L98.377,61.022z"/>
		<path fill="#B2B2B2" d="M98.377,61.997l133.342-4.311L231.183,237.5l-131.481,7.923L98.377,61.997z"/>
		<path fill="#B2B2B2" d="M98.377,61.997L5.708,8.817l0.537,180.025l93.454,56.581L98.377,61.997z"/>
		<path fill="#D7ECBD" d="M98.377,63.647l138.357,0.792l-0.573,179.809c-0.271,0.855-136.368,6.961-136.368,6.961L98.377,63.647z"/>
		<path fill="#ABDE85" d="M98.377,63.647L0,13.727l0.576,180.03l99.214,57.449L98.377,63.647z"/>
	</g>
</g>
<g id="Layer_1">
</g>
</svg>
