<?xml version="1.0" encoding="utf-8"?>
<!-- Generator: Adobe Illustrator 25.0.0, SVG Export Plug-In . SVG Version: 6.00 Build 0)  -->
<svg version="1.1" xmlns="http://www.w3.org/2000/svg" xmlns:xlink="http://www.w3.org/1999/xlink" x="0px" y="0px"
	 viewBox="0 0 150.987 232.583" enable-background="new 0 0 150.987 232.583" xml:space="preserve">
<g id="paperbag">
	<g>
		<path fill="#935803" d="M84.195,50.732l-4.927-1.399c0.072-0.253,7.043-25.4-2.362-37.619c-3.51-4.558-8.804-6.726-16.209-6.586
			c-7.602,0.13-13.424,2.679-17.304,7.574c-9.887,12.476-4.881,36.265-4.829,36.504l-5.005,1.089
			c-0.233-1.07-5.578-26.376,5.81-40.763c4.878-6.162,12.024-9.367,21.24-9.526c8.957-0.16,15.858,2.736,20.361,8.593
			C91.942,22.865,84.516,49.6,84.195,50.732z"/>
		<path fill="#C1A174" d="M3.175,45.346l46.783,3.191L34.241,232.583L0,211.922L3.175,45.346z"/>
		<path fill="#935803" d="M3.175,45.363l33.978,7.447h111.248l-33.978-7.447H3.175z"/>
		<path fill="#CCA172" d="M116.682,57.258l-4.927-1.399c0.072-0.253,7.043-25.398-2.363-37.618c-3.51-4.559-8.8-6.738-16.209-6.586
			c-7.602,0.13-13.424,2.679-17.304,7.574c-9.887,12.476-4.88,36.264-4.828,36.503l-5.005,1.089
			c-0.233-1.07-5.578-26.375,5.81-40.762c4.878-6.162,12.024-9.367,21.24-9.526c8.967-0.149,15.857,2.736,20.361,8.593
			C124.428,29.393,117.004,56.126,116.682,57.258z"/>
		<path fill="#E8CAAE" d="M37.153,52.81h111.248l2.586,178.48l-116.744,1.292L37.153,52.81z"/>
	</g>
</g>
<g id="Layer_1">
</g>
</svg>
