<?xml version="1.0" encoding="utf-8"?>
<!-- Generator: Adobe Illustrator 25.0.0, SVG Export Plug-In . SVG Version: 6.00 Build 0)  -->
<svg version="1.1" xmlns="http://www.w3.org/2000/svg" xmlns:xlink="http://www.w3.org/1999/xlink" x="0px" y="0px"
	 viewBox="0 0 255.085 200.487" enable-background="new 0 0 255.085 200.487" xml:space="preserve">
<g id="paper_x5F_newspaper_x5F_grey">
	<g id="recycle_x5F_paper_x5F_news_1_">
		<path fill="#B2B2B2" d="M48.625,199.765C43.268,199.765-2.3,48.207,0.091,44.06C2.537,39.818,180.322-1.172,184.92,0.026
			c6.773,1.764,62.962,168.04,63.028,169.157C248.014,170.301,53.981,199.765,48.625,199.765z"/>
		<polygon fill="#7C7E7E" points="112.332,42.697 12.319,69.622 11.251,65.998 111.943,39.867 		"/>
		<polygon fill="#7C7E7E" points="117.395,52.535 17.381,79.46 16.314,75.836 117.006,49.705 		"/>
		<polygon fill="#7C7E7E" points="121.836,62.526 20.579,89.758 19.511,86.133 120.204,60.002 		"/>
		<polygon fill="#7C7E7E" points="125.656,72.671 23.156,100.209 22.088,96.584 125.266,69.84 		"/>
		<polygon fill="#7C7E7E" points="131.013,82.436 27.269,110.28 26.201,106.656 129.38,79.912 		"/>
		<polygon fill="#7C7E7E" points="134.832,92.58 31.089,120.425 30.021,116.8 134.443,89.75 		"/>
		<polygon opacity="0.5" fill="#E8E9E9" enable-background="new    " points="200.536,73.444 127.286,86.231 114.776,27.33 
			179.843,13.178 		"/>
		<path fill="#E8E9E9" d="M48.625,199.765c8.938-4.166-5.912-159.827-5.327-160.269c1.004-0.757,186.874-0.216,189.507,0.666
			c0.935,0.313,27.546,132.606,21.344,140.751C247.948,189.06,39.687,203.931,48.625,199.765z"/>
		<polygon fill="#FFFFFF" points="128.309,147.983 58.992,147.983 57.562,87.785 124.123,85.879 		"/>
		<polygon fill="#7C7E7E" points="232.028,78.939 56.282,79.94 53.721,46.287 224.025,46.287 		"/>
		<path fill="#7C7E7E" d="M249.919,182.743c0,0-15.831,6.638-119.86,13.448c-1.43-1.438,0-36.261,0-36.261l115.432-3.841
			L249.919,182.743z"/>
		<polygon fill="#7C7E7E" points="233.789,87.44 130.238,89.644 130.068,85.87 234.088,84.599 		"/>
		<polygon fill="#7C7E7E" points="236.35,98.204 132.799,100.408 132.629,96.633 236.649,95.362 		"/>
		<polygon fill="#7C7E7E" points="238.27,108.968 133.439,111.172 133.269,107.397 237.289,106.126 		"/>
		<polygon fill="#7C7E7E" points="239.551,119.731 133.439,121.935 133.269,118.161 239.85,116.89 		"/>
		<polygon fill="#7C7E7E" points="242.415,130.495 135.022,132.699 134.853,128.924 241.434,127.654 		"/>
		<polygon fill="#7C7E7E" points="243.695,141.259 136.303,143.463 136.133,139.688 243.995,138.417 		"/>
		<polygon opacity="0.7" fill="#7C7E7E" enable-background="new    " points="58.953,190.467 125.139,188.202 124.524,193.3 
			58.953,194.614 		"/>
		<polygon opacity="0.7" fill="#7C7E7E" enable-background="new    " points="59.981,178.572 125.139,176.139 124.396,181.635 
			59.697,182.906 		"/>
		<polygon opacity="0.7" fill="#7C7E7E" enable-background="new    " points="59.199,164.304 125.095,163.428 125.095,168.514 
			59.33,169.85 		"/>
	</g>
</g>
<g id="Layer_1">
</g>
</svg>
