<?xml version="1.0" encoding="utf-8"?>
<!-- Generator: Adobe Illustrator 25.0.0, SVG Export Plug-In . SVG Version: 6.00 Build 0)  -->
<svg version="1.1" xmlns="http://www.w3.org/2000/svg" xmlns:xlink="http://www.w3.org/1999/xlink" x="0px" y="0px"
	 viewBox="0 0 170.821 214.391" enable-background="new 0 0 170.821 214.391" xml:space="preserve">
<g id="paper_x5F_envelope">
	<g>
		<path fill="#54BDCF" d="M166.191,84.386C142.007,55.961,94.561-0.082,85.736,0C75.425,0.095,24.294,59.679,3.039,85.477
			C3.228,85.99,152.779,87.2,166.191,84.386z"/>
		<path fill="#80D7E1" d="M165.613,83.353C158.575,79.811,7.987,82.69,3.039,85.477c-3.86,4.088-4.086,123.6-0.429,126.182
			c3.495,3.256,160.913,3.982,165.445-0.012C173.283,207.039,170.32,85.722,165.613,83.353z"/>
		<path fill="#005F8A" d="M165.614,83.449c-6.817-3.588-148.267-0.938-161.679,1.876c20.13,24.144,71.629,83.784,80.455,83.702
			c10.31-0.095,60.546-58.844,81.801-84.642C166.002,83.873,165.809,83.552,165.614,83.449z"/>
		<path fill="#00759C" d="M160.499,83.103C137.692,56.123,93.882,6.186,85.806,6.261C76.213,6.35,32.061,57.209,8.843,85.065
			C37.564,84.545,148.806,82.145,160.499,83.103z"/>
		<path fill="#B6F4F8" d="M2.613,212.049c3.492,2.903,160.907,3.396,165.443-0.175c0.252-0.198,0.485-0.64,0.7-1.297
			c-23.283-22.059-74.195-68.601-83.265-68.517c-10.405,0.096-58.767,44.497-83.557,68.185
			C2.143,211.27,2.369,211.895,2.613,212.049z"/>
	</g>
</g>
<g id="Layer_1">
</g>
</svg>
