<?xml version="1.0" encoding="utf-8"?>
<!-- Generator: Adobe Illustrator 25.0.0, SVG Export Plug-In . SVG Version: 6.00 Build 0)  -->
<svg version="1.1" id="Layer_1" xmlns="http://www.w3.org/2000/svg" xmlns:xlink="http://www.w3.org/1999/xlink" x="0px" y="0px"
	 viewBox="0 0 366.3 280.6" style="enable-background:new 0 0 366.3 280.6;" xml:space="preserve">
<style type="text/css">
	.st0{fill:#ABDE85;}
	.st1{fill:#8CD000;}
	.st2{fill:#00A038;}
	.st3{fill:#4B4B4A;}
	.st4{fill:#D7ECBD;}
	.st5{fill:#0EB800;}
</style>
<g id="Layer_1_1_">
</g>
<g>
	<path class="st0" d="M256.1,85c0,0-10.2-20.7,12.7-49.1s53.2-33.4,55-30.5s-9.6,12.8-7,27.9s-7.3,42.4-20.1,53.6S256.1,85,256.1,85
		z"/>
	<path class="st1" d="M261.3,76.1c0,0,2-14.1,17.1-29.2c15.1-15.1,23.9-15.7,23.9-15.7s0.3,5.9-0.3,15.4c-0.4,6.4,0,14.7-4.5,22.6
		C282.9,95.1,261.3,76.1,261.3,76.1z"/>
	<path class="st0" d="M52.1,127.2c-5.8,2.2-15.8,4.7-24.6,1.3c-6.1-2.4-10.6-7.1-13.4-14.2c-6.7-1.2-13.8-9-14.1-15.2
		C-0.1,96,1.4,88.6,9.8,87.5c3.5-0.5,4.8,1.4-0.4,3c-5.2,1.6-6,5-5.5,8.7c0.5,3.2,4,6.8,8.6,9.4c-0.8-5.4,0.9-9.9,4.7-12.9
		c5-3.8,12.8-4.1,17.8-0.7c3.9,2.7,5.4,7.1,3.9,12.2c-2,6.6-7.6,10.1-15.5,9.5c-1.1-0.1-2.2-0.2-3.4-0.5c2.3,4,5.4,6.7,9.2,8.2
		c11.3,4.4,25.8-3.2,25.9-3.2l2.1,3.9C57,125.2,55,126.2,52.1,127.2z M17.6,110.9c2,0.7,4,1.1,6,1.3c4,0.3,10-0.8,11.7-6.6
		c0.9-3.1-0.4-6.2-2.7-7.7c-3.4-2.3-9.2-1.3-12.6,1.4C16.8,101.7,16,105.7,17.6,110.9z"/>
	<path class="st2" d="M72.8,258.7c-1.1-3.3-1.9-6-2.1-16.6c7.5-4.1,15.5,3.6,15.8,3.6c-0.3,5,0.1,9.1,0.1,14.1
		c0,2.7-2.4,2.7-2.6,2.7c-2.6-0.2-2.6-2.2-3.3-4.6c-0.6-2.1-0.7-3-1.2-5.2c-0.2,1-0.3,5-1.2,7.4c-0.3,0.7-1.3,1.2-2,1.2
		C75.5,261.3,73.9,260.9,72.8,258.7z"/>
	<path class="st0" d="M75.1,181.3c0.6,0.1,23.2,6.8,23,7.4c-8,25.4-11.2,54.9-11.6,57c-0.2-0.1-8.4-0.4-15.8-3.6
		c0-0.1-1.6-15.1,0.6-36.3C72.1,198.9,75.1,181.3,75.1,181.3z"/>
	<path class="st2" d="M125.5,267.6c-1.4-3.1-2.5-5.8-3.7-16.3c7-4.8,15.8,2,16,2.1c0.2,5.1,0.9,9.1,1.4,14.1
		c0.3,2.7-2.1,2.9-2.3,2.9c-2.6,0-2.8-1.9-3.8-4.3c-0.8-2.1-1-2.9-1.7-5c-0.1,1,0.2,5-0.4,7.5c-0.2,0.7-1.2,1.3-1.9,1.4
		C128.4,270,126.8,269.7,125.5,267.6z"/>
	<path class="st0" d="M120.3,190.4c0.6,0,23.8,4.6,23.6,5.1c-5.5,26.1-5.8,55.7-6.1,57.8c-0.3,0-8.4,0.4-16-2.1
		c0-0.1-3.1-14.9-2.9-36.2C119,208.3,120.3,190.5,120.3,190.4z"/>
	<path class="st2" d="M223.2,277.3c-1.9-2.9-3.4-5.3-6.2-15.5c6.2-5.8,15.9-0.5,16.2-0.5c1,5,2.4,8.8,3.7,13.7
		c0.7,2.6-1.6,3.2-1.8,3.3c-2.6,0.4-3.1-1.4-4.4-3.6c-1.1-1.9-1.5-2.7-2.5-4.7c0.1,1,1,4.9,0.8,7.4c-0.1,0.8-0.9,1.5-1.7,1.7
		C226.4,279.2,224.8,279.2,223.2,277.3z"/>
	<path class="st0" d="M205.6,201.9c0.6-0.1,24.2,0.7,24.1,1.3c-1.2,26.6,3.2,55.9,3.3,58.1c-0.3,0-8.2,1.8-16.2,0.5
		c0-0.1-5.4-14.2-8.7-35.3C207.2,219.7,205.6,201.9,205.6,201.9z"/>
	<path class="st2" d="M263,258.7c-1.9-2.9-3.4-5.3-6.2-15.5c6.2-5.8,15.9-0.5,16.2-0.5c1,5,2.4,8.8,3.7,13.7
		c0.7,2.6-1.6,3.2-1.8,3.3c-2.6,0.4-3.1-1.4-4.4-3.6c-1.1-1.9-1.5-2.7-2.5-4.7c0.1,1,1,4.9,0.8,7.4c-0.1,0.8-0.9,1.5-1.7,1.7
		C266.3,260.6,264.7,260.6,263,258.7z"/>
	<path class="st0" d="M245.5,183.3c0.6-0.1,24.2,0.7,24.1,1.3c-1.2,26.6,3.2,55.9,3.3,58.1c-0.3,0-8.2,1.8-16.2,0.5
		c0-0.1-5.4-14.2-8.7-35.3C247.1,201.2,245.5,183.4,245.5,183.3z"/>
	<path class="st0" d="M330.3,116.2c-15.9-13.2-29.5-37.5-58.5-53.9c-34.9-19.7-59.7-2.7-62.4-3.7c-63.8-21.4-146.3-8.3-165.6,52.1
		C11.7,211.1,145.5,273.3,238.7,221.5c56.9-5.7,112.7-45,112.7-45l6.5-45.5C357.9,131,345.7,129,330.3,116.2z"/>
	<path class="st1" d="M357.4,129.4c-9.2-4.9-21.5-0.8-24.9,14.8c-5.6,25.9,13.5,40.7,27.8,26.6C369.8,159.4,367.3,135,357.4,129.4z"
		/>
	<path class="st2" d="M280.3,161.8c0.1,0.6,6.3,16.1,20,16.9c13.7,0.9,21.6-16.3,21.7-16.7c0.3,0.3-2,20.8-20.9,21.3
		C282.3,183.8,279.9,161.9,280.3,161.8z"/>
	<path class="st3" d="M254.6,116.7c-4.8-1.8-11.1-0.6-12.6,4.8c-2.5,9,6.6,14.3,13.7,9.7C260.5,127.3,259.8,118.8,254.6,116.7z"/>
	<path class="st3" d="M303,101.5c-4.8-1.8-11.1-0.6-12.6,4.8c-2.5,9,7.5,14.3,14.7,9.7C309.9,112.1,308.2,103.6,303,101.5z"/>
	<path class="st4" d="M236.8,155.1c-12.7-4.8-29.1-0.1-33.1,14c-6.7,23.5,19.8,37.7,38.6,25.4C254.7,184.5,250.4,160.6,236.8,155.1z
		"/>
	<path class="st5" d="M170.1,67.9L81.2,80.8l0.1-4.1c0,0,40-22.7,90.7-16.4L170.1,67.9z"/>
	<path class="st3" d="M81.2,80.8l0,4.1c7.2-2.9,43.4-15.5,87.4-10.7l2.1-8.8C127,61.3,93.3,75.5,81.2,80.8z"/>
	<path class="st0" d="M213.2,110.2c0,0-23.4-6.4-29.7-44.2c-6.3-37.8,10.9-65.1,14.5-64.5s3.4,16.4,17,25s28.2,35.3,28.1,53.2
		S213.2,110.2,213.2,110.2z"/>
	<path class="st1" d="M209.9,99.9c0,0-9.7-11.4-11.1-33.8c-1.3-22.5,4.4-29.7,4.4-29.7s4.8,3.9,11.9,11c4.7,4.7,11.5,10.2,14.6,19.3
		C239.8,96.2,209.9,99.9,209.9,99.9z"/>
	<g>
		<g id="flower_x5F_six_x5F_petals_x5F_white">
			<g>
				<path class="st1" d="M139.7,130.3c5.5-6.2,8.9-13.2,2.7-22.2c-5.8-8.4-16.9-11.3-25.3-6.8c-8.3,4.4-9.3,11.9-10.9,20.9
					c-0.2-2.6-6.7-8-8.8-9.5c-5.8-4.2-11.6-4.8-16.9-1.6c-6.1,3.7-12.6,12.4-11.7,20.3c0.9,7.7,12.8,15.3,12.8,15.3
					c-20.5-7.3-32.8,18.7-12.6,30.5c7,4.1,12.8,2.4,17-0.3c-5.5,6.2-8.5,12.5-2.3,21.5c5.8,8.4,16.5,12.1,24.8,7.6
					c8.3-4.4,9.3-11.9,10.9-20.9c0.2,2.6,6.7,8,8.8,9.5c5.8,4.2,11,3.8,16.9,1.6c8.9-3.4,14.5-13.6,13.5-21.5
					c-0.9-7.7-13.7-15.4-13.7-15.4c20.5,7.3,31.1-18,11-29.8C149,125.3,143.9,127.6,139.7,130.3z"/>
			</g>
		</g>
		<path class="st0" d="M126.7,143.6c-4.4-6.9-13.6-7.4-21.2-4.3c-5.7,2.3-12.1,11.2-7.5,21.6c4.6,10.6,19.2,10.2,25,5.2
			C130.4,159.8,130.3,149.3,126.7,143.6z"/>
	</g>
</g>
</svg>
