<?xml version="1.0" encoding="utf-8"?>
<!-- Generator: Adobe Illustrator 26.0.2, SVG Export Plug-In . SVG Version: 6.00 Build 0)  -->
<svg version="1.1" id="Layer_1" xmlns="http://www.w3.org/2000/svg" xmlns:xlink="http://www.w3.org/1999/xlink" x="0px" y="0px"
	 viewBox="0 0 171 994.6" style="enable-background:new 0 0 171 994.6;" xml:space="preserve">
<style type="text/css">
	.st0{fill:#FFFFFF;}
	.st1{fill:#C61824;}
</style>
<path class="st0" d="M0,994.6L33.3,63.3C34.3,33.8,45.4,0,86.2,0c38.2,0,51.9,33.8,53,63.3L171,994.6H0z"/>
<polygon class="st1" points="7.5,769.6 163.6,732.2 159.6,620.6 11.6,656.1 "/>
<polygon class="st1" points="148.7,319.4 144.7,207.8 26.7,236.1 22.6,349.6 "/>
<path class="st1" d="M37.9,35.2c-3,9-4.3,18.8-4.7,28.2l-2.9,78.6l110.7-26.5l-1.9-52.1c-0.6-17.3-5.6-36.1-17.3-48.7L37.9,35.2z"/>
<polygon class="st1" points="156.2,526.6 152.2,415.1 19.1,446.9 15,560.4 "/>
<polygon class="st1" points="167,826.1 4.1,865.1 0,994.6 171,937.6 "/>
<g id="Layer_1_00000012438081047695539160000007677265937006544049_">
</g>
</svg>
