<?xml version="1.0" encoding="utf-8"?>
<!-- Generator: Adobe Illustrator 24.2.3, SVG Export Plug-In . SVG Version: 6.00 Build 0)  -->
<svg version="1.1" xmlns="http://www.w3.org/2000/svg" xmlns:xlink="http://www.w3.org/1999/xlink" x="0px" y="0px"
	 viewBox="0 0 486.66 426.268" enable-background="new 0 0 486.66 426.268" xml:space="preserve">
<g id="pillow_x5F_white">
	<path id="XMLID_68_" fill="#FFFFFF" d="M486.66,76.82c0-11.125-9.199-20.144-20.546-20.144c-10.251,0-18.723,7.368-20.27,16.989
		C277.012-46.381,111.097,11.236,61.347,33.294C59.763,23.713,51.311,16.39,41.09,16.39c-11.347,0-20.546,9.019-20.546,20.144
		c0,9.999,7.44,18.274,17.183,19.851C-14.945,159.509,8.182,247.579,21.903,283.155c-0.451-0.029-0.9-0.067-1.357-0.067
		C9.198,283.088,0,292.106,0,303.231c0,11.125,9.199,20.144,20.546,20.144c8.387,0,15.59-4.934,18.782-11.998
		c105.953,113.777,305.48,96.071,352.853,90.01c-0.375,1.521-0.595,3.103-0.595,4.737c0,11.125,9.199,20.144,20.546,20.144
		c11.347,0,20.546-9.019,20.546-20.144c0-9.113-6.176-16.803-14.646-19.29c91.251-86.229,57.451-243.466,44.773-290.154
		c1.08,0.172,2.181,0.284,3.31,0.284C477.461,96.964,486.66,87.945,486.66,76.82z"/>
</g>
<g id="Layer_1">
</g>
</svg>
