<?xml version="1.0" encoding="utf-8"?>
<!-- Generator: Adobe Illustrator 25.0.0, SVG Export Plug-In . SVG Version: 6.00 Build 0)  -->
<svg version="1.1" xmlns="http://www.w3.org/2000/svg" xmlns:xlink="http://www.w3.org/1999/xlink" x="0px" y="0px"
	 viewBox="0 0 253.773 117.709" enable-background="new 0 0 253.773 117.709" xml:space="preserve">
<g id="pizza_x5F_box">
	<g>
		<path fill="#BF7900" d="M17.118,26.133c0,0-6.348,13.799-4.18,14.964S34.34,32.29,34.34,32.29L17.118,26.133z"/>
		<path fill="#C1A174" d="M1.144,83.061c0,0,35.595-15.873,48.367-23.208c7.223-4.148,196.172,3.288,200.723,4.564l-6.255,15.733
			c-2.344,9.637-45.448,26.722-45.448,26.722L1.144,83.061z"/>
		<path opacity="0.3" fill="#935803" enable-background="new    " d="M1.164,83.061C6.995,82.74,49.51,59.853,49.51,59.853v29.043
			C49.511,88.896-1.169,83.189,1.164,83.061z"/>
		<path fill="#FF4035" d="M1.144,83.061c5.356,0,207.081,0,207.081,0s1.698,31.609-0.494,33.006
			c-2.975,3.959-201.731,0-206.587-3.868C-1.429,110.15,1.144,83.061,1.144,83.061z"/>
		<path fill="#C30D26" d="M208.224,83.061l45.548-27.544c0,0-0.119,24.383-2.024,27.152s-44.018,33.399-44.018,33.399
			L208.224,83.061z"/>
		<path fill="#821F1B" d="M208.224,83.061c0,0-188.898-53.112-191.107-56.929S76.61-1.736,90.522,0.1s163.251,55.417,163.251,55.417
			L208.224,83.061z"/>
		<path fill="#BF7900" d="M198.694,48.866c6.921,11.35-11.509,20.473-51.488,9.742C80.783,40.779,53.268,8.691,95.403,9.702
			C128.317,11.995,190.268,36.331,198.694,48.866z"/>
		<path fill="#FDA519" d="M191.975,49.107c6.663,9.063-8.971,14.387-45.157,4.416c-60.12-16.567-82.717-42.295-45.012-39.746
			C131.322,16.93,183.917,39.065,191.975,49.107z"/>
		<path fill="#EB4238" d="M104.412,23.827c0.235,3.351-2.559,6.492-7.579,5.556c-8.34-1.555-10.156-9.083-4.177-11.555
			C97.225,16.401,104.04,20.179,104.412,23.827z"/>
		<path fill="#BF7900" d="M119.575,22.792c0.32,1.857-1.452,3.456-4.946,2.703c-5.805-1.251-7.408-5.484-3.417-6.564
			C114.285,18.361,119.147,20.764,119.575,22.792z"/>
		<path fill="#BF7900" d="M129.523,38.971c0.318,1.845-1.442,3.433-4.913,2.685c-5.766-1.243-7.359-5.448-3.394-6.52
			C124.268,34.57,129.098,36.957,129.523,38.971z"/>
		<path fill="#EB4238" d="M153.725,44.413c0.1,2.534-1.922,4.969-5.426,4.357c-5.822-1.016-6.949-6.684-2.706-8.674
			C148.827,38.926,153.535,41.656,153.725,44.413z"/>
		<path fill="#EB4238" d="M141.475,35.54c0.318,1.845-1.442,3.433-4.913,2.685c-5.766-1.243-7.359-5.448-3.394-6.52
			C136.22,31.138,141.049,33.526,141.475,35.54z"/>
		<path fill="#BF7900" d="M187.065,49.092c0.182,2.594-1.981,5.025-5.867,4.301c-6.456-1.204-7.862-7.031-3.234-8.945
			C181.501,43.343,186.777,46.268,187.065,49.092z"/>
		<path fill="#FDE40B" d="M159.39,50.046c1.859-1.825,3.112,0.181,3.161,0.243s0.758-2.587,2.752-2.676
			c1.521-0.068,2.061,0.676,2.061,0.676s0.879-2.163,2.737-1.926c2.162,0.275,3.109,3.21,0.372,4.934
			c-2.239,1.41-5.136,0.101-5.136,0.101s-1.25,2.872-3.852,2.703C159.087,53.946,158.109,51.305,159.39,50.046z"/>
		<path fill="#FDE40B" d="M163.538,31.01c1.694,1.979-0.393,3.093-0.458,3.137s2.529,0.933,2.482,2.929
			c-0.036,1.522-0.815,2.01-0.815,2.01s2.098,1.024,1.735,2.862c-0.422,2.138-3.415,2.883-4.948,0.034
			c-1.254-2.33,0.249-5.131,0.249-5.131s-2.78-1.443-2.434-4.028C159.668,30.441,162.37,29.645,163.538,31.01z"/>
		<path fill="#FDE40B" d="M106.983,29.606c2.164-1.45,3.025,0.753,3.062,0.822s1.223-2.402,3.199-2.121
			c1.507,0.214,1.901,1.045,1.901,1.045s1.263-1.963,3.046-1.387c2.074,0.67,2.462,3.729-0.546,4.917
			c-2.461,0.972-5.067-0.849-5.067-0.849s-1.759,2.592-4.285,1.945C105.965,33.382,105.491,30.606,106.983,29.606z"/>
		<path fill="#FDE40B" d="M147.136,30.475c-2.417,0.971-2.804-1.363-2.826-1.438c-0.022-0.076-1.694,2.097-3.569,1.413
			c-1.43-0.522-1.644-1.416-1.644-1.416s-1.642,1.659-3.267,0.727c-1.891-1.085-1.637-4.158,1.552-4.698
			c2.609-0.441,4.781,1.88,4.781,1.88s2.258-2.172,4.595-1.016C148.913,26.991,148.802,29.805,147.136,30.475z"/>
		<path fill="#FDE40B" d="M94.624,15.732c2.123-1.51,3.045,0.668,3.084,0.737s1.156-2.435,3.139-2.209
			c1.512,0.173,1.929,0.992,1.929,0.992s1.208-1.998,3.006-1.472c2.092,0.612,2.565,3.659-0.409,4.931
			c-2.433,1.04-5.088-0.708-5.088-0.708s-1.687,2.64-4.23,2.064C93.711,19.535,93.16,16.773,94.624,15.732z"/>
	</g>
</g>
<g id="Layer_1">
</g>
</svg>
