<?xml version="1.0" encoding="utf-8"?>
<!-- Generator: Adobe Illustrator 25.0.0, SVG Export Plug-In . SVG Version: 6.00 Build 0)  -->
<svg version="1.1" xmlns="http://www.w3.org/2000/svg" xmlns:xlink="http://www.w3.org/1999/xlink" x="0px" y="0px"
	 viewBox="0 0 202.722 200.013" enable-background="new 0 0 202.722 200.013" xml:space="preserve">
<g id="plastic_x5F_mold_x5F_star_x5F_orange">
	<g>
		<path fill="#FF8000" d="M3.924,44.188c-4.036-0.009-5.917,21.83-0.904,35.435c3.32,9.015,28.351,37.949,28.351,37.949
			s-21.123,24.882-20.622,29.557c0.216,11.972,9.781,21.045,17.828,19.363c26.064-5.446,49.693-14.552,51.841-13.837
			c2.148,0.717,36.813,49.84,52.627,47.258c35.086-5.728,22.599-73.37,28.283-74.492c10.74-2.121,40.831-12.071,40.813-21.959
			c-0.028-15.769,3.58-23.481-6.865-26.888c-5.613-1.83-42.852-5.311-42.852-5.311S129.49-2.19,120.527,0.05
			s-19.075,66.684-19.075,66.684S7.959,44.196,3.924,44.188z"/>
		<path fill="#FFA600" d="M72.276,44.06c1.182-0.362,37.383-43.95,48.251-44.01c9.297-0.05,13.26,52.216,15.213,57.076
			c0.396,1.054,62.423,17.908,63.616,21.491c3.027,9.086-52.72,33.48-53.623,34.322c-0.904,0.843-3.02,60.483-10.982,62.259
			c-8.145,1.818-47.928-50.927-49.362-51.039c-1.435-0.112-66.549,30.288-74.64,22.971c-1.737-1.571,21.475-51.715,21.401-52.954
			c-0.075-1.24-35.148-42.12-28.226-49.988C6.168,41.635,71.096,44.42,72.276,44.06z"/>
		<path fill="#FF8000" d="M86.033,61.9c0.616-0.204,19.335-21.983,24.775-23.706c1.9-0.602,7.616,27.242,8.7,29.769
			c0.221,0.549,31.788,8.589,32.407,10.474c0.734,2.229-25.999,18.245-26.463,18.698c-0.464,0.454-4.019,32.628-4.985,32.818
			c-1.349,0.265-25.796-26.132-26.551-26.173c-0.753-0.041-37.216,14.323-38.892,12.992c-0.963-0.765,10.625-27.415,10.57-28.065
			c-0.055-0.65-16.267-24.529-15.443-25.885C51.082,61.296,85.419,62.104,86.033,61.9z"/>
	</g>
</g>
<g id="Layer_1">
</g>
</svg>
