<?xml version="1.0" encoding="utf-8"?>
<!-- Generator: Adobe Illustrator 25.0.0, SVG Export Plug-In . SVG Version: 6.00 Build 0)  -->
<svg version="1.1" xmlns="http://www.w3.org/2000/svg" xmlns:xlink="http://www.w3.org/1999/xlink" x="0px" y="0px"
	 viewBox="0 0 213.972 214.568" enable-background="new 0 0 213.972 214.568" xml:space="preserve">
<g id="plastic_x5F_mold_x5F_teddy_x5F_green">
	<g>
		<path fill="#0EB800" d="M116.327,92.871c0,0-36.824-92.871-43.797-88.608c-27.696,16.936-1.665,46.561-1.665,46.561L57.063,66.266
			c0,0-28.686-26.948-45.595-13.896c-27.704,21.387,1.974,52.852,13.962,59.793c5.177,2.997,25.375,13.901,33.149,13.639
			c2.364-0.08,3.736,2.641,2.348,4.556c-6.821,9.412-22.091,25.187-5.18,39.071c14.985,12.303,30.082-8.998,35.415-4.294
			c8.066,7.114,42.063,62.823,73.59,46.426c12.195-6.342,9.522-19.504,4.362-28.561c-3.029-5.318-14.416-9.095-7.679-15.258
			c17.966-16.434,20.819,19.491,45.897,6.737c8.357-4.25,9.015-22.005,0.89-31.163c-16.16-18.212-58.92-36.475-58.92-36.475
			s31.178-36.653,21.909-49.871C159.693,40.546,116.327,92.871,116.327,92.871z"/>
		<path fill="#8CD000" d="M127.759,66.441c-1.169,0.999-2.91-0.158-2.441-1.623c2.751-8.574,3.674-24.508-15.172-43.439
			C88.458-0.405,82.97-4.407,72.53,4.263s-2.068,25.803-2.068,25.803s-2.885,6.16-11.01,13.652S45.087,55.35,45.087,55.35
			s-16.699-12.582-27.449,1.488s-0.85,33.045,24.295,47.134c14.668,8.218,23.679,10.853,29.831,10.824
			c2.504-0.012,3.87,2.891,2.196,4.753c-9.764,10.852-24.049,30.13-11.878,39.061c15.63,11.47,29.484-19.432,34.818-14.728
			c8.066,7.114,52.37,67.016,68.903,51.743s-21.347-26.825-3.382-43.26s27.087,19.52,43.444,3.723
			c20.156-19.466-55.637-58.579-50.824-70.496s23.926-21.395,13.823-32.189C158.685,42.527,137.832,57.83,127.759,66.441z"/>
		<path fill="#B5D700" d="M105.75,56.001c8.551,9.415,5.967,23.133-4.341,31.809c-9.401,7.915-20.742,8.415-28.985-0.757
			c-8.623-9.597-5.37-22.533,3.829-31.358C86.97,45.414,97.999,47.469,105.75,56.001z"/>
		<path fill="#B5D700" d="M152.567,104.628c13.146,14.443,11.837,33.063-0.784,43.447c-11.512,9.47-26.856,8.339-39.542-5.715
			c-13.272-14.706-10.929-32.135,0.161-42.903C125.322,86.912,140.653,91.539,152.567,104.628z"/>
		<path fill="#B5D700" d="M60.637,89.217c-2.138,3.277-6.206,3.712-9.328,1.485c-2.847-2.031-3.708-5.26-1.62-8.426
			c2.185-3.313,6.073-3.488,9.168-1.594C62.462,82.889,62.576,86.247,60.637,89.217z"/>
		<path fill="#B5D700" d="M108.589,44.633c-2.138,3.277-6.206,3.712-9.328,1.485c-2.847-2.031-3.708-5.26-1.62-8.426
			c2.185-3.313,6.073-3.488,9.168-1.594C110.413,38.305,110.527,41.662,108.589,44.633z"/>
		<path fill="#8CD000" d="M92.569,68.338c-2.138,3.277-6.206,3.712-9.328,1.485c-2.847-2.031-3.708-5.26-1.62-8.426
			c2.185-3.313,6.073-3.488,9.168-1.594C94.392,62.009,94.507,65.368,92.569,68.338z"/>
	</g>
</g>
<g id="Layer_1">
</g>
</svg>
