<?xml version="1.0" encoding="utf-8"?>
<!-- Generator: Adobe Illustrator 25.0.0, SVG Export Plug-In . SVG Version: 6.00 Build 0)  -->
<svg version="1.1" xmlns="http://www.w3.org/2000/svg" xmlns:xlink="http://www.w3.org/1999/xlink" x="0px" y="0px"
	 viewBox="0 0 95.531 211.363" enable-background="new 0 0 95.531 211.363" xml:space="preserve">
<g id="plastic_x5F_bottle_x5F_blue">
	<g>
		<rect x="36.217" y="9.52" fill="#B2B2B2" width="22.994" height="22.994"/>
		<path fill="#CAD2D3" d="M34.405,29.949c-4.949,2.565-0.992,16.621-0.992,16.621l26.791,0.744c0,0,6.567-14.8,0-17.365
			C57.263,28.801,36.886,28.46,34.405,29.949z"/>
		<path fill="#31D8E2" d="M33.744,52.151c0,0,0.022,10.023-4.783,13.089c-4.501,2.872-14.727,8.491-20.125,10.763
			C-2.325,80.702,0.26,90.411,0.26,111.219s-0.679,81.047,1.654,85.77s9.297,13.675,45.173,14.346s48.444-10.966,48.444-16
			s-0.49-108.842-2.317-114.031C90.747,74.3,81.18,73.293,67.619,64.835c-6.596-4.114-9.559-14.028-9.559-14.028L33.744,52.151z"/>
		<path fill="#00BDD0" d="M53.368,193.114l-7.601,2.685c0,0-1.49-46.402-1.503-57.771c-0.013-11.369-3.281-78.884-3.281-78.884
			h13.979c0,0-2.084,57.696-1.594,78.884C53.858,159.216,53.368,193.114,53.368,193.114z"/>
		<path fill="#CAD2D3" d="M1.307,13.549C4.664,11.445,19.543,3.937,32.97,1.464c18.997-3.499,32.647-0.43,33.801,6.042
			c1.062,5.953-1.686,8.392-6.386,8.728s-26.374-2.685-32.488-1.343s-14.393,5.088-20.095,6.042
			C1.396,22.006-2.05,15.653,1.307,13.549z"/>
		<path fill="#E8E9E9" d="M29.839,41.074c-5.147,9.733,0.884,22.49,0.884,22.49l34.733-0.386c2.35-2.685,2.314-19.083-0.707-22.104
			C61.728,38.053,31.669,37.614,29.839,41.074z"/>
		<path fill="#B6F4F8" d="M33.242,104.953c19.753-6.401,44.691-0.112,49.723,21.867c8.361,36.516-33.273,56.138-60.951,35.79
			C3.658,146.304,11.983,112.394,33.242,104.953z"/>
	</g>
</g>
<g id="Layer_1">
</g>
</svg>
