<?xml version="1.0" encoding="utf-8"?>
<!-- Generator: Adobe Illustrator 25.0.0, SVG Export Plug-In . SVG Version: 6.00 Build 0)  -->
<svg version="1.1" xmlns="http://www.w3.org/2000/svg" xmlns:xlink="http://www.w3.org/1999/xlink" x="0px" y="0px"
	 viewBox="0 0 164.717 231.234" enable-background="new 0 0 164.717 231.234" xml:space="preserve">
<g id="plasticbag_x5F_blue">
	<g>
		<path fill="#82D8E8" d="M10.787,7.499C3.521,23.955-3.113,189.168,1.56,203.188c2.29,6.869,25.275,27.109,29.392,27.076
			L144.618,59.731L113.999,2.123c0,0-11.635,44.187-12.176,61.173l-58.776,7.813L18.06,2.782C14.978,1.571,14.098,0,10.787,7.499z"
			/>
		<path fill="#00BDD0" d="M17.014,5.169c-2.781,2.29-8.327,72.319-8.683,71.366c3.675,9.825,23.061,15.317,29.992,12.101
			L34.684,7.022C34.684,7.022,23.873-0.478,17.014,5.169z"/>
		<path fill="#B6F4F8" d="M14.208,2.122c-2.15-1.115,27.84-4.382,31.49,0.425c3.65,4.807,6.848,52.107,11.182,53.743
			s54.913,0.405,59.201-2.212s-2.082-51.957-2.082-51.957s30.557-0.425,34.626,0c4.07,0.425,15.562,87.561,15.828,131.913
			c0.137,22.798,1.359,90.86-2.937,94.978c-4.296,4.118-130.565,1.25-130.565,1.25c-1.767,0.014,0.496-73.176,0.03-111.798
			C30.225,55.674,22.708,6.53,14.208,2.122z"/>
		<path fill="#82D8E8" d="M51.195,161.139c-8.893-29.286,1.058-65.866,33.587-72.681c54.045-11.322,81.823,50.574,51.077,90.807
			C111.326,205.87,61.58,192.673,51.195,161.139z"/>
	</g>
</g>
<g id="Layer_1">
</g>
</svg>
