<?xml version="1.0" encoding="utf-8"?>
<!-- Generator: Adobe Illustrator 25.0.0, SVG Export Plug-In . SVG Version: 6.00 Build 0)  -->
<svg version="1.1" xmlns="http://www.w3.org/2000/svg" xmlns:xlink="http://www.w3.org/1999/xlink" x="0px" y="0px"
	 viewBox="0 0 143.698 222.348" enable-background="new 0 0 143.698 222.348" xml:space="preserve">
<g id="plastic_x5F_bottle_x5F_orange">
	<g id="recycle_x5F_plastic_x5F_bottle_x5F_orange">
		<path fill="#FFA600" d="M134.883,95.531c-6.377-36.846-37.146-49.276-52.968-55.668S73.654,6.244,68.997,2.429
			c-2.606-2.135-32.668-4.183-33.127,0c-0.482,4.387-0.991,27.962-0.9,31.447c0.264,10.08-15.525,7.797-28.088,26.522
			c-9.951,14.83-7.274,153.465-3.358,158.862c3.915,5.397,126.068,3.249,133.606-2.805
			C149.866,206.225,141.26,132.377,134.883,95.531z M109.469,166.302c-20.164,3.178-40.095-88.307-12.998-97.344
			C123.569,59.923,137.273,161.92,109.469,166.302z"/>
		<path fill="#D47A00" d="M35.547,7.885c-0.068,1.625-0.134,3.47-0.195,5.417l35.414-4.113c-0.126-2.193-0.347-4.027-0.831-5.298
			L35.547,7.885z"/>
		<path fill="#D47A00" d="M70.911,12.77l-35.664,4.142c-0.049,1.815-0.094,3.649-0.133,5.41l36.015-4.183
			C71.021,16.284,70.965,14.471,70.911,12.77z"/>
		<path fill="#D47A00" d="M71.419,21.757c-15.498,2.34-32.058,4.646-36.391,4.943c-0.037,2.137-0.06,3.986-0.066,5.328
			c5.885-0.325,24.492-3.039,37.333-4.982C71.891,25.324,71.611,23.543,71.419,21.757z"/>
	</g>
</g>
<g id="Layer_1">
</g>
</svg>
