<?xml version="1.0" encoding="utf-8"?>
<!-- Generator: Adobe Illustrator 25.0.0, SVG Export Plug-In . SVG Version: 6.00 Build 0)  -->
<svg version="1.1" xmlns="http://www.w3.org/2000/svg" xmlns:xlink="http://www.w3.org/1999/xlink" x="0px" y="0px"
	 viewBox="0 0 83.236 223.804" enable-background="new 0 0 83.236 223.804" xml:space="preserve">
<g id="plastic_x5F_bottle_x5F_yellow">
	<g>
		<path fill="#FDA519" d="M16.358,26.128c-5.448-7.176-6.439-18.29,1.844-23.496c13.762-8.649,27.755,5.599,23.38,19.847
			C37.529,32.331,22.447,33.772,16.358,26.128z"/>
		<path fill="#FDE40B" d="M25.823,48.333c-3.882,3.449-16.196,8.892-19.864,13.361c-9.261,11.281-5.473,139.178-3.462,144.849
			s8.018,16.422,38.959,17.228s41.78-13.168,41.78-19.213S82.813,73.856,81.237,67.626c-2.127-8.411-10.378-9.62-22.073-19.777
			L25.823,48.333z"/>
		<path fill="#FDA519" d="M24.913,26.823c-3.355,2.014-1.342,22.49-1.342,22.49s6.039,4.425,18.175,4.364
			c14.383-0.073,15.709-0.671,18.058-3.357c2.348-2.685,3.019-20.476,0-23.497S28.268,24.809,24.913,26.823z"/>
		<path fill="#E8CAAE" d="M25.201,16.404c-1.209-1.592-1.429-4.058,0.409-5.213c3.053-1.919,6.158,1.242,5.188,4.404
			C29.898,17.781,26.552,18.1,25.201,16.404z"/>
		<path fill="#E8CAAE" d="M48.366,31.542c-9.864,0.386-21.919-0.687-23.778-3.15c-3.089-4.093,17.872-5.572,30.881-2.931
			C64.019,27.517,58.997,31.067,48.366,31.542z"/>
		<path fill="#FDA519" d="M44.526,29.11c-3.317,0.13-7.372-0.231-7.997-1.059c-1.039-1.377,6.01-1.874,10.386-0.986
			C49.79,27.757,48.101,28.95,44.526,29.11z"/>
		<path fill="#F9D214" d="M83.168,183.584c-0.114-24.276-0.387-67.051-0.926-94.159C50.778,103.32,13.59,91.696,13.59,91.696
			l1.389,92.437C14.979,184.134,49.073,198.436,83.168,183.584z"/>
	</g>
</g>
<g id="Layer_1">
</g>
</svg>
