<?xml version="1.0" encoding="utf-8"?>
<!-- Generator: Adobe Illustrator 26.0.0, SVG Export Plug-In . SVG Version: 6.00 Build 0)  -->
<svg version="1.1" xmlns="http://www.w3.org/2000/svg" xmlns:xlink="http://www.w3.org/1999/xlink" x="0px" y="0px"
	 viewBox="0 0 351.879 444.317" enable-background="new 0 0 351.879 444.317" xml:space="preserve">
<g id="present_x5F_red_x5F_square">
	<g>
		<g>
			<path fill="#FF4035" d="M6.761,388.33c10.391,33.009,34.743,46.628,60.987,51.051c13.767,2.32,194.127,13.068,231.759-7.099
				c22.27-13.183,38.039-39.759,41.236-60.98c2.89-19.523,1.945-175.643-10.33-212.127c-6.937-25.679-29.993-42.767-52.82-46.62
				C249.9,101.813,90.145,99.475,49.409,115.47c-23.804,7.577-36.181,26.981-42.151,47.881
				C0.276,186.925-4.573,327.045,6.761,388.33z"/>
			<g>
				<path fill="#C10D26" d="M129.456,195.222c-8.642,13.045-27.464,14.356-43.125,8.903c-11.718-4.08-25.194-20.152-16.195-39.773
					c9.076-19.789,38.783-19.825,50.872-10.784C136.248,164.967,136.554,184.507,129.456,195.222z"/>
				<path fill="#C10D26" d="M77.464,320.233c-8.642,13.045-27.464,14.356-43.125,8.903c-11.718-4.08-25.194-20.152-16.195-39.773
					c9.076-19.789,38.783-19.825,50.872-10.784C84.256,289.978,84.562,309.519,77.464,320.233z"/>
				<path fill="#C10D26" d="M211.808,371.458c-7.09,10.618-22.527,11.688-35.371,7.252c-9.61-3.319-20.66-16.397-13.277-32.367
					c7.447-16.107,31.812-16.14,41.725-8.784C217.384,346.833,217.632,362.737,211.808,371.458z"/>
				<path fill="#C10D26" d="M242.266,314.391c-7.09,10.618-22.527,11.688-35.371,7.252c-9.61-3.319-20.66-16.397-13.277-32.367
					c7.447-16.107,31.812-16.14,41.725-8.784C247.841,289.766,248.089,305.669,242.266,314.391z"/>
				<path fill="#C10D26" d="M278.283,184.922c-7.09,10.618-22.527,11.688-35.371,7.252c-9.61-3.319-20.66-16.397-13.277-32.367
					c7.447-16.107,31.812-16.14,41.725-8.784C283.859,160.297,284.107,176.201,278.283,184.922z"/>
				<path fill="#C10D26" d="M35.684,255.515c-10.618-7.09-11.688-22.527-7.252-35.371c3.319-9.61,16.397-20.66,32.367-13.277
					c16.107,7.447,16.14,31.812,8.784,41.725C60.309,261.09,44.405,261.338,35.684,255.515z"/>
				<path fill="#C10D26" d="M145.864,420.555c-8.642,13.045-27.464,14.356-43.125,8.903c-11.718-4.08-25.194-20.152-16.195-39.773
					c9.076-19.789,38.783-19.825,50.872-10.784C152.657,390.299,152.962,409.84,145.864,420.555z"/>
				<path fill="#C10D26" d="M206.699,172.819c-8.611,14.473-27.43,15.884-43.105,9.786c-11.728-4.563-25.245-22.453-16.294-44.232
					c9.028-21.966,38.737-21.933,50.848-11.857C213.418,139.218,213.772,160.931,206.699,172.819z"/>
				<path fill="#C10D26" d="M216.769,251.859c-8.611,14.473-27.43,15.884-43.105,9.786c-11.728-4.562-25.245-22.453-16.294-44.232
					c9.028-21.965,38.737-21.933,50.848-11.857C223.487,218.258,223.841,239.971,216.769,251.859z"/>
				<path fill="#C10D26" d="M161.622,330.419c-8.611,14.473-27.43,15.884-43.105,9.786c-11.728-4.562-25.245-22.453-16.294-44.232
					c9.028-21.966,38.737-21.933,50.848-11.857C168.341,296.819,168.695,318.531,161.622,330.419z"/>
				<path fill="#C10D26" d="M69.728,389.7c-5.5,9.244-17.52,10.145-27.532,6.251c-7.491-2.914-16.124-14.341-10.407-28.251
					c5.766-14.03,24.741-14.009,32.477-7.573C74.019,368.239,74.245,382.107,69.728,389.7z"/>
				<path fill="#C10D26" d="M136.263,256.424c-5.74,9.649-18.287,10.589-28.736,6.524c-7.819-3.042-16.829-14.968-10.862-29.487
					c6.018-14.643,25.824-14.621,33.898-7.905C140.742,234.024,140.978,248.499,136.263,256.424z"/>
				<path fill="#C10D26" d="M323.919,313.53c-5.74,9.649-18.287,10.589-28.736,6.524c-7.819-3.042-16.829-14.968-10.862-29.487
					c6.018-14.643,25.824-14.621,33.898-7.905C328.398,291.131,328.634,305.605,323.919,313.53z"/>
				<path fill="#C10D26" d="M234.774,425.928c-5.74,9.649-18.287,10.589-28.736,6.524c-7.819-3.042-16.829-14.968-10.862-29.487
					c6.018-14.643,25.824-14.621,33.898-7.905C239.253,403.529,239.488,418.003,234.774,425.928z"/>
				<path fill="#C10D26" d="M297.374,381.412c-8.611,14.473-27.43,15.884-43.105,9.786c-11.728-4.562-25.245-22.453-16.294-44.232
					c9.028-21.965,38.737-21.933,50.848-11.857C304.092,347.811,304.446,369.524,297.374,381.412z"/>
				<path fill="#C10D26" d="M305.083,255.856c-8.611,14.473-27.43,15.884-43.105,9.786c-11.728-4.563-25.245-22.453-16.294-44.232
					c9.028-21.965,38.737-21.933,50.848-11.857C311.802,222.256,312.155,243.969,305.083,255.856z"/>
			</g>
			<path fill="#FF9EC5" d="M195.223,104.288c27.237,24.823,119.482,110.574,144.703,134.633c0.51,9.784,0.92,19.812,1.243,29.784
				c-39.053-35.363-156.386-141.799-156.66-141.752c0.097,4.409,14.709,277.556,16.846,317.269
				c-21.43,0.274-43.492-0.086-63.398-0.726C114.766,420.311,26.562,329.862,0.201,302.809c-0.168-9.225-0.223-18.539-0.18-27.771
				c59.348,58.853,166.282,163.829,166.272,163.405c-0.352-18.186-4.818-269.416-7.147-334.402
				C171.315,103.915,183.503,104.004,195.223,104.288z"/>
			<g>
				<path id="XMLID_00000007396771904177307300000008343668596179322558_" fill="#FF9EC5" d="M132.619,95.67
					c-30.854-14.516-60.473-38.519-67.87-73.415l19.281-9.252c1.923,16.673,10.742,31.771,22.636,43.35
					c13.039,12.391,48.889,29.739,48.889,29.739c-72.492-78.173,27.255-117.13,38.482-56.197c2.487,19.16-2.434,38.44-6.916,56.746
					c9.114-13.897,18.243-29.891,31.08-41.285c16.83-17.978,52.041-15.371,59.078,10.576c13.618,46.552-52.475,49.036-79.213,50.898
					c45.448,14.681,105.878,25.701,142.573-12.842l11.242,21.407c-9.866,8.621-20.987,15.039-33.411,19.217
					c-54.736,17.827-110.281-4.976-160.176-26.789c-32.368,2.701-66.025,9.417-92.572,29.208
					c-11.482,8.814-20.102,19.755-24.407,33.776l-16.453-12.345c3.459-8.106,8.505-15.136,13.949-22.05
					C57.351,112.861,111.267,97.711,132.619,95.67z"/>
				<path fill="#FFFFFF" d="M158.579,82.913c6.658-9.199,19.451-9.045,29.684-4.043c7.656,3.743,15.745,16.524,8.432,30.6
					c-7.375,14.196-27.439,12.44-35.034,4.979C152.086,105.043,153.111,90.469,158.579,82.913z"/>
			</g>
		</g>
	</g>
</g>
<g id="Layer_1">
</g>
</svg>
