<?xml version="1.0" encoding="utf-8"?>
<!-- Generator: Adobe Illustrator 26.0.0, SVG Export Plug-In . SVG Version: 6.00 Build 0)  -->
<svg version="1.1" xmlns="http://www.w3.org/2000/svg" xmlns:xlink="http://www.w3.org/1999/xlink" x="0px" y="0px"
	 viewBox="0 0 253.207 312.223" enable-background="new 0 0 253.207 312.223" xml:space="preserve">
<g id="present_x5F_yellow_x5F_round">
	<path fill="#FFE400" d="M18.382,264.619c33.899,53.807,105.454,57.553,164.441,33.276c44.136-18.164,93.941-86.685,58.136-167.986
		C204.848,47.914,92.081,50.512,46.953,89.477C-9.941,138.601-9.461,220.425,18.382,264.619z"/>
	<g>
		<path fill="#FFD200" d="M153.647,136.948c5.635,8.11,17.528,8.675,27.333,5.016c7.336-2.738,15.615-13.066,9.663-25.32
			c-6.002-12.359-24.746-11.967-32.247-6.094C148.94,117.954,149.019,130.287,153.647,136.948z"/>
		<path fill="#FFD200" d="M188.194,215.097c5.635,8.11,17.528,8.675,27.333,5.016c7.336-2.738,15.615-13.066,9.663-25.32
			c-6.002-12.359-24.746-11.967-32.247-6.094C183.487,196.102,183.566,208.435,188.194,215.097z"/>
		<path fill="#FFD200" d="M104.147,249.289c4.621,6.6,14.376,7.06,22.418,4.082c6.017-2.228,12.807-10.634,7.925-20.607
			c-4.923-10.058-20.296-9.74-26.448-4.96C100.285,233.831,100.351,243.868,104.147,249.289z"/>
		<path fill="#FFD200" d="M84.134,213.709c4.621,6.6,14.376,7.06,22.418,4.082c6.017-2.228,12.807-10.634,7.925-20.607
			c-4.923-10.058-20.296-9.74-26.448-4.96C80.273,198.25,80.338,208.288,84.134,213.709z"/>
		<path fill="#FFD200" d="M59.604,132.525c4.621,6.6,14.376,7.06,22.418,4.082c6.017-2.228,12.807-10.634,7.925-20.607
			c-4.923-10.058-20.296-9.74-26.448-4.96C55.743,117.067,55.808,127.104,59.604,132.525z"/>
		<path fill="#FFD200" d="M213.652,173.681c6.6-4.621,7.06-14.376,4.082-22.418c-2.228-6.017-10.634-12.807-20.607-7.925
			c-10.058,4.923-9.74,20.296-4.96,26.448C198.193,177.542,208.231,177.477,213.652,173.681z"/>
		<path fill="#FFD200" d="M138.022,279.532c5.635,8.11,17.528,8.675,27.333,5.016c7.336-2.738,15.615-13.066,9.663-25.32
			c-6.002-12.359-24.746-11.967-32.247-6.094C133.314,260.538,133.394,272.871,138.022,279.532z"/>
		<path fill="#FFD200" d="M104.6,123.891c5.635,9.012,17.528,9.639,27.333,5.573c7.336-3.042,15.615-14.518,9.663-28.135
			c-6.002-13.733-24.746-13.298-32.247-6.772C99.892,102.785,99.971,116.489,104.6,123.891z"/>
		<path fill="#FFD200" d="M99.349,173.9c5.635,9.012,17.528,9.639,27.333,5.573c7.336-3.042,15.615-14.518,9.663-28.135
			c-6.002-13.733-24.746-13.298-32.247-6.772C94.641,152.794,94.721,166.498,99.349,173.9z"/>
		<path fill="#FFD200" d="M135.238,222.697c5.635,9.012,17.528,9.639,27.333,5.573c7.336-3.042,15.615-14.518,9.663-28.135
			c-6.002-13.733-24.746-13.298-32.247-6.772C130.53,201.591,130.61,215.295,135.238,222.697z"/>
		<path fill="#FFD200" d="M182.848,253.525c3.599,5.756,11.195,6.157,17.458,3.56c4.686-1.943,9.973-9.273,6.172-17.97
			c-3.834-8.771-15.806-8.493-20.597-4.325C179.841,240.045,179.892,248.797,182.848,253.525z"/>
		<path fill="#FFD200" d="M150.206,175.657c3.756,6.008,11.685,6.426,18.222,3.715c4.891-2.028,10.409-9.679,6.442-18.756
			c-4.001-9.155-16.497-8.865-21.498-4.514C147.067,161.587,147.121,170.723,150.206,175.657z"/>
		<path fill="#FFD200" d="M32.605,214.305c3.756,6.008,11.685,6.426,18.222,3.715c4.891-2.028,10.409-9.679,6.442-18.756
			c-4.001-9.155-16.497-8.865-21.498-4.514C29.466,200.235,29.519,209.371,32.605,214.305z"/>
		<path fill="#FFD200" d="M94.631,283.884c3.756,6.008,11.685,6.426,18.222,3.715c4.891-2.028,10.409-9.679,6.442-18.756
			c-4.001-9.155-16.497-8.865-21.498-4.514C91.493,269.814,91.546,278.949,94.631,283.884z"/>
		<path fill="#FFD200" d="M50.3,256.763c5.635,9.012,17.528,9.639,27.333,5.573c7.336-3.042,15.615-14.518,9.663-28.135
			c-6.002-13.733-24.746-13.298-32.247-6.772C45.592,235.657,45.672,249.361,50.3,256.763z"/>
		<path fill="#FFD200" d="M43.684,177.654c5.635,9.012,17.528,9.639,27.333,5.573c7.336-3.042,15.615-14.518,9.663-28.135
			c-6.002-13.733-24.746-13.298-32.247-6.772C38.977,156.548,39.056,170.252,43.684,177.654z"/>
	</g>
	<path fill="#FFA600" d="M146.771,199.867l106.382-15.596c-0.064-5.841-0.505-11.807-1.433-17.903l-106.874,12.427L132.358,63.254
		c-5.328-0.125-10.624,0.048-15.856,0.461l10.06,116.924L0.024,195.087c-0.01,8.648,0.706,17.141,2.105,25.296l126.287-18.181
		l9.308,108.188c5.632-0.829,11.262-1.924,16.854-3.287L146.771,199.867z"/>
	<g>
		<path id="XMLID_00000136370271604162096040000014060800333861734559_" fill="#FFA600" d="M147.183,62.829
			c19.92-6.048,44.799-19.13,49.065-40.665l-10.704-6.137c-2.826,10.208-9.797,18.762-18.343,24.82
			c-9.338,6.453-33.384,13.773-33.384,13.773c52.281-40.588-4.577-76.283-18.511-38.793c-3.42,11.703-2.232,24.21-1.224,36.056
			c-26.178-74.559-75.876-24.097-46.63-1.904c8.124,7.138,30.643,11.448,37.837,13.424c-29.769,4.72-68.522,5.695-87.641-21.917
			L8.434,52.15c0,0,11.725,13.026,19.072,16.828c37.67,19.491,102.483-1.075,102.483-1.075s21.309,5.958,31.307,10.802
			c16.371,7.843,32.809,20.787,35.484,39.879l10.992-4.871c0,0-3.637-11.651-6.074-16.33
			C193.442,80.365,160.297,66.185,147.183,62.829z"/>
		<path fill="#FFFFFF" d="M132.241,52.342c-3.254-6.385-11.245-7.538-18.113-5.417c-5.139,1.587-11.429,8.767-8.243,18.257
			c3.214,9.571,15.895,10.433,21.358,6.522C134.131,66.774,134.914,57.587,132.241,52.342z"/>
	</g>
</g>
<g id="Layer_1">
</g>
</svg>
