<?xml version="1.0" encoding="utf-8"?>
<!-- Generator: Adobe Illustrator 26.0.1, SVG Export Plug-In . SVG Version: 6.00 Build 0)  -->
<svg version="1.1" xmlns="http://www.w3.org/2000/svg" xmlns:xlink="http://www.w3.org/1999/xlink" x="0px" y="0px"
	 viewBox="0 0 210.736 260.808" enable-background="new 0 0 210.736 260.808" xml:space="preserve">
<g id="present_x5F_square_x5F_2_x5F_white">
	<path fill="#FFFFFF" d="M204.842,95.253C201.108,83.198,193.675,72.093,179.76,68c-7.502-2.756-21.817-4.308-38.411-4.935
		c-2.355-0.765-4.453-1.355-6.18-1.797c19.422-5.897,43.68-18.652,47.839-39.649l-10.437-5.984
		c-2.755,9.953-9.553,18.293-17.884,24.2c-9.105,6.292-35.487,16.586-32.55,13.428c50.882-39.393-4.297-74.475-18.049-37.824
		c-2.888,9.883-2.405,20.354-1.585,30.486c-0.381,0.14-0.764,0.308-1.15,0.506c-25.754-66.44-71.908-19.08-43.923,2.307
		c7.921,6.96,29.877,11.162,36.891,13.088C65.296,66.429,27.511,67.38,8.87,40.458L0,52.402
		c5.178,6.179,11.293,11.206,18.483,14.861c5.481,2.786,11.318,4.791,17.311,6.184c-8.692,4.805-15.988,12.975-18.589,23.527
		c-6.657,21.336-5.202,111.972-3.274,123.267c2.128,12.277,11.623,27.501,24.719,34.868c22.103,11.224,126.659,2.67,134.621,1.147
		c15.177-2.904,29.138-11.122,34.746-30.416C213.81,190.121,209.197,108.847,204.842,95.253z"/>
</g>
<g id="Layer_1">
</g>
</svg>
