<?xml version="1.0" encoding="utf-8"?>
<!-- Generator: Adobe Illustrator 26.0.2, SVG Export Plug-In . SVG Version: 6.00 Build 0)  -->
<svg version="1.1" id="Layer_1" xmlns="http://www.w3.org/2000/svg" xmlns:xlink="http://www.w3.org/1999/xlink" x="0px" y="0px"
	 viewBox="0 0 210.7 260.8" style="enable-background:new 0 0 210.7 260.8;" xml:space="preserve">
<style type="text/css">
	.st0{fill:#C61824;}
	.st1{fill:#951914;}
	.st2{fill:#FF9EC7;}
	.st3{fill:#FFFFFF;}
</style>
<path class="st0" d="M208,225.8c-5.6,19.3-19.6,27.5-34.7,30.4c-8,1.5-112.5,10.1-134.6-1.1c-13.1-7.4-22.6-22.6-24.7-34.9
	C12,208.9,10.5,118.3,17.2,97c3.7-15,16.9-25.2,30.1-27.7c15.9-6.6,108.6-10,132.5-1.2c13.9,4.1,21.3,15.2,25.1,27.3
	C209.2,108.8,213.8,190.1,208,225.8z"/>
<g>
	<path class="st1" d="M80.1,64.3l130.4,130.4c0.3-11.1,0.3-23.2,0-34.9l-97-97C101.9,63,90.3,63.5,80.1,64.3z"/>
	<path class="st1" d="M49.4,68.5c-0.8,0.2-1.6,0.5-2.2,0.7c-7.5,1.4-15,5.4-20.7,11.2l167.1,167.1c6.1-4.7,11.1-11.4,14.1-20.8
		L49.4,68.5z"/>
	<path class="st1" d="M15.6,104.4c-1.3,8.1-2.1,19.6-2.6,32.2l122.7,122.7c14-0.8,25.8-1.8,32.4-2.5L15.6,104.4z"/>
	<path class="st1" d="M12.3,170.9c0,13.6,0.2,26.3,0.6,35.5l53.7,53.7c10.7,0.7,23,0.8,35.4,0.5L12.3,170.9z"/>
	<path class="st1" d="M179.8,68c-6.8-2.5-19.1-4-33.6-4.7l62.6,62.6c-1.1-14.7-2.5-26.3-3.9-30.7C201.1,83.2,193.7,72.1,179.8,68z"
		/>
</g>
<path class="st2" d="M210.3,155.4h-91.2l1.2-92.7c-7.1,0-14.2,0.2-21.1,0.5l1.8,92.2H12.4c-0.1,6.3-0.1,12.6-0.1,18.8l89.1-1.3
	l1.7,87.8c4.9-0.1,9.8-0.2,14.6-0.4l1.2-87.6l91.8-1.3C210.6,166,210.5,160.7,210.3,155.4z"/>
<path id="XMLID_00000083794003955504076500000006265277518903460519_" class="st2" d="M135.2,61.3c19.4-5.9,43.7-18.7,47.8-39.6
	l-10.4-6c-2.8,10-9.6,18.3-17.9,24.2c-9.1,6.3-35.5,16.6-32.6,13.4c50.9-39.4-4.3-74.5-18-37.8c-3.3,11.4-2.2,23.6-1.2,35.2
	c-25.4-72.6-74-23.7-45.5-1.9c7.9,7,29.9,11.2,36.9,13.1c-29,4.6-66.8,5.6-85.5-21.4L0,52.4c5.2,6.2,11.3,11.2,18.5,14.9
	c40.3,20.5,99.9-1,99.9-1s20.8,5.8,30.5,10.5c16,7.6,32,20.3,34.6,38.9l10.7-4.7C180.6,75.5,148,64.5,135.2,61.3z"/>
<path class="st3" d="M120.6,51c-3.2-6.2-11-7.3-17.7-5.3c-5,1.5-11.1,8.5-8,17.8c3.1,9.3,15.5,10.2,20.8,6.4
	C122.4,65.1,123.2,56.2,120.6,51z"/>
<g id="Layer_1_00000123413578739220235280000014324109679335700915_">
</g>
</svg>
