<?xml version="1.0" encoding="utf-8"?>
<!-- Generator: Adobe Illustrator 26.0.0, SVG Export Plug-In . SVG Version: 6.00 Build 0)  -->
<svg version="1.1" xmlns="http://www.w3.org/2000/svg" xmlns:xlink="http://www.w3.org/1999/xlink" x="0px" y="0px"
	 viewBox="0 0 213.431 212.525" enable-background="new 0 0 213.431 212.525" xml:space="preserve">
<g id="present_x5F_yellow_x5F_square">
	<path fill="#FFE400" d="M210.506,174.913c-6.032,20.753-21.049,29.593-37.374,32.717c-8.564,1.639-121.027,10.839-144.802-1.233
		c-14.086-7.924-24.299-24.299-26.588-37.505c-2.074-12.15-3.639-109.64,3.522-132.589C9.241,20.173,23.749,10.609,37.6,6.465
		C55.372,1.147,154.457-4.289,180.112,5.135c14.967,4.402,22.963,16.347,26.979,29.314
		C211.776,49.072,216.737,136.492,210.506,174.913z"/>
	<g>
		<path fill="#FFD200" d="M73.658,1.879l139.525,139.526c0.354-11.973,0.302-24.907-0.038-37.565L108.869,0.403L73.658,1.879z"/>
		<path fill="#FFD200" d="M39.924,5.869c-11.286,2.854-18.122,6.703-24.306,13.023l179.443,179.443
			c6.608-5.045,11.956-12.266,15.113-22.413L39.924,5.869z"/>
		<path fill="#FFD200" d="M3.52,44.32C2.127,53.023,1.22,65.386,0.676,79.004l131.979,131.979
			c15.04-0.864,27.755-1.913,34.874-2.653L3.52,44.32z"/>
		<path fill="#FFD200" d="M0.003,115.856c-0.004,14.586,0.268,28.243,0.679,38.206l57.767,57.767
			c11.469,0.717,24.732,0.824,38.098,0.572L0.003,115.856z"/>
		<path fill="#FFD200" d="M180.112,5.135c-7.277-2.673-20.519-4.291-36.139-5.079l67.362,67.362
			c-1.186-15.855-2.728-28.236-4.244-32.969C203.075,21.483,195.08,9.538,180.112,5.135z"/>
	</g>
	<path fill="#FFA600" d="M213.006,99.175l-98.125,0L115.503,0L93.508,0.64l1.942,98.535l-95.317,0
		c-0.106,6.793-0.145,13.594-0.126,20.168l95.815-1.367l1.859,94.403c5.265-0.107,10.535-0.269,15.71-0.468l1.246-94.203
		l98.747-1.408C213.321,110.575,213.191,104.832,213.006,99.175z"/>
</g>
<g id="Layer_1">
</g>
</svg>
