<?xml version="1.0" encoding="utf-8"?>
<!-- Generator: Adobe Illustrator 26.0.1, SVG Export Plug-In . SVG Version: 6.00 Build 0)  -->
<svg version="1.1" xmlns="http://www.w3.org/2000/svg" xmlns:xlink="http://www.w3.org/1999/xlink" x="0px" y="0px"
	 viewBox="0 0 253.207 312.222" enable-background="new 0 0 253.207 312.222" xml:space="preserve">
<g id="present_x5F_round_x5F_white">
	<path fill="#FFFFFF" d="M240.959,129.908c-16.683-37.881-49.728-57.695-84.905-64.221c-3.437-1.277-6.488-2.249-8.871-2.859
		c19.92-6.048,44.799-19.13,49.065-40.665l-10.704-6.137c-2.826,10.208-9.797,18.762-18.343,24.82
		c-9.338,6.453-33.384,13.773-33.384,13.773c52.281-40.588-4.577-76.283-18.511-38.793c-2.962,10.136-2.467,20.874-1.626,31.265
		c-0.392,0.144-0.787,0.317-1.184,0.522c-26.534-68.283-73.71-19.388-45.044,2.366c8.124,7.138,30.643,11.448,37.837,13.424
		c-29.769,4.72-68.522,5.695-87.641-21.917L8.434,52.149c0,0,11.725,13.026,19.072,16.828c11.083,5.735,24.517,8,37.957,8.343
		c-6.947,3.499-13.201,7.572-18.51,12.156C-9.941,138.6-9.461,220.424,18.382,264.618c33.899,53.807,105.454,57.553,164.441,33.276
		C226.959,279.73,276.764,211.209,240.959,129.908z"/>
</g>
<g id="Layer_1">
</g>
</svg>
