<?xml version="1.0" encoding="utf-8"?>
<!-- Generator: Adobe Illustrator 26.0.1, SVG Export Plug-In . SVG Version: 6.00 Build 0)  -->
<svg version="1.1" xmlns="http://www.w3.org/2000/svg" xmlns:xlink="http://www.w3.org/1999/xlink" x="0px" y="0px"
	 viewBox="0 0 351.879 444.317" enable-background="new 0 0 351.879 444.317" xml:space="preserve">
<g id="present_x5F_square_x5F_1_x5F_white">
	<path fill="#FFFFFF" d="M317.368,134.958c0.367-0.116,0.735-0.227,1.102-0.346c12.424-4.178,23.545-10.596,33.411-19.217
		l-11.242-21.407c-12.81,13.455-28.515,20.865-45.463,24.193c-5.685-2.715-11.64-4.623-17.583-5.626
		c-8.823-3.422-31.059-5.99-58.572-7.385c30.032-3.191,69.016-12.464,58.258-49.238c-7.037-25.947-42.248-28.554-59.078-10.576
		c-11.013,9.775-19.295,22.932-27.181,35.249c-0.689-0.531-1.389-0.996-2.091-1.385c3.86-16.059,7.261-32.736,5.108-49.325
		C182.81-31.038,83.063,7.919,155.555,86.092c0,0-35.85-17.348-48.889-29.739C94.772,44.774,85.953,29.676,84.03,13.003
		l-19.281,9.252c7.397,34.896,37.016,58.899,67.87,73.415c-10.816,1.034-29.987,5.437-48.684,12.586
		c-14.67,1.785-26.763,4.166-34.526,7.214c-23.804,7.577-36.181,26.981-42.151,47.881C0.276,186.925-4.573,327.045,6.761,388.33
		c10.391,33.009,34.743,46.628,60.987,51.051c13.767,2.32,194.127,13.068,231.759-7.099c22.27-13.183,38.039-39.759,41.236-60.98
		c2.89-19.523,1.945-175.643-10.33-212.127C327.91,149.908,323.3,141.768,317.368,134.958z"/>
</g>
<g id="Layer_1">
</g>
</svg>
