<?xml version="1.0" encoding="utf-8"?>
<!-- Generator: Adobe Illustrator 26.0.0, SVG Export Plug-In . SVG Version: 6.00 Build 0)  -->
<svg version="1.1" xmlns="http://www.w3.org/2000/svg" xmlns:xlink="http://www.w3.org/1999/xlink" x="0px" y="0px"
	 viewBox="0 0 208.408 208.775" enable-background="new 0 0 208.408 208.775" xml:space="preserve">
<g id="present_x5F_green_x5F_round">
	<g>
		<path fill="#8CD000" d="M181.891,27.242c-35.187-39.119-94.057-32.139-138.75-4.072C9.701,44.172-21.3,107.027,19.297,168.297
			c40.944,61.794,132.528,43.861,163.86,5.76C222.658,126.024,210.792,59.373,181.891,27.242z"/>
		<g>
			<path fill="#B5D700" d="M9.327,64.115c-3.088,6.88-5.555,14.284-7.168,22.098l153.972,108.78
				c7.394-3.828,14.033-8.317,19.616-13.304L9.327,64.115z"/>
			<path fill="#B5D700" d="M108.408,0.41l95.021,67.132c-4.62-15.848-12.175-29.891-21.537-40.3
				c-2.516-2.798-5.167-5.333-7.912-7.668l-11.634-8.219C146.202,2.009,127.516-1.172,108.408,0.41z"/>
			<path fill="#B5D700" d="M0.118,111.935c0.485,10.316,2.581,21.011,6.616,31.837l92.004,65
				c11.044,0.032,22.035-1.504,32.434-4.249L0.118,111.935z"/>
			<path fill="#B5D700" d="M35.819,28.506c-5.414,4.459-10.614,9.972-15.301,16.352l169.571,119.8
				c4.225-6.409,7.64-13.067,10.333-19.862L35.819,28.506z"/>
			<path fill="#B5D700" d="M80.676,5.871c-8.326,2.562-16.535,5.888-24.443,9.894L206.729,122.09
				c1.479-8.75,1.937-17.521,1.5-26.103L80.676,5.871z"/>
		</g>
		<path fill="#0EB800" d="M121.506,102.994l85.689-17.973c-0.672-4.789-1.619-9.48-2.805-14.039l-86.772,15.516L96.076,2.068
			c-4.443,0.824-8.881,1.878-13.292,3.161l20.298,84.155L0.034,107.97c0.054,6.682,0.737,13.531,2.211,20.494l104.902-22.229
			l22.103,98.796c4.67-1.155,9.213-2.569,13.605-4.196L121.506,102.994z"/>
	</g>
</g>
<g id="Layer_1">
</g>
</svg>
