<?xml version="1.0" encoding="utf-8"?>
<!-- Generator: Adobe Illustrator 26.0.0, SVG Export Plug-In . SVG Version: 6.00 Build 0)  -->
<svg version="1.1" xmlns="http://www.w3.org/2000/svg" xmlns:xlink="http://www.w3.org/1999/xlink" x="0px" y="0px"
	 viewBox="0 0 222.952 200.565" enable-background="new 0 0 222.952 200.565" xml:space="preserve">
<g id="propeller_x5F_yellow">
	<g>
		<path fill="#FFFFFF" d="M222.192,161.278c-1.057-2.049-72.944-39.599-99.028-49.103c4.231-22.522,18.076-103.834,13.182-107.79
			c-8-6.468-38.605-5.722-43.707,1.845c-1.336,1.981,9.258,81.197,13.002,105.645C83.846,118.505,1.434,153.987,0.189,160.163
			c-2.032,10.085,12.788,36.872,21.857,37.894c2.363,0.266,71.057-57.57,91.349-72.455c19.808,16.21,83.758,77.227,89.423,74.899
			C212.334,196.59,226.379,169.388,222.192,161.278z"/>
		<path fill="#FFD200" d="M211.268,165.004c-0.764-1.479-72.962-41.167-94.89-50.019c2.61-17.89,14.926-98.275,11.393-101.131
			c-5.61-4.535-24.331-4.392-27.909,0.914c-0.947,1.405,10.548,100.032,10.548,100.032c-21.288,7.462-98.29,45.045-99.15,49.313
			c-1.425,7.071,5.353,19.616,11.712,20.333c1.715,0.193,72.862-53.342,89.569-64.736c17.765,13.364,82.083,71.875,86.124,70.213
			C205.337,187.18,214.204,170.69,211.268,165.004z"/>
		<g>
			<circle fill="#FFFFFF" cx="111.8" cy="119.889" r="24.285"/>
			<circle fill="#FFD200" cx="111.715" cy="119.847" r="18.639"/>
		</g>
	</g>
</g>
<g id="Layer_1">
</g>
</svg>
