<?xml version="1.0" encoding="utf-8"?>
<!-- Generator: Adobe Illustrator 26.5.0, SVG Export Plug-In . SVG Version: 6.00 Build 0)  -->
<svg version="1.1" xmlns="http://www.w3.org/2000/svg" xmlns:xlink="http://www.w3.org/1999/xlink" x="0px" y="0px"
	 viewBox="0 0 399.723 357.186" enable-background="new 0 0 399.723 357.186" xml:space="preserve">
<g id="rainbow_x5F_and_x5F_cloud">
	<g id="rainbow_x5F_and_x5F_cloud_00000155850193853715431270000016326050512423075473_">
		<g>
			<g>
				<path fill="#00BDD0" d="M84.156,104.625c61.042,300.414,315.567,249.26,315.567,249.26v-51.363L84.156,104.625z"/>
				<path fill="#FF9EC5" d="M235.094,211.882L122.848,104.625h-20.359c80.44,263.344,297.235,204.695,297.235,204.695v-43.81
					L235.094,211.882z"/>
				<path fill="#FFE400" d="M145.876,104.625h-23.028C195.505,309.449,399.723,265.51,399.723,265.51v-47.542
					C399.723,217.969,230.333,264.772,145.876,104.625z"/>
			</g>
			<g id="cloud_x5F_white_55_">
				<g id="Pilvi_163_">
					<path fill="#FFFFFF" d="M162.559,55.597c31.71-29.462,90.501-30.416,81.699,26.572c-3.288,25.704-10.789,33.263-35.952,35.033
						c-51.435,3.059-103.088,2.361-154.579,1.354C-41.22,128.231,5.942-11.21,70.364,62.191c2.29-15.543-2.477-29.033,8.614-43.083
						C99.042-5.54,152.51-9.866,161.464,27.291C163.019,32.735,166.432,51.078,162.559,55.597
						C163.656,54.817,162.516,55.646,162.559,55.597z"/>
				</g>
			</g>
		</g>
	</g>
</g>
<g id="Layer_1">
</g>
</svg>
