<?xml version="1.0" encoding="utf-8"?>
<!-- Generator: Adobe Illustrator 25.0.0, SVG Export Plug-In . SVG Version: 6.00 Build 0)  -->
<svg version="1.1" xmlns="http://www.w3.org/2000/svg" xmlns:xlink="http://www.w3.org/1999/xlink" x="0px" y="0px"
	 viewBox="0 0 1887.747 1294.74" enable-background="new 0 0 1887.747 1294.74" xml:space="preserve">
<g id="rectangle_x5F_rounded_x5F_plaid_x5F_white">
	<path fill="#E7E9E9" d="M1850.457,1043.829c-41.571,126.08-134.027,216.976-276.752,235.656
		c-74.873,9.8-889.665,27.589-1188.218,2.234c-273.926-23.264-330.343-106.396-360.213-183.903
		C-24.344,969.071,6.144,373.368,56.062,233.713C91.022,135.906,217.67,61.241,338.767,36.458
		C494.149,4.66,1357.831-22.761,1584.727,28.509c129.511,29.265,210.211,77.877,245.872,155.306
		C1870.937,271.397,1925.325,816.763,1850.457,1043.829z"/>
	<path fill="#FFFFFF" d="M1731.639,81.311c-18.516-10.529-39.226-19.957-62.159-28.382l6.378,125.636l-159.438,10.076
		l-5.946-172.012c-14.338-1.652-29.656-3.167-45.848-4.551l4.546,179.548l-147.564,9.326l-3.917-197.309
		c-19.611-0.711-39.769-1.312-60.37-1.811l6.873,202.748l-207.154,13.092L1042.87,0.07c-11.126,0.06-22.277,0.141-33.44,0.242
		l9.033,219.799l-130.878,8.271L875.29,2.455c-21.285,0.484-42.427,1.032-63.334,1.639l15.379,228.095l-165.826,10.48
		l-8.846-232.608c-19.193,0.893-37.903,1.832-56.037,2.813l5.225,233.565l-174.124,11.004l-3.637-232.272
		c-13.818,1.333-26.526,2.694-38.014,4.075v230.83l-154.734,9.779l6.085-201.258c-23.084,10.055-45.306,21.777-65.92,34.949
		l-2.731,170.263l-125.576,7.936c-2.726,12.712-5.364,26.725-7.902,41.871l132.815-8.467l-2.806,174.936l-150.522,3.016
		c-1.278,14.526-2.484,29.319-3.614,44.304l153.431-3.385l-3.822,238.252L0.426,775.527c-0.217,15.268-0.333,30.363-0.339,45.204
		h159.913l-2.552,159.073L5.01,975.852c1.842,24.606,4.231,46.914,7.202,66.302l144.204,2.064l-2.999,186.975
		c14.37,6.446,30.393,12.494,48.314,18.062l6.177-204.301l178.168,2.55v234.199c17.56,1.486,36.896,2.823,57.755,4.021
		l-3.718-237.447l179.736,2.572l5.401,241.444c24.726,0.525,50.202,0.956,76.229,1.299l-9.192-241.707l190.503,2.726l16.186,240.057
		c15.535-0.019,31.092-0.059,46.635-0.119l-13.019-239.226l120.269,1.721l9.727,236.691c21.735-0.216,43.262-0.465,64.476-0.744
		l-15.309-235.104l181.456,2.597l7.778,229.462c14.46-0.321,28.549-0.651,42.22-0.99l-4.522-227.821l152.556,2.183l5.589,220.783
		c23.961-0.998,43.388-1.991,57.357-2.944l-7.503-217.045l174.253,2.494l7.744,152.553c22.333-16.435,42.135-35.697,59.402-57.369
		l-4.926-94.293l58.456,0.836c3.198-8.028,6.18-16.216,8.932-24.563c2.106-6.388,4.105-13.042,6.01-19.917l-75.78-1.965
		l-10.508-201.159h114.716c1.464-27.196,2.334-55.162,2.678-83.506l-121.628,2.469l-12.575-240.721l126.209-2.784
		c-1.017-13.673-2.113-27.15-3.277-40.387l-125.056,2.506l-12.709-243.281l100.688-6.419c-2.911-10.346-5.803-18.72-8.625-24.848
		c-2.282-4.954-4.75-9.788-7.402-14.509l-86.765,5.483L1731.639,81.311z M386.074,985.731l-176.239-4.569l4.85-160.431h171.388
		V985.731z M386.074,767.7l-169.889,3.448l7.208-238.425l162.681-3.588V767.7z M386.074,485.661l-161.356,3.233l5.372-177.697
		l155.984-9.944V485.661z M428.37,298.556l174.398-11.118l4.335,193.794l-175.817,3.523L428.37,298.556z M431.965,528.123
		l176.1-3.885l5.343,238.848l-177.707,3.607L431.965,528.123z M439.153,987.107l-2.605-166.376h178.151l3.826,171.026
		L439.153,987.107z M663.065,283.594l167.018-10.648l13.724,203.543l-173.274,3.472L663.065,283.594z M672.163,522.824
		l174.508-3.849l16.118,239.05l-181.541,3.684L672.163,522.824z M690.068,993.612l-6.575-172.881h183.525l11.987,177.779
		L690.068,993.612z M889.803,269.139l130.333-8.309l8.71,211.952l-127.822,2.561L889.803,269.139z M903.332,517.725l127.247-2.807
		l9.843,239.502l-124.071,2.518L903.332,517.725z M929.568,999.822l-9.746-179.09h123.324l7.489,182.229L929.568,999.822z
		 M1059.686,258.309l205.884-13.125l7.549,222.705l-199.526,3.998L1059.686,258.309z M1076.33,513.909l198.201-4.372l8.135,239.967
		l-190.743,3.871L1076.33,513.909z M1108.272,1004.455l-11.963-183.723h188.771l6.389,188.473L1108.272,1004.455z M1322.414,241.559
		l147.783-9.421l5.865,231.684l-149.177,2.989L1322.414,241.559z M1327.71,508.363l149.397-3.295l6.085,240.366l-150.715,3.059
		L1327.71,508.363z M1337.676,1010.402l-3.765-189.671h151.187l4.902,193.62L1337.676,1010.402z M1517.818,229.102l160.087-10.206
		l12.215,240.637l-164.222,3.291L1517.818,229.102z M1527.32,503.96l164.871-3.637l12.214,240.621l-168.775,3.425L1527.32,503.96z
		 M1545.012,1015.778l-6.742-195.046h170.185l10.129,199.546L1545.012,1015.778z"/>
</g>
<g id="Layer_1">
</g>
</svg>
