<?xml version="1.0" encoding="utf-8"?>
<!-- Generator: Adobe Illustrator 25.0.0, SVG Export Plug-In . SVG Version: 6.00 Build 0)  -->
<svg version="1.1" xmlns="http://www.w3.org/2000/svg" xmlns:xlink="http://www.w3.org/1999/xlink" x="0px" y="0px"
	 viewBox="0 0 340.906 473.228" enable-background="new 0 0 340.906 473.228" xml:space="preserve">
<g id="robot_x5F_5">
	<g>
		<path fill="#B2B2B2" d="M231.314,243.985c0,0,58.117,2.497,67.5-2.5c10.5-5.592,8-55.28,8-55.28l21.182,0.056
			c0,0-0.682,59.517-6.182,70.092s-17.882,10.604-33.882,10.604s-56.618,1.528-56.618,1.528L231.314,243.985L231.314,243.985z"/>
		<path fill="#B2B2B2" d="M78.679,38.043c-11.917-0.723-38.955,2.109-38.955,2.109s-15.095,0.008-15.82,11.68
			c-2.09,33.653,2.151,151.57,3.732,163.664c2.177,16.655,4.926,21.489,13.98,22.989s18.864,1.667,18.864,1.667l-2.667,23.13
			c0,0-44.883,5.145-48.443-20.688C-2.52,156.317-0.341,52.944,1.311,42.828s-4.164-20.343,27.544-23.613
			c14.195-1.464,48.035-2.074,48.035-2.074L78.679,38.043z"/>
		<path fill="#7C7E7E" d="M259.48,244.605c-14.887-0.05-28.167-0.62-28.167-0.62v24.5c0,0,13.604-0.512,28.167-0.943V244.605z"/>
		<path fill="#7C7E7E" d="M305.526,224.858c-1.189,8.104-3.239,14.778-6.712,16.627c-2.286,1.218-7.471,1.99-14,2.462v23.026
			c1.117-0.01,2.163-0.016,3.118-0.016c16,0,28.382-0.029,33.882-10.604c2.348-4.514,3.56-17.777,4.179-31.496L305.526,224.858
			L305.526,224.858z"/>
		<path opacity="0.57" fill="#7C7E7E" enable-background="new    " d="M0.386,119.859l23.482,1.009
			c-0.287-13.098-0.48-25.922-0.522-37.268c-7.747,0.129-16.099,0.231-23.339,0.236C-0.026,94.456,0.077,106.644,0.386,119.859z"/>
		<path opacity="0.57" fill="#7C7E7E" enable-background="new    " d="M28.633,221.991c-6.097,0.452-14.49,1.122-21.62,1.701
			c0.717,6.362,1.499,12.678,2.357,18.903c3.56,25.833,48.443,20.688,48.443,20.688l2.667-23.13c0,0-9.81-0.167-18.864-1.667
			C33.87,237.202,30.74,233.471,28.633,221.991z"/>
		<path opacity="0.57" fill="#7C7E7E" enable-background="new    " d="M24.755,153.779c-7.027,0.149-15.891,0.299-23.154,0.298
			c0.515,10.746,1.175,21.806,2.01,32.965l22.305-1.573C25.52,176.107,25.119,165.251,24.755,153.779z"/>
		<path opacity="0.57" fill="#7C7E7E" enable-background="new    " d="M28.855,19.215C-2.853,22.485,2.963,32.712,1.311,42.828
			c-0.303,1.854-0.623,6.851-0.871,14.289l23.071,4.684c0.091-3.823,0.22-7.188,0.393-9.969c0.725-11.672,15.82-11.68,15.82-11.68
			s0.918-0.113,2.471-0.289V18.322C36.915,18.575,32.189,18.871,28.855,19.215z"/>
		<polygon fill="#B2B2B2" points="137.816,38.485 138.314,72.985 152.064,73.235 148.814,38.485 		"/>
		<polygon fill="#7C7E7E" points="122.379,181.152 120.814,205.485 169.541,206.819 169.541,182.485 		"/>
		<path fill="#B2B2B2" d="M209.108,168.037c-3.541,11.506-12.32,18.757-24.282,19.784c-15.787,1.069-76.3-0.796-93.816-5.034
			c-9.435-2.897-14.733-11.869-16.002-19.173c-1.953-11.094-0.427-61.537,4.584-74.018c2.838-8.791,14.979-17.527,24.222-18.752
			c20.234-2.969,62.504-3.968,82.763-0.94c14.616,2.442,22.068,12.157,23.868,24.431C211.978,103.09,214.331,147.21,209.108,168.037
			z"/>
		<path fill="#B2B2B2" d="M236.489,336.449c-4.34,17.446-16.873,27.86-37.009,30.036c-16.502,0.525-107.335,7.099-123.534-2.333
			c-17.133-7.397-22.302-17.117-24.633-28.02c-3.141-20.743-1.712-68.074,0.554-94.647c0.946-31.078,21.125-35.551,33.738-38.102
			c15.916-5.113,101.444-7.899,123.075-0.898c12.583,3.173,20.076,12.852,23.835,23.499
			C239.21,243.319,240.421,304.312,236.489,336.449z"/>
		<path fill="#FFFFFF" d="M203.01,111.602c-5.337-8.558-15.539-9.515-24.825-5.654c-6.948,2.889-15.282,14.082-9.646,27.013
			c5.685,13.042,24.595,12.891,31.699,6.693C209.195,131.841,207.393,118.631,203.01,111.602z"/>
		<path fill="#3F749A" d="M197.475,116.225c-3.338-5.575-10.903-6.928-16.711-4.413c-4.346,1.882-9.25,8.982-5.725,17.407
			c3.556,8.496,15.453,8.383,19.897,4.346C200.538,128.474,200.217,120.804,197.475,116.225z"/>
		<path fill="#7C7E7E" d="M154.974,125.436c-3.338-5.575-10.903-6.928-16.711-4.413c-4.346,1.882-9.25,8.982-5.725,17.407
			c3.556,8.496,15.453,8.383,19.897,4.346C158.037,137.685,157.716,130.015,154.974,125.436z"/>
		<path fill="#7C7E7E" d="M212.499,318.477c-3.252,13.071-12.642,20.873-27.728,22.504c-12.363,0.393-80.418,5.319-92.555-1.748
			c-12.836-5.542-16.709-12.825-18.456-20.993c-2.354-15.541-1.283-51.003,0.415-70.912c0.709-23.284,15.828-26.635,25.277-28.547
			c11.925-3.831,76.005-5.919,92.211-0.673c9.428,2.377,15.041,9.629,17.858,17.606
			C214.538,248.702,215.445,294.399,212.499,318.477z"/>
		<path fill="#B2B2B2" d="M185.092,312.283c-13.676-12.977-29.582-24.909-42.525-37.956c-0.493-0.497-39.058-43.309-40.088-42.332
			c-1.03,0.977-0.465,16.507,13.138,30.529c6.583,6.786,19.416,10.855,23.221,15.338c12.165,14.331,23.881,30.208,36.072,44.518
			c0,0,5.827,6.821,11.615,1.741C192.313,319.041,185.092,312.283,185.092,312.283z"/>
		<path fill="#B2B2B2" d="M185.629,239.207c1.338,1.495-14.578,15.637-13.441,16.631c1.266,1.338,15.635-13.874,17.257-12.716
			c1.622,1.158-6.975,10.196-12.806,16.922c-4.234,4.884-7.805,8.422-13.5,8.14c-2.44-0.121-4.268,1.718-5.996,3.393
			c-6.682,6.479-35.966,42.915-44.23,49.439c0,0-4.883,3.999-8.83,0.164s-0.255-8.771-0.255-8.771
			c8.157-9.211,41.232-36.433,49.625-44.616c0.622-0.607,2.804-3.072,2.719-6.755c-0.123-5.396,4.685-10.061,8.619-13.148
			c5.529-4.339,15.93-13.828,17.119-12.497s-14.686,15.392-13.265,16.812C169.493,253.378,184.291,237.712,185.629,239.207z"/>
		<path fill="#7C7E7E" d="M110.792,393.446l15.313-2.422c-2.757,32.186,34.941,29.348,30.164-1.024l15.047-2.537
			c3.095,12.214-3.09,40.75-28.068,41.331C119.961,431.443,111.302,411.428,110.792,393.446z"/>
		<path fill="#7C7E7E" d="M237.111,352.717c1.771,1.63-9.494,16.485-23.776,27.418c-43.753,27.269-109.093,28.067-148.357-4.062
			c-9.043-7.4-20.371-22.247-17.782-22.789C69.117,348.696,147.864,348.696,237.111,352.717z"/>
		<path fill="#4B4B4A" d="M118.046,421.636c-11.59,10.701-11.117,27.426-2.509,40.664c6.441,9.905,26.146,17.036,43.633,5.023
			c17.015-11.69,14.292-39.7,2.73-48.897C147.323,406.831,127.566,412.847,118.046,421.636z"/>
		<path fill="#7C7E7E" d="M113.049,434.072c0.913-1.43,0.885-2.346,1.716-3.647c6.281,2.814,15.279,5.623,22.011,8.639
			c-2.476-7.547-9.588-20.212-9.588-20.212c2.015-0.611,3.896-2.15,6.094-2.816c0,0,4.594,13.13,6.813,20.824
			c2.746-6.129,6.494-17.591,8.992-23.168c1.333,0.889,1.491,0.772,3.003,1.78c-3.147,5.755-8.912,24.023-8.795,24.176
			c5.856-2.89,17.214-8.002,23.168-10.94c0.779,1.903,1.096,3.066,1.949,5.148c-5.939,2.313-17.5,5.303-23.83,7.768
			c5.747,2.575,18.422,4.825,23.83,7.248c-0.469,1.752-1.644,3.423-2.163,5.363c-5.411-2.833-17.651-7.039-23.383-10.04
			c1.906,6.902,8.253,16.287,10.082,22.911c-1.094,0.516-3.038,1.093-4.478,1.772c-2.373-7.086-5.883-14.279-8.376-21.722
			c-2.49,6.752-6.468,16.596-8.813,22.953c-1.713-0.508-3.089-0.585-5.148-1.195c3.15-6.186,7.228-17.027,10.511-23.475
			c-7.538,2.605-15.225,5.073-22.453,7.57l-1.144-5.211c7.304-1.928,14.832-3.394,22.739-5.481
			C128.714,439.151,119.576,436.997,113.049,434.072z"/>
		<path fill="#7C7E7E" d="M284.938,163.243c-0.018-1.686,0.057-2.863,0.09-3.286l13.9,1.073c-2.661,29.278,32.027,26.8,27.559-0.934
			l13.747-2.318c2.829,11.159-2.823,37.23-25.643,37.76C293.469,198.199,285.355,179.429,284.938,163.243z"/>
		<path fill="#7C7E7E" d="M98.167,0.086c1.647,0.121,2.791,0.291,3.201,0.358l-2.191,13.481
			c-28.364-5.003-28.794,29.061-1.353,26.981l1.133,13.611c-11.126,1.843-36.113-5.818-34.753-28.139
			C63.344,5.541,82.331-0.838,98.167,0.086z"/>
		<path fill="#4B4B4A" d="M123.499,9.404c-9.775,9.024-9.375,23.129-2.116,34.294c5.432,8.354,22.051,14.368,36.797,4.236
			c14.35-9.858,12.053-33.481,2.302-41.237C148.189-3.082,131.527,1.992,123.499,9.404z"/>
		<path fill="#7C7E7E" d="M119.284,19.892c0.77-1.206,0.746-1.978,1.447-3.076c5.297,2.373,12.886,4.742,18.563,7.286
			c-2.088-6.364-8.086-17.046-8.086-17.046c1.699-0.515,3.285-1.813,5.139-2.375c0,0,3.874,11.073,5.746,17.562
			c2.316-5.169,5.477-14.835,7.584-19.539c1.124,0.749,1.257,0.651,2.533,1.502c-2.654,4.854-7.516,20.26-7.417,20.389
			c4.939-2.437,14.518-6.749,19.539-9.227c0.657,1.605,0.924,2.586,1.644,4.342c-5.009,1.951-14.759,4.472-20.097,6.551
			c4.847,2.172,15.536,4.069,20.097,6.112c-0.396,1.477-1.386,2.886-1.825,4.523c-4.563-2.389-14.886-5.937-19.72-8.467
			c1.607,5.821,6.96,13.736,8.503,19.322c-0.923,0.435-2.562,0.922-3.776,1.494c-2.001-5.976-4.962-12.042-7.064-18.319
			c-2.1,5.694-5.454,13.996-7.432,19.358c-1.445-0.428-2.605-0.493-4.342-1.008c2.656-5.217,6.096-14.359,8.865-19.797
			c-6.357,2.197-12.84,4.278-18.936,6.384l-0.965-4.394c6.16-1.626,12.508-2.862,19.177-4.623
			C132.495,24.175,124.789,22.358,119.284,19.892z"/>
		<path fill="#FFFFFF" d="M119.45,110.619c-5.337-8.558-15.539-9.515-24.825-5.654c-6.948,2.889-15.282,14.082-9.646,27.013
			c5.685,13.042,24.595,12.891,31.699,6.693C125.635,130.858,123.833,117.648,119.45,110.619z"/>
		<path fill="#3F749A" d="M113.914,115.243c-3.338-5.575-10.903-6.928-16.711-4.413c-4.346,1.882-9.25,8.982-5.725,17.407
			c3.556,8.496,15.453,8.383,19.897,4.346C116.978,127.492,116.656,119.822,113.914,115.243z"/>
		<path fill="#4B4B4A" d="M122.305,152.007h45.296c0,0-10.8,13.887-22.416,15.025C133.569,168.17,122.305,152.007,122.305,152.007z"
			/>
	</g>
</g>
<g id="Layer_1">
</g>
</svg>
