<?xml version="1.0" encoding="utf-8"?>
<!-- Generator: Adobe Illustrator 25.0.0, SVG Export Plug-In . SVG Version: 6.00 Build 0)  -->
<svg version="1.1" xmlns="http://www.w3.org/2000/svg" xmlns:xlink="http://www.w3.org/1999/xlink" x="0px" y="0px"
	 viewBox="0 0 328.734 456.392" enable-background="new 0 0 328.734 456.392" xml:space="preserve">
<g id="robot_x5F_1">
	<g>
		<path fill="#7C7E7E" d="M121.367,189.076c-0.177-17.607,1.74-42.843,2.607-53.252c-8.711,0.124-16.669,0.641-21.264,1.521
			c-0.654,0.118-1.324,0.264-1.999,0.436c-0.429,10.882-1.098,29.789-1.389,48.402c-0.331,21.116-0.099,41.833-0.219,50.039
			c0.085,0.026,0.164,0.058,0.25,0.083c5.858,1.374,14.09,1.962,22.51,2.098C121.793,231.517,121.559,208.179,121.367,189.076z"/>
		<path fill="#4B4B4A" d="M121.92,166.543c0.154-3.19,0.329-6.349,0.515-9.398l-22.298-3.446c-0.108,3.275-0.215,6.752-0.317,10.36
			L121.92,166.543z"/>
		<path fill="#4B4B4A" d="M121.373,183.869c0.034-3.367,0.125-6.905,0.256-10.495l-22.023-1.213
			c-0.075,3.106-0.144,6.263-0.204,9.433L121.373,183.869z"/>
		<path fill="#4B4B4A" d="M121.69,221.201c-0.03-2.973-0.062-6.157-0.095-9.447c-5.979,0.372-16.143,0.911-22.461,1.239
			c-0.002,3.254,0.001,6.325,0.003,9.15L121.69,221.201z"/>
		<path fill="#4B4B4A" d="M121.514,203.713c-0.038-3.75-0.076-7.527-0.112-11.201c-5.996-0.054-16.181-0.32-22.158-0.487
			c-0.037,3.324-0.062,6.608-0.079,9.807L121.514,203.713z"/>
		<path fill="#4B4B4A" d="M123.974,135.824c-8.711,0.124-16.669,0.641-21.264,1.521c-0.654,0.118-1.324,0.264-1.999,0.436
			c-0.057,1.452-0.119,3.04-0.183,4.758c7.175,0.881,16.798,2.134,22.673,3.183C123.491,141.757,123.763,138.357,123.974,135.824z"
			/>
		<path fill="#4B4B4A" d="M121.765,228.709c-5.717,0.681-16.623,1.864-22.627,2.51c-0.005,1.97-0.015,3.653-0.035,5.002
			c0.085,0.026,0.164,0.058,0.25,0.083c5.858,1.374,14.09,1.962,22.51,2.098C121.842,236.397,121.808,233,121.765,228.709z"/>
		<path fill="#7C7E7E" d="M92.559,28.431c0.579,1.746,0.893,2.994,0.999,3.445l-14.8,3.506C77.89,31.821,74.202,21.8,67.722,18.497
			c-3.057-1.557-6.637-1.456-10.944,0.31c-4.532,1.858-7.366,4.477-8.665,8.007c-2.492,6.774,0.926,16.003,2.32,18.702l-13.514,6.98
			c-0.865-1.676-8.964-19.349-4.108-33.647c3.607-10.618,8.735-14.111,17.32-16.863c13.387-4.291,19.898-0.664,24.82,1.865
			C85.66,9.353,90.564,22.412,92.559,28.431z"/>
		<path fill="#7C7E7E" d="M123.23,26.154c2.088-6.238,6.412-15.299,14.86-20.775c6.955-4.507,15.455-5.637,24.58-3.267
			c11.507,2.989,16.9,9.733,19.397,14.863c7.011,14.403-0.227,31.908-1.074,33.852l-14.382-6.261
			c1.488-3.477,4.642-14.026,1.337-20.76c-1.559-3.176-4.575-5.307-9.222-6.513c-4.869-1.265-8.814-0.866-12.061,1.22
			c-6.214,3.992-9.11,13.573-9.701,16.926l-15.463-2.63C121.614,32.133,122.088,29.565,123.23,26.154z"/>
		<polygon fill="#B2B2B2" points="25.356,59.321 34.225,155.093 187.954,155.513 191.113,58.61 		"/>
		<path fill="#7C7E7E" d="M25.62,59.248c-1.543-1.264,12.993-12.804,20.757-15.873c38.187-21.211,94.945-15.014,129.389,3.003
			c8.776,4.591,14.356,10.453,15.493,12.237C191.686,59.286,39.972,59.053,25.62,59.248z"/>
		<path fill="#FFFFFF" d="M75.057,85.356c-4.463-7.157-12.995-7.958-20.761-4.728c-5.811,2.416-12.781,11.777-8.067,22.591
			c4.754,10.907,20.569,10.781,26.511,5.598C80.229,102.282,78.722,91.234,75.057,85.356z"/>
		<path fill="#4B4B4A" d="M70.427,89.223c-2.792-4.663-9.118-5.794-13.976-3.69c-3.635,1.574-7.736,7.512-4.788,14.558
			c2.974,7.106,12.924,7.011,16.641,3.634C72.989,99.467,72.72,93.052,70.427,89.223z"/>
		<path fill="#4A4A49" d="M118.32,102.411c-2.792-4.663-9.118-5.794-13.976-3.69c-3.635,1.574-7.736,7.512-4.788,14.558
			c2.974,7.106,12.924,7.011,16.641,3.634C120.882,112.655,120.613,106.24,118.32,102.411z"/>
		<path fill="#FFFFFF" d="M171.719,82.826c-4.463-7.157-12.995-7.958-20.761-4.728c-5.811,2.416-12.781,11.777-8.067,22.591
			c4.754,10.907,20.569,10.781,26.511,5.598C176.892,99.752,175.385,88.704,171.719,82.826z"/>
		<path fill="#4B4B4A" d="M167.089,86.693c-2.792-4.663-9.118-5.794-13.976-3.69c-3.635,1.574-7.736,7.512-4.788,14.558
			c2.974,7.106,12.924,7.011,16.641,3.634C169.652,96.937,169.382,90.522,167.089,86.693z"/>
		<path fill="#4B4B4A" d="M81.088,119.36c-0.01-0.965,0.033-1.639,0.051-1.881l7.956,0.614
			c-1.732,16.605,18.515,15.255,15.774-0.536l7.868-1.327C117.835,140.464,81.336,148.335,81.088,119.36z"/>
		<path fill="#4B4B4A" d="M105.561,118.691c-0.01-0.965,0.033-1.639,0.051-1.881l7.956,0.614
			c-1.732,16.605,18.515,15.255,15.774-0.536l7.868-1.327C142.308,139.795,105.808,147.667,105.561,118.691z"/>
		<path fill="#7C7E7E" d="M76.679,357.197c12.99-11.887,32.877-27.505,41.124-33.898c-5.184-5.613-10.219-10.47-13.558-12.887
			c-0.47-0.348-0.97-0.689-1.493-1.016c-8.343,6.995-22.793,19.198-36.806,31.451c-15.896,13.901-31.167,27.903-37.339,33.311
			c0.031,0.073,0.053,0.146,0.084,0.219c2.401,4.749,6.775,10.525,11.595,16.121C45.368,385.85,62.586,370.094,76.679,357.197z"/>
		<path fill="#4B4B4A" d="M93.759,342.494c2.462-2.032,4.914-4.03,7.289-5.946l-10.469-16.884c-2.498,2.119-5.147,4.373-7.889,6.719
			L93.759,342.494z"/>
		<path fill="#4B4B4A" d="M80.555,353.719c2.524-2.229,5.208-4.535,7.954-6.849L76.54,331.659c-2.354,2.027-4.742,4.093-7.134,6.173
			L80.555,353.719z"/>
		<path fill="#4B4B4A" d="M52.978,378.886c2.193-2.007,4.542-4.157,6.969-6.378c-3.771-3.661-10.112-9.946-14.048-13.858
			c-2.421,2.174-4.703,4.229-6.802,6.119L52.978,378.886z"/>
		<path fill="#4B4B4A" d="M65.881,367.078c2.766-2.531,5.553-5.081,8.264-7.562c-3.464-3.957-9.218-10.794-12.587-14.814
			c-2.493,2.198-4.95,4.377-7.339,6.505L65.881,367.078z"/>
		<path fill="#4B4B4A" d="M117.804,323.299c-5.184-5.613-10.219-10.47-13.558-12.887c-0.47-0.348-0.97-0.689-1.492-1.016
			c-1.113,0.933-2.33,1.955-3.645,3.061c3.538,5.28,8.23,12.411,10.884,16.953C113.109,326.95,115.797,324.855,117.804,323.299z"/>
		<path fill="#4B4B4A" d="M47.439,383.954c-3.848-3.283-11.101-9.623-15.091-13.117c-1.467,1.314-2.725,2.432-3.74,3.322
			c0.031,0.073,0.053,0.145,0.084,0.218c2.401,4.749,6.775,10.525,11.595,16.121C41.768,389.144,44.274,386.851,47.439,383.954z"/>
		<path fill="#7C7E7E" d="M34.424,415.541c-1.058,0.955-1.845,1.567-2.132,1.783l-7.103-9.405c2.255-1.726,8.214-7.468,8.535-13.095
			c0.151-2.654-1.037-5.162-3.633-7.667c-2.731-2.635-5.473-3.829-8.383-3.649c-5.582,0.345-11.063,5.648-12.543,7.479L0,383.579
			c0.919-1.137,9.303-11.111,20.982-11.833c6.216-0.385,12.196,2.012,17.293,6.931c6.423,6.197,7.476,11.492,7.506,17.431
			S38.071,412.248,34.424,415.541z"/>
		<path fill="#7C7E7E" d="M148.508,377.174c0.702-17.594,3.61-42.713,4.875-53.071c-7.635-0.27-14.63-0.113-18.697,0.557
			c-0.578,0.089-1.172,0.204-1.772,0.345c-0.905,10.849-2.411,29.703-3.573,48.281c-1.318,21.075-2.123,41.779-2.628,49.969
			c0.073,0.03,0.141,0.065,0.215,0.094c5.063,1.637,12.245,2.597,19.613,3.114C146.815,419.583,147.746,396.262,148.508,377.174z"/>
		<path fill="#4B4B4A" d="M150.089,354.692c0.29-3.179,0.597-6.327,0.908-9.363l-19.362-4.451
			c-0.254,3.266-0.517,6.734-0.782,10.333L150.089,354.692z"/>
		<path fill="#4B4B4A" d="M148.766,371.972c0.194-3.361,0.446-6.891,0.735-10.471l-19.23-2.208
			c-0.217,3.099-0.431,6.249-0.638,9.412L148.766,371.972z"/>
		<path fill="#4B4B4A" d="M147.227,409.275c0.119-2.971,0.246-6.152,0.377-9.44c-5.255,0.101-14.182,0.18-19.732,0.222
			c-0.16,3.25-0.307,6.317-0.442,9.139L147.227,409.275z"/>
		<path fill="#4B4B4A" d="M147.924,391.799c0.15-3.747,0.3-7.521,0.447-11.192c-5.249-0.326-14.156-1.052-19.382-1.488
			c-0.194,3.318-0.376,6.597-0.547,9.791L147.924,391.799z"/>
		<path fill="#4B4B4A" d="M153.383,324.103c-7.636-0.27-14.63-0.113-18.697,0.557c-0.578,0.089-1.172,0.204-1.772,0.345
			c-0.121,1.448-0.252,3.031-0.392,4.744c6.241,1.205,14.608,2.891,19.702,4.205C152.671,330.007,153.075,326.623,153.383,324.103z"
			/>
		<path fill="#4B4B4A" d="M146.927,416.777c-5.041,0.422-14.649,1.11-19.94,1.484c-0.1,1.967-0.191,3.648-0.274,4.995
			c0.073,0.03,0.14,0.065,0.215,0.094c5.063,1.637,12.245,2.597,19.613,3.114C146.621,424.459,146.756,421.064,146.927,416.777z"/>
		<path fill="#7C7E7E" d="M160.199,448.257c-0.066,1.424-0.186,2.414-0.234,2.769l-11.68-1.576
			c0.362-2.817,0.478-11.091-3.292-15.28c-1.779-1.976-4.396-2.897-8.002-2.817c-3.794,0.085-6.573,1.192-8.493,3.385
			c-3.685,4.207-3.777,11.833-3.518,14.173l-11.715,1.294c-0.16-1.453-1.342-14.429,6.366-23.232
			c4.103-4.685,10.015-7.245,17.097-7.403c8.922-0.199,13.425,2.781,17.664,6.94C158.631,430.67,160.427,443.349,160.199,448.257z"
			/>
		<path fill="#B2B2B2" d="M178.476,430.18l52.573-1.415c0,0-0.038,20.411,0.055,20.616c0,0-5.808,6.611-23.611,6.983
			c-25.684,0.536-29.017-6.78-29.017-6.78L178.476,430.18L178.476,430.18z"/>
		<path fill="#7C7E7E" d="M206.238,423.655c-6.864-0.142-14.003,0.13-20.94,2.147s-6.822,4.378-6.822,4.378
			s1.432,4.187,27.116,3.651c17.804-0.371,26.023-3.815,25.458-5.066C229.06,424.367,213.103,423.796,206.238,423.655z"/>
		<path fill="#7C7E7E" d="M178.526,438.53c0,0,15.239,2.933,28.076,2.866c12.837-0.066,24.502-4.671,24.502-4.671
			s-0.092,6.151,0,6.236c0,0-5.874,5.585-23.679,5.838c-25.686,0.364-28.979-4.077-28.979-4.077L178.526,438.53z"/>
		<path fill="#B2B2B2" d="M279.469,410.534l33.422-41.136c0,0,15.585,13.424,15.803,13.488c0,0,1.245,8.781-10.155,22.641
			c-16.447,19.995-24.229,17.743-24.229,17.743L279.469,410.534z"/>
		<path fill="#7C7E7E" d="M292.699,385.018c-4.613,5.157-9.09,10.795-12.101,17.424s-1.129,8.091-1.129,8.091
			s4.142,1.653,20.588-18.342c11.4-13.86,14.161-22.406,12.833-22.795C308.221,368.031,297.312,379.861,292.699,385.018z"/>
		<path fill="#7C7E7E" d="M285.889,415.976c0,0,12.244-9.73,20.618-19.591c8.374-9.861,12.508-21.805,12.508-21.805
			s4.644,4.107,4.77,4.093c0,0,0.416,8.158-11.076,21.941c-16.579,19.883-22.137,19.488-22.137,19.488L285.889,415.976z"/>
		<path fill="#7C7E7E" d="M235.947,312.702l-8.483,12.609c0,0,64.283,56.048,70.135,61.138l11.246-9.826L235.947,312.702z"/>
		<path fill="#4B4B4A" d="M257.567,331.624l-6.542-6.014l-11.96,8.824l7.318,6.507L257.567,331.624z"/>
		<path fill="#4B4B4A" d="M270.609,343.095l-7.513-6.6l-10.879,10.397l6.748,5.883L270.609,343.095z"/>
		<path fill="#4B4B4A" d="M296.794,366.056l-6.72-5.892l-8.84,12.024l6.517,5.681L296.794,366.056z"/>
		<path fill="#4B4B4A" d="M284.268,355.072l-7.939-6.961l-10.241,10.873l7.05,6.146L284.268,355.072z"/>
		<path fill="#4B4B4A" d="M235.948,312.702c-3.614,4.349-6.626,8.569-7.947,11.362c-0.193,0.393-0.373,0.811-0.536,1.248
			c1.02,0.918,2.137,1.922,3.345,3.007c3.684-2.978,8.677-6.93,11.93-9.169C240.011,316.577,237.68,314.358,235.948,312.702z"/>
		<path fill="#4B4B4A" d="M301.635,370.301l-7.901,12.782l3.432,2.989l11.053-9.998L301.635,370.301z"/>
		<path fill="#7C7E7E" d="M224.964,384.045c-0.169-16.514,1.186-40.177,1.801-49.939c-6.413,0.097-12.271,0.565-15.652,1.379
			c-0.481,0.11-0.974,0.245-1.471,0.404c-0.292,10.205-0.742,27.936-0.916,45.392c-0.197,19.803,0.02,39.234-0.05,46.93
			c0.063,0.024,0.121,0.055,0.184,0.078c4.316,1.302,10.378,1.872,16.578,2.018C225.372,423.85,225.147,401.961,224.964,384.045z"/>
		<path fill="#4B4B4A" d="M225.321,362.912c0.106-2.991,0.228-5.954,0.358-8.813l-16.425-3.282
			c-0.072,3.071-0.143,6.332-0.211,9.716L225.321,362.912z"/>
		<path fill="#4B4B4A" d="M224.956,379.16c0.018-3.158,0.077-6.476,0.165-9.842l-16.217-1.187c-0.049,2.913-0.092,5.873-0.129,8.846
			L224.956,379.16z"/>
		<path fill="#4B4B4A" d="M225.272,414.175c-0.029-2.788-0.059-5.775-0.091-8.86c-4.401,0.336-11.883,0.818-16.534,1.112
			c0.006,3.052,0.015,5.932,0.023,8.581L225.272,414.175z"/>
		<path fill="#4B4B4A" d="M225.104,397.772c-0.036-3.517-0.072-7.059-0.108-10.505c-4.415-0.064-11.914-0.336-16.315-0.506
			c-0.02,3.117-0.031,6.197-0.037,9.197L225.104,397.772z"/>
		<path fill="#4B4B4A" d="M226.765,334.106c-6.413,0.097-12.271,0.565-15.652,1.379c-0.481,0.11-0.974,0.245-1.471,0.404
			c-0.039,1.362-0.081,2.851-0.124,4.462c5.284,0.843,12.372,2.039,16.7,3.036C226.423,339.67,226.616,336.481,226.765,334.106z"/>
		<path fill="#4B4B4A" d="M225.345,421.217c-4.208,0.626-12.234,1.711-16.654,2.304c0.001,1.847-0.003,3.426-0.015,4.692
			c0.063,0.024,0.121,0.054,0.184,0.078c4.316,1.302,10.378,1.872,16.578,2.018C225.418,428.427,225.386,425.241,225.345,421.217z"
			/>
		<path fill="#7C7E7E" d="M282.549,225.651c4.667-5.294,3.645-1.429,3.53-8.746c3.548-5.99,3.396-1.962,1.796-9.067
			c2.175-6.136,2.948-2.789-0.135-8.942c0.752-6.319,2.253-3.282-2.227-8.29c0.179-9.077-4.07-2.768-5.622-9.593
			c-0.886-3.106-6.225-0.067-7.368-3.8c-2.076-2.425-6.018,2.302-8.551-0.654c-2.928-1.468-5.167,4.431-8.73,2.443
			c-2.73-0.76-2.748,2.996-4.811,3.992c-1.785,1.58-5.13,0.014-5.599,2.894c0.24,4.494-6.17,3.77-6.52,7.216
			c1.244,4.402-5.373,4.946-5.022,8.383c2.085,4.192-4.463,5.901-3.401,9.168c2.879,3.476-3.228,6.439-1.524,9.348
			c3.532,2.712-1.86,6.809,0.519,9.182c3.973,1.689-0.188,6.806,2.686,8.381c6.407,2.883-0.736,5.963,7.964,7.677
			c4.11,7.14,5.058,0.254,9.796,4.621c1.873,1.9,3.61-1.356,5.665-1.39c6.076,0.783,3.807,1.046,8.302-2.818
			c6.487-1.248,3.933,0.161,7.657-5.15c1.58-1.809,5.171-0.6,5.316-3.515c-0.747-4.449,5.793-4.425,5.782-7.874
			C281.816,228.019,281.962,226.8,282.549,225.651z"/>
		<path fill="#B2B2B2" d="M104.025,346.831L98.833,235.61c0,0,144.293-3.056,144.678-3.261c0,0,13.697,11.874,15.251,49.542
			c2.242,54.343-12.357,61.731-12.357,61.731L104.025,346.831z"/>
		<path fill="#7C7E7E" d="M90.32,288.345c0.059,14.536,0.916,29.635,5.073,44.233s8.632,14.254,8.632,14.254
			s7.875-3.209,5.633-57.552c-1.554-37.669-8.48-54.92-10.825-53.67C90.582,240.007,90.261,273.809,90.32,288.345z"/>
		<path fill="#E8E9E9" d="M197.546,291.793c0.722,32.023-5.839,52.239-6.138,53.068l-4.148,0.094
			c0.073-0.207,7.31-24.599,5.536-59.34c-1.795-34.93-8.911-51.742-8.984-51.921l4.167-0.094c0.307,0.766,7.485,15.901,9.328,51.75
			C197.419,287.554,197.499,289.703,197.546,291.793z"/>
		<path fill="#E8E9E9" d="M219.532,291.289c0.722,32.03-5.84,52.248-6.14,53.077l-4.148,0.094c0.073-0.207,7.316-24.623,5.538-59.34
			c-1.789-34.814-8.914-51.74-8.986-51.921l4.165-0.094c0.309,0.766,7.488,15.901,9.331,51.75
			C219.406,287.053,219.485,289.202,219.532,291.289z"/>
		<path fill="#E8E9E9" d="M241.517,290.795c0.722,32.026-5.839,52.246-6.138,53.075l-4.148,0.094
			c0.073-0.207,7.324-24.623,5.536-59.34c-1.789-34.814-8.914-51.74-8.986-51.921l4.165-0.094c0.309,0.766,7.488,15.901,9.331,51.75
			C241.39,286.56,241.47,288.706,241.517,290.795z"/>
	</g>
</g>
<g id="Layer_1">
</g>
</svg>
