<?xml version="1.0" encoding="utf-8"?>
<!-- Generator: Adobe Illustrator 25.0.0, SVG Export Plug-In . SVG Version: 6.00 Build 0)  -->
<svg version="1.1" xmlns="http://www.w3.org/2000/svg" xmlns:xlink="http://www.w3.org/1999/xlink" x="0px" y="0px"
	 viewBox="0 0 230.618 518.332" enable-background="new 0 0 230.618 518.332" xml:space="preserve">
<g id="robot_x5F_3">
	<g id="recycle_x5F_new_x5F_metal_x5F_robot_x5F_3">
		<path fill="#4B4B4A" d="M78.891,433.776l2.713,76.746c5.548,0.33,15.797,0.248,15.797,0.248l-0.053-77.217L78.891,433.776z"/>
		<path fill="#4B4B4A" d="M130.326,433.733l2.713,76.746c5.548,0.33,15.797,0.248,15.797,0.248l-0.053-77.217L130.326,433.733z"/>
		<path fill="#4B4B4A" d="M88.604,345.647l-2.708-12.562c0,0-16.003,6.108-27.346,0.064c-8.407-4.479-14.114-14.384-16.963-29.44
			l-9.258-48.926l-12.953,2.451l9.258,48.926c3.644,19.255,11.671,32.275,23.859,38.699
			C62.278,350.017,79.478,348.916,88.604,345.647z"/>
		<path fill="#7C7E7E" d="M0.683,245.355c0.99,4.861,3.393,12.038,9.212,16.913c4.791,4.012,11.048,5.639,18.095,4.703
			c8.886-1.18,13.542-5.731,15.882-9.341c6.57-10.135,2.762-23.9,2.306-25.433l-11.338,3.364c0.794,2.739,2.185,10.924-0.907,15.659
			c-1.459,2.234-3.912,3.551-7.5,4.027c-3.76,0.499-6.676-0.162-8.914-2.021c-4.283-3.558-5.571-10.995-5.705-13.558L0,240.215
			C0.023,240.732,0.142,242.698,0.683,245.355z"/>
		<path fill="#B2B2B2" d="M65.795,320.915l90.124-3.201c0,0,0.963,130.409,1.125,130.76c0,0-9.759,12.216-40.28,13.116
			c-44.031,1.297-49.861-11.992-49.861-11.992L65.795,320.915z"/>
		<path fill="#7C7E7E" d="M113.303,309.317c-11.772-0.141-24.009,0.43-35.874,3.99s-11.633,7.608-11.633,7.608
			s2.516,7.158,46.548,5.861c30.522-0.899,44.564-6.926,43.577-9.062C152.445,310.201,125.075,309.458,113.303,309.317z"/>
		<path fill="#E8E9E9" d="M109.387,406.148c-25.941,0.223-42.244-5.976-42.912-6.257l-0.032-3.749
			c0.167,0.069,19.844,6.934,47.997,5.797c28.306-1.154,41.995-7.358,42.141-7.422l0.032,3.766
			c-0.624,0.267-12.955,6.55-42.006,7.734C112.821,406.091,111.079,406.134,109.387,406.148z"/>
		<path fill="#E8E9E9" d="M109.564,426.02c-25.947,0.223-42.25-5.977-42.918-6.258l-0.032-3.749
			c0.167,0.069,19.864,6.94,47.997,5.798c28.212-1.15,41.994-7.361,42.141-7.423l0.032,3.765
			c-0.624,0.268-12.955,6.553-42.006,7.737C112.996,425.962,111.254,426.005,109.564,426.02z"/>
		<path fill="#E8E9E9" d="M109.734,445.889c-25.943,0.223-42.249-5.975-42.917-6.257l-0.032-3.749
			c0.167,0.069,19.864,6.947,47.997,5.797c28.212-1.15,41.994-7.361,42.141-7.423l0.032,3.765
			c-0.624,0.268-12.955,6.553-42.006,7.737C113.165,445.832,111.426,445.875,109.734,445.889z"/>
		<path fill="#4B4B4A" d="M117.977,326.457c0,0-11.154,0.695-18.975,0.5l-1.177-45.145l17.28-0.927L117.977,326.457z"/>
		<path fill="#B2B2B2" d="M67.761,170.319c-3.669,4.104-12.163,0.462-12.45,7.376c0.007,2.712-0.898,5.441-2.757,7.683
			c-2.805,4.698-11.8,2.859-10.741,9.655c0.529,2.634,0.177,5.461-1.191,8.005c-1.805,5.101-10.853,5.219-8.398,11.611
			c1.035,2.41,1.289,5.176,0.549,7.899c-0.683,5.266-9.231,7.529-5.335,13.11c1.518,2.027,2.408,4.553,2.378,7.284
			c-0.015,2.703-0.93,5.19-2.456,7.181c-4.377,6.608,9.426,9.16,5.289,19.761c-1.663,7.551,11.77,5.562,11.692,16.316
			c1.233,7.608,12.938,0.597,16.982,10.805c3.872,6.91,12.425-4.506,20.165,4.294c4.869,4.644,8.312-3.416,13.517-3.359
			c5.09-1.469,10.529,5.604,14.138-0.118c6.335-11.478,16.863-0.67,19.959-8.466c3.737-12.889,16.484-4.289,17.941-12.636
			c1.279-13.58,15.624-7.688,15.322-16.114c-1.532-13.132,13.519-10.393,11.627-18.567c-4.119-12.256,10.94-12.922,7.278-20.451
			c-6.551-10.32,7.318-14.992,2.097-21.098c-8.857-7.929,2.759-16.294-4.16-20.284c-2.168-1.061-4.035-2.783-5.263-5.071
			c0,0,0,0,0.032-0.01c-2.816-3.885,0.901-11.171-5.386-12.028c-2.364-0.195-4.695-1.091-6.662-2.715
			c-4.056-2.564-3.361-10.69-9.515-9.142c-10.715,3.982-12.962-9.754-19.724-5.492c-3.956,3.167-10.53,3.146-14.448-0.072
			c-5.555-3.995-7.853,4.626-13.146,5.203c-4.907,2.181-11.173-4.37-14.117,1.777c-4.917,12.157-16.841,2.646-19.039,10.702
			C71.42,165.997,70.013,168.478,67.761,170.319z"/>
		<path fill="#B2B2B2" d="M91.108,22.907c2.342,44.922,11.199,155.526,11.199,155.526l12.204-0.028c0,0,8.25-111.544,10.646-156.346
			c0,0,1.114-21.382-17.162-22.045S91.108,22.907,91.108,22.907z"/>
		<path fill="#B2B2B2" d="M181.404,29.093c-11.761,43.418-31.554,132.276-31.554,132.276l11.605,3.774
			c0,0,36.343-84.425,52.568-126.254c0,0,7.716-19.972-9.446-26.292S181.404,29.093,181.404,29.093z"/>
		<path fill="#4B4B4A" d="M137.094,347.067l3.303-12.418c0,0,15.694,6.863,27.312,1.366c8.61-4.074,14.782-13.696,18.345-28.599
			l11.577-48.43l12.822,3.065l-11.577,48.43c-4.556,19.059-13.194,31.682-25.674,37.519
			C163.182,352.685,146.054,350.767,137.094,347.067z"/>
		<path fill="#B2B2B2" d="M102.325,517.749c0.404-0.977-4.242-16.263-23.579-16.387c-14.457-0.093-18.869,15.45-19.17,16.824
			C59.463,518.702,98.621,517.679,102.325,517.749z"/>
		<path fill="#B2B2B2" d="M154.964,517.705c0.404-0.977-4.242-16.263-23.579-16.387c-14.457-0.093-18.869,15.45-19.17,16.824
			C112.102,518.658,151.261,517.635,154.964,517.705z"/>
		<path fill="#7C7E7E" d="M229.69,251.074c-1.22,4.808-3.962,11.863-10.007,16.455c-4.977,3.78-11.304,5.107-18.298,3.837
			c-8.82-1.602-13.254-6.369-15.42-10.086c-6.08-10.436-1.621-24.004-1.093-25.514l11.166,3.9
			c-0.923,2.698-2.703,10.807,0.161,15.684c1.351,2.301,3.738,3.733,7.3,4.38c3.732,0.677,6.676,0.156,9-1.595
			c4.448-3.35,6.088-10.717,6.344-13.272l11.775,1.109C230.569,246.487,230.357,248.445,229.69,251.074z"/>
		<path fill="#4B4B4A" d="M120.748,208.124c-6.222-3.549-14.046,1.789-11.238,9.315c1.69,4.53,6.928,5.167,10.729,3.253
			C124.313,218.514,124.96,211.074,120.748,208.124z"/>
		<path fill="#4B4B4A" d="M51.936,208.18c-6.222-3.549-14.046,1.789-11.238,9.315c1.69,4.53,6.928,5.167,10.729,3.253
			C55.5,218.571,56.148,211.131,51.936,208.18z"/>
		<path fill="#E8E9E9" d="M46.487,241.394c-0.009-0.805,0.026-1.367,0.042-1.569l6.637,0.507c-0.112,1.6,0.093,6.268,2.355,8.507
			c1.067,1.056,2.573,1.49,4.604,1.327c2.136-0.172,3.667-0.887,4.677-2.186c1.94-2.492,1.743-6.795,1.52-8.106l6.562-1.112
			c0.138,0.814,1.228,8.091-2.83,13.306c-2.16,2.776-5.409,4.412-9.397,4.732c-5.024,0.404-7.66-1.129-10.186-3.336
			C47.945,251.258,46.518,244.168,46.487,241.394z"/>
		<path fill="#7C7E7E" d="M117.379,256.078c0.902,1.015-3.862,11.449-8.288,15.838C88,292.485,66.975,289.86,48.716,277.65
			c-4.901-3.278-8.211-8.285-8.995-9.788C39.425,267.298,110.67,257.224,117.379,256.078z"/>
		<path fill="#FFFFFF" d="M55.158,265.275c0,0,3.704,14.404,16.735,12.467c13.7-2.036,12.161-16.745,12.161-16.745L55.158,265.275z"
			/>
		<polygon fill="#7C7E7E" points="66.952,263.524 70.01,279.489 73.36,278.587 72.108,262.67 		"/>
	</g>
</g>
<g id="Layer_1">
</g>
</svg>
