<?xml version="1.0" encoding="utf-8"?>
<!-- Generator: Adobe Illustrator 25.0.0, SVG Export Plug-In . SVG Version: 6.00 Build 0)  -->
<svg version="1.1" xmlns="http://www.w3.org/2000/svg" xmlns:xlink="http://www.w3.org/1999/xlink" x="0px" y="0px"
	 viewBox="0 0 373.883 460.446" enable-background="new 0 0 373.883 460.446" xml:space="preserve">
<g id="robot_x5F_4">
	<g>
		<path fill="#B2B2B2" d="M276.4,258.565l0.453-17.861c0,0,23.441,4.208,37.375-6.982c10.327-8.293,15.563-23.3,15.563-44.604
			V78.059h18.329v111.059c0,27.247-7.6,47.109-22.59,59.036C313.495,257.729,289.713,260.672,276.4,258.565z"/>
		<path fill="#7C7E7E" d="M200.438,189.596l8.996,9.328c0,0-14.603,10.695-14.51,10.815l13.589,11.316l-14.912,12.208l-22.013,1.748
			l-9.125-10.99l9.24-10.035l-11.044-7.551l1.971-12.826L200.438,189.596z"/>
		<polygon fill="#B2B2B2" points="162.464,224.021 208.514,221.055 194.925,209.739 171.704,213.986 		"/>
		<polygon fill="#B2B2B2" points="160.66,206.435 209.434,198.924 200.438,189.596 163.248,189.596 		"/>
		<path fill="#7C7E7E" d="M168.12,423.412l-8.328-9.928c0,0,15.308-9.658,15.224-9.784l-12.773-12.23l15.722-11.146l22.081-0.22
			l8.342,11.596l-9.913,9.371l10.494,8.298l-2.854,12.659L168.12,423.412z"/>
		<polygon fill="#B2B2B2" points="208.388,391.7 162.243,391.469 175.016,403.699 198.475,401.07 		"/>
		<polygon fill="#B2B2B2" points="208.969,409.368 159.792,413.483 168.12,423.412 205.222,425.987 		"/>
		<path fill="#7C7E7E" d="M208.623,119.401l19.47-21.932l22.196-47.596l-6.035-1.283c0,0-6.813,12.272-9.414,13.579
			c-1.068,0.536-5.484,3.248-7.494,6.677C225.688,71.676,208.623,119.401,208.623,119.401z"/>
		<path fill="#FF8000" d="M278.713,29.445c-6.601,7.6-11.741,2.793-17.818,6.569c-3.559,2.212-9.981,16.445-11.867,16.297
			s-4.825-1.303-5.314-2.766c-0.49-1.463,8.946-15.372,9.446-19.45c0.5-4.079-3.678-7.327-0.369-16.513
			c3.829-10.626,13.927-17.552,25.93-11.077C287.369,7.17,286.881,20.04,278.713,29.445z M278.048,17.432
			c0.7-4.146-1.607-10.47-8.37-10.398c-6.821,0.073-11.55,9.814-10.837,14.102c1.029,6.186,6.054,8.991,10.086,8.283
			C273.836,28.556,277.112,22.972,278.048,17.432z"/>
		<path fill="#B2B2B2" d="M163.536,117.699l-25.544-14.408l-36.469-37.79l5.289-3.176c0,0,10.434,9.389,13.318,9.779
			c1.184,0.16,6.242,1.287,9.259,3.877C131.877,78.119,163.536,117.699,163.536,117.699z"/>
		<path fill="#FF8000" d="M67.999,55.43c8.714,5.04,12.011-1.177,18.986,0.417c4.085,0.934,14.787,12.305,16.522,11.551
			s4.138-2.802,4.126-4.344s-13.459-11.626-15.259-15.32c-1.799-3.694,1.095-8.125-5.022-15.735
			c-7.075-8.803-18.877-12.069-28.122-2.041C52.569,37.181,57.217,49.193,67.999,55.43z M64.721,43.853
			c-2.011-3.693-1.885-10.424,4.533-12.555c6.473-2.15,14.114,5.524,14.834,9.811c1.039,6.184-2.801,10.471-6.843,11.113
			C72.323,53.003,67.408,48.788,64.721,43.853z"/>
		<path fill="#7C7E7E" d="M302.752,47.365c-0.023-2.15,0.073-3.651,0.114-4.191l17.725,1.369
			c-0.302,4.273,0.233,16.743,6.271,22.728c2.848,2.823,6.87,3.985,12.293,3.554c5.707-0.454,9.795-2.36,12.498-5.828
			c5.187-6.653,4.67-18.145,4.079-21.646l17.53-2.956c0.366,2.174,3.263,21.613-7.589,35.533
			c-5.775,7.409-14.458,11.772-25.109,12.619c-13.419,1.067-20.456-3.033-27.198-8.932C306.625,73.714,302.83,54.776,302.752,47.365
			z"/>
		<path fill="#B2B2B2" d="M97.483,241.766l-0.453,17.861c0,0-23.441-4.208-37.375,6.982c-10.327,8.293-15.563,23.3-15.563,44.604
			v111.059h-18.33V311.213c0-27.247,7.6-47.109,22.59-59.036C60.387,242.602,84.17,239.659,97.483,241.766z"/>
		<path fill="#7C7E7E" d="M71.131,452.966c0.023,2.15-0.073,3.651-0.114,4.191l-17.725-1.369c0.302-4.273-0.233-16.743-6.271-22.728
			c-2.848-2.823-6.87-3.985-12.293-3.554c-5.707,0.454-9.795,2.36-12.498,5.828c-5.187,6.653-4.67,18.145-4.079,21.646l-17.53,2.956
			c-0.366-2.174-3.263-21.613,7.589-35.533c5.775-7.409,14.458-11.772,25.109-12.619c13.419-1.067,20.456,3.033,27.198,8.932
			C67.257,426.616,71.053,445.555,71.131,452.966z"/>
		<path fill="#7C7E7E" d="M86.819,460.446c-1.869-1.72,15.699-17.385,25.088-21.544c46.167-28.774,114.844-20.261,156.543,4.286
			c10.625,6.255,17.385,14.233,18.763,16.66C287.731,460.759,104.182,460.203,86.819,460.446z"/>
		<polygon fill="#B2B2B2" points="77.295,231.081 89.1,381.664 288.97,382.764 292.8,230.437 		"/>
		<path fill="#E8E9E9" d="M86.409,353.994c37.063,1.499,182.446-0.059,203.176-0.572l1.073-42.675
			c-26.303-3.355-32.992,17.215-40.666,35.771c0,0-3.259-18.028-6.694-24.566c-5.312-10.112-14.076-14.08-25.123-11.33
			c-18.618,4.465-24.881,21.539-28.606,38.521c-8.05-57.638-51.691-47.829-65.414,0.307c-4.122-14.463-9.807-50.895-40.92-35.912
			L86.409,353.994z"/>
		<path fill="#7C7E7E" d="M90.509,195.337l192.683,0.317c0,0,2.641-121.338-100.951-118
			C78.649,80.991,90.509,195.337,90.509,195.337z"/>
		<path fill="#E8E9E9" d="M90.23,178.517l191.879-0.708c-1.197-10.41-3.707-24.219-8.931-38.259l-177.061,2.598
			C92.05,155.631,90.624,168.702,90.23,178.517z"/>
		<polygon fill="#B2B2B2" points="105.187,142.053 103.313,178.529 118.006,178.475 121.302,141.816 		"/>
		<polygon fill="#B2B2B2" points="134.212,178.506 137.568,141.633 152.971,141.137 152.034,178.44 		"/>
		<polygon fill="#B2B2B2" points="167.87,141.133 169.066,178.287 183.269,178.174 185.047,140.58 		"/>
		<polygon fill="#B2B2B2" points="195.849,140.759 198.24,178.24 214.369,178.18 213.155,140.505 		"/>
		<polygon fill="#B2B2B2" points="227.104,140.301 231.012,178.119 246.026,178.063 242.442,140.076 		"/>
		<polygon fill="#B2B2B2" points="253.991,139.869 260.538,177.95 272.046,178.134 268.744,139.653 		"/>
		<path id="XMLID_138_" fill="#FFFFFF" d="M156.319,131.261c-20.191,1.098-24.523-32.692-4.816-36.357
			C179.932,88.393,184.508,130.573,156.319,131.261z"/>
		<path id="XMLID_137_" fill="#FFFFFF" d="M209.704,131.261c-20.191,1.098-24.523-32.692-4.816-36.357
			C233.317,88.393,237.893,130.573,209.704,131.261z"/>
		<path id="XMLID_136_" fill="#00759C" d="M156.576,124.743c-13.053,0.71-15.854-21.136-3.113-23.506
			C171.629,96.781,174.77,124.544,156.576,124.743z"/>
		<path id="XMLID_2_" fill="#00759C" d="M209.961,125.381c-13.053,0.71-15.854-21.136-3.113-23.506
			C225.014,97.419,228.155,125.182,209.961,125.381z"/>
		<polygon fill="#00759C" points="325.828,96.86 352.581,91.811 352.581,117.634 325.828,113.461 		"/>
		<polygon fill="#7C7E7E" points="325.828,121.628 352.581,126.886 352.581,141.137 325.828,145.943 		"/>
		<polygon fill="#7C7E7E" points="21.205,359.072 47.957,354.023 47.957,379.846 21.205,375.673 		"/>
		<polygon fill="#00759C" points="21.205,383.84 47.957,389.098 47.957,403.349 21.205,408.155 		"/>
	</g>
</g>
<g id="Layer_1">
</g>
</svg>
