<?xml version="1.0" encoding="utf-8"?>
<!-- Generator: Adobe Illustrator 25.0.0, SVG Export Plug-In . SVG Version: 6.00 Build 0)  -->
<svg version="1.1" xmlns="http://www.w3.org/2000/svg" xmlns:xlink="http://www.w3.org/1999/xlink" x="0px" y="0px"
	 viewBox="0 0 415.823 446.2" enable-background="new 0 0 415.823 446.2" xml:space="preserve">
<g id="robot_x5F_2">
	<g id="recycle_x5F_new_x5F_metal_x5F_robot_x5F_2_1_">
		<path fill="#7C7E7E" d="M49.961,74.067c4.952,4.849,11.551,13.116,12.855,23.643c1.073,8.666-1.767,17.243-8.211,24.801
			c-8.127,9.532-17,11.541-23.012,11.548C14.716,134.078,1.453,119.165,0,117.466l12.551-10.752
			c2.611,3.01,11.16,10.853,19.062,10.818c3.728-0.017,7.135-1.896,10.416-5.744c3.438-4.033,4.875-7.956,4.392-11.993
			c-0.925-7.726-8.674-14.88-11.58-16.982l9.606-13.447C45.037,69.784,47.253,71.415,49.961,74.067z"/>
		<path fill="#B2B2B2" d="M142.06,167.235l-44.592,47.057c0,0-66.211-66.373-66.471-66.471c0,0-1.153-11.181,14.042-27.023
			c21.92-22.854,31.606-18.979,31.606-18.979L142.06,167.235z"/>
		<path fill="#7C7E7E" d="M123.549,197.121c6.107-5.86,12.092-12.319,16.381-20.124c4.289-7.804,2.13-9.763,2.13-9.763
			s-4.897-2.402-26.817,20.452c-15.195,15.842-19.357,26.008-17.774,26.605C103.036,216.393,117.442,202.981,123.549,197.121z"/>
		<path fill="#E8E9E9" d="M76.76,145.505c13.187-13.187,24.669-18.224,25.153-18.417l1.906,1.906
			c-0.12,0.049-13.668,6.445-27.528,21.215c-13.93,14.856-17.822,24.935-17.865,25.041l-1.914-1.914
			c0.185-0.451,3.341-9.887,17.638-25.134C75.028,147.265,75.899,146.365,76.76,145.505z"/>
		<path fill="#E8E9E9" d="M66.655,135.407c13.19-13.19,24.673-18.227,25.157-18.42l1.906,1.906
			c-0.12,0.049-13.681,6.452-27.529,21.214c-13.884,14.807-17.82,24.936-17.864,25.042l-1.914-1.914
			c0.184-0.452,3.34-9.888,17.637-25.135C64.925,137.165,65.796,136.266,66.655,135.407z"/>
		<path fill="#E8E9E9" d="M56.555,125.305c13.188-13.188,24.671-18.227,25.156-18.42l1.906,1.906
			c-0.12,0.049-13.684,6.448-27.528,21.215c-13.884,14.807-17.82,24.936-17.864,25.042l-1.914-1.914
			c0.184-0.452,3.34-9.888,17.637-25.135C54.825,127.064,55.695,126.166,56.555,125.305z"/>
		<path fill="#4B4B4A" d="M109.641,193.829c0,0,7.438-8.307,11.839-12.422l26.37,22.684l-13.511,14.841L109.641,193.829z"/>
		<path fill="#7C7E7E" d="M365.862,71.422c-4.952,4.849-11.551,13.116-12.855,23.643c-1.073,8.666,1.767,17.243,8.211,24.801
			c8.127,9.532,17,11.541,23.012,11.548c16.877,0.019,30.14-14.894,31.593-16.592l-12.551-10.752
			c-2.611,3.01-11.16,10.853-19.062,10.818c-3.728-0.017-7.135-1.896-10.416-5.744c-3.438-4.033-4.875-7.956-4.392-11.993
			c0.925-7.726,8.674-14.88,11.58-16.982l-9.606-13.447C370.787,67.139,368.57,68.77,365.862,71.422z"/>
		<path fill="#B2B2B2" d="M273.764,164.59l44.592,47.057c0,0,66.211-66.373,66.471-66.471c0,0,1.153-11.181-14.042-27.023
			c-21.92-22.854-31.606-18.979-31.606-18.979L273.764,164.59z"/>
		<path fill="#7C7E7E" d="M292.275,194.476c-6.107-5.86-12.092-12.319-16.381-20.124c-4.289-7.804-2.13-9.763-2.13-9.763
			s4.897-2.402,26.817,20.452c15.195,15.842,19.357,26.008,17.774,26.605C312.788,213.748,298.381,200.336,292.275,194.476z"/>
		<path fill="#E8E9E9" d="M339.064,142.86c-13.187-13.187-24.669-18.224-25.153-18.417l-1.906,1.906
			c0.12,0.049,13.668,6.445,27.528,21.215c13.93,14.856,17.822,24.935,17.865,25.041l1.914-1.914
			c-0.185-0.451-3.341-9.887-17.638-25.134C340.795,144.62,339.924,143.72,339.064,142.86z"/>
		<path fill="#E8E9E9" d="M349.168,132.762c-13.19-13.19-24.673-18.227-25.157-18.42l-1.906,1.906
			c0.12,0.049,13.681,6.452,27.529,21.214c13.884,14.807,17.82,24.936,17.864,25.042l1.914-1.914
			c-0.184-0.452-3.34-9.888-17.637-25.135C350.899,134.52,350.028,133.621,349.168,132.762z"/>
		<path fill="#E8E9E9" d="M359.268,122.66c-13.188-13.188-24.671-18.227-25.156-18.42l-1.906,1.906
			c0.12,0.049,13.684,6.448,27.528,21.215c13.884,14.807,17.82,24.936,17.864,25.042l1.914-1.914
			c-0.184-0.452-3.34-9.888-17.637-25.135C360.998,124.419,360.129,123.52,359.268,122.66z"/>
		<path fill="#4B4B4A" d="M306.183,191.184c0,0-7.438-8.307-11.839-12.422l-26.37,22.684l13.511,14.841L306.183,191.184z"/>
		<path fill="#7C7E7E" d="M202.358,438.98c0.127-6.93-0.971-17.45-7.428-25.866c-5.316-6.928-13.356-11.047-23.252-11.911
			c-12.479-1.09-20.211,3.703-24.5,7.916c-12.04,11.827-11.027,31.759-10.871,33.989l16.487-1.144
			c-0.251-3.977,0.338-15.563,5.993-21.082c2.668-2.603,6.414-3.655,11.453-3.215c5.28,0.461,9.056,2.248,11.544,5.465
			c4.762,6.154,4.259,16.688,3.663,20.226l16.28,2.842C201.854,445.486,202.289,442.769,202.358,438.98z"/>
		<path fill="#B2B2B2" d="M202.619,307.974l-64.79-2.246c0,0-0.613,93.749-0.729,94.001c0,0,7.023,8.776,28.965,9.404
			c31.654,0.906,35.837-8.651,35.837-8.651L202.619,307.974z"/>
		<path fill="#7C7E7E" d="M168.46,299.665c8.463-0.109,17.26,0.295,25.791,2.847c8.532,2.552,8.368,5.462,8.368,5.462
			s-1.805,5.147-33.459,4.241c-21.942-0.628-32.04-4.952-31.332-6.488C140.322,300.325,159.997,299.774,168.46,299.665z"/>
		<path fill="#E8E9E9" d="M171.334,369.273c18.648,0.145,30.364-4.321,30.845-4.524l0.021-2.695c-0.12,0.05-14.261,4.997-34.5,4.197
			c-20.349-0.812-30.194-5.264-30.299-5.31l-0.021,2.707c0.448,0.192,9.317,4.701,30.202,5.534
			C168.865,369.234,170.117,369.264,171.334,369.273z"/>
		<path fill="#E8E9E9" d="M171.218,383.558c18.653,0.145,30.369-4.322,30.849-4.525l0.021-2.695c-0.12,0.05-14.275,5.001-34.5,4.198
			c-20.281-0.81-30.193-5.266-30.299-5.311l-0.021,2.706c0.448,0.193,9.317,4.703,30.202,5.536
			C168.751,383.519,170.003,383.549,171.218,383.558z"/>
		<path fill="#E8E9E9" d="M171.108,397.842c18.65,0.145,30.368-4.321,30.848-4.524l0.021-2.695c-0.12,0.05-14.275,5.006-34.5,4.197
			c-20.281-0.81-30.193-5.266-30.299-5.311l-0.021,2.706c0.448,0.193,9.317,4.703,30.202,5.536
			C168.642,397.803,169.892,397.833,171.108,397.842z"/>
		<path fill="#4B4B4A" d="M160.859,311.77c0,0,11.128,0.701,17.151,0.545l2.875-34.665l-20.04-1.096L160.859,311.77z"/>
		<path fill="#7C7E7E" d="M214.471,438.545c-0.127-6.93,0.971-17.45,7.428-25.866c5.316-6.928,13.356-11.047,23.252-11.911
			c12.479-1.09,20.211,3.703,24.5,7.916c12.04,11.827,11.027,31.759,10.871,33.989l-16.487-1.144
			c0.251-3.977-0.338-15.563-5.993-21.082c-2.668-2.603-6.414-3.655-11.453-3.215c-5.28,0.461-9.056,2.248-11.544,5.465
			c-4.762,6.154-4.259,16.688-3.663,20.226l-16.28,2.842C214.976,445.051,214.541,442.334,214.471,438.545z"/>
		<path fill="#B2B2B2" d="M214.211,307.54l64.79-2.246c0,0,0.613,93.749,0.729,94.001c0,0-7.023,8.776-28.965,9.404
			c-31.654,0.906-35.837-8.651-35.837-8.651L214.211,307.54z"/>
		<path fill="#7C7E7E" d="M248.37,299.231c-8.463-0.109-17.26,0.295-25.791,2.847c-8.532,2.552-8.368,5.462-8.368,5.462
			s1.805,5.147,33.459,4.241c21.942-0.628,32.04-4.952,31.332-6.488C276.508,299.89,256.833,299.339,248.37,299.231z"/>
		<path fill="#E8E9E9" d="M245.496,368.838c-18.648,0.145-30.364-4.321-30.845-4.524l-0.021-2.695
			c0.12,0.05,14.261,4.997,34.5,4.197c20.349-0.812,30.194-5.264,30.299-5.31l0.021,2.707c-0.448,0.192-9.317,4.701-30.202,5.534
			C247.965,368.799,246.713,368.829,245.496,368.838z"/>
		<path fill="#E8E9E9" d="M245.612,383.123c-18.653,0.145-30.369-4.322-30.849-4.525l-0.021-2.695
			c0.12,0.05,14.275,5.001,34.5,4.198c20.281-0.81,30.193-5.266,30.299-5.311l0.021,2.706c-0.448,0.193-9.317,4.703-30.202,5.536
			C248.078,383.084,246.827,383.114,245.612,383.123z"/>
		<path fill="#E8E9E9" d="M245.721,397.408c-18.65,0.145-30.368-4.321-30.848-4.524l-0.021-2.695c0.12,0.05,14.275,5.006,34.5,4.197
			c20.281-0.81,30.193-5.266,30.299-5.311l0.021,2.706c-0.448,0.193-9.317,4.703-30.202,5.536
			C248.188,397.368,246.938,397.398,245.721,397.408z"/>
		<path fill="#4B4B4A" d="M255.97,311.335c0,0-11.128,0.701-17.151,0.545l-2.875-34.665l20.04-1.096L255.97,311.335z"/>
		<path fill="#7C7E7E" d="M97.968,289.429l218.359-0.015c0,0-3.038-126.794-112.341-126.681
			C106.314,162.835,97.968,289.429,97.968,289.429z"/>
		<path fill="#FFFFFF" d="M214.287,188.787c-3.55-4.157-8.679-3.227-10.865-1.266c-2.922,2.621-4.626,6.688-2.549,10.004
			c1.706,2.724,6.228,4.937,10.472,3.096C214.71,199.161,217.867,192.979,214.287,188.787z"/>
		<path fill="#FFFFFF" d="M214.287,223.107c-3.55-4.157-8.679-3.227-10.865-1.266c-2.922,2.621-4.626,6.688-2.549,10.004
			c1.706,2.724,6.228,4.937,10.472,3.096C214.71,233.481,217.867,227.299,214.287,223.107z"/>
		<path fill="#FFFFFF" d="M214.287,257.427c-3.55-4.157-8.679-3.227-10.865-1.266c-2.922,2.621-4.626,6.688-2.549,10.004
			c1.706,2.724,6.228,4.937,10.472,3.096C214.71,267.801,217.867,261.62,214.287,257.427z"/>
		<path fill="#B2B2B2" d="M177.723,37.807c-0.65-1.604-0.662-3.307-0.158-4.832c0.491-1.485-0.328-3.005-1.823-3.464
			c-1.528-0.469-2.907-1.455-3.845-2.892c-0.936-1.436-1.282-3.086-1.098-4.665c0.182-1.565-0.897-2.906-2.465-3.066
			c-1.575-0.162-3.106-0.852-4.299-2.067c-1.185-1.196-1.854-2.708-2.006-4.261c-0.155-1.576-1.492-2.659-3.067-2.492
			c-1.537,0.162-3.139-0.177-4.543-1.068c-1.381-0.884-2.348-2.161-2.854-3.588c-0.533-1.505-2.093-2.238-3.597-1.701
			c-1.406,0.501-2.984,0.562-4.516,0.069c-1.519-0.48-2.76-1.429-3.615-2.635c-0.896-1.263-2.557-1.514-3.799-0.588
			c-1.159,0.864-2.595,1.379-4.157,1.389c-1.522,0.01-2.934-0.459-4.093-1.268c-1.197-0.835-2.929-0.488-3.73,0.733
			c-0.763,1.163-1.878,2.112-3.265,2.671c-1.399,0.564-2.869,0.65-4.231,0.334c-1.404-0.326-2.874,0.626-3.148,2.04
			c-0.267,1.376-0.948,2.686-2.036,3.734c-1.099,1.058-2.454,1.693-3.86,1.902c-1.514,0.225-2.49,1.574-2.216,3.08
			c0.259,1.424,0.085,2.939-0.596,4.332c-0.696,1.431-1.81,2.52-3.123,3.193c-1.401,0.718-1.921,2.339-1.186,3.731
			c0.699,1.323,0.984,2.879,0.719,4.466c-0.276,1.627-1.087,3.031-2.222,4.058c-1.162,1.052-1.245,2.775-0.177,3.923
			c1.058,1.137,1.751,2.628,1.875,4.298c0.114,1.689-0.374,3.282-1.283,4.566c-0.902,1.274-0.599,2.976,0.695,3.85
			c1.319,0.891,2.347,2.225,2.826,3.861c0.481,1.664,0.327,3.355-0.319,4.819c-0.632,1.431,0.034,3.024,1.479,3.625
			c1.473,0.614,2.745,1.726,3.538,3.248c0.02,0.039,0.04,0.081,0.06,0.12v0.022c0.805,1.526,0.987,3.215,0.64,4.78
			c-0.338,1.529,0.628,2.956,2.163,3.267c1.554,0.315,3.012,1.156,4.091,2.495c1.066,1.324,1.574,2.914,1.557,4.489
			c-0.017,1.581,1.197,2.803,2.777,2.801c1.567-0.002,3.144,0.517,4.455,1.581c1.291,1.044,2.113,2.454,2.442,3.96
			c0.34,1.553,1.797,2.473,3.348,2.123c1.488-0.336,3.094-0.194,4.571,0.508c1.442,0.686,2.546,1.8,3.231,3.118
			c0.72,1.384,2.339,1.977,3.711,1.234c0.999-0.541,2.134-0.843,3.319-0.843c0.383,0,0.745,0.041,1.129,0.1
			c1.54,0.245,2.889,0.97,3.911,1.999c1.077,1.084,2.739,1.052,3.787-0.06c0.975-1.035,2.271-1.786,3.773-2.078c0,0,0,0,0,0.02
			c1.481-0.292,2.948-0.096,4.23,0.476c1.318,0.588,2.942-0.072,3.481-1.411c0.522-1.297,1.433-2.453,2.69-3.278
			c1.256-0.818,2.675-1.182,4.066-1.136c1.458,0.048,2.739-1.168,2.741-2.626c0.003-1.414,0.431-2.84,1.318-4.08
			c0.897-1.27,2.142-2.152,3.515-2.608c1.473-0.489,2.219-1.998,1.698-3.46c-0.494-1.386-0.561-2.939-0.092-4.455
			c0.473-1.542,1.431-2.802,2.653-3.667c1.29-0.912,1.609-2.602,0.685-3.883c-0.894-1.24-1.394-2.778-1.322-4.426
			c0.062-1.671,0.71-3.184,1.739-4.352c1.033-1.173,0.914-2.896-0.278-3.907c-1.2-1.017-2.068-2.438-2.369-4.099
			c-0.313-1.69,0.001-3.348,0.778-4.733c0.766-1.364,0.261-3.01-1.116-3.754C179.518,40.62,178.366,39.396,177.723,37.807z"/>
		<path fill="#B2B2B2" d="M136.222,95.886l141.781-3.815c0,0-0.101,55.044,0.149,55.598c0,0-15.663,17.83-63.676,18.831
			c-69.266,1.445-78.255-18.283-78.255-18.283V95.886H136.222z"/>
		<path fill="#7C7E7E" d="M211.093,78.288c-18.512-0.382-37.765,0.352-56.473,5.79s-18.399,11.808-18.399,11.808
			s3.861,11.292,73.126,9.847c48.013-1.002,70.18-10.29,68.655-13.661C272.64,80.208,229.606,78.67,211.093,78.288z"/>
		<path fill="#B2B2B2" d="M303.404,27.777c1.889,1.257-11.526,21.248-10,22.014c1.765,1.105,13.183-19.618,15.286-18.81
			c2.104,0.808-4.746,13.138-9.222,22.152c-3.251,6.547-6.157,11.431-12.471,12.736c-2.705,0.559-4.185,3.09-5.602,5.413
			c-5.479,8.985-27.208,57.169-34.404,66.652c0,0-4.212,5.762-9.619,2.681s-2.765-9.529-2.765-9.529
			c6.319-12.394,34.809-51.565,41.677-62.902c0.509-0.841,2.198-4.157,1.062-8.164c-1.664-5.871,2.278-12.341,5.708-16.834
			c4.822-6.316,13.519-19.651,15.197-18.531s-11.714,21.011-9.755,22.162C289.757,47.862,301.516,26.52,303.404,27.777z"/>
		<path fill="#7C7E7E" d="M136.358,118.406c0,0,41.096,7.909,75.715,7.73s66.079-12.598,66.079-12.598s-0.247,16.588,0,16.818
			c0,0-15.842,15.063-63.858,15.743c-69.27,0.981-78.152-10.994-78.152-10.994L136.358,118.406z"/>
		<path fill="#FFFFFF" d="M188.879,115.985c-17.56-10.034-39.664,5.017-31.753,26.274c4.762,12.794,19.549,14.607,30.286,9.212
			C198.918,145.332,200.765,124.326,188.879,115.985z"/>
		<path fill="#80D6E0" d="M182.548,124.775c-8.78-5.017-19.832,2.508-15.877,13.137c2.381,6.397,9.775,7.303,15.143,4.606
			C187.567,139.448,188.491,128.945,182.548,124.775z"/>
		<path fill="#FFFFFF" d="M251.064,115.985c-17.56-10.034-39.664,5.017-31.753,26.274c4.761,12.794,19.549,14.607,30.286,9.212
			C261.103,145.332,262.95,124.326,251.064,115.985z"/>
		<path fill="#80D6E0" d="M244.732,124.775c-8.78-5.017-19.832,2.508-15.877,13.137c2.381,6.397,9.775,7.303,15.143,4.606
			C249.752,139.448,250.675,128.945,244.732,124.775z"/>
		<path fill="#4B4B4A" d="M194.219,145.757h25.856c0,0-4.299,10.823-12.928,10.823S194.219,145.757,194.219,145.757z"/>
		<path fill="#E8E9E9" d="M267.873,98.194c0,0-5.597,2.07-14.306,3.482l16.14-23.473l6.242,3.381L267.873,98.194z"/>
		<path fill="#B2B2B2" d="M243.373,244.887c3.764-21.179,32.03-26.057,44.222-11.085c8.721,10.709,4.801,30.783-15.487,36.096
			C252.813,274.95,240.301,262.173,243.373,244.887z"/>
		<polygon fill="#7C7E7E" points="247.689,249.533 251.471,257.496 286.909,243.859 281.821,235.848 		"/>
	</g>
</g>
<g id="Layer_1">
</g>
</svg>
