<?xml version="1.0" encoding="utf-8"?>
<!-- Generator: Adobe Illustrator 25.0.0, SVG Export Plug-In . SVG Version: 6.00 Build 0)  -->
<svg version="1.1" xmlns="http://www.w3.org/2000/svg" xmlns:xlink="http://www.w3.org/1999/xlink" x="0px" y="0px"
	 viewBox="0 0 760.161 124.932" enable-background="new 0 0 760.161 124.932" xml:space="preserve">
<g id="rope_x5F_striped_x5F_hanging_x5F_white">
	<g>
		<g>
			<path fill="#FFFFFF" d="M289.52,166.213c-84.765-9.376-149.507-30.162-192.758-48.392C33.139,91.007,1.324,64.223,0.001,63.096
				l12.958-15.234c0.307,0.26,31.402,26.303,92.525,51.931c56.418,23.655,150.705,51.787,279.485,51.473
				c129.252-0.315,221.014-29.09,275.234-53.173c58.183-25.844,86.046-51.489,86.32-51.746l13.638,14.629
				c-1.221,1.139-30.622,28.202-91.839,55.394c-35.681,15.849-74.933,28.496-116.663,37.591
				c-52.026,11.339-108.093,17.16-166.64,17.303C350.821,171.349,318.954,169.469,289.52,166.213z"/>
		</g>
		<g>
			<g>
				<path fill="#E7E9E9" d="M11.074,71.481C3.874,66.384,0.155,63.228,0,63.096l12.959-15.233c0.032,0.027,3.293,2.779,9.671,7.295
					L11.074,71.481z"/>
			</g>
			<g>
				<path fill="#E7E9E9" d="M288.832,166.197l-1.402-0.156l2.236-19.875l1.366,0.152c8.08,0.894,16.335,1.677,24.533,2.328
					l-1.582,19.937C305.577,167.916,297.116,167.114,288.832,166.197z M260.963,162.613c-8.821-1.296-17.686-2.757-26.349-4.343
					l3.603-19.673c8.432,1.544,17.063,2.967,25.653,4.228L260.963,162.613z M340.589,170.271l0.954-19.977
					c8.579,0.409,17.337,0.693,26.029,0.843l-0.345,19.997C358.333,170.981,349.371,170.69,340.589,170.271z M208.425,152.981
					c-8.721-1.929-17.465-4.038-25.989-6.267l5.06-19.349c8.28,2.166,16.775,4.214,25.248,6.089L208.425,152.981z M393.873,171.201
					l-0.244-19.999c8.707-0.106,17.467-0.344,26.037-0.709l0.849,19.982C411.744,170.848,402.78,171.092,393.873,171.201z
					 M156.696,139.435c-8.57-2.61-17.129-5.411-25.442-8.327l6.619-18.873c8.052,2.824,16.345,5.538,24.649,8.068L156.696,139.435z
					 M447.134,168.926l-1.48-19.945c8.677-0.644,17.394-1.435,25.911-2.352l2.139,19.885
					C464.969,167.454,456.03,168.266,447.134,168.926z M106.169,121.69c-8.364-3.355-16.661-6.908-24.657-10.562l8.31-18.192
					c7.713,3.524,15.718,6.952,23.792,10.191L106.169,121.69z M500.195,163.203l-2.827-19.799c8.603-1.229,17.235-2.62,25.656-4.136
					l3.543,19.683C517.911,160.509,509.038,161.94,500.195,163.203z M57.362,99.348c-8.154-4.246-16.072-8.661-23.533-13.122
					l10.266-17.165c7.125,4.261,14.697,8.483,22.504,12.548L57.362,99.348z M552.781,153.717l-4.292-19.534
					c8.486-1.864,16.975-3.907,25.231-6.07l5.07,19.347C570.276,149.69,561.526,151.796,552.781,153.717z M604.539,140.131
					l-5.881-19.116c8.3-2.554,16.571-5.301,24.584-8.164l6.73,18.833C621.679,134.648,613.123,137.49,604.539,140.131z
					 M655.017,122.064l-7.621-18.492c8.043-3.314,15.994-6.829,23.635-10.446l8.559,18.076
					C671.641,114.966,663.374,118.62,655.017,122.064z M703.591,99.01l-9.569-17.562c7.72-4.207,15.18-8.582,22.172-13.006
					l10.693,16.902C719.53,89.998,711.692,94.596,703.591,99.01z"/>
			</g>
			<g>
				<path fill="#E7E9E9" d="M749.335,69.843l-12.109-15.917c6.17-4.694,9.279-7.561,9.31-7.59l13.624,14.641
					C760.01,61.117,756.399,64.469,749.335,69.843z"/>
			</g>
		</g>
	</g>
</g>
<g id="Layer_1">
</g>
</svg>
