<?xml version="1.0" encoding="utf-8"?>
<!-- Generator: Adobe Illustrator 24.2.3, SVG Export Plug-In . SVG Version: 6.00 Build 0)  -->
<svg version="1.1" xmlns="http://www.w3.org/2000/svg" xmlns:xlink="http://www.w3.org/1999/xlink" x="0px" y="0px"
	 viewBox="0 0 657.296 171.553" enable-background="new 0 0 657.296 171.553" xml:space="preserve">
<g id="rowing_x5F_boat">
	<g>
		<g id="vene_1_">
			<path fill="#BF7900" d="M657.296,0.039c0,0-20.304,102.122-158.077,151.052c-44.513,15.809-227.236,35.753-331.604,2.147
				C30.515,109.094,5.038,18.201,0,0.612C-0.239-0.222,657.296,0.039,657.296,0.039z"/>
			<path opacity="0.5" fill="#C1A174" d="M623.145,66.314c9.178-11.674,15.997-22.791,21.029-32.479
				c-55.129,3.124-585.726,0.978-632.058-1.712c5.45,10.986,13.154,23.78,24.051,37.136
				C86.599,71.905,558.045,70.103,623.145,66.314z"/>
			<path opacity="0.5" fill="#C1A174" d="M46.781,81.304c12.202,12.86,27.531,25.885,46.785,38.025
				c59.477,0.334,397.115-2.218,477.389-4.387c17.141-11.863,30.99-24.428,42.135-36.731
				C562.136,80.517,92.153,83.496,46.781,81.304z"/>
			<path opacity="0.5" fill="#C1A174" d="M110.597,129.256c16.457,8.846,35.334,17,57.017,23.982
				c104.369,33.605,287.092,13.662,331.604-2.147c21.385-7.594,39.935-16.472,56.022-26.049L110.597,129.256z"/>
		</g>
		<g id="Layer_1_224_">
		</g>
	</g>
	<g id="Layer_1_6_">
	</g>
	<path opacity="0.25" fill="#54BDCF" d="M568.493,116.629c-17.29-4.804-39.969-13.489-44.395-24.189c-0.224-0.54-1.203-0.54-1.427,0
		c-7.055,17.057-27.637,29.404-51.94,29.404c-24.304,0-44.886-12.347-51.94-29.404c-0.224-0.54-1.203-0.54-1.427,0
		c-7.055,17.057-27.637,29.404-51.94,29.404c-24.304,0-44.886-12.347-51.94-29.404c-0.224-0.54-1.203-0.54-1.427,0
		c-7.055,17.057-27.637,29.404-51.94,29.404c-24.304,0-44.886-12.347-51.94-29.404c-0.224-0.54-1.203-0.54-1.427,0
		c-7.055,17.057-27.637,29.404-51.94,29.404c-24.304,0-44.887-12.347-51.94-29.404c-0.224-0.54-1.203-0.54-1.427,0
		c-3.331,8.054-9.687,15.044-18.021,20.185c21.89,15.237,49.454,29.427,84.195,40.613c104.369,33.606,287.091,13.662,331.604-2.147
		C526.745,141.314,549.57,129.412,568.493,116.629z"/>
</g>
<g id="Layer_1">
</g>
</svg>
