<?xml version="1.0" encoding="utf-8"?>
<!-- Generator: Adobe Illustrator 27.0.0, SVG Export Plug-In . SVG Version: 6.00 Build 0)  -->
<svg version="1.1" xmlns="http://www.w3.org/2000/svg" xmlns:xlink="http://www.w3.org/1999/xlink" x="0px" y="0px"
	 viewBox="0 0 265.628 227.74" enable-background="new 0 0 265.628 227.74" xml:space="preserve">
<g id="sack_x5F_bag_x5F_open_x5F_front_x5F_white">
	<path fill="#FFFFFF" d="M245.595,44.647L127.744,67.874L22.808,44.989c-19.629,44.89-37.92,127.68-3.558,163.979
		c17.262,18.235,69.887,13.11,109.206,15.963c42.13,3.057,96.263,7.894,118.09-12.307
		C277.914,183.592,265.541,105.01,245.595,44.647z"/>
	<path fill="#CAD2D3" d="M235.215,7.065c0.28,0.922,0.53,1.8,0.737,2.618c-2.244,2.522-4.762,4.944-7.52,7.258
		c-20.093,16.866-53.211,27.883-90.675,27.883c-36.484,0-68.849-10.448-89.076-26.571C41.794,12.763,36.308,6.618,32.554,0
		c0,0-15.087,30.164-9.827,44.789c0.024,0.067,0.056,0.133,0.081,0.2c5.417,14.516,30.403,24.581,53.919,31.3
		c67.249,19.214,104.394,22.133,157.28-16.875c6.213-4.582,9.803-9.632,11.589-14.767C250.773,29.758,240.747,14.144,235.215,7.065z
		"/>
</g>
<g id="Layer_1">
</g>
</svg>
