<?xml version="1.0" encoding="utf-8"?>
<!-- Generator: Adobe Illustrator 27.0.0, SVG Export Plug-In . SVG Version: 6.00 Build 0)  -->
<svg version="1.1" xmlns="http://www.w3.org/2000/svg" xmlns:xlink="http://www.w3.org/1999/xlink" x="0px" y="0px"
	 viewBox="0 0 246.577 316.136" enable-background="new 0 0 246.577 316.136" xml:space="preserve">
<g id="sack_x5F_bag_x5F_white">
	<path fill="#FFFFFF" d="M217.062,147.695c-17.983-48.921-69.836-67.713-69.836-67.713l-0.699-11.214
		c0,0,22.865-8.412,39.651-31.176c1.597-2.167-49.521-40.435-83.222-37.423c-11.38,1.018-46.29,20.429-52.125,26.42
		c-4.399,4.517,10.809,22.83,19.563,28.895c9.157,6.343,33.149,13.222,33.149,13.222l-1.479,10.479c0,0-34.459-0.151-64.865,57.287
		s-56.406,128.838-17.854,167.18c15.996,15.908,58.594,9.63,95.175,9.211c72.273-0.828,95.561,11.272,115.863-6.425
		C263.168,277.86,239.668,206.285,217.062,147.695z"/>
	<path fill="#B2B2B2" d="M139.944,8.087c0,0,23.295,2.853,30.47,8.07c14.55,10.578,17.562,12.641,16.906,20.471
		c-0.343,4.086-5.323,6.196-5.323,6.196c-9.541-6.508-11.828-4.568-19.341-7.868c-5.754-2.527-10.975-14.434-14.707-19.49
		C146.332,13.276,139.944,8.087,139.944,8.087z"/>
	<path fill="#CAD2D3" d="M117.953,84.642c0,0-51.372,22.56-35.22,38.933c9.689,9.822,18.23-10.425,20.477-16.413
		C105.903,99.987,117.953,84.642,117.953,84.642z"/>
	<path fill="#CAD2D3" d="M123.438,84.412c0,0-3.239,34.912,4.308,44.424c2.801,3.53,29.981,10.925,14.398-14.274
		C123.935,85.118,123.438,84.412,123.438,84.412z"/>
	<path fill="#CAD2D3" d="M138.704,86.328c0,0,19.215,5.805,27.89,15.613c6.304,7.128,15.92,23.709,8.425,24.798
		C164.987,128.199,138.704,86.328,138.704,86.328z"/>
	<path fill="#CAD2D3" d="M118.16,67.81c0,0-3.9-5.194-8.092-20.876c-1.662-6.216-10.764-20.225-14.171-16.188
		C85.245,43.375,118.16,67.81,118.16,67.81z"/>
	<path fill="#CAD2D3" d="M121.104,68.057c0,0,23.218-34.275,21.726-43.792c-0.865-5.514-33.624-13.704-31.957-11.442
		c0.834,1.132,10.071,19.173,10.783,28.092C122.197,47.688,121.104,68.057,121.104,68.057z"/>
	<polygon fill="#B2B2B2" points="103.543,68.706 146.525,68.769 147.224,79.982 102.063,79.185 	"/>
</g>
<g id="Layer_1">
</g>
</svg>
