<?xml version="1.0" encoding="utf-8"?>
<!-- Generator: Adobe Illustrator 27.0.0, SVG Export Plug-In . SVG Version: 6.00 Build 0)  -->
<svg version="1.1" xmlns="http://www.w3.org/2000/svg" xmlns:xlink="http://www.w3.org/1999/xlink" x="0px" y="0px"
	 viewBox="0 0 265.629 249.513" enable-background="new 0 0 265.629 249.513" xml:space="preserve">
<g id="sack_x5F_bag_x5F_open_x5F_white">
	<g id="sack_x5F_bag_x5F_open_x5F_white_00000038376242613695258980000010507049606080099975_">
		<path fill="#FFFFFF" d="M37.587,40.796C16.376,65.071-24.114,184.933,19.25,230.741c17.262,18.235,69.887,13.11,109.206,15.963
			c42.13,3.057,96.263,7.894,118.09-12.307c36.378-33.669,13.929-133.984-10.939-195.233
			C234.935,37.508,39.267,38.873,37.587,40.796z"/>
		<path fill="#CAD2D3" d="M32.554,21.773c0,0-15.087,30.164-9.827,44.789s30.375,24.75,54,31.5
			c67.249,19.214,104.394,22.133,157.28-16.875c30.505-22.5-2.104-56.25-2.104-56.25l-90.464,30.375L32.554,21.773z"/>
		<path fill="#9E9E9E" d="M137.757,66.597c42.606,0,79.597-14.245,98.195-35.141c-0.247-0.976-0.542-2.017-0.894-3.144
			c-10.519-33.75-28.779-5.743-71.708-14.625c-32.625-6.75-34.875-7.875-62.936-12.375c-38.392-6.157-61.441,10.826-67.86,20.461
			C47.333,47.829,88.85,66.597,137.757,66.597z"/>
	</g>
</g>
<g id="Layer_1">
</g>
</svg>
