<?xml version="1.0" encoding="utf-8"?>
<!-- Generator: Adobe Illustrator 24.2.3, SVG Export Plug-In . SVG Version: 6.00 Build 0)  -->
<svg version="1.1" xmlns="http://www.w3.org/2000/svg" xmlns:xlink="http://www.w3.org/1999/xlink" x="0px" y="0px"
	 viewBox="0 0 308.692 416.091" enable-background="new 0 0 308.692 416.091" xml:space="preserve">
<g id="sand_x5F_tower">
	<g id="sand_x5F_tower_1_">
		<path fill="#D3B386" d="M57.421,148.67c-4.306,2.935-17.357,260.47-14.872,263.191c6.407,7.014,231.826,4.267,238.066-0.729
			c6.24-4.996-16.289-269.803-20.721-270.862C255.462,139.209,61.727,145.734,57.421,148.67z"/>
		<path fill="#C1A174" d="M97.927,342.13c3.221,0.698,104.601-5.306,114.886-8.831c1.691-0.58-12.226-119.35-66.419-115.064
			C78.983,223.565,94.706,341.432,97.927,342.13z"/>
		<path fill="#AA8F67" d="M118.32,291.501c3.841-49.951,24.058-66.714,42.531-71.324c-4.467-1.629-9.276-2.351-14.457-1.942
			c-67.411,5.33-51.688,123.197-48.467,123.895c0.961,0.208,10.663-0.18,24.073-0.921
			C119.898,330.757,116.81,311.127,118.32,291.501z"/>
		<path fill="#C1A174" d="M56.066,131.118c4.794-0.152,208.058,3.819,208.058,3.819l0.606,19.175c0,0-51.058,4.013-118.843,10.155
			c-57.944,5.25-91.106,2.081-91.106,2.081L56.066,131.118z"/>
		<polygon fill="#C1A174" points="253.446,413.79 251.618,144.13 265.201,143.7 285.871,414.864 		"/>
		<path fill="#D3B386" d="M11.727,146.68c12.547,7.517,274.338,0.558,281.623-5.387c7.286-5.945,17.039-128.467,15.088-134.56
			c-1.951-6.092-48.106-8.338-65.151-2.776c-10.443,3.407-3.518,43.093-10.4,46.488c-3.93,1.939-33.304,2.885-42.175,0.894
			c-3.121-0.701-1.347-42.6-7.223-47.69s-52.031-4.949-59.756,1.01c-7.725,5.96-3.798,46.719-6.831,48.134
			c-5.546,2.588-27.049,6.57-43.451,2.253c-4.031-1.061-3.557-42.97-6.797-48.143c-3.241-5.173-58.11-2.559-64.517,3.359
			c-2.261,2.088-2.501,20.215-1.769,41.379C1.712,90.449,6.761,142.57,11.727,146.68z"/>
	</g>
	<g id="Layer_1_7_">
	</g>
</g>
<g id="Layer_1">
</g>
</svg>
