<?xml version="1.0" encoding="utf-8"?>
<!-- Generator: Adobe Illustrator 24.2.3, SVG Export Plug-In . SVG Version: 6.00 Build 0)  -->
<svg version="1.1" xmlns="http://www.w3.org/2000/svg" xmlns:xlink="http://www.w3.org/1999/xlink" x="0px" y="0px"
	 viewBox="0 0 458.891 381.488" enable-background="new 0 0 458.891 381.488" xml:space="preserve">
<g id="sand_x5F_castle">
	<path fill="#EB4238" d="M287.95,18.916c0.112-2.867-29.802-19.546-31.696-18.766c-1.698,0.7-1.473,36.368-0.315,36.427
		C259.065,36.739,287.82,22.252,287.95,18.916z"/>
	<path fill="#F9D214" d="M253.1,0.466c0,0,4.731-0.788,4.258-0.315s2.523,56.77,2.523,56.77l-5.834,0.158L253.1,0.466z"/>
	<path fill="#C1A174" d="M119.217,163.365c2.208-2.838,19.554-3.154,20.973-1.104c1.648,2.38,0.746,14.153,2.208,14.823
		c3.785,1.735,13.404,0.631,14.035-0.158c0.631-0.788,0.473-14.665,1.42-16.243c8.042-3.469,18.293-0.631,19.239,0.315
		s1.689,15.359,2.208,16.085c0.788,1.104,12.773,0.631,13.72,0c0.946-0.631,0.016-15.421,2.05-16.4
		c4.258-2.05,19.712-1.577,21.762,0.631c2.05,2.208,3.821,103.902,0.315,106.444c-2.978,2.159-79.697,6.673-86.102-1.104
		C128.837,263.974,117.505,165.567,119.217,163.365z"/>
	<polygon fill="#AA8F67" points="209.261,159.737 206.107,266.34 226.292,264.447 218.092,159.107 	"/>
	<path fill="#C1A174" d="M213.361,134.033c-3.469,2.365,0.315,116.063,2.681,123.948c1.169,3.895,90.043-0.202,92.567-2.365
		c2.523-2.163-5.993-120.923-7.727-121.463C299.147,133.612,215.133,132.825,213.361,134.033z"/>
	<path fill="#AA8F67" d="M234.965,207.835c1.262,0.315,41.316-0.788,45.416-2.05c0.674-0.208-3.333-47.219-24.758-46.205
		C228.972,160.842,233.703,207.519,234.965,207.835z"/>
	<path fill="#D3B386" d="M274.012,161.605c0.036,0.015,0.061,0.025,0.061,0.025S274.05,161.62,274.012,161.605z"/>
	<path fill="#D3B386" d="M243.639,188.122c2.137-19.65,10.319-26.009,17.661-27.597c-1.741-0.698-3.629-1.043-5.677-0.946
		c-26.65,1.262-21.919,47.939-20.658,48.255c0.377,0.094,4.207,0.062,9.505-0.063C243.771,203.624,242.799,195.844,243.639,188.122z
		"/>
	<path fill="#AA8F67" d="M212.888,129.302c1.892,0,87.757,0.709,87.757,0.709l1.656,14.902c0,0-23.891,2.129-46.835,1.42
		s-43.169-4.967-43.169-4.967L212.888,129.302z"/>
	<path fill="#D3B386" d="M257.831,52.506c-8.673-0.158-59.548,78.021-57.085,82.947c2.208,4.416,44.127,3.812,55.193,3.943
		c21.371,0.252,59.492-1.222,59.608-4.258C315.862,126.937,267.922,52.689,257.831,52.506z"/>
	<path fill="#C1A174" d="M421.001,315.784c23.302-5.01,34.916-9.594,37.891-10.968c0,0-8.042-44.47-53.932-49.201
		c-30.719-3.167-47.151,12.3-59.451,25.074c-2.161,2.243-4.948,5.229-8.053,8.611c-12.291-10.531-29.029-21.446-64.959-14.761
		c-21.703,4.038-32.867,22.527-38.563,38.901c-7.569-14.454-20.866-30.659-43.281-34.644c-30.405-5.405-52.624,9.82-65.286,22.235
		c-2.552,2.503-5.039,5.865-7.373,9.627c-2.004-2.515-3.99-4.832-5.874-6.789c-12.3-12.773-41.706-35.726-72.382-32.17
		C7.096,275.486,0,331.783,0,331.783c3.295,1.521,12.302,3.449,36.393,5.785C12.746,350.33,9.935,369.157,9.935,369.157
		s17.031,6.15,97.455,9.462c33.508,1.379,103.765,3.125,158.957,2.838c91.305-0.473,192.545-17.977,192.545-17.977
		S449.849,329.368,421.001,315.784z"/>
	<path fill="#D3B386" d="M85.313,240.162c-1.735,1.104-10.092,102.502-9.146,103.605c2.44,2.846,93.671,4.573,96.194,2.681
		c2.523-1.892-5.361-106.601-7.096-107.075C163.53,238.9,87.047,239.058,85.313,240.162z"/>
	<path fill="#D3B386" d="M306.243,218.085c-1.735,1.262-1.104,122.056-0.158,123.317c2.44,3.253,92.883,0.428,95.406-1.735
		s-5.992-120.923-7.727-121.463C392.029,217.663,307.978,216.823,306.243,218.085z"/>
	<path fill="#C1A174" d="M98.875,316.959c1.262,0.315,41.316-0.788,45.416-2.05c0.674-0.208-3.333-47.219-24.758-46.205
		C92.883,269.966,97.613,316.644,98.875,316.959z"/>
	<path fill="#D3B386" d="M137.922,270.73c0.036,0.015,0.061,0.025,0.061,0.025S137.96,270.745,137.922,270.73z"/>
	<path fill="#AA8F67" d="M107.548,297.248c2.137-19.65,10.319-26.009,17.661-27.597c-1.741-0.698-3.629-1.043-5.677-0.946
		c-26.65,1.262-21.919,47.939-20.658,48.255c0.377,0.094,4.207,0.062,9.505-0.063C107.681,312.748,106.708,304.968,107.548,297.248z
		"/>
	<path fill="#C1A174" d="M331.001,285.105c1.262,0.315,41.316-0.788,45.416-2.05c0.674-0.208-3.333-47.219-24.758-46.205
		C325.009,238.112,329.739,284.79,331.001,285.105z"/>
	<path fill="#D3B386" d="M370.048,238.875c0.036,0.015,0.061,0.025,0.061,0.025S370.086,238.891,370.048,238.875z"/>
	<path fill="#AA8F67" d="M339.675,265.393c2.137-19.65,10.319-26.009,17.661-27.597c-1.741-0.698-3.629-1.043-5.677-0.946
		c-26.65,1.262-21.919,47.939-20.658,48.255c0.377,0.094,4.207,0.062,9.505-0.063C339.807,280.894,338.834,273.114,339.675,265.393z
		"/>
	<path fill="#C1A174" d="M305.139,215.877c1.893,0,88.94,0,88.94,0l0.946,13.562c0,0-20.601-0.985-43.524-2.208
		c-23.654-1.262-46.047-3.154-46.047-3.154L305.139,215.877z"/>
	<path fill="#D3B386" d="M406.592,219.662c-4.416,2.838-98.402,3.311-101.082,1.262c-2.681-2.05-7.569-45.89-6.939-48.097
		c0.631-2.207,17.161-3.536,23.339-1.735c3.785,1.104,1.751,15.418,4.258,16.558c1.432,0.651,11.979,0.657,15.138-0.158
		c1.112-0.286,0-15.297,2.05-17.188c2.05-1.892,18.608-2.365,21.446-0.315s1.207,17.031,3.257,17.82
		c2.05,0.789,9.516,1.42,15.351-0.315c1.434-0.426,0.788-15.454,1.893-17.346c1.103-1.892,20.816-1.577,23.181,0.473
		c0.834,0.724,1.126,7.223,1.103,14.823C409.547,199.377,408.326,218.131,406.592,219.662z"/>
	<path fill="#C1A174" d="M84.997,233.224c1.892,0,82.001,4.1,82.001,4.1v7.569c0,0-20.185,0.946-46.993,2.523
		c-22.916,1.348-35.954-0.315-35.954-0.315L84.997,233.224z"/>
	<polygon fill="#C1A174" points="159.311,347.158 161.953,240.793 167.314,240.793 172.084,347.985 	"/>
	<path fill="#C1A174" d="M302.301,236.693c3.469-1.735,7.592-2.911,8.516,6.939c2.838,30.277,9.58,99.032,8.16,99.032
		c-1.892,0-8.16-0.355-8.16-0.355L302.301,236.693z"/>
	<path fill="#C1A174" d="M200.43,293.463c9.462-12.615,41.947-36.901,75.693-7.884c15.749,13.541,16.124,58.741,16.124,58.741
		l-86.22,2.957C206.028,347.276,190.968,306.079,200.43,293.463z"/>
	<path fill="#AA8F67" d="M196.014,347.394c0,0,12.3,0.473,12.458-0.473c0.158-0.946-0.315-28.227,5.204-39.897
		c5.519-11.669,13.404-28.385,38.004-29.489c17.198-0.772-7.412-4.258-12.142-4.573s-39.581,7.569-41.947,10.565
		C195.226,286.524,196.014,347.394,196.014,347.394z"/>
	<path fill="#D3B386" d="M166.289,242.133c-2.365,1.892-0.867,101.792,1.341,104.63c2.208,2.838,29.883,1.341,30.593,0.631
		c0.709-0.709-5.156-67.434,40.685-69.701c49.437-2.444,49.043,65.207,49.989,66.389c0.946,1.183,22.472-0.158,24.127-1.104
		c1.656-0.946-4.888-103.054-6.308-104.71c-1.42-1.656-18.293-1.498-20.185-0.315s-0.022,15.751-1.892,16.873
		c-0.788,0.473-11.669,0.946-12.615,0.158c-1.381-1.151-0.236-15.927-2.838-17.188c-2.602-1.262-16.637-0.552-19.712,1.104
		c-3.075,1.656-1.449,16.257-3.627,17.346c-0.631,0.315-12.773,1.104-14.193,0c-1.67-1.299,1.104-15.927-2.681-17.188
		c-4.318-1.439-14.981-1.42-18.293,0.631c-2.043,1.265-0.497,16.5-2.838,17.504c-1.104,0.473-15.612,1.104-17.031,0.158
		c-1.129-0.753,0.394-16.006-2.365-17.031C185.686,239.295,168.655,240.241,166.289,242.133z"/>
	<path fill="#D3B386" d="M67.021,239.058c4.416,2.838,98.402,3.311,101.082,1.262c2.681-2.049,7.569-45.89,6.939-48.097
		c-0.631-2.208-17.161-3.536-23.339-1.735c-3.785,1.104-1.751,15.418-4.258,16.558c-1.432,0.651-11.979,0.657-15.138-0.158
		c-1.112-0.286,0-15.296-2.05-17.188c-2.05-1.892-18.608-2.365-21.446-0.315s-1.892,16.716-2.996,17.188
		c-2.019,0.866-9.777,2.05-15.612,0.315c-1.434-0.426-0.788-15.454-1.892-17.346c-1.104-1.892-20.816-1.577-23.181,0.473
		c-0.834,0.724-1.126,7.223-1.104,14.823C64.066,218.774,65.286,237.528,67.021,239.058z"/>
</g>
<g id="Layer_1">
</g>
</svg>
