<?xml version="1.0" encoding="utf-8"?>
<!-- Generator: Adobe Illustrator 24.2.3, SVG Export Plug-In . SVG Version: 6.00 Build 0)  -->
<svg version="1.1" xmlns="http://www.w3.org/2000/svg" xmlns:xlink="http://www.w3.org/1999/xlink" x="0px" y="0px"
	 viewBox="0 0 320.715 533.906" enable-background="new 0 0 320.715 533.906" xml:space="preserve">
<g id="sauna_x5F_whisk">
	<g id="swimminghall_x5F_sauna_x5F_imagerecognition_x5F_birchwhisk_2_">
		<polygon fill="#A45700" points="138.434,274.054 122.546,528.065 182.295,533.906 170.143,274.863 		"/>
		<polygon fill="#D47A00" points="167.628,274.377 169.684,532.777 155.965,530.798 158.97,273.361 		"/>
		<polygon fill="#D47A00" points="154.581,273.713 146.164,273.247 132.033,528.459 144,530.551 		"/>
		<path fill="#00A038" d="M284.33,100.145c8.885,13.856-98.608,205.773-124.917,207.681C142.483,306.888,31.272,131.1,30.63,93.403
			C33.577,83.762,265.887,91.769,284.33,100.145z"/>
		<path fill="#8CD000" d="M85.035,65.403c-38.05-22.944-72.717,0.779-75.044,3.153c-5.774,5.891-19.608,40.223,0.673,72.021
			c10.867,17.043,27.863,21.64,40.26,22.168c19.693,0.832,33.834-11.339,41.47-18.509C107.995,129.584,116.881,84.597,85.035,65.403
			z"/>
		<path fill="#0EB800" d="M135.845,186.323L12.126,66.928c-1.13,0.766-1.86,1.345-2.134,1.628c-0.462,0.472-0.976,1.125-1.517,1.938
			l119.335,122.481L135.845,186.323z"/>
		<path fill="#ABDE85" d="M258.193,124.784c39.455-6.145,60.228,25.37,61.359,28.142c2.797,6.863,2.634,40.127-25.048,59.683
			c-14.834,10.478-30.538,8.528-41.029,4.75c-16.668-6.002-24.292-20.935-28.204-29.497
			C217.271,170.369,225.177,129.925,258.193,124.784z"/>
		<path fill="#0EB800" d="M174.816,208.099l143.511-57.255c0.678,1.022,1.093,1.752,1.225,2.081
			c0.223,0.548,0.426,1.266,0.599,2.128l-140.91,61.314L174.816,208.099z"/>
		<path fill="#ABDE85" d="M24.612,266.907c-32.879-32.434-17.885-73.441-16.09-76.394c4.451-7.327,35.48-30.076,72.714-17.812
			c19.955,6.57,28.949,22.509,32.664,34.859c5.894,19.622-2.736,36.989-7.996,46.52C95.152,273.556,52.121,294.055,24.612,266.907z"
			/>
		<path fill="#0EB800" d="M159.449,287.041L7.432,193.081c0.481-1.334,0.879-2.218,1.091-2.567c0.357-0.587,0.883-1.272,1.563-2.025
			l154,88.75L159.449,287.041z"/>
		<path fill="#8CD000" d="M303.638,226.021c-3.233-6.968-28.598-30.317-62.98-23.106c-18.426,3.866-28.026,17.163-32.56,27.791
			c-7.204,16.891-1.251,33.214,2.486,42.23c7.633,18.414,43.912,40.957,71.117,19.519
			C314.207,266.841,304.943,228.835,303.638,226.021z"/>
		<path fill="#0EB800" d="M304.35,228.422c-0.293-1.237-0.558-2.068-0.712-2.401c-0.259-0.558-0.659-1.216-1.193-1.959
			l-145.983,63.696l3.152,9.196L304.35,228.422z"/>
		<path fill="#8CD000" d="M215.58,56.254c-8.223-45.338-50.445-56.058-53.887-56.242c-8.541-0.456-44.743,12.309-55.589,49.887
			c-5.815,20.138,2.256,36.517,10.342,46.526c12.85,15.896,32.014,18.559,42.827,19.589
			C181.368,118.111,222.47,94.193,215.58,56.254z"/>
		<path fill="#0EB800" d="M156.3,178.673l8.122-178.116c-1.37-0.354-2.322-0.525-2.729-0.545c-0.684-0.035-1.545,0.011-2.547,0.147
			l-13.529,176.818L156.3,178.673z"/>
		<path fill="#8CD000" d="M301.916,64.618c-5.915-5.283-39.516-17.05-69.167,3.848c-15.89,11.201-19.555,27.736-19.508,39.669
			c0.078,18.963,12.398,32.005,19.628,39.025c14.769,14.338,58.387,20.876,75.416-10.578
			C328.632,99.001,304.304,66.752,301.916,64.618z"/>
		<path fill="#0EB800" d="M303.574,66.604c-0.784-1.054-1.374-1.733-1.658-1.986c-0.474-0.423-1.123-0.883-1.932-1.369
			l-112.37,120.101l6.749,7.43L303.574,66.604z"/>
		<path fill="#ABDE85" d="M154.181,139.044c-28.327-30.514-65.687-18.134-68.402-16.596c-6.722,3.811-28.074,31.145-18.044,65.031
			c5.375,18.158,19.49,26.705,30.517,30.388c17.52,5.853,33.406-1.447,42.139-5.929
			C158.235,202.791,177.886,164.577,154.181,139.044z"/>
		<path fill="#0EB800" d="M168.618,261.095L88.126,121.537c-1.215,0.398-2.027,0.729-2.348,0.912
			c-0.535,0.304-1.166,0.761-1.865,1.355l75.742,141.201L168.618,261.095z"/>
		<path fill="#8CD000" d="M248.599,166.717c-8.223-45.338-50.445-56.058-53.887-56.242c-8.541-0.456-44.743,12.309-55.589,49.887
			c-5.815,20.138,2.256,36.517,10.342,46.526c12.85,15.896,32.014,18.559,42.827,19.589
			C214.387,228.575,255.489,204.656,248.599,166.717z"/>
		<path fill="#0EB800" d="M189.319,289.138l8.122-178.116c-1.37-0.354-2.322-0.525-2.729-0.545
			c-0.683-0.035-1.545,0.011-2.547,0.147l-13.529,176.819L189.319,289.138z"/>
		<path fill="#ABDE85" d="M213.408,257.558c-5.297-42.519-43.94-54.655-47.133-55.005c-7.905-0.861-42.177,9.119-54.187,43.447
			c-6.435,18.396,0.209,34.022,7.202,43.732c11.108,15.427,28.764,18.887,38.752,20.398
			C178.447,313.223,217.844,293.137,213.408,257.558z"/>
		<path fill="#0EB800" d="M156.255,330.726l12.528-127.523c-1.253-0.399-2.13-0.611-2.508-0.65c-0.631-0.068-1.431-0.066-2.373,0.01
			l-17.484,126.036L156.255,330.726z"/>
		<polygon fill="#6A4019" points="182.029,460.607 184.224,476.204 122.12,473.658 123.011,457.562 		"/>
		<polygon fill="#6A4019" points="179.805,417.628 180.971,433.391 125.527,430.545 125.39,414.615 		"/>
	</g>
</g>
<g id="Layer_1">
</g>
</svg>
