<?xml version="1.0" encoding="utf-8"?>
<!-- Generator: Adobe Illustrator 24.2.3, SVG Export Plug-In . SVG Version: 6.00 Build 0)  -->
<svg version="1.1" xmlns="http://www.w3.org/2000/svg" xmlns:xlink="http://www.w3.org/1999/xlink" x="0px" y="0px"
	 viewBox="0 0 203.996 251.447" enable-background="new 0 0 203.996 251.447" xml:space="preserve">
<g id="sauna_x5F_bucket">
	<g id="swimminghall_x5F_sauna_x5F_imagerecognition_x5F_bucket_2_">
		<path fill="#D47A00" d="M33.793,109.776c12.361-0.044,34.689-0.118,59.102-0.177l34.597-0.067
			c26.335-0.037,50.873-0.031,64.006,0.073c5.31,0.042,9.403,4.692,8.77,9.964c-2.88,24.004-11.389,87.748-15.23,116.385
			c-1.097,8.179-8.076,14.282-16.329,14.282H65.105c-11.365,0-21.054-8.236-22.883-19.453
			c-4.953-30.386-14.241-88.008-17.228-110.954C24.303,114.512,28.43,109.795,33.793,109.776z"/>
		<polygon fill="#D9FDFF" points="88.682,122.377 30.509,0 0,0 69.063,122.377 		"/>
		<path fill="#A45700" d="M163.713,109.519c1.076,0.001,5.76,0.003,6.8,0.004c-0.063,3.354-12.777,135.231-13.369,140.713h-2.329
			C155.113,244.707,163.136,112.796,163.713,109.519z"/>
		<path fill="#A45700" d="M130.844,109.528c0.54-0.001,4.715-0.001,5.253-0.002c0.006,5.634-6.649,137.607-6.909,140.71H126.9
			C126.822,247.101,130.637,115.145,130.844,109.528z"/>
		<path fill="#A45700" d="M96.319,110.283c0.014-0.23,0.03-0.46,0.043-0.69l4.534-0.009c0.014,0.221,0.031,0.443,0.045,0.664
			c0.271,3.815,2.214,139.989,2.214,139.989h-4.305C98.807,249.39,96.064,114.102,96.319,110.283z"/>
		<path fill="#A45700" d="M62.429,109.679c0.685-0.002,2.588-0.004,3.285-0.006c0.065,1.639,5.56,133.515,5.079,140.564h-4.358
			C65.791,243.204,62.432,111.332,62.429,109.679z"/>
		<path fill="#A45700" d="M26.501,122.377h172.433c3.023,0,5.061-8.56,5.061-12.626s-4.282-6.044-7.305-6.044H28.294
			c-3.023,0-7.305,2.873-7.305,6.948C20.989,114.732,23.479,122.377,26.501,122.377z"/>
		<path fill="#D9FDFF" d="M198.602,132.997c-0.7,5.53-1.505,11.786-2.374,18.475c-47.481-0.337-140.389-2.397-167.086-3.005
			c-0.827-5.428-1.592-10.537-2.263-15.147C59.001,133.172,152.236,132.777,198.602,132.997z"/>
		<path fill="#D9FDFF" d="M188.726,208.371c-0.784,5.882-1.525,11.435-2.199,16.47c-39.017-0.238-116.214-1.909-145.689-2.572
			c-0.692-4.257-1.433-8.842-2.208-13.644C71.594,208.477,150.325,208.164,188.726,208.371z"/>
		<path fill="#A45700" d="M184.521,239.549c-2.005,6.95-8.385,11.898-15.81,11.898H65.106c-8.609,0-16.248-4.731-20.245-11.898
			H184.521z"/>
		<path fill="#D47A00" d="M175.507,220.192c2.119,0.009,3.52-1.366,3.535-3.47c0.015-2.196-1.642-3.752-4.016-3.77
			c-2.008-0.015-3.257,1.287-3.27,3.41C171.743,218.693,173.201,220.182,175.507,220.192z"/>
		<path fill="#D47A00" d="M145.564,220.192c2.119,0.009,3.52-1.366,3.535-3.47c0.015-2.196-1.642-3.752-4.016-3.77
			c-2.008-0.015-3.257,1.287-3.27,3.41C141.799,218.693,143.257,220.182,145.564,220.192z"/>
		<path fill="#D47A00" d="M115.135,220.192c2.119,0.009,3.52-1.366,3.535-3.47c0.015-2.196-1.642-3.752-4.016-3.77
			c-2.008-0.015-3.257,1.287-3.27,3.41C111.37,218.693,112.827,220.182,115.135,220.192z"/>
		<path fill="#D47A00" d="M84.88,218.982c2.119,0.009,3.52-1.366,3.535-3.47c0.015-2.196-1.642-3.752-4.016-3.77
			c-2.008-0.015-3.257,1.287-3.27,3.41C81.115,217.483,82.573,218.971,84.88,218.982z"/>
		<path fill="#D47A00" d="M52.809,218.982c2.119,0.009,3.52-1.366,3.535-3.47c0.015-2.196-1.642-3.752-4.016-3.77
			c-2.008-0.015-3.257,1.287-3.27,3.41C49.045,217.483,50.503,218.971,52.809,218.982z"/>
		<path fill="#D47A00" d="M45.659,145.563c2.119,0.009,3.52-1.366,3.535-3.47c0.015-2.196-1.642-3.752-4.016-3.77
			c-2.008-0.015-3.257,1.287-3.27,3.41C41.894,144.064,43.352,145.553,45.659,145.563z"/>
		<path fill="#D47A00" d="M82.772,144.612c2.119,0.009,3.52-1.366,3.535-3.47c0.015-2.196-1.642-3.752-4.016-3.77
			c-2.008-0.015-3.257,1.287-3.27,3.41C79.007,143.113,80.465,144.602,82.772,144.612z"/>
		<path fill="#D47A00" d="M116.491,145.563c2.119,0.009,3.52-1.366,3.535-3.47c0.015-2.196-1.642-3.752-4.016-3.77
			c-2.008-0.015-3.257,1.287-3.27,3.41C112.727,144.064,114.184,145.553,116.491,145.563z"/>
		<path fill="#D47A00" d="M149.207,145.822c2.119,0.009,3.52-1.366,3.535-3.47c0.015-2.196-1.642-3.752-4.016-3.77
			c-2.008-0.015-3.257,1.287-3.27,3.41C145.442,144.324,146.9,145.812,149.207,145.822z"/>
		<path fill="#D47A00" d="M182.793,145.563c2.119,0.009,3.52-1.366,3.535-3.47c0.015-2.196-1.642-3.752-4.016-3.77
			c-2.008-0.015-3.257,1.287-3.27,3.41C179.029,144.064,180.486,145.553,182.793,145.563z"/>
	</g>
</g>
<g id="Layer_1">
</g>
</svg>
