<?xml version="1.0" encoding="utf-8"?>
<!-- Generator: Adobe Illustrator 24.2.3, SVG Export Plug-In . SVG Version: 6.00 Build 0)  -->
<svg version="1.1" xmlns="http://www.w3.org/2000/svg" xmlns:xlink="http://www.w3.org/1999/xlink" x="0px" y="0px"
	 viewBox="0 0 320.767 446.839" enable-background="new 0 0 320.767 446.839" xml:space="preserve">
<g id="saxophone_x5F_yellow">
	<g id="soiton">
		<g id="saksofoni_x5F_keltainen_1_">
			<path fill="#FDE40B" d="M12.806,1.309c0,0,70.321-10.653,99.463,28.831c21.247,28.786,28.63,80.027,33.005,123.025
				c3.077,30.24,5.38,53.019,5.886,67.555c0.778,22.338,7.992,132.218,29.512,133.82c13.606,1.013,20.399-42.294,13.235-62.248
				l104.749,0.205c-4.739,5.078-6.88,10.013-8.675,15.562c-10.294,31.818-4.442,138.087-88.914,138.772
				c-59.923,0.486-99.945-26.309-106.661-159.198c-4.711-93.207-4.254-143.784-8.742-176.81
				c-5.656-41.623-11.814-65.846-24.85-76.452C45.689,22.066,26.496,22.726,15.103,19.04C10.686,17.611,12.806,1.309,12.806,1.309z"
				/>
			<path fill="#275F88" d="M319.91,275.691c-2.535-1.992-145.48-7.65-148.227-4.982c-1.437,1.396,9.245,6.087,15.73,13.332
				c1.968,2.198,6.688,8.817,6.688,8.817l104.22,0.156c0,0,2.459-2.423,11.968-9.18C319.385,277.369,322.446,277.683,319.91,275.691
				z"/>
			<path fill="#275F88" d="M0.97,1.161c1.759-0.393,15.47-1.774,16.234-0.773s0.047,19.514-1.717,19.404
				c-2.639-0.165-13.482-1.265-14.38-3.146S-0.789,1.554,0.97,1.161z"/>
			<path fill="#275F88" d="M150.817,103.7c4.031,5.96,3.553,13.492-2.723,19.413c-5.119,4.829-17.557,3.851-22.084-5.848
				c-4.333-9.284,1.906-15.881,6.354-18.084C138.904,95.942,146.126,96.765,150.817,103.7z"/>
			<path fill="#248291" d="M159.903,149.332c1.619,8.77-2.512,15.925-12.796,18.861c-11.045,3.154-21.982-3.924-21.555-17.183
				c0.33-10.275,9.322-16.085,15.467-16.378C150.057,134.2,158.02,139.127,159.903,149.332z"/>
			<path fill="#275F88" d="M151.931,150.942c0.903,4.894-1.593,8.835-7.332,10.473c-6.164,1.76-11.817-1.813-11.999-9.213
				c-0.174-7.084,5.303-9.448,8.731-9.611C146.376,142.35,150.881,145.248,151.931,150.942z"/>
			<path fill="#248291" d="M150.767,183.394c7.1,2.356,14.857,6.816,11.742,18.025c-2.887,10.39-13.357,12.834-21.442,9.758
				c-9.64-3.668-13.958-10.701-11.002-19.794C132.964,182.464,144.174,181.207,150.767,183.394z"/>
			<path fill="#248291" d="M164.488,234.644c1.719,9.311-1.16,17.38-12.078,20.499c-11.726,3.348-24.844-4.64-24.39-18.717
				c0.351-10.908,7.73-16.763,14.253-17.074C151.869,218.892,162.488,223.809,164.488,234.644z"/>
			<path fill="#275F88" d="M148.455,227.535c5.724,0.613,9.336,4.383,9.386,10.731c0.053,6.818-5.669,11.449-13.958,9.318
				c-7.935-2.04-8.871-8.347-7.994-11.885C137.18,230.496,141.795,226.822,148.455,227.535z"/>
			<path fill="#248291" d="M158.532,270.857c6.177,3.829,8.187,10.294,4.239,18.213c-4.24,8.505-14.577,11.318-22.319,3.768
				c-6-5.851-4.499-14.557-1.261-18.484C143.955,268.575,151.344,266.401,158.532,270.857z"/>
			<path fill="#275F88" d="M206.857,300.476c5.834,1.934,12.206,5.605,9.629,14.862c-2.39,8.581-11.002,10.613-17.645,8.086
				c-7.922-3.013-11.462-8.813-9.018-16.323C192.219,299.734,201.439,298.68,206.857,300.476z"/>
			<path fill="#275F88" d="M201.385,331.465c6.036,2.001,12.628,5.799,9.962,15.375c-2.472,8.877-11.382,10.98-18.255,8.366
				c-8.196-3.117-11.858-9.117-9.33-16.887C186.242,330.698,195.78,329.607,201.385,331.465z"/>
		</g>
		<g id="Layer_1_147_">
		</g>
	</g>
</g>
<g id="Layer_1">
</g>
</svg>
