<?xml version="1.0" encoding="utf-8"?>
<!-- Generator: Adobe Illustrator 26.0.3, SVG Export Plug-In . SVG Version: 6.00 Build 0)  -->
<svg version="1.1" xmlns="http://www.w3.org/2000/svg" xmlns:xlink="http://www.w3.org/1999/xlink" x="0px" y="0px"
	 viewBox="0 0 960.6 856.75" enable-background="new 0 0 960.6 856.75" xml:space="preserve">
<g id="shelves_x5F_white">
	<g>
		<polygon fill="#B2B2B2" points="94.288,104.34 2.66,104.34 47.789,844.741 94.288,774.767 		"/>
		<polygon fill="#B2B2B2" points="958.955,104.34 867.326,104.34 867.326,774.767 911.984,856.75 		"/>
		<path fill="#CAD2D3" d="M960.6,81.013L403.094,64.17L0.686,81.013L0,844.741h47.789V725.359h864.195V856.75h47.788L960.6,81.013z
			 M911.984,144.51v227.938l-508.89-15.374L47.789,371.945V144.51H911.984z M403.094,645.02L47.789,659.891V437.413h864.195v222.98
			L403.094,645.02z"/>
		<polygon fill="#FCFBFB" points="868.145,580.849 93.539,580.849 47.789,661.862 913.141,661.862 		"/>
		<polygon fill="#FCFBFB" points="868.145,292.903 93.539,292.903 47.789,373.916 911.984,373.916 		"/>
		<polygon fill="#FCFBFB" points="875.684,0 72.979,0 0.686,81.013 960.6,81.013 		"/>
	</g>
</g>
<g id="Layer_1">
</g>
</svg>
