<?xml version="1.0" encoding="utf-8"?>
<!-- Generator: Adobe Illustrator 24.2.3, SVG Export Plug-In . SVG Version: 6.00 Build 0)  -->
<svg version="1.1" xmlns="http://www.w3.org/2000/svg" xmlns:xlink="http://www.w3.org/1999/xlink" x="0px" y="0px"
	 viewBox="0 0 583.439 572.118" enable-background="new 0 0 583.439 572.118" xml:space="preserve">
<g id="slide_x5F_white">
	<g id="liukumäki">
		<g id="liukumaki_1_">
			<path fill="#CCD2D3" d="M413.829,62.565c-4.095-20.502-9.527-36.176-16.145-46.585C389.292,2.777,380.191,0.003,374.035,0
				c-16.059,0.014-28.143,18.178-31.747,36.144c-3.586,17.876-2.523,37.075-0.504,52.018
				C267.652,163.135,65.126,390.686,11.808,467.188c-19.942,28.612-8.592,51.14-8.592,51.14L389.921,72.964
				c0,0-4.285-15.045-21.584-8.976c-1.775,0.623-6.274,4.407-12.979,10.786c-0.882-11.34-0.829-23.971,1.525-35.703
				c2.903-14.471,11.221-24.17,17.146-24.187c6.965,0.003,17.745,13.255,25.196,50.557c0.48,2.489,81.26,428.203,82.076,432.502
				l14.624-2.775C487.538,450.973,413.986,63.349,413.829,62.565z"/>
			<path fill="#FFFFFF" d="M2.153,518.378c-0.09-1.912,378.12-446.876,384.582-445.264c6.462,1.612,100.33,5.924,100.33,5.924
				L83.441,572.03L2.153,518.378z"/>
			<path fill="#CCD2D3" d="M501.344,75.123c-11.11-56.781-28.829-65.3-42.072-65.306c-14.163,0.002-26.808,13.821-30.781,33.625
				c-4.187,20.871-1.606,45.267,1.37,62.336c-80.815,92.049-306.193,361.183-345.295,414.753
				c-16.284,22.309-12.406,44.572-1.48,51.514c9.996,6.351,348.082-412.527,405.579-483.901c2.791,14.702,8.399,44.25,15.417,81.229
				l-74.468,0.71l3.023,19.017l74.872-1.671c2.937,15.476,6.06,31.931,9.278,48.895l-73.381,0.699l3.023,19.017l73.786-1.647
				c3.073,16.192,6.203,32.691,9.321,49.12l-78.71,0.749l3.023,19.017l79.103-1.766c3.172,16.714,6.301,33.204,9.311,49.068
				l-80.83,0.77l3.023,19.017l81.217-1.813c3.332,17.56,6.469,34.093,9.294,48.977l-79.742,0.759l3.023,19.017l80.131-1.789
				c6.207,32.714,10.254,54.038,10.433,54.984l14.624-2.775C575.053,463.532,512.454,131.905,501.344,75.123z M458.141,75.077
				c-1.673,1.185-7.066,6.885-15.378,16.145c-1.759-14.088-2.529-30.636,0.323-44.851c2.437-12.153,9.58-21.671,16.18-21.668
				c7.113,0.003,17.66,11.746,25.418,43.955C478.304,66.631,469.447,67.068,458.141,75.077z"/>
		</g>
		<g id="Layer_1_119_">
		</g>
	</g>
</g>
<g id="Layer_1">
</g>
</svg>
