<?xml version="1.0" encoding="utf-8"?>
<!-- Generator: Adobe Illustrator 26.0.0, SVG Export Plug-In . SVG Version: 6.00 Build 0)  -->
<svg version="1.1" xmlns="http://www.w3.org/2000/svg" xmlns:xlink="http://www.w3.org/1999/xlink" x="0px" y="0px"
	 viewBox="0 0 465.376 424.82" enable-background="new 0 0 465.376 424.82" xml:space="preserve">
<g id="snow_x5F_lantern">
	<path fill="#FFFFFF" d="M385.218,302.696c84.761-82.642-68.729-143.977-90.608-60.039c-3.394-12.526-12.99-24.302-22.387-30.874
		c54.59,21.18,96.713-43.203,63.477-88.161c-11.918-20.388-39.187-24.541-58.648-20.14c80.637-62.867-39.665-156.43-82.362-65.925
		c-8.346,20.112-1.151,44.916,9.967,58.688c-81.407-33.315-101.599,67.701-61.29,100.107
		c-63.844-14.439-107.469,70.746-53.362,110.207c-41.626-15.704-94.017,14.238-89.76,61.386
		c0.874,70.334,110.977,72.155,119.772,4.78c-1.417,47.901,65.935,68.264,97.681,37.469c9.454-5.697,13.495-31.653,15.315-30.411
		c8.792,50.5,89.199,57.141,110.054,5.095c0,0,18.926,45.963,82.509,29.937C499.667,396.139,461.105,270.324,385.218,302.696z
		 M231.113,356.123c-8.376-56.752-93.241-59.12-107.943-5.25c0.298-7.323-0.414-26.015-11.371-34.951
		c45.588,12.757,71.974-30.026,73.966-45.531c1.562,33.978,38.406,51.091,68.855,46.514
		C239.569,325.581,232.848,339.24,231.113,356.123z M186.556,251.328c-0.704-18.416-7.407-38.372-23.97-48.301
		c25.446,4.239,65.902-12.521,72.079-45.085c-1.444,19.625,7.513,39.232,24.155,48.034
		C226.876,197.829,191.57,217.78,186.556,251.328z M218.19,106.066c13.799,6.284,29.41,6.702,44.029,3.612
		C219.111,144.825,252.07,154.316,218.19,106.066z M343.906,357.024c-5.156-32.026-36.367-54.633-68.29-47.809
		c13.987-9.427,20.052-23.269,21.977-39.595c4.927,33.045,38.525,53.476,69.926,41.79
		C352.607,322.893,345.357,338.333,343.906,357.024z"/>
</g>
<g id="Layer_1">
</g>
</svg>
