<?xml version="1.0" encoding="utf-8"?>
<!-- Generator: Adobe Illustrator 26.0.0, SVG Export Plug-In . SVG Version: 6.00 Build 0)  -->
<svg version="1.1" xmlns="http://www.w3.org/2000/svg" xmlns:xlink="http://www.w3.org/1999/xlink" x="0px" y="0px"
	 viewBox="0 0 83.329 80.531" enable-background="new 0 0 83.329 80.531" xml:space="preserve">
<g id="snowflake_x5F_star_x5F_white">
	<path fill="#FFFFFF" d="M83.329,51.056c-11.626-3.198-22.8-6.271-34.592-9.514c9.599-6.074,18.43-11.663,27.385-17.33
		c-0.963-2.174-1.811-4.089-2.869-6.477c-9.306,5.889-18.393,11.639-28.479,18.022c4.048-11.925,7.703-22.691,11.442-33.706
		C52.723,1.28,50.051,0.691,46.92,0c-2.944,11.401-5.839,22.615-8.909,34.506c-5.482-9.7-10.463-18.512-15.723-27.819
		c-2.536,2.125-4.486,3.758-6.595,5.525c6.165,8.419,12.158,16.604,18.705,25.545c-11.674-3.133-22.411-6.016-33.525-8.999
		C0.52,31.185,0.269,32.91,0,34.753c10.057,3.288,19.77,6.463,30.25,9.889c-8.727,4.803-16.434,9.044-24.673,13.579
		c2.048,2.318,3.613,4.089,5.462,6.181c7.711-4.879,15.114-9.564,23.309-14.75C32.126,59.873,30.118,69.11,28.034,78.7
		c3.399,0.677,6.084,1.212,9.189,1.831c1.295-10.141,2.568-20.117,3.842-30.092c0.296-0.019,0.593-0.038,0.889-0.057
		c4.708,8.932,9.416,17.864,14.125,26.8c2.581-1.083,4.362-1.831,6.637-2.785c-5.032-7.952-9.907-15.656-15.438-24.395
		c11.764,3.698,22.332,7.019,33.236,10.447C81.529,57.06,82.398,54.161,83.329,51.056z"/>
</g>
<g id="Layer_1">
</g>
</svg>
