<?xml version="1.0" encoding="utf-8"?>
<!-- Generator: Adobe Illustrator 26.0.2, SVG Export Plug-In . SVG Version: 6.00 Build 0)  -->
<svg version="1.1" xmlns="http://www.w3.org/2000/svg" xmlns:xlink="http://www.w3.org/1999/xlink" x="0px" y="0px"
	 viewBox="0 0 438.156 382.705" enable-background="new 0 0 438.156 382.705" xml:space="preserve">
<g id="spiral_x5F_shape_x5F_striped_x5F_brown">
	<g>
		<g>
			<path fill="#6A4019" d="M417.757,266.217c-39.402-47.204-143.793,14.699-221.086,2.33
				C77.967,249.551,73.638,121.328,129.845,82.476c94.399-63.714,139.817,84.307,54.708,70.154
				c17.945-3.374,16.294-34.503-1.067-40.16s-36.073,9.9-39.787,27.777c-7.081,34.084,31.054,63.784,65.385,58.02
				c34.332-5.764,71.743-24.88,78.614-66.388C310.588-6.384,96.68-49.159,31.004,67.763
				c-71.17,120.443-10.049,249.305,84.605,290.272C216.415,401.665,518.872,387.355,417.757,266.217z"/>
		</g>
		<path fill="#A45700" d="M190.927,153.406l2.697,45.17c5.13,0.616,10.337,0.551,15.461-0.309
			c16.523-2.774,33.75-8.654,47.952-18.621l-34.492-37.123C216.398,150.038,206.051,154.557,190.927,153.406z"/>
		<g>
			<path fill="#A45700" d="M227.761,107.929c2.378,8.819,2.434,17.753-0.152,25.352h59.821c0.087-0.469,0.19-0.927,0.268-1.402
				c4.604-27.808-0.377-51.749-11.798-71.31L227.761,107.929z"/>
		</g>
		<g>
			<path fill="#A45700" d="M128.051,2.293l42.546,64.37c13.411-1.071,24.938,2.501,34.151,8.734V7.409
				C180.555-0.138,153.768-2.048,128.051,2.293z"/>
		</g>
		<g>
			<path fill="#A45700" d="M98.565,129.645c5.267-19.604,16.043-36.637,31.28-47.169c0.017-0.012,0.034-0.022,0.052-0.034
				L41.163,52.386c-3.685,4.78-7.084,9.903-10.159,15.377C16.268,92.702,7.219,118,2.949,142.806L98.565,129.645z"/>
		</g>
		<g>
			<path fill="#A45700" d="M86.814,342.184l47.582-100.773c-15.298-12.297-25.835-27.609-32.154-43.974L11.47,243.661
				C25.918,284.549,53,319.307,86.814,342.184z"/>
		</g>
		<g>
			<path fill="#A45700" d="M323.974,376.991L284.83,260.617c-25.92,5.637-55.279,12.192-88.159,6.931
				c-1.958-0.313-3.88-0.66-5.776-1.031l4.946,111.922C238.994,384.3,286.337,384.403,323.974,376.991z"/>
		</g>
	</g>
</g>
<g id="Layer_1">
</g>
</svg>
