<?xml version="1.0" encoding="utf-8"?>
<!-- Generator: Adobe Illustrator 26.0.2, SVG Export Plug-In . SVG Version: 6.00 Build 0)  -->
<svg version="1.1" id="Layer_1" xmlns="http://www.w3.org/2000/svg" xmlns:xlink="http://www.w3.org/1999/xlink" x="0px" y="0px"
	 viewBox="0 0 438.2 382.7" style="enable-background:new 0 0 438.2 382.7;" xml:space="preserve">
<style type="text/css">
	.st0{fill:#FFFFFF;}
	.st1{fill:#C61824;}
</style>
<g>
	<path class="st0" d="M417.8,266.2c-39.4-47.2-143.8,14.7-221.1,2.3c-118.7-19-123-147.2-66.8-186.1c94.4-63.7,139.8,84.3,54.7,70.2
		c17.9-3.4,16.3-34.5-1.1-40.2s-36.1,9.9-39.8,27.8c-7.1,34.1,31.1,63.8,65.4,58c34.3-5.8,71.7-24.9,78.6-66.4
		C310.6-6.4,96.7-49.2,31,67.8C-40.2,188.2,21,317.1,115.6,358C216.4,401.7,518.9,387.4,417.8,266.2z"/>
</g>
<path class="st1" d="M190.9,153.4l2.7,45.2c5.1,0.6,10.3,0.6,15.5-0.3c16.5-2.8,33.8-8.7,48-18.6l-34.5-37.1
	C216.4,150,206.1,154.6,190.9,153.4z"/>
<g>
	<path class="st1" d="M227.8,107.9c2.4,8.8,2.4,17.8-0.2,25.4h59.8c0.1-0.5,0.2-0.9,0.3-1.4c4.6-27.8-0.4-51.7-11.8-71.3
		L227.8,107.9z"/>
</g>
<g>
	<path class="st1" d="M128.1,2.3l42.5,64.4c13.4-1.1,24.9,2.5,34.2,8.7v-68C180.6-0.1,153.8-2,128.1,2.3z"/>
</g>
<g>
	<path class="st1" d="M98.6,129.6c5.3-19.6,16-36.6,31.3-47.2c0,0,0,0,0.1,0L41.2,52.4c-3.7,4.8-7.1,9.9-10.2,15.4
		C16.3,92.7,7.2,118,2.9,142.8L98.6,129.6z"/>
</g>
<g>
	<path class="st1" d="M86.8,342.2l47.6-100.8c-15.3-12.3-25.8-27.6-32.2-44l-90.8,46.2C25.9,284.5,53,319.3,86.8,342.2z"/>
</g>
<g>
	<path class="st1" d="M324,377l-39.1-116.4c-25.9,5.6-55.3,12.2-88.2,6.9c-2-0.3-3.9-0.7-5.8-1l4.9,111.9
		C239,384.3,286.3,384.4,324,377z"/>
</g>
<g id="Layer_1_00000024697105923122551750000003633533717512979367_">
</g>
</svg>
