<?xml version="1.0" encoding="utf-8"?>
<!-- Generator: Adobe Illustrator 26.0.0, SVG Export Plug-In . SVG Version: 6.00 Build 0)  -->
<svg version="1.1" xmlns="http://www.w3.org/2000/svg" xmlns:xlink="http://www.w3.org/1999/xlink" x="0px" y="0px"
	 viewBox="0 0 184.515 176.64" enable-background="new 0 0 184.515 176.64" xml:space="preserve">
<g id="star_x5F_white">
	<g>
		<path fill="#E6E7E7" d="M56.285,52.304c0,0,26.792-50.966,34.517-52.279s36.294,48.056,36.294,48.056s55.933,8.255,57.376,14
			s-34.769,45.47-34.769,45.47s10.105,56.775,4.317,61.589c-5.788,4.813-58.134-14.246-58.134-14.246s-47.442,25.503-53.863,21.27
			s-4.343-63.594-4.343-63.594S0.162,80.053,0.063,73.802C-0.037,67.552,56.285,52.304,56.285,52.304z"/>
		<path fill="#FFFFFF" d="M90.802,0.026l3.533,87.725l-38.05-35.446C56.285,52.304,81.284,2.513,90.802,0.026z"/>
		<path fill="#FFFFFF" d="M94.335,87.75l-56.654,24.821c0,0-39.461-32.181-37.619-38.769L94.335,87.75z"/>
		<path fill="#FFFFFF" d="M94.335,87.75l1.552,67.145c0,0-35.03,23.38-53.863,21.27L94.335,87.75z"/>
		<path fill="#FFFFFF" d="M94.335,87.75l55.369,19.802c0,0,12.019,55.214,4.317,61.589L94.335,87.75z"/>
		<path fill="#FFFFFF" d="M94.335,87.75l32.761-39.668c0,0,52.564,4.327,57.376,14L94.335,87.75z"/>
	</g>
</g>
<g id="Layer_1">
</g>
</svg>
