<?xml version="1.0" encoding="utf-8"?>
<!-- Generator: Adobe Illustrator 26.0.1, SVG Export Plug-In . SVG Version: 6.00 Build 0)  -->
<svg version="1.1" xmlns="http://www.w3.org/2000/svg" xmlns:xlink="http://www.w3.org/1999/xlink" x="0px" y="0px"
	 viewBox="0 0 160.255 391.838" enable-background="new 0 0 160.255 391.838" xml:space="preserve">
<g id="straw_x5F_decoration_x5F_white">
	<path fill="#FFFFFF" d="M159.983,295.871L83.4,201.899V0h-6.545v199.84L0,308.548l0.448,3.96l76.171,78.664l4.784,0.666
		l78.853-91.99L159.983,295.871z M55.436,289.187l23.933-75.757l25.352,77.234L55.436,289.187z M106.948,297.567l3.988,13.255
		l-51.997-1.644l-3.575-13.159L106.948,297.567z M69.451,222.146l-21.388,67.698l-35.901,13.335L69.451,222.146z M51.781,308.946
		l-31.429-1.521l28.178-10.467L51.781,308.946z M11.338,313.934l42.423,1.924l18.274,60.759L11.338,313.934z M80.053,379.592
		l-19.1-63.527l49.302,1.574L80.053,379.592z M93.87,366.648l24.246-49.597l27.792-10.891L93.87,366.648z M114.225,297.962
		l27.565,2.477l-24,9.402L114.225,297.962z M112.008,290.959L88.23,218.521l61.469,75.588L112.008,290.959z"/>
</g>
<g id="Layer_1">
</g>
</svg>
