<?xml version="1.0" encoding="utf-8"?>
<!-- Generator: Adobe Illustrator 24.2.3, SVG Export Plug-In . SVG Version: 6.00 Build 0)  -->
<svg version="1.1" xmlns="http://www.w3.org/2000/svg" xmlns:xlink="http://www.w3.org/1999/xlink" x="0px" y="0px"
	 viewBox="0 0 1163.81 491.252" enable-background="new 0 0 1163.81 491.252" xml:space="preserve">
<g id="table_x5F_round_x5F_white">
	<g>
		<path id="XMLID_231_" fill="#FDFCFC" d="M78.516,241.259c-2.221,51.296-8.051,199.458,8.824,238.664
			c6.873,15.968,46.294,15.919,53.586-5.691c13.63-40.394,11.367-197.685,13.509-232.973H78.516z"/>
		<path id="XMLID_232_" fill="#B2B2B2" d="M217.958,241.259c-2.221,51.296-8.051,199.458,8.824,238.664
			c6.873,15.968,46.294,15.919,53.586-5.691c13.63-40.394,11.367-197.685,13.509-232.973H217.958z"/>
		<path id="XMLID_233_" fill="#FDFCFC" d="M1001.489,241.259c-2.221,51.296-8.051,199.458,8.824,238.664
			c6.873,15.968,46.294,15.919,53.586-5.691c13.63-40.394,11.367-197.685,13.509-232.973H1001.489z"/>
		<path id="XMLID_230_" fill="#B2B2B2" d="M862.788,241.259c-2.221,51.296-8.051,199.458,8.824,238.664
			c6.873,15.968,46.294,15.919,53.586-5.691c13.63-40.394,11.367-197.685,13.509-232.973H862.788z"/>
		<path fill="#CCD2D3" d="M0.255,136.26c0,0,0,36.588,0,57.531S98.615,313.3,606.099,313.3s557.71-116.288,557.71-131.488
			c0-15.414-0.187-56.907-0.187-56.907L0.255,136.26z"/>
		<path fill="#FDFCFC" d="M565.441,270.928c-118.552-0.255-241-5.707-340.113-21.74c-89.452-14.47-154.424-36.436-190.192-60.342
			c-77.99-52.125-26.325-116.373,156.75-153.158c93.671-18.821,217.556-29.3,338.245-33.593
			C652.813-2.269,784.65-0.282,897.667,12.488c228.525,25.821,299.613,94.447,252.224,148.819
			c-26.724,30.662-93.094,60.637-197.852,80.537C843.701,262.425,702.469,270.391,565.441,270.928
			C494.333,270.775,601.955,270.785,565.441,270.928z"/>
	</g>
</g>
<g id="Layer_1">
</g>
</svg>
