<?xml version="1.0" encoding="utf-8"?>
<!-- Generator: Adobe Illustrator 24.2.3, SVG Export Plug-In . SVG Version: 6.00 Build 0)  -->
<svg version="1.1" xmlns="http://www.w3.org/2000/svg" xmlns:xlink="http://www.w3.org/1999/xlink" x="0px" y="0px"
	 viewBox="0 0 312.313 426.091" enable-background="new 0 0 312.313 426.091" xml:space="preserve">
<g id="teddy_x5F_bear">
	<g id="Layer_1_156_">
	</g>
	<g id="Layer_1_157_">
	</g>
	<g>
		<g id="nalle_1_">
			<path fill="#BF7900" d="M225.811,54.605c11.372-1.76,20.827-38.426-5.021-50.328c-32.206-14.829-47.658,12.876-45.543,22.744
				C176.302,31.946,220.499,55.427,225.811,54.605z"/>
			<path fill="#935803" d="M215.817,49.863c8.255-1.278,17.432-27.082-0.213-35.061c-23.455-10.606-30.772,11.413-29.236,18.577
				C187.134,36.955,211.96,50.459,215.817,49.863z"/>
			<path fill="#BF7900" d="M109.389,33.931c4.569-14.639-27.175-30.764-46.016-17.936c-22.421,15.265-9.091,45.227,0.444,48.532
				C68.577,66.177,107.787,39.062,109.389,33.931z"/>
			<path fill="#935803" d="M100.583,36.931c3.311-10.608-18.719-22.818-32.372-13.522c-16.247,11.062-5.194,33.022,1.716,35.416
				C73.375,60.021,99.422,40.65,100.583,36.931z"/>
			<path fill="#BF7900" d="M296.109,189.044c-13.242-2.481-26.604,10.98-48.037,14.726c-8.293,1.449-25.354,2.861-36.465,3.684
				c-4.774-6.438-10.467-11.719-17.273-15.702c37.913-12.109,59.083-42.088,51.484-100.188
				c-4.724-36.126-31.985-74.639-102.109-71.516c-68.858,3.068-96.681,43.293-96.078,88.131c0.459,34.193,19.693,71.255,62.817,84.8
				c-7.149,3.461-13.176,7.728-18.189,12.644c-9.228-2.836-21.028-6.531-27.828-8.927c-20.521-7.229-31.479-22.71-44.95-22.447
				C2.094,174.587-3.875,191.65,2.464,205.953c5.541,12.503,23.026,26.874,39.3,33.259c6.091,2.39,19.421,6.381,30.813,9.661
				c-1.901,17.544,0.977,36.899,7.22,55.847c3.968,12.043,9.846,22.245,16.839,30.553c-4.879,14.688-15.701,50.661-11.907,70.562
				c4.184,21.947,31.576,27.278,42.108,9.947c8.386-13.799,11.666-38.44,13.119-54.809c5.432,0.823,10.764,0.816,15.796-0.046
				c3.102-0.531,6.053-1.112,8.884-1.737c2.374,16.181,7.105,39.196,15.863,52.158c12.508,18.513,39.23,12.512,42.615-7.484
				c3.451-20.395-7.769-51.695-13.688-66.948c5.207-5.187,9.753-11.231,14.067-18.278c6.274-10.248,11.76-29.693,9.293-47.561
				c-0.856-6.2-1.851-12.149-3.018-17.822c12.417-1.026,27.135-2.439,33.646-3.814c17.105-3.612,36.721-14.903,44.248-26.321
				C316.274,210.061,313.202,192.246,296.109,189.044z"/>
			<path fill="#935803" d="M258.404,201.117c3.288,9.509,10.746,32.749,14.826,45.525c-3.296,1.171-6.599,2.122-9.814,2.801
				c-0.38,0.081-0.788,0.161-1.221,0.241l-12.951-46.137C252.472,202.921,255.517,202.083,258.404,201.117z"/>
			<path fill="#935803" d="M273.633,194.778c2.307,4.84,13.74,29.601,19.441,41.96c-2.981,1.983-6.196,3.836-9.537,5.505
				l-17.584-44.008C268.64,197.091,271.189,195.907,273.633,194.778z"/>
			<path fill="#935803" d="M296.11,189.044c17.093,3.201,20.164,21.016,11.554,34.077c-1.865,2.829-4.474,5.65-7.601,8.348
				l-18.484-40.173C286.674,189.301,291.401,188.163,296.11,189.044z"/>
			<path fill="#935803" d="M24.172,229.554c7.738-10.088,22.421-29.183,29.312-37.823c2.557,1.411,5.276,2.74,8.19,3.916
				l-26.919,40.365C31.147,234.143,27.574,231.957,24.172,229.554z"/>
			<path fill="#935803" d="M9.763,216.818c8.158-9.463,23.519-27.268,29.545-34.158c2.305,1.564,4.709,3.229,7.26,4.889
				l-29.663,36.315C14.292,221.591,11.882,219.221,9.763,216.818z"/>
			<path fill="#935803" d="M2.464,205.953c-6.339-14.303-0.371-31.367,17.016-31.705c4.12-0.08,8.005,1.316,12,3.494L4.186,209.268
				C3.529,208.153,2.948,207.046,2.464,205.953z"/>
			<path fill="#935803" d="M137.662,380.098l-50.926-8.111c0.581-2.947,1.225-5.881,1.904-8.754
				c14.471,2.046,40.156,5.653,50.373,6.935C138.64,373.365,138.194,376.706,137.662,380.098z"/>
			<path fill="#935803" d="M126.838,415.783c-10.532,17.331-37.924,12-42.108-9.947c-0.417-2.191-0.654-4.582-0.746-7.114
				c12.523,2.24,35.186,6.285,47.027,8.341C129.782,410.263,128.4,413.213,126.838,415.783z"/>
			<path fill="#935803" d="M134.092,397.438l-49.958-6.727c0.227-3.446,0.642-7.038,1.194-10.682
				c14.663,2.628,40.069,7.181,50.716,9.082C135.465,391.929,134.818,394.723,134.092,397.438z"/>
			<path fill="#935803" d="M219.332,366.713l-50.894,12.881c-0.685-2.948-1.297-5.884-1.844-8.747
				c14.086-3.827,40.088-10.917,49.952-13.772C217.519,360.185,218.463,363.419,219.332,366.713z"/>
			<path fill="#935803" d="M223.115,403.864c-3.385,19.996-30.107,25.997-42.615,7.484c-1.27-1.88-2.454-3.975-3.559-6.226
				c12.464-2.902,35.164-8.199,46.806-10.974C223.816,397.569,223.627,400.836,223.115,403.864z"/>
			<path fill="#935803" d="M222.903,384.044l-49.121,13.699c-1.229-3.274-2.333-6.726-3.323-10.248
				c14.629-3.402,40.61-9.443,50.981-11.864C222.024,378.45,222.52,381.266,222.903,384.044z"/>
			<path fill="#FFFFFF" d="M184.214,42.159c-10.513,0.314-17.812,6.51-18.642,19.095c-0.891,13.517,8.259,22.872,23.628,19.951
				c14.713-2.796,16.707-14.25,15.812-20.558C203.671,51.201,196.447,41.794,184.214,42.159z"/>
			<path fill="#4B4B4A" d="M184.097,50.279c-6.212,0.186-10.526,3.846-11.016,11.284c-0.526,7.987,5.065,14.173,14.146,12.446
				c8.694-1.653,9.689-9.077,9.16-12.805C195.595,55.622,191.326,50.063,184.097,50.279z"/>
			<path fill="#533911" d="M145.541,75.814c-10.021,0.412-21.262,2.324-21.538,16.903c-0.255,13.515,7.748,18.709,22.502,18.335
				c15.175-0.385,21.535-5.879,21.207-17.854C167.39,81.452,154.846,75.432,145.541,75.814z"/>
			<path fill="#533911" d="M152.42,139.168c23.288-2.097,26.321-21.642,26.35-21.847c0.198-1.403-0.779-2.7-2.182-2.898
				c-1.403-0.2-2.695,0.775-2.898,2.172c-0.106,0.708-2.812,16.899-23.975,17.6c-23.519,0.783-29.231-17.781-29.462-18.572
				c-0.397-1.357-1.819-2.138-3.176-1.747c-1.358,0.394-2.143,1.807-1.754,3.166c0.066,0.232,6.956,23.199,34.563,22.281
				C150.756,139.293,151.601,139.242,152.42,139.168z"/>
			<path fill="#ED9EC3" d="M209.345,89.695c-14.203,0.424-23.699,9.763-24.82,26.766c-1.204,18.262,12.17,31.891,32.934,27.944
				c19.876-3.778,23.178-20.485,21.571-30.153C236.668,100.03,225.872,89.202,209.345,89.695z"/>
			<path fill="#ED9EC3" d="M80.027,94.713c-14.203,0.424-23.699,9.763-24.82,26.766c-1.204,18.262,12.17,31.891,32.934,27.944
				c19.876-3.778,23.178-20.485,21.571-30.153C107.349,105.048,96.553,94.22,80.027,94.713z"/>
			<path fill="#935803" d="M147.528,218.663c-7.902,0.297-16.759,1.854-16.903,14.151c-0.134,11.399,6.204,15.82,17.839,15.578
				c11.967-0.249,16.955-4.852,16.637-14.955C164.79,223.528,154.866,218.387,147.528,218.663z"/>
			<path fill="#935803" d="M149.291,286.372c7.643-0.584,16.161-2.447,15.798-14.594c-0.336-11.259-6.658-15.392-17.921-14.724
				c-11.584,0.686-16.229,5.415-15.508,15.378C132.367,282.204,142.193,286.914,149.291,286.372z"/>
			<path fill="#FFFFFF" d="M98.506,46.563c-10.513,0.314-17.812,6.51-18.642,19.095c-0.891,13.517,8.259,22.872,23.629,19.951
				c14.713-2.796,16.707-14.25,15.812-20.558C117.964,55.605,110.738,46.198,98.506,46.563z"/>
			<path fill="#4B4B4A" d="M99.453,55.195c-6.212,0.186-10.526,3.846-11.016,11.284c-0.526,7.987,5.065,14.173,14.146,12.446
				c8.694-1.653,9.689-9.077,9.16-12.805C110.951,60.538,106.682,54.978,99.453,55.195z"/>
		</g>
		<g id="Layer_1_160_">
		</g>
	</g>
	<g id="Layer_1_155_">
	</g>
</g>
<g id="Layer_1">
</g>
</svg>
