<?xml version="1.0" encoding="utf-8"?>
<!-- Generator: Adobe Illustrator 27.1.1, SVG Export Plug-In . SVG Version: 6.00 Build 0)  -->
<svg version="1.1" xmlns="http://www.w3.org/2000/svg" xmlns:xlink="http://www.w3.org/1999/xlink" x="0px" y="0px"
	 viewBox="0 0 2281.88 979.733" enable-background="new 0 0 2281.88 979.733" xml:space="preserve">
<g id="tile_x5F_wall">
	<g>
		<path fill="#B2B2B2" d="M2114.58,1.999H3.189c0,0-2.077,1049.784,0,1055.952s71.969,72.55,78.161,73.58
			c5.939,0.988,2020.619,0.081,2185.153,0.005c5.889-0.003,10.656-4.786,10.656-10.685V158.416L2114.58,1.999z"/>
		<path fill="#A5152A" d="M0,139.54c0,7.023,99.194,67.669,115.201,67.669s-2.59-141.225-2.59-141.225L0,0C0,0,0,132.517,0,139.54z"
			/>
		<g id="square_x5F_1_x5F_white">
			<path fill="#911C27" d="M322.332,186.784c-1.205,15.072-2.327,18.631-20.093,20.949c-9.32,1.216-163.736,3.009-187.029-0.524
				c-15.979-3.532-21.656-8.358-24.146-18.158c-2.532-12.496-4.494-103.482,3.299-120.512c4.327-11.968,16.799-9.401,32.25-11.419
				c29.157-2.775,132.379-1.794,166.529,1.486c24.651,2.712,24.533-0.623,28.04,9.708
				C324.191,80.057,329.112,158.274,322.332,186.784z"/>
		</g>
		<path fill="#FF4035" d="M219.362,0C211.425,0,0.009,0,0.009,0c-1.036,5.772,92.332,57.971,92.332,57.971
			c3.813,2.394,8.222,3.663,12.722,3.663h213.096C318.158,61.634,227.299,0,219.362,0z"/>
		<path fill="#A5152A" d="M808.803,64.886c-4.126-10.331-19.538-5.409-48.542-8.121L348.59,61.634
			c-2.416,37.045,0.171,92.407,0,122.325c0,14.112,6.886,18.907,27.141,18.907c105.009,4.343,399.884-1.575,408.751-2.559
			c20.902-2.318,24.485-1.672,25.673-20.948C812.41,138.236,811.394,95.882,808.803,64.886z"/>
		<path fill="#A5152A" d="M1298.854,64.886c-4.126-10.331-19.538-5.409-48.542-8.121l-411.671,4.869
			c-2.415,37.045,0.171,92.407,0,122.325c0,14.112,6.886,18.907,27.141,18.907c105.01,4.343,399.883-1.575,408.751-2.559
			c20.902-2.318,24.485-1.672,25.673-20.948C1302.461,138.236,1301.445,95.882,1298.854,64.886z"/>
		<path fill="#911C27" d="M1787.678,64.886c-4.126-10.331-19.538-5.409-48.542-8.121l-411.671,4.869
			c-2.415,37.045,0.172,92.407,0,122.325c0,14.112,6.886,18.907,27.141,18.907c105.01,4.343,399.884-1.575,408.751-2.559
			c20.902-2.318,24.485-1.672,25.673-20.948C1791.286,138.236,1790.27,95.882,1787.678,64.886z"/>
		<path fill="#A5152A" d="M2276.503,64.886c-4.126-10.331-19.538-5.409-48.542-8.121l-411.671,4.869
			c-2.415,37.045,0.172,92.407,0,122.325c0,14.112,6.886,18.907,27.141,18.907c105.01,4.343,399.884-1.575,408.751-2.559
			c20.902-2.318,24.485-1.672,25.673-20.948C2280.111,138.236,2279.094,95.882,2276.503,64.886z"/>
		<path fill="#FF4035" d="M1198.766,0h-450.87c-1.668,0-2.305,2.179-0.902,3.081l91.12,58.553l455.814-1.86l-88.91-57.938
			C1203.153,0.637,1200.983,0,1198.766,0z"/>
		<path fill="#FF4035" d="M1687.449,0H1235.29c-1.039,0-1.436,1.357-0.562,1.919l92.928,59.715l456.969-0.872l-89.341-58.461
			C1692.946,0.799,1690.227,0,1687.449,0z"/>
		<path fill="#FF4035" d="M2181.246,0h-451.983c-2.336,0-3.229,3.052-1.263,4.316l88.291,57.318l455.792-1.578
			C2272.083,60.056,2200.232,0,2181.246,0z"/>
		<path fill="#FF4035" d="M708.178,0h-449.46c-1.774,0-2.453,2.318-0.959,3.278l90.813,58.356l456.631-1.437L716.358,2.402
			C713.917,0.834,711.078,0,708.178,0z"/>
		<path fill="#A5152A" d="M0,302.847c0,4.309,93.8,64.306,109.807,64.306l1.641-136.044C96,229.844,0,160.437,0,163.307
			S0,298.538,0,302.847z"/>
		<path fill="#911C27" d="M557.473,245.144c-4.126-9.2-5.567-12.894-34.571-15.309c-37.626-2.735-362.208-2.005-395.587,0
			c-21.797,1.797-27.879,0.664-30.055,12.413c-2.415,32.99,0.171,82.292,0,108.935c0,12.567,6.886,17.837,27.141,17.837
			c105.009,3.867,399.884,0.876,408.751,0c20.902-2.064,24.485-4.767,25.673-21.934C561.08,310.466,560.064,272.747,557.473,245.144
			z"/>
		<path fill="#911C27" d="M590.742,355.195c4.126,9.2,5.567,12.894,34.571,15.309c37.626,2.735,362.208,2.005,395.587,0
			c21.797-1.797,27.879-0.664,30.054-12.413c2.416-32.99-0.171-82.292,0-108.935c0-12.567-6.886-17.837-27.141-17.837
			c-105.009-3.867-399.884-0.876-408.751,0c-20.902,2.064-24.485,4.767-25.673,21.934
			C587.135,289.874,588.151,327.592,590.742,355.195z"/>
		<path fill="#A5152A" d="M1538.934,245.144c-4.126-9.2-5.567-12.894-34.571-15.309c-37.626-2.735-362.208-2.005-395.587,0
			c-21.797,1.797-27.879,0.664-30.054,12.413c-2.416,32.99,0.171,82.292,0,108.935c0,12.567,6.886,17.837,27.141,17.837
			c105.01,3.867,399.884,0.876,408.751,0c20.902-2.064,24.485-4.767,25.673-21.934
			C1542.542,310.466,1541.525,272.747,1538.934,245.144z"/>
		<path fill="#A5152A" d="M2028.477,246.484c-4.126-9.2-5.567-12.894-34.571-15.309c-37.626-2.735-362.208-2.005-395.587,0
			c-21.797,1.797-27.879,0.664-30.054,12.413c-2.416,32.99,0.171,82.292,0,108.935c0,12.567,6.886,17.837,27.141,17.837
			c105.01,3.867,399.884,0.876,408.751,0c20.902-2.064,24.485-4.767,25.673-21.934
			C2032.084,311.806,2031.068,274.087,2028.477,246.484z"/>
		<g id="square_x5F_1_x5F_white_00000070822846268133003460000015638241467328300721_">
			<path fill="#A5152A" d="M2279.493,355.234c-1.128,15.072-6.171,18.631-22.807,20.949c-8.728,1.216-153.322,3.009-175.134-0.524
				c-14.963-3.532-20.279-8.358-22.61-18.158c-2.371-12.496-4.208-103.482,3.089-120.512c4.052-11.968,15.73-9.401,30.199-11.419
				c27.302-2.775,130.945-3.794,162.924-0.514c23.083,2.712,23.083,2.712,23.263,11.707
				C2281.234,248.506,2282.686,335.365,2279.493,355.234z"/>
		</g>
		<path fill="#A5152A" d="M0,477.795c0,4.772,97.047,66.33,113.054,66.33l-8.82-145.076c0,0-104.234-64.833-104.234-60.793
			S0,473.023,0,477.795z"/>
		<g id="square_x5F_1_x5F_white_00000181067585674771628060000015264323187178828948_">
			<path fill="#911C27" d="M325.512,525.04c-1.205,15.072-2.327,18.631-20.093,20.948c-9.32,1.216-163.736,3.009-187.029-0.524
				c-15.979-3.532-21.656-8.358-24.146-18.158c-2.532-12.496-4.494-103.482,3.299-120.512c4.327-11.968,16.799-9.401,32.25-11.419
				c29.157-2.775,132.379-1.794,166.529,1.486c24.651,2.712,24.533-0.623,28.04,9.708
				C327.371,418.312,332.292,496.529,325.512,525.04z"/>
		</g>
		<path fill="#A5152A" d="M0,812.052c0,4.967,95.626,65.79,111.633,65.79L108.291,731C108.291,731,0,664.749,0,672.512
			S0,807.084,0,812.052z"/>
		<g id="square_x5F_1_x5F_white_00000126309220235072524030000005156733242703630464_">
			<path fill="#911C27" d="M323.625,859.296c-1.205,15.072-2.327,18.631-20.093,20.948c-9.32,1.216-163.736,3.009-187.029-0.524
				c-15.979-3.532-21.656-8.358-24.146-18.158c-2.532-12.496-4.494-103.482,3.299-120.512c4.327-11.968,16.259-10.538,32.25-11.419
				c29.157-2.775,132.379-1.794,166.529,1.486c24.651,2.712,24.533-0.623,28.04,9.708
				C325.485,752.569,330.406,830.786,323.625,859.296z"/>
		</g>
		<path fill="#911C27" d="M809.82,412.937c-4.126-9.2-5.567-12.894-34.571-15.309c-37.626-2.735-362.208-2.005-395.587,0
			c-21.797,1.797-27.879,0.664-30.055,12.413c-2.415,32.99,0.171,82.292,0,108.935c0,12.567,6.886,17.837,27.141,17.837
			c105.009,3.867,399.884,0.876,408.751,0c20.902-2.064,24.485-4.767,25.673-21.934C813.428,478.258,812.411,440.54,809.82,412.937z
			"/>
		<path fill="#A5152A" d="M841.546,521.646c4.126,9.2,5.567,12.894,34.571,15.309c37.626,2.735,362.208,2.005,395.587,0
			c21.797-1.797,27.879-0.664,30.055-12.413c2.415-32.99-0.172-82.292,0-108.935c0-12.567-6.886-17.837-27.141-17.837
			c-105.01-3.867-399.884-0.876-408.751,0c-20.902,2.064-24.485,4.767-25.673,21.934
			C837.939,456.325,838.955,494.043,841.546,521.646z"/>
		<path fill="#A5152A" d="M1789.738,412.937c-4.126-9.2-5.567-12.894-34.571-15.309c-37.626-2.735-362.208-2.005-395.587,0
			c-21.797,1.797-27.879,0.664-30.054,12.413c-2.416,32.99,0.171,82.292,0,108.935c0,12.567,6.886,17.837,27.141,17.837
			c105.01,3.867,399.884,0.876,408.751,0c20.902-2.064,24.485-4.767,25.673-21.934
			C1793.346,478.258,1792.329,440.54,1789.738,412.937z"/>
		<path fill="#911C27" d="M2279.281,412.937c-4.126-9.2-5.567-12.894-34.571-15.309c-37.626-2.735-362.208-2.005-395.587,0
			c-21.797,1.797-27.88,0.664-30.055,12.413c-2.416,32.99,0.171,82.292,0,108.935c0,12.567,6.886,17.837,27.141,17.837
			c105.009,3.867,399.884,0.876,408.751,0c20.902-2.064,24.485-4.767,25.673-21.934
			C2282.888,478.258,2281.872,440.54,2279.281,412.937z"/>
		<path fill="#911C27" d="M584.979,689.242c4.126,9.2,5.567,12.894,34.571,15.309c37.626,2.735,362.208,2.005,395.587,0
			c21.797-1.797,27.879-0.664,30.055-12.413c2.415-32.99-0.172-82.292,0-108.935c0-12.567-6.886-17.837-27.141-17.837
			c-105.009-3.867-399.884-0.876-408.751,0c-20.902,2.064-24.485,4.767-25.673,21.934
			C581.372,623.921,582.388,661.639,584.979,689.242z"/>
		<path fill="#A5152A" d="M1533.171,579.192c-4.126-9.2-5.567-12.894-34.571-15.309c-37.626-2.735-362.208-2.005-395.587,0
			c-21.797,1.797-27.879,0.664-30.054,12.413c-2.416,32.99,0.171,82.292,0,108.935c0,12.567,6.886,17.837,27.141,17.837
			c105.01,3.867,399.884,0.876,408.751,0c20.902-2.064,24.485-4.767,25.673-21.934
			C1536.779,644.513,1535.762,606.795,1533.171,579.192z"/>
		<path fill="#911C27" d="M2022.714,580.531c-4.126-9.2-5.567-12.894-34.571-15.309c-37.626-2.735-362.208-2.005-395.587,0
			c-21.797,1.797-27.88,0.664-30.055,12.413c-2.416,32.99,0.171,82.292,0,108.935c0,12.567,6.886,17.837,27.141,17.837
			c105.009,3.867,399.884,0.876,408.751,0c20.902-2.064,24.485-4.767,25.673-21.934
			C2026.321,645.853,2025.305,608.135,2022.714,580.531z"/>
		<g id="square_x5F_1_x5F_white_00000060717429915043401430000012380887209292655531_">
			<path fill="#911C27" d="M2277.958,689.281c-1.128,15.072-6.171,18.631-22.807,20.948c-8.728,1.216-153.322,3.009-175.134-0.524
				c-14.963-3.532-20.279-8.358-22.61-18.158c-2.371-12.496-4.208-103.482,3.089-120.512c4.052-11.968,15.73-9.401,30.199-11.419
				c27.302-2.775,130.945-3.793,162.923-0.514c23.083,2.712,23.083,2.712,23.263,11.707
				C2279.699,582.553,2281.151,669.412,2277.958,689.281z"/>
		</g>
		<path fill="#A5152A" d="M0,638.67c0,0,93.8,64.306,109.807,64.306l3.808-136.697C98.167,565.015,0,499.131,0,499.131V638.67z"/>
		<path fill="#911C27" d="M557.473,580.532c-4.126-9.2-5.567-12.894-34.571-15.309c-37.626-2.735-362.208-2.005-395.587,0
			c-21.797,1.797-27.879,0.664-30.055,12.413c-2.415,32.99,0.171,82.292,0,108.935c0,12.567,6.886,17.837,27.141,17.837
			c105.009,3.867,399.884,0.876,408.751,0c20.902-2.064,24.485-4.767,25.673-21.934C561.08,645.854,560.064,608.135,557.473,580.532
			z"/>
		<path fill="#911C27" d="M589.199,1029.795c4.126,9.2,5.567,12.894,34.571,15.309c37.626,2.735,362.208,2.005,395.587,0
			c21.797-1.797,27.879-0.664,30.055-12.413c2.416-32.99-0.171-82.292,0-108.935c0-12.567-6.886-17.837-27.141-17.837
			c-105.009-3.867-399.884-0.876-408.751,0c-20.902,2.064-24.485,4.767-25.673,21.934
			C585.591,964.474,586.608,1002.192,589.199,1029.795z"/>
		<path fill="#911C27" d="M1537.391,921.086c-4.126-9.2-5.567-12.894-34.571-15.309c-37.626-2.735-362.208-2.005-395.587,0
			c-21.797,1.797-27.88,0.664-30.055,12.413c-2.416,32.99,0.171,82.292,0,108.935c0,12.567,6.886,17.837,27.141,17.837
			c105.009,3.867,399.884,0.876,408.751,0c20.902-2.064,24.485-4.767,25.673-21.934
			C1540.998,986.407,1539.982,948.689,1537.391,921.086z"/>
		<path fill="#A5152A" d="M2026.933,921.086c-4.126-9.2-5.567-12.894-34.571-15.309c-37.626-2.735-362.208-2.005-395.587,0
			c-21.797,1.797-27.879,0.664-30.055,12.413c-2.415,32.99,0.172,82.292,0,108.935c0,12.567,6.886,17.837,27.141,17.837
			c105.01,3.867,399.884,0.876,408.751,0c20.902-2.064,24.485-4.767,25.673-21.934
			C2030.541,986.407,2029.524,948.689,2026.933,921.086z"/>
		<g id="square_x5F_1_x5F_white_00000174569858596045824780000010291298270028448698_">
			<path fill="#911C27" d="M2277.949,1024.395c-1.128,15.072-6.171,18.631-22.807,20.948c-8.728,1.216-153.322,3.009-175.134-0.524
				c-14.963-3.532-20.279-8.358-22.61-18.158c-2.371-12.496-4.208-103.482,3.089-120.512c4.052-11.968,15.73-9.401,30.199-11.419
				c27.302-2.775,130.945-3.794,162.923-0.514c23.083,2.712,23.083,2.712,23.263,11.707
				C2279.69,917.668,2281.142,1004.526,2277.949,1024.395z"/>
		</g>
		<path fill="#A5152A" d="M0,978.788c0,5.316,93.8,64.306,109.807,64.306l2.804-136.166C97.163,905.663,0,835.795,0,839.249
			S0,973.473,0,978.788z"/>
		<path fill="#911C27" d="M557.473,921.086c-4.126-9.2-5.567-12.894-34.571-15.309c-37.626-2.735-362.208-2.005-395.587,0
			c-21.797,1.797-27.879,0.664-30.055,12.413c-2.415,32.99,0.171,82.292,0,108.935c0,12.567,6.886,17.837,27.141,17.837
			c105.009,3.867,399.884,0.876,408.751,0c20.902-2.064,24.485-4.767,25.673-21.934C561.08,986.407,560.064,948.689,557.473,921.086
			z"/>
		<path fill="#A5152A" d="M809.82,747.619c-4.126-9.2-5.567-12.894-34.571-15.309c-37.626-2.735-362.208-2.005-395.587,0
			c-21.797,1.797-27.879,0.664-30.055,12.413c-2.415,32.99,0.171,82.292,0,108.935c0,12.567,6.886,17.837,27.141,17.837
			c105.009,3.867,399.884,0.876,408.751,0c20.902-2.064,24.485-4.767,25.673-21.934C813.428,812.941,812.411,775.222,809.82,747.619
			z"/>
		<path fill="#A5152A" d="M841.546,856.329c4.126,9.2,5.567,12.894,34.571,15.309c37.626,2.735,362.208,2.005,395.587,0
			c21.797-1.797,27.879-0.664,30.055-12.413c2.415-32.99-0.172-82.292,0-108.935c0-12.567-6.886-17.837-27.141-17.837
			c-105.01-3.867-399.884-0.876-408.751,0c-20.902,2.064-24.485,4.767-25.673,21.934
			C837.939,791.008,838.955,828.726,841.546,856.329z"/>
		<path fill="#A5152A" d="M1789.738,747.619c-4.126-9.2-5.567-12.894-34.571-15.309c-37.626-2.735-362.208-2.005-395.587,0
			c-21.797,1.797-27.879,0.664-30.054,12.413c-2.416,32.99,0.171,82.292,0,108.935c0,12.567,6.886,17.837,27.141,17.837
			c105.01,3.867,399.884,0.876,408.751,0c20.902-2.064,24.485-4.767,25.673-21.934
			C1793.346,812.941,1792.329,775.222,1789.738,747.619z"/>
		<path fill="#911C27" d="M2279.281,747.619c-4.126-9.2-5.567-12.894-34.571-15.309c-37.626-2.735-362.208-2.005-395.587,0
			c-21.797,1.797-27.88,0.664-30.055,12.413c-2.416,32.99,0.171,82.292,0,108.935c0,12.567,6.886,17.837,27.141,17.837
			c105.009,3.867,399.884,0.876,408.751,0c20.902-2.064,24.485-4.767,25.673-21.934
			C2282.888,812.941,2281.872,775.222,2279.281,747.619z"/>
	</g>
	<g id="Layer_1_00000047025989810800701190000004306651982078231210_">
	</g>
</g>
<g id="Layer_1">
</g>
</svg>
