<?xml version="1.0" encoding="utf-8"?>
<!-- Generator: Adobe Illustrator 27.1.1, SVG Export Plug-In . SVG Version: 6.00 Build 0)  -->
<svg version="1.1" xmlns="http://www.w3.org/2000/svg" xmlns:xlink="http://www.w3.org/1999/xlink" x="0px" y="0px"
	 viewBox="0 0 272.114 439.3" enable-background="new 0 0 272.114 439.3" xml:space="preserve">
<g id="toilet">
	<g>
		<path fill="#FFE400" d="M107.558,6.043c-4.303-6.831-13.387-7.306-20.875-4.224c-5.603,2.306-11.925,11.004-7.38,21.325
			c4.584,10.409,18.899,10.079,24.628,5.133C111.153,22.041,111.092,11.653,107.558,6.043z"/>
		<path fill-rule="evenodd" clip-rule="evenodd" fill="#FFFFFF" d="M3.056,185.832c1.443,14.091,5.534,44.133,35.068,48.177
			c29.534,4.043,145.701,28.195,145.701-57.425c0-23.812,2.595-87.78,1.219-108.435c-1.375-20.655-6.058-44.635-36.609-48.94
			c-30.552-4.307-78.695-2.404-97.741-1.489C23.161,19.044,6.271,28.093,3.002,56.359C-0.267,84.624-1.694,139.411,3.056,185.832"/>
		<path fill-rule="evenodd" clip-rule="evenodd" fill="#FFFFFF" d="M33.224,250.202c-11.788,59.451,48.364,93.703,35.892,110.881
			C40.723,400.191,52.509,439.3,52.509,439.3H222.56c0-59.566-87.665-69.139-31.29-104.241
			c46.067-28.683,71.641-23.575,71.641-88.359L33.224,250.202z"/>
		<path fill-rule="evenodd" clip-rule="evenodd" fill="#A45700" d="M272.114,246.7c0,20.318-41.026,27.05-152.569,27.05
			c-60.593,0-97.382-12.624-97.382-27.05c0-24.886,45.805-36.789,116.841-36.789C231.714,209.912,272.114,226.383,272.114,246.7z"/>
		<path fill-rule="evenodd" clip-rule="evenodd" fill="#B6F4F8" d="M233.986,239.884c0,9.183-28.51,12.226-106.022,12.226
			c-42.107,0-67.672-5.706-67.672-12.226c0-11.248,31.831-16.628,81.195-16.628C205.911,223.257,233.986,230.701,233.986,239.884z"
			/>
		<path fill-rule="evenodd" clip-rule="evenodd" fill="#B6F4F8" d="M1.744,69.799l183.003-5.504
			c-0.107-1.204-0.232-2.414-0.375-3.626H2.541C2.257,63.511,1.99,66.562,1.744,69.799z"/>
	</g>
</g>
<g id="Layer_1">
</g>
</svg>
