<?xml version="1.0" encoding="utf-8"?>
<!-- Generator: Adobe Illustrator 24.2.3, SVG Export Plug-In . SVG Version: 6.00 Build 0)  -->
<svg version="1.1" xmlns="http://www.w3.org/2000/svg" xmlns:xlink="http://www.w3.org/1999/xlink" x="0px" y="0px"
	 viewBox="0 0 349.937 168.649" enable-background="new 0 0 349.937 168.649" xml:space="preserve">
<g id="tower_x5F_letter_x5F_e_x5F_block_x5F_white">
	<g>
		<g id="Palikka_x5F_muuri_1_">
			<path fill="#FFFFFF" d="M340.494,160.705c-13.911,8.943-310.014,10.433-318.459,3.974C13.589,158.22-1.812,20.106,0.175,13.15
				S54.243,2.009,73.704,7.685C85.628,11.163,79.22,56.26,87.118,59.85c4.51,2.05,37.74,2.071,47.694-0.497
				c3.502-0.903,0-48.191,6.459-54.153c6.459-5.962,58.624-7.452,67.567-0.994s3.803,53.656,10.262,56.141
				c6.459,2.484,29.981,4.471,48.363-0.994c4.518-1.343,2.484-48.688,5.962-54.65s65.58-4.968,73.032,1.491
				c2.63,2.279,3.548,22.756,3.478,46.7C349.804,96.799,345.96,155.883,340.494,160.705z"/>
		</g>
		<g id="Layer_1_61_">
		</g>
	</g>
</g>
<g id="Layer_1">
</g>
</svg>
