<?xml version="1.0" encoding="utf-8"?>
<!-- Generator: Adobe Illustrator 27.1.1, SVG Export Plug-In . SVG Version: 6.00 Build 0)  -->
<svg version="1.1" xmlns="http://www.w3.org/2000/svg" xmlns:xlink="http://www.w3.org/1999/xlink" x="0px" y="0px"
	 viewBox="0 0 653.439 757.361" enable-background="new 0 0 653.439 757.361" xml:space="preserve">
<g id="tractor_x5F_cabin">
	<g>
		<path fill-rule="evenodd" clip-rule="evenodd" fill="#31D8E2" d="M584.328,110.029C580.77,79.136,570.818,13.285,501.88,4.794
			c-68.938-8.49-262.7-4.223-299.367,1.417c-50.636,7.788-70.448,16.993-86.176,80.622c-12.567,50.843-44.547,207.45-41.056,252.743
			c3.49,45.294,11.766,82.639,83.081,91.69c71.315,9.055,279.076,0.952,323.484-1.3c64.198-3.26,103.468-23.327,110.706-85.377
			C599.791,282.542,596.041,211.801,584.328,110.029"/>
		<path fill-rule="evenodd" clip-rule="evenodd" fill="#00759C" d="M491.526,136.435c-2.202-19.114-10.024-59.858-52.678-65.111
			c-42.653-5.253-119.578-3.932-142.022,0.877c-22.444,4.81-44.393,11.921-54.885,51.116
			c-8.32,31.082-25.787,120.555-23.627,148.579c2.159,28.025,0.772,57.092,44.896,62.692c44.124,5.602,138.723,3.668,166.199,2.275
			c39.721-2.017,64.018-14.433,68.496-52.824C502.384,245.648,498.773,199.403,491.526,136.435"/>
		<path fill-rule="evenodd" clip-rule="evenodd" fill="#00759C" d="M162.487,291.129c4.253-37.606,19.83-122.882,14.572-171.52
			c-1.747-16.159-20.297-46.226-53.598-58.75c-56.264,194.455-48.88,282.287-48.716,284.074
			C125.552,341.31,158.099,329.931,162.487,291.129z"/>
	</g>
	<path fill-rule="evenodd" clip-rule="evenodd" fill="#FF4035" d="M143.703,415.071c-43.393,2.437-127.284,14.647-139.025,98.271
		c-11.74,83.624-10.935,237.452,120.18,241.052c73.021,2.005,313.903,4.782,377.356,1.333
		c72.602-3.946,163.506,8.365,149.85-211.392c-4.837-77.843-37.829-123.446-125.024-127.937
		C420.024,410.886,250.693,409.063,143.703,415.071z"/>
</g>
<g id="Layer_1">
</g>
</svg>
