<?xml version="1.0" encoding="utf-8"?>
<!-- Generator: Adobe Illustrator 26.4.1, SVG Export Plug-In . SVG Version: 6.00 Build 0)  -->
<svg version="1.1" xmlns="http://www.w3.org/2000/svg" xmlns:xlink="http://www.w3.org/1999/xlink" x="0px" y="0px"
	 viewBox="0 0 577.099 325.075" enable-background="new 0 0 577.099 325.075" xml:space="preserve">
<g id="trampoline">
	<path fill="#4A4A49" d="M462.457,212.303c7.478,29.968,24.236,58.524,42.967,83.289c3.046,4.027,6.289,8.329,6.82,13.388
		c0.993,9.462-8.641,16.78-17.582,16.043c-8.941-0.737-16.742-7.064-23.28-13.793c-22-22.648-36.043-53.402-40.147-85.132
		L462.457,212.303z"/>
	<path fill="#4A4A49" d="M527.242,155.986c7.478,29.968,24.236,58.524,42.967,83.289c3.046,4.027,6.289,8.329,6.82,13.388
		c0.993,9.462-8.641,16.78-17.582,16.043c-8.941-0.737-16.742-7.064-23.28-13.793c-22-22.648-36.043-53.402-40.147-85.132
		L527.242,155.986z"/>
	<path fill="#4A4A49" d="M49.857,155.986c-7.478,29.968-24.235,58.524-42.967,83.289c-3.046,4.027-6.289,8.329-6.82,13.388
		c-0.993,9.462,8.641,16.78,17.582,16.043s16.742-7.064,23.28-13.793c22-22.648,36.043-53.402,40.147-85.132L49.857,155.986z"/>
	<path fill="#4A4A49" d="M121.095,212.303c-7.478,29.968-24.235,58.524-42.967,83.289c-3.046,4.027-6.289,8.329-6.82,13.388
		c-0.993,9.462,8.641,16.78,17.582,16.043s16.742-7.064,23.28-13.793c22-22.648,36.043-53.402,40.147-85.132L121.095,212.303z"/>
	<path fill="#4A4A49" d="M16.562,98.09c0,0-11.442,56.776,32.411,86.319c34.102,22.974,95.049,60.604,236.302,60.878
		c129.754,0.252,169.244-17.795,210.536-35.951c65.087-28.62,69.626-93.951,69.626-93.951L16.562,98.09z"/>
	<path id="XMLID_00000039098888738093462620000006584011024918058671_" fill="#0EB800" d="M278.444,224.907
		c-55.996-2.237-113.676-8.895-160.011-24.019c-41.819-13.65-71.847-33.163-88.02-53.803
		c-35.264-45.004-8.914-97.953,78.684-125.649C153.917,7.265,212.757,0.599,269.9-0.938c58.087-1.562,120.306,2.352,173.309,14.98
		c107.173,25.534,138.678,84.245,114.646,128.993c-13.552,25.234-45.813,49.216-95.903,64.102
		C410.151,222.531,343.192,226.795,278.444,224.907C244.857,223.565,295.697,225.41,278.444,224.907z"/>
	<polygon fill="#B5D700" points="249.173,-0.152 270.139,24.194 290.834,-1.256 308.284,23.4 323.274,-0.768 337.186,24.444 
		354.967,0.963 368.203,25.565 390.804,4.603 396.585,31.233 424.47,10.01 430.497,38.958 457.442,17.749 456.283,49.836 
		496.414,30.196 481.712,69.921 540.564,61.13 493.929,98.981 565.15,107.583 487.965,121.928 552.658,151.351 465.911,144.812 
		502.507,191.33 422.481,164.931 443.666,211.969 383.324,173.618 387.314,219.464 335.116,179.453 322.193,225.19 284.363,177.584 
		260.841,222.974 230.162,173.909 200.846,218.549 181.664,166.333 135.813,206.034 141.912,153.815 80.819,180.56 101.377,125.976 
		24.774,138.971 90.194,93.064 20.209,84.533 98.406,69.165 65.98,39.633 122.934,54.522 109.097,21.436 150.06,41.27 
		153.169,10.577 187.738,32.106 201.088,3.568 231.581,26.684 	"/>
	<path id="XMLID_00000153685537246011087150000007052172961333693313_" fill="#FFE400" d="M280.706,177.487
		c-3.596-0.143-6.011-0.241-7.519-0.304l0.002-0.033c-46.697-2.276-84.039-7.62-110.988-15.884
		c-27.065-8.3-48.667-20.833-60.825-35.291c-27.608-32.829-4.2-69.373,55.658-86.893c29.852-8.738,74.052-14.179,124.457-15.321
		c15.002-0.34,29.868-0.25,44.182,0.267c33.224,1.2,62.46,4.59,86.895,10.077c39.896,8.958,59.621,24.421,69.143,35.816
		c13.603,16.277,15.881,35.233,6.253,52.008c-10.848,18.9-36.159,34.989-69.444,44.141c-41.787,11.491-97.972,12.552-137.746,11.42
		L280.706,177.487z"/>
</g>
<g id="Layer_1">
</g>
</svg>
