<?xml version="1.0" encoding="utf-8"?>
<!-- Generator: Adobe Illustrator 26.0.1, SVG Export Plug-In . SVG Version: 6.00 Build 0)  -->
<svg version="1.1" xmlns="http://www.w3.org/2000/svg" xmlns:xlink="http://www.w3.org/1999/xlink" x="0px" y="0px"
	 viewBox="0 0 660.931 344.4" enable-background="new 0 0 660.931 344.4" xml:space="preserve">
<g id="treasure_x5F_chest_x5F_orange">
	<g>
		<path fill="#FFA600" d="M0.265,12.437c0,0,278.259-20.393,659.33-8.952c0,0,9.401,128.627-21.662,327.864
			c0,0-370.927,28.378-606.038,1.442C31.895,332.791-3.383,82.033,0.265,12.437z"/>
		<path fill="#FFE400" d="M382.556,181.384c-3.064,10.543-10.693,15.034-18.986,16.62c-4.351,0.832-61.483,5.506-73.561-0.627
			c-7.156-4.025-12.344-12.344-13.507-19.053c-1.053-6.172-1.849-55.698,1.789-67.357c2.02-8.194,9.213-13.775,16.427-15.158
			c8.709-3.601,59.365-5.463,72.398-0.675c7.603,2.236,11.665,8.304,13.706,14.892C383.201,117.455,385.721,161.866,382.556,181.384
			z"/>
		<path fill="#FF8000" d="M0.265,12.437c-3.647,69.596,31.63,320.354,31.63,320.354c17.49,2.004,35.744,3.695,54.528,5.121V75.025
			l495.383-12.202l-12.202,272.924c42.428-2.418,68.329-4.399,68.329-4.399C668.996,132.112,659.594,3.485,659.594,3.485
			C278.524-7.956,0.265,12.437,0.265,12.437z"/>
		<path fill="#FF4035" d="M86.423,75.025H2.339c0,0-3.229-52.169-2.075-62.588l86.159-4.859V75.025z"/>
		<path fill="#FF4035" d="M581.806,62.823h79.102c0,0-0.191-38.35-1.314-59.338l-77.788-1.939V62.823z"/>
		<g>
			<path fill="#FF4035" d="M31.895,332.791c161.214,18.47,386.271,10.933,511.827,4.37c-2.906-25.814-11.366-68.48-57.188-66.934
				c-41.47,1.398-53.856,66.146-54.599,66.708c0,0-7.196-66.7-40.829-66.423c-39.088,0.322-49.808,38.177-52.723,57.534
				c-0.428-6.223-1.118-13.245-2.186-17.055c-9.084-40.722-41.371-47.698-69.291-34.108c-25.529,12.178-29.34,55.836-30.624,62.153
				c-2.718-25.562-10.451-70.394-57.396-68.81c-41.47,1.398-53.855,66.146-54.598,66.708c0,0-7.197-66.7-40.829-66.423
				c-36.868,0.304-48.507,36.537-52.157,58.028C31.685,331.3,31.895,332.791,31.895,332.791z"/>
			<path fill="#EA4238" d="M574.554,276.884c-23.717,11.313-28.687,49.778-30.304,60.25c57.253-2.998,93.683-5.784,93.683-5.784
				c1.438-9.226,2.789-18.298,4.058-27.215C630.955,269.526,600.824,264.096,574.554,276.884z"/>
		</g>
		<path fill="#005F8A" d="M354.511,186.276l-15.699-42.151c7.407-3.314,12.561-10.576,12.561-19.025
			c0-11.571-9.646-20.951-21.543-20.951c-11.898,0-21.544,9.38-21.544,20.951c0,8.685,5.434,16.134,13.176,19.311l-16.314,41.865
			H354.511z"/>
	</g>
</g>
<g id="Layer_1">
</g>
</svg>
