<?xml version="1.0" encoding="utf-8"?>
<!-- Generator: Adobe Illustrator 27.0.0, SVG Export Plug-In . SVG Version: 6.00 Build 0)  -->
<svg version="1.1" xmlns="http://www.w3.org/2000/svg" xmlns:xlink="http://www.w3.org/1999/xlink" x="0px" y="0px"
	 viewBox="0 0 446.797 232.818" enable-background="new 0 0 446.797 232.818" xml:space="preserve">
<g id="treasure_x5F_chest_x5F_white">
	<g>
		<g id="treasure_x5F_chest_x5F_orange_00000163765951947481438240000009825444438332064417_">
			<g>
				<path fill="#FFFFFF" d="M0.179,8.407c0,0,188.106-13.786,445.714-6.052c0,0,6.355,86.953-14.644,221.64
					c0,0-250.751,19.184-409.688,0.975C21.561,224.97-2.287,55.455,0.179,8.407z"/>
				<path fill="#B2B2B2" d="M258.612,122.618c-2.071,7.127-7.229,10.163-12.835,11.235c-2.941,0.562-41.563,3.722-49.728-0.424
					c-4.838-2.721-8.345-8.345-9.131-12.88c-0.712-4.172-1.25-37.652,1.209-45.534c1.366-5.539,6.228-9.312,11.105-10.247
					c5.887-2.434,40.131-3.693,48.942-0.456c5.14,1.512,7.886,5.614,9.265,10.067C259.048,79.401,260.751,109.423,258.612,122.618z"
					/>
				<path fill="#CAD2D3" d="M0.179,8.407C-2.287,55.455,21.561,224.97,21.561,224.97c11.823,1.355,24.163,2.498,36.862,3.462V50.718
					l334.884-8.249l-8.249,184.5c28.682-1.635,46.191-2.974,46.191-2.974C452.248,89.309,445.893,2.356,445.893,2.356
					C188.285-5.378,0.179,8.407,0.179,8.407z"/>
				<path fill="#B2B2B2" d="M58.423,50.718H1.581c0,0-2.183-35.267-1.403-42.31l58.244-3.285V50.718z"/>
				<path fill="#B2B2B2" d="M393.307,42.469h53.474c0,0-0.129-25.925-0.888-40.113l-52.586-1.311L393.307,42.469L393.307,42.469z"/>
				<g>
					<path fill="#B2B2B2" d="M21.561,224.97c108.982,12.486,261.123,7.391,346.001,2.954c-1.964-17.451-7.684-46.293-38.66-45.248
						c-28.034,0.945-36.407,44.715-36.91,45.095c0,0-4.865-45.09-27.601-44.903c-26.424,0.218-33.671,25.808-35.641,38.894
						c-0.289-4.207-0.756-8.954-1.478-11.529c-6.141-27.529-27.967-32.244-46.841-23.057c-17.258,8.232-19.834,37.746-20.702,42.016
						c-1.837-17.28-7.065-47.587-38.8-46.516c-28.034,0.945-36.407,44.715-36.909,45.095c0,0-4.865-45.09-27.601-44.903
						c-24.923,0.206-32.791,24.699-35.259,39.228C21.419,223.962,21.561,224.97,21.561,224.97z"/>
					<path fill="#B2B2B2" d="M388.405,187.177c-16.033,7.648-19.393,33.65-20.486,40.73c38.704-2.027,63.331-3.91,63.331-3.91
						c0.972-6.237,1.885-12.37,2.743-18.398C426.532,182.202,406.163,178.532,388.405,187.177z"/>
				</g>
				<path fill="#4A4A49" d="M239.653,125.925L229.04,97.43c5.007-2.24,8.491-7.149,8.491-12.861c0-7.822-6.521-14.163-14.563-14.163
					c-8.043,0-14.564,6.341-14.564,14.163c0,5.871,3.673,10.907,8.907,13.054l-11.028,28.301L239.653,125.925L239.653,125.925z"/>
			</g>
		</g>
	</g>
</g>
<g id="Layer_1">
</g>
</svg>
