<?xml version="1.0" encoding="utf-8"?>
<!-- Generator: Adobe Illustrator 24.2.3, SVG Export Plug-In . SVG Version: 6.00 Build 0)  -->
<svg version="1.1" xmlns="http://www.w3.org/2000/svg" xmlns:xlink="http://www.w3.org/1999/xlink" x="0px" y="0px"
	 viewBox="0 0 1365.195 434.352" enable-background="new 0 0 1365.195 434.352" xml:space="preserve">
<g id="triangle_x5F_flags">
	<g>
		<path fill="#54BDCF" d="M892.677,308.503c0,0-20.011,2.059-43.706,10.104c-23.696,8.046-44.123,14.142-43.631,17.565
			s54.782,53.749,63.578,51.255C877.714,384.932,896.073,310.656,892.677,308.503z"/>
		<path fill="#F9D214" d="M678.125,356.825c0,0-18.523-9.143-42.104-9.998c-23.581-0.855-43.295,0.661-44.097,4.65
			c-0.801,3.989,28.495,82.006,37.071,82.867S680.315,360.605,678.125,356.825z"/>
		<path fill="#80D8E2" d="M1100.595,201.783c0,0-21.838,6.587-46.086,21.116c-24.248,14.529-45.393,26.047-43.858,30.053
			s76.841,53.226,85.983,48.423C1105.776,296.572,1105.019,203.668,1100.595,201.783z"/>
		<path fill="#EB4238" d="M799.332,333.888c0,0-26.319-0.148-58.364,6.749s-59.539,11.782-59.436,16.166
			c0.103,4.384,62.739,75.286,74.557,73.346C767.907,428.208,803.405,337.068,799.332,333.888z"/>
		<path fill="#3F749A" d="M1003.062,257.265c0,0-23.744,5.708-50.273,20.107c-26.529,14.399-49.636,25.667-48.068,30.259
			c1.568,4.592,81.824,65.278,91.811,60.603C1006.519,363.559,1007.8,259.706,1003.062,257.265z"/>
		<path fill="#EB4238" d="M1185.878,146.223c0,0-18.885,7.707-39.605,22.336c-20.72,14.629-38.828,26.416-37.346,29.634
			c1.482,3.219,69.099,37.168,76.935,32.221C1193.697,225.466,1189.815,147.371,1185.878,146.223z"/>
		<path fill="#F9D214" d="M1279.391,75.565c0,0-22.027,10.273-45.606,29.097s-44.281,34.054-42.188,37.927
			c2.093,3.872,86.821,42.398,95.793,35.994S1284.246,76.794,1279.391,75.565z"/>
		<path fill="#3F749A" d="M1345.469,0c0,0-16.595,11.402-33.445,29.903s-31.797,33.702-29.654,36.519
			c2.143,2.817,75.082,21.734,81.582,15.305C1370.452,75.298,1349.534,0.297,1345.469,0z"/>
		<path fill="#54BDCF" d="M588.354,345.259c0,0-24.427-9.988-56.818-15.033c-32.391-5.045-59.795-10.41-61.341-5.963
			c-1.545,4.447,30.18,99.164,41.899,101.632C523.814,428.362,590.952,349.98,588.354,345.259z"/>
		<path fill="#ED9EC3" d="M465.805,320.15c0,0-17.659-10.119-41.946-16.934s-44.718-13.463-46.374-10.013
			s12.606,82.432,21.325,85.415C407.529,381.6,467.295,324.173,465.805,320.15z"/>
		<path fill="#80D8E2" d="M375.347,284.615c0,0-18.289-12.848-44.159-22.75c-25.87-9.902-47.54-19.233-49.7-15.626
			c-2.159,3.607,5.459,91.433,14.692,95.575C305.414,345.954,376.57,289.166,375.347,284.615z"/>
		<path fill="#3F749A" d="M274.299,245.576c0,0-15.794-17.879-40.049-34.882s-44.333-32.286-47.385-29.264
			s-16.866,89.976-8.35,96.653C187.032,284.759,274.501,250.469,274.299,245.576z"/>
		<path fill="#EB4238" d="M185.317,175.737c0,0-10.449-18.876-28.722-38.396s-33.142-36.772-36.54-34.553
			c-3.398,2.219-33.877,81.669-27.611,89.163C98.71,199.445,184.457,180.204,185.317,175.737z"/>
		<path fill="#ED9EC3" d="M115.309,96.29c0,0-13.665-26.912-33.209-48.714S44.945,8.45,40.975,10.952S-5.956,99.208,0.699,107.581
			S114.079,101.302,115.309,96.29z"/>
	</g>
</g>
<g id="Layer_1">
</g>
</svg>
