<?xml version="1.0" encoding="utf-8"?>
<!-- Generator: Adobe Illustrator 25.0.0, SVG Export Plug-In . SVG Version: 6.00 Build 0)  -->
<svg version="1.1" xmlns="http://www.w3.org/2000/svg" xmlns:xlink="http://www.w3.org/1999/xlink" x="0px" y="0px"
	 viewBox="0 0 355.293 216.542" enable-background="new 0 0 355.293 216.542" xml:space="preserve">
<g id="truck_x5F_toy">
	<g id="recycle_x5F_new_x5F_plastic_x5F_truck">
		<path fill="#F77F15" d="M355.291,133.717c0.134,7.932-5.829,13.449-13.488,13.255c-6.985-0.177-12.048-4.622-12.118-12.312
			c-0.08-8.731,5.743-12.54,12.95-13.299C351.172,120.462,355.169,126.528,355.291,133.717z"/>
		<polygon fill="#275F88" points="132.755,126.915 63.888,174.541 340.984,174.541 340.984,158.488 		"/>
		<polygon fill="#FDA519" points="199.659,27.201 286.121,24.194 288.407,88.082 340.984,91.098 340.984,161.01 192.965,161.01 		
			"/>
		<polygon fill="#FDA519" points="238.994,17.29 192.502,19.683 187.24,135.061 31.573,139.071 0,40.593 169.351,36.084 
			170.855,2.255 238.994,0 		"/>
		<path fill="#54BDCF" d="M182.413,174.264c2.204-0.45,115.816,0.982,115.816,0.982s-3.706-57.085-56.992-57.325
			C179.986,117.645,182.413,174.264,182.413,174.264z"/>
		<path fill="#3F749A" d="M280.043,174.026c0.43,25.432-18.69,43.122-43.246,42.5c-22.398-0.567-38.63-14.818-38.855-39.476
			c-0.255-27.995,18.413-40.208,41.523-42.641C266.836,131.527,279.653,150.977,280.043,174.026z"/>
		<path fill="#80D8E2" d="M262.541,172.961c0.252,14.917-10.963,25.292-25.366,24.928c-13.137-0.333-22.658-8.691-22.79-23.154
			c-0.15-16.42,10.799-23.584,24.355-25.011C254.795,148.034,262.312,159.442,262.541,172.961z"/>
		<path fill="#54BDCF" d="M255.326,173.191c0.176,10.446-7.677,17.713-17.764,17.458c-9.201-0.233-15.868-6.087-15.96-16.216
			c-0.105-11.499,7.563-16.516,17.056-17.515C249.901,155.733,255.166,163.723,255.326,173.191z"/>
		<path fill="#F77F15" d="M114.235,37.551l-23.716,0.631c1.872,26.324,3.865,81.812,4.466,99.27l19.25-0.491V37.551z"/>
		<path fill="#F77F15" d="M73.385,138.004L63.146,38.912l-30.144,0.803c5.265,23.724,17.058,79.11,21.238,98.778L73.385,138.004z"/>
		<path fill="#F77F15" d="M161.487,135.756V36.293L138.68,36.9c0.288,23.906-0.134,75.206-0.364,99.447L161.487,135.756z"/>
		<path fill="#54BDCF" d="M20.783,174.437c2.266-0.473,119.193,0.523,119.193,0.523s-4.055-58.732-58.893-58.755
			C18.048,116.18,20.783,174.437,20.783,174.437z"/>
		<path fill="#3F749A" d="M121.008,174.026c0.43,25.432-18.69,43.122-43.246,42.5c-22.398-0.567-38.63-14.818-38.855-39.476
			c-0.255-27.995,18.413-40.208,41.523-42.641C107.803,131.527,120.619,150.977,121.008,174.026z"/>
		<path fill="#80D8E2" d="M103.507,172.961c0.252,14.917-10.963,25.292-25.366,24.928c-13.137-0.333-22.658-8.691-22.79-23.154
			c-0.15-16.42,10.799-23.584,24.355-25.011C95.761,148.034,103.278,159.442,103.507,172.961z"/>
		<path fill="#54BDCF" d="M96.292,173.191c0.176,10.446-7.677,17.713-17.764,17.458c-9.201-0.233-15.868-6.087-15.96-16.216
			c-0.105-11.499,7.563-16.516,17.056-17.515C90.867,155.733,96.131,163.723,96.292,173.191z"/>
		<path fill="#3F749A" d="M210.007,59.93c0,0-0.534-14.599,12.166-16.557c12.304-1.897,22.132-1.926,35.132-1.543
			c18.1,0.534,17.447,14.302,17.685,17.922s0.831,27.358,0.772,28.96c-0.06,1.603,1.305,16.023-15.786,17.625
			c-20.307,1.904-31.156,0.653-33.767,0.534c-2.252-0.102-15.548,0.712-16.498-17.922C209.356,80.674,209.651,68.654,210.007,59.93z
			"/>
		<path fill="#275F88" d="M267.571,73.046c0.246,14.566-11.216,24.39-25.28,24.034c-12.829-0.325-22.084-8.487-22.254-22.61
			c-0.178-14.777,11.273-23.423,24.568-24.034C260.093,49.723,267.348,59.844,267.571,73.046z"/>
	</g>
</g>
<g id="Layer_1">
</g>
</svg>
