<?xml version="1.0" encoding="utf-8"?>
<!-- Generator: Adobe Illustrator 24.2.3, SVG Export Plug-In . SVG Version: 6.00 Build 0)  -->
<svg version="1.1" xmlns="http://www.w3.org/2000/svg" xmlns:xlink="http://www.w3.org/1999/xlink" x="0px" y="0px"
	 viewBox="0 0 294.157 217.864" enable-background="new 0 0 294.157 217.864" xml:space="preserve">
<g id="ufo">
	<g>
		<g id="ufo_1_">
			<path fill="#F77F15" d="M142.832,0c11.002,0.042,18.947,8.058,18.854,19.022c-0.095,11.198-9.06,18.507-21.488,18.335
				c-9.325-0.129-16.268-9.04-16.175-19.177C124.125,7.059,131.77-0.042,142.832,0z"/>
			<path fill="#FDA519" d="M274.43,136.57c0,0-12.288-109.17-126.232-105.203C17.219,35.93,26.735,144.313,26.735,144.313
				c0.476-0.106,3.423-0.272,8.33-0.482c3.951,17.614,23.545,75.233,110.686,74.014c111.602-1.561,112.222-72.851,111.945-80.81
				C268.187,136.742,274.43,136.57,274.43,136.57z"/>
			<path fill="#EB4238" d="M72.905,76.588c13.572-0.261,23.6,9.4,23.797,22.926c0.201,13.816-10.647,23.086-25.983,23.228
				c-11.506,0.106-20.323-10.688-20.498-23.194C50.031,85.826,59.258,76.851,72.905,76.588z"/>
			<path fill="#275F88" d="M73.221,85.246c8.472-0.101,14.685,5.975,14.745,14.416c0.062,8.623-6.751,14.358-16.321,14.376
				c-7.181,0.013-12.634-6.763-12.685-14.569C58.904,90.906,64.704,85.347,73.221,85.246z"/>
			<path fill="#EB4238" d="M222.27,74.452c13.572-0.261,23.6,9.4,23.797,22.926c0.201,13.816-10.647,23.086-25.983,23.228
				c-11.506,0.106-20.323-10.688-20.498-23.194C199.396,83.69,208.623,74.714,222.27,74.452z"/>
			<path fill="#275F88" d="M222.586,83.109c8.472-0.101,14.685,5.975,14.745,14.416c0.062,8.623-6.751,14.358-16.321,14.376
				c-7.181,0.013-12.634-6.763-12.685-14.569C208.268,88.77,214.068,83.21,222.586,83.109z"/>
			<path fill="#EB4238" d="M145.432,79.901c13.572-0.261,23.6,9.4,23.797,22.926c0.201,13.816-10.647,23.086-25.983,23.228
				c-11.506,0.106-20.323-10.688-20.498-23.194C122.559,89.139,131.785,80.164,145.432,79.901z"/>
			<path fill="#275F88" d="M145.749,88.559c8.472-0.101,14.685,5.975,14.745,14.416c0.062,8.623-6.751,14.358-16.321,14.376
				c-7.181,0.013-12.634-6.763-12.685-14.569C131.431,94.219,137.23,88.66,145.749,88.559z"/>
			<path fill="#EB4238" d="M288.569,153.894c0,0-62.75,9.758-143.009,10.92c-80.259,1.163-133.358-5.059-140.483-7.976
				c-7.124-2.917-6.6-23.765,0.624-25.443c10.116-2.35,73.841,7.547,139.261,5.903c40.53-1.018,126.453-9.087,142.018-9.11
				C295.393,128.176,297.023,152.355,288.569,153.894z"/>
			<path fill="#FDE40B" d="M91.603,168.226c5.349-0.064,9.271,3.773,9.31,9.103c0.039,5.444-4.262,9.065-10.305,9.077
				c-4.534,0.008-7.977-4.27-8.009-9.198C82.564,171.799,86.226,168.289,91.603,168.226z"/>
			<path fill="#FDE40B" d="M129.096,174.24c5.349-0.064,9.271,3.773,9.31,9.103c0.039,5.444-4.262,9.065-10.305,9.077
				c-4.534,0.008-7.977-4.271-8.009-9.198C120.056,177.814,123.718,174.304,129.096,174.24z"/>
			<path fill="#FDE40B" d="M207.955,167.669c5.349-0.064,9.271,3.773,9.31,9.103c0.039,5.444-4.262,9.065-10.305,9.077
				c-4.534,0.008-7.977-4.271-8.009-9.198C198.916,171.243,202.577,167.733,207.955,167.669z"/>
			<path fill="#FDE40B" d="M168.866,173.152c5.349-0.064,9.271,3.773,9.31,9.103c0.039,5.444-4.262,9.065-10.305,9.077
				c-4.534,0.008-7.977-4.27-8.009-9.198C159.826,176.726,163.488,173.216,168.866,173.152z"/>
		</g>
		<g id="Layer_1_169_">
		</g>
	</g>
</g>
<g id="Layer_1">
</g>
</svg>
