<?xml version="1.0" encoding="utf-8"?>
<!-- Generator: Adobe Illustrator 25.0.0, SVG Export Plug-In . SVG Version: 6.00 Build 0)  -->
<svg version="1.1" xmlns="http://www.w3.org/2000/svg" xmlns:xlink="http://www.w3.org/1999/xlink" x="0px" y="0px"
	 viewBox="0 0 283.566 287.266" enable-background="new 0 0 283.566 287.266" xml:space="preserve">
<g id="wheel_x5F_white">
	<g>
		<polygon fill="#FFFFFF" points="273.297,138.517 154.135,138.517 238.395,54.256 231.16,47.02 146.899,131.281 146.899,12.118 
			136.666,12.118 136.666,131.281 52.406,47.02 45.17,54.256 129.431,138.517 10.268,138.517 10.268,148.749 129.431,148.749 
			45.17,233.01 52.406,240.246 136.666,155.985 136.666,275.147 146.899,275.147 146.899,155.985 231.16,240.246 238.395,233.01 
			154.135,148.749 273.297,148.749 		"/>
		<path fill="#9E9E9E" d="M263.722,68.781C169.199-84.36-72.415,41.983,21.15,215.592c46.325,85.955,162.252,86.53,211.434,44.065
			C294.589,206.12,293.622,117.223,263.722,68.781z M212.405,233.871c-38.252,33.028-128.415,32.58-164.445-34.272
			C-24.811,64.574,163.106-33.69,236.622,85.416C259.877,123.092,260.629,192.233,212.405,233.871z"/>
	</g>
</g>
<g id="Layer_1">
</g>
</svg>
