<?xml version="1.0" encoding="utf-8"?>
<!-- Generator: Adobe Illustrator 26.0.3, SVG Export Plug-In . SVG Version: 6.00 Build 0)  -->
<svg version="1.1" xmlns="http://www.w3.org/2000/svg" xmlns:xlink="http://www.w3.org/1999/xlink" x="0px" y="0px"
	 viewBox="0 0 681.535 680.336" enable-background="new 0 0 681.535 680.336" xml:space="preserve">
<g id="window_x5F_frame_x5F_white">
	<g>
		<path fill="#FFFFFF" d="M661.289,111.698c-12.825-41.406-38.357-79.549-86.15-93.606C493.216-12.004,174.806-0.3,120.064,22.337
			C74.722,31.024,29.507,66.11,16.809,117.613C-6.057,190.895-1.059,502.204,5.563,541c7.31,42.17,39.921,94.461,84.902,119.763
			c75.918,38.549,435.039,9.171,462.386,3.939c52.129-9.975,100.081-38.203,119.343-104.472
			C692.091,437.543,676.248,158.391,661.289,111.698z M640.149,537.92c-17.4,59.862-60.715,85.36-107.804,94.371
			c-24.703,4.726-349.101,31.264-417.678-3.558c-40.632-22.856-70.09-70.091-76.693-108.183
			c-5.982-35.045-10.497-316.253,10.158-382.45c11.471-46.523,52.314-78.217,93.271-86.065
			c49.449-20.448,337.073-31.02,411.075-3.834c43.172,12.698,66.235,47.153,77.82,84.555
			C643.81,174.935,658.122,427.096,640.149,537.92z"/>
		<rect x="321.729" y="10.703" fill="#FFFFFF" width="30.95" height="656.867"/>
		
			<rect x="326.202" y="15.176" transform="matrix(6.123234e-17 -1 1 6.123234e-17 -2.8418 684.3766)" fill="#FFFFFF" width="29.131" height="656.867"/>
	</g>
</g>
<g id="Layer_1">
</g>
</svg>
