<?xml version="1.0" encoding="utf-8"?>
<!-- Generator: Adobe Illustrator 27.1.1, SVG Export Plug-In . SVG Version: 6.00 Build 0)  -->
<svg version="1.1" xmlns="http://www.w3.org/2000/svg" xmlns:xlink="http://www.w3.org/1999/xlink" x="0px" y="0px"
	 viewBox="0 0 1181.01 297.887" enable-background="new 0 0 1181.01 297.887" xml:space="preserve">
<g id="wooden_x5F_board_x5F_1">
	<g>
		<polygon fill="#FFA600" points="1161.458,2.817 0,0 19.034,304.823 1180.491,304.823 1180.491,21.836 		"/>
		<polygon opacity="0.3" fill="#4A4A49" points="1161.458,2.817 1180.491,21.836 19.034,21.836 0,0 		"/>
		<polygon fill="#FDF1B8" points="0,280.627 0,0 19.034,21.836 19.034,304.823 		"/>
		<polygon opacity="0.2" fill="#4A4A49" points="1181.01,288.908 1181.01,256.787 18.558,265.504 18.558,279.062 		"/>
		<polygon opacity="0.2" fill="#4A4A49" points="18.558,111.045 18.558,87.591 1181.01,96.309 1181.01,109.866 		"/>
		<polygon opacity="0.2" fill="#4A4A49" points="18.558,186.302 18.558,176.933 1181.01,182.4 1181.01,199.208 		"/>
		<polygon opacity="0.2" fill="#4A4A49" points="18.558,247.172 18.558,220.417 1181.01,213.462 1181.01,233.06 		"/>
		<polygon opacity="0.2" fill="#4A4A49" points="18.558,65.828 18.558,51.263 1181.01,32.001 1181.01,62.199 		"/>
	</g>
</g>
<g id="Layer_1">
</g>
</svg>
