<?xml version="1.0" encoding="utf-8"?>
<!-- Generator: Adobe Illustrator 27.1.1, SVG Export Plug-In . SVG Version: 6.00 Build 0)  -->
<svg version="1.1" xmlns="http://www.w3.org/2000/svg" xmlns:xlink="http://www.w3.org/1999/xlink" x="0px" y="0px"
	 viewBox="0 0 605.352 338.114" enable-background="new 0 0 605.352 338.114" xml:space="preserve">
<g id="wooden_x5F_board_x5F_3">
	<g>
		<g>
			<polygon fill="#A45700" points="604.352,288.82 563.914,0 24.914,0 41,338.114 580,338.114 			"/>
			<polygon id="jiiri_00000134967404544999321290000007748051794550011284_" fill="#FFE400" points="41,338.114 0,44.798 24.914,0 
				65.248,288.82 			"/>
			<polygon fill="#FF8000" points="564.914,0 24.914,0 65.248,288.82 605.352,288.82 			"/>
		</g>
		<g>
			<polygon opacity="0.2" fill="#4A4A49" points="568.799,27.748 28.79,27.748 31.405,46.478 571.422,46.478 			"/>
			<polygon opacity="0.2" fill="#4A4A49" points="575.146,73.079 35.12,73.079 39.08,101.437 579.117,101.437 			"/>
			<polygon opacity="0.2" fill="#4A4A49" points="581.655,119.571 41.612,119.571 46.447,154.189 586.502,154.189 			"/>
			<polygon opacity="0.2" fill="#4A4A49" points="592.012,193.543 51.943,193.543 54.796,213.973 594.873,213.973 			"/>
			<polygon opacity="0.2" fill="#4A4A49" points="57.938,236.471 62.042,265.865 602.138,265.865 598.022,236.471 			"/>
		</g>
	</g>
	<g id="Layer_1_00000152252920023600964890000014580642934916155572_">
	</g>
	<g id="Layer_1_00000140720559391056659340000014110639104765516193_">
	</g>
</g>
<g id="Layer_1">
</g>
</svg>
