<?xml version="1.0" encoding="utf-8"?>
<!-- Generator: Adobe Illustrator 26.5.0, SVG Export Plug-In . SVG Version: 6.00 Build 0)  -->
<svg version="1.1" xmlns="http://www.w3.org/2000/svg" xmlns:xlink="http://www.w3.org/1999/xlink" x="0px" y="0px"
	 viewBox="0 0 594.1 544.154" enable-background="new 0 0 594.1 544.154" xml:space="preserve">
<g id="branch_x5F_with_x5F_leaves_x5F_blue">
	<path fill="#ABDE85" d="M279,225.154c-4.5,1.4-13.9,5.8-15.2,6.3c7.5-8.7,13.9-16.3,21.1-24.8c10.2-9.3,5.7-32.9-14.2-30.1
		c-6.9,0.6-12.7,3-24.2,9.4c11.5-15,26-29.2,26.1-49.1c-0.8-30.3-33.2-7.7-46.2,1.3c-1.8-13.3-2.2-27.4-6.7-40.1
		c-5.1-13.3-19.3-18.5-28.4-9.7c-10.4,13.3-5.8,35.9-4.1,51.7c-10.4-10.8-37.9-30.7-45.4-7.9c-9.5,22.8,30,59.9,34.8,68.7
		c-9.6-6.2-18.7-12.6-30.6-11.5c-8.7,0.9-14,7-12.9,15.2c3.3,25.3,32.6,32.2,43.6,40.2c-2.3,0.2-26.4-4-27.2,10.7
		c-0.5,9.1,5.1,18.2,12.6,22.8c13.9,8.5,54.9,14.3,58.6,14.9c0,0,92.7-28.3,72.9-61.9C290.1,225.154,286.5,222.954,279,225.154z"/>
	<path fill="#005F8A" d="M211.4,152.654c0.7,5.6,23.4,179.7,24.6,189.1l-14.6,1.7c-0.7-8.8-15.7-184.8-16.2-190.1L211.4,152.654z"/>
	<path fill="#73E3D4" d="M449.4,194.954c-5.6-1-18.1-1.4-19.7-1.5c12.8-5.2,23.8-9.8,36.1-15c16-4.3,24-32.1,1.2-40
		c-7.7-3.2-15.2-3.7-31-3.2c20.5-9.8,43.7-17,54.8-38.2c15.6-32.8-31.2-26.4-50.1-23.8c5.3-15.2,12.6-30.5,14.8-46.5
		c1.8-17.1-10.5-30.3-25.1-25.9c-18.4,8.6-25.8,35.2-32.6,53c-5.3-17.2-23.8-53.6-44.2-33.2c-22.6,19.3-0.6,80.4-0.3,92.5
		c-6.9-11.8-13.1-23.7-26.4-28.9c-9.8-3.7-18.7-0.1-22.1,9.3c-10.3,28.9,17.3,52.2,24.7,66.8c-2.5-1-26.1-18.7-34.9-3.3
		c-5.5,9.5-4.5,22.2,1,31.3c10.2,16.6,50.9,45.2,54.5,47.9c0,0,114.6,20.4,111.8-26.4C461.4,200.954,458.7,196.554,449.4,194.954z"
		/>
	<path fill="#005F8A" d="M416.7,80.454c-2.3,6.4-73.1,205-77,215.7l-16.5-6.2c4-9.8,84.1-206.2,86.5-212.1L416.7,80.454z"/>
	<path fill="#73E3D4" d="M293.4,471.454c1.1-4.1,2.2-13.5,2.5-14.7c3,10,5.8,18.5,8.9,28.1c2.2,12.3,22.5,20.2,30,3.6
		c2.9-5.6,3.8-11.2,4.4-23.2c6,16.1,9.9,34.1,25.1,43.8c23.7,14,21.9-21.8,21.2-36.1c11.1,5,22.1,11.5,34,14.2
		c12.7,2.5,23.5-5.9,21.2-17.2c-5.2-14.4-24.8-21.8-37.8-28c13.3-2.8,41.9-14.3,28-31.1c-13-18.3-60.5-5.8-69.6-6.4
		c9.4-4.4,18.7-8.3,23.5-18c3.5-7.1,1.4-14.1-5.5-17.2c-21.1-9.7-40.4,9.5-51.9,14.2c0.9-1.8,15.8-18.4,4.8-26.1
		c-6.8-4.7-16.4-4.9-23.6-1.3c-13.2,6.6-37.4,35.3-39.7,37.8c0,0-22.9,84.9,12.4,85.9C288.1,480.054,291.6,478.354,293.4,471.454z"
		/>
	<path fill="#005F8A" d="M381.7,454.454c-4.6-2.1-149.4-68.6-157.2-72.3l5.7-12c7.1,3.7,149.6,77,153.9,79.2L381.7,454.454z"/>
	<path fill="#ABDE85" d="M432.3,382.054c0.4-4.7-0.3-15.2-0.3-16.5c5.3,10.3,10.1,19.1,15.4,28.9c4.9,13,28.7,17.6,33.5-2.1
		c2-6.7,1.9-13,0.2-26.2c9.8,16.3,17.7,35.2,36.2,42.7c28.6,10.5,19.6-28.2,15.9-43.7c13.1,3.2,26.4,8.1,40,8.7
		c14.4,0.2,24.5-11.2,19.7-23c-8.6-14.7-31.4-18.8-46.8-23c13.9-5.8,42.9-24.1,24.3-39.6c-17.9-17.3-67.2,5.8-77.2,7
		c9.3-6.7,18.8-12.8,22.1-24.3c2.3-8.5-1.4-15.7-9.5-17.7c-24.9-6.3-42.2,18.5-53.8,25.9c0.6-2.2,13.6-23.2,0.1-29.4
		c-8.3-3.8-18.9-2-26,3.3c-13.1,9.8-33.8,46.1-35.8,49.3c0,0-8,97.3,30.8,91.3C428.2,392.554,431.6,390.054,432.3,382.054z"/>
	<path fill="#005F8A" d="M525.3,345.854c-5.5-1.4-176.9-44.9-186.2-47.3l3.9-14.3c8.5,2.6,178.8,54,183.9,55.6L525.3,345.854z"/>
	<polygon fill="#005F8A" points="0,432.954 337.6,269.154 359.5,294.354 0,544.154 	"/>
	<polygon opacity="0.15" enable-background="new    " points="341.7,273.854 0,450.554 0,474.354 346.1,278.854 	"/>
	<polygon opacity="0.15" enable-background="new    " points="350.2,283.654 0,487.654 0,520.454 353.9,287.954 	"/>
</g>
<g id="Layer_1">
</g>
</svg>
