<?xml version="1.0" encoding="utf-8"?>
<!-- Generator: Adobe Illustrator 26.1.0, SVG Export Plug-In . SVG Version: 6.00 Build 0)  -->
<svg version="1.1" id="Layer_1" xmlns="http://www.w3.org/2000/svg" xmlns:xlink="http://www.w3.org/1999/xlink" x="0px" y="0px"
	 viewBox="0 0 548 461.6" style="enable-background:new 0 0 548 461.6;" xml:space="preserve">
<style type="text/css">
	.st0{fill:#6A4019;}
	.st1{fill:#00A038;}
	.st2{fill:#009F7A;}
</style>
<g id="branch_x5F_with_x5F_leaves">
	<g>
		<polygon class="st0" points="168.9,193.4 548,447.3 548,395 173.9,182.1 		"/>
		<g>
			<g id="lehti_x5F_9_104_">
				<g>
					<path class="st1" d="M330.6,69.1C318,35.7,283.2,1.3,244.7,0.2C159.9,22,123.1,137.1,216.9,175.5
						C296,201.5,355.1,135.2,330.6,69.1z"/>
					<path class="st0" d="M248.7,0.5c0.5,6.4,19.5,238.8,19.5,238.8l-15.8-8.1c0,0-10.5-224.1-10.7-230.2
						C244.2-0.2,246.2-0.2,248.7,0.5z"/>
				</g>
			</g>
			<g id="Layer_1_270_">
			</g>
		</g>
		<g>
			<g id="lehti_x5F_9_00000026854432243331178810000016110078945412047775_">
				<g>
					<path class="st1" d="M439.2,197.9c-0.9-25.1-16.5-55.9-42-65.3c-61.5-4.4-111.9,64.2-57.8,110.9
						C386.4,278.6,440.7,247.5,439.2,197.9z"/>
					<path class="st0" d="M399.8,133.8c-1.1,4.4-43.7,177-43.7,177l-10.2-5.4c0,0,47.9-168.7,49.1-172.8
						C397,132.3,398.3,132.7,399.8,133.8z"/>
				</g>
			</g>
			<g id="Layer_1_00000083808688103544633320000010076005196314392215_">
			</g>
		</g>
		<g>
			<g id="lehti_x5F_9_00000009566288303042003270000013514567495239415174_">
				<g>
					<path class="st1" d="M100.6,224.9c-21.3,18.3-37.3,53.2-27.7,82c38.9,56.7,133.8,52.8,136.8-26.8
						C207.6,214.7,142.8,189,100.6,224.9z"/>
					<path class="st0" d="M72.1,303.8c4.6-2.1,169.6-78.1,169.6-78.1l9.9,8.9c0,0-172.8,72.4-177.2,74.2
						C72.8,307.3,72.2,305.9,72.1,303.8z"/>
				</g>
			</g>
			<g id="Layer_1_00000052104488775625626150000001176866121510657713_">
			</g>
		</g>
		<g>
			<g id="lehti_x5F_9_00000183248424499597059870000001010242621380303279_">
				<g>
					<path class="st2" d="M194,348.2c-13.1,29.8-12.4,74.4,12,99.7c69.1,39.9,166.6-11.5,130-96.5C301.1,284,220.3,289.5,194,348.2z
						"/>
					<path class="st0" d="M203.6,445.1c3.7-4.5,135.7-158.2,135.7-158.2l12.1,7.8c0,0-139.2,150.5-142.9,154.6
						C206,448.5,204.8,447.2,203.6,445.1z"/>
				</g>
			</g>
			<g id="Layer_1_00000160899733107281827040000008049667925904376504_">
			</g>
		</g>
		<g>
			<g id="lehti_x5F_9_00000029767373660667364090000010465482893194466493_">
				<g>
					<path class="st2" d="M98.1,68.6c-29.3-8.4-70.6-2.2-91,23.6c-28.3,69.1,31.6,153,105.8,108.4C171.1,159.8,155.8,85.5,98.1,68.6
						z"/>
					<path class="st0" d="M9.4,89.6c4.6,2.9,175.3,98.4,175.3,98.4l-3.6,13.5c0,0-170.7-103.9-174.9-106.8C6.6,92.3,7.6,91,9.4,89.6
						z"/>
				</g>
			</g>
			<g id="Layer_1_00000175294557782895477580000007812847252565113008_">
			</g>
		</g>
	</g>
</g>
<g id="Layer_1_00000165234738695741676180000000385767357092028304_">
</g>
</svg>
