<?xml version="1.0" encoding="utf-8"?>
<!-- Generator: Adobe Illustrator 26.0.1, SVG Export Plug-In . SVG Version: 6.00 Build 0)  -->
<svg version="1.1" xmlns="http://www.w3.org/2000/svg" xmlns:xlink="http://www.w3.org/1999/xlink" x="0px" y="0px"
	 viewBox="0 0 626.732 373.635" enable-background="new 0 0 626.732 373.635" xml:space="preserve">
<g id="branch_x5F_spruce_x5F_white">
	<path fill="#FFFFFF" d="M473.099,36.571c-91.742,57.065-259.668,118.74-425.108,77.791c-17.437-4.316-44.483,7.485-47.384,30.494
		c-9.714,77.03,99.207,129.454,176.329,120.509c-21.164,16.655-19.034,52.467,0.028,71.492s49.265,23.013,75.488,16.879
		s49.492-20.863,72.196-35.348c-7.839,21.527,9.286,60.141,45.876,54.735c60.032-8.869,109.612-68.81,130.347-122.331
		c3.458,45.068,57.602,47.098,103.353-10.325c46.119-57.883,11.413-141.617-15.852-210.421
		C576.705,0.601,567.397-22.084,473.099,36.571z"/>
	<path fill="#CAD2D3" d="M355.21,282.452c-22.704,14.485-45.972,29.213-72.196,35.348c-26.223,6.135-56.426,2.146-75.488-16.879
		s-21.191-54.837-0.028-71.492c-75.179,8.72-180.555-40.881-176.82-114.737c-14.137,3.422-28.036,14.034-30.071,30.164
		c-9.714,77.029,99.207,129.454,176.329,120.509c-21.164,16.655-19.034,52.467,0.028,71.492s49.264,23.013,75.488,16.879
		c26.223-6.135,49.492-20.863,72.196-35.348c-7.839,21.527,9.286,60.141,45.876,54.735c42.536-6.284,79.821-38.211,105.319-75.325
		c-21.472,20.26-46.996,35.289-74.758,39.39C364.496,342.593,347.371,303.979,355.21,282.452z"/>
</g>
<g id="Layer_1">
</g>
</svg>
