<?xml version="1.0" encoding="utf-8"?>
<!-- Generator: Adobe Illustrator 26.5.0, SVG Export Plug-In . SVG Version: 6.00 Build 0)  -->
<svg version="1.1" xmlns="http://www.w3.org/2000/svg" xmlns:xlink="http://www.w3.org/1999/xlink" x="0px" y="0px"
	 viewBox="0 0 626.732 373.635" enable-background="new 0 0 626.732 373.635" xml:space="preserve">
<g id="branch_x5F_spruce_x5F_green">
	<path fill="#FFFFFF" d="M473.099,36.571c-91.742,57.065-259.668,118.74-425.108,77.791c-17.437-4.316-44.483,7.485-47.384,30.494
		c-9.714,77.03,99.207,129.454,176.329,120.509c-21.164,16.655-19.034,52.467,0.028,71.492s49.265,23.013,75.488,16.879
		s49.492-20.863,72.196-35.348c-7.839,21.527,9.286,60.141,45.876,54.735c60.032-8.869,109.612-68.81,130.347-122.331
		c3.458,45.068,57.602,47.098,103.353-10.325c46.119-57.883,11.413-141.617-15.852-210.421
		C576.705,0.601,567.397-22.084,473.099,36.571z"/>
	<path fill="#CAD2D3" d="M619.283,118.225c-7.621-30.036-14.076-44.643-14.076-44.643l-345.03,44.538
		c-42.548,7.616-91.458,11.571-137.151,8.143c21.728,40.828,86.114,65.56,134.77,59.916c-17.021,13.395-15.308,42.197,0.022,57.498
		c15.331,15.301,39.621,18.509,60.712,13.575c21.09-4.934,39.804-16.779,58.064-28.429c-6.305,17.313,7.468,48.369,36.896,44.021
		c48.281-7.133,88.156-55.341,104.833-98.385c2.781,36.246,46.326,37.879,83.123-8.304
		C612.859,151.828,618.111,135.532,619.283,118.225z"/>
	<path fill="#FFFFFF" d="M605.206,73.581c-5.423-14.901-11.282-29.528-16.833-43.536c-11.668-29.444-20.976-52.13-115.274,6.526
		c-51.564,32.073-127.195,65.602-212.923,81.548c-22.254,55.299,69.733,73.796,120.818,31.452
		c-6.008,16.499,7.117,46.094,35.161,41.951c46.011-6.798,84.01-52.739,99.903-93.758c2.651,34.542,44.148,36.097,79.214-7.914
		C599.39,84.68,602.664,79.24,605.206,73.581z"/>
	<path fill="#CAD2D3" d="M510.901,233.502l-10.029,17.289c5.702,50.607,63.06,40.246,103.353-10.325
		c3.525-4.424,6.572-9.001,9.192-13.709C573.659,260.32,513.83,271.678,510.901,233.502z"/>
	<path fill="#CAD2D3" d="M355.21,282.452c-22.704,14.485-45.972,29.213-72.196,35.348c-26.223,6.135-56.426,2.146-75.488-16.879
		s-21.191-54.837-0.028-71.492c-75.179,8.72-180.555-40.881-176.82-114.737c-14.137,3.422-28.036,14.034-30.071,30.164
		c-9.714,77.029,99.207,129.454,176.329,120.509c-21.164,16.655-19.034,52.467,0.028,71.492s49.264,23.013,75.488,16.879
		c26.223-6.135,49.492-20.863,72.196-35.348c-7.839,21.527,9.286,60.141,45.876,54.735c42.536-6.284,79.821-38.211,105.319-75.325
		c-21.472,20.26-46.996,35.289-74.758,39.39C364.496,342.593,347.371,303.979,355.21,282.452z"/>
</g>
<g id="Layer_1">
</g>
</svg>
