<?xml version="1.0" encoding="utf-8"?>
<!-- Generator: Adobe Illustrator 25.0.0, SVG Export Plug-In . SVG Version: 6.00 Build 0)  -->
<svg version="1.1" xmlns="http://www.w3.org/2000/svg" xmlns:xlink="http://www.w3.org/1999/xlink" x="0px" y="0px"
	 viewBox="0 0 300.938 265.635" enable-background="new 0 0 300.938 265.635" xml:space="preserve">
<g id="cloud_x5F_steam_x5F_white">
	<g id="recycle_x5F_cloud_x5F_white_1_">
		<path fill="#FFFFFF" d="M24.946,124.162c1.94,0.629,3.893,1.078,5.844,1.372c-11.944,23.533,8.509,52.63,34.709,50.542
			c-5.227,46.024,46.625,85.583,90.354,68.938c13.975,32.354,65.423,25.035,68.194-10.778c28.48,40.15,88.212-3.516,56.929-42.087
			c30.618-12.897,24.637-61.145-8.537-66.624c30.816-50.051-21.956-115.163-77.46-98.402c-7.959-36.9-64.774-36.092-70.217,2.072
			c-26.414-1.043-51.41,13.286-63.189,37.108C17.774,26.44-30.579,101.99,24.946,124.162z"/>
	</g>
</g>
<g id="Layer_1">
</g>
</svg>
