<?xml version="1.0" encoding="utf-8"?>
<!-- Generator: Adobe Illustrator 26.0.1, SVG Export Plug-In . SVG Version: 6.00 Build 0)  -->
<svg version="1.1" xmlns="http://www.w3.org/2000/svg" xmlns:xlink="http://www.w3.org/1999/xlink" x="0px" y="0px"
	 viewBox="0 0 111 111" enable-background="new 0 0 111 111" xml:space="preserve">
<g id="cotton_x5F_cloud_x5F_square_x5F_white">
	<path fill="#FFFFFF" d="M107.473,61.103c-2.217-2.42-4.548-3.967-6.873-4.799c7.119-4.81,11.412-15.264,5.014-25.538
		c-3.865-4.382-8.042-5.8-11.917-5.271c0.675-5.023-0.743-10.865-5.295-16.752c-9.856-9.074-19.321-7.091-24.816-0.83
		c-0.249-0.767-0.576-1.524-0.993-2.262c-6.56-9.568-18.948-5.865-21.951,2.782c-11.2-10.166-29.793,1.204-24.562,17.083
		C4.97,25.237-5.749,37.591,3.527,51.89c1.841,2.01,3.762,3.406,5.692,4.303C1.636,60.742-3.222,71.577,3.41,82.227
		c3.486,3.952,7.227,5.494,10.77,5.371c-0.119,0.34-0.241,0.677-0.336,1.031c-3.546,18.214,17.752,25.855,28.048,14.735
		c0.154,0.327,0.308,0.654,0.489,0.976c7.524,10.974,21.566,7.139,25.572-2.469c10.649,14.553,32.593,2.689,26.967-14.393
		C106.03,87.755,116.749,75.401,107.473,61.103z"/>
</g>
<g id="Layer_1">
</g>
</svg>
