<?xml version="1.0" encoding="utf-8"?>
<!-- Generator: Adobe Illustrator 24.2.3, SVG Export Plug-In . SVG Version: 6.00 Build 0)  -->
<svg version="1.1" xmlns="http://www.w3.org/2000/svg" xmlns:xlink="http://www.w3.org/1999/xlink" x="0px" y="0px"
	 viewBox="0 0 120.858 350.1" enable-background="new 0 0 120.858 350.1" xml:space="preserve">
<g id="feather_x5F_white">
	<g id="feather_x5F_white_1_">
		<g>
			<g>
				<path fill="#FFFFFF" d="M83.525,60.8C64.225,24.3,44.725,0,44.725,0s-20.1,54-33.4,110.7l20.9,16.4l-23.8-3.3
					c-0.4,2-0.8,3.9-1.2,5.9l25.2,23.2l-28.5-5c-2.8,17.6-4.4,34.4-3.8,48.6l32.7,23.4l-29.3-1.3c16.3,58.8,61.1,83.8,61.1,83.8
					s59.4-45.3,56.1-123.3l-31.3,4.5l27.9-31.5c-5-25.9-14.2-50.8-24.4-72.6l-24.1,5L83.525,60.8z"/>
				<path fill="#CAD2D3" d="M58.925,100.9l24.6-40.1C64.225,24.3,44.725,0,44.725,0s-9.4,19.7-22.1,67.9L58.925,100.9z"/>
				<path fill="#B2B2B2" d="M57.925,343.3c0,0,5.4-128,0.9-205.9S44.625,0,44.625,0s18.9,53.4,22.6,176.2
					c3.6,122.8,1.3,173.9,1.3,173.9L57.925,343.3z"/>
			</g>
		</g>
	</g>
</g>
<g id="Layer_1">
</g>
</svg>
