<?xml version="1.0" encoding="utf-8"?>
<!-- Generator: Adobe Illustrator 24.2.3, SVG Export Plug-In . SVG Version: 6.00 Build 0)  -->
<svg version="1.1" xmlns="http://www.w3.org/2000/svg" xmlns:xlink="http://www.w3.org/1999/xlink" x="0px" y="0px"
	 viewBox="0 0 332.435 332.436" enable-background="new 0 0 332.435 332.436" xml:space="preserve">
<g id="flower_x5F_fan_x5F_propeller_x5F_2_x5F_white">
	<g>
		<g id="Palikka_x5F_kukka_1_">
			<path fill="#FFFFFF" d="M332.434,166.984c0.216-46.746-44.461-45.231-87.543-32.93c39.361-21.404,72.303-51.62,39.401-84.828
				c-32.902-33.207-63.421-0.544-85.187,38.617c12.698-42.967,14.626-87.627-32.12-87.843s-45.231,44.461-32.93,87.543
				c-21.404-39.361-51.62-72.303-84.827-39.401s-0.544,63.421,38.617,85.187c-42.968-12.698-87.628-14.625-87.844,32.121
				s44.461,45.231,87.543,32.93c-39.361,21.404-72.303,51.62-39.401,84.828c32.902,33.207,63.422,0.544,85.187-38.617
				c-12.698,42.967-14.625,87.627,32.121,87.843c46.746,0.216,45.231-44.461,32.93-87.543c21.404,39.361,51.62,72.303,84.827,39.401
				s0.544-63.421-38.617-85.187C287.559,211.803,332.219,213.731,332.434,166.984z"/>
		</g>
		<g id="Layer_1_59_">
		</g>
	</g>
</g>
<g id="Layer_1">
</g>
</svg>
