<?xml version="1.0" encoding="utf-8"?>
<!-- Generator: Adobe Illustrator 24.2.3, SVG Export Plug-In . SVG Version: 6.00 Build 0)  -->
<svg version="1.1" xmlns="http://www.w3.org/2000/svg" xmlns:xlink="http://www.w3.org/1999/xlink" x="0px" y="0px"
	 viewBox="0 0 208.884 225.214" enable-background="new 0 0 208.884 225.214" xml:space="preserve">
<g id="flower_x5F_white">
	<g>
		<g>
			<path fill="#B2B2B2" d="M194.511,46.447c-10.928,7.094-22.026,3.294-26.429,0.017c-6.399-4.763-9.077-14.651-7.33-22.765
				s10.056-14.728,21.263-13.723c7.31,0.655,15.888,5.549,18.388,14.518C202.444,31.815,200.646,41.685,194.511,46.447z"/>
			<path fill="#B2B2B2" d="M127.22,22.023c-1.497,14.342-12.491,21.253-18.376,22.763c-8.554,2.194-18.928-2.381-24.697-9.532
				c-5.77-7.15-5.681-18.904,2.982-27.852c5.651-5.837,15.832-9.817,25.292-5.727C120.145,5.012,127.389,13.427,127.22,22.023z"/>
			<path fill="#B2B2B2" d="M23.717,42.181c-9.031-8.117-8.299-19.026-6.416-23.783c2.737-6.913,10.988-11.717,18.714-12.11
				c7.726-0.393,15.69,5.484,17.5,15.813c1.181,6.738-1.146,15.644-8.612,20.065C38.808,45.778,29.489,46.549,23.717,42.181z"/>
			<path fill="#FFFFFF" d="M34.608,39.963c28.843-5.94,34.94,36.542,34.94,36.542s6.843-34.632,32.313-34.888
				c35.34-0.357,36.766,35.536,36.766,35.536s9.515-37.427,42.16-32.069c30.03,4.927,35.265,51.187,19.158,102.058
				c-14.715,46.476-38.146,71.84-69.433,76.336c-40.85,5.871-71.623-3.85-89.69-18.654C17.69,185.868,3.361,147.447,0.507,111.048
				C-2.057,78.378,4.483,46.167,34.608,39.963z"/>
		</g>
	</g>
</g>
<g id="Layer_1">
</g>
</svg>
