<?xml version="1.0" encoding="utf-8"?>
<!-- Generator: Adobe Illustrator 24.2.3, SVG Export Plug-In . SVG Version: 6.00 Build 0)  -->
<svg version="1.1" xmlns="http://www.w3.org/2000/svg" xmlns:xlink="http://www.w3.org/1999/xlink" x="0px" y="0px"
	 viewBox="0 0 285.335 285.335" enable-background="new 0 0 285.335 285.335" xml:space="preserve">
<g id="flower_x5F_fan_x5F_propeller_x5F__x5F_white">
	<g>
		<g>
			<path fill="#FFFFFF" d="M142.667,285.335c77.399,0,0-142.667,0-142.667S65.268,285.335,142.667,285.335z"/>
			<path fill="#FFFFFF" d="M142.667,0c-77.399,0,0,142.667,0,142.667S220.067,0,142.667,0z"/>
			<path fill="#FFFFFF" d="M285.335,142.667c0-77.399-142.667,0-142.667,0S285.335,220.067,285.335,142.667z"/>
			<path fill="#FFFFFF" d="M0,142.667c0,77.399,142.667,0,142.667,0S0,65.268,0,142.667z"/>
			<path fill="#CCD2D3" d="M243.548,243.548c54.729-54.729-100.881-100.881-100.881-100.881S188.819,298.278,243.548,243.548z"/>
			<path fill="#CCD2D3" d="M41.786,41.786c-54.729,54.729,100.881,100.881,100.881,100.881S96.516-12.943,41.786,41.786z"/>
			<path fill="#CCD2D3" d="M243.548,41.786c-54.729-54.729-100.881,100.881-100.881,100.881S298.278,96.516,243.548,41.786z"/>
			<path fill="#CCD2D3" d="M41.786,243.549c54.729,54.729,100.881-100.881,100.881-100.881S-12.943,188.819,41.786,243.549z"/>
		</g>
	</g>
</g>
<g id="Layer_1">
</g>
</svg>
