<?xml version="1.0" encoding="utf-8"?>
<!-- Generator: Adobe Illustrator 24.2.3, SVG Export Plug-In . SVG Version: 6.00 Build 0)  -->
<svg version="1.1" xmlns="http://www.w3.org/2000/svg" xmlns:xlink="http://www.w3.org/1999/xlink" x="0px" y="0px"
	 viewBox="0 0 254.726 256.249" enable-background="new 0 0 254.726 256.249" xml:space="preserve">
<g id="flower_x5F_six_x5F_petals_x5F_white">
	<g>
		<path fill="#FFFFFF" d="M190.904,73.495c12.954-14.607,20.939-31.152,6.31-52.433c-13.575-19.748-39.813-26.726-59.582-16.13
			c-19.574,10.492-22.053,28.023-25.669,49.253c-0.462-6.019-15.786-18.965-20.715-22.482c-13.754-9.815-27.294-11.299-39.829-3.822
			c-14.483,8.64-29.676,29.181-27.497,47.957c2.106,18.143,30.1,36.043,30.1,36.043c-48.368-17.267-77.303,44.002-29.72,72.034
			c16.569,9.762,30.096,5.742,40.005-0.775c-12.954,14.607-19.964,29.399-5.336,50.68c13.575,19.748,38.839,28.479,58.607,17.883
			c19.574-10.492,22.053-28.023,25.669-49.253c0.462,6.019,15.786,18.966,20.715,22.482c13.754,9.815,26.054,9.051,39.829,3.822
			c21.026-7.982,34.126-32.018,31.947-50.795c-2.106-18.143-32.339-36.235-32.339-36.235c48.368,17.267,73.422-42.375,25.839-70.408
			C212.669,61.556,200.813,66.978,190.904,73.495z"/>
	</g>
</g>
<g id="Layer_1">
</g>
</svg>
