<?xml version="1.0" encoding="utf-8"?>
<!-- Generator: Adobe Illustrator 24.2.3, SVG Export Plug-In . SVG Version: 6.00 Build 0)  -->
<svg version="1.1" xmlns="http://www.w3.org/2000/svg" xmlns:xlink="http://www.w3.org/1999/xlink" x="0px" y="0px"
	 viewBox="0 0 237.16 229.197" enable-background="new 0 0 237.16 229.197" xml:space="preserve">
<g id="flower_x5F_round_x5F_white">
	<g>
		<g>
			<path fill="#FFFFFF" d="M1.299,133.572C-7.248,57.791,27.664,23.279,68.119,7.895C107.435-5.21,171.144-3.867,205.568,26.245
				c27.17,23.77,48.471,90.017,12.81,151.297c-24.235,36.007-76.464,57.618-126.37,50.202
				C45.621,219.206,13.265,208.214,1.299,133.572z"/>
			<path fill="#CCD2D3" d="M173.621,148.195c0.54-0.927,1.045-1.857,1.539-2.788l44.315,30.149
				c3.357-5.983,6.177-12.005,8.51-18.029l-48.653-21.378c1.071-2.854,1.951-5.705,2.652-8.541l51.944,10.389
				c1.184-5.319,2.009-10.594,2.532-15.804l-52.57-5.841c0.287-3.109,0.376-6.171,0.29-9.168l52.617-8.21
				c-0.442-6.105-1.293-12.021-2.479-17.705c-14.467,4.725-37.867,12.332-50.997,16.423c-0.314-2.024-0.705-4.002-1.165-5.927
				l46.166-30.778c-2.189-5.611-4.704-10.816-7.461-15.543l-43.195,33.281c-0.743-1.609-1.535-3.143-2.366-4.602l34.817-43.423
				c-1.492-1.61-3.009-3.111-4.548-4.458c-1.88-1.644-3.862-3.188-5.908-4.663c-10.267,15.354-26.765,39.956-30.064,44.455
				c-1.046-1.186-2.115-2.273-3.205-3.226c-0.667-0.583-1.398-1.101-2.103-1.647l18.029-49.414c-3.943-1.742-8.032-3.28-12.24-4.613
				l-14.257,48.74c-2.736-1.367-5.613-2.544-8.607-3.534l11.204-48.337c-5.049-1.131-10.197-2.016-15.392-2.657l-5.351,48.493
				c-4.243-0.839-8.584-1.376-12.935-1.633l3.162-48.061c-5.592-0.212-11.165-0.176-16.65,0.1
				c1.276,14.628,2.847,34.819,3.841,47.84c-2.56,0.083-5.1,0.226-7.579,0.484L99.325,1.233C93.9,1.856,88.621,2.698,83.575,3.758
				l15.818,46.021c-2.722,0.514-5.327,1.132-7.801,1.848L72.771,6.456c-1.581,0.46-3.14,0.935-4.651,1.439
				c-3.206,1.219-6.37,2.573-9.487,4.043L83.39,54.773c-2.047,0.969-4.051,2.039-5.999,3.218
				c-7.415-9.164-21.942-27.069-31.776-38.896c-5.167,3.302-10.076,7.07-14.635,11.349l37.889,33.803
				c-2.683,2.392-5.158,5.094-7.374,8.127c-10.91-6.324-31.526-18.247-44.351-25.5c-2.984,4.535-5.644,9.47-7.932,14.832
				l47.377,18.885c-1.532,3.19-2.816,6.668-3.812,10.457c-12.425-2.135-38.851-6.662-50.001-8.467
				c-1.129,5.511-1.938,11.36-2.375,17.584l50.398,2.066c-0.32,3.249-0.458,6.684-0.398,10.312
				c-13.797,3.298-39.571,9.453-49.914,11.883c0.207,2.988,0.459,6.019,0.812,9.147c0.617,3.851,1.302,7.492,2.027,11.013
				l47.86-20.772c0.743,4.556,1.628,8.677,2.639,12.43L7.505,161.255c1.933,6.397,4.088,12.165,6.486,17.305l43.173-32.317
				c1.696,4.096,3.628,7.572,5.77,10.566l-35.485,42.475c4.233,4.685,8.863,8.535,13.866,11.749l28.556-46.729
				c2.208,1.83,4.569,3.37,7.077,4.686L53.01,217.229c5.442,2.347,11.236,4.226,17.349,5.84l17.298-49.859
				c2.515,0.74,5.131,1.385,7.849,1.971l-13.82,50.541c3.361,0.704,6.796,1.373,10.322,2.022c1.47,0.218,2.943,0.407,4.417,0.576
				l10.206-51.306c1.953,0.175,3.906,0.289,5.857,0.314l-4.112,51.806c5.034,0.127,10.056-0.02,15.039-0.433l1.213-52.171
				c2.84-0.402,5.648-0.94,8.402-1.632l3.423,52.109c5.603-0.991,11.117-2.303,16.495-3.927l-10.908-51.035
				c1.961-0.747,3.893-1.545,5.764-2.436l18.203,48.817c5.345-2.207,10.503-4.721,15.415-7.527l-23.095-47.45
				c2.323-1.632,4.528-3.372,6.571-5.242l29.375,44.264c4.125-3.088,7.997-6.403,11.573-9.929
				c-9.488-11.12-25.385-29.642-35.156-40.425C171.73,150.845,172.715,149.541,173.621,148.195z"/>
		</g>
	</g>
</g>
<g id="Layer_1">
</g>
</svg>
