<?xml version="1.0" encoding="utf-8"?>
<!-- Generator: Adobe Illustrator 27.0.0, SVG Export Plug-In . SVG Version: 6.00 Build 0)  -->
<svg version="1.1" xmlns="http://www.w3.org/2000/svg" xmlns:xlink="http://www.w3.org/1999/xlink" x="0px" y="0px"
	 viewBox="0 0 241.859 241.859" enable-background="new 0 0 241.859 241.859" xml:space="preserve">
<g id="flower_x5F_four_x5F_petals_x5F_white">
	<path id="XMLID_12_" fill="#FFFFFF" d="M216.915,208.296c0,0,42.295-46.86,16.738-75.939
		c-39.77-45.251-94.146-22.487-94.146-22.487s-1.166-54.881-40.211-81.115C76.367,13.35,33.977,9.327,13.275,41.275
		c-17.658,27.252-18.424,62.799,2.079,80.436c39.981,34.392,99.213,18.185,99.213,18.185s-0.964,62.987,29.223,79.186
		S199.589,226.459,216.915,208.296z"/>
	<path id="XMLID_11_" fill="#CCD2D3" d="M205.005,24.945c0,0-46.86-42.295-75.939-16.738c-45.251,39.77-22.487,94.146-22.487,94.146
		s-54.881,1.166-81.115,40.211c-15.406,22.929-19.429,65.319,12.52,86.02c27.252,17.658,62.799,18.424,80.436-2.079
		c34.392-39.981,18.185-99.213,18.185-99.213s62.987,0.964,79.186-29.223S223.168,42.271,205.005,24.945z"/>
	<path fill="#7C7E7E" d="M139.925,155.955c19.884-11.444,25.372-32.14,13.821-52.118c-11.944-20.657-35.012-28.041-53.789-17.219
		c-21.24,12.244-27.335,36.011-14.763,57.573C96.545,163.656,118.386,168.351,139.925,155.955z"/>
</g>
<g id="Layer_1">
</g>
</svg>
