<?xml version="1.0" encoding="utf-8"?>
<!-- Generator: Adobe Illustrator 24.2.3, SVG Export Plug-In . SVG Version: 6.00 Build 0)  -->
<svg version="1.1" xmlns="http://www.w3.org/2000/svg" xmlns:xlink="http://www.w3.org/1999/xlink" x="0px" y="0px"
	 viewBox="0 0 209.224 303.242" enable-background="new 0 0 209.224 303.242" xml:space="preserve">
<g id="flower_x5F_blue">
	<path fill="#A3D02A" d="M202.279,207.762c-18.393-26.067-73.488-14.05-87.17,8.949c-12.102,23.796,6.769,39.476,33.159,48.365
		C186.563,279.977,225.39,244.572,202.279,207.762z"/>
	<path fill="#A3D02A" d="M8.268,202.225c19.85-24.976,74.169-9.836,86.518,13.905c10.725,24.447-9.009,39.026-35.864,46.396
		C19.84,275.219-16.904,237.657,8.268,202.225z"/>
	<g>
		<path fill="#BFD731" d="M179.23,213.549c-12.58-20.33-52.546-9.96-64.068,8.582l-1.267-33.299l-19.431-2.888
			c-0.174,0.325-0.601,15.055-1.081,33.967c-11.423-18.248-49.186-29.579-62.432-10.592c-8.069,8.775-7.158,24.091-0.961,33.657
			c12.81,21.677,50.941,11.628,62.89-2.568c-0.732,30.652-1.429,62.835-1.429,62.835l26.744-1.413l-2.298-60.382
			c11.685,14.692,48.269,26.506,62.372,5.759C185.003,238.01,186.785,222.771,179.23,213.549z"/>
		<path fill="#F8D115" d="M184.533,40.394c-18.346,10.295-32.449-3.064-29.421-19.738C164.841-6.692,206.078,17.02,184.533,40.394z"
			/>
		<path fill="#F8D115" d="M125.926,19.258c-3.903,22.956-25.218,25.801-37.464,11.592C77.133,17.831,95.108-6.397,113.01,1.575
			C119.738,4.465,126.058,11.777,125.926,19.258z"/>
		<path fill="#F8D115" d="M35.883,36.986C22.174,22.968,30.782,7.04,46.522,5.726C73.635,7.833,61.817,50.844,35.883,36.986z"/>
		<g>
			<path fill="#DDECBF" d="M154.537,244.799c-19.525,6.143-30.288-9.391-24.078-24.666
				C145.249,195.925,179.68,227.098,154.537,244.799z"/>
		</g>
		<g>
			<path fill="#DDECBF" d="M53.82,241.925c19.143,7.246,30.774-7.649,25.446-23.253C65.875,193.689,29.731,222.744,53.82,241.925z"
				/>
		</g>
		<path fill="#80D8E2" d="M45.357,35.037c25.091-5.221,30.473,31.74,30.473,31.74s5.894-30.152,28.06-30.421
			c30.756-0.374,32.061,30.861,32.061,30.861s8.214-32.59,36.635-27.985c26.144,4.234,30.783,44.485,16.855,88.787
			c-12.724,40.475-33.07,62.59-60.291,66.56c-35.541,5.183-62.341-3.223-78.091-16.075c-20.166-16.456-32.705-49.868-35.254-81.542
			C13.516,68.535,19.15,40.49,45.357,35.037z"/>
		<path fill="#54BDCF" d="M51.589,134.119c-3.618-55.594,57.412-67.489,88.04-42.794C200.817,156.838,74.004,235.648,51.589,134.119
			z"/>
		<path fill="#3F749A" d="M94.97,164.353c-34.857-7.963-30.989-47.68-10.187-61.993C136.291,76.732,161.524,169.173,94.97,164.353z"
			/>
	</g>
</g>
<g id="Layer_1">
</g>
</svg>
