<?xml version="1.0" encoding="utf-8"?>
<!-- Generator: Adobe Illustrator 24.2.3, SVG Export Plug-In . SVG Version: 6.00 Build 0)  -->
<svg version="1.1" xmlns="http://www.w3.org/2000/svg" xmlns:xlink="http://www.w3.org/1999/xlink" x="0px" y="0px"
	 viewBox="0 0 283.194 349.387" enable-background="new 0 0 283.194 349.387" xml:space="preserve">
<g id="leaf_x5F_maple_x5F_white">
	<g>
		<g id="lehti_x5F_7_2_">
			<path fill="#FFFFFF" d="M254.173,211.179l29.022-21.887l-28.228-6.769l3.201-15.496l-44.028,1.489l37.561-24.384l-14.621-6.99
				l23.084-20.48l-16.882-3.621l20.456-27.624l-2.585,0.046l-34.525,3.311l-2.885-2.938l1.124-11.406l-41.363,17.891l-4.724-3.927
				l5.921-30.202l-3.507,1.35l-8.411,2.674l-2.417-8.562l-4.633-19.737l-6.626,9.799L141.273,0l-17.597,40.195l-7.533-12.015
				l-6.804,29.742L93.163,47.658l4.334,18.064l4.013,24.482l-3.91-1.005l-42.654-20.36l-3.962-1.39l5.123,14.206L21.252,74.56
				l16.685,30.357l-16.899,3.104l22.577,28.014l-12.339,3.294l39.418,36.989l-46.412-9.423l2.174,15.879l-12.032,1.109L0,186.064
				l25.561,22.065l-16.34,7.733l29.737,15.444l-13.902,5.287l109.003,30.987l-1.944,81.805l15.896-0.244l0.412-81.688
				l113.768-22.521l-17.804-12.6l27.884-11.771L254.173,211.179L254.173,211.179z"/>
		</g>
		<g id="Layer_1_52_">
		</g>
	</g>
</g>
<g id="Layer_1">
</g>
</svg>
