<?xml version="1.0" encoding="utf-8"?>
<!-- Generator: Adobe Illustrator 24.2.3, SVG Export Plug-In . SVG Version: 6.00 Build 0)  -->
<svg version="1.1" xmlns="http://www.w3.org/2000/svg" xmlns:xlink="http://www.w3.org/1999/xlink" x="0px" y="0px"
	 viewBox="0 0 234.143 319.398" enable-background="new 0 0 234.143 319.398" xml:space="preserve">
<g id="leaf_x5F_round_x5F_white">
	<path fill="#FFFFFF" d="M231.1,70.588C210.369-12.297,76.931-21.27,26.861,38.83C6.27,61.126-1.084,91.772,0.127,121.706
		c0.601,31.028,18.328,59.828,44.984,75.324c17.111,10.419,59.734,19.848,80.992,18.416c48.041-3.236,88.921-36.238,102.551-82.901
		c-0.011-0.003-0.021-0.003-0.032-0.006C235.379,112.801,235.6,90.874,231.1,70.588z"/>
	<path fill="#CCD2D3" d="M232.984,114.237c-34.328,6.952-106.711,23.141-106.711,23.141l0.127-35.494
		c31.902-16.124,63.715-37.293,95.704-53.243c-3.644-6.151-8.036-11.716-13.045-16.691c-27.177,18.27-84.917,54.168-84.917,54.168
		s-0.621-60.991-0.488-85.866L107,0.768c0,0,0,0,0.002,0c-0.002,0-0.37,76.061-0.37,76.061L26.238,39.527
		c-4.949,5.472-9.12,11.43-12.572,17.75c29.672,10.699,58.995,22.372,88.555,33.384l-0.898,45.763c0,0-74.446-9.583-101.14-13.162
		c0.272,7.174,1.446,14.219,3.441,20.996c32.122,1.569,97.678,7.728,97.678,7.728l-2.937,167.412h30.377
		c-0.188-13.761-1.634-167.412-1.634-167.412s67.428-12.396,101.101-18.021c0.146-0.475,0.305-0.942,0.444-1.419
		c-0.011-0.003-0.021-0.003-0.032-0.006C230.654,126.603,232.085,120.466,232.984,114.237z"/>
</g>
<g id="Layer_1">
</g>
</svg>
