<?xml version="1.0" encoding="utf-8"?>
<!-- Generator: Adobe Illustrator 24.2.3, SVG Export Plug-In . SVG Version: 6.00 Build 0)  -->
<svg version="1.1" xmlns="http://www.w3.org/2000/svg" xmlns:xlink="http://www.w3.org/1999/xlink" x="0px" y="0px"
	 viewBox="0 0 219.45 360.63" enable-background="new 0 0 219.45 360.63" xml:space="preserve">
<g id="leaf_x5F_oak_x5F_white">
	<path fill="#CCD2D3" d="M197.554,206.744c-6.416,1.165-20.141,5.845-21.884,6.283c11.758-10.748,21.751-20.219,32.947-30.812
		c15.52-11.144,13.047-44.402-14.822-43.727c-9.639-0.315-17.918,2.184-34.855,9.13c18.164-18.911,40.428-36.109,43.786-63.477
		c3.641-41.84-44.452-15.91-63.831-5.487c-0.433-18.57,1.303-38.07-2.82-56.297c-4.957-19.182-23.666-28.526-37.63-17.908
		c-16.38,16.709-13.718,48.51-13.77,70.535C72.013,58.523,37.3,26.652,23.367,56.916c-16.642,29.971,31.881,87.239,37.08,100.149
		c-12.273-10.001-23.767-20.349-40.289-20.628c-12.088-0.078-20.334,7.423-20.155,18.958c0.552,35.424,39.776,49.466,53.732,62.224
		c-3.138-0.06-35.771-9.723-39.121,10.496c-2.065,12.464,4.082,25.854,13.781,33.415c17.791,13.866,73.357,28.351,78.313,29.83
		c0,0,132.189-24.322,110.295-73.764C212.931,208.402,208.32,204.789,197.554,206.744z"/>
	<path fill="#FFFFFF" d="M115.931,96.172c0.11,7.816,3.841,251.3,3.974,264.458H99.546c0.379-12.211,7.574-257.071,7.84-264.445
		L115.931,96.172z"/>
</g>
<g id="Layer_1">
</g>
</svg>
