<?xml version="1.0" encoding="utf-8"?>
<!-- Generator: Adobe Illustrator 24.2.3, SVG Export Plug-In . SVG Version: 6.00 Build 0)  -->
<svg version="1.1" xmlns="http://www.w3.org/2000/svg" xmlns:xlink="http://www.w3.org/1999/xlink" x="0px" y="0px"
	 viewBox="0 0 354.488 348.631" enable-background="new 0 0 354.488 348.631" xml:space="preserve">
<g id="moon">
	<path fill="#CAF5F9" d="M328.754,66.645C281.295-8.684,181.119-13.929,98.537,20.058c-61.79,25.43-131.517,121.358-81.39,235.179
		c50.555,114.794,208.428,111.157,271.608,56.606C368.406,243.07,367.734,128.517,328.754,66.645z"/>
	<path fill="#A0D8E8" d="M305.563,84.7C265.368,20.902,180.526,16.46,110.585,45.245C58.253,66.782-0.801,148.026,41.653,244.425
		c42.817,97.222,176.524,94.142,230.033,47.941C339.145,234.12,338.576,137.101,305.563,84.7z"/>
	<path fill="#54BDCF" d="M277.741,107.381c-30.383-48.226-94.516-51.583-147.385-29.825C90.798,93.837,46.159,155.25,78.25,228.118
		c32.365,73.491,133.436,71.162,173.883,36.239C303.126,220.329,302.696,146.992,277.741,107.381z"/>
	<path fill="#FCEF13" d="M217.135,90.219c-48.923-11.21-82.232,8.236-101.03,47.653c-16.024,33.601-2.276,92.743,40.356,111.565
		c28.218,12.458,93.062,0.682,108.248-35.567c0,0-78.55,19.289-92.318-33.471C155.232,114.642,217.135,90.219,217.135,90.219z"/>
</g>
<g id="Layer_1">
</g>
</svg>
