<?xml version="1.0" encoding="utf-8"?>
<!-- Generator: Adobe Illustrator 26.0.1, SVG Export Plug-In . SVG Version: 6.00 Build 0)  -->
<svg version="1.1" xmlns="http://www.w3.org/2000/svg" xmlns:xlink="http://www.w3.org/1999/xlink" x="0px" y="0px"
	 viewBox="0 0 2223.542 690.864" enable-background="new 0 0 2223.542 690.864" xml:space="preserve">
<g id="mountain_x5F_top">
	<path fill="#FFFFFF" d="M708.802,452.473c-19.511,65.253,22.778,135.961,82.418,173.198
		c59.641,37.237,132.835,48.115,203.723,55.835c111.51,12.144,227.636,18.19,332.977-18.648
		c105.341-36.837,197.48-126.685,200.864-233.352c76.832,96.396,199.238,154.191,324.944,172.727
		c123.218,18.169,249.663,1.432,369.814-30.529C1795.519,299.601,1260.317,0,1089.747,0C941.019,0,421.683,288.735,0,558.857
		c33.881,21.151,71.364,37.72,109.184,48.781C318.077,668.735,561.288,605.798,708.802,452.473z"/>
</g>
<g id="Layer_1">
</g>
</svg>
