<?xml version="1.0" encoding="utf-8"?>
<!-- Generator: Adobe Illustrator 24.2.3, SVG Export Plug-In . SVG Version: 6.00 Build 0)  -->
<svg version="1.1" xmlns="http://www.w3.org/2000/svg" xmlns:xlink="http://www.w3.org/1999/xlink" x="0px" y="0px"
	 viewBox="0 0 112.87 199.054" enable-background="new 0 0 112.87 199.054" xml:space="preserve">
<g id="mushroom_x5F_thin_x5F_orange_x5F_dots_x5F_cap">
	<g>
		<path fill="#54BDCF" d="M76.043,121.161c-0.1-4.265-0.2-8.53-0.3-12.795c-4.571,0.556-30.075,2.732-38.281,2.622
			c-0.894,25.601-2.443,54.884,5.279,78.123c3.749,13.743,18.807,12.601,23.981,0.5C76.822,167.929,75.531,141.338,76.043,121.161z"
			/>
		<path fill="#FDA519" d="M111.893,95.621c-6.068-31.211-11.479-67.133-35.446-90.032c-6.535-5.32-13.958-6.408-22.473-5.069
			C10.281,10.43,0.471,70.189,0,108.217c16.403,15.524,93.048,7.675,112.87-3.534C112.845,103.625,112.174,97.585,111.893,95.621z"
			/>
		<path fill="#FDE40B" d="M42.593,100.005c-13.89-0.885-6.821-18.678,4.732-13.753C54.68,89.831,50.384,100.6,42.593,100.005z"/>
		<path fill="#FDE40B" d="M61.688,51.02c0.315,7.077-10.046,10.523-14.478,5.6C38.343,46.222,60.908,38.523,61.688,51.02z"/>
		<path fill="#FDE40B" d="M72.32,27.672c16.495,0.695,3.903,21.733-6.573,11.97C60.948,34.589,66.131,27.139,72.32,27.672z"/>
		<path fill="#FDE40B" d="M86.917,94.795c-0.67-7.462,13.786-9.563,13.251-0.293C101.256,101.65,86.29,103.236,86.917,94.795z"/>
		<path fill="#FDE40B" d="M58.36,66.723c9.579-0.172,7.091,14.056-2.062,12.109C48.382,78.226,49.945,66.11,58.36,66.723z"/>
		<path fill="#FDE40B" d="M40.193,32.483c-10.151,0.282-6.655-13.758,1.964-12.089C49.845,20.946,48.484,33.666,40.193,32.483z"/>
		<path fill="#FDE40B" d="M17.299,90.467c7.625-0.854,8.366,10.955,1.414,11.801C8.475,105.396,6.977,90.186,17.299,90.467z"/>
		<path fill="#FDE40B" d="M53.821,13.508c-0.847-7.025,11.817-8.675,11.537-0.66C65.724,20.311,53.629,21.308,53.821,13.508z"/>
		<path fill="#FDE40B" d="M25.259,54.781c-8.067-0.004-7.202-11.913,0.811-11.556C33.409,43.16,32.369,55.201,25.259,54.781z"/>
		<path fill="#FDE40B" d="M73.798,100.047c0.747,7.644-11.667,8.593-11.54,0.754C61.71,94.048,73.939,92.046,73.798,100.047z"/>
		<path fill="#FDE40B" d="M93.464,52.276c0.777,7.448-11.675,8.09-11.539,0.586C81.333,46.09,93.675,43.856,93.464,52.276z"/>
		<path fill="#FDE40B" d="M88.781,74.081c0.738,7.623-11.649,8.41-11.534,0.799C76.665,68.09,88.907,65.875,88.781,74.081z"/>
		<path fill="#FDE40B" d="M28.737,78.978c-8.122,0.364-7.284-11.971,0.856-11.321C36.996,67.456,35.794,79.817,28.737,78.978z"/>
	</g>
</g>
<g id="Layer_1">
</g>
</svg>
