<?xml version="1.0" encoding="utf-8"?>
<!-- Generator: Adobe Illustrator 24.2.3, SVG Export Plug-In . SVG Version: 6.00 Build 0)  -->
<svg version="1.1" xmlns="http://www.w3.org/2000/svg" xmlns:xlink="http://www.w3.org/1999/xlink" x="0px" y="0px"
	 viewBox="0 0 121.251 184.462" enable-background="new 0 0 121.251 184.462" xml:space="preserve">
<g id="mushroom_x5F_tall_x5F_blue_x5F_cap">
	<g>
		<path fill="#FDA519" d="M50.015,58.195c0,0-2.866,81.523,0.028,102.81c2.501,18.401,4.958,23.813,12.853,23.44
			c11.259-0.532,11.224-8.81,13.068-30.021c1.696-19.496-1.83-96.906-1.83-96.906L50.015,58.195z"/>
		<path fill="#54BDCF" d="M0,62.385c3.94,0.69,121.251-3.383,121.251-3.383s-16.498-68.1-65.723-57.976
			C9.416,10.51,0,62.385,0,62.385z"/>
		<g>
			<path fill="#A0D8E8" d="M97.249,14.209c-19.281-0.737-49.504-1.892-66.094-2.519c-6.702,4.845-12.043,10.685-16.269,16.655
				l91.522-2.79C103.762,21.575,100.72,17.697,97.249,14.209z"/>
			<path fill="#A0D8E8" d="M7.614,40.652c-2.386,4.87-4.092,9.391-5.278,13.038c26.707-0.188,94.307-0.707,116.94-1.288
				c-1.408-4.204-3.613-10.015-6.746-16.249C89.353,37.15,27.604,39.808,7.614,40.652z"/>
		</g>
	</g>
</g>
<g id="Layer_1">
</g>
</svg>
