<?xml version="1.0" encoding="utf-8"?>
<!-- Generator: Adobe Illustrator 24.2.3, SVG Export Plug-In . SVG Version: 6.00 Build 0)  -->
<svg version="1.1" xmlns="http://www.w3.org/2000/svg" xmlns:xlink="http://www.w3.org/1999/xlink" x="0px" y="0px"
	 viewBox="0 0 146.628 172.57" enable-background="new 0 0 146.628 172.57" xml:space="preserve">
<g id="mushroom_x5F_wide_x5F_orange_x5F_cap">
	<g>
		<path fill="#FDE40B" d="M42.882,76.695c1.002-0.02,63.867-3.202,64.387-3.263c3.823,18.514,9.972,37.031,10.019,56.057
			c-0.563,24.391-19.927,44.87-44.751,42.957C18.307,172.166,35.923,111.017,42.882,76.695z"/>
		<path fill="#FF8000" d="M0.081,75.077C-0.719,17.822,46.529-9.026,98.904,2.705c26.054,7.591,49.409,31.01,47.59,59.44
			c1.017,24.269-11.837,19.108-30.046,21.564C91.814,85.6,67.115,87.323,42.401,87.5c-12.045-0.118-24.393,0.378-36.139-2.665
			C1.433,84.025,0.73,79.115,0.081,75.077z"/>
		<path fill="#FDA519" d="M1.989,82.138c11.127,7.682,27.368,4.365,40.412,5.364c21.261-0.062,42.5-1.615,63.712-2.945
			c9.171-2.209,37.503,1.234,38.785-9.677c2.784-11.833,2.417-25.257-2.625-36.398c-24.14,3.233-40.008,20.095-40.636,42.69
			c-0.088,0.007-0.175,0.013-0.263,0.02c-2.406-50.922-57.801-38.576-60.264,5.025C39.141,66.962,23.381,50.506,2.628,53.392
			C0.701,62.685-1.84,73.063,1.989,82.138z"/>
	</g>
</g>
<g id="Layer_1">
</g>
</svg>
