<?xml version="1.0" encoding="utf-8"?>
<!-- Generator: Adobe Illustrator 24.2.3, SVG Export Plug-In . SVG Version: 6.00 Build 0)  -->
<svg version="1.1" xmlns="http://www.w3.org/2000/svg" xmlns:xlink="http://www.w3.org/1999/xlink" x="0px" y="0px"
	 viewBox="0 0 381.548 535.65" enable-background="new 0 0 381.548 535.65" xml:space="preserve">
<g id="oat_x5F_sheaf">
	<g>
		<g id="cleaning_x5F_brush_4_">
			<path id="XMLID_161_" fill="#FFD200" d="M72.949,81.591C59.133,73.083,45.32,64.567,31.504,56.058
				c16.302,69.303,29.383,127.203,52.079,197.514c9.274,28.732,31.864,66.907,50.264,88.016
				c18.4,21.112,44.233,23.275,71.663,18.551l21.961-4.763c29.492-17.525,50.5-55.519,64.521-92.045
				c24.086-62.751,42.547-130.281,38.713-200.135c-8.869,13.066-17.742,26.133-26.611,39.199
				c0.587-22.295-2.211-44.793-8.205-65.982c-10.194,17.884-20.388,35.768-30.582,53.652c3.355-23.113,0.392-47.691-8.294-68.859
				c-5.93,20.219-21.178,37.99-33.065,53.609C218.18,43.282,212.981,27.644,199.196,0c-5.558,30.287-9.997,46.67-15.554,76.961
				c-10.919-18.514-23.415-35.627-37.206-50.95c-0.991,21.42-1.981,42.84-2.972,64.257c-10.5-18.993-21-37.985-31.503-56.977
				c0.269,19.898,0.537,39.8,0.806,59.698c-14.278-19.962-28.556-39.921-42.834-59.88C73.85,48.783,74.891,65.487,72.949,81.591z"/>
		</g>
		<g>
			<g id="cleaning_x5F_brush_1_">
				<path id="XMLID_160_" fill="#FFD200" d="M236.28,498.804c6.719,3.798,13.437,7.6,20.156,11.398
					c-7.831-31.095-14.111-57.073-25.057-88.61c-4.472-12.887-15.419-29.993-24.352-39.442c-8.933-9.45-21.519-10.379-34.895-8.213
					l-10.711,2.175c-14.402,7.918-24.702,25.014-31.596,41.439c-11.841,28.218-20.949,58.573-19.195,89.936
					c4.344-5.882,8.689-11.764,13.033-17.647c-0.322,10.013,1.004,20.111,3.891,29.616c4.997-8.048,9.995-16.095,14.992-24.143
					c-1.673,10.385-0.269,21.417,3.929,30.908c2.923-9.089,10.383-17.094,16.202-24.128c2.76,14.151,5.268,21.165,11.941,33.556
					c2.758-13.61,4.949-20.974,7.707-34.586c5.291,8.296,11.353,15.96,18.049,22.819c0.518-9.621,1.036-19.241,1.554-28.86
					c5.086,8.512,10.172,17.023,15.26,25.535c-0.098-8.935-0.197-17.872-0.295-26.807c6.926,8.941,13.851,17.88,20.777,26.819
					C235.787,513.538,235.307,506.039,236.28,498.804z"/>
			</g>
			<path fill="#FFE400" d="M105.114,146.027c53.827,47.935,74.914,145.907,74.983,215.419
				C164.591,289.881,148.736,205.897,105.114,146.027z"/>
			<path fill="#FFE400" d="M38.498,163.293c64.613,31.938,109.928,128.187,128.433,195.19
				C132.997,293.595,96.439,209.446,38.498,163.293z"/>
			<path fill="#FFE400" d="M252.644,189.051c-39.583,49.055-49.217,112.997-60.797,173.302
				C187.871,304.31,203.051,225.676,252.644,189.051z"/>
			<path fill="#FFE400" d="M352.499,163.226C277.68,207.76,232.766,286.552,196.83,363.421
				C218.39,281.915,270.472,194.444,352.499,163.226z"/>
			<path fill="#FFE400" d="M181.213,374.242c-11.628,34.069-22.382,62.488-41.457,92.994
				C145.466,431.631,157.287,401.208,181.213,374.242z"/>
			<path fill="#FFE400" d="M233.111,477.307c-16.007-32.244-27.889-65.954-36.123-100.978
				C218.253,405.452,230.806,441.33,233.111,477.307z"/>
			<path fill="#FFE400" d="M181.021,484.3c-0.546-35.995,0.317-70.49,7.984-105.642C195.639,414.103,194.448,450.843,181.021,484.3z
				"/>
			<g>
				<path fill="#FF4035" d="M107.813,318.554c-8.206,3.235-11.338,85.857-1.941,91.995c9.398,6.137,74.147-37.17,71.128-44.797
					S116.019,315.318,107.813,318.554z"/>
				<path fill="#FF4035" d="M268.608,329.423c7.859,4.007,3.061,86.55-6.882,91.758c-9.941,5.209-70.246-44.102-66.51-51.406
					C198.953,362.473,260.75,325.415,268.608,329.423z"/>
				<path fill="#821F1B" d="M165.589,372.707c-0.499-8.598,3.531-17.1,11.5-20.878c7.587-3.596,17.003-3.002,23.115,3.062
					c6.236,6.187,8.226,16.534,5.128,24.689c-1.493,3.928-4.254,7.132-7.986,9.085c-4.008,2.097-8.662,2.738-13.13,2.293
					c-4.713-0.469-9.527-2.175-13.073-5.392C167.501,382.264,165.877,377.522,165.589,372.707
					C165.415,369.72,165.639,373.548,165.589,372.707z"/>
			</g>
			<g>
				<g>
					<g id="waterdrop_x5F_fire_x5F_white_71_">
						<g>
							<g id="kynttila_x5F_liekki_72_">
								<path id="XMLID_159_" fill="#FFA600" d="M50.556,261.486c0,0,11.384,19.305,26.753,28.324
									c9.688,5.685,23.014,7.468,27.357-2.534c4.955-11.411-6.216-20.356-14.474-23.247
									C78.651,259.987,59.753,259.181,50.556,261.486z"/>
							</g>
							<g id="Layer_1_451_">
							</g>
						</g>
					</g>
				</g>
				<g>
					<g id="waterdrop_x5F_fire_x5F_white_70_">
						<g>
							<g id="kynttila_x5F_liekki_71_">
								<path id="XMLID_158_" fill="#FFE400" d="M63.187,243.044c0,0,3.351,21.92,13.83,37.171
									c6.605,9.614,17.799,17.759,25.144,11.51c8.38-7.13,1.598-20.227-4.715-26.777
									C88.623,255.793,72.148,245.691,63.187,243.044z"/>
							</g>
							<g id="Layer_1_450_">
							</g>
						</g>
					</g>
				</g>
			</g>
			<g>
				<g>
					<g id="waterdrop_x5F_fire_x5F_white_69_">
						<g>
							<g id="kynttila_x5F_liekki_70_">
								<path id="XMLID_157_" fill="#FFA600" d="M0,160.821c0,0,15.857,17.19,33.518,23.011c11.132,3.669,25.118,2.558,27.35-8.6
									c2.546-12.73-10.817-19.398-19.876-20.532C28.329,153.115,8.875,156.448,0,160.821z"/>
							</g>
							<g id="Layer_1_449_">
							</g>
						</g>
					</g>
				</g>
				<g>
					<g id="waterdrop_x5F_fire_x5F_white_68_">
						<g>
							<g id="kynttila_x5F_liekki_69_">
								<path id="XMLID_156_" fill="#FFE400" d="M8.83,139.232c0,0,8.238,21.623,22.28,34.877
									c8.851,8.355,22.061,14.202,28.179,6.213c6.981-9.115-2.817-20.984-10.697-26.278
									C37.58,146.644,18.553,139.962,8.83,139.232z"/>
							</g>
							<g id="Layer_1_448_">
							</g>
						</g>
					</g>
				</g>
			</g>
			<g>
				<g>
					<g id="waterdrop_x5F_fire_x5F_white_67_">
						<g>
							<g id="kynttila_x5F_liekki_68_">
								<path id="XMLID_155_" fill="#FFA600" d="M76.383,108.566c0,0,1.459,22.292,11.084,37.219
									c6.067,9.41,17.124,16.982,25.481,10.033c9.535-7.928,3.611-20.905-2.438-27.187
									C102.056,119.852,85.603,110.646,76.383,108.566z"/>
							</g>
							<g id="Layer_1_447_">
							</g>
						</g>
					</g>
				</g>
				<g>
					<g id="waterdrop_x5F_fire_x5F_white_66_">
						<g>
							<g id="kynttila_x5F_liekki_67_">
								<path id="XMLID_154_" fill="#FFE400" d="M95.906,97.83c0,0-6.863,21.01-4.389,39.288
									c1.559,11.521,7.861,23.797,17.204,21.535c10.659-2.58,10.507-17.28,7.832-25.944
									C112.813,120.598,102.69,104.21,95.906,97.83z"/>
							</g>
							<g id="Layer_1_446_">
							</g>
						</g>
					</g>
				</g>
			</g>
			<g>
				<g>
					<g id="waterdrop_x5F_fire_x5F_white_65_">
						<g>
							<g id="kynttila_x5F_liekki_66_">
								<path id="XMLID_153_" fill="#FFA600" d="M174.457,188.819c0,0-8.981,20.454-7.321,38.139
									c1.046,11.147,7.368,22.963,17.987,20.649c12.116-2.64,12.841-16.887,10.369-25.25
									C192.037,210.668,181.679,194.914,174.457,188.819z"/>
							</g>
							<g id="Layer_1_445_">
							</g>
						</g>
					</g>
				</g>
				<g>
					<g id="waterdrop_x5F_fire_x5F_white_64_">
						<g>
							<g id="kynttila_x5F_liekki_65_">
								<path id="XMLID_152_" fill="#FFE400" d="M196.73,188.29c0,0-15.775,15.481-22.006,32.841
									c-3.927,10.943-3.993,24.741,5.34,27.041c10.648,2.624,17.289-10.492,18.91-19.413
									C201.239,216.289,199.81,197.079,196.73,188.29z"/>
							</g>
							<g id="Layer_1_444_">
							</g>
						</g>
					</g>
				</g>
			</g>
			<g>
				<g>
					<g id="waterdrop_x5F_fire_x5F_white_63_">
						<g>
							<g id="kynttila_x5F_liekki_64_">
								<path id="XMLID_151_" fill="#FFA600" d="M381.548,146.96c0,0-11.088,19.393-26.285,28.587
									c-9.579,5.795-22.837,7.751-27.3-2.159c-5.091-11.307,5.923-20.371,14.115-23.363
									C353.527,145.842,372.35,144.785,381.548,146.96z"/>
							</g>
							<g id="Layer_1_443_">
							</g>
						</g>
					</g>
				</g>
				<g>
					<g id="waterdrop_x5F_fire_x5F_white_62_">
						<g>
							<g id="kynttila_x5F_liekki_63_">
								<path id="XMLID_150_" fill="#FFE400" d="M368.712,128.748c0,0-3.047,21.891-13.287,37.232
									c-6.454,9.67-17.502,17.938-24.906,11.808c-8.447-6.994-1.863-20.138,4.341-26.751
									C343.532,141.794,359.817,131.506,368.712,128.748z"/>
							</g>
							<g id="Layer_1_442_">
							</g>
						</g>
					</g>
				</g>
			</g>
			<g>
				<g>
					<g id="waterdrop_x5F_fire_x5F_white_61_">
						<g>
							<g id="kynttila_x5F_liekki_62_">
								<path id="XMLID_149_" fill="#FFA600" d="M288.084,168.81c0,0-11.088,19.393-26.285,28.587
									c-9.579,5.795-22.837,7.751-27.3-2.159c-5.091-11.307,5.923-20.371,14.115-23.363
									C260.063,167.693,278.886,166.636,288.084,168.81z"/>
							</g>
							<g id="Layer_1_441_">
							</g>
						</g>
					</g>
				</g>
				<g>
					<g id="waterdrop_x5F_fire_x5F_white_60_">
						<g>
							<g id="kynttila_x5F_liekki_61_">
								<path id="XMLID_148_" fill="#FFE400" d="M275.249,150.599c0,0-3.047,21.891-13.287,37.232
									c-6.454,9.67-17.502,17.938-24.906,11.808c-8.447-6.994-1.863-20.138,4.341-26.751
									C250.068,163.645,266.353,153.357,275.249,150.599z"/>
							</g>
							<g id="Layer_1_440_">
							</g>
						</g>
					</g>
				</g>
			</g>
			<g>
				<g>
					<g id="waterdrop_x5F_fire_x5F_white_59_">
						<g>
							<g id="kynttila_x5F_liekki_60_">
								<path id="XMLID_147_" fill="#FFA600" d="M320.905,288.919c0,0-13.51,16.56-29.297,22.85
									c-9.951,3.964-22.77,3.727-25.424-6.326c-3.029-11.47,8.79-18.294,16.991-19.831
									C294.636,283.463,312.567,285.423,320.905,288.919z"/>
							</g>
							<g id="Layer_1_439_">
							</g>
						</g>
					</g>
				</g>
				<g>
					<g id="waterdrop_x5F_fire_x5F_white_58_">
						<g>
							<g id="kynttila_x5F_liekki_59_">
								<path id="XMLID_146_" fill="#FFE400" d="M311.653,269.717c0,0-6.314,20.181-18.388,33.05
									c-7.61,8.112-19.335,14.179-25.359,7.231c-6.873-7.927,1.405-19.297,8.299-24.564
									C285.839,278.073,302.824,270.922,311.653,269.717z"/>
							</g>
							<g id="Layer_1_438_">
							</g>
						</g>
					</g>
				</g>
			</g>
			<g>
				<g>
					<g id="waterdrop_x5F_fire_x5F_white_57_">
						<g>
							<g id="kynttila_x5F_liekki_58_">
								<path id="XMLID_145_" fill="#FFA600" d="M253.06,87.894c0,0-15.921,15.982-20.81,33.238
									c-3.082,10.877-1.442,24.31,9.401,26.007c12.371,1.935,18.253-11.214,18.977-19.991
									C261.64,114.881,257.636,96.269,253.06,87.894z"/>
							</g>
							<g id="Layer_1_437_">
							</g>
						</g>
					</g>
				</g>
				<g>
					<g id="waterdrop_x5F_fire_x5F_white_56_">
						<g>
							<g id="kynttila_x5F_liekki_57_">
								<path id="XMLID_144_" fill="#FFE400" d="M274.225,95.524c0,0-20.503,8.819-32.704,22.892
									c-7.691,8.87-12.789,21.838-4.84,27.409c9.069,6.356,20.108-3.569,24.889-11.379
									C268.253,123.532,273.918,104.924,274.225,95.524z"/>
							</g>
							<g id="Layer_1_436_">
							</g>
						</g>
					</g>
				</g>
			</g>
			<g>
				<g>
					<g id="waterdrop_x5F_fire_x5F_white_55_">
						<g>
							<g id="kynttila_x5F_liekki_56_">
								<path id="XMLID_143_" fill="#FFA600" d="M153.256,111.47c0,0,14.2,13.472,18.863,28.32c2.94,9.359,1.846,21.05-7.518,22.787
									c-10.683,1.981-16.106-9.28-16.949-16.875C146.474,135.088,149.491,118.846,153.256,111.47z"/>
							</g>
							<g id="Layer_1_435_">
							</g>
						</g>
					</g>
				</g>
				<g>
					<g id="waterdrop_x5F_fire_x5F_white_54_">
						<g>
							<g id="kynttila_x5F_liekki_55_">
								<path id="XMLID_142_" fill="#FFE400" d="M135.085,118.606c0,0,17.999,7.148,28.926,19.055
									c6.888,7.505,11.627,18.629,4.868,23.655c-7.71,5.735-17.528-2.604-21.866-9.26
									C140.95,142.753,135.581,126.751,135.085,118.606z"/>
							</g>
							<g id="Layer_1_433_">
							</g>
						</g>
					</g>
				</g>
			</g>
			<g>
				<g>
					<g id="waterdrop_x5F_fire_x5F_white_53_">
						<g>
							<g id="kynttila_x5F_liekki_54_">
								<path id="XMLID_141_" fill="#FFA600" d="M346.817,235.315c0,0-16.869,10.508-32.652,11.294
									c-9.948,0.495-21.157-3.569-20.469-13.214c0.785-11.004,13.238-13.454,20.916-12.34
									C325.343,222.612,340.531,229.73,346.817,235.315z"/>
							</g>
							<g id="Layer_1_432_">
							</g>
						</g>
					</g>
				</g>
				<g>
					<g id="waterdrop_x5F_fire_x5F_white_52_">
						<g>
							<g id="kynttila_x5F_liekki_53_">
								<path id="XMLID_140_" fill="#FFE400" d="M344.451,215.635c0,0-11.626,15.859-26.121,23.551
									c-9.136,4.849-21.279,6.661-24.49-1.265c-3.664-9.043,7.041-16.558,14.691-19.118
									C319.224,215.223,336.321,214.04,344.451,215.635z"/>
							</g>
							<g id="Layer_1_430_">
							</g>
						</g>
					</g>
				</g>
			</g>
		</g>
	</g>
</g>
<g id="Layer_1">
</g>
</svg>
