<?xml version="1.0" encoding="utf-8"?>
<!-- Generator: Adobe Illustrator 25.0.0, SVG Export Plug-In . SVG Version: 6.00 Build 0)  -->
<svg version="1.1" xmlns="http://www.w3.org/2000/svg" xmlns:xlink="http://www.w3.org/1999/xlink" x="0px" y="0px"
	 viewBox="0 0 272.998 308.725" enable-background="new 0 0 272.998 308.725" xml:space="preserve">
<g id="plant_x5F_strawberry">
	<g>
		<path fill="#8CD000" d="M36.023,76.152c0.08-26.451,9.489-57.636,34.638-66.732c9.64-3.487,20.212-2.852,29.464,1.755
			c11.275,5.614,19.822,15.984,25.689,27.767c7.478,15.016,10.336,32.07,12.867,48.78c2.715,17.924,4.523,36.005,5.927,54.105
			c2.798,36.085,3.955,147.376,4.05,166.794l6.552,0.104c0,0-0.941-124.104-3.581-160.767c-1.373-19.064-3.189-38.108-5.866-57.008
			c-2.473-17.461-5.25-35.241-12.254-51.3c-10.773-24.7-33.202-44.216-59.225-38.714c-26.496,5.602-40.979,34.09-44.066,61.402
			c-0.518,4.584-0.744,9.195-0.758,13.813L36.023,76.152L36.023,76.152z"/>
		<path fill="#8CD000" d="M244.555,94.064c-0.051-14.929-2.62-30.561-10.097-43.034c-5.768-9.622-14.354-17.108-24.471-19.183
			c-24.624-5.05-43.205,18.937-51.29,43.116c-3.902,11.67-6.194,24.171-8.116,36.45c-2.142,13.679-2.733,27.507-3.613,41.367h5.435
			c1.437-22.634,4.232-45.306,9.752-67.129c3.481-13.762,9.295-27.219,18.761-36.78c6.741-6.809,15.42-11.046,24.456-10.454
			c8.64,0.566,16.324,5.867,21.825,13.404c8.441,11.565,11.07,27.524,11.12,42.243H244.555L244.555,94.064z"/>
		<g>
			<g>
				<path fill="#0EB800" d="M41.625,54.751c-2.417,1.896-7.553,5.918-7.712,5.871c-0.198-0.059-2.593-6.057-3.476-8.95
					c-1.448,2.904-4.623,9.247-4.825,9.269c-0.124,0.013-5.018-3.742-7.35-5.532c-0.374,5.968,2.105,12.105,5.587,13.829
					l14.266-1.04C43.046,64.089,41.909,56.438,41.625,54.751z"/>
			</g>
			<g>
				<path fill="#FF4035" d="M59.923,81.219c-1.834-6.976-6.958-10.913-11.872-13.327C36.628,62.279,8.042,62.343,2.01,74.825
					c-1.759,3.639-2.536,8.631-1.627,13.084s2.884,8.286,4.916,11.899c5.57,9.906,12.632,19.534,21.444,20.818
					c7.306,1.065,14.345-3.854,20.617-9.306c3.794-3.298,7.565-6.951,10.191-12.083C60.177,94.105,61.493,87.19,59.923,81.219z"/>
			</g>
			<path fill="#C30D26" d="M15.303,90.953c-1.35-6.373-0.856-13.527,3.163-18.654c3.128-3.991,7.869-6.185,12.702-7.936
				C19.169,63.891,5.9,66.775,2.01,74.824c-1.759,3.639-2.537,8.631-1.627,13.084c0.909,4.453,2.884,8.286,4.916,11.899
				c5.57,9.906,12.632,19.534,21.444,20.818c3.946,0.575,7.815-0.597,11.526-2.655C26.976,113.198,17.857,103.01,15.303,90.953z"/>
			<path fill="#FF8000" d="M42.951,74.174c-0.047-1.658-0.908-2.729-2.173-2.702c-1.32,0.028-2.214,1.353-2.166,3.21
				c0.04,1.571,0.854,2.524,2.13,2.495C42.144,77.147,43.002,75.979,42.951,74.174z"/>
			<path fill="#FF8000" d="M24.245,75.141c-0.047-1.658-0.908-2.729-2.173-2.702c-1.32,0.028-2.214,1.353-2.166,3.21
				c0.04,1.571,0.854,2.524,2.13,2.495C23.438,78.113,24.296,76.946,24.245,75.141z"/>
			<path fill="#FF8000" d="M32.655,84.325c-0.047-1.658-0.873-2.73-2.083-2.705c-1.263,0.026-2.117,1.349-2.069,3.207
				c0.041,1.571,0.821,2.525,2.043,2.498C31.887,87.296,32.707,86.13,32.655,84.325z"/>
			<path fill="#FF8000" d="M52.86,84.277c-0.047-1.658-0.873-2.73-2.083-2.705c-1.263,0.026-2.117,1.349-2.069,3.207
				c0.041,1.571,0.821,2.525,2.043,2.498C52.091,87.248,52.911,86.081,52.86,84.277z"/>
			<path fill="#FF8000" d="M20.051,88.528c-0.047-1.642-0.872-2.705-2.083-2.68c-1.263,0.026-2.118,1.338-2.07,3.178
				c0.04,1.557,0.82,2.502,2.042,2.475C19.282,91.471,20.102,90.316,20.051,88.528z"/>
			<path fill="#FF8000" d="M9.654,80.45c-0.044-1.553-0.867-2.555-2.077-2.529c-1.263,0.027-2.12,1.268-2.075,3.008
				c0.038,1.472,0.815,2.363,2.037,2.336C8.879,83.235,9.701,82.141,9.654,80.45z"/>
			<path fill="#FF8000" d="M30.583,99.93c-0.044-1.553-0.867-2.555-2.077-2.529c-1.263,0.027-2.12,1.268-2.075,3.008
				c0.038,1.472,0.815,2.363,2.037,2.336C29.808,102.714,30.631,101.62,30.583,99.93z"/>
			<path fill="#FF8000" d="M42.861,94.13c-0.044-1.553-0.867-2.555-2.077-2.529c-1.263,0.027-2.12,1.268-2.075,3.008
				c0.038,1.472,0.815,2.363,2.037,2.336C42.086,96.914,42.908,95.82,42.861,94.13z"/>
			<path fill="#FF8000" d="M52.9,97.529c-0.036-1.265-0.707-2.083-1.693-2.062c-1.03,0.022-1.728,1.034-1.692,2.452
				c0.031,1.2,0.665,1.926,1.661,1.904C52.269,99.799,52.939,98.907,52.9,97.529z"/>
			<path fill="#FF8000" d="M42.448,106.567c-0.036-1.262-0.705-2.077-1.688-2.056c-1.027,0.022-1.723,1.031-1.687,2.445
				c0.031,1.196,0.663,1.921,1.656,1.898C41.818,108.83,42.487,107.941,42.448,106.567z"/>
			<path fill="#FF8000" d="M11.467,95.497c-0.036-1.294-0.723-2.129-1.731-2.107c-1.053,0.023-1.766,1.057-1.729,2.506
				c0.031,1.226,0.679,1.969,1.697,1.946C10.821,97.816,11.507,96.905,11.467,95.497z"/>
			<path fill="#FF8000" d="M19.781,105.695c-0.036-1.294-0.723-2.129-1.731-2.107c-1.053,0.023-1.766,1.057-1.729,2.506
				c0.031,1.226,0.679,1.969,1.697,1.946C19.135,108.015,19.82,107.104,19.781,105.695z"/>
			<path fill="#FF8000" d="M30.656,112.656c-0.036-1.294-0.723-2.129-1.731-2.108c-1.053,0.023-1.766,1.057-1.729,2.506
				c0.031,1.226,0.679,1.969,1.697,1.946C30.011,114.976,30.696,114.064,30.656,112.656z"/>
		</g>
		<g>
			<g>
				<path fill="#0EB800" d="M254.023,83.529c-2.417,1.896-7.553,5.918-7.712,5.871c-0.198-0.059-2.593-6.057-3.476-8.95
					c-1.448,2.904-4.623,9.247-4.825,9.269c-0.124,0.013-5.018-3.742-7.35-5.532c-0.374,5.968,2.105,12.105,5.587,13.829
					l14.266-1.04C255.444,92.867,254.307,85.216,254.023,83.529z"/>
			</g>
			<g>
				<path fill="#FF4035" d="M272.321,109.997c-1.834-6.976-6.958-10.913-11.872-13.327c-11.423-5.613-40.009-5.549-46.041,6.933
					c-1.759,3.639-2.536,8.631-1.627,13.084s2.884,8.286,4.916,11.899c5.57,9.906,12.632,19.534,21.444,20.818
					c7.306,1.065,14.345-3.854,20.617-9.306c3.794-3.298,7.565-6.951,10.191-12.083
					C272.575,122.883,273.891,115.968,272.321,109.997z"/>
			</g>
			<path fill="#C30D26" d="M227.701,119.731c-1.35-6.373-0.856-13.527,3.163-18.654c3.128-3.991,7.869-6.185,12.702-7.936
				c-11.999-0.472-25.268,2.412-29.158,10.461c-1.759,3.639-2.537,8.631-1.627,13.084c0.909,4.453,2.884,8.286,4.916,11.899
				c5.57,9.906,12.632,19.534,21.444,20.818c3.946,0.575,7.815-0.597,11.526-2.655C239.374,141.976,230.255,131.788,227.701,119.731
				z"/>
			<path fill="#FF8000" d="M255.349,102.952c-0.047-1.658-0.908-2.729-2.173-2.702c-1.32,0.028-2.214,1.353-2.166,3.21
				c0.04,1.571,0.854,2.524,2.13,2.495C254.542,105.925,255.4,104.757,255.349,102.952z"/>
			<path fill="#FF8000" d="M236.643,103.919c-0.047-1.658-0.908-2.729-2.173-2.702c-1.32,0.028-2.214,1.353-2.166,3.21
				c0.04,1.571,0.854,2.524,2.13,2.495C235.836,106.891,236.694,105.724,236.643,103.919z"/>
			<path fill="#FF8000" d="M245.053,113.103c-0.047-1.658-0.873-2.73-2.083-2.705c-1.263,0.026-2.117,1.349-2.069,3.207
				c0.041,1.571,0.821,2.525,2.043,2.498C244.285,116.074,245.105,114.908,245.053,113.103z"/>
			<path fill="#FF8000" d="M265.258,113.055c-0.047-1.658-0.873-2.73-2.083-2.705c-1.263,0.026-2.117,1.349-2.069,3.207
				c0.041,1.571,0.821,2.525,2.043,2.498C264.489,116.026,265.309,114.859,265.258,113.055z"/>
			<path fill="#FF8000" d="M232.449,117.306c-0.047-1.642-0.872-2.705-2.083-2.68c-1.263,0.026-2.118,1.338-2.07,3.178
				c0.04,1.557,0.82,2.502,2.042,2.475C231.68,120.249,232.5,119.094,232.449,117.306z"/>
			<path fill="#FF8000" d="M222.052,109.228c-0.044-1.553-0.867-2.555-2.077-2.529c-1.263,0.027-2.12,1.268-2.075,3.008
				c0.038,1.472,0.815,2.363,2.037,2.336C221.277,112.013,222.099,110.919,222.052,109.228z"/>
			<path fill="#FF8000" d="M242.981,128.708c-0.044-1.553-0.867-2.555-2.077-2.529c-1.263,0.027-2.12,1.268-2.075,3.008
				c0.038,1.472,0.815,2.363,2.037,2.336C242.206,131.492,243.029,130.398,242.981,128.708z"/>
			<path fill="#FF8000" d="M255.259,122.908c-0.044-1.553-0.867-2.555-2.077-2.529c-1.263,0.027-2.12,1.268-2.075,3.008
				c0.038,1.472,0.815,2.363,2.037,2.336C254.484,125.692,255.306,124.598,255.259,122.908z"/>
			<path fill="#FF8000" d="M265.298,126.307c-0.036-1.265-0.707-2.083-1.693-2.062c-1.03,0.022-1.728,1.034-1.692,2.452
				c0.031,1.2,0.665,1.926,1.661,1.904C264.667,128.577,265.337,127.685,265.298,126.307z"/>
			<path fill="#FF8000" d="M254.846,135.345c-0.036-1.262-0.705-2.077-1.688-2.056c-1.027,0.022-1.723,1.031-1.687,2.445
				c0.031,1.196,0.663,1.921,1.656,1.898C254.216,137.608,254.885,136.719,254.846,135.345z"/>
			<path fill="#FF8000" d="M223.865,124.275c-0.036-1.294-0.723-2.129-1.731-2.107c-1.053,0.023-1.766,1.057-1.729,2.506
				c0.031,1.226,0.679,1.969,1.697,1.946C223.219,126.594,223.905,125.683,223.865,124.275z"/>
			<path fill="#FF8000" d="M232.179,134.473c-0.036-1.294-0.723-2.129-1.731-2.107c-1.053,0.023-1.766,1.057-1.729,2.506
				c0.031,1.226,0.679,1.969,1.697,1.946C231.533,136.793,232.218,135.882,232.179,134.473z"/>
			<path fill="#FF8000" d="M243.054,141.434c-0.036-1.294-0.723-2.129-1.731-2.108c-1.053,0.023-1.766,1.057-1.729,2.506
				c0.031,1.226,0.679,1.969,1.697,1.946C242.409,143.754,243.094,142.842,243.054,141.434z"/>
		</g>
		<path fill="#8CD000" d="M64.909,122.841c0.048-14.929,2.505-30.561,9.65-43.034c5.512-9.622,13.719-17.108,23.388-19.183
			c23.535-5.05,41.293,18.937,49.021,43.116l-4.204,4.011c-4.16-13.524-7.983-20.541-17.031-30.103
			c-6.443-6.809-14.738-11.046-23.375-10.454C94.1,67.76,86.756,73.061,81.499,80.598c-8.067,11.565-10.58,27.524-10.628,42.243
			L64.909,122.841L64.909,122.841z"/>
		<path fill="#0EB800" d="M92.067,173.591c24.357-10.886,58.837,21.283,58.852,43.662c-1.462,22.278-21.726,25.492-44.497,20.612
			C72.525,232.224,59.73,190.186,92.067,173.591z"/>
		<path fill="#8CD000" d="M107.218,188.179c17.451-9.14,41.386,14.699,42.343,32.629c-0.736,28.293-55.064,17.099-56.027-8.018
			C92.621,203.301,97.847,191.583,107.218,188.179z"/>
		<path fill="#B5D700" d="M107.611,220.036c11.414,12.755,25.788,6.185,27.847-7.451
			C135.269,188.836,96.975,196.736,107.611,220.036z"/>
		<path fill="#0EB800" d="M209.325,173.591c-24.357-10.886-58.837,21.283-58.852,43.662c1.463,22.278,21.726,25.492,44.497,20.612
			C228.867,232.224,241.662,190.186,209.325,173.591z"/>
		<path fill="#8CD000" d="M194.174,188.179c-15.045-10.248-42.995,16.348-42.343,32.631c0.735,28.292,55.062,17.097,56.026-8.02
			C208.771,203.301,203.545,191.583,194.174,188.179z"/>
		<path fill="#B5D700" d="M193.781,220.036c-11.415,12.755-25.788,6.185-27.847-7.451
			C166.123,188.836,204.418,196.736,193.781,220.036z"/>
		<path fill="#0EB800" d="M109.748,112.35c19.882-5.772,42.957,22.628,40.584,39.832c-3.497,16.968-19.416,17.28-36.398,11.103
			C88.479,155.336,83.125,121.662,109.748,112.35z"/>
		<path fill="#8CD000" d="M119.84,125.178c14.064-5.354,30.451,15.96,29.07,29.593c-3.58,21.668-44.148,7.277-42.212-12.133
			C107.008,135.246,112.274,126.796,119.84,125.178z"/>
		<path fill="#B5D700" d="M116.747,149.707c7.415,11.021,19.162,7.5,22.198-2.76C141.582,128.725,110.793,130.875,116.747,149.707z"
			/>
		<path fill="#0EB800" d="M190.119,112.35c-19.882-5.772-42.957,22.628-40.584,39.832c3.497,16.968,19.416,17.28,36.398,11.103
			C211.387,155.337,216.744,121.661,190.119,112.35z"/>
		<path fill="#8CD000" d="M180.028,125.178c-14.064-5.354-30.451,15.96-29.07,29.593c3.58,21.668,44.148,7.277,42.212-12.133
			C192.859,135.246,187.593,126.796,180.028,125.178z"/>
		<path fill="#B5D700" d="M183.12,149.707c-7.415,11.021-19.162,7.5-22.198-2.76C158.285,128.725,189.074,130.875,183.12,149.707z"
			/>
		<g>
			<g>
				<path fill="#0EB800" d="M80.386,110.893c-2.417,1.896-7.553,5.918-7.712,5.871c-0.198-0.059-2.593-6.057-3.476-8.95
					c-1.448,2.904-4.623,9.247-4.825,9.269c-0.124,0.013-5.018-3.742-7.35-5.532c-0.374,5.968,2.105,12.105,5.587,13.829
					l14.266-1.04C81.807,120.231,80.67,112.58,80.386,110.893z"/>
			</g>
			<g>
				<path fill="#FF4035" d="M98.684,137.361c-1.834-6.976-6.958-10.913-11.872-13.327c-11.423-5.613-40.009-5.549-46.041,6.933
					c-1.759,3.639-2.536,8.631-1.627,13.084s2.884,8.286,4.916,11.899c5.57,9.906,12.632,19.534,21.444,20.818
					c7.306,1.065,14.345-3.854,20.617-9.306c3.794-3.298,7.565-6.951,10.191-12.083S100.254,143.332,98.684,137.361z"/>
			</g>
			<path fill="#C30D26" d="M54.064,147.095c-1.35-6.373-0.856-13.527,3.163-18.654c3.128-3.991,7.869-6.185,12.702-7.936
				c-11.999-0.472-25.268,2.412-29.158,10.461c-1.759,3.639-2.537,8.631-1.627,13.084c0.909,4.453,2.884,8.286,4.916,11.899
				c5.57,9.906,12.632,19.534,21.444,20.818c3.946,0.575,7.815-0.597,11.526-2.655C65.737,169.34,56.618,159.152,54.064,147.095z"/>
			<path fill="#FF8000" d="M81.712,130.316c-0.047-1.658-0.908-2.729-2.173-2.702c-1.32,0.028-2.214,1.353-2.166,3.21
				c0.04,1.571,0.854,2.524,2.13,2.495C80.905,133.289,81.763,132.121,81.712,130.316z"/>
			<path fill="#FF8000" d="M63.006,131.283c-0.047-1.658-0.908-2.729-2.173-2.702c-1.32,0.028-2.214,1.353-2.166,3.21
				c0.04,1.571,0.854,2.524,2.13,2.495C62.199,134.255,63.057,133.088,63.006,131.283z"/>
			<path fill="#FF8000" d="M71.416,140.467c-0.047-1.658-0.873-2.73-2.083-2.705c-1.263,0.026-2.117,1.349-2.069,3.207
				c0.041,1.571,0.821,2.525,2.043,2.498C70.648,143.438,71.468,142.272,71.416,140.467z"/>
			<path fill="#FF8000" d="M91.621,140.419c-0.047-1.658-0.873-2.73-2.083-2.705c-1.263,0.026-2.117,1.349-2.069,3.207
				c0.041,1.571,0.821,2.525,2.043,2.498C90.852,143.39,91.672,142.223,91.621,140.419z"/>
			<path fill="#FF8000" d="M58.812,144.67c-0.047-1.642-0.872-2.705-2.083-2.68c-1.263,0.026-2.118,1.338-2.07,3.178
				c0.04,1.557,0.82,2.502,2.042,2.475C58.043,147.613,58.863,146.458,58.812,144.67z"/>
			<path fill="#FF8000" d="M48.415,136.592c-0.044-1.553-0.867-2.555-2.077-2.529c-1.263,0.027-2.12,1.268-2.075,3.008
				c0.038,1.472,0.815,2.363,2.037,2.336C47.64,139.377,48.462,138.283,48.415,136.592z"/>
			<path fill="#FF8000" d="M69.344,156.072c-0.044-1.553-0.867-2.555-2.077-2.529c-1.263,0.027-2.12,1.268-2.075,3.008
				c0.038,1.472,0.815,2.363,2.037,2.336C68.569,158.856,69.392,157.762,69.344,156.072z"/>
			<path fill="#FF8000" d="M81.622,150.272c-0.044-1.553-0.867-2.555-2.077-2.529c-1.263,0.027-2.12,1.268-2.075,3.008
				c0.038,1.472,0.815,2.363,2.037,2.336C80.847,153.056,81.669,151.962,81.622,150.272z"/>
			<path fill="#FF8000" d="M91.661,153.671c-0.036-1.265-0.707-2.083-1.693-2.062c-1.03,0.022-1.728,1.034-1.692,2.452
				c0.031,1.2,0.665,1.926,1.661,1.904C91.03,155.941,91.7,155.049,91.661,153.671z"/>
			<path fill="#FF8000" d="M81.209,162.709c-0.036-1.262-0.705-2.077-1.688-2.056c-1.027,0.022-1.723,1.031-1.687,2.445
				c0.031,1.196,0.663,1.921,1.656,1.898C80.579,164.972,81.248,164.083,81.209,162.709z"/>
			<path fill="#FF8000" d="M50.228,151.639c-0.036-1.294-0.723-2.129-1.731-2.107c-1.053,0.023-1.766,1.057-1.729,2.506
				c0.031,1.226,0.679,1.969,1.697,1.946C49.582,153.958,50.268,153.047,50.228,151.639z"/>
			<path fill="#FF8000" d="M58.542,161.837c-0.036-1.294-0.723-2.129-1.731-2.107c-1.053,0.023-1.766,1.057-1.729,2.506
				c0.031,1.226,0.679,1.969,1.697,1.946C57.896,164.157,58.581,163.246,58.542,161.837z"/>
			<path fill="#FF8000" d="M69.417,168.798c-0.036-1.294-0.723-2.129-1.731-2.108c-1.053,0.023-1.766,1.057-1.729,2.506
				c0.031,1.226,0.679,1.969,1.697,1.946C68.772,171.118,69.457,170.206,69.417,168.798z"/>
		</g>
	</g>
</g>
<g id="Layer_1">
</g>
</svg>
