<?xml version="1.0" encoding="utf-8"?>
<!-- Generator: Adobe Illustrator 24.2.3, SVG Export Plug-In . SVG Version: 6.00 Build 0)  -->
<svg version="1.1" xmlns="http://www.w3.org/2000/svg" xmlns:xlink="http://www.w3.org/1999/xlink" x="0px" y="0px"
	 viewBox="0 0 215.095 308.725" enable-background="new 0 0 215.095 308.725" xml:space="preserve">
<g id="plant_x5F_straberry_x5F_empty">
	<path fill="#8CD000" d="M6.563,76.152c0.08-26.451,9.489-57.636,34.638-66.732c9.64-3.487,20.212-2.852,29.464,1.755
		c11.275,5.614,19.822,15.984,25.689,27.767c7.478,15.016,10.336,32.07,12.867,48.78c2.715,17.924,4.523,36.005,5.927,54.105
		c2.798,36.085,3.955,147.376,4.05,166.794l6.552,0.104c0,0-0.941-124.104-3.581-160.767c-1.373-19.064-3.189-38.108-5.866-57.008
		c-2.473-17.461-5.25-35.241-12.254-51.3C93.276,14.95,70.847-4.566,44.824,0.936C18.328,6.538,3.845,35.026,0.758,62.338
		C0.24,66.922,0.014,71.533,0,76.151L6.563,76.152L6.563,76.152z"/>
	<path fill="#8CD000" d="M215.095,94.064c-0.051-14.929-2.62-30.561-10.097-43.034c-5.768-9.622-14.354-17.108-24.471-19.183
		c-24.624-5.05-43.205,18.937-51.29,43.116c-3.902,11.67-6.194,24.171-8.116,36.45c-2.142,13.679-2.733,27.507-3.613,41.367h5.435
		c1.437-22.634,4.232-45.306,9.752-67.129c3.481-13.762,9.295-27.219,18.761-36.78c6.741-6.809,15.42-11.046,24.456-10.454
		c8.64,0.566,16.324,5.867,21.825,13.404c8.441,11.565,11.07,27.524,11.12,42.243L215.095,94.064L215.095,94.064z"/>
	<path fill="#8CD000" d="M35.449,122.841c0.048-14.929,2.505-30.561,9.65-43.034c5.512-9.622,13.719-17.108,23.388-19.183
		c23.535-5.05,41.293,18.937,49.021,43.116l-4.204,4.011c-4.16-13.524-7.983-20.541-17.031-30.103
		c-6.443-6.809-14.738-11.046-23.375-10.454c-8.258,0.566-15.602,5.867-20.859,13.404c-8.067,11.565-10.58,27.524-10.628,42.243
		H35.449L35.449,122.841z"/>
	<path fill="#0EB800" d="M62.607,173.591c24.357-10.886,58.837,21.283,58.852,43.662c-1.462,22.278-21.726,25.492-44.497,20.612
		C43.065,232.224,30.27,190.186,62.607,173.591z"/>
	<path fill="#8CD000" d="M77.758,188.179c17.451-9.14,41.386,14.699,42.343,32.629c-0.736,28.293-55.064,17.099-56.027-8.018
		C63.161,203.301,68.387,191.583,77.758,188.179z"/>
	<path fill="#B5D700" d="M78.151,220.036c11.414,12.755,25.788,6.185,27.847-7.451C105.809,188.836,67.515,196.736,78.151,220.036z"
		/>
	<path fill="#0EB800" d="M179.865,173.591c-24.357-10.886-58.837,21.283-58.852,43.662c1.463,22.278,21.726,25.492,44.497,20.612
		C199.407,232.224,212.202,190.186,179.865,173.591z"/>
	<path fill="#8CD000" d="M164.714,188.179c-15.045-10.248-42.995,16.348-42.343,32.631c0.735,28.292,55.062,17.097,56.026-8.02
		C179.311,203.301,174.085,191.583,164.714,188.179z"/>
	<path fill="#B5D700" d="M164.321,220.036c-11.415,12.755-25.788,6.185-27.847-7.451
		C136.663,188.836,174.958,196.736,164.321,220.036z"/>
	<path fill="#0EB800" d="M80.288,112.35c19.882-5.772,42.957,22.628,40.584,39.832c-3.497,16.968-19.416,17.28-36.398,11.103
		C59.019,155.336,53.665,121.662,80.288,112.35z"/>
	<path fill="#8CD000" d="M90.38,125.178c14.064-5.354,30.451,15.96,29.07,29.593c-3.58,21.668-44.148,7.277-42.212-12.133
		C77.548,135.246,82.814,126.796,90.38,125.178z"/>
	<path fill="#B5D700" d="M87.287,149.707c7.415,11.021,19.162,7.5,22.198-2.76C112.122,128.725,81.333,130.875,87.287,149.707z"/>
	<path fill="#0EB800" d="M160.659,112.35c-19.882-5.772-42.957,22.628-40.584,39.832c3.497,16.968,19.416,17.28,36.398,11.103
		C181.927,155.337,187.284,121.661,160.659,112.35z"/>
	<path fill="#8CD000" d="M150.568,125.178c-14.064-5.354-30.451,15.96-29.07,29.593c3.58,21.668,44.148,7.277,42.212-12.133
		C163.399,135.246,158.133,126.796,150.568,125.178z"/>
	<path fill="#B5D700" d="M153.66,149.707c-7.415,11.021-19.162,7.5-22.198-2.76C128.825,128.725,159.614,130.875,153.66,149.707z"/>
</g>
<g id="Layer_1">
</g>
</svg>
