<?xml version="1.0" encoding="utf-8"?>
<!-- Generator: Adobe Illustrator 24.2.3, SVG Export Plug-In . SVG Version: 6.00 Build 0)  -->
<svg version="1.1" xmlns="http://www.w3.org/2000/svg" xmlns:xlink="http://www.w3.org/1999/xlink" x="0px" y="0px"
	 viewBox="0 0 135.158 133.903" enable-background="new 0 0 135.158 133.903" xml:space="preserve">
<g id="planet_x5F_round_x5F_yellow">
	<g>
		<g id="planeetta_x5F_keltainen_1_">
			<path fill="#F9D214" d="M62.735,0.951C8.025,8.4-1.824,50.498,0.404,74.496c2.804,30.194,21.567,64.056,72.898,58.879
				c50.182-5.06,59.809-42.277,61.467-64.487C138.005,25.538,113.418-5.951,62.735,0.951z"/>
			<path fill="#FDA519" d="M80.06,15.977c-7.728,0.449-11.665,4.493-11.179,11.61c0.427,6.252,4.098,11.161,11.862,10.082
				c4.027-0.559,11.868-1.455,11.862-12.024C92.603,21.686,90.012,15.398,80.06,15.977z"/>
			<path fill="#FDA519" d="M40.951,29.528c-3.457-0.189-10.065,0.899-10.568,8.95c-0.204,3.263,0.791,9.927,8.519,9.921
				c3.624-0.003,10.46,0.432,10.46-10.208C49.363,32.727,43.808,29.684,40.951,29.528z"/>
			<path fill="#FDA519" d="M71.739,44.108c-2.83-0.155-8.237,0.735-8.649,7.325c-0.167,2.67,0.647,8.125,6.972,8.119
				c2.966-0.002,8.56,0.353,8.56-8.355C78.623,46.727,74.077,44.236,71.739,44.108z"/>
			<path fill="#FDE40B" d="M67.585,66.012C54.049,67.184,43.612,49.406,17.658,52.21c-3.864,0.418-16.89,6.218-16.89,6.218
				s-1.452,5.632-0.364,17.308c0.502,5.392,2.956,14.459,2.956,14.459s9.141-5.087,14.01-6.066
				c25.018-5.033,24.785,10.352,55.555,9.346c14.09-0.461,25.407-14.711,34.778-15.205c18.423-0.97,24.762,5.765,24.762,5.765
				s2.036-8.407,2.414-14.823c0.569-9.673,0.094-11.63,0.094-11.63s-13.764-8.681-29.965-7.78
				C92.714,50.484,77.662,65.14,67.585,66.012z"/>
		</g>
		<g id="Layer_1_152_">
		</g>
	</g>
</g>
<g id="Layer_1">
</g>
</svg>
