<?xml version="1.0" encoding="utf-8"?>
<!-- Generator: Adobe Illustrator 25.0.0, SVG Export Plug-In . SVG Version: 6.00 Build 0)  -->
<svg version="1.1" xmlns="http://www.w3.org/2000/svg" xmlns:xlink="http://www.w3.org/1999/xlink" x="0px" y="0px"
	 viewBox="0 0 189.736 316.664" enable-background="new 0 0 189.736 316.664" xml:space="preserve">
<g id="plant_x5F_green">
	<g>
		<path fill="#0EB800" d="M86.973,90.115c16.242-9.365,14.234-36.581-5.548-54.421c-24.32-21.933-49.486-22.025-51.02-21.103
			c-0.837,0.503-7.665,23.917,3.326,51.2C39.555,80.245,59.273,106.087,86.973,90.115z"/>
		<path fill="#8CD000" d="M81.96,89.7c14.99-7.926,14.915-26.356,3.733-42.062C70.884,26.838,50.782,22.866,49.47,23.34
			c-0.716,0.259-8.327,15.475-5.166,39.666C45.879,75.052,62.594,99.939,81.96,89.7z"/>
		<path fill="#00A038" d="M104.589,104.772L82.446,77.644L93.36,51.295c-0.453-0.913-0.93-1.824-1.451-2.727l-11.857,25.77
			L69.225,61.823L81.86,36.101c-0.147-0.135-0.285-0.275-0.434-0.409c-0.683-0.616-1.367-1.209-2.051-1.792L66.082,58.016
			l-12.87-16.907L63.42,23.018c-1.079-0.573-2.142-1.098-3.196-1.601l-9.138,17.082L31.441,14.374
			c-0.54,0.052-0.892,0.129-1.036,0.216c-0.107,0.064-0.311,0.505-0.563,1.274l18.363,24.36l-20.313,1.342
			c0.084,0.927,0.184,1.869,0.303,2.828l22.111-1.382l12.237,17.361l-28.836,5.353c0.009,0.021,0.016,0.042,0.024,0.063
			c0.28,0.696,0.594,1.419,0.938,2.161l30.447-4.055l11.541,14.649c-3.71,0.895-21.22,5.016-29.319,6.957
			c0.844,0.779,1.72,1.528,2.626,2.244l28.906-6.089l20.392,26.27L104.589,104.772z"/>
		<path fill="#0EB800" d="M121.358,154.325c-13.593-11.952-6.52-37.33,15.595-50.456c27.189-16.138,51.027-11.441,52.303-10.277
			c0.696,0.635,2.709,24.095-12.88,47.829C168.117,153.996,144.541,174.709,121.358,154.325z"/>
		<path fill="#8CD000" d="M126.182,154.885c-12.682-10.351-9.108-27.781,4.462-40.522c17.97-16.873,37.753-16.812,38.904-16.114
			c0.628,0.381,4.94,16.23-2.65,38.527C163.118,147.88,142.566,168.258,126.182,154.885z"/>
		<path fill="#00A038" d="M101.898,164.85l26.115-21.468l-5.322-27.015c0.602-0.778,1.227-1.55,1.891-2.305l6.325,26.646
			l12.627-9.787l-7.07-26.748c0.165-0.1,0.322-0.206,0.489-0.305c0.764-0.453,1.524-0.885,2.282-1.306l7.997,25.353l15.396-13.557
			l-6.224-19.064c1.13-0.337,2.236-0.632,3.329-0.908l5.402,17.905l23.18-19.101c0.501,0.151,0.82,0.292,0.939,0.401
			c0.089,0.081,0.199,0.537,0.291,1.313l-22.011,19.567l18.972,5.131c-0.256,0.862-0.53,1.734-0.824,2.619l-20.666-5.511
			l-14.882,14.107l26.276,10.548c-0.012,0.018-0.023,0.037-0.035,0.055c-0.398,0.606-0.832,1.23-1.298,1.868l-28.048-9.626
			l-13.708,11.672c3.342,1.552,19.132,8.781,26.428,12.158c-0.947,0.577-1.919,1.12-2.912,1.625l-26.203-11.257l-24.295,20.989
			L101.898,164.85z"/>
		<path fill="#0EB800" d="M81.279,178.512c16.915-14.074,9.161-45.15-17.279-61.834C31.493,96.164,2.369,101.082,0.779,102.454
			c-0.867,0.749-4.091,29.191,14.067,58.552C24.466,176.562,52.43,202.515,81.279,178.512z"/>
		<path fill="#8CD000" d="M75.399,179.032c15.755-12.159,11.99-33.46-4.079-49.393c-21.279-21.101-45.322-21.682-46.745-20.872
			c-0.776,0.442-6.542,19.56,1.943,46.908C30.744,169.294,55.044,194.74,75.399,179.032z"/>
		<path fill="#00A038" d="M104.579,191.947l-31.025-26.955l7.364-32.654c-0.706-0.966-1.439-1.924-2.222-2.864l-8.57,32.171
			l-15.021-12.313l9.478-32.271c-0.197-0.127-0.385-0.261-0.584-0.387c-0.913-0.576-1.823-1.126-2.73-1.663L50.71,145.558
			l-18.261-16.986l8.196-22.961c-1.362-0.447-2.697-0.842-4.016-1.214l-7.159,21.58L1.933,101.996
			c-0.614,0.167-1.006,0.327-1.155,0.456c-0.111,0.095-0.259,0.646-0.397,1.586l26.101,24.509l-23.226,5.607
			c0.282,1.056,0.586,2.125,0.915,3.21l25.297-6.012l17.618,17.637l-32.282,11.947c0.014,0.023,0.027,0.046,0.041,0.068
			c0.463,0.749,0.97,1.522,1.516,2.313l34.404-10.768l16.272,14.639c-4.112,1.776-23.541,10.037-32.52,13.899
			c1.131,0.732,2.295,1.424,3.485,2.071l32.216-12.812l28.829,26.313L104.579,191.947z"/>
		<path fill="#0EB800" d="M117.607,86.617c-18.493-10.04-17.026-40.633,4.654-61.22c26.655-25.311,54.889-26.14,56.636-25.15
			c0.953,0.54,9.29,26.614-2.255,57.542C170.526,74.175,149.148,103.739,117.607,86.617z"/>
		<path fill="#8CD000" d="M123.219,86.007c-17.048-8.46-17.495-29.141-5.402-47.086c16.015-23.765,38.456-28.802,39.941-28.308
			c0.811,0.27,9.789,17.123,6.94,44.357C163.28,68.532,145.243,96.936,123.219,86.007z"/>
		<path fill="#00A038" d="M98.265,103.571l24.062-31.076l-13.006-29.249c0.482-1.038,0.99-2.073,1.549-3.101l14.048,28.572
			l11.787-14.354l-14.918-28.495c0.161-0.156,0.312-0.317,0.475-0.472c0.749-0.711,1.499-1.396,2.25-2.069L140.121,50l13.953-19.342
			l-11.976-20.003c1.194-0.674,2.372-1.294,3.54-1.888l10.745,18.902l21.346-27.635c0.607,0.042,1.004,0.119,1.168,0.212
			c0.121,0.069,0.364,0.558,0.669,1.413l-19.901,27.862l22.83,0.92c-0.067,1.043-0.153,2.103-0.258,3.181l-24.849-0.913
			L144.16,52.541l32.508,5.174c-0.009,0.024-0.016,0.048-0.025,0.072c-0.295,0.789-0.625,1.609-0.99,2.452l-34.278-3.672
			l-12.526,16.769c4.189,0.897,23.954,5.016,33.096,6.96c-0.924,0.898-1.886,1.764-2.881,2.593l-32.608-5.998l-22.122,30.064
			L98.265,103.571z"/>
		<polygon fill="#00A038" points="98.366,101.58 96.721,316.664 111.764,316.664 105.231,100.942 		"/>
	</g>
</g>
<g id="Layer_1">
</g>
</svg>
