<?xml version="1.0" encoding="utf-8"?>
<!-- Generator: Adobe Illustrator 24.2.3, SVG Export Plug-In . SVG Version: 6.00 Build 0)  -->
<svg version="1.1" xmlns="http://www.w3.org/2000/svg" xmlns:xlink="http://www.w3.org/1999/xlink" x="0px" y="0px"
	 viewBox="0 0 137.517 133.035" enable-background="new 0 0 137.517 133.035" xml:space="preserve">
<g id="planet_x5F_blue">
	<g>
		<g id="planeetta_x5F_sininen_1_">
			<path fill="#54BDCF" d="M133.508,36.226c-8.138-21.05-28.643-30.67-44.383-33.95C59.912-3.81,39.066,3.019,25.048,14.35
				c0,0-16.813,12.453-22.304,35.176c-5.236,21.664-1.369,35.29-1.369,35.29c5.914,28.632,30.163,41.83,48.971,45.859
				c19.938,4.272,49.49,5.18,68.655-18.849c0,0,8.874-8.473,15.778-33.805C141.053,55.002,134.751,39.444,133.508,36.226z"/>
			<path fill="#A0D8E8" d="M78.405,29.055c-26.982-6.063-29.483-7.791-51.101-16.454c-4.346,3.194-8.091,6.82-11.275,10.659
				c49.88,25.514,102.982,27.107,120.941,26.831c-0.58-5.066-1.777-9.654-3.442-13.812C122.479,36.806,108.029,35.711,78.405,29.055
				z"/>
			<path fill="#A0D8E8" d="M60.996,92.041C34.014,85.978,21.64,80.409,0.022,71.748c0.482,7.55,0.64,10.91,2.363,17.277
				c19.692,10.073,39.477,13.745,56.723,17.335c26.438,5.504,47.573,7.633,58.441,7.466c3.087-3.891,7.091-9.167,9.266-14.232
				C115.768,100.12,90.621,98.697,60.996,92.041z"/>
			<path fill="#54BDCF" d="M16.029,23.261c0,0-1.699,2.127-2.237,2.856c-0.576,0.78-2.218,3.186-2.218,3.186
				s32.745,14.113,56.072,19.622c26.136,6.173,69.74,8.714,69.74,8.714s-0.068-3.315-0.136-4.418
				c-0.048-0.784-0.281-3.13-0.281-3.13s-16.371,0.105-35.197-1.856c-9.859-1.027-20.974-3.187-29.509-5.024
				C40.541,36.386,16.029,23.261,16.029,23.261z"/>
			<path fill="#54BDCF" d="M0.272,64.806c0,0-0.129,1.911-0.184,3.033c-0.048,0.97-0.066,3.909-0.066,3.909
				s21.525,9.718,44.202,16.095c13.073,3.676,26.19,6.404,37.521,8.185c26.314,4.136,45.071,3.567,45.071,3.567
				s1.314-2.793,1.741-3.812c0.352-0.839,1.062-2.6,1.062-2.6s-42.532-2.756-67.283-8.45C31.499,77.636,0.272,64.806,0.272,64.806z"
				/>
			<path fill="#A0D8E8" d="M62.336,84.731c24.623,5.665,66.826,8.421,67.264,8.449c5.386-13.633,7.705-25.411,7.749-35.541
				c-0.793-0.046-43.808-2.595-69.703-8.712c-23.197-5.479-55.694-19.46-56.055-19.616c-4.44,6.79-7.338,13.876-8.848,20.215
				c-1.292,5.419-2.078,10.504-2.45,15.289C0.752,65.002,31.728,77.689,62.336,84.731z"/>
		</g>
		<g id="Layer_1_149_">
		</g>
	</g>
</g>
<g id="Layer_1">
</g>
</svg>
