<?xml version="1.0" encoding="utf-8"?>
<!-- Generator: Adobe Illustrator 24.2.3, SVG Export Plug-In . SVG Version: 6.00 Build 0)  -->
<svg version="1.1" xmlns="http://www.w3.org/2000/svg" xmlns:xlink="http://www.w3.org/1999/xlink" x="0px" y="0px"
	 viewBox="0 0 278.719 142.572" enable-background="new 0 0 278.719 142.572" xml:space="preserve">
<g id="planet_x5F_green">
	<g>
		<g id="planeetta_x5F_renkaat_x5F_vihrea_1_">
			<path fill="#A3D02A" d="M142.171,0.325c-59.133,5.69-73.111,37.506-74.783,76.883c-1.209,28.448,23.361,70.03,74.519,64.936
				c55.798-5.556,66.004-43.776,67.673-66.137C213.716,20.599,177.908-3.113,142.171,0.325z"/>
			<path fill="#BFD731" d="M209.208,55.744c-1.039-8.594-3.22-16.164-6.322-22.716C183.44,44.667,107.635,45.44,76.697,36.134
				c-3.631,6.975-5.994,14.698-7.445,22.967C119.771,72.683,175.2,65.916,209.208,55.744z"/>
			<path fill="#BFD731" d="M209.605,59.87C194.271,81.686,101.851,87.502,68.13,67.133c-0.352,3.295-0.598,6.655-0.744,10.077
				c-0.402,9.452,2.06,20.351,7.381,30.509c50.779,14.836,93.556,7.592,128.307-4.447c4.276-9.644,5.92-19.427,6.506-27.264
				C210.007,70.285,209.986,64.92,209.605,59.87z"/>
			<path fill="#DDECBF" d="M207.473,46.052c0.48,2.431,1,4.329,1.292,6.526c28.874,4.728,47.497,12.482,47.556,21.391
				c0.097,14.907-52.191,27.331-116.789,27.75c-64.598,0.419-117.043-11.324-117.14-26.232c-0.059-9.08,18.277-17.05,48.035-22.136
				c0.525-2.072,1.146-4.473,1.783-6.422C28.884,52.771-0.08,63.733,0,76.174c0.118,18.117,62.606,32.399,139.572,31.899
				s139.263-15.592,139.146-33.708C278.638,62.05,250.147,51.385,207.473,46.052z"/>
		</g>
		<g id="Layer_1_150_">
		</g>
	</g>
</g>
<g id="Layer_1">
</g>
</svg>
