<?xml version="1.0" encoding="utf-8"?>
<!-- Generator: Adobe Illustrator 24.2.3, SVG Export Plug-In . SVG Version: 6.00 Build 0)  -->
<svg version="1.1" xmlns="http://www.w3.org/2000/svg" xmlns:xlink="http://www.w3.org/1999/xlink" x="0px" y="0px"
	 viewBox="0 0 317.373 144.892" enable-background="new 0 0 317.373 144.892" xml:space="preserve">
<g id="planet_x5F_yellow">
	<g>
		<g id="planeetta_x5F_renkaat_x5F_keltainen_1_">
			<path fill="#F9D214" d="M163.422,0.12C136,1.689,86.028,13.128,86.23,77.957c0.077,24.564,15.685,68.627,72.815,66.884
				c49.003-1.495,70.485-35.656,72.546-64.8C236.217,14.621,193.481-1.6,163.422,0.12z"/>
			<path fill="#FDA519" d="M227.946,42.265c-1.542-4.879-3.474-9.269-5.747-13.176c-27.238,4.566-92.502,7.003-121.863-0.135
				c-2.384,3.177-4.539,6.696-6.408,10.595C121.429,47.498,186.108,46.579,227.946,42.265z"/>
			<path fill="#FDE40B" d="M87.339,61.79c-0.736,4.984-1.127,10.357-1.108,16.167c0.01,3.206,0.293,6.749,0.889,10.474
				c28.283,6.462,102.522,5.774,143.396-0.228c0.527-2.743,0.885-5.474,1.075-8.162c0.464-6.569,0.432-12.619,0.002-18.228
				C179.593,70.958,107.384,67.749,87.339,61.79z"/>
			<path fill="#F9D214" d="M228.105,42.614c1.187,5.27,3.032,10.832,3.308,16.646c20.076,4.852,32.06,11.566,32.061,19.164
				c0.002,14.719-46.947,26.658-104.866,26.669S53.737,93.177,53.735,78.459c-0.001-7.844,12.855-14.843,34.077-19.723
				c0.333-2.267,1.072-4.572,1.72-6.975c1.061-3.931,1.772-5.978,3.177-9.54C37.435,48.534-0.003,62.526,0,78.922
				c0.004,22.272,71.053,40.315,158.693,40.301s158.683-18.081,158.68-40.354C317.371,62.773,281.773,49.072,228.105,42.614z"/>
			<path fill="#FDA519" d="M229.789,49.428c0.683,3.44,1.365,6.585,1.608,9.677c20.076,4.852,32.076,11.721,32.078,19.319
				c0.002,14.719-46.947,26.658-104.866,26.669c-57.918,0.011-104.872-11.916-104.874-26.634
				c-0.001-7.844,12.855-14.843,34.077-19.723c0.333-2.267,0.986-4.317,1.695-6.705c0.327-1.104,0.567-1.902,0.79-2.979
				c-40.887,5.961-67.524,17.032-67.522,29.866c0.004,19.076,60.856,34.531,135.919,34.517
				c75.062-0.013,135.911-15.486,135.908-34.562C294.598,66.454,268.506,55.509,229.789,49.428z"/>
			<path fill="#FDE40B" d="M230.802,54.457c0.114,1.522,0.402,3.135,0.595,4.648c20.065,4.851,32.076,11.572,32.077,19.168
				c0.002,14.719-46.947,26.658-104.866,26.669S53.737,93.026,53.734,78.306c-0.001-7.846,12.844-14.69,34.077-19.572
				c0.302-1.579,0.626-3.002,1.05-4.533c-29.502,5.457-47.765,14.127-47.764,24.107c0.003,16.563,52.841,29.982,118.017,29.971
				c65.176-0.011,118.01-13.446,118.008-30.01C277.123,68.583,258.85,59.936,230.802,54.457z"/>
		</g>
		<g id="Layer_1_151_">
		</g>
	</g>
</g>
<g id="Layer_1">
</g>
</svg>
