<?xml version="1.0" encoding="utf-8"?>
<!-- Generator: Adobe Illustrator 25.0.0, SVG Export Plug-In . SVG Version: 6.00 Build 0)  -->
<svg version="1.1" xmlns="http://www.w3.org/2000/svg" xmlns:xlink="http://www.w3.org/1999/xlink" x="0px" y="0px"
	 viewBox="0 0 496.38 643.307" enable-background="new 0 0 496.38 643.307" xml:space="preserve">
<g id="shape_x5F_wall_x5F_tall_x5F_wavy_x5F_hole_x5F_white">
	<path fill="#FFFFFF" d="M430.637,334.842c0-60.221,65.743-41.504,65.743-137.244C483.732,50.491,266.216-57.928,170.06,33.814
		c-26.971,22.921-32.365,55.283-60.682,75.51C81.06,129.55,0,123.127,0,210.457c0,80.906,62.292,74.227,62.526,129.427
		c0.263,61.771-49.485,40.076-46.789,118.286c1.952,56.601,53.003,56.319,53.003,115.65c0,59.332-21.392,69.488-21.392,69.488
		h403.185c-83.689-113.312,25.715-111.623,30.302-200.253C480.832,376.977,430.637,396.686,430.637,334.842z M254.796,622.291
		c-67.871,1.092-123.542-54.846-122.137-122.711c-2.92-76.964,80.897-89.554,45.566-149.693
		c-47.311-66.172,4.39-166.738,86.671-165.248c88.496-3.998,141.155,109.335,82.687,174.322
		c-39.358,55.126,30.379,81.064,25.431,143.156C373.016,567.837,320.267,621.238,254.796,622.291z"/>
</g>
<g id="Layer_1">
</g>
</svg>
