<?xml version="1.0" encoding="utf-8"?>
<!-- Generator: Adobe Illustrator 26.0.1, SVG Export Plug-In . SVG Version: 6.00 Build 0)  -->
<svg version="1.1" id="Layer_1" xmlns="http://www.w3.org/2000/svg" xmlns:xlink="http://www.w3.org/1999/xlink" x="0px" y="0px"
	 viewBox="0 0 580.3 833.1" style="enable-background:new 0 0 580.3 833.1;" xml:space="preserve">
<style type="text/css">
	.st0{fill:#FFFFFF;}
</style>
<g id="Layer_1_00000137115210374274024370000014262832050593846185_">
</g>
<g id="Layer_1_00000083060526963998983340000017196591027685442238_">
</g>
<path class="st0" d="M226.1,825.5c-47.7,11.2-137.6,17-184.4-33.4c-44.4-47.9-56.3-203-21-293.1c20.5-52.4,54.4-71.1,57-125.6
	c2.7-54.5-31.7-107.8-29-150.5c2.7-42.7,14.7-94.7,61.4-129.4s58.5-24.5,97.4-47.7C235.9,28.7,249.7,0,295.3,0s61.5,35,89.6,49.7
	c28,14.7,78.6-1.6,112.1,69c26.1,55.1-13.5,90-7.3,112.1c8.2,29.3,35.4,26.3,60.2,37.9c53.6,25.1,21.9,411.1,14.6,448.5
	c-10.9,56.2-20.4,88.5-84.7,103.4c-64.3,14.9-80.2-36-138-34.7C293.5,787,284.9,811.6,226.1,825.5z"/>
</svg>
