<?xml version="1.0" encoding="utf-8"?>
<!-- Generator: Adobe Illustrator 26.0.1, SVG Export Plug-In . SVG Version: 6.00 Build 0)  -->
<svg version="1.1" id="Layer_1" xmlns="http://www.w3.org/2000/svg" xmlns:xlink="http://www.w3.org/1999/xlink" x="0px" y="0px"
	 viewBox="0 0 1265.4 405.5" style="enable-background:new 0 0 1265.4 405.5;" xml:space="preserve">
<style type="text/css">
	.st0{fill:#FFFFFF;}
</style>
<g id="Layer_1_00000160884167091697567690000006534547320370172303_">
</g>
<path class="st0" d="M1217.9,169.8C1136.2,95.1,1163.4,0,1016.1,0.1c-105.7,0.1-153,68.5-227.4,68.5s-80-35.9-133.6-55.7
	c-34.5-12.8-81.2,21.4-138.7,24.2c-57.5,2.8-88-39.8-151.1-37S277.6,37,251.2,40.2c-34,4.1-54.1-14.2-71.2-24.9
	C142-8.7,66.1-12,44.6,61.5c-16.1,55.2,23.1,79.8,21.5,110.4C63.3,224.8,0,255.2,0,308.1c0,101.6,142.7,97.3,142.7,97.3h982.8
	C1239.4,405.5,1321.7,264.7,1217.9,169.8z"/>
</svg>
