<?xml version="1.0" encoding="utf-8"?>
<!-- Generator: Adobe Illustrator 25.2.0, SVG Export Plug-In . SVG Version: 6.00 Build 0)  -->
<svg version="1.1" id="Layer_1" xmlns="http://www.w3.org/2000/svg" xmlns:xlink="http://www.w3.org/1999/xlink" x="0px" y="0px"
	 viewBox="0 0 3125.8 1216.6" style="enable-background:new 0 0 3125.8 1216.6;" xml:space="preserve">
<style type="text/css">
	.st0{fill:#FFFFFF;}
</style>
<g id="shape_x5F_wall_x5F_ground_x5F_white">
	<path class="st0" d="M341.1,305.7C57.7,301,2.9,550.2,2.4,662.3c-2.4,462,220.3,542.9,461.3,542.4c331.5-0.7,2097.8,0,2097.8,0
		s564.3,30.3,564.3-378.9c0-107.1-5.1-482.7-300.9-482.7c-236.3,0-234.5,121.2-423.3,121.2c-153,0-178.5-74-229.5-185.1
		c-51-111.1-290.7-306.7-734.4-225.5c-266,48.7-334.2,268.1-526.2,397.5C667.5,615.6,547.6,309.1,341.1,305.7z"/>
</g>
<g id="Layer_1_1_">
</g>
</svg>
