<?xml version="1.0" encoding="utf-8"?>
<!-- Generator: Adobe Illustrator 24.2.3, SVG Export Plug-In . SVG Version: 6.00 Build 0)  -->
<svg version="1.1" xmlns="http://www.w3.org/2000/svg" xmlns:xlink="http://www.w3.org/1999/xlink" x="0px" y="0px"
	 viewBox="0 0 585.66 879.84" enable-background="new 0 0 585.66 879.84" xml:space="preserve">
<g id="shape_x5F_wall_x5F_round_x5F_stripes_x5F_white">
	<g id="shape_x5F_wall_x5F_round_x5F_white">
		<path fill="#FFFFFF" d="M516.794,879.84H21.724c0,0-35.912-495.069-15.391-618.196C26.854,138.517,115.429,0,258.397,0
			C444.97,0,585.66,149.186,585.66,269.028c0,105.703-99.703,91.296-99.102,175.938c0.673,94.907,79.567,68.483,79.567,163.392
			s-91.155,84.938-91.155,170.189C474.97,863.8,516.794,879.84,516.794,879.84z"/>
	</g>
	<path fill="#E8E9E9" d="M11.086,710.267c1.168,21.094,2.332,41.044,3.439,59.358h460.812c1.565-19.235,8.179-33.216,17.198-44.848
		L11.086,710.267z"/>
	<path fill="#E8E9E9" d="M25.705,189.814l525.924-29.466c-9.592-15.671-21.045-30.96-34.178-45.484H63.741
		C48.215,138.235,35.497,163.704,25.705,189.814z"/>
	<path fill="#E8E9E9" d="M574.647,321.091c6.749-13.518,11.013-30.222,11.013-52.063c0-7.337-0.535-14.785-1.568-22.301
		L3.557,283.999c-1.271,13.673-2.164,29.735-2.737,47.646L574.647,321.091z"/>
	<path fill="#E8E9E9" d="M491.241,479.095c-2.865-9.352-4.586-20.48-4.683-34.129c-0.081-11.394,1.669-20.982,4.735-29.321
		L0.324,432.156c0.261,18.372,0.672,37.379,1.201,56.731L491.241,479.095z"/>
	<path fill="#E8E9E9" d="M564.279,630.22c1.186-6.628,1.846-13.865,1.846-21.862c0-9.745-0.843-18.193-2.336-25.643L4.305,570.041
		c0.816,20.235,1.712,40.4,2.652,60.179H564.279z"/>
</g>
<g id="Layer_1">
</g>
</svg>
