<?xml version="1.0" encoding="utf-8"?>
<!-- Generator: Adobe Illustrator 25.0.0, SVG Export Plug-In . SVG Version: 6.00 Build 0)  -->
<svg version="1.1" xmlns="http://www.w3.org/2000/svg" xmlns:xlink="http://www.w3.org/1999/xlink" x="0px" y="0px"
	 viewBox="0 0 496.38 643.402" enable-background="new 0 0 496.38 643.402" xml:space="preserve">
<g id="shape_x5F_wall_x5F_tall_x5F_wavy_x5F_white">
	<path fill="#FFFFFF" d="M47.349,643.402h403.184c0,0-29.383-25.028-29.383-77.617c0-52.589,59.681-56.565,59.681-122.639
		s-50.194-46.365-50.194-108.209c0-60.221,65.743-41.504,65.743-137.244S362.885,8.285,298.159,1.543s-101.133,9.439-128.102,32.363
		s-32.363,55.286-60.68,75.513S0,123.222,0,210.552c0,80.907,62.291,74.227,62.526,129.427
		c0.263,61.771-49.485,40.076-46.789,118.286c1.952,56.601,53.003,56.319,53.003,115.65
		C68.741,633.246,47.349,643.402,47.349,643.402z"/>
</g>
<g id="Layer_1">
</g>
</svg>
