<?xml version="1.0" encoding="utf-8"?>
<!-- Generator: Adobe Illustrator 25.0.0, SVG Export Plug-In . SVG Version: 6.00 Build 0)  -->
<svg version="1.1" xmlns="http://www.w3.org/2000/svg" xmlns:xlink="http://www.w3.org/1999/xlink" x="0px" y="0px"
	 viewBox="0 0 516.607 569.228" enable-background="new 0 0 516.607 569.228" xml:space="preserve">
<g id="shape_x5F_frame_x5F_post_x5F_white">
	<path fill="#FFFFFF" d="M515.506,135.774c0,0,6.202-55.8-32.203-95.415C437.229-7.168,356.875-4.319,312.766,6.917
		c-54.375,13.852-62.328,38.513-106.902,39.634c-53.442,1.344-68.121-49.543-127.572-34.68S0,58.021,0,115.274
		c0,43.35,0.262,387.069,0.262,387.069s-7.057,66.885,52.02,66.883h412.442c0,0,48.304,1.239,50.781-55.736
		C517.983,456.516,515.506,135.774,515.506,135.774z M474.003,517.638c0,6.859-5.561,12.419-12.419,12.419H57.023
		c-6.859,0-12.419-5.56-12.419-12.419V107.301c0-6.859,5.56-12.419,12.419-12.419h404.56c6.859,0,12.419,5.561,12.419,12.419
		V517.638z"/>
</g>
<g id="Layer_1">
</g>
</svg>
