<?xml version="1.0" encoding="utf-8"?>
<!-- Generator: Adobe Illustrator 24.2.3, SVG Export Plug-In . SVG Version: 6.00 Build 0)  -->
<svg version="1.1" xmlns="http://www.w3.org/2000/svg" xmlns:xlink="http://www.w3.org/1999/xlink" x="0px" y="0px"
	 viewBox="0 0 186.044 199.988" enable-background="new 0 0 186.044 199.988" xml:space="preserve">
<g id="egg_x5F_decorations_x5F_white">
	<g>
		<path fill="#FFFFFF" d="M185.23,114.038c-0.998-10.742-2.872-21.428-5.575-31.71c-28.952-0.958-57.905-1.913-86.855-2.896
			C64.51,78.47,36.223,77.481,7.935,76.496c-3.122,9.028-5.411,18.516-6.778,28.273c38.064,1.868,76.129,3.73,114.188,5.64
			C138.645,111.578,161.937,112.811,185.23,114.038z"/>
		<path fill="#CAD2D3" d="M112.71,160.76c23.323,0.649,46.656,1.171,69.987,1.716c1.976-8.39,3.071-17.422,3.347-27.021
			c-31.075,0.242-62.151,0.492-93.225,0.685c-16.123,0.1-32.242-0.009-48.364,0.037c-14.82,0.042-29.634-0.242-44.455-0.17
			c0.495,7.311,1.572,14.419,3.194,21.238c9.587,0.332,19.158,0.938,28.755,1.079C58.893,158.718,85.784,160.01,112.71,160.76z"/>
		<path fill="#FFFFFF" d="M11.51,180.807c3.169,6.557,6.93,12.636,11.232,18.125c4.026-0.022,8.052-0.035,12.075-0.004
			c43.064,0.331,86.127,0.701,129.19,1.06c5.399-6.071,9.744-12.969,13.103-20.608c-21.772,0.122-43.544,0.239-65.316,0.377
			C87.669,179.911,39.182,179.859,11.51,180.807z"/>
		<path fill="#CAD2D3" d="M42.665,46.085c10.444-3.408,27.069-24.858,27.069-24.858c1.472,8.741,6.641,25.285,12.319,34.74
			c5.633,9.381,13.193,11.413,19.329,5.123c3.244-3.325,5.678-7.539,7.656-12.352c3.369-8.2,4.9-17.104,5.071-26.445
			c0.973-0.195,13.086,12.922,19.319,17.635c11.062,8.364,22.437,13.212,34.437,10.566c-15.255-30.695-39.597-52.168-71.161-50.39
			c-29.95,1.687-55.206,18.72-72.439,43.777C30.05,47.679,36.269,48.172,42.665,46.085z"/>
	</g>
</g>
<g id="Layer_1">
</g>
</svg>
