<?xml version="1.0" encoding="utf-8"?>
<!-- Generator: Adobe Illustrator 25.0.0, SVG Export Plug-In . SVG Version: 6.00 Build 0)  -->
<svg version="1.1" xmlns="http://www.w3.org/2000/svg" xmlns:xlink="http://www.w3.org/1999/xlink" x="0px" y="0px"
	 viewBox="0 0 224.294 408.385" enable-background="new 0 0 224.294 408.385" xml:space="preserve">
<g id="shape_x5F_eight_x5F_round_x5F_white">
	<path fill="#FFFFFF" d="M200.566,162.663c14.564-17.326,23.297-39.716,23.179-64.149c-0.266-54.775-45.566-99.228-100.337-98.505
		c-54.064,0.714-97.67,44.762-97.67,98.995c0,20.435,6.191,39.424,16.8,55.194c12.739,18.936,10.084,44.291-6.647,59.813
		c-21.538,19.982-35.213,48.321-35.866,79.862c-1.311,63.323,50.634,115.517,113.962,114.498
		c61.088-0.983,110.307-50.809,110.307-112.132c0-26.46-9.164-50.78-24.492-69.958C185.785,208.742,186.12,179.849,200.566,162.663z
		"/>
</g>
<g id="Layer_1">
</g>
</svg>
