<?xml version="1.0" encoding="utf-8"?>
<!-- Generator: Adobe Illustrator 24.2.3, SVG Export Plug-In . SVG Version: 6.00 Build 0)  -->
<svg version="1.1" xmlns="http://www.w3.org/2000/svg" xmlns:xlink="http://www.w3.org/1999/xlink" x="0px" y="0px"
	 viewBox="0 0 619.836 164.944" enable-background="new 0 0 619.836 164.944" xml:space="preserve">
<g id="shape_x5F_waves_x5F_white">
	<path fill="#FFFFFF" d="M619.836,87.712c0,33.106-80.415,14.804-92.246,14.804c-43.534,0-43.534,62.427-87.068,62.427
		c-43.533,0-43.533-62.427-87.067-62.427c-43.534,0-43.534,62.427-87.068,62.427c-43.535,0-43.535-62.427-87.07-62.427
		c-43.535,0-43.535,62.427-87.07,62.427C55.71,164.944,0,90.465,0,77.232v0c0-33.106,80.415-14.804,92.246-14.804
		C135.78,62.427,135.78,0,179.314,0c43.533,0,43.533,62.427,87.067,62.427C309.915,62.427,309.915,0,353.449,0
		c43.535,0,43.535,62.427,87.07,62.427C484.053,62.427,484.053,0,527.588,0C564.127,0,619.836,74.479,619.836,87.712L619.836,87.712
		z"/>
</g>
<g id="Layer_1">
</g>
</svg>
