<?xml version="1.0" encoding="utf-8"?>
<!-- Generator: Adobe Illustrator 25.0.0, SVG Export Plug-In . SVG Version: 6.00 Build 0)  -->
<svg version="1.1" xmlns="http://www.w3.org/2000/svg" xmlns:xlink="http://www.w3.org/1999/xlink" x="0px" y="0px"
	 viewBox="0 0 324.031 508.581" enable-background="new 0 0 324.031 508.581" xml:space="preserve">
<g id="shape_x5F_wall_x5F_ground_x5F_holes_x5F_white">
	<path fill="#FFFFFF" d="M243.768,0c-68.461,0-78.836,0-80.105,0c0,0-78.243,0.932-78.243,54.956
		c0,43.149,33.533,42.834,33.533,77.311c0,27.944-20.492,32.601-51.23,41.916c-30.738,9.314-84.88,53.093-62.407,134.13
		c13.471,48.577,74.183,61.037,110.018,96.098c45.535,44.552-22.461,104.165-22.461,104.165h167.662c0,0,63.339,1.863,63.339-58.682
		s0-363.268,0-363.268S331.326,0,243.768,0z M114.391,328.018c-22.731,10.086-51.767-5.645-64.854-35.137
		c-13.086-29.492-5.267-61.577,17.464-71.663s51.767,5.645,64.854,35.137C144.941,285.847,137.122,317.932,114.391,328.018z
		 M172.574,205.661c-8.758,8.758-25.068,6.646-36.431-4.716s-13.474-27.673-4.716-36.431c8.758-8.758,25.068-6.646,36.431,4.716
		S181.332,196.903,172.574,205.661z M164.003,145.638c-12.595,0-22.806-7.87-22.806-17.579c0-9.708,10.211-17.578,22.806-17.578
		c12.596,0,22.807,7.87,22.807,17.578C186.81,137.768,176.599,145.638,164.003,145.638z"/>
</g>
<g id="Layer_1">
</g>
</svg>
