<?xml version="1.0" encoding="utf-8"?>
<!-- Generator: Adobe Illustrator 25.0.0, SVG Export Plug-In . SVG Version: 6.00 Build 0)  -->
<svg version="1.1" xmlns="http://www.w3.org/2000/svg" xmlns:xlink="http://www.w3.org/1999/xlink" x="0px" y="0px"
	 viewBox="0 0 395.068 593.51" enable-background="new 0 0 395.068 593.51" xml:space="preserve">
<g id="shape_x5F_wall_x5F_round_x5F_hole_x5F_white">
	<path fill="#FFFFFF" d="M390.795,176.496C376.952,93.439,317.202,0,220.761,0C94.905,0,0,100.636,0,181.477
		c0,71.304,67.256,61.585,66.851,118.682c-0.454,64.021-53.673,46.196-53.673,110.219s61.49,57.296,61.49,114.804
		S46.456,593.51,46.456,593.51h333.958C380.413,593.51,404.638,259.552,390.795,176.496z M338.282,397.305
		c-14.554,45.169-156.596,30.44-156.596,30.44C81.525,412.818,72.768,385.673,81.525,354.601
		c9.355-33.197,50.17-29.626,78.85-47.782c27.572-17.455,39.821-33.065,81.072-33.065c33.868,0,61.682,24.443,76.594,55.47
		C330.411,354.963,347.728,367.991,338.282,397.305z"/>
</g>
<g id="Layer_1">
</g>
</svg>
