<?xml version="1.0" encoding="utf-8"?>
<!-- Generator: Adobe Illustrator 25.0.0, SVG Export Plug-In . SVG Version: 6.00 Build 0)  -->
<svg version="1.1" xmlns="http://www.w3.org/2000/svg" xmlns:xlink="http://www.w3.org/1999/xlink" x="0px" y="0px"
	 viewBox="0 0 652.999 463.378" enable-background="new 0 0 652.999 463.378" xml:space="preserve">
<g id="shape_x5F_wall_x5F_hill_x5F_wavy_x5F_hole_x5F_white">
	<path fill="#FFFFFF" d="M551.282,94.183C503.563,72.835,504.819,0,414.403,0C261.2,0,252.409,177.063,150.692,183.342
		c-41.362,2.553-38.929-41.44-91.671-41.44C2.903,141.902,0,224.782,0,224.782v238.596h652.999c0,0,0-190.877,0-249.497
		S617.271,123.704,551.282,94.183z M409.729,248.112c-41.835,0-75.75-45.353-75.75-101.299s33.914-101.299,75.75-101.299
		c41.835,0,75.75,45.353,75.75,101.299S451.565,248.112,409.729,248.112z"/>
</g>
<g id="Layer_1">
</g>
</svg>
