<?xml version="1.0" encoding="utf-8"?>
<!-- Generator: Adobe Illustrator 24.2.3, SVG Export Plug-In . SVG Version: 6.00 Build 0)  -->
<svg version="1.1" xmlns="http://www.w3.org/2000/svg" xmlns:xlink="http://www.w3.org/1999/xlink" x="0px" y="0px"
	 viewBox="0 0 378.032 224.005" enable-background="new 0 0 378.032 224.005" xml:space="preserve">
<g id="shooting_x5F_star">
	<path fill="#FDA519" d="M271.032,67.079c0,0-272.431,75.755-271.026,81.888s66.398,7.169,66.398,7.169
		s-33.807,62.991-28.376,67.757S277.021,80.365,277.021,80.365L271.032,67.079z"/>
	<path fill="#FDE40B" d="M280.589,39.92c0.817-0.447,21.674-36.049,28.921-39.886c2.532-1.34,17.776,36.548,19.961,39.841
		c0.454,0.718,47.145,3.961,48.506,6.464c1.61,2.962-32.056,32.481-32.594,33.243c-0.539,0.76,2.718,47.157,1.401,47.674
		c-1.838,0.722-43.191-30.3-44.267-30.164s-48.921,29.825-51.632,28.376c-1.559-0.833,7.964-41.487,7.719-42.392
		s-29.307-30.487-28.491-32.617C231.027,48.065,279.771,40.368,280.589,39.92z"/>
	<path fill="#F9D214" d="M280.94,39.48c0.425-0.668,48.872-0.111,48.529,0.398c2.966,3.264,15.475,36.14,15.912,39.706
		c-4.614,2.594-37.589,16.14-42.866,17.51c-6.172-1.141-37.992-11.046-43.913-14.016C258.081,81.989,277.237,41.069,280.94,39.48z"
		/>
</g>
<g id="Layer_1">
</g>
</svg>
