<?xml version="1.0" encoding="utf-8"?>
<!-- Generator: Adobe Illustrator 24.2.3, SVG Export Plug-In . SVG Version: 6.00 Build 0)  -->
<svg version="1.1" xmlns="http://www.w3.org/2000/svg" xmlns:xlink="http://www.w3.org/1999/xlink" x="0px" y="0px"
	 viewBox="0 0 252.135 249.787" enable-background="new 0 0 252.135 249.787" xml:space="preserve">
<g id="snowflake_x5F_round_x5F_white">
	<g>
		<path fill="#FFFFFF" d="M122.076,249.534C-38.623,252.965-40.147,16.363,114.434,1.548
			C309.946-23.301,283.326,259.402,122.076,249.534z"/>
		<path fill="#CCD2D3" d="M134.832,234.314c-7.212-1.07-12.995-1.928-19.56-2.902c0-29.582,0-58.753,0-90.459
			c-25.251,22.973-49.177,44.741-74.071,67.39c-5.936-6.831-11.477-13.207-17.952-20.659c24.359-20.603,47.968-40.573,74.248-62.801
			c-28.867,0-54.315,0-80.582,0c1.143-6.79,2.039-12.108,3.336-19.812c28.105,2.229,56.2,4.457,84.294,6.685
			c0.398-0.727,0.796-1.454,1.193-2.181C84.111,91.682,62.482,73.789,40.495,55.599c6.093-6.4,11.363-11.935,18.033-18.941
			c19.51,19.23,38.301,37.752,59.094,58.248c0-27.069,0-51.524,0-76.994c7.695-1.238,14.207-2.286,22.732-3.657
			c-1.603,26.202-3.102,50.712-4.799,78.464c23.723-19.605,45.709-37.775,68.475-56.589c3.948,3.386,7.641,6.553,12.835,11.008
			c-23.625,21.762-46.45,42.786-71.265,65.643c30.862-2.097,59.115-4.016,88.173-5.991c1.02,7.613,1.962,14.65,3.188,23.802
			c-29.801-1.484-58.02-2.89-89.083-4.437c23.464,24.989,45.592,48.555,68.09,72.516c-6.304,6.355-11.682,11.778-18.714,18.868
			c-20.399-25.26-40.338-49.95-62.423-77.297C134.832,173.559,134.832,203.573,134.832,234.314z"/>
	</g>
</g>
<g id="Layer_1">
</g>
</svg>
