<?xml version="1.0" encoding="utf-8"?>
<!-- Generator: Adobe Illustrator 26.0.3, SVG Export Plug-In . SVG Version: 6.00 Build 0)  -->
<svg version="1.1" xmlns="http://www.w3.org/2000/svg" xmlns:xlink="http://www.w3.org/1999/xlink" x="0px" y="0px"
	 viewBox="0 0 559.652 558.436" enable-background="new 0 0 559.652 558.436" xml:space="preserve">
<g id="spider_x5F_web_x5F_white">
	<path fill="#FFFFFF" d="M476.865,81.437L279.306-1.263L81.66,79.091L0,276.651l79.778,195.993l199.526,84.529l195.214-79.314
		l85.133-198.776L476.865,81.437z M88.603,95.762l39.125,39.125L73.845,271.788H19.32L88.603,95.762z M148.096,283.946h45.148
		l21.643,49.741l-31.459,31.459L148.096,283.946z M174.191,374.385l-35.227,35.227L84.281,283.946h50.557L174.191,374.385z
		 M206.503,283.946h58.126l-40.501,40.502L206.503,283.946z M207.351,271.788l16.177-41.101l41.101,41.101H207.351z
		 M194.285,271.788h-44.489l32.432-82.401l31.925,31.925L194.285,271.788z M136.729,271.788H86.911l50.193-127.525l35.749,35.748
		L136.729,271.788z M15.69,283.946h55.332l58.702,134.905L91.17,457.406L15.69,283.946z M273.226,537.853L97.2,468.569
		l39.125-39.125l136.901,53.884V537.853z M273.226,470.262l-127.525-50.194l35.749-35.748l91.776,36.123V470.262z M273.226,407.377
		l-82.401-32.433l31.924-31.924l50.477,19.867V407.377z M273.226,349.821l-41.101-16.177l41.101-41.101V349.821z M273.226,263.191
		l-40.501-40.502l40.501-17.623V263.191z M273.226,191.807l-49.741,21.644l-31.459-31.46l81.2-35.333V191.807z M273.226,133.399
		l-90.439,39.353l-35.227-35.227l125.667-54.681V133.399z M273.226,69.584l-134.905,58.702L99.766,89.731l173.46-75.478V69.584z
		 M285.384,17.882L461.41,87.165l-39.125,39.125L285.384,72.407V17.882z M352.107,271.788h-58.126l40.501-40.502L352.107,271.788z
		 M343.722,222.047l31.459-31.459l35.333,81.2h-45.148L343.722,222.047z M351.259,283.946l-16.177,41.101l-41.101-41.101H351.259z
		 M364.326,283.946h44.489l-32.432,82.401l-31.925-31.925L364.326,283.946z M421.881,283.946H471.7l-50.193,127.525l-35.749-35.749
		L421.881,283.946z M423.773,271.788L384.42,181.35l35.227-35.227l54.681,125.666H423.773z M285.384,85.473l127.525,50.194
		l-35.749,35.748l-91.776-36.123V85.473z M285.384,148.357l82.401,32.433l-31.924,31.924l-50.477-19.867V148.357z M285.384,205.913
		l41.101,16.177l-41.101,41.101V205.913z M285.384,292.543l40.501,40.502l-40.501,17.623V292.543z M285.384,363.928l49.741-21.644
		l31.459,31.46l-81.2,35.333V363.928z M285.384,422.335l90.439-39.353l35.227,35.227l-125.667,54.681V422.335z M285.384,539.05
		v-52.9l134.905-58.702l38.555,38.555L285.384,539.05z M470.008,459.972l-39.125-39.125l53.883-136.901h54.525L470.008,459.972z
		 M487.588,271.788l-58.702-134.905l38.554-38.555l75.478,173.46H487.588z"/>
</g>
<g id="Layer_1">
</g>
</svg>
