<?xml version="1.0" encoding="utf-8"?>
<!-- Generator: Adobe Illustrator 26.0.1, SVG Export Plug-In . SVG Version: 6.00 Build 0)  -->
<svg version="1.1" xmlns="http://www.w3.org/2000/svg" xmlns:xlink="http://www.w3.org/1999/xlink" x="0px" y="0px"
	 viewBox="0 0 105.991 144.84" enable-background="new 0 0 105.991 144.84" xml:space="preserve">
<g id="spruce_x5F_white">
	<g>
		<polygon fill="#FFFFFF" points="41.612,97.547 41.306,144.392 62.846,144.84 61.538,97.084 		"/>
		<path fill="#FFFFFF" d="M1.042,63.004c0,0,17.384-8.239,30.087-28.744C43.429,14.407,51.304,0,51.304,0
			s19.458,27.044,32.221,39.173s22.465,20.515,22.465,20.515S80.404,71.612,53.306,71.575S14.554,70.435,1.042,63.004z"/>
		<path fill="#FFFFFF" d="M0,110.31c0,0,13.797-11.865,28.401-26.887s22.58-24.145,22.58-24.145l47.915,33.386
			c0,0-16.946,17.02-45.219,20.198S4.761,111.474,0,110.31z"/>
	</g>
</g>
<g id="Layer_1">
</g>
</svg>
