<?xml version="1.0" encoding="utf-8"?>
<!-- Generator: Adobe Illustrator 26.5.0, SVG Export Plug-In . SVG Version: 6.00 Build 0)  -->
<svg version="1.1" xmlns="http://www.w3.org/2000/svg" xmlns:xlink="http://www.w3.org/1999/xlink" x="0px" y="0px"
	 viewBox="0 0 325.597 440.909" enable-background="new 0 0 325.597 440.909" xml:space="preserve">
<g id="spruce_x5F_blue_x5F_2">
	<polygon fill="#008292" points="127.332,295.722 123.127,440.909 188.544,440.909 187.912,295.71 	"/>
	<path fill="#005F8A" d="M6.476,187.925c0,0,53.397-23.819,93.429-85.235C138.666,43.225,163.605,0,163.605,0
		s57.233,83.534,95.166,121.283s66.826,63.908,66.826,63.908s-78.579,34.439-160.916,32.434
		C82.343,215.62,47.013,211.449,6.476,187.925z"/>
	<path fill="#005F8A" d="M0,331.592c0,0,42.752-35.086,88.179-79.711s70.298-71.788,70.298-71.788l143.258,104.795
		c0,0-52.68,50.53-138.812,58.21S14.384,335.464,0,331.592z"/>
</g>
<g id="Layer_1">
</g>
</svg>
