<?xml version="1.0" encoding="utf-8"?>
<!-- Generator: Adobe Illustrator 24.2.3, SVG Export Plug-In . SVG Version: 6.00 Build 0)  -->
<svg version="1.1" xmlns="http://www.w3.org/2000/svg" xmlns:xlink="http://www.w3.org/1999/xlink" x="0px" y="0px"
	 viewBox="0 0 278.762 262.036" enable-background="new 0 0 278.762 262.036" xml:space="preserve">
<g id="star_x5F_white">
	<g>
		<path fill="#FFFFFF" d="M86.566,75.847c0,0,44.571-74.495,56.309-75.83c11.738-1.334,50.64,75.362,50.64,75.362
			s83.515,17.078,85.21,25.848c1.695,8.77-56.122,65.558-56.122,65.558s10.49,86.31,1.377,93.075
			c-9.113,6.765-86.33-26.28-86.33-26.28s-73.54,34.446-82.854,27.541c-9.314-6.905-1.25-96.095-1.25-96.095
			S-0.23,112.952,0.14,103.534S86.566,75.847,86.566,75.847z"/>
		<path fill="#CCD2D3" d="M142.875,0.017l-1.978,132.354L86.566,75.847C86.566,75.847,128.34,2.969,142.875,0.017z"/>
		<path fill="#CCD2D3" d="M140.898,132.371l-87.35,32.654c0,0-56.728-51.726-53.407-61.492L140.898,132.371z"/>
		<path fill="#CCD2D3" d="M140.898,132.371L137.65,233.58c0,0-54.678,32.283-82.854,27.541L140.898,132.371z"/>
		<path fill="#CCD2D3" d="M140.898,132.371l81.705,34.414c0,0,13.502,84.118,1.377,93.075L140.898,132.371z"/>
		<path fill="#CCD2D3" d="M140.898,132.371l52.618-56.992c0,0,78.769,10.885,85.21,25.848L140.898,132.371z"/>
	</g>
</g>
<g id="Layer_1">
</g>
</svg>
