<?xml version="1.0" encoding="utf-8"?>
<!-- Generator: Adobe Illustrator 24.2.3, SVG Export Plug-In . SVG Version: 6.00 Build 0)  -->
<svg version="1.1" xmlns="http://www.w3.org/2000/svg" xmlns:xlink="http://www.w3.org/1999/xlink" x="0px" y="0px"
	 viewBox="0 0 249.061 218.2" enable-background="new 0 0 249.061 218.2" xml:space="preserve">
<g id="star_x5F_simple_x5F_white">
	<g>
		<path fill="#FFFFFF" d="M166.961,65.9c0,0-31.8-65.9-39.4-65.9c-8.9,0-45.9,70.8-45.9,70.8c-11.2,1.7-79.8,13.7-81.6,20.2
			c-1.7,6,32.5,38,49.6,53.5c0,0-10.1,70.6-3.7,73.6s81.7-53.6,81.7-53.6s69.1,52.1,77,47.1c5.2-3.3-7.9-82.7-7.9-82.7
			s55.1-49.9,52.2-57.4C246.061,64.1,166.961,65.9,166.961,65.9z"/>
		<path fill="#E8E9E9" d="M166.961,65.9c12.7,19.3,21.9,41.3,29.7,63c-8,7-63.8,35.6-69.1,35.6c-3.1,0-60.3-9.3-78-20
			c6.5-26,19.4-50.3,32-73.7C108.361,63.2,139.761,63.1,166.961,65.9z"/>
	</g>
</g>
<g id="Layer_1">
</g>
</svg>
