<?xml version="1.0" encoding="utf-8"?>
<!-- Generator: Adobe Illustrator 24.2.3, SVG Export Plug-In . SVG Version: 6.00 Build 0)  -->
<svg version="1.1" xmlns="http://www.w3.org/2000/svg" xmlns:xlink="http://www.w3.org/1999/xlink" x="0px" y="0px"
	 viewBox="0 0 354.488 348.631" enable-background="new 0 0 354.488 348.631" xml:space="preserve">
<g id="sun">
	<g id="sun_1_">
		<path fill="#FDF1B8" d="M328.754,66.645C281.295-8.684,181.119-13.929,98.537,20.058c-61.79,25.43-131.517,121.358-81.39,235.179
			c50.555,114.794,208.428,111.157,271.608,56.606C368.406,243.07,367.734,128.517,328.754,66.645z"/>
		<path fill="#FDA519" d="M305.563,84.7C265.368,20.902,180.526,16.46,110.585,45.245C58.253,66.782-0.801,148.026,41.653,244.425
			c42.817,97.222,176.524,94.142,230.033,47.941C339.145,234.12,338.576,137.102,305.563,84.7z"/>
		<path fill="#F9D214" d="M259.124,118.71c-24.551-38.969-76.375-41.683-119.097-24.101
			c-31.966,13.156-68.037,62.781-42.105,121.664c26.153,59.385,107.825,57.504,140.509,29.284
			C279.637,209.979,279.29,150.718,259.124,118.71z"/>
		<path fill="#FDE40B" d="M124.469,205.554c12.916,27.717,46.822,33.833,76.429,25.82c22.152-5.995,50.055-35.668,37.893-76.616
			c-12.266-41.298-66.215-46.88-90.099-31.022C118.581,143.728,113.86,182.789,124.469,205.554z"/>
	</g>
</g>
<g id="Layer_1">
</g>
</svg>
