<?xml version="1.0" encoding="utf-8"?>
<!-- Generator: Adobe Illustrator 24.2.3, SVG Export Plug-In . SVG Version: 6.00 Build 0)  -->
<svg version="1.1" xmlns="http://www.w3.org/2000/svg" xmlns:xlink="http://www.w3.org/1999/xlink" x="0px" y="0px"
	 viewBox="0 0 237.046 237.912" enable-background="new 0 0 237.046 237.912" xml:space="preserve">
<g id="sunflower_x5F_simple">
	<g id="sunflower_2_">
		<g>
			<polygon fill="#FFD200" points="236.755,142.317 184.899,106.189 219.211,52.008 156.413,63.307 142.319,0.4 105.616,53.348 
				51.301,18.929 62.596,81.709 0.182,95.744 52.839,132.295 18.251,186.821 81.508,175.378 95.549,237.83 132.037,185.286 
				185.637,219.132 174.342,156.352 			"/>
			<polygon fill="#FFE400" points="237.046,96.992 175.516,82.577 187.383,19.55 131.947,54.273 96.866,0 83.94,63.234 
				19.126,50.818 52.816,104.99 0,141.085 62.44,155.599 50.439,219.067 104.996,185.061 141.112,237.912 155.611,175.607 
				217.921,187.258 184.232,133.089 			"/>
			<path fill="#FDA519" d="M124.665,57.585c-34.282-5.205-61.001,16.424-66.956,54.198c-5.496,34.871,13.993,61.437,49.083,66.895
				c36.283,5.645,67.41-14.855,72.579-47.801C185.221,93.61,162.636,63.351,124.665,57.585z"/>
		</g>
	</g>
	<path fill="#F9D214" d="M155.895,91.239c-12.641-20.064-39.324-21.462-61.32-12.409c-16.458,6.774-35.031,32.325-21.679,62.642
		c13.466,30.576,55.517,29.607,72.345,15.077C166.457,138.231,166.278,107.719,155.895,91.239z"/>
	<path fill="#FFE400" d="M145.667,98.527c-9.092-14.432-28.284-15.437-44.105-8.925c-11.838,4.872-25.196,23.25-15.593,45.056
		c9.685,21.992,39.931,21.296,52.035,10.845C153.263,132.326,153.135,110.38,145.667,98.527z"/>
	<path fill="#FCF19A" d="M98.942,129.247c4.062,8.717,14.726,10.64,24.037,8.12c6.967-1.885,15.742-11.218,11.917-24.096
		c-3.858-12.988-20.825-14.744-28.336-9.756C97.09,109.803,95.605,122.087,98.942,129.247z"/>
</g>
<g id="Layer_1">
</g>
</svg>
