<?xml version="1.0" encoding="utf-8"?>
<!-- Generator: Adobe Illustrator 25.0.0, SVG Export Plug-In . SVG Version: 6.00 Build 0)  -->
<svg version="1.1" xmlns="http://www.w3.org/2000/svg" xmlns:xlink="http://www.w3.org/1999/xlink" x="0px" y="0px"
	 viewBox="0 0 199.03 392.545" enable-background="new 0 0 199.03 392.545" xml:space="preserve">
<g id="sunflower">
	<g>
		<polygon fill="#00A038" points="94.345,162.299 90.891,392.545 110.223,392.545 103.167,162.299 		"/>
		<g>
			<path fill="#8CD000" d="M79.178,262.962c8.488-9.967,7.406-39.495-17.85-51.109c-30.18-13.877-50.467,2.52-51.703,4.133
				c-3.064,3.995-7.147,26.723,12.1,46.859c10.314,10.79,22.882,13.315,31.59,13.314C67.152,276.156,75.024,267.842,79.178,262.962z
				"/>
			<polygon fill="#00A038" points="10.21,214.797 98.19,271.684 94.163,276.605 8.443,217.359 			"/>
		</g>
		<g>
			<path fill="#8CD000" d="M120.526,272.701c6.072,11.599,33.864,21.632,54.076,2.549c24.152-22.803,16.528-47.75,15.495-49.5
				c-2.56-4.335-22.115-16.619-47.984-6.294c-13.863,5.533-20.904,16.245-24.158,24.324
				C112.784,256.613,117.554,267.023,120.526,272.701z"/>
			<polygon fill="#00A038" points="190.982,226.738 105.329,287.074 102.271,281.499 189.266,224.142 			"/>
		</g>
		<polygon fill="#FFD200" points="198.786,119.493 155.246,89.159 184.055,43.667 131.328,53.154 119.495,0.336 88.678,44.792 
			43.074,15.893 52.557,68.605 0.153,80.389 44.365,111.078 15.324,156.86 68.436,147.252 80.225,199.688 110.862,155.571 
			155.866,183.989 146.382,131.277 		"/>
		<polygon fill="#FFE400" points="199.03,81.437 147.368,69.334 157.332,16.415 110.786,45.569 81.331,0 70.478,53.093 
			16.059,42.668 44.346,88.152 0,118.459 52.426,130.645 42.35,183.934 88.157,155.382 118.481,199.757 130.655,147.444 
			182.972,157.227 154.686,111.745 		"/>
		<path fill="#6A4019" d="M104.672,48.35c-28.784-4.37-51.218,13.79-56.218,45.506c-4.615,29.279,11.749,51.584,41.211,56.167
			c30.464,4.74,56.599-12.473,60.939-40.135C155.516,78.597,136.553,53.191,104.672,48.35z"/>
		<path fill="#A45700" d="M133.802,78.472c-13.628-20.323-37.734-26.309-56.212-13.957c-20.901,13.975-25.519,38.71-11.187,59.916
			c12.94,19.144,35.608,22.463,56.804,8.313C142.776,119.68,146.982,98.128,133.802,78.472z"/>
		<path fill="#6A4019" d="M142.062,96.715l-10.004-0.18l0.354-7.526l7.798,0.135l-1.491-3.694l-6.132-0.107l0.514-10.779
			l-2.156-2.575l-10.066-0.097l0.545-9.072l-3.59-1.352l-0.63,10.391l-10.122-0.088l0.525-9.965l9.938,0.325l-12.398-4.847H91.532
			l-13.376,5.04l0.216,9.231L67.429,71.48l-3.136,4.708l0.07,7.958l-4.302-0.051l-1.3,3.653l5.426,0.071l-0.358,7.552l-6.525-0.084
			l-0.166,3.668l6.52,0.086l-0.472,10.12l-4.759-0.058l1.104,3.69l3.487,0.039l0.229,8.282l2.994,5.074l9.006,0.491l-0.148,11.012
			l14.254,4.062l0.102-1.906l10.136,0.075l-0.078,2.44l3.703-0.418l0.054-1.993l8.699-0.556l5.122-2.325l0.548-9.573l9.306,0.189
			l0.245,3.344l6.313-6.429l-2.713-0.511l0.462-10.087l8.834,0.171l1.009-3.645l-9.675-0.196l0.469-10.13l10.413,0.181
			L142.062,96.715z M75.447,123.006l-9.206-0.169l0.456-9.945l9.303,0.15L75.447,123.006z M76.203,109.369l-9.338-0.147l0.47-10.119
			l9.436,0.151L76.203,109.369z M76.98,95.579l-9.472-0.149l0.355-7.551l9.548,0.155L76.98,95.579z M77.623,84.359l-9.586-0.154
			l-0.221-9.876l10.339,0.903L77.623,84.359z M85.975,136.145l-7.326,0.212l0.277-9.608l7.552,0.142L85.975,136.145z
			 M86.678,123.216l-7.551-0.142l0.552-9.971l7.547,0.125L86.678,123.216z M87.431,109.551l-7.545-0.123l0.567-10.115l7.541,0.123
			L87.431,109.551z M88.2,95.76l-7.54-0.122l0.429-7.543l7.539,0.126L88.2,95.76z M88.835,84.545l-7.537-0.125l0.529-9.162
			l7.54,0.055L88.835,84.545z M82.04,71.579l0.548-10.257l7.535,0.143l-0.541,10.169L82.04,71.579z M99.788,136.247l-10.136-0.075
			l0.502-9.211l10.128,0.194L99.788,136.247z M100.485,123.478l-10.127-0.194l0.551-9.997l10.128,0.171L100.485,123.478z
			 M101.242,109.784l-10.13-0.171l0.564-10.115l10.132,0.171L101.242,109.784z M102.015,95.992l-10.134-0.17l0.425-7.537
			l10.136,0.175L102.015,95.992z M102.653,84.782l-10.139-0.175l0.529-9.268l10.152,0.079L102.653,84.782z M93.255,71.661
			l0.532-10.125l10.16,0.198l-0.536,10.007L93.255,71.661z M113.445,136.357l-9.977-0.082l0.496-9.047l9.992,0.197L113.445,136.357z
			 M114.165,123.749l-10-0.198l0.553-10.026l10.024,0.177L114.165,123.749z M114.955,110.025l-10.032-0.178l0.565-10.116
			l10.055,0.175L114.955,110.025z M115.758,96.231l-10.063-0.177l0.426-7.532l10.079,0.181L115.758,96.231z M116.415,85.031
			l-10.087-0.184l0.539-9.401l10.113,0.086L116.415,85.031z M127.108,124.013l-9.26-0.19l0.579-10.056l9.142,0.167L127.108,124.013z
			 M127.736,110.264l-9.099-0.171l0.587-10.12l8.983,0.163L127.736,110.264z M128.379,96.464l-8.94-0.166l0.439-7.528l8.857,0.167
			L128.379,96.464z M128.911,85.271l-8.815-0.171l0.564-9.536l8.717,0.08L128.911,85.271z"/>
	</g>
</g>
<g id="Layer_1">
</g>
</svg>
