<?xml version="1.0" encoding="utf-8"?>
<!-- Generator: Adobe Illustrator 24.2.3, SVG Export Plug-In . SVG Version: 6.00 Build 0)  -->
<svg version="1.1" xmlns="http://www.w3.org/2000/svg" xmlns:xlink="http://www.w3.org/1999/xlink" x="0px" y="0px"
	 viewBox="0 0 142.505 148.405" enable-background="new 0 0 142.505 148.405" xml:space="preserve">
<g id="swirl_x5F_white">
	<g>
		<g id="blender_x5F_sekoittuu_x5F_pyoryla_1_">
			<path fill="#FFFFFF" d="M43.231,148.401c-44.268-15.17-59.296-96.07-22.441-127.354c49.059-40.276,111.283-21.748,120.87,47
				c8.393,51.447-47.487,79.876-88.939,56.954C5.976,97.037,24.36,25.954,78.68,29.401c29.559,1.995,46.952,40.724,27.012,62.778
				c-16.23,22.96-53.727,9.364-52.213-16.309c0.411-4.598,3.317-15.723,21.386-19.689c3.13-0.686,6.225,1.293,6.911,4.424
				s-1.293,6.225-4.424,6.911c-15.535,2.072-16.135,17.166-1.559,23.77c21.58,8.418,35.974-26.041,19.478-41.301
				c-8.303-9.211-24.084-14.371-43.468-1.225c-36.446,29.056,1.256,81.99,40.836,71.66C157.748,113.8,128.6,8.159,77.043,11.542
				C41.706,14.428,16.378,29.714,11.92,63.824c-3.844,32.41,14.988,67.37,33.101,73.256
				C51.248,138.869,49.583,148.632,43.231,148.401z"/>
		</g>
		<g id="Layer_1_41_">
		</g>
	</g>
</g>
<g id="Layer_1">
</g>
</svg>
