<?xml version="1.0" encoding="utf-8"?>
<!-- Generator: Adobe Illustrator 25.0.0, SVG Export Plug-In . SVG Version: 6.00 Build 0)  -->
<svg version="1.1" xmlns="http://www.w3.org/2000/svg" xmlns:xlink="http://www.w3.org/1999/xlink" x="0px" y="0px"
	 viewBox="0 0 154.008 488.474" enable-background="new 0 0 154.008 488.474" xml:space="preserve">
<g id="treetrunk_x5F_1_x5F_middle_x5F_white">
	<path fill="#FFFFFF" d="M57.26,0C57.26,0,0,24.785,3.221,101.202c1.729,41.012,54.147,68.695,54.868,101.45
		C59.003,244.237,0,266.219,0,341.177c0,47.067,29.085,60.148,57.093,96.849c21.285,27.891,7.241,50.448,7.241,50.448h80.086
		c0,0,30.506-58.394-37.479-104.589c-49.883-33.895-51.425-120.281-3.486-155.145c31.406-22.84,46.322-39.029,46.323-70.6
		c0.002-42.709-39.351-47.938-34.58-83.674C123.407,12.973,154.008,0,154.008,0H57.26z"/>
</g>
<g id="Layer_1">
</g>
</svg>
