<?xml version="1.0" encoding="utf-8"?>
<!-- Generator: Adobe Illustrator 25.0.0, SVG Export Plug-In . SVG Version: 6.00 Build 0)  -->
<svg version="1.1" xmlns="http://www.w3.org/2000/svg" xmlns:xlink="http://www.w3.org/1999/xlink" x="0px" y="0px"
	 viewBox="0 0 397.249 217.122" enable-background="new 0 0 397.249 217.122" xml:space="preserve">
<g id="tree_x5F_foliage_x5F_bush_x5F_big_x5F_white">
	<path fill="#FFFFFF" d="M359.396,20.972c55.255,25.886,42.435,80.527,9.667,83.773c0,0,28.185,42.022-25.525,53.756
		c0,0-0.939,37.622-38.029,37.622c-36.874,0-46.541-28.455-46.541-28.455s-6.39,54.718-57.199,49.042
		c-47.982-5.361-48.798-42.648-48.798-42.648s-9.696,32.536-47.97,26.444c-42.047-6.692-35.595-43.749-35.595-43.749
		s-54.473,14.045-67.05-45.093C-10.369,51.83,31.036,21.067,64.44,12.723C124.888-2.377,295.767-8.837,359.396,20.972z"/>
</g>
<g id="Layer_1">
</g>
</svg>
