<?xml version="1.0" encoding="utf-8"?>
<!-- Generator: Adobe Illustrator 25.0.0, SVG Export Plug-In . SVG Version: 6.00 Build 0)  -->
<svg version="1.1" xmlns="http://www.w3.org/2000/svg" xmlns:xlink="http://www.w3.org/1999/xlink" x="0px" y="0px"
	 viewBox="0 0 202.181 363.803" enable-background="new 0 0 202.181 363.803" xml:space="preserve">
<g id="treetrunk_x5F_1_x5F_back_x5F_white">
	<path fill="#FFFFFF" d="M114.84,363.803c0,0-24.47-84.609-7.716-145.125s51.158-90.382,51.158-90.382l-21.31,0.402
		c0,0-8.48,9.739-24.288,15.704c0,0-1.308-25.273,27.819-31.375c27.599-5.782,37.128-6.356,48.357-27.691
		s13.321-57.265,13.321-57.265h-19.636c0,0-3.942,33.096-17.265,46.148c-9.508,9.315-17.34,4.5-17.34,4.5s6.969-18.086,9.347-43.911
		c2.378-25.826-4-34.808-4-34.808h-26.59c0,0,4.814,44.922-9.764,73.785C96.77,113.706,58.018,97.98,25.14,141.944
		c-48.183,64.429-12.285,221.86-12.285,221.86H114.84z"/>
</g>
<g id="Layer_1">
</g>
</svg>
