<?xml version="1.0" encoding="utf-8"?>
<!-- Generator: Adobe Illustrator 25.0.0, SVG Export Plug-In . SVG Version: 6.00 Build 0)  -->
<svg version="1.1" xmlns="http://www.w3.org/2000/svg" xmlns:xlink="http://www.w3.org/1999/xlink" x="0px" y="0px"
	 viewBox="0 0 168.1 506.005" enable-background="new 0 0 168.1 506.005" xml:space="preserve">
<g id="treetrunk_x5F_2_x5F_front_x5F_white">
	<path fill="#FFFFFF" d="M137.093,197.916c10.555-9.236,31.007-17.812,31.007-59.375c0-41.562,0-138.542,0-138.542H50.67
		c0,0-27.708,25.069-23.09,61.354c4.618,36.285,59.375,54.097,59.375,93.021c0,43.546-18.472,59.375-38.923,66.632
		C27.58,228.263,0.267,241.354,0.002,280.55c-0.316,46.671,45.284,58.681,54.526,90.112c9.421,32.042,6.038,104.336,6.038,135.343
		H168.1l-9.958-157.527c0,0-1.917-44.348-28.306-77.333C103.447,238.159,126.538,207.152,137.093,197.916z M51.305,311.395
		c-13.298,0-24.077-13.116-24.077-29.294c0-16.179,10.78-29.294,24.077-29.294c13.297,0,24.077,13.115,24.077,29.294
		C75.382,298.279,64.602,311.395,51.305,311.395z"/>
</g>
<g id="Layer_1">
</g>
</svg>
