<?xml version="1.0" encoding="utf-8"?>
<!-- Generator: Adobe Illustrator 25.0.0, SVG Export Plug-In . SVG Version: 6.00 Build 0)  -->
<svg version="1.1" xmlns="http://www.w3.org/2000/svg" xmlns:xlink="http://www.w3.org/1999/xlink" x="0px" y="0px"
	 viewBox="0 0 745.423 1539.468" enable-background="new 0 0 745.423 1539.468" xml:space="preserve">
<g id="tree_x5F_wavy_x5F_left_x5F_white">
	<g>
		<path fill="#FFFFFF" d="M218.168,1094.276v0.672H89.789c0,0-89.413,96.462-89.572,222.781
			C0,1490.811,112.419,1568.306,112.419,1690.032c0,121.726-58.777,131.049-91.269,218.772
			c-20.917,56.471,35.029,132.969,39.623,227.134s-65.149,144.113-60.556,247.465c4.593,103.352,93.953,137.371,107.733,178.711
			c13.78,41.341-18.161,71.63-18.161,71.63h144.319v-0.15h367.428c-15.381-16.544-15.25-42.653-7.778-63.971
			c7.471-21.318,20.994-39.957,30.288-60.546c15.538-34.421,18.698-74.277,8.777-110.716c-6.512-23.917-18.807-46.669-37.427-63.03
			c-16.483-14.483-37.018-23.338-55.839-34.616c-18.822-11.278-39.53-39.066-42.591-56.485
			c-7.872-44.797-26.711-70.471-52.902-98.016c-26.191-27.545-55.236-55.061-66.102-91.483c-5.191-17.401-5.851-35.831-9.99-53.512
			c-4.139-17.68-12.811-35.67-28.777-44.318c0,0,57.997,5.619,101.898-24.867c35.839-24.888,48.169-81.094,48.169-81.094
			l-20.337-9.519c0,0-18.976,40.109-43.684,54.64c-62.584,36.802-147.333-56.332-66.12-103.755
			c77.095-45.019,149.653-84.041,120.212-186.535l-23.789,5.116c10.548,48.011-6.928,71.627-19.909,85.706
			c-12.981,14.078-51.126,24.49-79.288,10.408c-51.716-25.858-14.499-124.691,37.794-154.339
			c34.37-19.486,86.307-9.656,147.361-37.131c57.709-25.969,70.638-83.137,67.018-122.401l-26.114,1.56
			c0,0,1.156,28.414-30.142,51.942c-18.888,14.199-59.313,25.521-80.952,16.031c-17.762-7.79-29.267-25.528-35.702-43.825
			c-26.695-75.905,34.852-103.794,55.276-107.942c20.424-4.148,41.653-3.922,61.756-9.418c29.029-7.935,54.487-28.149,68.794-54.624
			c9.378-17.353,14.146-37.15,25.474-53.298c13.676-19.494,35.294-31.509,54.911-45.008c19.617-13.5,38.975-30.91,43.604-54.269
			H218.168z"/>
	</g>
</g>
<g id="Layer_1">
</g>
</svg>
