<?xml version="1.0" encoding="utf-8"?>
<!-- Generator: Adobe Illustrator 25.0.0, SVG Export Plug-In . SVG Version: 6.00 Build 0)  -->
<svg version="1.1" xmlns="http://www.w3.org/2000/svg" xmlns:xlink="http://www.w3.org/1999/xlink" x="0px" y="0px"
	 viewBox="0 0 696.396 1537.449" enable-background="new 0 0 696.396 1537.449" xml:space="preserve">
<g id="tree_x5F_wavy_x5F_right_x5F_white">
	<g>
		<g>
			<path fill="#FFFFFF" d="M675.268,1818.481c20.895-56.414-34.994-132.834-39.583-226.903
				c-4.589-94.07,65.083-143.967,60.494-247.214c-4.589-103.247-93.857-137.232-107.624-178.531
				c-13.766-41.299,18.143-71.557,18.143-71.557H452.81h-10.257H0c8.115,38.383,9.529,118.074,14.721,156.963
				c5.193,38.889,14.613,78.27,36.701,110.671c22.087,32.4,58.904,56.823,98.042,55.39c39.139-1.433,100.305-25.423,94.187-104.278
				c0,0,83.718,48.693,40.166,239.676c-32.171,141.076,113.888,237.615,41.41,338.935c0,0-10.062-47.715-98.822-63.614
				c-35.974-6.444-62.823-61.216-35.911-119.404l-25.838-8.397c-49.805,88.572-24.5,152.738,66.586,191.165
				c68.733,28.997,17.396,122.278,17.396,122.278c-53.181,48.504-59.498,136.148-32.327,202.858
				c63.003,154.688-128.28,129.747-135.411,288.719c-1.922,42.842,20.504,92.882,50.922,126.489h320.99v-0.214h153.889
				c0,0,89.322-96.364,89.481-222.555c0.217-172.906-112.088-250.323-112.088-371.925
				C584.091,1915.429,642.809,1906.115,675.268,1818.481z M146.258,1375.831c-62.731,0-49.978-107.69-44.37-138.562
				c6.762-37.227-21.338-88.495-23.515-92c24.242,6.67,40.238,29.777,52.166,52.09c12.126,22.682,23.396,71.232,78.47,83.815
				C209.009,1281.174,214.003,1375.831,146.258,1375.831z"/>
		</g>
	</g>
</g>
<g id="Layer_1">
</g>
</svg>
