<?xml version="1.0" encoding="utf-8"?>
<!-- Generator: Adobe Illustrator 24.2.3, SVG Export Plug-In . SVG Version: 6.00 Build 0)  -->
<svg version="1.1" xmlns="http://www.w3.org/2000/svg" xmlns:xlink="http://www.w3.org/1999/xlink" x="0px" y="0px"
	 viewBox="0 0 69.958 395.747" enable-background="new 0 0 69.958 395.747" xml:space="preserve">
<g id="tree_x5F_stick_x5F_twig_x5F_white">
	<path fill="#FFFFFF" d="M60.243,0c-2.662,21.771-7.636,42.198-16.85,62.102c-0.075,0.018-0.159,0.013-0.246,0.002
		C35.937,41.768,28.688,24.201,23.98,15.815l-8.303,4.9c0,0,27.089,74.174,30.931,97.67c2.01,12.29,3.154,37.259,3.154,37.259
		S24.635,127.527,4.675,114.7L0,123.24c22.425,21.226,40.271,44.737,48.967,69.749C46.552,317.975,4.134,395.747,4.134,395.747
		l30.542-4.911c0,0,7.944-17.9,11.584-26.965c22.829-56.863,27.735-136.176,20.773-206.79
		c-4.064-41.229-17.191-75.218-17.191-75.218C67.905,39.019,67.039,1.781,67.039,1.781L60.243,0z"/>
</g>
<g id="Layer_1">
</g>
</svg>
