<?xml version="1.0" encoding="utf-8"?>
<!-- Generator: Adobe Illustrator 25.0.0, SVG Export Plug-In . SVG Version: 6.00 Build 0)  -->
<svg version="1.1" xmlns="http://www.w3.org/2000/svg" xmlns:xlink="http://www.w3.org/1999/xlink" x="0px" y="0px"
	 viewBox="0 0 203.971 488.474" enable-background="new 0 0 203.971 488.474" xml:space="preserve">
<g id="treetrunk_x5F_1_x5F_front_x5F_white">
	<path fill="#FFFFFF" d="M196.211,75.55C206.402,44.072,203.625,0,203.625,0h-34.701c0,0,13.407,53.33-17.146,88.512
		c-15.935,18.349-23.146,24.998-23.146,24.998S143.791,61.105,137.137,0H78.637c0,0,38.885,74.625,18.517,113.51
		S9.199,158.875,0.866,215.352c-8.333,56.476,45.721,71.552,64.238,109.511s4.274,101.58,5.2,163.611h120.359
		c0,0-5.457-113.337-9.382-180.063c-1.533-26.059-10.636-70.593-34.132-98.615c-23.352-27.85-0.926-68.512,12.962-85.177
		C173.998,107.955,186.02,107.029,196.211,75.55z M82.082,225.3c-2.406,19.957-15.506,34.791-29.26,33.133
		c-13.754-1.658-22.954-19.18-20.548-39.137c2.406-19.957,15.506-34.791,29.26-33.133C75.288,187.821,84.488,205.343,82.082,225.3z
		 M139.044,284.229c14.582,0,32.438,68.15-5.952,68.15C98.272,352.379,118.667,284.229,139.044,284.229z"/>
</g>
<g id="Layer_1">
</g>
</svg>
