<?xml version="1.0" encoding="utf-8"?>
<!-- Generator: Adobe Illustrator 26.0.2, SVG Export Plug-In . SVG Version: 6.00 Build 0)  -->
<svg version="1.1" xmlns="http://www.w3.org/2000/svg" xmlns:xlink="http://www.w3.org/1999/xlink" x="0px" y="0px"
	 viewBox="0 0 317.044 985.467" enable-background="new 0 0 317.044 985.467" xml:space="preserve">
<g id="trunk_x5F_brown_x5F_dots">
	<g>
		<path fill="#6A4019" d="M95.715,3.291C66.752-9.037,40.865,15.962,28.414,33.834C11.571,58.01-5.405,100.125,1.633,168.303
			C12.752,276.01,106.096,330.488,111.201,418.289c4.509,77.57-120.659,174.843-52.531,327.153
			c70.551,157.728-27.654,240.025-27.654,240.025h266.56c0,0,59.18-140.166-28.826-251.522
			c-114.688-145.119-13.705-175.546-25.739-348.853C228.847,181.107,74.251,197.611,122.178,75.409
			C130.886,53.203,134.443,19.776,95.715,3.291z"/>
		<path fill="#A45700" d="M271.597,737.657c-6.687,1.002-13.456,2.604-20.17,4.782c-33.342,10.819-46.411,62.079-30.27,103.816
			c14.971,38.712,66.009,38.644,95.737,24.011C315.574,828.582,304.485,781.098,271.597,737.657z"/>
		<path fill="#A45700" d="M111.269,419.804c1.116,30.615-17.505,64.315-36.213,103.249c29.152,16.946,75.157,8.768,95.66-7.851
			c32.503-26.345,32.575-70.778,16.814-97.475c-15.146-25.655-47.368-33.691-81.231-28.4c2.6,7.912,4.323,16.081,4.901,24.621
			C111.332,415.884,111.35,417.837,111.269,419.804z"/>
		<path fill="#A45700" d="M185.874,646.462c-13.354-26.373-44.679-31.138-74.586-20.553c-26.649,9.432-37.094,54.122-24.194,90.509
			c13.864,39.104,66.431,32.826,86.36,13.991C197.462,707.721,197.515,669.454,185.874,646.462z"/>
		<path fill="#A45700" d="M127.572,305.47c13.864,39.104,66.431,32.826,86.36,13.991c5.408-5.111,9.59-11.016,12.707-17.354
			c-14.675-41.294-36.524-68.885-57.157-91.56c-5.862,0.845-11.816,2.326-17.716,4.414
			C125.117,224.393,114.671,269.083,127.572,305.47z"/>
		<path fill="#A45700" d="M75.718,194.891c24.008-22.689,24.061-60.955,12.42-83.947C74.785,84.571,43.459,79.806,13.552,90.391
			c-3.628,1.284-6.944,3.241-9.954,5.723c-3.654,19.939-4.896,43.797-1.966,72.189c1.292,12.513,3.705,24.3,6.948,35.511
			C30.14,215.494,61.378,208.444,75.718,194.891z"/>
		<path fill="#A45700" d="M79.169,807.513c9.999,48.093,3.68,86.682-7.247,115.47c21.482,10.551,51.598,3.517,65.601-9.716
			c24.008-22.689,24.061-60.955,12.42-83.947C137.155,804.065,107.888,798.635,79.169,807.513z"/>
	</g>
</g>
<g id="Layer_1">
</g>
</svg>
