<?xml version="1.0" encoding="utf-8"?>
<!-- Generator: Adobe Illustrator 25.0.0, SVG Export Plug-In . SVG Version: 6.00 Build 0)  -->
<svg version="1.1" xmlns="http://www.w3.org/2000/svg" xmlns:xlink="http://www.w3.org/1999/xlink" x="0px" y="0px"
	 viewBox="0 0 773.678 1203.817" enable-background="new 0 0 773.678 1203.817" xml:space="preserve">
<g id="wall_x5F_wooden_x5F_striped_x5F_white">
	<path fill="#B2B2B2" d="M70.938,1250.152h326.869L446.703,49.223c-96.972-12.615-151.518,17.661-191.923,60.551
		s-48.486,103.441-90.911,141.286S0,276.887,0,440.282c0,151.378,93.325,138.879,93.677,242.16
		c0.394,115.575-74.139,74.983-70.099,221.315c2.924,105.901,79.409,105.373,79.409,216.384S70.938,1250.152,70.938,1250.152z"/>
	<path fill="#FFFFFF" d="M100.938,1250.152H704.99c0,0-44.022-46.828-44.022-145.223c0-98.396,89.414-105.835,89.414-229.46
		s-75.201-86.75-75.201-202.461c0-112.674,98.497-77.655,98.497-256.786s-200.004-354.385-296.975-367
		S325.185,66.884,284.78,109.774s-48.486,103.441-90.911,141.286S30,276.887,30,440.282c0,151.378,93.325,138.879,93.677,242.16
		c0.394,115.575-74.139,74.983-70.099,221.315c2.924,105.901,79.409,105.373,79.409,216.384S100.938,1250.152,100.938,1250.152z"/>
	<path fill="#E7E9E9" d="M292.672,1250.152h39.917l6.363-1182.366c-19.942,10.376-36.648,23.89-51.435,39.129L292.672,1250.152z"/>
	<path fill="#E7E9E9" d="M477.201,1250.152h45.638L507.2,57.213c-10.741-3.994-20.826-6.678-29.999-7.919V1250.152z"/>
	<path fill="#E7E9E9" d="M620.105,1250.152h27.103l3.985-1090.866c-11.263-11.636-22.843-22.58-34.528-32.718L620.105,1250.152z"/>
	<path fill="#E7E9E9" d="M184.078,258.221c-9.425,5.774-20.966,10.434-33.454,15.293v976.639h46.885L184.078,258.221z"/>
</g>
<g id="Layer_1">
</g>
</svg>
