<?xml version="1.0" encoding="utf-8"?>
<!-- Generator: Adobe Illustrator 27.1.1, SVG Export Plug-In . SVG Version: 6.00 Build 0)  -->
<svg version="1.1" xmlns="http://www.w3.org/2000/svg" xmlns:xlink="http://www.w3.org/1999/xlink" x="0px" y="0px"
	 viewBox="0 0 127.181 79.523" enable-background="new 0 0 127.181 79.523" xml:space="preserve">
<g id="water_x5F_drop_x5F_blue">
	<path fill="#00BDD0" d="M127.181,39.795C127.165,70.941,98.69,79.541,63.57,79.523C31.956,79.506,5.734,71.691,0.825,48.151
		C0.281,45.541-0.002,42.736,0,39.728C0.015,11.633,28.492-0.019,63.612,0c21.52,0.011,40.541,4.011,52.042,13.811
		C122.922,20.003,127.187,28.513,127.181,39.795z"/>
	<path fill="#31D8E2" d="M115.643,13.824c0.083,1.202,0.14,2.423,0.139,3.687c-0.019,34.981-28.599,44.642-63.849,44.623
		c-20.904-0.011-39.458-3.825-51.095-13.985c4.912,23.535,31.12,31.357,62.731,31.374c35.12,0.019,63.595-8.581,63.612-39.728
		C127.187,28.514,122.91,20.016,115.643,13.824z"/>
	<ellipse fill="#FFFFFF" cx="42.348" cy="23.355" rx="19.555" ry="12.227"/>
</g>
<g id="Layer_1">
</g>
</svg>
