<?xml version="1.0" encoding="utf-8"?>
<!-- Generator: Adobe Illustrator 24.2.3, SVG Export Plug-In . SVG Version: 6.00 Build 0)  -->
<svg version="1.1" xmlns="http://www.w3.org/2000/svg" xmlns:xlink="http://www.w3.org/1999/xlink" x="0px" y="0px"
	 viewBox="0 0 292.302 200.499" enable-background="new 0 0 292.302 200.499" xml:space="preserve">
<g id="waterlily">
	<g>
		<g id="lumme_x5F_ja_x5F_kukka_1_">
			<path fill="#BFD731" d="M89.149,136.689c0,0-38.774,12.659-32.97,31.546c5.623,18.299,91.232,47.76,165.047,22.417
				c66.593-22.864,92.758-75.123,50.794-100.766c-30.644-18.725-92.75-30.828-140.037-29.981
				c-74.796,1.339-119.689,55.007-97.928,67.489C56.009,139.987,89.149,136.689,89.149,136.689z"/>
			<path fill="#E8E9E9" d="M59.455,28.172c0,0-8.954-27.854-16.552-28.168c-8.681-0.36-9.784,24.185-9.784,24.185
				S17.651,9.877,12.83,13.481c-5.642,4.218,1.359,19.368,1.359,19.368s-8.453-3.826-11.593-0.308
				c-6.456,7.232,14.03,27.943,14.03,27.943S-2.727,63.834,0.327,76.28c1.731,7.054,27.459,9.713,27.459,9.713
				s-10.782,15.017,0.889,22.595c12.01,7.798,26.275-3.466,26.455-3.45c1.747,6.874,15.642,32.263,30.044,27.556
				c10.841-3.543,2.086-25.416,2.086-25.416s38.377,7.419,41.683-3.181c2.241-7.185-15.808-14.121-15.808-14.121
				s34.647-4.979,31.984-16.575c-1.831-7.971-30.824-4.566-30.824-4.566s24.714-16.497,20.148-24.349
				c-3.836-6.598-29.225,1.932-29.225,1.932s15.602-21.167,6.214-27.59c-6.104-4.176-24.915,10.609-24.915,10.609
				s1.695-21.98-5.161-24.913C73.311,1.083,59.455,28.172,59.455,28.172z"/>
			<path fill="#F4F4F4" d="M94.318,58.701c0,0,17.864-29.274,8.738-32.812s-24.92,10.669-24.92,10.669s-4.428-23.637-12.55-24.18
				c-10.648-0.712-13.092,26.786-13.092,26.786S39.781,16.717,32.8,17.788c-12.704,1.948-6.834,27.697-3.661,30.723
				c1.571,1.498-6.326-2.383-7.101,4.266S32.16,67.5,31.439,67.435s-15.48-9.208-17.174,1.191
				C11.032,88.47,47.637,89.399,48.21,89.086s-1.098,18.233,12.508,18.547c14.34,0.331,14.188-14.531,14.188-14.531
				s11.123,11.53,25.844-0.769c12.071-10.086-9.458-7.929-9.458-7.929s45.849-4.932,41.234-22.453
				C130.763,55.257,94.318,58.701,94.318,58.701z"/>
			<path fill="#FFFFFF" d="M82.298,55.09c0,0,6.087-26.026-2.87-28.766c-6.716-2.054-18.404,12.877-18.404,12.877
				S50.362,24.446,42.847,25.225c-7.515,0.779-9.234,26.047-4.102,31.591c0.389,0.42-16.13,0.259-11.414,11.87
				c7.885,19.41,26.328,16.383,26.581,17.453c2.766,11.688,20.485,23.126,27.256,20.056c10.031-4.549,0.956-20.796,0.956-20.796
				s22.877,2.05,21.375-7.527c-0.905-5.768-9.439-6.112-9.439-6.112s29.184-15.707,13.611-22.204
				C101.019,46.78,82.298,55.09,82.298,55.09z"/>
			<path fill="#A3D02A" d="M167.042,61.234c2.343,0.222,4.691,0.459,7.045,0.727l-21.71,60.65l127.985-26.522
				c2.47,2.293,4.539,4.721,6.22,7.259l-84.562,16.448l77.693,32.894c-1.576,1.967-3.289,3.916-5.145,5.836l-85.872-35.929
				L70.507,145.152c8.929-5.473,18.521-8.607,18.521-8.607s-6.141,0.608-14.879,0.301l68.603-12.192L167.042,61.234z"/>
			<path fill="#FDE40B" d="M70.842,52.426c-7.473-3.603-15.904-0.684-19.613,6.79c-3.324,6.698,0.241,15.208,7.894,18.842
				c7.129,3.385,14.408,0.639,17.961-6.774C80.797,63.535,78.312,56.027,70.842,52.426z"/>
		</g>
		<g id="Layer_1_214_">
		</g>
	</g>
</g>
<g id="Layer_1">
</g>
</svg>
