<?xml version="1.0" encoding="utf-8"?>
<!-- Generator: Adobe Illustrator 27.2.0, SVG Export Plug-In . SVG Version: 6.00 Build 0)  -->
<svg version="1.1" xmlns="http://www.w3.org/2000/svg" xmlns:xlink="http://www.w3.org/1999/xlink" x="0px" y="0px"
	 viewBox="0 0 1510.646 1388.022" enable-background="new 0 0 1510.646 1388.022" xml:space="preserve">
<g id="drillingmachine_x5F_paint_x5F_bubble">
	<path fill="#D9FDFF" d="M1101.787,252.223c-90.317-370.636-636.961-294.281-695.41-19.272
		C60.62,168.635-163.708,658.279,149.306,866.962C-9.669,1280.514,447.02,1519.41,712.099,1286.471
		c153.767,224.513,762.234,66.692,625.042-374.044C1612.301,815.245,1578.831,188.722,1101.787,252.223z M759.763,733.515
		c0.246-0.006,0.492-0.008,0.739-0.015c0.129,0.404,0.266,0.802,0.397,1.205C760.519,734.309,760.143,733.91,759.763,733.515z"/>
	<path fill="#FFDEC3" d="M712.099,1286.471c146.497,213.898,705.709,80.76,639.625-313.437H120.923
		C70.12,1319.303,470.615,1498.676,712.099,1286.471z"/>
	<g>
		<path fill="#A45700" d="M1101.787,252.213C1042.814,10.205,789.294-41.217,604.154,28.79l0.773,1099.551l48.312,52.721h669.616
			c37.036-72.076,47.453-162.092,14.285-268.645C1612.301,815.234,1578.831,188.712,1101.787,252.213z M759.763,733.505
			c0.246-0.006,0.492-0.008,0.739-0.015c0.129,0.404,0.266,0.802,0.397,1.205C760.519,734.298,760.143,733.9,759.763,733.505z"/>
		<path fill="#D47A00" d="M604.154,28.79l0.773,1100.017l48.312,52.255V13.474C636.483,17.653,620.067,22.772,604.154,28.79z"/>
	</g>
	<polygon fill="#FFBBDA" points="604.607,671.446 653.239,695.644 653.239,341.356 604.368,331.4 	"/>
	<path fill="#FF9EC5" d="M1101.787,252.213c-2.441-10.017-5.222-19.7-8.311-29.069c-3.041-8.946-6.215-17.333-9.07-24.486
		c-3.202-7.736-6.638-15.222-10.287-22.471l-303.85,30.357l-15.016,121.791l-102.228,13.043v0.567v352.967l0.215,0.732
		c5.075,64.518,47.602,40.831,55.984,41.924c24.863,3.243,12.972,48.645,56.212,66.482c39.089,16.124,45.742-74.103,70.266-67.563
		c32.43,8.648,27.566,101.074,61.617,92.967c34.052-8.107,17.296-45.402,47.564-36.754c82.298,23.514,51.045-59.031,82.157-60.536
		c33.511-1.622,17.299,86.333,71.347,87.562c47.564,1.081,45.402-91.345,87.021-90.264c25.63,0.666,48.624,94.048,110.263,94.048
		c53.51,0,61.617-50.807,100.534-48.645c24.421,1.357,39.16,35.099,60.121,38.554
		C1585.214,609.121,1491.574,200.327,1101.787,252.213z M759.763,733.505c0.247-0.006,0.492-0.008,0.739-0.015
		c0.129,0.404,0.266,0.802,0.396,1.205C760.519,734.298,760.143,733.9,759.763,733.505z"/>
	<path fill="#A45700" d="M721.935,71.664c0.067-0.2,0.133-0.401,0.198-0.603c-0.189,0.198-0.378,0.396-0.567,0.595
		c-0.189,0.198-0.377,0.397-0.568,0.595c0.247,0.007,0.492,0.009,0.739,0.015C721.802,72.065,721.869,71.865,721.935,71.664z"/>
	<polygon fill="#D47A00" points="614.476,1121.779 614.476,1121.779 614.474,1121.777 	"/>
	<rect x="644.442" y="479.447" fill="#FFBBDA" width="846.303" height="8.846"/>
	<g>
		<path fill="#00BDD0" d="M717.622,210.573c18.766,0.58,32.962-12.705,35.363-29.363c2.586-17.948-6.498-37.13-28.975-40.769
			c-23.719-3.841-41.502,17.423-40.51,34.39C684.695,195.275,697.965,209.966,717.622,210.573z"/>
		<polygon fill="#005F8A" points="743.431,169.382 724.761,168.343 723.682,149.838 714.789,149.857 712.237,168.267 693.9,169.682 
			693.779,180.328 712.161,180.792 713.119,199.657 723.669,199.466 724.685,180.867 744.246,179.738 		"/>
	</g>
	<g>
		<path fill="#00BDD0" d="M725.93,879.134c18.378-3.844,29.057-20.09,27.479-36.847c-1.701-18.054-15.036-34.565-37.738-32.825
			c-23.957,1.837-36.25,26.682-31.301,42.941C690.332,871.996,706.681,883.16,725.93,879.134z"/>
		<polygon fill="#005F8A" points="741.345,833.034 722.953,836.409 717.558,818.674 708.919,820.781 710.761,839.276 
			693.269,844.957 695.652,855.334 713.629,851.468 718.99,869.581 729.2,866.917 725.82,848.6 744.57,842.909 		"/>
	</g>
	<g>
		<path fill="#00BDD0" d="M708.76,1138.947c18.015,5.288,35.1-3.992,41.619-19.509c7.024-16.718,3.064-37.569-17.771-46.753
			c-21.987-9.691-44.552,6.407-47.866,23.076C680.749,1115.849,689.891,1133.409,708.76,1138.947z"/>
		<polygon fill="#005F8A" points="744.113,1105.586 726.307,1099.878 729.924,1081.698 721.313,1079.476 714.205,1096.65 
			696.104,1093.399 693.304,1103.672 710.977,1108.751 707.152,1127.249 717.41,1129.722 723.078,1111.979 742.294,1115.814 		"/>
	</g>
	<g>
		<path fill="#00BDD0" d="M1068.897,1140.273c18.766-0.596,32.103-14.742,33.456-31.519c1.458-18.075-8.809-36.65-31.469-38.876
			c-23.913-2.349-40.33,19.986-38.279,36.857C1035.078,1127.065,1049.241,1140.897,1068.897,1140.273z"/>
		<polygon fill="#005F8A" points="1092.079,1097.548 1073.38,1097.68 1071.145,1079.278 1062.272,1079.854 1060.876,1098.388 
			1042.663,1100.946 1043.208,1111.58 1061.584,1110.892 1063.72,1129.661 1074.238,1128.81 1074.088,1110.184 1093.541,1107.833 		
			"/>
	</g>
	<g>
		<path fill="#FF9EC5" d="M1074.798,176.119l-0.679,0.068c3.649,7.249,7.085,14.735,10.287,22.471
			C1079.03,185.19,1074.798,176.119,1074.798,176.119z"/>
		<path fill="#FF9EC5" d="M759.763,733.505c0.38,0.395,0.757,0.794,1.135,1.19c-0.13-0.403-0.268-0.802-0.396-1.205
			C760.255,733.496,760.009,733.498,759.763,733.505z"/>
		<path fill="#A45700" d="M1084.406,198.658c2.855,7.154,6.03,15.541,9.07,24.486C1090.7,214.725,1087.676,206.561,1084.406,198.658
			z"/>
	</g>
	<g>
		<g>
			<path fill="#82D8E8" d="M1106.701,1238.864l-50.116,6.64c-13.836,4.291-34.163,11.092-34.163,11.092s24.74,9.516,32.95,13.112
				l55.66,8.162L1106.701,1238.864z"/>
			<g>
				<path fill="#00759C" d="M1080.149,1242.382l-5.514-2.97c-8.032,7.775-13.434,23.443-3.949,35.467l6.544-1.967
					C1070.329,1264.907,1067.28,1250.923,1080.149,1242.382z"/>
				<path fill="#00759C" d="M1096.132,1240.264l-8.451-2.754c-11.078,8.249-12.665,30.18-0.964,40.255l5.578-2.643
					C1083.26,1267.348,1077.769,1249.319,1096.132,1240.264z"/>
				<path fill="#00759C" d="M1048.8,1247.959c-1.163-0.632-2.625-0.796-3.999-1.424c-6.055,4.626-5.102,16.23-2.985,21.06
					c0.982-0.011,4.705-0.643,6.061-1.003C1045.258,1260.783,1044.812,1253.855,1048.8,1247.959z"/>
				<path fill="#00759C" d="M1064.661,1244.434l-3.625-3.191c-6.653,6.745-13.313,17.606-3.171,32.097l5.087-2.52
					C1057.727,1263.344,1055.898,1252.284,1064.661,1244.434z"/>
			</g>
		</g>
		<g>
			<path fill="#00BDD0" d="M1133.247,1296.405c19.88-3.141,32.175-19.969,31.374-37.993c-0.864-19.42-14.265-37.805-38.664-37.145
				c-25.747,0.696-40.226,26.645-35.79,44.315C1095.512,1286.875,1112.424,1299.694,1133.247,1296.405z"/>
			<polygon fill="#005F8A" points="1152.196,1247.865 1132.325,1250.503 1127.49,1231.23 1118.129,1233.027 1119.12,1252.927 
				1100.091,1258.081 1102.091,1269.318 1121.543,1266.132 1126.323,1285.809 1137.396,1283.499 1134.749,1263.708 
				1155.124,1258.609 			"/>
		</g>
	</g>
	<g>
		<g>
			<path fill="#82D8E8" d="M934.697,1171.67l47.223,18.047c12.469,7.374,30.672,18.69,30.672,18.69s-26.27,3.538-35.089,5.139
				l-56.039-4.929L934.697,1171.67z"/>
			<g>
				<path fill="#00759C" d="M959.717,1181.232l6.051-1.614c6.017,9.421,7.65,25.913-4.358,35.419l-5.912-3.427
					C964.063,1205.417,970.262,1192.517,959.717,1181.232z"/>
				<path fill="#00759C" d="M944.656,1175.476l8.859-0.726c8.87,10.587,5.344,32.291-8.369,39.387l-4.816-3.861
					C950.918,1204.802,960.428,1188.531,944.656,1175.476z"/>
				<path fill="#00759C" d="M988.927,1193.906c1.277-0.346,2.738-0.167,4.22-0.461c4.821,5.901,1.211,16.97-1.965,21.179
					c-0.952-0.238-4.429-1.714-5.665-2.377C989.408,1207.201,991.444,1200.564,988.927,1193.906z"/>
				<path fill="#00759C" d="M974.31,1186.809l4.264-2.267c4.913,8.1,8.882,20.207-4.336,31.96l-4.366-3.628
					C976.685,1206.81,981.021,1196.472,974.31,1186.809z"/>
			</g>
		</g>
		<g>
			<path fill="#00BDD0" d="M895.567,1221.514c-18.615-7.652-26.687-26.867-21.74-44.217c5.33-18.694,22.619-33.482,46.204-27.199
				c24.889,6.63,32.975,35.223,24.574,51.389C934.482,1220.967,915.065,1229.529,895.567,1221.514z"/>
			<polygon fill="#005F8A" points="888.354,1169.909 907.077,1177.069 916.237,1159.436 924.929,1163.349 919.363,1182.48 
				936.685,1191.895 932.141,1202.365 913.953,1194.767 904.753,1212.806 894.514,1207.999 901.666,1189.356 883.021,1179.685 			
				"/>
		</g>
	</g>
	<g>
		<g>
			<path fill="#82D8E8" d="M921.59,1295.484l-50.116,6.64c-13.836,4.291-34.163,11.092-34.163,11.092s24.74,9.516,32.95,13.112
				l55.66,8.161L921.59,1295.484z"/>
			<g>
				<path fill="#00759C" d="M895.037,1299.002l-5.514-2.969c-8.032,7.774-13.434,23.443-3.949,35.467l6.544-1.967
					C885.217,1321.527,882.168,1307.543,895.037,1299.002z"/>
				<path fill="#00759C" d="M911.021,1296.884l-8.451-2.754c-11.078,8.249-12.665,30.18-0.964,40.255l5.578-2.643
					C898.148,1323.968,892.657,1305.939,911.021,1296.884z"/>
				<path fill="#00759C" d="M863.688,1304.579c-1.163-0.632-2.625-0.796-3.999-1.424c-6.055,4.626-5.102,16.23-2.985,21.06
					c0.982-0.011,4.705-0.643,6.061-1.003C860.146,1317.403,859.7,1310.474,863.688,1304.579z"/>
				<path fill="#00759C" d="M879.55,1301.054l-3.625-3.191c-6.653,6.745-13.313,17.606-3.171,32.097l5.087-2.52
					C872.615,1319.964,870.786,1308.904,879.55,1301.054z"/>
			</g>
		</g>
		<g>
			<path fill="#00BDD0" d="M948.135,1353.025c19.88-3.141,32.175-19.969,31.374-37.993c-0.864-19.42-14.265-37.805-38.664-37.145
				c-25.747,0.696-40.226,26.644-35.79,44.315C910.401,1343.494,927.313,1356.314,948.135,1353.025z"/>
			<polygon fill="#005F8A" points="967.084,1304.485 947.213,1307.123 942.378,1287.85 933.017,1289.647 934.008,1309.547 
				914.979,1314.701 916.98,1325.938 936.432,1322.752 941.211,1342.429 952.284,1340.119 949.637,1320.328 970.013,1315.229 			"/>
		</g>
	</g>
</g>
<g id="Layer_1">
</g>
</svg>
