<?xml version="1.0" encoding="utf-8"?>
<!-- Generator: Adobe Illustrator 27.2.0, SVG Export Plug-In . SVG Version: 6.00 Build 0)  -->
<svg version="1.1" xmlns="http://www.w3.org/2000/svg" xmlns:xlink="http://www.w3.org/1999/xlink" x="0px" y="0px"
	 viewBox="0 0 1510.646 1388.022" enable-background="new 0 0 1510.646 1388.022" xml:space="preserve">
<g id="drillingmachine_x5F_saw_x5F_bubble">
	<path fill="#D9FDFF" d="M1101.787,252.223c-90.317-370.636-636.961-294.281-695.41-19.272
		C60.62,168.635-163.708,658.279,149.306,866.962C-9.669,1280.514,447.02,1519.41,712.099,1286.471
		c153.767,224.513,762.234,66.692,625.042-374.044C1612.3,815.245,1578.831,188.722,1101.787,252.223z M759.763,733.515
		c0.246-0.006,0.492-0.008,0.738-0.015c0.129,0.404,0.266,0.802,0.397,1.205C760.519,734.309,760.143,733.91,759.763,733.515z"/>
	<path fill="#FFDEC3" d="M712.099,1286.471c146.497,213.898,705.709,80.76,639.625-313.437H120.923
		C70.12,1319.303,470.615,1498.675,712.099,1286.471z"/>
	<path fill="none" d="M1101.787,252.223c-90.317-370.636-636.961-294.281-695.41-19.272
		C60.62,168.635-163.708,658.279,149.306,866.962C-9.669,1280.514,447.02,1519.41,712.099,1286.471
		c153.767,224.513,762.234,66.692,625.042-374.044C1612.3,815.245,1578.831,188.722,1101.787,252.223z M759.763,733.515
		c0.246-0.006,0.492-0.008,0.738-0.015c0.129,0.404,0.266,0.802,0.397,1.205C760.519,734.309,760.143,733.91,759.763,733.515z"/>
	<polygon fill="#8E4700" points="1276.033,1059.501 1276.033,1059.501 1276.033,1059.501 1276.033,1059.501 1277.625,840.932 
		1277.625,840.932 896.274,796.599 874.318,985.475 897.285,1008.608 	"/>
	<polygon fill="#D47A00" points="1297.078,878.477 1276.033,1059.501 1255.667,1029.808 1277.625,840.932 	"/>
	<polygon opacity="0.3" fill="#4A4A49" enable-background="new    " points="897.285,1008.608 1276.033,1059.501 1255.667,1029.808 
		874.318,985.475 	"/>
	<polygon fill="#8E4700" points="535.863,1065.462 535.863,1065.462 535.863,1065.462 535.863,1065.462 635.993,1259.754 
		635.993,1259.754 994.289,1121.853 925.989,944.395 894.903,934.579 	"/>
	<polygon opacity="0.2" fill="#4A4A49" enable-background="new    " points="985.643,1099.387 976.844,1076.527 619.837,1217.777 
		625.89,1233.505 	"/>
	<polygon opacity="0.2" fill="#4A4A49" enable-background="new    " points="967.061,1051.107 956.173,1022.819 599.706,1165.473 
		611.652,1196.51 	"/>
	<polygon fill="#FDF1B8" points="601.323,1235.543 535.863,1065.462 567.693,1082.295 635.993,1259.754 	"/>
	<polygon fill="#A45700" points="894.903,934.579 535.863,1065.462 567.693,1082.295 925.989,944.395 	"/>
	<polygon fill="#A45700" points="1107.605,1359.128 1107.605,1359.127 1107.605,1359.127 1107.605,1359.127 1143.499,1143.52 
		1143.499,1143.52 773.842,1039.852 722.497,1222.937 741.548,1249.39 1107.605,1359.127 	"/>
	<polygon opacity="0.2" fill="#4A4A49" enable-background="new    " points="767.342,1063.03 760.728,1086.614 1131.353,1186.827 
		1135.904,1170.601 	"/>
	<polygon fill="#D47A00" points="1156.815,1183.654 1107.605,1359.127 1092.154,1326.604 1143.499,1143.52 	"/>
	<polygon opacity="0.3" fill="#4A4A49" enable-background="new    " points="741.548,1249.39 1107.605,1359.127 1092.154,1326.604 
		722.497,1222.937 	"/>
	<polygon fill="#8E4700" points="568.522,978.762 229.292,1135.071 218.82,1184.447 281.787,1323.858 622.176,1170.117 	"/>
	<polygon fill="#FFA600" points="229.292,1135.071 218.82,1184.447 559.209,1030.705 568.522,978.762 	"/>
	<polygon fill="#CCA172" points="229.292,1135.071 218.82,1184.447 559.209,1030.705 568.522,978.762 	"/>
	<polygon fill="#A45700" points="628.871,1112.378 568.522,978.762 559.209,1030.705 622.176,1170.117 	"/>
	<polygon opacity="0.2" fill="#4A4A49" enable-background="new    " points="276.526,1312.211 263.304,1282.937 607.282,1137.14 
		612.862,1149.496 	"/>
	<polygon fill="#FFA600" points="714.679,1142.492 761.255,1161.941 672.07,793.77 622.756,774.984 	"/>
	<polygon fill="#A45700" points="622.756,774.984 714.679,1142.491 761.255,1161.941 909.927,1125.927 820.742,757.756 	"/>
	<polygon fill="#8E4700" points="714.679,1142.492 761.255,1161.941 672.07,793.77 622.756,774.984 	"/>
	<polygon fill="#D47A00" points="765.247,740.467 622.756,774.984 672.07,793.77 820.742,757.756 	"/>
	<polygon fill="#FFA600" points="764.255,1254.959 784.628,1301.138 973.538,972.783 950.723,925.199 	"/>
	<polygon fill="#D47A00" points="950.723,925.199 764.255,1254.959 784.628,1301.138 917.222,1377.422 1106.132,1049.067 	"/>
	<polygon fill="#A45700" points="764.255,1254.959 784.628,1301.138 973.538,972.783 950.723,925.199 	"/>
	<polygon fill="#CCA172" points="1077.805,998.311 950.723,925.199 973.538,972.783 1106.132,1049.067 	"/>
	<path fill="none" d="M759.763,733.515c0.38,0.395,0.756,0.794,1.135,1.19c-0.131-0.403-0.268-0.801-0.397-1.205
		C760.255,733.507,760.009,733.509,759.763,733.515z"/>
	<path fill="#8E4700" d="M977.105,1145.85l227.012,164.959c59.88-39.997,108.53-95.107,133.899-164.333L1085.698,956.16
		L977.105,1145.85z"/>
	<path fill="#A45700" d="M390.751,979.2l-151.89,315.959c54.887,45.187,123.381,73.364,195.12,80.713l162.858-323.853L390.751,979.2
		z"/>
	<polygon fill="#A45700" points="978.568,1103.59 1085.698,956.16 1088.883,992.025 977.105,1145.85 	"/>
	<path fill="none" d="M759.763,733.515c0.38,0.395,0.756,0.794,1.135,1.19c-0.131-0.403-0.268-0.801-0.397-1.205
		C760.255,733.507,760.009,733.509,759.763,733.515z"/>
	<g>
		<path fill="none" d="M759.763,733.515c0.38,0.395,0.756,0.794,1.135,1.19c-0.131-0.403-0.268-0.801-0.397-1.205
			C760.255,733.507,760.009,733.509,759.763,733.515z"/>
		<path opacity="0.3" fill="#4A4A49" enable-background="new    " d="M562.125,1061.584l-149.716,311.438
			c7.151,1.159,14.345,2.11,21.572,2.851l162.858-323.853L562.125,1061.584z"/>
	</g>
	<path fill="#D47A00" d="M1088.883,992.025l240.768,174.955c3.018-6.69,5.808-13.526,8.365-20.504L1085.698,956.16L1088.883,992.025
		z"/>
	<polygon fill="#D47A00" points="432.589,973.061 596.839,1052.02 562.125,1061.584 390.751,979.2 	"/>
	<path fill="none" d="M759.763,733.515c0.38,0.395,0.756,0.794,1.135,1.19c-0.131-0.403-0.268-0.801-0.397-1.205
		C760.255,733.507,760.009,733.509,759.763,733.515z"/>
	<path fill="none" d="M759.763,733.515c0.38,0.395,0.756,0.794,1.135,1.19c-0.131-0.403-0.268-0.801-0.397-1.205
		C760.255,733.507,760.009,733.509,759.763,733.515z"/>
	<path fill="#D47A00" d="M814.358,986.608l-318.309,214.644l103.374,153.299c39.647-14.989,77.819-37.45,112.676-68.08
		c3.97,5.797,8.249,11.335,12.805,16.624l230.555-149.558L814.358,986.608z"/>
	<path opacity="0.3" fill="#4A4A49" enable-background="new    " d="M920.668,1144.261l-296.102,199.67
		c30.631-14.328,60.109-33.361,87.532-57.46c3.97,5.797,8.249,11.335,12.805,16.625l230.555-149.559L920.668,1144.261z"/>
	<polygon fill="#CCA172" points="853.569,1002.438 814.358,986.608 920.668,1144.261 955.459,1153.537 	"/>
</g>
<g id="Layer_1">
</g>
</svg>
