<?xml version="1.0" encoding="utf-8"?>
<!-- Generator: Adobe Illustrator 27.1.1, SVG Export Plug-In . SVG Version: 6.00 Build 0)  -->
<svg version="1.1" xmlns="http://www.w3.org/2000/svg" xmlns:xlink="http://www.w3.org/1999/xlink" x="0px" y="0px"
	 viewBox="0 0 1510.646 1388.022" enable-background="new 0 0 1510.646 1388.022" xml:space="preserve">
<g id="hammer_x5F_paint_x5F_bubble">
	<g>
		<path fill="#D9FDFF" d="M1101.787,252.223c-90.317-370.636-636.961-294.281-695.41-19.272
			C60.62,168.635-163.708,658.279,149.306,866.962C-9.669,1280.514,447.02,1519.41,712.099,1286.471
			c153.767,224.513,762.234,66.692,625.042-374.044C1612.3,815.245,1578.831,188.722,1101.787,252.223z M759.763,733.515
			c0.246-0.006,0.492-0.008,0.738-0.015c0.129,0.404,0.266,0.802,0.397,1.205C760.519,734.309,760.143,733.91,759.763,733.515z"/>
		<g id="Layer_1_00000086654944279917533640000006860681889439823266_">
		</g>
		<path fill="#FFDEC3" d="M712.099,1286.471c146.497,213.898,705.709,80.76,639.625-313.437H120.923
			C70.12,1319.303,470.615,1498.675,712.099,1286.471z"/>
		<path fill="#D47A00" d="M1047.635,254.611l2.079,1121.62c59.14-13.411,116.96-38.144,166.206-73.605V250.473L1047.635,254.611z"/>
		<path fill="#D47A00" d="M238.193,245.626l1.756,1050.443c47.569,38.839,105.245,64.964,166.34,75.918V232.935
			C345.795,221.698,289.022,227.421,238.193,245.626z"/>
		<path fill="#A45700" d="M239.949,1296.069c10.595,8.65,21.693,16.667,33.216,24.029V235.335
			c-11.938,2.773-23.604,6.219-34.972,10.291L239.949,1296.069z"/>
		<path fill="#A45700" d="M1047.746,229.631l1.968,1146.6c11.09-2.515,22.133-5.426,33.082-8.734V234.494L1047.746,229.631z"/>
		<path opacity="0.3" fill="#4A4A49" d="M1116.854,1355.804l2.381-1105.614c-4.631,0.463-9.308,0.997-14.026,1.595l-12.718,1112.672
			C1100.681,1361.795,1108.808,1358.909,1116.854,1355.804z"/>
		<path opacity="0.3" fill="#4A4A49" d="M1198.891,248.856c-4.475-0.33-9-0.591-13.577-0.778l-5.576,1077.842
			c8.646-4.965,17.107-10.221,25.354-15.764L1198.891,248.856z"/>
		<path opacity="0.3" fill="#4A4A49" d="M1168.932,247.723c-9.642-0.031-19.496,0.245-29.572,0.851l-8.086,1101.39
			c8.454-3.588,16.801-7.425,25.018-11.509L1168.932,247.723z"/>
		<path fill="#FF9EC5" d="M406.289,1371.987V647.453l-167.466-24.73l0.02,610.077c2.589,6.774,7.337,12.238,12.808,15.65
			c28.006,17.469,11.846-60.255,28.759-60.827c25.219-0.852,8.722,71.507,3.609,139.143
			C321.477,1348.866,363.026,1364.23,406.289,1371.987z"/>
		<path fill="#FF9EC5" d="M1215.92,312.595l-149.386,37.74c0,0-3.243,97.291,23.782,108.101
			c21.62,8.648,18.916-47.505,42.159-34.592c19.458,10.81,4.324,115.668,33.511,113.506c30.751-2.278,17.775-63.976,49.933-93.267
			L1215.92,312.595L1215.92,312.595z"/>
		<path fill="#FF9EC5" d="M1215.92,662.285l-150.467-1.7c0,0,30.164,87.903,32.43,115.668
			c8.648,105.939,2.162,264.847,18.377,271.333c30.526,12.21,5.053-90.268,37.835-74.59c24.863,11.891,6.486-59.456,28.106-56.212
			c18.583,2.787-5.102,176.816,33.718,202.669V662.285H1215.92z"/>
		<polygon fill="#FFA600" points="1222.453,563.553 288.902,424.128 268.209,671.472 1202.092,808.632 1235.511,581.093 		"/>
		<polygon opacity="0.3" fill="#4A4A49" enable-background="new    " points="1222.453,563.553 1235.511,581.093 301.627,443.933 
			288.902,424.128 		"/>
		<polygon fill="#FDF1B8" points="255.762,649.77 288.902,424.128 301.627,443.933 268.209,671.472 		"/>
		<polygon opacity="0.2" fill="#4A4A49" enable-background="new    " points="1203.839,797.687 1207.632,771.859 272.742,641.712 
			271.141,652.613 		"/>
		<polygon opacity="0.2" fill="#4A4A49" enable-background="new    " points="276.187,618.26 279.346,596.748 1214.668,723.956 
			1212.353,739.714 		"/>
		<polygon opacity="0.2" fill="#4A4A49" enable-background="new    " points="282.446,575.647 284.166,563.935 1220.301,685.604 
			1216.734,709.885 		"/>
		<path fill="#FF9EC5" d="M288.902,424.128l-11.307,76.987c4.053,4.131,9.286,8.005,16.018,11.371
			c34.592,17.296,1.18,118.55,41.078,129.721c27.025,7.567,23.432-54.949,48.645-48.645c30.268,7.567,4.737,73.542,42.159,79.995
			c31.349,5.405,28.106-38.916,50.807-31.349c16.568,5.523,9.518,36.881,32.43,37.835c25.944,1.081,18.371-75.588,45.402-73.509
			c28.106,2.162,18.377,86.481,49.726,87.562s46.483-116.749,78.914-97.291c32.43,19.458,20.539,103.777,61.617,113.506
			s64.601-49.373,92.967-48.645c42.159,1.081,39.988,71.383,68.104,78.914c60.536,16.215,116.749-99.453,171.88,3.243
			c20.459,38.109,41.987,44.918,73.509,19.458c23.739-19.174,25.116-63.024,68.612-72.931l16.047-109.256l-13.058-17.54
			L288.902,424.128z"/>
		<path fill="#FFA600" d="M1101.787,252.223c-11.121-45.637-29.172-84.483-52.366-117.029l-614.984,26.663
			c-13.037,21.864-22.647,45.624-28.06,71.093c-39.43-7.334-77.279-7.462-112.934-1.626l19.939,183.701l942.914-43.173
			l-5.292-115.581C1207.173,246.805,1157.506,244.806,1101.787,252.223z"/>
		<polygon opacity="0.2" fill="#4A4A49" enable-background="new    " points="1255.821,361.478 1254.627,335.4 312.037,385.65 
			312.541,396.657 		"/>
		<polygon opacity="0.2" fill="#4A4A49" enable-background="new    " points="311.356,370.767 310.361,349.047 1252.816,295.83 
			1253.544,311.741 		"/>
		<polygon opacity="0.3" fill="#4A4A49" enable-background="new    " points="1222.453,563.553 1235.511,581.093 301.627,443.933 
			288.902,424.128 		"/>
		<path opacity="0.14" fill="#4A4A49" enable-background="new    " d="M288.902,424.128l-11.307,76.987
			c3.661,3.732,8.285,7.255,14.11,10.382l9.923-67.564L288.902,424.128z"/>
		<path fill="#FDF1B8" d="M297.03,396.091l16.352,18.935l-8.487-185.361c-5.171,0.652-10.297,1.431-15.378,2.329L297.03,396.091z"/>
		<path fill="#FF9EC5" d="M1101.787,252.223c-11.121-45.637-29.172-84.483-52.366-117.029l-614.984,26.664
			c-13.037,21.864-22.647,45.624-28.06,71.093c-40.881-7.604-80.062-7.46-116.86-0.957l2.372,51.8
			c21.591,7.554,45.23-2.656,53.612-1.563c24.863,3.243,12.972,48.645,56.212,66.482c39.089,16.124,45.742-74.103,70.266-67.563
			c32.43,8.648,27.566,101.074,61.617,92.967c34.052-8.107,17.296-45.402,47.564-36.754c82.298,23.514,51.045-59.031,82.157-60.536
			c33.511-1.622,17.299,86.333,71.347,87.562c47.564,1.081,45.402-91.345,87.021-90.264c25.63,0.666,48.624,94.048,110.263,94.048
			c53.51,0,61.617-50.807,100.534-48.645c33.219,1.846,48.523,63.617,85.94,27.566c58.015-55.898,71.575,1.669,119.955,25.582
			l17.92-0.82l-5.292-115.581C1207.173,246.805,1157.506,244.806,1101.787,252.223z"/>
		<path opacity="0.3" fill="#4A4A49" enable-background="new    " d="M1049.421,135.194l-614.984,26.663
			c-3.467,5.815-6.684,11.767-9.651,17.847l634.942-29.072C1056.416,145.338,1052.981,140.19,1049.421,135.194z"/>
		<path opacity="0.14" fill="#4A4A49" enable-background="new    " d="M291.889,283.795c5.166,1.807,10.448,2.6,15.612,2.771
			l-2.605-56.901c-5.171,0.652-10.297,1.431-15.378,2.329L291.889,283.795z"/>
		<g>
			<path fill="#821F1B" d="M399.506,294.543l-21.603-32.664l0.938-4.992c21.892,25.439,5.961,6.213,27.853,31.653L399.506,294.543z"
				/>
			<polygon fill="#C30D26" points="412.13,284.092 384.982,255.967 378.841,256.887 405.215,289.867 			"/>
			<path fill="#C30D26" d="M428.313,286.424c6.455,7.744,4.801,19.701-3.693,26.707s-20.613,6.408-27.067-1.336
				c-0.89-1.068-3.361-4.022-4.258-5.098c-6.455-7.744-4.801-19.701,3.693-26.707s20.613-6.408,27.067,1.336
				C424.946,282.394,427.416,285.348,428.313,286.424z"/>
			
				<ellipse transform="matrix(0.7882 -0.6154 0.6154 0.7882 -96.6238 317.4685)" fill="#821F1B" cx="412.927" cy="299.116" rx="19.938" ry="18.252"/>
		</g>
		<ellipse fill="#F490BD" cx="989" cy="1278.055" rx="26.86" ry="9.48"/>
		<path fill="#F490BD" d="M959.702,1219.453c-31.017,0-56.161,8.746-56.161,19.534c0,3.211,2.242,6.239,6.19,8.912
			c-1.223-0.08-2.474-0.121-3.748-0.121c-13.755,0-24.906,4.81-24.906,10.744s11.151,10.744,24.906,10.744
			s24.906-4.81,24.906-10.744c0-1.033-0.345-2.031-0.976-2.977c8.636,1.884,18.843,2.977,29.789,2.977
			c31.017,0,56.161-8.746,56.161-19.534C1015.863,1228.198,990.719,1219.453,959.702,1219.453z"/>
		<path fill="#F490BD" d="M785.359,1238.987c-18.808,0-35.777,2.764-47.861,7.198c-3.069-4.717-13.053-8.175-24.904-8.175
			c-14.295,0-25.883,5.029-25.883,11.232s11.588,11.232,25.883,11.232c2.31,0,4.547-0.133,6.678-0.379
			c-0.215,0.767-0.329,1.545-0.329,2.333c0,12.946,29.736,23.441,66.417,23.441c36.681,0,66.416-10.495,66.416-23.441
			C851.775,1249.482,822.04,1238.987,785.359,1238.987z"/>
		<g>
			<path fill="#821F1B" d="M1199.521,340.029l-21.603-32.664l0.938-4.992c21.892,25.439,5.961,6.213,27.853,31.653L1199.521,340.029
				z"/>
			<polygon fill="#C30D26" points="1212.145,329.578 1184.997,301.453 1178.856,302.373 1205.23,335.353 			"/>
			<path fill="#C30D26" d="M1228.328,331.91c6.455,7.744,4.801,19.701-3.693,26.707c-8.494,7.006-20.613,6.408-27.067-1.336
				c-0.89-1.068-3.361-4.022-4.258-5.098c-6.455-7.744-4.801-19.701,3.693-26.707c8.494-7.006,20.613-6.408,27.067,1.336
				C1224.961,327.88,1227.431,330.834,1228.328,331.91z"/>
			
				<ellipse transform="matrix(0.7882 -0.6154 0.6154 0.7882 44.82 819.4369)" fill="#821F1B" cx="1212.943" cy="344.601" rx="19.938" ry="18.252"/>
		</g>
		<g>
			<path fill="#821F1B" d="M1163.361,637.239l-21.603-32.664l0.938-4.992c21.892,25.439,5.961,6.213,27.853,31.653L1163.361,637.239
				z"/>
			<polygon fill="#C30D26" points="1175.985,626.788 1148.837,598.663 1142.696,599.583 1169.07,632.563 			"/>
			<path fill="#C30D26" d="M1192.168,629.12c6.455,7.744,4.801,19.701-3.693,26.707c-8.494,7.006-20.613,6.408-27.067-1.336
				c-0.89-1.068-3.361-4.022-4.258-5.098c-6.455-7.744-4.801-19.701,3.693-26.707c8.494-7.006,20.613-6.408,27.067,1.336
				C1188.801,625.09,1191.271,628.044,1192.168,629.12z"/>
			
				<ellipse transform="matrix(0.7882 -0.6154 0.6154 0.7882 -145.7436 860.1302)" fill="#821F1B" cx="1176.783" cy="641.811" rx="19.938" ry="18.252"/>
		</g>
		<g>
			<path fill="#821F1B" d="M1151.894,794.547l-21.603-32.664l0.938-4.992c21.892,25.439,5.961,6.213,27.853,31.653L1151.894,794.547
				z"/>
			<polygon fill="#C30D26" points="1164.518,784.096 1137.37,755.971 1131.229,756.891 1157.603,789.871 			"/>
			<path fill="#C30D26" d="M1180.701,786.428c6.455,7.744,4.801,19.701-3.693,26.707c-8.494,7.006-20.613,6.408-27.067-1.336
				c-0.89-1.068-3.361-4.022-4.258-5.098c-6.455-7.744-4.801-19.701,3.693-26.707c8.494-7.006,20.613-6.408,27.067,1.336
				C1177.334,782.398,1179.804,785.352,1180.701,786.428z"/>
			
				<ellipse transform="matrix(0.7882 -0.6154 0.6154 0.7882 -244.981 886.3894)" fill="#821F1B" cx="1165.315" cy="799.119" rx="19.938" ry="18.252"/>
		</g>
	</g>
</g>
<g id="Layer_1">
</g>
</svg>
