<?xml version="1.0" encoding="utf-8"?>
<!-- Generator: Adobe Illustrator 27.1.1, SVG Export Plug-In . SVG Version: 6.00 Build 0)  -->
<svg version="1.1" xmlns="http://www.w3.org/2000/svg" xmlns:xlink="http://www.w3.org/1999/xlink" x="0px" y="0px"
	 viewBox="0 0 1510.646 1388.022" enable-background="new 0 0 1510.646 1388.022" xml:space="preserve">
<g id="measure_x5F_hammer_x5F_bubble">
	<g>
		<path fill="#D9FDFF" d="M1101.787,252.223c-90.317-370.636-636.961-294.281-695.41-19.272
			C60.62,168.635-163.708,658.279,149.306,866.962C-9.669,1280.514,447.02,1519.41,712.099,1286.471
			c153.767,224.513,762.234,66.692,625.042-374.044C1612.301,815.245,1578.831,188.722,1101.787,252.223z"/>
		<path fill="#FFDEC3" d="M712.099,1286.471c146.497,213.898,705.709,80.76,639.625-313.437H120.923
			C70.12,1319.303,470.615,1498.676,712.099,1286.471z"/>
		<path fill="#00769F" d="M1171.199,1069.023c0.493,0,93.029,0,184.348,0c1.095-11.254,1.63-22.79,1.573-34.601
			c-92.56,0-185.425,0-185.921,0V1069.023z"/>
		<path fill="#00BED2" d="M1157.364,1017.948l-48.252-341.603h-23.121l76.204,659.126c14.107-7.272,27.803-15.284,40.963-24.021
			l-36.966-231.003c4.906-5.959,8.175-16.592,8.175-28.725C1174.367,1033.233,1166.778,1018.221,1157.364,1017.948z"/>
		<path fill="#00769F" d="M1085.991,676.346l-20.934,32.508l92.676,628.883c8.275-4.15,16.416-8.55,24.396-13.201L1085.991,676.346z
			"/>
		<path fill="#BA5600" d="M1510.567,618.901L693.345,551.83l15.849,137.362l-5.717,76.018h114.161l36.704-11.786l37.538,0.834
			l17.518,10.952h66.735l25.86-10.952l38.372,10.952h272.778l28.362-10.118l44.212,10.118h95.441
			C1499.638,720.642,1509.616,670.277,1510.567,618.901z"/>
		<path fill="#FF8100" d="M721.101,729.986h772.549c19.214-64.344,22.394-137.177,8.202-206.389H1374.04l-57.559,10.438
			l-25.026-4.171l-44.212,4.171l-25.026-10.438h-150.153l-28.362,13.774l-50.885-1.668l-16.684-12.106h-82.584l-53.388,9.603
			l-29.196-9.603H691.982L721.101,729.986z"/>
		<polygon id="jiiri_1_" fill="#FFD300" points="703.477,765.211 696.269,713.642 707.248,695.032 702.243,670.284 688.228,656.119 
			685.837,607.442 690.008,592.149 678.081,583.525 674.179,555.609 691.982,523.597 700.019,578.246 780.378,592.427 
			703.077,596.876 709.977,651.185 725.693,670.47 726.064,694.383 771.758,703.374 717.815,703.096 721.29,729.986 		"/>
		<path fill="#005F8D" d="M1035.244,1379.282c18.629-3.632,37.184-8.385,55.444-14.243l141.556-653.389l-44.055-32.73
			L1035.244,1379.282z"/>
		<polygon fill="#00BED2" points="1203.91,711.65 1232.244,711.65 1213.88,678.92 1188.189,678.92 		"/>
		<path fill="#008394" d="M1035.244,1379.282c7.628-1.487,15.244-3.163,22.833-5.025L1203.91,711.65l-15.721-32.73
			L1035.244,1379.282z"/>
		<ellipse fill="#39D9E9" cx="1112.343" cy="1051.723" rx="22.708" ry="44.447"/>
		<ellipse fill="#005F8D" cx="1098.978" cy="1051.723" rx="15.112" ry="29.578"/>
		<path opacity="0.2" fill="#4A4A49" d="M1506.299,672.089l-780.606-1.619l0.371,23.913l774.549,8.855
			C1502.896,693.003,1504.791,682.604,1506.299,672.089z"/>
		<path opacity="0.2" fill="#4A4A49" d="M1510.637,613.29l-805.613-2.928l4.171,33.228l800.541-4.659
			C1510.286,630.422,1510.588,621.868,1510.637,613.29z"/>
		<path opacity="0.2" fill="#4A4A49" d="M1507.055,554.823l-810.651-2.993l2.503,19.464l810.777,10.497
			C1509.087,572.789,1508.212,563.791,1507.055,554.823z"/>
		<path fill-rule="evenodd" clip-rule="evenodd" fill="#FFD300" d="M875.568,594.188c3.244,26.23,57.466,28.826,54.5-12.049
			C927.994,553.552,870.106,550.02,875.568,594.188z"/>
		<path fill-rule="evenodd" clip-rule="evenodd" fill="#BA5600" d="M929.975,590.203c4.078-24.747-16.965-36.141-36.982-30.865
			c-16.896,4.453-30.587,25.025-11.401,46.714C857.21,566.033,923.714,542.795,929.975,590.203z"/>
		<path fill-rule="evenodd" clip-rule="evenodd" fill="#FFD300" d="M962.459,662.159c9.802,22.351,64.868,12.78,51.69-22.507
			C1004.933,614.974,945.954,624.523,962.459,662.159z"/>
		<path fill-rule="evenodd" clip-rule="evenodd" fill="#BA5600" d="M1016.069,646.762c-2.083-22.648-26.046-28.064-44.819-19.05
			c-15.845,7.608-24.452,28.687,0.216,43.561C937.008,641.42,997.954,606.453,1016.069,646.762z"/>
		<path fill-rule="evenodd" clip-rule="evenodd" fill="#FFD300" d="M1008.402,611.466c9.334,24.342,61.77,13.918,49.222-24.511
			C1048.848,560.079,992.685,570.478,1008.402,611.466z"/>
		<path fill-rule="evenodd" clip-rule="evenodd" fill="#BA5600" d="M1059.451,594.698c-1.983-24.665-24.802-30.563-42.678-20.747
			c-15.089,8.286-23.285,31.242,0.206,47.44C984.166,588.88,1042.202,550.799,1059.451,594.698z"/>
		<path fill-rule="evenodd" clip-rule="evenodd" fill="#FFD300" d="M1107.861,625.524c0.692,26.487,56.181,34.318,57.251-6.755
			C1165.862,590.045,1106.697,580.925,1107.861,625.524z"/>
		<path fill-rule="evenodd" clip-rule="evenodd" fill="#BA5600" d="M1164.205,626.807c6.688-24.299-13.801-37.701-34.914-34.372
			c-17.821,2.81-33.972,22.014-16.431,45.51C1091.824,595.656,1162.545,578.899,1164.205,626.807z"/>
		<path fill-rule="evenodd" clip-rule="evenodd" fill="#FFD300" d="M780.298,687.284c9.334,24.342,61.77,13.918,49.222-24.511
			C820.745,635.897,764.582,646.297,780.298,687.284z"/>
		<path fill-rule="evenodd" clip-rule="evenodd" fill="#BA5600" d="M831.348,670.516c-1.983-24.665-24.802-30.563-42.678-20.747
			c-15.089,8.286-23.285,31.242,0.206,47.44C756.063,664.698,814.098,626.617,831.348,670.516z"/>
		<path fill-rule="evenodd" clip-rule="evenodd" fill="#FFD300" d="M1254.715,636.514c9.282,24.206,61.702,13.736,49.233-24.482
			C1295.228,585.303,1239.085,595.756,1254.715,636.514z"/>
		<path fill-rule="evenodd" clip-rule="evenodd" fill="#BA5600" d="M1305.721,619.63c-1.983-24.665-24.802-30.563-42.678-20.747
			c-15.089,8.286-23.285,31.242,0.206,47.44C1230.436,613.813,1288.471,575.732,1305.721,619.63z"/>
		<path fill-rule="evenodd" clip-rule="evenodd" fill="#FFD300" d="M1309.717,681.782c13.987,21.218,63.304,1.31,43.365-32.608
			C1339.138,625.453,1286.164,646.053,1309.717,681.782z"/>
		<path fill-rule="evenodd" clip-rule="evenodd" fill="#BA5600" d="M1356.413,656.142c-6.848-22.933-30.384-24.133-45.951-11.426
			c-13.14,10.726-16.608,33.996,9.634,44.802C1281.475,665.08,1330.779,617.956,1356.413,656.142z"/>
	</g>
</g>
<g id="Layer_1">
</g>
</svg>
