<?xml version="1.0" encoding="utf-8"?>
<!-- Generator: Adobe Illustrator 27.1.1, SVG Export Plug-In . SVG Version: 6.00 Build 0)  -->
<svg version="1.1" xmlns="http://www.w3.org/2000/svg" xmlns:xlink="http://www.w3.org/1999/xlink" x="0px" y="0px"
	 viewBox="0 0 1510.646 1388.022" enable-background="new 0 0 1510.646 1388.022" xml:space="preserve">
<g id="measure_x5F_pencil_x5F_bubble">
	<g>
		<g>
			<path fill="#FFFFFF" d="M760.47,736.392c0.14,0.437,0.289,0.87,0.43,1.306c-0.41-0.43-0.818-0.862-1.23-1.29
				C759.937,736.401,760.203,736.399,760.47,736.392z"/>
		</g>
		<path fill="#D9FDFF" d="M1101.787,252.223c-90.317-370.636-636.961-294.281-695.41-19.272
			C60.62,168.635-163.708,658.279,149.306,866.962C-9.669,1280.514,447.02,1519.41,712.099,1286.471
			c153.767,224.513,762.234,66.692,625.042-374.044C1612.301,815.245,1578.831,188.722,1101.787,252.223z"/>
		<path fill="#FFDEC3" d="M712.099,1286.471c146.497,213.898,705.709,80.76,639.625-313.437H120.923
			C70.12,1319.303,470.615,1498.676,712.099,1286.471z"/>
		<path fill="#00769F" d="M1171.199,1069.023c0.493,0,93.029,0,184.348,0c1.095-11.254,1.63-22.79,1.573-34.601
			c-92.56,0-185.425,0-185.921,0V1069.023z"/>
		<path fill="#00BED2" d="M1157.364,1017.948l-48.252-341.603h-23.121l76.204,659.126c14.107-7.272,27.803-15.284,40.963-24.021
			l-36.966-231.003c4.906-5.959,8.175-16.592,8.175-28.725C1174.367,1033.233,1166.778,1018.221,1157.364,1017.948z"/>
		<path fill="#00769F" d="M1085.991,676.346l-20.934,32.508l92.676,628.883c8.275-4.15,16.416-8.55,24.396-13.201L1085.991,676.346z
			"/>
		<path fill="#BA5600" d="M1510.567,618.901l-818.584-95.305l-17.804,32.013l29.298,209.602h777.682
			C1499.638,720.642,1509.616,670.277,1510.567,618.901z"/>
		<polygon id="jiiri_00000016755921522813032990000006483458383571323324_" fill="#FFD300" points="703.477,765.211 
			674.179,555.609 691.983,523.597 720.953,729.986 		"/>
		<path fill="#FF8100" d="M720.953,729.986h772.698c19.214-64.344,22.394-137.177,8.201-206.389h-809.87L720.953,729.986z"/>
		<path fill="#005F8D" d="M1035.244,1379.282c18.629-3.632,37.184-8.385,55.444-14.243l141.556-653.389l-44.055-32.73
			L1035.244,1379.282z"/>
		<polygon fill="#00BED2" points="1203.91,711.65 1232.244,711.65 1213.88,678.92 1188.189,678.92 		"/>
		<path fill="#008394" d="M1035.244,1379.282c7.628-1.487,15.244-3.163,22.833-5.025L1203.91,711.65l-15.722-32.73
			L1035.244,1379.282z"/>
		<ellipse fill="#39D9E9" cx="1112.343" cy="1051.723" rx="22.708" ry="44.447"/>
		<ellipse fill="#005F8D" cx="1098.978" cy="1051.723" rx="15.112" ry="29.578"/>
		<path opacity="0.2" fill="#4A4A49" d="M1506.299,672.089l-792.916,0.931l3.102,22.899l784.127,7.319
			C1502.896,693.003,1504.791,682.604,1506.299,672.089z"/>
		<path opacity="0.2" fill="#4A4A49" d="M1510.637,613.29l-806.262-2.14l4.549,33.574l800.812-5.792
			C1510.286,630.422,1510.588,621.868,1510.637,613.29z"/>
		<path opacity="0.2" fill="#4A4A49" d="M1507.055,554.823l-810.837-2.252l2.676,19.752l810.788,9.467
			C1509.087,572.789,1508.212,563.791,1507.055,554.823z"/>
		<g>
			<g>
				<path fill="#4A4A49" d="M1072.668,713.317c-10.861-22.173-15.014-72.451-6.267-100.932c-20.04-1.262-36.303,1.221-58.076,7.516
					c-0.766,0.222-7.687,10.964-16.136,14.56c-19.224,8.181-24.191-19.557,5.344-24.099c9.764-40.69-21.564-49.958-47.319-43.168
					c-48.879,12.888-61.605,58.705-69.527,76.999l-9.011,2.134l-19.443-18.662l6.75,38.568l-9.341,5.643
					c-23.636-18.238-53.409-53.867-73.017-86.26c0.422,13.864,6.541,91.378,5.396,111.053l-11.687-0.68
					c3.022-21.209-6.376-113.562-5.231-133.237l11.112-2.21c14.574,30.114,43.244,68.087,68.426,91.643l-7.021-40.117l9.818-5.232
					l26.293,25.237c7.083-15.957,25.247-65.488,76.287-75.561c28.177-5.561,65.622,4.634,60.202,50.941
					c21.293-4.877,41.743-9.038,65.134-5.952l4.523,8.312c-8.441,17.794-8.016,55.663-2.266,81.283
					c4.559-15.927,27.477-100.614,33.536-120.472l11.39,0.857l7.611,51.801l16.272-52.106l11.272,0.349l14.924,60.798l-11.369,2.791
					l-9.915-40.394l-17.658,56.542l-11.378-0.894l-7.438-50.624c-3.892,13.836-25.275,92.849-31.333,112.706L1072.668,713.317z"/>
			</g>
			<g>
				<path fill="#4A4A49" d="M1267.876,695.753c-70.015-40.253-38.13-114.402-63.112-152.914l9.923-6.21
					c25.44,46.76-3.293,116.09,58.449,148.666L1267.876,695.753z"/>
			</g>
			<g>
				
					<rect x="1270.03" y="584.097" transform="matrix(0.296 -0.9552 0.9552 0.296 356.6854 1663.8754)" fill="#4A4A49" width="74.286" height="11.706"/>
			</g>
			<g>
				<polygon fill="#494947" points="1360.62,675.614 1350.092,673.19 1372.084,602.234 1382.772,605.172 				"/>
			</g>
			<g>
				<path fill="#4A4A49" d="M1452.18,579.235l5.746,10.199c0,0-149.397,80.32-155.476,86.906l-9.147-7.253
					c5.328-7.866,46.555-45.1,50.948-78.242c3.69-27.835,15.825-32.898,25.431-32.602c24.056,0.741,18.373,32.052,12.765,47.948
					l-10.891-2.224c5.654-18.537,8.74-33.662-2.478-34.033c-0.136-0.005-0.274-0.011-0.413-0.011
					c-4.603,0-11.29,3.078-13.422,22.179c-2.317,20.762-18.678,42.592-33.599,60.386
					C1324.25,651.245,1452.18,579.235,1452.18,579.235z"/>
			</g>
		</g>
	</g>
</g>
<g id="Layer_1">
</g>
</svg>
