<?xml version="1.0" encoding="utf-8"?>
<!-- Generator: Adobe Illustrator 27.2.0, SVG Export Plug-In . SVG Version: 6.00 Build 0)  -->
<svg version="1.1" xmlns="http://www.w3.org/2000/svg" xmlns:xlink="http://www.w3.org/1999/xlink" x="0px" y="0px"
	 viewBox="0 0 1510.646 1388.022" enable-background="new 0 0 1510.646 1388.022" xml:space="preserve">
<g id="painting_x5F_sanderholder_x5F_bubble">
	<g>
		<path fill="#FFFFFF" d="M760.47,736.392c0.14,0.437,0.289,0.87,0.43,1.306c-0.41-0.43-0.818-0.862-1.23-1.29
			C759.937,736.401,760.203,736.399,760.47,736.392z"/>
	</g>
	<path fill="#D9FDFF" d="M1101.787,252.223c-90.317-370.636-636.961-294.281-695.41-19.272
		C60.62,168.635-163.708,658.279,149.306,866.962C-9.669,1280.514,447.02,1519.41,712.099,1286.471
		c153.767,224.513,762.234,66.692,625.042-374.044C1612.301,815.245,1578.831,188.722,1101.787,252.223z M759.763,733.515
		c0.246-0.006,0.492-0.008,0.739-0.015c0.129,0.404,0.266,0.802,0.397,1.205C760.519,734.309,760.143,733.91,759.763,733.515z"/>
	<path fill="#FFDEC3" d="M712.099,1286.471c146.497,213.898,705.709,80.76,639.625-313.437H120.923
		C70.12,1319.303,470.615,1498.676,712.099,1286.471z"/>
	<g>
		<path fill="#A45700" d="M1101.787,252.224C1042.814,10.215,789.294-41.206,604.154,28.8l0.773,1099.551l48.312,52.721h669.616
			c37.036-72.076,47.453-162.092,14.285-268.646C1612.301,815.245,1578.831,188.722,1101.787,252.224z M759.763,733.515
			c0.246-0.006,0.492-0.008,0.739-0.015c0.129,0.404,0.266,0.802,0.397,1.205C760.519,734.309,760.143,733.91,759.763,733.515z"/>
		<path fill="#D47A00" d="M604.154,28.8l0.773,1099.551l48.312,52.721V13.484C636.483,17.663,620.067,22.783,604.154,28.8z"/>
	</g>
	<g>
		<polygon fill="#FFBBDA" points="604.091,1129.188 653.239,1181.073 653.239,265.319 603.624,275.427 		"/>
	</g>
	<g>
		<path opacity="0.6" fill="#FF9EC5" d="M1190.752,614.402c-3.73,30.939-17.041,127.891-85.536,172.333l10.647,18.963
			c87.539-58.46,88.753-190.944,88.753-190.944L1190.752,614.402z"/>
		<path opacity="0.6" fill="#FF9EC5" d="M1174.662,688.722c-12.051,35.616-32.889,74.294-69.446,98.014l10.647,18.963
			c41.969-28.028,64.096-73.07,75.76-112.37L1174.662,688.722z"/>
	</g>
	<g>
		<g>
			<path opacity="0.6" fill="#FF9EC5" d="M1145.588,562.426c-3.73,30.939-17.872,133.575-86.367,178.017l27.309,37.797
				c87.539-58.46,91.26-213.314,91.26-213.314L1145.588,562.426z"/>
		</g>
		<g>
			<path opacity="0.6" fill="#FF9EC5" d="M1104.959,692.24c-11.624,18.731-26.548,35.75-45.738,48.202l27.309,37.797
				c24.25-16.194,42.067-39.786,55.156-65.433L1104.959,692.24z"/>
		</g>
	</g>
	<g>
		<g>
			<path opacity="0.6" fill="#FF9EC5" d="M1129.472,518.618c-3.127,34.967-19.701,161.343-88.196,205.785l4.135,8.828
				c87.539-58.46,91.26-213.314,91.26-213.314L1129.472,518.618z"/>
		</g>
		<g>
			<path opacity="0.6" fill="#FF9EC5" d="M1078.847,685.785c-10.351,15.54-22.745,28.998-37.571,38.618l4.135,8.828
				c16.329-10.905,29.741-25.164,40.757-41.146L1078.847,685.785z"/>
		</g>
	</g>
	<path fill="#FF9EC5" d="M1499.062,510.963l-142.54,14.73l-5.005,71.74l-115.117,18.352l-5.005,118.454l-146.816,15.015
		l-30.462-183.767c-3.78,46.296-16.299,109.682-53.513,160.41l-7.375-6.331c41.684-57.55,53.14-145.198,54.382-193.322
		l-14.414-86.952c-0.747,73.468-9.239,202.553-56.212,271.6l-34.775-25.036c42.453-69.811,50.727-224.883,50.721-291.727
		l-11.414-0.982c0.396,68.411-5.206,214.349-56.252,289.382l-14.775-12.754c43.38-65.527,51.025-206.026,51.066-278.346
		l-90.531-7.788L825.98,510.439l-35.036-255.26l-137.705,10.709v916.022h669.184c37.386-72.216,48.013-162.516,14.717-269.482
		C1477.897,862.714,1537.891,674.485,1499.062,510.963z M760.33,734.11c-0.189-0.199-0.377-0.397-0.568-0.595
		c0.246-0.006,0.492-0.008,0.739-0.015c0.065,0.202,0.132,0.402,0.198,0.603c0.067,0.201,0.133,0.401,0.198,0.603
		C760.709,734.507,760.519,734.309,760.33,734.11z"/>
	<g>
		<path opacity="0.6" fill="#FF9EC5" d="M1441.191,595.347l38.372-35.87c-68.403-103.439-222.727-155.992-222.727-155.992
			l-5.005,11.679C1278.182,429.022,1397.627,485.944,1441.191,595.347z"/>
		<path opacity="0.6" fill="#FF9EC5" d="M1383.408,508.007c23.225,24.198,44.195,53.216,57.783,87.34l38.372-35.87
			c-19.324-29.222-45.505-54.383-73.127-75.445L1383.408,508.007z"/>
	</g>
	<g>
		<path opacity="0.6" fill="#FF9EC5" d="M1198.444,499.416c27.581,14.506,97.6,73.408,123.459,155.158l29.196-5.839
			c-31.699-105.941-148.222-158.811-148.222-158.811L1198.444,499.416z"/>
		<path opacity="0.6" fill="#FF9EC5" d="M1260.819,551.778c24.185,26.758,48.154,61.921,61.084,102.796l29.196-5.839
			c-14.291-47.76-45.82-84.735-76.142-110.941L1260.819,551.778z"/>
	</g>
	<g>
		<path opacity="0.6" fill="#FF9EC5" d="M1361.11,619.538l64.232-24.191c-52.554-111.781-189.36-166.003-189.36-166.003
			l-27.528,47.548C1235.188,486.763,1326.908,545.296,1361.11,619.538z"/>
		<path opacity="0.6" fill="#FF9EC5" d="M1308.86,548.32c20.987,20.824,40.193,45.045,52.25,71.218l64.232-24.191
			c-16.978-36.112-42.75-66.217-69.861-90.427L1308.86,548.32z"/>
	</g>
	<path opacity="0.6" fill="#FF9EC5" d="M978.358,529.029c-7.23,88.424-47.827,162.388-47.827,162.388l-26.138-18.908
		c0,0,33.367-51.163,45.046-149.597L978.358,529.029z"/>
	<path opacity="0.6" fill="#FF9EC5" d="M964.455,592.427c-14.459,66.735-39.485,95.097-39.485,95.097l-20.577-15.015
		c0,0,23.913-58.949,31.699-91.76L964.455,592.427z"/>
	<path opacity="0.6" fill="#FF9EC5" d="M1055.177,609.298c-10.592,74.444-48.683,134.966-48.683,134.966l-21.157-17.32
		c0,0,30.82-41.597,45.683-124.285L1055.177,609.298z"/>
	<path opacity="0.6" fill="#FF9EC5" d="M1040.205,662.232c-15.611,55.729-38.219,78.457-38.219,78.457l-16.649-13.745
		c0,0,23.215-48.663,31.463-76.029L1040.205,662.232z"/>
	<path opacity="0.6" fill="#FF9EC5" d="M1030.37,545.508c-7.61,93.077-50.344,170.935-50.344,170.935l-45.046-27.162
		c0,0,35.124-53.856,47.417-157.471L1030.37,545.508z"/>
	<path opacity="0.6" fill="#FF9EC5" d="M1016.731,630.243c-15.22,70.247-36.148,86.199-36.148,86.199l-45.602-27.162
		c0,0,19.757-48.149,27.953-82.687L1016.731,630.243z"/>
	<g>
		<path opacity="0.6" fill="#FF9EC5" d="M984.665,327.467c-24.659-17.186-101.199-72.422-108.032-150.877l-20.97,0.481
			c10.148,101.021,122.424,162.044,122.424,162.044L984.665,327.467z"/>
		<path opacity="0.6" fill="#FF9EC5" d="M928.658,280.113c-24.875-26.39-48.378-61.649-52.025-103.523l-20.97,0.481
			c4.865,48.432,33.205,87.671,61.393,115.4L928.658,280.113z"/>
	</g>
	<g>
		<g>
			<path opacity="0.6" fill="#FF9EC5" d="M1049.379,312.54c-24.659-17.186-105.662-75.703-112.496-154.158l-44.554,6.143
				c10.148,101.021,140.34,174.307,140.34,174.307L1049.379,312.54z"/>
		</g>
		<g>
			<path opacity="0.6" fill="#FF9EC5" d="M957.223,219.159c-10.688-18.38-18.425-38.796-20.339-60.777l-44.554,6.143
				c2.811,27.984,14.834,53.84,30.75,76.6L957.223,219.159z"/>
		</g>
	</g>
	<g>
		<g>
			<path opacity="0.6" fill="#FF9EC5" d="M1093.984,318.651c-28.363-18.496-128.482-89.834-135.316-168.289l-9.39-0.476
				c10.148,101.021,140.34,174.307,140.34,174.307L1093.984,318.651z"/>
		</g>
		<g>
			<path opacity="0.6" fill="#FF9EC5" d="M974.544,199.845c-8.547-15.851-14.397-32.5-15.876-49.482l-9.39-0.476
				c1.893,18.844,7.963,36.722,16.585,53.34L974.544,199.845z"/>
		</g>
	</g>
</g>
<g id="Layer_1">
</g>
</svg>
