<?xml version="1.0" encoding="utf-8"?>
<!-- Generator: Adobe Illustrator 27.2.0, SVG Export Plug-In . SVG Version: 6.00 Build 0)  -->
<svg version="1.1" xmlns="http://www.w3.org/2000/svg" xmlns:xlink="http://www.w3.org/1999/xlink" x="0px" y="0px"
	 viewBox="0 0 1510.646 1388.022" enable-background="new 0 0 1510.646 1388.022" xml:space="preserve">
<g id="painting_x5F_trowel_x5F_bubble">
	<g>
		<g>
			<path fill="#FFFFFF" d="M760.47,736.392c0.14,0.437,0.289,0.87,0.43,1.306c-0.41-0.43-0.818-0.862-1.23-1.29
				C759.937,736.401,760.203,736.399,760.47,736.392z"/>
		</g>
		<path fill="#D9FDFF" d="M1101.787,252.223c-90.317-370.636-636.961-294.281-695.41-19.272
			C60.62,168.635-163.708,658.279,149.306,866.962C-9.669,1280.514,447.02,1519.41,712.099,1286.471
			c153.767,224.513,762.234,66.692,625.042-374.044C1612.301,815.245,1578.831,188.722,1101.787,252.223z M759.763,733.515
			c0.246-0.006,0.492-0.008,0.739-0.015c0.129,0.404,0.266,0.802,0.397,1.205C760.519,734.309,760.143,733.91,759.763,733.515z"/>
		<path fill="#FFDEC3" d="M712.099,1286.471c146.497,213.898,705.709,80.76,639.625-313.437H120.923
			C70.12,1319.303,470.615,1498.676,712.099,1286.471z"/>
		<g>
			<path fill="#A45700" d="M1101.787,252.224C1042.814,10.215,789.294-41.206,604.154,28.8l0.773,1099.551l48.312,52.721h669.616
				c37.036-72.076,47.453-162.092,14.285-268.646C1612.301,815.245,1578.831,188.722,1101.787,252.224z M759.763,733.515
				c0.246-0.006,0.492-0.008,0.739-0.015c0.129,0.404,0.266,0.802,0.397,1.205C760.519,734.309,760.143,733.91,759.763,733.515z"/>
			<path fill="#D47A00" d="M604.154,28.8l0.773,1099.551l48.312,52.721V13.484C636.483,17.663,620.067,22.783,604.154,28.8z"/>
		</g>
		<g>
			<polygon fill="#FFBBDA" points="604.091,1129.188 653.239,1181.073 653.239,696.812 603.624,673.473 			"/>
		</g>
		<path fill="#FF9EC5" d="M1075.012,178.019C995.41,17.445,809.607-25.512,653.239,13.484v329.794l102.228-13.043l15.015-121.791
			l153.931-8.084l18.352-68.403l26.694,63.398L1075.012,178.019z M760.7,130.958c-0.067,0.2-0.134,0.401-0.198,0.603
			c-0.246-0.007-0.492-0.009-0.739-0.015c0.19-0.198,0.379-0.396,0.568-0.595c0.189-0.199,0.378-0.397,0.568-0.595
			C760.833,130.557,760.766,130.758,760.7,130.958z"/>
		<path fill="#FFBBDA" d="M603.896,28.897l-0.272,304.841l49.615,10.108V13.484C636.393,17.686,619.89,22.838,603.896,28.897z"/>
		<g>
			<path opacity="0.6" fill="#FF9EC5" d="M883.465,580.368c-6.838,30.403-29.878,125.515-102.513,162.808l8.676,19.941
				c92.998-49.315,107.594-180.998,107.594-180.998L883.465,580.368z"/>
			<path opacity="0.6" fill="#FF9EC5" d="M859.947,652.681c-15.589,34.216-40.228,70.59-78.995,90.494l8.676,19.941
				c44.586-23.643,71.151-66.219,86.727-104.139L859.947,652.681z"/>
		</g>
		<g>
			<path opacity="0.6" fill="#FF9EC5" d="M939.242,497.104c-31.025-2.932-128.288-13.739-174.481-81.066l-18.682,11.132
				c60.697,86.003,193.168,83.802,193.168,83.802L939.242,497.104z"/>
			<path opacity="0.6" fill="#FF9EC5" d="M864.532,482.935c-35.915-11.129-75.117-30.963-99.771-66.897l-18.682,11.132
				c29.1,41.233,74.698,62.191,114.285,72.838L864.532,482.935z"/>
		</g>
		<g>
			<g>
				<path opacity="0.6" fill="#FF9EC5" d="M990.037,450.616c-31.025-2.932-133.991-14.423-180.184-81.75l-37.08,28.274
					c60.697,86.003,215.596,85.731,215.596,85.731L990.037,450.616z"/>
			</g>
			<g>
				<path opacity="0.6" fill="#FF9EC5" d="M859.218,413.346c-19.024-11.137-36.423-25.617-49.365-44.48l-37.08,28.274
					c16.814,23.824,40.857,41.028,66.833,53.45L859.218,413.346z"/>
			</g>
		</g>
		<g>
			<g>
				<path opacity="0.6" fill="#FF9EC5" d="M1033.414,433.376c-35.036-2.225-161.797-15.536-207.99-82.862l-8.718,4.361
					c60.697,86.003,215.596,85.731,215.596,85.731L1033.414,433.376z"/>
			</g>
			<g>
				<path opacity="0.6" fill="#FF9EC5" d="M864.998,387.077c-15.801-9.947-29.575-21.99-39.574-36.563l-8.718,4.361
					c11.322,16.042,25.922,29.083,42.182,39.683L864.998,387.077z"/>
			</g>
		</g>
		<g>
			<path opacity="0.6" fill="#FF9EC5" d="M905.228,617.453c-19.946,90.473-63.32,148.491-135.955,185.784l45.863,39.446
				c120.123-57.559,136.806-215.22,136.806-215.22L905.228,617.453z"/>
			<path opacity="0.6" fill="#FF9EC5" d="M879.521,693.053c-24.171,49.078-60.288,84.534-110.248,110.184l45.863,39.446
				c60.061-28.779,94.263-82.584,113.449-129.194L879.521,693.053z"/>
		</g>
		<g>
			<path opacity="0.6" fill="#FF9EC5" d="M988.368,638.029c-19.946,90.473-60.061,138.475-109.278,174.345l-2.101,36.568
				c110.112-58.393,125.128-206.878,125.128-206.878L988.368,638.029z"/>
			<path opacity="0.6" fill="#FF9EC5" d="M968.322,701.914c-21.939,51.323-53.138,84.154-89.232,110.46l-2.101,36.568
				c60.392-32.026,92.178-91.153,108.571-138.019L968.322,701.914z"/>
		</g>
		<g>
			<path opacity="0.6" fill="#FF9EC5" d="M1350.682,741.746l38.373-35.87c-68.403-103.439-222.727-155.992-222.727-155.992
				l-5.005,11.679C1187.673,575.422,1307.118,632.343,1350.682,741.746z"/>
			<path opacity="0.6" fill="#FF9EC5" d="M1292.899,654.406c23.225,24.198,44.195,53.216,57.783,87.34l38.373-35.87
				c-19.324-29.222-45.505-54.383-73.128-75.445L1292.899,654.406z"/>
		</g>
		<g>
			<path opacity="0.6" fill="#FF9EC5" d="M1107.935,645.815c27.58,14.506,97.599,73.408,123.459,155.158l29.196-5.839
				c-31.699-105.941-148.222-158.811-148.222-158.811L1107.935,645.815z"/>
			<path opacity="0.6" fill="#FF9EC5" d="M1170.31,698.178c24.185,26.758,48.155,61.921,61.084,102.796l29.196-5.839
				c-14.29-47.76-45.82-84.735-76.142-110.941L1170.31,698.178z"/>
		</g>
		<g>
			<path opacity="0.6" fill="#FF9EC5" d="M1270.601,765.937l64.232-24.191c-52.554-111.781-189.36-166.003-189.36-166.003
				l-27.528,47.549C1144.679,633.162,1236.399,691.695,1270.601,765.937z"/>
			<path opacity="0.6" fill="#FF9EC5" d="M1218.351,694.719c20.987,20.824,40.193,45.045,52.25,71.218l64.232-24.191
				c-16.978-36.112-42.75-66.217-69.861-90.427L1218.351,694.719z"/>
		</g>
		<path fill="#FF9EC5" d="M1499.062,510.963l-151.323,46.171l8.342,168.644l-160.117,39.617
			c19.351,34.488,42.356,104.209-9.335,196.477l-57.816-20.111c19.896-39.842,22.141-74.283,17.043-103.065l-14.288,1.368
			c2.097,32.506-3.366,71.153-24.186,114.3l-21.135-8.242c18.578-37.203,18.708-72.311,11.471-102.817l-61.964,5.933l-15.015-73.408
			L853.901,754.14l-25.026,80.082l-21.689-140.123l-153.948,3.281v484.53h669.184c37.386-72.216,48.013-162.516,14.717-269.482
			C1477.897,862.714,1537.891,674.485,1499.062,510.963z"/>
		<path opacity="0.7" fill="#FF9EC5" d="M1144.608,871.423c-1.661,22.469-7.96,47.182-21.391,74.078l65.205,22.681
			c19.222-34.311,29.286-65.858,33.358-94.127L1144.608,871.423z"/>
		<path opacity="0.7" fill="#FF9EC5" d="M1135.569,910.281c-5.847,21.758-16.671,44.851-34.91,68.749l59.792,34.512
			c25.318-30.096,41.121-59.194,50.425-86.197L1135.569,910.281z"/>
		<path opacity="0.7" fill="#FF9EC5" d="M1101.059,879.047c-0.793,22.905-6.239,47.159-18.751,72.214l25.024,9.759
			c13.534-28.047,21.588-54.49,25.689-79.004L1101.059,879.047z"/>
		<path opacity="0.7" fill="#FF9EC5" d="M1090.695,916.461c-1.86,14.215-7.786,24.099-14.38,37.798l27.825,10.332
			c6.946-10.314,13.619-25.514,19.181-39.974L1090.695,916.461z"/>
	</g>
</g>
<g id="Layer_1">
</g>
</svg>
