<?xml version="1.0" encoding="utf-8"?>
<!-- Generator: Adobe Illustrator 27.2.0, SVG Export Plug-In . SVG Version: 6.00 Build 0)  -->
<svg version="1.1" xmlns="http://www.w3.org/2000/svg" xmlns:xlink="http://www.w3.org/1999/xlink" x="0px" y="0px"
	 viewBox="0 0 1510.646 1388.022" enable-background="new 0 0 1510.646 1388.022" xml:space="preserve">
<g id="painting_x5F_hammer_x5F_bubble">
	<g>
		<path fill="#FFFFFF" d="M760.47,736.392c0.14,0.437,0.289,0.87,0.43,1.306c-0.41-0.43-0.818-0.862-1.23-1.29
			C759.937,736.401,760.203,736.399,760.47,736.392z"/>
	</g>
	<path fill="#D9FDFF" d="M1101.787,252.223c-90.317-370.636-636.961-294.281-695.41-19.272
		C60.62,168.635-163.708,658.279,149.306,866.962C-9.669,1280.514,447.02,1519.41,712.099,1286.471
		c153.767,224.513,762.234,66.692,625.042-374.044C1612.301,815.245,1578.831,188.722,1101.787,252.223z M759.763,733.515
		c0.246-0.006,0.492-0.008,0.739-0.015c0.129,0.404,0.266,0.802,0.397,1.205C760.519,734.309,760.143,733.91,759.763,733.515z"/>
	<path fill="#FFDEC3" d="M712.099,1286.471c146.497,213.898,705.709,80.76,639.625-313.437H120.923
		C70.12,1319.303,470.615,1498.676,712.099,1286.471z"/>
	<g>
		<path fill="#A45700" d="M1101.787,252.224C1042.814,10.215,789.294-41.206,604.154,28.8l0.773,1099.551l48.312,52.721h669.616
			c37.036-72.076,47.453-162.092,14.285-268.646C1612.301,815.245,1578.831,188.722,1101.787,252.224z M759.763,733.515
			c0.246-0.006,0.492-0.008,0.739-0.015c0.129,0.404,0.266,0.802,0.397,1.205C760.519,734.309,760.143,733.91,759.763,733.515z"/>
		<path fill="#D47A00" d="M604.154,28.8l0.773,1099.551l48.312,52.721V13.484C636.483,17.663,620.067,22.783,604.154,28.8z"/>
	</g>
	<g>
		<polygon fill="#FFBBDA" points="604.091,1129.188 653.239,1181.073 653.239,696.812 603.624,673.473 		"/>
	</g>
	<path fill="#FF9EC5" d="M1499.062,510.963l-151.323,46.171l8.342,168.644l-161.832,40.041l-1.668,68.403l-156.827,15.015
		l-15.015-73.408L853.901,754.14l-25.026,80.082l-21.689-140.123l-153.948,3.281v484.53h669.184
		c37.386-72.216,48.013-162.516,14.717-269.482C1477.897,862.714,1537.891,674.485,1499.062,510.963z"/>
	<path fill="#FF9EC5" d="M1075.012,178.019C995.41,17.445,809.607-25.512,653.239,13.484v329.794l102.228-13.043l15.015-121.791
		l153.931-8.084l18.352-68.403l26.694,63.398L1075.012,178.019z M760.7,130.958c-0.067,0.2-0.134,0.401-0.198,0.603
		c-0.246-0.007-0.492-0.009-0.739-0.015c0.19-0.198,0.379-0.396,0.568-0.595c0.189-0.199,0.378-0.397,0.568-0.595
		C760.833,130.557,760.766,130.758,760.7,130.958z"/>
	<path fill="#FFBBDA" d="M603.896,28.897l-0.272,304.841l49.615,10.108V13.484C636.393,17.686,619.89,22.838,603.896,28.897z"/>
	<path fill-rule="evenodd" clip-rule="evenodd" fill="#D47A00" d="M782.433,484.328c3.244,26.23,57.466,28.826,54.5-12.049
		C834.858,443.692,776.97,440.16,782.433,484.328z"/>
	<path fill-rule="evenodd" clip-rule="evenodd" fill="#92532A" d="M836.84,480.342c4.078-24.747-16.965-36.141-36.982-30.865
		c-16.896,4.453-30.587,25.025-11.401,46.714C764.075,456.173,830.578,432.935,836.84,480.342z"/>
	<path fill-rule="evenodd" clip-rule="evenodd" fill="#D47A00" d="M869.323,552.299c9.802,22.351,64.868,12.78,51.69-22.507
		C911.798,505.113,852.819,514.663,869.323,552.299z"/>
	<path fill-rule="evenodd" clip-rule="evenodd" fill="#92532A" d="M922.933,536.901c-2.083-22.648-26.046-28.064-44.819-19.05
		c-15.845,7.608-24.452,28.687,0.216,43.561C843.873,531.559,904.818,496.593,922.933,536.901z"/>
	<path fill-rule="evenodd" clip-rule="evenodd" fill="#D47A00" d="M915.266,501.606c9.334,24.342,61.77,13.918,49.222-24.511
		C955.712,450.219,899.55,460.618,915.266,501.606z"/>
	<path fill-rule="evenodd" clip-rule="evenodd" fill="#92532A" d="M966.316,484.837c-1.983-24.665-24.802-30.563-42.678-20.747
		c-15.089,8.286-23.285,31.242,0.206,47.44C891.031,479.02,949.066,440.939,966.316,484.837z"/>
	<path fill-rule="evenodd" clip-rule="evenodd" fill="#D47A00" d="M934.112,704.955c9.802,22.351,64.868,12.78,51.69-22.507
		C976.586,657.769,917.607,667.318,934.112,704.955z"/>
	<path fill-rule="evenodd" clip-rule="evenodd" fill="#92532A" d="M987.721,689.557c-2.083-22.648-26.046-28.064-44.819-19.05
		c-15.845,7.608-24.452,28.687,0.216,43.561C908.661,684.215,969.607,649.248,987.721,689.557z"/>
	<path fill-rule="evenodd" clip-rule="evenodd" fill="#D47A00" d="M823.228,695.137c9.334,24.342,61.77,13.918,49.222-24.511
		C863.674,643.749,807.511,654.149,823.228,695.137z"/>
	<path fill-rule="evenodd" clip-rule="evenodd" fill="#92532A" d="M874.277,678.368c-1.983-24.665-24.802-30.563-42.678-20.747
		c-15.089,8.286-23.285,31.242,0.206,47.44C798.992,672.55,857.028,634.47,874.277,678.368z"/>
	<path fill-rule="evenodd" clip-rule="evenodd" fill="#D47A00" d="M1112.325,620.771c0.691,26.487,56.181,34.318,57.251-6.754
		C1170.326,585.292,1111.161,576.172,1112.325,620.771z"/>
	<path fill-rule="evenodd" clip-rule="evenodd" fill="#92532A" d="M1168.669,622.054c6.688-24.299-13.801-37.701-34.914-34.372
		c-17.821,2.81-33.972,22.014-16.431,45.51C1096.288,590.903,1167.009,574.146,1168.669,622.054z"/>
	<path fill-rule="evenodd" clip-rule="evenodd" fill="#D47A00" d="M1179.616,887.711c0.692,26.487,56.181,34.318,57.251-6.754
		C1237.616,852.231,1178.452,843.111,1179.616,887.711z"/>
	<path fill-rule="evenodd" clip-rule="evenodd" fill="#A45700" d="M1235.96,888.993c6.688-24.299-13.801-37.701-34.914-34.372
		c-17.821,2.81-33.972,22.014-16.431,45.51C1163.579,857.842,1234.3,841.085,1235.96,888.993z"/>
	<path fill-rule="evenodd" clip-rule="evenodd" fill="#D47A00" d="M861.792,979.471c0.691,26.487,56.181,34.318,57.251-6.754
		C919.792,943.992,860.628,934.871,861.792,979.471z"/>
	<path fill-rule="evenodd" clip-rule="evenodd" fill="#A45700" d="M918.135,980.753c6.688-24.299-13.801-37.701-34.914-34.372
		c-17.821,2.81-33.972,22.014-16.431,45.51C845.755,949.603,916.476,932.845,918.135,980.753z"/>
	<path fill-rule="evenodd" clip-rule="evenodd" fill="#D47A00" d="M750.011,840.162c0.691,26.487,56.181,34.318,57.251-6.754
		C808.012,804.683,748.847,795.563,750.011,840.162z"/>
	<path fill-rule="evenodd" clip-rule="evenodd" fill="#A45700" d="M806.355,841.445c6.688-24.299-13.801-37.701-34.914-34.372
		c-17.821,2.81-33.972,22.014-16.431,45.51C733.974,810.294,804.695,793.536,806.355,841.445z"/>
	<path fill-rule="evenodd" clip-rule="evenodd" fill="#D47A00" d="M696.624,783.437c0.691,26.487,56.181,34.318,57.251-6.754
		C754.624,747.958,695.459,738.838,696.624,783.437z"/>
	<path fill-rule="evenodd" clip-rule="evenodd" fill="#A45700" d="M752.967,784.72c6.688-24.299-13.801-37.701-34.914-34.372
		c-17.821,2.81-33.972,22.014-16.431,45.51C680.586,753.569,751.307,736.812,752.967,784.72z"/>
	<path fill-rule="evenodd" clip-rule="evenodd" fill="#D47A00" d="M1097.866,936.093c0.691,26.487,56.181,34.318,57.251-6.754
		C1155.866,900.614,1096.702,891.494,1097.866,936.093z"/>
	<path fill-rule="evenodd" clip-rule="evenodd" fill="#A45700" d="M1154.209,937.376c6.688-24.299-13.801-37.701-34.914-34.372
		c-17.821,2.81-33.972,22.014-16.431,45.51C1081.829,906.225,1152.55,889.467,1154.209,937.376z"/>
	<path fill-rule="evenodd" clip-rule="evenodd" fill="#D47A00" d="M709.408,644.159c9.334,24.342,61.77,13.918,49.222-24.511
		C749.854,592.771,693.692,603.171,709.408,644.159z"/>
	<path fill-rule="evenodd" clip-rule="evenodd" fill="#92532A" d="M760.458,627.39c-1.983-24.665-24.802-30.563-42.678-20.747
		c-15.089,8.286-23.285,31.242,0.206,47.44C685.173,621.573,743.208,583.492,760.458,627.39z"/>
	<path fill-rule="evenodd" clip-rule="evenodd" fill="#D47A00" d="M1056.194,775.241c9.282,24.206,61.702,13.736,49.233-24.482
		C1096.707,724.03,1040.564,734.482,1056.194,775.241z"/>
	<path fill-rule="evenodd" clip-rule="evenodd" fill="#92532A" d="M1107.2,758.357c-1.983-24.665-24.802-30.563-42.678-20.747
		c-15.089,8.286-23.285,31.242,0.206,47.44C1031.915,752.539,1089.951,714.459,1107.2,758.357z"/>
	<path fill-rule="evenodd" clip-rule="evenodd" fill="#D47A00" d="M1204.069,671.746c13.987,21.218,63.304,1.31,43.365-32.608
		C1233.49,615.417,1180.516,636.017,1204.069,671.746z"/>
	<path fill-rule="evenodd" clip-rule="evenodd" fill="#92532A" d="M1250.765,646.106c-6.848-22.933-30.384-24.133-45.951-11.426
		c-13.14,10.726-16.608,33.996,9.634,44.802C1175.826,655.044,1225.131,607.92,1250.765,646.106z"/>
	<path fill-rule="evenodd" clip-rule="evenodd" fill="#D47A00" d="M935.478,383.863c0.691,26.487,56.181,34.318,57.251-6.754
		C993.479,348.384,934.314,339.264,935.478,383.863z"/>
	<path fill-rule="evenodd" clip-rule="evenodd" fill="#92532A" d="M991.822,385.146c6.688-24.299-13.801-37.702-34.914-34.372
		c-17.821,2.81-33.972,22.014-16.431,45.51C919.441,353.995,990.162,337.237,991.822,385.146z"/>
	<path fill-rule="evenodd" clip-rule="evenodd" fill="#D47A00" d="M1041.681,532.715c13.987,21.218,63.304,1.31,43.365-32.608
		C1071.102,476.386,1018.128,496.987,1041.681,532.715z"/>
	<path fill-rule="evenodd" clip-rule="evenodd" fill="#92532A" d="M1088.377,507.075c-6.848-22.933-30.384-24.133-45.951-11.426
		c-13.14,10.726-16.608,33.996,9.634,44.802C1013.438,516.014,1062.743,468.889,1088.377,507.075z"/>
</g>
<g id="Layer_1">
</g>
</svg>
