<?xml version="1.0" encoding="utf-8"?>
<!-- Generator: Adobe Illustrator 27.1.1, SVG Export Plug-In . SVG Version: 6.00 Build 0)  -->
<svg version="1.1" id="Layer_1" xmlns="http://www.w3.org/2000/svg" xmlns:xlink="http://www.w3.org/1999/xlink" x="0px" y="0px"
	 viewBox="0 0 1510.646 1388.022" enable-background="new 0 0 1510.646 1388.022" xml:space="preserve">
<g id="pipewrench_x5F_hammer_x5F_bubble_x5F_2">
	<g>
		<path fill="#CAFDFF" d="M1101.787,252.223c-90.317-370.636-636.961-294.281-695.41-19.272
			C60.62,168.635-163.708,658.279,149.306,866.962C-9.669,1280.514,447.02,1519.41,712.099,1286.471
			c153.767,224.513,762.234,66.692,625.042-374.044C1612.301,815.245,1578.831,188.722,1101.787,252.223z M759.763,733.515
			c0.246-0.006,0.492-0.008,0.739-0.015c0.129,0.404,0.266,0.802,0.397,1.205C760.519,734.309,760.143,733.91,759.763,733.515z"/>
		<path fill="#FFDEC3" d="M136.451,904.333c-118.415,390.324,318.66,607.968,575.648,382.139
			c153.767,224.513,762.234,66.692,625.042-374.044c6.75-2.384,13.312-5.091,19.689-8.094H136.451V904.333z"/>
		<path fill="#FFCCE4" d="M1101.787,252.224C1051.042,43.98,856.245-23.153,684.92,6.769v1301.473
			c9.253-6.74,18.324-13.99,27.179-21.771c153.767,224.513,762.234,66.692,625.042-374.044
			C1612.301,815.245,1578.831,188.722,1101.787,252.224z M759.763,733.515c0.246-0.006,0.492-0.008,0.739-0.015
			c0.129,0.404,0.266,0.802,0.397,1.205C760.519,734.309,760.143,733.91,759.763,733.515z"/>
		<path opacity="0.5" fill-rule="evenodd" clip-rule="evenodd" fill="#FFEDF5" enable-background="new    " d="M704.552,1217.971
			c1.558,15.208,5.973,47.63,37.847,51.994c31.874,4.363,135.112,5.105,151.919,1.381c16.807-3.726,38.565-9.895,42.653-41.771
			c3.269-25.49,2.8-116.319,1.315-138.611c-1.484-22.292-6.538-48.172-39.51-52.818c-32.973-4.648-122.257-2.594-142.812-1.607
			c-29.715,1.43-47.943,11.195-51.471,41.701C700.965,1108.745,699.425,1167.873,704.552,1217.971"/>
		<path fill-rule="evenodd" clip-rule="evenodd" fill="#FFEDF5" d="M704.552,965.633c1.558,15.208,5.973,47.63,37.847,51.994
			c31.874,4.363,135.112,5.105,151.919,1.381c16.807-3.726,38.565-9.895,42.653-41.771c3.269-25.49,2.8-116.319,1.315-138.611
			c-1.484-22.292-6.538-48.172-39.51-52.818c-32.973-4.648-122.257-2.594-142.812-1.607c-29.715,1.43-47.943,11.195-51.471,41.701
			C700.965,856.407,699.425,915.535,704.552,965.633"/>
		<path opacity="0.5" fill-rule="evenodd" clip-rule="evenodd" fill="#FFEDF5" enable-background="new    " d="M704.552,713.295
			c1.558,15.207,5.973,47.63,37.847,51.994c31.874,4.363,135.112,5.105,151.919,1.381c16.807-3.726,38.565-9.895,42.653-41.771
			c3.269-25.49,2.8-116.319,1.315-138.611c-1.484-22.292-6.538-48.172-39.51-52.818c-32.973-4.648-122.257-2.594-142.812-1.607
			c-29.715,1.43-47.943,11.195-51.471,41.701C700.965,604.069,699.425,663.196,704.552,713.295"/>
		<path fill-rule="evenodd" clip-rule="evenodd" fill="#FFEDF5" d="M704.552,460.957c1.558,15.207,5.973,47.63,37.847,51.994
			c31.874,4.363,135.112,5.105,151.919,1.381c16.807-3.726,38.565-9.895,42.653-41.771c3.269-25.49,2.8-116.319,1.315-138.611
			c-1.484-22.292-6.538-48.172-39.51-52.818c-32.973-4.648-122.257-2.594-142.812-1.607c-29.715,1.43-47.943,11.195-51.471,41.701
			C700.965,351.73,699.425,410.858,704.552,460.957"/>
		<path fill-rule="evenodd" clip-rule="evenodd" fill="#FFEDF5" d="M956.727,1217.971c1.558,15.208,5.973,47.63,37.847,51.994
			c31.874,4.363,135.112,5.105,151.919,1.381c16.807-3.726,38.565-9.895,42.653-41.771c3.269-25.49,2.8-116.319,1.315-138.611
			c-1.484-22.292-6.537-48.172-39.51-52.818c-32.973-4.648-122.257-2.594-142.812-1.607c-29.715,1.43-47.943,11.195-51.471,41.701
			C953.14,1108.745,951.6,1167.873,956.727,1217.971"/>
		<path opacity="0.5" fill-rule="evenodd" clip-rule="evenodd" fill="#FFEDF5" enable-background="new    " d="M956.727,965.633
			c1.558,15.208,5.973,47.63,37.847,51.994c31.874,4.363,135.112,5.105,151.919,1.381c16.807-3.726,38.565-9.895,42.653-41.771
			c3.269-25.49,2.8-116.319,1.315-138.611c-1.484-22.292-6.537-48.172-39.51-52.818c-32.973-4.648-122.257-2.594-142.812-1.607
			c-29.715,1.43-47.943,11.195-51.471,41.701C953.14,856.407,951.6,915.535,956.727,965.633"/>
		<path fill-rule="evenodd" clip-rule="evenodd" fill="#FFEDF5" d="M956.727,713.295c1.558,15.207,5.973,47.63,37.847,51.994
			c31.874,4.363,135.112,5.105,151.919,1.381c16.807-3.726,38.565-9.895,42.653-41.771c3.269-25.49,2.8-116.319,1.315-138.611
			c-1.484-22.292-6.537-48.172-39.51-52.818c-32.973-4.648-122.257-2.594-142.812-1.607c-29.715,1.43-47.943,11.195-51.471,41.701
			C953.14,604.069,951.6,663.196,956.727,713.295"/>
		<path opacity="0.5" fill-rule="evenodd" clip-rule="evenodd" fill="#FFEDF5" enable-background="new    " d="M956.727,460.957
			c1.558,15.207,5.973,47.63,37.847,51.994c31.874,4.363,135.112,5.105,151.919,1.381c16.807-3.726,38.565-9.895,42.653-41.771
			c3.269-25.49,2.8-116.319,1.315-138.611c-1.484-22.292-6.537-48.172-39.51-52.818c-32.973-4.648-122.257-2.594-142.812-1.607
			c-29.715,1.43-47.943,11.195-51.471,41.701C953.14,351.73,951.6,410.858,956.727,460.957"/>
		<path opacity="0.5" fill-rule="evenodd" clip-rule="evenodd" fill="#FFEDF5" enable-background="new    " d="M1208.902,713.295
			c1.558,15.207,5.973,47.63,37.847,51.994c31.874,4.363,135.112,5.105,151.919,1.381c16.807-3.726,38.565-9.895,42.653-41.771
			c3.269-25.49,2.8-116.319,1.315-138.611c-1.484-22.292-6.538-48.172-39.51-52.818c-32.973-4.648-122.257-2.594-142.812-1.607
			c-29.715,1.43-47.943,11.195-51.471,41.701C1205.315,604.069,1203.775,663.196,1208.902,713.295"/>
		<path fill="#FFEDF5" d="M1356.814,1021.303c-1.411-34.093-7.698-70.406-19.673-108.876
			c42.601-15.046,77.801-42.784,105.105-78.682c-1.974-21.042-8.53-43.627-39.12-47.937c-32.973-4.648-122.257-2.594-142.812-1.607
			c-29.715,1.43-47.943,11.195-51.471,41.701c-3.528,30.505-5.068,89.633,0.059,139.731c1.557,15.207,5.973,47.63,37.847,51.994
			C1267.613,1020.483,1319.051,1021.787,1356.814,1021.303z"/>
		<path opacity="0.5" fill="#FFEDF5" enable-background="new    " d="M1260.314,1036.539c-29.715,1.43-47.943,11.195-51.471,41.701
			c-3.528,30.505-5.068,89.632,0.059,139.731c1.557,15.207,5.973,47.63,37.847,51.994c2.263,0.31,4.896,0.601,7.822,0.874
			c61.827-58.13,102.732-137.146,102.55-235.373C1319.136,1034.727,1274.152,1035.875,1260.314,1036.539z"/>
		<path opacity="0.5" fill="#FFEDF5" enable-background="new    " d="M1187.032,1321.634c-4.307-14.842-13.836-27.644-36.081-30.778
			c-32.973-4.648-122.257-2.594-142.812-1.607c-29.715,1.43-47.943,11.195-51.471,41.701c-1.633,14.116-2.838,34.367-3.155,57.012
			C1032.557,1386.673,1116.379,1364.068,1187.032,1321.634z"/>
		<path fill="#FFEDF5" d="M939.367,1387.962c-0.145-19.464-0.547-36.289-1.08-44.288c-1.484-22.292-6.538-48.172-39.51-52.818
			c-32.973-4.648-122.257-2.594-142.812-1.607c-14.424,0.694-26.132,3.363-34.775,9.404
			C768.844,1357.476,850.33,1386.52,939.367,1387.962z"/>
		<path fill="#FFEDF5" d="M1441.321,472.56c1.974-15.395,2.585-54.622,2.432-88.191c-30.814-44.601-72.575-81.833-125.901-106.112
			c-25.462,0.174-48.357,0.828-57.538,1.269c-29.715,1.43-47.943,11.195-51.471,41.701c-3.528,30.505-5.068,89.632,0.059,139.731
			c1.557,15.207,5.973,47.63,37.847,51.994c31.874,4.363,135.112,5.105,151.919,1.381
			C1415.475,510.605,1437.233,504.437,1441.321,472.56z"/>
		<path fill="#FF8100" d="M1508.972,572.532c-28.55-38.841-83.782-40.919-129.629-22.05c-35.682,14.685-75.947,70.08-47,135.808
			c29.194,66.289,120.36,64.189,156.844,32.688c3.648-3.149,7.002-6.466,10.078-9.92
			C1509.663,665.519,1513.027,618.853,1508.972,572.532z"/>
		<path fill="#FFD300" d="M1473.687,593.413c-20.34-32.285-63.275-34.533-98.669-19.967
			c-26.483,10.899-56.367,52.013-34.883,100.795c21.667,49.199,89.33,47.641,116.408,24.261
			C1490.681,669.027,1490.394,619.931,1473.687,593.413z"/>
		<g>
			<g>
				<path fill="#FFA800" d="M1064.111,581.142h325.565c33.225,0,60.158,26.934,60.158,60.158s-26.934,60.158-60.158,60.158h-325.565
					L1064.111,581.142L1064.111,581.142z"/>
			</g>
			<path fill="#FFD300" d="M1054.944,640.044h394.858c-0.226-11.005-3.392-21.287-8.768-30.079h-386.09L1054.944,640.044
				L1054.944,640.044z"/>
		</g>
		<g>
			<path fill="#FFE500" d="M1075.021,571.602l-25.681,25.681c-10.831,10.831-15.061,26.618-11.097,41.413l9.4,35.081
				c3.964,14.796,15.521,26.352,30.317,30.317l35.081,9.4c14.796,3.964,30.582-0.266,41.413-11.097l25.681-25.681
				c10.831-10.831,15.061-26.618,11.097-41.413l-9.4-35.081c-3.964-14.796-15.521-26.352-30.317-30.317l-35.081-9.4
				C1101.639,556.541,1085.852,560.771,1075.021,571.602z"/>
		</g>
		<g>
			<path fill="#EE7B00" d="M1062.251,565.151l-44.379,44.379c-5.046,5.046-7.017,12.401-5.17,19.294l16.244,60.623
				c1.847,6.893,7.231,12.277,14.124,14.124l60.623,16.244c6.893,1.847,14.248-0.124,19.294-5.17l44.379-44.379
				c5.046-5.046,7.017-12.401,5.17-19.294l-16.244-60.623c-1.847-6.893-7.231-12.277-14.124-14.124l-60.623-16.244
				C1074.652,558.135,1067.297,560.105,1062.251,565.151z"/>
		</g>
		<g>
			<path fill="#FFA800" d="M1042.707,701.806c7.234,0.133,36.911,0.362,44.825-0.134c13.749-0.863,26.587-5.459,34.794-12.545
				c27.482-23.729,27.251-63.254,13.801-84.602c-10.243-16.258-27.603-23.052-46.142-22.99c-6.602,0.022-33.857-0.215-41.185,0.044
				L1042.707,701.806z"/>
			<path fill="#FFD300" d="M1094.296,640.044h50.681c0.304-10.971-1.89-21.505-5.905-30.079h-44.776V640.044z"/>
			<path fill="#FFD300" d="M1097.393,604.525c-16.375-25.991-50.939-27.801-79.433-16.074c-21.32,8.774-45.378,41.873-28.082,81.145
				c17.443,39.608,71.915,38.353,93.714,19.531C1111.074,665.398,1110.842,625.872,1097.393,604.525z"/>
			<path fill="#BA5600" d="M1081.68,615.691c-11.453-18.179-35.628-19.445-55.557-11.243c-14.912,6.137-31.738,29.287-19.641,56.755
				c12.2,27.703,50.299,26.825,65.546,13.66C1091.249,658.267,1091.087,630.622,1081.68,615.691z"/>
		</g>
		<g>
			<g>
				<path fill="#FFA800" d="M706.58,221.718v281.395c0,108.359-3.148,210.709,11.001,275.473
					c7.035,32.201,19.838,65.957,49.047,65.821c27.449-0.128,42.664-12.401,66.193-79.305
					c13.556-38.546,29.982-81.286,62.383-118.618c53.508-61.652,131.422-65.342,168.907-65.342h24.774
					c33.225,0,60.158,26.934,60.158,60.158s-26.934,60.158-60.158,60.158h-24.774c-78.078,0-92.534,31.749-117.788,103.56
					c-11.966,34.023-44.72,156.557-178.908,156.557c-114.792,0-153.907-110.056-164.23-157.309
					c-16.921-77.455-16.921-181.119-16.921-301.153V221.718H706.58z"/>
			</g>
			<path fill="#FFD300" d="M1054.944,640.044h94.067c-0.226-11.005-3.392-21.287-8.768-30.079h-85.299
				c-59.885,0-104.738,17.071-137.123,52.19c-27.957,30.317-42.222,68.73-56.018,105.877C838.938,829.6,820.878,878.23,750.1,878.23
				c-24.616,0-43.754-8.164-58.506-24.958c-14.643-16.671-25.529-41.952-33.281-77.29c-15.042-68.572-16.204-163.104-16.204-289.165
				V205.422H612.03v281.395c0,127.97,1.213,224.082,16.903,295.61c8.87,40.436,21.975,70.103,40.062,90.695
				c20.508,23.349,47.796,35.187,81.105,35.187c41.307,0,72.81-13.799,96.309-42.185c20.042-24.21,31.48-55.011,43.591-87.621
				C916.444,707.299,941.42,640.044,1054.944,640.044z"/>
		</g>
		<g>
			<rect x="560.28" y="565.652" fill="#FFE500" width="169.348" height="49.203"/>
			<rect x="560.28" y="565.652" fill="#FF8100" width="33.19" height="49.203"/>
			<rect x="685.155" y="565.652" fill="#EE7B00" width="44.473" height="49.203"/>
		</g>
		<path fill="#FF8100" d="M781.291,354.388c0,0,16.672,91.285-45.82,91.285H559.042c-64.149,0-45.82-91.285-45.82-91.285H781.291z"
			/>
		<path fill="#FFFFFF" d="M1101.787,252.224c-90.317-370.636-636.961-294.281-695.41-19.272
			c-76.431-14.217-146.927-1.361-206.998,29.542c111.86,81.723,273.97,132.883,454.34,132.883
			c189.642,0,359.105-56.551,471.193-145.722C1117.322,250.33,1109.616,251.181,1101.787,252.224z"/>
		<path fill="#E2FFFF" d="M1031.828,112.822C855.874-90.439,455.899-0.058,406.377,232.951
			c-41.702-7.757-81.637-7.454-119.077-0.559c66.885,73.855,173.841,116.779,319.832,116.779
			C819.88,349.171,977.052,258.019,1031.828,112.822z"/>
		<g>
			<polyline fill="#474749" points="970.994,627.669 966.279,623.654 973.083,622.956 982.156,614.581 987.914,617.372 
				993.497,615.802 989.484,623.654 992.276,629.935 984.466,631.018 980.76,635.518 974.479,630.284 968.547,633.773 			"/>
			<path fill="#999999" d="M989.911,630.263c-6.495-18.767-18.989-58.406-23.301-96.772l-11.732,1.318
				c4.454,39.636,16.981,79.525,23.7,98.891l2.182,1.818l3.706-4.5L989.911,630.263z"/>
			<g>
				<path fill="#666666" d="M946.513,535.833c0.129,0.995,0.601,4.619,0.73,5.614c0.523,4.021,7.299,6.455,15.135,5.436
					c7.836-1.019,13.764-5.105,13.241-9.126c-0.129-0.995-0.601-4.619-0.73-5.614L946.513,535.833z"/>
				
					<ellipse transform="matrix(0.9916 -0.129 0.129 0.9916 -60.8514 128.3939)" fill="#999999" cx="960.773" cy="533.968" rx="14.308" ry="7.342"/>
			</g>
			<polyline fill="#474749" points="945.488,693.602 939.47,692.141 945.23,688.453 949.558,676.889 955.956,676.788 
				960.234,672.871 960.188,681.688 965.509,686.039 959.025,690.524 957.743,696.211 949.778,694.367 946.053,700.155 			"/>
			<path fill="#999999" d="M963.545,687.397c-14.252-13.83-43.263-43.591-64.394-75.903l-9.88,6.461
				c21.83,33.381,50.982,63.351,65.704,77.615l2.767,0.641l1.281-5.687L963.545,687.397z"/>
			<g>
				<path fill="#666666" d="M882.109,622.758c0.564,0.83,2.617,3.853,3.18,4.683c2.278,3.354,9.424,2.475,15.961-1.964
					s9.989-10.757,7.711-14.112c-0.564-0.83-2.617-3.853-3.18-4.683L882.109,622.758z"/>
				
					<ellipse transform="matrix(0.8273 -0.5618 0.5618 0.8273 -190.957 608.4004)" fill="#999999" cx="893.969" cy="614.756" rx="14.307" ry="7.342"/>
			</g>
			<polyline fill="#474749" points="1216.619,597.177 1214.471,591.369 1220.747,594.089 1232.757,591.223 1236.413,596.474 
				1242.051,597.836 1234.71,602.721 1234.072,609.565 1226.731,606.689 1221.297,608.801 1218.38,601.163 1211.499,601.305 			"/>
			<path fill="#999999" d="M1231.849,608.694c3.516-19.545-0.541-20.656,14.468-56.227l-10.877-4.589
				c-15.505,36.748-11.542,38.093-15.156,58.271l1.014,2.654l5.433-2.112L1231.849,608.694z"/>
			<g>
				<path fill="#666666" d="M1227.504,542.227c-0.374,0.931-1.736,4.322-2.109,5.253c-1.511,3.763,3.208,9.2,10.541,12.145
					c7.333,2.944,14.502,2.281,16.013-1.482c0.374-0.931,1.736-4.322,2.11-5.253L1227.504,542.227z"/>
				
					<ellipse transform="matrix(0.3726 -0.928 0.928 0.3726 270.3634 1494.9108)" fill="#999999" cx="1240.745" cy="547.508" rx="7.342" ry="14.307"/>
			</g>
			<polyline fill="#474749" points="1300.63,684.744 1298.482,689.807 1304.758,687.436 1316.769,689.934 1320.425,685.357 
				1326.062,684.17 1318.722,679.913 1318.084,673.947 1310.742,676.454 1305.309,674.613 1302.391,681.27 1295.51,681.147 			"/>
			<path fill="#999999" d="M1315.86,674.706c3.516,17.035,3.036,29.958,18.044,60.962l-10.877,4
				c-15.505-32.03-15.119-45.156-18.733-62.743l1.014-2.313l5.433,1.841L1315.86,674.706z"/>
			<g>
				<path fill="#666666" d="M1315.354,743.593c-0.374-0.812-1.736-3.767-2.11-4.579c-1.511-3.28,3.208-8.019,10.541-10.585
					s14.502-1.988,16.013,1.292c0.374,0.811,1.736,3.767,2.109,4.579L1315.354,743.593z"/>
				
					<ellipse transform="matrix(0.9521 -0.3058 0.3058 0.9521 -162.3282 441.6937)" fill="#999999" cx="1328.633" cy="738.966" rx="14.084" ry="6.501"/>
			</g>
			<polyline fill="#474749" points="957.066,732.148 960.349,736.56 961.475,729.946 969.701,720.846 967.599,715.377 
				969.424,709.913 962.04,714.095 956.571,711.631 955.023,719.232 950.688,722.99 954.958,728.873 951.374,734.748 			"/>
			<path fill="#999999" d="M956.102,713.933c16.477,5.576,22.773,10.641,57.111,13.361l-2.046,11.407
				c-35.474-2.81-41.994-7.896-58.996-13.667l-1.483-2.044l4.335-3.758L956.102,713.933z"/>
			<g>
				<path fill="#666666" d="M1009.97,747.135c-0.889-0.088-4.128-0.406-5.017-0.494c-3.594-0.354-5.298-6.821-3.806-14.445
					s5.614-13.518,9.208-13.164c0.889,0.088,4.128,0.406,5.017,0.494L1009.97,747.135z"/>
				
					<ellipse transform="matrix(0.2173 -0.9761 0.9761 0.2173 76.8111 1562.3983)" fill="#999999" cx="1012.64" cy="733.304" rx="14.084" ry="6.501"/>
			</g>
			<polyline fill="#474749" points="1241.287,691.394 1243.846,696.416 1237.203,694.245 1224.962,697.172 1220.878,692.691 
				1214.974,691.69 1222.272,687.152 1222.531,681.126 1230.284,683.397 1235.774,681.357 1239.235,687.958 1246.336,687.597 			"/>
			<path fill="#999999" d="M1224.879,681.814c-2.49,17.267-8.887,53.251-22.313,84.972l11.505,3.652
				c13.871-32.771,20.351-68.963,22.905-86.789l-1.202-2.293l-5.49,2.04L1224.879,681.814z"/>
			<g>
				<path fill="#666666" d="M1222.797,772.844c0.332-0.83,1.541-3.852,1.872-4.681c1.341-3.353-3.852-7.961-11.6-10.292
					c-7.748-2.331-15.115-1.503-16.457,1.85c-0.332,0.83-1.541,3.851-1.872,4.681L1222.797,772.844z"/>
				
					<ellipse transform="matrix(0.2672 -0.9636 0.9636 0.2672 145.0412 1727.9865)" fill="#999999" cx="1208.695" cy="768.627" rx="6.507" ry="14.663"/>
			</g>
		</g>
	</g>
</g>
<g id="Layer_1_00000102513648905417581320000006179815647974739622_">
</g>
</svg>
