<?xml version="1.0" encoding="utf-8"?>
<!-- Generator: Adobe Illustrator 27.2.0, SVG Export Plug-In . SVG Version: 6.00 Build 0)  -->
<svg version="1.1" xmlns="http://www.w3.org/2000/svg" xmlns:xlink="http://www.w3.org/1999/xlink" x="0px" y="0px"
	 viewBox="0 0 1510.646 1388.022" enable-background="new 0 0 1510.646 1388.022" xml:space="preserve">
<g id="pipecutter_x5F_hammer_x5F_bubble">
	<g>
		<path fill="#FFFFFF" d="M760.47,736.392c0.14,0.437,0.289,0.87,0.43,1.306c-0.41-0.43-0.818-0.862-1.23-1.29
			C759.937,736.401,760.203,736.399,760.47,736.392z"/>
	</g>
	<path fill="#D9FDFF" d="M1101.787,252.223c-90.317-370.636-636.961-294.281-695.41-19.272
		C60.62,168.635-163.708,658.279,149.306,866.962C-9.669,1280.514,447.02,1519.41,712.099,1286.471
		c153.767,224.513,762.234,66.692,625.042-374.044C1612.301,815.245,1578.831,188.722,1101.787,252.223z M759.763,733.515
		c0.246-0.006,0.492-0.008,0.739-0.015c0.129,0.404,0.266,0.802,0.397,1.205C760.519,734.309,760.143,733.91,759.763,733.515z"/>
	<path fill="#FFDEC3" d="M712.099,1286.471c146.497,213.898,705.709,80.76,639.625-313.437H120.923
		C70.12,1319.303,470.615,1498.676,712.099,1286.471z"/>
	<path fill="#FFCCE3" d="M1101.787,252.224C1025.838-59.451,627.215-55.029,467.548,117.796v1259.99
		c84.829,0.933,171.888-27.463,244.55-91.315c153.767,224.513,762.234,66.692,625.042-374.044
		C1612.301,815.245,1578.831,188.722,1101.787,252.224z M759.763,733.515c0.246-0.006,0.492-0.008,0.739-0.015
		c0.129,0.404,0.266,0.802,0.397,1.205C760.519,734.309,760.143,733.91,759.763,733.515z"/>
	<path opacity="0.5" fill-rule="evenodd" clip-rule="evenodd" fill="#FFEDF5" d="M1305.892,1052.895
		c-1.727,16.864-6.623,52.819-41.97,57.658c-35.346,4.839-149.831,5.661-168.469,1.531c-18.638-4.132-42.766-10.973-47.299-46.322
		c-3.625-28.267-3.105-128.991-1.459-153.71c1.646-24.72,7.25-53.419,43.814-58.571c36.564-5.154,135.575-2.877,158.369-1.782
		c32.952,1.585,53.166,12.415,57.078,46.244C1309.87,931.77,1311.577,997.339,1305.892,1052.895"/>
	<path fill-rule="evenodd" clip-rule="evenodd" fill="#FFEDF5" d="M1305.892,773.068c-1.727,16.864-6.623,52.819-41.97,57.658
		c-35.346,4.839-149.831,5.661-168.469,1.531c-18.638-4.132-42.766-10.973-47.299-46.321c-3.625-28.267-3.105-128.991-1.459-153.71
		c1.646-24.72,7.25-53.419,43.814-58.571c36.564-5.154,135.575-2.877,158.369-1.782c32.952,1.585,53.166,12.415,57.078,46.244
		C1309.87,651.943,1311.577,717.512,1305.892,773.068"/>
	<path opacity="0.5" fill-rule="evenodd" clip-rule="evenodd" fill="#FFEDF5" d="M1305.892,493.241
		c-1.727,16.864-6.623,52.819-41.97,57.658c-35.346,4.839-149.831,5.661-168.469,1.531c-18.638-4.132-42.766-10.973-47.299-46.321
		c-3.625-28.267-3.105-128.991-1.459-153.71c1.646-24.72,7.25-53.42,43.814-58.571c36.564-5.154,135.575-2.877,158.369-1.782
		c32.952,1.585,53.166,12.415,57.078,46.244C1309.87,372.116,1311.577,437.685,1305.892,493.241"/>
	<path fill-rule="evenodd" clip-rule="evenodd" fill="#FFEDF5" d="M1026.246,1052.895c-1.727,16.864-6.623,52.819-41.97,57.658
		c-35.346,4.839-149.831,5.661-168.469,1.531c-18.638-4.132-42.766-10.973-47.299-46.322c-3.625-28.267-3.105-128.991-1.459-153.71
		c1.646-24.72,7.25-53.419,43.814-58.571c36.564-5.154,135.575-2.877,158.369-1.782c32.952,1.585,53.166,12.415,57.078,46.244
		C1030.224,931.77,1031.931,997.339,1026.246,1052.895"/>
	<path opacity="0.5" fill-rule="evenodd" clip-rule="evenodd" fill="#FFEDF5" d="M1026.246,773.068
		c-1.727,16.864-6.623,52.819-41.97,57.658c-35.346,4.839-149.831,5.661-168.469,1.531c-18.638-4.132-42.766-10.973-47.299-46.321
		c-3.625-28.267-3.105-128.991-1.459-153.71c1.646-24.72,7.25-53.419,43.814-58.571c36.564-5.154,135.575-2.877,158.369-1.782
		c32.952,1.585,53.166,12.415,57.078,46.244C1030.224,651.943,1031.931,717.512,1026.246,773.068"/>
	<path fill-rule="evenodd" clip-rule="evenodd" fill="#FFEDF5" d="M1026.246,493.241c-1.727,16.864-6.623,52.819-41.97,57.658
		c-35.346,4.839-149.831,5.661-168.469,1.531c-18.638-4.132-42.766-10.973-47.299-46.321c-3.625-28.267-3.105-128.991-1.459-153.71
		c1.646-24.72,7.25-53.42,43.814-58.571c36.564-5.154,135.575-2.877,158.369-1.782c32.952,1.585,53.166,12.415,57.078,46.244
		C1030.224,372.116,1031.931,437.685,1026.246,493.241"/>
	<path opacity="0.5" fill-rule="evenodd" clip-rule="evenodd" fill="#FFEDF5" d="M746.6,1052.895
		c-1.727,16.864-6.623,52.819-41.97,57.658c-35.346,4.839-149.831,5.661-168.469,1.531c-18.638-4.132-42.766-10.973-47.299-46.322
		c-3.625-28.267-3.105-128.991-1.459-153.71c1.646-24.72,7.25-53.419,43.814-58.571c36.564-5.154,135.575-2.877,158.369-1.782
		c32.952,1.585,53.166,12.415,57.078,46.244C750.578,931.77,752.285,997.339,746.6,1052.895"/>
	<path fill-rule="evenodd" clip-rule="evenodd" fill="#FFEDF5" d="M746.6,773.068c-1.727,16.864-6.623,52.819-41.97,57.658
		c-35.346,4.839-149.831,5.661-168.469,1.531c-18.638-4.132-42.766-10.973-47.299-46.321c-3.625-28.267-3.105-128.991-1.459-153.71
		c1.646-24.72,7.25-53.419,43.814-58.571c36.564-5.154,135.575-2.877,158.369-1.782c32.952,1.585,53.166,12.415,57.078,46.244
		C750.578,651.943,752.285,717.512,746.6,773.068"/>
	<path opacity="0.5" fill-rule="evenodd" clip-rule="evenodd" fill="#FFEDF5" d="M746.6,493.241
		c-1.727,16.864-6.623,52.819-41.97,57.658c-35.346,4.839-149.831,5.661-168.469,1.531c-18.638-4.132-42.766-10.973-47.299-46.321
		c-3.625-28.267-3.105-128.991-1.459-153.71c1.646-24.72,7.25-53.42,43.814-58.571c36.564-5.154,135.575-2.877,158.369-1.782
		c32.952,1.585,53.166,12.415,57.078,46.244C750.578,372.116,752.285,437.685,746.6,493.241"/>
	<path fill-rule="evenodd" clip-rule="evenodd" fill="#FFEDF5" d="M1506.906,553.673c-13.354-101.406-62.76-198.862-152.293-255.548
		c-22.733,10.132-26.894,33.59-28.272,54.273c-1.647,24.72-2.166,125.444,1.459,153.71c4.533,35.349,28.661,42.19,47.299,46.321
		C1389.269,555.57,1458.831,555.846,1506.906,553.673z"/>
	<path opacity="0.5" fill="#FFEDF5" d="M1026.246,213.414c3.462-33.832,4.179-71.366,3.33-103.195
		c-45.563-51.431-105.672-83.621-170.661-99.13c-19.275,0.425-36.682,1.308-48.051,2.911c-36.564,5.152-42.168,33.851-43.814,58.571
		c-1.647,24.72-2.166,125.444,1.459,153.711c4.533,35.349,28.661,42.19,47.299,46.321c18.638,4.13,133.123,3.308,168.469-1.531
		C1019.623,266.232,1024.519,230.278,1026.246,213.414z"/>
	<path fill="#FFEDF5" d="M746.6,213.414c5.685-55.556,3.978-121.125,0.065-154.953c-3.912-33.829-24.127-44.658-57.078-46.244
		c-5.435-0.261-15.21-0.589-27.432-0.868c-66.872,15.24-128.883,45.392-175.656,87.713c-0.766,39.834-0.447,105.302,2.363,127.219
		c4.533,35.349,28.661,42.19,47.299,46.321c18.638,4.13,133.123,3.308,168.469-1.531C739.977,266.232,744.873,230.278,746.6,213.414
		z"/>
	<path fill="#FFEDF5" d="M1282.125,264.535c-51.016-16.188-110.988-21.543-180.338-12.311
		c-11.747-48.207-31.228-88.834-56.335-122.464c-0.148,36.938,0.538,79.644,2.702,96.521c4.533,35.349,28.661,42.19,47.299,46.321
		c18.638,4.13,133.123,3.308,168.469-1.531C1271.21,270.074,1277.186,267.738,1282.125,264.535z"/>
	<path opacity="0.5" fill="#FFEDF5" d="M1508.854,571.195c-37.71-1.008-108.917-1.74-138.699,2.458
		c-36.564,5.152-42.168,33.851-43.814,58.572c-1.647,24.72-2.166,125.444,1.459,153.71c4.533,35.349,28.661,42.19,47.299,46.322
		c8.281,1.835,35.484,2.692,66.258,2.653C1493.961,766.521,1517.633,668.031,1508.854,571.195z"/>
	<path fill="#FFEDF5" d="M1428.485,850.387c-23.27,0.319-44.969,1.21-58.33,3.093c-36.564,5.152-42.168,33.851-43.814,58.571
		c-1.647,24.72-2.166,125.444,1.459,153.71c2.609,20.345,11.713,31.237,22.522,37.614c11.677-55.995,8.972-119.782-13.181-190.949
		C1372.901,899.797,1403.446,878.222,1428.485,850.387z"/>
	<path fill="#FFEDF5" d="M1308.284,1206.421c-0.609-10.942-1.406-20.685-2.327-28.652c-3.912-33.829-24.127-44.658-57.078-46.244
		c-22.794-1.095-121.805-3.372-158.369,1.782c-36.564,5.152-42.168,33.851-43.814,58.572c-1.647,24.72-2.166,125.444,1.458,153.71
		c1.634,12.745,5.824,21.77,11.377,28.312C1158.914,1349.189,1253.402,1292.402,1308.284,1206.421z"/>
	<path fill="#FFEDF5" d="M747.31,1325.25c4.814-53.858,3.094-115.157-0.645-147.481c-3.912-33.829-24.127-44.658-57.078-46.244
		c-22.794-1.095-121.805-3.372-158.369,1.782c-36.564,5.152-42.168,33.851-43.814,58.572c-1.647,24.72-2.166,125.444,1.459,153.71
		c1.861,14.512,7.028,24.213,13.758,30.901c73.424-6.251,146.806-34.945,209.478-90.018
		C722.041,1300.988,733.89,1313.903,747.31,1325.25z"/>
	<path opacity="0.5" fill="#FFEDF5" d="M1001.196,1384.663c20.158-11.998,23.649-38.255,25.05-51.941
		c5.685-55.556,3.978-121.125,0.065-154.953c-3.912-33.829-24.127-44.658-57.078-46.244c-22.794-1.095-121.805-3.372-158.369,1.782
		c-36.564,5.152-42.168,33.851-43.814,58.572c-1.563,23.457-2.11,115.346,0.936,148.824
		C829.23,1381.141,914.509,1395.17,1001.196,1384.663z"/>
	<path fill="#31D8E2" d="M970.826,59.101c-23.228-15.507-48.358-27.798-74.68-37.066c0.009,132.624-0.006,396.039-0.006,500.753
		c0,54.396-37.439,73.362-68.24,90.907c-17.371,9.894-73.632,38.588-135.595,69.459l36.253,64.87
		c60.596-30.227,118.36-59.273,136.279-69.479c43.879-24.993,105.902-57.272,105.902-153.568
		C970.739,426.882,970.826,198.948,970.826,59.101z"/>
	<path fill="#B6F4F8" d="M909.95,520.081c-0.97,33.077-1.973,67.281-81.144,112.374c-16.777,9.556-66.755,34.882-125.173,64.03
		L716,716.588c57.877-28.891,107.338-53.978,124.435-63.716c39.696-22.61,93-49.661,93-132.101
		c0-101.284,0.024-347.09,0.022-483.131c-7.474-3.659-15.084-7.041-22.813-10.148C911.627,161.038,912.984,416.615,909.95,520.081z"
		/>
	<path fill="#00BDD0" d="M741.944,692.67c-10.087-16.011-31.38-17.126-48.933-9.902c-13.134,5.405-27.954,25.795-17.3,49.988
		c10.746,24.4,44.302,23.627,57.731,12.032C750.372,730.17,750.229,705.821,741.944,692.67z"/>
	<path fill="#005F8A" d="M730.714,700.998c-6.506-10.326-20.238-11.045-31.558-6.386c-8.47,3.486-18.028,16.635-11.157,32.238
		c6.93,15.736,28.571,15.237,37.231,7.759C736.149,725.182,736.057,709.479,730.714,700.998z"/>
	<path fill="#00BDD0" d="M822.338,601.489c-11.038,4.045-24.566,15.205-29.575,30.903c0,0,28.744-14.417,34.993-17.158
		c47.173-20.688,65.997,42.057,39.162,60.938c-5.192,3.653-38.6,21.654-38.6,21.654c21.83,5.745,42.152-3.806,50.089-9.245
		C916.66,662.37,897.537,573.93,822.338,601.489z"/>
	<path fill="#00BDD0" d="M896.306,459.048c-14.372,0-16.762,20.398-9.193,28.499c28.255,30.238,103.314,14.475,96.276-17.529
		c-0.448-2.035-2.997-10.823-12.649-10.823v6.894c0,19.061-74.434,23.45-74.434,0.159V459.048z"/>
	<path fill="#31D8E2" d="M1428.088,363.506c-20.782-25.475-45.613-47.921-74.622-66.105c-0.003,90.244-0.006,175.69-0.006,225.386
		c0,54.396-37.439,73.362-68.24,90.907c-17.233,9.816-376.366,187.916-378.362,188.891l32.779,67.646
		c8.375-4.094,251.742-124.936,251.791-124.978c58.541-29.217,113.358-56.816,130.729-66.71
		c43.879-24.993,105.902-57.272,105.902-153.568C1428.058,486.645,1428.072,428.486,1428.088,363.506z"/>
	<path fill="#B6F4F8" d="M1390.754,520.77c0-44.527,0.005-116.988,0.01-195.775c-6.901-5.979-14.109-11.682-21.631-17.082
		c-0.003,85.098-0.47,164.665-1.864,212.167c-0.97,33.077-1.973,67.281-81.144,112.374
		c-14.006,7.978-336.685,168.506-371.673,185.667l10.32,21.11c32.445-15.906,358.977-178.384,372.98-186.361
		C1337.45,630.261,1390.754,603.211,1390.754,520.77z"/>
	<path fill="#00BDD0" d="M955.171,813.204c-10.223-16.226-31.802-17.356-49.591-10.035c-13.31,5.478-28.33,26.142-17.532,50.66
		c10.89,24.728,44.897,23.944,58.507,12.193C963.712,851.208,963.567,826.532,955.171,813.204z"/>
	<path fill="#005F8A" d="M943.303,821.638c-6.506-10.326-20.238-11.045-31.558-6.386c-8.47,3.486-18.028,16.636-11.157,32.238
		c6.93,15.736,28.571,15.237,37.232,7.759C948.738,845.822,948.646,830.12,943.303,821.638z"/>
	<path fill="#00BDD0" d="M1279.658,601.489c-11.038,4.045-24.566,15.205-29.575,30.903c0,0,28.744-14.417,34.993-17.158
		c47.173-20.688,65.997,42.057,39.162,60.938c-5.192,3.653-38.6,21.654-38.6,21.654c21.83,5.745,42.152-3.806,50.089-9.245
		C1373.979,662.37,1354.857,573.93,1279.658,601.489z"/>
	<path fill="#00BDD0" d="M1353.626,459.048c-14.372,0-16.762,20.398-9.193,28.499c28.255,30.238,103.314,14.475,96.276-17.529
		c-0.448-2.035-2.997-10.823-12.649-10.823v6.894c0,19.061-74.434,23.45-74.434,0.159V459.048z"/>
	<g>
		<polyline fill="#49494A" points="1209.217,666.617 1204.502,662.602 1211.306,661.904 1220.379,653.529 1226.137,656.32 
			1231.72,654.75 1227.707,662.602 1230.499,668.883 1222.689,669.966 1218.983,674.466 1212.702,669.232 1206.77,672.721 		"/>
		<path fill="#999999" d="M1228.134,669.211c-14.257-25.898,2.143-25.317-2.168-63.683l-11.732,1.318
			c4.454,39.636-13.705,32.295,2.567,65.802l2.182,1.818l3.706-4.5L1228.134,669.211z"/>
		<path fill="#666666" d="M1207.669,604.991c-0.052,1.002-0.24,4.652-0.291,5.654c-0.208,4.049,6.02,7.662,13.911,8.068
			c7.891,0.406,14.457-2.547,14.666-6.596c0.052-1.002,0.24-4.651,0.291-5.654L1207.669,604.991z"/>
		
			<ellipse transform="matrix(0.0514 -0.9987 0.9987 0.0514 554.1942 1794.9187)" fill="#999999" cx="1221.957" cy="605.727" rx="7.342" ry="14.307"/>
	</g>
	<g>
		<polyline fill="#49494A" points="968.685,796.775 962.822,794.78 968.891,791.624 974.239,780.495 980.621,780.969 
			985.232,777.452 984.395,786.229 989.305,791.04 982.443,794.925 980.657,800.474 972.889,797.922 968.66,803.352 		"/>
		<path fill="#999999" d="M987.227,792.216c-24.167-18.263-6.672-22.772-30.362-57.673l-10.42,5.548
			c25.403,33.035,9.799,41.343,31.514,59.495l2.699,0.886l1.787-5.549L987.227,792.216z"/>
		<path fill="#666666" d="M938.88,744.232c0.487,0.877,2.26,4.073,2.747,4.95c1.968,3.545,9.164,3.311,16.073-0.523
			c6.909-3.834,10.914-9.817,8.947-13.362c-0.487-0.877-2.26-4.072-2.747-4.95L938.88,744.232z"/>
		
			<ellipse transform="matrix(0.8744 -0.4853 0.4853 0.8744 -238.2574 554.3217)" fill="#999999" cx="951.389" cy="737.289" rx="14.307" ry="7.342"/>
	</g>
	<g>
		<polyline fill="#49494A" points="1116.163,713.704 1114.015,707.896 1120.291,710.616 1132.301,707.75 1135.958,713.001 
			1141.595,714.363 1134.254,719.248 1133.616,726.092 1126.275,723.216 1120.842,725.328 1117.924,717.69 1111.043,717.832 		"/>
		<path fill="#999999" d="M1131.393,725.221c3.516-19.545-0.541-20.656,14.468-56.227l-10.877-4.589
			c-15.505,36.748-11.542,38.093-15.156,58.271l1.014,2.653l5.434-2.112L1131.393,725.221z"/>
		<path fill="#666666" d="M1127.049,658.754c-0.374,0.931-1.736,4.322-2.109,5.253c-1.511,3.763,3.208,9.2,10.541,12.145
			c7.333,2.944,14.502,2.281,16.013-1.482c0.374-0.931,1.736-4.322,2.11-5.253L1127.049,658.754z"/>
		
			<ellipse transform="matrix(0.3726 -0.928 0.928 0.3726 99.1399 1474.8164)" fill="#999999" cx="1140.325" cy="664.086" rx="7.342" ry="14.307"/>
	</g>
	<g>
		<polyline fill="#49494A" points="1020.988,805.065 1018.84,810.128 1025.116,807.757 1037.126,810.255 1040.782,805.678 
			1046.42,804.491 1039.079,800.234 1038.441,794.268 1031.1,796.775 1025.667,794.934 1022.749,801.591 1015.868,801.468 		"/>
		<path fill="#999999" d="M1036.218,795.028c-8.087,34.308,6.233,36.393,2.553,68.86l-11.679,0.371
			c5.627-18.517-9.25-34.923-2.44-67.011l1.014-2.313l5.433,1.841L1036.218,795.028z"/>
		<path fill="#666666" d="M1019.041,869.471c0.111-0.95,0.515-4.41,0.626-5.359c0.449-3.839,6.644-6.391,13.838-5.701
			s12.662,4.362,12.214,8.201c-0.111,0.95-0.515,4.409-0.626,5.359L1019.041,869.471z"/>
		
			<ellipse transform="matrix(0.0873 -0.9962 0.9962 0.0873 74.5766 1822.8403)" fill="#999999" cx="1032.067" cy="870.721" rx="6.996" ry="13.087"/>
	</g>
	<g>
		<polyline fill="#49494A" points="1227.191,710.992 1228.755,716.264 1232.089,710.442 1242.944,704.729 1242.853,698.871 
			1246.448,694.369 1238.075,695.754 1233.788,691.558 1229.719,698.162 1224.355,700.199 1226.34,707.191 1220.952,711.474 		"/>
		<path fill="#999999" d="M1232.556,693.558c13.551,10.906,17.719,17.829,49.023,32.202l-5.847,10.006
			c-32.34-14.848-36.71-21.868-50.687-33.138l-0.689-2.429l5.363-2.036L1232.556,693.558z"/>
		<path fill="#666666" d="M1271.705,743.272c-0.805-0.388-3.736-1.802-4.541-2.191c-3.252-1.569-2.626-8.228,1.398-14.873
			c4.025-6.645,9.924-10.76,13.176-9.191c0.805,0.388,3.736,1.802,4.541,2.191L1271.705,743.272z"/>
		
			<ellipse transform="matrix(0.54 -0.8417 0.8417 0.54 -27.1326 1412.8348)" fill="#999999" cx="1278.992" cy="731.24" rx="14.084" ry="6.501"/>
	</g>
	<g>
		<polyline fill="#49494A" points="1069.67,742.172 1064.541,739.835 1071.091,737.398 1078.848,727.487 1084.834,728.452 
			1090.078,725.559 1087.191,733.654 1090.74,738.531 1083.259,741.581 1080.233,746.595 1073.415,743.584 1068.083,748.287 		"/>
		<path fill="#999999" d="M1088.474,739.455c-8.801-15.063-32.851-56.338-42.092-89.521l-11.278,4.305
			c9.547,34.281,33.66,75.771,42.759,91.311l2.368,1.046l3.027-5.014L1088.474,739.455z"/>
		<path fill="#666666" d="M1026.779,657.788c0.257,0.856,1.192,3.973,1.449,4.829c1.038,3.459,7.971,3.832,15.485,0.833
			c7.514-2.999,12.765-8.234,11.727-11.693c-0.257-0.856-1.192-3.973-1.449-4.829L1026.779,657.788z"/>
		
			<ellipse transform="matrix(0.9205 -0.3908 0.3908 0.9205 -172.1997 458.4259)" fill="#999999" cx="1040.385" cy="652.357" rx="14.664" ry="6.507"/>
	</g>
	<g>
		<polyline fill="#49494A" points="1076.766,778.544 1082.12,780.305 1075.876,783.445 1069.251,794.146 1063.195,793.842 
			1058.3,797.292 1060.283,788.929 1056.221,784.47 1063.323,780.62 1065.783,775.305 1072.889,777.551 1077.674,772.293 		"/>
		<path fill="#999999" d="M1058.372,783.304c18.887,14.855,14.137,18.696,26.956,50.668l10.739-5.513
			c-13.243-33.03-7.962-34.471-27.815-52.374l-2.469-0.78l-2.459,5.315L1058.372,783.304z"/>
		<path fill="#666666" d="M1103.954,824.019c-0.349-0.823-1.62-3.819-1.969-4.641c-1.41-3.324-8.342-2.936-15.483,0.868
			c-7.141,3.804-11.786,9.582-10.376,12.907c0.349,0.823,1.62,3.819,1.969,4.641L1103.954,824.019z"/>
		
			<ellipse transform="matrix(0.8722 -0.4892 0.4892 0.8722 -267.015 639.9398)" fill="#999999" cx="1091.024" cy="830.906" rx="14.664" ry="6.507"/>
	</g>
</g>
<g id="Layer_1">
</g>
</svg>
