<?xml version="1.0" encoding="utf-8"?>
<!-- Generator: Adobe Illustrator 27.2.0, SVG Export Plug-In . SVG Version: 6.00 Build 0)  -->
<svg version="1.1" xmlns="http://www.w3.org/2000/svg" xmlns:xlink="http://www.w3.org/1999/xlink" x="0px" y="0px"
	 viewBox="0 0 1510.646 1388.022" enable-background="new 0 0 1510.646 1388.022" xml:space="preserve">
<g id="pipecutter_x5F_paint_x5F_bubble">
	<g>
		<path fill="#FFFFFF" d="M760.47,736.392c0.14,0.437,0.289,0.87,0.43,1.306c-0.41-0.43-0.818-0.862-1.23-1.29
			C759.937,736.401,760.203,736.399,760.47,736.392z"/>
	</g>
	<path fill="#D9FDFF" d="M1101.787,252.223c-90.317-370.636-636.961-294.281-695.41-19.272
		C60.62,168.635-163.708,658.279,149.306,866.962C-9.669,1280.514,447.02,1519.41,712.099,1286.471
		c153.767,224.513,762.234,66.692,625.042-374.044C1612.301,815.245,1578.831,188.722,1101.787,252.223z M759.763,733.515
		c0.246-0.006,0.492-0.008,0.739-0.015c0.129,0.404,0.266,0.802,0.397,1.205C760.519,734.309,760.143,733.91,759.763,733.515z"/>
	<path fill="#FFDEC3" d="M712.099,1286.471c146.497,213.898,705.709,80.76,639.625-313.437H120.923
		C70.12,1319.303,470.615,1498.676,712.099,1286.471z"/>
	<path fill="#FFCCE3" d="M1101.787,252.224C1025.838-59.451,627.215-55.029,467.548,117.796v1259.99
		c84.829,0.933,171.888-27.463,244.55-91.315c153.767,224.513,762.234,66.692,625.042-374.044
		C1612.301,815.245,1578.831,188.722,1101.787,252.224z M759.763,733.515c0.246-0.006,0.492-0.008,0.739-0.015
		c0.129,0.404,0.266,0.802,0.397,1.205C760.519,734.309,760.143,733.91,759.763,733.515z"/>
	<path opacity="0.5" fill-rule="evenodd" clip-rule="evenodd" fill="#FFEDF5" d="M1305.892,1052.895
		c-1.727,16.864-6.623,52.819-41.97,57.658c-35.346,4.839-149.831,5.661-168.469,1.531c-18.638-4.132-42.766-10.973-47.299-46.322
		c-3.625-28.267-3.105-128.991-1.459-153.71c1.646-24.72,7.25-53.419,43.814-58.571c36.564-5.154,135.575-2.877,158.369-1.782
		c32.952,1.585,53.166,12.415,57.078,46.244C1309.87,931.77,1311.577,997.339,1305.892,1052.895"/>
	<path fill-rule="evenodd" clip-rule="evenodd" fill="#FFEDF5" d="M1305.892,773.068c-1.727,16.864-6.623,52.819-41.97,57.658
		c-35.346,4.839-149.831,5.661-168.469,1.531c-18.638-4.132-42.766-10.973-47.299-46.321c-3.625-28.267-3.105-128.991-1.459-153.71
		c1.646-24.72,7.25-53.419,43.814-58.571c36.564-5.154,135.575-2.877,158.369-1.782c32.952,1.585,53.166,12.415,57.078,46.244
		C1309.87,651.943,1311.577,717.512,1305.892,773.068"/>
	<path opacity="0.5" fill-rule="evenodd" clip-rule="evenodd" fill="#FFEDF5" d="M1305.892,493.241
		c-1.727,16.864-6.623,52.819-41.97,57.658c-35.346,4.839-149.831,5.661-168.469,1.531c-18.638-4.132-42.766-10.973-47.299-46.321
		c-3.625-28.267-3.105-128.991-1.459-153.71c1.646-24.72,7.25-53.42,43.814-58.571c36.564-5.154,135.575-2.877,158.369-1.782
		c32.952,1.585,53.166,12.415,57.078,46.244C1309.87,372.116,1311.577,437.685,1305.892,493.241"/>
	<path fill-rule="evenodd" clip-rule="evenodd" fill="#FFEDF5" d="M1026.246,1052.895c-1.727,16.864-6.623,52.819-41.97,57.658
		c-35.346,4.839-149.831,5.661-168.469,1.531c-18.638-4.132-42.766-10.973-47.299-46.322c-3.625-28.267-3.105-128.991-1.459-153.71
		c1.646-24.72,7.25-53.419,43.814-58.571c36.564-5.154,135.575-2.877,158.369-1.782c32.952,1.585,53.166,12.415,57.078,46.244
		C1030.224,931.77,1031.931,997.339,1026.246,1052.895"/>
	<path opacity="0.5" fill-rule="evenodd" clip-rule="evenodd" fill="#FFEDF5" d="M1026.246,773.068
		c-1.727,16.864-6.623,52.819-41.97,57.658c-35.346,4.839-149.831,5.661-168.469,1.531c-18.638-4.132-42.766-10.973-47.299-46.321
		c-3.625-28.267-3.105-128.991-1.459-153.71c1.646-24.72,7.25-53.419,43.814-58.571c36.564-5.154,135.575-2.877,158.369-1.782
		c32.952,1.585,53.166,12.415,57.078,46.244C1030.224,651.943,1031.931,717.512,1026.246,773.068"/>
	<path fill-rule="evenodd" clip-rule="evenodd" fill="#FFEDF5" d="M1026.246,493.241c-1.727,16.864-6.623,52.819-41.97,57.658
		c-35.346,4.839-149.831,5.661-168.469,1.531c-18.638-4.132-42.766-10.973-47.299-46.321c-3.625-28.267-3.105-128.991-1.459-153.71
		c1.646-24.72,7.25-53.42,43.814-58.571c36.564-5.154,135.575-2.877,158.369-1.782c32.952,1.585,53.166,12.415,57.078,46.244
		C1030.224,372.116,1031.931,437.685,1026.246,493.241"/>
	<path opacity="0.5" fill-rule="evenodd" clip-rule="evenodd" fill="#FFEDF5" d="M746.6,1052.895
		c-1.727,16.864-6.623,52.819-41.97,57.658c-35.346,4.839-149.831,5.661-168.469,1.531c-18.638-4.132-42.766-10.973-47.299-46.322
		c-3.625-28.267-3.105-128.991-1.459-153.71c1.646-24.72,7.25-53.419,43.814-58.571c36.564-5.154,135.575-2.877,158.369-1.782
		c32.952,1.585,53.166,12.415,57.078,46.244C750.578,931.77,752.285,997.339,746.6,1052.895"/>
	<path fill-rule="evenodd" clip-rule="evenodd" fill="#FFEDF5" d="M746.6,773.068c-1.727,16.864-6.623,52.819-41.97,57.658
		c-35.346,4.839-149.831,5.661-168.469,1.531c-18.638-4.132-42.766-10.973-47.299-46.321c-3.625-28.267-3.105-128.991-1.459-153.71
		c1.646-24.72,7.25-53.419,43.814-58.571c36.564-5.154,135.575-2.877,158.369-1.782c32.952,1.585,53.166,12.415,57.078,46.244
		C750.578,651.943,752.285,717.512,746.6,773.068"/>
	<path opacity="0.5" fill-rule="evenodd" clip-rule="evenodd" fill="#FFEDF5" d="M746.6,493.241
		c-1.727,16.864-6.623,52.819-41.97,57.658c-35.346,4.839-149.831,5.661-168.469,1.531c-18.638-4.132-42.766-10.973-47.299-46.321
		c-3.625-28.267-3.105-128.991-1.459-153.71c1.646-24.72,7.25-53.42,43.814-58.571c36.564-5.154,135.575-2.877,158.369-1.782
		c32.952,1.585,53.166,12.415,57.078,46.244C750.578,372.116,752.285,437.685,746.6,493.241"/>
	<path fill-rule="evenodd" clip-rule="evenodd" fill="#FFEDF5" d="M1506.906,553.673c-13.354-101.406-62.76-198.862-152.293-255.548
		c-22.733,10.132-26.894,33.59-28.272,54.273c-1.647,24.72-2.166,125.444,1.459,153.71c4.533,35.349,28.661,42.19,47.299,46.321
		C1389.269,555.57,1458.831,555.846,1506.906,553.673z"/>
	<path opacity="0.5" fill="#FFEDF5" d="M1026.246,213.414c3.462-33.832,4.179-71.366,3.33-103.195
		c-45.563-51.431-105.672-83.621-170.661-99.13c-19.275,0.425-36.682,1.308-48.051,2.911c-36.564,5.152-42.168,33.851-43.814,58.571
		c-1.647,24.72-2.166,125.444,1.459,153.711c4.533,35.349,28.661,42.19,47.299,46.321c18.638,4.13,133.123,3.308,168.469-1.531
		C1019.623,266.232,1024.519,230.278,1026.246,213.414z"/>
	<path fill="#FFEDF5" d="M746.6,213.414c5.685-55.556,3.978-121.125,0.065-154.953c-3.912-33.829-24.127-44.658-57.078-46.244
		c-5.435-0.261-15.21-0.589-27.432-0.868c-66.872,15.24-128.883,45.392-175.656,87.713c-0.766,39.834-0.447,105.302,2.363,127.219
		c4.533,35.349,28.661,42.19,47.299,46.321c18.638,4.13,133.123,3.308,168.469-1.531C739.977,266.232,744.873,230.278,746.6,213.414
		z"/>
	<path fill="#FFEDF5" d="M1282.125,264.535c-51.016-16.188-110.988-21.543-180.338-12.311
		c-11.747-48.207-31.228-88.834-56.335-122.464c-0.148,36.938,0.538,79.644,2.702,96.521c4.533,35.349,28.661,42.19,47.299,46.321
		c18.638,4.13,133.123,3.308,168.469-1.531C1271.21,270.074,1277.186,267.738,1282.125,264.535z"/>
	<path opacity="0.5" fill="#FFEDF5" d="M1508.854,571.195c-37.71-1.008-108.917-1.74-138.699,2.458
		c-36.564,5.152-42.168,33.851-43.814,58.572c-1.647,24.72-2.166,125.444,1.459,153.71c4.533,35.349,28.661,42.19,47.299,46.322
		c8.281,1.835,35.484,2.692,66.258,2.653C1493.961,766.521,1517.633,668.031,1508.854,571.195z"/>
	<path fill="#FFEDF5" d="M1428.485,850.387c-23.27,0.319-44.969,1.21-58.33,3.093c-36.564,5.152-42.168,33.851-43.814,58.571
		c-1.647,24.72-2.166,125.444,1.459,153.71c2.609,20.345,11.713,31.237,22.522,37.614c11.677-55.995,8.972-119.782-13.181-190.949
		C1372.901,899.797,1403.446,878.222,1428.485,850.387z"/>
	<path fill="#FFEDF5" d="M1308.284,1206.421c-0.609-10.942-1.406-20.685-2.327-28.652c-3.912-33.829-24.127-44.658-57.078-46.244
		c-22.794-1.095-121.805-3.372-158.369,1.782c-36.564,5.152-42.168,33.851-43.814,58.572c-1.647,24.72-2.166,125.444,1.458,153.71
		c1.634,12.745,5.824,21.77,11.377,28.312C1158.914,1349.189,1253.402,1292.402,1308.284,1206.421z"/>
	<path fill="#FFEDF5" d="M747.31,1325.25c4.814-53.858,3.094-115.157-0.645-147.481c-3.912-33.829-24.127-44.658-57.078-46.244
		c-22.794-1.095-121.805-3.372-158.369,1.782c-36.564,5.152-42.168,33.851-43.814,58.572c-1.647,24.72-2.166,125.444,1.459,153.71
		c1.861,14.512,7.028,24.213,13.758,30.901c73.424-6.251,146.806-34.945,209.478-90.018
		C722.041,1300.988,733.89,1313.903,747.31,1325.25z"/>
	<path opacity="0.5" fill="#FFEDF5" d="M1001.196,1384.663c20.158-11.998,23.649-38.255,25.05-51.941
		c5.685-55.556,3.978-121.125,0.065-154.953c-3.912-33.829-24.127-44.658-57.078-46.244c-22.794-1.095-121.805-3.372-158.369,1.782
		c-36.564,5.152-42.168,33.851-43.814,58.572c-1.563,23.457-2.11,115.346,0.936,148.824
		C829.23,1381.141,914.509,1395.17,1001.196,1384.663z"/>
	<path fill="#31D8E2" d="M970.826,59.101c-23.228-15.507-48.358-27.798-74.68-37.066c0.009,132.624-0.006,396.039-0.006,500.753
		c0,54.396-37.439,73.362-68.24,90.907c-17.371,9.894-73.632,38.588-135.595,69.459l36.253,64.87
		c60.596-30.227,118.36-59.273,136.279-69.479c43.879-24.993,105.902-57.272,105.902-153.568
		C970.739,426.882,970.826,198.948,970.826,59.101z"/>
	<path fill="#B6F4F8" d="M909.95,520.081c-0.97,33.077-1.973,67.281-81.144,112.374c-16.777,9.556-66.755,34.882-125.173,64.03
		L716,716.588c57.877-28.891,107.338-53.978,124.435-63.716c39.696-22.61,93-49.661,93-132.101
		c0-101.284,0.024-347.09,0.022-483.131c-7.474-3.659-15.084-7.041-22.813-10.148C911.627,161.038,912.984,416.615,909.95,520.081z"
		/>
	<path fill="#00BDD0" d="M741.944,692.67c-10.087-16.011-31.38-17.126-48.933-9.902c-13.134,5.405-27.954,25.795-17.3,49.988
		c10.746,24.4,44.302,23.627,57.731,12.032C750.372,730.17,750.229,705.821,741.944,692.67z"/>
	<path fill="#005F8A" d="M730.714,700.998c-6.506-10.326-20.238-11.045-31.558-6.386c-8.47,3.486-18.028,16.635-11.157,32.238
		c6.93,15.736,28.571,15.237,37.231,7.759C736.149,725.182,736.057,709.479,730.714,700.998z"/>
	<path fill="#00BDD0" d="M822.338,601.489c-11.038,4.045-24.566,15.205-29.575,30.903c0,0,28.744-14.417,34.993-17.158
		c47.173-20.688,65.997,42.057,39.162,60.938c-5.192,3.653-38.6,21.654-38.6,21.654c21.83,5.745,42.152-3.806,50.089-9.245
		C916.66,662.37,897.537,573.93,822.338,601.489z"/>
	<path fill="#00BDD0" d="M896.306,459.048c-14.372,0-16.762,20.398-9.193,28.499c28.255,30.238,103.314,14.475,96.276-17.529
		c-0.448-2.035-2.997-10.823-12.649-10.823v6.894c0,19.061-74.434,23.45-74.434,0.159V459.048z"/>
	<path fill="#31D8E2" d="M1428.088,363.506c-20.782-25.475-45.613-47.921-74.622-66.105c-0.003,90.244-0.006,175.69-0.006,225.386
		c0,54.396-37.439,73.362-68.24,90.907c-17.233,9.816-376.366,187.916-378.362,188.891l32.779,67.646
		c8.375-4.094,251.742-124.936,251.791-124.978c58.541-29.217,113.358-56.816,130.729-66.71
		c43.879-24.993,105.902-57.272,105.902-153.568C1428.058,486.645,1428.072,428.486,1428.088,363.506z"/>
	<path fill="#B6F4F8" d="M1390.754,520.77c0-44.527,0.005-116.988,0.01-195.775c-6.901-5.979-14.109-11.682-21.631-17.082
		c-0.003,85.098-0.47,164.665-1.864,212.167c-0.97,33.077-1.973,67.281-81.144,112.374
		c-14.006,7.978-336.685,168.506-371.673,185.667l10.32,21.11c32.445-15.906,358.977-178.384,372.98-186.361
		C1337.45,630.261,1390.754,603.211,1390.754,520.77z"/>
	<path fill="#00BDD0" d="M1328.855,624.745c11.139,15.693,10.666,40.674-4.617,51.428c-5.192,3.653-38.6,21.654-38.6,21.654
		c21.83,5.745,42.152-3.806,50.089-9.245c22.146-15.175,25.061-51.207,8.997-73.513L1328.855,624.745z"/>
	<path fill="#00BDD0" d="M1353.626,459.048c-14.372,0-16.762,20.398-9.193,28.499c28.255,30.238,103.314,14.475,96.276-17.529
		c-0.448-2.035-2.997-10.823-12.649-10.823v6.894c0,19.061-74.434,23.45-74.434,0.159V459.048z"/>
	<path fill="#F490BD" d="M1253.083,683.075c-22.245,11.122-20.217,36.174-70.628,41.153c-45.046,4.449-36.148,37.816-72.852,39.485
		c-32.608,1.482-22.801-32.255-76.254-23.924c-69.169,34.378-125.703,62.411-126.491,62.797l0.033,0.068
		c-0.438,0.168-0.876,0.338-1.311,0.516c-13.31,5.478-28.33,26.142-17.532,50.66c10.016,22.742,39.573,23.897,54.844,14.796
		c30.28-14.981,248.489-123.331,248.535-123.371c49.091-24.5,95.558-47.861,119.526-60.6
		C1276.44,689.749,1274.797,672.218,1253.083,683.075z"/>
	<path fill="#DB72AC" d="M943.303,821.638c-6.506-10.326-20.238-11.045-31.558-6.386c-8.47,3.486-18.028,16.636-11.157,32.238
		c6.93,15.736,28.571,15.237,37.232,7.759C948.738,845.822,948.646,830.12,943.303,821.638z"/>
	<path fill="#F490BD" d="M1352.37,538.103c-4.243,28.624-20.411,45.683-38.936,58.563c-9.602-1.209-20.857,0.089-33.777,4.823
		c-10.83,3.969-24.051,14.79-29.277,30.024c-36.388,18.327-95.911,48.018-155.274,77.562c11.459,13.379,29.214,26.246,52.313,19.046
		c42.822-13.347,16.86-46.848,64.51-42.821c39.485,3.337,42.841-55.048,77.857-36.704c28.686,15.028,29.474,15.015,41.153,10.566
		c16.516-6.292,5.468-26.584,16.128-34.48c15.015-11.122,29.474,0,37.816-15.015C1397.361,587.209,1365.566,566.118,1352.37,538.103
		z"/>
	<path fill="#FF9EC5" d="M1313.46,596.648c-0.008,0.006-0.017,0.012-0.026,0.018c-2.326-0.293-4.75-0.435-7.27-0.421
		c-0.095,0.001-0.188-0.002-0.283,0c-0.474,0.005-0.953,0.021-1.434,0.037c-0.42,0.015-0.842,0.034-1.266,0.058
		c-0.365,0.02-0.73,0.037-1.099,0.064c-0.825,0.06-1.658,0.135-2.503,0.229c-0.175,0.019-0.352,0.043-0.528,0.064
		c-0.863,0.103-1.733,0.218-2.615,0.357c-0.058,0.009-0.116,0.017-0.174,0.026c-5.173,0.824-10.686,2.265-16.539,4.41
		c-11.038,4.045-24.566,15.205-29.575,30.903c0,0,28.744-14.417,34.993-17.158c35.509-15.573,54.95,16.127,50.951,40.809
		c8.844-8.255,1.704-24.494,10.975-31.361c0.81-0.6,1.618-1.124,2.424-1.602C1343.084,609.511,1331.063,598.847,1313.46,596.648z"/>
	<g>
		<path fill="#F490BD" d="M938.03,870.15c7.248,2.164,12.399,9.41,12.522,18.135c0.315,22.436-9.985,57.116,10.566,55.612
			c22.801-1.668,5.74-36.273,8.342-58.393c3.337-28.362,29.694-36.123,26.694-11.122c-1.668,13.903-7.832,37.924,5.561,37.816
			c22.987-0.185-0.454-41.264,11.122-63.954c13.903-27.25,35.406-5.19,54.871-31.884c11.999-16.455,21.159-0.511,30.494-4.82
			c11.077-5.113,1.267-16.61,66.458-53.824C1105.426,787.135,939.765,869.466,938.03,870.15z"/>
	</g>
</g>
<g id="Layer_1">
</g>
</svg>
