<?xml version="1.0" encoding="utf-8"?>
<!-- Generator: Adobe Illustrator 27.1.1, SVG Export Plug-In . SVG Version: 6.00 Build 0)  -->
<svg version="1.1" xmlns="http://www.w3.org/2000/svg" xmlns:xlink="http://www.w3.org/1999/xlink" x="0px" y="0px"
	 viewBox="0 0 1510.646 1388.022" enable-background="new 0 0 1510.646 1388.022" xml:space="preserve">
<g id="pipewrench_x5F_saw_x5F_bubble_x5F_2">
	<g>
		<path fill="#D9FDFF" d="M1101.787,252.223c-90.317-370.636-636.961-294.281-695.41-19.272
			C60.62,168.635-163.708,658.279,149.306,866.962C-9.669,1280.514,447.02,1519.41,712.099,1286.471
			c153.767,224.513,762.234,66.692,625.042-374.044C1612.301,815.245,1578.831,188.722,1101.787,252.223z M759.763,733.515
			c0.246-0.006,0.492-0.008,0.739-0.015c0.129,0.404,0.266,0.802,0.397,1.205C760.519,734.309,760.143,733.91,759.763,733.515z"/>
		<path fill="#FFDEC3" d="M136.451,904.333c-118.415,390.324,318.66,607.968,575.648,382.139
			c153.767,224.513,762.234,66.692,625.042-374.044c6.75-2.384,13.312-5.091,19.689-8.094H136.451z"/>
		<path fill="#FFCCE4" d="M1101.787,252.224C1051.042,43.98,856.245-23.153,684.92,6.769v1301.473
			c9.253-6.74,18.324-13.99,27.179-21.771c153.767,224.513,762.234,66.692,625.042-374.044
			C1612.301,815.245,1578.831,188.722,1101.787,252.224z M759.763,733.515c0.246-0.006,0.492-0.008,0.739-0.015
			c0.129,0.404,0.266,0.802,0.397,1.205C760.519,734.309,760.143,733.91,759.763,733.515z"/>
		<path opacity="0.5" fill-rule="evenodd" clip-rule="evenodd" fill="#FFEDF5" d="M704.552,1217.971
			c1.558,15.208,5.973,47.63,37.847,51.994c31.874,4.363,135.112,5.105,151.919,1.381c16.807-3.726,38.565-9.895,42.653-41.771
			c3.269-25.49,2.8-116.319,1.315-138.611c-1.484-22.292-6.538-48.172-39.51-52.818c-32.973-4.648-122.257-2.594-142.812-1.607
			c-29.715,1.43-47.943,11.195-51.471,41.701C700.965,1108.745,699.425,1167.873,704.552,1217.971"/>
		<path fill-rule="evenodd" clip-rule="evenodd" fill="#FFEDF5" d="M704.552,965.633c1.558,15.208,5.973,47.63,37.847,51.994
			c31.874,4.363,135.112,5.105,151.919,1.381c16.807-3.726,38.565-9.895,42.653-41.771c3.269-25.49,2.8-116.319,1.315-138.611
			c-1.484-22.292-6.538-48.172-39.51-52.818c-32.973-4.648-122.257-2.594-142.812-1.607c-29.715,1.43-47.943,11.195-51.471,41.701
			C700.965,856.407,699.425,915.535,704.552,965.633"/>
		<path opacity="0.5" fill-rule="evenodd" clip-rule="evenodd" fill="#FFEDF5" d="M704.552,713.295
			c1.558,15.207,5.973,47.63,37.847,51.994c31.874,4.363,135.112,5.105,151.919,1.381c16.807-3.726,38.565-9.895,42.653-41.771
			c3.269-25.49,2.8-116.319,1.315-138.611c-1.484-22.292-6.538-48.172-39.51-52.818c-32.973-4.648-122.257-2.594-142.812-1.607
			c-29.715,1.43-47.943,11.195-51.471,41.701C700.965,604.069,699.425,663.196,704.552,713.295"/>
		<path fill-rule="evenodd" clip-rule="evenodd" fill="#FFEDF5" d="M704.552,460.957c1.558,15.207,5.973,47.63,37.847,51.994
			c31.874,4.363,135.112,5.105,151.919,1.381c16.807-3.726,38.565-9.895,42.653-41.771c3.269-25.49,2.8-116.319,1.315-138.611
			c-1.484-22.292-6.538-48.172-39.51-52.818c-32.973-4.648-122.257-2.594-142.812-1.607c-29.715,1.43-47.943,11.195-51.471,41.701
			C700.965,351.73,699.425,410.858,704.552,460.957"/>
		<path fill-rule="evenodd" clip-rule="evenodd" fill="#FFEDF5" d="M956.727,1217.971c1.558,15.208,5.973,47.63,37.847,51.994
			c31.874,4.363,135.112,5.105,151.919,1.381c16.807-3.726,38.565-9.895,42.653-41.771c3.269-25.49,2.8-116.319,1.315-138.611
			c-1.484-22.292-6.537-48.172-39.51-52.818c-32.973-4.648-122.257-2.594-142.812-1.607c-29.715,1.43-47.943,11.195-51.471,41.701
			C953.14,1108.745,951.6,1167.873,956.727,1217.971"/>
		<path opacity="0.5" fill-rule="evenodd" clip-rule="evenodd" fill="#FFEDF5" d="M956.727,965.633
			c1.558,15.208,5.973,47.63,37.847,51.994c31.874,4.363,135.112,5.105,151.919,1.381c16.807-3.726,38.565-9.895,42.653-41.771
			c3.269-25.49,2.8-116.319,1.315-138.611c-1.484-22.292-6.537-48.172-39.51-52.818c-32.973-4.648-122.257-2.594-142.812-1.607
			c-29.715,1.43-47.943,11.195-51.471,41.701C953.14,856.407,951.6,915.535,956.727,965.633"/>
		<path fill-rule="evenodd" clip-rule="evenodd" fill="#FFEDF5" d="M956.727,713.295c1.558,15.207,5.973,47.63,37.847,51.994
			c31.874,4.363,135.112,5.105,151.919,1.381c16.807-3.726,38.565-9.895,42.653-41.771c3.269-25.49,2.8-116.319,1.315-138.611
			c-1.484-22.292-6.537-48.172-39.51-52.818c-32.973-4.648-122.257-2.594-142.812-1.607c-29.715,1.43-47.943,11.195-51.471,41.701
			C953.14,604.069,951.6,663.196,956.727,713.295"/>
		<path opacity="0.5" fill-rule="evenodd" clip-rule="evenodd" fill="#FFEDF5" d="M956.727,460.957
			c1.558,15.207,5.973,47.63,37.847,51.994c31.874,4.363,135.112,5.105,151.919,1.381c16.807-3.726,38.565-9.895,42.653-41.771
			c3.269-25.49,2.8-116.319,1.315-138.611c-1.484-22.292-6.537-48.172-39.51-52.818c-32.973-4.648-122.257-2.594-142.812-1.607
			c-29.715,1.43-47.943,11.195-51.471,41.701C953.14,351.73,951.6,410.858,956.727,460.957"/>
		<path opacity="0.5" fill-rule="evenodd" clip-rule="evenodd" fill="#FFEDF5" d="M1208.902,713.295
			c1.558,15.207,5.973,47.63,37.847,51.994c31.874,4.363,135.112,5.105,151.919,1.381c16.807-3.726,38.565-9.895,42.653-41.771
			c3.269-25.49,2.8-116.319,1.315-138.611c-1.484-22.292-6.538-48.172-39.51-52.818c-32.973-4.648-122.257-2.594-142.812-1.607
			c-29.715,1.43-47.943,11.195-51.471,41.701C1205.315,604.069,1203.775,663.196,1208.902,713.295"/>
		<path fill="#FFEDF5" d="M1356.814,1021.303c-1.411-34.093-7.698-70.406-19.673-108.876
			c42.601-15.046,77.801-42.784,105.105-78.682c-1.974-21.042-8.53-43.627-39.12-47.937c-32.973-4.648-122.257-2.594-142.812-1.607
			c-29.715,1.43-47.943,11.195-51.471,41.701c-3.528,30.505-5.068,89.633,0.059,139.731c1.557,15.207,5.973,47.63,37.847,51.994
			C1267.613,1020.483,1319.051,1021.787,1356.814,1021.303z"/>
		<path opacity="0.5" fill="#FFEDF5" d="M1260.314,1036.539c-29.715,1.43-47.943,11.195-51.471,41.701
			c-3.528,30.505-5.068,89.632,0.059,139.731c1.557,15.207,5.973,47.63,37.847,51.994c2.263,0.31,4.896,0.601,7.822,0.874
			c61.827-58.13,102.732-137.146,102.55-235.373C1319.136,1034.727,1274.152,1035.875,1260.314,1036.539z"/>
		<path opacity="0.5" fill="#FFEDF5" d="M1187.032,1321.634c-4.307-14.842-13.836-27.644-36.081-30.778
			c-32.973-4.648-122.257-2.594-142.812-1.607c-29.715,1.43-47.943,11.195-51.471,41.701c-1.633,14.116-2.838,34.367-3.155,57.012
			C1032.557,1386.673,1116.379,1364.068,1187.032,1321.634z"/>
		<path fill="#FFEDF5" d="M939.367,1387.962c-0.145-19.464-0.547-36.289-1.08-44.288c-1.484-22.292-6.538-48.172-39.51-52.818
			c-32.973-4.648-122.257-2.594-142.812-1.607c-14.424,0.694-26.132,3.363-34.775,9.404
			C768.844,1357.476,850.33,1386.52,939.367,1387.962z"/>
		<path fill="#FFEDF5" d="M1441.321,472.56c1.974-15.395,2.585-54.622,2.432-88.191c-30.814-44.601-72.575-81.833-125.901-106.112
			c-25.462,0.174-48.357,0.828-57.538,1.269c-29.715,1.43-47.943,11.195-51.471,41.701c-3.528,30.505-5.068,89.632,0.059,139.731
			c1.557,15.207,5.973,47.63,37.847,51.994c31.874,4.363,135.112,5.105,151.919,1.381
			C1415.475,510.605,1437.233,504.437,1441.321,472.56z"/>
		<path fill="#FF8100" d="M1508.972,572.532c-28.55-38.841-83.782-40.919-129.629-22.05c-35.682,14.685-75.947,70.08-47,135.808
			c29.194,66.289,120.36,64.189,156.844,32.688c3.648-3.149,7.002-6.466,10.078-9.92
			C1509.663,665.519,1513.027,618.853,1508.972,572.532z"/>
		<path fill="#FFD300" d="M1473.687,593.413c-20.34-32.285-63.275-34.533-98.669-19.967
			c-26.483,10.899-56.367,52.013-34.883,100.795c21.667,49.199,89.33,47.641,116.408,24.261
			C1490.681,669.027,1490.394,619.931,1473.687,593.413z"/>
		<g>
			<g>
				<path fill="#FFA800" d="M1064.111,581.142h325.565c33.225,0,60.158,26.934,60.158,60.158s-26.934,60.158-60.158,60.158h-325.565
					V581.142z"/>
			</g>
			<path fill="#FFD300" d="M1054.944,640.044h394.858c-0.226-11.005-3.392-21.287-8.768-30.079h-386.09V640.044z"/>
		</g>
		<g>
			<path fill="#FFE500" d="M1083.655,562.968l-42.949,42.95c-5.488,5.488-7.632,13.488-5.623,20.985l15.721,58.67
				c2.009,7.497,7.865,13.353,15.362,15.362l58.67,15.721c7.497,2.009,15.496-0.135,20.985-5.623l42.95-42.949
				c5.488-5.488,7.632-13.488,5.623-20.985l-15.721-58.67c-2.009-7.497-7.865-13.353-15.362-15.362l-58.67-15.721
				C1097.142,555.336,1089.143,557.48,1083.655,562.968z"/>
		</g>
		<g>
			<path fill="#EE7B00" d="M1058.896,568.506l-37.669,37.669c-7.122,7.122-9.903,17.502-7.297,27.231l13.788,51.458
				c2.607,9.729,10.206,17.328,19.934,19.934l51.458,13.788c9.729,2.607,20.109-0.175,27.231-7.297l37.67-37.67
				c7.122-7.122,9.903-17.502,7.297-27.231l-13.788-51.458c-2.607-9.729-10.206-17.328-19.934-19.934l-51.458-13.788
				C1076.399,558.603,1066.018,561.384,1058.896,568.506z"/>
		</g>
		<g>
			<path fill="#FFA800" d="M1042.707,701.806c7.234,0.133,36.911,0.362,44.825-0.134c13.749-0.863,26.587-5.459,34.794-12.545
				c27.482-23.729,27.251-63.254,13.801-84.602c-10.243-16.258-27.603-23.052-46.142-22.99c-6.602,0.022-33.857-0.215-41.185,0.044
				L1042.707,701.806z"/>
			<path fill="#FFD300" d="M1094.296,640.044h50.681c0.304-10.971-1.89-21.505-5.905-30.079h-44.776V640.044z"/>
			<path fill="#FFD300" d="M1097.393,604.525c-16.375-25.991-50.939-27.801-79.433-16.074c-21.32,8.774-45.378,41.873-28.082,81.145
				c17.443,39.608,71.915,38.353,93.714,19.531C1111.074,665.398,1110.842,625.872,1097.393,604.525z"/>
			<path fill="#BA5600" d="M1081.68,615.691c-11.453-18.179-35.628-19.445-55.557-11.243c-14.912,6.137-31.738,29.287-19.641,56.755
				c12.2,27.703,50.299,26.825,65.546,13.66C1091.249,658.267,1091.087,630.622,1081.68,615.691z"/>
		</g>
		<g>
			<g>
				<path fill="#FFA800" d="M992.801,896.501c-55.734-16.408-57.7-34.008-184.369-18.283
					c-75.898,9.422-124.094-12.512-145.515-32.453c-44.977-41.868-75.157-93.171-75.157-200.476V411.837h115.693v233.452
					c0,55.273,12.109,95.703,34.098,113.844c17.603,14.522,46.368,18.046,85.501,10.472c47.747-9.242,97.969-8.787,149.271,1.352
					c37.901,7.49,62.747,17.801,65.456,18.952l-45.252,106.475L992.801,896.501z"/>
			</g>
			<g>
				<path fill="#FFD300" d="M1015.326,851.024c-107.441-45.041-136.851-19.472-212.129-14.158
					c-44.492,3.141-81.255-6.835-107.111-28.167c-23.077-19.039-63.005-72.333-62.286-173.642V401.605h39.351v233.452
					c0,47.31,8.324,110.573,47.977,143.288c26.813,22.121,66.193,28.346,117.045,18.504c102.089-19.76,188.898,16.41,192.543,17.959
					L1015.326,851.024z"/>
			</g>
			<path fill="#FFD300" d="M1060.744,807.451c-15.346-24.358-47.738-26.054-74.441-15.064c-19.98,8.223-42.526,39.241-26.318,76.045
				c16.347,37.119,67.396,35.943,87.825,18.304C1073.565,864.498,1073.348,827.457,1060.744,807.451z"/>
			<path fill="#BA5600" d="M1044.189,819.216c-10.16-16.127-31.606-17.25-49.286-9.974c-13.228,5.444-28.156,25.981-17.424,50.348
				c10.823,24.575,44.621,23.797,58.147,12.118C1052.677,856.986,1052.534,832.462,1044.189,819.216z"/>
		</g>
		<g>
			<rect x="560.28" y="565.652" fill="#FFE500" width="169.348" height="49.203"/>
			<rect x="560.28" y="565.652" fill="#FF8100" width="33.19" height="49.203"/>
			<rect x="685.155" y="565.652" fill="#EE7B00" width="44.473" height="49.203"/>
		</g>
		<path fill="#FF8100" d="M781.291,354.388c0,0,16.672,91.285-45.82,91.285H559.042c-64.149,0-45.82-91.285-45.82-91.285H781.291z"
			/>
		<path fill="#FFFFFF" d="M1101.787,252.224c-90.317-370.636-636.961-294.281-695.41-19.272
			c-76.431-14.217-146.927-1.361-206.998,29.542c111.86,81.723,273.97,132.883,454.34,132.883
			c189.642,0,359.105-56.551,471.193-145.722C1117.322,250.33,1109.616,251.181,1101.787,252.224z"/>
		<path opacity="0.5" fill="#D9FDFF" d="M1031.828,112.822C855.874-90.439,455.899-0.058,406.377,232.951
			c-41.702-7.757-81.637-7.454-119.077-0.559c66.885,73.855,173.841,116.779,319.832,116.779
			C819.88,349.171,977.052,258.019,1031.828,112.822z"/>
	</g>
</g>
<g id="Layer_1">
</g>
</svg>
