<?xml version="1.0" encoding="utf-8"?>
<!-- Generator: Adobe Illustrator 27.1.1, SVG Export Plug-In . SVG Version: 6.00 Build 0)  -->
<svg version="1.1" xmlns="http://www.w3.org/2000/svg" xmlns:xlink="http://www.w3.org/1999/xlink" x="0px" y="0px"
	 viewBox="0 0 1510.646 1388.022" enable-background="new 0 0 1510.646 1388.022" xml:space="preserve">
<g id="Screwdriver_x5F_paint_x5F_bubble">
	<g>
		<g id="Layer_1_00000039126994216929515940000010725366159907904188_">
		</g>
		<path fill="#D9FDFF" d="M1101.787,252.223c-90.317-370.636-636.961-294.281-695.41-19.272
			C60.62,168.635-163.708,658.279,149.306,866.962C-9.669,1280.514,447.02,1519.41,712.099,1286.471
			c153.767,224.513,762.234,66.692,625.042-374.044C1612.301,815.245,1578.831,188.722,1101.787,252.223z"/>
		<path fill="#FFDEC3" d="M712.099,1286.471c146.497,213.898,705.709,80.76,639.625-313.437H120.923
			C70.12,1319.303,470.615,1498.676,712.099,1286.471z"/>
		<g>
			<path fill-rule="evenodd" clip-rule="evenodd" fill="#31D8E2" d="M806.969,388.067c-12.679,51.295-44.943,209.294-41.421,254.99
				c3.521,45.697,11.87,83.374,83.819,92.505c71.949,9.135,281.557,0.96,326.359-1.312c64.768-3.289,104.387-23.534,111.69-86.136
				c7.303-62.599,3.52-133.968-8.297-236.645L806.969,388.067z"/>
			<path fill-rule="evenodd" clip-rule="evenodd" fill="#00D9E3" d="M1279.119,411.47"/>
			<path fill-rule="evenodd" clip-rule="evenodd" fill="#00759C" d="M933.689,424.875c-8.394,31.359-26.017,121.627-23.837,149.9
				c2.179,28.274,0.779,57.6,45.295,63.249c44.516,5.652,139.956,3.701,167.676,2.295c40.074-2.035,64.587-14.561,69.105-53.294
				c4.518-38.731,0.875-85.387-6.436-148.915L933.689,424.875z"/>
			<path fill-rule="evenodd" clip-rule="evenodd" fill="#00769F" d="M1185.492,438.11"/>
			<path fill-rule="evenodd" clip-rule="evenodd" fill="#00759C" d="M853.528,594.179c4.29-37.94,20.007-123.974,14.701-173.045
				c-1.762-16.302-103.422,103.446-103.223,227.327C816.264,644.806,849.101,633.326,853.528,594.179z"/>
		</g>
		<path fill="#FF4035" d="M1347.457,849.636L834.577,719.223c-43.779,2.458-128.415,14.777-140.261,99.144
			c-11.844,84.368-11.032,239.562,121.249,243.195c73.67,2.023,316.693,4.824,380.71,1.345
			c60.699-3.299,134.078,4.663,149.598-118.684c-2.479-10.43-5.38-21.027-8.732-31.796c3.879-1.37,7.694-2.851,11.45-4.428
			C1349.136,890.61,1348.8,871.239,1347.457,849.636z"/>
		<path fill-rule="evenodd" clip-rule="evenodd" fill="#FF9EC5" d="M1221.322,719.726c-107.762-8.679-278.804-7.4-386.745-1.339
			c-36.704,2.061-102.116,11.063-129.284,63.632c10.716,25.516,151.831,128.234,236.362,72.898
			c36.483-23.883,24.469,55.612,57.837,65.622c36.221,10.866,25.026-59.505,53.388-59.368
			c31.888,0.154,16.946,127.819,44.49,137.998c51.163,18.908,17.796-172.058,52.015-179.568
			c36.26-7.957,10.275,90.986,50.311,92.237c35.592,1.112,21.133-42.186,52.276-56.645c32.15-14.927,77.702,23.392,96.017,3.097
			C1347.832,855.174,1353.185,730.346,1221.322,719.726z"/>
		<circle fill="#005F8D" cx="798.052" cy="848.667" r="24.1"/>
		<path fill="#00769F" d="M810.705,828.156c-5.283-3.259-11.331-4.231-16.991-3.193c2.864,0.524,5.681,1.573,8.308,3.193
			c11.328,6.988,14.846,21.836,7.859,33.164c-3.729,6.045-9.697,9.864-16.173,11.052c9.485,1.736,19.489-2.351,24.856-11.052
			C825.551,849.991,822.033,835.143,810.705,828.156z"/>
		<g>
			<path fill="#005F8A" d="M933.676,1079.551v-19.882h-13.298c-0.287-5.438-279.947-38.606-279.947-38.606l-5.146,19.205
				l10.778,2.888c-1.03,5.35-1.745,10.861-2.122,16.514h-11.21v19.882h11.316c0.414,5.384,1.152,10.875,2.225,16.458l-10.987,2.944
				l5.146,19.205l10.815-2.898c1.675,5.145,3.655,10.358,5.941,15.627l-9.268,5.351l9.941,17.219l8.565-4.945
				c3.089,4.924,6.445,9.516,10.036,13.782l-6.688,6.688l14.059,14.059l6.641-6.641c4.378,3.728,8.978,7.094,13.749,10.128
				l-4.865,8.426l17.219,9.941l5.212-9.027c5.136,2.25,10.399,4.168,15.746,5.776l-2.878,10.74l19.205,5.146l3.07-11.458
				c5.425,0.865,10.882,1.441,16.332,1.733v12.279h19.882v-12.441c5.483-0.385,10.905-1.046,16.224-1.972l3.178,11.859l19.205-5.146
				l-3.053-11.392c5.361-1.681,10.543-3.642,15.484-5.879l5.648,9.783l17.219-9.941l-5.49-9.51c2.887-1.958,5.638-4.026,8.229-6.208
				c1.638-1.38,3.221-2.788,4.772-4.211l8.015,8.015l14.059-14.059l-8.374-8.374c3.546-4.302,6.761-8.738,9.678-13.276l10.609,6.125
				l9.941-17.219l-11.023-6.364c2.265-4.966,4.221-10.009,5.873-15.102l12.639,3.386l5.146-19.205l-12.952-3.47
				c0.957-5.309,1.622-10.63,2.011-15.931H933.676z"/>
			<path fill="#00BED2" d="M850.946,1021.16c-21.727-34.486-165.605,34.231-142.656,86.339
				c23.145,52.553,95.42,50.888,124.344,25.915C869.099,1101.929,868.792,1049.486,850.946,1021.16z"/>
			<path fill="#96F4F8" d="M827.46,1037.851c-14.37-22.809-109.53,22.64-94.352,57.104c15.308,34.759,63.111,33.657,82.241,17.14
				C839.466,1091.271,839.263,1056.585,827.46,1037.851z"/>
		</g>
		<path fill="#FF9EC5" d="M900.747,983.006c-40.255-63.895-122.822-73-192.869-44.171c-28.248,11.626-57.621,39.804-72.054,78.424
			c10.911,15.434,3.299,43.98,29.993,52.322c29.23,9.134-0.098,50.891,67.569,56.724c24.271,2.092,2.515,61.089,35,63
			c39.667,2.333,6.143-98.079,35.287-99.245c29.167-1.167,23.267,44.572,52.338,41.25c40.833-4.667,16.574-72.918,72.574-83.418
			C930.929,1047.452,912.184,1001.16,900.747,983.006z"/>
		<g>
			<path fill-rule="evenodd" clip-rule="evenodd" fill="#00769F" d="M456.39,770.892c-10.218-3.961-21.663,1.451-24.958,11.903
				c-50.228,159.339-97.115,329.371-112.443,369.707c-5.42,15.979,3.668,30.045,18.753,29.805
				c14.84-0.236,187.538-11.056,208.823-98.793C568.067,994.884,571.827,815.639,456.39,770.892z"/>
		</g>
		<path fill-rule="evenodd" clip-rule="evenodd" fill="#FF9EC5" d="M457.226,770.056c-10.218-3.961-22.5,2.287-25.794,12.739
			c-27.061,85.846-53.152,174.796-73.861,244.895c2.317-1.787,10.535,74.517,53.171,74.517c46.095,0,17.145-72.815,72.296-70.813
			c21.313,0.774,34.647,39.294,39.587,91.958c11.6-11.102,20.997-25.092,24.777-40.675
			C568.903,994.047,572.663,814.803,457.226,770.056z"/>
		<path fill="#FFE500" d="M1106.035,1162.064c-3.504,3.72-8.21,6.362-13.642,7.25c-13.136,2.146-25.524-6.764-27.67-19.899
			c-1.941-11.882,5.164-23.15,16.259-26.782L958.568,913.477l-109.7-112.459c-66.07-66.734-166.286,31.857-99.902,98.908
			l291.886,299.225c31.044,31.356,68.083,26.903,92.954,6.622L1106.035,1162.064z"/>
		<path fill="#FF8100" d="M770.996,783.741L446.54,928.513c-87.947,32.925-39.076,164.74,49.289,131.658l324.457-144.772
			C910.566,881.6,856.679,751.663,770.996,783.741z"/>
		<g>
			<path fill="#00BDD0" d="M488.154,1039.526c24.36-7.981,36.407-31.635,31.743-54.135c-5.025-24.243-25.605-44.642-56.15-38.863
				c-32.233,6.098-45.175,41.662-36.013,62.981C438.774,1035.197,462.64,1047.886,488.154,1039.526z"/>
			<polygon fill="#005F8D" points="501.332,976.062 477.684,981.997 467.414,959.103 455.364,962.673 461.572,987.722 
				439.744,997.93 444.207,1010.426 467.298,1003.835 476.786,1026.493 490.175,1021.584 483.41,998.109 506.241,988.112 			"/>
		</g>
		<g>
			<path fill="#00BDD0" d="M782.921,895.348c24.238,8.344,48.122-3.24,57.988-23.993c10.63-22.36,6.539-51.046-21.3-64.88
				c-29.378-14.599-61.165,5.94-66.732,28.466C746.169,862.085,757.534,886.609,782.921,895.348z"/>
			<polygon fill="#005F8D" points="833.233,852.069 809.306,843.165 764.058,846.267 787.842,854.304 781.463,879.293 
				795.298,883.309 804.143,859.466 830.109,865.904 			"/>
		</g>
		<path fill="#FF9EC5" d="M1140.753,1100.243L945.002,899.571c47.815,84.089,13.613,134.14,56.157,146.653
			c45.051,13.25,5.322,95.759,35.87,105.941c17.518,5.839,18.695-7.484,28.376-13.513c2.557-8.567,9.8-15.369,19.217-16.907
			c13.136-2.146,25.524,6.764,27.67,19.899c1.754,10.736-3.879,20.969-13.166,25.522c11.312,29.21-17.05,28.376-10.377,56.738
			C1162.991,1216.397,1181.745,1141.646,1140.753,1100.243z"/>
		<path fill-rule="evenodd" clip-rule="evenodd" fill="#FF9EC5" d="M1293.124,545.757c-2.019-42.607-6.428-90.227-12.358-141.75
			c-3.611-31.346-13.709-98.162-83.656-106.777c-69.948-8.614-266.947-6.447-303.754,1.438
			c-36.806,7.888-74.049,19.265-90.007,83.826c-12.751,51.588-43.636,208.467-40.093,254.424
			c79.241-7.657,58.532-209.777,128.115-211.434c63.105-5.008,25.248,166.256,85.873,185.828
			c35.067,11.321,47.274-31.173,55.224-68.478c10.769-50.53,35.635-96.834,71.575-34.938c20.021,34.48,45.602,36.704,61.174,1.112
			c12.777-29.205,11.122-75.633,50.051-74.52C1250.844,435.505,1241.96,535.703,1293.124,545.757z"/>
		<path fill="#E880B0" d="M770.996,782.904l-116.858,51.436c1.262,10.757,6.492,26.106,23.357,35.87
			c31.699,18.352,40.041-39.207,61.73-32.533c21.689,6.673,40.875,30.865,67.569,16.684c20.282-10.775,29.385-29.204,40.041-60.061
			C829.454,777.037,800.869,771.721,770.996,782.904z"/>
		<path fill="none" d="M1101.787,252.223c-90.317-370.636-636.961-294.281-695.41-19.272
			C60.62,168.635-163.708,658.279,149.306,866.962C-9.669,1280.514,447.02,1519.41,712.099,1286.471
			c153.767,224.513,762.234,66.692,625.042-374.044C1612.301,815.245,1578.831,188.722,1101.787,252.223z"/>
		<path fill="#005F8A" d="M1179.308,1023.965l-10.834-2.903l-5.146,19.205l10.778,2.888c-1.03,5.35-1.745,10.861-2.121,16.514
			h-11.21v19.882h11.316c0.414,5.384,1.152,10.875,2.225,16.458l-10.987,2.944l5.146,19.205l10.815-2.898
			c1.675,5.145,3.655,10.358,5.942,15.627l-9.268,5.351l9.941,17.219l8.565-4.945c3.089,4.924,6.445,9.516,10.036,13.782
			l-6.688,6.688l14.059,14.059l6.641-6.641c4.378,3.728,8.978,7.094,13.749,10.128l-4.865,8.426l17.219,9.941l5.212-9.027
			c5.136,2.25,10.399,4.168,15.745,5.776l-2.878,10.74l19.205,5.146l3.07-11.458c5.425,0.866,10.882,1.441,16.332,1.733v9.089
			c37.901-54.532,59.544-121.546,55.286-200.242c-74.612-4.191-170.805-7.996-170.805-7.996
			C1183.354,1013.541,1181.18,1018.651,1179.308,1023.965z"/>
		<path fill="#00BED2" d="M1273.595,999.832c-28.288,11.642-60.209,55.559-37.261,107.667
			c18.427,41.841,67.995,49.313,102.035,38.019c8.903-24.547,14.877-50.864,17.399-78.902
			C1335.07,1028.015,1295.952,990.631,1273.595,999.832z"/>
		<path fill="#96F4F8" d="M1355.504,1037.851c-14.37-22.809-44.703-24.397-69.708-14.106c-18.71,7.7-39.822,36.746-24.644,71.211
			c15.308,34.759,63.111,33.657,82.241,17.14c2.402-2.074,4.552-4.29,6.484-6.609c4.437-20.566,6.925-42.194,7.217-64.858
			C1356.587,1039.672,1356.063,1038.738,1355.504,1037.851z"/>
		<path fill="#FF9EC5" d="M1241.57,927.323c-28.114,11.571-57.349,39.616-71.714,78.054c10.859,15.361,23.382,29.268,34.979,32.979
			c29.029,9.289,19.74-27.868,56.897-12.773c22.463,9.126,8.128,140.501,39.48,148.629c33.888,8.786-1.138-116.117,27.868-117.278
			c15.085-0.604,17.622,24.592,20.655,49.217c12.324-56.524,9.933-121.074-12.437-193.21
			C1306.13,909.264,1272.615,914.546,1241.57,927.323z"/>
		<ellipse fill="#F490BD" cx="982.045" cy="1356.839" rx="26.86" ry="9.48"/>
		<ellipse fill="#F490BD" cx="1195.881" cy="1241.327" rx="42.16" ry="14.88"/>
		<path fill="#F490BD" d="M1161.146,1293.182c-33.585,0-60.812,9.609-60.812,21.463c0,11.831,27.122,21.424,60.617,21.461
			c18.461-9.444,36.229-20.148,53.02-32.089C1203.497,1297.546,1183.772,1293.182,1161.146,1293.182z"/>
		<ellipse fill="#F490BD" cx="1095.372" cy="1257.68" rx="20.096" ry="7.093"/>
		<path fill="#F490BD" d="M952.748,1298.237c-31.017,0-56.161,8.746-56.161,19.534c0,3.212,2.242,6.239,6.19,8.912
			c-1.223-0.08-2.474-0.121-3.748-0.121c-13.755,0-24.906,4.81-24.906,10.744c0,5.934,11.151,10.744,24.906,10.744
			s24.906-4.81,24.906-10.744c0-1.033-0.345-2.031-0.976-2.977c8.636,1.884,18.843,2.977,29.789,2.977
			c31.017,0,56.161-8.746,56.161-19.534S983.765,1298.237,952.748,1298.237z"/>
		<path fill-rule="evenodd" clip-rule="evenodd" fill="#AD7537" d="M740.345,985.873c0,0,17.303,16.543,25.256,28.671
			c7.954,12.128,17.353,35.887,4.284,39.823c-13.068,3.935-20.615-11.041-22.074-15.603c-1.458-4.561-31.094-40.327-31.094-40.327
			L740.345,985.873L740.345,985.873z"/>
	</g>
</g>
<g id="Layer_1">
</g>
</svg>
