<?xml version="1.0" encoding="utf-8"?>
<!-- Generator: Adobe Illustrator 27.1.1, SVG Export Plug-In . SVG Version: 6.00 Build 0)  -->
<svg version="1.1" xmlns="http://www.w3.org/2000/svg" xmlns:xlink="http://www.w3.org/1999/xlink" x="0px" y="0px"
	 viewBox="0 0 1510.646 1388.022" enable-background="new 0 0 1510.646 1388.022" xml:space="preserve">
<g id="screwdriver_x5F_hammer_x5F_bubble">
	<g>
		<path fill="#D9FDFF" d="M1101.787,252.223c-90.317-370.636-636.961-294.281-695.41-19.272
			C60.62,168.635-163.708,658.279,149.306,866.962C-9.669,1280.514,447.02,1519.41,712.099,1286.471
			c153.767,224.513,762.234,66.692,625.042-374.044C1612.301,815.245,1578.831,188.722,1101.787,252.223z"/>
		<path fill="#FFDEC3" d="M712.099,1286.471c146.497,213.898,705.709,80.76,639.625-313.437H120.923
			C70.12,1319.303,470.615,1498.676,712.099,1286.471z"/>
		<g>
			<path fill="#005F8A" d="M1336.501,826.555l-92.748,30.545l6.315,10.148c-4.442,2.506-8.84,5.402-13.12,8.659l-8.515-7.901
				l-13.873,12.872l8.235,7.64c-3.557,3.689-6.949,7.646-10.112,11.865l-9.878-5.292l-9.81,15.764l9.694,5.193
				c-2.4,4.475-4.546,9.153-6.393,14.018l-10.691-2.658l-27.063,86.003c3.048,4.508,59.074,39.394,62.618,43.3l-6.6,6.123
				l13.873,12.872l6.554-6.081c4.32,3.413,8.859,6.495,13.567,9.273l-4.801,7.715l16.991,9.101l5.143-8.264
				c5.068,2.06,10.261,3.816,15.537,5.288l-2.84,9.833l18.951,4.711l3.03-10.49c5.354,0.792,10.738,1.319,16.116,1.587v11.242h19.62
				v-11.391c5.193-0.338,10.326-0.916,15.371-1.71c10.075-54.329,6.723-115.815-14.531-184.093
				c27.526-9.722,51.959-24.745,73.173-43.84C1408.363,867.311,1336.501,826.555,1336.501,826.555z"/>
			<path fill="#00BDD0" d="M1289.337,907.972c-27.914,10.659-59.414,50.867-36.769,98.574
				c18.89,39.796,70.946,45.633,104.531,33.524c0.445-39.445-5.759-82.027-19.959-127.644c7.593-2.682,14.95-5.768,22.071-9.23
				C1337.759,896.734,1312.075,899.29,1289.337,907.972z"/>
			<path fill="#B6F4F8" d="M1340.912,925.159c-12.653-2.113-26.793-0.159-39.536,4.706c-18.463,7.05-39.296,33.643-24.319,65.197
				c14.624,30.809,59.3,30.845,79.264,17.095C1354.492,984.564,1349.491,955.554,1340.912,925.159z"/>
		</g>
		<g>
			<path fill="#005F8A" d="M857.63,1134.82l-15.519-4.995l-4.453,7.529c-4.694-1.048-9.514-1.729-14.436-2.057l2.533-8.297
				l-17.433-0.695l-2.824,9.251c-4.979,0.45-10.02,1.2-15.098,2.244l0.255-10.026l-18.159,3.653l-0.287,11.275
				c-4.767,1.577-9.538,3.381-14.292,5.398l-3.195-11.011l-17.648,7.752l3.378,11.645c-4.415,2.371-8.79,4.914-13.111,7.613
				l-6.937-9.789l-15.934,11.323l6.718,9.48c-4.128,3.06-8.176,6.26-12.131,9.585l-9.015-6.435l-13.134,14.122l8.077,5.765
				c-3.404,3.795-6.676,7.89-9.756,12.232l-9.525-3.066l-9.439,15.959l9.211,2.965c-2.328,4.408-4.445,8.969-6.294,13.654
				l-10.135-0.404l-5.101,16.708l9.946,0.396c-1.102,4.591-1.927,9.246-2.44,13.936l-10.244,2.061l-0.415,16.318l10.191-2.05
				c0.243,4.388,0.8,8.774,1.687,13.134l-9.951,4.371l4.299,14.817l10.044-4.412c1.241,3.122,2.698,6.21,4.351,9.262
				c17.49-10.796,34.448-23.29,50.685-37.559c24.095,35.181,59.356,60.972,101.162,77.759l6.529-2.868l-2.69-9.272
				c4.784-2.425,9.453-5.032,13.974-7.796l5.385,7.599l15.934-11.323l-5.173-7.3c4.395-3.343,8.571-6.825,12.473-10.419
				L857.63,1134.82z"/>
			<path fill="#00BDD0" d="M828.087,1190.582c-26.742-17.229-67.969-1.137-98.163,25.2c-18.057,15.75-33.713,47.77-23.118,75.25
				c1.772-1.501,3.537-3.018,5.292-4.561c9.061,13.23,19.703,25.131,31.677,35.727c33.156,6.093,76.315-17.214,92.328-40.821
				C861.663,1243.696,850.052,1204.733,828.087,1190.582z"/>
			<path fill="#B6F4F8" d="M810.849,1212.178c-17.687-11.395-44.954-0.752-64.925,16.667c-14.942,13.033-27.402,42.911-6.478,62.677
				c21.103,19.935,63.296,0.475,76.705-19.293C833.056,1247.307,825.376,1221.537,810.849,1212.178z"/>
		</g>
		<path fill="#FF4035" d="M1000.603,701.427c-10.01,95.653,68.505,138.826,127.126,145.969
			c41.432,5.049,184.024,13.193,288.009,16.156c58.926-56.456,91.524-145.227,94.657-237.979l-18.532-10.999l-14.109,21.48
			l-339.637,46.778l-32.962,24.157l-28.246-35.124L1000.603,701.427z"/>
		<g>
			<path fill-rule="evenodd" clip-rule="evenodd" fill="#FF4035" d="M796.744,1293.761c54.314,47.99,104.115,60.672,166.814,9.176
				c62.697-51.494,190.022-175.4,274.003-278.598c20.262-24.903,57.549-73.394,48.224-123.678l-61.548,3.889l-22.178,40.582
				l-40.605-37.874l-13.02,41.877l-24.862-6.504l-63.978,79.884l-57.588-23.461l1.363,37.931l-28.788-7.806l-35.22,66.762
				l-85.04-11.649l-8.32,68.708l-30.031,10.01l10.01,50.051l-50.051,8.342l-9.175,44.555
				C775.542,1274.765,784.899,1283.292,796.744,1293.761z"/>
			<circle fill="#005F8A" cx="909.999" cy="1265.272" r="22.198"/>
		</g>
		<g>
			<path fill-rule="evenodd" clip-rule="evenodd" fill="#31D8E2" d="M1416.485,444.623c-29.678-11.296-87.047-26.962-142.054-40.165
				l2.951,30.619l-44.397,5.55l9.995,24.987l79.921,22.294l-53.646,238.015l-96.245-21.123l-39.917,13.306l22.198,57.346
				l-30.917,24.046c72.731,19.033,152.214,37.3,177.026,42.085c59.137,11.4,99.356,1.93,119.826-52.904
				c20.47-54.832,34.604-134.647,46.721-229.861C1471.624,529.913,1477.305,467.774,1416.485,444.623z"/>
			<path fill-rule="evenodd" clip-rule="evenodd" fill="#00759C" d="M1344.251,491.047c-27.195-10.351-71.438-21.583-102.002-27.261
				l24.034,60.084l-27.748,29.598l44.397,36.997l-49.946,51.796l-5.55,44.397l-56.604,18.868
				c40.286,11.111,87.749,21.593,105.412,25c36.589,7.053,61.474,1.194,74.139-32.733c12.665-33.926,19.728-76.807,27.225-135.718
				C1379.882,544.191,1381.882,505.371,1344.251,491.047z"/>
		</g>
		<g>
			<path fill-rule="evenodd" clip-rule="evenodd" fill="#31D8E2" d="M849.25,801.568c26.598,33.229,60.065,63.689,120.057,33.074
				c23.604-12.044,62.647-36.575,103.348-63.434l2.758-39.069l-57.503-21.788l16.104-37.075L903.098,459.793l-24.947-9.135
				l25.527-36.745l-24.757-18.257c-48.868,33.698-93.981,67.271-106.263,80.151c-20.348,21.341-39.63,44.763-31.95,86.522
				L849.25,801.568z"/>
			<path fill-rule="evenodd" clip-rule="evenodd" fill="#00759C" d="M891.978,717.529c-16.547-31.361-49.474-105.607-79.205-140.492
				c-9.877-11.59-40.103-25.084-72.494-17.212c1.314,8.162,3.669,17.033,7.279,26.748c17.093,45.996,75.093,181.768,101.691,214.996
				c1.047,1.309,2.107,2.612,3.177,3.908c3.86-2.813,7.141-5.235,9.69-7.153C894.677,773.836,909.051,749.887,891.978,717.529z"/>
			<path fill-rule="evenodd" clip-rule="evenodd" fill="#00759C" d="M1028.199,585.35l-5.18-71.768l-57.189,8.324l-3.49-40.42
				l-60.766-22.251c-9.457,7.272-16.962,13.593-21.078,17.91c-14.84,15.565-28.084,32.65-15.529,68.533
				c9.956,28.456,43.634,106.948,60.091,127.506c16.457,20.559,30.717,43.798,67.836,24.856
				c11.215-5.722,25.635-14.41,40.865-24.175l23.771-54.727L1028.199,585.35z"/>
		</g>
		<g>
			<path fill-rule="evenodd" clip-rule="evenodd" fill="#FFE500" d="M789.121,752.142c-2.138,5.632-6.547,10.38-12.591,12.77
				c-3.35,1.325-19.34,6.986-27.994-10.675c-6.532-13.331,1.523-28.035,17.047-31.745l-30.105-37.925
				c-9.693,7.772-16.635,13.552-20.088,16.791c-52.592,58.93,26.848,141.949,74.512,114.688c3.097-1.771,14.63-9.96,32-22.608
				L789.121,752.142z"/>
			<path fill-rule="evenodd" clip-rule="evenodd" fill="#FFE500" d="M984.729,644.992l-46.94-12.773l13.32-19.898l-43.557-4.012
				l12.501-24.269c0,0-15.189-9.168-29.787-18.343c-68.256,51.503-131.61,99.992-160.671,123.617l28.601,36.03
				c12.562-7.439,26.303-0.638,30.812,10.762c3.188,8.06,1.324,16.865-4.068,22.928l30.842,38.852
				c35.27-25.565,100.86-74.28,168.61-124.937L984.729,644.992z"/>
		</g>
		<g>
			<path fill-rule="evenodd" clip-rule="evenodd" fill="#FF8100" d="M1088.273,1275.413c-2.321,4.009-5.91,7.328-10.499,9.284
				c-11.278,4.807-24.317-0.438-29.125-11.716c-3.771-8.845-1.355-18.773,5.302-24.964l-35.326-28.197
				c-4.527,6.083-8.007,10.887-10.279,14.152c-13.155,18.91-13.454,58.525,13.769,84.395c23.228,22.074,63.467,26.054,85.301,6.453
				c2.594-2.329,8.784-9.073,18.12-19.665L1088.273,1275.413z"/>
			<path fill-rule="evenodd" clip-rule="evenodd" fill="#FF8100" d="M1077.773,1284.697c-0.33,0.141-0.663,0.271-0.996,0.395
				l37.378,32.77c11.699-12.727,35.584-40.389,68.707-79.27l-84.441-119.428c-40.636,48.831-72.663,90.667-86.184,109.345
				l35.188,30.85c1.528-6.701,6.132-12.602,12.938-15.503c11.278-4.808,24.318,0.438,29.125,11.716
				C1094.297,1266.85,1089.051,1279.89,1077.773,1284.697z"/>
		</g>
		<g>
			<path fill-rule="evenodd" clip-rule="evenodd" fill="#FF8100" d="M1362.654,779.087c-1.039-2.022-3.093-5.63-6.001-10.56
				l-40.006,24.437c2.041,1.734,3.814,3.703,5.205,5.749c6.894,10.138,1.35,24.284-9.544,29.907
				c-10.894,5.623-24.584,0.201-29.907-9.544c-0.435-0.797-1.163-2.229-1.767-4.115l-41.937,25.616
				c1.417,2.105,2.441,3.605,3.023,4.426c15.206,21.446,47.112,47.709,91.368,22.285
				C1367.363,847.599,1380.24,813.313,1362.654,779.087z"/>
			<path fill-rule="evenodd" clip-rule="evenodd" fill="#FF8100" d="M1362.654,779.087c-7.823-15.224-72.72-119.617-133.242-212.545
				l-14.666,18.417l-47.178-20.729l-2.524,21.812l-21.863-14.732l-8.594,29.686l-27.073-9.477l-17.125,20.472
				c62.091,97.789,143.766,222.342,151.332,233.012c2.269,3.2,4.913,6.507,7.911,9.734l44.37-25.604
				c-4.914-1.997-9.146-5.566-11.599-10.056c-1.727-3.161-8.06-16.302,6.978-28.269c11.661-9.279,26.082-1.491,32.473,7.905
				c2.641,3.883,3.451,8.354,2.841,12.709l41.621-24.018C1365.284,784.635,1364.079,781.861,1362.654,779.087z"/>
		</g>
		<path fill="#FFE500" d="M1330.34,1124.066c-2.443-0.59-193.256-27.843-301.592-41.673c4.036,16.763,8.5,33.934,8.5,33.934
			l-25.898,8.633l28.364,33.297l-23.431,4.933l24.665,41.93l-19.77,19.77c96.436,12.741,196.672,25.635,247.58,31.848
			c13.636-14.334,26.042-29.801,36.969-46.376c-20.11,2.697-30.619-14.966-27.005-26.509c8.007-25.572,41.93-19.177,43.078-0.754
			c8.745-16.714,16.058-34.4,21.716-53.046C1339.471,1127.267,1335.062,1125.206,1330.34,1124.066z"/>
	</g>
</g>
<g id="Layer_1">
</g>
</svg>
