<?xml version="1.0" encoding="utf-8"?>
<!-- Generator: Adobe Illustrator 27.2.0, SVG Export Plug-In . SVG Version: 6.00 Build 0)  -->
<svg version="1.1" xmlns="http://www.w3.org/2000/svg" xmlns:xlink="http://www.w3.org/1999/xlink" x="0px" y="0px"
	 viewBox="0 0 1510.646 1388.022" enable-background="new 0 0 1510.646 1388.022" xml:space="preserve">
<g id="spiritlevel_x5F_hammer_x5F_bubble">
	<g>
		<path fill="#D9FDFF" d="M1101.787,252.223c-90.317-370.636-636.961-294.281-695.41-19.272
			C60.62,168.635-163.708,658.279,149.306,866.962C-9.669,1280.514,447.02,1519.41,712.099,1286.471
			c153.767,224.513,762.234,66.692,625.042-374.044C1612.301,815.245,1578.831,188.722,1101.787,252.223z M759.763,733.515
			c0.246-0.006,0.492-0.008,0.738-0.015c0.129,0.404,0.266,0.802,0.397,1.205C760.519,734.309,760.143,733.91,759.763,733.515z"/>
		<path fill="#FFDEC3" d="M712.099,1286.471c146.497,213.898,705.709,80.76,639.625-313.437H120.923
			C70.12,1319.303,470.615,1498.676,712.099,1286.471z"/>
		<path fill="#D47A00" d="M1215.92,250.473c-34.771-4.07-72.784-3.754-114.133,1.75c-11.404-46.799-30.092-86.462-54.146-119.508
			l2.073,1243.516c12.935-2.933,25.807-6.408,38.54-10.418c0.003-0.001,0.006-0.002,0.008-0.003
			c3.604-1.135,7.198-2.314,10.778-3.535c0.059-0.02,0.119-0.04,0.178-0.061c3.543-1.21,7.073-2.462,10.59-3.755
			c0.089-0.033,0.178-0.065,0.266-0.098c3.495-1.288,6.976-2.617,10.441-3.988c0.104-0.041,0.208-0.083,0.312-0.124
			c3.46-1.371,6.905-2.783,10.332-4.237c0.092-0.039,0.183-0.078,0.275-0.117c1.68-0.714,3.355-1.436,5.026-2.169
			c0.032-0.014,0.065-0.028,0.097-0.042c1.722-0.756,3.438-1.522,5.151-2.299c0.058-0.026,0.116-0.053,0.175-0.08
			c1.62-0.736,3.234-1.481,4.845-2.235c0.127-0.06,0.255-0.119,0.382-0.178c3.308-1.553,6.597-3.146,9.865-4.777
			c0.18-0.09,0.359-0.179,0.539-0.269c3.227-1.616,6.433-3.271,9.618-4.963c0.214-0.114,0.428-0.227,0.641-0.341
			c3.161-1.686,6.3-3.41,9.416-5.172c0.221-0.125,0.442-0.251,0.663-0.376c3.112-1.766,6.2-3.569,9.264-5.41
			c0.207-0.124,0.413-0.25,0.62-0.375c1.417-0.854,2.828-1.716,4.234-2.587c0.124-0.077,0.249-0.153,0.373-0.23
			c1.521-0.944,3.035-1.897,4.542-2.86c0.176-0.112,0.352-0.226,0.528-0.339c1.36-0.871,2.715-1.75,4.065-2.637
			c0.189-0.124,0.379-0.248,0.568-0.372c1.49-0.982,2.974-1.973,4.45-2.974c0.109-0.074,0.217-0.149,0.326-0.223
			c1.358-0.922,2.709-1.854,4.054-2.792c0.225-0.157,0.45-0.313,0.675-0.471c1.463-1.024,2.92-2.056,4.368-3.099c0,0,0,0,0,0
			V250.473z"/>
		<path fill="#D47A00" d="M238.193,245.626l1.756,1050.443c47.569,38.839,105.245,64.964,166.34,75.918V232.935
			C345.796,221.698,289.022,227.421,238.193,245.626z"/>
		<path fill="#A45700" d="M239.949,1296.069c10.595,8.65,21.693,16.667,33.216,24.029V235.335
			c-11.938,2.773-23.604,6.219-34.972,10.291L239.949,1296.069z"/>
		<g opacity="0.2">
			<path fill="#4A4A49" d="M363.349,227.713c-5.923-0.338-11.801-0.513-17.635-0.531l-4.259,1127.008
				c5.007,1.877,10.059,3.643,15.149,5.303L363.349,227.713z"/>
			<path fill="#4A4A49" d="M326.522,1348.215l1.107-1120.585c-5.686,0.303-11.323,0.761-16.912,1.36l4.369,1114.131
				C318.867,1344.885,322.681,1346.58,326.522,1348.215z"/>
			<path fill="#4A4A49" d="M391.157,230.468c-3.656-0.515-7.297-0.966-10.923-1.358l-3.804,1136.246
				c6.296,1.672,12.641,3.18,19.029,4.522L391.157,230.468z"/>
			<path fill="#4A4A49" d="M1120.605,250.058c-5.052,0.492-10.156,1.064-15.313,1.717l-10.868,1112.049
				c8.118-2.677,16.173-5.572,24.147-8.685L1120.605,250.058z"/>
			<path fill="#4A4A49" d="M1201.368,249.043c-4.971-0.397-10.004-0.708-15.102-0.927l-4.747,1076.774
				c8.566-4.973,16.95-10.232,25.119-15.776L1201.368,249.043z"/>
			<path fill="#4A4A49" d="M1168.994,247.723c-9.454-0.032-19.112,0.23-28.983,0.809l-6.902,1100.649
				c8.487-3.645,16.865-7.541,25.109-11.688L1168.994,247.723z"/>
		</g>
		<path fill="#A45700" d="M1082.796,194.857c-9.755-22.788-21.537-43.403-35.006-61.94l1.924,1243.314
			c11.089-2.515,22.132-5.426,33.081-8.733c0,0,0.001,0,0.001,0V194.857z"/>
		<g>
			<path fill-rule="evenodd" clip-rule="evenodd" fill="#FFA600" d="M1143.732,547.788c-1.327,26.545,52.165,38.451,56.312-2.554
				C1202.944,516.557,1145.967,503.091,1143.732,547.788z"/>
			<path fill-rule="evenodd" clip-rule="evenodd" fill="#A45700" d="M1198.558,553.094c8.362-23.95-10.591-38.938-31.422-37.141
				c-17.583,1.517-34.781,19.646-19.467,44.57C1130.374,516.439,1200.575,504.782,1198.558,553.094z"/>
			<path fill-rule="evenodd" clip-rule="evenodd" fill="#FFA600" d="M1101.828,478.517c-1.327,26.545,52.165,38.451,56.312-2.554
				C1161.039,447.285,1104.062,433.82,1101.828,478.517z"/>
			<path fill-rule="evenodd" clip-rule="evenodd" fill="#A45700" d="M1156.653,483.823c8.362-23.95-10.591-38.938-31.422-37.141
				c-17.583,1.517-34.781,19.646-19.467,44.57C1088.469,447.168,1158.67,435.51,1156.653,483.823z"/>
		</g>
		<g>
			<g>
				<polygon fill="#FFA600" points="1343.442,690.548 1274.848,662.016 1252.612,640.351 1219.544,639.496 1203.875,622.046 
					1004.033,524.717 989.495,529.745 964.409,515.207 953.13,499.528 896.278,469.881 860.93,471.591 823.301,451.637 
					793.654,417.999 673.354,359.879 630.025,360.985 566.549,308.884 449.305,252.554 349.594,494.638 656.188,643.902 
					680.767,647.193 713.835,660.306 724.958,677.383 822.158,724.705 839.835,728.152 853.518,728.722 895.708,749.247 
					918.224,771.475 967.746,795.584 997.192,800.559 1030.26,815.383 1041.114,831.303 1130.515,874.828 1159.68,882.659 
					1193.888,895.201 1208.455,912.772 1244.915,930.55 1293.472,831.726 1267.626,807.401 1298.413,820.324 1306.775,800.939 
					1298.033,788.776 1233.513,763.215 1317.037,782.315 1350.96,713.043 				"/>
				<polygon opacity="0.3" fill="#4A4A49" points="1343.442,690.548 1350.96,713.043 1273.628,674.692 1245.771,652.324 
					1217.834,650.614 1196.149,636.972 1005.399,544.106 988.07,540.578 957.853,528.035 946.247,515.308 881.376,483.725 
					859.789,482.424 817.599,459.618 795.401,441.869 681.337,384.931 635.156,379.229 563.85,329.138 455.782,276.526 
					449.305,252.553 566.549,308.884 630.025,360.985 673.354,359.879 793.654,417.999 823.301,451.637 860.93,471.591 
					896.278,469.881 953.13,499.528 964.409,515.207 989.495,529.745 1005.112,524.717 1203.875,622.046 1219.544,639.496 
					1252.612,640.351 1274.848,662.016 				"/>
				<polygon fill="#FFD300" points="344.003,468.847 449.305,252.553 455.782,276.526 349.594,494.638 				"/>
				<polygon opacity="0.2" fill="#4A4A49" points="1251.16,918.39 1263.213,893.632 364.412,464.363 359.325,474.812 				"/>
				<polygon opacity="0.2" fill="#4A4A49" points="422.371,345.314 431.172,327.237 1323.43,769.944 1318.343,780.393 				"/>
				<polygon opacity="0.2" fill="#4A4A49" points="394.132,403.318 397.647,396.096 1291.126,836.298 1284.819,849.253 				"/>
				<polygon opacity="0.2" fill="#4A4A49" points="371.291,450.233 381.33,429.612 1279.47,860.24 1272.116,875.345 				"/>
				<polygon opacity="0.2" fill="#4A4A49" points="439.338,310.463 444.803,299.237 1347.561,720.379 1336.229,743.654 				"/>
			</g>
			<polygon opacity="0.3" fill="#4A4A49" points="1306.775,800.939 1298.033,788.776 1249.762,769.772 1211.562,753.523 
				1248.621,775.758 			"/>
		</g>
		<g>
			<path fill-rule="evenodd" clip-rule="evenodd" fill="#FFD300" d="M796.435,529.52c-7.828,25.941,41.94,50.845,56.098,11.287
				C862.435,513.141,809.617,485.839,796.435,529.52z"/>
			<path fill-rule="evenodd" clip-rule="evenodd" fill="#A45700" d="M849.104,548.33c14.08-21.516-0.931-40.92-21.887-44.268
				c-17.689-2.826-39.052,10.791-30.05,39.079C790.888,495.511,862.879,501.281,849.104,548.33z"/>
			<path fill-rule="evenodd" clip-rule="evenodd" fill="#FFD300" d="M849.744,629.265c-0.072,25.021,55.53,38.866,57.798,0.317
				C909.127,602.622,849.865,587.134,849.744,629.265z"/>
			<path fill-rule="evenodd" clip-rule="evenodd" fill="#A45700" d="M906.395,637.044c7.433-22.1-12.793-37.11-34.132-36.437
				c-18.011,0.568-34.818,16.767-17.85,40.936C834.473,599.271,906.113,591.739,906.395,637.044z"/>
			<path fill-rule="evenodd" clip-rule="evenodd" fill="#FFD300" d="M913.832,600.77c-1.336,26.693,52.154,38.649,56.313-2.586
				C973.055,569.346,916.081,555.823,913.832,600.77z"/>
			<path fill-rule="evenodd" clip-rule="evenodd" fill="#A45700" d="M968.651,606.202c8.362-23.95-10.591-38.938-31.422-37.141
				c-17.583,1.517-34.781,19.646-19.467,44.57C900.467,569.547,970.668,557.89,968.651,606.202z"/>
			<path fill-rule="evenodd" clip-rule="evenodd" fill="#FFD300" d="M1001.27,655.171c-10.328,25.123,38.459,55.462,56.484,17.392
				C1070.36,645.938,1018.661,612.867,1001.27,655.171z"/>
			<path fill-rule="evenodd" clip-rule="evenodd" fill="#A45700" d="M1053.571,679.723c16.341-20.014,2.683-41.072-18.494-46.7
				c-17.875-4.75-40.978,6.564-34.268,35.865C998.609,620.517,1071.87,634.112,1053.571,679.723z"/>
			<path fill-rule="evenodd" clip-rule="evenodd" fill="#FFD300" d="M703.868,610.402c-1.336,26.693,52.154,38.649,56.313-2.586
				C763.09,578.978,706.117,565.455,703.868,610.402z"/>
			<path fill-rule="evenodd" clip-rule="evenodd" fill="#A45700" d="M758.686,615.834c8.362-23.95-10.591-38.938-31.422-37.141
				c-17.583,1.517-34.781,19.646-19.467,44.57C690.503,579.179,760.704,567.522,758.686,615.834z"/>
			<path fill-rule="evenodd" clip-rule="evenodd" fill="#FFD300" d="M1134.42,726.335c-1.327,26.544,52.165,38.451,56.312-2.554
				C1193.632,695.104,1136.655,681.638,1134.42,726.335z"/>
			<path fill-rule="evenodd" clip-rule="evenodd" fill="#A45700" d="M1189.246,731.641c8.362-23.95-10.591-38.938-31.422-37.141
				c-17.583,1.517-34.781,19.646-19.467,44.57C1121.062,694.986,1191.263,683.329,1189.246,731.641z"/>
			<path fill-rule="evenodd" clip-rule="evenodd" fill="#FFD300" d="M1167.236,791.576c4.323,25.693,58.817,27.462,54.177-12.605
				C1218.168,750.949,1159.957,748.313,1167.236,791.576z"/>
			<path fill-rule="evenodd" clip-rule="evenodd" fill="#A45700" d="M1221.649,786.885c3.083-24.343-18.49-35.221-38.354-29.757
				c-16.766,4.612-29.662,24.995-9.533,46.003C1147.674,764.211,1213.437,740.456,1221.649,786.885z"/>
		</g>
	</g>
</g>
<g id="Layer_1">
</g>
</svg>
