<?xml version="1.0" encoding="utf-8"?>
<!-- Generator: Adobe Illustrator 27.2.0, SVG Export Plug-In . SVG Version: 6.00 Build 0)  -->
<svg version="1.1" xmlns="http://www.w3.org/2000/svg" xmlns:xlink="http://www.w3.org/1999/xlink" x="0px" y="0px"
	 viewBox="0 0 1510.646 1388.022" enable-background="new 0 0 1510.646 1388.022" xml:space="preserve">
<g id="trowel_x5F_hammer_x5F_bubble">
	<g>
		<g>
			<path fill="#FFFFFF" d="M760.47,736.392c0.14,0.437,0.289,0.87,0.43,1.306c-0.41-0.43-0.818-0.862-1.23-1.29
				C759.937,736.401,760.203,736.399,760.47,736.392z"/>
		</g>
		<path fill="#D9FDFF" d="M1101.787,252.223c-90.317-370.636-636.961-294.281-695.41-19.272
			C60.62,168.635-163.708,658.279,149.306,866.962C-9.669,1280.514,447.02,1519.41,712.099,1286.471
			c153.767,224.513,762.234,66.692,625.042-374.044C1612.301,815.245,1578.831,188.722,1101.787,252.223z M759.763,733.515
			c0.246-0.006,0.492-0.008,0.739-0.015c0.129,0.404,0.266,0.802,0.397,1.205C760.519,734.309,760.143,733.91,759.763,733.515z"/>
		<path fill="#FFDEC3" d="M712.099,1286.471c146.497,213.898,705.709,80.76,639.625-313.437H120.923
			C70.12,1319.303,470.615,1498.676,712.099,1286.471z"/>
		<path fill="#A5152A" d="M1437.386,839.945h-240.094v117.297h151.475c-3.014-14.596-6.87-29.535-11.627-44.815
			C1377.256,898.259,1410.808,872.836,1437.386,839.945z"/>
		<path fill="#A5152A" d="M996.211,1097.405h355.298c6.779-35.984,7.654-75.12,1.333-117.297H996.211V1097.405z"/>
		<polygon fill="#A5152A" points="889.378,1310.938 941.654,1328.734 930.532,1356.54 907.174,1350.979 		"/>
		<g>
			<polygon fill="#A5152A" points="1171.808,1236.601 786.402,1236.601 787.608,1120.188 1171.889,1120.188 			"/>
			<path fill="#B2B2B2" d="M1155.205,1119.304H800.399c0,0,16.927,76.34,80.729,52.656c22.724-8.435,27.006,47.482,66.077,42.736
				c49.976-6.07,34.619-82.89,97.105-59.163C1122.395,1185.183,1155.205,1119.304,1155.205,1119.304z"/>
			<path fill="#CAD2D3" d="M1155.205,1119.304h-353.37c0,0,6.593,39.326,68.376,29.078c29.591-4.908,44.022,33.295,78.144,26.348
				c30.453-6.2,44.53-50.113,109.458-33.323C1125.593,1158.936,1155.205,1119.304,1155.205,1119.304z"/>
		</g>
		<g>
			<polygon fill="#A5152A" points="712.388,1190.043 682.902,1179.479 614.518,1197.27 613.578,1215.351 593.034,1242.93 
				749.792,1278.683 778.129,1167.017 751.615,1160.605 			"/>
			<path fill="#B2B2B2" d="M754.383,1265.054c-36.609,2.213-20.046-29.613-46.656-38.88c-20.804-7.245-29.099,16.831-40.594,10.116
				c-32.274-18.853-49.642,12.555-49.642,12.555l133.064,32.182l3.864-15.975C754.407,1265.053,754.395,1265.054,754.383,1265.054z"
				/>
			<path fill="#CAD2D3" d="M704.094,1243.938c-17.87-7.562-29.812,7.369-45.428,1.303c-32.604-12.665-40.392,3.795-40.392,3.795
				l132.281,31.993l2.066-8.544C722.552,1268.855,718.875,1250.192,704.094,1243.938z"/>
		</g>
		<g>
			<polygon fill="#911C27" points="847.426,1201.749 751.335,1302.183 780.433,1314.051 826.033,1291.143 843.781,1303.089 
				872.788,1293.126 916.761,1296.527 933.367,1278.667 			"/>
			<path fill="#B2B2B2" d="M831.245,1265.947c6.216-14.648,34.457,7.763,49.738-13.151c4.39-6.009,5.617-11.99,5.333-17.878
				l-38.85-36.123l-77.196,83.024C770.269,1281.819,813.794,1307.072,831.245,1265.947z"/>
			<path fill="#CAD2D3" d="M815.252,1260.89c10.954-16.414,35.407-6.65,47.432-26.141c3.146-5.1,4.136-10.94,4.895-17.252
				l-20.114-18.702l-76.552,82.332C770.913,1281.127,792.381,1295.161,815.252,1260.89z"/>
		</g>
		<g>
			<polygon fill="#A5152A" points="1216.82,571.23 1211.935,615.073 1223.748,643.06 1217.986,656.322 1231.079,673.205 
				1227.257,688.698 1378.911,690.989 1370.796,575.853 			"/>
		</g>
		<g>
			<polygon fill="#A5152A" points="1135.185,1168.57 950.176,1276.923 965.139,1302.219 994.478,1308.125 1003.188,1318.48 
				1020.089,1300.083 1034.503,1313.526 1076.347,1302.342 1102.592,1323.046 1195.541,1268.063 			"/>
			<path fill="#B2B2B2" d="M1078.893,1236.158c37.662-44.607,58.322,12.029,97.343-0.73l-40.414-68.321l-159.798,94.526
				C976.024,1261.633,1030.061,1293.996,1078.893,1236.158z"/>
			<path fill="#CAD2D3" d="M1062.211,1232.233c41.988-40.494,71.129-19.336,96.873-25.802l-23.262-39.325l-159.798,94.526
				C976.024,1261.633,1016.311,1276.5,1062.211,1232.233z"/>
		</g>
		<g>
			<polygon fill="#911C27" points="1318.159,745.155 1291.864,740.422 1283.871,716.871 1260.082,710.238 1267.515,688.805 
				1255.201,651.75 1026.079,619.735 1010.176,734.891 1333.298,779.248 			"/>
			<path fill="#B2B2B2" d="M1105.64,665.617c19.691-3.067,18.101,34.963,51.059,36.242c42.156,1.635,36.453-51.694,86.275-28.625
				c7.87,3.644,15.277,6.177,22.215,7.828l-9.262-30.832l-212.626-29.189C1043.301,621.041,1050.354,674.227,1105.64,665.617z"/>
			<path fill="#CAD2D3" d="M1098.727,648.54c25.082,0.086,33.572,27.383,62.612,26.618c25.918-0.683,41.682-28.557,94.176-9.865
				c1.862,0.663,3.69,1.272,5.49,1.839l-5.078-16.902l-211.43-29.024C1044.496,621.205,1046.359,648.361,1098.727,648.54z"/>
		</g>
		<g>
			<polygon fill="#A5152A" points="982.591,875.141 1135.203,968.668 1195.802,869.376 1060.164,785.109 1052.18,797.777 
				1054.781,825.461 1038.905,830.081 1036.091,845.315 1005.287,855.136 			"/>
			<path fill="#B2B2B2" d="M1054.781,825.461l-15.876,4.62l-2.292,12.408c1.505,1.294,3.285,2.446,5.402,3.414
				c29.429,13.459,46.814-33.801,73.091,0.19c32.837,42.477,72.946,17.391,72.946,17.391l-127.888-78.375l-7.984,12.668
				L1054.781,825.461z"/>
			<path fill="#CAD2D3" d="M1054.625,823.8c0.471,0.202,0.943,0.403,1.443,0.585c18.772,6.831,41.237-12.508,71.182,18.501
				c31.26,32.372,60.801,20.597,60.801,20.597l-127.888-78.375l-7.984,12.668L1054.625,823.8z"/>
		</g>
		<g>
			<polygon fill="#911C27" points="550.89,1230.32 701.749,1175.811 706.372,1165.36 720.666,1146.004 735.398,1144.229 
				761.111,1117.199 783.605,1130.359 809.088,1122.333 821.968,1132.374 871.928,1114.322 832.101,1005.73 574.083,1098.935 
				574.906,1122.515 559.108,1132.116 548.551,1157.34 569.216,1181.804 548.849,1197.441 			"/>
			<path fill="#B2B2B2" d="M557.729,1130.371l-3.396,9.978c12.36,2.734,27.491,0.847,44.503-11.897
				c16.596-12.432,33.745,24.035,64.658,9.245c39.541-18.918,8.203-66.207,65.279-68.726c71.324-3.148,82.19-57.339,82.19-57.339
				l-238.875,86.31l-0.18,22.576L557.729,1130.371z"/>
			<path fill="#CAD2D3" d="M568.998,1122.539c4.636-1.689,9.667-3.903,15.128-6.762c23.092-12.088,44.253,9.414,70.566-5.394
				c23.485-13.216,24.331-47.027,81.72-54.952c59.909-8.273,74.551-43.802,74.551-43.802l-238.875,86.31l-0.18,22.576
				L568.998,1122.539z"/>
		</g>
		<g>
			<polygon fill="#A5152A" points="1002.425,792.061 1015.069,777.959 1004.964,765.651 1027.447,726.685 1018.549,711.074 
				1023.521,685.18 998.423,664.159 861.669,866.665 936.217,930.68 1018.447,827.361 			"/>
		</g>
		<g>
			<polygon fill="#911C27" points="839.884,1033.989 919.379,1119.388 1097.216,945.196 1071.534,933.102 1057.281,942.393 
				1041.617,935.938 1019.418,953.012 1007.727,942.666 964.335,955.588 946.128,928.995 			"/>
			<path fill="#B2B2B2" d="M930.477,993.696c-24.195,39.114,7.698,71.705-33.119,103.21l22.022,22.483L1048.922,992.5
				C1048.922,992.5,967.242,934.259,930.477,993.696z"/>
			<path fill="#CAD2D3" d="M953.504,1032.395c-13.252,49.224-17.406,62.786-42.108,78.843l7.983,8.15l127.508-124.895
				C1046.887,994.493,970.18,970.456,953.504,1032.395z"/>
		</g>
		<g>
			<polygon fill="#911C27" points="1259.852,904.316 1224.535,932.646 1209.806,927.473 1195.684,951.657 1178.743,951.585 
				1169.045,965.565 1140.699,964.048 1086.413,1089.256 1194.031,1135.916 1286.742,922.079 			"/>
			<path fill="#B2B2B2" d="M1194.927,1038.376c13.859-32.654-7.968-50.743-17.922-84.285l-7.96,11.474l-28.346-1.517
				l-54.286,125.208l3.58,1.552C1123.159,1054.521,1175.757,1083.54,1194.927,1038.376z"/>
			<path fill="#CAD2D3" d="M1161.684,1008.863c2.508-18.505,0.804-30.553-0.054-43.694l-20.932-1.12l-54.286,125.208l1.56,0.677
				C1120.638,1037.047,1154.674,1060.586,1161.684,1008.863z"/>
		</g>
		<polygon fill="#911C27" points="1462.821,727.744 1305.128,687.667 1311.822,726.069 1339.504,752.613 1325.055,791.403 
			1336.958,816.783 1433.929,841.427 		"/>
		<polygon fill="#A5152A" points="1267.701,795.112 1256.188,776.176 1231.406,768.508 1192.355,719.495 1105.962,740.67 
			1133.884,854.595 1264.322,822.626 		"/>
		<path fill="#911C27" d="M1308.019,1137.44l-18.207-26.593l-106.244,104.993l60.245,64.719
			c46.58-40.483,82.734-92.028,100.739-153.998L1308.019,1137.44z"/>
		<polygon fill="#A5152A" points="968.348,1343.193 1068.45,1323.173 1052.879,1344.305 1035.083,1346.53 1017.287,1369.887 		"/>
		<polygon fill="#A5152A" points="1173.001,1142.989 1184.68,1172.185 1215.545,1183.864 1229.726,1139.652 		"/>
	</g>
</g>
<g id="Layer_1">
</g>
</svg>
