<?xml version="1.0" encoding="utf-8"?>
<!-- Generator: Adobe Illustrator 27.2.0, SVG Export Plug-In . SVG Version: 6.00 Build 0)  -->
<svg version="1.1" xmlns="http://www.w3.org/2000/svg" xmlns:xlink="http://www.w3.org/1999/xlink" x="0px" y="0px"
	 viewBox="0 0 1510.646 1388.022" enable-background="new 0 0 1510.646 1388.022" xml:space="preserve">
<g id="trowel_x5F_paint_x5F_bubble">
	<g>
		<path fill="#FFFFFF" d="M760.47,736.392c0.14,0.437,0.289,0.87,0.43,1.306c-0.41-0.43-0.818-0.862-1.23-1.29
			C759.937,736.401,760.203,736.399,760.47,736.392z"/>
	</g>
	<path fill="#D9FDFF" d="M1101.787,252.223c-90.317-370.636-636.961-294.281-695.41-19.272
		C60.62,168.635-163.708,658.279,149.306,866.962C-9.669,1280.514,447.02,1519.41,712.099,1286.471
		c153.767,224.513,762.234,66.692,625.042-374.044C1612.301,815.245,1578.831,188.722,1101.787,252.223z M759.763,733.515
		c0.246-0.006,0.492-0.008,0.739-0.015c0.129,0.404,0.266,0.802,0.397,1.205C760.519,734.309,760.143,733.91,759.763,733.515z"/>
	<path fill="#FFDEC3" d="M712.099,1286.471c146.497,213.898,705.709,80.76,639.625-313.437H120.923
		C70.12,1319.303,470.615,1498.676,712.099,1286.471z"/>
	<path fill="#CAD2D3" d="M1337.14,912.427c184.609-65.201,230.292-368.669,96.304-542.166H706.812v820.771l641.635-235.31
		C1345.48,941.608,1341.732,927.178,1337.14,912.427z M759.763,733.515c0.246-0.006,0.492-0.008,0.739-0.015
		c0.129,0.404,0.266,0.802,0.397,1.205C760.519,734.309,760.143,733.91,759.763,733.515z"/>
	<path fill="#B2B2B2" d="M787.977,1236.671h498.448c64.387-79.2,93.045-188.254,50.715-324.244
		c167.437-59.136,220.591-314.274,129.064-490.674H787.977V1236.671z"/>
	<polygon fill="#A5152A" points="704.147,905.114 786.402,957.242 786.402,839.945 704.147,787.817 	"/>
	<rect x="786.402" y="839.945" fill="#A5152A" width="385.405" height="117.297"/>
	<polygon fill="#A5152A" points="704.147,1045.277 786.402,1097.405 786.402,980.108 704.147,927.98 	"/>
	<rect x="786.402" y="980.108" fill="#911C27" width="184.324" height="117.297"/>
	<polygon fill="#A5152A" points="704.147,764.951 786.402,817.079 786.402,699.781 704.147,647.653 	"/>
	<rect x="786.402" y="699.781" fill="#911C27" width="184.324" height="117.297"/>
	<polygon fill="#A5152A" points="704.147,1185.441 786.402,1237.569 786.402,1120.271 704.147,1068.143 	"/>
	<rect x="786.402" y="1120.271" fill="#911C27" width="385.405" height="117.297"/>
	<rect x="996.211" y="699.781" fill="#911C27" width="385.405" height="117.297"/>
	<polygon fill="#A5152A" points="704.147,484.624 786.402,536.752 786.402,419.455 704.147,367.897 	"/>
	<polygon fill="#FF4035" points="887.945,367.897 704.147,367.897 786.402,419.455 970.727,419.455 	"/>
	<polygon fill="#A5152A" points="704.147,624.787 786.402,676.915 786.402,559.618 704.147,507.49 	"/>
	<polygon fill="#911C27" points="1171.808,676.915 786.402,676.915 970.572,559.618 	"/>
	<polygon fill="#FF4035" points="1301.249,367.897 915.844,367.897 996.211,419.455 1381.616,419.455 	"/>
	<path fill="#A5152A" d="M1501.368,699.781h-94.966v117.297h47.58C1476.271,782.885,1492.188,742.71,1501.368,699.781z"/>
	<path fill="#911C27" d="M1437.386,839.945h-240.094v117.297h151.475c-3.014-14.596-6.87-29.535-11.627-44.815
		C1377.256,898.259,1410.808,872.836,1437.386,839.945z"/>
	<path fill="#A5152A" d="M996.211,1097.405h355.298c6.779-35.984,7.654-75.12,1.333-117.297H996.211V1097.405z"/>
	<path fill="#911C27" d="M1346.303,1120.271h-149.011v117.297h88.396C1313.301,1203.841,1334.42,1164.666,1346.303,1120.271z"/>
	<path fill="#FF4035" d="M1431.6,367.898h-105.565l80.367,51.557h58.597C1455.421,401.316,1444.299,384.03,1431.6,367.898z"/>
	<path fill="#B2B2B2" d="M1245.178,958.028H872.576c0,0,17.776,76.34,84.778,52.656c23.864-8.435,28.36,47.482,69.392,42.736
		c52.483-6.07,36.355-82.89,101.975-59.163C1210.722,1023.908,1245.178,958.028,1245.178,958.028z"/>
	<path fill="#CAD2D3" d="M1245.178,958.028H874.084c0,0,6.924,39.326,71.805,29.078c31.075-4.908,46.23,33.295,82.063,26.348
		c31.98-6.2,46.764-50.113,114.949-33.323C1214.08,997.66,1245.178,958.028,1245.178,958.028z"/>
	<g>
		<path fill="#B2B2B2" d="M1139.514,818.346H789.157c0,0,17.597,98.762,85.453,82.028c54.12-13.347,42.668-77.512,136.25-38.929
			C1095.549,896.362,1139.514,818.346,1139.514,818.346z"/>
		<path fill="#CAD2D3" d="M1139.514,818.346H792.005c0,0,37.979,70.848,93.234,38.268c63.37-37.365,61.222-34.941,137.489-12.277
			C1103.971,868.481,1139.514,818.346,1139.514,818.346z"/>
	</g>
	<g>
		<path fill="#B2B2B2" d="M1079.461,1098.496c-130.66,0-110.995,78.853-171.493,79.319c-56.631,0.437-40.283-79.319-115.467-79.319
			H1079.461z"/>
		<path fill="#CAD2D3" d="M1079.461,1098.496c-116.077,0-108.786,23.328-157.639,37.08c-56.325,15.856-39.374-37.08-129.321-37.08
			H1079.461z"/>
	</g>
	<path fill="#B2B2B2" d="M1095.143,1098.404c0,0,17.338,66.2,84.193,54.983c53.322-8.947,57.063-49.884,163.347-20.646
		c3.481-11.104,6.377-22.55,8.636-34.337H1095.143z"/>
	<path fill="#CAD2D3" d="M1097.95,1098.404c0,0,37.419,47.49,91.859,25.651c62.435-25.046,99.979-16.102,156.798-4.923
		c1.789-6.789,3.365-13.697,4.713-20.728H1097.95z"/>
	<polygon fill="#ED83B3" points="1172.174,840.076 1151.287,839.818 1160.122,899.394 1171.458,898.125 	"/>
	<path fill="#DB72AC" d="M903.055,1078.117c0,0-22.859,40.004-17.145,61.72c6.363,24.178,37.402,14.91,37.718-5.334
		C924.009,1110.12,903.055,1078.117,903.055,1078.117z"/>
	<path fill="#DB72AC" d="M864.893,1169.29c0,0-16.263,28.46-12.197,43.91c4.527,17.201,26.609,10.607,26.834-3.795
		C879.801,1192.058,864.893,1169.29,864.893,1169.29z"/>
	<ellipse fill="#FF50A8" cx="832.773" cy="1290.053" rx="24.168" ry="8.53"/>
	<path fill="#FF50A8" d="M956.628,1291.533c-37.93,0-68.679,10.695-68.679,23.888c0,3.927,2.742,7.63,7.57,10.898
		c-1.495-0.097-3.026-0.149-4.584-0.149c-16.821,0-30.458,5.882-30.458,13.139c0,7.256,13.636,13.139,30.458,13.139
		c16.821,0,30.458-5.882,30.458-13.139c0-1.264-0.422-2.484-1.194-3.641c10.561,2.304,23.043,3.641,36.429,3.641
		c37.93,0,68.679-10.695,68.679-23.888S994.558,1291.533,956.628,1291.533z"/>
	<rect x="786.402" y="450.831" fill="#DD72A7" width="677.022" height="250.024"/>
	<polygon fill="#ED83B3" points="1337.964,699.781 996.211,699.781 996.211,728.75 1019.667,773.445 1137.131,754.259 
		1147.24,817.079 1340.31,817.079 	"/>
	<polygon fill="#ED83B3" points="926.113,788.389 951.022,699.781 786.402,699.781 786.402,759.221 	"/>
	<polygon fill="#ED83B3" points="1197.292,892.623 1341.506,874.679 1340.768,837.74 1197.292,837.74 	"/>
	<polygon fill="#ED83B3" points="1171.808,559.618 786.402,559.618 786.402,676.915 951.367,676.915 966.123,620.789 
		981.765,676.915 1171.808,676.915 	"/>
	<path fill="#ED83B3" d="M970.727,419.718c-66.064-0.002-121.638-0.075-154.077-0.263h-30.248v117.297h184.324V419.718z"/>
	<path fill="#ED83B3" d="M1381.616,419.455h-123.45c-85.654,0.131-180.146,0.243-261.955,0.26v117.037h385.405V419.455z"/>
	<path fill="#ED83B3" d="M1464.995,419.455h-58.593v117.297h97.927c-0.081-0.467-4.423-28.448-13.991-56.961
		C1480.353,450.034,1465.124,419.698,1464.995,419.455z"/>
	<path fill="#ED83B3" d="M1197.292,676.915h308.287c5.927-38.157,6.697-77.969,2.07-117.297h-310.357V676.915z"/>
	<path fill="#DD72A7" d="M1326.833,759.951c62.281-13.347,50.08-74.19,168.136-35.312c4.328-15.173,7.773-30.797,10.319-46.717
		h-276.794C1228.494,677.923,1248.745,776.686,1326.833,759.951z"/>
	<path fill="#DD72A7" d="M1389.102,502.191c39.26-12.603,33.617-70.497,93.391-44.434c-5.019-12.852-10.722-25.414-17.119-37.594
		h-141.921C1323.452,420.162,1336.971,518.925,1389.102,502.191z"/>
	<path fill="#DD72A7" d="M1426.355,575.322c54.811-16.048,65.137,12.21,84.285,35.597c0.063-24.395-1.91-48.967-5.973-73.208
		h-227.612C1277.055,537.711,1321.228,606.102,1426.355,575.322z"/>
	<path fill="#FFAED3" d="M1339.065,716.191c95.684-44.148,160.106-11.803,161.043-11.573c2.012-8.785,3.74-17.693,5.18-26.695
		h-273.516C1231.772,677.923,1274.19,746.124,1339.065,716.191z"/>
	<path fill="#FFAED3" d="M1277.055,537.711c0,0,39.868,41.143,131.121,22.947c50.97-10.163,78.662,1.098,101.022,13.531
		c-0.993-12.2-2.504-24.38-4.531-36.478H1277.055z"/>
	<path fill="#FFAED3" d="M1397.268,458.431c38.3-29.395,45.454-34.161,75.29-23.823c-2.288-4.87-4.685-9.686-7.184-14.445H1325.64
		C1325.64,420.162,1354.818,491.011,1397.268,458.431z"/>
	<path fill="#DD72A7" d="M914.364,537.875h336.454c0,0-17.865,73.59-83.369,61.01c-65.504-12.579-70.467-49.06-152.844-13.208
		S914.364,537.875,914.364,537.875z"/>
	<path fill="#FFAED3" d="M920.482,537.875h330.337c0,0-17.54,36.313-81.853,30.106c-64.313-6.207-69.186-24.209-150.065-6.518
		S920.482,537.875,920.482,537.875z"/>
	<path fill="#DD72A7" d="M1279.657,420.36H800.836c0,0,22.844,71.269,108.947,49.158c30.667-7.875,36.445,44.328,89.173,39.897
		c67.444-5.667,46.719-77.384,131.046-55.233C1235.38,481.864,1279.657,420.36,1279.657,420.36z"/>
	<path fill="#FFAED3" d="M1279.657,420.36H800.836c0,0,10.836,36.714,94.214,27.147c39.934-4.582,59.409,31.083,105.457,24.598
		c41.097-5.788,60.095-46.785,147.718-31.109C1239.694,457.359,1279.657,420.36,1279.657,420.36z"/>
	<path fill="#DD72A7" d="M977.83,677.42c114.961,0,97.658,66.962,150.887,67.358c49.827,0.371,35.443-67.358,101.593-67.358H977.83z
		"/>
	<path fill="#FFAED3" d="M982.83,677.42c102.13,0,90.714,19.81,133.698,31.489c49.557,13.465,34.643-31.489,113.782-31.489H982.83z"
		/>
	<rect x="1147.24" y="817.079" fill="#DD72A7" width="193.103" height="22.866"/>
	<g>
		<path fill="#B2B2B2" d="M1318.155,859.699c33.245-17.163,41.477,11.602,52.482,37.094c33.105-18.656,60.637-45.777,82.273-78.484
			h-232.44L1318.155,859.699z"/>
		<path fill="#CAD2D3" d="M1306.261,844.782c51.243-18.016,66.53,22.321,88.449,36.251c22.597-16.995,42.043-38.299,58.2-62.723
			h-232.44C1220.47,818.31,1246.555,865.774,1306.261,844.782z"/>
	</g>
	<path fill="#DD72A7" d="M1340.343,817.721H1220.47c0,0,28.901,78.899,97.685,43.389c9.467-4.887,16.904-6.209,22.955-5.016
		L1340.343,817.721z"/>
	<path fill="#FFAED3" d="M1340.343,817.721H1220.47c0,0,26.085,47.464,85.791,26.472c13.867-4.876,25.097-5.472,34.542-3.481
		L1340.343,817.721z"/>
	<polygon fill="#DD72A7" points="1171.808,898.958 1171.808,839.945 1197.292,839.945 1197.292,893.958 	"/>
	<polygon fill="#DD72A7" points="977.83,699.781 996.211,728.787 996.211,699.781 	"/>
</g>
<g id="Layer_1">
</g>
</svg>
