<?xml version="1.0" encoding="utf-8"?>
<!-- Generator: Adobe Illustrator 24.2.3, SVG Export Plug-In . SVG Version: 6.00 Build 0)  -->
<svg version="1.1" xmlns="http://www.w3.org/2000/svg" xmlns:xlink="http://www.w3.org/1999/xlink" x="0px" y="0px"
	 viewBox="0 0 1682.172 1062.06" enable-background="new 0 0 1682.172 1062.06" xml:space="preserve">
<g id="autumn_x5F_leaves_x5F_pile">
	<path fill="#B5D700" d="M1526.703,464.312c195.647,180.213,65.822,507.368-200.174,507.368H665.128
		c0,0-203.744,5.571-390.127-131.874C87.722,701.699,57.961,532.1,148.623,424.953c90.662-107.148,157.518-77.787,182.244-113.504
		s-39.479-149.766,59.57-204.244c164.84-90.662,181.143,64.434,255.02,59.495c64.015-4.28,148.794-96.157,264.184-27.474
		s98.905,167.588,184.074,228.031s258.253-54.948,425.841,90.662C1521.975,460.02,1524.357,462.151,1526.703,464.312z"/>
	<path fill="#0EB800" d="M943.246,581.937l-20.627,24.264l25.429,0.388l0.227,13.861l37.358-9.695l-27.45,28.032l13.838,3.18
		l-15.819,21.926l15.126-0.133l-12.206,27.531l2.201-0.534l28.885-9.434l3.029,1.96l1.221,9.967l31.943-23.208l4.79,2.454
		l0.714,26.955l2.74-1.825l6.68-3.895l3.704,6.858l7.736,15.989l3.791-9.646l23.61,33.966l7.357-37.732l8.738,8.832l0.128-26.731
		l15.794,5.681l-7.161-14.615l-8.114-20.164l3.535,0.112l40.363,9.249l3.653,0.431l-7.097-11.166l31.157-0.601l-20.072-22.764
		l13.854-5.887l-24.662-19.633l9.919-5.176l-40.777-24.085l41.484-0.821l-4.896-13.161l10.075-3.25l11.916-4.624l-26.075-13.976
		l12.492-9.737l-28.379-7.516l10.874-7.179l-99.123-5.644l-13.985-70.314l-13.544,3.249l15.272,69.921l-92.962,41.016l17.632,7.367
		l-21.589,15.398L943.246,581.937L943.246,581.937z"/>
	<path fill="#FF8000" d="M1117.298,685.484c5.295,2.146,17.646,5.117,19.142,5.611c-13.741,2.441-25.578,4.765-38.831,7.356
		c-16.711,0.971-30.474,26.744-9.532,39.312c6.986,4.752,14.285,6.785,30.077,9.586c-22.31,5.48-46.851,7.768-62.168,26.449
		c-22.312,29.258,25.439,32.617,44.669,33.989c-8.386,13.946-18.814,27.565-24.309,42.988c-5.325,16.52,4.14,32.208,19.453,30.898
		c19.957-4.686,32.897-29.47,43.263-45.747c1.653,18.119,12.4,57.982,36.903,42.117c26.369-14.379,17.309-79.514,19.514-91.506
		c4.394,13.156,8.049,26.204,20.146,34.157c8.909,5.725,18.53,4.041,23.806-4.581c16.201-26.476-6.245-55.259-10.592-71.246
		c2.294,1.516,21.915,23.968,33.875,10.575c7.372-8.256,9.101-21.048,5.468-31.191c-6.665-18.604-40.999-55.378-43.973-58.796
		c0,0-109.237-43.979-116.214,2.878C1106.695,677.047,1108.414,681.884,1117.298,685.484z"/>
	<path fill="#A45700" d="M1125.863,805.589c3.583-5.836,114.984-187.787,121.056-197.587l15.068,9.546
		c-6.006,8.86-126.139,186.706-129.793,192.039L1125.863,805.589z"/>
	<path fill="#00A038" d="M504.316,702.854l-14.383,31.456l26.69-7.113l4.336,14.419l36.176-21.177l-20.399,37.411l15.401-0.768
		l-10.05,27.591l15.768-4.611l-4.616,32.38l2.142-1.208l27.397-18.399l3.745,1.153l4.223,10.055l26.521-33.698l5.732,1.148
		l8.716,27.959l2.324-2.717l5.829-6.045l5.898,6.072l12.812,14.423l1.11-11.201l34.716,28.516l-3.466-41.608l11.743,6.646
		l-7.769-27.973l18.185,1.268l-11.804-13.157l-14.441-18.675l3.727-0.928l44.917-2.267l3.945-0.63l-10.718-9.571l32.384-9.839
		L733.4,693.908l12.739-10.248l-31.578-13.227l8.836-8.342l-49.736-13.115l43.111-13.122l-9.008-12.306l9.568-6.375l11.086-8.355
		l-31.382-6.897l10.176-13.869l-31.88,0.535l9.242-10.718l-105.258,23.407l-35.403-69.348l-13.194,7.4l36.632,68.556l-85.026,70.348
		l20.605,2.486l-18.009,22.474L504.316,702.854L504.316,702.854z"/>
	<path fill="#00A038" d="M520.338,648.362l36.635,13.172l-10.49-29.266l15.764-6.22l-27.157-38.583l43.88,19.359l-2.311-17.202
		l31.892,8.676l-6.656-17.252l36.752,2.13l-1.557-2.289l-23.215-28.998l0.94-4.308l10.881-5.683l-40.292-26.575l0.748-6.537
		l30.539-12.407l-3.266-2.351l-7.329-5.969l6.256-7.187l14.971-15.727l-12.668-0.191l28.717-41.621l-46.342,7.804l6.349-13.797
		l-30.644,11.346l-0.289-20.516l-13.646,14.478l-19.587,17.955l-1.392-4.093l-6.77-50.166l-1.078-4.366l-9.726,12.923
		l-14.084-35.396l-17.419,32.757l-12.693-13.324l-11.863,36.663l-10.188-9.126l-10.03,57.019l-18.775-47.119l-12.955,11.261
		l-8.051-10.132l-10.414-11.648l-4.783,35.848l-16.514-10.108l3.6,35.707l-12.891-9.357l36.16,115.857l-74.451,46.235l9.542,14.102
		l73.447-47.539l86.906,88.746l0.85-23.345l26.902,18.084L520.338,648.362L520.338,648.362z"/>
	<path fill="#FFE400" d="M535.469,492.047c5.525-0.681,17.45-4.003,18.958-4.292c-10.544,8.589-19.522,16.176-29.579,24.662
		c-13.769,8.744-13.277,37.211,10.509,37.99c8.2,0.736,15.378-0.991,30.152-6.088c-16.4,15.236-36.213,28.812-40.404,51.976
		c-5.136,35.484,37.115,15.72,54.139,7.778c-0.533,15.848-2.96,32.385-0.332,48.121c3.293,16.59,18.785,25.463,31.203,17.092
		c14.773-13.445,14.049-40.68,15.163-59.451c9.992,14.645,38.03,43.496,51.377,18.378c15.641-24.737-22.935-75.906-26.739-87.162
		c9.974,9.121,19.269,18.499,33.337,19.539c10.299,0.654,17.692-5.339,18.1-15.18c1.251-30.22-31.499-44.094-42.775-55.647
		c2.672,0.204,30.017,10.025,33.854-7.045c2.366-10.523-2.223-22.234-10.122-29.15c-14.49-12.683-61.147-27.729-65.299-29.23
		c0,0-113.851,14.308-97.592,57.512C522.443,489.887,526.198,493.19,535.469,492.047z"/>
	<path fill="#FFD200" d="M599.667,590.257c0.286-6.667,8.935-214.378,9.462-225.599l17.353,0.989
		c-0.916,10.389-18.946,218.742-19.53,225.014L599.667,590.257z"/>
	<path fill="#0EB800" d="M1376.385,713.145l37.408-0.03l-19.018-23.038l12.224-10.759l-37.119-26.029l45.974,3.203l-7.694-14.797
		l31.656-2.548l-11.638-13.427l33.917-10.049l-2.153-1.562l-30.434-18.649l-0.554-4.201l7.984-8.682l-45.081-10.895l-1.453-6.153
		l23.563-21.165l-3.718-1.061l-8.57-3.008l3.313-8.535l8.409-19.095l-11.513,3.955l12.398-46.981l-39.348,22.153l1.244-14.541
		l-24.004,20.241l-6.946-18.452l-7.618,17.534l-11.856,22.612l-2.592-3.247l-22.465-43.142l-2.397-3.595l-4.582,14.85
		l-24.264-27.408l-5.074,35.286l-15.815-7.908l1.221,37.007l-12.183-4.93l9.511,54.81l-32.324-36.476l-8.042,14.401l-10.578-6.536
		l-13.209-7.136l7.356,33.963l-18.221-3.757l14.888,31.105l-14.702-4.259l70.435,92.949l-52.236,66.052l13.22,9.639l50.904-66.904
		l107.474,51.907l-6.838-21.38l30.211,7.582L1376.385,713.145L1376.385,713.145z"/>
	<path fill="#B5D700" d="M625.343,253.176l-33.328-11.983l9.543,26.625l-14.341,5.659l24.705,35.1l-39.919-17.612l2.102,15.65
		l-29.013-7.893l6.055,15.695l-33.435-1.938l1.416,2.083l21.12,26.38l-0.856,3.919l-9.899,5.17l36.655,24.176l-0.681,5.947
		l-27.782,11.287l2.971,2.139l6.667,5.43l-5.691,6.538l-13.62,14.308l11.524,0.174l-26.125,37.864l42.159-7.099l-5.776,12.552
		l27.878-10.322l0.263,18.664l12.414-13.171l17.819-16.334l1.266,3.724l6.159,45.638l0.981,3.972l8.848-11.756l12.812,32.201
		l15.847-29.8l11.547,12.121l10.793-33.353l9.268,8.302l9.125-51.872l17.08,42.866l11.786-10.245l7.324,9.217l9.474,10.597
		l4.351-32.612l15.023,9.196l-3.275-32.484l11.727,8.513l-32.895-105.399l67.73-42.062l-8.681-12.829l-66.817,43.248l-79.061-80.735
		l-0.773,21.238l-24.474-16.452L625.343,253.176L625.343,253.176z"/>
	<path fill="#00A038" d="M841.169,315.437l-23.297,20.5l24.466,3.945l-1.727,13.398l37.385-4.102l-30.405,23.175l12.897,5.01
		l-18.333,18.92l14.604,1.996l-15.636,24.832l2.197-0.206l29.177-5.04l2.645,2.315l-0.222,9.782l34.061-17.893l4.275,3.039
		l-3.097,26.092l2.898-1.375l6.988-2.817l2.608,7.133l5.214,16.504l5.01-8.768l17.995,36.068l12.393-35.35l7.186,9.743l3.878-25.757
		l14.431,7.697l-4.852-15.099l-4.992-20.583l3.393,0.604l37.621,14.587l3.462,0.928l-5.275-11.764l30.128,3.796l-16.157-24.769
		l14.186-3.73l-21.023-22.395l10.292-3.598l-35.937-28.952l40.116,5.035l-2.873-13.378l10.171-1.719l12.14-2.785l-23.18-17.139
		l13.413-7.635l-26.309-11.233l11.494-5.395l-94.787-19.364l-3.61-69.765l-13.517,1.231l4.907,69.566l-95.4,26.494l15.967,9.58
		l-22.979,11.815L841.169,315.437L841.169,315.437z"/>
	<path fill="#FFE400" d="M1178.509,419.21c45.12-57.309-18.555-152.08-85.293-154.473c-25.813-2.249-50.344,8.801-69.919,25.262
		c-20.633,16.621-30.81,43.638-27.342,69.731c1.909,16.996,17.817,50.698,29.893,64.3c27.29,30.741,70.932,41.091,109.557,25.907
		c-0.004-0.009-0.009-0.016-0.013-0.025C1152.248,444.159,1167.166,432.849,1178.509,419.21z"/>
	<path fill="#FFD200" d="M1150.027,443.293c-22.632-19.541-71.388-59.945-71.388-59.945l24.028-18.463
		c27.556,13.11,58.472,23.524,85.957,36.784c2.248-5.674,3.71-11.547,4.451-17.529c-26.536-8.799-80.944-29.019-80.944-29.019
		s40.85-32.292,57.712-45.202l-9.052-10.973c0,0,0,0,0.001,0.002c-0.001-0.001-51.541,39.499-51.541,39.499l-16.83-73.766
		c-6.28-0.481-12.482-0.184-18.552,0.789c8.284,25.622,15.727,51.518,23.741,77.228l-31.364,23.309c0,0-32.435-55.265-43.969-75.156
		c-4.701,3.933-8.844,8.407-12.376,13.295c15.728,22.505,45.828,69.979,45.828,69.979l-114.552,85.504l15.875,20.507
		c9.191-7.318,112.163-88.59,112.163-88.59s43.605,39.041,64.999,58.834c0.396-0.15,0.795-0.286,1.191-0.442
		c-0.004-0.009-0.009-0.016-0.013-0.025C1140.461,448.182,1145.352,445.941,1150.027,443.293z"/>
	<path fill="#A45700" d="M618.574,166.665c-10.241-35.666-43.452-74.237-83.294-78.579
		c-89.704,15.505-137.435,131.703-43.393,179.339C571.676,300.993,638.393,237.203,618.574,166.665z"/>
	<path fill="#D47A00" d="M539.401,88.748c0.023,6.673,0.326,276.757,0.319,287.991l-17.38-0.185
		c0.435-10.421,9.472-281.58,9.765-287.872C534.851,87.603,536.84,87.747,539.401,88.748z"/>
	<path fill="#00A038" d="M904.809,225.388l30.516,5.634l-12.027-21.668l11.598-6.927l-26.34-26.845l37.014,9.567l-4.037-13.233
		l26.206,2.71l-7.462-12.712l29.184-3.066l-1.52-1.6l-22.003-19.814l0.184-3.51l7.826-5.874l-35.123-15.705l-0.255-5.238
		l22.421-13.699l-2.872-1.428l-6.535-3.75l3.993-6.461l9.747-14.303l-9.989,1.484l17.219-36.445l-35.446,12.118l3.214-11.672
		l-22.641,12.879l-2.874-16.101l-8.866,13.149l-13.09,16.65l-1.623-3.04l-11.798-38.587l-1.411-3.295l-5.983,11.42L856.391,0
		l-9.476,28.014l-11.703-8.843l-4.601,30.37l-9.191-5.864l-0.533,46.145l-20.848-34.641l-8.738,10.53l-7.64-6.931l-9.695-7.819
		l0.863,28.815l-14.294-5.82l7.439,27.623l-11.347-5.697l43.391,86.468l-52.598,45.975l9.325,9.862l51.64-46.871l79.811,58.595
		l-2.344-18.473l23.495,10.754L904.809,225.388L904.809,225.388z"/>
	<path fill="#0EB800" d="M1640.211,686.943c65.367-32.363,48.588-145.299-10.648-176.135c-22.342-13.122-49.242-13.683-73.99-7.23
		c-25.772,6.143-46.571,26.167-54.651,51.219c-5.579,16.167-5.694,53.435-0.635,70.906c11.434,39.484,46.396,67.582,87.798,70.467
		c0-0.009-0.001-0.018-0.001-0.028C1605.777,698.189,1624.108,694.386,1640.211,686.943z"/>
	<path fill="#00A038" d="M1604.144,696.452c-12.04-27.37-38.706-84.803-38.706-84.803l29.63-6.349
		c19.25,23.679,42.693,46.365,61.813,70.148c4.468-4.158,8.312-8.833,11.551-13.916c-20.181-19.347-60.624-60.982-60.624-60.982
		s50.762-11.608,71.534-16.02l-3.459-13.798c0,0,0,0,0,0.002c0-0.002-63.512,13.522-63.512,13.522l16.497-73.841
		c-5.464-3.133-11.192-5.529-17.092-7.259c-3.529,26.696-7.934,53.277-11.744,79.937l-38.336,7.572c0,0-5.543-63.84-7.412-86.757
		c-5.935,1.531-11.598,3.792-16.888,6.688c4.532,27.079,11.315,82.881,11.315,82.881l-140.177,27.991l5.524,25.338
		c11.444-2.659,139.346-31.804,139.346-31.804s22.6,53.989,33.415,81.054c0.422,0.035,0.841,0.083,1.265,0.113
		c0-0.009-0.001-0.018-0.001-0.028C1593.406,696.757,1598.785,696.834,1604.144,696.452z"/>
	<path fill="#FFE400" d="M790.226,133.997c4.368-72.809-101.992-114.326-158.172-78.221c-22.484,12.877-36.329,35.947-43.017,60.633
		c-7.466,25.421-0.413,53.417,17.32,72.87c11.263,12.871,43.554,31.477,61.231,35.761c39.95,9.682,81.7-6.712,104.763-41.216
		c-0.008-0.005-0.017-0.008-0.025-0.013C782.888,169.47,788.69,151.67,790.226,133.997z"/>
	<path fill="#FFD200" d="M780.57,170.025c-29.736-3.14-92.829-8.514-92.829-8.514l9.203-28.871
		c30.112-4.951,61.445-14.033,91.583-18.82c-1.391-5.943-3.54-11.601-6.343-16.936c-26.815,7.91-83.036,22.339-83.036,22.339
		s15.131-49.825,21.617-70.047l-13.694-3.849c0,0,0,0,0.002,0.001c-0.002-0.001-19.801,61.843-19.801,61.843l-55.902-50.987
		c-5.433,3.187-10.357,6.969-14.788,11.231c21.42,16.319,42.305,33.343,63.553,49.888l-12.464,37.035
		c0,0-58.166-26.89-78.985-36.648c-1.618,5.912-2.468,11.95-2.581,17.98c25.755,9.513,77.559,31.335,77.559,31.335L618.35,302.577
		l24.736,7.788c3.374-11.254,41.589-136.744,41.589-136.744s58.085,7.193,86.948,11.245c0.24-0.349,0.49-0.689,0.726-1.042
		c-0.008-0.005-0.017-0.008-0.025-0.013C775.502,179.497,778.24,174.866,780.57,170.025z"/>
	<path fill="#0EB800" d="M484.099,59.579c-19.657-28.153-48.452-48.74-81.109-59.007l16.617,112.333l25.87,95.517l14.7,73.752
		c7.912-1.86,15.697-3.796,23.67-5.67c0,0-22.538-69.159-23.423-72.729C519.177,178.26,517.641,105.384,484.099,59.579z"/>
	<path fill="#00A038" d="M359.505,63.506c-12.574,34.91-14.612,78.654,6.775,110.467c17.459,25.487,48.389,40.844,79.342,35.055
		L402.99,0.572C383.47,17.453,368.692,39.629,359.505,63.506z"/>
	<path fill="#D47A00" d="M637.344,723.333l-31.307-5.838l12.303,22.258l-11.915,7.087l26.981,27.598l-37.968-9.886l4.119,13.588
		l-26.888-2.829l7.634,13.059l-29.956,3.093l1.557,1.645l22.543,20.375l-0.195,3.602l-8.042,6.014l36.015,16.182l0.252,5.376
		l-23.035,14.017l2.945,1.471l6.7,3.86l-4.11,6.623l-10.029,14.66l10.254-1.505l-17.738,37.369l36.398-12.37l-3.32,11.972
		l23.259-13.175l2.92,16.529l9.123-13.478l13.465-17.063l1.66,3.123l12.036,39.621l1.442,3.384l6.161-11.708l16.008,26.737
		l9.776-28.731l11.994,9.096l4.778-31.158l9.422,6.035l0.632-47.355l21.331,35.589l8.987-10.79l7.827,7.127l9.935,8.042
		l-0.832-29.573l14.658,6l-7.583-28.361l11.635,5.868l-44.37-88.817l54.063-47.084l-9.552-10.138l-53.081,48.005l-81.796-60.28
		l2.371,18.962l-24.091-11.08L637.344,723.333L637.344,723.333z"/>
	<path fill="#FF8000" d="M868.672,587.913c-28.542,20.665-49.159,50.574-59.119,84.264l114.971-19.028l97.554-28.226l75.417-16.382
		c-2.047-8.086-4.171-16.04-6.234-24.188c0,0-70.566,24.343-74.214,25.315C989.832,549.831,915.081,552.689,868.672,587.913z"/>
	<path fill="#D47A00" d="M874.894,715.688c36.042,12.288,80.963,13.609,113.229-8.896c25.845-18.364,41.057-50.37,34.573-82.029
		l-213.143,47.414C827.218,691.909,850.233,706.681,874.894,715.688z"/>
	<path fill="#0EB800" d="M747.435,699.721c-54.677,51.122-4.815,157.154,62.512,169.955c25.835,6.294,52.437-1.103,74.853-14.758
		c23.513-13.653,38.037-39.478,38.574-66.486c0.706-17.537-10.194-54.197-20.329-69.872
		c-22.905-35.425-65.567-52.708-107.108-43.309c0.003,0.009,0.006,0.018,0.009,0.027
		C777.953,678.494,761.062,687.648,747.435,699.721z"/>
	<path fill="#00A038" d="M780.071,679.718c19.921,23.34,63.099,71.904,63.099,71.904l-27.243,14.995
		c-25.916-17.582-55.658-32.951-81.477-50.674c-3.162,5.407-5.558,11.137-7.239,17.089c25.551,13.051,77.6,42.018,77.6,42.018
		s-46.457,26.408-65.568,36.883l7.477,12.538c0,0,0,0-0.001-0.002c0.001,0.002,58.422-32.057,58.422-32.057l5.607,77.444
		c6.296,1.464,12.633,2.126,18.942,2.083c-4.421-27.279-7.946-54.704-12.079-82.03l35.438-18.77c0,0,24.313,61.103,32.921,83.072
		c5.38-3.259,10.278-7.154,14.62-11.563c-12.456-25.273-35.612-78.11-35.612-78.11l129.491-68.931l-12.916-23.27
		c-10.461,5.995-127.547,72.433-127.547,72.433s-38.165-46.381-56.791-69.784c-0.425,0.09-0.851,0.167-1.276,0.263
		c0.003,0.009,0.007,0.018,0.009,0.027C790.534,676.245,785.225,677.759,780.071,679.718z"/>
	<path fill="#FFE400" d="M693.606,467.117c39.133,63.81,153.004,36.198,179.032-27.2c11.341-24.05,9.423-51.595,0.535-76.292
		c-8.666-25.772-31.058-45.174-57.411-51.111c-17.04-4.204-55.141-0.869-72.529,5.92c-39.295,15.344-64.774,53.68-63.887,96.262
		c0.01-0.001,0.019-0.003,0.028-0.004C678.922,432.966,684.507,451.349,693.606,467.117z"/>
	<path fill="#FFD200" d="M680.546,431.136c26.858-14.842,83.087-47.416,83.087-47.416l9.233,29.695
		c-22.417,21.868-43.432,47.929-65.968,69.675c4.664,4.181,9.798,7.677,15.293,10.516c17.904-22.418,56.711-67.61,56.711-67.61
		s16.567,50.806,23,71.627l13.781-4.813c0,0,0,0-0.002,0c0.002-0.001-19.704-63.66-19.704-63.66l76.998,10.02
		c2.696-5.875,4.614-11.951,5.835-18.141c-27.611-1.133-55.187-3.173-82.787-4.598l-11.29-38.48c0,0,64.734-11.58,87.983-15.613
		c-2.115-5.924-4.95-11.502-8.4-16.64c-27.256,7.141-83.66,19.243-83.66,19.243l-41.594-140.674l-25.385,7.993
		c3.778,11.45,45.414,139.472,45.414,139.472s-53.086,28.1-79.745,41.661c0.003,0.435-0.007,0.867,0.002,1.303
		c0.01-0.001,0.019-0.003,0.028-0.004C679.239,420.189,679.659,425.694,680.546,431.136z"/>
	<path fill="#A45700" d="M1053.672,446.432c-16.218-31.283-42.751-56.096-74.598-70.927l1.821,116.521l13.493,100.655l5.052,77.01
		c8.3-0.829,16.48-1.754,24.844-2.59c0,0-13.643-73.39-14.064-77.141C1073.422,571.89,1081.646,497.539,1053.672,446.432z"/>
	<path fill="#D47A00" d="M926.381,433.695c-17.481,33.829-25.429,78.062-7.942,113.3c14.341,28.275,43.747,48.053,76.016,46.321
		l-15.381-217.811C956.947,390.059,938.934,410.636,926.381,433.695z"/>
	<path fill="#FFE400" d="M1389.762,710.448c1.515-5.509,3.028-18.122,3.344-19.665c4.025,13.363,7.711,24.849,11.828,37.71
		c2.91,16.484,30.111,27.153,40.154,4.89c3.906-7.492,5.076-14.978,6.018-30.989c8.04,21.52,13.171,45.628,33.508,58.666
		c31.657,18.753,29.433-29.064,28.557-48.323c14.828,6.705,29.568,15.477,45.526,19.138c17.028,3.366,31.507-7.862,28.422-22.919
		c-6.978-19.276-33.1-29.242-50.473-37.642c17.803-3.752,56.144-19.068,37.534-41.556c-17.352-24.516-80.988-7.932-93.156-8.726
		c12.555-5.896,25.089-11.045,31.578-23.986c4.649-9.515,1.855-18.874-7.322-23.11c-28.182-13.008-54.156,12.637-69.528,18.816
		c1.239-2.455,21.253-24.557,6.559-34.876c-9.058-6.361-21.965-6.588-31.616-1.799c-17.701,8.786-50.227,47.168-53.276,50.52
		c0,0-30.96,113.615,16.391,115.089C1382.617,721.962,1387.221,719.692,1389.762,710.448z"/>
	<path fill="#FFD200" d="M1508.052,687.956c-6.214-2.879-199.898-92.336-210.339-97.225l7.726-16.076
		c9.499,4.933,200.124,103.541,205.846,106.549L1508.052,687.956z"/>
	<path fill="#0EB800" d="M755.274,521.359l-11.799,29.58l24.222-7.753l4.642,13.063l32.307-21.117l-17.061,35.33l14.129-1.405
		l-7.99,25.829l14.292-4.956l-2.775,29.987l1.915-1.208l24.36-18.164l3.496,0.89l4.34,9.055l22.859-32.193l5.323,0.795l9.284,25.316
		l2.014-2.604l5.086-5.824l5.7,5.316l12.437,12.682l0.512-10.351l33.22,24.648l-5.077-38.106l11.101,5.579l-8.414-25.372
		l16.781,0.341l-11.453-11.563l-14.128-16.518l3.386-1.023l41.203-4.124l3.6-0.758l-10.291-8.315l29.334-10.519l-26.29-15.162
		l11.249-10.002L947.147,482l7.747-8.073l-46.333-9.803l39.05-14.025l-8.842-10.908l8.51-6.297l9.816-8.187l-29.173-4.918
		l8.728-13.216l-29.293,1.939l8.013-10.276l-95.735,26.304l-35.706-62.167l-11.798,7.404l36.8,61.383l-74.997,68.554l19.062,1.351
		l-15.541,21.485L755.274,521.359L755.274,521.359z"/>
	<path fill="#0EB800" d="M292.231,209.739c-33.968,9.374-63.746,30.18-84.863,58.256l114.363,22.397l101.264,7.687l76.382,11.038
		c0.911-8.291,1.704-16.486,2.622-24.841c0,0-74.623-1.883-78.38-2.249C419.057,216.451,348.03,192.978,292.231,209.739z"/>
	<path fill="#00A038" d="M253.357,331.616c29.465,24.12,71.086,41.074,109.186,31.28c30.636-8.161,56.085-32.823,61.086-64.75
		l-216.262-30.151C217.013,292.66,233.406,314.551,253.357,331.616z"/>
	<path fill="#FF8000" d="M754.727,176.919c0.407,5.699,3.184,18.096,3.4,19.656c-8.248-11.258-15.551-20.86-23.718-31.614
		c-8.237-14.573-37.438-15.568-39.489,8.77c-1.187,8.366,0.205,15.813,4.652,31.223c-14.752-17.611-27.622-38.631-51.142-44.147
		c-36.097-7.133-18.066,37.21-10.823,55.076c-16.215-1.381-33.035-4.74-49.301-2.874c-17.176,2.501-27.086,17.912-19.161,31.08
		c13.002,15.849,40.953,16.541,60.131,18.672c-15.536,9.47-46.581,36.686-21.541,51.688c24.529,17.333,79.003-19.508,90.74-22.814
		c-9.873,9.742-19.974,18.774-21.781,33.138c-1.213,10.521,4.54,18.414,14.604,19.35c30.906,2.874,46.85-29.961,59.284-40.908
		c-0.35,2.727-11.856,30.236,5.437,35.068c10.66,2.979,22.905-1.107,30.409-8.839c13.762-14.182,31.639-61.209,33.397-65.385
		c0,0-8.668-117.438-53.804-103.05C757.627,163.683,754.043,167.357,754.727,176.919z"/>
	<path fill="#A45700" d="M650.692,237.542c6.818,0.644,219.242,20.449,230.715,21.579l-1.928,17.732
		c-10.6-1.486-223.188-30.938-229.586-31.867L650.692,237.542z"/>
	<path fill="#D47A00" d="M945.84,300.782c-1.153-5.446-5.487-17.042-5.903-18.519c9.463,9.767,17.792,18.061,27.11,27.352
		c9.894,12.968,38.214,10.034,36.948-13.731c0.03-8.233-2.307-15.237-8.654-29.518c16.588,15.032,31.815,33.606,55.253,35.793
		c35.794,2.071,12.476-38.327,3.101-54.607c15.836-0.83,32.52,0.169,47.972-3.801c16.246-4.705,23.757-20.902,14.35-32.555
		c-14.664-13.564-41.736-10.505-60.533-10.004c13.733-11.213,40.071-41.624,13.9-52.765c-25.989-13.459-73.657,29.366-84.545,34.123
		c8.231-10.721,16.777-20.786,16.605-34.892c-0.233-10.317-6.838-17.169-16.677-16.73c-30.216,1.348-41.227,35.168-51.769,47.394
		c-0.026-2.679,7.411-30.767-9.925-33.125c-10.687-1.454-21.961,4.124-28.173,12.587c-11.392,15.525-22.377,63.302-23.516,67.567
		c0,0,24.029,112.202,65.678,92.294C944.806,313.945,947.775,309.921,945.84,300.782z"/>
	<path fill="#A45700" d="M1038.176,228.39c-6.667,0.288-214.353,9.501-225.579,9.94l-0.504-17.373
		c10.43,0.021,219.561,0.098,225.86,0.142L1038.176,228.39z"/>
	<path fill="#D47A00" d="M1321.897,406.322l-35.461-5.123l14.854,24.455l-13.068,8.515l31.599,29.783l-43.135-9.366l5.255,15.085
		l-30.356-1.943l9.182,14.329l-33.532,4.854l1.826,1.777l26.279,21.867l-0.054,4.058l-8.763,7.13l41.23,16.534l0.531,6.032
		l-25.249,16.817l3.378,1.518l7.709,4.031l-4.316,7.634l-10.599,16.941l11.457-2.163l-18.221,42.823l40.347-15.58l-3.182,13.611
		l25.54-15.88l4.043,18.446l9.635-15.57l14.351-19.8l2.01,3.434l15.353,43.986l1.777,3.738l6.388-13.445l19.224,29.32l9.668-32.747
		l13.901,9.674l3.938-35.245l10.869,6.35l-1.468-53.262l25.616,39.025l9.606-12.542l9.127,7.652l11.538,8.583l-2.296-33.205
		l16.753,6.07l-9.829-31.532l13.349,6.061l-53.963-97.8l58.607-55.415l-11.204-10.957l-57.461,56.406l-94.722-63.999l3.538,21.207
		l-27.591-11.347L1321.897,406.322L1321.897,406.322z"/>
	<path fill="#FF8000" d="M1558.261,555.597c34.883-12.653,71.097-48.42,72.708-88.466c-21.594-88.436-140.78-128.121-181.883-31.046
		C1421.044,517.981,1489.241,580.187,1558.261,555.597z"/>
	<path fill="#D47A00" d="M1630.59,471.289c-6.656,0.479-276.088,19.224-287.297,19.984l-1.002-17.352
		c10.426-0.278,281.569-9.778,287.867-9.915C1631.422,466.671,1631.414,468.665,1630.59,471.289z"/>
	<path fill="#FFE400" d="M1449.056,287.159c-0.022,6.218,1.982,19.898,2.089,21.609c-8.034-12.89-15.178-23.905-23.166-36.241
		c-7.752-16.486-39.363-19.944-43.571,6.302c-1.969,8.982-1.065,17.178,2.506,34.264c-14.576-20.314-26.832-44.175-51.908-52.077
		c-38.594-10.68-22.637,38.912-16.231,58.892c-17.485-2.819-35.466-7.834-53.271-7.134c-18.845,1.315-30.855,17.233-23.326,32.17
		c12.82,18.259,43.098,21.286,63.739,25.161c-17.632,9.012-53.541,36.021-27.587,54.341c25.209,20.808,87.328-14.738,100.335-17.37
		c-11.508,9.769-23.207,18.749-26.337,34.19c-2.173,11.319,3.427,20.354,14.274,22.189c33.308,5.635,53.285-28.701,67.671-39.569
		c-0.602,2.931-15.329,31.849,3.045,38.501c11.327,4.101,24.948,0.663,33.721-7.116c16.09-14.271,39.322-63.852,41.569-68.241
		c0,0,0.156-128.158-50-116.219C1453.281,273.03,1449.093,276.726,1449.056,287.159z"/>
	<path fill="#FFD200" d="M1331.213,344.48c7.347,1.254,236.273,40.046,248.632,42.208l-3.536,19.087
		c-11.383-2.476-239.701-51.752-246.568-53.281L1331.213,344.48z"/>
	<path fill="#D47A00" d="M427.711,157.313c-2.784,4.821-7.313,16.342-7.991,17.719c-0.507-13.59-1.157-25.327-1.875-38.465
		c1.311-16.259-21.711-33.009-36.657-14.489c-5.526,6.103-8.47,12.873-13.298,27.738c-2.287-22.269-1.193-46.261-17.161-63.557
		c-25.235-25.47-34.901,20.162-38.813,38.536c-12.331-9.97-24.071-21.866-38.217-29.244c-15.227-7.362-31.641-0.338-32.437,14.617
		c1.837,19.891,24.016,35.714,38.329,47.908c-17.709-0.842-57.627,4.166-45.612,29.948c10.329,27.383,74.41,27.403,85.687,31.145
		c-13.288,2.47-26.373,4.242-35.675,14.847c-6.724,7.828-6.393,17.339,1.218,23.591c23.372,19.198,54.171,1.408,70.184-0.637
		c-1.772,2.01-26.08,17.926-14.764,31.27c6.976,8.226,19.089,11.615,29.367,9.474c18.851-3.93,58.961-32.117,62.66-34.527
		c0,0,57.141-99.507,12.858-112.546C437.28,148.216,432.381,149.224,427.711,157.313z"/>
	<path fill="#A45700" d="M310.645,149.42c5.15,4.243,165.762,136.237,174.404,143.415l-11.24,13.257
		c-7.743-6.988-163.218-146.857-167.874-151.101L310.645,149.42z"/>
	<path fill="#FFE400" d="M558.443,380.218c-4.845-2.741-16.406-7.169-17.789-7.834c13.585-0.627,25.315-1.38,38.447-2.214
		c16.269,1.168,32.817-22,14.166-36.783c-6.152-5.473-12.948-8.357-27.854-13.053c22.248-2.483,46.249-1.601,63.404-17.72
		c25.247-25.459-20.469-34.723-38.877-38.472c9.861-12.419,21.654-24.263,28.907-38.473c7.228-15.292,0.059-31.643-14.902-32.307
		c-19.874,2.012-35.501,24.329-47.568,38.75c0.686-17.716-4.674-57.588-30.348-45.347c-27.292,10.57-26.747,74.648-30.389,85.958
		c-2.587-13.266-4.474-26.334-15.161-35.543c-7.887-6.655-17.395-6.24-23.58,1.426c-18.991,23.54-0.931,54.181,1.254,70.176
		c-2.026-1.754-18.155-25.921-31.398-14.488c-8.164,7.048-11.447,19.191-9.215,29.449c4.096,18.816,32.635,58.676,35.077,62.353
		c0,0,100.006,56.263,112.654,11.867C567.625,389.706,566.574,384.816,558.443,380.218z"/>
	<path fill="#FFD200" d="M565.305,263.087c-4.197,5.187-134.772,166.955-141.874,175.66l-13.356-11.123
		c6.92-7.804,145.414-164.505,149.617-169.197L565.305,263.087z"/>
	<path fill="#8CD000" d="M900.621,220.489c-21.122-27.072-50.968-46.103-84.123-54.624l22.549,111.295l30.897,94.012l18.589,72.869
		c7.803-2.276,15.474-4.622,23.336-6.916c0,0-26.172-67.867-27.246-71.385C941.94,337.144,936.544,264.452,900.621,220.489z"/>
	<path fill="#0EB800" d="M776.41,231.015c-10.706,35.527-10.422,79.318,12.621,109.952c18.786,24.526,50.486,38.221,81.089,30.8
		l-53.623-205.902C797.9,183.757,784.318,206.686,776.41,231.015z"/>
	<path fill="#FFE400" d="M239.065,467.832c-2.054-5.174-8.279-15.874-8.939-17.26c10.973,8.033,20.581,14.805,31.331,22.394
		c11.938,11.116,39.358,3.452,34.106-19.76c-1.358-8.121-4.841-14.63-13.504-27.638c18.883,12.022,37.022,27.765,60.493,25.973
		c35.632-3.99,5.841-39.881-6.143-54.349c15.47-3.486,32.083-5.312,46.646-11.828c15.221-7.375,19.896-24.605,8.66-34.508
		c-16.74-10.9-42.909-3.323-61.353,0.338c11.648-13.366,32.485-47.78,4.811-54.353c-27.885-8.888-67.656,41.356-77.587,47.879
		c6.307-11.954,13.035-23.315,10.489-37.19c-1.968-10.13-9.633-15.771-19.258-13.681c-29.557,6.419-34.712,41.611-43.044,55.438
		c-0.477-2.637,2.122-31.575-15.364-30.979c-10.779,0.368-20.953,7.765-25.65,17.154c-8.614,17.222-11.392,66.167-11.797,70.564
		c0,0,42.589,106.55,80.289,79.91C240.263,480.981,242.512,476.514,239.065,467.832z"/>
	<path fill="#FFD200" d="M317.884,380.918c-6.523,1.407-209.688,45.479-220.679,47.803l-3.424-17.04
		c10.284-1.737,216.439-36.895,222.656-37.913L317.884,380.918z"/>
	<path fill="#FFE400" d="M599.452,881.754c2.31,5.241,9.12,16.003,9.852,17.402c-11.589-7.838-21.726-14.432-33.068-21.822
		c-12.699-10.97-40.595-2.041-34.306,21.622c1.707,8.297,5.538,14.855,14.942,27.896c-19.874-11.636-39.125-27.126-63.187-24.384
		c-36.479,5.467-4.476,41.225,8.398,55.639c-15.77,4.176-32.781,6.691-47.502,13.948c-15.366,8.165-19.511,26.059-7.581,35.808
		c17.627,10.564,44.241,1.772,63.062-2.698c-11.462,14.188-31.566,50.366-2.863,56.063c29.008,8.069,67.971-45.11,77.931-52.196
		c-6.026,12.531-12.507,24.469-9.359,38.636c2.411,10.339,10.507,15.845,20.322,13.327c30.14-7.732,34.092-44.11,42.128-58.644
		c0.592,2.692-0.972,32.543,16.983,31.26c11.068-0.791,21.243-8.786,25.713-18.618c8.195-18.036,9.176-68.461,9.424-72.997
		c0,0-47.868-107.909-85.605-79.076C597.716,868.282,595.576,872.961,599.452,881.754z"/>
	<path fill="#FFD200" d="M521.75,974.129c6.652-1.696,213.832-54.791,225.043-57.601l4.173,17.387
		c-10.506,2.18-221.102,46.224-227.453,47.509L521.75,974.129z"/>
	<path fill="#FFE400" d="M700.107,570.488c-45.12,57.309,18.555,152.08,85.293,154.473c25.813,2.249,50.344-8.801,69.919-25.262
		c20.633-16.621,30.81-43.638,27.342-69.731c-1.909-16.996-17.817-50.698-29.893-64.3c-27.29-30.741-70.932-41.091-109.557-25.907
		c0.004,0.009,0.009,0.016,0.013,0.025C726.369,545.539,711.45,556.849,700.107,570.488z"/>
	<path fill="#FFD200" d="M728.589,546.405c22.632,19.541,71.388,59.945,71.388,59.945l-24.028,18.463
		c-27.556-13.11-58.472-23.524-85.957-36.784c-2.248,5.675-3.71,11.547-4.451,17.529c26.536,8.799,80.944,29.019,80.944,29.019
		s-40.85,32.292-57.712,45.201l9.052,10.973c0,0,0,0-0.001-0.002c0.001,0.001,51.541-39.499,51.541-39.499l16.83,73.766
		c6.28,0.481,12.482,0.184,18.553-0.789c-8.284-25.622-15.727-51.518-23.741-77.228l31.364-23.309c0,0,32.435,55.265,43.969,75.156
		c4.701-3.933,8.843-8.407,12.376-13.295c-15.728-22.505-45.828-69.979-45.828-69.979l114.552-85.504l-15.875-20.507
		c-9.191,7.318-112.163,88.59-112.163,88.59s-43.605-39.041-64.999-58.834c-0.396,0.15-0.795,0.286-1.191,0.442
		c0.004,0.009,0.009,0.016,0.013,0.025C738.155,541.516,733.264,543.757,728.589,546.405z"/>
	<path fill="#FF8000" d="M180.33,440.384c-22.775-32.261-56.016-55.766-93.636-67.379l19.783,129.094l30.324,109.699l17.347,84.733
		c9.089-2.186,18.031-4.459,27.189-6.662c0,0-26.334-79.404-27.374-83.505C221.382,576.668,219.18,492.863,180.33,440.384z"/>
	<path fill="#D47A00" d="M37.06,445.644c-14.253,40.225-16.335,90.547,8.452,127.006c20.232,29.208,55.896,46.685,91.46,39.842
		L86.695,373.005C64.346,392.536,47.483,418.129,37.06,445.644z"/>
	<path fill="#A45700" d="M677.393,901.334c-9.675,35.823-1.192,86.011,30.666,110.327c84.799,33.11,185.736-41.669,129.87-131.069
		C786.99,810.605,696.901,830.71,677.393,901.334z"/>
	<path fill="#D47A00" d="M704.873,1008.964c3.431-5.724,142.819-237.059,148.634-246.671l14.78,9.145
		c-5.76,8.695-153.7,236.121-157.205,241.356C708.176,1012.297,706.548,1011.146,704.873,1008.964z"/>
	<path fill="#00A038" d="M1365.461,678.975l-33.996-6.277l13.399,24.138l-12.92,7.716l29.343,29.906l-41.234-10.657l4.497,14.742
		l-29.194-3.018l8.312,14.161l-32.512,3.416l1.693,1.782l24.511,22.073l-0.205,3.911l-8.718,6.544l39.128,17.496l0.284,5.836
		l-24.978,15.261l3.2,1.591l7.28,4.177l-4.449,7.197l-10.858,15.934l11.128-1.654l-19.182,40.6l39.487-13.499l-3.581,13.003
		l25.222-14.347l3.202,17.937l9.877-14.649l14.583-18.549l1.808,3.387l13.143,42.987l1.572,3.671l6.666-12.722l17.429,28.993
		l10.556-31.208l13.038,9.851l5.126-33.832l10.24,6.532l0.594-51.407l23.225,38.591l9.734-11.73l8.511,7.722l10.8,8.71
		l-0.962-32.101l15.924,6.484l-8.287-30.772l12.641,6.347l-48.339-96.327l58.595-51.217l-10.389-10.986l-57.528,52.215
		l-88.911-65.276l2.611,20.579l-26.174-11.98L1365.461,678.975L1365.461,678.975z"/>
	<path fill="#0EB800" d="M50.413,533.052c-78.533,38.882-58.375,174.565,12.792,211.612c26.842,15.765,59.16,16.44,88.894,8.687
		c30.964-7.381,55.951-31.437,65.658-61.535c6.703-19.424,6.841-64.198,0.762-85.188c-13.737-47.437-55.741-81.194-105.482-84.66
		c0,0.011,0.001,0.022,0.001,0.033C91.783,519.542,69.76,524.111,50.413,533.052z"/>
	<path fill="#00A038" d="M93.744,521.628c14.466,32.883,46.502,101.884,46.502,101.884l-35.598,7.627
		c-23.127-28.448-51.292-55.704-74.264-84.277c-5.368,4.996-9.986,10.612-13.877,16.719c24.246,23.244,72.835,73.265,72.835,73.265
		S28.357,650.793,3.4,656.093l4.156,16.577c0,0,0,0,0-0.002c0,0.002,76.305-16.245,76.305-16.245l-19.82,88.715
		c6.565,3.764,13.447,6.643,20.534,8.721c4.239-32.073,9.532-64.008,14.11-96.037l46.057-9.097c0,0,6.66,76.699,8.905,104.232
		c7.13-1.84,13.934-4.555,20.289-8.035c-5.445-32.534-13.594-99.575-13.594-99.575l168.411-33.629l-6.636-30.442
		c-13.749,3.195-167.413,38.21-167.413,38.21s-27.153-64.864-40.146-97.38c-0.507-0.042-1.011-0.1-1.52-0.135
		c0,0.011,0.001,0.022,0.001,0.033C106.646,521.262,100.183,521.169,93.744,521.628z"/>
	<path fill="#FFE400" d="M1103.871,841.658c-72.366,9.126-93.57,121.315-47.73,169.879c16.8,19.726,42.027,29.082,67.523,31.106
		c26.361,2.652,52.578-9.439,68.43-30.453c10.574-13.442,22.911-48.609,23.863-66.773c2.153-41.05-21.655-79.063-59.818-95.372
		c-0.003,0.009-0.005,0.018-0.008,0.027C1140.089,842.333,1121.525,839.911,1103.871,841.658z"/>
	<path fill="#FFD200" d="M1141.061,844.509c2.394,29.805,8.741,92.808,8.741,92.808l-30.072-3.724
		c-10.416-28.684-25.117-57.806-35.377-86.545c-5.585,2.462-10.75,5.617-15.477,9.356c12.716,24.898,37.26,77.497,37.26,77.497
		s-51.76-5.689-72.831-8.336l-1.259,14.169c0,0,0,0,0-0.002c0,0.002,64.433,8.064,64.433,8.064l-39.811,64.341
		c4.134,4.752,8.759,8.895,13.764,12.465c12.092-24.06,24.974-47.725,37.321-71.659l38.698,5.425c0,0-15.709,62.125-21.462,84.386
		c6.108,0.5,12.2,0.223,18.147-0.777c4.603-27.067,16.504-82.006,16.504-82.006l141.601,19.549l3.095-25.748
		c-11.683-1.243-142.067-15.674-142.067-15.674s-3.636-58.416-4.973-87.531c-0.387-0.172-0.767-0.355-1.158-0.521
		c-0.003,0.009-0.005,0.018-0.008,0.027C1151.305,847.744,1146.249,845.906,1141.061,844.509z"/>
	<path fill="#0EB800" d="M450.794,770.017c-31.239,20.421-54.561,51.021-66.799,86.159l122.592-14.324l104.63-24.934l80.613-13.522
		c-1.758-8.658-3.602-17.18-5.374-25.904c0,0-75.883,22.189-79.791,23.033C580.895,735.848,501.671,735.097,450.794,770.017z"/>
	<path fill="#00A038" d="M450.923,905.508c37.509,14.82,84.966,18.486,120.238-3.692c28.269-18.122,45.98-51.215,40.718-85.035
		l-227.884,39.395C401.687,877.943,425.289,894.734,450.923,905.508z"/>
	<path fill="#FFE400" d="M792.062,951.696c9.134,74.294,124.2,96.411,174.183,49.523c20.297-17.178,29.979-43.037,32.137-69.195
		c2.806-27.044-9.519-53.988-31.034-70.322c-13.761-10.895-49.811-23.666-68.449-24.702c-42.12-2.34-81.206,21.971-98.064,61.084
		c0.009,0.003,0.018,0.005,0.027,0.008C792.87,914.531,790.325,933.574,792.062,951.696z"/>
	<path fill="#FFD200" d="M795.106,913.539c30.595-2.362,95.27-8.674,95.27-8.674l-3.918,30.85
		c-29.469,10.598-59.402,25.592-88.928,36.029c2.509,5.739,5.73,11.049,9.552,15.913c25.591-12.971,79.648-37.991,79.648-37.991
		s-6.003,53.1-8.787,74.715l14.536,1.338c0,0,0,0-0.002,0c0.002,0,8.481-66.097,8.481-66.097l65.903,41.06
		c4.89-4.227,9.156-8.96,12.835-14.086c-24.653-12.486-48.898-25.782-73.42-38.528l5.69-39.696c0,0,63.705,16.319,86.532,22.294
		c0.533-6.267,0.268-12.519-0.74-18.626c-27.763-4.81-84.104-17.198-84.104-17.198l20.513-145.254l-26.414-3.259
		c-1.312,11.985-16.538,145.744-16.538,145.744s-59.96,3.545-89.843,4.824c-0.177,0.397-0.367,0.786-0.539,1.187
		c0.009,0.003,0.018,0.005,0.027,0.008C798.458,903.037,796.556,908.22,795.106,913.539z"/>
	<path fill="#0EB800" d="M941.94,947.558c12.688,32.874,36.339,60.447,66.366,78.683l10.973-116.018l-2.369-101.528l3.427-77.099
		c-8.341-0.086-16.573-0.065-24.978-0.152c0,0,5.509,74.443,5.516,78.218C936.072,820.69,919.74,893.69,941.94,947.558z"/>
	<path fill="#00A038" d="M1067.065,974.183c21.087-31.707,33.84-74.801,20.324-111.745c-11.152-29.678-38.211-52.562-70.476-54.381
		l-8.608,218.184C1031.896,1014.203,1052.057,995.725,1067.065,974.183z"/>
	<path fill="#D47A00" d="M407.01,759.992c1.524-5.506,3.056-18.117,3.375-19.66c4.004,13.37,7.672,24.861,11.769,37.729
		c2.884,16.489,30.068,27.2,40.147,4.953c3.918-7.486,5.099-14.97,6.067-30.979c8.007,21.533,13.099,45.648,33.416,58.718
		c31.628,18.803,29.479-29.018,28.632-48.278c14.818,6.728,29.544,15.523,45.496,19.21c17.023,3.392,31.519-7.813,28.458-22.874
		c-6.947-19.287-33.055-29.294-50.414-37.721c17.809-3.724,56.174-18.979,37.599-41.497c-17.313-24.543-80.976-8.059-93.142-8.872
		c12.564-5.876,25.106-11.006,31.616-23.937c4.664-9.508,1.885-18.871-7.285-23.122c-28.162-13.052-54.176,12.552-69.557,18.707
		c1.242-2.453,21.292-24.524,6.613-34.865c-9.048-6.375-21.954-6.623-31.613-1.849c-17.715,8.758-50.301,47.089-53.355,50.436
		c0,0-31.138,113.566,16.21,115.114C399.847,771.494,404.454,769.231,407.01,759.992z"/>
	<path fill="#A45700" d="M525.335,737.685c-6.209-2.889-199.753-92.649-210.186-97.554l7.751-16.064
		c9.491,4.948,199.961,103.854,205.679,106.871L525.335,737.685z"/>
	<path fill="#D47A00" d="M368.742,603.483l35.827,0.378l-17.964-22.271l11.824-10.171l-35.268-25.332l43.996,3.568l-7.208-14.256
		l30.345-2.097l-11-12.986l32.593-9.255l-2.045-1.519l-28.945-18.191l-0.485-4.029l7.741-8.228l-43.057-10.924l-1.325-5.909
		l22.798-20.014l-3.55-1.057l-8.175-2.974l3.266-8.138l8.261-18.196l-11.07,3.663l12.385-44.86l-37.926,20.789l1.35-13.913
		l-23.21,19.124l-6.452-17.747l-7.487,16.71l-11.6,21.527l-2.447-3.138l-21.046-41.563l-2.256-3.469l-4.549,14.173l-22.94-26.513
		l-5.243,33.74l-15.061-7.746l0.767,35.456l-11.614-4.854l8.513,52.597l-30.562-35.286l-7.859,13.705l-10.06-6.375l-12.573-6.978
		l6.676,32.608l-17.41-3.796l13.921,29.952l-14.034-4.238l66.448,89.786l-50.747,62.693l12.557,9.375l49.48-63.523L354.69,634.66
		l-6.317-20.551l28.852,7.59L368.742,603.483L368.742,603.483z"/>
	<path fill="#FF8000" d="M160.04,680.551c-34.883,12.653-71.097,48.42-72.708,88.466c21.594,88.436,140.78,128.121,181.883,31.046
		C297.256,718.167,229.06,655.962,160.04,680.551z"/>
	<path fill="#D47A00" d="M87.711,764.86c6.656-0.479,276.088-19.224,287.297-19.984l1.002,17.352
		c-10.426,0.278-281.569,9.778-287.867,9.915C86.879,769.477,86.887,767.483,87.711,764.86z"/>
	<path fill="#FFE400" d="M268.457,914.43c0.022-6.218-1.982-19.898-2.089-21.609c8.034,12.89,15.178,23.905,23.166,36.241
		c7.752,16.486,39.363,19.944,43.57-6.302c1.969-8.982,1.065-17.178-2.506-34.264c14.576,20.314,26.832,44.175,51.908,52.077
		c38.594,10.68,22.637-38.912,16.231-58.892c17.485,2.819,35.466,7.834,53.271,7.134c18.845-1.315,30.855-17.233,23.326-32.17
		c-12.82-18.259-43.098-21.286-63.739-25.161c17.632-9.012,53.541-36.021,27.587-54.341c-25.209-20.808-87.328,14.738-100.335,17.37
		c11.508-9.769,23.207-18.749,26.337-34.19c2.173-11.319-3.427-20.354-14.274-22.189c-33.308-5.635-53.285,28.701-67.671,39.569
		c0.602-2.931,15.329-31.849-3.045-38.501c-11.326-4.101-24.948-0.663-33.721,7.116c-16.09,14.271-39.322,63.852-41.569,68.241
		c0,0-0.156,128.158,50,116.219C264.232,928.559,268.421,924.863,268.457,914.43z"/>
	<path fill="#FFD200" d="M386.301,857.109c-7.347-1.254-236.273-40.046-248.632-42.208l3.536-19.087
		c11.383,2.476,239.701,51.752,246.568,53.281L386.301,857.109z"/>
	<path fill="#FF8000" d="M671.667,620.736c28.836,26.571,66.006,42.46,104.948,45.891l-46.118-121.201l-52.308-100.174
		l-34.505-78.643c-8.368,4.017-16.575,8.088-25.006,12.136c0,0,42.118,71.596,43.983,75.36
		C603.402,496.989,623.01,577.888,671.667,620.736z"/>
	<path fill="#D47A00" d="M809.657,585.76c5.451-42.021-3.018-91.309-34.682-121.536c-25.731-24.137-63.996-33.669-97.096-19.612
		l98.736,222.014C794.24,643.006,805.275,614.645,809.657,585.76z"/>
	<path fill="#0EB800" d="M285.49,783.471c30.601,15.575,65.699,20.17,99.342,13.844l-67.573-91.262l-67.814-72.07l-47.708-58.132
		c-6.104,5.367-12.059,10.742-18.209,16.151c0,0,52.458,50.389,54.921,53.121C198.643,695.305,234.326,758.866,285.49,783.471z"/>
	<path fill="#00A038" d="M393.545,721.317c-5.353-36.717-24.161-76.265-58.012-94.252c-27.407-14.258-61.924-13.235-86.501,6.452
		l135.8,163.798C394.099,773.229,396.688,746.706,393.545,721.317z"/>
	<path fill="#FFE400" d="M1485.726,774.781c3.919,3.953,13.844,11.353,14.995,12.369c-13.245-3.084-24.74-5.543-37.605-8.306
		c-15.342-5.541-37.557,12.266-23.618,31.557c4.435,6.937,10.193,11.557,23.265,20.124c-22.086-3.649-44.947-11.013-65.833-0.155
		c-31.209,17.65,10.275,38.975,26.974,47.581c-12.862,9.276-27.427,17.474-38.265,29.182c-11.107,12.755-8.646,30.438,5.573,35.139
		c19.674,3.458,40.772-13.779,56.301-24.383c-5.47,16.864-11.134,56.694,16.9,51.882c29.136-2.765,46.005-64.585,52.581-74.481
		c-1.111,13.47-2.842,26.56,4.944,38.324c5.784,8.546,15.048,10.727,23.081,5.028c24.668-17.501,15.603-51.894,17.841-67.882
		c1.473,2.238,10.437,29.876,26.287,22.467c9.771-4.567,16.226-15.363,16.863-25.842c1.166-19.221-15.482-65.331-16.835-69.534
		c0,0-80.979-81.297-105.204-42.001C1479.465,763.157,1479.149,768.148,1485.726,774.781z"/>
	<path fill="#FFD200" d="M1447.327,885.651c5.448-3.853,175.031-124.104,184.229-130.554l9.835,14.33
		c-8.778,5.632-184.609,118.857-189.927,122.232L1447.327,885.651z"/>
	<path fill="#FFE400" d="M324.29,532.204c0.333,5.703,2.949,18.135,3.145,19.698c-8.101-11.364-15.279-21.06-23.306-31.919
		c-8.047-14.678-37.233-16.052-39.599,8.257c-1.295,8.35,0,15.815,4.247,31.281c-14.522-17.801-27.119-38.986-50.565-44.807
		c-36.002-7.6-18.547,36.973-11.536,54.931c-16.196-1.591-32.971-5.168-49.26-3.513c-17.207,2.278-27.316,17.559-19.563,30.829
		c12.795,16.016,40.735,17.071,59.884,19.45c-15.657,9.267-47.053,36.079-22.21,51.404c24.302,17.649,79.249-18.482,91.028-21.635
		c-9.999,9.613-20.216,18.514-22.209,32.853c-1.349,10.504,4.301,18.471,14.352,19.538c30.866,3.274,47.235-29.351,59.81-40.136
		c-0.385,2.723-12.247,30.079,4.982,35.135c10.621,3.117,22.917-0.81,30.521-8.444c13.944-14.003,32.43-60.793,34.242-64.946
		c0,0-7.144-117.54-52.463-103.739C327.362,519.007,323.731,522.634,324.29,532.204z"/>
	<path fill="#FFD200" d="M219.478,591.473c6.809,0.732,218.958,23.29,230.416,24.57l-2.158,17.706
		c-10.58-1.623-222.768-33.83-229.153-34.842L219.478,591.473z"/>
	<path fill="#0EB800" d="M469.215,511.964c-15.986-30.388-41.984-54.411-73.102-68.678l2.454,113.529l13.735,98.001l5.371,75.01
		c8.083-0.857,16.049-1.805,24.193-2.668c0,0-13.721-71.433-14.154-75.085C489.191,634.097,496.772,561.6,469.215,511.964z"/>
	<path fill="#00A038" d="M345.106,500.294c-16.837,33.065-24.324,76.213-7.079,110.448c14.139,27.469,42.908,46.569,74.341,44.692
		l-16.257-212.148C374.636,457.596,357.204,477.753,345.106,500.294z"/>
	<path fill="#FFE400" d="M1275.542,881.676c-2.784-5.56-10.742-16.866-11.61-18.344c12.984,7.882,24.328,14.491,37.02,21.899
		c14.354,11.218,44.127,0.049,36.046-25.274c-2.293-8.905-6.797-15.813-17.689-29.452c22.17,11.558,43.87,27.327,69.815,23.071
		c39.263-7.873,2.656-44.939-12.072-59.883c16.877-5.369,35.188-9.002,50.764-17.656c16.227-9.673,19.767-29.296,6.312-39.232
		c-19.677-10.516-48.066,0.437-68.236,6.288c11.673-15.995,31.543-56.296,0.116-60.943c-31.884-7.203-71.297,52.537-81.719,60.752
		c5.866-13.909,12.258-27.199,8.088-42.393c-3.165-11.083-12.238-16.621-22.747-13.368c-32.27,9.991-34.616,49.646-42.554,65.835
		c-0.785-2.888-0.681-35.339-20.081-32.99c-11.959,1.448-22.566,10.659-26.888,21.559c-7.925,19.994-6.3,74.723-6.327,79.654
		c0,0,57.657,114.456,97.039,81.18C1278.142,896.192,1280.214,891.004,1275.542,881.676z"/>
	<path fill="#FFD200" d="M1354.871,777.37c-7.123,2.194-228.942,70.811-240.948,74.455l-5.452-18.631
		c11.276-2.923,237.281-61.909,244.1-63.641L1354.871,777.37z"/>
	<path fill="#0EB800" d="M1128.36,858.434l-20.627,24.264l25.429,0.388l0.227,13.861l37.358-9.695l-27.45,28.032l13.838,3.18
		l-15.819,21.926l15.126-0.133l-12.206,27.531l2.201-0.534l28.885-9.434l3.029,1.96l1.221,9.967l31.943-23.208l4.79,2.454
		l0.714,26.955l2.74-1.825l6.68-3.895l3.704,6.858l7.736,15.989l3.791-9.646l23.61,33.966l7.357-37.732l8.739,8.832l0.128-26.731
		l15.794,5.681l-7.161-14.615l-8.114-20.165l3.535,0.112l40.363,9.249l3.653,0.431l-7.097-11.166l31.157-0.601l-20.072-22.764
		l13.855-5.887l-24.662-19.633l9.919-5.176l-40.777-24.085l41.484-0.821l-4.896-13.161l10.075-3.25l11.916-4.623l-26.075-13.976
		l12.491-9.737l-28.379-7.516l10.874-7.179l-99.123-5.644l-13.985-70.314l-13.544,3.249l15.272,69.92l-92.962,41.016l17.632,7.367
		l-21.589,15.398L1128.36,858.434L1128.36,858.434z"/>
	<path fill="#D47A00" d="M921.296,837.758c2.534-4.957,6.471-16.694,7.077-18.104c1.2,13.546,2.447,25.235,3.834,38.32
		c-0.481,16.304,23.365,31.859,37.348,12.601c5.208-6.377,7.803-13.289,11.866-28.38c3.419,22.123,3.55,46.14,20.379,62.6
		c26.501,24.15,33.828-21.916,36.798-40.465c12.824,9.328,25.155,20.611,39.658,27.258c15.583,6.576,31.617-1.276,31.649-16.252
		c-2.849-19.771-25.805-34.443-40.722-45.891c17.729-0.062,57.339-7.099,44.026-32.234c-11.712-26.821-75.71-23.574-87.163-26.736
		c13.145-3.144,26.122-5.581,34.872-16.647c6.316-8.161,5.5-17.643-2.419-23.498c-24.32-17.981-54.172,1.356-70.06,4.214
		c1.667-2.098,25.133-19.232,13.15-31.982c-7.386-7.859-19.656-10.627-29.812-7.964c-18.626,4.886-57.247,35.081-60.818,37.677
		c0,0-51.994,102.291-7.104,113.055C912.203,847.332,917.044,846.076,921.296,837.758z"/>
	<path fill="#A45700" d="M1038.611,839.673c-5.36-3.975-172.492-127.609-181.489-134.337l10.549-13.813
		c8.089,6.584,170.493,138.345,175.359,142.346L1038.611,839.673z"/>
	<path fill="#D47A00" d="M1300.745,974.375c1.887-5.237,4.308-17.378,4.731-18.853c2.903,13.286,5.619,24.723,8.649,37.527
		c1.585,16.234,27.206,28.649,38.642,7.777c4.36-6.984,6.06-14.169,8.182-29.652c6.189,21.513,9.356,45.321,28.132,59.52
		c29.342,20.605,30.785-26.017,31.385-44.793c13.9,7.632,27.559,17.264,42.786,22.024c16.289,4.553,31.202-5.264,29.34-20.124
		c-5.326-19.252-29.954-30.904-46.198-40.373c17.579-2.303,55.981-14.293,39.596-37.543c-15.01-25.125-78.083-13.81-89.844-15.499
		c12.642-4.781,25.207-8.84,32.487-20.923c5.234-8.894,3.225-18.197-5.371-23.004c-26.399-14.761-53.566,8.195-68.965,13.039
		c1.388-2.292,22.499-22.256,9-33.388c-8.321-6.862-20.843-8.056-30.58-4.131c-17.859,7.202-52.351,42.039-55.566,45.065
		c0,0-38.641,108.044,7.25,113.046C1292.936,985.022,1297.579,983.163,1300.745,974.375z"/>
	<path fill="#A45700" d="M1417.36,961.439c-5.819-3.265-187.244-104.772-197.019-110.309l8.718-15.036
		c8.856,5.509,186.619,115.675,191.951,119.028L1417.36,961.439z"/>
	<path fill="#FF8000" d="M1530.915,802.919c15.144,30.817,40.471,55.546,71.185,70.663l0.67-113.554l-11.033-98.342l-3.306-75.13
		c-8.103,0.634-16.092,1.363-24.257,2.002c0,0,11.751,71.783,12.083,75.446C1514.306,680.282,1504.734,752.543,1530.915,802.919z"/>
	<path fill="#D47A00" d="M1654.656,817.998c17.74-32.59,26.411-75.515,10.115-110.211c-13.378-27.847-41.61-47.732-73.084-46.721
		l10.414,212.515C1623.962,859.867,1641.942,840.198,1654.656,817.998z"/>
	<path fill="#FFE400" d="M1077.272,529.743c6.359,0.862,20.628,0.658,22.393,0.779c-14.274,6.481-26.509,12.304-40.21,18.811
		c-17.916,5.707-25.721,37.585,0.566,45.433c8.925,3.228,17.434,3.409,35.399,2.061c-22.754,12.172-48.823,21.491-60.294,46.083
		c-16.139,38.049,36.76,28.416,58.069,24.558c-5.245,17.511-12.804,35.233-14.491,53.546c-1.198,19.46,13.468,33.898,29.768,28.211
		c20.414-10.653,27.599-41.225,34.35-61.823c6.841,19.258,29.63,59.648,51.879,35.564c24.695-22.986-3.291-91.347-4.228-105.011
		c8.442,13.094,16.051,26.277,31.429,31.564c11.289,3.751,21.289-0.759,24.632-11.61c10.263-33.32-22.174-58.397-31.353-74.585
		c2.918,1.011,30.519,19.985,39.807,2.081c5.725-11.036,4.047-25.438-2.729-35.465c-12.431-18.39-60.027-48.855-64.214-51.747
		c0,0-131.114-17.461-125.668,35.472C1063.385,523.513,1066.601,528.297,1077.272,529.743z"/>
	<path fill="#FFD200" d="M1120.016,658.062c2.275-7.348,72.873-236.355,76.753-248.709l19.053,6.195
		c-4.07,11.313-85.313,238.283-87.805,245.103L1120.016,658.062z"/>
	<path fill="#FF8000" d="M1214.722,426.086c-28.836-26.571-66.006-42.46-104.948-45.891l46.118,121.2l52.308,100.174l34.505,78.643
		c8.368-4.017,16.575-8.088,25.006-12.136c0,0-42.119-71.596-43.983-75.36C1282.987,549.832,1263.378,468.934,1214.722,426.086z"/>
	<path fill="#D47A00" d="M1076.731,461.061c-5.451,42.021,3.018,91.309,34.682,121.536c25.731,24.137,63.996,33.669,97.096,19.612
		l-98.736-222.014C1092.149,403.815,1081.114,432.177,1076.731,461.061z"/>
	<path fill="#0EB800" d="M1194.354,461.386c21.122,27.072,50.968,46.103,84.123,54.624l-22.549-111.294l-30.897-94.012
		l-18.589-72.869c-7.803,2.276-15.474,4.622-23.337,6.916c0,0,26.172,67.867,27.246,71.385
		C1153.034,344.731,1158.431,417.424,1194.354,461.386z"/>
	<path fill="#00A038" d="M1318.564,450.86c10.706-35.527,10.422-79.318-12.621-109.952c-18.786-24.526-50.486-38.221-81.089-30.8
		l53.623,205.902C1297.075,498.118,1310.656,475.19,1318.564,450.86z"/>
	<path fill="#FF8000" d="M433.352,838.877c2.063,5.171,8.307,15.86,8.969,17.245c-10.987-8.014-20.607-14.77-31.37-22.34
		c-11.957-11.095-39.364-3.384-34.072,19.819c1.372,8.118,4.867,14.622,13.552,27.614c-18.904-11.99-37.07-27.701-60.539-25.868
		c-35.625,4.051-5.771,39.891,6.237,54.338c-15.463,3.513-32.074,5.368-46.625,11.91c-15.209,7.401-19.853,24.64-8.6,34.523
		c16.759,10.871,42.915,3.248,61.352-0.444c-11.624,13.386-32.402,47.836-4.717,54.361c27.9,8.84,67.584-41.474,77.504-48.014
		c-6.286,11.965-12.994,23.338-10.425,37.209c1.985,10.127,9.66,15.754,19.281,13.648c29.545-6.471,34.64-41.672,42.948-55.513
		c0.482,2.636-2.067,31.579,15.418,30.952c10.778-0.386,20.939-7.801,25.62-17.198c8.584-17.237,11.277-66.187,11.674-70.584
		c0,0-42.774-106.476-80.428-79.77C432.13,825.729,429.889,830.201,433.352,838.877z"/>
	<path fill="#A45700" d="M354.683,925.927c6.52-1.418,209.609-45.844,220.596-48.186l3.454,17.034
		c-10.281,1.755-216.375,37.271-222.589,38.3L354.683,925.927z"/>
</g>
<g id="Layer_1">
</g>
</svg>
