<?xml version="1.0" encoding="utf-8"?>
<!-- Generator: Adobe Illustrator 24.2.3, SVG Export Plug-In . SVG Version: 6.00 Build 0)  -->
<svg version="1.1" xmlns="http://www.w3.org/2000/svg" xmlns:xlink="http://www.w3.org/1999/xlink" x="0px" y="0px"
	 viewBox="0 0 1711.329 1091.221" enable-background="new 0 0 1711.329 1091.221" xml:space="preserve">
<g id="summer_x5F_flowers_x5F_pile">
	<path fill="#FFA600" d="M1519.52,502.405c195.647,180.213,65.822,507.367-200.174,507.367H657.945
		c0,0-203.744,5.571-390.127-131.874C80.539,739.792,50.778,570.194,141.44,463.046c90.662-107.148,157.518-77.787,182.244-113.504
		s-39.479-149.766,59.57-204.244c164.84-90.662,181.143,64.434,255.02,59.495c64.015-4.28,148.794-96.157,264.184-27.474
		s98.905,167.588,184.074,228.031c85.169,60.443,258.253-54.948,425.841,90.662C1514.792,498.113,1517.174,500.245,1519.52,502.405z
		"/>
	<g>
		<g>
			<path id="XMLID_39_" fill="#73E3D4" d="M1417.905,905.984c0,0,42.295-46.86,16.738-75.939
				c-39.771-45.251-94.146-22.487-94.146-22.487s-1.166-54.881-40.211-81.115c-22.929-15.406-65.319-19.429-86.02,12.519
				c-17.658,27.252-18.424,62.799,2.079,80.436c39.981,34.392,99.213,18.185,99.213,18.185s-0.964,62.987,29.223,79.186
				S1400.579,924.147,1417.905,905.984z"/>
			<path id="XMLID_38_" fill="#00BDD0" d="M1405.995,722.633c0,0-46.86-42.295-75.939-16.738
				c-45.251,39.77-22.487,94.146-22.487,94.146s-54.881,1.166-81.115,40.211c-15.406,22.929-19.429,65.319,12.519,86.02
				c27.252,17.658,62.799,18.424,80.436-2.079c34.392-39.981,18.185-99.213,18.185-99.213s62.987,0.964,79.186-29.224
				S1424.158,739.959,1405.995,722.633z"/>
			<path fill="#008292" d="M1340.915,853.644c19.884-11.444,25.372-32.14,13.821-52.118c-11.944-20.657-35.012-28.041-53.789-17.219
				c-21.24,12.244-27.335,36.011-14.763,57.573C1297.535,861.344,1319.376,866.04,1340.915,853.644z"/>
		</g>
	</g>
	<g>
		<g>
			<path id="XMLID_35_" fill="#FF9EC5" d="M1254.655,676.725c0,0,59.816,11.872,71.277-23.728
				c17.835-55.399-27.977-89.227-27.977-89.227s44.943-28.148,47.365-73.527c1.422-26.648-16.237-63.801-52.989-65.148
				c-31.349-1.149-61.214,15.821-65.688,41.563c-8.724,50.196,34.055,91.298,34.055,91.298s-52.722,30.397-51.207,63.459
				C1211.006,654.476,1231.009,671.349,1254.655,676.725z"/>
			<path id="XMLID_34_" fill="#F982BD" d="M1400.836,576.035c0,0,11.872-59.816-23.728-71.277
				c-55.399-17.835-89.227,27.977-89.227,27.977s-28.148-44.943-73.527-47.365c-26.649-1.422-63.801,16.236-65.148,52.989
				c-1.149,31.349,15.821,61.214,41.563,65.688c50.196,8.724,91.298-34.055,91.298-34.055s30.397,52.722,63.459,51.207
				S1395.461,599.682,1400.836,576.035z"/>
			<path fill="#FF4035" d="M1259.937,586.942c19.34,10.825,39.224,5.126,50.075-14.349c11.218-20.138,5.918-42.929-12.359-53.143
				c-20.675-11.554-43.408-4.837-55.065,16.27C1232.065,554.775,1238.987,575.216,1259.937,586.942z"/>
		</g>
	</g>
	<g>
		<g>
			<path id="XMLID_9_" fill="#73E3D4" d="M1091.238,438.008c0,0,61.851-12.618,58.536-51.189
				c-5.157-60.023-62.432-73.969-62.432-73.969s31.63-44.864,15.771-89.15c-9.313-26.007-41.045-54.4-76.666-40.971
				c-30.385,11.455-52.097,39.612-46.06,65.976c11.771,51.407,69.063,73.513,69.063,73.513s-38.155,50.125-23.47,81.078
				S1066.514,442.345,1091.238,438.008z"/>
			<path id="XMLID_7_" fill="#00BDD0" d="M1190.458,283.364c0,0-12.618-61.851-51.189-58.537
				c-60.023,5.157-73.969,62.432-73.969,62.432s-44.865-31.63-89.15-15.771c-26.007,9.313-54.4,41.044-40.971,76.666
				c11.455,30.385,39.612,52.097,65.976,46.06c51.407-11.771,73.513-69.063,73.513-69.063s50.125,38.155,81.078,23.47
				C1186.698,333.938,1194.795,308.088,1190.458,283.364z"/>
			<path fill="#008292" d="M1060.33,350.192c22.795,2.589,39.494-10.812,42.053-33.747c2.645-23.714-11.54-43.347-33.075-45.779
				c-24.362-2.75-43.372,12.763-46.048,37.578C1020.845,330.647,1035.638,347.387,1060.33,350.192z"/>
		</g>
	</g>
	<g>
		<g>
			<path fill="#FFE400" d="M1083.393,408.781c11.922-13.444,19.272-28.672,5.808-48.258c-12.494-18.176-36.643-24.598-54.837-14.846
				c-18.016,9.656-20.297,25.792-23.625,45.331c-0.425-5.54-14.529-17.455-19.065-20.692c-12.659-9.034-25.121-10.399-36.657-3.517
				c-13.329,7.952-27.313,26.857-25.307,44.139c1.938,16.698,27.703,33.173,27.703,33.173
				c-44.516-15.892-71.148,40.498-27.354,66.298c15.25,8.984,27.699,5.285,36.82-0.713c-11.922,13.444-18.375,27.058-4.911,46.644
				c12.494,18.176,35.746,26.211,53.94,16.459c18.016-9.657,20.297-25.792,23.625-45.331c0.425,5.54,14.529,17.455,19.065,20.692
				c12.659,9.034,23.98,8.33,36.657,3.517c19.352-7.347,31.409-29.469,29.403-46.75c-1.938-16.698-29.764-33.349-29.764-33.349
				c44.516,15.892,67.575-39.001,23.781-64.801C1103.426,397.793,1092.514,402.783,1083.393,408.781z"/>
		</g>
		<path fill="#FDF1B8" d="M1043.974,490.097c18.301-10.532,23.352-29.581,12.721-47.968c-10.993-19.012-32.224-25.808-49.505-15.848
			c-19.549,11.269-25.158,33.144-13.587,52.988C1004.048,497.184,1024.15,501.506,1043.974,490.097z"/>
	</g>
	<g>
		<g>
			<g>
				<path fill="#FF8000" d="M1339.118,723.761c63.565,27.424,50.55-117.167,50.55-117.167S1275.553,696.337,1339.118,723.761z"/>
				<path fill="#FF8000" d="M1440.218,489.426c-63.565-27.424-50.55,117.167-50.55,117.167S1503.783,516.851,1440.218,489.426z"/>
				<path fill="#FF8000" d="M1506.836,657.144c27.424-63.565-117.167-50.55-117.167-50.55S1479.411,720.709,1506.836,657.144z"/>
				<path fill="#FF8000" d="M1272.501,556.044c-27.424,63.565,117.167,50.55,117.167,50.55S1299.925,492.479,1272.501,556.044z"/>
				<path fill="#FFA600" d="M1436.774,725.188c64.339-25.555-47.105-118.594-47.105-118.594S1372.434,750.743,1436.774,725.188z"/>
				<path fill="#FFA600" d="M1342.563,487.999c-64.339,25.555,47.105,118.594,47.105,118.594S1406.902,462.444,1342.563,487.999z"/>
				<path fill="#FFA600" d="M1508.262,559.488c-25.555-64.339-118.594,47.105-118.594,47.105S1533.818,623.827,1508.262,559.488z"/>
				<path fill="#FFA600" d="M1271.074,653.699c25.555,64.339,118.594-47.105,118.594-47.105S1245.518,589.36,1271.074,653.699z"/>
			</g>
		</g>
		<path fill="#FFE400" d="M1394.165,647.402c20.385-2.353,32.225-17.405,29.818-37.906c-2.49-21.197-18.818-35.435-38.074-33.2
			c-21.782,2.529-35.209,19.89-32.523,42.052C1355.81,638.356,1372.083,649.951,1394.165,647.402z"/>
	</g>
	<g>
		<g>
			<path fill="#FFE400" d="M828.593,193.902c-17.178,3.581-31.813,11.225-32.685,34.418c-0.809,21.523,14.365,40.633,34.304,43.601
				c19.743,2.939,30.937-8.372,44.936-21.738c-2.897,4.588,1.206,22.145,2.872,27.325c4.65,14.457,13.617,22.792,26.666,24.127
				c15.078,1.542,37.055-5.116,45.559-19.823c8.217-14.211-2.362-42.139-2.362-42.139c25.608,38.403,79.347,9.754,60.081-35.99
				c-6.709-15.929-18.618-20.289-29.26-20.907c17.178-3.581,30.17-10.485,31.041-33.678c0.809-21.523-12.721-41.374-32.66-44.342
				c-19.743-2.938-30.937,8.372-44.936,21.738c2.897-4.588-1.206-22.145-2.872-27.325c-4.65-14.457-13.929-20.506-26.666-24.127
				c-19.443-5.527-41.786,4.774-50.29,19.481c-8.217,14.211,3.874,43.478,3.874,43.478c-25.608-38.403-75.676-8.844-56.41,36.9
				C806.493,190.831,817.951,193.284,828.593,193.902z"/>
		</g>
		<path fill="#FDF1B8" d="M906.881,153.183c-20.477-2.419-35.539,9.559-37.931,30.162c-2.473,21.303,10.197,39.005,29.543,41.277
			c21.884,2.57,39.032-11.297,41.537-33.589C942.291,170.907,929.063,155.802,906.881,153.183z"/>
	</g>
	<g>
		<path fill="#FFD200" d="M437.353,433.9c6.183,66.507-24.981,96.129-60.671,108.906c-34.653,10.801-90.419,8.531-120.046-18.428
			c-23.385-21.282-40.899-79.658-8.62-132.708c21.841-31.114,67.947-49.142,111.521-41.791
			C400.012,358.152,428.157,368.332,437.353,433.9z"/>
		<path fill="#FFA600" d="M287.057,418.127c-0.488,0.803-0.947,1.608-1.395,2.415l-38.288-27.161
			c-3.042,5.182-5.616,10.407-7.761,15.641l42.238,19.555c-0.987,2.481-1.806,4.962-2.469,7.433l-45.308-9.989
			c-1.128,4.637-1.941,9.243-2.488,13.795l45.934,6.017c-0.305,2.718-0.435,5.397-0.412,8.023l-46.217,6.286
			c0.282,5.353,0.926,10.549,1.867,15.547c12.75-3.889,33.371-10.149,44.939-13.506c0.24,1.778,0.549,3.516,0.919,5.21
			l-40.955,26.159c1.821,4.951,3.934,9.552,6.266,13.739l38.396-28.402c0.623,1.422,1.29,2.779,1.993,4.07l-31.234,37.427
			c1.279,1.436,2.581,2.776,3.906,3.982c1.618,1.472,3.327,2.858,5.094,4.185c9.254-13.269,24.123-34.529,27.089-38.412
			c0.895,1.056,1.813,2.027,2.751,2.88c0.574,0.522,1.206,0.988,1.813,1.478l-16.636,42.961c3.423,1.593,6.977,3.01,10.639,4.25
			l13.322-42.436c2.372,1.244,4.871,2.324,7.476,3.242l-10.641,42.135c4.402,1.077,8.894,1.941,13.433,2.591l5.518-42.372
			c3.701,0.808,7.494,1.353,11.299,1.652l-3.594,42.032c4.893,0.282,9.774,0.346,14.582,0.198
			c-0.866-12.831-1.895-30.539-2.542-41.958c2.243-0.028,4.47-0.11,6.645-0.293l6.357,41.593c4.762-0.452,9.399-1.099,13.835-1.941
			l-13.061-40.571c2.392-0.404,4.685-0.9,6.863-1.485l15.706,39.879c1.392-0.376,2.766-0.765,4.098-1.18
			c2.828-1.012,5.622-2.144,8.377-3.378l-20.944-37.935c1.809-0.813,3.583-1.716,5.308-2.715
			c6.336,8.152,18.749,24.081,27.158,34.606c4.581-2.803,8.945-6.018,13.011-9.687l-32.599-30.251
			c2.391-2.049,4.604-4.372,6.597-6.99c9.445,5.725,27.293,16.52,38.4,23.092c2.691-3.92,5.105-8.196,7.201-12.852l-41.163-17.351
			c1.397-2.767,2.58-5.791,3.518-9.092c10.844,2.083,33.907,6.501,43.639,8.273c1.083-4.807,1.892-9.914,2.382-15.357l-44.097-2.674
			c0.336-2.84,0.516-5.845,0.526-9.024c12.139-2.651,34.814-7.599,43.913-9.548c-0.13-2.62-0.299-5.279-0.554-8.023
			c-0.474-3.383-1.012-6.583-1.586-9.678l-42.267,17.368c-0.573-4.003-1.276-7.626-2.097-10.93l40.991-21.108
			c-1.583-5.635-3.371-10.723-5.383-15.265l-38.361,27.558c-1.415-3.616-3.047-6.693-4.871-9.352l31.803-36.585
			c-3.626-4.176-7.615-7.626-11.94-10.527l-25.809,40.429c-1.902-1.64-3.944-3.029-6.117-4.225l21.79-41.83
			c-4.725-2.149-9.767-3.894-15.092-5.412l-16.004,43.364c-2.189-0.691-4.469-1.301-6.839-1.861l12.969-44.02
			c-2.931-0.674-5.927-1.319-9.004-1.948c-1.284-0.217-2.57-0.407-3.858-0.58l-9.818,44.753c-1.707-0.187-3.415-0.32-5.123-0.376
			l4.49-45.295c-4.406-0.197-8.806-0.155-13.177,0.121l-1.958,45.664c-2.494,0.303-4.962,0.726-7.386,1.285l-2.103-45.69
			c-4.923,0.771-9.774,1.826-14.512,3.155l8.676,44.877c-1.73,0.621-3.436,1.286-5.089,2.034l-15.102-43.061
			c-4.719,1.841-9.278,3.953-13.628,6.327l19.409,41.947c-2.062,1.389-4.023,2.875-5.844,4.478l-24.963-39.266
			c-3.665,2.633-7.113,5.47-10.305,8.496c8.117,9.9,21.721,26.393,30.092,36.003C288.758,415.839,287.873,416.964,287.057,418.127z"
			/>
	</g>
	<g>
		<g>
			<path id="XMLID_23_" fill="#FF9EC5" d="M76.107,394.713c0,0-41.739,44.46-17.605,73.031
				c37.557,44.46,90.508,23.503,90.508,23.503s0.087,53.031,37.303,79.109c21.855,15.314,62.722,20.003,83.322-10.464
				c17.572-25.987,18.985-60.308-0.485-77.731c-37.966-33.975-95.484-19.443-95.484-19.443s2.124-60.82-26.727-77.038
				S93.186,377.498,76.107,394.713z"/>
			<path id="XMLID_22_" fill="#F982BD" d="M84.138,572.034c0,0,44.46,41.739,73.031,17.605
				c44.46-37.557,23.503-90.508,23.503-90.508s53.031-0.087,79.109-37.303c15.314-21.855,20.003-62.722-10.464-83.322
				c-25.987-17.572-60.308-18.985-77.731,0.485c-33.975,37.966-19.443,95.484-19.443,95.484s-60.82-2.124-77.038,26.727
				S66.923,554.955,84.138,572.034z"/>
			<path fill="#FF4035" d="M149.479,446.726c-19.422,10.677-25.115,30.563-14.336,50.078c11.145,20.178,33.286,27.747,51.627,17.65
				c20.747-11.424,27.084-34.265,15.349-55.329C191.525,440.109,170.518,435.161,149.479,446.726z"/>
		</g>
	</g>
	<g>
		<path fill="#FFD200" d="M1008.452,305.46c9.369,62.084-18.29,91.554-51.099,105.458c-31.941,11.994-84.398,12.854-113.648-10.858
			c-23.087-18.719-42.654-72.564-15.205-124.081c18.828-30.371,61.131-49.762,102.419-45.2
			C969.347,236.375,996.305,244.419,1008.452,305.46z"/>
		<path fill="#FFA600" d="M866.557,298.716c-0.415,0.779-0.802,1.56-1.18,2.341l-37.389-23.437
			c-2.577,5.026-4.712,10.068-6.445,15.095l40.687,16.087c-0.793,2.381-1.429,4.754-1.918,7.108l-43.056-6.945
			c-0.81,4.412-1.326,8.778-1.596,13.08l43.431,3.184c-0.14,2.567-0.119,5.089,0.044,7.551l-43.036,8.377
			c0.552,5.009,1.435,9.85,2.585,14.49c11.757-4.333,30.773-11.314,41.45-15.084c0.321,1.656,0.704,3.271,1.142,4.84l-37.033,26.745
			c1.974,4.549,4.204,8.754,6.617,12.558l34.511-28.714c0.661,1.301,1.36,2.538,2.089,3.713l-27.305,36.799
			c1.277,1.279,2.572,2.467,3.879,3.527c1.597,1.295,3.276,2.503,5.005,3.654c7.973-12.949,20.788-33.698,23.363-37.501
			c0.897,0.943,1.81,1.805,2.737,2.555c0.567,0.459,1.185,0.863,1.781,1.29l-13.309,41.21c3.298,1.312,6.71,2.451,10.212,3.418
			l10.227-40.539c2.293,1.041,4.696,1.92,7.19,2.642l-7.727,40.113c4.189,0.774,8.451,1.344,12.745,1.712l2.907-40.061
			c3.517,0.559,7.105,0.868,10.693,0.945l-1.119,39.639c4.607,0.002,9.191-0.2,13.695-0.596
			c-1.501-11.995-3.416-28.559-4.636-39.241c2.104-0.147,4.189-0.343,6.221-0.632l8.196,38.693c4.444-0.68,8.762-1.535,12.88-2.563
			l-14.433-37.374c2.223-0.507,4.348-1.096,6.361-1.761l16.878,36.583c1.286-0.427,2.554-0.866,3.782-1.327
			c2.6-1.102,5.161-2.314,7.68-3.619l-21.69-34.478c1.654-0.86,3.27-1.802,4.836-2.832c6.383,7.311,18.887,21.594,27.343,31.021
			c4.149-2.876,8.072-6.127,11.691-9.789l-32.215-26.642c2.134-2.051,4.086-4.35,5.816-6.913c9.171,4.866,26.5,14.04,37.275,19.612
			c2.315-3.823,4.352-7.965,6.069-12.448l-39.561-14.076c1.162-2.672,2.111-5.573,2.814-8.721
			c10.288,1.373,32.169,4.283,41.398,5.424c0.759-4.569,1.244-9.406,1.412-14.54l-41.527-0.145c0.163-2.683,0.171-5.513,0.01-8.497
			c11.25-3.139,32.265-8.998,40.699-11.315c-0.263-2.452-0.563-4.938-0.95-7.5c-0.627-3.149-1.303-6.124-2.007-8.998L968.039,315
			c-0.752-3.726-1.607-7.088-2.554-10.145l37.338-22.007c-1.787-5.203-3.739-9.882-5.87-14.037l-34.523,27.919
			c-1.522-3.317-3.218-6.118-5.073-8.515l27.885-36.039c-3.627-3.724-7.555-6.748-11.77-9.239l-22.053,39.325
			c-1.873-1.437-3.863-2.631-5.967-3.637l18.206-40.425c-4.55-1.763-9.375-3.131-14.453-4.27l-12.694,41.554
			c-2.092-0.531-4.264-0.981-6.518-1.38l9.811-42.007c-2.787-0.476-5.633-0.92-8.555-1.345c-1.216-0.134-2.434-0.244-3.652-0.337
			l-6.814,42.526c-1.612-0.084-3.222-0.117-4.828-0.078l1.785-42.749c-4.145,0.051-8.273,0.327-12.36,0.82l0.611,42.96
			c-2.324,0.418-4.618,0.947-6.862,1.602l-4.424-42.766c-4.579,0.988-9.075,2.237-13.449,3.739l10.548,41.651
			c-1.591,0.675-3.155,1.391-4.667,2.182L870.655,240.7c-4.33,1.981-8.495,4.208-12.451,6.668l20.464,38.326
			c-1.861,1.414-3.621,2.914-5.244,4.515l-25.533-35.511c-3.299,2.668-6.382,5.515-9.215,8.526
			c8.149,8.856,21.799,23.604,30.171,32.174C868.031,296.477,867.261,297.581,866.557,298.716z"/>
	</g>
	<g>
		<g>
			<path id="XMLID_25_" fill="#FF9EC5" d="M408.373,10.271c0,0-58.125,22.135-48.75,59.11c14.59,57.538,72.504,61.961,72.504,61.961
				s-23.597,48.668-1.112,89.198c13.204,23.801,48.587,46.346,81.079,27.606c27.716-15.986,44.335-46.827,34.26-71.497
				c-19.646-48.106-78.879-60.46-78.879-60.46s29.102-54.825,9.886-82.577S431.72,2.11,408.373,10.271z"/>
			<path id="XMLID_24_" fill="#F982BD" d="M336.57,176.463c0,0,22.135,58.125,59.11,48.75c57.538-14.59,61.961-72.504,61.961-72.504
				s48.668,23.597,89.198,1.112c23.801-13.204,46.346-48.587,27.606-81.079c-15.986-27.716-46.827-44.335-71.497-34.26
				c-48.106,19.646-60.46,78.879-60.46,78.879s-54.825-29.102-82.577-9.886C332.158,126.69,328.408,153.115,336.57,176.463z"/>
			<path fill="#FF4035" d="M452.434,90.726c-22.577,1.119-36.676,16.813-35.505,39.522c1.211,23.48,18.136,40.306,39.463,39.235
				c24.126-1.213,40.135-19.329,38.778-43.884C493.945,103.431,476.89,89.514,452.434,90.726z"/>
		</g>
	</g>
	<g>
		<g>
			<path fill="#008292" d="M839.541,33.254c-9.149,9.451-20.928,8.222-26.002,5.993c-7.374-3.24-12.244-12.363-12.36-20.743
				s6.564-16.765,17.819-18.311c7.341-1.008,16.888,1.867,21.377,10.127C844.039,17.063,844.501,27.181,839.541,33.254z"/>
			<path fill="#008292" d="M767.806,24.438c1.77,14.451-7.485,23.737-12.935,26.553c-7.92,4.093-19.163,1.937-26.457-3.794
				c-7.294-5.731-9.864-17.316-3.364-28.08c4.241-7.021,13.359-13.239,23.591-11.355C756.998,9.299,766.029,15.942,767.806,24.438z"
				/>
			<path fill="#008292" d="M670.521,67.677c-10.721-5.945-12.469-16.845-11.691-21.951c1.13-7.421,8.162-14.014,15.676-16.148
				c7.513-2.134,16.679,1.848,20.795,11.602c2.686,6.363,2.41,15.652-3.937,21.691C686.183,67.804,677.188,70.67,670.521,67.677z"/>
			<path fill="#82D8E8" d="M680.735,63.032c27.037-12.367,42.642,28.056,42.642,28.056s-1.097-35.624,23.906-41.636
				c34.693-8.343,44.212,26.652,44.212,26.652s0.899-38.978,34.233-41.088c30.663-1.943,46.275,42.392,41.928,96.09
				c-3.97,49.059-21.29,79.314-51.058,90.813c-38.867,15.014-71.346,12.407-92.47,1.925c-27.048-13.421-49.835-47.986-60.874-83.157
				C653.345,109.122,652.496,75.949,680.735,63.032z"/>
		</g>
	</g>
	<g>
		<path fill="#FFD200" d="M718.143,171.668c6.767,72.79-27.341,105.21-66.402,119.194c-37.926,11.821-98.961,9.337-131.387-20.169
			c-25.594-23.292-44.763-87.183-9.434-145.245c23.904-34.054,74.366-53.784,122.057-45.739
			C677.274,88.764,708.077,99.906,718.143,171.668z"/>
		<path fill="#FFA600" d="M553.648,154.405c-0.535,0.879-1.036,1.76-1.527,2.643l-41.905-29.727
			c-3.33,5.671-6.146,11.39-8.494,17.119l46.228,21.403c-1.08,2.715-1.977,5.431-2.702,8.136l-49.588-10.933
			c-1.234,5.075-2.125,10.116-2.723,15.099l50.274,6.586c-0.333,2.975-0.476,5.907-0.451,8.781l-50.583,6.88
			c0.309,5.859,1.013,11.546,2.043,17.015c13.954-4.256,36.523-11.108,49.184-14.782c0.263,1.946,0.601,3.849,1.006,5.702
			l-44.824,28.63c1.993,5.419,4.305,10.455,6.858,15.037l42.024-31.085c0.682,1.556,1.412,3.041,2.181,4.455l-34.184,40.963
			c1.4,1.572,2.825,3.038,4.275,4.358c1.771,1.611,3.642,3.128,5.575,4.58c10.128-14.522,26.402-37.791,29.648-42.041
			c0.98,1.156,1.985,2.218,3.011,3.152c0.628,0.572,1.32,1.082,1.985,1.618l-18.208,47.02c3.746,1.744,7.637,3.295,11.644,4.651
			l14.58-46.445c2.596,1.362,5.331,2.543,8.183,3.548l-11.646,46.115c4.818,1.178,9.735,2.124,14.702,2.836l6.04-46.375
			c4.051,0.884,8.201,1.48,12.367,1.808l-3.933,46.003c5.356,0.309,10.698,0.378,15.959,0.217
			c-0.948-14.043-2.074-33.424-2.783-45.922c2.455-0.031,4.892-0.12,7.273-0.321l6.958,45.522
			c5.211-0.495,10.287-1.203,15.142-2.124l-14.295-44.404c2.618-0.442,5.127-0.985,7.511-1.625l17.19,43.646
			c1.523-0.412,3.027-0.837,4.485-1.292c3.095-1.108,6.153-2.347,9.168-3.697l-22.923-41.518c1.98-0.89,3.921-1.878,5.81-2.971
			c6.935,8.922,20.52,26.356,29.724,37.875c5.014-3.067,9.79-6.586,14.24-10.602l-35.678-33.109c2.616-2.242,5.039-4.785,7.22-7.65
			c10.337,6.266,29.872,18.08,42.027,25.273c2.945-4.291,5.588-8.97,7.881-14.066l-45.052-18.99c1.529-3.029,2.824-6.338,3.85-9.951
			c11.868,2.28,37.11,7.115,47.762,9.055c1.185-5.261,2.07-10.851,2.607-16.808l-48.263-2.927c0.368-3.108,0.565-6.397,0.575-9.876
			c13.286-2.902,38.103-8.317,48.061-10.45c-0.142-2.868-0.327-5.778-0.606-8.781c-0.519-3.702-1.107-7.205-1.736-10.593
			l-46.26,19.009c-0.627-4.381-1.397-8.346-2.295-11.962l44.864-23.102c-1.732-6.167-3.69-11.735-5.891-16.707l-41.984,30.161
			c-1.549-3.957-3.335-7.325-5.332-10.235l34.808-40.041c-3.969-4.57-8.334-8.346-13.068-11.521l-28.247,44.248
			c-2.081-1.795-4.316-3.315-6.695-4.624l23.848-45.782c-5.172-2.352-10.689-4.262-16.517-5.923l-17.516,47.46
			c-2.396-0.756-4.891-1.423-7.485-2.037l14.195-48.179c-3.208-0.738-6.487-1.443-9.855-2.132c-1.405-0.237-2.813-0.446-4.222-0.635
			l-10.745,48.98c-1.868-0.204-3.738-0.35-5.607-0.411l4.914-49.574c-4.822-0.216-9.638-0.17-14.422,0.133l-2.143,49.978
			c-2.73,0.332-5.431,0.795-8.083,1.406L590.75,79.57c-5.389,0.844-10.698,1.998-15.882,3.453l9.496,49.117
			c-1.894,0.679-3.76,1.408-5.57,2.227l-16.529-47.129c-5.165,2.015-10.155,4.327-14.916,6.925l21.243,45.91
			c-2.257,1.52-4.403,3.147-6.396,4.901l-27.322-42.975c-4.012,2.882-7.785,5.987-11.279,9.299
			c8.884,10.836,23.773,28.886,32.934,39.404C555.51,151.901,554.542,153.132,553.648,154.405z"/>
	</g>
	<g>
		<g>
			<path id="XMLID_27_" fill="#73E3D4" d="M552.755,227.609c0,0-47.27,32.968-30.528,64.096
				c26.054,48.439,79.107,39.392,79.107,39.392s-10.267,49.054,19.059,80.429c17.221,18.425,54.096,30.734,79.089,6.581
				c21.319-20.602,29.322-52.062,14.718-71.972c-28.477-38.824-84.499-36.609-84.499-36.609s13.83-55.825-9.683-76.451
				C596.503,212.451,571.906,215.023,552.755,227.609z"/>
			<path id="XMLID_26_" fill="#00BDD0" d="M525.585,393.143c0,0,32.968,47.27,64.096,30.528
				c48.439-26.054,39.392-79.107,39.392-79.107s49.054,10.267,80.429-19.059c18.425-17.221,30.734-54.096,6.581-79.089
				c-20.602-21.319-52.062-29.322-71.972-14.718c-38.824,28.477-36.609,84.499-36.609,84.499s-55.825-13.83-76.451,9.683
				C510.426,349.395,512.998,373.992,525.585,393.143z"/>
			<path fill="#008292" d="M610.453,290.021c-20.043,6.083-29.187,23.361-23.028,43.51c6.369,20.833,25.366,32.152,44.296,26.394
				c21.414-6.515,31.73-26.4,24.989-48.167C650.623,292.106,632.164,283.431,610.453,290.021z"/>
		</g>
	</g>
	<g>
		<g>
			<path id="XMLID_13_" fill="#FF9EC5" d="M1465.972,522.52c0,0,46.204-26.983,33.032-57.038
				c-20.497-46.77-70.267-42.355-70.267-42.355s13.16-44.629-11.637-75.851c-14.562-18.335-47.768-32.477-72.698-11.991
				c-21.265,17.475-31.018,45.991-18.989,65.505c23.457,38.052,75.465,40.182,75.465,40.182s-16.963,50.629,3.258,71.47
				C1424.356,533.284,1447.31,532.739,1465.972,522.52z"/>
			<path id="XMLID_10_" fill="#F982BD" d="M1503.464,371.361c0,0-26.983-46.204-57.038-33.032
				c-46.77,20.497-42.354,70.267-42.354,70.267s-44.629-13.16-75.851,11.637c-18.335,14.562-32.477,47.768-11.991,72.698
				c17.475,21.265,45.991,31.018,65.505,18.989c38.052-23.457,40.182-75.465,40.182-75.465s50.63,16.963,71.47-3.258
				C1514.229,412.976,1513.683,390.022,1503.464,371.361z"/>
			<path fill="#FF4035" d="M1417.233,460.46c19.001-4.134,28.752-19.441,24.556-38.546c-4.34-19.754-21.075-31.646-39.022-27.729
				c-20.302,4.432-31.333,22.064-26.718,42.71C1380.215,455.533,1396.651,464.938,1417.233,460.46z"/>
		</g>
	</g>
	<g>
		<g>
			<path fill="#0EB800" d="M1222.089,328.383c7.107-16.234,9.381-32.755-9.198-47.047c-17.242-13.263-41.852-11.959-55.965,2.715
				c-13.974,14.53-11.217,30.364-8.409,49.709c-2.08-5.07-18.933-11.969-24.171-13.63c-14.621-4.634-26.73-2.133-35.466,7.827
				c-10.094,11.508-17.477,33.493-10.35,49.101c6.887,15.081,36.065,22.72,36.065,22.72c-46.597-1.4-54.471,59.599-5.544,70.516
				c17.038,3.802,27.597-3.449,34.334-11.846c-7.107,16.234-9.029,30.969,9.551,45.261c17.242,13.263,41.5,13.746,55.613-0.928
				c13.974-14.53,11.217-30.364,8.409-49.709c2.08,5.07,18.933,11.969,24.171,13.63c14.621,4.634,25.031,0.538,35.466-7.827
				c15.929-12.768,20.528-37.187,13.401-52.795c-6.887-15.081-38.053-22.26-38.053-22.26c46.597,1.4,51.573-57.11,2.646-68.027
				C1237.551,311.991,1228.827,319.986,1222.089,328.383z"/>
		</g>
		<path fill="#FFE400" d="M1209.781,416.654c13.976-15.438,12.934-34.846-2.624-48.874c-16.086-14.504-38.072-14.437-51.266,0.156
			c-14.924,16.508-13.547,38.738,3.334,53.848C1174.467,435.424,1194.642,433.378,1209.781,416.654z"/>
	</g>
	<g>
		<g>
			<path id="XMLID_43_" fill="#73E3D4" d="M1667.931,601.238c0,0,42.295-46.86,16.738-75.939
				c-39.77-45.251-94.146-22.487-94.146-22.487s-1.166-54.881-40.211-81.115c-22.929-15.406-65.319-19.429-86.02,12.52
				c-17.658,27.252-18.424,62.799,2.079,80.436c39.981,34.392,99.213,18.185,99.213,18.185s-0.964,62.987,29.224,79.186
				S1650.604,619.401,1667.931,601.238z"/>
			<path id="XMLID_42_" fill="#00BDD0" d="M1656.021,417.887c0,0-46.86-42.295-75.939-16.738
				c-45.251,39.77-22.487,94.146-22.487,94.146s-54.881,1.166-81.115,40.211c-15.406,22.929-19.429,65.319,12.52,86.02
				c27.252,17.658,62.799,18.424,80.436-2.079c34.392-39.981,18.185-99.213,18.185-99.213s62.987,0.964,79.186-29.223
				C1683.006,460.824,1674.183,435.213,1656.021,417.887z"/>
			<path fill="#008292" d="M1590.94,548.897c19.884-11.444,25.372-32.14,13.821-52.118c-11.944-20.657-35.012-28.041-53.789-17.219
				c-21.24,12.244-27.335,36.011-14.763,57.573C1547.561,556.598,1569.402,561.294,1590.94,548.897z"/>
		</g>
	</g>
	<g>
		<g>
			<g>
				<path fill="#FF8000" d="M1248.563,479.499c62.196,26.884,49.554-114.644,49.554-114.644S1186.368,452.615,1248.563,479.499z"/>
				<path fill="#FF8000" d="M1347.671,250.211c-62.196-26.884-49.554,114.644-49.554,114.644S1409.867,277.095,1347.671,250.211z"/>
				<path fill="#FF8000" d="M1412.761,414.409c26.884-62.196-114.644-49.554-114.644-49.554S1385.877,476.605,1412.761,414.409z"/>
				<path fill="#FF8000" d="M1183.474,315.301c-26.884,62.196,114.644,49.554,114.644,49.554S1210.357,253.105,1183.474,315.301z"/>
				<path fill="#FFA600" d="M1344.143,480.96c62.989-24.969-46.026-116.105-46.026-116.105S1281.154,505.93,1344.143,480.96z"/>
				<path fill="#FFA600" d="M1252.092,248.75c-62.989,24.969,46.026,116.105,46.026,116.105S1315.08,223.78,1252.092,248.75z"/>
				<path fill="#FFA600" d="M1414.222,318.829c-24.97-62.989-116.105,46.026-116.105,46.026S1439.192,381.818,1414.222,318.829z"/>
				<path fill="#FFA600" d="M1182.012,410.881c24.969,62.989,116.105-46.026,116.105-46.026S1157.043,347.892,1182.012,410.881z"/>
			</g>
		</g>
		<path fill="#FFE400" d="M1302.491,404.799c19.953-2.289,31.552-17.014,29.209-37.08c-2.423-20.748-18.395-34.694-37.242-32.52
			c-21.321,2.461-34.474,19.443-31.86,41.136C1264.958,395.919,1280.877,407.279,1302.491,404.799z"/>
	</g>
	<g>
		<g>
			<path fill="#008292" d="M298.814,222.963c-7.938,9.238-18.893,8.749-23.705,6.967c-6.994-2.59-11.996-10.756-12.563-18.494
				c-0.567-7.739,5.147-15.857,15.465-17.903c6.73-1.335,15.712,0.799,20.315,8.187C302.082,207.75,303.065,217.077,298.814,222.963
				z"/>
			<path fill="#008292" d="M232.024,218.752c2.429,13.26-5.615,22.352-10.498,25.254c-7.096,4.218-17.606,2.842-24.663-2.055
				c-7.057-4.897-10.068-15.464-4.651-25.77c3.535-6.722,11.621-12.971,21.183-11.791
				C221.202,205.353,229.915,210.997,232.024,218.752z"/>
			<path fill="#008292" d="M144.475,264.06c-10.236-4.906-12.45-14.885-12.011-19.648c0.637-6.921,6.775-13.401,13.603-15.786
				c6.827-2.385,15.518,0.792,19.858,9.582c2.832,5.734,3.087,14.335-2.448,20.266C158.959,263.318,150.802,266.46,144.475,264.06z"
				/>
			<path fill="#82D8E8" d="M153.662,259.206c24.312-12.915,40.955,23.591,40.955,23.591s-2.97-32.868,19.811-39.797
				c31.609-9.616,42.329,22.208,42.329,22.208s-1.309-36.078,29.386-39.858c28.235-3.479,45.1,36.643,44.031,86.515
				c-0.976,45.564-15.324,74.48-42.208,86.743c-35.101,16.012-65.265,15.385-85.366,6.857
				c-25.738-10.92-48.698-41.618-60.833-73.521C130.875,303.311,128.269,272.696,153.662,259.206z"/>
		</g>
	</g>
	<g>
		<g>
			<g>
				<path fill="#FF8000" d="M418.444,150.62c-63.015-28.665-52.837,116.154-52.837,116.154S481.46,179.285,418.444,150.62z"/>
				<path fill="#FF8000" d="M312.77,382.928c63.015,28.665,52.837-116.154,52.837-116.154S249.755,354.263,312.77,382.928z"/>
				<path fill="#FF8000" d="M249.453,213.937c-28.665,63.015,116.154,52.837,116.154,52.837S278.118,150.922,249.453,213.937z"/>
				<path fill="#FF8000" d="M481.761,319.611c28.665-63.015-116.154-52.837-116.154-52.837S453.096,382.627,481.761,319.611z"/>
				<path fill="#FFA600" d="M320.835,147.279c-64.828,24.289,44.772,119.495,44.772,119.495S385.663,122.99,320.835,147.279z"/>
				<path fill="#FFA600" d="M410.379,386.269c64.828-24.289-44.772-119.495-44.772-119.495S345.551,410.558,410.379,386.269z"/>
				<path fill="#FFA600" d="M246.112,311.546c24.289,64.828,119.495-44.772,119.495-44.772S221.823,246.718,246.112,311.546z"/>
				<path fill="#FFA600" d="M485.102,222.002c-24.289-64.828-119.495,44.772-119.495,44.772S509.391,286.83,485.102,222.002z"/>
			</g>
		</g>
		<path fill="#FFE400" d="M361.911,225.886c-20.427,1.953-32.56,16.77-30.555,37.314c2.074,21.241,18.12,35.797,37.415,33.94
			c21.827-2.102,35.592-19.196,33.342-41.406C400.081,235.682,384.038,223.77,361.911,225.886z"/>
	</g>
	<g>
		<g>
			<path id="XMLID_33_" fill="#73E3D4" d="M1033.175,568.503c0,0,42.295-46.86,16.738-75.939
				c-39.771-45.251-94.146-22.487-94.146-22.487s-1.166-54.881-40.211-81.115c-22.929-15.406-65.319-19.429-86.02,12.52
				c-17.658,27.252-18.424,62.799,2.079,80.436c39.981,34.392,99.213,18.185,99.213,18.185s-0.964,62.987,29.223,79.186
				S1015.849,586.666,1033.175,568.503z"/>
			<path id="XMLID_32_" fill="#00BDD0" d="M1021.265,385.152c0,0-46.86-42.295-75.939-16.738
				c-45.251,39.77-22.487,94.146-22.487,94.146s-54.881,1.166-81.115,40.211c-15.406,22.929-19.429,65.319,12.52,86.02
				c27.252,17.658,62.799,18.424,80.436-2.079c34.392-39.981,18.185-99.213,18.185-99.213s62.987,0.964,79.186-29.223
				S1039.428,402.478,1021.265,385.152z"/>
			<path fill="#008292" d="M956.185,516.163c19.884-11.444,25.372-32.14,13.821-52.118c-11.944-20.657-35.012-28.041-53.789-17.219
				c-21.24,12.244-27.335,36.011-14.763,57.573C912.805,523.863,934.646,528.559,956.185,516.163z"/>
		</g>
	</g>
	<g>
		<g>
			<g>
				<path fill="#FF8000" d="M1421.771,1034.769c63.565,27.424,50.55-117.167,50.55-117.167S1358.206,1007.345,1421.771,1034.769z"/>
				<path fill="#FF8000" d="M1522.871,800.435c-63.565-27.424-50.55,117.167-50.55,117.167S1586.436,827.859,1522.871,800.435z"/>
				<path fill="#FF8000" d="M1589.489,968.152c27.424-63.565-117.167-50.55-117.167-50.55S1562.064,1031.717,1589.489,968.152z"/>
				<path fill="#FF8000" d="M1355.154,867.052c-27.424,63.565,117.167,50.55,117.167,50.55S1382.578,803.487,1355.154,867.052z"/>
				<path fill="#FFA600" d="M1519.427,1036.196c64.339-25.555-47.106-118.594-47.106-118.594S1455.088,1061.752,1519.427,1036.196z"
					/>
				<path fill="#FFA600" d="M1425.216,799.008c-64.339,25.555,47.105,118.594,47.105,118.594S1489.555,773.452,1425.216,799.008z"/>
				<path fill="#FFA600" d="M1590.916,870.496c-25.555-64.339-118.594,47.106-118.594,47.106S1616.471,934.836,1590.916,870.496z"/>
				<path fill="#FFA600" d="M1353.727,964.708c25.555,64.339,118.594-47.106,118.594-47.106S1328.172,900.368,1353.727,964.708z"/>
			</g>
		</g>
		<path fill="#FFE400" d="M1476.818,958.41c20.385-2.353,32.225-17.405,29.818-37.906c-2.49-21.197-18.818-35.435-38.073-33.2
			c-21.782,2.529-35.209,19.889-32.524,42.051C1438.463,949.364,1454.737,960.959,1476.818,958.41z"/>
	</g>
	<g>
		<g>
			<path id="XMLID_31_" fill="#FF9EC5" d="M895.181,557.577c0,0,36.282-49.015,8.987-74.583
				c-42.475-39.788-92.628-12.811-92.628-12.811s-6.257-52.66-46.255-74.231c-23.488-12.667-64.624-12.568-81.539,20.088
				c-14.428,27.856-11.839,62.107,9.526,77.147c41.661,29.327,97.097,8.201,97.097,8.201s4.968,60.654,35.51,73.405
				C856.422,587.542,880.221,576.662,895.181,557.577z"/>
			<path id="XMLID_30_" fill="#F982BD" d="M866.571,382.395c0,0-49.015-36.282-74.583-8.987
				c-39.788,42.475-12.811,92.628-12.811,92.628s-52.66,6.257-74.231,46.255c-12.667,23.488-12.568,64.624,20.088,81.539
				c27.856,14.428,62.107,11.839,77.147-9.526c29.327-41.661,8.201-97.097,8.201-97.097s60.654-4.968,73.404-35.51
				S885.656,397.354,866.571,382.395z"/>
			<path fill="#FF4035" d="M816.255,514.455c18.048-12.864,21.388-33.278,8.412-51.406c-13.417-18.744-36.289-23.686-53.33-11.523
				c-19.277,13.76-22.913,37.184-8.807,56.739C775.265,525.919,796.705,528.39,816.255,514.455z"/>
		</g>
	</g>
	<g>
		<g>
			<path fill="#FFE400" d="M359.808,567.222c-19.157,3.993-35.478,12.519-36.45,38.384c-0.902,24.003,16.02,45.314,38.256,48.624
				c22.018,3.277,34.502-9.336,50.113-24.243c-3.231,5.116,1.344,24.696,3.203,30.473c5.186,16.123,15.185,25.418,29.738,26.907
				c16.815,1.72,41.324-5.705,50.808-22.107c9.164-15.848-2.634-46.993-2.634-46.993c28.559,42.827,88.489,10.878,67.003-40.136
				c-7.482-17.764-20.763-22.627-32.631-23.316c19.157-3.994,33.646-11.693,34.617-37.558c0.902-24.003-14.187-46.141-36.423-49.451
				c-22.018-3.277-34.502,9.336-50.113,24.243c3.231-5.116-1.344-24.696-3.203-30.473c-5.186-16.123-15.533-22.869-29.738-26.907
				c-21.683-6.164-46.6,5.324-56.084,21.726c-9.164,15.848,4.32,48.488,4.32,48.488c-28.559-42.827-84.394-9.863-62.909,41.151
				C335.163,563.797,347.94,566.532,359.808,567.222z"/>
		</g>
		<path fill="#FDF1B8" d="M447.117,521.811c-22.836-2.697-39.634,10.66-42.301,33.637c-2.757,23.757,11.372,43.499,32.946,46.033
			c24.405,2.866,43.529-12.599,46.323-37.459C486.605,541.578,471.853,524.732,447.117,521.811z"/>
	</g>
	<g>
		<path fill="#FFD200" d="M449.713,688.349c6.183,66.507-24.981,96.129-60.671,108.906c-34.653,10.801-90.419,8.531-120.046-18.428
			c-23.385-21.282-40.899-79.658-8.62-132.708c21.841-31.114,67.947-49.142,111.521-41.791
			C412.372,612.601,440.517,622.781,449.713,688.349z"/>
		<path fill="#FFA600" d="M299.417,672.576c-0.488,0.803-0.947,1.608-1.395,2.415l-38.288-27.161
			c-3.042,5.182-5.616,10.407-7.761,15.641l42.238,19.555c-0.987,2.481-1.806,4.962-2.469,7.433l-45.308-9.989
			c-1.128,4.637-1.941,9.243-2.488,13.795l45.934,6.017c-0.305,2.718-0.435,5.397-0.412,8.023l-46.217,6.286
			c0.282,5.353,0.926,10.549,1.867,15.547c12.75-3.889,33.371-10.149,44.939-13.506c0.24,1.778,0.549,3.516,0.919,5.21
			l-40.955,26.159c1.821,4.951,3.934,9.552,6.266,13.739l38.396-28.402c0.623,1.422,1.29,2.779,1.993,4.07l-31.234,37.427
			c1.279,1.436,2.581,2.776,3.906,3.982c1.618,1.472,3.327,2.858,5.094,4.185c9.254-13.269,24.123-34.529,27.089-38.412
			c0.895,1.056,1.813,2.027,2.751,2.88c0.574,0.522,1.206,0.988,1.813,1.478l-16.636,42.961c3.423,1.593,6.977,3.01,10.639,4.249
			l13.321-42.436c2.372,1.244,4.871,2.324,7.476,3.242L310.255,799.1c4.402,1.077,8.894,1.941,13.433,2.591l5.518-42.372
			c3.701,0.808,7.494,1.353,11.299,1.652l-3.594,42.032c4.893,0.282,9.774,0.346,14.582,0.198
			c-0.866-12.831-1.895-30.539-2.542-41.958c2.243-0.028,4.47-0.11,6.645-0.293l6.357,41.593c4.762-0.452,9.399-1.099,13.835-1.941
			l-13.061-40.571c2.392-0.404,4.685-0.9,6.863-1.485l15.706,39.879c1.392-0.376,2.766-0.765,4.098-1.18
			c2.828-1.012,5.622-2.144,8.377-3.378l-20.944-37.935c1.809-0.813,3.583-1.716,5.308-2.715
			c6.336,8.152,18.749,24.081,27.158,34.606c4.581-2.802,8.945-6.018,13.011-9.687l-32.599-30.251
			c2.391-2.049,4.604-4.372,6.597-6.99c9.445,5.725,27.293,16.52,38.4,23.092c2.691-3.92,5.105-8.196,7.201-12.852l-41.163-17.351
			c1.397-2.767,2.58-5.791,3.518-9.092c10.844,2.083,33.907,6.501,43.639,8.273c1.083-4.807,1.892-9.914,2.382-15.357l-44.097-2.674
			c0.336-2.84,0.516-5.845,0.526-9.024c12.139-2.651,34.814-7.599,43.913-9.548c-0.13-2.62-0.299-5.279-0.554-8.023
			c-0.474-3.383-1.012-6.583-1.586-9.678l-42.267,17.368c-0.573-4.003-1.276-7.626-2.097-10.93l40.991-21.108
			c-1.583-5.635-3.371-10.723-5.383-15.265l-38.361,27.558c-1.415-3.616-3.047-6.693-4.871-9.352l31.803-36.585
			c-3.626-4.176-7.615-7.626-11.94-10.527l-25.809,40.429c-1.902-1.64-3.944-3.029-6.117-4.225l21.79-41.83
			c-4.725-2.149-9.767-3.894-15.092-5.412l-16.004,43.364c-2.189-0.691-4.469-1.3-6.839-1.861l12.969-44.02
			c-2.931-0.674-5.927-1.319-9.004-1.948c-1.284-0.217-2.57-0.407-3.858-0.58l-9.818,44.753c-1.707-0.187-3.415-0.32-5.123-0.376
			l4.49-45.295c-4.406-0.197-8.806-0.155-13.177,0.121l-1.958,45.664c-2.494,0.303-4.962,0.726-7.386,1.285l-2.103-45.69
			c-4.923,0.771-9.774,1.826-14.512,3.155l8.676,44.877c-1.73,0.621-3.436,1.286-5.089,2.034l-15.102-43.061
			c-4.719,1.841-9.278,3.953-13.628,6.327l19.409,41.947c-2.062,1.389-4.023,2.875-5.844,4.478l-24.963-39.266
			c-3.665,2.633-7.113,5.47-10.305,8.496c8.117,9.9,21.721,26.393,30.092,36.003C301.118,670.288,300.233,671.413,299.417,672.576z"
			/>
	</g>
	<g>
		<g>
			<path id="XMLID_29_" fill="#FF9EC5" d="M152.317,739.057c0,0-41.739,44.46-17.605,73.031
				c37.557,44.46,90.508,23.503,90.508,23.503s0.087,53.031,37.303,79.109c21.855,15.314,62.722,20.003,83.322-10.464
				c17.572-25.987,18.985-60.308-0.485-77.731c-37.965-33.975-95.484-19.443-95.484-19.443s2.124-60.82-26.727-77.038
				S169.396,721.842,152.317,739.057z"/>
			<path id="XMLID_28_" fill="#F982BD" d="M160.349,916.378c0,0,44.46,41.739,73.031,17.605
				c44.46-37.557,23.503-90.508,23.503-90.508s53.031-0.087,79.109-37.303c15.314-21.855,20.003-62.722-10.464-83.322
				c-25.987-17.572-60.308-18.985-77.731,0.485c-33.975,37.966-19.443,95.484-19.443,95.484s-60.82-2.124-77.038,26.727
				S143.134,899.299,160.349,916.378z"/>
			<path fill="#FF4035" d="M225.689,791.069c-19.422,10.677-25.115,30.563-14.336,50.078c11.145,20.178,33.286,27.747,51.627,17.65
				c20.747-11.424,27.084-34.265,15.349-55.329C267.735,784.453,246.728,779.504,225.689,791.069z"/>
		</g>
	</g>
	<g>
		<path fill="#FFD200" d="M1010.385,584.714c9.369,62.084-18.29,91.554-51.099,105.458c-31.941,11.994-84.398,12.854-113.648-10.858
			c-23.087-18.718-42.654-72.564-15.205-124.081c18.828-30.371,61.131-49.762,102.419-45.199
			C971.28,515.628,998.238,523.673,1010.385,584.714z"/>
		<path fill="#FFA600" d="M868.49,577.969c-0.415,0.779-0.802,1.56-1.18,2.341l-37.389-23.437
			c-2.577,5.026-4.712,10.068-6.445,15.095l40.687,16.087c-0.793,2.381-1.429,4.754-1.918,7.109l-43.056-6.945
			c-0.81,4.412-1.326,8.778-1.595,13.08l43.431,3.184c-0.14,2.567-0.119,5.089,0.044,7.552l-43.036,8.377
			c0.552,5.009,1.435,9.85,2.585,14.49c11.757-4.333,30.773-11.314,41.45-15.084c0.321,1.656,0.704,3.271,1.142,4.84l-37.033,26.745
			c1.974,4.549,4.204,8.754,6.618,12.558l34.511-28.714c0.661,1.301,1.36,2.538,2.089,3.713l-27.305,36.799
			c1.277,1.279,2.572,2.467,3.879,3.527c1.597,1.295,3.276,2.503,5.005,3.654c7.973-12.949,20.788-33.698,23.363-37.501
			c0.897,0.943,1.81,1.805,2.737,2.555c0.567,0.459,1.185,0.863,1.781,1.29l-13.309,41.21c3.298,1.312,6.71,2.451,10.212,3.418
			l10.227-40.539c2.293,1.041,4.696,1.92,7.19,2.642l-7.727,40.113c4.189,0.774,8.451,1.344,12.745,1.712l2.907-40.061
			c3.517,0.56,7.105,0.868,10.693,0.945l-1.119,39.639c4.607,0.002,9.191-0.2,13.695-0.596c-1.501-11.995-3.416-28.559-4.636-39.241
			c2.104-0.147,4.189-0.343,6.221-0.632l8.196,38.693c4.444-0.68,8.762-1.535,12.88-2.563l-14.433-37.374
			c2.223-0.507,4.348-1.096,6.361-1.761l16.878,36.583c1.286-0.428,2.554-0.866,3.782-1.327c2.6-1.102,5.161-2.314,7.68-3.619
			l-21.69-34.478c1.654-0.86,3.27-1.802,4.836-2.832c6.383,7.311,18.887,21.594,27.343,31.021c4.149-2.876,8.072-6.127,11.691-9.789
			l-32.215-26.642c2.134-2.051,4.086-4.35,5.816-6.913c9.171,4.866,26.5,14.04,37.275,19.612c2.315-3.823,4.352-7.965,6.069-12.448
			l-39.561-14.076c1.162-2.672,2.111-5.573,2.814-8.721c10.288,1.373,32.169,4.283,41.398,5.424
			c0.759-4.569,1.244-9.406,1.412-14.54l-41.527-0.145c0.163-2.683,0.171-5.513,0.01-8.497c11.25-3.139,32.265-8.998,40.699-11.315
			c-0.263-2.452-0.563-4.938-0.95-7.5c-0.627-3.149-1.303-6.124-2.007-8.998l-38.735,18.566c-0.752-3.726-1.607-7.088-2.554-10.145
			l37.338-22.007c-1.787-5.203-3.739-9.882-5.87-14.037l-34.523,27.919c-1.522-3.317-3.218-6.118-5.073-8.515l27.885-36.039
			c-3.627-3.724-7.555-6.748-11.77-9.239l-22.053,39.325c-1.873-1.437-3.863-2.631-5.967-3.637l18.206-40.425
			c-4.55-1.763-9.374-3.131-14.453-4.27l-12.694,41.554c-2.092-0.531-4.264-0.981-6.518-1.38l9.811-42.007
			c-2.787-0.476-5.633-0.92-8.555-1.345c-1.216-0.134-2.434-0.244-3.652-0.337l-6.814,42.526c-1.612-0.084-3.222-0.117-4.828-0.078
			l1.785-42.749c-4.145,0.051-8.273,0.327-12.36,0.82l0.611,42.96c-2.324,0.418-4.618,0.948-6.862,1.602l-4.424-42.766
			c-4.579,0.988-9.075,2.237-13.45,3.739l10.548,41.651c-1.591,0.675-3.155,1.391-4.667,2.182l-16.482-39.602
			c-4.33,1.981-8.495,4.208-12.451,6.668l20.464,38.326c-1.861,1.414-3.621,2.914-5.244,4.515l-25.533-35.511
			c-3.299,2.668-6.382,5.515-9.215,8.526c8.149,8.856,21.799,23.604,30.171,32.174C869.964,575.731,869.194,576.834,868.49,577.969z
			"/>
	</g>
	<g>
		<g>
			<path id="XMLID_19_" fill="#FF9EC5" d="M392.672,301.024c0,0-42.571,45.346-17.955,74.486
				c38.305,45.346,92.312,23.971,92.312,23.971s0.088,54.087,38.046,80.685c22.29,15.619,63.972,20.401,84.983-10.672
				c17.922-26.505,19.363-61.51-0.494-79.28c-38.722-34.652-97.386-19.831-97.386-19.831s2.166-62.032-27.26-78.573
				S410.091,283.466,392.672,301.024z"/>
			<path id="XMLID_18_" fill="#F982BD" d="M400.864,481.878c0,0,45.346,42.571,74.486,17.955
				c45.346-38.305,23.971-92.312,23.971-92.312s54.087-0.088,80.685-38.046c15.619-22.29,20.401-63.972-10.672-84.983
				c-26.505-17.922-61.51-19.363-79.28,0.494c-34.652,38.722-19.831,97.386-19.831,97.386s-62.032-2.166-78.573,27.26
				S383.306,464.459,400.864,481.878z"/>
			<path fill="#FF4035" d="M467.506,354.073c-19.809,10.889-25.615,31.172-14.622,51.076c11.367,20.58,33.949,28.3,52.656,18.002
				c21.161-11.651,27.624-34.948,15.655-56.431C510.39,347.325,488.964,342.277,467.506,354.073z"/>
		</g>
	</g>
	<g>
		<g>
			<path fill="#008292" d="M532.574,698.435c-11.032,7.163-22.237,3.329-26.683,0.02c-6.461-4.808-9.166-14.791-7.403-22.983
				c1.763-8.193,10.151-14.87,21.466-13.857c7.38,0.66,16.041,5.6,18.567,14.655C540.581,683.661,538.767,693.626,532.574,698.435z"
				/>
			<path fill="#008292" d="M464.633,673.784c-1.51,14.48-12.609,21.459-18.55,22.984c-8.636,2.216-19.11-2.402-24.936-9.62
				c-5.826-7.219-5.738-19.085,3.007-28.121c5.705-5.893,15.983-9.913,25.535-5.786C457.487,656.61,464.802,665.106,464.633,673.784
				z"/>
			<path fill="#008292" d="M360.137,694.149c-9.119-8.194-8.382-19.208-6.48-24.011c2.763-6.98,11.092-11.831,18.892-12.229
				s15.842,5.535,17.67,15.963c1.193,6.803-1.155,15.794-8.693,20.259C375.373,697.779,365.964,698.558,360.137,694.149z"/>
			<path fill="#82D8E8" d="M371.132,691.909c29.119-6.001,35.28,36.889,35.28,36.889s6.905-34.966,32.619-35.228
				c35.68-0.365,37.124,35.873,37.124,35.873s9.602-37.788,42.562-32.383c30.32,4.97,35.611,51.675,19.355,103.037
				c-14.851,46.925-38.504,72.535-70.091,77.079c-41.242,5.932-72.313-3.878-90.555-18.823
				c-23.357-19.135-37.829-57.924-40.715-94.673C334.119,730.698,340.718,698.176,371.132,691.909z"/>
		</g>
	</g>
	<g>
		<g>
			<path id="XMLID_17_" fill="#73E3D4" d="M550.212,523.91c0,0-47.27,32.968-30.528,64.096
				c26.054,48.439,79.107,39.392,79.107,39.392s-10.267,49.054,19.059,80.429c17.221,18.425,54.096,30.734,79.089,6.581
				c21.319-20.602,29.322-52.062,14.718-71.972c-28.477-38.824-84.499-36.609-84.499-36.609s13.83-55.825-9.683-76.451
				C593.96,508.751,569.364,511.324,550.212,523.91z"/>
			<path id="XMLID_16_" fill="#00BDD0" d="M523.042,689.444c0,0,32.968,47.27,64.096,30.528
				c48.439-26.054,39.392-79.107,39.392-79.107s49.054,10.267,80.429-19.059c18.425-17.221,30.734-54.096,6.581-79.089
				c-20.602-21.319-52.062-29.322-71.972-14.718c-38.824,28.477-36.609,84.499-36.609,84.499s-55.825-13.83-76.451,9.683
				C507.883,645.696,510.456,670.292,523.042,689.444z"/>
			<path fill="#008292" d="M607.911,586.321c-20.043,6.083-29.187,23.361-23.028,43.51c6.369,20.833,25.366,32.152,44.296,26.394
				c21.414-6.515,31.73-26.4,24.989-48.167C648.081,588.406,629.621,579.732,607.911,586.321z"/>
		</g>
	</g>
	<g>
		<g>
			<path id="XMLID_15_" fill="#FF9EC5" d="M1482.421,798.012c0,0,46.204-26.983,33.032-57.038
				c-20.497-46.77-70.267-42.355-70.267-42.355s13.16-44.629-11.637-75.851c-14.562-18.335-47.768-32.477-72.698-11.991
				c-21.266,17.475-31.018,45.991-18.989,65.505c23.457,38.052,75.465,40.182,75.465,40.182s-16.963,50.629,3.258,71.47
				S1463.76,808.231,1482.421,798.012z"/>
			<path id="XMLID_14_" fill="#F982BD" d="M1519.914,646.853c0,0-26.983-46.204-57.037-33.032
				c-46.77,20.497-42.355,70.267-42.355,70.267s-44.629-13.16-75.851,11.637c-18.335,14.562-32.477,47.768-11.99,72.698
				c17.475,21.265,45.991,31.018,65.505,18.989c38.052-23.457,40.182-75.465,40.182-75.465s50.629,16.963,71.47-3.258
				S1530.132,665.515,1519.914,646.853z"/>
			<path fill="#FF4035" d="M1433.683,735.952c19.001-4.134,28.752-19.441,24.556-38.546c-4.34-19.754-21.075-31.646-39.022-27.729
				c-20.302,4.432-31.333,22.064-26.718,42.71C1396.665,731.026,1413.1,740.431,1433.683,735.952z"/>
		</g>
	</g>
	<g>
		<g>
			<path id="XMLID_12_" fill="#73E3D4" d="M1684.38,876.731c0,0,42.295-46.86,16.738-75.939
				c-39.771-45.251-94.146-22.487-94.146-22.487s-1.166-54.881-40.211-81.115c-22.929-15.406-65.319-19.429-86.02,12.52
				c-17.658,27.252-18.424,62.799,2.079,80.436c39.981,34.392,99.213,18.185,99.213,18.185s-0.964,62.987,29.224,79.186
				S1667.054,894.893,1684.38,876.731z"/>
			<path id="XMLID_11_" fill="#00BDD0" d="M1672.47,693.379c0,0-46.86-42.295-75.939-16.738
				c-45.251,39.77-22.487,94.146-22.487,94.146s-54.881,1.166-81.115,40.211c-15.406,22.929-19.428,65.319,12.52,86.02
				c27.252,17.658,62.799,18.424,80.436-2.079c34.392-39.981,18.185-99.213,18.185-99.213s62.987,0.964,79.186-29.223
				S1690.633,710.705,1672.47,693.379z"/>
			<path fill="#008292" d="M1607.39,824.39c19.884-11.443,25.372-32.14,13.821-52.118c-11.944-20.657-35.012-28.041-53.789-17.219
				c-21.24,12.244-27.335,36.011-14.763,57.573C1564.01,832.09,1585.851,836.786,1607.39,824.39z"/>
		</g>
	</g>
	<g>
		<g>
			<path fill="#008292" d="M315.263,498.455c-7.938,9.238-18.893,8.749-23.705,6.967c-6.994-2.59-11.996-10.756-12.563-18.494
				c-0.567-7.739,5.147-15.857,15.465-17.903c6.73-1.335,15.712,0.799,20.315,8.187
				C318.531,483.242,319.515,492.569,315.263,498.455z"/>
			<path fill="#008292" d="M248.474,494.244c2.429,13.26-5.615,22.352-10.498,25.254c-7.096,4.218-17.606,2.842-24.663-2.055
				c-7.057-4.897-10.068-15.464-4.651-25.77c3.535-6.722,11.621-12.971,21.183-11.791
				C237.652,480.845,246.364,486.489,248.474,494.244z"/>
			<path fill="#008292" d="M160.925,539.553c-10.236-4.906-12.45-14.885-12.011-19.648c0.637-6.921,6.775-13.401,13.603-15.786
				c6.827-2.385,15.518,0.792,19.858,9.582c2.832,5.734,3.087,14.335-2.448,20.266C175.409,538.81,167.252,541.953,160.925,539.553z
				"/>
			<path fill="#82D8E8" d="M170.111,534.699c24.312-12.915,40.955,23.591,40.955,23.591s-2.97-32.868,19.811-39.797
				c31.609-9.616,42.329,22.208,42.329,22.208s-1.309-36.078,29.386-39.858c28.235-3.479,45.1,36.643,44.031,86.516
				c-0.976,45.564-15.324,74.48-42.208,86.743c-35.101,16.012-65.265,15.385-85.366,6.857
				c-25.738-10.92-48.698-41.618-60.833-73.521C147.324,578.804,144.719,548.188,170.111,534.699z"/>
		</g>
	</g>
	<g>
		<g>
			<g>
				<path fill="#FF8000" d="M166.452,536.019c-63.015-28.665-52.837,116.154-52.837,116.154S229.468,564.683,166.452,536.019z"/>
				<path fill="#FF8000" d="M60.778,768.327c63.015,28.665,52.837-116.154,52.837-116.154S-2.237,739.662,60.778,768.327z"/>
				<path fill="#FF8000" d="M-2.539,599.336c-28.665,63.015,116.154,52.837,116.154,52.837S26.126,536.32-2.539,599.336z"/>
				<path fill="#FF8000" d="M229.769,705.01c28.665-63.015-116.154-52.837-116.154-52.837S201.104,768.025,229.769,705.01z"/>
				<path fill="#FFA600" d="M68.843,532.678c-64.828,24.289,44.772,119.495,44.772,119.495S133.671,508.388,68.843,532.678z"/>
				<path fill="#FFA600" d="M158.387,771.668c64.828-24.289-44.772-119.495-44.772-119.495S93.559,795.957,158.387,771.668z"/>
				<path fill="#FFA600" d="M-5.88,696.945c24.289,64.828,119.495-44.772,119.495-44.772S-30.169,632.117-5.88,696.945z"/>
				<path fill="#FFA600" d="M233.11,607.401c-24.289-64.828-119.495,44.772-119.495,44.772S257.4,672.228,233.11,607.401z"/>
			</g>
		</g>
		<path fill="#FFE400" d="M109.919,611.284c-20.427,1.953-32.56,16.77-30.555,37.314c2.074,21.241,18.12,35.797,37.415,33.94
			c21.827-2.102,35.592-19.195,33.342-41.406C148.089,621.081,132.046,609.169,109.919,611.284z"/>
	</g>
	<g>
		<g>
			<path id="XMLID_21_" fill="#FF9EC5" d="M740.956,420.834c0,0,59.816,11.872,71.277-23.728
				c17.835-55.399-27.977-89.227-27.977-89.227s44.943-28.148,47.365-73.527c1.422-26.648-16.236-63.801-52.989-65.148
				c-31.349-1.149-61.214,15.821-65.688,41.563c-8.724,50.196,34.055,91.298,34.055,91.298s-52.722,30.397-51.207,63.459
				C697.308,398.585,717.31,415.458,740.956,420.834z"/>
			<path id="XMLID_20_" fill="#F982BD" d="M887.137,320.144c0,0,11.872-59.816-23.728-71.277
				c-55.399-17.835-89.227,27.977-89.227,27.977s-28.148-44.943-73.527-47.365c-26.648-1.422-63.801,16.236-65.148,52.989
				c-1.149,31.349,15.821,61.214,41.563,65.688c50.196,8.724,91.298-34.055,91.298-34.055s30.397,52.722,63.459,51.207
				S881.762,343.79,887.137,320.144z"/>
			<path fill="#FF4035" d="M746.238,331.051c19.34,10.825,39.225,5.126,50.075-14.349c11.218-20.138,5.918-42.929-12.358-53.143
				c-20.675-11.554-43.408-4.837-55.065,16.27C718.366,298.884,725.289,319.325,746.238,331.051z"/>
		</g>
	</g>
	<g>
		<g>
			<path fill="#008292" d="M1194.63,441.624c-8.707,7.047-18.538,4.794-22.597,2.387c-5.9-3.498-9.076-11.712-8.311-18.808
				c0.765-7.095,7.276-13.496,16.949-13.643c6.309-0.096,14.083,3.318,17.027,10.763C1200.1,428.4,1199.449,437.001,1194.63,441.624
				z"/>
			<path fill="#008292" d="M1134.9,426.781c0.007,12.398-8.773,19.294-13.669,21.113c-7.117,2.644-16.398-0.337-21.974-5.933
				c-5.575-5.596-6.555-15.654,0.049-24.083c4.308-5.498,12.656-9.815,21.112-7.168
				C1127.322,412.871,1134.272,419.416,1134.9,426.781z"/>
			<path fill="#008292" d="M1048.208,453.31c-8.451-6.13-8.805-15.524-7.621-19.76c1.72-6.157,8.344-11.005,14.914-12.035
				c6.571-1.03,13.908,3.28,16.383,11.95c1.615,5.655,0.425,13.479-5.563,17.93C1061.434,455.031,1053.535,456.527,1048.208,453.31z
				"/>
			<path fill="#82D8E8" d="M1057.321,450.436c24.129-7.668,33.156,28.109,33.156,28.109s2.742-30.227,24.497-32.733
				c30.186-3.478,34.628,27.084,34.628,27.084s4.776-32.857,33.171-31.206c26.12,1.517,34.75,40.602,25.544,85.546
				c-8.41,41.061-26.168,64.852-52.516,71.506c-34.402,8.688-61.588,3.138-78.365-7.898c-21.481-14.132-37.183-45.698-42.891-76.565
				C1029.419,486.575,1032.119,458.446,1057.321,450.436z"/>
		</g>
	</g>
	<g>
		<g>
			<path fill="#0EB800" d="M1640.161,584.58c7.107-16.234,9.381-32.755-9.198-47.047c-17.241-13.263-41.852-11.959-55.965,2.715
				c-13.974,14.53-11.217,30.364-8.409,49.709c-2.08-5.07-18.933-11.969-24.171-13.63c-14.621-4.634-26.73-2.133-35.466,7.827
				c-10.094,11.508-17.477,33.493-10.35,49.101c6.887,15.081,36.065,22.72,36.065,22.72c-46.597-1.4-54.471,59.599-5.544,70.516
				c17.037,3.802,27.597-3.449,34.334-11.846c-7.107,16.234-9.029,30.969,9.551,45.261c17.242,13.263,41.5,13.746,55.613-0.928
				c13.974-14.53,11.217-30.364,8.409-49.709c2.08,5.07,18.933,11.969,24.171,13.63c14.621,4.634,25.031,0.538,35.466-7.827
				c15.929-12.768,20.528-37.187,13.401-52.795c-6.887-15.081-38.053-22.26-38.053-22.26c46.597,1.4,51.573-57.11,2.646-68.027
				C1655.623,568.188,1646.899,576.183,1640.161,584.58z"/>
		</g>
		<path fill="#FFE400" d="M1627.853,672.85c13.976-15.438,12.934-34.846-2.624-48.874c-16.087-14.504-38.072-14.437-51.266,0.156
			c-14.924,16.508-13.547,38.738,3.334,53.848C1592.539,691.621,1612.714,689.574,1627.853,672.85z"/>
	</g>
	<g>
		<g>
			<path fill="#0EB800" d="M675.172,396.39c7.107-16.234,9.381-32.755-9.198-47.047c-17.242-13.263-41.852-11.959-55.965,2.715
				c-13.974,14.53-11.217,30.364-8.409,49.709c-2.08-5.07-18.933-11.969-24.171-13.63c-14.621-4.634-26.73-2.133-35.466,7.827
				c-10.094,11.508-17.477,33.493-10.35,49.101c6.887,15.081,36.065,22.72,36.065,22.72c-46.597-1.4-54.471,59.599-5.544,70.516
				c17.038,3.802,27.597-3.449,34.334-11.846c-7.107,16.234-9.029,30.969,9.551,45.261c17.242,13.263,41.5,13.746,55.613-0.928
				c13.974-14.53,11.217-30.364,8.409-49.709c2.08,5.07,18.933,11.969,24.171,13.63c14.621,4.634,25.031,0.538,35.466-7.827
				c15.929-12.768,20.528-37.187,13.401-52.795c-6.887-15.081-38.053-22.26-38.053-22.26c46.597,1.4,51.573-57.11,2.646-68.027
				C690.635,379.998,681.91,387.993,675.172,396.39z"/>
		</g>
		<path fill="#FFE400" d="M662.865,484.66c13.976-15.438,12.934-34.846-2.624-48.874c-16.086-14.504-38.072-14.437-51.266,0.156
			c-14.924,16.508-13.547,38.738,3.334,53.848C627.551,503.43,647.726,501.384,662.865,484.66z"/>
	</g>
	<g>
		<g>
			<path fill="#008292" d="M872.652,648.826c-11.971,0.198-18.764-8.172-20.596-12.872c-2.663-6.83,0.072-15.838,5.389-21.307
				c5.317-5.469,15.013-6.57,23.254-0.323c5.375,4.074,9.671,12.068,7.246,20.274C885.966,641.296,879.753,648.107,872.652,648.826z
				"/>
			<path fill="#008292" d="M832.141,596.993c-8.159,10.443-20.092,10.466-25.413,8.772c-7.733-2.461-13.584-11.083-14.592-19.466
				c-1.008-8.383,4.791-17.495,15.902-20.243c7.248-1.791,17.119,0.072,22.494,7.869
				C834.923,580.292,836.463,590.38,832.141,596.993z"/>
			<path fill="#008292" d="M741.686,562.234c-3.078-10.726,2.811-18.867,6.597-21.655c5.503-4.05,14.272-3.77,20.482-0.31
				s9.549,11.921,5.923,20.85c-2.365,5.824-8.519,11.627-16.492,11.432C751.688,572.394,744.053,568.451,741.686,562.234z"/>
			<path fill="#82D8E8" d="M751.251,565.816c25.364,9.435,9.402,45.5,9.402,45.5s22.215-23.641,42.181-11.424
				c27.703,16.951,11.315,45.607,11.315,45.607s25.659-24.516,48.477-4.426c20.991,18.479,2.515,57.067-34.834,88.842
				c-34.122,29.03-64.74,37.364-91.304,25.614c-34.684-15.342-53.916-37.919-60.772-58.259
				c-8.778-26.044-1.208-62.959,14.314-92.706C703.961,577.865,724.759,555.962,751.251,565.816z"/>
		</g>
	</g>
	<g>
		<g>
			<path fill="#0EB800" d="M1237.204,604.374c7.107-16.234,9.381-32.755-9.198-47.047c-17.241-13.263-41.852-11.959-55.965,2.715
				c-13.974,14.53-11.217,30.364-8.409,49.709c-2.08-5.07-18.933-11.969-24.171-13.63c-14.621-4.634-26.73-2.133-35.466,7.827
				c-10.094,11.508-17.477,33.493-10.35,49.101c6.887,15.081,36.065,22.72,36.065,22.72c-46.597-1.4-54.471,59.599-5.544,70.516
				c17.037,3.802,27.597-3.449,34.334-11.846c-7.107,16.234-9.029,30.969,9.551,45.261c17.242,13.263,41.5,13.746,55.613-0.928
				c13.974-14.53,11.217-30.364,8.409-49.709c2.08,5.07,18.933,11.969,24.171,13.63c14.621,4.634,25.031,0.538,35.466-7.827
				c15.929-12.768,20.528-37.187,13.401-52.795c-6.887-15.081-38.053-22.26-38.053-22.26c46.597,1.4,51.573-57.11,2.646-68.027
				C1252.666,587.982,1243.941,595.977,1237.204,604.374z"/>
		</g>
		<path fill="#FFE400" d="M1224.896,692.644c13.976-15.438,12.934-34.846-2.624-48.874c-16.087-14.504-38.072-14.437-51.266,0.156
			c-14.924,16.508-13.547,38.738,3.334,53.848C1189.582,711.414,1209.757,709.368,1224.896,692.644z"/>
	</g>
	<g>
		<g>
			<path fill="#FFE400" d="M1008.255,563.375c-9.891-15.002-22.691-26.05-45.099-18.128c-20.794,7.352-33.262,29.007-28.563,49.109
				c4.652,19.904,19.643,26.293,37.65,34.576c-5.461-1.027-20.627,9.504-24.93,13.045c-12.008,9.882-16.56,21.563-12.907,34.49
				c4.222,14.936,18.852,33.345,36.062,35.891c16.629,2.46,39.224-18.149,39.224-18.149c-26.896,38.87,20.655,79.218,56.932,43.616
				c12.633-12.397,12.29-25.38,8.863-35.744c9.891,15.002,21.365,24.765,43.774,16.843c20.794-7.352,34.587-27.722,29.889-47.824
				c-4.653-19.904-19.643-26.293-37.65-34.576c5.461,1.027,20.627-9.504,24.929-13.044c12.008-9.882,14.266-20.998,12.907-34.49
				c-2.075-20.595-20.312-37.978-37.522-40.524c-16.629-2.46-39.929,20.094-39.929,20.094c26.896-38.87-20.136-75.379-56.414-39.778
				C1002.839,541.178,1004.828,553.011,1008.255,563.375z"/>
		</g>
		<path fill="#FDF1B8" d="M1076.56,622.54c-5.424-20.406-22.51-30.226-43.026-24.729c-21.213,5.685-33.284,24.426-28.148,43.7
			c5.812,21.803,25.483,32.895,47.649,26.868C1073.048,662.937,1082.436,644.644,1076.56,622.54z"/>
	</g>
	<g>
		<g>
			<path fill="#0EB800" d="M885.703,696.111c7.107-16.234,9.381-32.755-9.198-47.047c-17.242-13.263-41.852-11.959-55.965,2.715
				c-13.974,14.53-11.217,30.364-8.409,49.709c-2.08-5.07-18.933-11.969-24.171-13.63c-14.621-4.634-26.73-2.133-35.466,7.827
				c-10.094,11.508-17.477,33.493-10.35,49.101c6.887,15.081,36.065,22.72,36.065,22.72c-46.597-1.4-54.471,59.599-5.544,70.516
				c17.038,3.802,27.597-3.449,34.334-11.846c-7.107,16.234-9.029,30.969,9.551,45.261c17.242,13.263,41.5,13.746,55.613-0.928
				c13.974-14.53,11.217-30.364,8.409-49.709c2.08,5.07,18.933,11.969,24.171,13.63c14.621,4.634,25.031,0.538,35.466-7.827
				c15.929-12.768,20.528-37.187,13.401-52.795c-6.887-15.081-38.053-22.26-38.053-22.26c46.597,1.4,51.573-57.11,2.646-68.027
				C901.166,679.718,892.441,687.714,885.703,696.111z"/>
		</g>
		<path fill="#FFE400" d="M873.396,784.381c13.976-15.438,12.934-34.846-2.624-48.874c-16.086-14.504-38.072-14.437-51.266,0.156
			c-14.924,16.508-13.547,38.738,3.334,53.848C838.082,803.151,858.257,801.105,873.396,784.381z"/>
	</g>
	<g>
		<g>
			<path fill="#FFE400" d="M599.58,733.717c-9.891-15.002-22.691-26.05-45.099-18.128c-20.794,7.351-33.262,29.007-28.563,49.109
				c4.652,19.904,19.643,26.293,37.65,34.576c-5.461-1.027-20.627,9.504-24.93,13.045c-12.008,9.882-16.56,21.563-12.907,34.49
				c4.222,14.936,18.852,33.345,36.062,35.891c16.629,2.46,39.224-18.149,39.224-18.149c-26.896,38.87,20.655,79.218,56.932,43.616
				c12.633-12.397,12.29-25.38,8.863-35.744c9.891,15.002,21.365,24.765,43.774,16.843c20.794-7.352,34.587-27.722,29.889-47.824
				c-4.653-19.904-19.643-26.293-37.65-34.576c5.461,1.027,20.627-9.504,24.93-13.045c12.008-9.882,14.266-20.998,12.906-34.49
				c-2.075-20.595-20.312-37.978-37.522-40.524c-16.629-2.46-39.929,20.094-39.929,20.094c26.896-38.87-20.136-75.379-56.414-39.778
				C594.164,711.52,596.153,723.353,599.58,733.717z"/>
		</g>
		<path fill="#FDF1B8" d="M667.885,792.881c-5.424-20.406-22.51-30.226-43.026-24.729c-21.213,5.685-33.284,24.426-28.148,43.7
			c5.812,21.803,25.483,32.895,47.649,26.868C664.373,833.279,673.761,814.986,667.885,792.881z"/>
	</g>
	<g>
		<g>
			<path fill="#008292" d="M1081.012,684.837c-8.763,7.092-18.657,4.825-22.742,2.402c-5.937-3.521-9.135-11.788-8.365-18.928
				s7.323-13.582,17.058-13.73c6.35-0.097,14.173,3.339,17.136,10.832C1086.517,671.529,1085.862,680.185,1081.012,684.837z"/>
			<path fill="#008292" d="M1020.899,669.899c0.008,12.478-8.829,19.418-13.757,21.249c-7.162,2.661-16.503-0.339-22.114-5.971
				s-6.597-15.754,0.049-24.238c4.336-5.533,12.737-9.878,21.247-7.214C1013.273,655.9,1020.268,662.487,1020.899,669.899z"/>
			<path fill="#008292" d="M933.651,696.599c-8.505-6.169-8.861-15.623-7.67-19.887c1.731-6.196,8.397-11.076,15.01-12.112
				s13.998,3.301,16.488,12.026c1.625,5.692,0.427,13.565-5.598,18.045C946.962,698.33,939.012,699.836,933.651,696.599z"/>
			<path fill="#82D8E8" d="M942.822,693.706c24.284-7.718,33.369,28.289,33.369,28.289s2.76-30.42,24.654-32.943
				c30.379-3.501,34.85,27.258,34.85,27.258s4.806-33.067,33.383-31.406c26.287,1.526,34.972,40.863,25.708,86.095
				c-8.464,41.325-26.335,65.268-52.853,71.965c-34.623,8.743-61.983,3.158-78.868-7.949
				c-21.619-14.222-37.421-45.991-43.167-77.056C914.742,730.077,917.459,701.767,942.822,693.706z"/>
		</g>
	</g>
	<g>
		<g>
			<path id="XMLID_37_" fill="#FF9EC5" d="M790.374,1029.453c0,0,36.282-49.015,8.987-74.583
				c-42.475-39.788-92.628-12.811-92.628-12.811s-6.257-52.66-46.255-74.231c-23.488-12.667-64.624-12.568-81.539,20.088
				c-14.428,27.856-11.839,62.107,9.526,77.147c41.661,29.327,97.097,8.201,97.097,8.201s4.968,60.654,35.51,73.404
				C751.615,1059.418,775.415,1048.538,790.374,1029.453z"/>
			<path id="XMLID_36_" fill="#F982BD" d="M761.764,854.271c0,0-49.015-36.282-74.583-8.987
				c-39.788,42.475-12.811,92.628-12.811,92.628s-52.66,6.257-74.231,46.255c-12.667,23.488-12.568,64.624,20.088,81.539
				c27.856,14.428,62.107,11.839,77.147-9.526c29.327-41.661,8.201-97.097,8.201-97.097s60.654-4.968,73.404-35.51
				S780.849,869.231,761.764,854.271z"/>
			<path fill="#FF4035" d="M711.448,986.331c18.048-12.864,21.388-33.278,8.412-51.406c-13.417-18.744-36.289-23.686-53.33-11.523
				c-19.277,13.76-22.913,37.184-8.807,56.739C670.458,997.795,691.898,1000.266,711.448,986.331z"/>
		</g>
	</g>
	<g>
		<g>
			<path fill="#008292" d="M656.734,921.683c-11.971,0.198-18.764-8.172-20.596-12.872c-2.663-6.83,0.072-15.838,5.389-21.307
				c5.317-5.469,15.013-6.57,23.254-0.323c5.375,4.074,9.671,12.068,7.246,20.274C670.047,914.153,663.835,920.965,656.734,921.683z
				"/>
			<path fill="#008292" d="M616.223,869.85c-8.159,10.443-20.092,10.466-25.413,8.772c-7.733-2.461-13.584-11.083-14.592-19.466
				c-1.008-8.383,4.791-17.495,15.902-20.243c7.248-1.791,17.119,0.072,22.494,7.869
				C619.005,853.149,620.545,863.237,616.223,869.85z"/>
			<path fill="#008292" d="M525.768,835.092c-3.078-10.726,2.811-18.867,6.597-21.655c5.503-4.05,14.272-3.77,20.482-0.31
				c6.21,3.46,9.549,11.921,5.923,20.85c-2.365,5.824-8.519,11.627-16.492,11.432C535.769,845.251,528.134,841.308,525.768,835.092z
				"/>
			<path fill="#82D8E8" d="M535.332,838.674c25.364,9.435,9.402,45.5,9.402,45.5s22.215-23.641,42.181-11.424
				c27.703,16.951,11.315,45.607,11.315,45.607s25.659-24.516,48.477-4.426c20.991,18.479,2.515,57.067-34.834,88.842
				c-34.122,29.03-64.74,37.364-91.304,25.614c-34.684-15.342-53.916-37.919-60.772-58.259
				c-8.778-26.044-1.208-62.959,14.314-92.706C488.043,850.723,508.841,828.82,535.332,838.674z"/>
		</g>
	</g>
	<g>
		<g>
			<g>
				<path fill="#FF8000" d="M402.354,1023.095c67.757,0,0-124.895,0-124.895S334.596,1023.095,402.354,1023.095z"/>
				<path fill="#FF8000" d="M402.354,773.305c-67.757,0,0,124.895,0,124.895S470.111,773.305,402.354,773.305z"/>
				<path fill="#FF8000" d="M527.249,898.2c0-67.757-124.895,0-124.895,0S527.249,965.957,527.249,898.2z"/>
				<path fill="#FF8000" d="M277.459,898.2c0,67.757,124.895,0,124.895,0S277.459,830.443,277.459,898.2z"/>
				<path fill="#FFA600" d="M490.668,986.514c47.912-47.912-88.314-88.314-88.314-88.314S442.756,1034.426,490.668,986.514z"/>
				<path fill="#FFA600" d="M314.039,809.886c-47.912,47.912,88.314,88.314,88.314,88.314S361.951,761.974,314.039,809.886z"/>
				<path fill="#FFA600" d="M490.668,809.886c-47.912-47.912-88.314,88.314-88.314,88.314S538.579,857.798,490.668,809.886z"/>
				<path fill="#FFA600" d="M314.039,986.514c47.912,47.912,88.314-88.314,88.314-88.314S266.128,938.602,314.039,986.514z"/>
			</g>
		</g>
		<path fill="#FFE400" d="M422.217,933.13c17.407-10.018,22.211-28.136,12.099-45.626c-10.456-18.083-30.65-24.548-47.088-15.074
			c-18.594,10.718-23.93,31.525-12.924,50.401C384.241,939.871,403.361,943.982,422.217,933.13z"/>
	</g>
	<g>
		<path fill="#FFD200" d="M1261.927,802.59c6.767,72.79-27.341,105.21-66.402,119.194c-37.926,11.821-98.961,9.337-131.387-20.169
			c-25.594-23.292-44.763-87.183-9.435-145.245c23.904-34.054,74.366-53.784,122.057-45.739
			C1221.058,719.686,1251.861,730.828,1261.927,802.59z"/>
		<path fill="#FFA600" d="M1097.432,785.326c-0.535,0.878-1.036,1.76-1.527,2.643L1054,758.242
			c-3.33,5.671-6.146,11.39-8.494,17.119l46.228,21.403c-1.08,2.715-1.977,5.431-2.702,8.136l-49.588-10.933
			c-1.234,5.075-2.125,10.116-2.723,15.099l50.274,6.586c-0.333,2.975-0.476,5.907-0.451,8.781l-50.583,6.88
			c0.309,5.859,1.013,11.545,2.043,17.015c13.954-4.256,36.523-11.108,49.184-14.782c0.263,1.946,0.601,3.849,1.006,5.702
			l-44.824,28.63c1.993,5.419,4.305,10.455,6.858,15.037l42.024-31.085c0.682,1.556,1.412,3.041,2.182,4.455l-34.184,40.963
			c1.4,1.572,2.825,3.038,4.275,4.358c1.771,1.611,3.642,3.128,5.575,4.58c10.128-14.522,26.402-37.791,29.649-42.041
			c0.98,1.156,1.985,2.218,3.011,3.152c0.628,0.572,1.32,1.082,1.985,1.618l-18.208,47.02c3.746,1.744,7.637,3.295,11.644,4.651
			l14.58-46.445c2.596,1.362,5.331,2.543,8.182,3.549l-11.646,46.115c4.818,1.178,9.735,2.124,14.702,2.836l6.04-46.375
			c4.051,0.884,8.201,1.48,12.367,1.808l-3.933,46.003c5.356,0.309,10.698,0.378,15.959,0.217
			c-0.948-14.043-2.075-33.424-2.783-45.922c2.455-0.031,4.892-0.12,7.273-0.321l6.958,45.522
			c5.211-0.495,10.287-1.203,15.142-2.124l-14.295-44.404c2.618-0.442,5.127-0.985,7.511-1.625l17.19,43.646
			c1.524-0.411,3.027-0.837,4.485-1.292c3.095-1.108,6.153-2.347,9.168-3.697l-22.923-41.518c1.98-0.89,3.921-1.878,5.81-2.971
			c6.934,8.922,20.52,26.356,29.724,37.875c5.014-3.067,9.79-6.586,14.24-10.602l-35.678-33.109c2.616-2.242,5.039-4.785,7.22-7.65
			c10.337,6.266,29.872,18.08,42.027,25.273c2.945-4.291,5.588-8.97,7.881-14.066l-45.052-18.99c1.529-3.029,2.824-6.338,3.85-9.951
			c11.868,2.28,37.11,7.115,47.762,9.055c1.185-5.261,2.07-10.851,2.607-16.808l-48.263-2.927c0.368-3.108,0.565-6.397,0.575-9.876
			c13.286-2.902,38.103-8.317,48.061-10.45c-0.142-2.868-0.327-5.778-0.606-8.781c-0.519-3.702-1.107-7.205-1.736-10.593
			l-46.26,19.009c-0.627-4.381-1.397-8.346-2.295-11.962l44.864-23.102c-1.732-6.167-3.69-11.735-5.891-16.707l-41.984,30.161
			c-1.549-3.957-3.334-7.325-5.332-10.235l34.807-40.041c-3.969-4.57-8.334-8.346-13.068-11.521l-28.247,44.248
			c-2.081-1.795-4.316-3.315-6.695-4.624l23.849-45.782c-5.172-2.352-10.689-4.262-16.517-5.923l-17.516,47.461
			c-2.396-0.756-4.891-1.423-7.485-2.037l14.195-48.179c-3.208-0.738-6.487-1.443-9.855-2.132c-1.405-0.237-2.813-0.446-4.222-0.635
			l-10.745,48.98c-1.868-0.204-3.738-0.35-5.607-0.411l4.914-49.574c-4.822-0.216-9.638-0.17-14.422,0.133l-2.143,49.978
			c-2.73,0.332-5.431,0.795-8.083,1.406l-2.302-50.006c-5.389,0.844-10.698,1.998-15.882,3.453l9.496,49.117
			c-1.894,0.68-3.76,1.408-5.57,2.227l-16.528-47.129c-5.165,2.015-10.155,4.327-14.916,6.925l21.243,45.91
			c-2.257,1.52-4.403,3.147-6.396,4.901l-27.322-42.975c-4.012,2.882-7.785,5.987-11.278,9.299
			c8.884,10.836,23.773,28.886,32.934,39.404C1099.294,782.822,1098.326,784.053,1097.432,785.326z"/>
	</g>
	<g>
		<g>
			<path id="XMLID_41_" fill="#73E3D4" d="M1385.01,1033.408c0,0,42.295-46.86,16.738-75.939
				c-39.77-45.251-94.146-22.487-94.146-22.487s-1.166-54.881-40.211-81.115c-22.929-15.406-65.319-19.429-86.02,12.519
				c-17.658,27.252-18.424,62.799,2.079,80.436c39.981,34.392,99.213,18.185,99.213,18.185s-0.964,62.987,29.224,79.186
				C1342.073,1060.393,1367.683,1051.57,1385.01,1033.408z"/>
			<path id="XMLID_40_" fill="#00BDD0" d="M1373.1,850.056c0,0-46.86-42.295-75.939-16.738
				c-45.251,39.77-22.487,94.146-22.487,94.146s-54.881,1.166-81.115,40.211c-15.406,22.929-19.428,65.319,12.52,86.02
				c27.252,17.658,62.799,18.424,80.436-2.079c34.392-39.981,18.185-99.213,18.185-99.213s62.987,0.964,79.186-29.224
				S1391.262,867.383,1373.1,850.056z"/>
			<path fill="#008292" d="M1308.019,981.067c19.884-11.443,25.372-32.14,13.821-52.118c-11.944-20.657-35.012-28.041-53.789-17.219
				c-21.24,12.244-27.335,36.011-14.763,57.573C1264.64,988.768,1286.481,993.463,1308.019,981.067z"/>
		</g>
	</g>
	<g>
		<g>
			<path fill="#FFE400" d="M960.634,903.019c-9.891-15.002-22.691-26.05-45.099-18.128c-20.795,7.352-33.262,29.007-28.563,49.109
				c4.652,19.904,19.643,26.293,37.65,34.576c-5.461-1.027-20.627,9.504-24.93,13.045c-12.008,9.882-16.56,21.563-12.906,34.49
				c4.221,14.936,18.852,33.345,36.062,35.891c16.629,2.46,39.224-18.149,39.224-18.149c-26.896,38.87,20.655,79.218,56.932,43.616
				c12.633-12.397,12.29-25.38,8.863-35.744c9.891,15.002,21.365,24.765,43.774,16.843c20.795-7.352,34.587-27.723,29.889-47.824
				c-4.653-19.904-19.643-26.293-37.65-34.576c5.461,1.027,20.627-9.504,24.929-13.045c12.008-9.882,14.266-20.998,12.906-34.49
				c-2.075-20.595-20.312-37.978-37.522-40.524c-16.629-2.46-39.929,20.094-39.929,20.094c26.896-38.87-20.136-75.379-56.414-39.778
				C955.219,880.823,957.207,892.655,960.634,903.019z"/>
		</g>
		<path fill="#FDF1B8" d="M1028.94,962.184c-5.424-20.406-22.51-30.226-43.026-24.729c-21.213,5.684-33.284,24.426-28.148,43.699
			c5.812,21.803,25.483,32.895,47.649,26.868C1025.427,1002.581,1034.816,984.289,1028.94,962.184z"/>
	</g>
	<g>
		<g>
			<g>
				<path fill="#FF8000" d="M820.883,1086.483c63.565,27.424,50.55-117.167,50.55-117.167S757.318,1059.058,820.883,1086.483z"/>
				<path fill="#FF8000" d="M921.983,852.148c-63.565-27.424-50.55,117.167-50.55,117.167S985.548,879.572,921.983,852.148z"/>
				<path fill="#FF8000" d="M988.601,1019.865c27.424-63.565-117.167-50.55-117.167-50.55S961.176,1083.43,988.601,1019.865z"/>
				<path fill="#FF8000" d="M754.266,918.765c-27.424,63.565,117.167,50.55,117.167,50.55S781.69,855.2,754.266,918.765z"/>
				<path fill="#FFA600" d="M918.539,1087.91c64.339-25.555-47.105-118.594-47.105-118.594S854.199,1113.465,918.539,1087.91z"/>
				<path fill="#FFA600" d="M824.328,850.721c-64.339,25.555,47.106,118.594,47.106,118.594S888.667,825.165,824.328,850.721z"/>
				<path fill="#FFA600" d="M990.027,922.21c-25.555-64.339-118.594,47.105-118.594,47.105S1015.583,986.549,990.027,922.21z"/>
				<path fill="#FFA600" d="M752.839,1016.421c25.555,64.339,118.594-47.105,118.594-47.105S727.283,952.082,752.839,1016.421z"/>
			</g>
		</g>
		<path fill="#FFE400" d="M875.93,1010.123c20.385-2.353,32.225-17.405,29.817-37.906c-2.49-21.197-18.818-35.435-38.074-33.2
			c-21.782,2.529-35.209,19.89-32.523,42.052C837.575,1001.077,853.848,1012.672,875.93,1010.123z"/>
	</g>
	<g>
		<g>
			<path fill="#008292" d="M1202.865,901.966c-8.763,7.092-18.657,4.825-22.742,2.402c-5.937-3.521-9.135-11.788-8.364-18.928
				c0.77-7.141,7.323-13.582,17.058-13.73c6.35-0.097,14.173,3.339,17.136,10.832
				C1208.37,888.657,1207.715,897.313,1202.865,901.966z"/>
			<path fill="#008292" d="M1142.752,887.028c0.007,12.478-8.829,19.418-13.757,21.249c-7.162,2.661-16.503-0.339-22.114-5.971
				c-5.611-5.632-6.597-15.754,0.049-24.238c4.336-5.533,12.737-9.878,21.248-7.214
				C1135.126,873.028,1142.12,879.616,1142.752,887.028z"/>
			<path fill="#008292" d="M1055.504,913.727c-8.505-6.169-8.861-15.623-7.67-19.887c1.731-6.196,8.397-11.076,15.01-12.112
				c6.613-1.036,13.998,3.301,16.488,12.026c1.625,5.692,0.427,13.566-5.598,18.045
				C1068.815,915.459,1060.865,916.964,1055.504,913.727z"/>
			<path fill="#82D8E8" d="M1064.675,910.835c24.284-7.718,33.369,28.289,33.369,28.289s2.76-30.42,24.654-32.943
				c30.379-3.501,34.85,27.258,34.85,27.258s4.806-33.067,33.383-31.406c26.287,1.526,34.972,40.863,25.708,86.095
				c-8.464,41.325-26.336,65.268-52.853,71.965c-34.623,8.743-61.983,3.158-78.868-7.949
				c-21.619-14.222-37.421-45.991-43.167-77.056C1036.595,947.205,1039.312,918.895,1064.675,910.835z"/>
		</g>
	</g>
</g>
<g id="Layer_1">
</g>
</svg>
