<?xml version="1.0" encoding="utf-8"?>
<!-- Generator: Adobe Illustrator 24.2.3, SVG Export Plug-In . SVG Version: 6.00 Build 0)  -->
<svg version="1.1" xmlns="http://www.w3.org/2000/svg" xmlns:xlink="http://www.w3.org/1999/xlink" x="0px" y="0px"
	 viewBox="0 0 2518.823 790.865" enable-background="new 0 0 2518.823 790.865" xml:space="preserve">
<g id="summer_x5F_flowers_x5F_pile2">
	<path fill="#0EB800" d="M2417.982,361.946c180.73,218.279,92.669,418.104-61.515,428.92H164.221
		c-174.79-57.522-202.34-226.957-119.056-356.437c55.735-67.978,54.528-133.871,68.569-170.535
		c29.288-76.478,151.683-155.568,322.849-78.096c171.549,65.713,196.697-0.664,348.343,8.853
		c112.817-2.473,304.506-69.352,507.586-19.399s136.405,42.941,286.262,86.754s421.136-112.983,586.945-92.205
		C2435.668,203.628,2380.496,316.672,2417.982,361.946z"/>
	<g>
		<g>
			<path fill="#8CD000" d="M2310.487,704.375c12.219-14.347,10.661-56.852-25.695-73.57c-43.444-19.976-72.646,3.628-74.426,5.949
				c-4.411,5.751-10.288,38.467,17.418,67.453c14.847,15.532,32.938,19.167,45.473,19.165
				C2293.176,723.367,2304.508,711.399,2310.487,704.375z"/>
			<polygon fill="#00A038" points="2211.209,635.042 2337.855,716.93 2332.058,724.013 2208.666,638.73 			"/>
		</g>
		<g>
			<path fill="#8CD000" d="M2370.007,718.394c8.74,16.697,48.747,31.139,77.842,3.669c34.766-32.824,23.792-68.735,22.305-71.254
				c-3.685-6.24-31.834-23.923-69.072-9.06c-19.956,7.965-30.091,23.384-34.775,35.014
				C2358.863,695.235,2365.729,710.22,2370.007,718.394z"/>
			<polygon fill="#00A038" points="2471.427,652.231 2348.131,739.083 2343.729,731.058 2468.957,648.494 			"/>
		</g>
	</g>
	<polygon fill="#00A038" points="432.821,205.598 427.849,790.865 455.677,790.865 445.52,205.598 	"/>
	<polygon fill="#00A038" points="777.916,138.83 772.944,790.865 800.772,790.865 790.615,138.83 	"/>
	<polygon fill="#00A038" points="605.368,408.594 600.396,790.865 628.224,790.865 618.068,408.594 	"/>
	<polygon fill="#00A038" points="1123.011,138.83 1118.039,790.865 1145.867,790.865 1135.71,138.83 	"/>
	<polygon fill="#00A038" points="948.686,369.583 942.726,790.865 976.086,790.865 963.91,369.583 	"/>
	<polygon fill="#00A038" points="1468.107,138.83 1463.135,790.865 1490.963,790.865 1480.806,138.83 	"/>
	<polygon fill="#00A038" points="1295.559,408.594 1290.587,790.865 1318.415,790.865 1308.258,408.594 	"/>
	<polygon fill="#00A038" points="1813.202,138.83 1808.23,790.865 1836.058,790.865 1825.901,138.83 	"/>
	<polygon fill="#00A038" points="1638.877,369.583 1632.916,790.865 1666.276,790.865 1654.1,369.583 	"/>
	<polygon fill="#00A038" points="2158.297,156.831 2153.325,790.865 2181.153,790.865 2170.996,156.831 	"/>
	<polygon fill="#00A038" points="1985.75,426.594 1980.778,790.865 2008.606,790.865 1998.449,426.594 	"/>
	<polygon fill="#00A038" points="2329.067,387.584 2323.107,790.865 2356.467,790.865 2344.291,387.584 	"/>
	<polygon fill="#00A038" points="171.52,351.773 165.56,790.865 198.92,790.865 186.744,351.773 	"/>
	<polygon fill="#00A038" points="315.599,389.088 310.627,790.865 338.455,790.865 328.298,389.088 	"/>
	<g>
		<g>
			<path fill="#8CD000" d="M150.961,526.731c12.218-14.347,10.661-56.852-25.695-73.57c-43.444-19.976-72.646,3.628-74.426,5.949
				c-4.411,5.751-10.288,38.467,17.418,67.453c14.847,15.532,32.938,19.167,45.473,19.165
				C133.65,545.724,144.982,533.756,150.961,526.731z"/>
			<polygon fill="#00A038" points="51.683,457.399 178.329,539.287 172.532,546.37 49.139,461.087 			"/>
		</g>
		<g>
			<path fill="#8CD000" d="M210.481,540.751c8.741,16.697,48.747,31.139,77.841,3.669c34.766-32.824,23.792-68.735,22.305-71.254
				c-3.685-6.24-31.834-23.923-69.072-9.06c-19.956,7.965-30.091,23.384-34.775,35.014
				C199.337,517.592,206.203,532.577,210.481,540.751z"/>
			<polygon fill="#00A038" points="311.901,474.588 188.605,561.44 184.203,553.415 309.431,470.851 			"/>
		</g>
	</g>
	<g>
		<g>
			<path fill="#8CD000" d="M299.348,698.634c12.218-14.347,10.661-56.852-25.695-73.571c-43.444-19.976-72.646,3.628-74.426,5.949
				c-4.411,5.751-10.288,38.467,17.418,67.453c14.847,15.532,32.938,19.167,45.473,19.165
				C282.037,717.627,293.368,705.659,299.348,698.634z"/>
			<polygon fill="#00A038" points="200.07,629.301 326.715,711.189 320.918,718.273 197.526,632.989 			"/>
		</g>
		<g>
			<path fill="#8CD000" d="M358.868,712.653c8.741,16.697,48.747,31.139,77.841,3.669c34.766-32.825,23.792-68.735,22.305-71.254
				c-3.685-6.24-31.834-23.923-69.072-9.06c-19.956,7.965-30.091,23.384-34.775,35.014
				C347.723,689.495,354.589,704.48,358.868,712.653z"/>
			<polygon fill="#00A038" points="460.288,646.49 336.992,733.343 332.59,725.318 457.818,642.753 			"/>
		</g>
	</g>
	<g>
		<g>
			<path fill="#8CD000" d="M410.481,377.561c12.218-14.347,10.661-56.852-25.695-73.571c-43.444-19.976-72.646,3.628-74.426,5.949
				c-4.411,5.751-10.288,38.467,17.418,67.453c14.847,15.532,32.938,19.167,45.473,19.165
				C393.169,396.553,404.501,384.585,410.481,377.561z"/>
			<polygon fill="#00A038" points="311.202,308.228 437.848,390.116 432.051,397.2 308.659,311.916 			"/>
		</g>
		<g>
			<path fill="#8CD000" d="M470,391.58c8.741,16.697,48.747,31.139,77.841,3.669c34.766-32.824,23.792-68.735,22.305-71.254
				c-3.685-6.24-31.834-23.923-69.072-9.06c-19.956,7.965-30.091,23.384-34.775,35.014C458.856,368.422,465.722,383.407,470,391.58z
				"/>
			<polygon fill="#00A038" points="571.42,325.417 448.125,412.27 443.723,404.244 568.95,321.68 			"/>
		</g>
	</g>
	<g>
		<g>
			<path fill="#8CD000" d="M580.765,585.317c12.218-14.347,10.661-56.852-25.695-73.571c-43.444-19.976-72.646,3.628-74.426,5.949
				c-4.411,5.751-10.288,38.467,17.418,67.453c14.847,15.532,32.938,19.167,45.473,19.165
				C563.453,604.31,574.785,592.342,580.765,585.317z"/>
			<polygon fill="#00A038" points="481.486,515.984 608.132,597.872 602.335,604.956 478.943,519.672 			"/>
		</g>
		<g>
			<path fill="#8CD000" d="M640.284,599.336c8.741,16.697,48.747,31.139,77.841,3.669c34.766-32.825,23.792-68.735,22.305-71.254
				c-3.685-6.24-31.834-23.923-69.072-9.06c-19.956,7.965-30.091,23.384-34.775,35.014
				C629.14,576.178,636.006,591.163,640.284,599.336z"/>
			<polygon fill="#00A038" points="741.704,533.173 618.408,620.026 614.007,612.001 739.234,529.436 			"/>
		</g>
	</g>
	<g>
		<g>
			<path fill="#8CD000" d="M757.559,398.674c12.218-14.347,10.661-56.852-25.695-73.57c-43.444-19.976-72.646,3.628-74.426,5.949
				c-4.411,5.751-10.288,38.467,17.418,67.453c14.847,15.532,32.938,19.167,45.473,19.165
				C740.247,417.667,751.579,405.699,757.559,398.674z"/>
			<polygon fill="#00A038" points="658.28,329.342 784.926,411.23 779.129,418.313 655.737,333.03 			"/>
		</g>
		<g>
			<path fill="#8CD000" d="M817.078,412.694c8.741,16.697,48.747,31.139,77.841,3.669c34.766-32.824,23.792-68.735,22.305-71.254
				c-3.685-6.24-31.834-23.923-69.072-9.06c-19.956,7.965-30.091,23.384-34.775,35.014
				C805.934,389.535,812.8,404.52,817.078,412.694z"/>
			<polygon fill="#00A038" points="918.498,346.531 795.202,433.383 790.8,425.358 916.028,342.794 			"/>
		</g>
	</g>
	<g>
		<g>
			<path fill="#8CD000" d="M816.158,717.009c-12.218-14.347-10.661-56.852,25.695-73.57c43.444-19.976,72.646,3.628,74.426,5.949
				c4.411,5.751,10.288,38.467-17.418,67.453c-14.847,15.532-32.938,19.167-45.473,19.165
				C833.469,736.001,822.137,724.033,816.158,717.009z"/>
			<polygon fill="#00A038" points="915.436,647.676 788.79,729.564 794.587,736.647 917.98,651.364 			"/>
		</g>
		<g>
			<path fill="#8CD000" d="M756.638,731.028c-8.741,16.697-48.747,31.139-77.841,3.669c-34.766-32.825-23.792-68.735-22.305-71.254
				c3.685-6.24,31.834-23.923,69.072-9.06c19.956,7.965,30.091,23.384,34.775,35.014
				C767.783,707.869,760.916,722.854,756.638,731.028z"/>
			<polygon fill="#00A038" points="655.218,664.865 778.514,751.717 782.916,743.692 657.688,661.128 			"/>
		</g>
	</g>
	<g>
		<g>
			<path fill="#8CD000" d="M930.106,549.907c12.218-14.347,10.661-56.852-25.695-73.57c-43.444-19.976-72.646,3.628-74.426,5.949
				c-4.411,5.751-10.288,38.467,17.418,67.453c14.847,15.532,32.938,19.167,45.473,19.165
				C912.795,568.899,924.127,556.931,930.106,549.907z"/>
			<polygon fill="#00A038" points="830.828,480.574 957.474,562.462 951.677,569.546 828.284,484.262 			"/>
		</g>
		<g>
			<path fill="#8CD000" d="M989.626,563.926c8.741,16.697,48.747,31.139,77.841,3.669c34.766-32.824,23.792-68.735,22.305-71.254
				c-3.685-6.24-31.834-23.923-69.072-9.06c-19.956,7.965-30.091,23.384-34.775,35.014
				C978.481,540.767,985.348,555.752,989.626,563.926z"/>
			<polygon fill="#00A038" points="1091.046,497.763 967.75,584.615 963.348,576.59 1088.576,494.026 			"/>
		</g>
	</g>
	<g>
		<g>
			<path fill="#8CD000" d="M1168.127,711.462c-12.218-14.347-10.661-56.852,25.695-73.57c43.444-19.976,72.646,3.628,74.426,5.949
				c4.411,5.751,10.288,38.467-17.418,67.453c-14.847,15.532-32.938,19.167-45.473,19.165
				C1185.438,730.455,1174.106,718.487,1168.127,711.462z"/>
			<polygon fill="#00A038" points="1267.405,642.13 1140.759,724.017 1146.556,731.101 1269.948,645.818 			"/>
		</g>
		<g>
			<path fill="#8CD000" d="M1108.607,725.481c-8.74,16.697-48.747,31.139-77.841,3.669c-34.766-32.825-23.792-68.735-22.305-71.254
				c3.685-6.24,31.834-23.923,69.072-9.06c19.956,7.965,30.091,23.384,34.775,35.014
				C1119.751,702.323,1112.885,717.308,1108.607,725.481z"/>
			<polygon fill="#00A038" points="1007.187,659.318 1130.483,746.171 1134.885,738.146 1009.657,655.582 			"/>
		</g>
	</g>
	<g>
		<g>
			<path fill="#8CD000" d="M1332.085,577.461c-12.218-14.347-10.661-56.852,25.695-73.571c43.444-19.976,72.646,3.628,74.426,5.949
				c4.411,5.751,10.288,38.467-17.418,67.453c-14.847,15.532-32.938,19.167-45.473,19.165
				C1349.396,596.454,1338.065,584.486,1332.085,577.461z"/>
			<polygon fill="#00A038" points="1431.363,508.128 1304.718,590.016 1310.515,597.1 1433.907,511.816 			"/>
		</g>
		<g>
			<path fill="#8CD000" d="M1272.565,591.48c-8.74,16.697-48.747,31.139-77.841,3.669c-34.766-32.825-23.792-68.735-22.305-71.254
				c3.685-6.24,31.834-23.923,69.072-9.06c19.956,7.965,30.091,23.384,34.775,35.014
				C1283.71,568.322,1276.844,583.307,1272.565,591.48z"/>
			<polygon fill="#00A038" points="1171.145,525.317 1294.441,612.17 1298.843,604.145 1173.615,521.58 			"/>
		</g>
	</g>
	<g>
		<g>
			<path fill="#8CD000" d="M1447.749,711.462c12.218-14.347,10.661-56.852-25.695-73.57c-43.443-19.976-72.646,3.628-74.426,5.949
				c-4.411,5.751-10.288,38.467,17.418,67.453c14.847,15.532,32.938,19.167,45.473,19.165
				C1430.438,730.455,1441.77,718.487,1447.749,711.462z"/>
			<polygon fill="#00A038" points="1348.471,642.13 1475.117,724.017 1469.32,731.101 1345.927,645.818 			"/>
		</g>
		<g>
			<path fill="#8CD000" d="M1507.269,725.481c8.741,16.697,48.747,31.139,77.841,3.669c34.766-32.825,23.792-68.735,22.305-71.254
				c-3.685-6.24-31.834-23.923-69.072-9.06c-19.955,7.965-30.091,23.384-34.775,35.014
				C1496.124,702.323,1502.991,717.308,1507.269,725.481z"/>
			<polygon fill="#00A038" points="1608.689,659.318 1485.393,746.171 1480.991,738.146 1606.219,655.582 			"/>
		</g>
	</g>
	<g>
		<g>
			<path fill="#8CD000" d="M1682.76,576.274c-12.218-14.347-10.661-56.852,25.695-73.571c43.444-19.976,72.646,3.628,74.426,5.949
				c4.411,5.751,10.288,38.467-17.418,67.453c-14.847,15.532-32.938,19.167-45.473,19.165
				C1700.072,595.266,1688.74,583.299,1682.76,576.274z"/>
			<polygon fill="#00A038" points="1782.039,506.941 1655.393,588.829 1661.19,595.913 1784.582,510.629 			"/>
		</g>
		<g>
			<path fill="#8CD000" d="M1623.241,590.293c-8.74,16.697-48.747,31.139-77.841,3.669c-34.766-32.825-23.792-68.735-22.305-71.254
				c3.685-6.24,31.834-23.923,69.072-9.06c19.956,7.965,30.091,23.384,34.775,35.014
				C1634.385,567.135,1627.519,582.12,1623.241,590.293z"/>
			<polygon fill="#00A038" points="1521.82,524.13 1645.116,610.983 1649.518,602.958 1524.291,520.393 			"/>
		</g>
	</g>
	<g>
		<g>
			<path fill="#8CD000" d="M1797.297,729.208c9.145-16.478-0.776-57.838-39.717-67.048c-46.533-11.003-70.499,17.902-71.785,20.529
				c-3.188,6.508-2.489,39.741,30.395,62.685c17.622,12.294,36.074,12.285,48.362,9.808
				C1784.077,751.245,1792.822,737.275,1797.297,729.208z"/>
			<polygon fill="#00A038" points="1686.282,680.846 1826.604,736.112 1822.321,744.201 1684.517,684.963 			"/>
		</g>
	</g>
	<g>
		<path fill="#8CD000" d="M1792.844,450.009c12.218-14.347,10.661-56.852-25.695-73.571c-43.444-19.976-72.646,3.628-74.426,5.949
			c-4.411,5.751-10.288,38.467,17.418,67.453c14.847,15.532,32.938,19.167,45.473,19.165
			C1775.533,469.001,1786.865,457.033,1792.844,450.009z"/>
		<polygon fill="#00A038" points="1693.566,380.676 1820.212,462.564 1814.415,469.647 1691.023,384.364 		"/>
	</g>
	<g>
		<path fill="#8CD000" d="M1852.364,524.031c8.741,16.697,48.747,31.139,77.841,3.669c34.766-32.825,23.792-68.735,22.305-71.254
			c-3.685-6.24-31.834-23.923-69.072-9.06c-19.956,7.965-30.091,23.384-34.775,35.014
			C1841.22,500.873,1848.086,515.858,1852.364,524.031z"/>
		<polygon fill="#00A038" points="1953.784,457.868 1830.488,544.721 1826.086,536.696 1951.314,454.132 		"/>
	</g>
	<g>
		<g>
			<path fill="#8CD000" d="M2136.295,548.474c12.219-14.347,10.661-56.852-25.695-73.57c-43.444-19.976-72.646,3.628-74.426,5.949
				c-4.411,5.751-10.288,38.467,17.418,67.453c14.847,15.532,32.938,19.167,45.473,19.165
				C2118.984,567.466,2130.316,555.499,2136.295,548.474z"/>
			<polygon fill="#00A038" points="2037.017,479.141 2163.663,561.029 2157.866,568.113 2034.474,482.829 			"/>
		</g>
		<g>
			<path fill="#8CD000" d="M2195.815,562.493c8.74,16.697,48.747,31.139,77.842,3.669c34.766-32.824,23.792-68.735,22.305-71.254
				c-3.685-6.24-31.834-23.923-69.072-9.06c-19.956,7.965-30.091,23.384-34.775,35.014
				C2184.671,539.335,2191.537,554.32,2195.815,562.493z"/>
			<polygon fill="#00A038" points="2297.235,496.33 2173.939,583.183 2169.537,575.158 2294.765,492.593 			"/>
		</g>
	</g>
	<g>
		<g>
			<path fill="#8CD000" d="M1967.471,711.462c12.218-14.347,10.661-56.852-25.695-73.57c-43.443-19.976-72.646,3.628-74.426,5.949
				c-4.411,5.751-10.288,38.467,17.418,67.453c14.847,15.532,32.938,19.167,45.473,19.165
				C1950.16,730.455,1961.491,718.487,1967.471,711.462z"/>
			<polygon fill="#00A038" points="1868.193,642.13 1994.838,724.017 1989.042,731.101 1865.649,645.818 			"/>
		</g>
		<g>
			<path fill="#8CD000" d="M2026.99,725.481c8.741,16.697,48.747,31.139,77.842,3.669c34.766-32.825,23.792-68.735,22.305-71.254
				c-3.685-6.24-31.834-23.923-69.072-9.06c-19.956,7.965-30.091,23.384-34.775,35.014
				C2015.846,702.323,2022.712,717.308,2026.99,725.481z"/>
			<polygon fill="#00A038" points="2128.411,659.318 2005.115,746.171 2000.713,738.146 2125.941,655.582 			"/>
		</g>
	</g>
	<g>
		<g>
			<g>
				<path fill="#FF8000" d="M381.599,265.96c62.196,26.884,49.554-114.644,49.554-114.644S319.403,239.076,381.599,265.96z"/>
				<path fill="#FF8000" d="M480.707,36.673c-62.196-26.884-49.554,114.644-49.554,114.644S542.903,63.556,480.707,36.673z"/>
				<path fill="#FF8000" d="M545.797,200.87c26.884-62.196-114.644-49.554-114.644-49.554S518.913,263.066,545.797,200.87z"/>
				<path fill="#FF8000" d="M316.509,101.762c-26.884,62.196,114.644,49.554,114.644,49.554S343.393,39.567,316.509,101.762z"/>
				<path fill="#FFA600" d="M477.179,267.421c62.989-24.97-46.026-116.105-46.026-116.105S414.19,292.391,477.179,267.421z"/>
				<path fill="#FFA600" d="M385.128,35.211c-62.989,24.97,46.026,116.105,46.026,116.105S448.116,10.242,385.128,35.211z"/>
				<path fill="#FFA600" d="M547.258,105.291c-24.97-62.989-116.105,46.026-116.105,46.026S572.228,168.279,547.258,105.291z"/>
				<path fill="#FFA600" d="M315.048,197.342c24.97,62.989,116.105-46.026,116.105-46.026S290.078,134.353,315.048,197.342z"/>
			</g>
		</g>
		<path fill="#FFE400" d="M435.527,191.26c19.953-2.289,31.552-17.014,29.209-37.08c-2.423-20.748-18.395-34.694-37.242-32.52
			c-21.321,2.461-34.474,19.443-31.86,41.136C397.993,182.381,413.913,193.74,435.527,191.26z"/>
	</g>
	<g>
		<path fill="#FFD200" d="M1589.825,126.629c6.767,72.79-27.341,105.21-66.402,119.194c-37.926,11.821-98.961,9.337-131.387-20.169
			c-25.594-23.292-44.763-87.183-9.434-145.245c23.904-34.054,74.366-53.784,122.057-45.739
			C1548.956,43.724,1579.759,54.866,1589.825,126.629z"/>
		<path fill="#FFA600" d="M1425.33,109.365c-0.535,0.879-1.036,1.76-1.527,2.643l-41.905-29.727
			c-3.33,5.671-6.146,11.39-8.494,17.119l46.228,21.403c-1.08,2.715-1.977,5.431-2.702,8.136l-49.588-10.933
			c-1.234,5.075-2.125,10.116-2.723,15.099l50.274,6.586c-0.333,2.975-0.476,5.907-0.451,8.781l-50.583,6.88
			c0.309,5.859,1.013,11.546,2.043,17.015c13.954-4.256,36.523-11.108,49.184-14.782c0.263,1.946,0.601,3.849,1.006,5.702
			l-44.824,28.63c1.993,5.419,4.306,10.455,6.858,15.037l42.024-31.085c0.682,1.556,1.412,3.041,2.182,4.455l-34.184,40.963
			c1.4,1.572,2.825,3.038,4.275,4.358c1.771,1.611,3.642,3.128,5.575,4.58c10.128-14.522,26.402-37.791,29.648-42.041
			c0.98,1.156,1.985,2.218,3.011,3.152c0.628,0.572,1.32,1.082,1.985,1.618l-18.208,47.02c3.746,1.744,7.637,3.295,11.644,4.651
			l14.58-46.445c2.596,1.362,5.331,2.543,8.182,3.548l-11.646,46.115c4.818,1.178,9.735,2.124,14.702,2.836l6.04-46.375
			c4.051,0.884,8.201,1.48,12.367,1.808l-3.933,46.003c5.356,0.309,10.698,0.378,15.959,0.217
			c-0.948-14.043-2.075-33.424-2.783-45.922c2.455-0.031,4.892-0.12,7.273-0.321l6.958,45.522
			c5.211-0.495,10.287-1.203,15.142-2.124l-14.295-44.404c2.618-0.442,5.127-0.985,7.511-1.625l17.19,43.646
			c1.523-0.412,3.027-0.837,4.485-1.292c3.095-1.108,6.153-2.347,9.168-3.697l-22.923-41.518c1.98-0.89,3.921-1.878,5.81-2.971
			c6.935,8.922,20.52,26.356,29.724,37.875c5.014-3.067,9.79-6.586,14.24-10.602l-35.678-33.109c2.616-2.242,5.039-4.785,7.22-7.65
			c10.337,6.266,29.872,18.08,42.027,25.273c2.945-4.291,5.588-8.97,7.881-14.066l-45.052-18.99c1.529-3.029,2.824-6.338,3.85-9.951
			c11.868,2.28,37.11,7.115,47.762,9.055c1.185-5.261,2.07-10.851,2.607-16.808l-48.263-2.927c0.368-3.108,0.565-6.397,0.575-9.876
			c13.286-2.902,38.103-8.317,48.061-10.45c-0.142-2.868-0.327-5.778-0.606-8.781c-0.519-3.702-1.107-7.205-1.736-10.593
			l-46.26,19.009c-0.627-4.381-1.397-8.346-2.295-11.962l44.864-23.102c-1.732-6.167-3.69-11.735-5.891-16.707l-41.984,30.161
			c-1.549-3.957-3.334-7.325-5.332-10.235l34.808-40.041c-3.969-4.57-8.334-8.346-13.068-11.521l-28.247,44.248
			c-2.081-1.795-4.316-3.315-6.695-4.624l23.848-45.782c-5.172-2.352-10.689-4.262-16.517-5.923l-17.516,47.46
			c-2.396-0.756-4.891-1.423-7.485-2.037l14.195-48.179c-3.208-0.738-6.487-1.443-9.855-2.132c-1.405-0.237-2.813-0.446-4.222-0.635
			l-10.745,48.98c-1.868-0.204-3.738-0.35-5.607-0.411l4.914-49.574c-4.822-0.216-9.638-0.17-14.422,0.133l-2.143,49.978
			c-2.73,0.332-5.431,0.795-8.083,1.406l-2.302-50.006c-5.389,0.844-10.698,1.998-15.882,3.453l9.495,49.117
			c-1.894,0.679-3.76,1.408-5.57,2.227l-16.528-47.129c-5.165,2.015-10.155,4.327-14.916,6.925l21.243,45.91
			c-2.257,1.52-4.403,3.147-6.396,4.901l-27.322-42.975c-4.012,2.882-7.785,5.987-11.278,9.299
			c8.884,10.836,23.773,28.886,32.934,39.404C1427.192,106.861,1426.224,108.092,1425.33,109.365z"/>
	</g>
	<g>
		<g>
			<path id="XMLID_45_" fill="#73E3D4" d="M262.08,355.974c0,0,42.295-46.86,16.738-75.939
				c-39.77-45.251-94.146-22.487-94.146-22.487s-1.166-54.881-40.211-81.115c-22.929-15.406-65.319-19.429-86.02,12.52
				c-17.658,27.252-18.424,62.799,2.079,80.436c39.981,34.392,99.213,18.185,99.213,18.185s-0.964,62.987,29.223,79.186
				C219.143,382.959,244.754,374.137,262.08,355.974z"/>
			<path id="XMLID_44_" fill="#00BDD0" d="M250.17,172.623c0,0-46.86-42.295-75.939-16.738
				c-45.251,39.77-22.487,94.146-22.487,94.146s-54.881,1.166-81.115,40.211c-15.406,22.929-19.429,65.319,12.52,86.02
				c27.252,17.658,62.799,18.424,80.436-2.079c34.392-39.981,18.185-99.213,18.185-99.213s62.987,0.964,79.186-29.223
				S268.333,189.949,250.17,172.623z"/>
			<path fill="#008292" d="M185.09,303.633c19.884-11.444,25.372-32.14,13.821-52.118c-11.944-20.657-35.012-28.041-53.789-17.219
				c-21.24,12.244-27.335,36.011-14.763,57.573C141.71,311.334,163.551,316.029,185.09,303.633z"/>
		</g>
	</g>
	<g>
		<g>
			<path id="XMLID_47_" fill="#FF9EC5" d="M1236.928,469.096c0,0,43.36,42.67,72.42,19.272
				c45.221-36.411,25.564-89.712,25.564-89.712s52.889,1.159,79.771-35.345c15.786-21.436,21.421-62.083-8.479-83.343
				c-25.505-18.134-59.699-20.35-77.533-1.341c-34.775,37.065-21.632,94.769-21.632,94.769s-60.606-3.546-77.457,24.846
				S1220.16,451.659,1236.928,469.096z"/>
			<path id="XMLID_46_" fill="#F982BD" d="M1413.958,465.249c0,0,42.67-43.36,19.272-72.42
				c-36.411-45.221-89.712-25.564-89.712-25.564s1.159-52.889-35.345-79.771c-21.436-15.786-62.083-21.421-83.343,8.479
				c-18.134,25.505-20.349,59.699-1.341,77.533c37.065,34.775,94.769,21.632,94.769,21.632s-3.546,60.606,24.846,77.457
				S1396.521,482.016,1413.958,465.249z"/>
			<path fill="#FF4035" d="M1290.523,397.143c10.192,19.62,29.891,25.765,49.606,15.473c20.385-10.641,28.454-32.545,18.814-51.073
				c-10.906-20.959-33.537-27.815-54.819-16.607C1284.911,355.056,1279.483,375.89,1290.523,397.143z"/>
		</g>
	</g>
	<g>
		<g>
			<path fill="#FFE400" d="M1581.646,322.791c-18.374-6.733-36.736-8.12-51.229,13.326c-13.449,19.901-10.345,46.936,6.784,61.496
				c16.961,14.417,34.225,10.305,55.355,5.899c-5.446,2.636-11.909,21.677-13.384,27.564c-4.117,16.428-0.54,29.604,11.029,38.558
				c13.367,10.345,38.098,16.993,54.817,8.08c16.154-8.612,22.596-41.288,22.596-41.288c1.615,51.451,69.377,55.995,78.093,1.331
				c3.035-19.035-5.671-30.182-15.382-37.038c18.374,6.732,34.743,7.853,49.236-13.593c13.449-19.901,12.337-46.669-4.792-61.229
				c-16.961-14.417-34.225-10.305-55.355-5.899c5.446-2.636,11.909-21.677,13.384-27.564c4.117-16.428-1.103-27.623-11.029-38.558
				c-15.152-16.691-42.376-20.105-59.095-11.192c-16.154,8.612-21.954,43.448-21.954,43.448
				c-1.615-51.451-66.437-52.97-75.154,1.694C1562.532,306.86,1571.935,315.934,1581.646,322.791z"/>
		</g>
		<path fill="#FDF1B8" d="M1679.766,330.374c-17.962-14.357-39.281-11.893-53.687,6.204c-14.895,18.712-13.331,42.939,3.646,56.491
			c19.205,15.329,43.613,12.306,59.121-7.324C1702.846,368.022,1699.223,345.926,1679.766,330.374z"/>
	</g>
	<g>
		<g>
			<g>
				<path fill="#FF8000" d="M1945.138,517.086c62.196,26.884,49.554-114.644,49.554-114.644S1882.942,490.202,1945.138,517.086z"/>
				<path fill="#FF8000" d="M2044.245,287.798c-62.196-26.884-49.554,114.644-49.554,114.644S2106.441,314.682,2044.245,287.798z"/>
				<path fill="#FF8000" d="M2109.335,451.996c26.884-62.196-114.644-49.554-114.644-49.554S2082.452,514.192,2109.335,451.996z"/>
				<path fill="#FF8000" d="M1880.048,352.888c-26.884,62.196,114.644,49.554,114.644,49.554S1906.932,290.692,1880.048,352.888z"/>
				<path fill="#FFA600" d="M2040.717,518.547c62.989-24.97-46.026-116.105-46.026-116.105S1977.729,543.517,2040.717,518.547z"/>
				<path fill="#FFA600" d="M1948.666,286.337c-62.989,24.97,46.026,116.105,46.026,116.105S2011.655,261.367,1948.666,286.337z"/>
				<path fill="#FFA600" d="M2110.797,356.416c-24.969-62.989-116.105,46.026-116.105,46.026S2135.766,419.405,2110.797,356.416z"/>
				<path fill="#FFA600" d="M1878.587,448.467c24.969,62.989,116.105-46.026,116.105-46.026S1853.617,385.479,1878.587,448.467z"/>
			</g>
		</g>
		<path fill="#FFE400" d="M1999.066,442.386c19.953-2.289,31.552-17.014,29.209-37.08c-2.423-20.748-18.395-34.694-37.242-32.52
			c-21.321,2.461-34.474,19.443-31.86,41.136C1961.532,433.506,1977.452,444.866,1999.066,442.386z"/>
	</g>
	<g>
		<g>
			<path id="XMLID_49_" fill="#73E3D4" d="M1043.497,493.338c0,0,57.103-26.907,44.748-63.596
				c-19.226-57.093-78.174-57.078-78.174-57.078s20.105-51.079-5.791-90.349c-15.207-23.061-52.761-43.132-84.188-21.648
				c-26.807,18.326-41.233,50.824-29.125,75.007c23.611,47.157,84.509,55.065,84.509,55.065s-25.198,57.736-3.6,84.33
				C993.472,501.662,1020.503,503.407,1043.497,493.338z"/>
			<path id="XMLID_48_" fill="#00BDD0" d="M1103.269,319.595c0,0-26.907-57.103-63.596-44.748
				c-57.094,19.226-57.078,78.174-57.078,78.174s-51.079-20.105-90.349,5.791c-23.061,15.207-43.132,52.761-21.648,84.188
				c18.326,26.807,50.824,41.233,75.007,29.125c47.157-23.611,55.065-84.509,55.065-84.509s57.736,25.198,84.33,3.6
				C1111.594,369.619,1113.339,342.588,1103.269,319.595z"/>
			<path fill="#008292" d="M992.671,415.339c22.76-2.883,35.81-19.858,32.864-42.747c-3.047-23.666-21.478-39.381-42.976-36.643
				c-24.32,3.098-39.115,22.672-35.838,47.415C949.68,405.702,968.016,418.463,992.671,415.339z"/>
		</g>
	</g>
	<g>
		<g>
			<path fill="#008292" d="M678.44,280.219c-9.178,8.567-20.347,6.826-25.076,4.456c-6.873-3.445-11.074-12.377-10.78-20.37
				c0.294-7.993,7.067-15.664,17.871-16.594c7.047-0.607,16.008,2.596,19.888,10.687C683.51,265.001,683.461,274.669,678.44,280.219
				z"/>
			<path fill="#008292" d="M610.485,268.348c0.989,13.861-8.282,22.266-13.613,24.687c-7.748,3.519-18.361,0.921-25.036-4.895
				c-6.676-5.816-8.566-16.983-1.85-26.93c4.382-6.488,13.374-11.975,23.037-9.684C600.913,253.395,609.201,260.164,610.485,268.348
				z"/>
			<path fill="#008292" d="M515.658,304.866c-9.933-6.185-11.072-16.66-10.084-21.49c1.436-7.019,8.458-12.964,15.723-14.635
				s15.81,2.567,19.262,12.064c2.253,6.195,1.541,15.037-4.801,20.487C530.582,305.743,521.869,308.04,515.658,304.866z"/>
			<path fill="#82D8E8" d="M525.62,300.932c26.371-10.482,39.293,28.804,39.293,28.804s0.675-34.011,24.8-38.534
				c33.474-6.276,40.857,27.542,40.857,27.542s2.74-37.113,34.618-37.513c29.323-0.37,42.063,42.646,35.325,93.623
				c-6.155,46.573-24.127,74.577-53.059,84.1c-37.776,12.434-68.61,8.38-88.24-2.632c-25.135-14.101-45.186-48.151-54.01-82.21
				C497.283,343.543,498.077,311.88,525.62,300.932z"/>
		</g>
	</g>
	<g>
		<polygon fill="#FFD200" points="1281.726,172.008 1219.051,128.343 1260.521,62.858 1184.621,76.514 1167.588,0.484 
			1123.227,64.477 1057.581,22.878 1071.232,98.756 995.797,115.719 1059.44,159.895 1017.635,225.797 1094.089,211.967 
			1111.059,287.447 1155.161,223.942 1219.943,264.849 1206.291,188.971 		"/>
		<polygon fill="#FFE400" points="1282.077,117.227 1207.71,99.805 1222.053,23.629 1155.051,65.596 1112.651,0 1097.029,76.426 
			1018.694,61.42 1059.412,126.893 995.577,170.52 1071.043,188.061 1056.539,264.77 1122.477,223.67 1166.128,287.547 
			1183.652,212.243 1258.962,226.326 1218.245,160.855 		"/>
		<path fill="#6A4019" d="M1146.25,69.599c-41.434-6.291-73.727,19.85-80.925,65.505c-6.643,42.147,16.912,74.254,59.323,80.851
			c43.852,6.823,81.473-17.955,87.721-57.774C1219.439,113.139,1192.142,76.568,1146.25,69.599z"/>
		<path fill="#A45700" d="M1188.182,112.959c-19.617-29.255-54.317-37.871-80.916-20.091
			c-30.087,20.117-36.734,55.722-16.104,86.248c18.627,27.557,51.257,32.335,81.768,11.966
			C1201.1,172.277,1207.155,141.254,1188.182,112.959z"/>
		<path fill="#6A4019" d="M1200.073,139.22l-14.401-0.259l0.51-10.834l11.225,0.194l-2.146-5.317l-8.827-0.154l0.74-15.516
			l-3.104-3.707l-14.49-0.14l0.785-13.059l-5.168-1.946l-0.907,14.958l-14.571-0.127l0.756-14.344l14.306,0.468l-17.847-6.977
			h-19.599l-19.255,7.255l0.311,13.288l-15.752-0.108l-4.514,6.777l0.101,11.455l-6.193-0.073l-1.871,5.258l7.811,0.102
			l-0.515,10.871l-9.393-0.121l-0.239,5.28l9.385,0.124l-0.679,14.568l-6.85-0.083l1.589,5.312l5.019,0.056l0.33,11.922l4.31,7.304
			l12.964,0.707l-0.213,15.852l20.518,5.847l0.147-2.744l14.591,0.108l-0.112,3.512l5.33-0.602l0.078-2.869l12.522-0.8l7.373-3.347
			l0.789-13.78l13.396,0.272l0.353,4.814l9.087-9.254l-3.905-0.736l0.665-14.52l12.716,0.246l1.453-5.247l-13.927-0.282
			l0.675-14.582l14.989,0.261L1200.073,139.22z M1104.182,177.065l-13.252-0.243l0.656-14.316l13.391,0.216L1104.182,177.065z
			 M1105.27,157.435l-13.442-0.212l0.677-14.566l13.583,0.217L1105.27,157.435z M1106.388,137.584l-13.635-0.214l0.511-10.87
			l13.744,0.223L1106.388,137.584z M1107.314,121.433l-13.799-0.222l-0.318-14.216l14.883,1.3L1107.314,121.433z M1119.336,195.978
			l-10.546,0.305l0.399-13.831l10.871,0.204L1119.336,195.978z M1120.348,177.367l-10.87-0.204l0.795-14.353l10.864,0.18
			L1120.348,177.367z M1121.432,157.697l-10.861-0.177l0.816-14.56l10.855,0.177L1121.432,157.697z M1122.539,137.845l-10.854-0.176
			l0.618-10.858l10.852,0.181L1122.539,137.845z M1123.453,121.701l-10.849-0.18l0.761-13.189l10.854,0.079L1123.453,121.701z
			 M1113.672,103.037l0.789-14.765l10.847,0.206l-0.779,14.638L1113.672,103.037z M1139.22,196.125l-14.591-0.108l0.723-13.259
			l14.579,0.279L1139.22,196.125z M1140.223,177.744l-14.578-0.279l0.793-14.391l14.579,0.246L1140.223,177.744z M1141.313,158.032
			l-14.582-0.246l0.812-14.56l14.585,0.246L1141.313,158.032z M1142.426,138.179l-14.588-0.245l0.612-10.849l14.591,0.252
			L1142.426,138.179z M1143.344,122.042l-14.595-0.252l0.761-13.341l14.614,0.114L1143.344,122.042z M1129.816,103.155l0.766-14.575
			l14.625,0.285l-0.772,14.405L1129.816,103.155z M1158.879,196.283l-14.362-0.118l0.714-13.023l14.383,0.284L1158.879,196.283z
			 M1159.915,178.135l-14.395-0.285l0.796-14.432l14.429,0.255L1159.915,178.135z M1161.053,158.379l-14.441-0.256l0.813-14.562
			l14.474,0.252L1161.053,158.379z M1162.208,138.523l-14.485-0.255l0.613-10.842l14.509,0.261L1162.208,138.523z M1163.154,122.401
			l-14.52-0.265l0.776-13.533l14.557,0.124L1163.154,122.401z M1178.547,178.515l-13.33-0.274l0.833-14.475l13.16,0.24
			L1178.547,178.515z M1179.451,158.723l-13.098-0.246l0.845-14.568l12.931,0.235L1179.451,158.723z M1180.376,138.858
			l-12.869-0.239l0.632-10.836l12.75,0.24L1180.376,138.858z M1181.142,122.746l-12.689-0.246l0.812-13.727l12.548,0.115
			L1181.142,122.746z"/>
	</g>
	<g>
		<g>
			<path fill="#008292" d="M1943.874,121.447c-11.627,5.921-22.282,0.975-26.324-2.751c-5.875-5.414-7.506-15.542-4.917-23.44
				c2.589-7.899,11.557-13.615,22.614-11.441c7.212,1.418,15.242,7.19,16.794,16.385
				C1953.307,107.705,1950.483,117.347,1943.874,121.447z"/>
			<path fill="#008292" d="M1879.413,90.077c-2.993,14.127-14.666,19.859-20.685,20.746c-8.749,1.289-18.602-4.353-23.599-12.079
				s-3.679-19.422,5.886-27.427c6.24-5.221,16.796-8.119,25.789-3.056C1874.147,72.394,1880.481,81.534,1879.413,90.077z"/>
			<path fill="#008292" d="M1774.219,99.316c-8.144-9.029-6.274-19.818-3.9-24.359c3.45-6.598,12.17-10.519,19.906-10.102
				c7.736,0.417,15.052,7.104,15.773,17.581c0.471,6.834-2.779,15.46-10.678,19.082
				C1788.872,104.479,1779.51,104.271,1774.219,99.316z"/>
			<path fill="#82D8E8" d="M1785.297,98.248c29.348-2.896,30.972,40.052,30.972,40.052s10.442-33.775,35.835-31.364
				c35.234,3.344,32.897,39.241,32.897,39.241s13.395-36.279,45.347-27.525c29.393,8.051,29.763,54.672,8.395,103.651
				c-19.522,44.748-45.514,67.555-77.144,68.758c-41.299,1.57-70.93-11.334-87.373-27.97
				c-21.054-21.301-31.302-61.067-30.334-97.618C1744.759,132.668,1754.645,101.273,1785.297,98.248z"/>
		</g>
	</g>
	<g>
		<g>
			<path id="XMLID_51_" fill="#FF9EC5" d="M831.729,256.157c0,0,56.133-19.356,48.31-54.92
				c-12.174-55.344-67.299-61.323-67.299-61.323s23.993-45.721,3.77-85.076c-11.876-23.111-44.952-45.697-76.524-28.803
				c-26.931,14.411-43.725,43.334-34.861,67.179c17.284,46.498,73.427,60.084,73.427,60.084s-29.433,51.428-11.941,78.492
				C784.104,258.855,809.204,263.235,831.729,256.157z"/>
			<path id="XMLID_50_" fill="#F982BD" d="M905.289,99.764c0,0-19.356-56.133-54.92-48.31
				c-55.344,12.174-61.323,67.299-61.323,67.299s-45.721-23.993-85.076-3.77c-23.111,11.876-45.697,44.952-28.803,76.524
				c14.411,26.931,43.334,43.725,67.179,34.861c46.498-17.284,60.084-73.427,60.084-73.427s51.428,29.433,78.492,11.941
				S912.367,122.289,905.289,99.764z"/>
			<path fill="#FF4035" d="M792.131,178.052c21.576-0.382,35.506-14.929,35.078-36.632c-0.443-22.44-16.08-39.009-36.462-38.635
				c-23.057,0.424-38.882,17.224-38.333,40.695C752.909,164.669,768.759,178.466,792.131,178.052z"/>
		</g>
	</g>
	<g>
		<g>
			<path id="XMLID_53_" fill="#FF9EC5" d="M2265.722,527.312c0,0,44.565,43.856,74.432,19.807
				c46.478-37.423,26.274-92.204,26.274-92.204s54.359,1.191,81.987-36.327c16.225-22.032,22.016-63.808-8.714-85.658
				c-26.213-18.638-61.358-20.915-79.687-1.379c-35.741,38.095-22.233,97.402-22.233,97.402s-62.29-3.644-79.609,25.536
				S2248.489,509.391,2265.722,527.312z"/>
			<path id="XMLID_52_" fill="#F982BD" d="M2447.671,523.359c0,0,43.855-44.565,19.807-74.432
				c-37.423-46.478-92.204-26.274-92.204-26.274s1.191-54.359-36.327-81.987c-22.032-16.224-63.808-22.016-85.658,8.715
				c-18.638,26.213-20.915,61.358-1.379,79.687c38.095,35.741,97.402,22.233,97.402,22.233s-3.644,62.29,25.536,79.609
				C2404.029,548.229,2429.749,540.592,2447.671,523.359z"/>
			<path fill="#FF4035" d="M2320.806,453.361c10.475,20.165,30.721,26.48,50.985,15.903c20.952-10.937,29.244-33.449,19.337-52.492
				c-11.208-21.542-34.468-28.588-56.342-17.068C2315.039,410.104,2309.459,431.517,2320.806,453.361z"/>
		</g>
	</g>
	<g>
		<g>
			<path fill="#FFE400" d="M269.882,445.845c-16.492-6.043-32.973-7.288-45.981,11.961c-12.072,17.863-9.285,42.129,6.089,55.197
				c15.224,12.94,30.719,9.25,49.685,5.295c-4.889,2.366-10.689,19.457-12.013,24.74c-3.695,14.745-0.484,26.572,9.899,34.608
				c11.998,9.286,34.195,15.252,49.202,7.252c14.5-7.73,20.282-37.059,20.282-37.059c1.449,46.181,62.271,50.259,70.094,1.195
				c2.724-17.085-5.09-27.09-13.807-33.244c16.492,6.043,31.184,7.048,44.193-12.201c12.072-17.863,11.074-41.889-4.301-54.958
				c-15.224-12.94-30.719-9.25-49.685-5.295c4.889-2.366,10.689-19.457,12.013-24.74c3.695-14.745-0.99-24.794-9.899-34.608
				c-13.6-14.981-38.035-18.046-53.042-10.045c-14.5,7.73-19.706,38.997-19.706,38.997c-1.449-46.181-59.632-47.544-67.456,1.52
				C252.726,431.546,261.166,439.69,269.882,445.845z"/>
		</g>
		<path fill="#FDF1B8" d="M357.951,452.651c-16.122-12.886-35.258-10.675-48.188,5.568c-13.369,16.795-11.966,38.541,3.272,50.704
			c17.238,13.759,39.145,11.045,53.065-6.573C378.667,486.443,375.415,466.61,357.951,452.651z"/>
	</g>
	<g>
		<g>
			<path fill="#FFE400" d="M2089.917,141.418c-18.374-6.733-36.736-8.12-51.229,13.326c-13.449,19.901-10.345,46.936,6.784,61.496
				c16.961,14.417,34.225,10.305,55.355,5.899c-5.446,2.636-11.909,21.677-13.384,27.564c-4.117,16.428-0.54,29.604,11.029,38.558
				c13.367,10.345,38.098,16.993,54.817,8.08c16.154-8.612,22.596-41.288,22.596-41.288c1.615,51.451,69.377,55.995,78.094,1.331
				c3.035-19.035-5.671-30.182-15.383-37.038c18.374,6.732,34.743,7.852,49.236-13.593c13.449-19.901,12.337-46.669-4.792-61.229
				c-16.961-14.417-34.225-10.305-55.355-5.899c5.446-2.636,11.909-21.677,13.384-27.564c4.117-16.428-1.103-27.623-11.029-38.558
				c-15.152-16.691-42.375-20.105-59.094-11.192c-16.154,8.612-21.955,43.448-21.955,43.448
				c-1.615-51.451-66.438-52.97-75.154,1.694C2070.802,125.488,2080.205,134.561,2089.917,141.418z"/>
		</g>
		<path fill="#FDF1B8" d="M2188.036,149.001c-17.962-14.357-39.281-11.893-53.688,6.204c-14.895,18.712-13.331,42.939,3.646,56.491
			c19.206,15.329,43.613,12.306,59.121-7.324C2211.116,186.65,2207.493,164.553,2188.036,149.001z"/>
	</g>
</g>
<g id="Layer_1">
</g>
</svg>
