<?xml version="1.0" encoding="utf-8"?>
<!-- Generator: Adobe Illustrator 24.2.3, SVG Export Plug-In . SVG Version: 6.00 Build 0)  -->
<svg version="1.1" xmlns="http://www.w3.org/2000/svg" xmlns:xlink="http://www.w3.org/1999/xlink" x="0px" y="0px"
	 viewBox="0 0 1666.62 1064.537" enable-background="new 0 0 1666.62 1064.537" xml:space="preserve">
<g id="winter_x5F_snowflakes_x5F_pile">
	<path fill="#D9FDFF" d="M1506.761,481.114c195.647,180.213,65.822,507.368-200.174,507.368H645.186
		c0,0-203.744,5.571-390.127-131.874C67.78,718.501,38.019,548.903,128.681,441.755s157.518-77.787,182.244-113.504
		s-39.479-149.766,59.57-204.244c164.84-90.662,181.143,64.434,255.02,59.495c64.015-4.28,148.794-96.157,264.184-27.474
		s98.905,167.588,184.074,228.031c85.169,60.443,258.253-54.948,425.841,90.662C1502.034,476.822,1504.415,478.954,1506.761,481.114
		z"/>
	<g id="snowflake_x5F_round_x5F_white">
		<g>
			<path fill="#FFFFFF" d="M291.876,483.465c-121.1,62.842-210.938-116.78-98.764-185.999
				C332.699,205.264,418.381,430.544,291.876,483.465z"/>
			<path fill="#D9FDFF" d="M295.887,467.092c-5.894,1.888-10.619,3.402-15.984,5.121c-11.087-22.529-22.02-44.746-33.904-68.892
				c-10.621,26.96-20.684,52.505-31.154,79.085c-7.081-2.978-13.691-5.757-21.415-9.005c10.83-24.821,21.325-48.878,33.009-75.656
				c-21.985,10.819-41.366,20.357-61.37,30.202c-1.674-5.6-2.985-9.986-4.885-16.339c22.24-8.836,44.472-17.669,66.703-26.502
				c0.031-0.703,0.061-1.406,0.091-2.108c-23.177-5.521-46.356-11.042-69.918-16.655c2.242-7.158,4.181-13.348,6.635-21.184
				c22.066,7.333,43.319,14.396,66.836,22.213c-10.145-20.615-19.311-39.24-28.857-58.638c5.396-3.827,9.963-7.066,15.942-11.305
				c8.6,20.556,16.644,39.784,25.753,61.556c10.719-23.822,20.654-45.9,30.94-68.761c4.276,1.099,8.275,2.127,13.901,3.573
				c-9.836,25.428-19.34,49.994-29.672,76.703c22.718-13.164,43.516-25.215,64.906-37.609c3.63,5.416,6.985,10.422,11.349,16.932
				c-23.252,10.039-45.27,19.545-69.507,30.009c27.236,10.237,52.92,19.891,79.035,29.707c-2.419,7.203-4.483,13.348-7.181,21.384
				c-25.003-11.592-49.442-22.923-76.511-35.473C273.116,420.822,284.365,443.68,295.887,467.092z"/>
		</g>
	</g>
	<g id="Layer_1_2_">
	</g>
	<g id="snowflake_x5F_round_x5F_white_2_">
		<g>
			<path fill="#B6F4F8" d="M294.677,85.864C310.8-44.562,502.416-17.969,496.223,108.846
				C493.335,269.958,267.729,215.172,294.677,85.864z"/>
			<path fill="#D9FDFF" d="M305.492,97.975c1.714-5.709,3.088-10.288,4.648-15.485c23.935,3.479,47.537,6.91,73.191,10.639
				c-15.618-23.133-30.417-45.051-45.814-67.857c6.225-3.999,12.036-7.733,18.827-12.095c13.805,22.132,27.187,43.583,42.081,67.46
				c3.395-23.356,6.388-43.947,9.477-65.199c5.359,1.723,9.557,3.074,15.638,5.029c-5.109,22.478-10.216,44.948-15.322,67.417
				c0.541,0.408,1.083,0.815,1.624,1.222c17.021-15.394,34.042-30.79,51.345-46.441c4.462,5.683,8.32,10.598,13.204,16.818
				c-17.854,13.524-35.05,26.55-54.079,40.963c21.902,3.183,41.688,6.06,62.296,9.055c0.097,6.372,0.179,11.764,0.285,18.823
				c-21.012-4.379-40.667-8.474-62.921-13.111c13.073,21.5,25.188,41.426,37.733,62.059c-3.204,2.796-6.201,5.412-10.416,9.09
				c-14.829-21.674-29.156-42.615-44.731-65.381c-1.933,25.217-3.703,48.303-5.522,72.046c-6.28-0.07-12.084-0.135-19.633-0.22
				c4.705-23.938,9.162-46.604,14.067-71.556c-22.978,16.046-44.648,31.178-66.681,46.564c-4.4-5.848-8.156-10.837-13.065-17.361
				c22.837-13.534,45.159-26.763,69.883-41.416C354.649,105.12,330.364,101.59,305.492,97.975z"/>
		</g>
	</g>
	<g id="snowflake_x5F_round_x5F_white_1_">
		<g>
			<path fill="#82D8E8" d="M239.394,311.811c-101.988-51.295-24.252-200.282,77.684-158.166
				C448.037,203.077,337.305,371.635,239.394,311.811z"/>
			<path fill="#D9FDFF" d="M252.462,306.502c-4.17-3.07-7.514-5.532-11.31-8.327c9.839-18.564,19.541-36.871,30.086-56.768
				c-23.487,6.018-45.742,11.721-68.897,17.655c-1.453-6.261-2.81-12.105-4.395-18.935c22.139-4.828,43.597-9.508,67.482-14.716
				c-18.116-9.601-34.086-18.065-50.569-26.801c2.976-3.881,5.307-6.92,8.683-11.324c16.896,10.746,33.786,21.489,50.676,32.231
				c0.492-0.324,0.983-0.648,1.474-0.972c-7.621-18.422-15.243-36.844-22.991-55.572c5.952-1.99,11.1-3.711,17.616-5.889
				c5.848,18.557,11.48,36.43,17.712,56.208c9.003-16.987,17.137-32.334,25.608-48.318c5.241,1.782,9.676,3.291,15.482,5.266
				c-9.721,15.91-18.813,30.793-29.108,47.644c21.408-4.413,41.249-8.503,61.793-12.738c1.351,3.438,2.616,6.654,4.393,11.177
				c-22.064,5.799-43.38,11.401-66.555,17.492c20.065,8.949,38.434,17.141,57.326,25.566c-1.892,5.117-3.641,9.846-5.916,15.997
				c-18.208-10.843-35.449-21.111-54.429-32.413c6.414,23.486,12.462,45.635,18.612,68.154c-6.07,1.891-11.248,3.506-18.019,5.616
				c-4.4-22.637-8.701-44.763-13.465-69.27C272.669,268.375,262.686,287.211,252.462,306.502z"/>
		</g>
	</g>
	<g id="snowflake_x5F_round_x5F_white_5_">
		<g>
			<path fill="#FFFFFF" d="M599.061,219.68c-104.047-80.282,16.4-231.663,122.395-161.767
				C858.652,142.428,696.634,308.71,599.061,219.68z"/>
			<path fill="#D9FDFF" d="M614.991,216.538c-4.041-4.382-7.282-7.896-10.961-11.885c15.181-18.829,30.15-37.397,46.421-57.578
				c-27.862,1.664-54.261,3.242-81.729,4.883c-0.273-7.394-0.528-14.296-0.825-22.362c26.078-0.614,51.353-1.209,79.487-1.872
				c-18.374-14.814-34.572-27.873-51.291-41.352c4.212-3.735,7.511-6.66,12.29-10.899c16.745,15.841,33.485,31.677,50.223,47.512
				c0.626-0.258,1.253-0.517,1.879-0.776c-4.584-22.487-9.168-44.976-13.829-67.837c7.162-0.947,13.357-1.766,21.198-2.802
				c2.55,22.252,5.006,43.684,7.723,67.401c13.891-17.23,26.441-32.795,39.511-49.007c5.533,3.161,10.216,5.836,16.346,9.338
				c-14.466,15.855-27.998,30.687-43.32,47.48c25.161-0.305,48.479-0.588,72.625-0.88c0.775,4.181,1.501,8.092,2.521,13.593
				c-26.205,1.728-51.522,3.397-79.047,5.211c20.72,14.503,39.688,27.78,59.197,41.434c-3.258,5.369-6.269,10.332-10.185,16.786
				c-18.207-16.238-35.447-31.614-54.425-48.539c2.111,27.947,4.103,54.302,6.127,81.099c-7.274,0.81-13.48,1.502-21.594,2.406
				c-0.021-26.546-0.043-52.494-0.066-81.234C646.168,177.867,630.766,196.971,614.991,216.538z"/>
		</g>
	</g>
	<g id="snowflake_x5F_round_x5F_white_6_">
		<g>
			<path fill="#D9FDFF" d="M388.188,380.939c-123.298-62.012-29.319-242.129,93.915-191.214
				C640.425,249.486,506.557,453.263,388.188,380.939z"/>
			<path fill="#B6F4F8" d="M403.986,374.521c-5.041-3.712-9.084-6.688-13.673-10.067c11.895-22.443,23.624-44.574,36.373-68.629
				c-28.395,7.276-55.299,14.17-83.293,21.344c-1.757-7.569-3.397-14.635-5.313-22.892c26.765-5.836,52.706-11.494,81.582-17.791
				c-21.901-11.607-41.207-21.84-61.136-32.401c3.597-4.692,6.415-8.366,10.497-13.689c20.426,12.992,40.845,25.979,61.264,38.965
				c0.594-0.392,1.189-0.783,1.782-1.175c-9.213-22.271-18.428-44.543-27.795-67.184c7.196-2.406,13.42-4.486,21.297-7.119
				c7.07,22.434,13.878,44.042,21.412,67.952c10.884-20.537,20.717-39.09,30.959-58.413c6.336,2.155,11.698,3.978,18.717,6.366
				c-11.752,19.234-22.744,37.227-35.19,57.599c25.881-5.335,49.867-10.28,74.704-15.4c1.634,4.156,3.162,8.044,5.311,13.512
				c-26.674,7.011-52.444,13.784-80.461,21.147c24.257,10.818,46.464,20.723,69.304,30.908c-2.287,6.186-4.402,11.904-7.152,19.34
				c-22.013-13.109-42.856-25.522-65.801-39.186c7.754,28.393,15.066,55.17,22.5,82.394c-7.338,2.287-13.599,4.238-21.784,6.79
				c-5.319-27.366-10.519-54.115-16.278-83.743C428.415,328.428,416.346,351.199,403.986,374.521z"/>
		</g>
	</g>
	<g id="snowflake_x5F_round_x5F_white_3_">
		<g>
			<path fill="#82D8E8" d="M469.302,133.028c25.417-94.441,163.863-54.958,146.139,37.852
				C596.592,289.308,436.023,225.521,469.302,133.028z"/>
			<path fill="#D9FDFF" d="M476.014,143.075c1.856-4.03,3.343-7.261,5.033-10.929c17.277,5.048,34.314,10.025,52.832,15.436
				c-9.109-18.668-17.739-36.356-26.72-54.76c5.003-2.301,9.672-4.45,15.129-6.96c7.877,17.742,15.511,34.939,24.009,54.08
				c4.926-16.86,9.268-31.722,13.75-47.064c3.771,1.826,6.724,3.257,11.002,5.329c-6.098,16.034-12.193,32.063-18.288,48.091
				c0.357,0.357,0.713,0.713,1.07,1.069c14.141-9.578,28.282-19.157,42.657-28.895c2.698,4.651,5.032,8.673,7.985,13.764
				c-14.56,8.113-28.584,15.928-44.103,24.574c15.81,4.619,30.092,8.792,44.968,13.138c-0.59,4.705-1.089,8.688-1.743,13.901
				c-15.03-5.407-29.089-10.465-45.008-16.192c7.402,17.201,14.263,33.142,21.366,49.649c-2.651,1.728-5.131,3.345-8.619,5.618
				c-8.679-17.511-17.063-34.43-26.178-52.823c-4.041,18.383-7.742,35.211-11.546,52.519c-4.62-0.703-8.891-1.354-14.445-2.2
				c5.952-17.152,11.588-33.393,17.792-51.271c-18.599,9.44-36.138,18.343-53.971,27.394c-2.636-4.766-4.885-8.833-7.826-14.149
				c18.234-7.604,36.056-15.036,55.797-23.268C511.498,153.442,493.968,148.321,476.014,143.075z"/>
		</g>
	</g>
	<g id="snowflake_x5F_round_x5F_white_7_">
		<g>
			<path fill="#D9FDFF" d="M897.732,293.69c-123.298-62.012-29.319-242.129,93.915-191.214
				C1149.968,162.237,1016.1,366.013,897.732,293.69z"/>
			<path fill="#B6F4F8" d="M913.529,287.272c-5.041-3.712-9.084-6.688-13.673-10.067c11.895-22.443,23.624-44.574,36.373-68.629
				c-28.395,7.276-55.299,14.17-83.293,21.344c-1.757-7.569-3.397-14.635-5.313-22.892c26.765-5.836,52.706-11.494,81.582-17.791
				c-21.901-11.607-41.207-21.84-61.136-32.401c3.597-4.692,6.415-8.366,10.497-13.689c20.426,12.992,40.845,25.979,61.264,38.966
				c0.594-0.392,1.189-0.783,1.782-1.175c-9.213-22.271-18.428-44.543-27.795-67.184c7.196-2.406,13.42-4.486,21.297-7.119
				c7.07,22.434,13.878,44.042,21.412,67.952c10.884-20.537,20.717-39.09,30.959-58.413c6.336,2.155,11.698,3.978,18.717,6.366
				c-11.752,19.234-22.744,37.227-35.19,57.599c25.881-5.335,49.867-10.28,74.704-15.4c1.634,4.156,3.162,8.044,5.311,13.512
				c-26.674,7.011-52.444,13.784-80.461,21.147c24.257,10.818,46.464,20.723,69.304,30.908c-2.287,6.186-4.402,11.903-7.152,19.34
				c-22.013-13.109-42.856-25.522-65.801-39.186c7.754,28.393,15.066,55.17,22.5,82.394c-7.338,2.287-13.599,4.238-21.784,6.79
				c-5.319-27.366-10.519-54.115-16.279-83.743C937.958,241.178,925.89,263.949,913.529,287.272z"/>
		</g>
	</g>
	<g id="snowflake_x5F_round_x5F_white_9_">
		<g>
			<path fill="#82D8E8" d="M380.735,564.784c-139.944-1.146-135.188-207.099-0.275-216.018
				C551.253,332.166,520.817,577.518,380.735,564.784z"/>
			<path fill="#D9FDFF" d="M392.228,551.866c-6.249-1.117-11.26-2.012-16.948-3.029c0.761-25.745,1.511-51.133,2.326-78.726
				c-22.567,19.344-43.949,37.674-66.197,56.745c-4.99-6.098-9.649-11.789-15.092-18.441c21.729-17.304,42.79-34.077,66.233-52.747
				c-25.123-0.742-47.27-1.396-70.13-2.072c1.169-5.88,2.086-10.485,3.413-17.157c24.402,2.663,48.796,5.324,73.189,7.985
				c0.365-0.622,0.73-1.245,1.094-1.867c-18.362-16.128-36.726-32.257-55.393-48.653c5.467-5.413,10.196-10.095,16.181-16.021
				c16.485,17.237,32.363,33.84,49.932,52.212c0.696-23.558,1.325-44.841,1.98-67.008c6.729-0.88,12.423-1.624,19.878-2.598
				c-2.069,22.762-4.003,44.055-6.194,68.164c21.15-16.452,40.752-31.7,61.049-47.489c3.349,3.048,6.481,5.9,10.887,9.91
				c-21.12,18.332-41.525,36.042-63.71,55.297c26.913-1.032,51.551-1.975,76.891-2.947c0.692,6.652,1.331,12.8,2.163,20.797
				c-25.898-2.058-50.42-4.007-77.415-6.152c19.778,22.351,38.43,43.43,57.394,64.861c-5.65,5.369-10.47,9.95-16.772,15.94
				c-17.104-22.508-33.822-44.509-52.339-68.876C393.79,498.991,393.018,525.112,392.228,551.866z"/>
		</g>
	</g>
	<g id="snowflake_x5F_round_x5F_white_10_">
		<g>
			<path fill="#B6F4F8" d="M62.879,607.806c-124.751-62.743-29.664-244.982,95.021-193.467
				C318.088,474.805,182.643,680.982,62.879,607.806z"/>
			<path fill="#D9FDFF" d="M78.863,601.312c-5.101-3.755-9.191-6.767-13.834-10.185c12.035-22.708,23.902-45.1,36.801-69.438
				c-28.729,7.362-55.951,14.337-84.274,21.595c-1.778-7.659-3.437-14.807-5.376-23.162c27.08-5.905,53.327-11.63,82.543-18.001
				c-22.159-11.744-41.693-22.097-61.856-32.783c3.64-4.747,6.491-8.465,10.621-13.851c20.667,13.145,41.327,26.285,61.986,39.425
				c0.601-0.396,1.203-0.792,1.803-1.189c-9.322-22.533-18.645-45.068-28.123-67.975c7.281-2.434,13.578-4.539,21.548-7.203
				c7.153,22.698,14.042,44.561,21.665,68.753c11.012-20.779,20.961-39.551,31.323-59.102c6.41,2.18,11.836,4.025,18.937,6.441
				c-11.89,19.461-23.012,37.665-35.605,58.278c26.186-5.398,50.455-10.401,75.584-15.581c1.653,4.205,3.199,8.139,5.374,13.672
				c-26.988,7.094-53.062,13.946-81.409,21.396c24.543,10.946,47.011,20.967,70.12,31.272c-2.314,6.259-4.454,12.044-7.236,19.568
				c-22.272-13.263-43.361-25.823-66.576-39.647c7.845,28.728,15.244,55.82,22.765,83.365c-7.424,2.314-13.759,4.288-22.041,6.87
				c-5.382-27.689-10.643-54.753-16.47-84.73C103.58,554.676,91.369,577.715,78.863,601.312z"/>
		</g>
	</g>
	<g id="snowflake_x5F_round_x5F_white_8_">
		<g>
			<path fill="#FFFFFF" d="M23.84,749.782C-80.207,669.5,40.24,518.119,146.234,588.016
				C283.431,672.53,121.412,838.812,23.84,749.782z"/>
			<path fill="#D9FDFF" d="M39.769,746.641c-4.041-4.382-7.282-7.896-10.961-11.885c15.181-18.829,30.15-37.397,46.421-57.578
				c-27.861,1.664-54.261,3.242-81.729,4.883c-0.273-7.394-0.528-14.296-0.825-22.362c26.078-0.614,51.353-1.209,79.487-1.872
				c-18.374-14.814-34.572-27.873-51.291-41.352c4.212-3.735,7.511-6.661,12.29-10.899c16.745,15.841,33.485,31.677,50.223,47.512
				c0.626-0.258,1.253-0.517,1.879-0.776c-4.584-22.487-9.168-44.976-13.829-67.837c7.163-0.947,13.357-1.766,21.198-2.802
				c2.55,22.252,5.006,43.684,7.723,67.401c13.891-17.23,26.441-32.795,39.511-49.007c5.533,3.161,10.216,5.836,16.346,9.338
				c-14.466,15.855-27.998,30.687-43.32,47.48c25.161-0.305,48.479-0.588,72.625-0.88c0.775,4.181,1.501,8.092,2.521,13.593
				c-26.205,1.728-51.522,3.397-79.047,5.211c20.72,14.503,39.688,27.78,59.197,41.434c-3.258,5.369-6.269,10.332-10.185,16.786
				c-18.207-16.237-35.447-31.614-54.425-48.539c2.111,27.947,4.103,54.302,6.127,81.099c-7.274,0.81-13.48,1.502-21.594,2.406
				c-0.021-26.546-0.043-52.494-0.066-81.234C70.947,707.97,55.545,727.074,39.769,746.641z"/>
		</g>
	</g>
	<g id="snowflake_x5F_round_x5F_white_11_">
		<g>
			<path fill="#82D8E8" d="M165.033,879.525c-117.415-59.053-27.92-230.576,89.434-182.09
				C405.234,754.345,277.754,948.398,165.033,879.525z"/>
			<path fill="#D9FDFF" d="M180.077,873.414c-4.801-3.535-8.65-6.369-13.02-9.586c11.327-21.372,22.497-42.448,34.637-65.354
				c-27.04,6.929-52.661,13.494-79.318,20.325c-1.673-7.208-3.235-13.936-5.059-21.799c25.488-5.558,50.191-10.946,77.689-16.942
				c-20.856-11.053-39.241-20.797-58.218-30.855c3.426-4.468,6.109-7.967,9.996-13.036c19.452,12.372,38.896,24.739,58.341,37.106
				c0.566-0.373,1.132-0.746,1.697-1.119c-8.774-21.208-17.549-42.417-26.469-63.978c6.853-2.291,12.779-4.272,20.281-6.779
				c6.732,21.364,13.216,41.94,20.391,64.71c10.365-19.557,19.729-37.225,29.481-55.626c6.033,2.052,11.14,3.788,17.824,6.062
				c-11.191,18.316-21.659,35.45-33.511,54.851c24.646-5.08,47.488-9.789,71.14-14.665c1.556,3.958,3.011,7.66,5.058,12.868
				c-25.401,6.676-49.942,13.126-76.622,20.138c23.1,10.302,44.247,19.734,65.997,29.433c-2.178,5.891-4.192,11.336-6.811,18.417
				c-20.962-12.483-40.811-24.304-62.661-37.316c7.384,27.038,14.347,52.537,21.427,78.463c-6.988,2.177-12.95,4.036-20.745,6.466
				c-5.066-26.06-10.017-51.533-15.502-79.747C203.34,829.52,191.848,851.204,180.077,873.414z"/>
		</g>
	</g>
	<g id="snowflake_x5F_round_x5F_white_14_">
		<g>
			<path fill="#D9FDFF" d="M237.893,702.306c-123.298-62.012-29.319-242.129,93.915-191.214
				C490.13,570.854,356.262,774.63,237.893,702.306z"/>
			<path fill="#B6F4F8" d="M253.691,695.888c-5.041-3.712-9.084-6.688-13.673-10.067c11.895-22.443,23.624-44.574,36.373-68.629
				c-28.395,7.276-55.299,14.17-83.293,21.344c-1.757-7.569-3.397-14.635-5.313-22.892c26.765-5.836,52.706-11.494,81.582-17.791
				c-21.901-11.607-41.207-21.84-61.136-32.401c3.597-4.692,6.415-8.366,10.497-13.689c20.426,12.992,40.845,25.979,61.264,38.965
				c0.594-0.391,1.189-0.783,1.782-1.175c-9.213-22.271-18.428-44.543-27.795-67.184c7.196-2.406,13.42-4.486,21.297-7.119
				c7.07,22.434,13.878,44.042,21.412,67.952c10.884-20.537,20.717-39.09,30.959-58.413c6.336,2.155,11.698,3.978,18.717,6.366
				c-11.752,19.234-22.744,37.227-35.19,57.599c25.881-5.335,49.867-10.28,74.704-15.4c1.634,4.156,3.162,8.044,5.311,13.512
				c-26.674,7.011-52.444,13.784-80.461,21.147c24.257,10.818,46.464,20.723,69.304,30.908c-2.287,6.186-4.402,11.904-7.152,19.34
				c-22.013-13.109-42.856-25.522-65.801-39.186c7.754,28.393,15.066,55.17,22.5,82.394c-7.338,2.287-13.599,4.238-21.784,6.79
				c-5.319-27.366-10.519-54.115-16.278-83.743C278.12,649.795,266.052,672.566,253.691,695.888z"/>
		</g>
	</g>
	<g id="snowflake_x5F_round_x5F_white_15_">
		<g>
			<path fill="#FFFFFF" d="M550.854,411.22c-104.047-80.282,16.4-231.663,122.395-161.767
				C810.446,333.967,648.427,500.249,550.854,411.22z"/>
			<path fill="#D9FDFF" d="M566.784,408.078c-4.041-4.382-7.282-7.896-10.961-11.885c15.181-18.829,30.15-37.397,46.421-57.578
				c-27.861,1.664-54.261,3.242-81.729,4.883c-0.273-7.394-0.528-14.296-0.825-22.362c26.078-0.614,51.353-1.209,79.487-1.871
				c-18.374-14.814-34.572-27.873-51.291-41.352c4.212-3.735,7.511-6.66,12.29-10.899c16.745,15.841,33.484,31.677,50.223,47.512
				c0.626-0.259,1.253-0.517,1.879-0.776c-4.584-22.487-9.169-44.976-13.829-67.837c7.163-0.947,13.357-1.766,21.198-2.802
				c2.55,22.252,5.006,43.684,7.723,67.401c13.891-17.23,26.441-32.795,39.511-49.007c5.533,3.161,10.216,5.836,16.346,9.338
				c-14.466,15.855-27.998,30.687-43.32,47.48c25.161-0.305,48.479-0.588,72.625-0.88c0.775,4.181,1.501,8.092,2.521,13.593
				c-26.205,1.728-51.522,3.397-79.047,5.211c20.72,14.503,39.688,27.78,59.197,41.434c-3.258,5.369-6.269,10.332-10.185,16.786
				c-18.207-16.238-35.447-31.614-54.425-48.539c2.111,27.947,4.103,54.302,6.127,81.099c-7.274,0.81-13.48,1.502-21.594,2.406
				c-0.021-26.546-0.043-52.494-0.066-81.234C597.962,369.407,582.559,388.511,566.784,408.078z"/>
		</g>
	</g>
	<g id="snowflake_x5F_round_x5F_white_13_">
		<g>
			<path fill="#82D8E8" d="M764.853,375.828c-139.944-1.146-135.188-207.099-0.275-216.018
				C935.37,143.21,904.935,388.561,764.853,375.828z"/>
			<path fill="#D9FDFF" d="M776.345,362.91c-6.249-1.117-11.26-2.012-16.948-3.028c0.761-25.745,1.511-51.133,2.326-78.726
				c-22.567,19.344-43.949,37.674-66.197,56.745c-4.99-6.098-9.649-11.789-15.092-18.441c21.729-17.305,42.79-34.077,66.233-52.747
				c-25.123-0.742-47.27-1.396-70.13-2.072c1.169-5.88,2.086-10.485,3.413-17.157c24.402,2.662,48.796,5.324,73.189,7.985
				c0.365-0.622,0.73-1.245,1.094-1.867c-18.362-16.128-36.726-32.257-55.393-48.653c5.467-5.413,10.196-10.095,16.181-16.021
				c16.485,17.237,32.363,33.84,49.932,52.212c0.696-23.558,1.325-44.841,1.98-67.008c6.729-0.88,12.423-1.624,19.878-2.598
				c-2.069,22.762-4.004,44.055-6.194,68.164c21.15-16.452,40.752-31.7,61.049-47.489c3.349,3.048,6.482,5.9,10.887,9.91
				c-21.12,18.332-41.525,36.042-63.71,55.297c26.913-1.032,51.551-1.975,76.891-2.947c0.692,6.652,1.331,12.8,2.163,20.797
				c-25.898-2.058-50.42-4.007-77.415-6.152c19.778,22.351,38.43,43.43,57.394,64.861c-5.65,5.369-10.47,9.95-16.772,15.94
				c-17.104-22.508-33.822-44.509-52.339-68.876C777.907,310.035,777.136,336.156,776.345,362.91z"/>
		</g>
	</g>
	<g id="snowflake_x5F_round_x5F_white_4_">
		<g>
			<path fill="#B6F4F8" d="M788.381,185.924c-101.988-51.295-24.252-200.282,77.684-158.166
				C997.023,77.19,886.292,245.747,788.381,185.924z"/>
			<path fill="#D9FDFF" d="M801.448,180.615c-4.17-3.07-7.514-5.532-11.31-8.327c9.839-18.564,19.541-36.871,30.086-56.768
				c-23.487,6.018-45.742,11.721-68.897,17.655c-1.453-6.261-2.81-12.105-4.395-18.935c22.139-4.828,43.597-9.508,67.482-14.716
				c-18.116-9.601-34.086-18.065-50.57-26.801c2.976-3.881,5.307-6.92,8.683-11.324c16.896,10.746,33.786,21.489,50.676,32.231
				c0.492-0.324,0.983-0.648,1.474-0.972c-7.621-18.422-15.243-36.844-22.991-55.572c5.952-1.99,11.1-3.711,17.616-5.889
				c5.848,18.557,11.48,36.43,17.712,56.208c9.003-16.987,17.137-32.334,25.608-48.318c5.241,1.782,9.676,3.291,15.482,5.266
				c-9.721,15.91-18.813,30.793-29.108,47.644c21.408-4.413,41.249-8.503,61.793-12.738c1.351,3.438,2.616,6.654,4.393,11.177
				c-22.064,5.799-43.38,11.401-66.555,17.492c20.065,8.949,38.434,17.141,57.326,25.566c-1.892,5.117-3.641,9.846-5.916,15.997
				c-18.208-10.843-35.449-21.111-54.429-32.413c6.414,23.486,12.462,45.635,18.612,68.154c-6.07,1.891-11.248,3.506-18.019,5.616
				c-4.4-22.637-8.701-44.763-13.465-69.27C821.655,142.488,811.672,161.323,801.448,180.615z"/>
		</g>
	</g>
	<g id="snowflake_x5F_round_x5F_white_17_">
		<g>
			<path fill="#82D8E8" d="M1165.148,473.018c-125.886-14.116-102.347-199.094,19.951-194.509
				C1340.418,279.533,1290.075,497.58,1165.148,473.018z"/>
			<path fill="#D9FDFF" d="M1176.703,462.462c-5.522-1.59-9.949-2.864-14.976-4.311c3.092-23.108,6.141-45.894,9.455-70.661
				c-22.126,15.306-43.09,29.809-64.903,44.899c-3.923-5.956-7.585-11.516-11.864-18.014c21.181-13.548,41.71-26.679,64.562-41.296
				c-22.549-3.017-42.427-5.677-62.945-8.423c1.603-5.184,2.858-9.245,4.677-15.127c21.721,4.679,43.434,9.356,65.146,14.032
				c0.387-0.526,0.774-1.053,1.16-1.579c-15.023-16.237-30.048-32.475-45.322-48.982c5.428-4.362,10.124-8.135,16.066-12.911
				c13.23,17.06,25.972,33.493,40.072,51.676c2.829-21.145,5.385-40.247,8.048-60.143c6.14-0.163,11.336-0.301,18.139-0.481
				c-3.991,20.3-7.724,39.289-11.95,60.789c20.58-12.835,39.653-24.73,59.403-37.047c2.73,3.058,5.284,5.917,8.875,9.94
				c-20.729,14.53-40.756,28.567-62.529,43.827c24.327,1.588,46.597,3.042,69.501,4.536c0.001,6.053,0.001,11.649,0.002,18.926
				c-23.124-4.274-45.019-8.322-69.122-12.777c15.717,21.972,30.539,42.693,45.608,63.762c-5.589,4.305-10.356,7.979-16.59,12.782
				c-13.294-21.864-26.289-43.234-40.682-66.904C1183.054,415.004,1179.917,438.449,1176.703,462.462z"/>
		</g>
	</g>
	<g id="snowflake_x5F_round_x5F_white_12_">
		<g>
			<path fill="#B6F4F8" d="M1006.187,380.969c-101.988-51.295-24.252-200.282,77.684-158.166
				C1214.83,272.236,1104.098,440.793,1006.187,380.969z"/>
			<path fill="#D9FDFF" d="M1019.254,375.66c-4.17-3.07-7.514-5.532-11.31-8.327c9.839-18.564,19.541-36.871,30.086-56.768
				c-23.487,6.018-45.742,11.721-68.897,17.655c-1.453-6.261-2.81-12.105-4.395-18.935c22.139-4.828,43.597-9.508,67.482-14.716
				c-18.116-9.601-34.086-18.065-50.57-26.801c2.976-3.881,5.307-6.92,8.683-11.324c16.896,10.746,33.786,21.489,50.676,32.231
				c0.492-0.324,0.983-0.648,1.474-0.972c-7.621-18.422-15.243-36.844-22.991-55.572c5.952-1.99,11.1-3.711,17.616-5.889
				c5.848,18.557,11.48,36.43,17.712,56.208c9.003-16.987,17.137-32.334,25.608-48.318c5.241,1.782,9.676,3.291,15.482,5.266
				c-9.721,15.91-18.813,30.793-29.108,47.644c21.408-4.413,41.249-8.503,61.793-12.738c1.351,3.438,2.616,6.654,4.393,11.177
				c-22.064,5.799-43.38,11.401-66.555,17.492c20.065,8.949,38.433,17.141,57.326,25.566c-1.892,5.117-3.641,9.846-5.916,15.997
				c-18.208-10.843-35.449-21.111-54.429-32.413c6.414,23.486,12.462,45.635,18.611,68.154c-6.07,1.891-11.248,3.506-18.019,5.616
				c-4.4-22.637-8.701-44.763-13.465-69.27C1039.461,337.533,1029.479,356.369,1019.254,375.66z"/>
		</g>
	</g>
	<g id="snowflake_x5F_round_x5F_white_20_">
		<g>
			<path fill="#D9FDFF" d="M1383.103,501.447c-100.721-50.657-23.95-197.793,76.718-156.201
				C1589.153,394.065,1479.797,560.528,1383.103,501.447z"/>
			<path fill="#B6F4F8" d="M1396.008,496.205c-4.118-3.032-7.42-5.463-11.169-8.223c9.717-18.334,19.298-36.412,29.712-56.062
				c-23.195,5.944-45.173,11.576-68.041,17.436c-1.435-6.183-2.775-11.955-4.34-18.7c21.864-4.768,43.055-9.39,66.643-14.533
				c-17.891-9.482-33.662-17.84-49.941-26.468c2.939-3.833,5.241-6.834,8.575-11.183c16.686,10.613,33.366,21.222,50.046,31.831
				c0.485-0.32,0.971-0.64,1.456-0.96c-7.526-18.193-15.054-36.387-22.705-54.882c5.878-1.965,10.962-3.664,17.397-5.816
				c5.775,18.326,11.337,35.977,17.491,55.51c8.891-16.776,16.924-31.932,25.29-47.717c5.176,1.76,9.556,3.25,15.289,5.2
				c-9.6,15.712-18.579,30.41-28.747,47.052c21.142-4.358,40.736-8.398,61.025-12.58c1.335,3.395,2.583,6.571,4.339,11.038
				c-21.79,5.727-42.841,11.26-65.728,17.275c19.816,8.837,37.956,16.928,56.614,25.249c-1.869,5.053-3.596,9.724-5.842,15.799
				c-17.982-10.708-35.009-20.849-53.752-32.01c6.334,23.194,12.307,45.067,18.38,67.307c-5.994,1.868-11.109,3.462-17.796,5.547
				c-4.345-22.355-8.593-44.206-13.298-68.409C1415.964,458.552,1406.105,477.153,1396.008,496.205z"/>
		</g>
	</g>
	<g id="snowflake_x5F_round_x5F_white_19_">
		<g>
			<path fill="#FFFFFF" d="M1258.57,410.708c-77.952-60.147,12.287-173.562,91.698-121.195
				C1453.056,352.831,1331.672,477.409,1258.57,410.708z"/>
			<path fill="#D9FDFF" d="M1270.505,408.354c-3.028-3.283-5.456-5.916-8.212-8.904c11.373-14.107,22.589-28.018,34.778-43.137
				c-20.874,1.247-40.652,2.429-61.231,3.659c-0.204-5.54-0.395-10.711-0.618-16.754c19.537-0.46,38.473-0.906,59.552-1.402
				c-13.766-11.098-25.901-20.882-38.427-30.981c3.156-2.798,5.628-4.99,9.208-8.165c12.546,11.868,25.087,23.732,37.627,35.596
				c0.469-0.194,0.939-0.387,1.407-0.581c-3.434-16.848-6.869-33.696-10.361-50.823c5.366-0.709,10.007-1.323,15.882-2.099
				c1.911,16.671,3.75,32.728,5.786,50.496c10.407-12.908,19.809-24.57,29.602-36.716c4.146,2.368,7.654,4.372,12.246,6.996
				c-10.838,11.879-20.976,22.99-32.455,35.572c18.85-0.228,36.32-0.44,54.41-0.659c0.581,3.133,1.124,6.063,1.888,10.184
				c-19.633,1.295-38.6,2.545-59.222,3.904c15.523,10.865,29.734,20.813,44.35,31.043c-2.441,4.023-4.697,7.74-7.631,12.576
				c-13.641-12.165-26.557-23.685-40.775-36.365c1.582,20.938,3.074,40.683,4.59,60.759c-5.449,0.607-10.099,1.125-16.178,1.803
				c-0.016-19.888-0.032-39.328-0.05-60.86C1293.863,379.382,1282.324,393.695,1270.505,408.354z"/>
		</g>
	</g>
	<g id="snowflake_x5F_round_x5F_white_21_">
		<g>
			<path fill="#D9FDFF" d="M300.681,987.9c-123.298-62.012-29.319-242.129,93.915-191.214
				C552.918,856.447,419.05,1060.223,300.681,987.9z"/>
			<path fill="#B6F4F8" d="M316.479,981.482c-5.041-3.712-9.084-6.688-13.673-10.067c11.895-22.443,23.624-44.574,36.373-68.629
				c-28.395,7.276-55.299,14.17-83.293,21.344c-1.757-7.569-3.397-14.635-5.313-22.892c26.765-5.836,52.706-11.494,81.582-17.791
				c-21.901-11.607-41.207-21.839-61.136-32.401c3.597-4.692,6.415-8.366,10.497-13.69c20.426,12.992,40.845,25.979,61.264,38.966
				c0.594-0.392,1.189-0.783,1.782-1.175c-9.213-22.271-18.428-44.543-27.795-67.184c7.196-2.406,13.42-4.486,21.297-7.119
				c7.07,22.434,13.878,44.042,21.412,67.952c10.884-20.537,20.717-39.09,30.959-58.413c6.336,2.155,11.698,3.978,18.717,6.366
				c-11.752,19.234-22.744,37.227-35.19,57.599c25.881-5.335,49.867-10.28,74.704-15.4c1.634,4.156,3.162,8.044,5.311,13.512
				c-26.674,7.011-52.444,13.784-80.461,21.147c24.257,10.818,46.464,20.723,69.304,30.908c-2.287,6.186-4.402,11.904-7.152,19.34
				c-22.013-13.109-42.856-25.522-65.801-39.186c7.754,28.393,15.066,55.17,22.5,82.394c-7.338,2.287-13.599,4.238-21.784,6.79
				c-5.319-27.366-10.519-54.115-16.278-83.743C340.908,935.388,328.839,958.159,316.479,981.482z"/>
		</g>
	</g>
	<g id="snowflake_x5F_round_x5F_white_24_">
		<g>
			<path fill="#FFFFFF" d="M854.482,406.802c-77.952-60.147,12.287-173.562,91.698-121.195
				C1048.967,348.925,927.583,473.503,854.482,406.802z"/>
			<path fill="#D9FDFF" d="M866.416,404.448c-3.028-3.283-5.456-5.916-8.212-8.904c11.373-14.107,22.589-28.018,34.778-43.137
				c-20.874,1.247-40.652,2.429-61.232,3.659c-0.204-5.54-0.395-10.711-0.618-16.754c19.537-0.46,38.474-0.906,59.552-1.402
				c-13.766-11.098-25.901-20.882-38.427-30.981c3.156-2.799,5.627-4.99,9.208-8.165c12.545,11.868,25.087,23.732,37.627,35.596
				c0.469-0.194,0.939-0.387,1.407-0.581c-3.434-16.848-6.869-33.696-10.361-50.823c5.366-0.709,10.007-1.323,15.882-2.099
				c1.91,16.671,3.75,32.728,5.786,50.496c10.407-12.908,19.809-24.57,29.602-36.716c4.146,2.368,7.654,4.372,12.246,6.996
				c-10.838,11.879-20.976,22.99-32.455,35.572c18.85-0.228,36.32-0.44,54.41-0.659c0.581,3.133,1.124,6.063,1.888,10.184
				c-19.633,1.295-38.6,2.545-59.222,3.904c15.523,10.865,29.734,20.813,44.35,31.043c-2.44,4.023-4.697,7.74-7.631,12.576
				c-13.641-12.165-26.557-23.685-40.775-36.365c1.582,20.938,3.074,40.683,4.59,60.759c-5.449,0.607-10.099,1.125-16.178,1.803
				c-0.016-19.888-0.032-39.328-0.05-60.86C889.774,375.476,878.235,389.789,866.416,404.448z"/>
		</g>
	</g>
	<g id="snowflake_x5F_round_x5F_white_28_">
		<g>
			<path fill="#FFFFFF" d="M1513.94,660.02c-32.5-92.94,105.008-138.737,142.977-51.521
				C1708.5,717.649,1538.8,755.805,1513.94,660.02z"/>
			<path fill="#D9FDFF" d="M1525.226,664.56c-0.746-4.403-1.344-7.934-2.023-11.943c17.229-5.615,34.218-11.152,52.684-17.17
				c-18.172-10.346-35.392-20.148-53.307-30.348c2.852-4.754,5.513-9.191,8.624-14.377c16.623,10.276,32.735,20.236,50.668,31.322
				c-5.479-16.812-10.309-31.633-15.295-46.931c4.172-0.623,7.439-1.111,12.172-1.818c4.036,16.792,8.072,33.577,12.107,50.362
				c0.499,0.094,0.998,0.188,1.497,0.281c6.316-15.992,12.631-31.985,19.052-48.243c4.884,2.334,9.108,4.352,14.454,6.907
				c-7.496,15.013-14.717,29.472-22.707,45.473c15.765-5.138,30.008-9.78,44.841-14.614c2.182,4.247,4.028,7.84,6.445,12.545
				c-15.564,4.04-30.124,7.819-46.609,12.098c15.921,10.095,30.676,19.451,45.955,29.139c-1.223,2.942-2.366,5.694-3.975,9.565
				c-17.158-9.629-33.735-18.931-51.757-29.045c7.079,17.576,13.56,33.666,20.225,50.215c-4.24,2.039-8.16,3.923-13.257,6.375
				c-4.792-17.638-9.33-34.339-14.325-52.724c-10.1,18.409-19.625,35.769-29.309,53.42c-4.898-2.465-9.077-4.568-14.541-7.318
				c10.839-16.675,21.434-32.974,33.169-51.027C1560.61,653.028,1543.13,658.725,1525.226,664.56z"/>
		</g>
	</g>
	<g id="snowflake_x5F_round_x5F_white_27_">
		<g>
			<path fill="#B6F4F8" d="M1494.279,595.782c-117.267-58.979-27.885-230.287,89.322-181.861
				C1734.179,470.758,1606.858,664.568,1494.279,595.782z"/>
			<path fill="#D9FDFF" d="M1509.304,589.678c-4.795-3.53-8.64-6.361-13.004-9.574c11.313-21.345,22.469-42.394,34.594-65.272
				c-27.006,6.92-52.595,13.477-79.219,20.3c-1.671-7.199-3.231-13.919-5.053-21.772c25.456-5.551,50.128-10.932,77.592-16.921
				c-20.829-11.039-39.192-20.771-58.145-30.816c3.421-4.462,6.102-7.957,9.984-13.02c19.427,12.356,38.848,24.708,58.267,37.06
				c0.565-0.372,1.13-0.745,1.695-1.118c-8.763-21.182-17.527-42.364-26.436-63.898c6.844-2.288,12.763-4.266,20.256-6.771
				c6.724,21.337,13.199,41.888,20.365,64.629c10.352-19.532,19.704-37.178,29.444-55.556c6.026,2.049,11.125,3.784,17.801,6.054
				c-11.177,18.294-21.632,35.406-33.469,54.782c24.615-5.074,47.428-9.777,71.05-14.646c1.554,3.953,3.007,7.651,5.052,12.851
				c-25.369,6.668-49.879,13.109-76.526,20.113c23.071,10.289,44.191,19.709,65.914,29.397c-2.175,5.883-4.187,11.321-6.802,18.394
				c-20.936-12.467-40.76-24.274-62.583-37.269c7.375,27.004,14.329,52.471,21.4,78.365c-6.979,2.175-12.933,4.031-20.719,6.458
				c-5.059-26.028-10.005-51.469-15.482-79.647C1532.538,545.839,1521.06,567.496,1509.304,589.678z"/>
		</g>
	</g>
	<g id="snowflake_x5F_round_x5F_white_29_">
		<g>
			<path fill="#82D8E8" d="M1539.619,878.967c-125.886-14.117-102.347-199.094,19.951-194.509
				C1714.888,685.482,1664.546,903.529,1539.619,878.967z"/>
			<path fill="#D9FDFF" d="M1551.174,868.411c-5.522-1.59-9.949-2.864-14.976-4.311c3.092-23.108,6.141-45.894,9.455-70.661
				c-22.126,15.306-43.09,29.809-64.903,44.899c-3.923-5.956-7.585-11.516-11.864-18.014c21.181-13.548,41.71-26.679,64.562-41.296
				c-22.549-3.017-42.427-5.677-62.945-8.423c1.603-5.184,2.858-9.245,4.677-15.127c21.721,4.679,43.434,9.356,65.146,14.032
				c0.387-0.526,0.774-1.053,1.16-1.579c-15.023-16.237-30.048-32.475-45.322-48.982c5.428-4.362,10.123-8.135,16.066-12.911
				c13.23,17.06,25.972,33.493,40.072,51.676c2.829-21.145,5.385-40.247,8.047-60.143c6.14-0.163,11.337-0.301,18.139-0.481
				c-3.991,20.3-7.724,39.289-11.95,60.789c20.58-12.835,39.653-24.73,59.403-37.047c2.73,3.058,5.284,5.917,8.875,9.94
				c-20.729,14.53-40.756,28.567-62.529,43.827c24.327,1.588,46.597,3.042,69.501,4.536c0.001,6.053,0.001,11.649,0.002,18.926
				c-23.124-4.274-45.019-8.322-69.122-12.777c15.717,21.972,30.538,42.693,45.608,63.762c-5.589,4.305-10.356,7.979-16.59,12.782
				c-13.294-21.864-26.289-43.234-40.682-66.904C1557.524,820.953,1554.387,844.398,1551.174,868.411z"/>
		</g>
	</g>
	<g id="snowflake_x5F_round_x5F_white_30_">
		<g>
			<path fill="#B6F4F8" d="M484.389,1047.087c-140.34-70.584-33.371-275.596,106.896-217.643
				C771.489,897.465,619.118,1129.407,484.389,1047.087z"/>
			<path fill="#D9FDFF" d="M502.37,1039.782c-5.738-4.225-10.339-7.612-15.563-11.458c13.539-25.545,26.889-50.736,41.4-78.115
				c-32.319,8.282-62.943,16.129-94.805,24.294c-2-8.616-3.866-16.657-6.047-26.056c30.464-6.643,59.991-13.083,92.858-20.25
				c-24.928-13.211-46.903-24.858-69.586-36.88c4.095-5.34,7.302-9.523,11.948-15.582c23.25,14.788,46.491,29.57,69.732,44.351
				c0.676-0.446,1.353-0.891,2.028-1.337c-10.487-25.349-20.975-50.699-31.637-76.47c8.191-2.738,15.275-5.106,24.241-8.103
				c8.047,25.535,15.797,50.129,24.372,77.345c12.389-23.375,23.581-44.493,35.238-66.487c7.212,2.453,13.315,4.528,21.304,7.246
				c-13.376,21.893-25.888,42.372-40.054,65.56c29.458-6.072,56.76-11.701,85.03-17.528c1.86,4.731,3.599,9.156,6.046,15.38
				c-30.361,7.98-59.693,15.689-91.583,24.07c27.61,12.314,52.886,23.587,78.883,35.18c-2.603,7.041-5.011,13.549-8.14,22.013
				c-25.055-14.92-48.78-29.049-74.896-44.602c8.825,32.318,17.148,62.795,25.61,93.783c-8.352,2.603-15.478,4.824-24.796,7.729
				c-6.055-31.149-11.973-61.595-18.528-95.318C530.176,987.318,516.439,1013.236,502.37,1039.782z"/>
		</g>
	</g>
	<g id="snowflake_x5F_round_x5F_white_31_">
		<g>
			<path fill="#FFFFFF" d="M750.382,832.464c-91.31-70.454,14.392-203.304,107.412-141.964
				C978.195,764.669,836.011,910.596,750.382,832.464z"/>
			<path fill="#D9FDFF" d="M764.362,829.707c-3.547-3.846-6.391-6.929-9.619-10.43c13.322-16.524,26.459-32.819,40.738-50.529
				c-24.451,1.461-47.619,2.845-71.724,4.286c-0.239-6.489-0.463-12.546-0.724-19.625c22.885-0.539,45.066-1.061,69.757-1.642
				c-16.125-13-30.34-24.461-45.012-36.29c3.696-3.278,6.592-5.845,10.786-9.564c14.695,13.902,29.385,27.799,44.075,41.696
				c0.55-0.227,1.099-0.454,1.649-0.681c-4.023-19.735-8.046-39.47-12.136-59.533c6.286-0.831,11.722-1.549,18.603-2.459
				c2.238,19.528,4.393,38.337,6.777,59.15c12.19-15.12,23.204-28.781,34.674-43.008c4.856,2.774,8.965,5.121,14.345,8.195
				c-12.695,13.914-24.571,26.93-38.017,41.668c22.081-0.268,42.545-0.516,63.734-0.772c0.68,3.669,1.317,7.102,2.212,11.929
				c-22.997,1.517-45.215,2.981-69.37,4.573c18.184,12.727,34.83,24.379,51.951,36.362c-2.859,4.712-5.502,9.067-8.938,14.731
				c-15.978-14.25-31.108-27.744-47.763-42.597c1.853,24.526,3.6,47.655,5.377,71.171c-6.383,0.711-11.83,1.318-18.951,2.112
				c-0.019-23.297-0.037-46.068-0.058-71.289C791.723,795.77,778.206,812.536,764.362,829.707z"/>
		</g>
	</g>
	<g id="snowflake_x5F_round_x5F_white_33_">
		<g>
			<path fill="#82D8E8" d="M728.29,1042.962c-125.886-14.117-102.347-199.094,19.951-194.51
				C903.559,849.478,853.217,1067.525,728.29,1042.962z"/>
			<path fill="#D9FDFF" d="M739.845,1032.407c-5.522-1.59-9.949-2.864-14.976-4.311c3.092-23.108,6.141-45.894,9.455-70.661
				c-22.126,15.306-43.09,29.809-64.903,44.899c-3.923-5.956-7.585-11.516-11.864-18.014c21.181-13.548,41.71-26.679,64.562-41.296
				c-22.549-3.017-42.427-5.677-62.945-8.423c1.603-5.184,2.858-9.245,4.677-15.127c21.721,4.679,43.434,9.356,65.146,14.032
				c0.387-0.526,0.774-1.053,1.16-1.579c-15.023-16.237-30.048-32.475-45.322-48.982c5.428-4.362,10.124-8.135,16.066-12.911
				c13.23,17.06,25.972,33.493,40.072,51.676c2.829-21.145,5.385-40.247,8.048-60.143c6.14-0.163,11.337-0.301,18.139-0.481
				c-3.991,20.3-7.724,39.289-11.95,60.789c20.58-12.835,39.653-24.73,59.403-37.047c2.73,3.058,5.284,5.917,8.875,9.94
				c-20.729,14.53-40.756,28.567-62.529,43.827c24.327,1.588,46.597,3.042,69.501,4.536c0.001,6.053,0.001,11.649,0.002,18.926
				c-23.124-4.274-45.019-8.322-69.122-12.777c15.717,21.972,30.538,42.693,45.608,63.762c-5.589,4.305-10.356,7.979-16.59,12.782
				c-13.294-21.864-26.289-43.234-40.682-66.904C746.195,984.949,743.058,1008.394,739.845,1032.407z"/>
		</g>
	</g>
	<g id="snowflake_x5F_round_x5F_white_34_">
		<g>
			<path fill="#FFFFFF" d="M1120.046,883.09c-105.33-81.272,16.602-234.519,123.904-163.761
				C1382.837,804.885,1218.821,973.217,1120.046,883.09z"/>
			<path fill="#D9FDFF" d="M1136.172,879.91c-4.091-4.436-7.372-7.993-11.096-12.031c15.368-19.061,30.522-37.858,46.993-58.288
				c-28.205,1.685-54.93,3.282-82.737,4.943c-0.276-7.485-0.534-14.472-0.835-22.638c26.399-0.621,51.986-1.224,80.467-1.895
				c-18.601-14.996-34.998-28.216-51.923-41.862c4.264-3.781,7.604-6.743,12.442-11.033c16.952,16.037,33.897,32.068,50.842,48.098
				c0.634-0.262,1.268-0.523,1.902-0.786c-4.64-22.765-9.281-45.53-13.999-68.673c7.251-0.959,13.522-1.787,21.459-2.837
				c2.581,22.526,5.067,44.223,7.818,68.231c14.062-17.442,26.766-33.2,39.998-49.611c5.601,3.2,10.342,5.907,16.547,9.453
				c-14.645,16.051-28.343,31.065-43.854,48.066c25.471-0.309,49.077-0.595,73.52-0.891c0.785,4.233,1.519,8.192,2.552,13.761
				c-26.528,1.749-52.157,3.439-80.021,5.276c20.975,14.681,40.177,28.122,59.927,41.945c-3.298,5.435-6.346,10.459-10.311,16.993
				c-18.432-16.438-35.884-32.003-55.096-49.137c2.137,28.291,4.153,54.971,6.202,82.099c-7.363,0.82-13.646,1.52-21.86,2.436
				c-0.022-26.874-0.043-53.141-0.067-82.235C1167.734,840.762,1152.141,860.102,1136.172,879.91z"/>
		</g>
	</g>
	<g id="snowflake_x5F_round_x5F_white_36_">
		<g>
			<path fill="#82D8E8" d="M1280.194,1032.366c-125.886-14.117-102.347-199.094,19.951-194.509
				C1455.464,838.881,1405.121,1056.928,1280.194,1032.366z"/>
			<path fill="#D9FDFF" d="M1291.75,1021.81c-5.522-1.59-9.949-2.864-14.976-4.311c3.092-23.108,6.141-45.894,9.455-70.661
				c-22.126,15.306-43.09,29.809-64.903,44.899c-3.923-5.956-7.585-11.516-11.864-18.014c21.181-13.548,41.71-26.679,64.562-41.296
				c-22.549-3.017-42.427-5.677-62.945-8.423c1.603-5.184,2.858-9.245,4.677-15.127c21.721,4.679,43.434,9.356,65.146,14.032
				c0.387-0.526,0.774-1.053,1.16-1.579c-15.023-16.237-30.048-32.475-45.322-48.982c5.428-4.362,10.123-8.135,16.066-12.911
				c13.23,17.06,25.972,33.493,40.072,51.676c2.829-21.145,5.385-40.247,8.048-60.143c6.14-0.163,11.336-0.301,18.139-0.481
				c-3.991,20.3-7.724,39.289-11.95,60.789c20.58-12.835,39.653-24.73,59.403-37.047c2.73,3.058,5.284,5.917,8.875,9.94
				c-20.729,14.53-40.756,28.567-62.529,43.827c24.327,1.588,46.597,3.042,69.501,4.536c0.001,6.053,0.001,11.649,0.002,18.926
				c-23.124-4.274-45.019-8.322-69.122-12.777c15.717,21.972,30.538,42.693,45.608,63.762c-5.589,4.305-10.356,7.979-16.59,12.782
				c-13.294-21.864-26.289-43.234-40.682-66.904C1298.1,974.352,1294.963,997.797,1291.75,1021.81z"/>
		</g>
	</g>
	<g id="snowflake_x5F_round_x5F_white_35_">
		<g>
			<path fill="#FFFFFF" d="M1372.454,590.52c57.025-80.264,173.911,5.431,124.718,86.846
				C1437.958,782.571,1308.689,666.196,1372.454,590.52z"/>
			<path fill="#D9FDFF" d="M1375.277,602.353c3.161-3.155,5.696-5.685,8.573-8.557c14.544,10.808,28.887,21.466,44.476,33.05
				c-2.069-20.808-4.031-40.525-6.071-61.039c5.527-0.423,10.687-0.818,16.716-1.279c1.23,19.504,2.423,38.408,3.75,59.45
				c10.547-14.193,19.844-26.705,29.441-39.619c2.921,3.043,5.208,5.426,8.522,8.879c-11.364,13.004-22.724,26.003-34.084,39.002
				c0.212,0.461,0.424,0.923,0.636,1.383c16.699-4.096,33.399-8.193,50.375-12.357c0.921,5.334,1.716,9.947,2.724,15.786
				c-16.583,2.567-32.555,5.038-50.229,7.773c13.309,9.89,25.333,18.825,37.855,28.13c-2.203,4.236-4.067,7.82-6.507,12.513
				c-12.297-10.361-23.8-20.053-36.825-31.027c0.972,18.827,1.873,36.275,2.805,54.342c-3.107,0.704-6.014,1.363-10.102,2.289
				c-2.068-19.566-4.066-38.47-6.237-59.022c-10.245,15.94-19.624,30.532-29.269,45.54c-4.116-2.28-7.92-4.388-12.867-7.129
				c11.618-14.11,22.619-27.471,34.729-42.178c-20.859,2.407-40.53,4.676-60.531,6.983c-0.821-5.421-1.523-10.047-2.439-16.095
				c19.872-0.801,39.296-1.583,60.811-2.45C1405.148,624.55,1390.391,613.584,1375.277,602.353z"/>
		</g>
	</g>
	<g id="snowflake_x5F_round_x5F_white_38_">
		<g>
			<path fill="#FFFFFF" d="M1449.958,831.677c110.744-18.81,135.999,144.602,30.649,170.656
				C1347.987,1039.51,1337.473,841.349,1449.958,831.677z"/>
			<path fill="#D9FDFF" d="M1442.696,843.503c5.095,0.002,9.181,0.004,13.819,0.005c3.026,20.451,6.01,40.617,9.253,62.536
				c15.107-18.465,29.421-35.961,44.314-54.165c4.802,4.115,9.285,7.956,14.524,12.446c-14.732,16.735-29.011,32.956-44.905,51.01
				c19.956-2.953,37.549-5.556,55.708-8.243c-0.096,4.811-0.171,8.579-0.28,14.038c-19.658,1.334-39.308,2.667-58.958,4.001
				c-0.201,0.543-0.402,1.087-0.602,1.63c16.781,10.158,33.564,20.315,50.625,30.641c-3.558,5.048-6.635,9.413-10.529,14.939
				c-15.455-11.298-30.34-22.181-46.811-34.223c2.769,18.713,5.27,35.62,7.876,53.228c-5.193,1.643-9.588,3.034-15.341,4.853
				c-1.572-18.278-3.043-35.376-4.708-54.735c-14.395,15.98-27.736,30.79-41.55,46.125c-3.076-1.937-5.953-3.749-9.999-6.297
				c14.106-17.461,27.735-34.33,42.552-52.67c-21.121,4.607-40.457,8.823-60.343,13.161c-1.484-5.159-2.855-9.927-4.639-16.129
				c20.754-2.022,40.406-3.937,62.039-6.045c-18.777-14.875-36.485-28.904-54.49-43.167c3.708-5.038,6.871-9.337,11.007-14.958
				c16.686,15.376,32.996,30.405,51.061,47.052C1448.911,885.505,1445.841,864.755,1442.696,843.503z"/>
		</g>
	</g>
	<g id="snowflake_x5F_round_x5F_white_41_">
		<g>
			<path fill="#FFFFFF" d="M1096.187,931.543c57.026-80.264,173.911,5.431,124.718,86.846
				C1161.691,1123.594,1032.422,1007.218,1096.187,931.543z"/>
			<path fill="#D9FDFF" d="M1099.01,943.375c3.161-3.155,5.696-5.685,8.573-8.557c14.544,10.808,28.887,21.466,44.476,33.05
				c-2.069-20.808-4.031-40.525-6.071-61.039c5.527-0.423,10.687-0.818,16.716-1.279c1.23,19.504,2.423,38.408,3.75,59.45
				c10.547-14.193,19.844-26.705,29.441-39.619c2.921,3.043,5.208,5.426,8.522,8.879c-11.364,13.004-22.724,26.003-34.084,39.002
				c0.212,0.461,0.424,0.923,0.636,1.383c16.699-4.096,33.399-8.193,50.375-12.357c0.921,5.334,1.716,9.947,2.724,15.786
				c-16.583,2.567-32.555,5.038-50.229,7.773c13.309,9.89,25.333,18.825,37.855,28.13c-2.203,4.236-4.067,7.82-6.507,12.513
				c-12.297-10.361-23.8-20.053-36.825-31.027c0.972,18.827,1.873,36.275,2.805,54.342c-3.107,0.704-6.014,1.363-10.102,2.289
				c-2.068-19.567-4.066-38.47-6.237-59.022c-10.245,15.94-19.623,30.532-29.269,45.54c-4.116-2.28-7.92-4.388-12.867-7.129
				c11.618-14.11,22.619-27.471,34.729-42.178c-20.859,2.407-40.53,4.676-60.531,6.983c-0.821-5.421-1.523-10.047-2.439-16.095
				c19.872-0.801,39.296-1.583,60.811-2.45C1128.881,965.572,1114.124,954.606,1099.01,943.375z"/>
		</g>
	</g>
	<g id="snowflake_x5F_round_x5F_white_42_">
		<g>
			<path fill="#82D8E8" d="M1324.927,620.444c-125.886-14.116-102.347-199.094,19.951-194.509
				C1500.196,426.959,1449.853,645.006,1324.927,620.444z"/>
			<path fill="#D9FDFF" d="M1336.482,609.888c-5.522-1.59-9.949-2.864-14.976-4.311c3.092-23.108,6.141-45.894,9.455-70.661
				c-22.126,15.306-43.09,29.809-64.903,44.899c-3.923-5.956-7.585-11.516-11.864-18.014c21.181-13.548,41.71-26.679,64.562-41.296
				c-22.549-3.017-42.427-5.677-62.945-8.423c1.603-5.184,2.858-9.245,4.677-15.127c21.721,4.679,43.434,9.356,65.146,14.032
				c0.387-0.526,0.774-1.053,1.16-1.579c-15.023-16.237-30.048-32.475-45.322-48.982c5.428-4.362,10.123-8.135,16.066-12.911
				c13.23,17.06,25.972,33.493,40.072,51.676c2.829-21.145,5.385-40.247,8.047-60.143c6.14-0.163,11.337-0.301,18.139-0.481
				c-3.991,20.3-7.724,39.289-11.95,60.789c20.58-12.835,39.653-24.73,59.403-37.047c2.73,3.058,5.284,5.917,8.875,9.94
				c-20.729,14.53-40.756,28.567-62.529,43.827c24.327,1.588,46.597,3.042,69.501,4.536c0.001,6.053,0.001,11.649,0.002,18.926
				c-23.124-4.274-45.019-8.322-69.122-12.777c15.717,21.972,30.538,42.693,45.608,63.762c-5.589,4.305-10.356,7.979-16.59,12.782
				c-13.294-21.864-26.289-43.234-40.682-66.904C1342.832,562.43,1339.695,585.875,1336.482,609.888z"/>
		</g>
	</g>
	<g id="snowflake_x5F_round_x5F_white_43_">
		<g>
			<path fill="#FFFFFF" d="M1097.812,597.623c-99.233-76.568,15.641-220.945,116.732-154.283
				C1345.394,523.944,1190.871,682.534,1097.812,597.623z"/>
			<path fill="#D9FDFF" d="M1113.005,594.627c-3.854-4.179-6.945-7.531-10.454-11.335c14.478-17.958,28.755-35.667,44.273-54.914
				c-26.573,1.587-51.751,3.092-77.948,4.657c-0.26-7.052-0.503-13.635-0.787-21.327c24.871-0.585,48.977-1.153,75.81-1.785
				c-17.524-14.128-32.972-26.583-48.918-39.439c4.017-3.563,7.164-6.352,11.722-10.394c15.97,15.109,31.935,30.212,47.9,45.314
				c0.597-0.247,1.195-0.493,1.792-0.74c-4.372-21.447-8.744-42.895-13.189-64.699c6.831-0.903,12.739-1.684,20.217-2.672
				c2.432,21.223,4.774,41.663,7.365,64.282c13.248-16.433,25.217-31.278,37.683-46.74c5.277,3.015,9.743,5.566,15.59,8.906
				c-13.797,15.122-26.703,29.267-41.316,45.284c23.996-0.291,46.236-0.56,69.265-0.839c0.74,3.988,1.431,7.718,2.404,12.964
				c-24.993,1.648-49.139,3.24-75.39,4.97c19.761,13.832,37.852,26.495,56.458,39.517c-3.107,5.121-5.979,9.854-9.714,16.01
				c-17.365-15.486-33.807-30.151-51.907-46.293c2.014,26.654,3.913,51.79,5.843,77.347c-6.937,0.772-12.856,1.432-20.595,2.295
				c-0.02-25.318-0.041-50.065-0.063-77.476C1142.74,557.745,1128.051,575.965,1113.005,594.627z"/>
		</g>
	</g>
	<g id="snowflake_x5F_round_x5F_white_46_">
		<g>
			<path fill="#FFFFFF" d="M925.942,445.744c27.112-94.653,165.832-52.671,146.491,40.464
				C1051.545,605.112,890.949,538.309,925.942,445.744z"/>
			<path fill="#D9FDFF" d="M932.536,455.966c1.933-4.026,3.483-7.255,5.242-10.919c17.31,5.36,34.379,10.646,52.931,16.391
				c-8.867-18.938-17.269-36.883-26.01-55.553c5.073-2.236,9.808-4.322,15.341-6.761c7.642,17.987,15.049,35.42,23.293,54.825
				c5.231-16.891,9.842-31.782,14.602-47.152c3.766,1.899,6.715,3.387,10.988,5.542c-6.397,16.041-12.792,32.077-19.186,48.112
				c0.353,0.365,0.707,0.729,1.06,1.093c14.389-9.413,28.778-18.826,43.406-28.395c2.641,4.725,4.925,8.812,7.815,13.984
				c-14.787,7.931-29.03,15.571-44.791,24.023c15.839,4.905,30.149,9.336,45.052,13.952c-0.67,4.727-1.237,8.727-1.979,13.964
				c-15.041-5.686-29.111-11.004-45.043-17.026c7.173,17.434,13.821,33.591,20.704,50.321c-2.697,1.697-5.219,3.284-8.767,5.516
				c-8.453-17.767-16.619-34.933-25.497-53.595c-4.365,18.439-8.362,35.318-12.472,52.679c-4.639-0.783-8.928-1.507-14.505-2.448
				c6.268-17.169,12.204-33.426,18.738-51.322c-18.874,9.202-36.673,17.879-54.77,26.702c-2.576-4.84-4.775-8.97-7.649-14.369
				c18.477-7.359,36.537-14.552,56.541-22.52C968.086,466.975,950.524,461.536,932.536,455.966z"/>
		</g>
	</g>
	<g id="snowflake_x5F_round_x5F_white_47_">
		<g>
			<path fill="#FFFFFF" d="M963.695,840.379c-89.522-40.988-27.229-171.852,61.957-138.774
				C1140.084,740.072,1049.972,888.846,963.695,840.379z"/>
			<path fill="#D9FDFF" d="M974.79,835.39c-3.691-2.514-6.651-4.531-10.011-6.819c7.893-16.311,15.677-32.395,24.137-49.877
				c-20.053,5.929-39.054,11.547-58.823,17.393c-1.45-5.35-2.804-10.344-4.386-16.181c18.929-4.86,37.275-9.572,57.696-14.816
				c-15.917-7.703-29.948-14.493-44.431-21.502c2.442-3.439,4.355-6.132,7.126-10.034c14.902,8.728,29.798,17.453,44.694,26.178
				c0.413-0.295,0.827-0.589,1.24-0.884c-7.15-15.637-14.302-31.274-21.571-47.17c5.067-1.903,9.45-3.549,14.997-5.632
				c5.626,15.809,11.045,31.036,17.041,47.885c7.223-14.925,13.748-28.409,20.544-42.453c4.573,1.371,8.443,2.53,13.51,4.049
				c-7.875,14.02-15.242,27.134-23.583,41.983c18.312-4.48,35.283-8.632,52.855-12.931c1.273,2.92,2.465,5.652,4.14,9.494
				c-18.833,5.695-37.028,11.197-56.81,17.179c17.576,7.079,33.666,13.559,50.216,20.224c-1.469,4.47-2.827,8.601-4.593,13.975
				c-16.036-8.77-31.22-17.075-47.935-26.217c6.27,20.039,12.183,38.938,18.194,58.153c-5.172,1.822-9.584,3.377-15.353,5.41
				c-4.507-19.371-8.913-38.305-13.794-59.277C991.001,801.891,982.993,818.44,974.79,835.39z"/>
		</g>
	</g>
	<g id="snowflake_x5F_round_x5F_white_39_">
		<g>
			<path fill="#D9FDFF" d="M910.214,1022.508c-134.861,24.934-168.602-174.109-40.455-207.792
				C1030.999,766.969,1047.363,1008.698,910.214,1022.508z"/>
			<path fill="#B6F4F8" d="M918.868,1007.941c-6.22,0.088-11.208,0.159-16.87,0.239c-4.058-24.912-8.06-49.478-12.409-76.179
				c-18.113,22.811-35.276,44.425-53.134,66.913c-5.936-4.938-11.477-9.548-17.952-14.935c17.687-20.692,34.83-40.749,53.912-63.073
				c-24.31,3.96-45.741,7.451-67.862,11.054c0.031-5.875,0.056-10.476,0.091-17.142c23.974-1.978,47.94-3.956,71.905-5.934
				c0.235-0.667,0.471-1.334,0.705-2c-20.668-12.102-41.337-24.203-62.349-36.505c4.253-6.226,7.932-11.61,12.588-18.425
				c19.068,13.518,37.434,26.538,57.756,40.947c-3.713-22.796-7.068-43.391-10.562-64.84c6.31-2.098,11.651-3.874,18.642-6.198
				c2.244,22.286,4.344,43.132,6.722,66.736c17.289-19.765,33.312-38.082,49.903-57.05c3.789,2.31,7.334,4.47,12.319,7.51
				c-16.91,21.568-33.248,42.404-51.01,65.057c25.703-6,49.232-11.492,73.432-17.141c1.903,6.271,3.662,12.068,5.95,19.607
				c-25.3,2.838-49.258,5.525-75.629,8.484c23.188,17.826,45.056,34.636,67.289,51.728c-4.437,6.217-8.222,11.521-13.172,18.457
				c-20.644-18.474-40.823-36.531-63.173-56.532C910.534,956.776,914.651,982.052,918.868,1007.941z"/>
		</g>
	</g>
	<g id="snowflake_x5F_round_x5F_white_40_">
		<g>
			<path fill="#B6F4F8" d="M1014.878,1008.023c-109.873-25.859-69.401-187.009,38.309-169.964
				C1190.488,855.461,1122.792,1043.021,1014.878,1008.023z"/>
			<path fill="#D9FDFF" d="M1026.221,999.911c-4.716-1.993-8.498-3.591-12.791-5.405c5.19-20.115,10.307-39.95,15.87-61.51
				c-21.2,11.191-41.288,21.795-62.189,32.829c-2.838-5.686-5.487-10.994-8.583-17.197c20.178-9.736,39.735-19.173,61.504-29.677
				c-19.629-5.064-36.933-9.529-54.793-14.137c1.968-4.416,3.511-7.875,5.744-12.886c18.72,6.446,37.432,12.89,56.145,19.334
				c0.398-0.424,0.796-0.849,1.194-1.274c-11.567-15.961-23.135-31.922-34.894-48.148c5.266-3.283,9.82-6.122,15.585-9.716
				c9.893,16.499,19.421,32.39,29.964,49.974c4.749-18.406,9.039-35.035,13.507-52.354c5.45,0.508,10.061,0.938,16.099,1.501
				c-5.687,17.535-11.006,33.939-17.028,52.511c19.57-9.169,37.708-17.667,56.489-26.466c2.09,2.995,4.046,5.796,6.796,9.737
				c-19.882,10.653-39.091,20.944-59.974,32.133c21.353,3.988,40.901,7.64,61.006,11.395c-0.642,5.356-1.236,10.306-2.008,16.744
				c-20.004-6.237-38.945-12.144-59.796-18.645c11.571,21.108,22.483,41.014,33.578,61.254c-5.401,3.215-10.01,5.959-16.035,9.547
				c-9.439-20.755-18.666-41.041-28.885-63.511C1036.88,958.6,1031.615,979.008,1026.221,999.911z"/>
		</g>
	</g>
	<g id="snowflake_x5F_round_x5F_white_16_">
		<g>
			<path fill="#B6F4F8" d="M408.302,818.146c-136.772-32.19-86.392-232.793,47.688-211.575
				C626.907,628.234,542.637,861.713,408.302,818.146z"/>
			<path fill="#D9FDFF" d="M422.423,808.049c-5.871-2.481-10.579-4.47-15.923-6.728c6.46-25.039,12.831-49.731,19.755-76.568
				c-26.391,13.931-51.396,27.131-77.414,40.866c-3.533-7.078-6.83-13.685-10.684-21.407c25.118-12.12,49.463-23.867,76.562-36.943
				c-24.434-6.304-45.975-11.862-68.208-17.598c2.45-5.498,4.37-9.803,7.15-16.041c23.303,8.024,46.597,16.046,69.89,24.067
				c0.496-0.528,0.991-1.057,1.486-1.586c-14.399-19.868-28.799-39.737-43.437-59.936c6.555-4.087,12.225-7.621,19.4-12.094
				c12.315,20.538,24.175,40.319,37.299,62.209c5.911-22.912,11.252-43.612,16.814-65.171c6.784,0.633,12.525,1.168,20.04,1.869
				c-7.079,21.828-13.7,42.247-21.197,65.367c24.362-11.414,46.94-21.992,70.318-32.946c2.602,3.728,5.037,7.215,8.46,12.121
				c-24.75,13.261-48.661,26.072-74.657,40c26.581,4.965,50.915,9.51,75.942,14.185c-0.799,6.667-1.539,12.829-2.499,20.843
				c-24.901-7.764-48.48-15.117-74.435-23.21c14.404,26.276,27.987,51.056,41.798,76.251c-6.724,4.002-12.46,7.418-19.961,11.884
				c-11.75-25.836-23.236-51.089-35.957-79.06C435.691,756.623,429.137,782.028,422.423,808.049z"/>
		</g>
	</g>
	<g id="snowflake_x5F_round_x5F_white_18_">
		<g>
			<path fill="#B6F4F8" d="M803.052,570.157c-108.53-25.543-68.553-184.724,37.841-167.888
				C976.517,419.459,909.648,604.728,803.052,570.157z"/>
			<path fill="#D9FDFF" d="M814.257,562.145c-4.659-1.968-8.394-3.547-12.635-5.339c5.126-19.869,10.181-39.462,15.676-60.758
				c-20.941,11.054-40.784,21.529-61.429,32.428c-2.803-5.617-5.42-10.86-8.478-16.987c19.931-9.617,39.249-18.939,60.753-29.315
				c-19.389-5.002-36.481-9.412-54.124-13.964c1.944-4.363,3.468-7.779,5.674-12.729c18.491,6.367,36.975,12.733,55.459,19.097
				c0.393-0.419,0.787-0.839,1.179-1.258c-11.425-15.766-22.852-31.532-34.468-47.56c5.201-3.243,9.7-6.047,15.394-9.597
				c9.772,16.297,19.183,31.994,29.598,49.364c4.691-18.181,8.929-34.607,13.342-51.714c5.383,0.502,9.938,0.927,15.902,1.483
				c-5.617,17.321-10.871,33.524-16.82,51.87c19.331-9.057,37.247-17.451,55.799-26.143c2.065,2.958,3.997,5.726,6.713,9.618
				c-19.639,10.523-38.613,20.688-59.241,31.741c21.092,3.94,40.401,7.547,60.261,11.256c-0.634,5.29-1.221,10.18-1.983,16.539
				c-19.759-6.161-38.469-11.995-59.065-18.417c11.43,20.85,22.208,40.513,33.167,60.506c-5.335,3.176-9.887,5.886-15.839,9.43
				c-9.324-20.501-18.438-40.54-28.532-62.735C824.785,521.338,819.584,541.497,814.257,562.145z"/>
		</g>
	</g>
	<g id="snowflake_x5F_round_x5F_white_22_">
		<g>
			<path fill="#FFFFFF" d="M510.923,448.761c96.641-68.772,195.744,74.979,107.56,148.16
				C509.485,693.209,408.427,509.647,510.923,448.761z"/>
			<path fill="#D9FDFF" d="M509.454,463.342c4.845-2.34,8.73-4.215,13.14-6.345c12.274,18.052,24.378,35.853,37.534,55.202
				c5.877-24.496,11.445-47.708,17.239-71.858c6.457,1.706,12.484,3.297,19.527,5.158c-6.316,22.68-12.437,44.663-19.251,69.131
				c17.616-11.978,33.145-22.537,49.174-33.436c2.12,4.618,3.78,8.235,6.185,13.474c-18.076,10.301-36.145,20.599-54.213,30.897
				c0.059,0.609,0.118,1.218,0.177,1.826c20.622,1.945,41.245,3.89,62.21,5.867c-1.063,6.434-1.982,11.998-3.145,19.041
				c-19.885-3.64-39.037-7.146-60.23-11.025c11.232,16.519,21.379,31.442,31.947,46.985c-4.182,3.948-7.721,7.29-12.355,11.664
				c-9.894-16.655-19.149-32.234-29.628-49.873c-6.342,21.807-12.219,42.018-18.306,62.945c-3.814-0.428-7.382-0.828-12.4-1.392
				c5.387-23.083,10.592-45.383,16.251-69.628c-17.963,14.085-34.408,26.979-51.321,40.242c-3.781-4.222-7.276-8.126-11.822-13.202
				c18.801-11.46,36.605-22.311,56.203-34.255c-24.687-5.513-47.969-10.713-71.64-16c1.21-6.494,2.242-12.035,3.591-19.279
				c22.929,6.95,45.341,13.744,70.166,21.268C534.663,500.417,522.209,482.101,509.454,463.342z"/>
		</g>
	</g>
	<g id="snowflake_x5F_round_x5F_white_23_">
		<g>
			<path fill="#82D8E8" d="M912.088,717.24c-119.521-13.403-97.172-189.027,18.942-184.674
				C1078.495,533.538,1030.698,740.56,912.088,717.24z"/>
			<path fill="#D9FDFF" d="M923.059,707.218c-5.242-1.509-9.446-2.719-14.218-4.093c2.936-21.939,5.83-43.573,8.977-67.088
				c-21.007,14.532-40.911,28.301-61.621,42.628c-3.724-5.655-7.201-10.934-11.264-17.103c20.11-12.863,39.601-25.33,61.297-39.207
				c-21.409-2.865-40.282-5.39-59.763-7.997c1.521-4.922,2.714-8.777,4.44-14.362c20.623,4.442,41.238,8.883,61.852,13.323
				c0.367-0.5,0.735-0.999,1.101-1.499c-14.264-15.416-28.529-30.833-43.03-46.505c5.154-4.142,9.612-7.724,15.254-12.258
				c12.561,16.198,24.659,31.799,38.046,49.063c2.686-20.075,5.113-38.212,7.641-57.102c5.83-0.155,10.763-0.286,17.222-0.456
				c-3.789,19.273-7.333,37.302-11.346,57.716c19.539-12.186,37.648-23.479,56.399-35.173c2.592,2.903,5.017,5.618,8.427,9.438
				c-19.681,13.795-38.695,27.122-59.367,41.611c23.097,1.507,44.24,2.888,65.987,4.307c0.001,5.747,0.001,11.06,0.002,17.969
				c-21.954-4.058-42.743-7.901-65.627-12.131c14.922,20.861,28.994,40.535,43.302,60.538c-5.306,4.088-9.833,7.576-15.751,12.136
				c-12.622-20.758-24.959-41.048-38.625-63.521C929.088,662.16,926.11,684.419,923.059,707.218z"/>
		</g>
	</g>
	<g id="snowflake_x5F_round_x5F_white_25_">
		<g>
			<path fill="#D9FDFF" d="M1386.484,851.836c-100.18,18.522-125.244-129.335-30.051-154.355
				C1476.207,662.013,1488.363,841.577,1386.484,851.836z"/>
			<path fill="#B6F4F8" d="M1392.912,841.015c-4.621,0.066-8.326,0.118-12.532,0.178c-3.014-18.506-5.987-36.754-9.218-56.589
				c-13.455,16.945-26.205,33-39.47,49.706c-4.409-3.668-8.526-7.092-13.336-11.094c13.139-15.371,25.873-30.27,40.048-46.853
				c-18.058,2.942-33.978,5.535-50.41,8.212c0.023-4.364,0.042-7.782,0.068-12.734c17.809-1.47,35.611-2.939,53.413-4.408
				c0.175-0.495,0.35-0.991,0.524-1.486c-15.353-8.99-30.707-17.979-46.315-27.117c3.159-4.625,5.892-8.624,9.351-13.687
				c14.165,10.042,27.807,19.714,42.903,30.417c-2.758-16.934-5.25-32.232-7.846-48.166c4.688-1.559,8.655-2.878,13.848-4.604
				c1.667,16.555,3.227,32.04,4.994,49.574c12.843-14.682,24.745-28.289,37.07-42.379c2.815,1.716,5.448,3.321,9.151,5.578
				c-12.562,16.021-24.698,31.499-37.892,48.327c19.093-4.457,36.572-8.536,54.548-12.733c1.414,4.659,2.72,8.965,4.42,14.565
				c-18.794,2.109-36.59,4.105-56.18,6.302c17.225,13.241,33.469,25.729,49.985,38.426c-3.296,4.618-6.108,8.558-9.784,13.71
				c-15.335-13.723-30.324-27.137-46.927-41.994C1386.721,803.008,1389.78,821.784,1392.912,841.015z"/>
		</g>
	</g>
	<g id="snowflake_x5F_round_x5F_white_26_">
		<g>
			<path fill="#B6F4F8" d="M1250.714,729.576c-88.6-20.852-55.964-150.802,30.892-137.057
				C1392.324,606.552,1337.735,757.799,1250.714,729.576z"/>
			<path fill="#D9FDFF" d="M1259.861,723.035c-3.803-1.607-6.853-2.896-10.315-4.358c4.185-16.22,8.312-32.216,12.797-49.601
				c-17.096,9.024-33.294,17.576-50.148,26.473c-2.288-4.585-4.425-8.865-6.921-13.867c16.271-7.851,32.042-15.461,49.596-23.931
				c-15.828-4.084-29.782-7.684-44.185-11.4c1.587-3.561,2.831-6.351,4.632-10.391c15.095,5.198,30.185,10.394,45.275,15.59
				c0.321-0.342,0.642-0.685,0.963-1.027c-9.327-12.871-18.656-25.742-28.138-38.826c4.246-2.647,7.919-4.937,12.567-7.835
				c7.977,13.304,15.661,26.119,24.162,40.299c3.829-14.843,7.289-28.252,10.892-42.217c4.394,0.41,8.113,0.756,12.982,1.211
				c-4.586,14.14-8.875,27.368-13.731,42.345c15.781-7.394,30.407-14.247,45.552-21.342c1.686,2.415,3.263,4.674,5.48,7.852
				c-16.033,8.59-31.522,16.889-48.363,25.912c17.219,3.216,32.982,6.161,49.195,9.189c-0.518,4.319-0.997,8.31-1.619,13.502
				c-16.131-5.03-31.405-9.793-48.218-15.035c9.331,17.021,18.13,33.074,27.077,49.395c-4.356,2.593-8.072,4.805-12.931,7.698
				c-7.612-16.736-15.052-33.095-23.293-51.215C1268.456,689.722,1264.21,706.179,1259.861,723.035z"/>
		</g>
	</g>
	<g id="snowflake_x5F_round_x5F_white_32_">
		<g>
			<path fill="#B6F4F8" d="M1085.846,741.775c-98.026-23.071-61.918-166.845,34.178-151.638
				C1242.522,605.664,1182.125,773,1085.846,741.775z"/>
			<path fill="#D9FDFF" d="M1095.967,734.539c-4.208-1.778-7.582-3.204-11.412-4.822c4.63-17.946,9.196-35.643,14.158-54.878
				c-18.914,9.984-36.836,19.445-55.483,29.289c-2.532-5.073-4.895-9.808-7.657-15.343c18.002-8.686,35.45-17.106,54.872-26.477
				c-17.512-4.518-32.95-8.501-48.885-12.613c1.756-3.94,3.132-7.026,5.125-11.497c16.701,5.751,33.396,11.5,50.091,17.249
				c0.355-0.379,0.71-0.757,1.065-1.136c-10.32-14.24-20.64-28.48-31.132-42.957c4.698-2.929,8.761-5.462,13.904-8.668
				c8.826,14.72,17.327,28.897,26.733,44.586c4.237-16.422,8.064-31.257,12.051-46.709c4.862,0.453,8.977,0.837,14.363,1.339
				c-5.073,15.645-9.819,30.279-15.192,46.849c17.46-8.18,33.642-15.762,50.398-23.612c1.865,2.672,3.61,5.171,6.063,8.687
				c-17.738,9.504-34.876,18.686-53.508,28.668c19.051,3.558,36.491,6.816,54.428,10.166c-0.573,4.778-1.103,9.195-1.792,14.939
				c-17.847-5.565-34.746-10.834-53.348-16.635c10.323,18.832,20.059,36.592,29.957,54.65c-4.819,2.869-8.93,5.317-14.306,8.517
				c-8.422-18.517-16.653-36.616-25.771-56.663C1105.476,697.681,1100.778,715.889,1095.967,734.539z"/>
		</g>
	</g>
	<g id="snowflake_x5F_round_x5F_white_37_">
		<g>
			<path fill="#D9FDFF" d="M666.315,880.273c-93.974,17.375-117.486-121.323-28.19-144.794
				C750.481,702.208,761.884,870.65,666.315,880.273z"/>
			<path fill="#B6F4F8" d="M672.346,870.123c-4.334,0.061-7.81,0.111-11.756,0.167c-2.828-17.359-5.616-34.478-8.647-53.084
				c-12.622,15.895-24.581,30.956-37.025,46.627c-4.136-3.441-7.997-6.653-12.51-10.407c12.325-14.419,24.27-28.395,37.567-43.951
				c-16.94,2.759-31.873,5.192-47.288,7.703c0.022-4.094,0.039-7.3,0.064-11.945c16.706-1.379,33.406-2.757,50.105-4.135
				c0.164-0.465,0.328-0.929,0.492-1.394c-14.402-8.433-28.805-16.865-43.446-25.438c2.964-4.338,5.527-8.09,8.772-12.839
				c13.287,9.42,26.085,18.493,40.246,28.533c-2.588-15.885-4.925-30.236-7.36-45.182c4.397-1.462,8.119-2.7,12.99-4.319
				c1.564,15.529,3.027,30.056,4.684,46.503c12.047-13.772,23.212-26.537,34.773-39.753c2.64,1.61,5.11,3.115,8.584,5.233
				c-11.784,15.029-23.168,29.548-35.545,45.333c17.91-4.181,34.306-8.008,51.169-11.944c1.326,4.37,2.552,8.409,4.146,13.663
				c-17.63,1.978-34.324,3.85-52.7,5.912c16.158,12.421,31.396,24.135,46.889,36.045c-3.092,4.332-5.729,8.028-9.178,12.861
				c-14.385-12.873-28.446-25.456-44.02-39.393C666.538,834.47,669.407,852.083,672.346,870.123z"/>
		</g>
	</g>
	<g id="snowflake_x5F_round_x5F_white_44_">
		<g>
			<path fill="#82D8E8" d="M655.119,547.487c107.957-53.572,184.439,106.5,84.264,165.847
				C614.633,792.542,542.548,592.211,655.119,547.487z"/>
			<path fill="#D9FDFF" d="M651.317,561.883c5.235-1.574,9.433-2.836,14.199-4.268c9.433,20.074,18.735,39.87,28.846,61.386
				c9.81-23.642,19.104-46.043,28.775-69.351c6.206,2.743,12,5.302,18.77,8.295c-9.96,21.749-19.613,42.829-30.359,66.293
				c19.589-9.205,36.858-17.32,54.683-25.696c1.39,4.972,2.477,8.867,4.054,14.508c-19.783,7.45-39.559,14.897-59.334,22.343
				c-0.038,0.62-0.077,1.24-0.114,1.86c20.382,5.246,40.765,10.491,61.486,15.823c-2.094,6.286-3.905,11.723-6.197,18.604
				c-19.372-6.828-38.03-13.405-58.676-20.683c8.632,18.369,16.43,34.964,24.552,52.248c-4.827,3.294-8.912,6.082-14.26,9.73
				c-7.268-18.292-14.066-35.402-21.764-54.776c-9.847,20.869-18.972,40.21-28.422,60.237c-3.759-1.039-7.275-2.01-12.22-3.377
				c9.092-22.301,17.877-43.847,27.428-67.271c-20.274,11.264-38.835,21.576-57.924,32.182c-3.12-4.841-6.003-9.316-9.753-15.135
				c20.696-8.496,40.294-16.54,61.867-25.396c-23.891-9.475-46.422-18.411-69.33-27.497c2.251-6.323,4.172-11.718,6.683-18.771
				c21.898,10.637,43.302,21.033,67.009,32.548C670.69,603.112,661.119,582.744,651.317,561.883z"/>
		</g>
	</g>
	<g id="snowflake_x5F_round_x5F_white_45_">
		<g>
			<path fill="#FFFFFF" d="M535.41,765.319c-60.531-46.705,9.541-134.773,71.205-94.11
				C686.431,720.377,592.174,817.114,535.41,765.319z"/>
			<path fill="#D9FDFF" d="M544.677,763.492c-2.351-2.549-4.236-4.594-6.377-6.914c8.831-10.954,17.54-21.756,27.006-33.497
				c-16.209,0.968-31.567,1.886-47.547,2.841c-0.159-4.302-0.307-8.317-0.48-13.009c15.171-0.357,29.875-0.703,46.243-1.089
				c-10.689-8.618-20.113-16.215-29.839-24.057c2.45-2.173,4.37-3.875,7.15-6.34c9.742,9.216,19.48,18.429,29.218,27.641
				c0.364-0.15,0.729-0.301,1.093-0.451c-2.667-13.082-5.334-26.165-8.045-39.465c4.167-0.551,7.771-1.027,12.332-1.63
				c1.484,12.945,2.912,25.414,4.493,39.211c8.081-10.024,15.382-19.079,22.986-28.511c3.219,1.839,5.943,3.395,9.509,5.432
				c-8.416,9.224-16.288,17.852-25.202,27.622c14.637-0.177,28.203-0.342,42.25-0.512c0.451,2.432,0.873,4.708,1.466,7.908
				c-15.245,1.005-29.974,1.976-45.987,3.032c12.054,8.437,23.089,16.161,34.439,24.105c-1.895,3.124-3.647,6.011-5.925,9.766
				c-10.592-9.446-20.622-18.392-31.663-28.238c1.228,16.258,2.387,31.591,3.564,47.18c-4.232,0.471-7.842,0.874-12.563,1.4
				c-0.012-15.444-0.025-30.539-0.039-47.259C562.815,740.994,553.855,752.108,544.677,763.492z"/>
		</g>
	</g>
	<g id="snowflake_x5F_round_x5F_white_48_">
		<g>
			<path fill="#82D8E8" d="M689.368,515.864c-74.207-8.321-60.331-117.362,11.76-114.659
				C792.685,401.809,763.009,530.343,689.368,515.864z"/>
			<path fill="#D9FDFF" d="M696.179,509.641c-3.255-0.937-5.865-1.688-8.828-2.541c1.823-13.621,3.62-27.054,5.573-41.653
				c-13.043,9.022-25.401,17.572-38.259,26.467c-2.312-3.511-4.471-6.788-6.993-10.619c12.486-7.986,24.587-15.727,38.058-24.343
				c-13.292-1.779-25.01-3.347-37.105-4.965c0.945-3.056,1.685-5.45,2.757-8.917c12.804,2.758,25.603,5.515,38.402,8.272
				c0.228-0.31,0.456-0.62,0.684-0.931c-8.856-9.572-17.713-19.143-26.716-28.874c3.2-2.572,5.968-4.796,9.471-7.611
				c7.799,10.057,15.31,19.743,23.622,30.462c1.668-12.464,3.175-23.725,4.744-35.453c3.62-0.096,6.683-0.177,10.693-0.283
				c-2.353,11.966-4.553,23.16-7.044,35.834c12.132-7.566,23.375-14.578,35.017-21.838c1.609,1.802,3.115,3.488,5.232,5.86
				c-12.219,8.565-24.025,16.839-36.859,25.835c14.34,0.936,27.468,1.793,40.97,2.674c0.001,3.568,0.001,6.867,0.001,11.156
				c-13.631-2.519-26.538-4.906-40.746-7.532c9.265,12.952,18.002,25.167,26.885,37.586c-3.294,2.538-6.105,4.704-9.78,7.535
				c-7.837-12.888-15.497-25.486-23.981-39.439C699.922,481.666,698.073,495.486,696.179,509.641z"/>
		</g>
	</g>
</g>
<g id="Layer_1">
</g>
</svg>
