<?xml version="1.0" encoding="utf-8"?>
<!-- Generator: Adobe Illustrator 24.2.3, SVG Export Plug-In . SVG Version: 6.00 Build 0)  -->
<svg version="1.1" xmlns="http://www.w3.org/2000/svg" xmlns:xlink="http://www.w3.org/1999/xlink" x="0px" y="0px"
	 viewBox="0 0 141.905 163.404" enable-background="new 0 0 141.905 163.404" xml:space="preserve">
<g id="number_x5F_seven_x5F_white">
	<g>
		<g id="_x37__2_">
			<path fill="#FDFDFE" d="M121.775,72.817c-0.366,2.508,0.1,3.606,2.785,3.856c4.506,0.42,8.909,1.514,13.328,2.503
				c6.452,1.061,3.245,11.844,3.046,16.333c-0.219,1.843-1.394,2.336-2.892,2.599c-5.433,0.954-10.845,2.079-16.311,2.774
				c-2.614,0.333-3.447,1.42-3.776,3.898c-2.412,18.162-4.942,36.308-7.478,54.453c-0.629,4.501-0.702,4.484-5.346,3.9
				c-14.238-1.791-28.414-3.992-42.573-6.325c-3.106-0.512-3.951-1.584-3.34-4.758c3.318-17.238,7.397-34.301,11.485-51.364
				c1.081-4.514,1.127-4.511-3.411-5.548c-24.753-6.166-18.466,0.401-14.512-24.176c0.383-1.932,1.348-2.551,3.225-2.318
				c5.257,0.651,10.542,1.097,15.778,1.882c2.416,0.362,3.346-0.398,3.819-2.705c1.175-5.738,1.868-11.544,2.815-17.311
				c0.59-3.593-0.726-4.872-4.006-5.563C50.91,39.825,27.474,34.385,3.927,29.466c-3.164-0.666-4.372-1.925-3.783-5.361
				c1.118-6.521,1.957-13.106,2.54-19.697C3.002,0.809,4.59-0.121,7.952,0.012c12.789,0.505,91.283,4.299,117.631,6.699
				c3.075-0.046,3.883,1.496,3.764,4.346C128.894,21.884,123.211,62.99,121.775,72.817z"/>
		</g>
		<g id="Layer_1_56_">
		</g>
	</g>
</g>
<g id="Layer_1">
</g>
</svg>
