<?xml version="1.0" encoding="utf-8"?>
<!-- Generator: Adobe Illustrator 24.2.3, SVG Export Plug-In . SVG Version: 6.00 Build 0)  -->
<svg version="1.1" xmlns="http://www.w3.org/2000/svg" xmlns:xlink="http://www.w3.org/1999/xlink" x="0px" y="0px"
	 viewBox="0 0 131.609 168.291" enable-background="new 0 0 131.609 168.291" xml:space="preserve">
<g id="number_x5F_two_x5F_white">
	<g>
		<g id="_x32__2_">
			<path fill="#FDFDFE" d="M75.914,141.547c11.603,0.731,22.868,0.977,34.357,2.295c2.612,0.293,3.588,1.429,3.572,4.021
				c-0.035,5.578-0.613,11.112-0.991,16.664c-0.142,2.085-1.179,2.781-3.105,2.85C81,169.209,52.251,167.97,23.533,166.43
				c-3.372-0.152-4.677-1.401-5.075-4.617c-0.583-4.718-1.269-9.415-1.474-14.174c-0.14-3.247,1.003-5.634,3.537-7.821
				c14.308-12.352,28.616-24.707,41.225-38.878c12.066-12.731,23.437-45.777,2.76-55.286c-13.519-5.788-35.548-4.443-39.018,12.919
				c-4.781,23.807,3.797,18.352-22.779,14.058c-1.465-0.298-2.462-0.8-2.566-2.65C-0.72,54.741,2.27,40.429,10.365,27.372
				C25.156,2.812,56.601-3.296,83.122,1.519c52.118,8.091,63.946,80.812,27.052,113.813
				C100.844,124.672,76.538,139.82,75.914,141.547z"/>
		</g>
		<g id="Layer_1_51_">
		</g>
	</g>
</g>
<g id="Layer_1">
</g>
</svg>
