<?xml version="1.0" encoding="utf-8"?>
<!-- Generator: Adobe Illustrator 24.2.3, SVG Export Plug-In . SVG Version: 6.00 Build 0)  -->
<svg version="1.1" xmlns="http://www.w3.org/2000/svg" xmlns:xlink="http://www.w3.org/1999/xlink" x="0px" y="0px"
	 viewBox="0 0 113.11 174.348" enable-background="new 0 0 113.11 174.348" xml:space="preserve">
<g id="number_x5F_five_x5F_white">
	<g>
		<g id="_x35__6_">
			<path fill="#FDFDFE" d="M107.953,0.073c2.244,0.103,3.354,0.878,3.588,3.214c0.358,3.58,0.973,7.135,1.496,10.698
				c0.357,2.43-0.577,3.486-3.116,3.86c-17.835,2.633-60.415,7.538-60.36,9.078c-0.203,17.684-1.6,38.546-3.213,56.148
				c-0.297,3.24,0.685,3.951,3.684,4.048c6.622,0.215,13.244,0.69,19.781,1.893c40.396,4.601,31.639,53.998,3.432,69.405
				c-12.428,7.112-25.699,11.969-39.537,15.376c-4.658,1.147-5.057,0.817-6.2-3.896c-0.931-3.839-1.569-7.751-2.542-11.579
				c-0.759-2.985,0.102-4.403,3.191-5.181c6.656-1.678,13.173-3.858,19.354-6.914c10.879-4.386,18.762-15.784,9.231-25.834
				c-14.276-11.667-34.443-11.428-51.968-12.47c-4.781-0.132-4.812-0.074-4.766-4.771C0.314,71.976,1.042,40.82,3.451,9.726
				c0.47-6.073,0.517-5.978,6.696-6.695C34.308,0.823,99.59-0.309,107.953,0.073z"/>
		</g>
		<g id="Layer_1_43_">
		</g>
	</g>
</g>
<g id="Layer_1">
</g>
</svg>
