<?xml version="1.0" encoding="utf-8"?>
<!-- Generator: Adobe Illustrator 24.2.3, SVG Export Plug-In . SVG Version: 6.00 Build 0)  -->
<svg version="1.1" xmlns="http://www.w3.org/2000/svg" xmlns:xlink="http://www.w3.org/1999/xlink" x="0px" y="0px"
	 viewBox="0 0 128.961 184.248" enable-background="new 0 0 128.961 184.248" xml:space="preserve">
<g id="number_x5F_eight_x5F_white">
	<g>
		<g id="_x38__6_">
			<path fill="#FDFDFE" d="M37.305,73.384c-50.762-20.224-16.206-82,31.157-72.373c30.246,6.163,35.313,53.416,9.302,67.878
				c65.482,6.242,68.848,99.631,6.064,112.848C50.574,188.921,6.967,182.24,0.7,141.25C-3.147,120.811,8.826,83.223,37.305,73.384z
				 M63.806,108.491c-40.431,0.968-33.143,47.26,5.901,38.588C93.932,141.467,90.328,107.854,63.806,108.491z M57.29,26.557
				c-9.812,0.069-16.088,4.514-18.062,12.792c-1.5,6.292,1.709,12.521,7.625,13.96C70.746,59.312,81.402,28.244,57.29,26.557z"/>
		</g>
		<g id="Layer_1_91_">
		</g>
	</g>
</g>
<g id="Layer_1">
</g>
</svg>
