<?xml version="1.0" encoding="utf-8"?>
<!-- Generator: Adobe Illustrator 24.2.3, SVG Export Plug-In . SVG Version: 6.00 Build 0)  -->
<svg version="1.1" xmlns="http://www.w3.org/2000/svg" xmlns:xlink="http://www.w3.org/1999/xlink" x="0px" y="0px"
	 viewBox="0 0 192.604 138.239" enable-background="new 0 0 192.604 138.239" xml:space="preserve">
<g id="number_x5F_ten_x5F_white">
	<g>
		<g id="_x31_0_2_">
			<g>
				<path fill="#FDFDFE" d="M192.55,66.447c0.545,34.764-22.233,65.464-57.621,69.939c-64.075,8.935-94.464-68.254-58.902-113.841
					c7.664-10.469,18.594-16.426,31.039-19.447C153.1-8.076,194.314,16.163,192.55,66.447z M152.995,64.673
					c1.369-19.68-16.638-29.045-33.555-22.214c-8.692,2.965-14.005,9.04-15.945,17.965
					C96.558,99.973,153.899,102.487,152.995,64.673z"/>
				<path fill="#FDFDFE" d="M44.227,0.009c1.038,0,2.076,0.007,3.113-0.001c6.425-0.049,6.283-0.059,5.881,6.228
					c-1.314,20.46-2.122,40.953-3.226,61.424c-0.56,9.357,2.284,50.76,2.823,62.13c1.199,7.762,0.231,6.248-5.893,6.634
					c-10.918,0.687-21.91,0.015-32.765,1.733c-3.135,0.496-3.157-1.313-2.964-3.479c3.142-32.79,5.344-65.658,8.047-98.482
					c0.273-2.996-0.631-3.943-3.522-3.818c-3.914,0.169-7.84,0.008-11.76,0.086c-2.151,0.042-3.146-0.794-3.203-3.023
					C0.579,22.301-0.097,15.18,0.012,8.023C0.046,5.795,0.679,4.53,3.008,4.317C16.765,3.061,30.379,0.423,44.227,0.009z"/>
			</g>
		</g>
		<g id="Layer_1_50_">
		</g>
	</g>
</g>
<g id="Layer_1">
</g>
</svg>
