<?xml version="1.0" encoding="utf-8"?>
<!-- Generator: Adobe Illustrator 24.2.3, SVG Export Plug-In . SVG Version: 6.00 Build 0)  -->
<svg version="1.1" xmlns="http://www.w3.org/2000/svg" xmlns:xlink="http://www.w3.org/1999/xlink" x="0px" y="0px"
	 viewBox="0 0 164.436 187.209" enable-background="new 0 0 164.436 187.209" xml:space="preserve">
<g id="number_x5F_nine_x5F_white">
	<path fill="#FDFDFE" d="M162.396,52.703C153.279,6.011,89.5-7.143,49.599,3.434c-38.7,9.145-58.777,57.717-45.521,93.547
		c5.928,16.846,21.9,26.169,37.632,32.469c17.793,6.839,35.906,10.88,54.967,5.919c3.12-0.812,1.957,1.341,1.804,2.572
		c-1.264,10.181-2.662,20.347-3.113,30.609c-0.287,6.534-0.285,6.611,5.529,9.081c7.231,3.071,14.564,5.905,21.764,9.044
		c2.591,1.13,3.744,0.461,4.98-1.941C146.694,145.238,171.803,97.614,162.396,52.703z M104.038,85.424
		c-10.574,7.137-22.168,7.852-33.79,4.319c-17.564-7.37-23.219-27.167-8.148-40.347c10.584-9.454,30.011-11.211,42.099-3.823
		C117.877,53.9,116.766,76.905,104.038,85.424z"/>
</g>
<g id="Layer_1">
</g>
</svg>
