<?xml version="1.0" encoding="utf-8"?>
<!-- Generator: Adobe Illustrator 24.2.3, SVG Export Plug-In . SVG Version: 6.00 Build 0)  -->
<svg version="1.1" xmlns="http://www.w3.org/2000/svg" xmlns:xlink="http://www.w3.org/1999/xlink" x="0px" y="0px"
	 viewBox="0 0 117.262 187.253" enable-background="new 0 0 117.262 187.253" xml:space="preserve">
<g id="number_x5F_three_x5F_white">
	<g>
		<g id="_x33__6_">
			<path fill="#FDFDFE" d="M99.574,17.592C71.557-1.738,33.934-5.019,2.316,7.161c-1.221,0.514-2.519,0.673-2.29,2.78
				c0.929,8.549,1.752,17.117,2.297,25.698c0.206,3.246,1.41,3.816,4.435,3.658c9.773-0.51,19.512-0.055,28.922,3.014
				c12.3,2.726,25.565,19.249,11.488,28.656c-9.351,6.288-20.53,9.477-31.443,11.808c-2.905,0.535-3.537,1.765-3.389,4.525
				c0.427,7.96,0.685,15.936,0.721,23.906c0.013,3.036,0.7,4.398,4.031,4.823c13.044,2.039,27.996,5.758,36.009,17.178
				c9.588,16.379-6.774,28.304-22.484,26.656c-2.459-0.112-3.422,0.79-3.582,3.136c-0.473,6.944-0.972,13.887-1.604,20.818
				c-0.165,1.805,0.755,2.042,2.099,2.394c14.45,1.976,29.626,1.355,43.43-3.718c18.036-5.776,24.432-25.209,23.18-42.666
				c-0.911-17.254-11.38-28.976-28.067-33.428C103.167,94.481,140.163,48.044,99.574,17.592z"/>
		</g>
		<g id="Layer_1_30_">
		</g>
	</g>
</g>
<g id="Layer_1">
</g>
</svg>
