<?xml version="1.0" encoding="utf-8"?>
<!-- Generator: Adobe Illustrator 24.2.3, SVG Export Plug-In . SVG Version: 6.00 Build 0)  -->
<svg version="1.1" xmlns="http://www.w3.org/2000/svg" xmlns:xlink="http://www.w3.org/1999/xlink" x="0px" y="0px"
	 viewBox="0 0 61.949 160.427" enable-background="new 0 0 61.949 160.427" xml:space="preserve">
<g id="number_x5F_one_x5F_white">
	<path fill="#FDFDFE" d="M51.325,0.01c1.205,0,2.409,0.008,3.613-0.001c7.456-0.057,7.291-0.068,6.825,7.228
		C60.238,30.98,59.3,54.763,58.019,78.519c-0.65,10.859,2.65,58.907,3.276,72.102c1.391,9.008,0.268,7.251-6.839,7.699
		c-12.67,0.797-25.427,0.017-38.024,2.011c-3.638,0.576-3.664-1.524-3.44-4.037c3.647-38.053,6.201-76.196,9.338-114.288
		c0.317-3.477-0.732-4.576-4.087-4.431c-4.542,0.196-9.098,0.009-13.647,0.1c-2.496,0.049-3.651-0.921-3.717-3.508
		C0.672,25.88-0.113,17.616,0.014,9.31C0.053,6.725,0.788,5.257,3.491,5.01C19.456,3.552,35.255,0.491,51.325,0.01z"/>
</g>
<g id="Layer_1">
</g>
</svg>
