<?xml version="1.0" encoding="utf-8"?>
<!-- Generator: Adobe Illustrator 24.2.3, SVG Export Plug-In . SVG Version: 6.00 Build 0)  -->
<svg version="1.1" xmlns="http://www.w3.org/2000/svg" xmlns:xlink="http://www.w3.org/1999/xlink" x="0px" y="0px"
	 viewBox="0 0 103.288 145.616" enable-background="new 0 0 103.288 145.616" xml:space="preserve">
<g id="number_x5F_four_x5F_white">
	<g>
		<g id="_x34__2_">
			<path fill="#FDFDFE" d="M102.913,137.235c-0.073,2.103-0.911,3.179-2.86,3.873c-5.831,2.076-11.923,3.031-17.913,4.425
				c-1.913,0.445-2.35-0.988-2.997-2.085c-4.321-7.317-7.489-15.146-10.052-23.222c-2.027-6.388-1.333-5.417-7.119-5.469
				c-15.545-0.139-31.08-0.634-46.614-1.185c-2.224-0.079-3.384-1.072-4.332-2.902c-4.704-9.085-7.279-18.855-9.448-28.768
				c-2.47-11.279-1.504-22.642-0.683-33.963C1.95,33.378,3.474,18.856,5.83,4.435C6.554,0.003,6.526,0.005,10.853,0
				C22.134-0.014,33.36,0.882,44.567,2.062c3.851,0.406,4.015,0.701,3.395,4.473c-3.301,20.077-6.292,40.191-7.048,60.562
				c-0.162,4.359-0.097,4.377,4.354,5.025c3.921,0.571,7.851,1.003,11.81,1.298c3.444,0.257,4.853-1.132,5.462-4.378
				c3.784-20.309,8.07-40.527,11.969-60.813c0.46-2.507,1.611-3.58,4.108-3.718C85.284,4.145,91.94,3.912,98.613,4.46
				c2.037,0.167,2.922,0.893,3.061,3.018C103.496,31.942,103.564,118.471,102.913,137.235z"/>
		</g>
		<g id="Layer_1_53_">
		</g>
	</g>
</g>
<g id="Layer_1">
</g>
</svg>
