<?xml version="1.0" encoding="utf-8"?>
<!-- Generator: Adobe Illustrator 24.2.3, SVG Export Plug-In . SVG Version: 6.00 Build 0)  -->
<svg version="1.1" xmlns="http://www.w3.org/2000/svg" xmlns:xlink="http://www.w3.org/1999/xlink" x="0px" y="0px"
	 viewBox="0 0 140.495 178.696" enable-background="new 0 0 140.495 178.696" xml:space="preserve">
<g id="number_x5F_six_x5F_white">
	<path fill="#FDFDFE" d="M130.01,83.675c-18.782-23.331-44.695-33.072-74.497-31.328c7.141-15.594,21.815-26.253,36.468-34.371
		c2.419-1.269,2.724-2.422,1.825-4.774C92.516,10.231,88.813,0.04,85.596,0C9.675,5.638-30.75,111.644,28.17,163.097
		C72.697,211.014,173.016,138.23,130.01,83.675z M91.148,117.049c-9.068,25.321-42.256,23.821-49.285-0.458
		c-2.888-10.624,0.227-19.419,8.659-26.275c7.622-6.197,16.015-6.422,24.037-2.872C86.903,92.401,97.026,103.669,91.148,117.049z"/>
</g>
<g id="Layer_1">
</g>
</svg>
