<?xml version="1.0" encoding="utf-8"?>
<!-- Generator: Adobe Illustrator 24.2.3, SVG Export Plug-In . SVG Version: 6.00 Build 0)  -->
<svg version="1.1" xmlns="http://www.w3.org/2000/svg" xmlns:xlink="http://www.w3.org/1999/xlink" x="0px" y="0px"
	 viewBox="0 0 914.446 914.446" enable-background="new 0 0 914.446 914.446" xml:space="preserve">
<g id="neposenkello_x5F_park_x5F_bg">
	<circle fill="#CAF5F9" cx="457.223" cy="457.223" r="457.223"/>
	<path fill="#A3D02A" d="M812.938,169.943c-9.95,16.727-12.199,33.126-12.199,33.126c-1.494-5.175-17.317-47.561-59.691-30.402
		c-24.454,9.901-23.825,49.018-23.825,49.018s-6.803-49.987-54.75-54.094c-68.156-5.838-93.599,60.949-103.632,102.962
		l333.18,44.847C874.582,261.9,847.543,212.738,812.938,169.943z"/>
	<path fill="#A3D02A" d="M353.662,164.573c-5.909-58.103-40.184-84.534-87.591-76.636c-71.277,11.876-63.899,85.99-63.899,85.99
		c-2.685-4.732-28.204-42.644-65.79-15.817c-21.691,15.481-11.868,53.758-11.868,53.758s-8.604-22.141-29.358-33.883
		c-26.606,34.447-48.403,72.796-64.392,114.042l426.945-43.417C473.611,86.532,353.662,164.573,353.662,164.573z"/>
	<path fill="#BFD731" d="M34.537,282.605C12.285,336.408,0,395.38,0,457.223C0,709.74,204.706,914.446,457.223,914.446
		c252.518,0,457.223-204.706,457.223-457.223c0-50.781-8.285-99.627-23.566-145.265c-131.139-49.071-295.395-78.253-473.673-78.253
		C278.085,233.705,147.508,251.48,34.537,282.605z"/>
	<path fill="#E0CAAF" d="M4.667,391.7C1.596,413.099,0,434.974,0,457.223C0,709.74,204.706,914.446,457.223,914.446
		c252.518,0,457.223-204.706,457.223-457.223c0-9.259-0.283-18.451-0.826-27.574c-136.273-57.305-313.935-91.972-508.252-91.972
		C258.782,337.677,121.68,357.409,4.667,391.7z"/>
</g>
<g id="Layer_1">
</g>
</svg>
