<?xml version="1.0" encoding="utf-8"?>
<!-- Generator: Adobe Illustrator 24.2.3, SVG Export Plug-In . SVG Version: 6.00 Build 0)  -->
<svg version="1.1" xmlns="http://www.w3.org/2000/svg" xmlns:xlink="http://www.w3.org/1999/xlink" x="0px" y="0px"
	 viewBox="0 0 1062.902 1040.542" enable-background="new 0 0 1062.902 1040.542" xml:space="preserve">
<g id="neposenkello_x5F_grass_x5F_circle_x5F_holed">
	<path opacity="0.96" fill="#FFFFFF" d="M1065.821,517.527c0-70.754-14.098-138.213-39.624-199.733
		c16.388-1.685,30.318-5.484,28.726-9.994c-3.928-11.13-18.334-8.353-26.372-5.802c31.187-10.597,34.225-38.805-2.982-15.238
		c25.133-16.937-1.11-42.665-13.019-12.583c5.9-16.116-4.036-25.342-13.267-11.735c-25.497-45.383-57.584-86.566-94.97-122.248
		c45.522-16.978,24.434-42.605-14.204-19.759c61.171-41.779,7.45-79.205-23.535-26.389c28.825-47.232-6.458-54.81-24.387-4.651
		C757.731,30.518,655.039-4.014,544.28-4.014c-215.198,0-399.946,130.34-479.628,316.379c-19.477-28.279-27.506-10.267-11.674,3.28
		c-18.148-14.658-36.575-5.83-7.978,7.757c-19.865-8.809-25.48,17.048-2.653,12.72c-4.591,1.141-11.166,3.756-9.817,9.236
		c0.971,3.946,9.653,3.729,18.466,2.424c-2.333,6.782-4.537,13.623-6.595,20.528c-30.557-38.132-39.837-11.653-15.647,3.999
		c-27.083-16.442-49.726-1.291-9.279,11.768c-28.15-8.225-31.052,27.216-1.307,17.456c-5.932,2.331-14.257,6.979-11.493,14.063
		c2.266,5.807,15.151,2.297,26.452-2.119c-6.807,33.623-10.386,68.418-10.386,104.05c0,78.594,17.387,153.127,48.521,219.965
		c-35.792-1.65-36.192,17.06-2.278,16.626c-50.286,6.778-28.895,46.192,6.298,23.384c-37.241,26.534-7.192,33.08,19.308,4.344
		c39.528,67.105,93.644,124.588,157.993,168.083c-17.671,10.466-34.013,23.952-29.817,27.782c8.721,7.959,20.114-1.301,25.992-7.345
		c-22.5,24.079-11.846,50.377,9.824,12.022c-14.171,26.808,21.126,37.1,17.411,4.946c1.13,6.492,4.111,15.889,11.859,14.559
		c5.61-0.963,6.892-13.554,6.708-26.391c74.165,40.526,159.251,63.567,249.722,63.567c76.131,0,148.449-16.317,213.656-45.637
		c-6.147,73.674,31.652,56.253,22.919,13.637c10.808,46.171,50.74,54.495,22.297-2.352c20.715,38.623,61.547,4.607,19.998-16.9
		c8.701,3.885,22.371,7.889,27.03-2.476c3.682-8.191-13.872-17.366-31.44-24.255C967.046,869.122,1065.821,704.862,1065.821,517.527
		z M1002.72,517.527c0,253.189-205.251,458.44-458.44,458.44S85.84,770.716,85.84,517.527s205.251-458.44,458.44-458.44
		S1002.72,264.337,1002.72,517.527z"/>
</g>
<g id="Layer_1">
</g>
</svg>
