<?xml version="1.0" encoding="utf-8"?>
<!-- Generator: Adobe Illustrator 24.2.3, SVG Export Plug-In . SVG Version: 6.00 Build 0)  -->
<svg version="1.1" xmlns="http://www.w3.org/2000/svg" xmlns:xlink="http://www.w3.org/1999/xlink" x="0px" y="0px"
	 viewBox="0 0 914.446 914.446" enable-background="new 0 0 914.446 914.446" xml:space="preserve">
<g id="neposenkello_x5F_livingroom_x5F_bg">
	<circle fill="#A3D02A" cx="457.223" cy="457.223" r="457.223"/>
	<g>
		<polygon fill="#DDECBF" points="131.721,242.982 122.037,239.232 177.294,170.214 224.208,234.598 215.358,238.131 
			177.069,180.095 		"/>
	</g>
	<path fill="#BBDE8A" d="M75.816,236.127c-8.722,11.386,15.794,177.134,28.155,182.52s148.382-15.706,156.481-22.982
		s-2.099-160.084-3.403-169.929C255.745,215.892,84.538,224.741,75.816,236.127z"/>
	<polygon fill="#935803" points="98.371,258.078 119.119,396.492 238.149,378.383 234.793,248.587 	"/>
	<path fill="#6A4019" d="M16.499,579.342C69.923,772.567,247,914.446,457.223,914.446c215.534,0,396.229-149.137,444.537-349.844
		C551.484,496.082,161.285,553.163,16.499,579.342z"/>
	<path fill="#BBDE8A" d="M10.785,556.366c1.71,7.735,3.617,15.395,5.714,22.977c144.786-26.179,534.984-83.26,885.26-14.741
		c1.98-8.225,3.737-16.537,5.265-24.929C549.124,471.32,146.28,531.896,10.785,556.366z"/>
	<circle fill="none" cx="457.223" cy="457.223" r="457.223"/>
	<circle fill="#BE7A2A" cx="175.386" cy="173.447" r="14.988"/>
	<path id="XMLID_87_" fill="none" d="M220.278,343.493c-2.897,1.3-7.241,3.008-12.542,3.603c-7.322,0.822-23.661-0.654-31.505-2.865
		c0.815,9.637,17.496,16.393,26.634,15.82C208.398,359.706,219.86,355.279,220.278,343.493L220.278,343.493z"/>
	<path id="XMLID_86_" fill="none" d="M214.705,345.522c-0.412,4.619-5.353,9.222-9.161,8.978c-3.871-0.248-9.344-5.577-9.002-9.315
		L214.705,345.522L214.705,345.522z"/>
	<path id="XMLID_57_" fill="none" d="M220.278,343.493c-2.897,1.3-7.241,3.008-12.542,3.603c-7.322,0.822-23.661-0.654-31.505-2.865
		c0.815,9.637,17.496,16.393,26.634,15.82C208.398,359.706,219.86,355.279,220.278,343.493L220.278,343.493z"/>
	<polygon fill="none" points="98.371,258.078 119.119,396.492 238.149,378.383 234.793,248.587 	"/>
	<path fill="#54BDCF" d="M457.223,914.446c92.874,0,179.279-27.693,251.412-75.268L497.225,687.086
		c-133.601-2.802-283.776,21.78-403.213,47.898C177.573,844.087,309.181,914.446,457.223,914.446z"/>
	<g>
		<path fill="#80D8E2" d="M554.849,903.98c11.18-2.432,22.207-5.271,33.065-8.504L327.449,695.712
			c-10.767,1.186-21.513,2.476-32.223,3.851L554.849,903.98z"/>
		<path fill="#80D8E2" d="M476.205,686.884c-33.275-0.004-67.398,1.565-101.677,4.33L624.75,882.76
			c21.669-8.538,42.533-18.674,62.437-30.279L476.205,686.884z"/>
		<path fill="#80D8E2" d="M430.626,913.679c8.802,0.505,17.669,0.767,26.597,0.767c23.639,0,46.855-1.803,69.526-5.262
			L265.256,703.638c-30.547,4.4-60.601,9.436-89.643,14.828L430.626,913.679z"/>
		<path fill="#80D8E2" d="M104.651,732.724l195.715,154.099c21.348,7.797,43.442,14.043,66.143,18.612l-233.079-178.76
			c-9.765,1.984-19.389,3.991-28.821,6.015L104.651,732.724z"/>
	</g>
	<g>
		<path fill="#CDC1AD" d="M194.319,302.765c8.149-6.939,13.61-18.268,14.217-20.255c0.664-2.176,5.7-6.229-1.532-29.454
			c-0.267-0.856-0.521-1.678-0.77-2.483l-11.606,0.808c-0.104,2.376-0.283,4.943-0.558,7.715
			c-1.955,19.737-10.5,31.542-13.265,36.317C176.567,302.737,187.861,308.264,194.319,302.765z"/>
		<path fill="#B09A66" d="M184.696,304.395c0.945-1.184,2.427-3.09,4.708-6.135c5.088-6.793,10.062-12.499,13.262-18.469
			c3.091-5.765,4.915-15.959,0.616-29.012l-8.663,0.603c-0.104,2.382-0.274,4.934-0.55,7.715
			c-1.956,19.737-10.501,31.541-13.266,36.316C178.436,299.505,180.919,303.034,184.696,304.395z"/>
		<g>
			<path id="XMLID_95_" fill-rule="evenodd" clip-rule="evenodd" fill="#DDD3C2" d="M207.182,297.987
				c-5.18-0.2-10.324-3.183-12.179-0.493c-0.244-0.824-0.705-1.763-1.442-2.831c-1.868-2.701-5.688-4.789-5.948-7.486
				c0,0-2.805,2.337-3.877,6.038c-3.349-2.567-8.838-3.858-11.929-5.374c3.114,3.632-2.439,12.806,3.581,17.336
				c19.38,14.77,27.09,2.017,30.534,1.383c-1.586-0.718-4.084-1.111-6.364-3.389C202.538,302.044,204.426,298.522,207.182,297.987z"
				/>
			<g>
				<path fill="#B09A66" d="M192.909,385.265c0.375-6.101,0.931-11.514,2.298-12.582c3.402-2.658,8.604-4.166,15.656-8.4
					c8.69-5.218,12.94-12.656,12.594-21.125c-0.394-9.603-12.077-27.668-31.146-37.88c-19.342-10.359-40.497-11.833-49.839,6.06
					c-9.342,17.893,0.709,31.578,8.779,39.4c8.07,7.822,17.372,13.035,22.312,18.352c2.719,2.925,1.583,11.448,0.034,19.114
					L192.909,385.265z"/>
				<path id="XMLID_130_" fill-rule="evenodd" clip-rule="evenodd" fill="#DDD3C2" d="M139.277,313.89
					c-5.592,5.049-12.704,2.849-20.199-1.543c7.363,1.897,12.966-14.563,18.805-9.287
					C142.877,307.573,141.531,311.854,139.277,313.89L139.277,313.89z"/>
				<path id="XMLID_129_" fill-rule="evenodd" clip-rule="evenodd" fill="#DDD3C2" d="M138.403,299.309c0,0,1.005-2.725,5.873-6.433
					c3.513-2.676,4.458-5.79,4.579-7.742c2.09,2.746,5.046,14.23-0.703,18.64C142.403,308.183,139.366,303.807,138.403,299.309
					L138.403,299.309z"/>
				<path id="XMLID_92_" fill-rule="evenodd" clip-rule="evenodd" d="M208.128,322.761c-3.028,0.46-1.191,4.036-0.237,5.12
					c1.042,1.183,3.188,2.588,5.622,1.835c1.134-0.351,1.153-2.646,0.012-4.334C212.338,323.627,209.904,322.492,208.128,322.761
					L208.128,322.761z"/>
				<path id="XMLID_89_" fill-rule="evenodd" clip-rule="evenodd" d="M171.282,326.487c-2.765,0.206-3.605,2.881-3.243,4.976
					c0.269,1.554,1.655,3.046,4.193,2.852c2.365-0.181,3.741-2.256,3.345-4.795C175.335,327.958,173.732,326.306,171.282,326.487
					L171.282,326.487z"/>
				<path id="XMLID_88_" fill-rule="evenodd" clip-rule="evenodd" fill="#A23B30" d="M220.278,343.493
					c-2.897,1.3-7.241,3.008-12.542,3.603c-7.322,0.822-23.661-0.654-31.505-2.865c0.815,9.637,17.496,16.393,26.634,15.82
					C208.398,359.706,219.86,355.279,220.278,343.493L220.278,343.493z"/>
				<g>
					<path fill-rule="evenodd" clip-rule="evenodd" fill="#4D432A" d="M210.474,338.88
						C210.477,338.879,210.474,338.88,210.474,338.88C210.475,338.879,210.476,338.879,210.474,338.88z"/>
					<path fill-rule="evenodd" clip-rule="evenodd" fill="#4D432A" d="M214.707,337.193c-0.689-0.255-1.267,0.162-2.5,0.866
						c-1.202,0.686-3.282,1.335-4.653,1.637c-2.556,0.12-4.609-0.705-7.027-1.308c-5.703-1.875-2.134,1.533,1.08,2.591
						c0.996,0.438,4.007,1.418,5.054,1.715l-0.612,4.546c0.034,0.536,2.602-0.252,2.602-0.252l0.546-4.898
						c0.46-0.226,2.11-1.09,2.548-1.357C212.67,340.004,215.204,338.528,214.707,337.193z"/>
				</g>
				<path id="XMLID_56_" fill-rule="evenodd" clip-rule="evenodd" fill="#FFFFFF" d="M207.737,347.096
					c-2.703,0.304-6.637,0.294-10.918,0.049c1.153,3.405,5.494,7.148,8.724,7.355c3.78,0.242,8.673-4.293,9.149-8.875
					C212.634,346.26,210.298,346.808,207.737,347.096z"/>
				<path id="XMLID_54_" fill-rule="evenodd" clip-rule="evenodd" fill="#8D8D8D" d="M205.973,354.505
					c0.559,0.1,2.485-5.655,2.679-7.528c-0.874,0.122-1.664,0.201-2.602,0.256c-0.028,0.214-0.773,6.446-0.89,7.221
					C205.432,354.499,205.698,354.508,205.973,354.505z"/>
				<path id="XMLID_90_" fill-rule="evenodd" clip-rule="evenodd" fill="#DDD3C2" d="M160.926,293.973
					c-3.473,1.75-2.585,1.683-9.969,1.83c-2.79,0.056-4.871,0.496-6.411,1.351c-4.066,0.876-6.855,7.418-10.009,8.127
					c1.514,0.014,3.031,0.27,4.467,0.552c-3.591,1.923-6.477,4.328-7.014,10.277c-0.296,3.271,1.303,7.32-0.223,9.559
					c0,0,6.27,0.013,9.561-4.845c2.368-3.494,4.071-5.703,5.471-7.523c0.853,1.17,1.545,2.127,1.4,2.631
					c-0.334,1.152,5.045-3.972,4.533-8.897c-0.065-0.624-0.175-1.17-0.321-1.646c0.991-1.104,2.3-2.273,4.398-3.363
					C161.952,299.354,160.926,293.973,160.926,293.973z"/>
			</g>
			<path fill="#CDC1AD" d="M135.202,308.58c7.546,3.873,17.273-4.096,11.47-10.253c-3.785-4.015-14.808-13.547-21.233-32.311
				c-1.205-3.519-2.155-6.714-2.917-9.619l-14.033,0.976c-0.064,0.82-0.128,1.661-0.191,2.542
				c-1.717,24.265,7.998,33.122,9.143,35.088C118.487,296.799,125.68,303.693,135.202,308.58z"/>
			<path fill="#B09A66" d="M138.954,303.068c2.918,2.441,4.797,3.957,5.988,4.893c3.365-2.19,4.973-6.194,1.731-9.634
				c-3.785-4.015-14.808-13.547-21.234-32.311c-1.207-3.524-2.15-6.711-2.914-9.619l-7.652,0.532
				c-0.055,0.529-0.112,1.071-0.177,1.642c-1.634,14.484,2.634,24.48,7.117,29.558C126.296,293.207,132.445,297.622,138.954,303.068
				z"/>
		</g>
	</g>
</g>
<g id="Layer_1">
</g>
</svg>
