<?xml version="1.0" encoding="utf-8"?>
<!-- Generator: Adobe Illustrator 24.2.3, SVG Export Plug-In . SVG Version: 6.00 Build 0)  -->
<svg version="1.1" xmlns="http://www.w3.org/2000/svg" xmlns:xlink="http://www.w3.org/1999/xlink" x="0px" y="0px"
	 viewBox="0 0 757.246 621.07" enable-background="new 0 0 757.246 621.07" xml:space="preserve">
<g id="neposenkello_x5F_bed">
	<g>
		<path id="XMLID_2090_" opacity="0.25" fill="#4B4B4A" d="M4.476,421.026c0,0,90.444,194.511,259.072,199.945
			c79.037,2.547,236.738-43.956,368.086-132.975c80.875-48.708,119.3-124.548,119.3-124.548L4.476,421.026z"/>
		<path id="XMLID_2078_" fill="#BE7A2A" d="M299.695,564.958c1.873,37.915-35.397,60.844-63.614,31.67
			c-14.42-18.238-10.788-51.676,9.242-64.419c15.034-6.575,35.484-3.462,46.829,8.742
			C298.072,547.679,299.695,556.247,299.695,564.958C299.567,570.564,299.695,564.474,299.695,564.958z"/>
		<path id="XMLID_2077_" fill="#BE7A2A" d="M72.362,408.831c1.873,37.914-35.397,60.845-63.614,31.67
			c-14.42-18.238-10.788-51.676,9.242-64.419c15.034-6.575,35.484-3.462,46.829,8.742C70.739,391.553,72.362,400.121,72.362,408.831
			C72.234,414.437,72.362,408.347,72.362,408.831z"/>
		<path id="XMLID_2076_" fill="#BE7A2A" d="M751.294,365.448c1.873,37.914-35.397,60.845-63.614,31.67
			c-14.42-18.238-10.788-51.676,9.242-64.419c15.034-6.575,35.484-3.462,46.829,8.742
			C749.671,348.169,751.294,356.737,751.294,365.448C751.166,371.053,751.294,364.964,751.294,365.448z"/>
		<path id="XMLID_2075_" fill="#3F749A" d="M746.961,230.71c-5.565-5.77-708.261,13.349-728.996,44.12
			S-7.014,384.746,34.813,425.696c96.89,109.812,205.485,167.243,349.258,110.782c128.951-48.93,290.742-76.673,364.159-205.787
			C758.995,312.051,761.904,246.202,746.961,230.71z"/>
		<path id="XMLID_2074_" fill="#54BDCF" d="M742.888,223.878c-5.335-5.531-12.737-8.472-19.9-11.258
			c-72.255-26.352-142.566-59.196-216.149-81.445c-66.973-13.76-131.653,25.858-196.76,46.73
			c-94.254,34.877-222.731,13.074-292.116,96.92c-19.875,29.506-21.081,72.233,19.017,111.491
			c59.187,63.531,130.09,126.005,219.778,127.644c39.183,1.393,77.675-9.562,115.044-21.434
			c87.129-29.501,176.844-56.536,256.548-103.223C671.481,363.548,778.37,278.457,742.888,223.878z"/>
		<path id="XMLID_2073_" opacity="0.25" fill="#4B4B4A" d="M427.642,178.553c0,0,72.75,85.202,210.575,79.324
			c32.572-1.389,73.301-23.848,54.672-42.29c-46.117-45.655-156.436-67.327-202.211-70.385
			C429.803,141.134,427.642,178.553,427.642,178.553z"/>
		<path id="XMLID_2072_" fill="#E8E9E9" d="M685.01,42.417c0-6.143-5.079-11.122-11.344-11.122c-5.66,0-10.338,4.068-11.192,9.381
			C569.252-25.61,477.641,6.204,450.171,18.384c-0.875-5.29-5.542-9.334-11.185-9.334c-6.265,0-11.344,4.98-11.344,11.122
			c0,5.521,4.108,10.09,9.488,10.961c-29.083,56.941-16.314,105.569-8.738,125.213c-0.249-0.016-0.497-0.037-0.749-0.037
			c-6.266,0-11.344,4.98-11.344,11.122c0,6.143,5.079,11.122,11.344,11.122c4.631,0,8.608-2.724,10.37-6.625
			c58.502,62.823,168.672,53.046,194.83,49.7c-0.207,0.84-0.328,1.713-0.328,2.615c0,6.143,5.079,11.122,11.344,11.122
			s11.344-4.98,11.344-11.122c0-5.032-3.41-9.278-8.087-10.651c50.385-47.612,31.722-134.431,24.721-160.21
			c0.596,0.095,1.204,0.157,1.828,0.157C679.931,53.539,685.01,48.56,685.01,42.417z"/>
	</g>
</g>
<g id="Layer_1">
</g>
</svg>
