<?xml version="1.0" encoding="utf-8"?>
<!-- Generator: Adobe Illustrator 24.2.3, SVG Export Plug-In . SVG Version: 6.00 Build 0)  -->
<svg version="1.1" xmlns="http://www.w3.org/2000/svg" xmlns:xlink="http://www.w3.org/1999/xlink" x="0px" y="0px"
	 viewBox="0 0 914.446 916.63" enable-background="new 0 0 914.446 916.63" xml:space="preserve">
<g id="neposenkello_x5F_livingroom_x5F_closeup_x5F_bg">
	<circle fill="none" cx="457.223" cy="459.407" r="457.223"/>
	<circle fill="#A3D02A" cx="457.223" cy="457.223" r="457.223"/>
	<path fill="#6A4019" d="M7.092,376.572C2.433,402.753,0,429.704,0,457.223C0,709.74,204.706,914.446,457.223,914.446
		c252.518,0,457.223-204.706,457.223-457.223c0-35.246-3.992-69.558-11.541-102.514C569.536,319.787,235.494,346.518,7.092,376.572z
		"/>
	<path fill="#BBDE8A" d="M15.087,340.335c-3.137,11.897-5.813,23.981-7.994,36.237c228.401-30.054,562.443-56.784,895.812-21.864
		c-2.949-12.874-6.442-25.541-10.453-37.975C566.044,285.717,239.675,311.506,15.087,340.335z"/>
	<path fill="#54BDCF" d="M663.024,572.123c-151.383-25.869-450.217-11.758-538.688,61.144
		c-26.265,21.643-37.947,56.602-39.221,89.692c82.937,115.929,218.697,191.488,372.108,191.488
		c163.742,0,307.379-86.072,388.137-215.44C830.737,640.513,756.578,588.109,663.024,572.123z"/>
	<path fill="#3F749A" d="M225.387,227.785c165.876-116.929,494.066-110.11,562.89,73.42
		c48.947,130.525-2.734,269.77-157.733,296.963c-125.065,21.941-233.532,41.47-374.465,2.14
		C139.15,567.677,35.49,361.646,225.387,227.785z"/>
	<path fill="#54BDCF" d="M271.632,304.768c-10.927-29.139-28.384-53.828-50.679-74.289
		C67.563,340.97,111.849,499.134,197.352,569.747C284.893,514.919,310.094,407.333,271.632,304.768z"/>
	<path fill="#54BDCF" d="M789.796,301.985c-11.757-31.351-31.069-57.553-55.837-78.877
		c-119.604,111.067-70.322,256.485,12.882,319.598C808.589,483.903,823.196,391.05,789.796,301.985z"/>
</g>
<g id="Layer_1">
</g>
</svg>
