<?xml version="1.0" encoding="utf-8"?>
<!-- Generator: Adobe Illustrator 24.2.3, SVG Export Plug-In . SVG Version: 6.00 Build 0)  -->
<svg version="1.1" xmlns="http://www.w3.org/2000/svg" xmlns:xlink="http://www.w3.org/1999/xlink" x="0px" y="0px"
	 viewBox="0 0 914.446 914.446" enable-background="new 0 0 914.446 914.446" xml:space="preserve">
<g id="neposenkello_x5F_bedroom_x5F_lights_x5F_on">
	<circle fill="#F77F15" cx="457.223" cy="457.223" r="457.223"/>
	<g>
		<path fill="#BE7A2A" d="M438.218,452.02c13.7-37.217,11.696-327.783,10.185-451.927C199.957,4.795,0,207.653,0,457.223
			c0,61.211,12.029,119.611,33.851,172.969C149.255,592.095,424.383,489.603,438.218,452.02z"/>
		<path fill="none" d="M457.223,0c-2.947,0-5.886,0.037-8.82,0.093c1.511,124.145,3.516,414.71-10.185,451.927
			c-13.835,37.583-288.963,140.075-404.367,178.172c68.201,166.762,232.065,284.254,423.372,284.254
			c252.518,0,457.223-204.706,457.223-457.223S709.74,0,457.223,0z"/>
	</g>
	<g>
		<path fill="#935803" d="M18.366,585.906c55.582,189.866,231.021,328.54,438.857,328.54c200.394,0,370.669-128.922,432.429-308.347
			c-98.796-59.404-262.796-133.194-447.857-171.838C441.795,434.261,231.853,500.223,18.366,585.906z"/>
		<path fill="none" d="M456.383,429.609c185.061,38.644,334.473,117.086,433.27,176.49c16.064-46.669,24.794-96.752,24.794-148.876
			C914.446,204.706,709.74,0,457.223,0C204.706,0,0,204.706,0,457.223c0,44.682,6.417,87.864,18.366,128.683
			C231.853,500.223,456.383,429.609,456.383,429.609z"/>
	</g>
	<g>
		<g>
			<path id="XMLID_2089_" opacity="0.25" fill="#4B4B4A" d="M273.088,393.267c-91.104,0.957-153.261-75.953-142.125-164.708
				l302.461-27.967C454.602,326.012,358.794,401.719,273.088,393.267z"/>
			<path id="XMLID_2088_" fill="#275F88" d="M409.541,218.701c2.48,67.078-41.742,131.166-117.597,133.868
				c-67.082,2.39-123.467-49.887-125.948-116.965L409.541,218.701z"/>
			<path id="XMLID_2087_" fill="#C1A174" d="M426.549,209.198c0,0-274.851,20.675-274.845,20.703
				c3.745,62.492,40.71,126.318,107.536,134.626c55.038,6.842,114.089-21.144,145.035-66.867
				C419.188,275.626,428.394,235.8,426.549,209.198z M199.396,309.223c-20.168-19.121-28.062-45.701-29.151-72.949
				c0.009,0.255,51.104-2.696,105.479-5.908l2.717,111.663c-1.852-0.158-3.699-0.347-5.54-0.571
				C246.219,338.204,219.118,327.921,199.396,309.223z M394.145,279.543c-8.962,22.101-25.034,39.937-46.453,50.551
				c-15.093,7.479-31.686,11.363-48.459,12.279l-5.199-113.092c55.892-3.317,109.607-6.561,109.607-6.561
				C408.142,247.683,403.449,256.603,394.145,279.543z"/>
			<path id="XMLID_1628_" fill="#FDA519" d="M277.379,77.713c75.242-6.39,173.568,53.354,162.432,142.11l-316.496,25.362
				C113.284,148.713,191.699,84.467,277.379,77.713z"/>
			<path id="XMLID_1629_" fill="#F9D214" d="M279.908,115.597c56.272-4.779,129.809,39.903,121.481,106.282l-236.703,18.968
				C157.184,168.697,215.829,120.648,279.908,115.597z"/>
			<path id="XMLID_2082_" fill="#FDF1B8" d="M152.377,268.932c12.864-1.031,22.889-10.923,24.578-23.202
				c3.623,11.853,15.095,20.023,27.96,18.992c12.864-1.031,22.889-10.923,24.578-23.202c3.623,11.853,15.095,20.023,27.959,18.992
				c12.864-1.031,22.889-10.923,24.578-23.202c3.623,11.853,15.095,20.023,27.959,18.992c12.864-1.031,22.889-10.923,24.578-23.202
				c3.623,11.853,15.095,20.023,27.96,18.992s22.889-10.923,24.578-23.202c3.623,11.853,15.095,20.023,27.96,18.992
				c14.858-1.191,25.939-14.201,24.748-29.06l-316.496,25.362C124.508,259.042,137.518,270.123,152.377,268.932z"/>
		</g>
		<path id="XMLID_1630_" fill="#FDE40B" d="M289.53,144.194c42.03-3.569,96.956,29.804,90.736,79.383l-176.797,14.167
			C197.865,183.855,241.668,147.967,289.53,144.194z"/>
	</g>
	<g>
		<path id="XMLID_99_" fill="#BF7900" d="M534.811,135.219l0.996-30.929l-14.359,5.997l6.241,26.154
			c0.183-0.067,0.365-0.141,0.55-0.202C528.239,136.239,531.376,135.375,534.811,135.219z"/>
		<path id="XMLID_98_" fill="#BF7900" d="M540.314,135.846l8.19-28.21l-7.486,7.056l-4.098,20.533
			C538.103,135.287,539.205,135.489,540.314,135.846z"/>
		<path id="XMLID_12_" fill="#FDA519" d="M514.781,149.052c-2.325,16.477,7.344,49.786,14.956,62.284
			c5.946,12.907,46.139-77.955,4.657-81.328C521.968,130.574,516.213,138.903,514.781,149.052z"/>
	</g>
	<g>
		<path id="XMLID_102_" fill="#BF7900" d="M494.93,54.024l0.996-30.929l-14.359,5.997l6.241,26.154
			c0.183-0.067,0.365-0.141,0.55-0.202C488.357,55.044,491.494,54.18,494.93,54.024z"/>
		<path id="XMLID_101_" fill="#BF7900" d="M500.432,54.652l8.19-28.21l-7.486,7.056l-4.098,20.533
			C498.221,54.092,499.324,54.295,500.432,54.652z"/>
		<path id="XMLID_100_" fill="#FDA519" d="M474.899,67.858c-2.325,16.477,7.343,49.786,14.956,62.284
			c5.946,12.907,46.139-77.955,4.657-81.328C482.086,49.379,476.331,57.708,474.899,67.858z"/>
	</g>
	<g>
		<path id="XMLID_105_" fill="#BF7900" d="M488.679,220.699l0.996-30.929l-14.359,5.997l6.241,26.154
			c0.183-0.067,0.365-0.141,0.55-0.202C482.107,221.719,485.244,220.855,488.679,220.699z"/>
		<path id="XMLID_104_" fill="#BF7900" d="M494.182,221.327l8.19-28.21l-7.486,7.056l-4.098,20.533
			C491.971,220.767,493.073,220.97,494.182,221.327z"/>
		<path id="XMLID_103_" fill="#FDA519" d="M468.649,234.533c-2.325,16.477,7.343,49.786,14.956,62.284
			c5.946,12.907,46.139-77.955,4.657-81.328C475.836,216.054,470.081,224.383,468.649,234.533z"/>
	</g>
	<g>
		<path id="XMLID_110_" fill="#BF7900" d="M598.357,86.24l0.996-30.929l-14.359,5.997l6.241,26.154
			c0.183-0.067,0.365-0.141,0.55-0.202C591.785,87.26,594.921,86.396,598.357,86.24z"/>
		<path id="XMLID_107_" fill="#BF7900" d="M605.148,86.309l6.902-27.651l-7.486,7.056l-4.098,20.533L605.148,86.309z"/>
		<path id="XMLID_106_" fill="#FDA519" d="M578.327,100.074c-2.325,16.477,7.344,49.786,14.956,62.284
			c5.946,12.907,46.14-77.955,4.657-81.328C585.513,81.595,579.759,89.924,578.327,100.074z"/>
	</g>
	<g>
		<path id="XMLID_116_" fill="#BF7900" d="M758.178,166.549l0.996-30.929l-14.359,5.997l6.241,26.154
			c0.183-0.067,0.365-0.141,0.55-0.202C751.605,167.569,754.742,166.705,758.178,166.549z"/>
		<path id="XMLID_115_" fill="#BF7900" d="M763.68,167.177l8.19-28.21l-7.486,7.056l-4.098,20.533
			C761.469,166.617,762.572,166.82,763.68,167.177z"/>
		<path id="XMLID_114_" fill="#FDA519" d="M738.147,180.382c-2.325,16.477,7.343,49.786,14.956,62.284
			c5.946,12.907,46.14-77.955,4.657-81.328C745.334,161.904,739.579,170.233,738.147,180.382z"/>
	</g>
	<g>
		<path id="XMLID_165_" fill="#BF7900" d="M822.551,256.111l0.996-30.929l-14.359,5.997l6.241,26.154
			c0.183-0.067,0.365-0.141,0.55-0.202C815.979,257.131,819.115,256.267,822.551,256.111z"/>
		<path id="XMLID_118_" fill="#BF7900" d="M828.054,256.739l8.19-28.21l-7.486,7.056l-4.098,20.533
			C825.842,256.179,826.945,256.382,828.054,256.739z"/>
		<path id="XMLID_117_" fill="#FDA519" d="M802.521,269.945c-2.325,16.477,7.344,49.786,14.956,62.284
			c5.946,12.907,46.14-77.955,4.657-81.328C809.707,251.466,803.953,259.795,802.521,269.945z"/>
	</g>
	<g>
		<path id="XMLID_400_" fill="#BF7900" d="M798.234,382.901l0.996-30.929l-14.359,5.997l6.241,26.154
			c0.183-0.067,0.365-0.141,0.55-0.202C791.661,383.921,794.798,383.057,798.234,382.901z"/>
		<path id="XMLID_399_" fill="#BF7900" d="M803.736,383.529l8.19-28.21l-7.486,7.056l-4.098,20.533
			C801.525,382.969,802.628,383.172,803.736,383.529z"/>
		<path id="XMLID_391_" fill="#FDA519" d="M778.203,396.735c-2.325,16.477,7.343,49.786,14.956,62.284
			c5.946,12.907,46.14-77.955,4.657-81.328C785.39,378.256,779.636,386.585,778.203,396.735z"/>
	</g>
	<g>
		<path id="XMLID_464_" fill="#BF7900" d="M876.688,407.184l0.996-30.929l-14.359,5.997l6.241,26.154
			c0.183-0.067,0.365-0.141,0.55-0.202C870.116,408.204,873.252,407.34,876.688,407.184z"/>
		<path id="XMLID_414_" fill="#BF7900" d="M882.191,407.812l8.19-28.21l-7.486,7.056l-4.098,20.533
			C879.979,407.252,881.082,407.455,882.191,407.812z"/>
		<path id="XMLID_413_" fill="#FDA519" d="M856.658,421.018c-2.325,16.477,7.343,49.786,14.956,62.284
			c5.946,12.907,46.14-77.955,4.657-81.328C863.844,402.539,858.09,410.869,856.658,421.018z"/>
	</g>
	<g>
		<g>
			<path opacity="0.25" fill="#4B4B4A" d="M702.288,115.712c-10.066-21.509-31.314-23.007-48.83-13.302
				c-13.106,7.261-27.895,34.652-17.263,67.152c10.723,32.778,44.208,31.739,57.609,16.163
				C710.698,166.088,710.556,133.379,702.288,115.712z"/>
			<path fill="#FDA519" d="M692.476,114.666c-10.066-21.509-31.314-23.007-48.83-13.302c-13.106,7.261-27.895,34.652-17.263,67.152
				c10.723,32.778,44.208,31.739,57.609,16.163C700.887,165.042,700.744,132.332,692.476,114.666z"/>
			<polygon fill="#FBECF3" points="665.393,123.526 653.772,123.526 638.537,160.197 653.772,162.816 			"/>
		</g>
		<polygon fill="#E8E9E9" points="665.393,123.526 670.152,123.526 670.152,162.816 653.772,162.816 		"/>
	</g>
</g>
<g id="Layer_1">
</g>
</svg>
