<?xml version="1.0" encoding="utf-8"?>
<!-- Generator: Adobe Illustrator 24.2.3, SVG Export Plug-In . SVG Version: 6.00 Build 0)  -->
<svg version="1.1" xmlns="http://www.w3.org/2000/svg" xmlns:xlink="http://www.w3.org/1999/xlink" x="0px" y="0px"
	 viewBox="0 0 914.446 914.446" enable-background="new 0 0 914.446 914.446" xml:space="preserve">
<g id="neposenkello_x5F_lake_x5F_bg">
	<circle fill="#B6F4F8" cx="457.223" cy="457.223" r="457.223"/>
	<g>
		<path fill="#54BDCF" d="M457.223,914.446c252.518,0,457.223-204.706,457.223-457.223c0-64.865-13.511-126.574-37.866-182.47
			H37.866C13.51,330.649,0,392.358,0,457.223C0,709.74,204.706,914.446,457.223,914.446z"/>
	</g>
	<g>
		<path opacity="0.25" fill="#248291" d="M99.888,742.484c51.241,64.104,119.37,114.114,197.649,143.294
			c118.239-4.161,141.259-54.808,245.778-84.728c91.545-26.206,164.818-36.506,251.164-35.108
			c15.579-17.01,29.887-35.2,42.776-54.424C622.405,718.289,328.617,731.53,99.888,742.484z"/>
		<path opacity="0.25" fill="#248291" d="M5.441,386.509c50.36-0.262,104.339,0.545,159.866,3.544c228,12.314,230-15.393,362-30.17
			c131.507-14.722,225.305-16.609,374.329-10.535c-2.064-8.533-4.365-16.975-6.9-25.314
			c-237.002,2.437-617.704,9.267-879.098,14.233C11.403,354.028,7.985,370.124,5.441,386.509z"/>
		<path opacity="0.25" fill="#248291" d="M686.77,455.716c-244.946-22.808-248.199,9.911-390.88,22.633
			c-107.416,9.578-191.36,11.258-295.085,6.084c0.498,8.473,1.217,16.886,2.17,25.229c275.966,5.367,659.64,10.485,906.736,13.548
			c2.669-18.466,4.234-37.289,4.627-56.4C845.11,465.89,767.38,463.222,686.77,455.716z"/>
	</g>
	<g id="Pilvi_37_" opacity="0.5">
		<path fill="#FFFFFF" d="M703.31,168.501c19.003-17.251,53.867-17.414,48.258,16.315c-2.126,15.217-6.625,19.648-21.556,20.525
			c-30.516,1.461-61.138,0.693-91.661-0.257c-56.362,5.085-27.442-77.268,10.25-33.306c1.465-9.2-1.27-17.231,5.402-25.485
			c12.065-14.476,43.796-16.675,48.851,5.418C703.739,154.949,705.638,165.848,703.31,168.501
			C703.966,168.045,703.285,168.53,703.31,168.501z"/>
	</g>
	<g id="Pilvi_38_" opacity="0.5">
		<path fill="#FFFFFF" d="M561.005,87.774c16.582-15.053,47.005-15.195,42.11,14.237c-1.855,13.279-5.781,17.145-18.81,17.91
			c-26.629,1.275-53.35,0.605-79.984-0.225c-49.182,4.437-23.946-67.425,8.944-29.063c1.278-8.028-1.108-15.036,4.714-22.239
			c10.528-12.632,38.217-14.551,42.628,4.728C561.38,75.948,563.036,85.459,561.005,87.774
			C561.577,87.377,560.983,87.799,561.005,87.774z"/>
	</g>
</g>
<g id="Layer_1">
</g>
</svg>
