<?xml version="1.0" encoding="utf-8"?>
<!-- Generator: Adobe Illustrator 24.2.3, SVG Export Plug-In . SVG Version: 6.00 Build 0)  -->
<svg version="1.1" xmlns="http://www.w3.org/2000/svg" xmlns:xlink="http://www.w3.org/1999/xlink" x="0px" y="0px"
	 viewBox="0 0 914.446 914.446" enable-background="new 0 0 914.446 914.446" xml:space="preserve">
<g id="neposenkello_x5F_clockface_x5F_inside">
	<circle fill="#FF8000" cx="457.223" cy="457.223" r="457.223"/>
	<path id="XMLID_191_" fill="#D47A00" d="M785.089,283.952l1.596-49.546l-23.003,9.606l9.998,41.897
		c0.294-0.108,0.584-0.226,0.88-0.324C774.56,285.586,779.585,284.202,785.089,283.952z"/>
	<path id="XMLID_169_" fill="#D47A00" d="M793.904,284.958l13.121-45.19l-11.992,11.303l-6.565,32.892
		C790.361,284.061,792.128,284.386,793.904,284.958z"/>
	<path id="XMLID_168_" fill="#FFA600" d="M753.001,306.113c-3.725,26.396,11.764,79.754,23.959,99.776
		c9.526,20.676,73.913-124.88,7.461-130.284C764.514,276.511,755.295,289.854,753.001,306.113z"/>
	<path id="XMLID_167_" fill="#D47A00" d="M620.543,168.038l1.651-51.248l-23.793,9.936l10.341,43.335
		c0.304-0.112,0.604-0.234,0.911-0.335C609.653,169.728,614.85,168.296,620.543,168.038z"/>
	<path id="XMLID_166_" fill="#D47A00" d="M629.661,169.078l13.571-46.742l-12.403,11.691l-6.791,34.022
		C625.997,168.15,627.824,168.487,629.661,169.078z"/>
	<path id="XMLID_164_" fill="#FFA600" d="M587.354,190.96c-3.853,27.302,12.168,82.493,24.782,103.202
		c9.853,21.386,76.451-129.168,7.717-134.757C599.262,160.341,589.727,174.143,587.354,190.96z"/>
	<path id="XMLID_163_" fill="#D47A00" d="M620.543,429.151l1.651-51.248l-23.793,9.936l10.341,43.335
		c0.304-0.112,0.604-0.234,0.911-0.335C609.653,430.841,614.85,429.409,620.543,429.151z"/>
	<path id="XMLID_162_" fill="#D47A00" d="M629.661,430.191l13.571-46.742l-12.403,11.691l-6.791,34.022
		C625.997,429.263,627.824,429.599,629.661,430.191z"/>
	<path id="XMLID_161_" fill="#FFA600" d="M587.354,452.072c-3.853,27.302,12.168,82.493,24.782,103.202
		c9.853,21.386,76.451-129.168,7.717-134.757C599.262,421.454,589.727,435.255,587.354,452.072z"/>
	<path id="XMLID_160_" fill="#D47A00" d="M620.543,673.875l1.651-51.248l-23.793,9.936l10.341,43.335
		c0.304-0.112,0.604-0.234,0.911-0.335C609.653,675.564,614.85,674.133,620.543,673.875z"/>
	<path id="XMLID_159_" fill="#D47A00" d="M629.661,674.915l13.571-46.742l-12.403,11.691l-6.791,34.022
		C625.997,673.987,627.824,674.323,629.661,674.915z"/>
	<path id="XMLID_158_" fill="#FFA600" d="M587.354,696.796c-3.853,27.302,12.168,82.493,24.782,103.202
		c9.853,21.386,76.451-129.169,7.717-134.757C599.262,666.177,589.727,679.979,587.354,696.796z"/>
	<path id="XMLID_157_" fill="#D47A00" d="M785.089,534.617l1.596-49.546l-23.003,9.606l9.998,41.897
		c0.294-0.108,0.584-0.226,0.88-0.324C774.56,536.251,779.585,534.867,785.089,534.617z"/>
	<path id="XMLID_156_" fill="#D47A00" d="M793.904,535.623l13.121-45.19l-11.992,11.303l-6.565,32.892
		C790.361,534.726,792.128,535.051,793.904,535.623z"/>
	<path id="XMLID_155_" fill="#FFA600" d="M753.001,556.778c-3.725,26.396,11.764,79.754,23.959,99.776
		c9.526,20.676,73.913-124.88,7.461-130.284C764.514,527.176,755.295,540.519,753.001,556.778z"/>
	<path id="XMLID_154_" fill="#D47A00" d="M453.531,90.949l1.647-51.144l-23.745,9.916l10.32,43.248
		c0.303-0.111,0.603-0.233,0.909-0.334C442.663,92.635,447.85,91.206,453.531,90.949z"/>
	<path id="XMLID_138_" fill="#D47A00" d="M462.63,91.987l13.544-46.647l-12.378,11.667l-6.777,33.953
		C458.973,91.061,460.797,91.396,462.63,91.987z"/>
	<path id="XMLID_137_" fill="#FFA600" d="M420.409,113.824c-3.845,27.247,12.143,82.326,24.732,102.993
		c9.833,21.342,76.296-128.907,7.701-134.484C432.293,83.267,422.777,97.041,420.409,113.824z"/>
	<path id="XMLID_135_" fill="#D47A00" d="M453.531,313.206l1.647-51.144l-23.745,9.916l10.32,43.248
		c0.303-0.111,0.603-0.233,0.909-0.334C442.663,314.893,447.85,313.464,453.531,313.206z"/>
	<path id="XMLID_134_" fill="#D47A00" d="M462.63,314.244l13.544-46.647l-12.378,11.667l-6.777,33.953
		C458.973,313.318,460.797,313.654,462.63,314.244z"/>
	<path id="XMLID_133_" fill="#FFA600" d="M420.409,336.082c-3.845,27.247,12.143,82.326,24.732,102.993
		c9.833,21.342,76.296-128.907,7.701-134.484C432.293,305.525,422.777,319.299,420.409,336.082z"/>
	<path id="XMLID_132_" fill="#D47A00" d="M457.038,531.258l1.647-51.144l-23.745,9.916l10.32,43.248
		c0.303-0.111,0.603-0.233,0.909-0.334C446.169,532.945,451.356,531.516,457.038,531.258z"/>
	<path id="XMLID_131_" fill="#D47A00" d="M466.137,532.296l13.544-46.647l-12.378,11.667l-6.777,33.953
		C462.48,531.37,464.303,531.706,466.137,532.296z"/>
	<path id="XMLID_128_" fill="#FFA600" d="M423.915,554.133c-3.845,27.247,12.143,82.326,24.732,102.993
		c9.833,21.342,76.296-128.907,7.701-134.484C435.799,523.577,426.283,537.35,423.915,554.133z"/>
	<path id="XMLID_127_" fill="#D47A00" d="M460.544,755.231l1.647-51.144l-23.745,9.916l10.32,43.248
		c0.303-0.111,0.603-0.233,0.909-0.334C449.676,756.917,454.863,755.488,460.544,755.231z"/>
	<path id="XMLID_126_" fill="#D47A00" d="M469.643,756.268l13.544-46.647l-12.378,11.667l-6.777,33.953
		C465.987,755.342,467.81,755.678,469.643,756.268z"/>
	<path id="XMLID_125_" fill="#FFA600" d="M427.422,778.106c-3.845,27.247,12.143,82.326,24.732,102.993
		c9.833,21.342,76.296-128.907,7.701-134.484C439.306,747.549,429.79,761.323,427.422,778.106z"/>
	<path id="XMLID_124_" fill="#D47A00" d="M289.77,168.038l1.651-51.248l-23.793,9.936l10.341,43.335
		c0.304-0.112,0.604-0.234,0.911-0.335C278.88,169.728,284.077,168.296,289.77,168.038z"/>
	<path id="XMLID_94_" fill="#D47A00" d="M298.888,169.078l13.571-46.742l-12.403,11.691l-6.791,34.022
		C295.224,168.15,297.051,168.487,298.888,169.078z"/>
	<path id="XMLID_80_" fill="#FFA600" d="M256.581,190.96c-3.853,27.302,12.168,82.493,24.782,103.202
		c9.853,21.386,76.451-129.168,7.717-134.757C268.489,160.341,258.953,174.143,256.581,190.96z"/>
	<path id="XMLID_74_" fill="#D47A00" d="M289.77,429.151l1.651-51.248l-23.793,9.936l10.341,43.335
		c0.304-0.112,0.604-0.234,0.911-0.335C278.88,430.841,284.077,429.409,289.77,429.151z"/>
	<path id="XMLID_73_" fill="#D47A00" d="M298.888,430.191l13.571-46.742l-12.403,11.691l-6.791,34.022
		C295.224,429.263,297.051,429.599,298.888,430.191z"/>
	<path id="XMLID_67_" fill="#FFA600" d="M256.581,452.072c-3.853,27.302,12.168,82.493,24.782,103.202
		c9.853,21.386,76.451-129.168,7.717-134.757C268.489,421.454,258.953,435.255,256.581,452.072z"/>
	<path id="XMLID_61_" fill="#D47A00" d="M289.77,673.875l1.651-51.248l-23.793,9.936l10.341,43.335
		c0.304-0.112,0.604-0.234,0.911-0.335C278.88,675.564,284.077,674.133,289.77,673.875z"/>
	<path id="XMLID_60_" fill="#D47A00" d="M298.888,674.915l13.571-46.742l-12.403,11.691l-6.791,34.022
		C295.224,673.987,297.051,674.323,298.888,674.915z"/>
	<path id="XMLID_59_" fill="#FFA600" d="M256.581,696.796c-3.853,27.302,12.168,82.493,24.782,103.202
		c9.853,21.386,76.451-129.169,7.717-134.757C268.489,666.177,258.953,679.979,256.581,696.796z"/>
	<path id="XMLID_58_" fill="#D47A00" d="M132.596,283.952l1.596-49.546l-23.003,9.606l9.998,41.897
		c0.293-0.108,0.584-0.226,0.88-0.324C122.067,285.586,127.092,284.202,132.596,283.952z"/>
	<path id="XMLID_52_" fill="#D47A00" d="M141.41,284.958l13.121-45.19l-11.992,11.303l-6.565,32.892
		C137.868,284.061,139.634,284.386,141.41,284.958z"/>
	<path id="XMLID_44_" fill="#FFA600" d="M100.508,306.113c-3.725,26.396,11.764,79.754,23.959,99.776
		c9.526,20.676,73.913-124.88,7.461-130.284C112.021,276.511,102.802,289.854,100.508,306.113z"/>
	<path id="XMLID_18_" fill="#D47A00" d="M132.596,534.617l1.596-49.546l-23.003,9.606l9.998,41.897
		c0.293-0.108,0.584-0.226,0.88-0.324C122.067,536.251,127.092,534.867,132.596,534.617z"/>
	<path id="XMLID_17_" fill="#D47A00" d="M141.41,535.623l13.121-45.19l-11.992,11.303l-6.565,32.892
		C137.868,534.726,139.634,535.051,141.41,535.623z"/>
	<path id="XMLID_16_" fill="#FFA600" d="M100.508,556.778c-3.725,26.396,11.764,79.754,23.959,99.776
		c9.526,20.676,73.913-124.88,7.461-130.284C112.021,527.176,102.802,540.519,100.508,556.778z"/>
</g>
<g id="Layer_1">
</g>
</svg>
