<?xml version="1.0" encoding="utf-8"?>
<!-- Generator: Adobe Illustrator 24.2.3, SVG Export Plug-In . SVG Version: 6.00 Build 0)  -->
<svg version="1.1" xmlns="http://www.w3.org/2000/svg" xmlns:xlink="http://www.w3.org/1999/xlink" x="0px" y="0px"
	 viewBox="0 0 352.046 345.643" enable-background="new 0 0 352.046 345.643" xml:space="preserve">
<g id="neposenkello_x5F_kitchen_x5F_window">
	<g>
		<path id="XMLID_123_" fill="#69B802" d="M9.828,173.222c0.173-33.8,330.169-28.541,331.281,5.923
			c1.043,32.318-9.151,63.831-28.209,89.862c-39.548,54.02-112.36,85.286-178.747,74.529
			C52.713,330.339,10.743,249.829,9.828,173.222C9.938,151.727,9.96,184.299,9.828,173.222z"/>
		<path id="XMLID_122_" fill="#BFD731" d="M43.23,151.502c5.142-27.175,16.643-54.149,37.166-73.273
			c20.501-19.104,48.56-28.288,76.068-30.741c57.511-5.128,113.914,21.377,139.038,74.719c11.962,25.397,17.664,55.19,13.459,83.09
			c-3.944,26.163-16.811,50.015-36.001,68.144c-39.822,37.621-103.046,52.008-154.881,33.526
			C54.491,284.293,32.63,213.289,43.23,151.502C46.5,134.218,41.697,160.435,43.23,151.502z"/>
		<path id="XMLID_113_" fill="#54BDCF" d="M73.387,140.294c4.384-23.171,14.19-46.171,31.69-62.477
			c17.48-16.289,41.405-24.12,64.859-26.211c49.037-4.373,97.129,18.227,118.551,63.71c10.199,21.655,15.062,47.058,11.476,70.847
			c-3.362,22.308-14.334,42.646-30.697,58.103c-33.954,32.077-87.862,44.345-132.059,28.586
			C82.988,253.519,64.348,192.977,73.387,140.294C76.176,125.558,72.08,147.911,73.387,140.294z"/>
		<polygon id="XMLID_112_" fill="#BFD731" points="158.44,299.464 159.936,61.606 176.171,54.157 182.064,299.464 		"/>
		<path id="XMLID_111_" fill="#69B802" d="M170.261,0.076C170.256,0.031,170.252,0,170.252,0c-0.226,0.016-0.445,0.036-0.67,0.053
			c-0.514-0.017-1.026-0.037-1.542-0.053c0,0-0.007,0.062-0.018,0.176C-59.079,17.748,9.828,251.086,9.828,251.086
			C133.48,230.36,164.112,130.134,170.44,62.75c9.555,64.795,45.653,160.283,172.753,188.336
			C343.194,251.086,411.195,8.855,170.261,0.076z"/>
		<path id="XMLID_96_" fill="#5AA043" d="M349.305,221.353C230.9,184.153,165.525,22.816,165.525,22.816
			C121.828,143.308,44.336,190.736,2.054,207.167c2.825,26.124,8.077,43.918,8.077,43.918
			C133.784,230.36,164.416,130.134,170.744,62.749c9.555,64.795,45.653,160.283,172.753,188.336
			C343.498,251.086,346.744,239.521,349.305,221.353z"/>
		<path id="XMLID_48_" fill="#7FD6E1" d="M226.733,214.774c4.052-2.794,7.307-5.172,12.528-4.115
			c5.274,1.067,6.328,5.397,5.624,10.318c-0.819,5.728-2.519,7.391-8.142,7.703c-5.854,0.325-11.755,0.259-17.616,0.21
			c-5.633-0.046-11.272-0.194-16.901-0.42c-5.37-0.215-8.976,0.224-11.123-5.429c-4.125-10.866,9.033-16.406,15.023-7.101
			c0.562-3.463-0.457-6.49,2.066-9.59c2.611-3.208,7.789-4.597,11.792-3.951c3.466,0.559,5.678,2.645,6.597,6.051
			C226.911,209.671,227.613,213.778,226.733,214.774C226.981,214.603,226.723,214.785,226.733,214.774z"/>
		<path id="XMLID_46_" fill="#7FD6E1" d="M140.983,230.688c3.693-2.547,6.659-4.713,11.417-3.751
			c4.806,0.972,5.767,4.918,5.125,9.402c-0.746,5.22-2.296,6.735-7.42,7.02c-5.335,0.296-10.712,0.236-16.053,0.192
			c-5.133-0.042-10.272-0.177-15.401-0.382c-4.893-0.195-8.181,0.203-10.136-4.947c-3.76-9.902,8.231-14.95,13.69-6.471
			c0.513-3.155-0.417-5.914,1.882-8.739c2.379-2.924,7.098-4.19,10.746-3.601c3.158,0.509,5.174,2.41,6.011,5.514
			C141.146,226.037,141.786,229.78,140.983,230.688C141.209,230.532,140.975,230.697,140.983,230.688z"/>
	</g>
</g>
<g id="Layer_1">
</g>
</svg>
