<?xml version="1.0" encoding="utf-8"?>
<!-- Generator: Adobe Illustrator 24.2.3, SVG Export Plug-In . SVG Version: 6.00 Build 0)  -->
<svg version="1.1" xmlns="http://www.w3.org/2000/svg" xmlns:xlink="http://www.w3.org/1999/xlink" x="0px" y="0px"
	 viewBox="0 0 914.446 914.446" enable-background="new 0 0 914.446 914.446" xml:space="preserve">
<g id="neposenkello_x5F_clockface">
	<circle fill="#935803" cx="457.223" cy="457.223" r="457.223"/>
	<g opacity="0.25">
		<path fill="#BF7900" d="M171.502,100.254c-6.654,5.333-13.154,10.851-19.497,16.541l-14.237,667.539
			c11.499,11.231,23.591,21.857,36.219,31.835L171.502,100.254z"/>
		<path fill="#BF7900" d="M341.222,14.852c-14.785,3.866-29.277,8.455-43.439,13.725l2.796,858.328
			c7.585,2.766,15.266,5.331,23.032,7.701L341.222,14.852z"/>
		<path fill="#BF7900" d="M622.433,30.769c-13.964-5.413-28.259-10.16-42.849-14.203l2.869,880.517
			c7.679-2.182,15.272-4.565,22.781-7.133L622.433,30.769z"/>
		<path fill="#BF7900" d="M777.043,130.474c-5.947-5.821-12.055-11.478-18.311-16.97l-14.93,700.005
			c12.382-9.972,24.229-20.582,35.501-31.77L777.043,130.474z"/>
		<path fill="#BF7900" d="M472.942,914.173L469.965,0.179C465.731,0.063,461.485,0,457.223,0c-3.329,0-6.647,0.044-9.958,0.115
			l-18.286,913.468c9.342,0.569,18.759,0.864,28.245,0.864C462.485,914.446,467.723,914.349,472.942,914.173z"/>
	</g>
	<g>
		<path fill="#BF7900" d="M722.014,423.075c-21.859-34.695-67.999-37.111-106.034-21.457c-28.46,11.713-60.575,55.896-37.487,108.32
			c23.285,52.872,95.999,51.197,125.098,26.072C740.277,504.334,739.968,451.572,722.014,423.075z"/>
		<path fill="#6A4019" d="M641.038,473.031c0,0-15.107-6.397-9.776-26.535c6.284-23.741,39.076-19.244,42.595,0.698
			c2.095,11.871-2.793,21.647-11.871,27.233l6.983,40.5h-34.914L641.038,473.031z"/>
	</g>
	<g>
		<g>
			<g id="_x32__1_">
				<path fill="#F9D214" d="M518.437,161.691c11.603,0.731,22.868,0.977,34.357,2.295c2.612,0.293,3.588,1.429,3.572,4.021
					c-0.035,5.578-0.613,11.112-0.991,16.664c-0.142,2.085-1.179,2.781-3.105,2.85c-28.747,1.833-57.497,0.593-86.214-0.946
					c-3.372-0.152-4.677-1.401-5.075-4.617c-0.583-4.718-1.269-9.415-1.474-14.174c-0.14-3.247,1.003-5.634,3.537-7.821
					c14.308-12.352,28.616-24.707,41.225-38.878c12.066-12.731,23.437-45.777,2.76-55.286c-13.519-5.788-35.548-4.443-39.018,12.919
					c-4.78,23.807,3.797,18.352-22.779,14.058c-1.465-0.298-2.462-0.8-2.566-2.65c-0.863-15.241,2.127-29.553,10.222-42.61
					c14.791-24.56,46.236-30.668,72.757-25.852c52.118,8.091,63.946,80.812,27.052,113.813
					C543.367,144.816,519.061,159.964,518.437,161.691z"/>
			</g>
			<g id="Layer_1_91_">
			</g>
		</g>
		<g>
			<g id="_x31__1_">
				<path fill="#F9D214" d="M423.076,76.552c-3.156,36.596-0.566,73.091,2.162,109.621c0.115,1.714-0.084,2.562-2.11,2.635
					c-14.867,0.529-29.732,1.122-44.592,1.808c-2.475,0.114-3.177-0.551-2.91-3.079c4.131-39.1,6.16-78.373,9.594-117.53
					c2.268-8.927-22.005,1.078-21.7-6.174c0.858-4.566-3.584-31.197,1.103-30.168c19.119-1.752,38.024-5.727,57.357-5.344
					c2.932,0.058,3.564,0.718,3.381,3.653c-0.926,14.849-1.58,29.715-2.33,44.575C423.046,76.551,423.061,76.552,423.076,76.552z"/>
			</g>
			<g id="Layer_1_87_">
			</g>
		</g>
	</g>
	<g>
		<g id="_x33__1_">
			<path fill="#F9D214" d="M864.999,386.166c-28.018-19.331-65.64-22.612-97.258-10.431c-1.221,0.514-2.519,0.673-2.29,2.78
				c0.929,8.549,1.752,17.117,2.297,25.698c0.206,3.246,1.41,3.816,4.435,3.658c9.773-0.51,19.512-0.055,28.922,3.014
				c12.3,2.726,25.565,19.249,11.488,28.656c-9.351,6.288-20.53,9.477-31.443,11.808c-2.905,0.535-3.537,1.765-3.389,4.525
				c0.427,7.96,0.685,15.936,0.721,23.906c0.013,3.036,0.7,4.398,4.031,4.823c13.044,2.039,27.996,5.758,36.009,17.178
				c9.588,16.379-6.774,28.304-22.484,26.656c-2.459-0.112-3.422,0.79-3.582,3.136c-0.473,6.944-0.972,13.887-1.604,20.818
				c-0.165,1.805,0.755,2.042,2.099,2.394c14.45,1.976,29.626,1.355,43.43-3.718c18.036-5.776,24.431-25.209,23.18-42.666
				c-0.911-17.254-11.38-28.976-28.067-33.428C868.591,463.055,905.587,416.618,864.999,386.166z"/>
		</g>
		<g id="Layer_1_92_">
		</g>
	</g>
	<g>
		<g id="_x36__1_">
			<path fill="#F9D214" d="M522.613,783.559c-18.782-23.331-44.695-33.072-74.497-31.328c7.141-15.594,21.815-26.253,36.468-34.371
				c2.419-1.269,2.724-2.422,1.825-4.774c-1.289-2.972-4.993-13.163-8.21-13.202c-75.921,5.638-116.346,111.644-57.426,163.097
				C465.301,910.898,565.619,838.114,522.613,783.559z M483.751,816.933c-9.068,25.321-42.256,23.821-49.285-0.458
				c-2.888-10.624,0.227-19.419,8.659-26.275c7.622-6.197,16.015-6.422,24.037-2.872
				C479.506,792.285,489.629,803.553,483.751,816.933z"/>
		</g>
		<g id="Layer_1_95_">
		</g>
	</g>
	<path fill="#F9D214" d="M178.234,420.299c-9.116-46.693-72.896-59.846-112.797-49.269c-38.7,9.145-58.777,57.717-45.521,93.547
		c5.928,16.846,21.9,26.169,37.632,32.469c17.793,6.839,35.906,10.88,54.967,5.919c3.12-0.812,1.957,1.341,1.804,2.572
		c-1.264,10.181-2.662,20.347-3.113,30.609c-0.287,6.534-0.285,6.611,5.529,9.081c7.231,3.071,14.564,5.905,21.764,9.044
		c2.591,1.13,3.744,0.461,4.98-1.941C162.533,512.834,187.642,465.211,178.234,420.299z M119.876,453.02
		c-10.574,7.137-22.168,7.852-33.79,4.319c-17.564-7.37-23.219-27.167-8.148-40.347c10.584-9.454,30.011-11.211,42.099-3.823
		C133.716,421.496,132.605,444.501,119.876,453.02z"/>
	<g>
		<g id="_x31__5_">
			<path fill="#E0CAAF" d="M675.623,116.007c-2.215,25.687-0.397,51.303,1.518,76.944c0.081,1.203-0.059,1.798-1.481,1.85
				c-10.435,0.371-20.869,0.788-31.3,1.269c-1.737,0.08-2.23-0.387-2.043-2.161c2.9-27.445,4.324-55.011,6.734-82.495
				c1.418-6.352-15.235,0.837-15.232-4.334c0.651-3.455-2.592-21.441,0.774-21.175c13.42-1.23,26.69-4.02,40.26-3.751
				c2.058,0.041,2.502,0.504,2.373,2.564c-0.65,10.423-1.109,20.857-1.635,31.288C675.602,116.006,675.612,116.007,675.623,116.007z
				"/>
		</g>
		<g id="Layer_1_231_">
		</g>
	</g>
	<g>
		<g id="_x32__3_">
			<path fill="#E0CAAF" d="M769.109,307.905c8.144,0.513,16.052,0.686,24.115,1.611c1.833,0.206,2.518,1.003,2.507,2.822
				c-0.025,3.915-0.43,7.8-0.696,11.697c-0.1,1.464-0.828,1.952-2.179,2c-20.178,1.286-40.357,0.416-60.514-0.664
				c-2.367-0.106-3.283-0.983-3.562-3.24c-0.409-3.312-0.891-6.608-1.035-9.949c-0.098-2.279,0.704-3.955,2.483-5.49
				c10.043-8.67,20.086-17.342,28.936-27.289c8.469-8.936,16.45-32.131,1.937-38.806c-9.489-4.063-24.951-3.119-27.387,9.068
				c-3.355,16.71,2.665,12.881-15.989,9.868c-1.028-0.209-1.728-0.562-1.801-1.86c-0.606-10.698,1.493-20.743,7.175-29.908
				c10.382-17.239,32.454-21.526,51.069-18.146c36.582,5.679,44.884,56.722,18.988,79.886
				C786.608,296.06,769.547,306.692,769.109,307.905z"/>
		</g>
		<g id="Layer_1_230_">
		</g>
	</g>
	<g>
		<g id="_x34__1_">
			<path fill="#E0CAAF" d="M798.434,654.684c-0.548,14.491-1.115,28.981-1.618,43.474c-0.056,1.624-0.704,2.455-2.209,2.991
				c-4.504,1.603-9.209,2.341-13.836,3.418c-1.478,0.344-1.815-0.763-2.315-1.61c-3.337-5.652-5.784-11.698-7.764-17.936
				c-1.566-4.934-1.03-4.184-5.499-4.224c-12.007-0.107-24.006-0.49-36.004-0.915c-1.718-0.061-2.614-0.828-3.346-2.241
				c-3.633-7.017-5.622-14.563-7.297-22.22c-1.908-8.712-1.162-17.488-0.528-26.232c0.815-11.247,1.992-22.463,3.812-33.602
				c0.559-3.423,0.538-3.422,3.88-3.425c8.713-0.011,17.384,0.681,26.04,1.593c2.974,0.314,3.101,0.541,2.622,3.455
				c-2.55,15.507-4.86,31.043-5.444,46.777c-0.125,3.367-0.075,3.381,3.363,3.881c3.029,0.441,6.064,0.775,9.122,1.003
				c2.66,0.198,3.748-0.874,4.219-3.382c2.923-15.687,6.233-31.303,9.245-46.971c0.355-1.936,1.244-2.765,3.173-2.872
				c5.149-0.283,10.29-0.463,15.445-0.039c1.573,0.129,2.257,0.69,2.364,2.331C797.266,616.832,797.719,635.75,798.434,654.684z"/>
		</g>
		<g id="Layer_1_228_">
		</g>
	</g>
	<g>
		<g id="_x35__1_">
			<path fill="#E0CAAF" d="M676.013,700.943c1.811,0.083,2.706,0.708,2.895,2.593c0.289,2.889,0.785,5.757,1.207,8.632
				c0.288,1.961-0.466,2.813-2.514,3.115c-14.39,2.124-48.747,6.082-48.702,7.325c-0.164,14.269-1.291,31.101-2.592,45.304
				c-0.24,2.614,0.553,3.188,2.972,3.266c5.343,0.173,10.686,0.557,15.961,1.527c32.594,3.712,25.528,43.569,2.769,56
				c-10.028,5.739-20.735,9.658-31.901,12.407c-3.758,0.925-4.08,0.659-5.003-3.144c-0.751-3.098-1.266-6.254-2.051-9.343
				c-0.612-2.409,0.082-3.553,2.575-4.18c5.37-1.354,10.629-3.113,15.616-5.579c8.778-3.539,15.138-12.736,7.448-20.845
				c-11.519-9.414-27.791-9.221-41.931-10.061c-3.858-0.107-3.883-0.06-3.846-3.85c0.248-25.152,0.835-50.29,2.779-75.379
				c0.379-4.9,0.417-4.823,5.403-5.402C616.591,701.548,669.265,700.635,676.013,700.943z"/>
		</g>
		<g id="Layer_1_227_">
		</g>
	</g>
	<g>
		<g id="_x37__1_">
			<path fill="#E0CAAF" d="M327.522,766.666c-0.273,1.87,0.075,2.689,2.077,2.875c3.36,0.313,6.644,1.129,9.939,1.867
				c4.811,0.791,2.42,8.832,2.272,12.18c-0.164,1.374-1.04,1.742-2.157,1.938c-4.051,0.711-8.087,1.55-12.163,2.069
				c-1.949,0.248-2.57,1.059-2.816,2.907c-1.799,13.544-3.685,27.075-5.576,40.606c-0.469,3.356-0.523,3.344-3.987,2.908
				c-10.617-1.336-21.189-2.977-31.747-4.717c-2.316-0.382-2.946-1.181-2.491-3.548c2.474-12.855,5.516-25.579,8.564-38.303
				c0.806-3.366,0.84-3.364-2.544-4.137c-18.459-4.598-13.771,0.299-10.822-18.028c0.286-1.441,1.005-1.902,2.405-1.728
				c3.92,0.485,7.861,0.818,11.766,1.403c1.802,0.27,2.495-0.297,2.848-2.017c0.876-4.279,1.393-8.608,2.099-12.909
				c0.44-2.679-0.541-3.633-2.987-4.148c-17.525-3.82-35.002-7.876-52.561-11.544c-2.359-0.497-3.26-1.436-2.821-3.998
				c0.834-4.863,1.459-9.773,1.894-14.688c0.237-2.684,1.421-3.377,3.928-3.278c9.537,0.377,68.071,3.206,87.719,4.995
				c2.293-0.034,2.896,1.116,2.807,3.241C332.831,728.685,328.593,759.338,327.522,766.666z"/>
		</g>
		<g id="Layer_1_108_">
		</g>
	</g>
	<g>
		<g id="_x38__1_">
			<path fill="#E0CAAF" d="M145.93,630.791c-16.855-7.236-18.474-32.655-3.973-43.205c11.015-7.989,23.342-9.272,36.216-5.102
				c14.592,5.552,17.779,24.934,11.555,37.86c-2.486,5.589-6.633,9.577-12.501,11.63c-0.469,0.164-1.076,0.15-1.369,0.957
				c46.634,13.263,36.612,81.408-10.663,82.61c-25.064,0.77-55.782-9.891-54.855-40.441
				C110.279,659.772,123.973,634.123,145.93,630.791z M160.455,659.776c-8.943-1.842-22.704,1.785-22.637,13.174
				c-0.459,11.447,12.252,15.685,21.764,15.586C177.893,687.699,179.766,662.853,160.455,659.776z M166.665,599.514
				c-7.122-1.259-12.264,1.125-14.8,6.862c-1.927,4.361-0.432,9.304,3.664,11.137C172.049,625.053,183.918,603.954,166.665,599.514z
				"/>
		</g>
		<g id="Layer_1_105_">
		</g>
	</g>
	<g>
		<g id="_x31_0_1_">
			<g>
				<path fill="#E0CAAF" d="M237.528,271.956c0.416,26.556-16.983,50.007-44.016,53.426c-48.946,6.826-72.161-52.138-44.995-86.962
					c5.854-7.997,14.204-12.548,23.71-14.855C207.393,215.029,238.876,233.545,237.528,271.956z M207.313,270.601
					c1.046-15.033-12.71-22.187-25.633-16.969c-6.639,2.265-10.698,6.906-12.18,13.724
					C164.201,297.566,208.003,299.486,207.313,270.601z"/>
				<path fill="#E0CAAF" d="M124.226,221.204c0.793,0,1.586,0.005,2.378-0.001c4.908-0.037,4.8-0.045,4.492,4.758
					c-1.003,15.629-1.621,31.284-2.464,46.921c-0.428,7.148,1.744,38.775,2.156,47.461c0.916,5.929,0.176,4.773-4.502,5.068
					c-8.34,0.525-16.737,0.011-25.029,1.324c-2.395,0.379-2.412-1.003-2.264-2.658c2.4-25.048,4.082-50.155,6.147-75.23
					c0.209-2.289-0.482-3.012-2.69-2.917c-2.99,0.129-5.989,0.006-8.983,0.066c-1.643,0.032-2.403-0.607-2.447-2.309
					c-0.137-5.454-0.653-10.894-0.57-16.361c0.026-1.702,0.51-2.668,2.289-2.831C103.248,223.536,113.647,221.521,124.226,221.204z"
					/>
			</g>
		</g>
		<g id="Layer_1_103_">
		</g>
	</g>
	<g>
		<g>
			<g id="_x31__4_">
				<path fill="#E0CAAF" d="M260.465,113.04c-2.021,23.437-0.362,46.809,1.385,70.203c0.074,1.098-0.054,1.641-1.351,1.687
					c-9.521,0.339-19.041,0.719-28.557,1.158c-1.585,0.073-2.035-0.353-1.864-1.972c2.646-25.04,3.945-50.191,6.144-75.268
					c1.294-5.795-13.901,0.763-13.897-3.954c0.594-3.152-2.365-19.563,0.706-19.32c12.244-1.122,24.352-3.667,36.733-3.422
					c1.878,0.037,2.282,0.46,2.165,2.339c-0.593,9.51-1.012,19.03-1.492,28.546C260.446,113.039,260.455,113.04,260.465,113.04z"/>
			</g>
			<g id="Layer_1_102_">
			</g>
		</g>
		<g>
			<g id="_x31__3_">
				<path fill="#E0CAAF" d="M318.136,113.04c-2.021,23.437-0.362,46.809,1.385,70.203c0.074,1.098-0.054,1.641-1.351,1.687
					c-9.521,0.339-19.041,0.719-28.557,1.158c-1.585,0.073-2.035-0.353-1.864-1.972c2.646-25.04,3.945-50.191,6.144-75.268
					c1.294-5.795-13.901,0.763-13.897-3.954c0.594-3.152-2.365-19.563,0.706-19.32c12.244-1.122,24.352-3.667,36.733-3.422
					c1.878,0.037,2.282,0.46,2.165,2.339c-0.593,9.51-1.012,19.03-1.492,28.546C318.117,113.039,318.127,113.04,318.136,113.04z"/>
			</g>
			<g id="Layer_1_101_">
			</g>
		</g>
	</g>
</g>
<g id="Layer_1">
</g>
</svg>
