<?xml version="1.0" encoding="utf-8"?>
<!-- Generator: Adobe Illustrator 24.2.3, SVG Export Plug-In . SVG Version: 6.00 Build 0)  -->
<svg version="1.1" xmlns="http://www.w3.org/2000/svg" xmlns:xlink="http://www.w3.org/1999/xlink" x="0px" y="0px"
	 viewBox="0 0 914.446 914.446" enable-background="new 0 0 914.446 914.446" xml:space="preserve">
<g id="neposenkello_x5F_bedroom_x5F_window_x5F_closeup">
	<g>
		<path fill="#275F88" d="M457.223,0C204.706,0,0,204.706,0,457.223s204.706,457.223,457.223,457.223
			c252.518,0,457.223-204.706,457.223-457.223S709.74,0,457.223,0z M791.232,472.982c-9.52,63.163-40.585,120.745-86.913,164.511
			c-96.137,90.822-248.77,125.556-373.907,80.937c-151.938-54.175-205.183-222.644-181.446-370.715
			c0.001,0.386,1.673-8.571,2.728-14.382c13.261-62.254,40.665-123.239,87.747-167.113c49.493-46.12,117.232-68.293,183.639-74.214
			c138.84-12.38,275.006,51.606,335.661,180.383C787.618,333.701,801.385,405.626,791.232,472.982z"/>
	</g>
	<path fill="#3F749A" d="M891.361,424.992C883.059,145.472,605.343-55.086,337.538,29.081
		C151.357,75.347,44.481,227.42,50.521,415.633C71.719,1051.726,880.906,922.588,891.361,424.992z M785.829,472
		C709.364,844.631,82.578,830.576,154.331,348.834C176.1,205.327,277.517,106.638,423.852,97.417
		C636.949,71.111,818.353,260.572,785.829,472z"/>
	<path fill="#A0D8E8" d="M785.297,272.32C645.363-21.669,158.757,8.925,115.532,355.056
		C20.698,1010.652,1028.835,853.725,785.297,272.32z M163.454,336.328c24.014-133.406,125.896-224.53,261.333-232.38
		c9.499-1.172,18.933-1.902,28.286-2.217l-3.326,624.443C279.239,724.579,117.027,599.079,163.454,336.328z M779.293,470.802
		c-32.18,158.685-167.105,245.815-303.285,254.643l-1.283-623.693C660.862,108.35,808.562,280.487,779.293,470.802z"/>
	<path fill="#54BDCF" d="M847.551,218.998c-14.949-24.441-32.127-47.37-51.255-68.502l-685.506,8.331
		c-13.09,15.184-25.2,31.238-36.229,48.063c13.311,14.61,32.563,23.687,53.881,23.428c34.28-0.417,62.632-24.831,69.319-57.072
		c7.468,32.068,36.404,55.786,70.685,55.37c34.28-0.417,62.632-24.831,69.319-57.071c7.468,32.068,36.404,55.786,70.685,55.37
		s62.632-24.831,69.319-57.071c7.468,32.068,36.405,55.786,70.685,55.37c34.281-0.417,62.632-24.831,69.319-57.072
		c7.468,32.068,36.405,55.786,70.685,55.37c34.281-0.417,62.633-24.831,69.319-57.072c7.469,32.068,36.405,55.786,70.686,55.37
		C835.083,221.728,841.484,220.753,847.551,218.998z"/>
	<path fill="#275F88" d="M110.842,158.767l685.4-8.33C712.582,58.043,591.682,0,457.223,0C318.767,0,194.688,61.545,110.842,158.767
		z"/>
	<path fill="#3F749A" d="M162.709,107.479c-3.543,22.421-4.131,40.562-4.09,50.707l612.865-7.448
		c-0.876-6.362-2.622-17.199-5.807-31.014C684.363,45.366,576.093,0,457.223,0C345.024,0,242.268,40.416,162.709,107.479z"/>
	<path fill="#558AAA" d="M357.943,10.816c-72.177,39.523-82.321,116.113-83.435,145.962l374.462-4.551
		c-4.823-27.414-23.203-100.508-85.704-139.858C529.233,4.287,493.729,0,457.223,0C423.128,0,389.908,3.739,357.943,10.816z"/>
</g>
<g id="Layer_1">
</g>
</svg>
