<?xml version="1.0" encoding="utf-8"?>
<!-- Generator: Adobe Illustrator 24.2.3, SVG Export Plug-In . SVG Version: 6.00 Build 0)  -->
<svg version="1.1" xmlns="http://www.w3.org/2000/svg" xmlns:xlink="http://www.w3.org/1999/xlink" x="0px" y="0px"
	 viewBox="0 0 991.033 766.771" enable-background="new 0 0 991.033 766.771" xml:space="preserve">
<g id="neposenkello_x5F_bathtub">
	<path fill="#FBECF3" d="M494.347,498.322c210.486-5.199,493.387-39.109,493.387-39.109s-49.38,190.556-240.026,265.869
		c-90.849,35.889-285.617,70.805-470.942,3.362C101.023,664.487,41.772,523.065,36.609,480.235
		C36.325,477.886,353.516,501.801,494.347,498.322z"/>
	<path opacity="0.3" fill="#C1A174" d="M58.973,529.814c6.878-4.308,193.664,84.048,406.497,77.616
		c380.671-11.504,478.755-115.105,484.113-110.504c8.586,7.373-119.713,190.751-541.996,168.387
		C148.229,651.577,50.265,535.268,58.973,529.814z"/>
	<path id="XMLID_1559_" fill="#FBECF3" d="M191.876,594.548C115.403,577.242,60.378,547.747,29.92,517.04
		C-36.491,450.087,7.503,367.563,163.4,320.315c79.764-24.175,185.258-37.635,288.029-43.149
		c104.468-5.604,216.733-3.053,312.972,13.35C959,323.682,1019.535,411.829,979.18,481.669
		c-22.757,39.384-78.805,79.582-168.479,103.448C681.139,619.598,505.861,665.603,191.876,594.548z"/>
	<path id="XMLID_1558_" fill="#54BDCF" d="M221.64,536.344C-4.876,491.56,80.466,392.164,200.339,362.85
		c59.782-14.619,142.667-30.032,244.792-35.745c310.144-17.347,396.231,40.348,416.555,55.866
		c29.035,22.167,42.753,94.279-119.67,141.447C659.544,548.37,461.599,583.786,221.64,536.344z"/>
	<path fill="#54BDCF" d="M816.163,414.577c2.413-2.063,19.409-108.428,19.409-108.428l15.553-2.707l15.351,117.049L816.163,414.577z
		"/>
	<path id="XMLID_1557_" fill="#FDE40B" d="M884.478,368.429c-6.569-39.108,28.378-45.012,46.661-33.726
		c9.118,5.629,20.403,14.294,30.599,27.328c30.966,39.583,22.102,61.667,19.479,67.217c-3.746,7.929-22.73,22.616-49.583,8.645
		C917.999,430.801,891.438,409.858,884.478,368.429z"/>
	<path fill="#FDE40B" d="M842.042,282.98c-11.661,10.819-11.067,24.161-10.842,29.183c0.015,0.33,0.03,0.625,0.034,0.881l0.12-0.003
		c0,0.002-0.002,0.004-0.002,0.006c0.023,1.158,5.316,1.993,11.822,1.865c6.506-0.128,11.762-1.17,11.739-2.329
		c0-0.004-0.004-0.009-0.004-0.013c-0.009-0.427-0.028-0.917-0.053-1.464c-0.187-4.198-0.064-7.656,3.292-10.77
		c11.963-11.099,48.986-8.011,64.35-6.17l2.82-23.512C883.61,265.655,856.369,269.685,842.042,282.98z"/>
	<path fill="#FCA419" d="M920.621,360.125l0.022,0.001l0.793-28.329l-23.379-0.654l-0.793,28.329l0.022,0.001
		c-0.018,0.08-0.042,0.159-0.045,0.24c-0.058,2.066,5.136,3.889,11.601,4.07s11.753-1.348,11.81-3.414
		C920.654,360.286,920.634,360.206,920.621,360.125z"/>
	<path fill="#3F749A" d="M887.958,339.447c14.26,0.76,35.412-0.959,43.743-2.258c-0.506-3.534-1.408-21.815-22.661-20.07
		C885.431,319.058,888.011,338.773,887.958,339.447z"/>
	<path fill="#FDE40B" d="M945.66,390.939h-26.536V71.962c0-21.114-5.391-36.151-15.179-42.34
		c-6.036-3.816-13.858-4.092-20.925-0.738c-8.742,4.15-23.613,21.335-31.38,32.213l-21.596-15.42
		c0.227-0.317,5.64-7.876,13.13-16.452c10.841-12.413,20.152-20.364,28.465-24.311c15.335-7.28,32.713-6.428,46.486,2.279
		c8.739,5.525,15.554,13.78,20.257,24.534c4.83,11.047,7.28,24.585,7.28,40.235L945.66,390.939L945.66,390.939z"/>
	<path fill="#FDE40B" d="M776.832,59.658c0,0,33.691-29.772,66.716-9.131c34.809,21.755,15.507,66.176,15.507,66.176L776.832,59.658
		z"/>
	
		<ellipse transform="matrix(0.57 -0.8216 0.8216 0.57 278.7927 709.8341)" fill="#FCA419" cx="817.593" cy="88.55" rx="6.892" ry="50.035"/>
	<path fill="#FCA419" d="M959.636,407.084h0.022v-28.34h-23.389v28.34h0.022c-0.016,0.08-0.038,0.16-0.038,0.241
		c0,2.067,5.243,3.743,11.711,3.743s11.711-1.676,11.711-3.743C959.675,407.244,959.652,407.164,959.636,407.084z"/>
	<path fill="#C30D26" d="M926.409,387.327c14.276,0.361,35.372-1.948,43.662-3.479c-0.604-3.518-2.017-21.767-23.213-19.428
		C923.313,367.017,926.442,386.65,926.409,387.327z"/>
	<path fill="#69B802" d="M652.823,539.827c3.388-16.94,135.502-61.913,179.655-65.272c56.649-4.31,69.062,137.217,57.786,145.381
		c-11.276,8.163-168.477,106.153-179.755,104.257C684.078,590.377,649.819,554.847,652.823,539.827z"/>
	<path id="XMLID_1556_" fill="#A3D02A" d="M772.049,557.994l-28.218-22.398l16.135-8.238l18.529,25.23
		c-0.197,0.112-0.4,0.218-0.593,0.336C777.902,552.924,774.774,555.06,772.049,557.994z"/>
	<path id="XMLID_1555_" fill="#A3D02A" d="M768.465,563.353l-31.218-13.961l11.901-1.337l21.321,11.816
		c-0.492,0.653-0.939,1.327-1.308,2.013C768.903,562.361,768.677,562.854,768.465,563.353z"/>
	<path id="XMLID_1554_" fill="#FDA519" d="M799.414,550.618c16.384,10.338,38.688,43.998,44.057,60.168
		c3.858,11.62-62.115-5.456-78.901-35.607c-2.435-4.373-2.74-15.116,3.168-21.478C777.592,543.091,789.321,544.249,799.414,550.618z
		"/>
	<g id="toothbrush">
		<g id="Layer_1_171_">
		</g>
	</g>
</g>
<g id="Layer_1">
</g>
</svg>
