<?xml version="1.0" encoding="utf-8"?>
<!-- Generator: Adobe Illustrator 24.2.3, SVG Export Plug-In . SVG Version: 6.00 Build 0)  -->
<svg version="1.1" xmlns="http://www.w3.org/2000/svg" xmlns:xlink="http://www.w3.org/1999/xlink" x="0px" y="0px"
	 viewBox="0 0 914.446 914.446" enable-background="new 0 0 914.446 914.446" xml:space="preserve">
<g id="neposenkello_x5F_bedroom_x5F_lights_x5F_off">
	<circle fill="#275F88" cx="457.223" cy="457.223" r="457.223"/>
	<g>
		<path opacity="0.3" fill="#4B4B4A" d="M438.218,452.02c13.7-37.217,11.696-327.783,10.185-451.927
			C199.957,4.795,0,207.653,0,457.223c0,61.211,12.029,119.611,33.851,172.969C149.255,592.095,424.383,489.603,438.218,452.02z"/>
		<path fill="none" d="M457.223,0c-2.947,0-5.886,0.037-8.82,0.093c1.511,124.145,3.516,414.71-10.185,451.927
			c-13.835,37.583-288.963,140.075-404.367,178.172c68.201,166.762,232.065,284.254,423.372,284.254
			c252.518,0,457.223-204.706,457.223-457.223S709.74,0,457.223,0z"/>
	</g>
	<g>
		<path fill="#3F749A" d="M18.366,585.906c55.582,189.866,231.021,328.54,438.857,328.54c200.394,0,370.669-128.922,432.429-308.347
			c-98.796-59.404-262.796-133.194-447.857-171.838C441.795,434.261,231.853,500.223,18.366,585.906z"/>
		<path fill="none" d="M456.383,429.609c185.061,38.644,334.473,117.086,433.27,176.49c16.064-46.669,24.794-96.752,24.794-148.876
			C914.446,204.706,709.74,0,457.223,0C204.706,0,0,204.706,0,457.223c0,44.682,6.417,87.864,18.366,128.683
			C231.853,500.223,456.383,429.609,456.383,429.609z"/>
	</g>
	<g>
		<g>
			<path id="XMLID_2071_" opacity="0.3" fill="#4B4B4A" d="M273.088,393.267c-91.104,0.957-153.261-75.953-142.125-164.708
				l302.461-27.967C454.602,326.012,358.794,401.719,273.088,393.267z"/>
			<path id="XMLID_2070_" fill="#275F88" d="M409.541,218.701c2.48,67.078-41.742,131.166-117.597,133.868
				c-67.082,2.39-123.467-49.887-125.948-116.965L409.541,218.701z"/>
			<path id="XMLID_2069_" fill="#558AAA" d="M426.549,209.198c0,0-274.851,20.675-274.845,20.703
				c3.745,62.492,40.71,126.318,107.536,134.626c55.038,6.842,114.089-21.144,145.035-66.867
				C419.188,275.626,428.394,235.8,426.549,209.198z M199.396,309.223c-20.168-19.121-28.062-45.701-29.151-72.949
				c0.009,0.255,51.104-2.696,105.479-5.908l2.717,111.663c-1.852-0.158-3.699-0.347-5.54-0.571
				C246.219,338.204,219.118,327.921,199.396,309.223z M394.145,279.543c-8.962,22.101-25.034,39.937-46.453,50.551
				c-15.093,7.479-31.686,11.363-48.459,12.279l-5.199-113.092c55.892-3.317,109.607-6.561,109.607-6.561
				C408.142,247.683,403.449,256.603,394.145,279.543z"/>
			<path id="XMLID_2067_" fill="#3F749A" d="M277.379,77.713c75.242-6.39,173.568,53.354,162.432,142.11l-316.496,25.362
				C113.284,148.713,191.699,84.467,277.379,77.713z"/>
			<path id="XMLID_2066_" fill="#558AAA" d="M279.908,115.597c56.272-4.779,129.809,39.903,121.481,106.282l-236.703,18.968
				C157.184,168.697,215.829,120.648,279.908,115.597z"/>
			<path id="XMLID_2068_" fill="#80D8E2" d="M152.377,268.932c12.864-1.031,22.889-10.923,24.578-23.202
				c3.623,11.853,15.095,20.023,27.96,18.992c12.864-1.031,22.889-10.923,24.578-23.202c3.623,11.853,15.095,20.023,27.959,18.992
				c12.864-1.031,22.889-10.923,24.578-23.202c3.623,11.853,15.095,20.023,27.959,18.992c12.864-1.031,22.889-10.923,24.578-23.202
				c3.623,11.853,15.095,20.023,27.96,18.992s22.889-10.923,24.578-23.202c3.623,11.853,15.095,20.023,27.96,18.992
				c14.858-1.191,25.939-14.201,24.748-29.06l-316.496,25.362C124.508,259.042,137.518,270.123,152.377,268.932z"/>
		</g>
		<path id="XMLID_2065_" fill="#54BDCF" d="M289.53,144.194c42.03-3.569,96.956,29.804,90.736,79.383l-176.797,14.167
			C197.865,183.855,241.668,147.967,289.53,144.194z"/>
	</g>
	<g opacity="0.3">
		<path fill="#4B4B4A" d="M541.505,131.745l7-24.108l-7.486,7.056l-3.163,15.845c-0.909-0.207-1.873-0.357-2.879-0.461l0.831-25.787
			l-14.359,5.997l5.108,21.406c-7.1,3.006-10.688,9.653-11.776,17.359c-2.325,16.477,7.344,49.786,14.957,62.284
			C535.295,223.4,570.762,144.821,541.505,131.745z"/>
		<path fill="#4B4B4A" d="M501.623,50.55l7-24.108l-7.486,7.056l-3.163,15.845c-0.909-0.207-1.873-0.357-2.879-0.461l0.831-25.787
			l-14.359,5.997l5.108,21.406c-7.1,3.006-10.688,9.653-11.775,17.359c-2.326,16.477,7.343,49.786,14.956,62.284
			C495.413,142.205,530.881,63.627,501.623,50.55z"/>
		<path fill="#4B4B4A" d="M495.373,217.226l7-24.108l-7.486,7.056l-3.163,15.845c-0.909-0.207-1.873-0.357-2.879-0.461l0.831-25.787
			l-14.359,5.997l5.108,21.406c-7.1,3.006-10.688,9.653-11.775,17.36c-2.326,16.477,7.343,49.786,14.956,62.284
			C489.163,308.88,524.63,230.302,495.373,217.226z"/>
		<path fill="#4B4B4A" d="M605.054,82.766l7-24.108l-7.485,7.056l-3.163,15.845c-0.909-0.207-1.873-0.357-2.879-0.461l0.831-25.787
			l-14.359,5.997l5.108,21.406c-7.1,3.006-10.688,9.653-11.775,17.36c-2.325,16.477,7.343,49.786,14.956,62.284
			C598.844,174.421,634.311,95.843,605.054,82.766z"/>
		<path fill="#4B4B4A" d="M764.874,161.74l7-24.108l-7.485,7.056l-3.163,15.845c-0.909-0.207-1.873-0.357-2.879-0.461l0.831-25.787
			l-14.359,5.997l5.108,21.406c-7.1,3.006-10.688,9.654-11.775,17.36c-2.325,16.477,7.343,49.786,14.956,62.284
			C758.665,253.395,794.132,174.816,764.874,161.74z"/>
		<path fill="#4B4B4A" d="M829.244,252.637l7-24.108l-7.485,7.056l-3.163,15.845c-0.909-0.207-1.872-0.357-2.878-0.461l0.831-25.786
			l-14.359,5.996l5.108,21.406c-7.1,3.006-10.688,9.653-11.775,17.36c-2.325,16.477,7.343,49.786,14.957,62.284
			C823.035,344.292,858.502,265.714,829.244,252.637z"/>
		<path fill="#4B4B4A" d="M804.927,379.427l7-24.108l-7.486,7.056l-3.163,15.845c-0.909-0.207-1.873-0.357-2.879-0.461l0.831-25.786
			l-14.359,5.996l5.108,21.406c-7.1,3.006-10.688,9.653-11.776,17.36c-2.325,16.477,7.344,49.786,14.957,62.284
			C798.718,471.082,834.184,392.504,804.927,379.427z"/>
		<path fill="#4B4B4A" d="M883.382,403.711l7-24.108l-7.486,7.056l-3.163,15.845c-0.909-0.207-1.873-0.357-2.879-0.461l0.831-25.787
			l-14.359,5.997l5.108,21.406c-7.1,3.006-10.688,9.653-11.775,17.359c-2.326,16.477,7.343,49.786,14.956,62.284
			C877.172,495.365,912.639,416.787,883.382,403.711z"/>
	</g>
	<g>
		<path opacity="0.3" fill="#4B4B4A" d="M702.141,115.821c-10.066-21.509-31.314-23.007-48.83-13.302
			c-13.106,7.261-27.895,34.652-17.263,67.152c10.723,32.778,44.208,31.739,57.609,16.163
			C710.551,166.197,710.409,133.488,702.141,115.821z"/>
		<g>
			<path fill="#3F749A" d="M692.33,114.774c-10.066-21.509-31.314-23.007-48.83-13.302c-13.106,7.261-27.895,34.652-17.263,67.152
				c10.723,32.778,44.208,31.739,57.609,16.163C700.74,165.15,700.597,132.441,692.33,114.774z"/>
			<polygon fill="#80D8E2" points="665.246,162.924 653.625,162.924 638.39,126.254 653.625,123.635 			"/>
			<polygon fill="#54BDCF" points="665.246,162.924 670.005,162.924 670.005,123.635 653.625,123.635 			"/>
		</g>
	</g>
</g>
<g id="Layer_1">
</g>
</svg>
