<?xml version="1.0" encoding="utf-8"?>
<!-- Generator: Adobe Illustrator 24.2.3, SVG Export Plug-In . SVG Version: 6.00 Build 0)  -->
<svg version="1.1" xmlns="http://www.w3.org/2000/svg" xmlns:xlink="http://www.w3.org/1999/xlink" x="0px" y="0px"
	 viewBox="0 0 914.446 914.446" enable-background="new 0 0 914.446 914.446" xml:space="preserve">
<g id="neposenkello_x5F_bed_x5F_closeup_x5F_bg">
	<circle fill="#F77F15" cx="457.223" cy="457.223" r="457.223"/>
	<g>
		<g>
			<path id="XMLID_2015_" fill="#BF7900" d="M544.384,125.38l1.849-57.406l-26.652,11.13l11.584,48.543
				c0.34-0.125,0.677-0.262,1.02-0.375C532.185,127.273,538.007,125.669,544.384,125.38z"/>
			<path id="XMLID_2014_" fill="#BF7900" d="M554.597,126.545l15.202-52.359l-13.894,13.096l-7.607,38.11
				C550.493,125.506,552.54,125.883,554.597,126.545z"/>
			<path id="XMLID_1615_" fill="#FDA519" d="M507.206,151.056c-4.316,30.583,13.63,92.406,27.76,115.604
				c11.037,23.956,85.638-144.691,8.644-150.951C520.545,116.758,509.864,132.218,507.206,151.056z"/>
		</g>
		<g>
			<path id="XMLID_1549_" fill="#BF7900" d="M366.432,73.729l1.849-57.406l-26.652,11.13l11.584,48.543
				c0.34-0.125,0.677-0.262,1.02-0.375C354.233,75.622,360.055,74.018,366.432,73.729z"/>
			<path id="XMLID_1548_" fill="#BF7900" d="M376.645,74.894l15.202-52.359l-13.894,13.096l-7.607,38.11
				C372.54,73.855,374.587,74.232,376.645,74.894z"/>
			<path id="XMLID_1547_" fill="#FDA519" d="M329.254,99.405c-4.316,30.583,13.63,92.406,27.76,115.604
				c11.037,23.956,85.638-144.691,8.644-150.951C342.593,65.107,331.912,80.567,329.254,99.405z"/>
		</g>
		<g>
			<path id="XMLID_1618_" fill="#BF7900" d="M704.206,145.555l1.849-57.406l-26.652,11.13l11.584,48.543
				c0.34-0.125,0.677-0.262,1.02-0.375C692.007,147.448,697.829,145.844,704.206,145.555z"/>
			<path id="XMLID_1617_" fill="#BF7900" d="M714.419,146.72l15.202-52.359l-13.894,13.096l-7.607,38.11
				C710.315,145.68,712.362,146.057,714.419,146.72z"/>
			<path id="XMLID_1616_" fill="#FDA519" d="M667.028,171.231c-4.316,30.583,13.63,92.406,27.76,115.604
				c11.037,23.956,85.638-144.691,8.644-150.951C680.367,136.933,669.686,152.393,667.028,171.231z"/>
		</g>
		<path fill="#FDA519" d="M885.972,298.058c-8.525-22.955-18.84-45.038-30.776-66.082c-0.7-0.088-1.409-0.166-2.135-0.225
			c-23.065,1.049-33.746,16.509-36.404,35.347c-4.316,30.583,13.63,92.406,27.76,115.604
			C850.873,396.718,879.088,344.805,885.972,298.058z"/>
		<g>
			<path id="XMLID_1624_" fill="#BF7900" d="M777.153,401.183l1.849-57.406l-26.652,11.13l11.584,48.543
				c0.34-0.125,0.677-0.262,1.02-0.375C764.954,403.076,770.776,401.472,777.153,401.183z"/>
			<path id="XMLID_1623_" fill="#BF7900" d="M787.366,402.348l15.202-52.359l-13.894,13.096l-7.607,38.11
				c1.301,0.075,2.582,0.226,3.797,0.484C785.708,401.858,786.54,402.091,787.366,402.348z"/>
			<path id="XMLID_1622_" fill="#FDA519" d="M739.975,426.859c-4.316,30.583,13.63,92.406,27.76,115.604
				c11.037,23.956,85.638-144.691,8.644-150.951C753.314,392.561,742.633,408.021,739.975,426.859z"/>
		</g>
		<g>
			<path id="XMLID_1627_" fill="#BF7900" d="M576.435,355.416l1.849-57.406l-26.652,11.13l11.584,48.543
				c0.34-0.125,0.677-0.262,1.02-0.375C564.236,357.309,570.058,355.705,576.435,355.416z"/>
			<path id="XMLID_1626_" fill="#BF7900" d="M586.648,356.581l15.202-52.359l-13.894,13.096l-7.607,38.11
				C582.544,355.541,584.591,355.918,586.648,356.581z"/>
			<path id="XMLID_1625_" fill="#FDA519" d="M539.257,381.092c-4.316,30.583,13.63,92.406,27.76,115.604
				c11.037,23.956,85.638-144.691,8.644-150.951C552.596,346.794,541.915,362.254,539.257,381.092z"/>
		</g>
	</g>
	<path fill="#558AAA" d="M351.469,98.81c-9.998-1.574-22.08-2.238-35.78-2.117l152.737,95.048
		C437.734,137.928,392.421,105.258,351.469,98.81z"/>
	<path fill="#558AAA" d="M493.186,251.158c-84.79-53.038-173.684-108.379-241.423-149.908c-18.931,2.226-39.046,5.191-59.729,8.728
		L503.156,303.59C501.252,285.005,497.837,267.504,493.186,251.158z"/>
	<circle fill="none" cx="457.223" cy="457.223" r="457.223"/>
	<path fill="#54BDCF" d="M457.223,914.446c197.486,0,365.727-125.206,429.678-300.567c-86.699-15.515-201.051-28.161-278.658-53.039
		c-104.626-33.539-208.564-97.206-316.185-75.089c-22.852,4.696-44.721,13.189-66.463,21.645
		C156.7,534.189,87.804,560.981,18.909,587.773C75.091,776.682,250.069,914.446,457.223,914.446z"/>
	<path fill="#6BA4C1" d="M591.347,680.716c0,0-52.396-53.15-137.892-66.805c31.961-46.01,7.101-109.296,7.101-109.296
		s-192.415-98.342-392.583,16.99c-18.016,10.38-39.094,25.899-55.042,44.025c11.157,45.885,29.237,89.062,53.071,128.361
		c37.492,11.877,81.668,13.223,126.08,8.873c2.284,11.822,8.041,28.801,18.225,53.479
		c75.626,183.248,346.135,139.617,392.674,75.626C663.544,748.696,591.347,680.716,591.347,680.716z"/>
	<path fill="#3F749A" d="M351.469,98.81c-41.744-6.573-119.827,2.727-200.315,18.749C58.345,201.243,0,322.417,0,457.223
		c0,63.01,12.748,123.043,35.801,177.661c146.313,30.045,396.263-19.144,444.391-158.633
		C555.608,257.674,442.705,113.175,351.469,98.81z"/>
	<g>
		<path fill="#558AAA" d="M41.847,265.899l411.775,257.999c7.47-9.382,13.889-19.333,19.104-29.859
			C373.604,427.324,191.401,304.976,65.15,221.88C56.614,236.069,48.832,250.762,41.847,265.899z"/>
		<path fill="#558AAA" d="M155.957,116.615c-0.834,0.164-1.669,0.327-2.504,0.492c-0.769,0.152-1.538,0.306-2.307,0.459
			c-9.932,8.956-19.466,18.344-28.579,28.129c123.453,83.928,288.654,195.568,376.829,256.181c0.357-2.114,0.692-4.218,1.012-6.314
			c0.038-0.246,0.076-0.491,0.113-0.737c0.643-4.256,1.212-8.474,1.708-12.655c0.024-0.201,0.047-0.402,0.071-0.603
			c0.497-4.237,0.921-8.436,1.272-12.595c0.007-0.089,0.014-0.178,0.022-0.268c0.533-6.374,0.898-12.655,1.102-18.84
			c0-0.014,0.001-0.028,0.001-0.043L155.957,116.615z"/>
		<path fill="#558AAA" d="M105.479,165.115c-7.103,8.543-13.905,17.346-20.381,26.399l397.796,276.668
			c2.854-8.738,5.408-17.356,7.673-25.847c0.004-0.017,0.009-0.034,0.014-0.051c0.446-1.673,0.881-3.342,1.305-5.005
			c0.008-0.03,0.016-0.06,0.023-0.089c0.859-3.374,1.673-6.728,2.441-10.062C394.352,359.29,229.327,247.607,105.479,165.115z"/>
		<path fill="#558AAA" d="M466.223,187.951c-46.626-29.895-95.051-61.444-140.939-91.2c-28.256-0.579-64.818,2.757-104.79,8.683
			l276.512,160.645C490.245,236.481,479.507,210.308,466.223,187.951z"/>
	</g>
	<path fill="#FFFFFF" d="M475.257,513.323c-0.485,0.011-0.959,0.062-1.436,0.104c13.662-37.988,36.008-131.765-22.239-239.645
		c10.275-1.905,17.95-10.843,17.708-21.427c-0.269-11.775-10.224-21.098-22.235-20.823c-10.817,0.248-19.587,8.204-21.031,18.384
		c-52.225-21.74-223.802-77.046-396.404,45.075C10.479,345.41,0,400.092,0,457.223c0,42.777,5.881,84.18,16.868,123.45
		c10.019,19.017,23.152,36.714,40.177,52.081c-7.655,2.439-13.409,8.912-14.737,16.807c3.488,7.51,7.175,14.909,11.051,22.192
		c3.23,1.727,6.942,2.687,10.886,2.597c12.011-0.275,21.529-10.043,21.26-21.818c-0.04-1.731-0.311-3.398-0.745-4.999
		c50.289,5.268,261.909,19.181,371.301-103.813c3.55,7.4,11.292,12.448,20.17,12.245c12.011-0.275,21.529-10.043,21.26-21.818
		C497.222,522.372,487.267,513.048,475.257,513.323z"/>
</g>
<g id="Layer_1">
</g>
</svg>
