<?xml version="1.0" encoding="utf-8"?>
<!-- Generator: Adobe Illustrator 24.2.3, SVG Export Plug-In . SVG Version: 6.00 Build 0)  -->
<svg version="1.1" xmlns="http://www.w3.org/2000/svg" xmlns:xlink="http://www.w3.org/1999/xlink" x="0px" y="0px"
	 viewBox="0 0 446.585 376.516" enable-background="new 0 0 446.585 376.516" xml:space="preserve">
<g id="neponen_x5F_rollercoaster">
	<path id="XMLID_121_" fill="#BDBBBE" d="M433.472,331.224l13.113-11.739c0,0-57.916-63.694-405.459-70.565l-11.714,6.494
		c0,0,5.831,0.098,16.111,0.436l-17.996,12.804c-6.53-0.657-13.159-1.301-19.914-1.928L0,273.21c0,0,308.441,25.015,382.63,103.306
		l14.227-10.362c0,0-6.131-7.413-26.175-18.46l34.744-34.219C416.5,318.88,425.997,324.778,433.472,331.224z M345.78,292.23
		l-27.21,32.715c-6.433-2.295-13.361-4.627-20.822-6.981l28.392-30.646C332.836,288.879,339.393,290.514,345.78,292.23z
		 M316.312,285.1l-28.209,29.901c-48.873-14.63-118.541-29.783-217.029-41.561l11.782-15.993
		C141.213,260.468,236.944,267.785,316.312,285.1z M64.876,272.707c-3.864-0.451-7.766-0.897-11.718-1.337l13.568-14.696
		c3.212,0.141,6.601,0.3,10.146,0.473L64.876,272.707z M51.241,256.049c2.531,0.092,5.254,0.196,8.16,0.313l-13.653,14.192
		c-3.777-0.409-7.602-0.811-11.458-1.21L51.241,256.049z M355.452,339.968c-7.244-3.405-15.655-7.019-25.392-10.766l31.641-32.417
		c8.819,2.692,17.214,5.557,25.082,8.608L355.452,339.968z"/>
	<path id="XMLID_119_" fill="#A42B0E" d="M158.056,202.63c0,0-5.402,37.837,25.061,37.747c30.463-0.09,57.727-8.785,57.727-8.785
		l-7.473,44.019l-89.565,2.282L99.06,236.074l3.996-16.858L158.056,202.63z"/>
	<path id="XMLID_69_" fill-rule="evenodd" clip-rule="evenodd" fill="#DDD3C2" d="M123.339,107.781
		c-6.645,5.981-15.081,3.357-23.967-1.869c8.735,2.265,15.415-17.257,22.334-10.985
		C127.624,100.291,126.019,105.369,123.339,107.781L123.339,107.781z"/>
	<path id="XMLID_19_" fill-rule="evenodd" clip-rule="evenodd" fill="#DDD3C2" d="M122.331,90.475c0,0,1.198-3.231,6.983-7.622
		c4.174-3.169,5.302-6.863,5.449-9.179c2.475,3.263,5.961,16.897-0.87,22.12C127.06,101.014,123.465,95.816,122.331,90.475
		L122.331,90.475z"/>
	<path id="XMLID_5_" fill-rule="evenodd" clip-rule="evenodd" fill="#CDC1AD" d="M98.355,11.309
		c2.274,2.97,0.091,14.49,8.655,39.632c7.59,22.28,20.652,33.613,25.136,38.385c6.875,7.318-4.684,16.756-13.632,12.145
		C107.223,95.653,98.7,87.458,97.462,85.325C96.107,82.99,84.595,72.46,86.679,43.668c2.109-29.116,5.356-29.943,6.402-32.418
		C94.127,8.775,97.135,9.715,98.355,11.309L98.355,11.309z"/>
	<path fill-rule="evenodd" clip-rule="evenodd" fill="#B09A66" d="M122.977,94.938c-7.714-6.476-15.002-11.727-20.312-17.761
		c-5.31-6.034-10.355-17.905-8.389-35.091c1.967-17.186-0.028-17.713,1.706-23.079c0.628-1.944,1.937-3.494,3.349-4.688
		c0.854,5.341,0.894,16.703,7.679,36.621c7.59,22.28,20.653,33.613,25.137,38.385c3.841,4.089,1.925,8.838-2.072,11.43
		C128.662,99.644,126.435,97.84,122.977,94.938z"/>
	<path id="XMLID_75_" fill-rule="evenodd" clip-rule="evenodd" fill="#CDC1AD" d="M187.944,2.299
		c-1.544,3.407,3.186,14.135,0.525,40.563c-2.358,23.419-12.522,37.411-15.812,43.072c-5.043,8.683,8.349,15.264,16.024,8.751
		c9.684-8.219,16.186-21.653,16.91-24.01c0.792-2.581,6.776-7.381-1.762-34.957c-8.634-27.886-9.184-32.493-10.763-34.667
		C191.489-1.125,188.772,0.47,187.944,2.299L187.944,2.299z"/>
	<path fill-rule="evenodd" clip-rule="evenodd" fill="#B09A66" d="M182.857,89.329c6.051-8.052,11.964-14.814,15.773-21.891
		c3.809-7.078,6.041-19.782,0.242-36.079s-3.976-17.261-6.877-22.096c-1.051-1.752-2.677-2.966-4.322-3.81
		c0.375,5.396,2.904,16.473,0.795,37.409c-2.358,23.419-12.522,37.41-15.812,43.072c-2.818,4.851,0.122,9.044,4.601,10.666
		C178.382,95.197,180.144,92.937,182.857,89.329z"/>
	<path fill-rule="evenodd" clip-rule="evenodd" fill="#B09A66" d="M246.327,152.84c-1.165-0.861-2.335,0.526-3.84,2.597
		c-0.078-0.094-0.159-0.187-0.243-0.279c0.124-0.152,0.244-0.296,0.353-0.418c2.052-2.288,3.618-4.629,1.984-6.045
		c-0.795-0.689-1.603-0.629-2.508-0.101c0.149-0.566,0.084-1.127-0.369-1.603c-1.472-1.549-5.75,1.957-7.767,4.206
		c-1.109,1.235-2.335,2.999-3.218,4.34c-1.03,1.397-2.069,3.142-2.646,4.966c-1.264,3.988,7.133,9.285,10.44,6.114
		c1.894-2.009,3.667-3.994,6.695-8.253C246.961,155.901,247.348,153.594,246.327,152.84z"/>
	<path id="XMLID_91_" fill-rule="evenodd" clip-rule="evenodd" fill="#806D41" d="M232.161,158.145c0,0,2.146-3.114,3.57-4.076
		s2.545-1.273,3.073,0.126c0.432,1.144-2.131,5.624-2.131,5.624s3.944-4.764,3.545-6.699c-0.276-1.341-2.2-2.659-4.757-0.3
		C233.37,154.746,232.161,158.145,232.161,158.145L232.161,158.145z"/>
	<path fill-rule="evenodd" clip-rule="evenodd" fill="#B09A66" d="M117.197,165.208c-1.029-1.507-2.46-2.798-3.815-3.778
		c-0.82-1.122-1.244-1.857-1.68-2.364c-1.783-2.074-3.169-2.32-4.056-1.758c-1.227-1.177-3.487-3.844-5.055-3.202
		c-0.941,0.385-1.553,1.192-1.387,2.347c-0.702-0.651-1.497-0.831-2.578-0.098c-1,0.678-0.917,2.151-0.404,3.613
		c-0.241-0.044-0.49-0.032-0.752,0.096c-1.596,0.777-0.949,3.052,0.446,5.371c0.801,1.33,2.526,3.012,3.865,4.215
		c0.018,0.018,0.028,0.039,0.047,0.057c1.251,1.151,7.053,5.074,10.078,7.378C115.955,180.166,119.665,168.822,117.197,165.208z"/>
	<path id="XMLID_85_" fill-rule="evenodd" clip-rule="evenodd" fill="#8F7339" d="M206.061,212.101
		c4.042-3.402,29.574-42.643,29.574-42.643l-8.37-7.379c0,0-0.318,0.382-0.866,1.042c-2.57,3.095-28.288,36.293-28.288,36.293
		L206.061,212.101z"/>
	<path id="XMLID_84_" fill-rule="evenodd" clip-rule="evenodd" fill="#4E311F" d="M224.852,164.61c0,0,2.254-3.503,2.873-3.659
		c1.038-0.135,2.644,1.113,5.139,3.215c2.495,2.101,3.789,3.707,3.942,4.516c0.152,0.809-2.982,3.327-2.982,3.327
		c-1.544-1.429-2.629-2.246-4.405-3.82C228.121,167.037,226.327,165.743,224.852,164.61L224.852,164.61z"/>
	<path id="XMLID_83_" fill-rule="evenodd" clip-rule="evenodd" fill="#8F7339" d="M195.625,196.819c0,0,35.573,84.999,43.512,91.905
		c-2.706,2.376-85.327,12.89-88.39,12.049c3.503-10.331,4.828-98.944,4.828-98.944L195.625,196.819L195.625,196.819z"/>
	<path id="XMLID_82_" fill-rule="evenodd" clip-rule="evenodd" fill="#8F7339" d="M161.679,217.674
		c-4.73-2.352-51.029-41.501-51.029-41.501l7.146-9.677c0,0,39.429,30.222,46.531,35.321
		C171.169,206.731,161.679,217.674,161.679,217.674z"/>
	<path id="XMLID_81_" fill-rule="evenodd" clip-rule="evenodd" fill="#4E311F" d="M121.335,168.407c0,0-2.801-2.692-3.441-2.688
		c-1.039,0.128-2.529,2.503-4.426,5.157s-3.291,4.57-3.238,5.392c0.053,0.822,3.82,2.807,3.82,2.807
		c1.141-1.766,2.107-3.555,3.438-5.521C118.461,172.116,120.187,169.871,121.335,168.407L121.335,168.407z"/>
	<path id="XMLID_78_" fill-rule="evenodd" clip-rule="evenodd" fill="#4E311F" d="M156.386,202.136c0,0,1.088,21.611,3.068,23.089
		c5.203,3.39,32.482,5.994,37.083,6.234c25.676-12.597,19.472-19.788,2.516-34.685L156.386,202.136z"/>
	<path id="XMLID_77_" fill-rule="evenodd" clip-rule="evenodd" fill="#CB8626" d="M195.96,223.359
		c-2.245,0.92-4.225,1.239-6.896-0.742s-2.4-4.984-0.556-6.84c1.843-1.856,5.458-2.141,7.805-0.016
		C198.659,217.886,199.122,222.063,195.96,223.359L195.96,223.359z M193.511,220.31c1.29-0.392,2.116,1.305,0.585,1.834
		C192.731,222.616,191.787,220.833,193.511,220.31L193.511,220.31z M192.717,216.447c0.99,0.19,2.076,1.923,0.041,2.197
		C190.724,218.919,191.395,216.194,192.717,216.447L192.717,216.447z"/>
	<path id="XMLID_76_" fill-rule="evenodd" clip-rule="evenodd" fill="#DDD3C2" d="M213.408,198.423
		c-4.244-5.553-8.509-7.763-20.663-7.381c2.596-2.452,5.415-5.222,8.222-8.362c-9.462-4.751-17.419-2.603-17.419-2.603
		l-12.013,3.069c-7.726-3.834-17.006,1.131-17.006,1.131c1.836,2.023,1.232,5.528,3.175,10.196
		c-10.543,3.749-12.483,14.54-18.69,17.609c6.52-2.591,11.667-4.292,17.601-4.686c-0.662,3.187-1.21,6.316-2.928,8.821
		c6.871-4.661,11.359-5.29,14.726-7.011c1.792,2.853,3.838,5.558,3.559,9.043c2.035-0.052,10.633-2.388,10.755-9.927
		c1.038,0.486,7.945,2.301,9.206,2.644c4.827,1.312,12.708,2.226,14.126,1.132c-3.49-2.117-6.578-6.012-9.909-9.644
		C200.868,200.911,206.892,199.193,213.408,198.423z"/>
	<path fill="none" d="M187.944,2.299c-1.544,3.407,3.186,14.135,0.525,40.563c-2.358,23.419-12.522,37.411-15.812,43.072
		c-5.043,8.683,8.349,15.264,16.024,8.751c9.684-8.219,18.098-15.554,18.822-17.911c0.792-2.581,4.864-13.479-3.673-41.056
		c-8.634-27.886-9.184-32.493-10.763-34.667C191.489-1.125,188.772,0.47,187.944,2.299L187.944,2.299z"/>
	<path id="XMLID_72_" fill-rule="evenodd" clip-rule="evenodd" fill="#DDD3C2" d="M203.955,89.038
		c-6.147-0.248-12.246-3.797-14.452-0.608c-0.289-0.978-0.833-2.093-1.706-3.362c-2.211-3.209-6.741-5.694-7.045-8.896
		c0,0-3.333,2.768-4.612,7.158c-3.97-3.053-10.481-4.595-14.146-6.4c3.688,4.316-2.919,15.193,4.216,20.58
		c22.971,17.565,32.144,2.446,36.233,1.7c-1.881-0.856-4.845-1.326-7.546-4.034C198.436,93.844,200.683,89.669,203.955,89.038z"/>
	<path id="XMLID_71_" fill-rule="evenodd" clip-rule="evenodd" fill="#B09A66" d="M186.294,97.662
		c22.611,12.156,36.441,33.617,36.889,45.013c0.395,10.051-4.663,18.871-14.986,25.046c-8.376,5.011-14.553,6.791-18.595,9.939
		c-4.042,3.147-3.439,9.082-4.889,13.213s-2.195,7.544-5.814,7.763c-3.618,0.217-11.262-2.201-11.401-6.399
		c-0.14-4.198,2.278-12.565-3.575-18.883c-5.853-6.319-16.881-12.524-26.443-21.821s-21.464-25.557-10.343-46.773
		C138.258,83.542,163.359,85.331,186.294,97.662L186.294,97.662z"/>
	<path id="XMLID_70_" fill-rule="evenodd" clip-rule="evenodd" d="M205.03,118.441c-3.594,0.54-1.421,4.788-0.291,6.075
		c1.234,1.406,3.779,3.078,6.668,2.188c1.347-0.414,1.373-3.138,0.022-5.144C210.025,119.477,207.138,118.124,205.03,118.441
		L205.03,118.441z"/>
	<path id="XMLID_15_" fill-rule="evenodd" clip-rule="evenodd" fill="#DDD3C2" d="M149.07,84.187
		c-4.124,2.07-3.071,1.992-11.834,2.153c-3.311,0.061-5.782,0.579-7.611,1.591c-4.826,1.031-8.15,8.79-11.894,9.626
		c1.797,0.02,3.597,0.326,5.3,0.664c-4.266,2.275-7.695,5.123-8.343,12.183c-0.357,3.881,1.533,8.689-0.284,11.343
		c0,0,7.44,0.028,11.356-5.731c2.816-4.142,4.843-6.76,6.507-8.917c1.01,1.39,1.83,2.528,1.656,3.125
		c-0.399,1.366,5.995-4.704,5.396-10.55c-0.076-0.741-0.205-1.389-0.378-1.954c1.179-1.309,2.734-2.693,5.225-3.982
		C150.277,90.574,149.07,84.187,149.07,84.187z"/>
	<path id="XMLID_14_" fill-rule="evenodd" clip-rule="evenodd" d="M161.297,122.792c-3.282,0.239-4.284,3.412-3.858,5.899
		c0.317,1.844,1.958,3.618,4.971,3.393c2.807-0.21,4.444-2.67,3.979-5.684C166.104,124.545,164.204,122.581,161.297,122.792
		L161.297,122.792z"/>
	<path id="XMLID_9_" fill-rule="evenodd" clip-rule="evenodd" fill="#A23B30" d="M219.409,143.067
		c-3.441,1.538-8.599,3.555-14.89,4.252c-8.691,0.961-28.078-0.821-37.382-3.46c0.949,11.437,20.732,19.488,31.577,18.825
		C205.279,162.284,218.89,157.053,219.409,143.067L219.409,143.067z"/>
	<path id="XMLID_8_" fill="none" d="M219.409,143.067c-3.441,1.538-8.599,3.555-14.89,4.252c-8.691,0.961-28.078-0.821-37.382-3.46
		c0.949,11.437,20.732,19.488,31.577,18.825C205.279,162.284,218.89,157.053,219.409,143.067L219.409,143.067z"/>
	<path id="XMLID_7_" fill="none" d="M212.792,145.464c-0.497,5.48-6.37,10.934-10.889,10.637
		c-4.594-0.301-11.078-6.637-10.665-11.071L212.792,145.464L212.792,145.464z"/>
	<path id="XMLID_6_" fill="none" d="M219.409,143.067c-3.441,1.538-8.599,3.555-14.89,4.252c-8.691,0.961-28.078-0.821-37.382-3.46
		c0.949,11.437,20.732,19.488,31.577,18.825C205.279,162.284,218.89,157.053,219.409,143.067L219.409,143.067z"/>
	<g>
		<path fill-rule="evenodd" clip-rule="evenodd" fill="#4D432A" d="M207.783,137.574
			C207.786,137.572,207.783,137.574,207.783,137.574C207.784,137.573,207.786,137.573,207.783,137.574z"/>
		<path fill-rule="evenodd" clip-rule="evenodd" fill="#4D432A" d="M212.81,135.58c-0.818-0.303-1.503,0.19-2.969,1.023
			c-1.428,0.812-3.897,1.578-5.524,1.933c-3.034,0.137-5.469-0.845-8.336-1.566c-6.764-2.236-2.536,1.815,1.277,3.077
			c1.181,0.521,4.752,1.69,5.995,2.045l-0.736,5.393c0.04,0.636,3.088-0.294,3.088-0.294l0.657-5.812
			c0.546-0.268,2.506-1.289,3.026-1.605C210.387,138.911,213.397,137.165,212.81,135.58z"/>
	</g>
	<path id="XMLID_4_" fill-rule="evenodd" clip-rule="evenodd" fill="#FFFFFF" d="M204.52,147.319
		c-3.209,0.355-7.876,0.336-12.957,0.037c1.362,4.043,6.506,8.494,10.338,8.745c4.486,0.294,10.301-5.077,10.874-10.515
		C210.332,146.337,207.559,146.982,204.52,147.319z"/>
	<path id="XMLID_3_" fill-rule="evenodd" clip-rule="evenodd" fill="#8D8D8D" d="M202.411,156.108
		c0.664,0.12,2.96-6.706,3.194-8.928c-1.038,0.143-1.975,0.236-3.089,0.299c-0.034,0.254-0.93,7.648-1.07,8.567
		C201.77,156.099,202.086,156.111,202.411,156.108z"/>
	<path id="XMLID_79_" fill-rule="evenodd" clip-rule="evenodd" fill="#806D41" d="M110.245,166.47c0,0-1.833-3.308-2.061-5.011
		c-0.228-1.704-0.007-2.846,1.481-2.695c1.217,0.123,4.087,4.411,4.087,4.411s-2.51-5.653-4.42-6.156
		c-1.324-0.35-3.36,0.786-2.387,4.126C107.74,163.875,110.245,166.47,110.245,166.47L110.245,166.47z"/>
	<path id="XMLID_2_" fill="#FF5731" d="M295.365,201.133c-6.742-22.289-58.387,17.226-68.576,26.646
		c-9.053,7.376,7.25,17.9-10.203,32.075c-23.336,12.282-52.341,7.769-76.032,0.124c-14.892-2.943-37.063-11.785-29.483-30.506
		c6.513-16.087,33.739-22.511,33.815-23.086c0.122-0.915-9.937-2.141-25.268,1.675c-16.529,4.114-23.88,18.035-23.872,31.248
		c0.01,18.818-2.307,35.5,10.231,47.888c26.402,18.351,113.778,34.448,145.699,30.673c10.91-1.971,20.656-12.707,27.959-22.222
		c7.186-9.361,18.597-18.153,20.724-30.245c2.83-16.088-0.533-25.174-0.417-41.515C299.986,218.002,297.458,206.471,295.365,201.133
		z"/>
</g>
<g id="Layer_1">
</g>
</svg>
