<?xml version="1.0" encoding="utf-8"?>
<!-- Generator: Adobe Illustrator 24.2.3, SVG Export Plug-In . SVG Version: 6.00 Build 0)  -->
<svg version="1.1" xmlns="http://www.w3.org/2000/svg" xmlns:xlink="http://www.w3.org/1999/xlink" x="0px" y="0px"
	 viewBox="0 0 1483.955 1480.335" enable-background="new 0 0 1483.955 1480.335" xml:space="preserve">
<g id="neposenkello_x5F_cloud_x5F_circle_x5F_white">
	<path fill="#FFFFFF" d="M776.858,54.741c22.951-19.548,63.89-18.444,56.051,20.948c-3.061,17.787-8.507,22.822-26.07,23.296
		c-35.883,0.582-71.805-1.457-107.606-3.707c-66.361,3.876-29.348-91.736,13.272-38.722c2.061-10.747-0.851-20.278,7.289-29.721
		c14.702-16.547,52.038-17.95,57.152,8.176C777.866,38.846,779.689,51.714,776.858,54.741
		C777.644,54.231,776.827,54.774,776.858,54.741z"/>
	<path fill="#FFFFFF" d="M981.842,12.932c21.12-10.323,51.829-1.564,38.283,26.673c-5.755,12.843-10.843,15.591-24.201,12.55
		c-27.216-6.506-53.956-15-80.562-23.629c-50.875-9.918-4.41-74.973,17.52-26.679c3.637-7.719,3.282-15.481,11.259-21.039
		c14.308-9.653,42.781-3.485,41.587,17.238C985.68,1.121,984.567,11.194,981.842,12.932
		C982.535,12.699,981.812,12.951,981.842,12.932z"/>
	<path fill="#FFFFFF" d="M552.432-0.158c11.668-20.407,41.992-30.42,46.655,0.549c2.457,13.858-0.207,18.99-12.966,23.982
		c-26.169,9.913-53.059,17.914-79.916,25.728c-47.656,20.386-45.78-59.536-0.501-31.914c-1.329-8.428-5.985-14.65-2.51-23.729
		c6.411-16.025,33.428-26.924,44.087-9.112C548.97-12.084,553.709-3.127,552.432-0.158C552.874-0.74,552.418-0.125,552.432-0.158z"
		/>
	<path fill="#FFFFFF" d="M700.652,1423.928c-22.951,19.548-63.89,18.444-56.051-20.948c3.061-17.787,8.507-22.822,26.07-23.296
		c35.883-0.582,71.805,1.457,107.606,3.707c66.361-3.876,29.347,91.736-13.272,38.722c-2.061,10.747,0.851,20.278-7.289,29.721
		c-14.702,16.547-52.038,17.95-57.152-8.176C699.644,1439.823,697.821,1426.955,700.652,1423.928
		C699.866,1424.438,700.683,1423.895,700.652,1423.928z"/>
	<path fill="#FFFFFF" d="M495.668,1465.737c-21.12,10.323-51.829,1.564-38.283-26.673c5.755-12.843,10.843-15.591,24.201-12.55
		c27.217,6.506,53.956,15,80.562,23.629c50.875,9.918,4.41,74.973-17.52,26.679c-3.637,7.719-3.282,15.481-11.259,21.039
		c-14.308,9.653-42.781,3.485-41.587-17.238C491.83,1477.548,492.944,1467.476,495.668,1465.737
		C494.976,1465.97,495.698,1465.718,495.668,1465.737z"/>
	<path fill="#FFFFFF" d="M925.078,1478.827c-11.668,20.407-41.992,30.42-46.655-0.549c-2.457-13.858,0.207-18.99,12.966-23.982
		c26.169-9.913,53.059-17.914,79.916-25.728c47.656-20.386,45.78,59.536,0.501,31.914c1.329,8.428,5.985,14.65,2.51,23.729
		c-6.411,16.025-33.428,26.924-44.087,9.112C928.541,1490.754,923.801,1481.796,925.078,1478.827
		C924.636,1479.409,925.092,1478.795,925.078,1478.827z"/>
	<path fill="#FFFFFF" d="M1423.349,777.438c19.548,22.951,18.444,63.89-20.948,56.051c-17.787-3.061-22.822-8.507-23.296-26.07
		c-0.582-35.883,1.457-71.805,3.707-107.606c-3.876-66.361,91.736-29.347,38.722,13.272c10.747,2.061,20.278-0.851,29.721,7.289
		c16.547,14.702,17.95,52.038-8.176,57.152C1439.243,778.445,1426.375,780.269,1423.349,777.438
		C1423.858,778.224,1423.316,777.406,1423.349,777.438z"/>
	<path fill="#FFFFFF" d="M1465.158,982.422c10.323,21.12,1.564,51.829-26.673,38.283c-12.843-5.755-15.591-10.843-12.55-24.201
		c6.506-27.217,15-53.956,23.629-80.562c9.918-50.875,74.973-4.41,26.679,17.52c7.719,3.637,15.481,3.282,21.039,11.259
		c9.653,14.308,3.485,42.781-17.238,41.587C1476.969,986.26,1466.896,985.146,1465.158,982.422
		C1465.391,983.114,1465.139,982.392,1465.158,982.422z"/>
	<path fill="#FFFFFF" d="M1478.248,553.012c20.407,11.668,30.42,41.992-0.549,46.655c-13.858,2.457-18.99-0.207-23.982-12.966
		c-9.913-26.169-17.914-53.059-25.728-79.916c-20.386-47.656,59.536-45.78,31.914-0.501c8.428-1.329,14.65-5.985,23.729-2.51
		c16.025,6.411,26.924,33.428,9.112,44.087C1490.174,549.549,1481.217,554.289,1478.248,553.012
		C1478.83,553.454,1478.215,552.998,1478.248,553.012z"/>
	<path fill="#FFFFFF" d="M54.162,701.232c-19.548-22.951-18.444-63.89,20.948-56.051c17.787,3.061,22.822,8.507,23.296,26.07
		c0.582,35.883-1.457,71.805-3.707,107.606c3.876,66.361-91.736,29.347-38.722-13.272c-10.747-2.061-20.278,0.851-29.721-7.289
		c-16.547-14.702-17.95-52.038,8.176-57.152C38.267,700.224,51.135,698.401,54.162,701.232
		C53.652,700.446,54.195,701.263,54.162,701.232z"/>
	<path fill="#FFFFFF" d="M-1.865,524.802c-6.897-14.11-1.045-34.628,17.82-25.578c8.581,3.845,10.417,7.245,8.385,16.169
		c-4.347,18.184-10.022,36.049-15.787,53.825c-6.626,33.991-50.091,2.946-17.825-11.706c-5.157-2.43-10.343-2.193-14.056-7.522
		c-6.449-9.56-2.328-28.583,11.517-27.785C-9.756,522.237-3.026,522.981-1.865,524.802C-2.02,524.339-1.852,524.822-1.865,524.802z"
		/>
	<path fill="#FFFFFF" d="M-0.738,925.658c-20.407-11.668-30.42-41.992,0.549-46.655c13.858-2.457,18.99,0.207,23.982,12.966
		c9.913,26.169,17.914,53.059,25.728,79.916c20.386,47.656-59.536,45.78-31.914,0.501c-8.428,1.329-14.65,5.985-23.729,2.51
		c-16.025-6.411-26.924-33.428-9.112-44.087C-12.664,929.12-3.706,924.381-0.738,925.658
		C-1.319,925.216-0.705,925.672-0.738,925.658z"/>
	<path fill="#FFFFFF" d="M1249.779,282.197c30.051,2.406,58.219,32.135,24.822,54.447c-14.742,10.413-22.153,10.122-34.908-1.961
		c-25.785-24.961-49.744-51.804-73.468-78.71c-49.665-44.183,44.115-85.619,36.765-17.996c9.057-6.142,13.737-14.94,26.17-15.862
		c22.097-1.305,49.489,24.104,34.632,46.194C1261.731,271.67,1253.921,282.059,1249.779,282.197
		C1250.695,282.392,1249.733,282.198,1249.779,282.197z"/>
	<path fill="#FFFFFF" d="M1405.361,375.609c15.047,5.167,25.551,24.054,5.556,31.085c-8.9,3.392-12.65,2.272-17.588-5.576
		c-9.911-16.138-18.642-32.999-27.245-49.861c-19.6-29.093,33.768-37.989,21.152-4.383c5.434-1.953,8.979-5.838,15.456-4.68
		c11.467,2.228,22.141,18.805,11.652,28.151C1412.85,371.794,1407.497,376.081,1405.361,375.609
		C1405.804,375.829,1405.338,375.604,1405.361,375.609z"/>
	<path fill="#FFFFFF" d="M1142.25,88.853c15.788-4.302,35.643,5.696,22.695,23.235c-5.612,8.03-9.449,9.245-18.186,5.422
		c-17.76-8.001-34.935-17.299-52.001-26.673c-33.492-13.423,6.771-51.839,15.462-15.955c3.495-4.803,4.265-10.157,10.445-12.916
		c11.044-4.733,29.707,3.201,26.186,17.216C1146.417,81.278,1144.34,88.02,1142.25,88.853
		C1142.754,88.784,1142.227,88.862,1142.25,88.853z"/>
	<path fill="#FFFFFF" d="M227.732,1196.473c-30.051-2.406-58.219-32.135-24.822-54.447c14.742-10.413,22.153-10.122,34.908,1.961
		c25.785,24.961,49.744,51.804,73.468,78.71c49.665,44.183-44.115,85.619-36.765,17.996c-9.057,6.142-13.737,14.94-26.17,15.862
		c-22.097,1.305-49.489-24.104-34.632-46.194C215.78,1206.999,223.589,1196.611,227.732,1196.473
		C226.815,1196.277,227.777,1196.471,227.732,1196.473z"/>
	<path fill="#FFFFFF" d="M53.222,1081.091c-22.233-7.634-37.754-35.542-8.21-45.931c13.151-5.012,18.692-3.357,25.987,8.239
		c14.644,23.846,27.546,48.759,40.257,73.674c28.961,42.987-49.895,56.132-31.254,6.476c-8.03,2.886-13.268,8.626-22.838,6.915
		c-16.943-3.292-32.715-27.786-17.217-41.596C42.157,1086.728,50.067,1080.393,53.222,1081.091
		C52.568,1080.766,53.257,1081.098,53.222,1081.091z"/>
	<path fill="#FFFFFF" d="M336.31,1375.965c-14.273,3.889-32.222-5.149-20.517-21.005c5.073-7.26,8.543-8.358,16.441-4.902
		c16.056,7.234,31.582,15.639,47.01,24.113c30.278,12.134-6.121,46.864-13.978,14.424c-3.159,4.342-3.856,9.182-9.442,11.676
		c-9.984,4.278-26.856-2.894-23.672-15.563C332.544,1382.812,334.421,1376.718,336.31,1375.965
		C335.855,1376.027,336.331,1375.956,336.31,1375.965z"/>
	<path fill="#FFFFFF" d="M1195.893,1250.358c-2.406,30.051-32.135,58.219-54.447,24.822c-10.413-14.742-10.122-22.153,1.961-34.908
		c24.962-25.785,51.804-49.744,78.71-73.468c44.183-49.665,85.619,44.115,17.996,36.765c6.142,9.057,14.94,13.737,15.862,26.17
		c1.305,22.097-24.104,49.489-46.194,34.632C1206.42,1262.31,1196.031,1254.5,1195.893,1250.358
		C1195.698,1251.275,1195.892,1250.313,1195.893,1250.358z"/>
	<path fill="#FFFFFF" d="M1078.675,1411.863c-5.395,15.713-25.118,26.682-32.46,5.802c-3.542-9.294-2.373-13.21,5.822-18.366
		c16.852-10.349,34.458-19.467,52.067-28.45c30.38-20.467,39.669,35.262,4.577,22.088c2.04,5.675,6.096,9.377,4.887,16.14
		c-2.326,11.974-19.637,23.12-29.396,12.168C1082.659,1419.683,1078.182,1414.093,1078.675,1411.863
		C1078.445,1412.325,1078.681,1411.839,1078.675,1411.863z"/>
	<path fill="#FFFFFF" d="M1389.275,1142.717c4.319,15.851-5.719,35.785-23.328,22.785c-8.062-5.634-9.282-9.487-5.444-18.259
		c8.033-17.831,17.368-35.074,26.779-52.208c13.476-33.625,52.046,6.798,16.019,15.524c4.822,3.508,10.198,4.282,12.967,10.486
		c4.752,11.088-3.214,29.826-17.284,26.29C1396.88,1146.9,1390.111,1144.815,1389.275,1142.717
		C1389.344,1143.223,1389.266,1142.694,1389.275,1142.717z"/>
	<path fill="#FFFFFF" d="M281.617,228.311c2.406-30.051,32.135-58.219,54.447-24.822c10.413,14.742,10.122,22.153-1.961,34.908
		c-24.961,25.785-51.804,49.744-78.71,73.468c-44.183,49.665-85.619-44.115-17.996-36.765c-6.142-9.057-14.94-13.737-15.862-26.17
		c-1.305-22.097,24.104-49.489,46.194-34.632C271.091,216.359,281.479,224.169,281.617,228.311
		C281.813,227.395,281.619,228.357,281.617,228.311z"/>
	<path fill="#FFFFFF" d="M375.029,72.729c5.167-15.047,24.054-25.551,31.085-5.556c3.392,8.9,2.272,12.65-5.576,17.588
		c-16.138,9.911-32.999,18.642-49.861,27.245c-29.093,19.6-37.989-33.768-4.383-21.152c-1.953-5.434-5.838-8.979-4.68-15.456
		c2.228-11.467,18.805-22.141,28.151-11.652C371.214,65.24,375.501,70.593,375.029,72.729
		C375.249,72.286,375.024,72.752,375.029,72.729z"/>
	<path fill="#FFFFFF" d="M84.105,348.185c-6.179-22.681,8.183-51.203,33.378-32.602c11.536,8.062,13.281,13.575,7.789,26.126
		c-11.494,25.514-24.851,50.186-38.317,74.702c-19.282,48.113-74.47-9.727-22.921-22.212c-6.9-5.02-14.591-6.127-18.554-15.004
		c-6.799-15.865,4.599-42.676,24.731-37.617C73.223,342.2,82.908,345.182,84.105,348.185
		C84.006,347.461,84.118,348.218,84.105,348.185z"/>
</g>
<g id="Layer_1">
</g>
</svg>
