<?xml version="1.0" encoding="utf-8"?>
<!-- Generator: Adobe Illustrator 24.2.3, SVG Export Plug-In . SVG Version: 6.00 Build 0)  -->
<svg version="1.1" xmlns="http://www.w3.org/2000/svg" xmlns:xlink="http://www.w3.org/1999/xlink" x="0px" y="0px"
	 viewBox="0 0 800.471 328.786" enable-background="new 0 0 800.471 328.786" xml:space="preserve">
<g id="neposenkello_x5F_bathroom_x5F_sink">
	<path fill="#BFD731" d="M373.063,328.786c156.593,0,294.793-78.726,377.199-198.753C665.581,118.9,503.957,107.409,352.1,105.591
		C249.8,104.366,97.717,121.934,0,135.965C82.848,252.649,219.063,328.786,373.063,328.786z"/>
	<g id="kylppari_x5F_vesi_1_">
		<path id="XMLID_66_" fill="#54BDCF" d="M621.269,181.76c0,0-236.858-112.981-498.135,3.092
			C123.135,184.852,335.79,299.989,621.269,181.76z"/>
		<path id="XMLID_65_" fill="#80D8E2" d="M365.163,132.477c7.535-0.064,14.96,0.005,22.268,0.195l-69.528,101.061
			c-11.096-0.74-21.808-1.754-32.112-2.986L365.163,132.477z"/>
		<path id="XMLID_64_" fill="#80D8E2" d="M414.306,232.747l71.621-90.106c7.116,1.256,14.002,2.59,20.649,3.978l-59.508,82.458
			C435.936,230.609,425.01,231.824,414.306,232.747z"/>
		<path id="XMLID_63_" fill="#80D8E2" d="M418.899,134.249c10.646,0.79,20.987,1.816,30.992,3.03l-69.398,97.488
			c-14.914,0.494-29.331,0.449-43.209-0.043L418.899,134.249z"/>
	</g>
	<g id="kylppari_x5F_valuva_x5F_vesi_1_">
		<polygon id="XMLID_62_" fill="#54BDCF" points="181.745,80.599 181.745,192.466 276.458,218.368 202.968,67.237 		"/>
	</g>
	<path fill="#F77F15" d="M800.471,34.312c-0.047-0.701-0.108-1.134-0.183-1.265C784.697,5.926,653.286,9.212,643.065,45.68
		c-7.564,26.988,13.371,133.547,24.545,175.599C726.444,171.676,772.586,107.499,800.471,34.312z"/>
	
		<ellipse id="XMLID_11_" transform="matrix(0.9982 -0.0604 0.0604 0.9982 -1.1795 43.76)" fill="#935803" cx="723.271" cy="41.391" rx="70.798" ry="18.872"/>
	<path fill="#3F749A" d="M192.438,16.344C174.041-0.677,134.887-0.185,118.247,3.341C46.757,18.492,14.404,105.643,3.986,141.487
		c27.673,37.774,61.004,71.139,98.746,98.853c-2.631-64.07,12.434-169.191,38.174-184.692
		c17.006-10.241,18.902,15.987,25.329,24.456c12.215,16.095,31.945,8.748,38.778,1.856
		C229.869,56.888,202.189,25.363,192.438,16.344z"/>
	<path fill="#275F88" d="M157.929,61.622c11.984-14.115,22.163-33.974,25.215-51.667C109.545-22.11,51.397,28.567,25.479,86.786
		c27.692,10.915,65.18,21.147,92.938,11.359C124.734,73.739,142.568,36.413,157.929,61.622z"/>
</g>
<g id="Layer_1">
</g>
</svg>
