<?xml version="1.0" encoding="utf-8"?>
<!-- Generator: Adobe Illustrator 24.2.3, SVG Export Plug-In . SVG Version: 6.00 Build 0)  -->
<svg version="1.1" xmlns="http://www.w3.org/2000/svg" xmlns:xlink="http://www.w3.org/1999/xlink" x="0px" y="0px"
	 viewBox="0 0 914.446 914.446" enable-background="new 0 0 914.446 914.446" xml:space="preserve">
<g id="neposenkello_x5F_bathroom_x5F_bg_x5F_blue">
	<circle fill="#E8E9E9" cx="457.223" cy="457.223" r="457.223"/>
	<circle fill="#B6F4F8" cx="457.223" cy="457.223" r="457.223"/>
	<g>
		<g>
			<g>
				<g>
					<path fill="#CAF5F9" d="M625.83,360.13c-5.384,18.521-18.785,26.41-33.354,29.198c-7.643,1.462-108.011,9.673-129.229-1.101
						c-12.572-7.071-21.686-21.686-23.729-33.472c-1.851-10.843-3.248-97.848,3.143-118.329c3.549-14.394,16.186-24.2,28.858-26.628
						c15.299-6.327,104.29-9.598,127.186-1.186c13.357,3.929,20.493,14.589,24.077,26.161
						C626.963,247.823,631.391,325.841,625.83,360.13z"/>
					<path fill="#CAF5F9" d="M839.35,351.24c-5.384,18.521-18.785,26.41-33.354,29.198c-7.643,1.462-108.011,9.673-129.229-1.101
						c-12.571-7.071-21.686-21.686-23.729-33.472c-1.851-10.843-3.248-97.848,3.143-118.329c3.549-14.394,16.186-24.2,28.858-26.628
						c15.299-6.327,104.29-9.598,127.186-1.186c13.357,3.929,20.493,14.589,24.077,26.161
						C840.483,238.933,844.911,316.952,839.35,351.24z"/>
				</g>
				<path fill="#CAF5F9" d="M408.473,370.548c-5.384,18.521-18.785,26.41-33.354,29.198c-7.643,1.462-108.011,9.673-129.229-1.101
					c-12.572-7.071-21.686-21.686-23.729-33.472c-1.851-10.843-3.248-97.848,3.143-118.329c3.549-14.394,16.186-24.2,28.858-26.628
					c15.299-6.327,104.29-9.598,127.186-1.186c13.357,3.929,20.493,14.589,24.077,26.161
					C409.605,258.241,414.033,336.259,408.473,370.548z"/>
				<path fill="#CAF5F9" d="M733.161,565.092c-5.384,18.521-18.785,26.41-33.354,29.198c-7.643,1.462-108.011,9.673-129.229-1.101
					c-12.572-7.071-21.686-21.686-23.729-33.472c-1.851-10.843-3.248-97.848,3.143-118.329c3.549-14.394,16.186-24.2,28.858-26.628
					c15.299-6.327,104.29-9.598,127.186-1.186c13.357,3.929,20.493,14.589,24.077,26.161
					C734.294,452.785,738.722,530.804,733.161,565.092z"/>
				<g>
					<path fill="#CAF5F9" d="M296.736,570.845c-5.384,18.521-18.785,26.41-33.354,29.198c-7.643,1.462-108.011,9.673-129.229-1.101
						c-12.572-7.071-21.686-21.686-23.729-33.472c-1.851-10.843-3.248-97.848,3.143-118.329c3.549-14.394,16.186-24.2,28.858-26.628
						c15.299-6.327,104.29-9.598,127.186-1.186c13.357,3.929,20.493,14.589,24.077,26.161
						C297.869,458.538,302.297,536.556,296.736,570.845z"/>
					<path fill="#CAF5F9" d="M515.804,575.511c-5.384,18.521-18.785,26.41-33.354,29.198c-7.643,1.462-108.011,9.673-129.229-1.101
						c-12.572-7.071-21.686-21.686-23.729-33.472c-1.851-10.843-3.248-97.848,3.143-118.329c3.549-14.394,16.186-24.2,28.858-26.628
						c15.299-6.327,104.29-9.598,127.186-1.186c13.357,3.929,20.493,14.589,24.077,26.161
						C516.936,463.204,521.364,541.222,515.804,575.511z"/>
				</g>
				<path fill="#CAF5F9" d="M696.255,773.105c-5.384,18.521-18.785,26.41-33.354,29.198c-7.643,1.462-108.011,9.673-129.229-1.101
					c-12.572-7.071-21.686-21.686-23.729-33.472c-1.851-10.843-3.248-97.848,3.143-118.329c3.549-14.394,16.186-24.2,28.858-26.628
					c15.299-6.327,104.29-9.598,127.186-1.186c13.357,3.929,20.493,14.589,24.077,26.161
					C697.388,660.798,701.815,738.816,696.255,773.105z"/>
				<path fill="#CAF5F9" d="M478.897,783.523c-5.384,18.521-18.785,26.41-33.354,29.198c-7.643,1.462-108.011,9.673-129.229-1.101
					c-12.572-7.071-21.686-21.686-23.729-33.472c-1.851-10.843-3.248-97.848,3.143-118.329c3.549-14.394,16.186-24.2,28.858-26.628
					c15.299-6.327,104.29-9.598,127.186-1.186c13.357,3.929,20.493,14.589,24.077,26.161
					C480.03,671.216,484.458,749.234,478.897,783.523z"/>
			</g>
		</g>
		<g>
			<path fill="#CAF5F9" d="M150.019,147.154c2.043,11.786,11.157,26.4,23.729,33.472c21.218,10.774,121.586,2.563,129.229,1.101
				c14.569-2.788,27.971-10.677,33.354-29.198c5.561-34.289,1.133-112.307-3.048-125.357c-0.972-3.138-2.216-6.202-3.764-9.09
				c-68.212,19.802-129.848,55.063-180.863,101.745C148.928,133.349,149.452,143.831,150.019,147.154z"/>
			<path fill="#CAF5F9" d="M259.829,778.857c5.561-34.289,1.133-112.307-3.048-125.357c-3.584-11.572-10.72-22.233-24.077-26.161
				c-22.896-8.411-111.887-5.14-127.186,1.186c-12.672,2.428-25.309,12.234-28.858,26.628c-2.616,8.384-3.926,27.915-4.436,48.806
				c26.168,40.747,58.632,77.064,96.012,107.588c29.498-1.014,54.929-2.859,58.238-3.492
				C241.044,805.267,254.446,797.378,259.829,778.857z"/>
			<path fill="#CAF5F9" d="M26.822,393.98c21.218,10.774,121.586,2.563,129.229,1.101c14.569-2.788,27.971-10.677,33.354-29.198
				c5.561-34.289,1.133-112.307-3.048-125.357c-3.584-11.572-10.72-22.233-24.077-26.161c-14.878-5.466-57.658-5.997-89.998-3.965
				c-31.343,48.78-53.66,103.907-64.61,163.024C11.927,381.565,18.633,389.373,26.822,393.98z"/>
			<path fill="#CAF5F9" d="M387.268,171.736c21.218,10.774,121.586,2.563,129.229,1.101c14.569-2.788,27.971-10.677,33.354-29.198
				c5.561-34.289,1.133-112.307-3.048-125.357c-1.117-3.607-2.592-7.118-4.482-10.37C514.748,2.722,486.303,0,457.223,0
				c-28.983,0-57.333,2.704-84.82,7.86c-2.611,3.519-4.611,7.572-5.721,12.075c-6.391,20.481-4.994,107.486-3.143,118.329
				C365.582,150.05,374.697,164.665,387.268,171.736z"/>
			<path fill="#CAF5F9" d="M882.65,612.697c-22.896-8.411-111.887-5.14-127.186,1.186c-12.672,2.428-25.309,12.234-28.858,26.628
				c-6.391,20.481-4.994,107.486-3.143,118.329c2.043,11.786,11.157,26.4,23.729,33.472c3.597,1.826,9.468,3.107,16.776,3.968
				c54.51-49.346,97.068-111.65,122.809-182.056C885.468,613.645,884.102,613.125,882.65,612.697z"/>
			<path fill="#CAF5F9" d="M92.628,579.37c5.561-34.289,1.133-112.307-3.048-125.357c-3.584-11.572-10.72-22.233-24.077-26.161
				c-11.136-4.091-37.906-5.418-64.228-4.974C0.433,434.216,0,445.669,0,457.223c0,54.085,9.398,105.973,26.638,154.13
				c17.006-1.039,30.065-2.293,32.635-2.785C73.843,605.78,87.245,597.891,92.628,579.37z"/>
			<path fill="#CAF5F9" d="M658.463,831.036c-22.896-8.411-111.886-5.14-127.186,1.186c-12.672,2.428-25.309,12.234-28.858,26.628
				c-2.824,9.051-4.127,31.092-4.542,53.811c66.47-5.857,128.854-25.942,184.094-57.183
				C678.223,844.582,671.156,834.769,658.463,831.036z"/>
			<path fill="#CAF5F9" d="M285.062,869.269c-0.815,2.613-1.503,6.316-2.08,10.797c53.701,22.153,112.542,34.38,174.241,34.38
				c4.279,0,8.543-0.064,12.794-0.181c-1.054-22.048-2.968-40.824-4.834-46.649c-3.584-11.572-10.72-22.233-24.078-26.161
				c-22.896-8.411-111.886-5.14-127.186,1.186C301.247,845.069,288.611,854.875,285.062,869.269z"/>
			<path fill="#CAF5F9" d="M585.75,24.601c-6.391,20.481-4.994,107.487-3.143,118.329c2.043,11.786,11.157,26.4,23.729,33.472
				c21.218,10.774,121.586,2.563,129.229,1.101c14.569-2.788,27.971-10.677,33.354-29.198c1.058-6.52,1.751-14.629,2.156-23.562
				c-51.329-48.47-113.873-85.19-183.335-105.843C586.923,20.71,586.241,22.606,585.75,24.601z"/>
			<path fill="#CAF5F9" d="M792.37,405.871c-12.672,2.428-25.309,12.234-28.858,26.628c-6.39,20.481-4.994,107.486-3.143,118.329
				c2.042,11.786,11.157,26.4,23.729,33.472c16.389,8.322,79.995,5.317,111.622,2.844c12.184-41.183,18.727-84.788,18.727-129.922
				c0-18.495-1.106-36.732-3.241-54.653C880.171,396.934,806.194,400.155,792.37,405.871z"/>
		</g>
	</g>
</g>
<g id="Layer_1">
</g>
</svg>
