<?xml version="1.0" encoding="utf-8"?>
<!-- Generator: Adobe Illustrator 24.2.3, SVG Export Plug-In . SVG Version: 6.00 Build 0)  -->
<svg version="1.1" xmlns="http://www.w3.org/2000/svg" xmlns:xlink="http://www.w3.org/1999/xlink" x="0px" y="0px"
	 viewBox="0 0 314.216 315.639" enable-background="new 0 0 314.216 315.639" xml:space="preserve">
<g id="memorygame_x5F_lingonberry_x5F_puolukka">
	<path fill="#FFDDC3" d="M259.563,314.215H54.653C24.594,314.215,0,289.622,0,259.563V54.653C0,24.594,24.594,0,54.653,0h204.91
		c30.059,0,54.653,24.594,54.653,54.653v204.91C314.215,289.622,289.622,314.215,259.563,314.215z"/>
	<path fill="#FFFFFF" d="M276.686,74.235C239.539,15.273,161.127,11.167,96.488,37.77C48.123,57.675-6.454,132.761,32.781,221.852
		c39.571,89.853,163.143,87.006,212.596,44.307C307.722,212.328,307.197,122.664,276.686,74.235z"/>
	<g>
		<g id="muistipeli_x5F_puolukka_1_">
			<polygon fill="#5AA043" points="157.139,97.17 145.534,96.686 145.914,315.639 163.61,315.639 			"/>
			<path fill="#69B802" d="M175.557,255.59c-4.023-6.14,4.24-22.91,21.384-42.133c20.961-23.501,50.086-26.851,59.071-2.964
				c8.681,23.078-14.98,39.352-38.11,44.462C199.694,258.978,179.677,261.879,175.557,255.59z"/>
			<path fill="#5AA043" d="M256.012,210.494c-5.799-15.416-19.988-19.473-34.955-14.104c5.894,1.888,16.359,6.82,18.328,16.396
				c-1.799,0.689-3.735,1.469-5.816,2.366c-27.259,11.749-73.468,48.061-73.468,48.061s2.541,4.588,2.753,6.352
				c37.469-32.159,62.657-47.768,76.778-55.103c0.041,0.434,0.072,0.874,0.078,1.325c0.177,12.942-8.257,24.983-23.713,32.394
				c-12.54,6.012-21.587,9.285-27.532,11.061c8.253-0.095,19.132-2.009,29.437-4.286
				C241.032,249.846,264.693,233.572,256.012,210.494z"/>
			<path fill="#69B802" d="M161.026,291.262c-6.718-3.332-8.105-22.381-2.932-48.181c6.325-31.543,30.259-49.549,50.523-33.143
				c19.577,15.85,7.138,42.421-10.604,58.878C184.046,281.771,167.907,294.673,161.026,291.262z"/>
			<path fill="#5AA043" d="M208.617,209.937c-13.078-10.588-27.678-6.829-38.094,5.637c6.169-1.382,17.943-2.445,24.626,4.977
				c-1.229,1.537-2.531,3.224-3.902,5.09c-17.949,24.443-39.902,80.325-39.902,80.325s4.61,2.729,5.709,4.174
				c16.397-47.703,30.526-74.478,39.179-88.24c0.261,0.361,0.515,0.732,0.753,1.127c6.845,11.313,5.636,26.284-4.154,40.802
				c-7.943,11.78-14.224,19.339-18.545,23.977c7.224-4.349,15.821-11.658,23.726-18.991
				C215.754,252.358,228.194,225.787,208.617,209.937z"/>
			<path fill="#69B802" d="M172.001,196.835c-4.382-6.086,3.297-23.574,19.93-43.964c20.336-24.929,49.911-29.658,60.156-5.682
				c9.898,23.163-13.52,40.837-36.897,47.093C196.788,199.208,176.489,203.07,172.001,196.835z"/>
			<path fill="#5AA043" d="M252.087,147.191c-6.612-15.474-21.276-18.976-36.311-12.823c6.1,1.662,17.004,6.225,19.443,15.911
				c-1.805,0.784-3.745,1.667-5.829,2.676c-27.293,13.217-72.822,52.356-72.822,52.356s2.8,4.567,3.095,6.359
				c36.794-34.506,61.801-51.57,75.883-59.692c0.062,0.441,0.112,0.888,0.139,1.349c0.763,13.201-7.304,25.87-22.745,34.128
				c-12.529,6.7-21.615,10.447-27.602,12.528c8.419-0.47,19.436-2.912,29.851-5.699
				C238.567,188.027,261.984,170.354,252.087,147.191z"/>
			<path fill="#69B802" d="M166.722,127.684c-4.308-4.77,0.58-20.394,12.822-39.337c14.967-23.159,39.715-29.984,50.709-10.528
				c10.622,18.797-7.656,36.067-26.98,43.607C188.062,127.36,171.134,132.57,166.722,127.684z"/>
			<path fill="#5AA001" d="M230.253,77.818c-7.096-12.557-19.919-14.154-32.145-7.491c5.353,0.839,15.05,3.711,18.045,11.729
				c-1.458,0.836-3.019,1.766-4.689,2.818c-22.001,13.841-57.087,51.488-57.087,51.488s2.816,3.626,3.238,5.124
				c28.066-32.855,47.749-49.756,58.981-58.011c0.094,0.37,0.199,0.731,0.266,1.121c1.898,11.173-3.776,22.729-16.15,31.224
				c-10.04,6.893-17.426,10.944-22.33,13.282c7.128-1.194,16.282-4.317,24.891-7.676C222.596,113.887,240.874,96.616,230.253,77.818
				z"/>
			<path fill="#69B802" d="M157.093,92.877c-6.104-2.014-9.585-18.01-8.317-40.529c1.55-27.531,19.681-45.706,38.861-34.236
				c18.53,11.081,11.189,35.132-1.874,51.244C175.479,82.038,163.345,94.939,157.093,92.877z"/>
			<path fill="#5AA043" d="M187.637,18.111c-12.378-7.402-24.313-2.446-31.642,9.393c5.068-1.92,14.928-4.245,21.498,1.243
				c-0.857,1.453-1.758,3.042-2.694,4.791c-12.273,22.912-24.14,72.987-24.14,72.987s4.241,1.759,5.349,2.852
				c8.142-42.462,16.892-66.891,22.569-79.616c0.265,0.275,0.525,0.56,0.776,0.866c7.177,8.771,7.962,21.621,1.412,35.125
				c-5.315,10.957-9.73,18.131-12.835,22.59c5.602-4.566,12.014-11.809,17.834-18.987C198.826,53.244,206.167,29.193,187.637,18.111
				z"/>
			<path fill="#69B802" d="M141.597,113.161c4.455-4.633,0.059-20.402-11.584-39.719c-14.235-23.617-38.757-31.213-50.355-12.11
				c-11.205,18.455,6.524,36.289,25.601,44.43C120.277,112.171,137.033,117.907,141.597,113.161z"/>
			<path fill="#5AA043" d="M93.131,67.413c10.968,8.603,30.112,26.112,57.136,59.829c0.468-1.484,3.397-5.021,3.397-5.021
				s-33.89-38.727-55.447-53.249c-1.637-1.103-3.169-2.082-4.599-2.963c3.244-7.92,13.027-10.488,18.404-11.159
				c-12.012-7.042-24.879-5.848-32.364,6.481c-11.205,18.455,6.523,36.289,25.601,44.43c8.5,3.627,17.552,7.035,24.64,8.453
				c-4.828-2.491-12.084-6.772-21.903-13.975C95.894,91.36,90.584,79.633,92.831,68.525C92.909,68.138,93.026,67.78,93.131,67.413z"
				/>
			<path fill="#69B802" d="M142.475,179.911c3.928-5.794-3.698-21.909-19.756-40.496c-19.633-22.724-47.354-26.357-56.281-3.715
				c-8.625,21.875,13.692,37.748,35.67,42.969C119.409,182.779,138.451,185.846,142.475,179.911z"/>
			<path fill="#5AA043" d="M154.377,193.427c0.229-1.679,2.72-6.015,2.72-6.015s-43.515-35.319-69.33-46.933
				c-1.971-0.886-3.804-1.659-5.509-2.343c2.021-9.102,12.075-13.647,17.723-15.359c-14.191-5.344-27.782-1.69-33.543,12.923
				c-8.624,21.875,13.692,37.748,35.67,42.969c9.791,2.326,20.136,4.314,28.004,4.53c-5.642-1.784-14.219-5.04-26.086-10.962
				c-14.626-7.299-22.487-18.908-22.123-31.245c0.013-0.431,0.048-0.849,0.094-1.262
				C95.351,146.936,119.134,162.199,154.377,193.427z"/>
			<path fill="#69B802" d="M138.397,242.275c3.574-6.369-5.773-22.452-24.104-40.362c-22.411-21.897-51.55-23.233-58.838,1.092
				c-7.041,23.501,17.558,38.039,40.866,41.532C114.67,247.285,134.736,248.798,138.397,242.275z"/>
			<path fill="#5AA043" d="M151.961,255.277c0.09-1.766,2.298-6.493,2.298-6.493s-48.349-32.889-76.209-42.69
				c-2.127-0.748-4.101-1.39-5.934-1.951c1.299-9.64,11.352-15.252,17.073-17.528c-15.224-4.306-29.032,0.689-33.735,16.388
				c-7.041,23.501,17.558,38.039,40.866,41.532c10.384,1.556,21.314,2.713,29.513,2.244c-6.022-1.358-15.226-3.988-28.084-9.1
				c-15.848-6.301-25.043-17.678-25.751-30.536c-0.024-0.448-0.024-0.886-0.013-1.319
				C86.504,212.141,112.573,225.916,151.961,255.277z"/>
			<path fill="#69B802" d="M141.297,299.771c4.081-6.312-4.482-23.433-22.156-43.011c-21.608-23.935-51.451-27.187-60.505-2.672
				c-8.747,23.684,15.582,40.203,39.297,45.293C116.603,303.388,137.117,306.236,141.297,299.771z"/>
			<path fill="#5AA043" d="M154.391,314.001c0.206-1.808,2.779-6.521,2.779-6.521s-47.54-36.897-75.524-48.761
				c-2.136-0.906-4.122-1.692-5.969-2.386c1.957-9.817,12.642-14.932,18.666-16.902c-15.359-5.405-29.863-1.165-35.706,14.657
				c-8.747,23.684,15.582,40.203,39.297,45.293c10.566,2.267,21.717,4.16,30.17,4.208c-6.098-1.782-15.382-5.078-28.26-11.157
				c-15.872-7.493-24.583-19.771-24.481-33.024c0.003-0.463,0.032-0.913,0.071-1.358
				C89.939,265.475,115.828,281.304,154.391,314.001z"/>
			<path fill="#821F1B" d="M192.739,158.786c-10.655,0.047-17.702-6.87-17.777-17.447c-0.078-11.042,8.257-18.866,20.195-18.958
				c10.099-0.078,16.375,6.468,16.44,17.148C211.67,151.251,204.339,158.736,192.739,158.786z"/>
			<path fill="#C30D26" d="M190.925,151.915c-7.852,0.034-13.045-5.063-13.099-12.856c-0.057-8.137,6.084-13.902,14.882-13.97
				c7.442-0.058,12.067,4.767,12.115,12.636C204.875,146.363,199.474,151.878,190.925,151.915z"/>
			<path opacity="0.5" fill="#ED9EC3" enable-background="new    " d="M188.813,141.992c-4.123,0.018-6.849-2.658-6.878-6.75
				c-0.03-4.272,3.195-7.299,7.814-7.335c3.907-0.03,6.336,2.503,6.361,6.635C196.138,139.076,193.301,141.971,188.813,141.992z"/>
			<path fill="#821F1B" d="M189.354,194.572c-10.655,0.047-17.702-6.87-17.777-17.447c-0.078-11.042,8.257-18.866,20.195-18.958
				c10.099-0.078,16.375,6.468,16.44,17.148C208.285,187.035,200.954,194.52,189.354,194.572z"/>
			<path fill="#C30D26" d="M187.54,187.701c-7.852,0.034-13.045-5.063-13.1-12.856c-0.057-8.137,6.084-13.902,14.882-13.97
				c7.442-0.058,12.067,4.767,12.115,12.636C201.49,182.148,196.089,187.663,187.54,187.701z"/>
			<path opacity="0.5" fill="#ED9EC3" enable-background="new    " d="M185.428,177.775c-4.123,0.018-6.849-2.658-6.878-6.75
				c-0.03-4.272,3.195-7.299,7.814-7.335c3.907-0.03,6.336,2.503,6.361,6.635C192.753,174.861,189.916,177.757,185.428,177.775z"/>
			<path fill="#821F1B" d="M120.687,230.507c-10.655,0.047-17.702-6.87-17.777-17.447c-0.078-11.042,8.257-18.866,20.195-18.958
				c10.099-0.078,16.375,6.468,16.44,17.148C139.617,222.971,132.287,230.456,120.687,230.507z"/>
			<path fill="#C30D26" d="M118.873,223.637c-7.852,0.034-13.045-5.063-13.099-12.856c-0.057-8.137,6.084-13.902,14.882-13.97
				c7.442-0.058,12.067,4.767,12.115,12.636C132.823,218.083,127.421,223.598,118.873,223.637z"/>
			<path opacity="0.5" fill="#ED9EC3" enable-background="new    " d="M116.761,213.712c-4.123,0.018-6.849-2.658-6.878-6.75
				c-0.03-4.272,3.195-7.299,7.814-7.335c3.907-0.03,6.336,2.503,6.361,6.635C124.085,210.796,121.249,213.691,116.761,213.712z"/>
			<path fill="#821F1B" d="M116.334,149.115c-10.655,0.047-17.702-6.87-17.777-17.447c-0.078-11.042,8.257-18.866,20.195-18.958
				c10.099-0.078,16.375,6.468,16.44,17.148C135.264,141.579,127.934,149.064,116.334,149.115z"/>
			<path fill="#C30D26" d="M114.52,142.245c-7.852,0.034-13.045-5.063-13.099-12.856c-0.057-8.137,6.084-13.902,14.882-13.97
				c7.442-0.058,12.067,4.767,12.115,12.636C128.47,136.691,123.068,142.208,114.52,142.245z"/>
			<path opacity="0.5" fill="#ED9EC3" enable-background="new    " d="M112.408,132.32c-4.123,0.018-6.849-2.658-6.878-6.75
				c-0.03-4.272,3.195-7.299,7.814-7.335c3.907-0.03,6.336,2.503,6.361,6.635C119.732,129.404,116.896,132.299,112.408,132.32z"/>
			<path fill="#821F1B" d="M117.189,195.044c-13.203,0.058-21.936-8.513-22.028-21.619c-0.096-13.683,10.231-23.377,25.025-23.492
				c12.514-0.097,20.292,8.015,20.372,21.249C140.648,185.706,131.564,194.982,117.189,195.044z"/>
			<path fill="#C30D26" d="M114.942,186.531c-9.729,0.042-16.165-6.273-16.232-15.931c-0.071-10.083,7.539-17.227,18.441-17.311
				c9.221-0.071,14.953,5.906,15.012,15.658C132.228,179.65,125.535,186.484,114.942,186.531z"/>
			<path opacity="0.5" fill="#ED9EC3" enable-background="new    " d="M112.325,174.232c-5.108,0.022-8.487-3.294-8.523-8.365
				c-0.037-5.294,3.959-9.045,9.683-9.089c4.842-0.038,7.851,3.101,7.882,8.221C121.401,170.618,117.887,174.208,112.325,174.232z"
				/>
			<path fill="#821F1B" d="M153.305,128.32c-11.077,0.048-18.404-7.143-18.482-18.139c-0.081-11.48,8.584-19.614,20.996-19.71
				c10.499-0.081,17.025,6.725,17.093,17.828C172.987,120.485,165.366,128.266,153.305,128.32z"/>
			<path fill="#C30D26" d="M151.42,121.176c-8.163,0.036-13.562-5.263-13.619-13.366c-0.059-8.46,6.326-14.453,15.472-14.524
				c7.737-0.06,12.546,4.956,12.595,13.137C165.923,115.403,160.307,121.137,151.42,121.176z"/>
			<path opacity="0.5" fill="#ED9EC3" enable-background="new    " d="M149.224,110.857c-4.286,0.019-7.121-2.764-7.151-7.018
				c-0.031-4.442,3.321-7.589,8.124-7.626c4.062-0.031,6.587,2.602,6.613,6.898C156.839,107.826,153.89,110.838,149.224,110.857z"/>
			<path fill="#821F1B" d="M155.392,169.415c-13.203,0.058-21.936-8.513-22.028-21.619c-0.096-13.683,10.231-23.377,25.025-23.492
				c12.514-0.097,20.292,8.015,20.372,21.249C178.85,160.076,169.767,169.352,155.392,169.415z"/>
			<path fill="#C30D26" d="M153.144,160.9c-9.729,0.043-16.165-6.273-16.232-15.931c-0.071-10.083,7.539-17.227,18.441-17.311
				c9.221-0.071,14.953,5.906,15.012,15.658C170.431,154.02,163.737,160.854,153.144,160.9z"/>
			<path opacity="0.5" fill="#ED9EC3" enable-background="new    " d="M150.527,148.602c-5.108,0.022-8.487-3.294-8.523-8.365
				c-0.037-5.294,3.959-9.045,9.683-9.089c4.842-0.038,7.851,3.101,7.882,8.221C159.604,144.99,156.089,148.577,150.527,148.602z"/>
			<path fill="#821F1B" d="M152.491,211.969c-13.203,0.058-21.936-8.513-22.028-21.619c-0.096-13.683,10.231-23.377,25.025-23.492
				c12.514-0.097,20.292,8.015,20.372,21.249C175.949,202.632,166.866,211.906,152.491,211.969z"/>
			<path fill="#C30D26" d="M150.243,203.456c-9.729,0.042-16.165-6.273-16.232-15.931c-0.071-10.083,7.539-17.227,18.441-17.311
				c9.221-0.071,14.953,5.906,15.012,15.658C167.529,196.574,160.836,203.41,150.243,203.456z"/>
			<path opacity="0.5" fill="#ED9EC3" enable-background="new    " d="M147.626,191.156c-5.108,0.022-8.487-3.294-8.523-8.365
				c-0.037-5.294,3.959-9.045,9.683-9.089c4.842-0.038,7.851,3.101,7.882,8.221C156.702,187.544,153.188,191.132,147.626,191.156z"
				/>
			<path fill="#821F1B" d="M153.305,247.279c-11.077,0.048-18.404-7.143-18.482-18.139c-0.081-11.48,8.584-19.614,20.996-19.71
				c10.499-0.081,17.025,6.725,17.093,17.828C172.987,239.445,165.366,247.227,153.305,247.279z"/>
			<path fill="#C30D26" d="M151.42,240.137c-8.163,0.036-13.562-5.263-13.619-13.366c-0.059-8.46,6.326-14.453,15.472-14.524
				c7.737-0.06,12.546,4.956,12.595,13.137C165.923,234.363,160.307,240.098,151.42,240.137z"/>
			<path opacity="0.5" fill="#ED9EC3" enable-background="new    " d="M149.224,229.818c-4.286,0.019-7.121-2.764-7.151-7.018
				c-0.031-4.442,3.321-7.589,8.124-7.626c4.062-0.031,6.587,2.602,6.613,6.898C156.839,226.786,153.89,229.798,149.224,229.818z"/>
		</g>
		<g id="Layer_1_9_">
		</g>
	</g>
</g>
<g id="Layer_1">
</g>
</svg>
