<?xml version="1.0" encoding="utf-8"?>
<!-- Generator: Adobe Illustrator 24.2.3, SVG Export Plug-In . SVG Version: 6.00 Build 0)  -->
<svg version="1.1" xmlns="http://www.w3.org/2000/svg" xmlns:xlink="http://www.w3.org/1999/xlink" x="0px" y="0px"
	 viewBox="0 0 314.216 314.215" enable-background="new 0 0 314.216 314.215" xml:space="preserve">
<g id="memorygame_x5F_acorn_x5F_tammenterho">
	<path fill="#FFDDC3" d="M259.563,314.215H54.653C24.594,314.215,0,289.622,0,259.563V54.653C0,24.594,24.594,0,54.653,0h204.91
		c30.059,0,54.653,24.594,54.653,54.653v204.91C314.215,289.622,289.622,314.215,259.563,314.215z"/>
	<path fill="#FFFFFF" d="M276.686,74.235C239.539,15.273,161.127,11.167,96.488,37.77C48.123,57.675-6.454,132.761,32.781,221.852
		c39.571,89.853,163.143,87.006,212.596,44.307C307.722,212.328,307.197,122.664,276.686,74.235z"/>
	<g>
		<g id="muistipeli_x5F_tammenterho_1_">
			<path fill="#935803" d="M227.47,136.526c-4.008-1.444-133.787-6.065-138.461-7.557c-5.995,18.843-9.182,38.068-7.25,58.058
				c2.963,30.648,12.848,58.326,40.068,77.456c30.063,21.129,63.743,21.829,92.061-17.945
				C236.267,215.106,236.442,175.101,227.47,136.526z"/>
			<path fill="#BF7900" d="M142.864,250.236c-1.99,6.855-7.348,7.47-14.372,2.08c-19.446-7.787-52.764-94.183-14.528-74.539
				c10.534,7.631,9.583,19.956,12.07,31.024c1.038,11.59,8.013,22.432,15.064,33.323
				C143.002,245.063,144.002,247.941,142.864,250.236z"/>
			<path fill="#5B3C09" d="M164.533,82.145l4.321-43.281L145.362,35.4l4.818,45.981c-46.525-0.32-86.495,23.676-70.193,58.557
				l154.222,7.023C234.209,146.962,262.224,90.532,164.533,82.145z"/>
		</g>
		<g id="Layer_1_33_">
		</g>
	</g>
</g>
<g id="Layer_1">
</g>
</svg>
