<?xml version="1.0" encoding="utf-8"?>
<!-- Generator: Adobe Illustrator 24.2.3, SVG Export Plug-In . SVG Version: 6.00 Build 0)  -->
<svg version="1.1" xmlns="http://www.w3.org/2000/svg" xmlns:xlink="http://www.w3.org/1999/xlink" x="0px" y="0px"
	 viewBox="0 0 314.216 314.215" enable-background="new 0 0 314.216 314.215" xml:space="preserve">
<g id="memorygame_x5F_birch_x5F_koivu">
	<path fill="#FFDDC3" d="M259.563,314.215H54.653C24.594,314.215,0,289.622,0,259.563V54.653C0,24.594,24.594,0,54.653,0h204.91
		c30.059,0,54.653,24.594,54.653,54.653v204.91C314.215,289.622,289.622,314.215,259.563,314.215z"/>
	<path fill="#FFFFFF" d="M276.686,74.235C239.539,15.273,161.127,11.167,96.488,37.77C48.123,57.675-6.454,132.761,32.781,221.852
		c39.571,89.853,163.143,87.006,212.596,44.307C307.722,212.328,307.197,122.664,276.686,74.235z"/>
	<g>
		<g id="muistipeli_x5F_koivu_1_">
			<path fill="#69B802" d="M106.836,248.69c2.376-1.139,4.701-2.253,8.147-3.905c-10.834-4.66-20.256-9.659-28.369-16.72
				c-8.022-6.981-14.298-15.388-20.216-24.648c3.6-0.236,5.756,2.316,9.36,2.594c-8.339-23.654-16.701-46.982-18.28-73.271
				c2.741,2.886,4.707,4.956,7.535,7.934c1.038-21.94,0.135-42.735-1.554-63.827c3.719,1.244,4.611,5.33,8.158,7.025
				c3.087-17.465,2.152-34.269-4.357-51.841c15.155,9.11,30.473,14.792,47.1,18.795c-2.243-4.679-4.349-9.073-7.28-15.187
				c19.472,8.761,35.711,21.033,56.554,22.778c-1.201-4.429-2.348-8.658-3.903-14.394c19.122,14.491,38.734,26.264,53.715,44.546
				c1.942-3.66,0.796-7.069,1.93-10.571c17.001,15.506,27.601,34.535,33.484,57.41c2.751-2.983,4.738-5.138,6.788-7.36
				c14.935,59.677-13.73,96.765-42.995,115.438C175.396,267.259,130.96,262.336,106.836,248.69z"/>
			<path fill="#A3D02A" d="M244.749,174.546l-3.523-1.582l-27.923,62.156l-17.807-26.693l16.404-82.252l-3.787-0.755l-15.648,78.463
				l-20.854-31.691l5.262-72.986l-3.852-0.278l-4.908,68.074l-32.238-47.829l0.44-38.945l-3.861-0.043l-0.377,33.354l-30.878-45.81
				l-3.202,2.158l30.724,45.582l-32.295-13.563l-1.495,3.561l37.728,15.844l31.423,46.62l-68.485-30.082l-1.553,3.535l73.541,32.304
				l0.041,0.067l-0.002,0.023l0.017,0.001l19.913,32.138c-31.371-7.102-90.284-20.404-91.663-20.44l-0.101,3.86
				c-0.03-0.001-0.08-0.001-0.148-0.011c2.49,0.347,66.953,14.899,94.766,21.197l16.702,26.955l-77.939-5.584l-0.276,3.851
				l80.725,5.783l32.032,50.769l7.483-6.725l-33.302-46.66L244.749,174.546z"/>
		</g>
		<g id="Layer_1_40_">
		</g>
	</g>
</g>
<g id="Layer_1">
</g>
</svg>
