<?xml version="1.0" encoding="utf-8"?>
<!-- Generator: Adobe Illustrator 24.2.3, SVG Export Plug-In . SVG Version: 6.00 Build 0)  -->
<svg version="1.1" xmlns="http://www.w3.org/2000/svg" xmlns:xlink="http://www.w3.org/1999/xlink" x="0px" y="0px"
	 viewBox="0 0 314.216 314.215" enable-background="new 0 0 314.216 314.215" xml:space="preserve">
<g id="memorygame_x5F_fox_x5F_kettu">
	<g id="Layer_1_19_">
	</g>
	<path fill="#FFDDC3" d="M54.653,314.215h204.91c30.059,0,54.653-24.594,54.653-54.653V54.653C314.215,24.594,289.622,0,259.563,0
		H54.653C24.594,0,0,24.594,0,54.653v204.91C0,289.622,24.594,314.215,54.653,314.215z"/>
	<path fill="#FFFFFF" d="M49.678,73.088c34.666-55.023,107.839-58.855,168.16-34.029c45.134,18.575,96.065,88.645,59.451,171.784
		c-36.928,83.85-152.245,81.193-198.393,41.347C20.715,201.956,21.206,118.281,49.678,73.088z"/>
	<g>
		<path fill="#BF7900" d="M0,69.336v85.889c0,0,25.426,0.937,62.831-27.106L24.792,66.494L0,69.336z"/>
		<path fill="#BF7900" d="M2.084,275.042c30.215-8.772,71.699-25.645,94.484-55.804l89.457,34.913L172.9,314.215H54.476
			C29.79,314.215,8.802,297.622,2.084,275.042z"/>
		<path fill="#BF7900" d="M190.451,96.622c0,0-17.364-74.887-38.745-68.867c-26.631,7.498-29.608,33.889-41.072,88.54
			L190.451,96.622z"/>
		<path fill="#935803" d="M176.329,99.784c0,0-9.224-56.173-27.264-52.901s-27.171,66.148-27.171,66.148L176.329,99.784z"/>
		<path fill="#4B4B4A" d="M140.462,32.947c2.388-3.13,9.099-5.628,10.343-5.942c25.328-6.402,39.646,69.617,39.646,69.617
			l-6.922,1.706l-0.526-1.436c0,0-6.717-39.659-18.673-54.473C159.802,36.808,148.075,32.658,140.462,32.947z"/>
		<path fill="#BF7900" d="M222.177,103.458c0,0,60.725-47.138,73.513-28.976c15.928,22.621,1.585,44.973-24.007,94.604
			L222.177,103.458z"/>
		<path fill="#935803" d="M231.138,114.822c0,0,42.602-37.757,54.532-23.835c11.93,13.922-20.662,68.461-20.662,68.461
			L231.138,114.822z"/>
		<path fill="#4B4B4A" d="M301.137,85.605c0.123-3.935-3.508-10.107-4.274-11.136c-15.609-20.948-74.686,28.99-74.686,28.99
			l4.293,5.691l1.314-0.782c0,0,30.236-26.528,48.859-30.476C283.697,76.396,295.413,80.577,301.137,85.605z"/>
		<path fill="#BF7900" d="M166.261,91.528c0,0-92.853,7.552-78.36,106.023c12.906,87.691,78.389,91.807,106.249,86.766
			c32.738-5.924,99.089-40.974,77.621-117.945S192.604,87.96,166.261,91.528z"/>
		<g>
			<path fill="#BF7900" d="M93.662,157.531c-5.448,12.536-10.513,25.982-18.985,35.098c-8.922,9.601-20.285,12.973-31.065,16.892
				c-2.755,1.001-5.656,2.178-7.712,4.973c-4.453,6.054-2.519,15.887,0.938,22.143c11.076,20.043,32.031,24.449,51.233,26.058
				c15.472,1.296,31.047,1.671,46.667,1.123c8.448-0.297,16.925-1.086,25.356-3.312C300.083,223.544,105.309,130.733,93.662,157.531
				z"/>
		</g>
		<path fill="#FDFDFD" d="M110.128,186.601c-30.172-8.574-17.067-49.138,11.573-39.777
			C144.242,154.393,132.848,192.149,110.128,186.601z"/>
		<path fill="#4B4B4A" d="M123.987,169.436c-2.554,7.438-8.891,11.073-15.213,9.117c-6.714-2.078-12.462-9.763-9.607-16.663
			c2.717-6.567,9.198-10.887,16.63-8.589C123.756,155.762,126.001,163.236,123.987,169.436z"/>
		<path fill="#FDFDFD" d="M197.505,204.493c-30.172-8.574-17.067-49.138,11.573-39.777
			C231.619,172.285,220.225,210.041,197.505,204.493z"/>
		<path fill="#4B4B4A" d="M211.365,187.328c-2.554,7.438-8.891,11.073-15.213,9.117c-6.714-2.078-12.462-9.763-9.607-16.663
			c2.717-6.567,9.198-10.887,16.63-8.589C211.133,173.654,213.378,181.128,211.365,187.328z"/>
		<path fill="#F7F1E7" d="M273.461,170.956c-0.561-1.98-0.541-2.02-1.153-3.897c-34.17,53.354-117.728,76.198-238.997,57.485
			c0.024,4.61,1.517,9.456,3.527,13.092c11.076,20.043,32.031,24.449,51.234,26.058c9.045,0.758,17.156,1.227,25.454,1.379
			c0.515,4.752-1.206,9.804-5.093,12.651c6.007,2.283,13.118,1.402,18.386-2.279c2.003,3.433,1.905,7.987-0.246,11.331
			c4.392,1.406,9.514,0.214,12.833-2.988c2.43,3.615,3.911,7.861,4.258,12.203c6.073-1.068,11.406-5.478,13.77-11.151
			c14.163,2.854,27.496,2.139,36.718,0.476C226.892,279.415,294.484,245.189,273.461,170.956z"/>
		<path fill="#935803" d="M72.581,221.806c-5.678-2.371-2.003-11.199,3.685-8.824C81.944,215.352,78.268,224.181,72.581,221.806
			L72.581,221.806z"/>
		<path fill="#F5EEDE" d="M69.742,126.218c48.719-37.917,30.443-104.256,30.443-104.256S61.186,56.793,19.742,67.405l-8.449,11.342
			l23.865,12.815l-18.194,26.952l27.556,5.97l-11.575,21.473C41.534,142.443,58.488,134.977,69.742,126.218z"/>
		<path opacity="0.3" fill="#BF7900" enable-background="new    " d="M189.564,263.53c-9.242,6.961-19.83,9.615-31.158,7.335
			c-15.216-3.063-24.43-15.972-24.219-32.774c0.06-4.742,0.702-9.358,2.298-13.814c4.73-13.21,16.656-20.24,31.787-19.926
			C205.999,205.136,206.328,250.902,189.564,263.53z"/>
		<path fill="#4B4B4A" d="M56.935,213.398c5.731,4.323,5.111,11.584,1.43,17.106c-2.754,4.131-11.423,7.979-20.31,2.998
			c-8.963-5.023-7.001-16.323-1.823-20.201C42.76,208.412,52.228,209.848,56.935,213.398z"/>
		<path fill="#4B4B4A" d="M65.679,241.833c5.016,12.36,25.716,16.74,39.529,7.615c3.62-2.391,9.782-10.301,10.757-13.399
			c0.019-0.061,0.109-0.044,0.104,0.02c-0.243,3.137-1.893,8.83-3.674,11.88c-10.685,18.297-41.122,14.569-46.756-6.097
			L65.679,241.833z"/>
		<path fill="#935803" d="M78.065,231.233c-4.231-1.766-1.492-8.344,2.745-6.575C85.041,226.424,82.302,233.002,78.065,231.233
			L78.065,231.233z"/>
		<path fill="#935803" d="M70.701,228.632c-0.09,0.266-0.064,0.167,0.079-0.299c-0.062,0.229-0.123,0.459-0.185,0.688
			c-0.228,0.622-0.839,1.186-1.442,1.433c-1.287,0.529-2.978-0.098-3.466-1.447c-0.472-1.306,0.052-2.962,1.447-3.466
			c0.56-0.203,1.111-0.241,1.689-0.086c0.356,0.063,0.676,0.214,0.959,0.452c-0.429-0.23-0.518-0.282-0.266-0.156
			C70.637,226.301,71.113,227.447,70.701,228.632L70.701,228.632z"/>
	</g>
</g>
<g id="Layer_1">
</g>
</svg>
