<?xml version="1.0" encoding="utf-8"?>
<!-- Generator: Adobe Illustrator 24.2.3, SVG Export Plug-In . SVG Version: 6.00 Build 0)  -->
<svg version="1.1" xmlns="http://www.w3.org/2000/svg" xmlns:xlink="http://www.w3.org/1999/xlink" x="0px" y="0px"
	 viewBox="0 0 314.216 314.215" enable-background="new 0 0 314.216 314.215" xml:space="preserve">
<g id="memorygame_x5F_mole_x5F_kontiainen">
	<path fill="#FFDDC3" d="M259.563,314.215H54.653C24.594,314.215,0,289.622,0,259.563V54.653C0,24.594,24.594,0,54.653,0h204.91
		c30.059,0,54.653,24.594,54.653,54.653v204.91C314.215,289.622,289.622,314.215,259.563,314.215z"/>
	<path fill="#FFFFFF" d="M276.686,74.235C239.539,15.273,161.127,11.167,96.488,37.77C48.123,57.675-6.454,132.761,32.781,221.852
		c39.571,89.853,163.143,87.006,212.596,44.307C307.722,212.328,307.197,122.664,276.686,74.235z"/>
	<g>
		<path fill="#F1D2B3" d="M242.329,233.901c11.643-5.314,20.525-17.87,15.27-30.297l-33.378,1.757c0,0-32.098,6.258-30.463,11.942
			c1.64,5.698,32.863-6.883,33.801-3.808c0.939,3.076-32.163,5.975-30.579,12.38c1.213,4.907,33.032-7.803,33.957-4.391
			c0.926,3.412-32.097,6.168-30.54,12.234c1.385,5.397,32.135-7.801,33.119-4.849c0.984,2.952-30.495,6.287-29.397,10.794
			C205.254,244.319,230.686,239.215,242.329,233.901z"/>
		<path fill="#D8D8D8" d="M196.981,225.876c0.668,2.699,10.593,0.068,19.546-2.278l-1.895-5.772
			C205.895,219.85,196.103,222.323,196.981,225.876z"/>
		<path fill="#D8D8D8" d="M200.398,233.719c0.752,2.93,10.161,0.379,18.763-2.093l-1.795-5.469
			C208.822,228.129,199.557,230.441,200.398,233.719z"/>
		<path fill="#D8D8D8" d="M221.921,240.033l-2.159-6.576c-7.924,1.826-16.215,3.857-15.642,6.208
			C204.749,242.244,212.846,241.824,221.921,240.033z"/>
		<path fill="#D8D8D8" d="M193.759,217.304c0.921,3.2,11.172,0.635,20.149-1.685l-1.985-6.047
			C203.066,211.632,192.83,214.075,193.759,217.304z"/>
	</g>
	<g>
		<path fill="#F1D2B3" d="M49.444,179.571l-3.891-39.945c-23.595,0.947-36.139,8.48-35.83,10.116
			c0.87,4.612,25.685-3.238,26.3-0.172c0.615,3.066-25.126,3.257-23.986,9.052c1.143,5.808,25.735-3.808,26.393-0.668
			c0.658,3.14-25.169,2.971-24.087,9.475c0.829,4.983,25.888-4.706,26.529-1.233c0.641,3.473-25.122,3.169-24.053,9.334
			c0.951,5.486,25.19-4.786,25.886-1.765s-23.878,3.434-23.129,8.009C20.348,186.5,40.259,183.774,49.444,179.571z"/>
		<path fill="#D8D8D8" d="M14.343,167.429c0.456,2.741,8.242,1.043,15.263-0.462l-1.339-5.905
			C21.422,162.267,13.743,163.821,14.343,167.429z"/>
		<path fill="#D8D8D8" d="M16.819,175.53c0.517,2.979,7.899,1.311,14.65-0.351l-1.269-5.595
			C23.505,170.755,16.241,172.197,16.819,175.53z"/>
		<path fill="#D8D8D8" d="M33.419,183.779l-1.525-6.727c-6.209,1.082-12.708,2.336-12.318,4.723
			C20.004,184.394,26.315,184.721,33.419,183.779z"/>
		<path fill="#D8D8D8" d="M12.037,158.622c0.642,3.261,8.679,1.659,15.719,0.183l-1.403-6.186
			C19.412,153.848,11.39,155.331,12.037,158.622z"/>
		<path fill="#D8D8D8" d="M25.714,149.799l-1.672-7.375c-10.524,2.872-14.565,6.017-14.32,7.318
			C10.22,152.382,18.556,150.941,25.714,149.799z"/>
	</g>
	<path fill="#4B4B4A" d="M295.686,172.101c-3.811,2.588-7.994,4.6-12.372,6.019c-0.712-12.532-6.827-59.054-58.131-72.595
		c-59.478-15.698-149.111-5.045-174.661,25.228c-25.55,30.273-10.052,37.562-20.942,56.623
		C18.69,206.437,6.124,209.8,15.338,219.892c9.215,10.091,36.021-9.476,61.153-9.223s108.064,0.813,134.871,7.541
		c25.291,6.347,65.486,14.763,71.359-28.595c7.068-2.827,13.606-6.962,19.056-12.282c3.229-3.152,6.223-6.99,6.58-11.488
		C303.578,166.017,299.642,169.415,295.686,172.101z"/>
	<path fill="#DC9ABF" d="M32.832,214.993c-1.176,5.65-6.249,8.873-12.121,8.022c-6.237-0.904-12.436-5.98-10.916-11.266
		c1.447-5.03,6.547-8.766,13.451-7.766C30.639,205.053,33.711,210.294,32.832,214.993z"/>
	<path opacity="0.5" fill="#EB4238" enable-background="new    " d="M18.147,213.9c-0.335,1.788-1.664,2.833-3.177,2.597
		c-1.607-0.25-3.18-1.817-2.758-3.492c0.402-1.594,1.74-2.801,3.519-2.524C17.635,210.777,18.4,212.413,18.147,213.9z"/>
	<path opacity="0.5" fill="#EB4238" enable-background="new    " d="M28.799,213.9c-0.335,1.788-1.664,2.833-3.177,2.597
		c-1.607-0.25-3.18-1.817-2.758-3.492c0.402-1.594,1.74-2.801,3.519-2.524C28.287,210.777,29.052,212.413,28.799,213.9z"/>
	<path fill="#DC9ABF" d="M55.26,199.879c7.282,11.543,25.161,4.463,22.826-8.835c5.735,14.952-17.498,23.707-22.843,8.849
		L55.26,199.879z"/>
	<path opacity="0.2" fill="#EB4238" enable-background="new    " d="M95.009,183.86c-7.405,0.928-12.721,5.211-14.085,11.994
		c-0.46,2.288-0.443,4.586-0.134,6.904c0.41,3.065,1.423,5.771,2.927,7.981c6.949,0.07,15.95,0.174,26.014,0.362
		C116.869,203.634,113.383,181.557,95.009,183.86z"/>
	<g>
		<path fill="#F1D2B3" d="M157.338,230.97c5.63-8.387,5.68-22.083-4.263-31.025c-3.39-3.048-16.549-6.11-29.868,5.887
			c-13.32,11.997-16.444,19.258-15.325,20.491c3.154,3.476,20.198-16.195,22.326-13.903s-19.711,15.918-15.709,20.26
			c4.011,4.352,19.942-16.706,22.146-14.375s-19.898,15.697-15.573,20.674c3.313,3.814,19.603-17.551,21.966-14.926
			s-19.754,15.841-15.619,20.536c3.68,4.178,18.966-17.254,21.14-15.044c2.174,2.211-18.555,15.416-15.524,18.924
			C136.164,252.094,151.708,239.357,157.338,230.97z"/>
		<path fill="#D8D8D8" d="M121.071,238.981c1.822,2.098,7.57-3.422,12.767-8.377l-4.23-4.333
			C124.404,230.879,118.672,236.22,121.071,238.981z"/>
		<path fill="#D8D8D8" d="M127.418,244.591c1.998,2.269,7.418-3.014,12.303-7.962l-4.007-4.105
			C130.619,237.024,125.182,242.052,127.418,244.591z"/>
		<path fill="#D8D8D8" d="M145.881,242.939l-4.819-4.936c-4.726,4.17-9.609,8.638-8.029,10.468
			C134.769,250.48,140.319,247.458,145.881,242.939z"/>
		<path fill="#D8D8D8" d="M114.499,232.681c2.253,2.444,8.264-3.126,13.493-8.066l-4.431-4.539
			C118.287,224.754,112.226,230.215,114.499,232.681z"/>
		<path fill="#D8D8D8" d="M121.541,218.007l-5.282-5.411c-7.467,7.952-9.267,12.747-8.377,13.727
			C109.686,228.313,116.037,222.724,121.541,218.007z"/>
	</g>
	<path fill="#FDFDFD" d="M80.524,181.95c-11.805-1.145-9.176-18.152,2.198-15.86C91.766,167.722,89.523,182.797,80.524,181.95z"/>
	<path fill="#4B4B4A" d="M85.862,174.61c-0.56,2.988-2.78,4.733-5.307,4.339c-2.684-0.418-5.313-3.035-4.608-5.834
		c0.671-2.664,2.908-4.679,5.879-4.216C85.008,169.393,86.285,172.126,85.862,174.61z"/>
	<path fill="#FDFDFD" d="M44.079,181.95c-11.805-1.145-9.176-18.152,2.198-15.86C55.321,167.722,53.078,182.797,44.079,181.95z"/>
	<path fill="#4B4B4A" d="M49.418,174.61c-0.56,2.988-2.78,4.733-5.307,4.339c-2.684-0.418-5.313-3.035-4.608-5.834
		c0.671-2.664,2.908-4.679,5.879-4.216C48.563,169.393,49.84,172.126,49.418,174.61z"/>
	<g id="Layer_1_18_">
	</g>
</g>
<g id="Layer_1">
</g>
</svg>
