<?xml version="1.0" encoding="utf-8"?>
<!-- Generator: Adobe Illustrator 24.2.3, SVG Export Plug-In . SVG Version: 6.00 Build 0)  -->
<svg version="1.1" xmlns="http://www.w3.org/2000/svg" xmlns:xlink="http://www.w3.org/1999/xlink" x="0px" y="0px"
	 viewBox="0 0 314.216 314.215" enable-background="new 0 0 314.216 314.215" xml:space="preserve">
<g id="memorygame_x5F_lynx_x5F_ilves">
	<g id="Layer_1_23_">
	</g>
	<path fill="#FFDDC3" d="M259.563,314.215H54.653C24.594,314.215,0,289.622,0,259.563V54.653C0,24.594,24.594,0,54.653,0h204.91
		c30.059,0,54.653,24.594,54.653,54.653v204.91C314.215,289.622,289.622,314.215,259.563,314.215z"/>
	<path fill="#FFFFFF" d="M276.686,74.235C239.539,15.273,161.127,11.167,96.488,37.77C48.123,57.675-6.454,132.761,32.781,221.852
		c39.571,89.853,163.143,87.006,212.596,44.307C307.722,212.328,307.197,122.664,276.686,74.235z"/>
	<path fill="#D5B662" d="M268.827,216.457c-33.135-12.877-52.528-35.214-52.528-35.214l-97.676,65.271l25.206,67.7h115.702
		c30.059,0,54.653-24.594,54.653-54.653v-32.393C298.606,224.908,281.833,221.512,268.827,216.457z"/>
	<polygon fill="#F5EEDE" points="154.186,222.75 118.623,246.515 133.828,314.215 227.768,314.215 	"/>
	<path fill="#C0974A" d="M189.821,83.596c0,0,50.248-55.325,65.541-40.077c19.047,18.992,9.06,42.803-7.125,94.623L189.821,83.596z"
		/>
	<path fill="#F5EEDE" d="M200.308,92.976c0,0,34.466-43.302,48.226-31.971c13.76,11.332-8.306,69.026-8.306,69.026L200.308,92.976z"
		/>
	<path fill="#4B4B4A" d="M278.065,18.919c-1.495,5.524-6.284,11.186-10.659,15.452c-0.35,0.341-0.706,0.676-1.06,1.011
		c0.195-0.49,0.4-0.978,0.567-1.477c1.068-3.177,1.302-6.162,1.59-9.426c0.283-3.204-0.652-6.143-1.016-9.316
		c-0.037-0.323-0.617-0.285-0.6,0.038c0.308,5.658-2.516,12.177-5.384,17.258c-1.386,2.456-2.879,4.84-4.552,7.169
		c-0.602,0.838-1.349,1.628-2.041,2.433c-19.475-13.095-65.089,41.534-65.089,41.534l5.066,4.73l1.127-0.969
		c0,0,24.506-30.475,41.679-37.379c6.504-2.614,18.425-0.576,24.75,3.279c-0.252-1.761-1.362-3.844-2.568-5.66
		c1.809-0.722,3.357-2.03,4.91-3.183c2.9-2.153,5.377-4.675,7.378-7.452c2.037-2.828,3.208-5.655,4.52-8.739
		c1.288-3.027,1.317-6.068,1.972-9.209C278.721,18.695,278.15,18.603,278.065,18.919z"/>
	<path fill="#C0974A" d="M121.445,77.548c0,0-52.033-53.65-66.818-37.909c-18.415,19.605-7.653,43.076,10.221,94.339L121.445,77.548
		z"/>
	<path fill="#F5EEDE" d="M111.271,87.266c0,0-35.865-42.15-49.247-30.374s10.562,68.717,10.562,68.717L111.271,87.266z"/>
	<path fill="#4B4B4A" d="M55.031,38.169c-0.718-0.782-1.491-1.547-2.121-2.367c-1.748-2.274-3.318-4.608-4.784-7.017
		c-3.032-4.984-6.069-11.407-5.946-17.072c0.007-0.324-0.574-0.343-0.6-0.019c-0.259,3.184-1.098,6.152-0.71,9.345
		c0.395,3.253,0.726,6.229,1.898,9.369c0.184,0.493,0.405,0.975,0.616,1.46c-0.366-0.325-0.734-0.649-1.095-0.979
		c-4.512-4.121-9.484-9.623-11.159-15.095c-0.096-0.312-0.664-0.202-0.587,0.115c0.757,3.117,0.886,6.156,2.272,9.139
		c1.413,3.039,2.676,5.827,4.804,8.586c2.09,2.711,4.649,5.15,7.618,7.207c1.591,1.101,3.182,2.358,5.014,3.021
		c-1.146,1.855-2.188,3.974-2.382,5.741c6.195-4.06,18.043-6.488,24.631-4.087c17.389,6.338,42.88,35.994,42.88,35.994l1.158,0.932
		l4.908-4.894C121.446,77.548,74.066,24.442,55.031,38.169z"/>
	<path fill="#D5B662" d="M159.11,70.004c0,0-100.403-8.541-102.021,105.603c-1.442,101.648,67.727,117.361,98.334,116.782
		c35.965-0.68,112.857-27.148,103.301-118.235C249.168,83.066,187.842,70.814,159.11,70.004z"/>
	<path fill="#F5EEDE" d="M258.724,178.317c-0.255-2.345-0.554-4.624-0.881-6.861c-8.278,28.056-41.32,79.203-106.422,77.198
		c-54.13-1.668-83.037-54.621-93.81-79.99c-0.287,3.548-0.466,7.228-0.522,11.056c-1.442,98.099,67.814,114.667,98.421,114.108
		C191.475,293.172,268.28,266.224,258.724,178.317z"/>
	<path fill="#C0974A" d="M100.05,142.947c0,0-14.961-21.173,53.856-19.578c64.835,1.503,60.172,20.518,60.172,20.518
		s3.213,11.669-38.505,8.452l4.602,46.203l-47.244,0.87l5.755-48.825C138.686,150.587,111.754,150.672,100.05,142.947z"/>
	<path fill="#F5EEDE" d="M177.653,143.709c7.018-10.169,21.831-10.877,34.042-6.289c9.137,3.433,19.447,16.383,12.035,31.748
		c-7.476,15.496-30.821,15.006-40.163,7.642C171.789,167.527,171.888,152.062,177.653,143.709z"/>
	<path fill="#4B4B4A" d="M232.2,138.671c-7.388,1.999-16.338,4.351-23.641,0.514c-16.347-7.783-33.801,4.033-28.754,22.393
		c-10.972,9.553-3.521,20.873,8.928,12.696c12.241,7.883,33.525-1.206,31.088-18.824c3.003-5.664,7.392-10.597,12.711-14.179
		C233.918,140.672,233.755,138.887,232.2,138.671z"/>
	<path fill="#D5B662" d="M185.952,147.191c4.418-7.013,13.744-7.5,21.431-4.337c5.752,2.368,12.243,11.297,7.577,21.893
		c-4.706,10.687-19.403,10.348-25.284,5.27C182.261,163.615,182.323,152.95,185.952,147.191z"/>
	<path fill="#F5EEDE" d="M120.291,186.841c-9.446,6.519-10.103,20.278-5.842,31.621c3.189,8.487,15.217,18.064,29.489,11.179
		c14.394-6.944,13.938-28.628,7.098-37.306C142.413,181.395,128.049,181.487,120.291,186.841z"/>
	<path fill="#F5EEDE" d="M191.672,188.824c9.446,6.519,10.103,20.278,5.842,31.621c-3.189,8.487-15.217,18.064-29.489,11.179
		c-14.394-6.944-13.938-28.628-7.098-37.306C169.55,183.378,183.914,183.47,191.672,188.824z"/>
	<path fill="#F5EEDE" d="M178.833,244.537c-7.272,11.783-22.623,12.604-35.278,7.287c-9.469-3.978-20.153-18.983-12.472-36.788
		c7.747-17.957,31.939-17.388,41.62-8.855C184.91,216.939,184.807,234.858,178.833,244.537z"/>
	<path fill="#4B4B4A" d="M61.614,160.078c0.387,1.827,32.954,0.059,24.464-6.559C77.588,146.901,62.278,153.095,61.614,160.078z"/>
	<path fill="#4B4B4A" d="M80.122,116.679c1.894,5.02,12.396,21.63,15.399,11.309C97.023,121.062,78.228,111.659,80.122,116.679z"/>
	<path fill="#4B4B4A" d="M98.292,99.275c-0.332,19.193,34.247,37.534,11.59,7.787C107.784,104.589,100.22,93.342,98.292,99.275
		L98.292,99.275z"/>
	<path fill="#4B4B4A" d="M130.034,118.982c10.759,7.105,0.238-17.711-3.048-21.984c-2.476-3.273-9.95-18.529-10.663-8.979
		S119.112,111.769,130.034,118.982z"/>
	<path fill="#4B4B4A" d="M144.862,80.117c-6,10.095-0.062,21.756,3.112,35.851c0.681,3.025,4.835,3.427,6.474,0.846
		c3.446-5.43,0.027-14.842-1.211-20.714C151.533,88.027,150.737,73.436,144.862,80.117z"/>
	<path fill="#4B4B4A" d="M163.571,116.413c4.007-2.029,12.663-20.316,11.553-24.735c-0.46-2.793-4.412-3.508-6.198-1.636
		c-3.155,3.307-3.339,8.753-4.746,12.983C163.276,106.067,157.22,116.862,163.571,116.413z"/>
	<path fill="#4B4B4A" d="M178.993,120.174c7.609-2.301,25.452-22.259,19.954-29.26c-3.179-3.707-5.96-0.291-7.199,4.564
		C190.494,100.397,167.963,120.873,178.993,120.174z"/>
	<path fill="#4B4B4A" d="M205.178,127.176c4.008-1.122,7.37-4.37,9.645-7.767c1.812-3.393,3.371-7.119,4.043-10.911
		c0.089-2.051-2.521-3.676-4.273-2.452c-4.718,4.861-10.946,8.933-13.942,15.24C199.337,124.323,201.512,128.202,205.178,127.176z"
		/>
	<path fill="#4B4B4A" d="M217.82,134.668c3.04-0.221,5.291-1.537,7.589-3.465c2.131-1.788,3.22-3.98,3.885-6.634
		c0.866-3.456-3.069-5.227-5.565-3.239c-2.826,2.251-6.06,4.204-8.634,6.762C212.854,130.318,214.405,134.917,217.82,134.668
		L217.82,134.668z"/>
	<path fill="#4B4B4A" d="M232.98,151.804c3.09,1.914,6.795,2.513,9.897,4.582c3.138,2.093,4.707,5.404,7.608,7.565
		c1.535,1.144,3.18-0.471,3.37-1.934c0.566-4.348-4.121-9.392-7.441-11.683c-3.645-2.515-9.26-4.46-13.435-2.267
		C231.495,148.846,231.657,150.984,232.98,151.804L232.98,151.804z"/>
	<path fill="#4B4B4A" d="M206.684,192.757c5.126,0.064,29.488-6.633,22.849-12.858C224.759,180.634,195.3,185.921,206.684,192.757z"
		/>
	<path fill="#4B4B4A" d="M209.411,203.906c8.011,5.902,22.367-2.408,20.221-7.159C227.485,191.995,201.4,198.004,209.411,203.906z"
		/>
	<path fill="#4B4B4A" d="M83.701,181.555c6.704,9.645,25.37,2.106,16.536-0.312S81.612,175.936,83.701,181.555z"/>
	<path fill="#4B4B4A" d="M89.864,202.304c4.421-0.281,15.804,0.028,13.578-6.881C101.844,191.075,81.337,199.598,89.864,202.304z"/>
	<path fill="#4B4B4A" d="M94.362,250.748c1.722,6.203,6.011,22.355,21.106,25.545c2.903,0.129,6.904-0.496,2.274-5.489
		s-21.857-42.316-23.768-31.124C93.974,239.68,92.661,244.623,94.362,250.748z"/>
	<path fill="#4B4B4A" d="M123.112,260.229c-4.509,4.747,15.866,25.351,18.808,18.122
		C144.862,271.123,130.073,256.213,123.112,260.229C123.112,260.229,127.621,255.482,123.112,260.229z"/>
	<path fill="#4B4B4A" d="M147.64,269.558c9.797-3.095-5.435-17.028-6.716-11.998C139.643,262.591,142.305,270.757,147.64,269.558z"
		/>
	<path fill="#4B4B4A" d="M157.263,283.132c7.161-1.697,15.387-24.868,5.898-22.604S150.102,284.829,157.263,283.132z"/>
	<path fill="#4B4B4A" d="M172.131,283.605c7.887-1.322,26.786-39.694,18.915-37.244C183.174,248.81,157.967,284.444,172.131,283.605
		z"/>
	<path fill="#4B4B4A" d="M205.342,268.295c27.389-10.497,27.458-99.924,10.169-28.93
		C215.357,247.084,195.885,265.363,205.342,268.295z"/>
	<g>
		<path fill="#4B4B4A" d="M122.163,206.302c4.385,0,4.392-6.814,0-6.814C117.778,199.487,117.771,206.302,122.163,206.302
			L122.163,206.302z"/>
	</g>
	<g>
		<path fill="#4B4B4A" d="M131.189,208.759c3.267,0,3.273-5.077,0-5.077C127.922,203.681,127.917,208.759,131.189,208.759
			L131.189,208.759z"/>
	</g>
	<g>
		<path fill="#4B4B4A" d="M136.746,209.07c-0.014,0.2-0.004,0.127,0.03-0.218c-0.023,0.168-0.045,0.335-0.068,0.503
			c-0.021,0.472,0.226,1.01,0.554,1.339c0.701,0.701,1.985,0.753,2.677,0c0.669-0.729,0.779-1.962,0-2.677
			c-0.313-0.287-0.664-0.464-1.087-0.521c-0.252-0.056-0.503-0.045-0.755,0.034c0.345-0.034,0.418-0.044,0.218-0.03
			C137.428,207.555,136.8,208.178,136.746,209.07L136.746,209.07z"/>
	</g>
	<g>
		<path fill="#4B4B4A" d="M123.064,217.603c4.371-0.349,3.835-7.143-0.543-6.793C118.15,211.16,118.686,217.953,123.064,217.603
			L123.064,217.603z"/>
	</g>
	<g>
		<path fill="#4B4B4A" d="M132.257,219.333c3.257-0.26,2.858-5.322-0.405-5.061C128.596,214.532,128.995,219.594,132.257,219.333
			L132.257,219.333z"/>
	</g>
	<g>
		<path fill="#4B4B4A" d="M137.821,219.201c0.002,0.2,0.006,0.127,0.012-0.22c-0.009,0.169-0.018,0.338-0.027,0.507
			c0.017,0.472,0.306,0.989,0.659,1.29c0.755,0.643,2.039,0.593,2.668-0.213c0.609-0.78,0.62-2.018-0.213-2.668
			c-0.335-0.261-0.699-0.409-1.125-0.432c-0.255-0.036-0.505-0.005-0.75,0.094c0.341-0.061,0.413-0.077,0.215-0.047
			C138.381,217.636,137.804,218.307,137.821,219.201L137.821,219.201z"/>
	</g>
	<g>
		<path fill="#4B4B4A" d="M189.885,207.638c-4.385,0-4.392-6.814,0-6.814C194.27,200.823,194.277,207.638,189.885,207.638
			L189.885,207.638z"/>
	</g>
	<g>
		<path fill="#4B4B4A" d="M180.859,210.095c-3.267,0-3.273-5.077,0-5.077C184.126,205.018,184.131,210.095,180.859,210.095
			L180.859,210.095z"/>
	</g>
	<g>
		<path fill="#4B4B4A" d="M175.302,210.407c0.014,0.2,0.004,0.127-0.03-0.218c0.023,0.168,0.045,0.335,0.068,0.503
			c0.021,0.472-0.226,1.01-0.554,1.338c-0.701,0.701-1.985,0.753-2.677,0c-0.669-0.729-0.779-1.962,0-2.677
			c0.313-0.287,0.664-0.464,1.087-0.521c0.252-0.056,0.503-0.045,0.755,0.034c-0.345-0.034-0.418-0.044-0.218-0.03
			C174.62,208.891,175.248,209.514,175.302,210.407L175.302,210.407z"/>
	</g>
	<g>
		<path fill="#4B4B4A" d="M188.984,218.94c-4.371-0.349-3.835-7.143,0.543-6.793C193.898,212.496,193.362,219.289,188.984,218.94
			L188.984,218.94z"/>
	</g>
	<g>
		<path fill="#4B4B4A" d="M179.791,220.67c-3.257-0.26-2.858-5.322,0.405-5.061C183.452,215.869,183.053,220.93,179.791,220.67
			L179.791,220.67z"/>
	</g>
	<g>
		<path fill="#4B4B4A" d="M174.227,220.538c-0.002,0.2-0.006,0.127-0.012-0.22c0.009,0.169,0.018,0.338,0.027,0.507
			c-0.017,0.472-0.306,0.989-0.659,1.29c-0.755,0.643-2.039,0.593-2.668-0.213c-0.609-0.78-0.62-2.018,0.213-2.668
			c0.335-0.261,0.699-0.409,1.125-0.432c0.255-0.036,0.505-0.005,0.75,0.094c-0.341-0.061-0.413-0.077-0.215-0.047
			C173.667,218.973,174.244,219.643,174.227,220.538L174.227,220.538z"/>
	</g>
	<path fill="#4B4B4A" d="M77.362,223.713c-4.472,0,0.242,17.293,5.465,15.589S81.834,223.713,77.362,223.713z"/>
	<path fill="#4B4B4A" d="M70.885,221.432c3.664-2.894,2.628-16.473-2.135-14.141S62.913,224.695,70.885,221.432z"/>
	<path fill="#4B4B4A" d="M74.503,184.685c-10.286-2.984-16.268,13.707-10.851,13.368S82.309,188.203,74.503,184.685L74.503,184.685z
		"/>
	<path fill="#4B4B4A" d="M236.806,189.286c1.805,3.543,7.078,8.914,12.593,7.259C261.291,188.971,233.159,176.033,236.806,189.286z"
		/>
	<path fill="#4B4B4A" d="M241.174,214.164c3.562-4.96-9.2-13.745-8.569-7.851C233.236,212.207,236.348,219.638,241.174,214.164z"/>
	<path fill="#4B4B4A" d="M237.854,225.216c-2.189,4.675-5.446,15.813,2.145,13.82C246.159,236.638,243.111,217.391,237.854,225.216
		L237.854,225.216z"/>
	<path fill="#4B4B4A" d="M265.621,234.083c3.825,7.779,24.98,7.212,14.851-3.035C276.486,227.016,262.358,224.959,265.621,234.083z"
		/>
	<path fill="#4B4B4A" d="M292.825,240.678c3.151,9.457,27.87,8.976,14.879-1.922C304.736,236.266,293.611,234.926,292.825,240.678z"
		/>
	<path fill="#4B4B4A" d="M273.734,253.906c3.152,9.457,28.183,8.591,14.879-1.922C285.174,249.266,274.52,248.154,273.734,253.906z"
		/>
	<path fill="#4B4B4A" d="M306.825,262c-1.845,0.852-1.757,3.369-0.602,4.669c1.28,1.441,3.141,2.331,4.884,3.086
		c0.629,0.272,1.285,0.555,1.95,0.832c0.629-3.042,0.988-6.177,1.084-9.376C311.586,260.839,308.974,261.007,306.825,262z"/>
	<path fill="#4B4B4A" d="M254.203,267.405c0.213,5.511,11.454,16.299,13.538,6.527C267.635,269.016,256.651,260.356,254.203,267.405
		L254.203,267.405z"/>
	<path fill="#4B4B4A" d="M230.81,284.773c-3.407,4.243,12.104,18.501,12.104,9.716C242.914,285.703,235.883,280.355,230.81,284.773
		C230.81,284.773,234.217,280.53,230.81,284.773z"/>
	<path fill="#4B4B4A" d="M266.674,300.953c-2.23-2.911-7.382,0.028-5.924,3.415c1.303,3.029,2.275,6.702,4.127,9.58
		c3.252-0.32,6.419-0.938,9.482-1.808C272.868,307.834,269.41,304.523,266.674,300.953z"/>
	<path fill="#4B4B4A" d="M291.299,291.078c-2.375,0.875-3.735,2.763-2.774,4.623c0.03,0.491,3.241,4.615,4.205,5.498
		c0.324,0.297,0.652,0.604,0.983,0.913c2.692-2.169,5.174-4.587,7.414-7.218C298.024,292.411,294.376,289.997,291.299,291.078z"/>
	<path fill="#4B4B4A" d="M189.862,296.064c-2.695,25.732,18.969,13.612,12.25-1.111c-1.562-3.424-6.625-5.646-8.75-4.25
		C193.362,290.703,190.299,292.655,189.862,296.064z"/>
	<path fill="#4B4B4A" d="M138.88,290.655c-0.677,2.994-0.943,6.797,1.109,9.289C150.599,306.489,146.262,280.454,138.88,290.655
		L138.88,290.655z"/>
	<path fill="#4B4B4A" d="M152.026,304.285c-3.063,5.422,5.317,10.537,7.513,4.324C160.577,304.382,154.678,300.288,152.026,304.285
		L152.026,304.285z"/>
	<path fill="#C0974A" d="M237.605,275.993c-0.299-0.263,1.944,2.735,1.707,2.249c8.123,11.036,12.202-5.11,1.273-7.197
		C237.486,270.453,234.988,273.356,237.605,275.993z"/>
	<path fill="#C0974A" d="M287.174,274.368c0.254,0.146,4.231,4.194,3.5,3.509c3.941,6.293,12.765,0.629,7.819-5.858
		C295.308,266.375,280.265,267.216,287.174,274.368z"/>
	<path fill="#C0974A" d="M251.185,246.089c2.068,3.264,8.699,6.781,11.025,2.128C264.92,241.504,248.217,237.605,251.185,246.089z"
		/>
	<path fill="#C0974A" d="M73.154,175.663c3.27,2.335,9.919,0.761,12.325-3.128C88.092,162.667,64.37,168.002,73.154,175.663z"/>
	<path fill="#C0974A" d="M231.932,167.467c3.726,1.41,9.165,6.117,12.284,1.429C249.021,159.423,223.013,157.209,231.932,167.467z"
		/>
	<path fill="#C0974A" d="M128.939,83.477c0.109,3.143,1.896,8.551,5.947,6.969C141.418,87.544,130.956,74.724,128.939,83.477
		L128.939,83.477z"/>
	<path fill="#C0974A" d="M102.29,90.536c-0.558,9.39,12.097,5.306,8.553-0.616S102.273,85.332,102.29,90.536L102.29,90.536z"/>
	<path fill="#C0974A" d="M178.854,83.132c-1.44,3.592-0.154,10.12,4.916,7.868C190.541,87.171,183.657,74.35,178.854,83.132
		L178.854,83.132z"/>
	<path fill="#C0974A" d="M209.254,103.574c7.399-2.294,4.495-10.897-2.991-6.752C202.752,98.766,202.912,106.408,209.254,103.574z"
		/>
	<path fill="#C0974A" d="M101.532,218.281c5.026-3.607,2.426-10.871-3.483-7.042c-0.812,0.527-1.847,2.13-1.752,2.023
		C93.174,216.803,97.034,222.383,101.532,218.281z"/>
	<path fill="#C0974A" d="M206.785,217.593c4.139,5.865,11.877-0.712,5.648-5.796C208.8,208.155,202.646,211.728,206.785,217.593z"/>
	<path fill="#C0974A" d="M213.916,285.402c0.32,0.206,0.002,0.617,2.689,2.554c-0.256-0.185,5.427,2.159,5.501-2.485
		C222.78,278.642,209.627,278.286,213.916,285.402z"/>
	<path fill="#C0974A" d="M244.13,310.499c2.661,5.892,11.254,0.795,6.844-4.124C248.006,302.555,241.661,306.056,244.13,310.499z"/>
	<path fill="#C0974A" d="M266.656,290.693c6.205,6.573,10.103,1.637,7.56-2.644C271.923,282.508,261.054,285.219,266.656,290.693z"
		/>
	<path fill="#C0974A" d="M161.497,86.643c7.399-2.294,4.692-10.52-2.991-6.752C153.421,82.384,155.155,89.476,161.497,86.643z"/>
	<path fill="#C0974A" d="M111.203,230.654c4.077-2.926,1.968-8.817-2.825-5.711c-0.659,0.427-1.498,1.727-1.421,1.641
		C104.424,229.454,107.555,233.981,111.203,230.654z"/>
	<path fill="#C0974A" d="M199.96,231.179c3.185,4.513,9.139-0.548,4.346-4.46C201.511,223.916,196.776,226.666,199.96,231.179z"/>
	<path fill="#4B4B4A" d="M164.069,291.084c-4.156,7.355,7.213,14.295,10.192,5.866C175.669,291.216,167.666,285.662,164.069,291.084
		L164.069,291.084z"/>
	<path fill="#F5EEDE" d="M137.4,143.709c-7.018-10.169-21.831-10.877-34.042-6.289c-9.137,3.433-19.447,16.383-12.035,31.748
		c7.476,15.496,30.821,15.006,40.163,7.642C143.264,167.527,143.164,152.062,137.4,143.709z"/>
	<path fill="#4B4B4A" d="M82.853,138.671c7.388,1.999,16.338,4.351,23.641,0.514c16.347-7.783,33.801,4.033,28.754,22.393
		c10.972,9.553,3.521,20.873-8.928,12.696c-12.241,7.883-33.525-1.206-31.088-18.824c-3.003-5.664-7.392-10.597-12.711-14.179
		C81.135,140.672,81.298,138.887,82.853,138.671z"/>
	<path fill="#D5B662" d="M129.101,147.191c-4.418-7.013-13.744-7.5-21.431-4.337c-5.752,2.368-12.243,11.297-7.577,21.893
		c4.706,10.687,19.403,10.348,25.284,5.27C132.792,163.615,132.73,152.95,129.101,147.191z"/>
	<path fill="#4B4B4A" d="M122.857,156.363c-0.23-5.895-3.082-9.825-6.784-9.717c-3.932,0.115-8.207,4.475-7.732,10.044
		c0.452,5.299,3.275,9.754,7.628,9.628C120.63,166.184,122.987,161.253,122.857,156.363z"/>
	<path fill="#4B4B4A" d="M207.33,156.363c-0.23-5.895-3.082-9.825-6.784-9.717c-3.932,0.115-8.207,4.475-7.732,10.044
		c0.452,5.299,3.275,9.754,7.628,9.628C205.103,166.184,207.46,161.253,207.33,156.363z"/>
	<path fill="#4B4B4A" d="M182.141,225.012c-5.872,3.342-12.061,5.662-18.579,6.695c-4.259-0.454-3.789-8.419-3.463-12.617
		c5.073-1.018,8.889-4.928,10.244-8.536c2.768-7.367,2.341-16.304-3.794-20.538c-5.039-3.478-14.368-3.538-19.97,3.569
		c-4.443,5.636-4.739,19.72,4.61,24.23c2.018,0.974,3.967,1.439,5.802,1.517c-0.077,4.322,0.311,12.234-4.668,12.583
		c-5.213-0.091-7.963-0.602-18.727-7.772c-1.477-0.984-3.741,0.97-2.347,2.384c14.507,14.711,36.194,15.22,53.547,2.188
		C186.664,227.315,184.13,223.881,182.141,225.012z"/>
</g>
<g id="Layer_1">
</g>
</svg>
