<?xml version="1.0" encoding="utf-8"?>
<!-- Generator: Adobe Illustrator 24.2.3, SVG Export Plug-In . SVG Version: 6.00 Build 0)  -->
<svg version="1.1" xmlns="http://www.w3.org/2000/svg" xmlns:xlink="http://www.w3.org/1999/xlink" x="0px" y="0px"
	 viewBox="0 0 314.216 314.215" enable-background="new 0 0 314.216 314.215" xml:space="preserve">
<g id="memorygame_x5F_mapel_x5F_vaahtera">
	<path fill="#FFDDC3" d="M259.563,314.215H54.653C24.594,314.215,0,289.622,0,259.563V54.653C0,24.594,24.594,0,54.653,0h204.91
		c30.059,0,54.653,24.594,54.653,54.653v204.91C314.215,289.622,289.622,314.215,259.563,314.215z"/>
	<path fill="#FFFFFF" d="M276.686,74.235C239.539,15.273,161.127,11.167,96.488,37.77C48.123,57.675-6.454,132.761,32.781,221.852
		c39.571,89.853,163.143,87.006,212.596,44.307C307.722,212.328,307.197,122.664,276.686,74.235z"/>
	<g>
		<g id="muistipeli_x5F_vaahtera_1_">
			<path fill="#69B802" d="M167.485,10.207l12.323,43.973l8.589-11.537l4.058,29.335l13.072-3.136l-8.575,32.082l43.332-15.686
				l-3.818,15.148l39.588-1.78l-20.54,23.703l13.831,4.986l-21.409,17.417l12.854,7.421l-36.615,21.492l40.996,2.46l-8.199,11.976
				l30.169,8.044l-30.566,19.361l16.481,9.301l-26.71,8.787l16.233,13.442L146.92,262.913L43.41,221.791l15.521-2.393
				l-28.043-17.475L47.8,197.12l-24.006-24.298c0,0,31.634,1.067,30.392,0.993s-6.095-16.158-6.095-16.158l44.151,12.208
				l-35.873-39.354l14.079,0.845l-20.781-27.672l17.392,1.044l-14.24-32.817l31.828,9.806l-5.342-14.866l48.69,26.611l-7.404-42.835
				l14.951,14.016l7.286-31.383l8.994,16.332L167.485,10.207z"/>
			<polygon fill="#5AA043" points="247.375,204.242 246.556,200.6 210.956,208.606 223.594,189.486 220.479,187.428 
				205.699,209.788 175.039,216.683 193.585,190.437 190.535,188.283 169.603,217.906 151.974,221.87 153.216,201.188 
				177.708,175.364 174.999,172.794 153.563,195.395 155.062,170.424 188.241,151.313 226.62,153.616 226.844,149.889 
				194.122,147.925 244.271,119.04 242.407,115.805 211.179,133.792 221.263,106.659 217.763,105.358 206.11,136.712 
				184.108,149.384 194.199,121.361 190.685,120.095 179.1,152.268 154.623,166.367 157.148,139.715 183.397,109.15 
				180.565,106.718 157.758,133.275 160.425,105.113 181.043,74.323 177.942,72.246 161.165,97.298 164.973,57.104 161.257,56.752 
				156.142,110.75 140.368,80.36 137.054,82.08 155.493,117.605 152.971,144.228 134.479,114.794 131.317,116.78 152.393,150.327 
				150.933,165.741 125.321,142.073 111.275,102.944 107.761,104.205 119.386,136.588 82.113,102.144 79.579,104.887 
				118.613,140.958 85.368,138.963 85.144,142.69 122.942,144.958 150.302,170.242 147.879,195.305 125.159,169.685 
				122.366,172.162 147.388,200.38 145.415,220.782 122.612,211.243 106.645,178.547 103.29,180.185 117.389,209.059 
				66.434,187.744 64.993,191.189 98.014,205.002 73.62,212.724 74.747,216.284 103.344,207.231 133.881,220.005 113.91,229.803 
				115.555,233.156 138.457,221.919 145.039,224.672 137.421,303.45 147.127,302.646 151.742,225.749 170.514,221.528 
				208.785,238.864 210.326,235.463 176.56,220.168 206.713,213.387 241.662,226.334 242.959,222.833 213.4,211.883 			"/>
		</g>
		<g id="Layer_1_28_">
		</g>
	</g>
</g>
<g id="Layer_1">
</g>
</svg>
