<?xml version="1.0" encoding="utf-8"?>
<!-- Generator: Adobe Illustrator 24.2.3, SVG Export Plug-In . SVG Version: 6.00 Build 0)  -->
<svg version="1.1" xmlns="http://www.w3.org/2000/svg" xmlns:xlink="http://www.w3.org/1999/xlink" x="0px" y="0px"
	 viewBox="0 0 314.229 314.215" enable-background="new 0 0 314.229 314.215" xml:space="preserve">
<g id="memorygame_x5F_otter_x5F_saukko">
	<path fill="#FFDDC3" d="M259.563,314.215H54.653C24.594,314.215,0,289.622,0,259.563V54.653C0,24.594,24.594,0,54.653,0h204.91
		c30.059,0,54.653,24.594,54.653,54.653v204.91C314.215,289.622,289.622,314.215,259.563,314.215z"/>
	<path fill="#FFFFFF" d="M276.699,74.235C239.552,15.273,161.141,11.167,96.501,37.77C48.136,57.675-6.441,132.761,32.795,221.852
		c39.571,89.853,163.143,87.006,212.596,44.307C307.736,212.328,307.21,122.664,276.699,74.235z"/>
	<g>
		<path fill="#6A4019" d="M134.73,219.493c0,0-15.811,1.426-28.19,9.416c-4.35,3.394-8.297,9.217-5.7,14.084
			c1.243,2.33,3.775,3.767,6.371,4.249c8.527,1.582,15.94-5.679,24.247-8.172c3.142-0.943,6.445-1.195,9.72-1.378
			c8.132-0.455,20.411-0.942,28.27-3.081L134.73,219.493z"/>
	</g>
	<g>
		<g id="muistipeli_x5F_saukko_1_">
			<g>
				<path fill="#6A4019" d="M169.449,242.408c0,0-15.811,1.426-28.19,9.416c-4.35,3.394-8.297,9.217-5.7,14.084
					c1.243,2.33,3.775,3.767,6.371,4.249c8.527,1.582,15.94-5.679,24.247-8.172c3.142-0.943,6.445-1.195,9.72-1.378
					c8.132-0.455,20.411-0.942,28.27-3.081L169.449,242.408z"/>
			</g>
			<path fill="#C1A174" d="M314.229,142.273l-95.717,45.385L87.877,106.815c0,0-3.376,115.05,86.982,144.086
				c46.464,14.931,99.776,8.808,139.37-7.707V142.273z"/>
			<path fill="#4A402F" d="M105.364,81.2c-0.113,7.363-5.085,12.506-11.813,12.692c-7.145,0.198-15.132-4.863-14.559-11.841
				c0.546-6.64,5.44-12.434,13.35-12.655C100.811,69.16,105.346,75.097,105.364,81.2z"/>
			<path fill="#6A4019" d="M314.229,236.318v-94.044c-8.717-0.323-17.981,0.265-27.489,1.818
				c-42.798,6.99-103.246,55.488-119.389-8.917c-14.489-57.801-47.182-58.119-53.734-57.576l12.145,8.769
				c0,0-3.375,115.05,86.982,144.086C245.348,240.93,281.667,242.001,314.229,236.318z"/>
			<path fill="#6A4019" d="M121.109,77.944c-17.566-3.102-49.417,2.384-82.534,44.424c-28.491,36.167,7.541,49.797,12.746,51.921
				c6.035,2.463,70.445-6.806,70.445-6.806C136.822,155.764,158.556,87.745,121.109,77.944z"/>
			<path fill="#FDFDFD" d="M63.763,95.94c18.943-2.476,21.23,24.326,2.688,25.409C51.819,122.295,49.498,98.08,63.763,95.94z"/>
			<path fill="#4B4B4A" d="M59.863,108.977c-0.28-4.843,2.488-8.398,6.554-8.759c4.318-0.383,9.395,2.661,9.378,7.267
				c-0.017,4.383-2.707,8.364-7.486,8.789C63.19,116.728,60.162,112.987,59.863,108.977z"/>
			<path fill="#FDFDFD" d="M108.918,118.192c18.942-2.476,21.23,24.326,2.688,25.409C96.974,144.547,94.652,120.332,108.918,118.192
				z"/>
			<path fill="#4B4B4A" d="M105.017,131.229c-0.28-4.843,2.488-8.398,6.554-8.759c4.318-0.383,9.395,2.661,9.378,7.267
				c-0.017,4.383-2.707,8.364-7.486,8.789C108.344,138.979,105.316,135.238,105.017,131.229z"/>
			<path fill="#4A402F" d="M160.265,100.116c-0.113,7.363-5.085,12.506-11.813,12.692c-7.145,0.198-15.132-4.863-14.559-11.841
				c0.546-6.64,5.44-12.434,13.35-12.655C155.712,88.076,160.248,94.013,160.265,100.116z"/>
			<path fill="#C1A174" d="M134.599,146.034c-12.702,9.533-48.62,12.319-70.909,13.504c-5.202-7.933-21.521-19.129-33.162-24.406
				c-3.16,6.242-4.05,15.232-0.869,21.802c4.312,13.34,16.537,15.591,19.999,17.036c6.306,2.632,57.751,6.643,73.553-7.167
				C133.324,157.964,135.64,145.253,134.599,146.034z"/>
			<path fill="#957757" d="M40.496,150.622c-1.331,1.487-3.544,2.21-5.254,3.231c-6.107,3.713-11.664,8.172-16.68,13.257
				c-1.154,1.161-3.074-0.429-1.955-1.672c3.245-3.603,7.06-6.88,11.066-9.61C28.634,155.105,41.567,147.168,40.496,150.622
				L40.496,150.622z"/>
			<path fill="#957757" d="M38.942,148.29c-1.673,1.088-3.998,1.209-5.915,1.749c-6.864,1.992-13.392,4.848-19.56,8.449
				c-1.417,0.82-2.856-1.216-1.452-2.124c4.073-2.632,8.61-4.801,13.189-6.391C26.323,149.524,40.871,145.24,38.942,148.29
				L38.942,148.29z"/>
			<path fill="#957757" d="M38.689,145.604c-1.885,0.655-4.171,0.215-6.162,0.279c-7.14,0.287-14.164,1.494-21.015,3.51
				c-1.572,0.456-2.481-1.866-0.9-2.41c4.585-1.578,9.51-2.595,14.337-3.041C26.161,143.781,41.264,143.095,38.689,145.604
				L38.689,145.604z"/>
			<path fill="#957757" d="M56.938,147.085c1.837,0.778,4.148,0.49,6.13,0.685c7.106,0.757,14.034,2.426,20.738,4.889
				c1.539,0.559,2.598-1.698,1.057-2.345c-4.471-1.878-9.318-3.218-14.105-3.981C69.577,146.087,54.5,144.418,56.938,147.085
				L56.938,147.085z"/>
			<path fill="#957757" d="M57.35,144.314c1.977,0.272,4.132-0.609,6.096-0.937c7.058-1.122,14.181-1.317,21.295-0.688
				c1.631,0.138,2.066-2.317,0.409-2.54c-4.806-0.647-9.834-0.676-14.655-0.165C69.291,140.055,54.301,142.374,57.35,144.314
				L57.35,144.314z"/>
			<path fill="#957757" d="M56.435,141.777c1.985-0.21,3.866-1.582,5.694-2.372c6.582-2.782,13.452-4.681,20.509-5.776
				c1.617-0.257,1.45-2.744-0.212-2.564c-4.821,0.525-9.71,1.702-14.267,3.355C67.012,134.775,53.01,140.627,56.435,141.777
				L56.435,141.777z"/>
			<path fill="#4A402F" d="M66.175,154.033c-3.668,4.278-8.236,7.697-13.629,9.469c-0.518-2.472-0.362-5.057-0.821-7.543
				c12.728-3.497,11.037-25.486-5.011-23.921c-17.476,1.75-16.354,25.237,1.568,24.435c0.317,2.631,1.282,5.176,1.394,7.817
				c-3.515,0.858-6.875,0.247-10.281-0.725c-0.995-0.263-1.834,1.241-0.801,1.73c10.899,5.152,24.717,1.346,29.792-9.872
				C68.933,154.213,67.034,153.032,66.175,154.033z"/>
			<path fill="#6A4019" d="M314.229,121.938V90.224c-6.691-4.159-14.227-8.533-22.716-13.056
				c-52.632-28.043-100.377-18.651-100.377-18.651s54.406,15.286,96.194,41.993C298.201,107.458,307.055,114.829,314.229,121.938z"
				/>
		</g>
		<g id="Layer_1_7_">
		</g>
	</g>
</g>
<g id="Layer_1">
</g>
</svg>
