<?xml version="1.0" encoding="utf-8"?>
<!-- Generator: Adobe Illustrator 24.2.3, SVG Export Plug-In . SVG Version: 6.00 Build 0)  -->
<svg version="1.1" xmlns="http://www.w3.org/2000/svg" xmlns:xlink="http://www.w3.org/1999/xlink" x="0px" y="0px"
	 viewBox="0 0 314.216 314.215" enable-background="new 0 0 314.216 314.215" xml:space="preserve">
<g id="memorygame_x5F_hedgehog_x5F_siili">
	<path fill="#FFDDC3" d="M259.563,314.215H54.653C24.594,314.215,0,289.622,0,259.563V54.653C0,24.594,24.594,0,54.653,0h204.91
		c30.059,0,54.653,24.594,54.653,54.653v204.91C314.215,289.622,289.622,314.215,259.563,314.215z"/>
	<path fill="#FFFFFF" d="M276.686,74.235C239.539,15.273,161.127,11.167,96.488,37.77C48.123,57.675-6.454,132.761,32.781,221.852
		c39.571,89.853,163.143,87.006,212.596,44.307C307.722,212.328,307.197,122.664,276.686,74.235z"/>
	<g>
		<g id="siili_x5F_jalka_7_">
			<g>
				<path fill="#E0CAAF" d="M84.335,215.066l-10.817,0.702c1.097,8.31-0.851,16.858-4.466,24.495
					c-3.183,6.724-7.553,7.466-9.462,12.301c-1.092,2.086,0.885,3.794,2.977,4.152C83.364,259.129,88.612,230.636,84.335,215.066z"
					/>
			</g>
		</g>
		<g id="siili_x5F_jalka_6_">
			<g>
				<path fill="#E0CAAF" d="M125.917,215.517L115.1,216.22c1.097,8.31-0.167,17.221-4.466,24.495
					c-2.82,4.366-7.553,7.466-9.462,12.301c-1.092,2.086,0.885,3.794,2.977,4.152C124.945,259.58,130.193,231.086,125.917,215.517z"
					/>
			</g>
		</g>
		<g id="siili_x5F_jalka_5_">
			<g>
				<path fill="#E0CAAF" d="M206.902,216.395l-10.817,0.702c1.097,8.31-0.167,17.221-4.466,24.495
					c-2.82,4.366-7.553,7.466-9.462,12.301c-1.092,2.086,0.885,3.794,2.977,4.152C205.93,260.458,211.178,231.964,206.902,216.395z"
					/>
			</g>
		</g>
		<g id="siili_x5F_jalka_4_">
			<g>
				<path fill="#E0CAAF" d="M248.483,216.846l-10.817,0.702c1.097,8.31-0.167,17.221-4.466,24.495
					c-2.82,4.366-7.553,7.466-9.462,12.301c-1.092,2.086,0.885,3.794,2.977,4.152C247.511,260.909,252.76,232.415,248.483,216.846z"
					/>
			</g>
		</g>
		<g id="siili_x5F_kroppa_1_">
			<path fill="#935803" d="M303.045,209.891c0.051-4.744-9.352-7.25-14.825-9.249c5.119-3.38,12.601-7.945,11.63-11.984
				c-0.82-3.415-14.61-8.709-17.581-9.286c4.771-4.307,12.602-12.226,9.648-14.981c-4.386-4.867-13.589-5.198-19.073-5.657
				c4.435-4.292,10.044-12.814,9.603-15.131c-1.343-3.227-5.365-3.96-8.402-4.63c-3.362-0.621-8.595-0.497-11.536-0.359
				c3.918-5.019,10.676-15.493,7.102-17.577c-5.268-3.72-13.591-2.175-19.261-1.436c2.742-5.586,5.184-16.06,3.95-18.101
				c-2.361-2.506-6.37-1.681-9.435-1.167c-3.349,0.681-8.188,2.759-10.887,3.992c1.358-6.266,2.864-19.16-1.269-19.306
				c-6.251-0.751-12.545,4.206-17.377,7.599c0.283-6.253-1.715-16.968-3.669-18.288c-6.14-1.908-13.528,7.276-17.196,11.321
				c-1.081-6.232-4.576-15.257-6.597-16.13c-6.222-0.733-11.829,9.345-14.742,14.014c-2.13-5.899-7.64-14.591-9.872-15.028
				c-6.508,0.656-10.122,12.72-11.991,17.799c-3.39-4.983-11.855-13.493-14.571-12.076c-5.945,3.102-5.852,15.687-6.125,21.069
				c-4.661-3.919-14.157-8.547-16.335-7.671c-4.988,3.93-2.437,15.201-1.482,20.677c-5.862-2.542-16.14-6.34-17.213-2.325
				c-2.894,5.297,3.608,20.265,4.372,21.963c0.156-0.193,40.156,87.126,40.156,87.126l39.871,6.571l107.596,1.164
				C287.572,222.972,302.963,217.437,303.045,209.891z"/>
			<path fill="#E0CAAF" d="M179.94,221.638c-13.695-6.42-35.08-22.029-34.925-43.644l-0.002,0c0.117-2.519,0.004-5.172-0.308-7.858
				c22.208,0.272,13.787-35.655-7.393-22.229c-15.317-22.952-47.646-26.441-69.422-13.167c-6.352,3.833-12.173,9.152-18.695,12.444
				c-6.523,3.292-14.252,4.298-20.12-0.445c-2.403-1.942-4.717-4.889-7.555-4.508c-6.511,1.691-5.58,12.161-3.504,17.319
				c10.504,40.69,41.53,59.35,72.741,61.154C127.139,222.806,179.94,221.638,179.94,221.638z"/>
			<path fill="#F5A09B" d="M115.169,203.875c-12.681,12.335-31.815,1.852-27.609-15.877c1.536-6.592,6.862-10.621,14.132-11.307
				C119.817,174.979,122.505,196.895,115.169,203.875z"/>
			<path fill="#4B4B4A" d="M26.256,144.008c-1.225,5.588-5.502,8.744-10.233,7.857c-5.025-0.941-9.82-6.016-8.333-11.241
				c1.416-4.972,5.739-8.635,11.302-7.594C24.948,134.145,27.194,139.359,26.256,144.008z"/>
			<path fill="#935803" d="M105.381,116.596c-3.987,4.3-9.069,17.342-7.344,19.361c3.143,3.679,13.839,1.198,20.824-0.356
				c-3.058,5.18-5.744,11.969-5.004,13.775c1.993,2.9,6.265,2.817,9.508,2.87c5.187-0.087,13.948-4.34,13.948-4.34l-8.964-18.675
				L105.381,116.596z"/>
		</g>
		<g>
			<g id="elainsilma_x5F_valkuainen_1_">
				<path fill="#FDFDFD" d="M88.091,176.09c-22.544-3.43-16.915-33.352,4.419-29.544C109.35,149.773,104.864,177.858,88.091,176.09z
					"/>
			</g>
			<g id="elainsilma_x5F_mustuainen_1_">
				<path fill="#4B4B4A" d="M97.603,162.496c-1.105,5.562-5.282,8.774-9.989,7.988c-4.998-0.835-9.85-5.771-8.478-10.978
					c1.306-4.956,5.519-8.67,11.053-7.748C96.113,152.746,98.442,157.87,97.603,162.496z"/>
			</g>
		</g>
		<path fill="#4B4B4A" d="M34.32,179.037c3.172,9.964,16.266,13.495,25.002,6.139c2.29-1.928,6.187-8.304,6.804-10.802
			c0.012-0.049,0.069-0.036,0.066,0.016c-0.154,2.529-1.197,7.118-2.324,9.577c-6.758,14.749-26.01,11.744-29.574-4.915
			L34.32,179.037z"/>
	</g>
</g>
<g id="Layer_1">
</g>
</svg>
