<?xml version="1.0" encoding="utf-8"?>
<!-- Generator: Adobe Illustrator 24.2.3, SVG Export Plug-In . SVG Version: 6.00 Build 0)  -->
<svg version="1.1" xmlns="http://www.w3.org/2000/svg" xmlns:xlink="http://www.w3.org/1999/xlink" x="0px" y="0px"
	 viewBox="0 0 314.216 314.215" enable-background="new 0 0 314.216 314.215" xml:space="preserve">
<g id="memorygame_x5F_bear_x5F_karhu">
	<path fill="#FFDDC3" d="M259.563,314.215H54.653C24.594,314.215,0,289.622,0,259.563V54.653C0,24.594,24.594,0,54.653,0h204.91
		c30.059,0,54.653,24.594,54.653,54.653v204.91C314.215,289.622,289.622,314.215,259.563,314.215z"/>
	<path fill="#FFFFFF" d="M276.686,74.235C239.539,15.273,161.127,11.167,96.488,37.77C48.123,57.675-6.454,132.761,32.781,221.852
		c39.571,89.853,163.143,87.006,212.596,44.307C307.722,212.328,307.197,122.664,276.686,74.235z"/>
	<g>
		<g id="muistipeli_x5F_karhu_1_">
			<path fill="#5B3C09" d="M314.215,259.563V127.388c-25.059,0.205-57.618,4.118-98.938,15.422
				c-83.861,22.942-68.145,114.64-49.284,171.405h93.569C289.622,314.216,314.215,289.622,314.215,259.563z"/>
			<path fill="#6A4019" d="M80.306,106.022c13.324-9.928,14.352-29.331,8.222-45.977C83.942,47.59,66.579,33.413,46.111,43.639
				c-21.858,10.921-19.307,40.79-9.389,54.222C48.896,114.348,68.744,114.637,80.306,106.022z"/>
			<path fill="#4A402F" d="M82.346,76.99C77.759,64.535,60.138,48.631,39.67,58.858c-4.163,2.08-7.435,4.85-9.945,8.061
				C28.239,78.064,31.43,89.9,36.72,97.063c12.174,16.487,19.133,11.647,19.133,11.647L82.346,76.99z"/>
			<path fill="#6A4019" d="M237.57,105.225c-13.324-9.928-14.352-29.331-8.222-45.977c4.587-12.455,21.949-26.632,42.417-16.406
				c21.858,10.921,19.307,40.789,9.389,54.221C268.98,113.55,249.132,113.839,237.57,105.225z"/>
			<path fill="#4A402F" d="M235.788,75.466c4.587-12.455,21.949-26.632,42.418-16.406c4.163,2.08,7.435,4.85,9.945,8.061
				c1.485,11.145-1.706,22.981-6.995,30.144c-8.041,9.062-16.238,11.445-16.238,11.445L235.788,75.466z"/>
			<path id="XMLID_1_" fill="#6A4019" d="M38.959,162.864c-1.537-49.51,30.509-86.747,75.344-102.063
				c28.764-9.827,58.098-11.642,87.816-4.074c41.503,10.569,67.418,35.812,76.335,75.871c7.717,34.667,2.441,68.009-15.465,99.127
				c-17.016,29.571-43.302,46.217-78.666,50.033c-31.504,3.4-61.244-1.448-88.416-17.094c-38.622-22.239-55.335-56.449-56.94-98.403
				C38.91,164.777,38.959,163.29,38.959,162.864z"/>
			<path opacity="0.5" fill="#4A402F" enable-background="new    " d="M126.616,180.16c12.302-8.836,13.251-26.103,7.591-40.918
				c-4.235-11.085-20.265-23.702-39.163-14.601c-20.18,9.719-17.826,36.301-8.668,48.255
				C97.616,187.569,115.941,187.827,126.616,180.16z"/>
			<path opacity="0.5" fill="#4A402F" enable-background="new    " d="M193.256,180.16c-12.302-8.836-13.251-26.103-7.591-40.918
				c4.235-11.085,20.265-23.702,39.163-14.601c20.18,9.719,17.826,36.301,8.668,48.255
				C222.256,187.569,203.93,187.827,193.256,180.16z"/>
			<path fill="#BF7900" d="M157.825,112.043c-11.46,0-75.091,98.451-18.34,129.373c20.23,11.023,50.506,7.354,64.256-23.069
				C214.943,193.56,172.524,112.043,157.825,112.043z"/>
			<path fill="#4A402F" d="M186.229,219.426c-7.044,4.009-14.536,6.575-22.515,7.174c0.144-5.153,0.911-10.245,1.16-15.394
				c11.296-0.038,20.63-7.384,23.035-19.285c2.013-11.062-4.764-23.347-21.212-25.774c-15.362-2.267-26.765,6.58-30.048,18.426
				c-3.378,12.192,9.737,23.816,23.316,26.215c-0.19,5.315,0.1,10.703-0.337,15.95c-3.22-0.051-6.492-0.451-9.539-1.269
				c-4.829-1.297-8.426-3.933-12.403-6.911c-1.421-1.063-3.69,0.921-2.347,2.384c14.157,15.418,38.514,17.722,53.547,2.188
				C190.508,221.453,188.217,218.295,186.229,219.426z"/>
			<path fill="#FDFDFD" d="M106.729,131.285c33.29,0.034,31.635,45.246-0.319,43.965C81.203,174.037,81.924,132.186,106.729,131.285
				z"/>
			<path fill="#4B4B4A" d="M96.449,153.132c0.458-8.334,5.879-13.878,12.9-13.708c7.457,0.181,15.549,6.368,14.628,14.239
				c-0.876,7.492-6.246,13.777-14.501,13.579C100.638,167.03,96.185,160.046,96.449,153.132z"/>
			<path fill="#FDFDFD" d="M217.373,131.839c21.774,5.163,19.811,42.366-3.444,43.408c-16.208,2.613-30.274-16.82-22.973-31.336
				C196.423,134.53,206.888,129.926,217.373,131.839z"/>
			<path fill="#4B4B4A" d="M210.864,167.242c-8.255,0.199-13.624-6.087-14.501-13.579c-0.921-7.872,7.171-14.058,14.628-14.239
				c7.021-0.17,12.442,5.374,12.9,13.708C224.156,160.046,219.702,167.03,210.864,167.242z"/>
			<path opacity="0.3" fill="#935803" enable-background="new    " d="M280.545,181.998c-18.788-19.289-64.879-7.944-68.323,21.253
				c-4.825,22.857,7.994,50.403,31.176,53.262C263.597,237.945,276.69,208.42,280.545,181.998z"/>
			<path opacity="0.3" fill="#935803" enable-background="new    " d="M91.806,262.196c5.758-2.5,11.054-6.184,15.809-10.994
				c18.483-18.694,9.766-75.353-37.133-69.475c-11.579,1.451-21.142,6.136-27.596,13.54
				C49.606,222.677,65.059,245.517,91.806,262.196z"/>
		</g>
		<g id="Layer_1_22_">
		</g>
	</g>
</g>
<g id="Layer_1">
</g>
</svg>
