<?xml version="1.0" encoding="utf-8"?>
<!-- Generator: Adobe Illustrator 24.2.3, SVG Export Plug-In . SVG Version: 6.00 Build 0)  -->
<svg version="1.1" xmlns="http://www.w3.org/2000/svg" xmlns:xlink="http://www.w3.org/1999/xlink" x="0px" y="0px"
	 viewBox="0 0 314.216 314.215" enable-background="new 0 0 314.216 314.215" xml:space="preserve">
<g id="memorygame_x5F_spruce_x5F_cone_x5F_kuusenkapy">
	<path fill="#FFDDC3" d="M259.563,314.215H54.653C24.594,314.215,0,289.622,0,259.563V54.653C0,24.594,24.594,0,54.653,0h204.91
		c30.059,0,54.653,24.594,54.653,54.653v204.91C314.215,289.622,289.622,314.215,259.563,314.215z"/>
	<path fill="#FFFFFF" d="M276.686,74.235C239.539,15.273,161.127,11.167,96.488,37.77C48.123,57.675-6.454,132.761,32.781,221.852
		c39.571,89.853,163.143,87.006,212.596,44.307C307.722,212.328,307.197,122.664,276.686,74.235z"/>
	<g>
		<path fill="#5B3C09" d="M266.848,40.218c-1.367-5.964-6.81-10.111-12.92-9.793c-18.486,0.962-63.18,9.435-114.75,67.505
			c-83.345,93.849-120.821,139.898-60.93,184.011c57.608,42.431,127.64-75.594,152.878-118.969
			C271.146,94.192,270.547,56.358,266.848,40.218z"/>
		<path fill="#7E6F48" d="M239.006,38.273c-0.523-1.143,17.948-3.493,19.737-2.042c1.954,1.585,3.245,18.94,2.55,19.798
			c-0.478,0.34-10.524,2.111-16.008-2.326C240.125,49.528,239.513,39.168,239.006,38.273z"/>
		<path fill="#7E6F48" d="M216.571,58.605c-0.931-1.408,21.057,0.682,23.614,2.757c2.793,2.266,8.799,21.952,8.167,22.731
			c-0.497,0.258-12.332-0.33-20.169-6.678C220.809,71.443,217.418,59.732,216.571,58.605z"/>
		<path fill="#7E6F48" d="M203.001,82.79c-1-3.106,17.528-0.344,19.569,1.312c2.229,1.808,6.373,18.324,5.811,19.016
			c-0.426,0.241-10.268,0.261-16.524-4.806C205.971,93.546,204.319,86.266,203.001,82.79z"/>
		<path fill="#7E6F48" d="M181.536,103.54c-2.049-3.384,20.718-3.859,23.602-2.354c3.149,1.644,12.654,19.866,12.18,20.774
			c-0.439,0.363-12.12,2.329-20.955-2.275C188.048,115.354,184.065,107.288,181.536,103.54z"/>
		<path fill="#7E6F48" d="M54.533,258.387c-1.956-5.383,30.783-3.606,34.478-1.079c4.034,2.759,12.377,31.647,11.435,33.024
			c-0.733,0.533-18.278,0.968-29.599-6.76C60.196,276.301,57.073,264.366,54.533,258.387z"/>
		<path fill="#7E6F48" d="M81.465,226.218c-1.49-4.907,27.745-2.639,30.927-0.202c3.475,2.661,9.545,28.891,8.637,30.077
			c-0.681,0.441-16.255,1.642-26.006-5.812C85.849,243.268,83.448,231.685,81.465,226.218z"/>
		<path fill="#7E6F48" d="M143.741,222.39c4.866-0.284-6.769-25.608-9.988-27.643c-3.515-2.223-28.9,0.987-29.658,2.187
			c-0.17,0.752,3.88,15.034,13.732,21.278C127.097,224.086,138.213,222.419,143.741,222.39z"/>
		<path fill="#7E6F48" d="M127.004,170.009c-1.416-4.664,26.368-2.508,29.392-0.192c3.302,2.529,9.072,27.457,8.208,28.584
			c-0.647,0.419-15.448,1.56-24.715-5.523C131.17,186.212,128.889,175.205,127.004,170.009z"/>
		<path fill="#7E6F48" d="M152.08,145.398c-0.908-4.23,23.51-0.268,26.013,2.004c2.734,2.481,5.994,24.958,5.147,25.891
			c-0.604,0.323-13.78,0.237-21.453-6.714C154.567,160.039,153.363,150.134,152.08,145.398z"/>
		<path fill="#7E6F48" d="M170.595,126.953c-1.449-4.077,23.277-3.314,26.053-1.385c3.032,2.106,9.179,23.97,8.46,25.005
			c-0.557,0.399-13.633,2.022-22.143-3.876C174.959,141.148,172.481,131.483,170.595,126.953z"/>
		<g>
			<path fill="#7E6F48" d="M231.715,47.128c0.408-0.503-0.423-6.436-1.704-12.461c-5.933,1.73-12.53,4.131-19.677,7.451
				C218.182,48.389,231.131,47.494,231.715,47.128z"/>
			<path fill="#7E6F48" d="M211.738,65.593c0.592-0.73-6.608-20.068-7.737-20.358c-4.673,2.428-9.548,5.243-14.599,8.512
				c1.243,2.589,2.984,5.22,5.582,7.323C202.023,66.771,207.847,67.887,211.738,65.593z"/>
			<path fill="#7E6F48" d="M194.917,87.348c0.611-0.823-5.916-20.31-8.768-22.429c-1.003-0.745-4.955-1.661-9.354-2.301
				c-3.53,2.684-7.127,5.591-10.783,8.735c1.876,3.578,4.513,7.453,8.566,10.459C182.581,87.746,194.427,87.637,194.917,87.348z"/>
			<path fill="#7E6F48" d="M77.088,245.581c0.942-1.377-7.401-30.264-11.435-33.024c-1.272-0.87-5.987-1.532-11.543-1.807
				c-4.459,11.134-6.145,21.339-4.683,30.956C60.7,248.163,76.39,246.088,77.088,245.581z"/>
			<path fill="#7E6F48" d="M91.349,212.51c0.908-1.186-5.162-27.416-8.637-30.077c-1.186-0.908-5.993-1.792-11.478-2.291
				c-4.759,6.945-8.819,13.539-12.119,19.835c1.645,2.44,3.665,4.762,6.228,6.721C75.093,214.151,90.667,212.951,91.349,212.51z"/>
			<path fill="#7E6F48" d="M91.163,179.227c9.27,5.875,20.387,4.208,25.914,4.179c4.866-0.284-6.769-25.608-9.988-27.644
				c-1.898-1.201-10.17-0.816-17.501-0.02c-3.097,3.836-6.039,7.57-8.829,11.214C82.988,171.3,86.394,176.205,91.163,179.227z"/>
			<path fill="#7E6F48" d="M141.062,158.181c0.863-1.127-4.906-26.055-8.209-28.584c-1.735-1.329-11.051-3.039-18.897-3.004
				c-2.679,3.089-6.351,7.375-8.889,10.351c1.873,5.374,5.313,11.152,11.28,15.713C125.613,159.741,140.414,158.6,141.062,158.181z"
				/>
			<path fill="#7E6F48" d="M158.045,132.498c0.634-0.699-5.063-20.49-7.797-22.971c-1.521-1.38-9.696-4.746-16.047-5.988
				c-1.63,1.839-3.828,4.095-5.421,5.897c1.726,4.418,4.367,10.027,9.405,14.592C145.857,130.982,157.551,132.702,158.045,132.498z"
				/>
			<path fill="#7E6F48" d="M175.46,111.928c0.663-0.737-5.752-17.912-8.496-20.381c-1.389-1.25-7.65-7.057-13.864-8.298
				c-2.123,2.109-5.843,5.874-6.648,6.996c1.683,4.283,4.239,9.404,8.872,13.566C163.025,110.731,174.95,112.152,175.46,111.928z"/>
			<path fill="#7E6F48" d="M255.741,67.133c0.759,1.01,3.186,11.219,9.028,17.401c1.728-7.316,2.748-13.803,3.261-19.506
				C261.525,65.461,255.254,66.373,255.741,67.133z"/>
			<path fill="#7E6F48" d="M240.968,90.663c1.474,3.47,3.434,10.837,9.608,15.225c2.045,1.453,4.426,2.364,6.747,2.922
				c2.104-5.671,3.844-10.993,5.273-15.978C261.985,91.529,239.832,87.547,240.968,90.663z"/>
			<path fill="#7E6F48" d="M229.451,118.747c2.164,3.97,5.365,12.377,13.231,17.477c0.707,0.458,1.444,0.856,2.191,1.229
				c3.235-6.558,6.056-12.771,8.507-18.649c-0.072-0.061-0.144-0.123-0.211-0.166C250.441,116.867,227.731,115.185,229.451,118.747z
				"/>
			<path fill="#7E6F48" d="M140.302,269.486c-3.845-2.29-36.569-1.01-34.279,4.239c1.865,3.722,4.257,10.205,8.646,16.118
				c9.909-2.199,19.836-7.437,29.53-14.662C142.711,272.256,141.329,270.097,140.302,269.486z"/>
			<path fill="#7E6F48" d="M129.66,240.209c2.322,5.332,5.445,16.741,15.041,23.164c2.826,1.891,6.055,3.09,9.263,3.826
				c4.636-4.123,9.195-8.636,13.65-13.417c-2.305-7.074-5.237-14.466-7.101-15.716C157.185,235.834,127.864,235.404,129.66,240.209z
				"/>
			<path fill="#7E6F48" d="M184.389,211.715c-3.648-1.998-28.781,2.799-29.463,4.044c-0.122,0.761,4.816,14.761,15.041,20.374
				c3.348,1.838,6.86,2.738,10.252,3.131c4.16-5.112,8.19-10.368,12.061-15.658C189.34,217.883,185.881,212.532,184.389,211.715z"/>
			<path fill="#7E6F48" d="M177.548,185.008c2.207,5.068,5.175,15.91,14.295,22.015c2.887,1.932,6.216,3.094,9.487,3.777
				c3.886-5.688,7.564-11.302,10.991-16.698c-1.912-5.365-4.016-10.167-5.452-11.13C203.707,180.85,175.842,180.442,177.548,185.008
				z"/>
			<path fill="#7E6F48" d="M198.45,159.758c1.991,4.127,4.837,12.658,12.452,18.734c2.511,2.004,5.377,3.479,8.149,4.555
				c2.626-4.325,5.043-8.392,7.221-12.099c-1.578-3.686-3.182-6.839-4.241-7.685C219.389,161.152,196.883,156.088,198.45,159.758z"
				/>
			<path fill="#7E6F48" d="M213.796,138.368c1.947,4.198,4.675,12.91,12.316,18.954c1.911,1.512,4.038,2.695,6.177,3.632
				c2.986-5.189,5.738-10.2,8.274-15.036c-1.056-2.283-2.05-4.034-2.794-4.624C235.119,139.196,212.273,134.63,213.796,138.368z"/>
		</g>
	</g>
</g>
<g id="Layer_1">
</g>
</svg>
