<?xml version="1.0" encoding="utf-8"?>
<!-- Generator: Adobe Illustrator 24.2.3, SVG Export Plug-In . SVG Version: 6.00 Build 0)  -->
<svg version="1.1" xmlns="http://www.w3.org/2000/svg" xmlns:xlink="http://www.w3.org/1999/xlink" x="0px" y="0px"
	 viewBox="0 0 314.216 315.641" enable-background="new 0 0 314.216 315.641" xml:space="preserve">
<g id="memorygame_x5F_hare_x5F_rusakko">
	<path fill="#FFDDC3" d="M259.563,314.215H54.653C24.594,314.215,0,289.622,0,259.563V54.653C0,24.594,24.594,0,54.653,0h204.91
		c30.059,0,54.653,24.594,54.653,54.653v204.91C314.215,289.622,289.622,314.215,259.563,314.215z"/>
	<path fill="#FFFFFF" d="M276.686,74.235C239.539,15.273,161.127,11.167,96.488,37.77C48.123,57.675-6.454,132.761,32.781,221.852
		c39.571,89.853,163.143,87.006,212.596,44.307C307.722,212.328,307.197,122.664,276.686,74.235z"/>
	<g>
		<g id="muistipeli_x5F_rusakko_1_">
			<path fill="#C1A174" d="M195.545,181.044c0,0,84.742-135.894,26.765-171.282c0,0-56.233-16.222-52.961,167.887L195.545,181.044z"
				/>
			<path fill="#957757" d="M190.141,181.15c0,0,56.791-110.57,21.248-133.934c0,0-34.94-8.698-37.632,133.092L190.141,181.15z"/>
			<path fill="#505252" d="M242.585,51.387c-0.222-17.688-5.8-32.79-20.276-41.625c0,0-22.756-6.559-38.474,36.062
				c7.061-5.766,17.032-10.646,29.833-9.037C226.476,38.396,236.006,44.854,242.585,51.387z"/>
			<path fill="#C1A174" d="M142.578,176.174c0,0,28.977-157.508-37.941-169.157c0,0-58.263,5.54,12.326,175.61L142.578,176.174z"/>
			<path fill="#C1A174" d="M37.453,312.835c5.416,1.81,11.195,2.806,17.2,2.806h106.085c4.681-10.685,10.195-20.97,16.712-30.284
				l-28.826-33.518C148.625,251.837,80.002,256.971,37.453,312.835z"/>
			<path fill="#957757" d="M99.193,315.639h61.545c4.68-10.685,10.195-20.97,16.712-30.284l-12.186-14.17
				C144.714,278.698,119.658,292.059,99.193,315.639z"/>
			<path fill="#957757" d="M138.665,177.023c0,0,12.925-123.628-28.664-132.545c0,0-35.72,4.537,13.086,137.69L138.665,177.023z"/>
			<path fill="#C1A174" d="M164.472,158.618c15.121,2.553,39.552,13.316,56.136,54.719s24.98,85.928-50.698,91.055
				s-85.835-26.933-74.37-72.43C107.846,183.126,122.065,151.46,164.472,158.618z"/>
			<path fill="#FDFDFD" d="M120.602,243.917c-27.781-5.737-14.794-48.744,12.055-34.451
				C150.346,220.726,140.402,244.979,120.602,243.917z"/>
			<path fill="#505252" d="M122.909,213.792c6.859-1.113,12.057,3.511,13.647,9.656c1.671,6.457-4.366,12.543-10.561,13.549
				c-5.834,0.948-10.989-3.052-12.327-9.948C112.654,221.316,115.565,214.982,122.909,213.792z"/>
			<path fill="#FDFDFD" d="M201.485,205.449c27.781,5.737,14.794,48.744-12.055,34.451
				C171.74,228.641,181.685,204.387,201.485,205.449z"/>
			<path fill="#505252" d="M199.177,235.576c-6.859,1.113-12.057-3.511-13.647-9.656c-1.671-6.457,4.366-12.543,10.561-13.549
				c5.834-0.948,10.989,3.052,12.327,9.948C209.433,228.051,206.521,234.383,199.177,235.576z"/>
			<path fill="#505252" d="M179.734,278.418c-3.552,1.892-6.758,3.558-10.815,4.056c-0.951,0.117-1.921,0.181-2.898,0.206
				l-0.825-11.988c7.274-1.573,14.086-8.531,12.145-15.887c-1.916-7.256-8.24-12.699-16.614-11.357
				c-8.967,1.438-12.545,8.933-11.331,15.705c1.306,6.625,5.704,10.974,11.134,11.75l0.065,11.493
				c-0.763-0.097-1.52-0.211-2.261-0.351c-6.634-1.25-12.61-4.095-18.037-8.064c-1.486-1.087-3.691,1.122-2.561,2.594
				c10.468,13.633,30.462,14.409,43.637,3.937C182.622,279.518,181.001,277.741,179.734,278.418z"/>
			<path opacity="0.5" fill="#BF7900" enable-background="new    " d="M91.643,256.477c4.355-4.295,10.639-6.809,19.057-5.776
				c10.969,1.345,18.879,7.826,20.963,18.158c0.703,3.484,0.701,6.99,0.265,10.528c-1.193,9.682-6.227,17.029-13.662,20.199
				C97.808,291.931,90.85,276.526,91.643,256.477z"/>
			<path opacity="0.5" fill="#BF7900" enable-background="new    " d="M215.332,247.518c6.922,0.849,12.62,3.747,16.41,8.363
				c0.772,17.367-5.521,32.35-25.878,41.028c-4.401-1.389-8.397-3.932-11.903-7.54C183.12,278.215,187.982,244.163,215.332,247.518z
				"/>
			<path fill="#505252" d="M138.771,38.301c-6.696-16.373-17.425-28.375-34.134-31.284c0,0-23.576,2.247-22.561,47.663
				c4.453-7.954,11.938-16.152,24.437-19.352C119.018,32.126,130.253,34.639,138.771,38.301z"/>
			<path fill="#957757" d="M161.141,243.342c8.382-1.268,14.609,3.231,16.405,9.333c1.888,6.411-5.606,12.628-13.177,13.774
				c-7.129,1.08-13.319-2.797-14.791-9.654C148.475,251.09,152.167,244.699,161.141,243.342z"/>
		</g>
		<g id="Layer_1_8_">
		</g>
	</g>
</g>
<g id="Layer_1">
</g>
</svg>
