<?xml version="1.0" encoding="utf-8"?>
<!-- Generator: Adobe Illustrator 24.2.3, SVG Export Plug-In . SVG Version: 6.00 Build 0)  -->
<svg version="1.1" xmlns="http://www.w3.org/2000/svg" xmlns:xlink="http://www.w3.org/1999/xlink" x="0px" y="0px"
	 viewBox="0 0 314.216 314.215" enable-background="new 0 0 314.216 314.215" xml:space="preserve">
<g id="memorygame_x5F_blueberry_x5F_mustikka">
	<path fill="#FFDDC3" d="M259.563,314.215H54.653C24.594,314.215,0,289.622,0,259.563V54.653C0,24.594,24.594,0,54.653,0h204.91
		c30.059,0,54.653,24.594,54.653,54.653v204.91C314.215,289.622,289.622,314.215,259.563,314.215z"/>
	<path fill="#FFFFFF" d="M276.686,74.235C239.539,15.273,161.127,11.167,96.488,37.77C48.123,57.675-6.454,132.761,32.781,221.852
		c39.571,89.853,163.143,87.006,212.596,44.307C307.722,212.328,307.197,122.664,276.686,74.235z"/>
	<g>
		<g id="muistipeli_x5F_mustikka_1_">
			<path fill="#69B802" d="M185.042,189.212c11.795,2.592,22.652-11.233,20.98-28.31c-2.056-20.995-13.994-31.962-15.124-32.189
				c-0.617-0.124-14.029,8.057-20.639,25.813C166.756,163.934,164.925,184.792,185.042,189.212z"/>
			<path fill="#A3D02A" d="M182.836,186.839c10.575,2.734,18.538-6.071,20.033-18.4c1.979-16.327-5.865-26.943-6.695-27.287
				c-0.453-0.188-10.68,3.752-19.675,16.638C172.02,164.206,169.175,183.307,182.836,186.839z"/>
			<path fill="#5AA043" d="M187.065,203.835l1.235-22.523l16.631-7.804c0.181-0.631,0.349-1.272,0.493-1.928l-16.829,7.119
				l0.278-10.656l17.178-6.759c-0.011-0.128-0.017-0.255-0.029-0.383c-0.058-0.59-0.126-1.169-0.199-1.743l-16.794,5.709
				l1.213-13.634l12.711-4.18c-0.265-0.741-0.543-1.452-0.826-2.149l-11.763,4.164l1.121-20.01c-0.279-0.21-0.481-0.326-0.587-0.347
				c-0.079-0.016-0.367,0.105-0.821,0.362l-1.833,19.565l-10.251-8.178c-0.363,0.478-0.724,0.97-1.083,1.477l11.124,8.939
				l-1.711,13.575l-16.048-9.968c-0.005,0.014-0.011,0.027-0.016,0.041c-0.169,0.453-0.333,0.933-0.492,1.436l16.252,11.285
				l-0.865,11.982c-2.154-1.184-12.277-6.823-16.974-9.414c0.063,0.737,0.155,1.474,0.276,2.208l16.401,9.648l-1.696,21.355
				L187.065,203.835z"/>
			<path fill="#69B802" d="M161.085,95.735c15.575,2.482,28.678-16.368,25.199-38.505c-4.277-27.216-20.676-40.605-22.166-40.815
				c-0.813-0.114-17.677,11.571-24.945,35.223C135.323,64.169,134.522,91.502,161.085,95.735z"/>
			<path fill="#A3D02A" d="M158.029,92.808c13.995,2.76,23.707-9.325,24.718-25.512c1.339-21.437-9.695-34.681-10.804-35.066
				c-0.605-0.21-13.639,5.703-24.386,23.188C142.206,64.125,139.949,89.243,158.029,92.808z"/>
			<path fill="#5AA043" d="M164.364,116.065l0.367-30.878l21.089-11.44c0.188-0.837,0.359-1.684,0.496-2.55l-21.399,10.561
				l-0.448-13.914l21.881-10.118c-0.024-0.166-0.041-0.331-0.067-0.497c-0.12-0.765-0.253-1.515-0.392-2.257l-21.46,8.721
				l0.544-17.867l16.254-6.416c-0.402-0.946-0.818-1.852-1.241-2.739l-15.019,6.324l-0.061-26.172
				c-0.38-0.252-0.651-0.388-0.791-0.408c-0.104-0.015-0.471,0.165-1.043,0.534l-0.902,25.647l-13.986-9.882
				c-0.436,0.65-0.87,1.319-1.3,2.008l15.183,10.808l-1.198,17.828L139.19,51.582c-0.006,0.018-0.012,0.036-0.018,0.054
				c-0.185,0.603-0.364,1.242-0.532,1.909l22.046,13.476l-0.217,15.687c-2.899-1.38-16.525-7.961-22.846-10.982
				c0.139,0.956,0.315,1.91,0.528,2.857l22.119,11.331l0.147,24.51L164.364,116.065z"/>
			<path fill="#69B802" d="M148.32,142.271c12.323-9.843,7.211-32.223-11.498-44.558C113.821,82.549,92.88,85.656,91.721,86.617
				c-0.632,0.524-3.349,20.86,9.243,42.16C107.636,140.061,127.303,159.059,148.32,142.271z"/>
			<path fill="#A3D02A" d="M144.099,142.561c11.464-8.488,9.071-23.806-2.216-35.454c-14.947-15.425-32.168-16.186-33.199-15.626
				c-0.563,0.306-4.968,13.923,0.721,33.642C112.239,134.943,129.288,153.525,144.099,142.561z"/>
			<path fill="#5AA043" d="M164.825,152.232l-21.847-19.76l5.744-23.294c-0.492-0.702-1.004-1.399-1.551-2.084l-6.602,22.932
				l-10.588-9.038l7.254-22.99c-0.139-0.094-0.272-0.192-0.413-0.285c-0.646-0.426-1.29-0.833-1.932-1.231l-8.004,21.738
				l-12.843-12.433l6.202-16.337c-0.97-0.34-1.921-0.642-2.861-0.927l-5.439,15.362L92.556,86.305
				c-0.442,0.111-0.725,0.22-0.834,0.31c-0.081,0.067-0.195,0.459-0.307,1.131l18.353,17.937l-16.724,3.686
				c0.187,0.761,0.39,1.531,0.61,2.313l18.214-3.946l12.373,12.891l-23.304,8.099c0.01,0.017,0.018,0.033,0.028,0.049
				c0.321,0.543,0.673,1.105,1.053,1.679l24.808-7.224l11.451,10.723c-2.972,1.214-17.013,6.856-23.503,9.495
				c0.8,0.541,1.624,1.053,2.468,1.534l23.27-8.72l20.282,19.269L164.825,152.232z"/>
			<path fill="#69B802" d="M172.675,129.305c8.041,12.452,29.451,9.784,42.751-6.545c16.351-20.076,15.423-39.951,14.634-41.125
				c-0.43-0.641-19.19-5.101-40.296,4.663C178.582,91.471,158.961,108.069,172.675,129.305z"/>
			<path fill="#A3D02A" d="M172.803,125.332c6.854,11.521,21.404,10.729,33.361,1.274c15.835-12.52,18.172-28.552,17.745-29.569
				c-0.233-0.555-12.551-5.959-31.527-2.501C182.933,96.258,163.948,110.447,172.803,125.332z"/>
			<path fill="#5AA043" d="M161.802,143.798l20.539-18.564l21.24,7.57c0.703-0.394,1.403-0.807,2.095-1.254l-20.82-8.338
				l9.451-9.047l20.813,8.953c0.101-0.121,0.206-0.236,0.306-0.359c0.459-0.564,0.901-1.128,1.333-1.691l-19.571-9.536
				l12.839-10.835l14.691,7.341c0.409-0.875,0.782-1.735,1.137-2.587l-13.852-6.536l18.268-16.472
				c-0.062-0.424-0.137-0.699-0.211-0.809c-0.055-0.082-0.411-0.226-1.029-0.394L210.526,96.71l-1.868-15.986
				c-0.729,0.103-1.469,0.22-2.221,0.352l1.971,17.404l-13.222,10.353l-5.374-22.556c-0.016,0.008-0.033,0.014-0.049,0.022
				c-0.538,0.249-1.097,0.525-1.669,0.826l4.413,23.88l-11.108,9.696c-0.854-2.894-4.805-16.556-6.66-22.874
				c-0.581,0.697-1.138,1.419-1.667,2.163l5.957,22.582l-19.932,17.147L161.802,143.798z"/>
			<path fill="#69B802" d="M221.515,172.264c7.928,14.533,31.994,13.33,48.156-3.758c19.87-21.01,20.478-43.223,19.696-44.596
				c-0.427-0.749-20.952-7.266-45.266,1.865C231.22,130.611,207.994,147.477,221.515,172.264z"/>
			<path fill="#A3D02A" d="M221.986,167.848c6.683,13.398,22.953,13.718,37.052,4.175c18.671-12.637,22.598-30.299,22.207-31.467
				c-0.213-0.637-13.486-7.674-34.907-5.39C235.671,136.303,213.353,150.538,221.986,167.848z"/>
			<path fill="#5AA043" d="M208.208,187.507l24.41-18.979l23.032,10.186c0.816-0.381,1.63-0.782,2.437-1.224l-22.5-11.006
				l11.274-9.296l22.441,11.691c0.122-0.127,0.249-0.246,0.37-0.375c0.558-0.59,1.096-1.182,1.624-1.773l-21.01-12.238
				l15.195-11.008l15.756,9.39c0.528-0.941,1.014-1.868,1.48-2.788l-14.888-8.424l21.708-16.837
				c-0.034-0.477-0.095-0.79-0.169-0.919c-0.054-0.095-0.439-0.285-1.113-0.524l-21.888,15.7l-0.76-17.959
				c-0.82,0.055-1.654,0.123-2.502,0.208l0.757,19.548l-15.582,10.439l-4.122-25.567c-0.019,0.007-0.037,0.013-0.056,0.02
				c-0.62,0.233-1.265,0.494-1.928,0.783l2.943,26.962l-13.173,9.881c-0.712-3.294-3.984-18.837-5.528-26.026
				c-0.705,0.728-1.385,1.487-2.036,2.271l4.77,25.644l-23.617,17.451L208.208,187.507z"/>
			<path fill="#5AA043" d="M160.395,87.427c0.634,1.903-4.878,170.825-4.878,170.825L86.825,167.38l-1.41,5.075l69.506,103.992
				l-0.723,27.013h12.52l-0.96-80.593l69.658-57.18l-3.947-2.538l-65.853,48.209l-1.415-122.03L160.395,87.427z"/>
			<path fill="#69B802" d="M100.905,212.441c1.848-13.806-15.083-24.96-34.551-21.401c-23.935,4.376-35.396,19.149-35.548,20.47
				c-0.083,0.721,10.605,15.353,31.648,21.249C73.602,235.882,97.752,235.988,100.905,212.441z"/>
			<path fill="#A3D02A" d="M98.389,215.204c2.129-12.417-8.755-20.726-23.069-21.263c-18.957-0.71-30.407,9.324-30.722,10.311
				c-0.172,0.539,5.336,11.916,21.01,21.02C73.412,229.805,95.638,231.245,98.389,215.204z"/>
			<path fill="#5AA043" d="M117.518,208.714l-26.006,0.74l-10.564-18.368c-0.743-0.147-1.495-0.28-2.263-0.382l9.796,18.661
				l-12.275,0.702l-9.415-19.096c-0.146,0.025-0.291,0.043-0.438,0.07c-0.672,0.123-1.332,0.257-1.984,0.395l8.172,18.756
				l-15.787-0.087l-6.024-14.211c-0.826,0.376-1.617,0.763-2.391,1.156l5.914,13.122l-23.107,0.63
				c-0.214,0.341-0.328,0.584-0.343,0.707c-0.011,0.092,0.156,0.412,0.495,0.909l22.664,0.231l-8.417,12.566
				c0.584,0.371,1.184,0.739,1.802,1.103l9.209-13.643l15.767,0.665l-9.919,19.402c0.016,0.005,0.032,0.01,0.048,0.014
				c0.537,0.15,1.104,0.294,1.697,0.428l11.413-19.762l13.855-0.154c-1.155,2.59-6.665,14.766-9.193,20.413
				c0.841-0.144,1.679-0.32,2.511-0.529l9.517-19.776l24.708-0.097L117.518,208.714z"/>
			<path fill="#69B802" d="M125.412,205.018c11.348,4.42,24.319-7.663,25.314-24.938c1.223-21.239-8.963-34.025-10.053-34.427
				c-0.595-0.219-15.233,5.841-24.585,22.503C111.132,176.982,106.057,197.479,125.412,205.018z"/>
			<path fill="#A3D02A" d="M123.584,202.309c10.11,4.372,19.416-3.16,22.826-15.211c4.516-15.959-1.645-27.758-2.419-28.23
				c-0.422-0.257-11.225,2.074-22.195,13.511C116.333,178.076,110.523,196.661,123.584,202.309z"/>
			<path fill="#5AA043" d="M125.149,219.902l4.739-22.248l17.786-5.184c0.279-0.601,0.546-1.213,0.792-1.844l-17.876,4.471
				l1.938-10.574l18.168-4.058c0.009-0.129,0.023-0.256,0.031-0.386c0.034-0.597,0.057-1.184,0.074-1.768l-17.622,3.072
				l3.332-13.395l13.316-2.184c-0.149-0.78-0.315-1.532-0.489-2.27l-12.369,2.316l4.234-19.761c-0.246-0.252-0.428-0.399-0.53-0.437
				c-0.076-0.028-0.382,0.048-0.875,0.233l-4.875,19.207l-8.939-9.745c-0.436,0.419-0.872,0.853-1.309,1.303l9.69,10.64
				l-3.82,13.258l-14.436-12.432c-0.007,0.013-0.015,0.025-0.022,0.038c-0.239,0.425-0.477,0.878-0.714,1.354l14.434,13.775
				l-2.729,11.803c-1.962-1.516-11.169-8.711-15.445-12.024c-0.052,0.744-0.075,1.493-0.069,2.243l14.837,12.168l-5.017,21.012
				L125.149,219.902z"/>
			<path fill="#69B802" d="M120.24,240.411c-6.306-11.627-25.537-10.713-38.483,2.909c-15.917,16.748-16.446,34.495-15.824,35.593
				c0.339,0.599,16.726,5.846,36.171-1.402C112.405,273.672,130.995,260.242,120.24,240.411z"/>
			<path fill="#A3D02A" d="M119.855,243.939c-5.313-10.718-18.313-11.005-29.596-3.408c-14.942,10.061-18.115,24.165-17.804,25.099
				c0.169,0.51,10.761,6.158,27.88,4.374C108.86,269.116,126.719,257.785,119.855,243.939z"/>
			<path fill="#5AA043" d="M130.902,228.257l-19.54,15.117l-18.382-8.183c-0.652,0.302-1.304,0.622-1.95,0.973l17.956,8.838
				l-9.026,7.405l-17.908-9.385c-0.098,0.101-0.199,0.196-0.297,0.299c-0.447,0.47-0.878,0.942-1.301,1.414l16.763,9.819
				l-12.162,8.765l-12.571-7.533c-0.424,0.751-0.814,1.491-1.188,2.225l11.879,6.759l-17.377,13.41
				c0.026,0.382,0.075,0.631,0.133,0.734c0.043,0.076,0.35,0.229,0.888,0.421l17.519-12.502l0.572,14.351
				c0.655-0.042,1.322-0.095,2-0.161l-0.567-15.62l12.47-8.31l3.244,20.435c0.015-0.006,0.03-0.01,0.045-0.016
				c0.496-0.185,1.012-0.392,1.542-0.622l-2.299-21.548l10.544-7.869c0.563,2.633,3.147,15.058,4.366,20.806
				c0.565-0.581,1.11-1.185,1.631-1.811l-3.761-20.498l18.903-13.897L130.902,228.257z"/>
			<path fill="#69B802" d="M178.286,223.348c-9.48,7.482-5.666,24.641,8.604,34.17c17.544,11.715,33.593,9.43,34.484,8.699
				c0.486-0.399,2.658-15.958-6.888-32.324C209.428,225.223,194.454,210.587,178.286,223.348z"/>
			<path fill="#A3D02A" d="M181.519,223.145c-8.816,6.448-7.052,18.188,1.538,27.157c11.376,11.878,24.559,12.538,25.351,12.114
				c0.432-0.232,3.866-10.639-0.402-25.764C205.881,229.122,192.909,214.816,181.519,223.145z"/>
			<path fill="#5AA043" d="M165.692,215.646l16.64,15.228l-4.503,17.811c0.374,0.54,0.762,1.076,1.179,1.603l5.158-17.529
				l8.067,6.968l-5.658,17.571c0.106,0.072,0.207,0.149,0.315,0.22c0.493,0.329,0.984,0.644,1.474,0.951l6.226-16.609l9.778,9.578
				l-4.822,12.481c0.741,0.264,1.468,0.5,2.186,0.723l4.233-11.739l14.768,13.548c0.339-0.083,0.556-0.165,0.64-0.234
				c0.062-0.051,0.151-0.351,0.24-0.865l-13.973-13.817l12.822-2.747c-0.14-0.583-0.291-1.174-0.456-1.774l-13.965,2.94
				l-9.416-9.926l17.881-6.097c-0.007-0.013-0.014-0.025-0.021-0.038c-0.244-0.418-0.51-0.849-0.799-1.29l-19.029,5.42l-8.72-8.262
				c2.281-0.916,13.058-5.173,18.039-7.165c-0.61-0.418-1.239-0.814-1.883-1.186l-17.857,6.573l-15.444-14.845L165.692,215.646z"/>
			<path fill="#69B802" d="M208.937,199.29c-7.562,13.499,5.354,31.949,26.914,36.246c26.507,5.283,44.39-5.279,45.088-6.58
				c0.381-0.71-4.664-20.195-23.978-34.9C246.728,186.266,221.834,176.268,208.937,199.29z"/>
			<path fill="#A3D02A" d="M212.666,197.469c-7.283,11.95,0.553,24.986,15.114,31.401c19.283,8.496,35.215,2.824,35.945,1.933
				c0.398-0.486-0.63-14.489-13.087-30.308C244.436,192.618,222.075,182.031,212.666,197.469z"/>
			<path fill="#5AA043" d="M190.256,196.337l27.156,9.885l3.387,23.293c0.707,0.456,1.429,0.901,2.18,1.321l-2.474-23.28
				l12.962,4.302l1.903,23.574c0.161,0.034,0.318,0.074,0.481,0.107c0.745,0.148,1.48,0.28,2.211,0.404l-0.758-22.713l16.266,6.554
				l0.401,17.138c1.007-0.05,1.983-0.126,2.942-0.214l-0.734-15.971l24.117,8.811c0.361-0.264,0.578-0.468,0.643-0.59
				c0.049-0.09,0.007-0.49-0.139-1.141l-23.307-9.519l13.837-9.529c-0.451-0.622-0.92-1.248-1.409-1.877l-15.095,10.317
				l-16.008-7.143l18.186-15.972c-0.015-0.011-0.029-0.023-0.044-0.035c-0.493-0.375-1.02-0.755-1.578-1.137l-19.877,15.732
				l-14.369-5.514c2.253-2.201,12.928-12.517,17.851-17.313c-0.927-0.196-1.865-0.357-2.809-0.482l-17.925,16.523l-25.552-10.017
				L190.256,196.337z"/>
			<path fill="#69B802" d="M89.15,176.102c14.135-7.702,12.977-31.103-3.632-46.827c-20.42-19.331-42.019-19.932-43.354-19.173
				c-0.729,0.414-7.075,20.369,1.792,44.016C48.655,166.646,65.043,189.238,89.15,176.102z"/>
			<path fill="#A3D02A" d="M84.857,175.643c13.031-6.492,13.35-22.312,4.077-36.026c-12.279-18.161-29.451-21.988-30.587-21.608
				c-0.62,0.207-7.469,13.11-5.258,33.94C54.191,162.322,68.022,184.029,84.857,175.643z"/>
			<path fill="#5AA043" d="M103.461,189.656l-17.938-24.35l9.915-22.39c-0.37-0.793-0.76-1.585-1.189-2.371l-10.713,21.873
				l-9.034-10.967l11.379-21.816c-0.123-0.119-0.239-0.242-0.364-0.36c-0.574-0.543-1.148-1.066-1.723-1.58l-11.91,20.424
				l-10.696-14.78l9.138-15.316c-0.914-0.514-1.816-0.987-2.71-1.44l-8.198,14.472l-16.361-21.116
				c-0.464,0.033-0.768,0.092-0.894,0.164c-0.093,0.053-0.278,0.427-0.51,1.082l15.257,21.29l-17.463,0.73
				c0.053,0.798,0.119,1.608,0.201,2.433l19.008-0.727l10.143,15.156l-24.862,3.996c0.007,0.018,0.013,0.036,0.02,0.055
				c0.226,0.603,0.48,1.23,0.76,1.875l26.218-2.849l9.602,12.813c-3.203,0.691-18.318,3.865-25.31,5.363
				c0.708,0.686,1.445,1.348,2.207,1.98l24.937-4.626L97.822,190.5L103.461,189.656z"/>
			<path fill="#275F88" d="M165.044,126.079c-11.668,0.051-19.385-7.523-19.467-19.105c-0.085-12.092,9.042-20.659,22.115-20.76
				c11.059-0.086,17.932,7.083,18.003,18.778C185.775,117.827,177.748,126.024,165.044,126.079z"/>
			<path fill="#3F749A" d="M161.791,119.721c-8.598,0.038-14.285-5.544-14.345-14.079c-0.063-8.91,6.663-15.224,16.297-15.298
				c8.149-0.063,13.214,5.22,13.267,13.837C177.067,113.641,171.152,119.68,161.791,119.721z"/>
			<path opacity="0.5" fill="#54BDCF" enable-background="new    " d="M158.889,109.713c-4.514,0.02-7.5-2.911-7.532-7.392
				c-0.033-4.678,3.498-7.993,8.557-8.033c4.279-0.033,6.938,2.741,6.966,7.265C166.91,106.52,163.804,109.691,158.889,109.713z"/>
			<path fill="#275F88" d="M174.42,171.583c-11.668,0.051-19.385-7.523-19.467-19.105c-0.085-12.092,9.042-20.659,22.115-20.76
				c11.059-0.086,17.932,7.083,18.003,18.778C195.15,163.331,187.123,171.527,174.42,171.583z"/>
			<path fill="#3F749A" d="M171.166,165.225c-8.598,0.038-14.285-5.544-14.345-14.079c-0.063-8.91,6.663-15.224,16.297-15.298
				c8.149-0.063,13.214,5.22,13.267,13.837C186.442,159.145,180.527,165.184,171.166,165.225z"/>
			<path opacity="0.5" fill="#54BDCF" enable-background="new    " d="M168.264,155.217c-4.514,0.02-7.5-2.911-7.532-7.392
				c-0.033-4.678,3.498-7.993,8.557-8.033c4.279-0.033,6.938,2.741,6.966,7.265C176.285,152.025,173.179,155.195,168.264,155.217z"
				/>
			<path fill="#275F88" d="M231.663,188.885c-11.668,0.051-19.385-7.523-19.467-19.105c-0.085-12.092,9.042-20.659,22.115-20.76
				c11.059-0.086,17.932,7.083,18.003,18.778C252.393,180.633,244.366,188.829,231.663,188.885z"/>
			<path fill="#3F749A" d="M228.41,182.527c-8.598,0.038-14.285-5.544-14.345-14.079c-0.063-8.91,6.663-15.224,16.297-15.298
				c8.149-0.063,13.214,5.22,13.267,13.837C243.686,176.447,237.771,182.486,228.41,182.527z"/>
			<path opacity="0.5" fill="#54BDCF" enable-background="new    " d="M225.507,172.52c-4.514,0.02-7.5-2.911-7.532-7.392
				c-0.033-4.678,3.498-7.993,8.557-8.033c4.279-0.033,6.938,2.741,6.966,7.265C233.528,169.326,230.423,172.497,225.507,172.52z"/>
			<path fill="#275F88" d="M199.31,225.678c-11.668,0.051-19.385-7.523-19.467-19.105c-0.085-12.092,9.042-20.659,22.115-20.76
				c11.059-0.086,17.932,7.083,18.003,18.778C220.04,217.428,212.013,225.624,199.31,225.678z"/>
			<path fill="#3F749A" d="M196.057,219.322c-8.598,0.038-14.285-5.544-14.345-14.079c-0.063-8.91,6.663-15.224,16.297-15.298
				c8.149-0.063,13.214,5.22,13.267,13.837C211.333,213.24,205.418,219.281,196.057,219.322z"/>
			<path opacity="0.5" fill="#54BDCF" enable-background="new    " d="M193.154,209.312c-4.514,0.02-7.5-2.911-7.532-7.392
				c-0.033-4.678,3.498-7.993,8.557-8.033c4.279-0.033,6.938,2.741,6.966,7.265C201.175,206.12,198.069,209.292,193.154,209.312z"/>
			<path fill="#275F88" d="M149.194,239.001c-11.668,0.051-19.385-7.523-19.467-19.105c-0.085-12.092,9.042-20.659,22.115-20.76
				c11.059-0.086,17.932,7.083,18.003,18.778C169.925,230.749,161.898,238.945,149.194,239.001z"/>
			<path fill="#3F749A" d="M145.941,232.643c-8.598,0.038-14.285-5.544-14.345-14.079c-0.063-8.91,6.663-15.224,16.297-15.298
				c8.149-0.063,13.214,5.22,13.267,13.837C161.217,226.562,155.302,232.602,145.941,232.643z"/>
			<path opacity="0.5" fill="#54BDCF" enable-background="new    " d="M143.039,222.635c-4.514,0.02-7.5-2.911-7.532-7.392
				c-0.033-4.678,3.498-7.993,8.557-8.033c4.279-0.033,6.938,2.741,6.966,7.265C151.06,219.441,147.954,222.613,143.039,222.635z"/>
			<path fill="#275F88" d="M108.594,196.497c-11.668,0.051-19.385-7.523-19.467-19.105c-0.085-12.092,9.042-20.659,22.115-20.76
				c11.059-0.086,17.932,7.083,18.003,18.778C129.325,188.245,121.298,196.443,108.594,196.497z"/>
			<path fill="#3F749A" d="M105.341,190.141c-8.598,0.038-14.285-5.544-14.345-14.079c-0.063-8.91,6.663-15.224,16.297-15.298
				c8.149-0.063,13.214,5.22,13.267,13.837C120.617,184.059,114.702,190.1,105.341,190.141z"/>
			<path opacity="0.5" fill="#54BDCF" enable-background="new    " d="M102.439,180.132c-4.514,0.02-7.5-2.911-7.532-7.392
				c-0.033-4.678,3.498-7.993,8.557-8.033c4.279-0.033,6.938,2.741,6.966,7.265C110.46,176.939,107.354,180.111,102.439,180.132z"/>
			<path fill="#275F88" d="M104.154,248.516c-11.668,0.051-19.385-7.523-19.467-19.105c-0.085-12.092,9.042-20.659,22.115-20.76
				c11.059-0.086,17.932,7.083,18.003,18.778C124.884,240.264,116.857,248.46,104.154,248.516z"/>
			<path fill="#3F749A" d="M100.9,242.158c-8.598,0.038-14.285-5.544-14.345-14.079c-0.063-8.91,6.663-15.224,16.297-15.298
				c8.149-0.063,13.214,5.22,13.267,13.837C116.177,236.077,110.262,242.117,100.9,242.158z"/>
			<path opacity="0.5" fill="#54BDCF" enable-background="new    " d="M97.998,232.15c-4.514,0.02-7.5-2.911-7.532-7.392
				c-0.033-4.678,3.498-7.993,8.557-8.033c4.279-0.033,6.938,2.741,6.966,7.265C106.019,228.958,102.913,232.128,97.998,232.15z"/>
		</g>
		<g id="Layer_1_11_">
		</g>
	</g>
</g>
<g id="Layer_1">
</g>
</svg>
