<?xml version="1.0" encoding="utf-8"?>
<!-- Generator: Adobe Illustrator 24.2.3, SVG Export Plug-In . SVG Version: 6.00 Build 0)  -->
<svg version="1.1" xmlns="http://www.w3.org/2000/svg" xmlns:xlink="http://www.w3.org/1999/xlink" x="0px" y="0px"
	 viewBox="0 0 314.216 314.215" enable-background="new 0 0 314.216 314.215" xml:space="preserve">
<g id="memorygame_x5F_moose_x5F_hirvi">
	<path fill="#FFDDC3" d="M259.563,314.215H54.653C24.594,314.215,0,289.622,0,259.563V54.653C0,24.594,24.594,0,54.653,0h204.91
		c30.059,0,54.653,24.594,54.653,54.653v204.91C314.215,289.622,289.622,314.215,259.563,314.215z"/>
	<path fill="#FFFFFF" d="M276.686,74.235C239.539,15.273,161.127,11.167,96.488,37.77C48.123,57.675-6.454,132.761,32.781,221.852
		c39.571,89.853,163.143,87.006,212.596,44.307C307.722,212.328,307.197,122.664,276.686,74.235z"/>
	<g>
		<g id="muistipeli_x5F_hirvi_1_">
			<path fill="#C1A174" d="M173.51,135.454c0,0-12.138-112.2,16.207-112.15c22.23,0.039-10.154,42.58,17.119,44.674
				c27.272,2.094,10.472-35.481,27.272-34.901c20.243,0.698-0.698,39.995,23.733,40.485c24.431,0.49,13.961-29.317,27.921-26.525
				c13.961,2.792,13.262,46.07-4.188,56.54s-62.711-0.241-77.425,6.86s-12.667,25.017-12.667,25.017H173.51z"/>
			<path fill="#935803" d="M250.662,185.056c-23.907-6.751-38.968-17.684-46.466-24.362c0.05-0.561,0.086-1.112,0.113-1.657
				c9.879,0.865,19.927,0.547,29.356-2.806c16.771-4.36,21.796-26.909,12.089-39.568c-2.465-3.254-5.592-5.462-10.001-4.884
				c-13.352,5.266-27.388,17.625-39.167,28.044c-11.681-10.529-23.999-14.681-41.084-14.718c0,0-12.259,0-23.82,3.628
				c-4.686-10.536-12.971-21.108-19.072-30.818c-6.524-8.022-11.729-14.204-20.11-8.258c-13.374,8.704-16.113,31.656-1.754,41.336
				c6.275,5.079,13.585,8.431,21.219,10.834c-8.176,9.26-14.834,20.864-31.849,30.743c-21.639,12.564-68.406,30.015-69.104,62.124
				c-0.698,32.109,17.451,50.258,41.183,45.372c23.733-4.886,30.015-25.827,40.485-30.015c3.237-1.295,9.747-1.857,17.995-2.942
				c0.84,0.47,1.552,1.109,2.01,1.973c1.162,2.19,0.258,4.926-1.121,6.987c-1.379,2.061-3.225,3.84-4.18,6.128
				c-0.956,2.288-0.648,5.418,1.526,6.609c1.055,0.578,2.332,0.583,3.52,0.4c4.107-0.631,7.797-3.461,9.509-7.242
				c-0.591,1.692,0.884,3.761,2.72,4.116c1.985,0.383,3.984-0.693,5.447-2.088c2.06-1.964,3.431-4.637,3.825-7.456
				c0.542,2.4,3.869,3.003,6.131,2.034c4.838-2.072,6.558-8.07,6.735-13.33c0.079-2.359-0.019-4.776,0.053-7.152
				c1.007-0.43,2.011-0.881,3.013-1.353c31.462,36.87,60.197,61.346,83.504,77.481h26.196c30.059,0.002,54.652-24.592,54.652-54.651
				V192.85C290.375,191.6,265.661,189.292,250.662,185.056z"/>
			<path fill="#FDFDFD" d="M107.896,180.805c-22.36-5.515-9.666-40.317,11.159-27.439
				C132.936,162.898,123.736,182.693,107.896,180.805z"/>
			<path fill="#505252" d="M110.979,156.479c5.604-0.626,9.631,3.331,10.673,8.376c1.094,5.301-4.043,9.991-9.106,10.557
				c-4.767,0.533-8.784-2.916-9.592-8.559C102.364,162.165,104.978,157.149,110.979,156.479z"/>
			<path fill="#FDFDFD" d="M173.236,190.395c-22.36-5.515-9.666-40.317,11.159-27.439
				C198.276,172.488,189.076,192.283,173.236,190.395z"/>
			<path fill="#505252" d="M176.319,166.069c5.604-0.626,9.631,3.331,10.673,8.376c1.094,5.301-4.043,9.991-9.106,10.557
				c-4.767,0.533-8.784-2.916-9.592-8.559C167.703,171.755,170.318,166.739,176.319,166.069z"/>
			<g>
				<path fill="#6A4019" d="M67.311,232.321c-4.275,5.235-12.783,7.722-19.299,8.337c-13.04,1.231-8.567,8.454-6.877,9.331
					c3.446,1.789,8.764,0.708,12.683-1.343C58.586,246.151,66.824,236.873,67.311,232.321z"/>
			</g>
			<path fill="#6A4019" d="M14.569,258.588C27.081,280.84,65.013,274.67,63.4,248.546C72.288,278.614,21.131,285.973,14.569,258.588
				z"/>
			<path opacity="0.3" fill="#BF7900" enable-background="new    " d="M154.871,194.527c-23.715,1.302-28.694,32.286-13.303,45.649
				c14.462-4.719,29.748-15.713,39.509-29.612C177.768,200.76,169.33,192.714,154.871,194.527z"/>
			<path fill="#6A4019" d="M236.428,133.906c4.355,19.214-18.639,23.678-32.943,20.913c-2.578-1.575-3.12-5.671-4.856-8.176
				c-0.317-0.639-0.213-1.145,0.38-1.688c5.221-4.786,10.657-9.316,16.26-13.641C223.494,123.957,233.282,119.841,236.428,133.906z"
				/>
			<path fill="#6A4019" d="M95.563,109.019c-10.495,16.674,5.497,26.657,19.907,28.803c0,0,4.75-4.5,11.534-7.125
				c0.666-0.258-6.776-11.148-10.623-17.09C111.069,103.936,103.204,96.798,95.563,109.019z"/>
		</g>
		<g id="Layer_1_25_">
		</g>
	</g>
	<g>
		<path fill="#C1A174" d="M161.934,125.336c2.192-27.583,5.977-102.073-17.121-102.032c-22.23,0.039,10.154,42.58-17.119,44.674
			c-27.272,2.094-10.472-35.481-27.272-34.901c-20.243,0.698,0.698,39.995-23.733,40.485c-24.431,0.49-13.96-29.317-27.921-26.525
			c-13.96,2.792-13.262,46.07,4.188,56.54c17.45,10.47,62.711-0.241,77.425,6.86c7.665,3.699,10.777,10.33,12.004,15.837
			c7.352-1.17,13.117-1.17,13.117-1.17C157.725,125.109,159.863,125.187,161.934,125.336z"/>
	</g>
</g>
<g id="Layer_1">
</g>
</svg>
