<?xml version="1.0" encoding="utf-8"?>
<!-- Generator: Adobe Illustrator 24.2.3, SVG Export Plug-In . SVG Version: 6.00 Build 0)  -->
<svg version="1.1" xmlns="http://www.w3.org/2000/svg" xmlns:xlink="http://www.w3.org/1999/xlink" x="0px" y="0px"
	 viewBox="0 0 314.216 314.215" enable-background="new 0 0 314.216 314.215" xml:space="preserve">
<g id="memorygame_x5F_stoat_x5F_karppa">
	<path fill="#FFDDC3" d="M259.563,314.215H54.653C24.594,314.215,0,289.622,0,259.563V54.653C0,24.594,24.594,0,54.653,0h204.91
		c30.059,0,54.653,24.594,54.653,54.653v204.91C314.215,289.622,289.622,314.215,259.563,314.215z"/>
	<path fill="#FFFFFF" d="M276.686,74.235C239.539,15.273,161.127,11.167,96.488,37.77C48.123,57.675-6.454,132.761,32.781,221.852
		c39.571,89.853,163.143,87.006,212.596,44.307C307.722,212.328,307.197,122.664,276.686,74.235z"/>
	<g>
		<g id="muistipeli_x5F_karppa_1_">
			<g>
				<path fill="#957757" d="M140.817,184.335c-3.084,5.5-4.536,11.811-4.861,18.108c-0.548,10.593,2.066,21.331,7.421,30.487
					c-6.401,0.586-12.803,1.172-19.204,1.758c-5.607,0.513-12.392,1.913-14.14,7.266c1.809,2.698,5.566,3.062,8.814,3.132
					c25.362,0.545,50.761-0.576,75.977-3.353l7.113-8.832L140.817,184.335z"/>
			</g>
			<g>
				<path fill="#957757" d="M116.349,135.47c-3.67,15.368-7.009,31.509-17.595,42.398c-0.646,0.664-1.334,1.319-2.15,1.649
					c-2.488,1.007-5.027-1.558-5.442-4.418s0.614-5.788,1.54-8.573c4.107-12.347,6.556-25.303,7.236-38.273
					c0.226-4.308,0.279-8.734,1.76-12.789L116.349,135.47z"/>
			</g>
			<g>
				<path fill="#EAE3D3" d="M235.57,224.045c0.298-18.545-34.994-48.741-58.794-84.028c-17.073-25.312-19.632-62.264-18.509-77.247
					c0,0-60.305-9.623-60.355-9.033C85.538,201.32,187.03,249.991,199.124,253.874C216.025,259.3,235.272,242.591,235.57,224.045z"
					/>
			</g>
			<g>
				<path fill="#957757" d="M158.752,62.314c0,0-22.321-3.562-39.815-6.219c-5.282,137.026,90.329,182.818,102.045,186.58
					c2.289,0.735,4.621,1.051,6.943,1.025c4.84-5.537,8.011-12.674,8.13-20.111c0.298-18.545-34.994-48.741-58.794-84.028
					C160.188,114.249,157.629,77.298,158.752,62.314z"/>
			</g>
			<g>
				<path fill="#957757" d="M145.306,148.855c-3.67,15.368-7.009,31.509-17.595,42.398c-0.646,0.664-1.334,1.319-2.15,1.649
					c-2.488,1.007-5.027-1.558-5.442-4.418s0.614-5.788,1.54-8.573c4.107-12.347,6.556-25.303,7.236-38.273
					c0.226-4.308,0.279-8.734,1.76-12.789c1.481-4.055,4.824-7.713,8.654-7.758c2.98-0.035,5.66,2.194,6.914,5.157
					C147.477,129.211,146.119,145.586,145.306,148.855z"/>
			</g>
			<g>
				<path fill="#957757" d="M235.05,212.119c-4.827-13.116-16.906-23.494-30.736-25.516s-28.745,4.822-35.58,17.013
					c-3.084,5.5-4.536,11.811-4.861,18.108c-0.548,10.593,2.066,21.331,7.421,30.487c-6.401,0.586-12.803,1.172-19.204,1.758
					c-5.607,0.513-12.392,1.913-14.14,7.266c1.809,2.698,5.566,3.062,8.814,3.132c25.362,0.545,50.761-0.576,75.977-3.353
					l7.113-8.832C237.61,240.556,239.877,225.235,235.05,212.119z"/>
			</g>
			<g>
				<path fill="#957757" d="M276.51,223.378c-4.14-7.225-11.978-11.485-19.754-14.462c-15.163-5.805-31.65-8.123-47.826-6.722
					l-3.108,8.959c12.324-0.851,25.923-0.548,35.308,7.484c8.509,7.282,10.937,19.764,8.488,30.692
					c-2.14,9.551-10.797,16.47-22.181,21.647l16.874,16.111c2.236-1.193,4.424-2.48,6.553-3.872
					c13.562-8.862,24.632-22.36,27.991-38.209C280.392,237.75,280.198,229.813,276.51,223.378z"/>
			</g>
			<path fill="#4B4B4A" d="M232.382,268.509c-25.366,13.858-70.073,16.719-80.336,21.243c-3.088,1.361-6.48,3.996-5.814,7.304
				c0.667,3.311,4.78,4.416,8.141,4.751c17.007,1.692,34.228,0.668,51.062-2.285c15.067-2.643,30.088-6.937,43.134-14.867
				L232.382,268.509z"/>
			<path fill="#957757" d="M120.832,10.635c-14.765-0.338-53.568,10.95-72.897,51.479c-18.991,39.82,16.924,39.991,23.356,40.769
				c7.459,0.902,65.574-6.438,81.275-19.047S166.22,11.673,120.832,10.635z"/>
			<path fill="#F5EEDE" d="M96.556,87.241c-0.17-6.889-6.37-14.486-20.304-13.682c-8.468,0.489-22.67,8.92-31.167,18.479
				c6.698,12,22.012,11.66,26.352,12.29c7.562,1.097,66.239-5.814,81.911-19.116c4.459-3.785,8.085-10.263,7.976-24.046
				C152.941,70.817,119.434,82.069,96.556,87.241z"/>
			<g>
				<path fill="#C1A174" d="M155.92,51.104c-6.547,3.829-15.598,2.645-24.229,1.398l-7.356-24.846
					c3.853-5.115,8.45-9.845,14.955-10.851c6.506-1.007,15.341,2.747,20.14,10.425C165.255,36.548,162.467,47.275,155.92,51.104z"/>
			</g>
			<g>
				<path fill="#957757" d="M147.991,48.339c-4.718,2.76-11.242,1.907-17.462,1.007l-5.302-17.907
					c2.777-3.686,6.09-7.095,10.779-7.821c4.689-0.726,11.057,1.98,14.515,7.514C154.718,37.849,152.709,45.58,147.991,48.339z"/>
			</g>
			<path fill="#FDFDFD" d="M98.87,44.82c20.109-2.628,22.535,25.822,2.853,26.973C86.188,72.797,83.727,47.093,98.87,44.82z"/>
			<path fill="#505252" d="M94.729,58.659c-0.297-5.141,2.641-8.915,6.957-9.298c4.583-0.406,9.973,2.825,9.955,7.714
				c-0.018,4.653-2.873,8.879-7.947,9.329C98.261,66.887,95.047,62.916,94.729,58.659z"/>
			<path fill="#6A4019" d="M67.897,100.5c9.557,0.202,18.327-7.026,18.37-16.789c0.005-1.054-1.752-1.294-2.05-0.292
				c-1.088,3.66-2.811,7.002-5.379,9.849c-1.324,1.468-2.929,2.837-4.638,3.834c-2.005,1.17-4.027,1.52-6.283,1.886
				C67.111,99.12,66.991,100.481,67.897,100.5L67.897,100.5z"/>
			<path fill="#6A4019" d="M63.223,92.106c3.778,1.923,8.051,2.989,11.79,4.925c2.762,1.43,4.167-1.068,1.361-2.038
				c-4.036-1.397-7.623-3.704-11.654-5.129C62.38,89.036,60.839,90.893,63.223,92.106L63.223,92.106z"/>
			<path fill="#4A402F" d="M64.065,87.296c-0.385,5.826-4.529,9.699-9.865,9.576c-5.666-0.13-11.788-4.459-11.053-9.962
				c0.699-5.237,4.808-9.628,11.08-9.485C60.943,77.578,64.296,82.462,64.065,87.296z"/>
			<path fill="#C1A174" d="M100.575,74.73c-12.638,4.067-13.019,19.726-4.506,27.595c7.524-1.126,15.936-2.652,23.99-4.536
				C126.272,89.132,117.667,68.224,100.575,74.73z"/>
		</g>
		<g id="Layer_1_21_">
		</g>
	</g>
</g>
<g id="Layer_1">
</g>
</svg>
