<?xml version="1.0" encoding="utf-8"?>
<!-- Generator: Adobe Illustrator 24.2.3, SVG Export Plug-In . SVG Version: 6.00 Build 0)  -->
<svg version="1.1" xmlns="http://www.w3.org/2000/svg" xmlns:xlink="http://www.w3.org/1999/xlink" x="0px" y="0px"
	 viewBox="0 0 314.216 314.215" enable-background="new 0 0 314.216 314.215" xml:space="preserve">
<g id="memorygame_x5F_spruce_x5F_branch_x5F_kuusi">
	<g id="Layer_1_17_">
	</g>
	<path fill="#FFDDC3" d="M259.563,314.215H54.653C24.594,314.215,0,289.622,0,259.563V54.653C0,24.594,24.594,0,54.653,0h204.91
		c30.059,0,54.653,24.594,54.653,54.653v204.91C314.215,289.622,289.622,314.215,259.563,314.215z"/>
	<path fill="#FFFFFF" d="M276.686,74.235C239.539,15.273,161.127,11.167,96.488,37.77C48.123,57.675-6.454,132.761,32.781,221.852
		c39.571,89.853,163.143,87.006,212.596,44.307C307.722,212.328,307.197,122.664,276.686,74.235z"/>
	<path fill="#5AA043" d="M301.784,181.219c-7.543,2.317-15.048,6.172-23.313,5.284C269.985,193.781,308.378,186.689,301.784,181.219
		L301.784,181.219z"/>
	<path fill="#5AA043" d="M296.008,193.777c-7.011-1.227-13.782-4.612-20.444-6.174C270.736,192.945,293.953,197.141,296.008,193.777
		L296.008,193.777z"/>
	<path fill="#5AA043" d="M286.823,201.133c-6.029-4.556-12.647-8.069-17.382-14.131C257.692,186.835,283.02,205.246,286.823,201.133
		L286.823,201.133z"/>
	<path fill="#5AA043" d="M278.411,205.549c-5.531-4.97-10.953-9.782-14.606-16.403C254.086,186.641,275.008,210.311,278.411,205.549
		L278.411,205.549z"/>
	<path fill="#5AA043" d="M269.25,210.314c-4.38-7.323-12.761-12.486-14.102-21.77C242.734,180.725,264.098,216.425,269.25,210.314z"
		/>
	<path fill="#5AA043" d="M258.519,213.9c-2.947-8.797-9.571-17.394-13.169-26.054C238.024,188.685,252.856,217.874,258.519,213.9z"
		/>
	<path fill="#5AA043" d="M224.228,186.241c1.388,7.969,16.903,40.056,9.418,10.775C232.738,193.837,227.788,181.256,224.228,186.241
		L224.228,186.241z"/>
	<path fill="#5AA043" d="M229.556,210.262c-6.573-7.407-11.477-15.73-13.543-25.491C201.187,174.47,224.952,218.081,229.556,210.262
		L229.556,210.262z"/>
	<path fill="#5AA043" d="M288.357,173.324c-5.088,0.999-20.988,18.209-8.395,14.265
		C280.504,183.624,294.858,174.041,288.357,173.324L288.357,173.324z"/>
	<path fill="#5AA043" d="M282.394,169.508c-3.551,1.068-24.254,17.352-17.487,17.79
		C266.255,181.203,290.472,172.685,282.394,169.508L282.394,169.508z"/>
	<path fill="#5AA043" d="M265.774,166.056c-4.641,2.273-26.358,19.222-16.829,21.174
		C250.718,183.234,275.183,165.714,265.774,166.056L265.774,166.056z"/>
	<path fill="#5AA043" d="M255.422,162.731c-4.291,2.098-27.95,22.549-18.774,23.649
		C238.454,180.624,260.217,164.326,255.422,162.731L255.422,162.731z"/>
	<path fill="#5AA043" d="M232.94,161.486c-4.344,2.078-27.258,22.786-16.298,22.754C217.762,178.738,238.835,162.506,232.94,161.486
		L232.94,161.486z"/>
	<path fill="#5AA043" d="M219.648,164.191c-4.017,1.304-24.487,15.974-13.463,16.372
		C210.087,176.005,219.449,168.147,219.648,164.191L219.648,164.191z"/>
	<path fill="#5AA043" d="M211.503,158.425c-3.996,1.775-27.408,14.889-19.306,17.905
		C193.672,174.382,219.214,155.997,211.503,158.425L211.503,158.425z"/>
	<path fill="#5AA043" d="M169.84,145.094c-5.728,3.826-13.248,10.667-13.557,17.758C157.24,168.854,176.371,143.241,169.84,145.094
		L169.84,145.094z"/>
	<path fill="#5AA043" d="M155.976,141.77c-0.825-6.005-20.944,13.868-12.271,13.028C147.161,149.52,153.99,148.181,155.976,141.77
		L155.976,141.77z"/>
	<path fill="#5AA043" d="M210.331,206.609c-1.144-7.578-4.505-20.918-8.531-25.028C201.402,189.452,203.686,203.772,210.331,206.609
		z"/>
	<path fill="#5AA043" d="M200.212,208.689c0.556-4.363-3.413-24.12-9.249-29.213C189.231,184.406,195.209,214.518,200.212,208.689z"
		/>
	<path fill="#5AA043" d="M189.668,202.642c0.99-2.6-4.617-26.577-8.727-26.009C179.626,180.775,185.03,209,189.668,202.642z"/>
	<path fill="#5AA043" d="M178.997,198.952c0.426-9.444-7.214-46.549-6.628-10.774C172.424,191.595,174.347,202.097,178.997,198.952z
		"/>
	<path fill="#5AA043" d="M169.355,199.228c-1.448-3.909,0.158-35.721-6.002-29.159C161.056,177.159,159.788,200.357,169.355,199.228
		z"/>
	<path fill="#5AA043" d="M216.187,50.654c-3.837,6.745-7.277,14.008-11.862,20.384c1.472,5.936,8.276-5.61,9.614-7.999
		C215.352,60.559,221.435,50.421,216.187,50.654L216.187,50.654z"/>
	<path fill="#5AA043" d="M222.848,57.741c-4.759,6.592-11.433,11.233-17.822,16.047C205.288,82.312,229.742,58.166,222.848,57.741
		L222.848,57.741z"/>
	<path fill="#5AA043" d="M220.093,71.313c-6.529,3.986-12.266,9.732-20.215,11.311C199.933,89.779,225.87,76.105,220.093,71.313
		L220.093,71.313z"/>
	<path fill="#5AA043" d="M214.052,87.281c-6.666,2.393-13.734,1.267-20.452,0.024C182.097,93.787,219.215,93.296,214.052,87.281
		L214.052,87.281z"/>
	<path fill="#5AA043" d="M206.885,94.607c-5.875,3.894-13.334,1.735-19.871,2.595C179.025,105.552,213.35,99.371,206.885,94.607
		L206.885,94.607z"/>
	<path fill="#5AA043" d="M201.03,104.328c-6.189,3.203-19.98-1.015-22.728,3.939C183.442,111.391,201.284,111.44,201.03,104.328
		L201.03,104.328z"/>
	<path fill="#5AA043" d="M192.494,113.424c-6.433,0.22-19.569-3.366-23.387,0.467C173.832,116.658,193.309,120.606,192.494,113.424
		L192.494,113.424z"/>
	<path fill="#5AA043" d="M189.173,122.687c-6.735-1.385-19.519-4.703-24.782-2.768C169.692,123.847,186.57,130.804,189.173,122.687
		L189.173,122.687z"/>
	<path fill="#5AA043" d="M180.812,132.379c-7.452-2.105-15.791-3.257-22.889-7.107C148.081,129.597,180.959,140.789,180.812,132.379
		L180.812,132.379z"/>
	<path fill="#5AA043" d="M167.324,138.089c-7.768,0.763-14.075-3.396-21.251-5.218C140.781,137.604,172.371,144.892,167.324,138.089
		L167.324,138.089z"/>
	<path fill="#5AA043" d="M158.811,147.727c-8.906,1.803-16.023-10.109-22.832-8.863C134.934,145.34,162.658,156.382,158.811,147.727
		L158.811,147.727z"/>
	<path fill="#5AA043" d="M204.007,50.021c-4.977,4.409-7.34,22.319-1.02,23.89C202.317,66.149,204.386,56.901,204.007,50.021
		L204.007,50.021z"/>
	<path fill="#5AA043" d="M191.536,57.558c-0.279,7.312-0.988,22.623,5.936,25.259C194.682,77.086,195.739,58.062,191.536,57.558z"/>
	<path fill="#5AA043" d="M183.968,67.823c-1.139,5.988-3.187,25.068,4.773,24.168C187.562,89.394,186.558,62.209,183.968,67.823z"/>
	<path fill="#5AA043" d="M145.993,102.535c-0.684,5.67-0.111,23.143,7.261,21.33C152.743,121.887,148.15,96.174,145.993,102.535z"/>
	<path fill="#5AA043" d="M139.685,107.783c-2.017,5.649,0.341,21.212,6.379,20.945C142.59,124.395,143.751,106.895,139.685,107.783
		L139.685,107.783z"/>
	<path fill="#5AA043" d="M133.579,113.564c-3.505,5.234-0.905,19.955,4.135,20.864C136.651,128.726,138.258,115.812,133.579,113.564
		L133.579,113.564z"/>
	<path fill="#5AA043" d="M125.633,118.842c-5.272,8.101,6.48,33.924,2.332,9.672C126.879,125.841,128.326,118.255,125.633,118.842
		L125.633,118.842z"/>
	<path fill="#5AA043" d="M172.953,224.298c1.741-11.964-33.528-30.629-7.689-6.354C167.097,220.15,169.721,225.576,172.953,224.298z
		"/>
	<path fill="#5AA043" d="M164.488,251.96c2.24-4.237-7.293-31.76-10.421-22.582C159.48,234.709,158.689,250.814,164.488,251.96z"/>
	<path fill="#5AA043" d="M159.489,261.38c0.424-4.227-3.607-23.831-7.937-20.302C154.346,244.855,154.791,264.164,159.489,261.38z"
		/>
	<path fill="#5AA043" d="M154.171,274.032c3.266-6.184-3.196-13.546-4.91-19.618C143.635,249.584,151.693,274.399,154.171,274.032z"
		/>
	<path fill="#5AA043" d="M148.761,282.451c2.443-1.284-3.539-26.465-5.326-21.068C144.849,266.837,145.41,280.996,148.761,282.451z"
		/>
	<path fill="#5AA043" d="M134.329,284.663c4.613-4.183,8.101-12.354,9.196-18.977C142.227,260.839,128.856,286.31,134.329,284.663z"
		/>
	<path fill="#5AA043" d="M130.875,183.675c6.806-1.737,12.377-8.871,20.1-9.733C157.783,165.05,125.895,179.282,130.875,183.675z"/>
	<path fill="#5AA043" d="M132.762,193.676c4.83-5.92,16.999-6.97,19.48-13.104C148.572,176.874,126.195,191.808,132.762,193.676z"/>
	<path fill="#5AA043" d="M131.216,247.722c7.906-4.357,14.689-11.046,23.054-14.16C155.895,227.922,126.708,244.323,131.216,247.722
		z"/>
	<path fill="#5AA043" d="M131.185,260.565c2.835-4.045,25.645-15.262,19.843-18.106
		C146.271,243.977,125.777,257.001,131.185,260.565z"/>
	<path fill="#5AA043" d="M130.283,268.105c8.577-2.507,30.683-22.157,6.823-9.411C134.536,260.391,124.846,266.315,130.283,268.105z
		"/>
	<path fill="#5AA043" d="M135.642,172.432c-3.043-4.161-0.146-18.758-4.881-18.838C130.277,156.602,129.561,175.829,135.642,172.432
		z"/>
	<path fill="#5AA043" d="M126.737,170.03c-2.776-3.622,0.333-26.382-4.973-20.309C121.716,154.748,121.672,171.089,126.737,170.03z"
		/>
	<path fill="#5AA043" d="M117.532,167.509c-1.82-4.977,4.078-25.023-1.727-23.812C114.054,147.918,110.335,171.686,117.532,167.509z
		"/>
	<path fill="#5AA043" d="M109.435,162.353c0.582-7.993,2.255-16.378,2.55-24.312c-4.518-4.21-5.33,7.793-5.515,10.749
		C106.411,151.807,104.58,165.133,109.435,162.353z"/>
	<path fill="#5AA043" d="M128.885,42.92c-3.424,0.857-26.698,17.458-15.868,12.553C118.298,53.081,135.3,46.334,128.885,42.92
		L128.885,42.92z"/>
	<path fill="#5AA043" d="M127.632,54.218c-5.538,1.434-15.588,0.619-18.862,4.357C111.674,61.514,129.887,57.981,127.632,54.218
		L127.632,54.218z"/>
	<path fill="#5AA043" d="M114.298,69.575c-4.773,1.409-19.842-3.73-19.509,2.87C97.927,75.006,118.507,74.362,114.298,69.575
		L114.298,69.575z"/>
	<path fill="#5AA043" d="M107.973,76.956c-6.315,1.264-12.704-0.902-18.79-2.495C80.34,79.071,112.505,81.87,107.973,76.956
		L107.973,76.956z"/>
	<path fill="#5AA043" d="M102.858,83.029c-7.062-0.615-14.034-1.911-20.926-3.619C78.67,84.084,102.208,90.054,102.858,83.029
		L102.858,83.029z"/>
	<path fill="#5AA043" d="M90.138,90.11C87.938,88.352,74.43,78.928,76.7,85.587C79.789,87.578,87.634,93.56,90.138,90.11
		L90.138,90.11z"/>
	<path fill="#5AA043" d="M82.466,93.098c-3.423-0.347-17.497-9.058-16.654-4.384C69.248,91.012,81.72,98.423,82.466,93.098
		L82.466,93.098z"/>
	<path fill="#5AA043" d="M113.594,39.195c-4.165,2.308-15.659,22.563-6.964,20.799C106.962,55.135,117.94,40.122,113.594,39.195
		L113.594,39.195z"/>
	<path fill="#5AA043" d="M100.437,48.116c-4.139,2.775-12.488,21.213-4.243,20.301C97.836,62.433,100.415,53.262,100.437,48.116
		L100.437,48.116z"/>
	<path fill="#5AA043" d="M89.828,53.081c-5.458,1.547-2.593,34.371-0.468,16.808C88.474,64.601,91.971,57.242,89.828,53.081
		L89.828,53.081z"/>
	<path fill="#5AA043" d="M82.135,57.04c-4.488,2.813-8.138,20.885-1.328,20.484C81.19,71.515,84.109,62.19,82.135,57.04
		L82.135,57.04z"/>
	<path fill="#5AA043" d="M72.674,61.351c-2.957,4.582-7.137,23.314-0.658,22.944C71.411,80.285,79.15,57.731,72.674,61.351
		L72.674,61.351z"/>
	<path fill="#5AA043" d="M65.068,65.805c-11.307,6.507-3.886,40.103-0.906,11.678C64.151,74.471,69.792,66.024,65.068,65.805
		L65.068,65.805z"/>
	<path fill="#5AA043" d="M69.14,125.003c-0.358-6.015-6.006-19.393-11.121-19.012C61.009,111.94,65.35,121.257,69.14,125.003z"/>
	<path fill="#5AA043" d="M68.303,136.909c3.13-9.963-20.269-31.347-6.633-10.031C63.969,129.128,64.684,138.905,68.303,136.909z"/>
	<path fill="#5AA043" d="M63.393,159.974c1.309-5.818-4.426-25.046-11.319-22.951C53.571,140.294,60.362,162.859,63.393,159.974z"/>
	<path fill="#5AA043" d="M56.766,167.521c-0.248-6.047-1.1-22.476-7.399-22.27C51.273,150.268,52.485,168.311,56.766,167.521z"/>
	<path fill="#5AA043" d="M46.491,177.929c1-8.149,1.729-17.865,0.922-26.011C41.95,146.358,40.937,183.439,46.491,177.929z"/>
	<path fill="#5AA043" d="M39.944,109.349c6.594-0.754,13.239-1.319,19.837-1.872C64.023,100.827,41.575,106.037,39.944,109.349z"/>
	<path fill="#5AA043" d="M33.728,117.835c5.719-1.849,24.989-0.929,24.747-6.791C50.71,110.081,38.576,112.455,33.728,117.835z"/>
	<path fill="#5AA043" d="M32.254,125.559c8.103-0.662,16.349-1.452,24.295-3.008C58.486,114.702,34.83,122.109,32.254,125.559z"/>
	<path fill="#5AA043" d="M27.478,135.405c8.607,0.251,17.843-3.286,26.243-5.17c2.564-5.332-10.968-1.384-13.987-1.094
		C36.397,129.95,26.566,131.174,27.478,135.405z"/>
	<path fill="#5AA043" d="M27.716,145.601c4.492-1.95,25.683-3.131,24.908-7.005C49.296,134.152,25.338,140.207,27.716,145.601z"/>
	<path fill="#5AA043" d="M26.582,155.822c5.692-5.289,22.989-3.861,23.75-11.027c-3.55-1.974-9.54,0.538-13.055,1.805
		C34.309,147.883,22.235,153.769,26.582,155.822z"/>
	<path fill="#5AA043" d="M26.975,167.551c2.504-3.741,23.55-13.986,18.218-16.327C40.457,152.704,21.433,163.713,26.975,167.551z"/>
	<path fill="#5AA043" d="M131.459,129.808c-4.278-4.555-24.337,1.023-23.251,5.299c7.039-2.883,14.926-2.603,22.327-2.885
		C131.761,132.058,132.294,130.747,131.459,129.808L131.459,129.808z"/>
	<path fill="#5AA043" d="M116.995,115.5c-4.818-0.249-25.173,6.264-21.333,10.822C101.201,122.074,115.167,120.488,116.995,115.5
		L116.995,115.5z"/>
	<path fill="#5AA043" d="M103.232,105.251c-4.438-2.415-28.055,10.023-18.956,12.338C89.682,112.977,99.958,110.771,103.232,105.251
		L103.232,105.251z"/>
	<path fill="#5AA043" d="M98.606,100.028c-10.185-1.508-34.825,17.849-11.235,6.8C89.814,104.61,100.443,103.001,98.606,100.028
		L98.606,100.028z"/>
	<path fill="#5AA043" d="M89.783,97.438c-9.909-1.342-25.734,15.556-6.818,5.488C84.555,101.613,92.924,99.737,89.783,97.438
		L89.783,97.438z"/>
	<path fill="#5AA043" d="M80.47,95.056c-3.238-0.177-14.027,3.224-10.15,7.291C72.334,102.249,84.21,96.871,80.47,95.056
		L80.47,95.056z"/>
	<path fill="#5AA043" d="M94.859,149.642c1.067-5.865,4.273-12.462,2.134-18.361C92.866,131.497,90.463,150.602,94.859,149.642z"/>
	<path fill="#5AA043" d="M89.595,145.656c-0.036-5.694,2.73-18.608-0.48-21.15C86.454,128.605,84.819,146.829,89.595,145.656z"/>
	<path fill="#5AA043" d="M83.1,138.126c-1.422-3.36,3.179-21.588-0.119-19.268C80.932,122.719,76.539,142.555,83.1,138.126z"/>
	<path fill="#5AA043" d="M76.484,132.56c-0.381-4.003,3.447-19.656-1.282-18.884C73.647,117.805,70.885,133.401,76.484,132.56z"/>
	<path fill="#5AA043" d="M69.371,125.048c-1.371-4.267,6.19-25.019,0.197-22.13C66.619,106.947,61.885,127.833,69.371,125.048z"/>
	<path fill="#5AA043" d="M243.088,163.051c-4.641,2.273-26.358,19.222-16.829,21.174
		C228.032,180.229,252.498,162.709,243.088,163.051L243.088,163.051z"/>
	<path fill="#5AA043" d="M276.447,164.506c-4.291,2.098-27.95,22.549-18.774,23.649C259.48,182.399,281.242,166.101,276.447,164.506
		L276.447,164.506z"/>
	<path fill="#5AA043" d="M247.643,214.836c-0.25-4.77-9.797-34.55-14.403-26.538C237.827,192.215,244.297,218.623,247.643,214.836
		L247.643,214.836z"/>
	<path fill="#5AA043" d="M201.193,149.221c-4.102,2.447-25.981,24.792-16.745,25.126
		C185.77,168.461,206.104,150.412,201.193,149.221L201.193,149.221z"/>
	<path fill="#5AA043" d="M174.358,170.699c4.122-2.414,25.015-29.5,16.949-24.989C185.03,149.221,169.457,169.467,174.358,170.699
		L174.358,170.699z"/>
	<path fill="#5AA043" d="M166.207,166.869c4.122-2.414,25.13-29.289,16.949-24.989C180.692,143.176,161.306,165.638,166.207,166.869
		L166.207,166.869z"/>
	<path fill="#5AA043" d="M176.932,75.528c-1.139,5.988-3.187,25.068,4.773,24.168C180.526,97.1,179.522,69.914,176.932,75.528z"/>
	<path fill="#5AA043" d="M156.188,95.584c-1.139,5.988-3.187,25.068,4.773,24.168C159.782,117.156,158.778,89.971,156.188,95.584z"
		/>
	<path fill="#5AA043" d="M163.525,89.596c-1.139,5.988-3.187,25.068,4.773,24.168C167.12,111.168,166.116,83.982,163.525,89.596z"/>
	<path fill="#5AA043" d="M168.388,84.382c-0.684,5.67-0.111,23.143,7.261,21.33C175.139,103.733,170.545,78.02,168.388,84.382z"/>
	<path fill="#5AA043" d="M119.94,121.691c-4.818-0.249-25.173,6.264-21.333,10.822C104.146,128.265,118.112,126.679,119.94,121.691
		L119.94,121.691z"/>
	<path fill="#5AA043" d="M109.401,108.087c-4.736,0.922-22.915,12.158-18.088,15.654
		C95.663,118.281,108.832,113.369,109.401,108.087L109.401,108.087z"/>
	<path fill="#5AA043" d="M120.639,63.507c-5.718,0.149-15.326-2.909-19.358-0.005C103.447,67.021,121.988,67.681,120.639,63.507
		L120.639,63.507z"/>
	<path fill="#5AA043" d="M68.252,148.581c0-5.963-9.817-23.463-16.081-19.906C54.349,131.537,65.93,152.061,68.252,148.581z"/>
	<path fill="#5AA043" d="M101.682,158.01c0.582-7.993,2.255-16.378,2.55-24.312c-4.518-4.21-5.33,7.793-5.515,10.749
		C98.658,147.465,96.826,160.79,101.682,158.01z"/>
	<path fill="#5AA043" d="M169.961,236.199c0.915-4.705-16.195-28.277-16.525-18.587C160.164,221.144,164.08,236.786,169.961,236.199
		z"/>
	<path fill="#5AA043" d="M175.883,212.01c-0.283-4.784-22.714-23.365-20.626-13.897C162.651,199.862,170.332,214.04,175.883,212.01z
		"/>
	<path fill="#5AA043" d="M131.199,237.304c7.906-4.357,14.689-11.046,23.054-14.16C155.878,217.503,126.691,233.904,131.199,237.304
		z"/>
	<path fill="#5AA043" d="M130.718,224.796c3.866,0.255,30.086-5.316,24.901-10.249C151.302,218.266,128.572,221.417,130.718,224.796
		L130.718,224.796z"/>
	<path fill="#5AA043" d="M132.756,215.716c3.866,0.255,30.086-5.316,24.901-10.249C153.34,209.186,130.609,212.337,132.756,215.716
		L132.756,215.716z"/>
	<path fill="#5AA043" d="M130.718,206.192c3.866,0.255,30.086-5.316,24.901-10.249C151.302,199.662,128.572,202.813,130.718,206.192
		L130.718,206.192z"/>
	<path fill="#5AA043" d="M130.431,199.215c3.866,0.255,30.086-5.316,24.901-10.249C151.015,192.686,128.285,195.836,130.431,199.215
		L130.431,199.215z"/>
	<path fill="#6A4019" d="M277.721,186.231c-9.035-0.715-18.089-0.182-27.134-0.938c-9.381-0.784-18.789-1.848-28.055-3.53
		c-18.42-3.344-36.427-8.86-53.615-16.272c-13.345-5.755-26.341-12.259-38.833-19.581c7.865-3.391,15.288-9.009,21.962-14.005
		c7.492-5.608,14.708-11.617,21.506-18.049c6.997-6.621,13.288-14.084,19.466-21.466c5.812-6.945,12.661-14.315,15.8-22.905
		c0.428-1.173-1.188-1.681-1.929-1.044c-7.186,6.189-12.387,14.862-18.85,21.848c-6.156,6.652-12.957,12.553-19.812,18.461
		c-7.063,6.087-14.47,11.752-22.208,16.958c-7.665,5.157-16.359,9.458-23.487,15.306c-0.075,0.061-0.128,0.13-0.195,0.195
		c-18.02-11.255-34.886-24.295-50.085-39.374c-3.135-3.11-6.196-6.282-9.22-9.485c8.56-2.599,16.853-8.369,23.745-13.123
		c9.813-6.768,19.025-15.726,27.235-24.335c1.341-1.405-0.766-3.388-2.163-2.074c-8.603,8.09-17.584,14.283-27.672,20.27
		C75.626,78.162,66.96,83.1,57.591,86.479c-10.392-11.425-20.182-23.364-29.534-35.7c-5.077-6.696-14.384,0.668-9.029,7.25
		c11.688,14.367,24.301,28.095,37.705,41.01c-1.308,9.194-3.207,18.281-5.797,27.209c-1.407,4.851-3.076,9.613-4.68,14.4
		c-1.519,4.536-4.064,9.168-4.186,13.969c-0.054,2.172,2.693,2.867,4.093,1.564c3.488-3.248,5.112-8.619,6.912-12.961
		c1.931-4.658,3.423-9.492,4.797-14.341c2.226-7.862,3.916-15.845,5.139-23.911c14.496,13.443,29.862,25.939,45.978,37.241
		c11.556,8.104,23.604,15.304,36.093,21.518c5.982,16.578,9.209,35.425,7.309,52.944c-0.989,9.12-2.31,18.194-4.539,27.1
		c-2.215,8.854-5.433,17.373-7.476,26.27c-0.082,0.358,0.387,0.496,0.574,0.217c10.118-15.141,15.245-35.951,16.779-53.928
		c1.425-16.709,1.184-32.64-3.724-48.361c19.549,8.83,40.134,15.234,61.63,18.781c10.02,1.654,20.276,2.926,30.443,2.938
		c10.622,0.012,21.474,0.056,31.76-2.75C278.261,186.823,278.106,186.261,277.721,186.231z"/>
	<g>
		<path fill="#5B3C09" d="M208.367,287.148c1.809,1.134,4.174,0.814,5.603-0.772c4.323-4.798,13.259-17.914,11.656-44.963
			c-2.591-43.715-4.706-64.321-30.364-60.428c-24.68,3.744-12.84,50.139-8.366,67.066
			C193.991,274.892,203.472,284.079,208.367,287.148z"/>
		<path fill="#7E6F48" d="M215.715,280.759c0.411,0.153-3.566,5.289-4.365,5.373c-0.873,0.091-5.473-3.872-5.513-4.255
			c0.034-0.202,2.076-3.117,4.523-3.375C212.663,278.258,215.37,280.663,215.715,280.759z"/>
		<path fill="#7E6F48" d="M216.234,270.208c0.577,0.118-5.363,5.026-6.506,5.146c-1.248,0.13-7.587-3.245-7.623-3.593
			c0.059-0.186,3.124-2.961,6.623-3.328C212.021,268.086,215.747,270.139,216.234,270.208z"/>
		<path fill="#7E6F48" d="M213.615,260.894c1.013,0.52-4.239,4.409-5.152,4.504c-0.996,0.104-6.093-2.949-6.125-3.258
			c0.046-0.165,2.469-2.597,5.262-2.891C210.229,258.973,212.433,260.361,213.615,260.894z"/>
		<path fill="#7E6F48" d="M213.792,250.479c1.34,0.329-4.159,6.063-5.242,6.403c-1.183,0.371-8.023-1.779-8.13-2.12
			c0.019-0.198,2.415-3.565,5.731-4.608C209.271,249.171,212.243,250.179,213.792,250.479z"/>
		<path fill="#7E6F48" d="M206.922,180.946c1.811,0.845-6.705,8.484-8.239,8.772c-1.676,0.315-10.861-4.754-10.968-5.326
			c0.049-0.312,4.271-4.748,8.97-5.634C201.106,177.923,204.821,180.097,206.922,180.946z"/>
		<path fill="#7E6F48" d="M208.215,195.526c1.578,0.843-6.194,7.496-7.58,7.68c-1.514,0.201-9.482-4.773-9.551-5.289
			c0.059-0.277,3.605-4.415,7.85-4.982C202.927,192.401,206.377,194.667,208.215,195.526z"/>
		<path fill="#7E6F48" d="M193.795,211.834c-1.13,1.271,7.987,4.648,9.284,4.356c1.416-0.319,6.886-7.373,6.777-7.856
			c-0.144-0.227-4.666-2.752-8.637-1.862C197.483,207.31,195.152,210.463,193.795,211.834z"/>
		<path fill="#7E6F48" d="M210.847,220.628c1.5,0.801-5.886,7.124-7.204,7.298c-1.439,0.191-9.012-4.536-9.077-5.027
			c0.056-0.263,3.426-4.196,7.46-4.735C205.822,217.658,209.1,219.811,210.847,220.628z"/>
		<path fill="#7E6F48" d="M210.732,232.886c1.268,0.82-5.734,5.866-6.912,5.923c-1.287,0.062-7.636-4.679-7.657-5.118
			c0.069-0.229,3.341-3.458,6.949-3.636C206.507,229.887,209.247,232.034,210.732,232.886z"/>
		<path fill="#7E6F48" d="M210.715,242.004c1.363,0.648-4.925,6.56-6.086,6.769c-1.268,0.229-8.178-3.649-8.256-4.082
			c0.039-0.236,2.865-3.862,6.419-4.507C206.136,239.578,209.132,241.352,210.715,242.004z"/>
		<g>
			<path fill="#7E6F48" d="M215.33,276.776c0.023,0.225,1.692,1.483,3.495,2.654c1.037-1.891,2.072-4.11,3.016-6.693
				C218.357,273.126,215.383,276.541,215.33,276.776z"/>
			<path fill="#7E6F48" d="M215.703,267.292c0.034,0.326,6.581,3.321,6.931,3.114c0.554-1.752,1.062-3.649,1.501-5.702
				c-0.945-0.332-2.024-0.552-3.184-0.43C217.809,264.604,216.097,265.766,215.703,267.292z"/>
			<path fill="#7E6F48" d="M214.485,257.775c0.052,0.354,6.47,3.551,7.696,3.37c0.431-0.064,1.632-0.813,2.875-1.74
				c0.209-1.533,0.379-3.138,0.505-4.815c-1.346-0.42-2.952-0.725-4.694-0.467C217.43,254.634,214.535,257.583,214.485,257.775z"/>
			<path fill="#7E6F48" d="M204.518,189.669c0.107,0.572,9.292,5.64,10.968,5.326c0.528-0.099,1.855-1.099,3.293-2.402
				c-1.647-3.847-3.748-6.78-6.482-8.792C207.924,184.989,204.565,189.372,204.518,189.669z"/>
			<path fill="#7E6F48" d="M209.158,201.346c0.069,0.517,8.037,5.49,9.551,5.289c0.517-0.068,1.921-1.036,3.397-2.266
				c-0.539-2.887-1.164-5.516-1.904-7.883c-1.008-0.196-2.079-0.271-3.195-0.122C212.764,196.931,209.217,201.069,209.158,201.346z"
				/>
			<path fill="#7E6F48" d="M217.415,209.511c-3.736,0.837-6.068,3.991-7.424,5.362c-1.13,1.271,7.987,4.648,9.284,4.356
				c0.764-0.172,2.71-2.308,4.323-4.313c-0.182-1.71-0.378-3.357-0.588-4.945C221.387,209.45,219.337,209.081,217.415,209.511z"/>
			<path fill="#7E6F48" d="M210.297,227.014c0.065,0.491,7.638,5.217,9.077,5.027c0.756-0.1,3.476-1.977,5.403-3.921
				c-0.101-1.423-0.253-3.386-0.361-4.747c-1.788-0.864-4.062-1.44-6.659-1.094C213.723,222.818,210.353,226.751,210.297,227.014z"
				/>
			<path fill="#7E6F48" d="M212.443,237.54c0.016,0.329,6.304,3.806,7.591,3.743c0.716-0.035,3.563-1.221,5.436-2.481
				c-0.052-0.856-0.066-1.955-0.118-2.792c-1.516-0.664-3.551-1.396-5.92-1.28C215.824,234.907,212.515,237.368,212.443,237.54z"/>
			<path fill="#7E6F48" d="M213.221,246.911c0.018,0.346,5.838,3,7.124,2.932c0.651-0.034,3.628-0.146,5.467-1.373
				c0.003-1.044-0.008-2.891-0.086-3.366c-1.472-0.641-3.366-1.274-5.536-1.158C216.585,244.138,213.292,246.73,213.221,246.911z"/>
			<path fill="#7E6F48" d="M197.947,275.702c1.379,2.231,2.727,4.083,4.008,5.617c1.498-1.712,2.82-3.484,2.512-3.551"/>
			<path fill="#7E6F48" d="M202.307,268.318c-1.22-0.492-3.521-1.827-6.126-1.386c-0.863,0.146-1.675,0.509-2.385,0.944
				c0.88,1.918,1.764,3.66,2.641,5.243C196.908,273.289,203.356,268.807,202.307,268.318z"/>
			<path fill="#7E6F48" d="M198.219,258.548c-1.513-0.446-4.377-1.73-7.576-1.047c-0.287,0.061-0.568,0.145-0.844,0.237
				c0.82,2.416,1.657,4.645,2.502,6.699c0.033-0.003,0.066-0.005,0.093-0.011C193.505,264.191,199.523,259.003,198.219,258.548z"/>
			<path fill="#7E6F48" d="M183.025,199.367c1.514-0.384,9.271-8.773,7.411-9.503c-1.378-0.458-3.568-1.467-6.109-1.843
				c-1.902,2.987-3.059,6.729-3.668,10.902C181.747,199.278,182.621,199.47,183.025,199.367z"/>
			<path fill="#7E6F48" d="M192.873,203.964c-1.888-0.743-5.473-2.787-9.426-2.004c-1.164,0.23-2.256,0.732-3.229,1.341
				c-0.127,2.161-0.138,4.399-0.057,6.678c2.314,1.177,4.861,2.277,5.629,2.125C187.162,211.834,194.502,204.707,192.873,203.964z"
				/>
			<path fill="#7E6F48" d="M186.401,224.496c1.393-0.407,6.41-7.791,6.271-8.266c-0.158-0.218-4.83-2.453-8.737-1.316
				c-1.279,0.372-2.368,1.017-3.301,1.757c0.235,2.288,0.537,4.578,0.887,6.838C183.658,224.195,185.831,224.662,186.401,224.496z"
				/>
			<path fill="#7E6F48" d="M194.677,229.397c-1.795-0.706-5.202-2.648-8.958-1.904c-1.189,0.235-2.297,0.77-3.272,1.409
				c0.444,2.362,0.922,4.654,1.408,6.831c1.795,0.852,3.499,1.517,4.091,1.401C189.25,236.876,196.225,230.102,194.677,229.397z"/>
			<path fill="#7E6F48" d="M195.75,240.783c-1.509-0.527-4.316-1.929-7.694-1.55c-1.114,0.125-2.185,0.468-3.134,0.887
				c0.419,1.715,0.826,3.314,1.203,4.766c1.298,0.52,2.472,0.902,2.942,0.85C190.24,245.605,197.042,241.301,195.75,240.783z"/>
			<path fill="#7E6F48" d="M197.241,249.845c-1.516-0.555-4.338-2.032-7.714-1.638c-0.844,0.099-1.661,0.331-2.42,0.628
				c0.544,2.017,1.101,3.932,1.668,5.751c0.824,0.303,1.501,0.49,1.83,0.451C191.776,254.902,198.539,250.392,197.241,249.845z"/>
		</g>
	</g>
	<g>
		<path fill="#5B3C09" d="M78.433,245.614c0.957,1.908,3.145,2.863,5.19,2.249c6.186-1.857,20.632-8.43,33.302-32.381
			c20.476-38.709,29.365-57.42,5.413-67.411c-23.038-9.61-37.001,36.19-41.963,52.98C72.506,227.677,75.842,240.451,78.433,245.614z
			"/>
		<path fill="#7E6F48" d="M88.03,243.968c0.272,0.344-5.794,2.67-6.52,2.326c-0.793-0.375-2.668-6.15-2.504-6.499
			c0.134-0.155,3.392-1.587,5.618-0.537C86.719,240.246,87.784,243.707,88.03,243.968z"/>
		<path fill="#7E6F48" d="M93.95,235.219c0.432,0.4-7.193,1.512-8.232,1.021c-1.134-0.537-4.8-6.711-4.65-7.028
			c0.147-0.129,4.207-0.909,7.389,0.593C91.451,231.219,93.57,234.907,93.95,235.219z"/>
		<path fill="#7E6F48" d="M96.547,225.899c0.596,0.97-5.912,1.568-6.741,1.176c-0.905-0.428-3.677-5.683-3.544-5.964
			c0.124-0.117,3.458-0.939,5.998,0.26C94.649,222.499,95.812,224.83,96.547,225.899z"/>
		<path fill="#7E6F48" d="M102.104,217.089c0.975,0.977-6.702,3.024-7.804,2.752c-1.204-0.297-5.934-5.685-5.848-6.032
			c0.119-0.159,3.915-1.793,7.291-0.964C98.918,213.624,100.936,216.028,102.104,217.089z"/>
		<path fill="#7E6F48" d="M132.325,154.091c1.109,1.662-10.135,3.771-11.596,3.221c-1.596-0.601-6.815-9.701-6.61-10.246
			c0.204-0.241,6.115-1.841,10.592-0.16C128.923,148.488,130.969,152.275,132.325,154.091z"/>
		<path fill="#7E6F48" d="M125.861,167.224c0.911,1.54-9.185,3.192-10.465,2.629c-1.398-0.614-5.627-9.001-5.418-9.478
			c0.194-0.206,5.373-1.902,9.295-0.184C122.964,161.808,124.736,165.535,125.861,167.224z"/>
		<path fill="#7E6F48" d="M105.072,173.678c-1.626,0.499,4.415,8.118,5.674,8.542c1.375,0.462,9.713-2.728,9.871-3.197
			c-0.005-0.269-2.56-4.774-6.416-6.075C110.572,171.725,106.942,173.21,105.072,173.678z"/>
		<path fill="#7E6F48" d="M115.082,190.045c0.866,1.463-8.729,3.033-9.946,2.499c-1.329-0.584-5.348-8.555-5.149-9.008
			c0.185-0.196,5.107-1.808,8.834-0.175C112.328,184.899,114.013,188.44,115.082,190.045z"/>
		<path fill="#7E6F48" d="M108.621,200.463c0.658,1.358-7.946,2.038-8.982,1.475c-1.132-0.615-4.098-7.963-3.888-8.349
			c0.178-0.16,4.651-1.222,7.827,0.499C106.565,195.707,107.794,198.964,108.621,200.463z"/>
		<path fill="#7E6F48" d="M103.873,208.247c0.829,1.262-7.615,3.051-8.715,2.627c-1.202-0.463-5.096-7.364-4.938-7.774
			c0.156-0.181,4.453-1.814,7.826-0.52C101.218,203.798,102.859,206.868,103.873,208.247z"/>
		<g>
			<path fill="#7E6F48" d="M89.768,240.363c-0.097,0.204,0.676,2.146,1.609,4.082c1.868-1.078,3.905-2.438,6.052-4.155
				C94.25,238.815,89.935,240.191,89.768,240.363z"/>
			<path fill="#7E6F48" d="M95.01,232.451c-0.14,0.296,3.901,6.254,4.308,6.259c1.383-1.21,2.802-2.568,4.243-4.094
				c-0.636-0.774-1.444-1.522-2.498-2.02C98.205,231.247,96.138,231.351,95.01,232.451z"/>
			<path fill="#7E6F48" d="M98.909,223.685c-0.139,0.329,3.687,6.394,4.829,6.876c0.402,0.169,1.817,0.153,3.361,0.005
				c0.974-1.202,1.953-2.485,2.931-3.853c-0.932-1.058-2.147-2.152-3.769-2.835C103.057,222.528,99.051,223.546,98.909,223.685z"/>
			<path fill="#7E6F48" d="M125.741,160.299c-0.205,0.545,5.014,9.644,6.61,10.246c0.503,0.189,2.156,0.024,4.062-0.343
				c0.589-4.143,0.316-7.741-0.976-10.88C131.082,158.067,125.936,160.069,125.741,160.299z"/>
			<path fill="#7E6F48" d="M123.647,172.688c-0.21,0.477,4.02,8.864,5.418,9.479c0.477,0.21,2.179,0.111,4.08-0.174
				c1.038-2.748,1.868-5.319,2.465-7.726c-0.76-0.691-1.636-1.31-2.667-1.762C129.02,170.786,123.841,172.482,123.647,172.688z"/>
			<path fill="#7E6F48" d="M126.466,183.953c-3.628-1.224-7.258,0.262-9.129,0.73c-1.626,0.499,4.415,8.119,5.674,8.542
				c0.743,0.25,3.515-0.566,5.933-1.442c0.732-1.556,1.42-3.066,2.064-4.532C129.893,185.963,128.332,184.583,126.466,183.953z"/>
			<path fill="#7E6F48" d="M111.297,195.218c-0.199,0.454,3.82,8.424,5.149,9.008c0.698,0.307,3.997,0.115,6.653-0.547
				c0.652-1.269,1.542-3.025,2.156-4.244c-1.08-1.666-2.724-3.34-5.124-4.391C116.403,193.41,111.481,195.022,111.297,195.218z"/>
			<path fill="#7E6F48" d="M107.667,205.329c-0.157,0.289,3.413,6.525,4.545,7.14c0.63,0.342,3.679,0.806,5.935,0.701
				c0.4-0.758,0.958-1.705,1.349-2.448c-0.951-1.354-2.31-3.037-4.396-4.167C111.924,204.834,107.818,205.219,107.667,205.329z"/>
			<path fill="#7E6F48" d="M103.468,213.743c-0.164,0.305,3.433,5.594,4.567,6.204c0.574,0.309,3.177,1.758,5.386,1.664
				c0.545-0.891,1.494-2.475,1.674-2.922c-0.925-1.312-2.215-2.836-4.13-3.863C107.782,213.119,103.623,213.625,103.468,213.743z"/>
			<path fill="#7E6F48" d="M75.468,230.423c0.02,2.623,0.212,4.906,0.51,6.881c2.169-0.685,4.219-1.514,3.991-1.731"/>
			<path fill="#7E6F48" d="M83.027,226.374c-0.787-1.054-2.061-3.389-4.517-4.364c-0.813-0.323-1.696-0.435-2.529-0.432
				c-0.243,2.096-0.393,4.044-0.464,5.852C75.832,227.821,83.67,227.337,83.027,226.374z"/>
			<path fill="#7E6F48" d="M84.605,215.902c-1.062-1.166-2.843-3.751-5.932-4.828c-0.277-0.097-0.56-0.171-0.844-0.235
				c-0.553,2.49-0.995,4.83-1.339,7.025c0.029,0.015,0.059,0.03,0.085,0.039C77.646,218.278,85.483,216.967,84.605,215.902z"/>
			<path fill="#7E6F48" d="M102.337,157.431c1.493,0.458,12.478-2.686,11.267-4.275c-0.94-1.107-2.288-3.106-4.265-4.747
				c-3.176,1.566-6.107,4.163-8.794,7.415C101.291,156.692,101.938,157.309,102.337,157.431z"/>
			<path fill="#7E6F48" d="M108.368,166.473c-1.229-1.615-3.232-5.223-7.016-6.605c-1.114-0.407-2.308-0.546-3.456-0.53
				c-1.23,1.781-2.401,3.688-3.515,5.678c1.367,2.207,2.973,4.469,3.708,4.739C99.402,170.235,109.375,167.952,108.368,166.473z"/>
			<path fill="#7E6F48" d="M92.179,180.662c1.402,0.375,9.523-3.332,9.651-3.81c-0.022-0.268-2.855-4.604-6.785-5.66
				c-1.287-0.346-2.552-0.36-3.734-0.212c-0.987,2.077-1.917,4.192-2.791,6.305C89.99,178.981,91.606,180.509,92.179,180.662z"/>
			<path fill="#7E6F48" d="M96.709,189.147c-1.168-1.535-3.071-4.964-6.668-6.278c-1.138-0.416-2.363-0.534-3.528-0.494
				c-0.846,2.25-1.628,4.457-2.343,6.57c1.092,1.66,2.203,3.113,2.769,3.321C88.187,192.722,97.665,190.553,96.709,189.147z"/>
			<path fill="#7E6F48" d="M91.716,199.436c-1.017-1.234-2.688-3.89-5.771-5.318c-1.017-0.471-2.11-0.734-3.139-0.869
				c-0.532,1.683-1.014,3.262-1.446,4.699c0.84,1.118,1.645,2.054,2.074,2.254C84.503,200.697,92.551,200.55,91.716,199.436z"/>
			<path fill="#7E6F48" d="M88.286,207.956c-1.008-1.261-2.654-3.989-5.744-5.404c-0.773-0.354-1.592-0.579-2.394-0.72
				c-0.582,2.006-1.1,3.932-1.559,5.781c0.547,0.686,1.029,1.198,1.33,1.336C80.99,209.441,89.111,209.097,88.286,207.956z"/>
		</g>
	</g>
</g>
<g id="Layer_1">
</g>
</svg>
