<?xml version="1.0" encoding="utf-8"?>
<!-- Generator: Adobe Illustrator 24.2.3, SVG Export Plug-In . SVG Version: 6.00 Build 0)  -->
<svg version="1.1" xmlns="http://www.w3.org/2000/svg" xmlns:xlink="http://www.w3.org/1999/xlink" x="0px" y="0px"
	 viewBox="0 0 314.216 314.215" enable-background="new 0 0 314.216 314.215" xml:space="preserve">
<g id="memorygame_x5F_boreal_x5F_owl_x5F_helmipollo">
	<path fill="#FFDDC3" d="M259.563,314.215H54.653C24.594,314.215,0,289.622,0,259.563V54.653C0,24.594,24.594,0,54.653,0h204.91
		c30.059,0,54.653,24.594,54.653,54.653v204.91C314.215,289.622,289.622,314.215,259.563,314.215z"/>
	<path fill="#FFFFFF" d="M276.686,74.235C239.539,15.273,161.127,11.167,96.488,37.77C48.123,57.675-6.454,132.761,32.781,221.852
		c39.571,89.853,163.143,87.006,212.596,44.307C307.722,212.328,307.197,122.664,276.686,74.235z"/>
	<g>
		<g id="muistipeli_x5F_helmipollo_1_">
			<path fill="#CED0D0" d="M144.287,207.051l-7.212,40.237c0,0-37.184,5.117-37.184,7.846c0,1.365,28.315-2.388,28.315-2.388
				l-19.517,10.623c-0.698,0.38-0.267,1.444,0.499,1.23l24.135-6.736l-12.925,11.984c-0.254,0.235,0.023,0.644,0.336,0.495
				l26.235-12.479l18.176,0.284c0.823,0.013,1.074-1.11,0.324-1.449l-21.571-9.751l1.621-6.827l6.967,0.859
				c0.744,0.092,1.071-0.908,0.417-1.274l-5.34-2.987l5.141-26.871L144.287,207.051z"/>
			<path fill="#CED0D0" d="M166.951,226.816l-7.212,40.237c0,0-37.184,5.117-37.184,7.846c0,1.365,28.315-2.388,28.315-2.388
				l-19.517,10.623c-0.698,0.38-0.267,1.444,0.499,1.23l24.135-6.736l-12.925,11.984c-0.254,0.235,0.023,0.644,0.336,0.495
				l26.235-12.479l18.176,0.284c0.823,0.013,1.074-1.11,0.324-1.449l-21.571-9.751l1.621-6.827l6.967,0.859
				c0.744,0.092,1.071-0.908,0.417-1.274l-5.34-2.987l5.141-26.871L166.951,226.816z"/>
			<path fill="#B2B2B2" d="M241.886,285.747c-4.045,3.092-8.365-2.238-13.652-12.488c-0.149,0.02-0.288,0.012-0.434,0.026
				c2.168,12.652,2.561,23.892-1.47,28.293c-4.733,5.168-12.232-8.341-19.364-25.835c-0.134,6.051-1.167,10.851-3.594,13.297
				c-7.177,7.234-32.624-64.218-40.521-90.867c0,0,31.39-27.27,71.622-7.767C248.992,240.177,248.808,280.457,241.886,285.747z"/>
			<path fill="#B2B2B2" d="M187.729,128.584c9.542-5.443,17.311-12.736,21.805-22.16c17.818-37.364-5.401-79.621-37.698-88.596
				C128.753,5.855,84.872,18.933,68.591,42.324c-14.449,20.758-11.795,66.744,21.258,90.171c0.151,0.107,0.315,0.21,0.472,0.316
				c-11.186,55.344,17.354,107.676,34.365,109.393c11.069,1.117,96.388,0.149,102.142-4.886
				C231.437,233.285,219.343,176.351,187.729,128.584z"/>
			<path fill="#7C7E7E" d="M105.707,30.802c22.717-0.489,37.449,16.845,39.808,37.467c2.479,21.668-19.833,38.636-40.353,39.082
				c-19.322,0.42-34.201-14.874-35.403-37.811C69.081,50.511,81.384,31.326,105.707,30.802z"/>
			<path fill="#7C7E7E" d="M164.947,30.325c22.551-0.485,37.175,16.722,39.517,37.192c2.461,21.51-19.688,38.353-40.058,38.796
				c-19.181,0.417-33.95-14.765-35.144-37.535C128.588,49.89,140.802,30.844,164.947,30.325z"/>
			<path fill="#E8E9E9" d="M105.994,36.17c19.739-0.425,32.54,14.637,34.59,32.555c2.154,18.828-17.233,33.571-35.063,33.959
				c-16.79,0.365-29.717-12.924-30.762-32.855C74.169,53.295,84.859,36.625,105.994,36.17z"/>
			<path fill="#E8E9E9" d="M165.299,35.219c19.739-0.425,32.54,14.637,34.59,32.555c2.154,18.828-17.233,33.571-35.063,33.959
				c-16.79,0.365-29.717-12.924-30.762-32.855C133.474,52.345,144.165,35.674,165.299,35.219z"/>
			<path fill="#505252" d="M128.666,70.822c-0.63,1.567,5.695,24.765,7.406,25.159c1.109,0,9.007-19.887,9.185-24.302
				C145.1,70.53,129.901,69.96,128.666,70.822z"/>
			<g>
				<g>
					<path fill="#4A402F" d="M177.505,28.081c0.181,0,0.181-0.281,0-0.281S177.324,28.081,177.505,28.081L177.505,28.081z"/>
				</g>
			</g>
			<path fill="#E8E9E9" d="M140.922,30.611c-1.72,9.09-6.861,7.401-8.985,3.706c-1.384-2.408-1.904-6.257-1.896-10.021h11.406
				C141.489,26.273,141.34,28.402,140.922,30.611z"/>
			<path fill="#E8E9E9" d="M126.67,24.897c-1.72,9.09-6.861,7.401-8.985,3.706c-1.384-2.408-1.904-6.257-1.896-10.021h11.406
				C127.237,20.559,127.088,22.688,126.67,24.897z"/>
			<path fill="#E8E9E9" d="M154.698,24.115c-1.72,9.09-6.861,7.401-8.985,3.706c-1.384-2.408-1.904-6.257-1.896-10.021h11.406
				C155.265,19.777,155.116,21.905,154.698,24.115z"/>
			<path fill="#E8E9E9" d="M101.691,123.588c-1.72,9.09-6.861,7.401-8.985,3.706c-1.384-2.408-1.904-6.257-1.896-10.021h11.406
				C102.259,119.25,102.109,121.378,101.691,123.588z"/>
			<path fill="#E8E9E9" d="M132.377,123.252c-1.72,9.09-6.861,7.401-8.985,3.706c-1.384-2.408-1.904-6.257-1.896-10.021h11.406
				C132.944,118.914,132.795,121.043,132.377,123.252z"/>
			<path opacity="0.5" fill="#957757" enable-background="new    " d="M118.184,134.198c-1.72,9.09-6.861,7.401-8.985,3.706
				c-1.384-2.408-1.904-6.257-1.896-10.021h11.406C118.751,129.859,118.602,131.988,118.184,134.198z"/>
			<path fill="#E8E9E9" d="M103.799,142.44c-1.72,9.09-6.861,7.401-8.985,3.706c-1.384-2.408-1.904-6.257-1.896-10.021h11.406
				C104.366,138.102,104.217,140.23,103.799,142.44z"/>
			<path fill="#E8E9E9" d="M116.837,154.868c-1.72,9.09-6.861,7.401-8.985,3.706c-1.384-2.408-1.904-6.257-1.896-10.021h11.406
				C117.405,150.53,117.256,152.659,116.837,154.868z"/>
			<path opacity="0.5" fill="#957757" enable-background="new    " d="M102.327,162.594c-1.72,9.09-6.861,7.401-8.985,3.706
				c-1.384-2.408-1.904-6.257-1.896-10.021h11.406C102.894,158.256,102.745,160.385,102.327,162.594z"/>
			<path fill="#E8E9E9" d="M105.425,181.445c-1.72,9.09-6.861,7.401-8.985,3.706c-1.384-2.408-1.904-6.257-1.896-10.021h11.406
				C105.992,177.107,105.843,179.236,105.425,181.445z"/>
			<path fill="#E8E9E9" d="M118.901,172.902c-1.72,9.09-6.861,7.401-8.985,3.706c-1.384-2.408-1.904-6.257-1.896-10.021h11.406
				C119.468,168.564,119.319,170.692,118.901,172.902z"/>
			<path opacity="0.5" fill="#957757" enable-background="new    " d="M132.377,186.048c-1.72,9.09-6.861,7.401-8.985,3.706
				c-1.384-2.408-1.904-6.257-1.896-10.021h11.406C132.944,181.71,132.795,183.839,132.377,186.048z"/>
			<path fill="#E8E9E9" d="M116.837,194.679c-1.72,9.09-6.861,7.401-8.985,3.706c-1.384-2.408-1.904-6.257-1.896-10.021h11.406
				C117.405,190.341,117.256,192.47,116.837,194.679z"/>
			<path opacity="0.5" fill="#957757" enable-background="new    " d="M112.243,210.936c-1.72,9.09-6.861,7.401-8.985,3.706
				c-1.384-2.408-1.904-6.257-1.896-10.021h11.406C112.811,206.598,112.661,208.726,112.243,210.936z"/>
			<path fill="#E8E9E9" d="M130.299,204.9c-1.72,9.09-6.861,7.401-8.985,3.706c-1.384-2.408-1.904-6.257-1.896-10.021h11.406
				C130.867,200.562,130.717,202.69,130.299,204.9z"/>
			<path fill="#E8E9E9" d="M146.525,200.829c-1.72,9.09-6.861,7.401-8.985,3.706c-1.384-2.408-1.904-6.257-1.896-10.021h11.406
				C147.092,196.491,146.943,198.62,146.525,200.829z"/>
			<path fill="#E8E9E9" d="M124.769,222.05c-1.72,9.09-6.861,7.401-8.985,3.706c-1.384-2.408-1.904-6.257-1.896-10.021h11.406
				C125.336,217.712,125.187,219.841,124.769,222.05z"/>
			<path opacity="0.5" fill="#957757" enable-background="new    " d="M143.064,217.97c-1.72,9.09-6.861,7.401-8.985,3.706
				c-1.384-2.408-1.904-6.257-1.896-10.021h11.406C143.632,213.632,143.482,215.761,143.064,217.97z"/>
			<path opacity="0.5" fill="#957757" enable-background="new    " d="M138.443,233.95c-1.72,9.09-6.861,7.401-8.985,3.706
				c-1.384-2.408-1.904-6.257-1.896-10.021h11.406C139.01,229.612,138.861,231.741,138.443,233.95z"/>
			<path fill="#E8E9E9" d="M160.128,213.375c-1.72,9.09-6.861,7.401-8.985,3.706c-1.384-2.408-1.904-6.257-1.896-10.021h11.406
				C160.695,209.037,160.546,211.165,160.128,213.375z"/>
			<path opacity="0.5" fill="#957757" enable-background="new    " d="M175.01,222.579c-1.72,9.09-6.861,7.401-8.985,3.706
				c-1.384-2.408-1.904-6.257-1.896-10.021h11.406C175.577,218.241,175.428,220.37,175.01,222.579z"/>
			<path fill="#E8E9E9" d="M159.867,231.625c-1.72,9.09-6.861,7.401-8.985,3.706c-1.384-2.408-1.904-6.257-1.896-10.021h11.406
				C160.434,227.287,160.285,229.416,159.867,231.625z"/>
			<path fill="#E8E9E9" d="M230.962,266.244c-2.858,2.185-5.911-1.581-9.647-8.824c-0.105,0.014-0.203,0.009-0.307,0.018
				c1.532,8.94,1.809,16.882-1.038,19.992c-3.345,3.652-8.643-5.894-13.683-18.255c-0.095,4.275-0.825,7.667-2.54,9.396
				c-5.071,5.112-23.052-45.377-28.633-64.207c0,0,22.18-19.269,50.609-5.488C235.983,234.044,235.853,262.506,230.962,266.244z"/>
			<path fill="#957757" d="M241.375,246.158c-4.756-1.75-6.774-9.242-9.715-16.836c0.377,5.726-0.209,10.414-2.355,12.986
				c-4.041,4.841-10.851-6.009-17.405-20.26c-0.031,4.122-0.728,7.476-2.412,9.507c-4.32,5.215-11.911-7.655-18.959-23.399
				c-1.114-0.186-2.236-0.386-3.361-0.594c-14.55-2.684-29.82-7.244-40.86-16.968c-18.616-16.396-25.399-34.562-24.773-47.795
				c0.234-4.946,1.792-13.162,5.792-21.221c6.096-12.285,17.876-24.206,39.381-23.622c35.613,0.966,60.275,41.938,70.092,61.595
				C252.291,190.57,251.228,249.784,241.375,246.158z"/>
			<path fill="#B2B2B2" d="M154.537,143.818c-2.486,17.287-9.919,14.074-12.989,7.047c-2.001-4.58-2.752-11.899-2.74-19.058h16.489
				C155.358,135.568,155.142,139.616,154.537,143.818z"/>
			<path fill="#B2B2B2" d="M179.3,117.821c-2.486,17.287-9.919,14.074-12.989,7.047c-2.001-4.58-2.752-11.899-2.74-19.058h16.489
				C180.12,109.571,179.904,113.619,179.3,117.821z"/>
			<path fill="#B2B2B2" d="M182.551,168.927c-2.486,17.287-9.919,14.074-12.989,7.047c-2.001-4.58-2.752-11.899-2.74-19.058h16.489
				C183.371,160.677,183.155,164.726,182.551,168.927z"/>
			<path fill="#B2B2B2" d="M208.069,152.061c-2.486,17.287-9.919,14.074-12.989,7.047c-2.001-4.58-2.752-11.899-2.74-19.058h16.489
				C208.889,143.811,208.674,147.859,208.069,152.061z"/>
			<path fill="#B2B2B2" d="M210.309,187.271c-2.486,17.287-9.919,14.074-12.989,7.047c-2.001-4.58-2.752-11.899-2.74-19.058h16.489
				C211.129,179.021,210.913,183.07,210.309,187.271z"/>
			<path fill="#B2B2B2" d="M238.067,207.564c-2.486,17.287-9.919,14.074-12.989,7.047c-2.001-4.58-2.752-11.899-2.74-19.058h16.489
				C238.887,199.314,238.672,203.362,238.067,207.564z"/>
			<path fill="#E8E9E9" d="M152.135,119.427c-1.688,7.841-6.733,6.384-8.817,3.196c-1.359-2.078-1.868-5.397-1.86-8.644h11.193
				C152.692,115.685,152.545,117.522,152.135,119.427z"/>
			<path fill="#E8E9E9" d="M142.968,165.907c-1.688,7.841-6.733,6.384-8.817,3.196c-1.359-2.078-1.868-5.397-1.86-8.644h11.193
				C143.524,162.165,143.378,164.001,142.968,165.907z"/>
			<path fill="#E8E9E9" d="M159.77,178.261c-1.688,7.841-6.733,6.384-8.817,3.196c-1.359-2.077-1.868-5.397-1.86-8.644h11.193
				C160.327,174.52,160.18,176.356,159.77,178.261z"/>
			<path fill="#E8E9E9" d="M199.657,126.9c-1.688,7.841-6.733,6.384-8.817,3.196c-1.359-2.077-1.868-5.397-1.86-8.644h11.193
				C200.214,123.158,200.067,124.994,199.657,126.9z"/>
			<path fill="#E8E9E9" d="M176.898,144.802c-1.688,7.841-6.733,6.384-8.817,3.196c-1.359-2.078-1.868-5.397-1.86-8.644h11.193
				C177.454,141.06,177.308,142.896,176.898,144.802z"/>
			<path fill="#E8E9E9" d="M227.415,160.668c-1.688,7.841-6.733,6.384-8.817,3.196c-1.359-2.077-1.868-5.397-1.86-8.644h11.193
				C227.972,156.926,227.826,158.762,227.415,160.668z"/>
			<path fill="#E8E9E9" d="M232.853,181.47c-1.688,7.841-6.733,6.384-8.817,3.196c-1.359-2.077-1.868-5.397-1.86-8.644h11.193
				C233.409,177.728,233.263,179.565,232.853,181.47z"/>
			<path fill="#E8E9E9" d="M187.796,196.473c-1.688,7.841-6.733,6.384-8.817,3.196c-1.359-2.077-1.868-5.397-1.86-8.644h11.193
				C188.353,192.731,188.206,194.567,187.796,196.473z"/>
			<path fill="#E8E9E9" d="M213.567,213.543c-1.688,7.841-6.733,6.384-8.817,3.196c-1.359-2.078-1.868-5.397-1.86-8.644h11.193
				C214.124,209.801,213.977,211.637,213.567,213.543z"/>
			<path fill="#505252" d="M105.036,49.425c12.456-0.162,20.451,9.409,21.648,20.724c1.258,11.89-11.052,21.088-22.303,21.237
				c-10.594,0.14-18.68-8.313-19.232-20.893C84.865,60.059,91.699,49.599,105.036,49.425z"/>
			<path fill="#F9D214" d="M100.675,87.227c-24.88-9.004-6.771-47.054,15.845-30.112C131.285,69.926,118.787,90.924,100.675,87.227z
				"/>
			<path fill="#505252" d="M105.488,59.558c6.477-0.084,10.635,4.893,11.258,10.777c0.654,6.183-5.747,10.966-11.598,11.044
				c-5.51,0.073-9.714-4.323-10.001-10.865C94.999,65.088,98.553,59.648,105.488,59.558z"/>
			<path fill="#505252" d="M167.014,49.396c12.456-0.162,20.451,9.409,21.648,20.724c1.258,11.89-11.052,21.088-22.303,21.237
				c-10.594,0.14-18.68-8.313-19.232-20.893C146.843,60.03,153.677,49.57,167.014,49.396z"/>
			<path fill="#F9D214" d="M162.653,87.198c-24.88-9.003-6.771-47.055,15.845-30.112C193.263,69.897,180.765,90.895,162.653,87.198z
				"/>
			<path fill="#505252" d="M167.466,59.529c6.477-0.084,10.635,4.893,11.258,10.777c0.654,6.183-5.747,10.966-11.598,11.044
				c-5.51,0.073-9.714-4.323-10.001-10.865C156.977,65.059,160.53,59.619,167.466,59.529z"/>
		</g>
		<g id="Layer_1_26_">
		</g>
	</g>
</g>
<g id="Layer_1">
</g>
</svg>
