<?xml version="1.0" encoding="utf-8"?>
<!-- Generator: Adobe Illustrator 24.2.3, SVG Export Plug-In . SVG Version: 6.00 Build 0)  -->
<svg version="1.1" xmlns="http://www.w3.org/2000/svg" xmlns:xlink="http://www.w3.org/1999/xlink" x="0px" y="0px"
	 viewBox="0 0 314.216 314.215" enable-background="new 0 0 314.216 314.215" xml:space="preserve">
<g id="memorygame_x5F_pine_x5F_branch_x5F_manty">
	<path fill="#FFDDC3" d="M259.563,314.215H54.653C24.594,314.215,0,289.622,0,259.563V54.653C0,24.594,24.594,0,54.653,0h204.91
		c30.059,0,54.653,24.594,54.653,54.653v204.91C314.215,289.622,289.622,314.215,259.563,314.215z"/>
	<path fill="#FFFFFF" d="M276.686,74.235C239.539,15.273,161.127,11.167,96.488,37.77C48.123,57.675-6.454,132.761,32.781,221.852
		c39.571,89.853,163.143,87.006,212.596,44.307C307.722,212.328,307.197,122.664,276.686,74.235z"/>
	<g>
		<g>
			<path fill="#23813F" d="M231.134,6.204c-2.667-1.343-3.607,18.426-10.423,36.392c-6.752,17.796-18.306,27.749-17.423,31.833
				c0,0,13.949,1.291,24.473-23.501C234.222,35.707,234.148,7.723,231.134,6.204z"/>
		</g>
		<g>
			<path fill="#23813F" d="M201.769,80.074c2.985,0.039-4.826-18.145-6.565-37.281c-1.722-18.955,4.306-32.964,1.724-36.248
				c0,0-13.106,4.947-11.711,31.844C186.074,54.903,198.395,80.029,201.769,80.074z"/>
		</g>
		<g>
			<path fill="#23813F" d="M268.758,51.796c-0.837-2.866-15.933,9.934-33.718,17.206c-17.618,7.204-32.778,5.547-35.161,8.979
				c0,0,8.572,11.08,33.878,1.861C249.294,74.182,269.704,55.036,268.758,51.796z"/>
		</g>
		<g>
			<path fill="#23813F" d="M268.911,101.72c1.1-2.775-18.674-1.954-37.175-7.145c-18.326-5.143-29.268-15.765-33.257-14.522
				c0,0-0.045,14.009,25.584,22.286C239.8,107.42,267.666,104.856,268.911,101.72z"/>
		</g>
		<g>
			<path fill="#23813F" d="M202.838,82.833c2.02-2.198-16.74-8.505-32.158-19.971c-15.273-11.358-21.691-25.192-25.861-25.458
				c0,0-5.054,13.065,15.919,29.964C173.614,77.742,200.554,85.317,202.838,82.833z"/>
		</g>
		<g>
			<path fill="#23813F" d="M120.863,45.841c2.346,0.39-6.342,13.545-10.403,28.302c-4.023,14.618-1.272,26.45-3.759,28.661
				c0,0-9.577-5.726-4.691-26.616C105.009,63.362,118.211,45.401,120.863,45.841z"/>
		</g>
		<g>
			<path fill="#23813F" d="M102.705,104.864c-1.938-1.378,11.633-9.4,21.746-20.889c10.017-11.38,12.725-23.222,15.93-24.121
				c0,0,6.103,9.342-7.437,25.983C124.63,96.055,104.896,106.421,102.705,104.864z"/>
		</g>
		<g>
			<path fill="#23813F" d="M72.918,55.191c1.886-1.449,5.577,13.878,13.595,26.914c7.943,12.914,18.471,18.974,18.391,22.301
				c0,0-10.721,3.096-22.661-14.728C74.913,78.736,70.787,56.83,72.918,55.191z"/>
		</g>
		<g>
			<path fill="#23813F" d="M48.777,88.013c0.597-2.302,12.927,7.521,27.264,12.879c14.202,5.307,26.232,3.619,28.213,6.294
				c0,0-6.556,9.03-26.928,2.305C64.818,105.362,48.102,90.614,48.777,88.013z"/>
		</g>
		<g>
			<path fill="#23813F" d="M103.596,106.068c-0.266-2.363,14.763,2.399,30.068,2.274c15.161-0.125,25.79-6.004,28.597-4.216
				c0,0-2.891,10.778-24.321,11.786C124.782,116.531,103.897,108.739,103.596,106.068z"/>
		</g>
		<g>
			<path fill="#23813F" d="M261.159,123.211c1.452-2.609-18.261-4.367-35.929-11.92c-17.501-7.483-26.968-19.439-31.085-18.725
				c0,0-1.867,13.884,22.468,25.425C231.554,125.075,259.518,126.159,261.159,123.211z"/>
		</g>
		<g>
			<path fill="#23813F" d="M245.768,143.666c1.452-2.609-18.261-4.367-35.929-11.92c-17.501-7.483-26.968-19.439-31.085-18.725
				c0,0-1.867,13.884,22.468,25.425C216.163,145.531,244.126,146.614,245.768,143.666z"/>
		</g>
		<g>
			<path fill="#23813F" d="M230.405,166.062c1.663-2.48-17.838-5.862-34.82-14.852c-16.822-8.905-25.267-21.603-29.429-21.233
				c0,0-3.01,13.682,20.287,27.196C200.747,165.47,228.525,168.864,230.405,166.062z"/>
		</g>
		<g>
			<path fill="#23813F" d="M178.839,249.006c1.525-2.567-18.131-4.881-35.578-12.931c-17.282-7.974-26.408-20.193-30.543-19.596
				c0,0-2.259,13.825,21.74,26.049C149.193,250.033,177.115,251.906,178.839,249.006z"/>
		</g>
		<g>
			<path fill="#23813F" d="M168.298,265.815c1.846-2.346-17.342-7.198-33.593-17.449c-16.098-10.155-23.557-23.457-27.734-23.403
				c0,0-4.038,13.414,18.167,28.656C138.771,262.977,166.211,268.467,168.298,265.815z"/>
		</g>
		<g>
			<path fill="#23813F" d="M88.091,240.843c-2.347,1.845,15.156,11.084,28.532,24.878c13.25,13.664,17.362,28.349,21.435,29.282
				c0,0,7.087-12.084-10.898-32.132C116.117,250.563,90.744,238.758,88.091,240.843z"/>
		</g>
		<g>
			<path fill="#23813F" d="M123.749,306.788c2.742-1.18-11.801-14.604-21.187-31.371c-9.297-16.609-9.5-31.857-13.196-33.805
				c0,0-9.953,9.858,2.281,33.853C99.159,290.197,120.649,308.122,123.749,306.788z"/>
		</g>
		<g>
			<path fill="#23813F" d="M228.954,180.585c1.525-2.567-18.131-4.881-35.578-12.931c-17.282-7.974-26.408-20.193-30.543-19.596
				c0,0-2.259,13.825,21.74,26.049C199.308,181.613,227.229,183.486,228.954,180.585z"/>
		</g>
		<g>
			<path fill="#23813F" d="M219.094,196.719c1.846-2.346-17.342-7.198-33.593-17.449c-16.098-10.155-23.557-23.457-27.734-23.403
				c0,0-4.038,13.414,18.167,28.656C189.567,193.881,217.007,199.371,219.094,196.719z"/>
		</g>
		<g>
			<path fill="#23813F" d="M141.877,176.205c-2.094,2.128,16.438,9.073,31.456,21.06c14.875,11.874,20.816,25.92,24.974,26.329
				c0,0,5.498-12.885-14.883-30.491C170.909,182.294,144.244,173.801,141.877,176.205z"/>
		</g>
		<g>
			<path fill="#23813F" d="M127.433,196.213c-2.087,2.134,16.468,9.02,31.524,20.958c14.914,11.826,20.9,25.852,25.059,26.248
				c0,0,5.456-12.902-14.982-30.443C156.484,202.208,129.792,193.801,127.433,196.213z"/>
		</g>
		<g>
			<path fill="#23813F" d="M196.681,221.331c0.656-2.913-18.751,0.969-37.833-1.286c-18.902-2.235-31.361-11.029-35.108-9.182
				c0,0,2.13,13.846,28.734,18.043C168.808,231.482,195.939,224.623,196.681,221.331z"/>
		</g>
		<g>
			<path fill="#23813F" d="M104.695,113.572c-0.335-1.893-10.893,5.24-22.785,8.648c-11.78,3.375-21.366,1.252-23.132,3.281
				c0,0,4.709,7.692,21.551,3.566C90.669,126.533,105.074,115.711,104.695,113.572z"/>
		</g>
		<g>
			<path fill="#23813F" d="M154.899,136.468c-0.954-1.712-9.671,6.288-20.969,11.007c-11.191,4.674-21.855,3.96-23.046,6.074
				c0,0,7.365,6.518,23.588,0.485C144.433,150.328,155.977,138.402,154.899,136.468z"/>
		</g>
		<g>
			<path fill="#23813F" d="M160.941,147.929c-0.704-1.77-10.752,5.009-22.91,8.311c-12.044,3.27-22.728,1.37-24.256,3.287
				c0,0,6.456,7.162,23.801,3.142C148.225,160.2,161.736,149.93,160.941,147.929z"/>
		</g>
		<g>
			<path fill="#23813F" d="M103.825,128.71c0.06,1.874,11.247-3.54,23.202-5.171c11.843-1.615,20.8,1.771,22.788,0.059
				c0,0-3.473-8.082-20.307-6.448C119.173,118.154,103.759,126.592,103.825,128.71z"/>
		</g>
		<g>
			<path fill="#23813F" d="M107.885,126.128c-0.409-2.465-14.231,6.661-29.735,10.926c-15.358,4.224-27.788,1.332-30.111,3.945
				c0,0,6.015,10.063,27.962,4.933C89.476,142.781,108.347,128.914,107.885,126.128z"/>
		</g>
		<g>
			<path fill="#23813F" d="M141.919,126.303c-0.588-2.001-8.229,5.733-17.589,9.541c-9.272,3.771-17.612,1.678-18.753,3.858
				c0,0,5.182,8.075,18.552,3.426C132.338,140.271,142.583,128.564,141.919,126.303z"/>
		</g>
		<g>
			<path fill="#23813F" d="M67.721,168.984c0.966,1.951,10.179-9.158,22.025-16.642c11.735-7.412,22.832-8.15,24.107-10.917
				c0,0-7.564-6.866-24.564,2.97C78.852,150.435,66.63,166.778,67.721,168.984z"/>
		</g>
		<g>
			<path fill="#23813F" d="M72.378,186.732c1.397,2.332,8.93-10.244,19.943-18.446c10.909-8.124,22.448-8.459,23.251-11.64
				c0,0-9.303-8.406-25.282,2.308C80.479,165.532,70.799,184.096,72.378,186.732z"/>
		</g>
		<g>
			<path fill="#23813F" d="M193.765,99.537c1.077-1.592-11.468-3.823-22.376-9.657c-10.805-5.779-16.208-13.978-18.888-13.751
				c0,0-1.975,8.8,12.986,17.565C174.673,99.075,192.547,101.336,193.765,99.537z"/>
		</g>
		<g>
			<path fill="#23813F" d="M184.674,110.215c1.422-2.054-14.853-5.128-28.951-12.861c-13.965-7.661-20.874-18.391-24.36-18.133
				c0,0-2.689,11.411,16.637,23.01C159.865,109.35,183.066,112.536,184.674,110.215z"/>
		</g>
		<g>
			<path fill="#23813F" d="M176.441,123.79c1.274-1.766-12.854-4.718-25.006-11.694c-12.037-6.91-17.876-16.376-20.918-16.21
				c0,0-2.535,9.896,14.106,20.328C154.841,122.618,175.001,125.785,176.441,123.79z"/>
		</g>
		<g>
			<path fill="#23813F" d="M14.886,214.863c-1.777,2.399,17.543,6.694,34.084,16.47c16.385,9.685,24.225,22.766,28.4,22.591
				c0,0,3.649-13.525-18.988-28.119C44.483,216.846,16.895,212.152,14.886,214.863z"/>
		</g>
		<g>
			<path fill="#23813F" d="M95.782,237.506c2.293-1.912-15.47-10.641-29.24-24.042c-13.64-13.275-18.175-27.836-22.272-28.65
				c0,0-6.735,12.284,11.823,31.803C67.487,228.6,93.19,239.666,95.782,237.506z"/>
		</g>
		<path fill="#6A4019" d="M218.624,57.184c-44.19,44.575-56.638,89.011-87.826,131.554c-1.045-11.754-7.67-23.654-13.483-35.135
			c-10.859-19.431-11.941-40.193-11.915-58.861c-5.56,16.424-2.314,35.255,2.526,53.395c6.379,18.767,17.951,37.904,11.617,55.535
			c-17.418,21.945-39.778,40.699-64.352,57.214c-3.577,2.411,1.612,8.012,5.543,5.81C153.217,214.883,167.8,126.914,218.624,57.184z
			"/>
		<g>
			<g>
				<path fill="#5B3C09" d="M209.467,180.688c0.148-3.538,0.878-7.33-3.058-9.341l11.154-0.634c3.726,2.066,4.003-2.819,5.606-4.944
					c3.035-7.919-5.114-8.239-9.999-11.003c4.462-1.192,9.366-0.965,13.998-0.616c1,0.538,1.733,0.337,2.464-0.594
					c6.056-7.53,9.564-8.758-2.264-11.917c0.121-0.791,16.042-2.87,16.294-6.524c0,0-0.001,0-0.001,0
					c0.199-1.417-9.458-3.802-13.424-4.951c0.007-0.077,0.014-0.153,0.021-0.23c4.733-0.25,9.331-1.253,13.933-2.227
					c4.033-0.853,4.292-0.906,3.616-4.964c-0.828-4.968-3.408-6.31-6.238-8.552c0,0-6.425,1.35-8.898,1.452
					c0.789-2.176,2.267-4.412,2.71-6.578c-0.319-1.295-3.716-2.125-4.971-2.638c-1.29-0.239-10.806,7.134-15.056,8.946
					c3.423-3.045,4.571-8.695,4.331-11.625c-0.314-1.667-5.649-5.014-7.587-4.902l0,0c-3.682,0.934-6.447,4.305-10.197,5.421
					c0.916-4.176,3.935-11.525-0.922-13.176c-9.464-3.217-7.963,1.51-11.044,9.67c0,0-2.444,6.937-4.799,9.411
					c0.866-4.99,5.372-18.77,1.929-19.855c-3.363-1.005-7.761-1.345-8.161,1.09c-0.693,4.22-22.555,28.974-18.405,51.945
					c4.932,27.296,39.631,36.771,44.734,39.837C206.981,184.239,209.352,182.817,209.467,180.688z"/>
				<path fill="#7E6F48" d="M212.095,98.821c0.008,2.601-0.87,4.473-2.901,6.505c-3.664,3.667-6.427,5.993-10.223,7.915
					c1.223-2.92,2.933-5.71,2.929-8.972C201.901,104.268,208.386,99.765,212.095,98.821z"/>
				<path fill="#7E6F48" d="M218.855,138.851c3.448-0.249,6.849-0.884,10.339-0.788c4.977,0.191,10.383,0.221,14.467-2.948
					c-0.252,3.654-0.603,4.439-4.123,4.907l-12.171,1.617C227.368,141.639,218.818,139.207,218.855,138.851z"/>
				<path fill="#7E6F48" d="M213.169,154.766l-5.732-1.624c-1.115-0.392,0.119-0.968,0.537-1.305
					c5.966-3.312,15.192-1.205,20.473,2.577C223.874,154.224,213.169,154.766,213.169,154.766z"/>
				<path fill="#7E6F48" d="M206.408,171.346c-0.696-0.894-6.53-3.26-3.797-4.032c5.12-0.786,12.629,0.311,16.764,3.885
					C215.553,171.923,206.408,171.346,206.408,171.346z"/>
				<path fill="#7E6F48" d="M230.231,106.433c-3.437,5.198-10.714,13.452-17.838,12.678c0.698-1.297,2.066-2.915,3.074-3.84
					C215.467,115.27,224.111,108.163,230.231,106.433z"/>
				<path fill="#7E6F48" d="M241.128,114.652c-2.474,2.512-5.261,4.09-9.652,3.504c-0.004-1.1,0.628-2.096,1.379-3.061l8.085-0.838
					C241.158,114.234,241.281,114.496,241.128,114.652z"/>
				<g>
					<polygon fill="#7E6F48" points="174.962,169.562 174.965,169.564 174.965,169.561 					"/>
				</g>
			</g>
			<g>
				<path fill="#7E6F48" d="M168.545,129.401c5.047,0.049,5.983-2.383,6.803-6.188c0.494-2.293,1.531-5.078-0.823-7.026
					c-1.796-1.29-4.363-3.713-6.943-5.252c-2.686,5.193-5.161,11.044-6.52,17.123C162.622,129.098,165,129.627,168.545,129.401z"/>
				<path fill="#7E6F48" d="M171.471,149.85c4.282-2.672,3.763-5.226,2.408-8.875c-0.816-2.199-1.44-5.104-4.472-5.481
					c-2.374-0.131-6.202-0.885-9.345-0.659c-0.189,2.839-0.074,5.692,0.437,8.518c0.608,3.366,1.67,6.459,3.072,9.305
					C165.597,153.013,168.145,152.282,171.471,149.85z"/>
				<path fill="#7E6F48" d="M182.195,159.534c-4.93-3.837-10.689-10.022-15.312-1.396c2.377,3.292,5.208,6.181,8.245,8.715
					C179.082,165.668,185.713,164.12,182.195,159.534z"/>
			</g>
			<path fill="#7E6F48" d="M181.059,142.023c-10.296-3.746-4.217-12.124-0.639-18.975c5.148-5.911,7.86,4.474,9.767,8.475
				c1.051,2.641-0.707,4.929-1.888,6.935C186.339,141.787,184.781,143.775,181.059,142.023z"/>
			<path fill="#7E6F48" d="M193.515,155.561c-7.592,8.007-11.152,0.115-14.706-5.103c-2.116-6.329,7.022-5.63,10.94-6.126
				c2.491-0.142,3.418,2.1,4.397,3.746C195.77,150.811,196.562,152.786,193.515,155.561z"/>
			<path fill="#7E6F48" d="M206.368,130.638c5.28,11.721-3.517,11.221-9.724,12.091c-6.815-1.141-3.165-9.927-2.37-14.104
				c0.673-2.566,3.144-2.34,5.056-2.472C202.503,125.935,204.673,126.159,206.368,130.638z"/>
			<path fill="#7E6F48" d="M173.384,110.968c-4.031-6.368,1.792-7.404,5.843-8.883c4.545-0.341,2.552,5.593,2.224,8.271
				c-0.323,1.673-1.963,1.912-3.217,2.284C176.152,113.257,174.712,113.45,173.384,110.968z"/>
			<path fill="#7E6F48" d="M191.045,173.785c-6.941-3.819-1.765-8.799,1.477-13.043c4.263-3.408,5.134,4.019,6.084,6.986
				c0.478,1.933-1.005,3.281-2.049,4.507C194.824,174.27,193.514,175.438,191.045,173.785z"/>
			<path fill="#7E6F48" d="M193.63,114.543c3.89,4.058,3.883,8.386,0.89,8.523c-0.91,0.518-1.903,0.889-4.176-1.176
				C182.489,115.135,186.65,107.088,193.63,114.543z"/>
			<path fill="#7E6F48" d="M217.407,129.567c0.649,5.584-3.018,9.967-4.439,7.33c-1.014-1.881,0.324-3.276-1.269-5.9
				C206.217,121.966,216.348,119.409,217.407,129.567z"/>
			<path fill="#7E6F48" d="M203.87,147.202c4.229,2.528,0.546,6.67-1.836,10.129c-2.986,2.877-3.047-2.789-3.46-5.017
				c-0.179-1.46,0.871-2.586,1.629-3.592C201.46,147.053,202.386,146.076,203.87,147.202z"/>
		</g>
		<g>
			<g>
				<path fill="#5B3C09" d="M119.945,160.685c-2.735,1.525-5.931,2.73-5.626,6.628l-5.639-8.113
					c-0.167-3.764-3.977-1.713-6.321-1.938c-7.373,1.377-3.843,7.667-3.666,12.628c-2.963-2.812-5.061-6.613-6.941-10.265
					c-0.057-1.003-0.548-1.462-1.588-1.582c-8.478-1.08-11.027-3.156-7.935,7.221c-0.652,0.275-9.586-10.763-12.457-9.262
					c0,0,0,0.001,0.001,0.001c-1.16,0.506,1.511,8.888,2.48,12.409c-0.061,0.03-0.122,0.06-0.183,0.09
					c-2.379-3.452-5.263-6.453-8.126-9.471c-2.509-2.645-2.669-2.816-5.414-0.428c-3.361,2.923-3.179,5.488-3.559,8.659
					c0,0,3.991,4.218,5.212,6.035c-2.005,0.412-4.374,0.333-6.212,1.002c-0.828,0.84,0.118,3.784,0.313,4.968
					c0.417,1.083,10.378,4.844,13.71,7.208c-3.879-1.171-8.668,0.578-10.766,2.115c-1.112,1.008-1.165,6.578-0.184,7.986l0,0
					c2.408,2.343,6.228,2.867,8.805,5.177c-3.572,1.242-10.508,2.367-9.505,6.792c1.955,8.622,4.823,5.303,12.399,3.849
					c0,0,6.359-1.368,9.314-0.738c-4.162,1.656-16.633,4.637-15.858,7.734c0.799,3,2.577,6.472,4.598,5.647
					c3.501-1.43,32.276,3.593,47.668-10.165c18.291-16.348,9.376-46.886,9.325-52.151
					C123.772,160.914,121.603,159.785,119.945,160.685z"/>
				<path fill="#7E6F48" d="M57.025,196.587c1.957-1.21,3.774-1.414,6.245-0.824c4.459,1.065,7.491,2.071,10.696,4.042
					c-2.767,0.429-5.66,0.432-8.118,1.944C65.848,201.75,59.453,198.945,57.025,196.587z"/>
				<path fill="#7E6F48" d="M84.068,172.968c-1.783-2.484-3.836-4.753-5.379-7.428c-2.159-3.839-4.638-7.928-8.917-9.54
					c2.871-1.501,3.625-1.6,5.606,0.837l6.851,8.425C82.23,165.262,84.353,172.832,84.068,172.968z"/>
				<path fill="#7E6F48" d="M98.694,169.889l1.428,5.072c0.22,1.022-0.785,0.358-1.232,0.199
					c-5.257-2.964-7.938-10.893-7.532-16.624C93.332,162.072,98.694,169.889,98.694,169.889z"/>
				<path fill="#7E6F48" d="M114.32,167.313c-0.352,0.938,0.565,6.43-1.282,4.727c-2.962-3.496-5.61-9.662-4.829-14.433
					C110.523,160.153,114.32,167.313,114.32,167.313z"/>
				<path fill="#7E6F48" d="M54.37,179.396c5.508,0.185,15.097,1.851,17.81,7.578c-1.3,0.074-3.153-0.208-4.317-0.54
					C67.862,186.434,58.506,183.207,54.37,179.396z"/>
				<path fill="#7E6F48" d="M55.522,167.379c3.038,0.702,5.517,2.073,7.107,5.654c-0.827,0.512-1.87,0.497-2.946,0.377l-4.373-5.706
					C55.193,167.55,55.334,167.335,55.522,167.379z"/>
				<g>
					<polygon fill="#7E6F48" points="127.526,191.84 127.527,191.836 127.524,191.838 					"/>
				</g>
			</g>
			<g>
				<path fill="#7E6F48" d="M100.226,215.261c-2.298-3.827-4.565-3.407-7.812-2.264c-1.957,0.689-4.535,1.196-4.915,3.871
					c-0.141,1.951-0.779,5.006-0.746,7.664c5.157-0.379,10.712-1.22,15.922-3.01C102.738,219.865,102.036,217.828,100.226,215.261z"
					/>
				<path fill="#7E6F48" d="M114.285,203.592c-3.996-1.991-5.68-0.418-7.804,2.292c-1.28,1.633-3.181,3.447-2.062,5.907
					c1,1.85,2.203,5.084,3.828,7.349c2.227-1.171,4.324-2.578,6.218-4.271c2.255-2.016,4.096-4.248,5.591-6.621
					C119.387,206.556,117.656,204.974,114.285,203.592z"/>
				<path fill="#7E6F48" d="M116.621,191.028c-0.611,5.491-2.608,12.694,6.033,12.187c1.381-3.315,2.249-6.785,2.754-10.247
					C122.685,190.536,118.449,186.255,116.621,191.028z"/>
			</g>
			<path fill="#7E6F48" d="M103.948,199.988c1.941,9.493-7.186,8.788-14.006,9.262c-6.837-1.145-0.265-7.994,1.868-11.284
				c1.504-2.014,4.042-1.748,6.101-1.786C101.328,196.118,103.547,196.372,103.948,199.988z"/>
			<path fill="#7E6F48" d="M108.388,184.335c9.548,2.017,5.247,8.352,2.959,13.446c-3.791,4.523-7.493-2.687-9.679-5.411
				c-1.26-1.811,0.001-3.548,0.789-5.047C103.765,184.833,104.887,183.323,108.388,184.335z"/>
			<path fill="#7E6F48" d="M83.656,186.181c6.391-9.404,10.085-2.542,13.613,1.734c2.293,5.664-6.018,6.979-9.534,8.312
				c-2.245,0.68-3.219-1.287-4.203-2.667C81.9,191.27,81.065,189.531,83.656,186.181z"/>
			<path fill="#7E6F48" d="M84.093,220.143c-2.935,5.985-6.41,2.076-9.399-0.293c-2.36-3.268,3.035-4.512,5.205-5.503
				c1.41-0.531,2.349,0.595,3.21,1.368C84.537,216.997,85.35,217.994,84.093,220.143z"/>
			<path fill="#7E6F48" d="M123.267,177.763c0.333,6.999-5.816,5.402-10.514,4.922c-4.542-1.636,0.653-5.73,2.45-7.818
				c1.236-1.255,2.938-0.761,4.345-0.541C121.884,174.691,123.37,175.138,123.267,177.763z"/>
			<path fill="#7E6F48" d="M77.419,203.229c1.259-4.81,4.524-6.807,6.012-4.615c0.812,0.446,1.55,1.023,1.046,3.691
				C83.021,211.352,75.03,211.94,77.419,203.229z"/>
			<path fill="#7E6F48" d="M77.741,178.356c3.909-3.073,8.909-2.338,7.579-0.047c-0.949,1.635-2.619,1.271-3.86,3.686
				C77.19,190.307,70.575,183.855,77.741,178.356z"/>
			<path fill="#7E6F48" d="M97.296,180.398c-0.051-4.357,4.774-3.498,8.484-3.303c3.55,0.919-0.692,3.587-2.18,4.93
				c-1.018,0.81-2.352,0.54-3.461,0.434C98.299,182.284,97.135,182.038,97.296,180.398z"/>
		</g>
	</g>
</g>
<g id="Layer_1">
</g>
</svg>
