<?xml version="1.0" encoding="utf-8"?>
<!-- Generator: Adobe Illustrator 24.2.3, SVG Export Plug-In . SVG Version: 6.00 Build 0)  -->
<svg version="1.1" xmlns="http://www.w3.org/2000/svg" xmlns:xlink="http://www.w3.org/1999/xlink" x="0px" y="0px"
	 viewBox="0 0 314.216 314.215" enable-background="new 0 0 314.216 314.215" xml:space="preserve">
<g id="memorygame_x5F_wood_x5F_grouse_x5F_metso">
	<path fill="#FFDDC3" d="M259.563,314.215H54.653C24.594,314.215,0,289.622,0,259.563V54.653C0,24.594,24.594,0,54.653,0h204.91
		c30.059,0,54.653,24.594,54.653,54.653v204.91C314.215,289.622,289.622,314.215,259.563,314.215z"/>
	<path fill="#FFFFFF" d="M276.686,74.235C239.539,15.273,161.127,11.167,96.488,37.77C48.123,57.675-6.454,132.761,32.781,221.852
		c39.571,89.853,163.143,87.006,212.596,44.307C307.722,212.328,307.197,122.664,276.686,74.235z"/>
	<g>
		<g id="muistipeli_x5F_metso_1_">
			<path fill="#7C7E7E" d="M133.129,226.439l-7.632,42.582c0,0-39.351,5.415-39.351,8.303c0,1.444,29.964-2.527,29.964-2.527
				l-20.654,11.242c-0.739,0.402-0.283,1.528,0.528,1.302l25.541-7.128l-13.678,12.682c-0.269,0.249,0.024,0.681,0.355,0.524
				l27.763-13.206l19.235,0.301c0.871,0.014,1.137-1.175,0.343-1.534l-22.828-10.319l1.433-6.036l5.614,0.258
				c0.357,0.016,0.545-0.416,0.291-0.666l-4.986-3.195l6.968-29.624L133.129,226.439z"/>
			<path fill="#7C7E7E" d="M174.285,243.406l-7.632,42.582c0,0-39.351,5.415-39.351,8.303c0,1.444,29.964-2.527,29.964-2.527
				l-20.654,11.242c-0.739,0.402-0.283,1.528,0.528,1.302l25.541-7.128l-13.678,12.682c-0.269,0.249,0.024,0.681,0.355,0.524
				l27.763-13.206l19.235,0.301c0.871,0.014,1.137-1.175,0.343-1.534l-22.828-10.319l1.715-7.225l7.373,0.909
				c0.787,0.097,1.133-0.961,0.441-1.348l-5.651-3.161l5.441-28.437L174.285,243.406z"/>
			<path fill="#4B4B4A" d="M292.412,134.849c5.735-2.925,9.366-9.533,8.761-15.944c-0.606-6.412-5.41-12.222-11.594-14.022
				c6.671-2.873,10.399-11.228,8.082-18.112c-2.317-6.884-10.338-11.284-17.388-9.539c5.02-3.743,5.623-11.899,3.32-17.342
				c-2.303-5.443-12.833-8.687-16.879-4.379c4.155-6.509,2.1-16.189-4.342-20.448c-5.987-3.958-14.792-2.591-19.508,2.737
				c3.336-5.247-0.3-13.586-6.502-15.574c-6.733-2.159-14.228,1.616-18.557,7.206c-4.329,5.59-6.191,12.648-7.952,19.496
				c-6.138,23.868-12.275,47.736-18.413,71.604c-12.094,7.639-34.374,17.883-51.718,16.644c-4.578-0.327-11.152-4.66-18.64-11.097
				l-69.817,41.347c1.906,7.916,4.605,15.333,8.318,21.822c14.693,25.686,35.348,41.497,53.909,46.35
				c-0.784,6.028,0.648,11.159,5.461,10.506c0.551-0.075,1.067-0.239,1.557-0.464c1.204,4.589,3.748,7.689,7.554,6.328
				c1.942-0.694,3.15-2.393,3.866-4.623c1.37,3.397,3.678,5.41,6.879,4.265c2.475-0.885,3.76-3.399,4.347-6.573
				c0.373,0.415,0.816,0.764,1.337,1.037c3.612,1.886,6.823-1.1,8.903-5.739c0.288,8.939,3.303,16.685,9.098,14.624
				c0.604-0.215,1.145-0.536,1.64-0.931c2.576,5.615,6.277,9.033,10.228,6.466c2.016-1.31,2.935-3.746,3.157-6.757
				c2.45,4.052,5.595,6.13,8.918,3.971c2.57-1.67,3.36-5.168,3.186-9.359c0.532,0.45,1.125,0.802,1.788,1.037
				c8.075,2.873,10.761-13.292,8.167-25.204c16.712-11.986,25.397-29.252,29.878-44.681c18.864,5.006,35.839,6.104,51.014,4.264
				c14.024-1.7,13.11-21.036,6.098-21.461C299.351,157.872,302.259,144.128,292.412,134.849z"/>
			<path opacity="0.5" fill="#3F9F7B" d="M126.036,130.122c-0.345-0.265-0.697-0.543-1.047-0.82l-73.717,38.123
				c1.906,7.915,4.6,15.335,8.312,21.824c5.66,9.895,12.208,18.317,19.177,25.22c23.335-1.106,44.378-20.098,51.474-36.668
				C136.845,162.363,133.564,145.025,126.036,130.122z"/>
			<path fill="#4B4B4A" d="M108.011,61.321c-6.065-10.433-12.349-14.604-21.585-20.188C74.97,34.207,59.824,31.63,48.39,38.618
				c-6.411,3.918-13.108,13.916-14.788,22.671c-0.684,3.564-0.589,7.099-0.039,10.609c-7.564-1.408-16.689-1.633-16.474,2.004
				c0.357,1.064,0.806,1.507,1.679,1.766c5.199,1.54,10.143,1.596,15.456,2.681c-3.603,0.291-7.165,1.092-10.546,2.372
				c-1.774,0.671-3.572,1.532-4.713,3.046c-0.25,0.332-0.473,0.721-0.449,1.136c0.06,1.033,1.418,1.351,2.453,1.357
				c4.422,0.026,8.846-0.35,13.2-1.121c-2.85,1.219-5.4,3.13-7.371,5.522c-0.461,0.559-0.904,1.175-1.022,1.89
				c-0.118,0.715,0.187,1.548,0.859,1.819c0.536,0.216,1.142,0.033,1.687-0.16c2.847-1.008,5.598-2.288,8.204-3.815
				c-1.224,1.891-1.925,4.117-2.006,6.368c-0.015,0.42,0,0.869,0.239,1.214c0.677,0.974,2.192,0.252,3.09-0.523
				c0.819-0.707,1.771-1.719,2.573-2.747c3.584,12.092,6.156,35.356,6.156,35.356c0.301,16.94,1.181,56.521,8.107,54.275
				c1.989-0.645,2.915-3.246,3.206-6.759c0.092-0.001,0.182,0.012,0.274,0.007c2.1,4.897,4.855,7.953,7.875,6.763
				c3.323-1.31,3.597-7.483,2.733-14.576c0.195-0.251,0.389-0.501,0.58-0.757c1.595,4.932,3.974,8.22,6.881,7.277
				c3.336-1.082,3.684-7.658,3.053-14.827c1.991,3.118,4.251,4.8,6.457,3.713c2.857-1.408,2.623-6.949,1.318-13.202
				c1.881,4.606,4.395,7.552,7.162,6.461c2.303-0.908,2.946-4.462,2.753-8.972c1.566,3.949,3.71,6.394,6.265,5.565
				c3.026-0.982,3.593-6.484,3.202-12.847c1.592,5.294,4.05,8.922,7.085,7.937c3.355-1.088,3.688-7.734,3.042-14.951
				c3.373,6.463,7.491,10.816,10.861,8.9C133.87,140.408,119.176,76.017,108.011,61.321z"/>
			<path fill="#F9D214" d="M37.392,50.092c0,0-21.257-7.52-23.555,7.372s4.446,4.718,4.446,4.718s5.786,13.749,17.895,9.817
				C41.104,70.399,37.392,50.092,37.392,50.092z"/>
			<path fill="#7F4F1D" d="M18.463,62.115c5.659-8.305,15.953,8.255,19.251-2.231C34.074,71.454,24.427,55.346,18.463,62.115z"/>
			<path fill="#4B4B4A" d="M69.494,39.283c0.199,4.524-6.435,9.31-15.737,11.658c-9.878,2.494-21.177,2.062-20.719-2.38
				c0.436-4.228,6.93-9.384,17.865-12.145C62.612,33.458,69.176,35.57,69.494,39.283z"/>
			<path fill="#C30D26" d="M83.575,51.006c-5.456-13.65-21.767-11.114-28.505-5.565c-4.392,3.617-6.039,9.396-6.014,15.049h36.186
				C85.374,57.521,84.901,54.324,83.575,51.006z"/>
			<path fill="#FDFDFD" d="M65.044,68.12c-14.746-1.429-11.462-22.675,2.745-19.81C79.085,50.347,76.286,69.182,65.044,68.12z"/>
			<path fill="#4B4B4A" d="M69.491,57.952c-0.7,3.732-3.472,5.912-6.629,5.42c-3.352-0.523-6.636-3.792-5.755-7.287
				c0.838-3.327,3.632-5.844,7.343-5.267C68.424,51.436,70.019,54.849,69.491,57.952z"/>
			<path fill="#4A402F" d="M236.681,223.182c-4.357,0.086-8.318-5.283-13.05-10.445c2.094,4.468,3.092,8.407,2.177,11.139
				c-1.722,5.142-10.572-1.418-20.281-10.781c1.265,3.311,1.756,6.216,1.044,8.37c-1.829,5.529-11.936-2.404-22.508-12.81
				c-0.951,0.199-1.912,0.39-2.878,0.576c-12.494,2.404-26.152,3.53-38.038-0.804c-20.042-7.307-31.159-19.735-34.8-30.53
				c-1.361-4.035-2.683-11.104-2.002-18.81c1.038-11.748,6.743-24.982,24.151-31.245c28.828-10.371,61.403,14.729,75.418,27.402
				C228.028,175.242,245.707,223.003,236.681,223.182z"/>
		</g>
		<g id="Layer_1_12_">
		</g>
	</g>
</g>
<g id="Layer_1">
</g>
</svg>
