<?xml version="1.0" encoding="utf-8"?>
<!-- Generator: Adobe Illustrator 24.2.3, SVG Export Plug-In . SVG Version: 6.00 Build 0)  -->
<svg version="1.1" xmlns="http://www.w3.org/2000/svg" xmlns:xlink="http://www.w3.org/1999/xlink" x="0px" y="0px"
	 viewBox="0 0 314.216 314.215" enable-background="new 0 0 314.216 314.215" xml:space="preserve">
<g id="memorygame_x5F_oak_x5F_tammi">
	<g id="Layer_1_32_">
	</g>
	<g id="Layer_1_1_">
	</g>
	<path fill="#FFDDC3" d="M259.563,314.215H54.653C24.594,314.215,0,289.622,0,259.563V54.653C0,24.594,24.594,0,54.653,0h204.91
		c30.059,0,54.653,24.594,54.653,54.653v204.91C314.215,289.622,289.622,314.215,259.563,314.215z"/>
	<path fill="#FFFFFF" d="M276.686,74.235C239.539,15.273,161.127,11.167,96.488,37.77C48.123,57.675-6.454,132.761,32.781,221.852
		c39.571,89.853,163.143,87.006,212.596,44.307C307.722,212.328,307.197,122.664,276.686,74.235z"/>
	<path fill="#5AA043" d="M239.795,252.037c0,0-103.097,45.768-114.734,5.543c0,0-9.737-13.698,27.858-26.035
		c0,0-80.901,5.24-86.522-20.187c0,0-18.15-28.694,52.751-33.26c0,0-115.76-9.357-100.645-55.599c0,0-1.307-25.921,64.491-12.253
		c0,0-65.462-57.573-40.01-76.57s74.881,41.987,74.881,41.987s6.237-51.748,36.575-48.203s20.376,90.885,20.376,90.885
		s19.685-52.048,47.203-38.516s6.747,77.412,6.747,77.412s15.366-45.969,37.8-29.78
		C297.057,149.465,239.795,252.037,239.795,252.037z"/>
	<path fill="#69B802" d="M223.386,229.266c3.742-6.118,7.46-13.027,11.054-20.542l20.753-12.542l-1.351-2.278l-17.381,10.504
		c4.392-9.577,8.607-20.072,12.532-31.206l16.1-15.297l-1.817-1.922l-12.41,11.789c3.954-11.715,6.112-19.799,6.133-19.879
		l0.064-0.245l-2.572-0.647l-0.063,0.239c-0.039,0.147-4.037,15.112-11.223,34.083l-8.626-14.272l-2.277,1.402l9.69,16.03
		c-3.782,9.731-7.766,18.812-11.847,27.002l-9.044-14.922l-2.275,1.404l9.898,16.329c-2.368,4.609-4.801,8.977-7.234,12.99
		l-18.662-19.452l3.247-33.069l-2.646-0.225l-3.022,30.771l-16.605-17.309c2.751-4.877,6.787-14.565,12-28.804
		c8.753-3.557,23.032-9.221,24.41-9.409l-0.033-0.245l0.212-0.005l-0.055-2.415l-0.253,0.009c-1.455,0.053-14.834,5.382-23.06,8.709
		c2.76-7.646,5.804-16.416,9.051-26.081c4.556-3.831,15.321-12.983,18.236-16.36c0.367-0.425,0.597-0.744,0.703-0.975l0.104-0.228
		l-2.396-1.093l-0.11,0.208c-0.589,1.111-7.805,7.536-14.918,13.609c3.891-11.695,6.714-20.588,7.03-21.585l0.076-0.241
		l-2.535-0.774l-0.075,0.236c-0.058,0.185-5.871,18.506-12.745,38.408l-10.173-18.505l-2.33,1.31l11.322,20.596
		c-3.041,8.726-5.812,16.358-8.239,22.697l-12.021-25.081l-2.397,1.18l13.093,27.319c-2.772,7.061-5.062,12.279-6.812,15.524
		l-17.096-17.82l-1.562-25.574l-2.654,0.201l1.361,22.284l-21.086-23.42c0.649-1.831,2.242-6.528,4.088-13.449l22.274-13.44
		l-1.349-2.278l-19.98,12.055c2.018-8.082,3.646-16.366,4.843-24.638l19.157-19.463L168,78.608l-16.682,16.949
		c2.05-16.234,2.363-31.947,0.928-46.714l-0.024-0.252l-2.645,0.295l0.024,0.246c0.811,8.349,1.058,17.093,0.733,26.001
		l-12.26-14.599l-2.041,1.729l14.119,16.812c-0.529,9.669-1.717,19.6-3.533,29.527l-17.7-23.437l-2.125,1.623l19.151,25.359
		c-2.659,13.43-5.77,23.294-7.121,27.285l-16.391-18.206l-3.869-33.667l-2.641,0.343l3.438,29.914L83.217,77.669l-3.086-27.111
		l-2.641,0.339l2.66,23.366L55.987,47.425l-1.983,1.796l18.289,20.312c-8.736-3.384-18.783-7.37-19.689-7.987l-0.14,0.205
		l-0.151-0.13l-1.585,1.837l0.189,0.164c1.086,0.936,16.307,6.845,25.327,10.3l16.793,18.652l-21.543-8.909l-1.042,2.461
		l26.735,11.056l20.384,22.64l-25.993-6.589l-0.685,2.58l29.892,7.579l20.374,22.629c-7.447,0.76-17.505,0.486-29.911-0.818
		l-25.034-21.605l-1.749,2.026l22.071,19.048c-9.157-1.098-19.474-2.706-30.679-4.782l-24.23-22.667l-1.825,1.956l21.145,19.783
		c-18.319-3.536-32.373-7.02-32.511-7.055l-0.24-0.06l-0.613,2.339l-0.042,0.25l0.246,0.061c1.932,0.478,19.484,4.779,40.583,8.586
		c12.808,2.312,24.308,3.98,34.195,4.961l-24.331,16.232l1.454,2.213l27.07-18.06c10.917,0.908,19.86,0.913,26.582,0.015
		l18.358,20.389l2.171,2.485l-37.583-5.674l-0.244-0.037l-0.432,2.633l40.973,6.186l14.254,16.316
		c-4.295,2.013-8.823,3.893-13.466,5.588l-25.559-13.667l-1.275,2.352l23.421,12.523c-7.012,2.399-14.425,4.447-22.043,6.09
		l-20.179-12.615l-1.429,2.263l17.809,11.134c-5.782,1.137-11.736,2.06-17.709,2.745l-23.404-13.783l-1.37,2.299l20.298,11.954
		c-15.879,1.505-26.617,0.852-26.723,0.844l-0.247-0.017l-0.213,2.657l0.253,0.017c0.051,0.004,5.198,0.323,13.61,0.03
		L90.21,222.356l1.767,1.97l14.787-13.356c11.062-0.595,22.08-1.986,32.763-4.136l-16.19,15.413l1.82,1.921l19.316-18.391
		c7.03-1.587,13.894-3.523,20.412-5.756l-8.768,20.796l2.449,1.007l9.697-22.999c4.955-1.809,9.793-3.831,14.384-6.011l23.44,26.832
		l-23.811-1.63l-0.218,2.656l26.512,1.816l10.846,12.415c-4.326,2.219-9.66,4.445-15.864,6.62l-22.987-12.911l-1.322,2.325
		l20.909,11.745c-7.702,2.553-16.628,5.046-26.542,7.413l-16.635-8.149l-1.194,2.393l13.713,6.719
		c-14.299,3.273-25.246,5.076-25.356,5.094l-0.243,0.04l0.39,2.63l0.25-0.042c0.251-0.041,25.059-4.152,48.555-11.114l-14.334,14.94
		l1.906,1.834l17.625-18.371c9.326-2.969,17.036-6.035,22.921-9.115l46.88,53.661l7.751-6.677L223.386,229.266z"/>
	<g id="Layer_1_2_">
	</g>
</g>
<g id="Layer_1">
</g>
</svg>
