<?xml version="1.0" encoding="utf-8"?>
<!-- Generator: Adobe Illustrator 24.2.3, SVG Export Plug-In . SVG Version: 6.00 Build 0)  -->
<svg version="1.1" xmlns="http://www.w3.org/2000/svg" xmlns:xlink="http://www.w3.org/1999/xlink" x="0px" y="0px"
	 viewBox="0 0 314.216 314.215" enable-background="new 0 0 314.216 314.215" xml:space="preserve">
<g id="memorygame_x5F_eagle_x5F_owl_x5F_huuhkaja">
	<path fill="#FFDDC3" d="M259.563,314.215H54.653C24.594,314.215,0,289.622,0,259.563V54.653C0,24.594,24.594,0,54.653,0h204.91
		c30.059,0,54.653,24.594,54.653,54.653v204.91C314.215,289.622,289.622,314.215,259.563,314.215z"/>
	<path fill="#FFFFFF" d="M276.686,74.235C239.539,15.273,161.127,11.167,96.488,37.77C48.123,57.675-6.454,132.761,32.781,221.852
		c39.571,89.853,163.143,87.006,212.596,44.307C307.722,212.328,307.197,122.664,276.686,74.235z"/>
	<g>
		<g id="muistipeli_x5F_huuhkaja_1_">
			<path fill="#957757" d="M165.864,228.632l6.501,36.27c0,0,33.518,4.613,33.518,7.073c0,1.23-25.523-2.153-25.523-2.153
				l17.593,9.576c0.63,0.343,0.241,1.302-0.45,1.109l-21.756-6.072l11.65,10.803c0.229,0.212-0.021,0.58-0.303,0.446l-23.648-11.249
				l-16.384,0.256c-0.742,0.012-0.968-1.001-0.292-1.306l19.444-8.79l-1.461-6.154l-6.28,0.774
				c-0.671,0.083-0.965-0.819-0.376-1.148l4.813-2.692l-4.635-24.222L165.864,228.632z"/>
			<path fill="#C1A174" d="M138.62,240.768l6.501,36.27c0,0,33.518,4.613,33.518,7.073c0,1.23-25.523-2.153-25.523-2.153
				l17.593,9.576c0.63,0.343,0.241,1.302-0.45,1.109l-21.756-6.072l11.65,10.803c0.229,0.212-0.021,0.58-0.303,0.446l-23.648-11.249
				l-16.384,0.256c-0.742,0.012-0.968-1.001-0.292-1.306l19.444-8.79l-1.461-6.154l-6.28,0.774
				c-0.671,0.083-0.965-0.819-0.376-1.148l4.813-2.692l-4.635-24.222L138.62,240.768z"/>
			<path fill="#C1A174" d="M71.072,293.888c3.646,2.787,7.54-2.017,12.306-11.257c0.134,0.018,0.259,0.011,0.392,0.024
				c-1.954,11.405-2.308,21.537,1.325,25.504c4.267,4.658,11.026-7.519,17.455-23.288c0.121,5.454,1.052,9.781,3.24,11.986
				c6.469,6.521,29.407-57.887,36.527-81.908c0,0-28.295-24.581-64.562-7.001C64.667,252.811,64.833,289.121,71.072,293.888z"/>
			<path fill="#C1A174" d="M144.415,122.523C97.73,166.84,79.459,245.695,84.646,250.234c5.187,4.539,82.094,5.411,92.072,4.404
				c15.814-1.596,42.68-51.714,29.927-103.293C206.645,151.346,191.099,78.206,144.415,122.523z"/>
			<path fill="#F1D2B3" d="M80.92,277.165c2.576,1.969,5.328-1.426,8.696-7.954c0.095,0.012,0.183,0.008,0.277,0.017
				c-1.381,8.059-1.631,15.218,0.936,18.021c3.015,3.292,7.791-5.313,12.334-16.455c0.086,3.854,0.744,6.911,2.289,8.469
				c4.571,4.608,20.779-40.904,25.81-57.877c0,0-19.993-17.369-45.619-4.947C76.394,248.141,76.511,273.797,80.92,277.165z"/>
			<path fill="#C1A174" d="M232.003,65.038c-13.553-21.085-50.08-32.873-85.943-22.081c-26.885,8.09-46.212,46.181-31.38,79.861
				c15.939,36.195,81.356,37.523,99.627,23.501C241.822,125.203,244.031,83.75,232.003,65.038z"/>
			<path opacity="0.5" fill="#F1D2B3" enable-background="new    " d="M202.694,102.602c-0.897,17.114-11.998,28.525-26.415,28.211
				c-15.31-0.333-31.957-12.993-30.108-29.159c1.76-15.386,12.752-28.319,29.701-27.954
				C194.021,74.091,203.2,88.405,202.694,102.602z"/>
			<path fill="#505252" d="M181.7,94.155c0.568,1.412-5.133,22.323-6.676,22.679c-1,0-8.119-17.926-8.28-21.906
				C166.886,93.891,180.587,93.377,181.7,94.155z"/>
			<g>
				<path fill="#4A402F" d="M134.053,45.603c-9.539-10.516-20.223-23.657-21.803-37.925c-0.043-0.535-1.005-0.468-0.994,0.071
					c-0.668,9.469,0.21,18.862,3.819,27.668c-6.536-6.402-13.003-14.266-15.4-22.096c-0.159-0.519-1.102-0.336-0.974,0.19
					c2.205,16.393,10.286,31.865,24.376,41.359c4.262,2.873,11.585,9.094,16.354,4.234C146.03,52.377,137.482,49.025,134.053,45.603
					z"/>
				<path fill="#4A402F" d="M248.243,14.036c-2.397,7.831-8.864,15.694-15.4,22.096c3.608-8.806,4.487-18.198,3.818-27.667
					c0.012-0.539-0.95-0.606-0.993-0.071c-2.224,27.785-37.476,43.266-27.182,51.425c8.487,6.727,23.56-10.014,28.993-16.187
					c6.662-8.775,10.16-18.726,11.737-29.406C249.345,13.7,248.402,13.518,248.243,14.036z"/>
			</g>
			<path fill="#4A402F" d="M71.533,258.203c4.287-1.578,6.106-8.331,8.758-15.176c-0.34,5.162,0.188,9.388,2.123,11.706
				c3.642,4.363,9.781-5.417,15.689-18.262c0.028,3.715,0.657,6.739,2.174,8.57c3.894,4.701,10.737-6.9,17.09-21.093
				c1.004-0.168,2.016-0.348,3.03-0.535c13.116-2.419,26.88-6.53,36.832-15.295c16.781-14.779,22.895-31.154,22.331-43.083
				c-0.211-4.459-1.616-11.865-5.221-19.129c-5.495-11.074-16.113-21.819-35.499-21.293c-32.102,0.871-54.333,37.804-63.182,55.523
				C61.693,208.094,62.652,261.471,71.533,258.203z"/>
			<g>
				<g>
					<path fill="#4A402F" d="M138.532,52.214c0.181,0,0.181-0.281,0-0.281C138.351,51.932,138.351,52.214,138.532,52.214
						L138.532,52.214z"/>
				</g>
			</g>
			<path fill="#4B4B4A" d="M77.05,215.008c2.241,15.582,8.941,12.687,11.708,6.353c1.804-4.129,2.481-10.726,2.47-17.179H76.365
				C76.31,207.572,76.505,211.221,77.05,215.008z"/>
			<path fill="#4B4B4A" d="M121.492,199.581c2.241,15.582,8.941,12.687,11.708,6.353c1.804-4.129,2.481-10.726,2.47-17.179h-14.863
				C120.753,192.145,120.947,195.794,121.492,199.581z"/>
			<path fill="#4B4B4A" d="M95.358,181.329c2.241,15.582,8.941,12.687,11.708,6.353c1.804-4.129,2.481-10.726,2.47-17.179H94.673
				C94.619,173.893,94.813,177.542,95.358,181.329z"/>
			<path fill="#4B4B4A" d="M119.049,169.036c2.241,15.582,8.941,12.687,11.708,6.353c1.804-4.129,2.481-10.726,2.47-17.179h-14.863
				C118.31,161.6,118.504,165.249,119.049,169.036z"/>
			<path fill="#4B4B4A" d="M142.927,175.766c2.241,15.582,8.941,12.687,11.708,6.353c1.804-4.129,2.481-10.726,2.47-17.179h-14.863
				C142.188,168.329,142.382,171.979,142.927,175.766z"/>
			<path fill="#4B4B4A" d="M140.15,147.57c2.241,15.582,8.941,12.687,11.708,6.353c1.804-4.129,2.481-10.726,2.47-17.179h-14.863
				C139.411,140.132,139.605,143.781,140.15,147.57z"/>
			<path fill="#957757" d="M101.548,157.999c1.521,10.578,6.069,8.612,7.948,4.312c1.225-2.803,1.684-7.281,1.677-11.662h-10.09
				C101.046,152.951,101.178,155.428,101.548,157.999z"/>
			<path fill="#957757" d="M104.96,203.971c1.521,10.578,6.069,8.612,7.948,4.312c1.225-2.803,1.684-7.281,1.677-11.662h-10.09
				C104.458,198.923,104.59,201.4,104.96,203.971z"/>
			<path fill="#4B4B4A" d="M97.524,224.382c1.521,10.578,6.069,8.612,7.948,4.312c1.225-2.803,1.684-7.281,1.677-11.662h-10.09
				C97.022,219.333,97.154,221.811,97.524,224.382z"/>
			<path fill="#957757" d="M121.215,144.092c1.521,10.578,6.069,8.612,7.948,4.312c1.225-2.803,1.684-7.281,1.677-11.662h-10.09
				C120.713,139.044,120.845,141.52,121.215,144.092z"/>
			<path fill="#957757" d="M148.427,59.727c1.521,10.578,6.069,8.612,7.948,4.312c1.225-2.803,1.684-7.281,1.677-11.662h-10.09
				C147.925,54.679,148.057,57.156,148.427,59.727z"/>
			<path fill="#957757" d="M183.778,151.652c1.521,10.578,6.069,8.612,7.948,4.312c1.225-2.803,1.684-7.281,1.677-11.662h-10.09
				C183.276,146.604,183.408,149.081,183.778,151.652z"/>
			<path fill="#957757" d="M194.914,165.915c1.521,10.578,6.069,8.612,7.948,4.312c1.225-2.803,1.684-7.281,1.677-11.662h-10.09
				C194.412,160.867,194.544,163.344,194.914,165.915z"/>
			<path fill="#957757" d="M183.778,181.428c1.521,10.578,6.069,8.612,7.948,4.312c1.225-2.803,1.684-7.281,1.677-11.662h-10.09
				C183.276,176.38,183.408,178.857,183.778,181.428z"/>
			<path fill="#957757" d="M196.637,192.566c1.521,10.578,6.069,8.612,7.948,4.312c1.225-2.803,1.684-7.281,1.677-11.662h-10.09
				C196.135,187.516,196.267,189.993,196.637,192.566z"/>
			<path fill="#957757" d="M177.162,203.126c1.521,10.578,6.069,8.612,7.948,4.312c1.225-2.803,1.684-7.281,1.677-11.662h-10.09
				C176.66,198.076,176.792,200.555,177.162,203.126z"/>
			<path fill="#957757" d="M189.866,215.109c1.521,10.578,6.069,8.612,7.948,4.312c1.225-2.803,1.684-7.281,1.677-11.662h-10.09
				C189.364,210.061,189.496,212.538,189.866,215.109z"/>
			<path fill="#957757" d="M164.617,219.311c1.521,10.578,6.069,8.612,7.948,4.312c1.225-2.803,1.684-7.281,1.677-11.662h-10.09
				C164.116,214.264,164.248,216.74,164.617,219.311z"/>
			<path fill="#957757" d="M178.73,230.135c1.521,10.578,6.069,8.612,7.948,4.312c1.225-2.803,1.684-7.281,1.677-11.662h-10.09
				C178.228,225.087,178.36,227.564,178.73,230.135z"/>
			<path fill="#957757" d="M162.167,239.503c1.521,10.578,6.069,8.612,7.948,4.312c1.225-2.803,1.684-7.281,1.677-11.662h-10.09
				C161.665,234.454,161.797,236.93,162.167,239.503z"/>
			<path fill="#957757" d="M147.429,230.135c1.521,10.578,6.069,8.612,7.948,4.312c1.225-2.803,1.684-7.281,1.677-11.662h-10.09
				C146.927,225.087,147.059,227.564,147.429,230.135z"/>
			<path fill="#957757" d="M132.546,242.454c1.521,10.578,6.069,8.612,7.948,4.312c1.225-2.803,1.684-7.281,1.677-11.662h-10.09
				C132.044,237.406,132.176,239.883,132.546,242.454z"/>
			<path fill="#957757" d="M162.167,53.6c1.521,10.578,6.069,8.612,7.948,4.312c1.225-2.803,1.684-7.281,1.677-11.662h-10.09
				C161.665,48.552,161.797,51.029,162.167,53.6z"/>
			<path fill="#957757" d="M175.544,59.011c1.521,10.578,6.069,8.612,7.948,4.312c1.225-2.803,1.684-7.281,1.677-11.662h-10.09
				C175.042,53.962,175.174,56.439,175.544,59.011z"/>
			<path fill="#957757" d="M188.826,53.6c1.521,10.578,6.069,8.612,7.948,4.312c1.225-2.803,1.684-7.281,1.677-11.662h-10.09
				C188.324,48.552,188.456,51.029,188.826,53.6z"/>
			<path fill="#957757" d="M159.569,157.223c1.521,10.578,6.069,8.612,7.948,4.312c1.225-2.803,1.684-7.281,1.677-11.662h-10.09
				C159.068,152.174,159.2,154.652,159.569,157.223z"/>
			<path fill="#957757" d="M162.167,180.273c1.521,10.578,6.069,8.612,7.948,4.312c1.225-2.803,1.684-7.281,1.677-11.662h-10.09
				C161.665,175.225,161.797,177.701,162.167,180.273z"/>
			<path fill="#957757" d="M143.379,199.682c1.521,10.578,6.069,8.612,7.948,4.312c1.225-2.803,1.684-7.281,1.677-11.662h-10.09
				C142.877,194.632,143.009,197.109,143.379,199.682z"/>
			<path fill="#957757" d="M79.215,192.566c1.521,10.578,6.069,8.612,7.948,4.312c1.225-2.803,1.684-7.281,1.677-11.662H78.75
				C78.713,187.516,78.845,189.993,79.215,192.566z"/>
			<path fill="#957757" d="M69.119,236.424c1.521,10.578,6.069,8.612,7.948,4.312c1.225-2.803,1.684-7.281,1.677-11.662h-10.09
				C68.617,231.376,68.749,233.854,69.119,236.424z"/>
			<path fill="#4B4B4A" d="M165.14,82.907c-6.357-16.682-25.361-13.582-33.211-6.801c-5.118,4.42-7.037,11.483-7.007,18.392h2.823
				c0.627,9.212,10.428,16.123,19.51,16.32c8.768,0.191,15.635-6.333,16.897-16.32h2.931
				C167.237,90.869,166.685,86.962,165.14,82.907z"/>
			<path fill="#FDA519" d="M147.998,107.954c-23.243,0.461-22.423-32.262,0.147-31.092
				C165.971,77.675,165.539,107.272,147.998,107.954z"/>
			<path fill="#4B4B4A" d="M155.769,92.534c-0.309,5.895-4.133,9.825-9.098,9.717c-5.273-0.115-11.007-4.475-10.37-10.044
				c0.606-5.299,4.392-9.754,10.23-9.628C152.782,82.713,155.944,87.644,155.769,92.534z"/>
			<path fill="#4B4B4A" d="M221.84,82.907c-6.357-16.682-25.361-13.582-33.211-6.801c-5.117,4.42-7.037,11.483-7.007,18.392h2.823
				c0.627,9.212,10.428,16.123,19.51,16.32c8.768,0.191,15.635-6.333,16.897-16.32h2.931
				C223.937,90.869,223.385,86.962,221.84,82.907z"/>
			<path fill="#FDA519" d="M204.698,107.954c-23.243,0.461-22.423-32.262,0.147-31.092
				C222.671,77.675,222.239,107.272,204.698,107.954z"/>
			<path fill="#4B4B4A" d="M212.469,92.534c-0.309,5.895-4.133,9.825-9.098,9.717c-5.273-0.115-11.007-4.475-10.37-10.044
				c0.606-5.299,4.392-9.754,10.23-9.628C209.482,82.713,212.644,87.644,212.469,92.534z"/>
		</g>
		<g id="Layer_1_24_">
		</g>
	</g>
</g>
<g id="Layer_1">
</g>
</svg>
