<?xml version="1.0" encoding="utf-8"?>
<!-- Generator: Adobe Illustrator 24.2.3, SVG Export Plug-In . SVG Version: 6.00 Build 0)  -->
<svg version="1.1" xmlns="http://www.w3.org/2000/svg" xmlns:xlink="http://www.w3.org/1999/xlink" x="0px" y="0px"
	 viewBox="0 0 314.216 314.215" enable-background="new 0 0 314.216 314.215" xml:space="preserve">
<g id="memorygame_x5F_juniper_x5F_kataja">
	<path fill="#FFDDC3" d="M259.563,314.215H54.653C24.594,314.215,0,289.622,0,259.563V54.653C0,24.594,24.594,0,54.653,0h204.91
		c30.059,0,54.653,24.594,54.653,54.653v204.91C314.215,289.622,289.622,314.215,259.563,314.215z"/>
	<path fill="#FFFFFF" d="M276.686,74.235C239.539,15.273,161.127,11.167,96.488,37.77C48.123,57.675-6.454,132.761,32.781,221.852
		c39.571,89.853,163.143,87.006,212.596,44.307C307.722,212.328,307.197,122.664,276.686,74.235z"/>
	<g>
		<g id="muistipeli_x5F_kataja_1_">
			<polygon fill="#C1A174" points="253.779,305.115 260.248,292.512 221.377,213.577 151.396,124.063 76.187,52.934 74.784,62.809 
				153.923,142.625 216.371,228.578 			"/>
			<polygon fill="#C1A174" points="209.888,200.071 217.215,123.696 222.537,125.399 216.168,212.262 			"/>
			<polygon fill="#C1A174" points="176.263,165.494 74.551,161.143 75.815,168.449 191.134,175.979 			"/>
			<g>
				<path fill="#5AA043" d="M44.286,22.86c-2.472,1.851,3.705,12.434,12.21,21.649c8.425,9.128,15.615,14.768,18.955,14.917
					c0,0,1.984-5.199-9.107-18.812C59.535,32.257,47.08,20.767,44.286,22.86z"/>
			</g>
			<g>
				<path fill="#5AA043" d="M29.733,158.625c-0.641,3.021,10.977,6.916,23.446,8.25c12.351,1.321,21.477,0.829,24.088-1.259
					c0,0-1.931-5.219-19.242-8.158C47.397,155.654,30.457,155.21,29.733,158.625z"/>
			</g>
			<g>
				<path fill="#5AA043" d="M45.016,194.397c1.672,2.596,12.664-2.817,22.458-10.649c9.701-7.758,15.835-14.532,16.22-17.853
					c0,0-5.046-2.347-19.408,7.754C55.468,179.85,43.126,191.462,45.016,194.397z"/>
			</g>
			<g>
				<path fill="#5AA043" d="M69.598,201.77c2.146,2.221,11.872-5.233,19.95-14.824c8.002-9.501,12.697-17.341,12.427-20.674
					c0,0-5.407-1.317-17.523,11.39C77.012,185.464,67.171,199.26,69.598,201.77z"/>
			</g>
			<g>
				<path fill="#5AA043" d="M93.95,205.556c2.578,1.7,10.448-7.692,16.244-18.812c5.742-11.015,8.617-19.689,7.628-22.883
					c0,0-5.564-0.109-14.624,14.932C97.636,188.027,91.035,203.634,93.95,205.556z"/>
			</g>
			<g>
				<path fill="#5AA043" d="M113.201,211.015c2.662,1.566,10.04-8.217,15.259-19.619c5.17-11.295,7.597-20.105,6.446-23.244
					c0,0-5.562,0.176-13.839,15.661C115.985,193.32,110.192,209.245,113.201,211.015z"/>
			</g>
			<g>
				<path fill="#5AA043" d="M132.778,208.811c2.653,1.58,10.085-8.162,15.366-19.536c5.231-11.267,7.707-20.063,6.572-23.208
					c0,0-5.563,0.146-13.924,15.586C135.659,191.132,129.779,207.025,132.778,208.811z"/>
			</g>
			<g>
				<path fill="#5AA043" d="M155.119,213.255c2.834,1.227,8.954-9.389,12.732-21.346c3.742-11.845,5.068-20.886,3.539-23.86
					c0,0-5.498,0.859-11.809,17.244C155.707,195.352,151.915,211.868,155.119,213.255z"/>
			</g>
			<g>
				<path fill="#5AA043" d="M71.196,12.909c-3.075,0.283-3.355,12.533-0.936,24.837c2.396,12.188,5.569,20.759,8.336,22.635
					c0,0,4.413-3.39,2.093-20.795C79.265,28.901,74.672,12.589,71.196,12.909z"/>
			</g>
			<g>
				<path fill="#5AA043" d="M219.696,79.734c-3.086-0.127-4.987,11.977-4.22,24.494c0.759,12.399,2.768,21.314,5.262,23.54
					c0,0,4.824-2.776,4.832-20.334C225.574,96.654,223.184,79.878,219.696,79.734z"/>
			</g>
			<g>
				<path fill="#5AA043" d="M248.947,95.901c-2.274-2.089-11.54,5.928-19.035,15.982c-7.424,9.959-11.646,18.064-11.178,21.375
					c0,0,5.476,0.994,16.817-12.41C242.513,112.618,251.518,98.263,248.947,95.901z"/>
			</g>
			<g>
				<path fill="#5AA043" d="M192.793,94.937c-2.627,1.624,2.584,12.714,10.235,22.649c7.579,9.842,14.239,16.099,17.553,16.545
					c0,0,2.439-5.002-7.397-19.547C207.146,105.654,195.763,93.101,192.793,94.937z"/>
			</g>
			<g>
				<path fill="#5AA043" d="M184.15,116.232c-2.269,2.095,4.962,11.988,14.368,20.281c9.317,8.215,17.049,13.087,20.386,12.893
					c0,0,1.44-5.376-10.99-17.777C200.283,124.014,186.715,113.863,184.15,116.232z"/>
			</g>
			<g>
				<path fill="#5AA043" d="M180.478,134.404c-2.269,2.095,4.962,11.988,14.368,20.281c9.317,8.215,17.049,13.087,20.386,12.893
					c0,0,1.44-5.376-10.99-17.777C196.612,142.187,183.043,132.035,180.478,134.404z"/>
			</g>
			<g>
				<path fill="#5AA043" d="M258.66,118.629c-1.377-2.764-12.897,1.408-23.492,8.117c-10.495,6.645-17.336,12.704-18.083,15.963
					c0,0,4.758,2.887,20.143-5.575C246.673,131.94,260.216,121.755,258.66,118.629z"/>
			</g>
			<g>
				<path fill="#5AA043" d="M263.246,139.395c-0.733-3-12.89-1.473-24.704,2.732c-11.703,4.165-19.712,8.565-21.16,11.579
					c0,0,4.003,3.866,20.876-0.992C248.617,149.732,264.074,142.787,263.246,139.395z"/>
			</g>
			<g>
				<path fill="#5AA043" d="M260.446,154.319c-0.733-3-12.89-1.473-24.704,2.732c-11.703,4.165-19.712,8.565-21.16,11.579
					c0,0,4.003,3.866,20.876-0.992C245.817,164.656,261.274,157.711,260.446,154.319z"/>
			</g>
			<g>
				<path fill="#5AA043" d="M62.343,123.368c-2.889,1.092,0.106,12.974,5.717,24.188c5.558,11.109,10.9,18.524,14.067,19.594
					c0,0,3.35-4.444-3.524-20.601C74.383,136.63,65.609,122.133,62.343,123.368z"/>
			</g>
			<g>
				<path fill="#5AA043" d="M84.708,122.614c-3.023,0.63-1.912,12.832,1.888,24.783c3.763,11.838,7.887,19.993,10.85,21.543
					c0,0,4-3.869-0.279-20.898C94.54,137.587,88.126,121.902,84.708,122.614z"/>
			</g>
			<g>
				<path fill="#5AA043" d="M105.336,131.181c-2.464,0.513-1.558,10.459,1.539,20.2c3.067,9.649,6.429,16.296,8.843,17.559
					c0,0,3.26-3.154-0.227-17.033C113.35,143.385,108.122,130.601,105.336,131.181z"/>
			</g>
			<g>
				<path fill="#5AA043" d="M124.318,134.046c-2.464,0.513-1.558,10.459,1.539,20.2c3.067,9.649,6.429,16.296,8.843,17.559
					c0,0,3.26-3.154-0.227-17.033C132.332,146.25,127.104,133.466,124.318,134.046z"/>
			</g>
			<g>
				<path fill="#5AA043" d="M144.848,135.178c-2.464,0.513-1.558,10.459,1.539,20.2c3.067,9.649,6.429,16.296,8.843,17.559
					c0,0,3.26-3.154-0.227-17.033C152.862,147.382,147.634,134.598,144.848,135.178z"/>
			</g>
			<g>
				<path fill="#5AA043" d="M92.731,23.934c-3.045-0.513-6.449,11.257-7.258,23.771c-0.801,12.396,0.073,21.492,2.269,24.014
					c0,0,5.134-2.149,7.343-19.567C96.442,41.458,96.174,24.514,92.731,23.934z"/>
			</g>
			<g>
				<path fill="#5AA043" d="M105.489,37.701c-3.045-0.513-6.449,11.257-7.258,23.771c-0.801,12.396,0.073,21.492,2.269,24.014
					c0,0,5.134-2.149,7.343-19.567C109.199,55.225,108.932,38.282,105.489,37.701z"/>
			</g>
			<g>
				<path fill="#5AA043" d="M126.254,52.462c-2.938-0.952-8.021,10.197-10.645,22.46c-2.599,12.147-3.06,21.274-1.256,24.088
					c0,0,5.392-1.378,10.117-18.288C127.37,70.34,129.575,53.538,126.254,52.462z"/>
			</g>
			<g>
				<path fill="#5AA043" d="M147.096,68.551c-2.938-0.952-8.021,10.197-10.645,22.46c-2.599,12.147-3.06,21.274-1.256,24.088
					c0,0,5.392-1.378,10.117-18.288C148.213,86.428,150.418,69.627,147.096,68.551z"/>
			</g>
			<g>
				<path fill="#5AA043" d="M38.203,66.348c-0.244,3.079,11.78,5.437,24.316,5.146c12.418-0.289,21.403-1.958,23.723-4.366
					c0,0-2.591-4.925-20.136-5.599C55.334,61.116,38.479,62.868,38.203,66.348z"/>
			</g>
			<g>
				<path fill="#5AA043" d="M49.95,91.69c1.018,2.916,12.972,0.224,24.326-5.099c11.247-5.273,18.796-10.424,19.947-13.563
					c0,0-4.357-3.462-20.684,2.998C63.515,79.992,48.799,88.394,49.95,91.69z"/>
			</g>
			<g>
				<path fill="#5AA043" d="M64.197,103.395c1.018,2.916,12.972,0.224,24.326-5.099c11.247-5.273,18.796-10.424,19.947-13.563
					c0,0-4.357-3.462-20.684,2.998C77.762,91.698,63.046,100.099,64.197,103.395z"/>
			</g>
			<g>
				<path fill="#5AA043" d="M74.3,118.115c0.762,2.993,12.904,1.346,24.676-2.975c11.661-4.28,19.627-8.759,21.045-11.786
					c0,0-4.041-3.826-20.866,1.197C88.827,107.634,73.439,114.731,74.3,118.115z"/>
			</g>
			<g>
				<path fill="#5AA043" d="M101.094,127.748c0.668,2.236,9.784,0.618,18.539-3.007c8.672-3.591,14.549-7.218,15.526-9.547
					c0,0-3.169-2.764-15.717,1.547C111.739,119.388,100.339,125.22,101.094,127.748z"/>
			</g>
			<g>
				<path fill="#5AA043" d="M184.307,165.792c-1.196,2.004,6.161,7.626,14.752,11.624c8.51,3.96,15.156,5.837,17.533,4.981
					c0,0-0.107-4.204-11.768-10.532C197.665,167.98,185.659,163.526,184.307,165.792z"/>
			</g>
			<g>
				<path fill="#5AA043" d="M178.256,190.248c-0.133,2.33,8.99,3.911,18.456,3.482c9.377-0.425,16.137-1.835,17.849-3.693
					c0,0-2.039-3.678-15.305-3.894C191.11,186.01,178.406,187.614,178.256,190.248z"/>
			</g>
			<g>
				<path fill="#5AA043" d="M164.237,202.758c-0.133,2.33,8.99,3.911,18.456,3.482c9.377-0.425,16.137-1.835,17.849-3.693
					c0,0-2.039-3.678-15.305-3.894C177.091,198.519,164.387,200.124,164.237,202.758z"/>
			</g>
			<g>
				<path fill="#5AA043" d="M171.27,223.495c0.796,2.194,9.804,0.051,18.334-4.074c8.45-4.087,14.107-8.048,14.948-10.43
					c0,0-3.324-2.576-15.601,2.454C181.413,214.533,170.37,221.015,171.27,223.495z"/>
			</g>
			<g>
				<path fill="#5AA043" d="M178.78,233.399c0.796,2.194,9.804,0.051,18.334-4.074c8.45-4.087,14.107-8.048,14.948-10.43
					c0,0-3.324-2.576-15.601,2.454C188.924,224.436,177.881,230.919,178.78,233.399z"/>
			</g>
			<g>
				<path fill="#5AA043" d="M187.503,244.855c0.796,2.194,9.804,0.051,18.334-4.074c8.45-4.087,14.107-8.048,14.948-10.43
					c0,0-3.324-2.576-15.601,2.454C197.646,235.893,186.603,242.375,187.503,244.855z"/>
			</g>
			<g>
				<path fill="#5AA043" d="M200.985,260.598c1.45,1.828,9.314-3.059,16.097-9.676c6.719-6.555,10.828-12.104,10.871-14.63
					c0,0-3.969-1.39-14.019,7.273C207.764,248.882,199.345,258.531,200.985,260.598z"/>
			</g>
			<g>
				<path fill="#5AA043" d="M246.461,198.203c-1.575-1.722-9.076,3.706-15.377,10.783c-6.242,7.01-9.951,12.835-9.816,15.358
					c0,0,4.057,1.107,13.473-8.24C240.522,210.366,248.242,200.15,246.461,198.203z"/>
			</g>
			<g>
				<path fill="#5AA043" d="M258.44,213.466c-1.103-2.056-9.709,1.36-17.557,6.67c-7.774,5.26-12.802,9.994-13.292,12.472
					c0,0,3.66,2.071,15.086-4.673C249.692,223.794,259.688,215.79,258.44,213.466z"/>
			</g>
			<g>
				<path fill="#5AA043" d="M109.517,138.551c0.668,2.236,9.784,0.618,18.539-3.007c8.672-3.591,14.549-7.218,15.526-9.547
					c0,0-3.169-2.764-15.717,1.547C120.161,130.191,108.762,136.023,109.517,138.551z"/>
			</g>
			<g>
				<path fill="#5AA043" d="M120.977,152.175c0.668,2.236,9.784,0.618,18.539-3.007c8.672-3.591,14.549-7.218,15.526-9.547
					c0,0-3.169-2.764-15.717,1.547C131.622,143.814,120.222,149.647,120.977,152.175z"/>
			</g>
			<g>
				<path fill="#5AA043" d="M162.762,89.609c-1.843-1.431-8.321,5.184-13.338,13.223c-4.969,7.963-7.643,14.33-7.084,16.794
					c0,0,4.185,0.407,11.89-10.395C158.96,102.6,164.846,91.228,162.762,89.609z"/>
			</g>
			<g>
				<path fill="#5AA043" d="M249.496,190.142c-0.06-2.333-9.283-3.153-18.681-1.941c-9.309,1.201-15.929,3.167-17.481,5.16
					c0,0,2.337,3.496,15.575,2.612C237.037,195.432,249.564,192.78,249.496,190.142z"/>
			</g>
			<g>
				<path fill="#5AA043" d="M249.431,171.232c-0.538-2.271-9.732-1.181-18.682,1.933c-8.865,3.085-14.941,6.367-16.051,8.637
					c0,0,3.005,2.942,15.78-0.638C238.322,178.964,250.038,173.799,249.431,171.232z"/>
			</g>
			<g>
				<path fill="#5AA043" d="M179.08,108.08c-0.943-2.135-9.784,0.616-18.014,5.312c-8.153,4.652-13.527,8.988-14.204,11.422
					c0,0,3.491,2.344,15.398-3.509C169.57,117.711,180.146,110.493,179.08,108.08z"/>
			</g>
			<g>
				<path fill="#5AA043" d="M188.147,126.112c-0.319-2.312-9.575-2.104-18.781,0.144c-9.119,2.226-15.479,4.914-16.801,7.067
					c0,0,2.71,3.215,15.769,0.869C176.352,132.751,188.508,128.726,188.147,126.112z"/>
			</g>
			<path fill="#3F749A" d="M84.767,52.075c-4.025-2.617-9.387-0.952-13.285,2.376c-2.916,2.491-5.02,8.616-0.198,13.14
				c5.149,4.83,12.989,1.148,15.636-2.886C90.17,59.755,88.26,54.346,84.767,52.075z"/>
			<path fill="#3F749A" d="M223.552,145.4c-4.025-2.617-9.387-0.952-13.285,2.376c-2.916,2.491-5.02,8.616-0.198,13.14
				c5.149,4.83,12.989,1.148,15.636-2.886C228.954,153.08,227.045,147.671,223.552,145.4z"/>
			<path fill="#3F749A" d="M169.407,159.342c-4.025-2.617-9.387-0.952-13.285,2.376c-2.916,2.491-5.02,8.616-0.198,13.14
				c5.149,4.83,12.989,1.148,15.636-2.886C174.809,167.022,172.9,161.613,169.407,159.342z"/>
			<path fill="#3F749A" d="M106.056,155.561c-4.025-2.617-9.387-0.952-13.285,2.376c-2.916,2.491-5.02,8.616-0.198,13.14
				c5.149,4.83,12.989,1.148,15.636-2.886C111.458,163.241,109.549,157.832,106.056,155.561z"/>
			<path fill="#3F749A" d="M222.86,210.048c-4.025-2.617-9.387-0.952-13.285,2.376c-2.916,2.491-5.02,8.616-0.198,13.14
				c5.149,4.83,12.989,1.148,15.636-2.886C228.262,217.727,226.353,212.319,222.86,210.048z"/>
			<path fill="#3F749A" d="M123.734,163.893c-4.025-2.617-9.387-0.952-13.285,2.376c-2.916,2.491-5.02,8.616-0.198,13.14
				c5.149,4.83,12.989,1.148,15.636-2.886C129.136,171.572,127.226,166.164,123.734,163.893z"/>
			<path fill="#3F749A" d="M94.63,68.603c-3.007-2.312-7.491-0.843-10.654,1.893c-2.5,2.163-4.278,7.446-0.284,11.341
				c4.265,4.159,11.093,0.57,13.299-2.576C99.61,75.526,97.251,70.618,94.63,68.603z"/>
			<path fill="#3F749A" d="M211.345,131.252c-3.007-2.312-7.491-0.843-10.654,1.893c-2.5,2.163-4.278,7.446-0.284,11.341
				c4.265,4.159,11.093,0.57,13.299-2.576C216.325,138.175,213.966,133.267,211.345,131.252z"/>
			<path fill="#3F749A" d="M119.509,92.373c-3.007-2.312-7.491-0.843-10.654,1.893c-2.5,2.163-4.278,7.446-0.284,11.341
				c4.265,4.159,11.093,0.57,13.299-2.576C124.489,99.296,122.13,94.388,119.509,92.373z"/>
			<path fill="#3F749A" d="M208.473,198.978c-3.007-2.312-7.491-0.843-10.654,1.893c-2.5,2.163-4.278,7.446-0.284,11.341
				c4.265,4.159,11.093,0.57,13.299-2.576C213.454,205.902,211.095,200.994,208.473,198.978z"/>
			<path fill="#3F749A" d="M85.029,158.251c-3.007-2.312-7.65-1.214-11.445,1.562c-3.382,2.474-2.977,8.124,0.388,11.603
				c3.616,3.738,10.807,0.267,12.838-2.928C89.257,164.639,87.65,160.267,85.029,158.251z"/>
			<path fill="#3F749A" d="M183.465,171.622c-3.007-2.312-7.65-1.214-11.445,1.562c-3.382,2.474-2.977,8.124,0.388,11.603
				c3.616,3.738,10.807,0.267,12.838-2.928C187.693,178.009,186.086,173.637,183.465,171.622z"/>
			<path fill="#3F749A" d="M187.28,154.587c-3.007-2.312-7.65-1.214-11.445,1.562c-3.382,2.474-2.977,8.124,0.388,11.603
				c3.616,3.738,10.807,0.267,12.838-2.928C191.509,160.975,189.901,156.603,187.28,154.587z"/>
			<path fill="#3F749A" d="M220.641,185.399c-3.007-2.312-7.65-1.214-11.445,1.562c-3.382,2.474-2.977,8.124,0.388,11.603
				c3.616,3.738,10.807,0.267,12.838-2.928C224.869,191.787,223.262,187.415,220.641,185.399z"/>
			<path fill="#3F749A" d="M100.367,78.295c-1.983,2.633-1.772,7.676,1.194,11.608c2.224,2.948,7.803,3.596,11.282,0.231
				c3.738-3.616,0.92-11.746-1.642-13.361C107.342,74.341,102.127,75.958,100.367,78.295z"/>
			<path fill="#3F749A" d="M216.395,129.987c-1.983,2.633-1.772,7.676,1.194,11.608c2.224,2.948,7.803,3.596,11.282,0.231
				c3.738-3.616,0.92-11.747-1.642-13.361C223.37,126.033,218.155,127.651,216.395,129.987z"/>
			<path fill="#3F749A" d="M86.284,87.711c-1.983,2.633-1.772,7.676,1.194,11.608c2.224,2.948,7.803,3.596,11.282,0.231
				c3.738-3.616,0.92-11.747-1.642-13.361C93.258,83.757,88.044,85.374,86.284,87.711z"/>
			<path fill="#3F749A" d="M147.847,128.948c-1.983,2.633-1.772,7.676,1.194,11.608c2.224,2.948,7.803,3.596,11.282,0.231
				c3.738-3.616,0.92-11.747-1.642-13.361C154.822,124.994,149.607,126.611,147.847,128.948z"/>
			<path fill="#3F749A" d="M135.215,116.713c-1.983,2.633-1.772,7.676,1.194,11.608c2.224,2.948,7.803,3.596,11.282,0.231
				c3.738-3.616,0.92-11.747-1.642-13.361C142.189,112.759,136.975,114.376,135.215,116.713z"/>
		</g>
		<g id="Layer_1_20_">
		</g>
	</g>
</g>
<g id="Layer_1">
</g>
</svg>
