<?xml version="1.0" encoding="utf-8"?>
<!-- Generator: Adobe Illustrator 24.2.3, SVG Export Plug-In . SVG Version: 6.00 Build 0)  -->
<svg version="1.1" xmlns="http://www.w3.org/2000/svg" xmlns:xlink="http://www.w3.org/1999/xlink" x="0px" y="0px"
	 viewBox="0 0 314.216 314.215" enable-background="new 0 0 314.216 314.215" xml:space="preserve">
<g id="memorygame_x5F_squirrel_x5F_orava">
	<path fill="#FFDDC3" d="M259.563,314.215H54.653C24.594,314.215,0,289.622,0,259.563V54.653C0,24.594,24.594,0,54.653,0h204.91
		c30.059,0,54.653,24.594,54.653,54.653v204.91C314.215,289.622,289.622,314.215,259.563,314.215z"/>
	<path fill="#FFFFFF" d="M276.686,74.235C239.539,15.273,161.127,11.167,96.488,37.77C48.123,57.675-6.454,132.761,32.781,221.852
		c39.571,89.853,163.143,87.006,212.596,44.307C307.722,212.328,307.197,122.664,276.686,74.235z"/>
	<g>
		<g id="muistipeli_x5F_orava_1_">
			<g>
				<path fill="#935803" d="M142.669,244.59c-2.718,4.848-3.998,10.412-4.285,15.963c-0.483,9.338,1.821,18.804,6.542,26.875
					c-5.643,0.517-11.286,1.033-16.929,1.55c-4.943,0.453-10.924,1.686-12.464,6.405c1.594,2.379,4.907,2.699,7.77,2.761
					c22.358,0.48,44.747-0.508,66.976-2.955L142.669,244.59z"/>
			</g>
			<path fill="#BF7900" d="M125.879,224.439c-1.648,7.445-4.932,14.509-10.609,19.707l-0.024-0.026c0,0-11.273,7.303-9.825,8.8
				c0.998,1.031,3.668,0,3.668,0c-3.046,2.924-0.576,4.894,2.317,2.509c-4.748,9.638,14.944-5.165,17.137-7.093
				c3.323-3.146,6.307-7.004,8.614-11.247L125.879,224.439z"/>
			<path fill="#935803" d="M207.9,293.974c0,0,45.829,4.954,63.45-39.685s-33.582-138.156-29.316-163.922
				s40.573-30.921,39.308-40.735c-1.264-9.814-26.706-30.66-63.178-27.329s-70.746,32.757-64.386,94.33
				S200.681,293.888,207.9,293.974z"/>
			<path fill="#BF7900" d="M116.663,180.443c0,0,55.592-14.619,97.286,24.961s38.799,79.537,34.166,83.59s-78.176,11.92-82.23,3.933
				c-4.054-7.987-25.48-59.569-60.225-84.828L116.663,180.443z"/>
			<path opacity="0.7" fill="#F5EEDE" enable-background="new    " d="M180.498,223.982c-23.065-21.895-50.378-27.202-70.185-27.575
				l-4.651,11.692c34.745,25.259,56.171,76.842,60.225,84.828c2.391,4.712,28.964,3.906,51.308,1.62
				C216.811,278.801,209.278,251.303,180.498,223.982z"/>
			<g>
				<path fill="#BF7900" d="M228.539,257.681c-4.256-11.563-14.904-20.711-27.095-22.493s-25.339,4.251-31.365,14.998
					c-2.718,4.848-3.998,10.412-4.285,15.963c-0.483,9.338,1.821,18.804,6.542,26.875c-5.643,0.517-11.286,1.033-16.929,1.55
					c-4.943,0.453-10.924,1.686-12.464,6.405c1.594,2.379,4.907,2.699,7.77,2.761c22.358,0.48,44.747-0.508,66.976-2.955l6.27-7.785
					C230.795,282.75,232.794,269.245,228.539,257.681z"/>
			</g>
			<path fill="#BF7900" d="M160.673,219.786c-1.873-7.526-13.551-8.86-14.175,0.015c-0.362,11.07-3.52,22.876-11.936,30.581
				l-0.024-0.026c0,0-11.273,7.303-9.825,8.8c0.998,1.031,3.668,0,3.668,0c-3.047,2.924-0.575,4.894,2.317,2.509
				c-4.747,9.637,14.943-5.164,17.137-7.093C156.847,246.04,163.359,232.278,160.673,219.786z"/>
			<path fill="#BF7900" d="M144.292,153.898c0,0,0.811-3.364-0.367-22.687C141.45,90.622,128.71,82.17,128.71,82.17
				c-3.775,22.135-13.318,42.318-18.295,51.769c-7.955-1.118-17.384-2.067-26.567-2.356c-1.345-11.339-2.765-31.926,1.042-52.38
				c0,0-14.876,3.528-31.228,40.76c-7.784,17.725-8.068,21.16-8.068,21.16c-12.71,20.604-12.527,91.869,23.472,95.403
				c13.345,1.31,52.697,1.767,68.911-47.564c5.525-16.811,6.985-27.793,6.292-35.073L144.292,153.898z"/>
			<path fill="#FDFDFD" d="M119.757,187.18c-23.281-2.645-18.092-35.225,4.3-31.042C141.757,159.332,137.37,188.841,119.757,187.18z
				"/>
			<path fill="#505252" d="M128.249,172.814c-1.096,5.848-5.441,9.263-10.387,8.492c-5.253-0.819-10.399-5.941-9.018-11.419
				c1.314-5.213,5.691-9.158,11.506-8.252C126.576,162.604,129.076,167.951,128.249,172.814z"/>
			<path fill="#FDFDFD" d="M61.455,147.18c23.281,2.645,18.092,35.225-4.3,31.042C39.455,175.029,43.842,145.52,61.455,147.18z"/>
			<path fill="#505252" d="M52.963,161.548c1.096-5.848,5.441-9.263,10.387-8.492c5.253,0.819,10.399,5.941,9.018,11.419
				c-1.314,5.213-5.691,9.158-11.506,8.252C54.636,171.757,52.136,166.41,52.963,161.548z"/>
			<path fill="#6A4019" d="M99.217,204.24c-5.371,3.985-11.557,6.74-18.264,7.371c0.055-3.291,0.732-10.141,1.044-9.828
				c11.494-1.179,13.428-18.009-0.667-19.722c-15.751-1.932-19.513,16.668-3.349,19.523c0,0,0.056,6.844-0.558,10.184
				c-4.293,0.069-8.019-1.524-11.706-3.544c-1.081-0.568-2.448,0.952-1.381,1.79C82.599,226.029,109.662,204.666,99.217,204.24z"/>
			<path fill="#6A4019" d="M62.799,102.071l19.68,1.683c0.17-7.778,0.851-16.176,2.41-24.551
				C84.889,79.203,75.165,81.513,62.799,102.071z"/>
			<path fill="#6A4019" d="M141.201,109.583C136.638,87.435,128.71,82.17,128.71,82.17c-1.427,8.366-3.679,16.453-6.196,23.789
				L141.201,109.583z"/>
			<path opacity="0.5" fill="#935803" enable-background="new    " d="M115.02,192.751c-5.883,2.421-12.522,11.555-7.749,22.392
				c1.861,4.225,5.25,6.759,9.054,7.986c7.354-6.19,14.148-15.062,19.285-27.708C130.726,189.956,122.179,189.803,115.02,192.751z"
				/>
			<path opacity="0.5" fill="#935803" enable-background="new    " d="M38.165,184.842c-0.026,0.011-0.052,0.024-0.078,0.035
				c0.543,11.038,2.622,22.149,6.637,31.238c4.504,0.142,8.903-1.203,11.552-3.491c7.584-6.548,7.52-17.455,3.808-23.346
				C55.566,182.104,46.028,181.605,38.165,184.842z"/>
		</g>
		<g id="Layer_1_10_">
		</g>
	</g>
</g>
<g id="Layer_1">
</g>
</svg>
