<?xml version="1.0" encoding="utf-8"?>
<!-- Generator: Adobe Illustrator 24.2.3, SVG Export Plug-In . SVG Version: 6.00 Build 0)  -->
<svg version="1.1" xmlns="http://www.w3.org/2000/svg" xmlns:xlink="http://www.w3.org/1999/xlink" x="0px" y="0px"
	 viewBox="0 0 314.216 314.215" enable-background="new 0 0 314.216 314.215" xml:space="preserve">
<g id="memorygame_x5F_beaver_x5F_majava">
	<path fill="#FFDDC3" d="M259.563,314.215H54.653C24.594,314.215,0,289.622,0,259.563V54.653C0,24.594,24.594,0,54.653,0h204.91
		c30.059,0,54.653,24.594,54.653,54.653v204.91C314.215,289.622,289.622,314.215,259.563,314.215z"/>
	<path fill="#FFFFFF" d="M276.686,74.235C239.539,15.273,161.127,11.167,96.488,37.77C48.123,57.675-6.454,132.761,32.781,221.852
		c39.571,89.853,163.143,87.006,212.596,44.307C307.722,212.328,307.197,122.664,276.686,74.235z"/>
	<g>
		<g id="muistipeli_x5F_majava_1_">
			<g>
				<path fill="#505252" d="M301.92,212.45c-7.772-15.97-27.263-21.834-44.734-25.033l-5.637,19.366
					c1.065,14.294-10.248,27.081-23.368,32.854c-13.12,5.773-27.85,6.221-42.129,7.477c-14.279,1.256-29.203,3.706-40.483,12.551
					c-3.26,2.557-6.237,5.772-7.34,9.766c-1.743,6.305,1.732,13.165,6.932,17.133c5.2,3.968,11.798,5.578,18.251,6.643
					c21.238,3.505,43.082,2.14,64.196-2.051c24.797-4.923,50.056-14.598,65.88-34.315C303.44,244.439,308.879,226.748,301.92,212.45
					z"/>
			</g>
			<g>
				<path fill="#6A4019" d="M49.706,40.583c4.476,1.034,7.971,5.317,11.255,9.454l-7.086,14.004
					c-3.823,0.652-7.814,0.825-11.099-1.435s-5.617-7.586-4.54-12.964C39.544,43.117,45.23,39.549,49.706,40.583z"/>
			</g>
			<path fill="#505252" d="M129.94,203.654c0,0-16.271,7.329-14.67,9.585c1.103,1.555,4.817,0.736,4.817,0.736
				s-3.361,2.47-2.18,4.077s4.718-0.316,4.718-0.316s-2.55,3.171-1.166,4.232c2.326,1.783,16.813-6.012,16.813-6.012L129.94,203.654
				z"/>
			<path fill="#505252" d="M113.741,189.317c0,0-16.271,7.329-14.67,9.585c1.103,1.555,4.817,0.736,4.817,0.736
				s-3.361,2.47-2.18,4.077s4.718-0.316,4.718-0.316s-2.55,3.171-1.166,4.232c2.326,1.783,16.813-6.012,16.813-6.012
				L113.741,189.317z"/>
			<g>
				<path fill="#6A4019" d="M137.692,43.962c-4.476,1.034-7.971,5.317-11.255,9.454l7.086,14.004
					c3.823,0.652,7.814,0.826,11.099-1.435c3.285-2.26,5.617-7.586,4.54-12.964C147.854,46.495,142.168,42.928,137.692,43.962z"/>
			</g>
			<path fill="#935803" d="M265.304,175.437c-0.502-8.096-6.008-53.05-58.991-77.111c-20.302-9.22-40.182-8.511-56.985-4.134
				c-2.311-11.167-5.906-21.855-10.929-30.739c1.147-0.29,2.255-0.747,3.29-1.46c3.285-2.26,5.617-7.586,4.54-12.963
				c-0.202-1.011-0.52-1.941-0.912-2.803c-2.276-1.988-5.137-2.839-7.626-2.264c-3.455,0.798-6.324,3.533-8.963,6.641
				c-6.544-6.371-14.547-10.284-24.16-10.439c-8.899-0.145-26.37,0.697-43.638,9.938l0.032-0.063
				c-3.284-4.137-6.779-8.42-11.255-9.454c-2.489-0.575-5.35,0.276-7.626,2.264c-0.392,0.862-0.709,1.792-0.912,2.803
				c-1.077,5.377,1.255,10.703,4.54,12.963c0.506,0.349,1.035,0.62,1.572,0.86C35.146,69.95,24.384,86.013,18.47,110.613
				c-16.126,67.08,15.263,67.701,22.884,70.475c7.202,2.621,55.464,4.559,84.141-3.647c-1.299,1.906-2.718,3.735-4.274,5.463
				c-1.609,1.787-3.34,3.441-5.238,4.918c-1.899,1.478-4.274,2.584-5.785,4.495c-3.697,4.675,0.085,11.598,5.981,11.149
				c4.898-0.373,10.151-3.319,14.178-5.939c4.489-2.921,8.513-6.685,11.865-10.854c1.663-2.068,3.182-4.262,4.558-6.543
				c0.257,0.213,0.516,0.425,0.771,0.639c-2.434,6.003-5.764,11.622-10.131,16.472c-1.609,1.787-3.34,3.441-5.238,4.918
				c-1.899,1.478-4.274,2.584-5.785,4.495c-3.697,4.675,0.085,11.598,5.981,11.149c4.898-0.373,10.151-3.319,14.178-5.939
				c4.489-2.921,8.513-6.685,11.865-10.854c1.595-1.985,3.057-4.086,4.389-6.267c11.896,11.823,20.214,22.24,22.961,25.231
				C192.182,226.959,269.48,242.807,265.304,175.437z"/>
			<polygon fill="#FDFDFD" points="55.621,166.713 55.621,175.368 62.344,176.137 62.344,167.939 			"/>
			<polygon fill="#FDFDFD" points="71.415,166.713 71.415,175.368 64.692,176.137 64.692,167.939 			"/>
			<g>
				<path fill="#6A4019" d="M42.742,161.506c14.954,11.731,37.528,10.711,49.253-4.761c1.266-1.67-1.241-4.149-2.911-2.911
					c-6.101,4.521-12.828,7.777-20.311,9.237c-3.858,0.753-8.044,1.014-11.952,0.559c-4.585-0.533-8.218-2.392-12.243-4.503
					C43.141,158.373,41.324,160.393,42.742,161.506L42.742,161.506z"/>
			</g>
			<g>
				<path fill="#6A4019" d="M60.99,149.487c-0.937,4.858,0.069,9.903-0.919,14.725c-0.73,3.562,4.902,4.065,4.746,0.642
					c-0.224-4.923,1.56-9.732,1.393-14.661C66.114,147.33,61.581,146.421,60.99,149.487L60.99,149.487z"/>
			</g>
			<path fill="#505252" d="M79.711,139.43c-1.71,8.747-8.733,13.81-16.788,12.593c-8.554-1.293-16.987-9.031-14.81-17.22
				c2.071-7.794,9.141-13.649,18.611-12.22C76.863,124.113,80.996,132.156,79.711,139.43z"/>
			<path opacity="0.3" fill="#BF7900" enable-background="new    " d="M140.196,166.302c-6.454,6.527-14.461,9.828-23.615,9.341
				c-12.297-0.654-21.014-9.728-22.781-22.942c-0.499-3.729-0.525-7.427,0.215-11.108c2.194-10.914,10.747-17.804,22.661-19.297
				C146.382,118.573,151.903,154.461,140.196,166.302z"/>
			<path opacity="0.3" fill="#BF7900" enable-background="new    " d="M17.749,115.141c-6.178,28.152-3.529,43.826,1.954,52.789
				c5.618-1.302,10.66-4.223,14.998-8.611C45.487,148.411,41.649,117.093,17.749,115.141z"/>
			<path fill="#FDFDFD" d="M114.499,83.753c29.869,3.947,23.065,44.323-5.459,39.415C86.565,119.112,92.136,81.647,114.499,83.753z"
				/>
			<path fill="#505252" d="M103.717,101.996c1.392-7.425,6.908-11.762,13.189-10.783c6.67,1.04,13.203,7.543,11.451,14.499
				c-1.668,6.619-7.226,11.628-14.61,10.478C105.841,114.959,102.666,108.169,103.717,101.996z"/>
			<path fill="#FDFDFD" d="M43.136,79.854c29.869,3.948,23.065,44.323-5.459,39.415C15.202,115.213,20.773,77.748,43.136,79.854z"/>
			<path fill="#505252" d="M32.354,98.097c1.392-7.425,6.908-11.762,13.189-10.783c6.67,1.04,13.203,7.543,11.451,14.499
				c-1.668,6.619-7.226,11.628-14.61,10.478C34.478,111.061,31.303,104.27,32.354,98.097z"/>
			<path fill="#6A4019" d="M221.414,234.104l8.331-10.344c9.085-13.618,11.74-31.561,6.086-46.923s-19.801-27.517-35.998-29.885
				s-33.666,5.648-41.672,19.926c-3.612,6.441-5.312,13.833-5.694,21.208c-0.639,12.366,2.401,24.899,8.632,35.6l57.446,10.721
				C219.501,234.307,220.458,234.209,221.414,234.104z"/>
			<path fill="#505252" d="M221.414,234.104l-60.315-10.408c0.021,0.035-14.935,1.479-22.432,2.166
				c-6.568,0.601-14.514,2.241-16.561,8.51c2.118,3.161,6.519,3.586,10.323,3.668C161.172,238.657,192.823,237.13,221.414,234.104z"
				/>
		</g>
		<g id="Layer_1_15_">
		</g>
	</g>
</g>
<g id="Layer_1">
</g>
</svg>
