<?xml version="1.0" encoding="utf-8"?>
<!-- Generator: Adobe Illustrator 24.2.3, SVG Export Plug-In . SVG Version: 6.00 Build 0)  -->
<svg version="1.1" xmlns="http://www.w3.org/2000/svg" xmlns:xlink="http://www.w3.org/1999/xlink" x="0px" y="0px"
	 viewBox="0 0 314.216 314.215" enable-background="new 0 0 314.216 314.215" xml:space="preserve">
<g id="memorygame_x5F_viper_x5F_kyy">
	<g id="Layer_1_16_">
	</g>
	<path fill="#FFDDC3" d="M259.563,314.215H54.653C24.594,314.215,0,289.622,0,259.563V54.653C0,24.594,24.594,0,54.653,0h204.91
		c30.059,0,54.653,24.594,54.653,54.653v204.91C314.215,289.622,289.622,314.215,259.563,314.215z"/>
	<path fill="#FFFFFF" d="M276.353,75.251C239.205,16.289,160.794,12.183,96.155,38.786C47.789,58.691-6.788,133.777,32.448,222.868
		c39.571,89.853,163.143,87.006,212.596,44.307C307.389,213.344,306.864,123.68,276.353,75.251z"/>
	<path fill="#B2B2B2" d="M314.215,117.122c0,0-45.996-40.564-110.032-19.278c-50.87,16.909-34.385,70.261-28.046,87.163
		c6.622,17.657,5.521,50.461-41.108,40.444c-46.629-10.016-21.517-43.946-4.367-69.952c10.295-15.612,14.478-44.457-14.575-73.233
		C88.21,54.654,34.752,28.842,20.336,43.929s7.019,49.004,32.911,63.858s27.941,33.748,17.544,48.979
		c-14.946,21.895-53.221,104.848,49.04,122.75c132.332,23.166,129.632-62.355,113.384-92.292
		c-17.707-32.625,12.729-46.836,31.983-39.698c14.075,5.218,48.84,31.876,48.84,31.876L314.215,117.122z"/>
	<path fill="#4B4B4A" d="M16.301,62.584c0.026,0,0.026-0.041,0-0.041C16.275,62.543,16.275,62.584,16.301,62.584L16.301,62.584z"/>
	<path opacity="0.5" fill="#4B4B4A" enable-background="new    " d="M314.08,164.336c-3.284,1.034-7.235,0.041-10.28-1.184
		c-3.173-1.276-7.753-3.82-8.277-7.649c3.231-0.363,6.413-1.253,9.43-2.543c0.332,0.235,0.669,0.462,1.012,0.678
		c2.484,1.563,5.26,2.605,8.137,3.068l0.006-2.2c-2.387-0.426-4.684-1.299-6.78-2.574c-1.504-0.915-2.879-2.02-4.097-3.299
		c-1.131-1.188-2.759-2.904-3.008-4.59c-0.204-1.38-2.276-0.793-2.073,0.578c0.283,1.914,1.972,3.806,3.228,5.19
		c0.516,0.568,1.065,1.108,1.641,1.619c-5.038,1.979-10.626,2.715-15.934,1.53c-1.308-0.292-2.587-0.69-3.823-1.196
		c-0.193-0.231-0.448-0.321-0.706-0.306c-0.964-0.433-1.901-0.93-2.8-1.5c-1.952-1.236-4.469-3.015-5.08-5.411
		c1.684-0.603,3.304-1.392,4.813-2.374c0.042-0.028,0.081-0.057,0.117-0.087c0.373,0.181,0.749,0.355,1.132,0.515
		c2.439,1.016,5.093,1.561,7.734,1.534c2.361-0.024,5.639-0.243,6.939-2.574c0.681-1.221-1.176-2.319-1.856-1.098
		c-0.918,1.647-4.096,1.533-5.705,1.491c-2.141-0.056-4.263-0.527-6.25-1.332c-1.946-0.789-3.781-1.936-5.339-3.356
		c-0.775-0.706-1.5-1.477-2.136-2.315c-0.586-0.771-1.699-2.035-1.365-3.061c0.434-1.333-1.641-1.904-2.073-0.578
		c-0.817,2.51,1.865,5.348,3.486,6.953c0.999,0.989,2.101,1.858,3.276,2.611c-3.655,2.111-7.836,3.076-12.054,2.885
		c-2.225-0.101-4.426-0.543-6.526-1.293c-1.082-0.386-2.127-0.865-3.13-1.429c-0.521-0.293-2.109-1.021-2.596-1.715
		c1.274-1.185,2.247-2.621,2.625-4.334c4.365,0.919,10.247,0.97,13.581-2.485c0.967-1.002-0.552-2.542-1.52-1.538
		c-2.93,3.036-8.503,2.677-12.242,1.754c-4.168-1.028-7.911-3.318-10.732-6.586c-0.912-1.056-2.427,0.487-1.52,1.538
		c2.742,3.176,6.373,5.524,10.35,6.77c-0.346,1.441-1.216,2.633-2.344,3.607c-0.137,0.063-0.255,0.158-0.342,0.282
		c-1.7,1.345-3.881,2.24-5.744,2.773c-0.421,0.121-0.845,0.223-1.271,0.313c-0.344-0.093-0.73-0.017-1.011,0.188
		c-3.073,0.477-6.216,0.18-9.172-0.852c1.071-2.34,1.541-4.983,1.232-7.693c3.186-1.18,5.875-3.711,6.66-7.149
		c0.311-1.362-1.761-1.944-2.073-0.578c-0.812,3.556-4.008,5.672-7.41,6.226c-4.084,0.665-8.172-0.686-12.018-1.917
		c-1.051-0.336-1.623,0.92-1.153,1.661c-0.215-0.211-0.452-0.408-0.717-0.586c-1.156-0.777-2.234,1.107-1.085,1.878
		c1.725,1.159,1.271,3.619,0.918,5.343c-0.347,1.697-0.803,3.27-2.015,4.556c-2.458,2.608-6.344,3.589-9.779,3.794
		c-1.375,0.082-1.384,2.258,0,2.175c4.377-0.26,9.339-1.649,12.081-5.377c0.119-0.161,0.228-0.328,0.334-0.497
		c2.289,2.108,3.233,5.186,3.145,8.305c-0.054,1.899-0.463,3.774-1.033,5.578c-0.447,1.416-1.173,3.299-2.91,3.336
		c-0.456,0.01-0.762,0.254-0.917,0.576c-1.235-0.668-2.56-1.158-3.968-1.396c-0.138-0.023-0.267-0.021-0.388-0.001
		c-0.788-3.337-2.947-6.339-6.097-7.751c-1.254-0.562-2.349,1.312-1.085,1.878c2.71,1.216,4.559,3.716,5.167,6.635
		c0.352,1.691,0.272,3.464-0.107,5.142c-0.206,0.911-0.492,1.813-0.861,2.67c-0.282,0.656-0.632,1.687-1.346,1.957
		c-1.285,0.485-0.729,2.588,0.572,2.098c1.913-0.722,2.69-2.834,3.293-4.659c0.612-1.852,0.903-3.823,0.786-5.773
		c4.844,1.057,8.481,5.308,10.931,9.449c2.451,4.143,0.582,10.658-3.385,13.215c-1.835-3.665-4.998-6.617-8.766-8.224
		c-1.273-0.543-1.829,1.561-0.572,2.098c4.566,1.948,7.964,6.372,8.768,11.307c0.846,5.196-1.382,10.573-5.353,13.881
		c-1.069,0.891,0.46,2.422,1.52,1.538c2.966-2.471,4.972-5.951,5.757-9.704c0.061,0.035,0.127,0.067,0.2,0.092
		c5.773,2.044,9.734,8.215,9.196,14.385c-0.51,5.845-5.108,10.826-10.648,12.202c-0.204-3.839-2.093-7.515-5.599-9.458
		c-1.214-0.673-2.3,1.205-1.085,1.878c4.399,2.438,5.518,7.982,3.736,12.464c-1.984,4.991-6.738,8.029-11.603,9.629
		c-1.31,0.431-0.75,2.532,0.572,2.098c4.036-1.327,7.884-3.534,10.556-6.796c4.508,3.861,6.347,10.129,4.346,15.812
		c-0.35,0.995-0.802,1.913-1.338,2.759c-0.447,0.119-0.722,0.579-0.735,1.049c-2.905,3.771-7.595,5.917-12.27,6.848
		c-3.02,0.601-6.189,0.533-9.032-0.655c1.963-1.214,3.281-2.989,3.909-5.33c0.721-2.689,1.045-5.932-0.172-8.503
		c-0.598-1.262-2.452-0.16-1.856,1.098c0.975,2.06,0.497,5.036-0.135,7.148c-0.74,2.475-2.52,3.761-4.812,4.683
		c-4.737,1.905-9.962,2.264-14.913,1.057c-1.345-0.328-1.918,1.77-0.572,2.098c4.857,1.184,10.051,1.022,14.793-0.583
		c-0.051,0.169-0.059,0.362-0.011,0.573c0.774,3.356-0.326,6.875-2.456,9.502c-2.31,2.848-5.703,4.448-9.229,5.108
		c-6.001,1.123-13.595-0.158-17.808-4.991c3.57-0.795,6.877-2.798,8.66-6.134c0.658-1.232-1.197-2.331-1.856-1.098
		c-1.857,3.475-5.711,5.227-9.495,5.428c-4.845,0.257-9.495-1.773-13.832-3.71c-1.254-0.56-2.35,1.314-1.085,1.878
		c3.715,1.66,7.658,3.393,11.74,3.89c-0.983,2.984-4.143,4.81-6.81,6.038c-3.126,1.44-6.609,2.109-10.037,1.909
		c-3.252-0.19-6.456-1.217-9.229-2.943c-2.296-1.428-4.856-3.57-5.526-6.347c3.9,0.372,7.88-0.352,11.332-2.302
		c1.208-0.683,0.125-2.562-1.085-1.878c-8.778,4.959-18.906,0.522-25.289-6.251c-0.957-1.015-2.476,0.525-1.52,1.538
		c2.981,3.163,6.551,5.833,10.583,7.429c-0.4,1.667-2.336,2.593-3.744,3.272c-1.431,0.69-2.979,1.149-4.54,1.416
		c-3.186,0.545-6.518,0.183-9.54-0.957c-5.803-2.19-10.613-8.158-10.057-14.577c2.923,1.281,6.191,1.826,9.528,1.423
		c1.357-0.164,1.373-2.341,0-2.175c-3.227,0.39-6.519-0.121-9.429-1.521c-0.22-0.365-0.651-0.574-1.057-0.559
		c-0.65-0.375-1.278-0.794-1.876-1.264c-3.318-2.612-5.472-6.451-6.182-10.621c-0.234-1.377-2.307-0.793-2.073,0.578
		c0.698,4.105,2.715,7.704,5.537,10.418c-5.823,1.433-12.282-0.182-16.593-4.478c-2.286-2.278-3.728-5.198-3.456-8.496
		c0.242-2.926,1.727-5.612,3.831-7.587c2.707,2.871,6.45,4.69,10.389,5.051c1.378,0.126,1.369-2.05,0-2.175
		c-4.572-0.42-8.802-3.265-10.962-7.363c-2.329-4.419-1.934-9.944,0.708-14.12c0.748-1.183-1.112-2.275-1.856-1.098
		c-1.734,2.741-2.59,5.983-2.518,9.203c-2.772-0.694-5.542-1.7-7.972-3.233c-1.09-0.688-2.108-1.556-2.7-2.732
		c-0.656-1.305-0.679-2.835-0.565-4.262c0.422-5.315,2.9-11.181,8.171-13.137c0.932,3.169,3.034,5.935,6.175,7.381
		c1.25,0.576,2.344-1.299,1.085-1.878c-4.647-2.139-6.583-7.494-5.256-12.336c1.43-5.222,5.882-8.756,10.825-10.345
		c1.314-0.422,0.753-2.523-0.572-2.098c-2.368,0.761-4.631,1.923-6.58,3.452c-4.021-3.556-5.303-9.154-4.241-14.377
		c0.281-1.379,0.654-2.833,1.317-4.08c0.692-1.302,1.867-2.149,3.069-2.936c2.448-1.603,5.126-2.732,7.96-3.417
		c0.162-0.039,0.295-0.104,0.404-0.188c0.974,1.29,2.15,2.443,3.452,3.422c-2.426,3.617-3.285,8.311-1.43,12.357
		c0.581,1.269,2.435,0.165,1.856-1.098c-1.552-3.386-0.503-7.388,1.545-10.331c0.407-0.133,0.708-0.55,0.756-0.993
		c2.389-2.888,5.68-4.886,8.858-6.761c1.195-0.705,0.114-2.586-1.085-1.878c-3.3,1.947-6.659,4.06-9.185,6.991
		c-3.413-2.529-5.881-6.439-5.415-10.876c0.508-4.837,4.695-7.683,9.018-8.789c0.05-0.013,0.097-0.029,0.142-0.047
		c1.307,1.405,2.896,2.542,4.66,3.309c-0.105,2.916,0.82,5.835,2.744,8.074c0.91,1.058,2.425-0.486,1.52-1.538
		c-1.627-1.892-2.279-4.393-2.088-6.843c0.047-0.157,0.065-0.325,0.05-0.49c0.095-0.759,0.266-1.509,0.519-2.229
		c1.133-3.224,3.726-5.695,6.642-7.295c0.543-0.298,0.627-0.836,0.447-1.282c0.471-0.461,0.576-1.302-0.169-1.692
		c-3.65-1.911-7.227-4.398-9.263-8.117c-1.085-1.982-0.919-3.997-0.731-6.183c0.19-2.203,0.636-4.363,1.876-6.22
		c0.777-1.163-1.085-2.253-1.856-1.098c-1.352,2.025-1.873,4.39-2.12,6.788c-0.255,2.475-0.432,4.889,0.656,7.189
		c0.022,0.046,0.045,0.092,0.068,0.138c-5.374,0.353-11.017-1.588-14.602-5.76c-3.349-3.897-2.746-10.133,1.618-13.026
		c0.119-0.079,0.213-0.17,0.287-0.269c0.563,0.55,1.174,1.07,1.826,1.559c3.341,2.509,7.451,4.233,11.65,3.318
		c1.352-0.295,0.78-2.392-0.572-2.098c-3.491,0.761-6.918-0.853-9.698-2.879c-2.94-2.143-4.983-4.978-4.991-8.759
		c-0.003-1.4-2.153-1.402-2.15,0c0.006,2.831,0.952,5.237,2.523,7.277c-2.325,1.557-3.871,3.948-4.493,6.555
		c-4.29-0.503-8.946-2.649-11.516-6.258c-2.636-3.702-0.716-8.873,1.52-12.46c0.167,0.119,0.334,0.236,0.501,0.35
		c3.289,2.237,7.138,3.493,11.083,3.745c1.382,0.088,1.376-2.087,0-2.175c-3.341-0.213-6.578-1.271-9.417-3.067
		c-2.638-1.669-5.836-4.343-6.016-7.739c-0.074-1.393-2.224-1.401-2.15,0c0.162,3.069,2.031,5.584,4.294,7.549
		c-2.714,4.246-4.797,10.425-1.672,14.896c0.113,0.162,0.231,0.321,0.35,0.478c-1.522,1.195-2.809,2.518-3.356,4.498
		c-0.171,0.619-0.328,1.264-0.431,1.912c0.677,0.408,1.339,0.817,1.981,1.231c0.019-1,0.346-2.069,0.617-2.893
		c0.451-1.372,1.508-2.299,2.617-3.136c3.005,2.943,7.205,4.684,11.295,5.21c-0.101,2.326,0.522,4.688,1.963,6.682
		c1.065,1.474,2.373,2.739,3.841,3.789c-2.155,1.985-3.388,4.837-3.35,7.785c1.094,2.196,1.86,4.407,2.328,6.616
		c1.355,1.928,3.157,3.612,5.002,4.94c-2.69,1.858-4.68,4.565-5.107,8.096c-0.334,2.767,0.296,5.379,1.556,7.674
		c-2.595,0.65-5.104,1.668-7.403,3.05c-1.968,2.984-4.272,6.913-6.58,11.534c-0.242,3.518,0.425,7.084,2.135,10.088
		c-2.77,0.307-5.58,1.495-7.905,3.251c-0.567,1.54-1.112,3.115-1.63,4.721c2.4-3.422,6.879-5.88,10.98-5.874
		c0.445,0.537,0.933,1.045,1.464,1.521c-1.992,1.987-3.496,4.44-4.205,7.313c-0.399,1.617-0.488,3.295-0.286,4.923
		c-2.542,0.905-4.551,2.513-6.079,4.527c-1.519-1.303-2.824-2.905-3.394-4.867c-0.138-0.476-0.223-0.959-0.265-1.443
		c-0.35,1.336-0.677,2.687-0.978,4.051c0.822,1.535,2.002,2.878,3.331,3.98c0.039,0.033,0.08,0.061,0.12,0.087
		c-1.523,2.687-2.365,5.844-2.612,8.949c-0.239,3.004,0.558,5.64,2.676,7.615c-3.586,3.633-5.348,9.231-2.778,13.99
		c1.084,2.007,2.912,3.758,4.676,5.264c-1.04,1.307-1.694,2.755-2.017,4.258c0.605,1.251,1.265,2.489,1.984,3.71
		c-0.35-2.299,0.094-4.654,1.705-6.613c1.65,1.225,3.432,2.133,5.474,2.48c0.126,1.004,0.382,1.999,0.785,2.963
		c1.714,4.105,5.41,7.161,9.52,8.83c-0.376,1.064-0.549,2.139-0.545,3.194c-3.366,0.761-6.896,0.14-9.907-1.495
		c1.168,1.246,2.418,2.465,3.754,3.654c2.107,0.429,4.291,0.453,6.414,0.007c0.652,2.737,2.487,5.168,5.041,6.675
		c1.23,0.726,2.572,1.402,3.978,1.965c-0.09,0.554-0.103,1.1-0.053,1.638c0.797,0.402,1.61,0.797,2.441,1.186
		c-0.225-0.676-0.342-1.373-0.293-2.092c3.076,0.917,6.328,1.172,9.294,0.13c0.676,0.688,1.405,1.323,2.179,1.893
		c3.251,2.397,7.283,3.639,11.318,3.705c0.584,1.815,1.548,3.351,2.767,4.639c1.572,0.345,3.179,0.674,4.826,0.985
		c-2.357-1.273-4.323-3.125-5.337-5.71c1.242-0.116,2.47-0.344,3.661-0.687c2.784-0.803,6.934-2.469,7.757-5.622
		c0.051,0.015,0.1,0.032,0.151,0.046c0.514,0.146,1.033,0.272,1.555,0.379c0.816,5.556,6.734,9.279,11.624,10.823
		c0.593,0.187,1.192,0.346,1.796,0.48c-2.333,1.358-4.915,2.146-7.575,2.479c2.013,0.274,3.992,0.521,5.936,0.741
		c1.602-0.637,3.127-1.477,4.529-2.547c0.087-0.066,0.159-0.14,0.22-0.218c2.506,0.184,5.036-0.059,7.474-0.69
		c0.014,0.02,0.027,0.04,0.042,0.06c1.687,2.188,3.947,3.747,6.453,4.754c5.733,0.161,11.109,0.054,16.148-0.295
		c2.908-1.329,5.372-3.473,6.692-6.605c0.007-0.017,0.012-0.033,0.018-0.049c4.385,0.026,8.89-1.108,12.374-3.715
		c1.11,0.566,2.257,1.045,3.431,1.435c0.565,1.872,0.39,3.685-0.402,5.392c0.874-0.235,1.733-0.479,2.577-0.733
		c0.347-1.304,0.414-2.664,0.191-4.001c3.262,0.736,6.66,0.812,9.971,0.203c4.295-1.959,8.108-4.206,11.48-6.685
		c0.815-1.324,1.342-2.858,1.463-4.625c0.189-2.764-0.857-5.517-2.688-7.546c1.623-1.063,3.026-2.396,4.169-3.915
		c3.77,1.17,8.031,1.88,11.596,0.169c1.973-3.31,3.544-6.759,4.764-10.28c-0.325-1.627-0.981-3.206-1.881-4.566
		c-0.037-0.057-0.078-0.106-0.121-0.153c0.716-1.064,1.263-2.268,1.592-3.599c0.583-2.359,0.355-4.575-0.399-6.615
		c0.03-0.013,0.06-0.026,0.09-0.042c1.44-0.752,2.867-1.579,4.09-2.642c0.063-1.15,0.098-2.296,0.107-3.437
		c-1.158,1.784-3.255,3.133-5.195,4.155c-1.498-2.684-3.845-5.002-6.277-6.866c1.197-1.39,2.175-2.978,2.868-4.693
		c0.619-1.531,0.96-3.125,1.05-4.725c3.002,0.18,5.797,2.887,7.32,5.606c-0.112-1.422-0.262-2.827-0.447-4.211
		c-1.901-2.027-4.341-3.541-6.905-3.589c-0.166-1.938-0.691-3.844-1.534-5.615c0.136-0.043,0.271-0.116,0.399-0.226
		c1.782-1.532,3.472-3.402,4.503-5.483c-0.376-1.07-0.771-2.106-1.182-3.104c-0.428,2.712-2.645,5.143-4.748,6.966
		c-0.236-0.367-0.485-0.727-0.75-1.077c-1.913-2.522-4.458-4.416-7.426-5.467c-0.169-0.06-0.325-0.076-0.466-0.06
		c0.122-1.403,0.076-2.824-0.157-4.228c-0.146-0.883-0.366-1.744-0.653-2.578c1.935-1.142,3.375-2.868,4.328-4.874
		c2.031,0.259,3.712,1.661,5.186,2.992c0.387,0.349,0.778,0.703,1.162,1.066c-0.747-1.525-1.388-3.008-1.926-4.448
		c-1.113-0.764-2.305-1.358-3.645-1.652c0.793-2.674,0.982-5.887-0.192-8.436c-0.33-0.717-0.726-1.428-1.168-2.125
		c1.022-0.215,1.952-0.714,2.792-1.358c0.101-1.252,0.296-2.451,0.579-3.596c-0.029,0.034-0.058,0.069-0.088,0.103
		c-1.199,1.394-2.65,2.868-4.607,2.788c-0.049-0.002-0.096-0.001-0.141,0.003c-0.897-1.137-1.879-2.202-2.856-3.141
		c-0.519-0.499-1.064-0.971-1.633-1.408c3.529-1.094,4.468-6.492,4.782-9.703c0.104-1.061,0.104-2.144-0.007-3.215
		c0.974-0.229,1.906-0.556,2.786-0.971c2.413,2.313,4.697,5.408,4.726,8.866c0.561-0.829,1.179-1.611,1.845-2.348
		c-0.696-2.887-2.522-5.518-4.62-7.632c1.603-1.091,2.968-2.494,4.02-4.109c3.235,1.227,6.766,1.604,10.185,1.134
		c0.302,1.363,0.381,2.837-0.016,4.132c0.76-0.302,1.536-0.573,2.323-0.813c0.156-1.211,0.072-2.479-0.193-3.722
		c0.488-0.12,0.974-0.254,1.453-0.409c1.641-0.533,3.433-1.319,5.012-2.384c1.116,1.517,3.374,2.498,4.881,3.178
		c1.712,0.772,3.494,1.331,5.321,1.691c-0.132,0.344-0.342,0.642-0.61,0.874c0.777,0.16,1.543,0.35,2.297,0.571
		c0.203-0.343,0.363-0.716,0.466-1.115c0.08,0.009,0.159,0.021,0.238,0.029c2.849,0.284,5.742,0.055,8.509-0.661
		c0.636,2.632,3.091,4.598,5.186,6.071c1.092,0.768,2.256,1.438,3.466,2.009c-0.026,0.051-0.048,0.096-0.063,0.118
		c-0.132,0.195-0.279,0.375-0.439,0.548c-0.322,0.349-0.686,0.657-1.073,0.931c-0.107,0.076-0.218,0.145-0.327,0.217
		c0.653,0.406,1.311,0.82,1.974,1.242c0.223-0.176,0.441-0.358,0.648-0.554c0.486-0.461,0.992-1.029,1.31-1.653
		c0.943,0.346,1.905,0.637,2.877,0.868c2.388,0.569,4.81,0.78,7.219,0.687c0.42,3.014,2.505,5.325,4.998,7.041
		c-0.703,1.301-1.33,2.634-1.577,4.061c0.691,0.488,1.372,0.972,2.04,1.449c-0.04-1.61,0.627-2.998,1.376-4.382
		c0.803,0.441,1.616,0.829,2.403,1.165c3.399,1.454,7.699,2.501,11.443,1.589L314.08,164.336z M91.375,123.286
		c0.043-0.022,0.083-0.045,0.121-0.07c2.065,2.883,5.076,5.065,8.147,6.762c-3.263,1.94-5.985,4.889-7.166,8.578
		c-0.111,0.347-0.2,0.698-0.279,1.052c-2.97-1.461-5.254-4.246-6.117-7.486c-0.503-1.89-0.626-4.009,0.65-5.613
		C87.916,125.018,89.717,124.121,91.375,123.286z M76.107,129.02c-0.764-3.019,0.481-6.369,2.911-8.237
		c2.506,1.369,5.331,2.187,8.165,2.42c-0.874,0.619-1.673,1.335-2.319,2.211c-1.495,2.031-1.499,4.609-0.933,6.985
		c0.368,1.545,1.01,2.996,1.868,4.298c-0.906,0.272-1.792,0.612-2.638,1.023C80.1,135.728,77.025,132.646,76.107,129.02z
		 M65.882,239.011c-1.896-0.389-3.584-1.5-5.046-2.749c-1.66-1.418-3.541-3.045-4.672-4.94c-2.412-4.042-0.621-8.851,2.484-11.883
		c2.6,1.678,5.716,2.74,8.662,3.456c0.182,0.044,0.349,0.043,0.5,0.009c0.265,1.714,0.801,3.388,1.619,4.94
		c0.315,0.598,0.668,1.17,1.054,1.714C67.826,231.971,66.089,235.446,65.882,239.011z M87.238,265.482
		c-0.24-0.284-0.656-0.427-1.051-0.373c-1.203-0.458-2.366-1.01-3.458-1.597c-1.902-1.022-3.57-2.393-4.35-4.485
		c-0.649-1.741-0.657-3.584-0.086-5.321c0.627,0.18,1.258,0.33,1.887,0.445c3.187,0.582,6.456,0.418,9.551-0.562
		c0.116-0.037,0.217-0.087,0.304-0.147c0.503,0.369,1.024,0.712,1.561,1.029c-0.586,4.16,0.747,8.285,3.225,11.581
		C92.325,266.642,89.716,266.29,87.238,265.482z M163.503,282.635c-4.444,0.003-8.983-1.425-12.021-4.769
		c1.108-0.405,2.189-0.892,3.231-1.457c2.775-1.507,5.478-3.583,6.474-6.731c0.041-0.131,0.058-0.254,0.056-0.369
		c0.419,0.002,0.839-0.01,1.26-0.039c3.235,4.397,8.495,6.533,13.79,7.036C173.821,280.875,168.476,282.633,163.503,282.635z
		 M217.319,265.067c-0.861,3.4-3.668,5.353-6.738,6.586c-5.709,2.293-12.259,2.097-17.826-0.491
		c0.732-0.747,1.396-1.579,1.973-2.504c1.847-2.955,2.587-6.519,1.797-9.942c-0.005-0.023-0.013-0.045-0.019-0.067
		c5.797,2.879,12.951,1.566,18.575-1.382C217.096,259.301,218.044,262.205,217.319,265.067z M233.107,249.687
		c-3.121,2.353-7.155,1.713-10.694,0.657c1.256-2.238,2-4.758,2.127-7.356c3.565-0.022,7.093-1.382,9.564-3.846
		C236.057,242.456,236.516,247.117,233.107,249.687z M235.057,233.227c-1.211,4.894-5.846,7.536-10.558,7.584
		c-0.043-0.501-0.107-1.002-0.198-1.503c-0.692-3.808-2.773-7.333-5.733-9.778c-0.02-0.017-0.041-0.031-0.062-0.046
		c0.56-0.905,1.038-1.877,1.415-2.921c0.339-0.938,0.563-1.911,0.678-2.894c2.783-0.54,5.336-1.881,7.428-3.759
		C232.116,222.946,236.437,227.65,235.057,233.227z M223.602,146.731c-0.616-2.385-1.857-4.573-3.835-6.129
		c-0.015-0.012-0.031-0.022-0.046-0.033c0.434-1.265,0.668-2.617,0.827-3.918c0.226-1.846-0.074-3.712-1.245-5.064
		c0.09,0.064,0.196,0.118,0.318,0.157c4.29,1.372,8.798,2.722,13.316,1.89C233.369,139.754,229.507,145.234,223.602,146.731z"/>
	<path fill="#6B6762" d="M314.19,126.002c-0.042-0.027-0.083-0.056-0.125-0.083c0.041-0.575,0.062-1.14,0.056-1.681
		c-0.038-3.035-0.713-6.252-2.17-8.942c-1.573-1.207-3.939-2.926-7.036-4.896c-1.446,0.051-2.909,0.642-4.227,1.912
		c-1.236,1.191-2.091,2.736-2.79,4.363c-2.999-1.515-6.042-2.955-9.137-4.309c-1.089-5.381-3.82-10.364-8.596-13.146
		c-3.373-1.965-7.389-0.182-8.564,3.556c-0.288,0.917-0.52,1.858-0.721,2.811c-4.162-1.328-8.397-2.49-12.677-3.412
		c-0.075-0.194-0.148-0.385-0.224-0.582c-1.375-3.531-3.67-6.61-7.09-8.238c-2.953-1.407-6.221-0.877-8.06,2.144
		c-0.85,1.395-1.426,2.91-1.774,4.476c-4.709-0.149-9.415,0.129-14.08,0.908c-0.615-0.58-1.27-1.109-2.038-1.554
		c-0.763-0.443-1.561-0.831-2.339-1.245c-2.168-1.154-4.372-2.631-6.903-2.446c-2.303,0.168-5.26,1.702-5.649,4.407
		c-0.236,1.641-0.427,3.141,0.13,4.738c0.166,0.476,0.355,0.945,0.55,1.412c-3.441,1.788-6.676,3.967-9.654,6.469
		c-5.137-1.939-10.931-2.589-15.808,0.37c-3.083,1.871-3.573,5.498-2.24,8.659c0.803,1.902,2.321,3.92,4.248,5.717
		c0.361,0.336,0.745,0.656,1.126,0.977c-1.058,2.031-1.993,4.141-2.775,6.333c-0.675,1.894-1.164,3.756-1.503,5.594
		c-1.063,0.158-2.035,0.357-3.117,0.678c-1.247,0.37-2.451,0.788-3.565,1.497c-0.412,0.261-3.298,2.509-1.745,1.327
		c-2.217,1.686-3.856,5.027-2.005,7.751c1.437,2.115,8.733,7.999,11.01,8.397c0.237,0.042,0.47,0.074,0.705,0.108
		c0.82,3.152,1.831,6.287,2.871,9.434c-3.318,1.403-5.995,3.669-7.934,7c-1.587,2.728-0.517,6.059,1.92,7.753
		c1.365,0.949,3.39,1.972,4.935,2.421c1.853,0.539,4.03,0.421,6.047,0.137c0.101,0.535,1.311,10.169,1.222,14.46
		c-2.89-0.381-5.78-0.127-8.895,0.35c-4.382,0.671-6.212,7.798-2.775,10.657c1.315,1.094,2.615,2.202,3.902,3.329
		c1.441,1.261,2.868,2.202,4.429,3.105c-1.777,4.309-4.32,8.179-7.8,11.303c-0.125-0.141-2.74-2.72-4.139-3.639
		c-1.752-1.151-3.25-1.804-5.38-2.001c-0.666-0.062-1.318-0.122-1.985-0.066c-2.45,0.208-6.872,3.771-4.079,10.055
		c0.447,1.005,0.83,1.969,1.306,2.89c-5.126,1.489-10.323,2.309-15.547,2.568c-0.062-1.091-0.237-2.151-0.523-3.092
		c-0.992-3.262-3.267-6.146-6.654-6.772c-6.456-1.194-7.673,9.031-7.701,9.236c-4.157-0.524-8.298-1.303-12.4-2.292
		c0.575-1.909,0.802-3.891,0.616-5.654c-0.278-2.638-1.132-4.886-3.451-6.308c-2.051-1.258-5.051-1.463-7.099-0.037
		c-1.483,1.032-2.888,2.082-4.08,3.467c-0.654,0.76-1.42,1.734-2.092,2.779c-2.787-1.635-5.291-3.646-7.545-6.172
		c0.653-0.441,1.264-0.91,1.775-1.419c2.657-2.649,4.589-7.37,2.39-10.971c-2.127-3.482-5.806-4.937-9.681-4.419
		c-1.085,0.145-2.1,0.437-3.135,0.754c-0.868-3.65-0.934-7.417,0.088-11.386c0.608,0.085,1.475,0.205,1.622,0.22
		c1.742,0.171,3.55,0.232,5.281,0c4.73-0.633,8.825-3.95,8.052-9.253c-0.541-3.708-4.218-6.09-7.386-7.348
		c2.01-3.374,4.178-6.661,6.39-9.924c0.027,0.006,0.053,0.016,0.081,0.021c2.127,0.413,4.25,0.88,6.393,1.19
		c2.067,0.299,3.937,0.009,5.684-0.77c1.48-2.405,3.018-4.797,4.563-7.158c-0.118-0.895-0.354-1.766-0.69-2.516
		c-1.237-2.771-3.71-4.235-6.396-5.248c2.381-3.85,4.574-7.808,6.41-11.97c0.212-0.001,0.425-0.007,0.642-0.034
		c1.912-0.233,3.707-0.646,5.578-1.051c0.138-0.022,0.226-0.036,0.313-0.051c0.351-0.047,0.806-0.109,1.369-0.186
		c1.577-0.441,3.064-1.364,4.201-2.56c0.507-0.533,0.911-1.111,1.229-1.715c0.322-1.546,0.569-3.141,0.745-4.776
		c-0.245-1.486-0.898-2.934-1.92-4.173c-1.545-1.873-4.18-2.82-6.922-3.102c0.216-1.754,0.325-3.514,0.304-5.273
		c1.982-0.927,4.011-2.395,5.39-3.825c0.556-0.576,1.179-1.302,1.766-2.098c-0.897-3.51-2.188-7.11-3.92-10.771
		c-1.457,0.159-2.879,0.764-4.275,1.292c-0.791,0.299-1.552,0.676-2.307,1.063c-1.329-2.997-2.974-5.908-4.796-8.668
		c0.741-1.276,1.21-2.78,1.35-4.439c0.13-1.552,0.137-3.195-0.007-4.84c-2.002-2.433-4.208-4.873-6.672-7.313
		c-1.824-1.807-3.762-3.605-5.788-5.385c-1.706,0.666-3.098,2.08-3.598,4.358c-0.11,0.501-0.194,1.001-0.265,1.502
		c-1.969-1.436-4.025-2.771-6.161-3.998c0.525-3.272,0.377-7.278-0.813-10.574c-2.598-1.923-5.267-3.804-7.998-5.615
		c-13.58-11.23-42.225-20.492-42.352-20.547c-12.755-3.638-23.44-3.661-28.776,1.923c-1.493,1.562-2.596,3.329-3.355,5.253
		c0.401,4.183,3.468,7.977,6.243,11.009c7.418,8.104,16.915,14.159,27.177,17.546c4.869,1.607,10.641,3.264,15.759,2.18
		c1.432-0.303,15.407,15.761,19.433,15.113c2.262-0.364,4.381-0.735,6.15-1.645c2.322,1.395,4.614,2.843,6.768,4.454
		c-0.429,0.192-0.841,0.378-1.225,0.549c-1.901,0.846-3.681,1.338-5.348,2.651c-2.79,2.199-3.051,5.94-0.042,8.128
		c3.563,2.59,8.545,3.208,12.76,3.756c2.125,0.276,4.013-0.612,5.445-2.065c1.591,2.693,2.846,5.517,3.5,8.288
		c0.07,0.3,0.113,0.604,0.169,0.906c-0.813-0.124-2.191-0.318-2.483-0.318c-0.685,0-1.438,0.134-2.121,0.197
		c-2.412,0.223-4.388,0.477-6.486,1.8c-3.316,2.092-4.704,6.71-2.657,10.275c2.148,3.74,6.137,5.965,10.118,7.043
		c-1.144,2.527-2.404,4.931-3.604,7.113c-0.26,0.472-0.538,0.936-0.807,1.405c-0.951-0.408-1.943-0.734-2.902-1.039
		c-2.237-0.71-4.244-0.353-6.479,0.016c-1.347,0.222-2.999,1.643-3.627,2.857c-0.812,1.573-0.899,3.066-0.634,4.819
		c0.283,1.864,0.688,3.484,1.795,5.064c0.404,0.576,0.8,1.159,1.206,1.734c0.358,0.506,0.697,0.933,1.035,1.322
		c-2.229,3.21-4.458,6.429-6.577,9.704c-0.337-0.243-0.677-0.478-1.027-0.68c-2.486-1.427-5.234-2.34-8.081-1.535
		c-2.719,0.769-4.466,2.465-5.525,5.206c-1.568,4.06,0.418,8.363,3.001,11.43c0.832,0.989,1.69,1.945,2.601,2.805
		c-0.909,2.432-1.681,4.93-2.254,7.52c-0.055,0.25-0.097,0.501-0.146,0.752c-3.553,0.293-7.004,1.333-9.578,4.134
		c-1.946,2.118-2.4,5.275-1.018,7.846c2.461,4.58,7.21,6.51,11.894,7.583c0.062,0.014,0.125,0.02,0.188,0.033
		c0.898,2.785,2.057,5.507,3.428,8.119c-0.47,0.275-8.5,8.589-1.817,17.139c3.312,4.237,14.33-0.227,15.085-0.668
		c0.891,0.732,5.404,3.789,6.806,4.542c-1.51,2.089-2.553,4.49-2.622,7.195c-0.08,3.138,2.177,6.166,5.08,6.986
		c3.492,0.987,6.976-0.141,10.041-1.842c2.7-1.499,5.122-3.1,6.944-5.616c0.668,0.161,9.445,2.086,13.213,2.628
		c-0.134,0.493-0.256,0.993-0.346,1.512c-0.27,1.539-0.606,3.137-0.414,4.686c0.325,2.607,2.09,5.614,4.819,6.102
		c3.072,0.549,5.905-0.301,8.381-2.212c1.744-1.345,2.888-2.433,4.174-4.31c0.588-0.858,1.133-1.743,1.655-2.645
		c0.466-0.806,0.784-1.654,0.988-2.516c4.277-0.346,8.686-0.952,13.054-1.902c0.214,1.291,0.472,2.574,0.841,3.827
		c1.221,4.149,4.576,7.179,8.918,6.281c6.324-1.308,6.57-10.427,7.178-15.586c0.02-0.172,0.015-0.338,0.024-0.507
		c3.34-1.761,6.466-3.867,9.269-6.38c2.34,1.557,4.715,3.016,7.529,3.487c4.678,0.784,8.311-2.643,7.436-7.622
		c-0.641-3.641-2.778-6.524-5.203-9.127c2.035-4.344,3.413-9.034,4.281-13.877c2.312,0.236,4.601,0.274,6.923-0.463
		c4.627-1.469,6.468-7.553,2.928-11.245c-2.429-2.532-5.535-3.835-8.685-5.065c-0.126-5.065-0.622-10.062-1.359-14.785
		c0.857-0.311,1.709-0.684,2.569-1.148c2.67-1.441,5.822-4.065,4.76-7.653c-1.401-4.732-7.556-6.661-11.721-7.853
		c-0.093-0.027-0.186-0.04-0.279-0.063c-1.257-3.745-2.456-7.501-3.236-11.378c2.362,0.355,4.713,0,6.964-1.217
		c3.599-1.946,4.737-7.136,2.757-10.66c-1.395-2.484-7.097-6.347-7.267-6.482c0.885-1.787,4.31-6.601,4.927-7.308
		c1.093,0.935,2.219,1.832,3.395,2.642c1.623,1.117,4.791,2.284,6.806,2.041c3.104-0.374,5.011-2.206,5.358-5.492
		c0.217-2.06-0.88-5.359-1.961-7.008c-0.294-0.449-0.626-0.875-0.938-1.313c4.125-1.739,8.546-2.73,13.095-3.148
		c0.63,3.215,2.036,6.387,3.457,9.08c1.91,3.618,8.193,4.238,9.973,0.052c1.046-2.46,1.916-4.876,2.476-7.39
		c1.77,0.408,14.316,1.874,14.865,2.031c-0.037,0.88-0.086,7.888,0.7,10.074c1.06,2.948,4.616,5.414,7.592,3.246
		c1.966-1.432,6.073-7.408,6.413-7.848c0.262,0.015,9.123,3.299,12.988,5.166c-0.399,1.227-0.746,2.487-1.091,3.709
		c-1.563,5.539-1.082,12.499,5.832,13.205c3.757,0.383,7.288-2.813,9.552-5.586c0.662-0.81,1.348-1.655,2.004-2.53
		c2.019,1.206,4.012,2.457,5.996,3.724L314.19,126.002z M113.777,120.081c0.001,0.003,0.001,0.006,0.002,0.009
		c-0.122-0.019-0.238-0.041-0.362-0.058C113.559,120.052,113.67,120.067,113.777,120.081z M94.013,197.538
		c0.008,0.001,0.016,0.002,0.024,0.003C94.027,197.54,94.022,197.539,94.013,197.538L94.013,197.538z"/>
	<path fill="#4B4B4A" d="M86.17,74.452c-2.396-8.887-11.853-12.374-20.745-11.443c-6.653,0.696-16.084,8.162-14.532,20.952
		C52.457,96.86,67.7,101.173,75.32,97.625C84.926,93.15,88.138,81.752,86.17,74.452z"/>
	<path fill="#D5B662" d="M82.795,75.651c-1.937-7.187-9.584-10.006-16.773-9.252c-5.38,0.563-13.005,6.599-11.751,16.941
		c1.265,10.43,13.591,13.916,19.75,11.048C81.789,90.771,84.387,81.554,82.795,75.651z"/>
	<path fill="#4B4B4A" d="M74.077,78.931c0.938-4.839-0.81-7.437-3.18-7.68c-1.773-0.182-5.404,2.944-7.225,9.753
		c-1.836,6.867,1.207,10.37,3.712,9.142C70.543,88.597,73.307,82.906,74.077,78.931z"/>
	<g>
		<path fill="#4B4B4A" d="M44.117,83.991c1.104-0.312,0.402-2.176-0.807-2.178c-4.417-0.007-8.843-0.757-13.212-2.519
			c-2.252-0.908-4.554-2.132-6.523-3.574c-1.689-1.237-2.924-2.616-4.094-4.124c1.03,2.26,2.248,4.538,3.632,6.805
			C29.054,83.401,37.079,85.984,44.117,83.991z"/>
	</g>
</g>
<g id="Layer_1">
</g>
</svg>
