<?xml version="1.0" encoding="utf-8"?>
<!-- Generator: Adobe Illustrator 24.2.3, SVG Export Plug-In . SVG Version: 6.00 Build 0)  -->
<svg version="1.1" xmlns="http://www.w3.org/2000/svg" xmlns:xlink="http://www.w3.org/1999/xlink" x="0px" y="0px"
	 viewBox="0 0 314.216 314.215" enable-background="new 0 0 314.216 314.215" xml:space="preserve">
<g id="memorygame_x5F_pine_x5F_cone_x5F_mannynkapy">
	<path fill="#FFDDC3" d="M259.563,314.215H54.653C24.594,314.215,0,289.622,0,259.563V54.653C0,24.594,24.594,0,54.653,0h204.91
		c30.059,0,54.653,24.594,54.653,54.653v204.91C314.215,289.622,289.622,314.215,259.563,314.215z"/>
	<path fill="#FFFFFF" d="M276.686,74.235C239.539,15.273,161.127,11.167,96.488,37.77C48.123,57.675-6.454,132.761,32.781,221.852
		c39.571,89.853,163.143,87.006,212.596,44.307C307.722,212.328,307.197,122.664,276.686,74.235z"/>
	<g>
		<g>
			<path fill="#5B3C09" d="M278.417,168.27c-8.97-2.442-18.253-6.519-25.696,2.385l4.878-28.922
				c7.459-8.334-4.883-11.891-9.388-17.234c-18.504-12.385-24.071,8.29-33.995,19.185c-0.45-12.117,2.989-24.539,6.582-36.192
				c1.96-2.247,1.873-4.24-0.085-6.655c-15.746-19.892-16.846-29.589-31.826-1.15c-1.955-0.771,2.003-42.739-7.205-45.514
				c0,0.001,0,0.002,0,0.003c-3.512-1.334-15.245,21.996-20.498,31.479c-0.192-0.063-0.384-0.125-0.575-0.188
				c2.119-12.262,2.23-24.618,2.419-36.967c0.167-10.822,0.183-11.517-10.6-12.149c-13.201-0.775-18.139,5.046-25.529,10.984
				c0,0-0.29,17.236-1.47,23.624c-5.11-3.287-9.973-8.375-15.261-10.77c-3.501,0.062-7.605,8.274-9.65,11.19
				c-1.364,3.164,11.965,31.821,14.127,43.755c-5.799-10.536-19.593-16.769-27.235-17.862c-4.451-0.169-16.128,11.539-16.97,16.565
				l0,0c0.244,9.971,7.262,19.012,7.936,29.264c-10.158-4.779-27.211-16.79-34.268-5.32c-13.752,22.354-0.775,21.264,18.319,33.908
				c0,0,16.335,10.299,21.295,17.771c-12.269-5.126-44.92-24.691-49.703-16.51c-4.532,8.024-7.967,19.084-1.967,21.527
				c10.398,4.234,61.028,74.627,122.25,77.39c72.75,3.283,117.23-80.024,128.053-91.301
				C286.061,176.702,283.802,169.804,278.417,168.27z"/>
			<path fill="#7E6F48" d="M70.373,113.828c6.663,1.495,10.943,4.835,14.961,11.216c7.251,11.518,11.596,19.947,14.304,30.782
				c-6.762-4.833-12.907-10.835-21.261-12.726C78.376,143.1,70.629,123.874,70.373,113.828z"/>
			<path fill="#7E6F48" d="M176.789,119.853c1.372-8.972,1.728-18.048,4.008-26.927c3.389-12.63,6.618-26.451,0.884-38.753
				c9.208,2.775,11.014,4.13,10.159,13.413l-2.954,32.1C188.886,99.686,177.677,120.157,176.789,119.853z"/>
			<path fill="#7E6F48" d="M214.215,143.684l-7.498,13.728c-1.655,2.626-2.41-0.869-3.028-2.136
				c-5.002-17.204,5.771-39.594,18.529-50.909C219.067,115.965,214.215,143.684,214.215,143.684z"/>
			<path fill="#7E6F48" d="M252.721,170.655c-2.694,1.26-12.152,14.817-12.534,7.369c0.973-13.566,8.155-32.149,19.716-40.65
				C259.527,147.581,252.721,170.655,252.721,170.655z"/>
			<path fill="#7E6F48" d="M100.428,71.839c11.303,11.828,28.193,35.269,22.058,53.052c-2.912-2.543-6.26-6.987-8.04-10.108
				C114.447,114.784,101.292,88.513,100.428,71.839z"/>
			<path fill="#7E6F48" d="M127.821,48.732c4.989,7.797,7.404,15.852,3.344,26.751c-2.817-0.631-4.999-2.829-7.033-5.315
				l2.567-21.186C126.768,48.413,127.512,48.249,127.821,48.732z"/>
			<g>
				<polygon fill="#7E6F48" points="229.826,250.117 229.834,250.11 229.825,250.108 				"/>
			</g>
		</g>
		<g>
			<path fill="#7E6F48" d="M123.277,243.139c3.067-12.891-2.613-16.705-11.877-21.021c-5.583-2.601-12.106-6.878-18.465-1.989
				c-4.349,3.846-12.047,9.006-17.492,14.714c11.729,9.902,25.263,19.649,40.034,26.669
				C119.047,258.123,121.787,252.344,123.277,243.139z"/>
			<path fill="#7E6F48" d="M177.331,247.564c-4.346-12.519-11.186-12.679-21.317-11.337c-6.105,0.808-13.905,0.711-16.638,8.253
				c-1.719,6.001-5.88,15.361-7.134,23.539c7.157,2.138,14.528,3.506,22.061,3.846c8.971,0.405,17.509-0.512,25.61-2.443
				C182.004,264.445,181.617,257.496,177.331,247.564z"/>
			<path fill="#7E6F48" d="M208.371,225.756c-12.697,10.383-31.886,21.521-12.498,38.383c9.812-4.167,18.857-9.73,27.116-16.027
				C222.259,237.301,222.159,219.423,208.371,225.756z"/>
		</g>
		<path fill="#7E6F48" d="M162.881,218.458c-15.589,24.174-33.493,3.729-48.948-9.422c-12.131-16.622,16.035-17.513,27.389-20.065
			c7.374-1.151,12.207,4.682,16.653,8.876C165.354,204.805,169.536,209.952,162.881,218.458z"/>
		<path fill="#7E6F48" d="M204.798,194.462c16.074,24.101-6.204,28.616-21.635,34.673c-17.435,1.728-10.32-21.257-9.305-31.576
			c1.087-6.459,7.367-7.526,12.152-9.072C193.951,185.92,199.469,185.045,204.798,194.462z"/>
		<path fill="#7E6F48" d="M148.486,147.034c33.083-6.686,26.676,15.543,25.286,31.941c-6.893,16.78-27.258,2.317-37.486-2.154
			c-6.177-3.217-4.157-9.413-3.381-14.385C134.194,154.186,136.033,148.763,148.486,147.034z"/>
		<path fill="#7E6F48" d="M78.908,220.006c-18.652,6.607-17.91-8.902-19.336-20.134c1.776-11.835,15.805-3.273,22.468-0.872
			c4.095,1.802,3.75,6.139,3.972,9.567C86.381,214.254,86.036,218.054,78.908,220.006z"/>
		<path fill="#7E6F48" d="M250.011,211.406c-13.822,15.543-23.555-0.611-32.528-11.383c-6.241-12.899,13.281-10.802,21.429-11.503
			c5.228-0.098,7.815,4.484,10.345,7.872C253.455,202.014,255.68,206.05,250.011,211.406z"/>
		<path fill="#7E6F48" d="M99.86,170.262c12.656-7.594,23.731-5.052,22.337,2.688c0.797,2.631,1.166,5.39-5.443,10.004
			C94.882,199.127,76.706,183.785,99.86,170.262z"/>
		<path fill="#7E6F48" d="M152.178,118.151c14.674,1.593,23.756,13.535,16.178,15.635c-5.407,1.499-8.196-2.739-15.843-0.19
			C126.197,142.367,125.557,114.942,152.178,118.151z"/>
		<path fill="#7E6F48" d="M189.433,163.082c8.936-9.351,17.392,2.489,24.86,10.603c5.626,9.32-8.916,6.175-14.86,5.935
			c-3.842-0.393-6.112-3.737-8.246-6.263C187.647,169.164,185.686,166.225,189.433,163.082z"/>
	</g>
</g>
<g id="Layer_1">
</g>
</svg>
