<?xml version="1.0" encoding="utf-8"?>
<!-- Generator: Adobe Illustrator 24.2.3, SVG Export Plug-In . SVG Version: 6.00 Build 0)  -->
<svg version="1.1" xmlns="http://www.w3.org/2000/svg" xmlns:xlink="http://www.w3.org/1999/xlink" x="0px" y="0px"
	 viewBox="0 0 314.216 314.215" enable-background="new 0 0 314.216 314.215" xml:space="preserve">
<g id="memorygame_x5F_wolf_x5F_susi">
	<path fill="#FFDDC3" d="M259.563,314.215H54.653C24.594,314.215,0,289.622,0,259.563V54.653C0,24.594,24.594,0,54.653,0h204.91
		c30.059,0,54.653,24.594,54.653,54.653v204.91C314.215,289.622,289.622,314.215,259.563,314.215z"/>
	<path fill="#FFFFFF" d="M264.537,72.814c-34.666-55.023-107.839-58.855-168.16-34.029C51.243,57.36,0.312,127.43,36.927,210.569
		c36.928,83.85,152.245,81.193,198.393,41.347C293.5,201.682,293.01,118.007,264.537,72.814z"/>
	<g>
		<path fill="#B2B2B2" d="M311.348,275.041c-30.215-8.772-71.699-25.645-94.484-55.804l-63.785,42.666l17.454,52.312h88.423
			C283.642,314.215,304.629,297.621,311.348,275.041z"/>
		<path fill="#B2B2B2" d="M149.997,91.021c0,0-32.381-71.389-52.55-61.082c-25.121,12.838-22.805,39.821-23.306,96.76
			L149.997,91.021z"/>
		<path fill="#F5EEDE" d="M136.511,97.014c0,0-20.489-54.312-37.869-47.422s-13.898,71.584-13.898,71.584L136.511,97.014z"/>
		<path fill="#4B4B4A" d="M87.246,37.385c1.759-3.608,7.968-7.451,9.149-8.015c24.039-11.48,53.602,61.652,53.602,61.652
			l-6.578,3.094c0,0-15.483-39.634-30.408-52.047C107.357,37.366,94.799,35.569,87.246,37.385z"/>
		<path fill="#B2B2B2" d="M182.981,92.206c0,0,58.535-54.203,73.393-36.578c18.505,21.952,5.689,46.353-16.299,99.969
			L182.981,92.206z"/>
		<path fill="#F5EEDE" d="M193.269,103.147c0,0,40.644-42.872,54.232-29.554s-15.195,72.639-15.195,72.639L193.269,103.147z"/>
		<path fill="#4B4B4A" d="M263.006,66.636c-0.228-4.079-4.537-10.133-5.422-11.128c-18.025-20.252-77.239,38.608-77.239,38.608
			l7.586,3.587c0,0,30.158-31.076,49.056-36.835C244.146,58.687,256.636,61.954,263.006,66.636z"/>
		<path fill="#B2B2B2" d="M125.389,92.975c0,0-90.778,20.931-62.164,116.262c25.481,84.894,90.869,79.475,117.704,70.449
			c31.533-10.607,92.104-54.905,59.705-127.95S150.937,85.626,125.389,92.975z"/>
		<g>
			<path fill="#B2B2B2" d="M63.124,168.803c-3.574,13.193-6.636,27.231-13.697,37.479c-7.436,10.793-18.19,15.776-28.289,21.216
				c-2.58,1.39-5.28,2.974-6.909,6.038c-3.529,6.636-0.189,16.085,4.138,21.773c13.864,18.226,35.237,19.548,54.47,18.357
				c15.496-0.96,30.962-2.847,46.337-5.653c8.315-1.518,16.589-3.528,24.608-6.952C276.933,204.198,70.763,140.6,63.124,168.803z"/>
		</g>
		<path fill="#CED0D0" d="M230.678,245.389c18.001-21.417,28.261-51.805,11.052-90.193c-0.842-1.878-1.706-3.689-2.583-5.457
			c-26.075,57.744-103.467,94.067-226.167,93.129c0.692,4.558,2.872,9.136,5.387,12.443c13.864,18.225,35.237,19.548,54.47,18.357
			c9.639-0.597,18.186-1.364,26.967-2.53c0.195,4.337-1.442,8.773-4.903,11.439c6.061,2.136,13.148,1.082,18.325-2.726
			c2.086,3.384,2.099,7.939,0.03,11.333c4.425,1.299,9.516-0.018,12.756-3.3c2.517,3.555,4.102,7.763,4.554,12.095
			c5.922-1.191,11.051-5.572,13.35-11.134l11.362,25.37h59.818c-10.272-12.283-20.007-25.038-28.48-36.675
			c1.975-0.821,4.021-1.748,6.12-2.781c3.533,4.075,8.873,6.611,14.283,6.506c-0.494-4.328,0.144-8.779,1.833-12.794
			c3.873,2.504,9.128,2.689,13.168,0.465c-2.754-2.868-3.725-7.318-2.42-11.072c5.877,2.599,13.025,2.096,18.48-1.299
			C233.798,254.557,231.159,250.059,230.678,245.389z"/>
		<path fill="#4B4B4A" d="M34.884,229.405c6.297,3.446,6.736,10.721,3.895,16.718c-2.126,4.487-10.145,9.55-19.661,5.91
			c-9.597-3.671-9.293-15.135-4.732-19.723C20.134,226.525,29.711,226.574,34.884,229.405z"/>
		<path fill="#CED0D0" d="M67.064,143.343c6.158-9.91,19.156-10.6,29.871-6.129c8.017,3.345,17.065,15.965,10.56,30.938
			c-6.56,15.101-27.044,14.623-35.242,7.447C61.92,166.552,62.007,151.483,67.064,143.343z"/>
		<path fill="#CED0D0" d="M157.785,149.73c6.158-9.91,19.156-10.6,29.871-6.129c8.017,3.345,17.064,15.965,10.56,30.938
			c-6.56,15.101-27.044,14.623-35.242,7.447C152.64,172.939,152.727,157.87,157.785,149.73z"/>
		<g>
			<path fill="#FDFDFD" d="M83.629,195.18c-8.945-1.59-15.973-5.873-19.618-14.572c-1.663-3.97-1.158-8.066,0.267-12.036
				c1.778-4.954,4.626-9.095,9.19-11.937c4.943-3.078,10.204-3.83,15.844-2.488c5.68,1.352,10.116,4.434,12.85,9.581
				c2.394,4.507,2.872,9.338,1.818,14.407c-0.997,4.792-3.096,8.868-6.57,12.287c-2.844,2.8-6.258,4.313-10.2,4.7
				C86.035,195.238,84.857,195.389,83.629,195.18z"/>
			<path fill="#4B4B4A" d="M94.855,176.187c-1.449,7.73-7.192,12.245-13.731,11.226c-6.944-1.083-13.746-7.853-11.921-15.094
				c1.736-6.891,7.523-12.106,15.21-10.909C92.643,162.691,95.948,169.76,94.855,176.187z"/>
		</g>
		<g>
			<path fill="#FDFDFD" d="M172.678,200.217c-8.945-1.59-15.973-5.873-19.618-14.572c-1.663-3.97-1.158-8.066,0.267-12.036
				c1.778-4.954,4.626-9.095,9.19-11.937c4.943-3.078,10.204-3.83,15.844-2.488c5.68,1.352,10.116,4.434,12.85,9.581
				c2.394,4.507,2.872,9.338,1.818,14.407c-0.997,4.792-3.096,8.868-6.57,12.287c-2.844,2.8-6.258,4.313-10.2,4.7
				C175.084,200.276,173.905,200.426,172.678,200.217z"/>
			<path fill="#4B4B4A" d="M183.903,181.225c-1.449,7.73-7.192,12.245-13.731,11.226c-6.944-1.083-13.746-7.853-11.921-15.094
				c1.736-6.891,7.523-12.106,15.21-10.909C181.692,167.729,184.996,174.798,183.903,181.225z"/>
		</g>
		<path opacity="0.25" fill="#EB4238" d="M151.987,252.639c-18.617,19.25-48.051,4.276-42.509-22.745
			c2.019-10.045,9.892-16.387,20.859-17.762C157.681,208.705,162.764,241.74,151.987,252.639z"/>
		<g>
			<path fill="#7C7E7E" d="M72.514,228.8c-6.153,0-6.163-9.562,0-9.562C78.667,219.237,78.677,228.8,72.514,228.8L72.514,228.8z"/>
		</g>
		<g>
			<path fill="#7C7E7E" d="M59.847,232.248c-4.585,0-4.592-7.125,0-7.125C64.432,225.123,64.44,232.248,59.847,232.248
				L59.847,232.248z"/>
		</g>
		<g>
			<path fill="#7C7E7E" d="M52.051,232.685c0.02,0.28,0.006,0.178-0.042-0.306c0.032,0.235,0.063,0.471,0.095,0.706
				c0.03,0.662-0.317,1.418-0.778,1.878c-0.984,0.984-2.786,1.057-3.757,0c-0.939-1.023-1.093-2.753,0-3.757
				c0.439-0.403,0.932-0.651,1.525-0.731c0.353-0.079,0.706-0.063,1.059,0.047c-0.484-0.047-0.586-0.061-0.306-0.042
				C51.093,230.559,51.974,231.432,52.051,232.685L52.051,232.685z"/>
		</g>
		<g>
			<path fill="#7C7E7E" d="M81.057,240.575c-5.986-1.425-3.781-10.73,2.215-9.302C89.257,232.697,87.053,242.002,81.057,240.575
				L81.057,240.575z"/>
		</g>
		<g>
			<path fill="#7C7E7E" d="M67.936,240.995c-4.46-1.062-2.817-7.995,1.65-6.931C74.046,235.126,72.403,242.059,67.936,240.995
				L67.936,240.995z"/>
		</g>
		<g>
			<path fill="#7C7E7E" d="M60.25,239.615c-0.046,0.277-0.036,0.175,0.03-0.307c-0.024,0.236-0.047,0.473-0.071,0.709
				c-0.124,0.651-0.637,1.306-1.192,1.647c-1.185,0.729-2.955,0.383-3.654-0.87c-0.677-1.213-0.426-2.931,0.87-3.654
				c0.52-0.29,1.058-0.417,1.653-0.357c0.362,0.005,0.702,0.102,1.019,0.291c-0.46-0.158-0.556-0.195-0.288-0.112
				C59.811,237.324,60.465,238.378,60.25,239.615L60.25,239.615z"/>
		</g>
		<path fill="#4B4B4A" d="M47.339,250.994c5.016,12.36,25.716,16.74,39.529,7.615c3.62-2.391,9.782-10.301,10.757-13.399
			c0.019-0.061,0.109-0.044,0.104,0.02c-0.243,3.137-1.893,8.83-3.674,11.88c-10.685,18.297-41.122,14.569-46.756-6.097
			L47.339,250.994z"/>
	</g>
</g>
<g id="Layer_1">
</g>
</svg>
