<?xml version="1.0" encoding="utf-8"?>
<!-- Generator: Adobe Illustrator 24.2.3, SVG Export Plug-In . SVG Version: 6.00 Build 0)  -->
<svg version="1.1" xmlns="http://www.w3.org/2000/svg" xmlns:xlink="http://www.w3.org/1999/xlink" x="0px" y="0px"
	 viewBox="0 0 314.216 314.216" enable-background="new 0 0 314.216 314.216" xml:space="preserve">
<g id="memorygame_x5F_card_x5F_winter_x5F_blue">
	<g id="muistipeli_x5F_tausta_x5F_V2_3_">
		<g>
			<path fill="#008292" d="M259.563,0H54.653C24.594,0,0,24.594,0,54.653v204.91c0,30.059,24.594,54.653,54.653,54.653h204.91
				c30.059,0,54.653-24.594,54.653-54.653V54.653C314.216,24.594,289.622,0,259.563,0z"/>
		</g>
	</g>
	<g>
		<path fill="#00BDD0" d="M292.799,127.603c-7.244-47.844-38.568-95.131-88.82-103.837C131.506,9.701,40.454,46.532,22.401,124.163
			C-1.266,211.7,57.8,305.641,154.083,297.872C249.277,297.167,307.399,219.509,292.799,127.603z"/>
	</g>
	<path fill="#31D8E2" d="M223.685,123.467c13.987-10.39,23.959-23.452,14.927-45.067c-8.382-20.059-30.166-31.293-49.417-25.762
		c-19.062,5.477-24.376,20.474-31.351,38.516c0.672-5.403-10.463-19.796-14.16-23.853c-10.317-11.325-21.938-15.253-34.28-11.076
		C95.144,61.05,78.129,76.246,76.68,93.243c-1.4,16.423,19.97,37.64,19.97,37.64c-39.369-24.597-75.739,23.895-38.987,57.844
		c12.798,11.822,25.392,10.89,35.258,7.052c-13.987,10.39-22.789,22.093-13.757,43.708c8.382,20.059,28.996,32.653,48.247,27.122
		c19.062-5.477,24.376-20.474,31.351-38.516c-0.672,5.403,10.463,19.796,14.159,23.853c10.317,11.325,21.252,13.029,34.28,11.076
		c19.887-2.981,35.69-21.666,37.139-38.663c1.4-16.423-21.902-38.242-21.902-38.242c39.369,24.597,72.041-23.21,35.288-57.159
		C244.929,117.137,233.551,119.631,223.685,123.467z"/>
	<path fill="#FFE400" d="M191.241,188.797c-4.106-6.884-12.448-9.027-19.405-4.984c-6.235,3.623-7.884,12.376-3.65,19.38
		c3.944,6.525,11.266,8.193,18.066,4.117C193.358,203.049,195.345,195.678,191.241,188.797z"/>
	<path fill="#FFE400" d="M138.707,179.548c-4.444-7.224-12.405-9.152-19.583-4.742c-6.366,3.911-7.88,11.893-3.586,18.906
		c4.072,6.649,11.397,8.394,17.963,4.278C140.641,193.513,142.735,186.095,138.707,179.548z"/>
	<path fill="#FFE400" d="M174.695,123.135c-4.47-7.401-12.179-9.385-19.444-5.003c-6.55,3.95-8.068,11.59-3.729,18.769
		c4.144,6.856,11.141,8.648,17.807,4.559C176.597,136.999,178.711,129.783,174.695,123.135z"/>
	<path fill="#FFE400" d="M170.578,161.478c-4.137-6.739-11.225-8.319-18.267-4.074c-6.477,3.905-8.596,12.708-4.614,19.169
		c3.74,6.068,13.018,7.689,19.861,3.47C173.764,176.216,174.991,168.668,170.578,161.478z"/>
	<path fill="#FFE400" d="M205.936,107.83c-0.264-0.429-0.501-0.876-0.791-1.286c-2.878-4.069-9.045-5.147-14.756-2.586
		c-7.116,3.19-10.208,8.078-8.82,13.942c1.309,5.529,6.492,9.315,12.401,8.857c4.531-0.351,8.584-1.88,11.505-5.61
		C208.613,117.138,208.767,112.43,205.936,107.83z"/>
	<path fill="#FFE400" d="M190.044,176.669c3.756,6.33,11.586,7.753,18.894,3.434c6.049-3.575,8.022-10.481,4.636-16.231
		c-3.665-6.224-11.382-7.347-18.964-2.758C188.694,164.695,186.789,171.183,190.044,176.669z"/>
	<path fill="#FFE400" d="M124.925,157.045c3.163,5.21,8.671,5.999,15.158,2.173c5.156-3.041,6.706-8.329,3.86-13.168
		c-3.202-5.444-9.976-6.55-16.19-2.642C122.571,146.666,121.566,151.514,124.925,157.045z"/>
	<path fill="#FFE400" d="M99.906,168.041c3.164,5.209,8.42,6.152,14.464,2.596c4.804-2.827,6.115-7.969,3.264-12.805
		c-3.207-5.441-9.675-6.733-15.458-3.088C97.354,157.783,96.547,162.51,99.906,168.041z"/>
	<path fill="#FFE400" d="M142.747,196.882c-5.654,3.437-7.202,8.333-4.213,13.324c3.287,5.487,9.284,6.601,15.442,2.869
		c5.723-3.469,6.907-8.13,3.491-13.749C154.191,193.936,149.009,193.075,142.747,196.882z"/>
	<path fill="#FFE400" d="M199.78,144.581c3.975,6.398,9.44,8.403,14.446,5.301c5.102-3.162,6.335-9.135,2.995-14.511
		c-3.72-5.988-8.92-7.7-13.947-4.592C197.726,134.211,196.455,139.23,199.78,144.581z"/>
	<path fill="#FFE400" d="M187.431,157.341c4.857-2.981,6.001-7.771,3.008-12.597c-3.057-4.93-8.727-5.934-14.181-2.511
		c-4.092,2.568-5.007,7.438-2.237,11.899C177.061,159.025,182.547,160.338,187.431,157.341z"/>
	<path fill="#FFE400" d="M138.092,131.479c4.857-2.981,6.001-7.771,3.008-12.597c-3.057-4.93-8.727-5.934-14.181-2.511
		c-4.092,2.568-5.007,7.438-2.237,11.899C127.722,133.163,133.208,134.476,138.092,131.479z"/>
</g>
<g id="Layer_1">
</g>
</svg>
