<?xml version="1.0" encoding="utf-8"?>
<!-- Generator: Adobe Illustrator 24.2.3, SVG Export Plug-In . SVG Version: 6.00 Build 0)  -->
<svg version="1.1" xmlns="http://www.w3.org/2000/svg" xmlns:xlink="http://www.w3.org/1999/xlink" x="0px" y="0px"
	 viewBox="0 0 314.216 314.215" enable-background="new 0 0 314.216 314.215" xml:space="preserve">
<g id="memorygame_x5F_rowanberries_x5F_pihlajanmarja">
	<path fill="#FFDDC3" d="M259.563,314.215H54.653C24.594,314.215,0,289.622,0,259.563V54.653C0,24.594,24.594,0,54.653,0h204.91
		c30.059,0,54.653,24.594,54.653,54.653v204.91C314.215,289.622,289.622,314.215,259.563,314.215z"/>
	<path fill="#FFFFFF" d="M276.686,72.81C239.539,13.848,161.127,9.742,96.488,36.345C48.123,56.25-6.454,131.337,32.781,220.428
		c39.571,89.853,163.143,87.006,212.596,44.307C307.722,210.904,307.197,121.239,276.686,72.81z"/>
	<g>
		<g id="muistipeli_x5F_pihlajanmarja_1_">
			<path fill="#6A4019" d="M70.396,121.72h119.699c0,0,37.57-25.473,47.18-45.873c9.611-20.4,13.106-50.373,13.106-50.373
				l13.106,4.635c0,0-6.99,36.696-21.843,55.918c-14.853,19.222-41.938,42.812-41.938,42.812l55.044,76.013l-9.611,4.369
				l-51.549-75.139l15.727,58.539l-10.485,1.747L186.6,130.587l-48.054,30.58l-1.747-9.149l41.064-23.178H70.396V121.72z"/>
			<path fill="#C30D26" d="M71.668,114.445c-13.151-18.221-48.514-3.947-37.494,22.691
				C51.373,164.441,85.914,138.395,71.668,114.445z"/>
			<path fill="#C30D26" d="M126.712,179.682c-13.151-18.221-48.514-3.947-37.494,22.691
				C106.417,229.678,140.957,203.632,126.712,179.682z"/>
			<path fill="#C30D26" d="M192.964,229.589c-13.151-18.221-48.514-3.947-37.494,22.691
				C172.668,279.584,207.209,253.54,192.964,229.589z"/>
			<path fill="#C30D26" d="M155.643,209.231c-13.151-18.221-48.514-3.947-37.494,22.691
				C135.347,259.226,169.889,233.182,155.643,209.231z"/>
			<path fill="#C30D26" d="M128.011,242.304c-13.151-18.221-48.514-3.947-37.494,22.691
				C107.716,292.3,142.257,266.254,128.011,242.304z"/>
			<path fill="#C30D26" d="M101.856,142.795c-11.865-16.44-43.773-3.561-33.83,20.475
				C83.546,187.906,114.708,164.406,101.856,142.795z"/>
			<path fill="#C30D26" d="M139.805,142.795c-11.865-16.44-43.773-3.561-33.83,20.475
				C121.495,187.906,152.657,164.406,139.805,142.795z"/>
			<path fill="#C30D26" d="M223.099,189.393c-11.865-16.44-43.773-3.561-33.83,20.475
				C204.789,234.504,235.951,211.004,223.099,189.393z"/>
			<path fill="#C30D26" d="M265.037,203.67c-11.865-16.44-43.773-3.561-33.83,20.475C246.727,248.781,277.889,225.28,265.037,203.67
				z"/>
			<path fill="#C30D26" d="M231.836,225.496c-11.865-16.44-43.773-3.561-33.83,20.475
				C213.526,270.607,244.688,247.106,231.836,225.496z"/>
			<path fill="#C30D26" d="M257.465,251.83c-11.865-16.44-43.773-3.561-33.83,20.475C239.155,296.941,270.317,273.44,257.465,251.83
				z"/>
			<path fill="#C30D26" d="M215.485,258.164c-10.496-14.542-38.722-3.151-29.927,18.112
				C199.285,298.069,226.855,277.28,215.485,258.164z"/>
			<path fill="#C30D26" d="M282.382,232.821c-4.558-7.234-14.179-7.738-22.11-4.474c-5.934,2.442-12.631,11.655-7.817,22.586
				c4.855,11.025,20.017,10.675,26.085,5.436C286.19,249.765,286.125,238.763,282.382,232.821z"/>
			<path fill="#C30D26" d="M43.461,182.432c-10.496-14.542-38.722-3.151-29.927,18.112
				C27.261,222.337,54.831,201.547,43.461,182.432z"/>
			<path fill="#C30D26" d="M84.947,179.81c-10.496-14.542-38.722-3.151-29.927,18.112C68.746,219.714,96.317,198.926,84.947,179.81z
				"/>
			<path fill="#C30D26" d="M64.557,154.775c-10.496-14.542-38.722-3.151-29.927,18.112
				C48.356,194.679,75.928,173.891,64.557,154.775z"/>
			<path fill="#C30D26" d="M63.684,207.92c-10.496-14.542-38.722-3.151-29.927,18.112C47.484,247.824,75.053,227.036,63.684,207.92z
				"/>
			<path fill="#C30D26" d="M99.361,215.014c-11.634-16.119-42.918-3.492-33.17,20.075
				C81.408,259.244,111.963,236.201,99.361,215.014z"/>
			<path fill="#C30D26" d="M160.645,253.179c-10.496-14.542-38.722-3.151-29.927,18.112
				C144.445,293.083,172.014,272.295,160.645,253.179z"/>
			<path fill="#C30D26" d="M185.853,195.105c-10.496-14.542-38.722-3.151-29.927,18.112
				C169.652,235.009,197.223,214.221,185.853,195.105z"/>
			<path fill="#C30D26" d="M160.645,172.254c-10.496-14.542-38.722-3.151-29.927,18.112
				C144.445,212.159,172.013,191.37,160.645,172.254z"/>
			<path fill="#C30D26" d="M193.673,160.885c-10.496-14.542-38.722-3.151-29.927,18.112
				C177.473,200.789,205.042,180.001,193.673,160.885z"/>
		</g>
		<g id="Layer_1_48_">
		</g>
	</g>
</g>
<g id="Layer_1">
</g>
</svg>
