<?xml version="1.0" encoding="utf-8"?>
<!-- Generator: Adobe Illustrator 25.0.0, SVG Export Plug-In . SVG Version: 6.00 Build 0)  -->
<svg version="1.1" xmlns="http://www.w3.org/2000/svg" xmlns:xlink="http://www.w3.org/1999/xlink" x="0px" y="0px"
	 viewBox="0 0 227.531 334.078" enable-background="new 0 0 227.531 334.078" xml:space="preserve">
<g id="apple_x5F_core">
	<g>
		<g>
			<path fill="#FF4035" d="M66.272,294.785c3.462,9.931,3.403,20.947,0.036,30.103c54.447,18.464,123.114,8.101,146.568-22.103
				c0,0-14.011-0.8-27.197-6.65l-59.762-19.249L66.272,294.785z"/>
		</g>
		<path fill="#00A038" d="M202.62,0.092c0,0,12.228,42.106-13.7,72.869C168.928,96.682,127.796,88.5,127.796,88.5
			s-14.859-37.223,12.576-64.007C168.381-2.85,202.62,0.092,202.62,0.092z"/>
		<path fill="#0EB800" d="M140.372,24.494c25.154-24.557,55.315-24.686,61.206-24.458L127.796,88.5
			C127.797,88.501,112.937,51.277,140.372,24.494z"/>
		<polygon fill="#A45700" points="116.047,1.937 133.792,2.144 129.925,87.928 113.766,86.312 		"/>
		<g>
			<path fill="#FF4035" d="M180.996,108.099c17.41-16.076,47.444-19.438,46.514-20.171c-46.502-36.704-105.572-6.77-105.572-6.77
				S50.508,52.616,0,91.936c1.086-0.485,53.87-3.436,61.071,44.554l64.799,4.859L180.996,108.099z"/>
		</g>
		<path fill="#FFA600" d="M180.996,108.099c-5.522-3.192-11.912-5.049-18.749-5.049c-19.458,0-35.458,14.8-37.361,33.756
			c-5.714-11.497-17.544-19.417-31.253-19.417c-13.645,0-26.818,7.691-32.562,19.101c35.59,4.115,41.915,65.883,22.48,78.807
			c39.823,21.866,4.737,74.145-17.28,79.487c0.029,0.08,13.288,10.497,22.101,11.457c17.75,1.933,33.814-9.807,37.759-26.773
			c4.576,13.346,16.48,23.559,31.434,25.188c10.56,1.15,20.554-2.216,28.113-8.524c-11.623-3.901-29.064-31.11-14.922-51.451
			c-23.119-6.775-36.7-62.03,6.721-75.25C167.731,162.001,159.731,124.048,180.996,108.099z"/>
		<path fill="#5A3605" d="M107.857,199.372c0,0-4.33,23.038,7.256,19.019C127.113,214.228,107.857,199.372,107.857,199.372z"/>
		<path fill="#5A3605" d="M138.893,199.372c0,0,4.33,23.038-7.256,19.019C119.637,214.228,138.893,199.372,138.893,199.372z"/>
	</g>
</g>
<g id="Layer_1">
</g>
</svg>
