<?xml version="1.0" encoding="utf-8"?>
<!-- Generator: Adobe Illustrator 26.0.2, SVG Export Plug-In . SVG Version: 6.00 Build 0)  -->
<svg version="1.1" id="Layer_1" xmlns="http://www.w3.org/2000/svg" xmlns:xlink="http://www.w3.org/1999/xlink" x="0px" y="0px"
	 viewBox="0 0 332.8 366" style="enable-background:new 0 0 332.8 366;" xml:space="preserve">
<style type="text/css">
	.st0{fill:#00B900;}
	.st1{fill:#61D100;}
	.st2{fill:#BA5600;}
	.st3{fill:#A6D700;}
	.st4{opacity:0.25;fill:#FFFFFF;enable-background:new    ;}
</style>
<path class="st0" d="M253,13.1c0,0,12.2,42.1-13.7,72.9c-20,23.7-61.1,15.5-61.1,15.5s-14.9-37.2,12.6-64
	C218.8,10.2,253,13.1,253,13.1z"/>
<path class="st1" d="M190.8,37.5C216,13,246.1,12.9,252,13.1l-73.8,88.5C178.2,101.5,163.4,64.3,190.8,37.5z"/>
<polygon class="st2" points="165.1,7.2 184.5,7.1 181.7,101 164,99.5 "/>
<path class="st0" d="M72.3,0.3c0,0-12.9,52.5,20.6,89c25.8,28.2,76,16,76,16s16.4-46.6-18.8-78.1C114.2-5,72.3,0.3,72.3,0.3z"/>
<path class="st1" d="M150.1,27.2C117.9-1.8,80.8-0.4,73.5,0.2l95.3,105.1C168.9,105.3,185.3,58.8,150.1,27.2z"/>
<path class="st1" d="M173.8,89.5c0,0-84.7-33.8-140.1,17.4c-41.6,38.5-56.8,162,25.9,221.6c88.4,63.7,193.6,39.7,239.3-23
	c47.7-65.4,47.7-179.8-18.3-212.8C236.1,70.4,173.8,89.5,173.8,89.5z"/>
<path class="st3" d="M182.5,99.1c0,0-67.8-29.8-112.2,15.4c-33.3,34-45.5,142.8,20.8,195.4c70.8,56.1,155,35,191.6-20.3
	c38.2-57.7,38.2-158.5-14.6-187.6C232.3,82.4,182.5,99.1,182.5,99.1z"/>
<ellipse transform="matrix(0.9902 -0.1399 0.1399 0.9902 -20.8435 35.2711)" class="st4" cx="240.5" cy="165.9" rx="32.5" ry="38.9"/>
<g id="Layer_1_00000048469028959200112670000000839284537303229629_">
</g>
</svg>
