<?xml version="1.0" encoding="utf-8"?>
<!-- Generator: Adobe Illustrator 25.0.0, SVG Export Plug-In . SVG Version: 6.00 Build 0)  -->
<svg version="1.1" xmlns="http://www.w3.org/2000/svg" xmlns:xlink="http://www.w3.org/1999/xlink" x="0px" y="0px"
	 viewBox="0 0 214.576 213.714" enable-background="new 0 0 214.576 213.714" xml:space="preserve">
<g id="apple_x5F_slice">
	<g>
		<path fill="#8CD000" d="M210.938,121.774c14.687-51.121-14.815-107.686-93.653-102.41c0.284,0.08-72.666,179.852-66.96,182.084
			C88.014,231.721,186.667,206.256,210.938,121.774z"/>
	</g>
	<g>
		<path fill="#FFF2B2" d="M170.609,35.837c-13.045-11.994-37.987-20.43-52.82-17.151C108.309,7.062,82.168-1.469,64.136,0.212
			C23.297,4.019,4.13,37.484,0.364,83.464c-4.349,53.091,31.302,109.981,50.764,120.241c12.193,15.441,90.58-7.948,120.473-58.173
			C196.3,104.034,201.092,63.864,170.609,35.837z"/>
	</g>
	<path fill="#DDB85F" d="M116.225,93.29c-11.374-13.271-27.696,3.237-33.628,14.763C89.343,42.781,17.834,78.9,70.11,142.999
		C90.093,143.254,132.772,118.666,116.225,93.29z"/>
	<path fill="#A45700" d="M86.584,114.853c4.59-4.797,11.619-7.365,18.144-8.376c0,0-3.239,17.634-5.136,18.914
		C91.513,137.844,76.473,125.335,86.584,114.853z"/>
	<path fill="#A45700" d="M59.3,110.689c-1.231-2.752,9.508-18.454,9.508-18.454c4.203,6.861,8.9,14.978,6.76,23.284
		C72.303,125.955,58.298,120.424,59.3,110.689z"/>
</g>
<g id="Layer_1">
</g>
</svg>
