<?xml version="1.0" encoding="utf-8"?>
<!-- Generator: Adobe Illustrator 25.0.0, SVG Export Plug-In . SVG Version: 6.00 Build 0)  -->
<svg version="1.1" xmlns="http://www.w3.org/2000/svg" xmlns:xlink="http://www.w3.org/1999/xlink" x="0px" y="0px"
	 viewBox="0 0 392.403 244.759" enable-background="new 0 0 392.403 244.759" xml:space="preserve">
<g id="banana">
	<g>
		<path fill="#A45700" d="M392.351,4.877c0,0-20.365-11.623-21.205,1.017c-1.192,17.947-21.845,34.289-21.845,34.289l18,9.69
			C367.301,49.873,393.738,20.086,392.351,4.877z"/>
		<path fill="#F6CF12" d="M364.802,130.545c11.219-18.843,29.856-59.823,19.669-82.186c-6.182-13.571-21.544-20.993-21.544-20.993
			L206.606,170.355L0,164.501c11.282,59.327,116.8,84.917,180.186,79.566C266.42,237.397,321.058,204.017,364.802,130.545z"/>
		<path fill="#FAE100" d="M181.355,205.982c94.701,7.492,244.657-166.306,174.683-181.167c-26.97-5.266-52.851,11.349-69.26,32.566
			c-55.43,75.493-111.416,95.893-204.735,73.633C61.18,127.415,0.769,138.089,0,164.501
			C36.18,181.78,108.557,210.849,181.355,205.982z"/>
		<path fill="#A45700" d="M0,164.501c0.877,4.612,2.325,9.02,4.277,13.226c3.805-2.151,6.881-6.459,7.948-11.826
			c1.299-6.535-0.759-12.749-4.786-15.946C2.95,154.122,0.161,158.964,0,164.501z"/>
	</g>
</g>
<g id="Layer_1">
</g>
</svg>
