<?xml version="1.0" encoding="utf-8"?>
<!-- Generator: Adobe Illustrator 25.0.0, SVG Export Plug-In . SVG Version: 6.00 Build 0)  -->
<svg version="1.1" xmlns="http://www.w3.org/2000/svg" xmlns:xlink="http://www.w3.org/1999/xlink" x="0px" y="0px"
	 viewBox="0 0 367.904 221.519" enable-background="new 0 0 367.904 221.519" xml:space="preserve">
<g id="banana_x5F_peels">
	<g>
		<path fill="#A45700" d="M179.739,10.5c0.319,6.692,3.544,21.211-3.543,40.162c-0.414,1.105,14.912,1.939,14.912,1.939
			c3.622-4.259,12.164-31.09,3.543-52.12C193.494-2.342,179.624,8.089,179.739,10.5z"/>
		<path fill="#FFE400" d="M180.571,44.714c22.792-5.493,32.469,25.921,40.304,40.31c41.713,76.607,144.241,47.996,146.967,58.208
			c2.726,10.212-84.273,28.158-137.464,7.069C190.066,134.318,157.281,50.328,180.571,44.714z"/>
		<path fill="#FFD200" d="M177.77,44.19c41.879-3.892,48.378,93.723,54.793,104.985c37.861,66.467,117.847,16.244,122.087,18.185
			c4.241,1.94-22.608,59.863-82.672,53.701C163.357,225.792,162.181,45.639,177.77,44.19z"/>
		<path fill="#FFD200" d="M187.638,45.199c-34.104-11.467-58.69,68.53-66.242,76.646c-44.579,47.903-101.309-9.624-105.221-8.841
			s7.065,54.282,58.284,60.95C163.965,199.231,200.332,49.467,187.638,45.199z"/>
		<path fill="#FFE400" d="M186.619,44.042c-27.522,0-29.924,38.511-34.909,57.087C125.177,200.025,29.672,164.374,0,207.979
			c0,0,113.231-0.263,157.478-24.462C202.138,159.092,214.74,44.04,186.619,44.042z"/>
	</g>
</g>
<g id="Layer_1">
</g>
</svg>
