<?xml version="1.0" encoding="utf-8"?>
<!-- Generator: Adobe Illustrator 25.0.0, SVG Export Plug-In . SVG Version: 6.00 Build 0)  -->
<svg version="1.1" xmlns="http://www.w3.org/2000/svg" xmlns:xlink="http://www.w3.org/1999/xlink" x="0px" y="0px"
	 viewBox="0 0 179.515 344.12" enable-background="new 0 0 179.515 344.12" xml:space="preserve">
<g id="beetroot">
	<path fill="#00A038" d="M75.844,133.169c-4.039-0.683-12.469,5.14-29.892-6.133c-9.741-6.303-17.932-14.976-24.283-24.644
		c-9.848-14.99-7.935-31.497-2.884-36.084c5.271-4.787,14.111-3.047,19.516,1.594s8.361,11.389,11.907,17.546
		c15.574,27.044,19.083,27.94,27.689,46.234L75.844,133.169z"/>
	<path fill="#00A038" d="M84.012,138.624c3.765-1.615,13.329,2.06,27.608-12.998c7.983-8.419,13.902-18.777,17.798-29.668
		c6.042-16.887,0.296-32.479-5.693-35.748c-6.25-3.412-14.432,0.361-18.592,6.143c-4.16,5.782-5.444,13.037-7.441,19.856
		c-8.769,29.95-11.969,31.647-16.026,51.454L84.012,138.624z"/>
	<path fill="#0EB800" d="M81,132.857c-3.436-5.197-18.659-8.518-24.224-39.581c-3.112-17.368-1.979-35.475,2.168-52.57
		C65.374,14.2,85.702-0.815,96.043,0.034c10.792,0.886,18.038,12.515,18.494,23.339s-3.973,21.115-7.132,31.449
		c-13.877,45.386-11.229,50.215-22.62,78.774L81,132.857z"/>
	<path fill="#00A038" d="M55.184,79.397c-0.089-1.638-0.143-3.279-0.165-4.92c4.529,4.304,16.188,16.15,20.627,20.671
		c0.073-3.694,0.966-9.436,2.369-16.328c-4.605-3.89-15.153-13.14-22.304-19.431c0.204-1.962,0.445-3.92,0.733-5.871l22.312,21.768
		C84.375,49.251,95.887,10.374,98.84,0.522l2.155,0.744C99.14,8.741,89.488,47.778,84.077,72.762l22.748-16.034
		c-0.854,2.817-1.644,5.475-2.375,7.987c-6.693,4.491-17.101,11.711-21.767,14.638c-1.212,5.896-2.039,10.478-2.244,12.849
		c-0.067,0.777-0.102,1.679-0.111,2.683c4.501-3.162,13.278-9.323,19.571-13.704c-0.547,2.101-1.049,4.076-1.514,5.947
		L80.425,99.255c0.186,4.067,0.618,9.011,1.181,14.231l11.57-4.969c-0.346,1.317-0.704,2.635-1.084,3.971
		c-3.774,1.786-7.673,3.63-10.065,4.761c0.638,5.493,1.383,11.12,2.106,16.22c1.509,10.64,2.923,18.972,3.058,18.908
		c0.321-0.151-8.186,0-8.186,0s-0.875-10.406-1.734-22.976c-0.287-4.202-0.572-8.647-0.822-13.025l-16.229-9.888
		c-0.561-1.561-1.095-3.222-1.591-5.008l17.651,11.86c-0.268-4.998-0.478-9.811-0.58-13.968L55.184,79.397z"/>
	<g>
		<g>
			<path fill="#E32D70" d="M2.004,182.297c5.433-20.664,20.613-32.327,35.167-39.478c33.841-16.628,118.52-16.439,136.39,20.536
				c5.21,10.779,7.514,25.569,4.82,38.76c-2.694,13.192-8.543,24.545-14.562,35.248c-16.501,29.344-37.419,57.865-63.525,61.669
				c-21.643,3.154-42.496-11.417-61.076-27.567c-11.24-9.77-22.409-20.592-30.189-35.793C1.251,220.47-2.647,199.985,2.004,182.297z
				"/>
		</g>
		<path fill="#CA3129" d="M134.184,211.132c4-18.878,2.536-40.072-9.368-55.259c-9.267-11.822-23.311-18.323-37.628-23.51
			c35.541-1.397,74.85,7.145,86.374,30.99c5.21,10.779,7.514,25.569,4.82,38.76c-2.694,13.192-8.543,24.545-14.562,35.247
			c-16.501,29.344-37.419,57.865-63.524,61.669c-11.69,1.704-23.149-1.769-34.145-7.864
			C99.604,277.03,126.615,246.848,134.184,211.132z"/>
	</g>
	<path fill="#CA3129" d="M126.06,281.553c0,0-15.044,19.621-10.913,29.271c4.131,9.65,3.136,13.221,2.65,27.096
		c-0.486,13.875-1.395,2.544-17.965-15.077c-6.889-7.326-2.43-39.747-2.43-39.747L126.06,281.553z"/>
</g>
<g id="Layer_1">
</g>
</svg>
