<?xml version="1.0" encoding="utf-8"?>
<!-- Generator: Adobe Illustrator 26.0.2, SVG Export Plug-In . SVG Version: 6.00 Build 0)  -->
<svg version="1.1" id="Layer_1" xmlns="http://www.w3.org/2000/svg" xmlns:xlink="http://www.w3.org/1999/xlink" x="0px" y="0px"
	 viewBox="0 0 184.2 206.2" style="enable-background:new 0 0 184.2 206.2;" xml:space="preserve">
<style type="text/css">
	.st0{fill:#C61824;}
	.st1{fill:#E32D70;}
</style>
<path class="st0" d="M184.1,103.2C182.8,58.3,165,17.6,104.9,1.5c-7.7-2.1-23.6-1.3-31.6-0.8c0.3,0-15,197.7-15,197.7
	C120.7,229.5,186,162.7,184.1,103.2z"/>
<path id="XMLID_1166_" class="st1" d="M0.6,98.9C0.8,23.8,84.3-42.5,131.9,33.9C156,79.2,151.6,165,101.4,193.1
	c-33.7,16.3-70.2,3.2-89.3-29.8C1.4,145.5-1.4,121.9,0.6,98.9C1.8,84.5,0.2,102.9,0.6,98.9z"/>
<path id="XMLID_1165_" class="st0" d="M22,76.1c12.3-62.7,84.5-83.8,106.4-16.9c10.8,39.6-0.5,103.8-44.2,115
	c-28.5,3.6-52.6-18-62.4-45.5C16.3,112.2,17.5,93.4,22,76.1C24.9,65.3,21.2,79.1,22,76.1z"/>
<path id="XMLID_1164_" class="st1" d="M34.4,77c9.5-48.4,65.2-64.7,82-13c8.4,30.5-0.4,80-34.1,88.7c-22,2.8-40.5-13.9-48.1-35.1
	C30.1,104.9,30.9,90.3,34.4,77C36.6,68.7,33.8,79.3,34.4,77z"/>
<path id="XMLID_1163_" class="st0" d="M51.2,80.9c5.5-28.3,38.2-37.9,48.1-7.6c4.9,17.9-0.2,46.9-20,52c-5.6,0.9-11.2-0.8-16-4.2
	C47.5,110.9,48.3,88.7,51.2,80.9z"/>
<g id="Layer_1_00000016797227015402531360000003047994191457364909_">
</g>
</svg>
