<?xml version="1.0" encoding="utf-8"?>
<!-- Generator: Adobe Illustrator 26.0.2, SVG Export Plug-In . SVG Version: 6.00 Build 0)  -->
<svg version="1.1" id="Layer_1" xmlns="http://www.w3.org/2000/svg" xmlns:xlink="http://www.w3.org/1999/xlink" x="0px" y="0px"
	 viewBox="0 0 232.2 211.1" style="enable-background:new 0 0 232.2 211.1;" xml:space="preserve">
<style type="text/css">
	.st0{fill:#BA5600;}
	.st1{fill:#00769F;}
	.st2{fill:#005F8D;}
</style>
<path class="st0" d="M172.6,123.4L133,61.8c4.3-42,50.8-55.2,50.8-55.2L176.4,0c0,0-44,11.5-51.1,58.3L61.4,66l-1,10.3l63.3-12.7
	l-35.6,71.6l7.4,3.1l33.2-73.7l37.1,62.2L172.6,123.4z"/>
<path class="st1" d="M119.3,180.2c-5.4,23.2-24.1,34.9-47.1,29.6c-24-5.5-36.7-27.7-30.8-53.6c5-22,22.5-32.2,45.7-26.9
	C112.7,135.2,125.2,155,119.3,180.2z"/>
<path class="st2" d="M87.5,185.3c-2.4,10.3-10.7,15.5-20.9,13.1C56,196,50.3,186.1,53,174.6c2.2-9.8,10-14.3,20.3-11.9
	C84.6,165.3,90.2,174.1,87.5,185.3z"/>
<path class="st1" d="M79.3,94.2c-5.4,23.2-24.1,34.9-47.1,29.6c-24-5.5-36.7-27.7-30.8-53.7c5-22,22.5-32.2,45.7-26.9
	C72.7,49.1,85.2,68.9,79.3,94.2z"/>
<path class="st2" d="M47.5,99.2c-2.4,10.3-10.7,15.5-20.9,13.2C16,109.9,10.3,100.1,13,88.5c2.2-9.8,10-14.3,20.3-11.9
	C44.6,79.2,50.1,88,47.5,99.2z"/>
<path class="st1" d="M216.7,125.3c18.3,15.1,20.6,37.1,5.6,55.3c-15.6,19.1-41.1,20.6-61.7,3.7c-17.4-14.3-18.9-34.5-3.7-52.9
	C173.5,111.2,196.8,108.8,216.7,125.3z"/>
<path class="st2" d="M207.1,156c8.1,6.7,9.1,16.5,2.5,24.6c-6.9,8.5-18.3,9.1-27.4,1.6c-7.7-6.3-8.4-15.3-1.6-23.5
	C187.9,149.7,198.3,148.7,207.1,156z"/>
<path class="st1" d="M167.4,73.1c10.8,21.2,4,42.2-17,52.9c-22,11.2-45.9,2.4-58.1-21.3c-10.3-20.1-3.5-39.2,17.8-50
	C133.4,42.9,155.7,50,167.4,73.1z"/>
<path class="st2" d="M146.4,97.4c4.8,9.4,1.8,18.7-7.6,23.5c-9.8,5-20.4,1.1-25.8-9.5c-4.6-8.9-1.6-17.4,7.9-22.2
	C131.3,84,141.1,87.2,146.4,97.4z"/>
<g id="Layer_1_00000142896104545875786170000004528740594739473831_">
</g>
</svg>
