<?xml version="1.0" encoding="utf-8"?>
<!-- Generator: Adobe Illustrator 26.0.3, SVG Export Plug-In . SVG Version: 6.00 Build 0)  -->
<svg version="1.1" xmlns="http://www.w3.org/2000/svg" xmlns:xlink="http://www.w3.org/1999/xlink" x="0px" y="0px"
	 viewBox="0 0 504.029 210.751" enable-background="new 0 0 504.029 210.751" xml:space="preserve">
<g id="boiler_x5F_pot_x5F_red">
	<path fill="#AA1E28" d="M73.154,39.402c1.408,15.397,2.817,30.793,4.225,46.19c-24.238,1.882-48.487,3.638-72.704,5.761
		C0.196,91.746-2.112,42.005,2.59,41.888C26.117,41.302,49.634,40.274,73.154,39.402z"/>
	<path fill="#AA1E28" d="M430.297,40.376c-0.975,15.43-1.95,30.86-2.924,46.29c24.282,1.2,48.57,2.273,72.837,3.714
		c4.488,0.267,5.396-49.52,0.693-49.505C477.368,40.952,453.832,40.586,430.297,40.376z"/>
	<polygon fill="#FF4035" points="68.208,2.895 88.449,210.751 427.016,210.411 433.259,0 	"/>
	<path fill="#005F8A" d="M85.109,185.225c64.952,1.945,306.859-1.54,343.183-2.498l1.758-64.606
		c-17.578,0.288-31.738,6.835-42.558,19.506c-7.709,9.028-18.845,34.869-18.845,34.869s-5.763-27.26-11.801-37.127
		c-9.338-15.26-24.706-21.19-44.056-16.931c-23.122,5.089-35.804,19.363-43.422,37.709c-2.652,6.387-4.188,13.118-6.594,20.849
		c-3.002-13.903-6.532-26.411-13.372-38.154c-15.327-26.313-50.142-27.935-71.356-8.145c-14.632,13.65-22.982,30.127-29.898,47.335
		c-0.49,1.219-8.448-33.158-19.409-46.452c-8.993-10.907-23.258-15.052-38.226-11.541c-3.943,0.925-7.607,2.289-11.077,3.977
		L85.109,185.225z"/>
</g>
<g id="Layer_1">
</g>
</svg>
