<?xml version="1.0" encoding="utf-8"?>
<!-- Generator: Adobe Illustrator 25.0.0, SVG Export Plug-In . SVG Version: 6.00 Build 0)  -->
<svg version="1.1" xmlns="http://www.w3.org/2000/svg" xmlns:xlink="http://www.w3.org/1999/xlink" x="0px" y="0px"
	 viewBox="0 0 92.984 331.699" enable-background="new 0 0 92.984 331.699" xml:space="preserve">
<g id="bottle_x5F_deposit_x5F_orange">
	<path fill="#E8CAAE" d="M31.271,38.914C30.879,40.049,3.05,72.53,0.605,103.258c-2.993,37.612,6.098,58.112,6.098,58.112
		l-0.677,77.824c0,0-4.296,27.88-4.53,46.424c-0.331,26.198,8.807,37.762,8.807,37.762s7.91,7.707,40.984,8.301
		c25.343,0.455,34.406-8.301,34.406-8.301s6.55-8.848,6.856-36.756c0.263-23.971-5.355-46.679-5.355-46.679l-0.462-77.836
		c0,0,9.471-20.675,5.1-58.851c-3.047-26.615-30.565-64.012-30.565-64.012l1.673-28.92l-31.704-0.35L31.271,38.914z"/>
	<path fill="#FFA600" d="M64.245,32.907l-35.987,0.095c-2.808-2.517-3.107-28.153-0.03-30.549
		c4.362-3.398,34.428-3.534,36.965,1.291C66.865,6.924,66.257,31.221,64.245,32.907z"/>
	<path fill="#FFA600" d="M44.75,162.189c-19.462-0.114-38.102-0.965-38.102-0.965l-0.852,77.159c0,0,21.309,5.902,34.796,5.831
		c29.28-0.154,46.596-5.233,46.596-5.233l-0.456-76.873C86.732,162.108,66.721,162.317,44.75,162.189z"/>
</g>
<g id="Layer_1">
</g>
</svg>
