<?xml version="1.0" encoding="utf-8"?>
<!-- Generator: Adobe Illustrator 25.0.0, SVG Export Plug-In . SVG Version: 6.00 Build 0)  -->
<svg version="1.1" xmlns="http://www.w3.org/2000/svg" xmlns:xlink="http://www.w3.org/1999/xlink" x="0px" y="0px"
	 viewBox="0 0 91.428 320.716" enable-background="new 0 0 91.428 320.716" xml:space="preserve">
<g id="bottle_x5F_deposit_x5F_yellow">
	<path fill="#E7E9E9" d="M88.649,149.557c-1.216-5.775-13.678-14.286-14.286-30.093c-0.608-15.806,17.075-24.317,17.065-38.294
		c-0.021-29.605-30.13-42.578-30.13-42.578l1.849-34.391L28.11,3.814l2.471,33.196C30.147,38.264,0,49.552,1.554,81.367
		c0.969,19.842,15.662,17.732,15.966,35.666c0.254,14.97-14.7,22.16-15.198,33.74c-0.538,12.521,0,107.101,0,107.101
		c-0.128,10.141-2.379,17.873-2.321,27.782c0.088,15.223,7.965,25.731,9.175,27.58c1.448,2.213,6.237,7.497,36.158,7.48
		c28.011-0.016,33.784-3.149,38.093-6.738c2.936-2.445,6.57-12.771,7.145-28.859c0.269-7.523-2.031-16.307-1.923-26.134
		C88.649,258.985,88.955,158.125,88.649,149.557z"/>
	<path fill="#FFD200" d="M43.453,164.024c-21.027-0.103-41.631-2.922-41.631-2.922l0.305,99.251c0,0,25.728,7.487,40.3,7.366
		c31.637-0.262,46.221-6.91,46.221-6.91l0.307-98.766C88.956,162.044,67.192,164.14,43.453,164.024z"/>
	<path fill="#FF8000" d="M63.861,32.907l-35.987,0.095c-2.808-2.517-3.107-28.153-0.03-30.549
		c4.363-3.398,34.428-3.534,36.965,1.291C66.481,6.924,65.873,31.221,63.861,32.907z"/>
</g>
<g id="Layer_1">
</g>
</svg>
