<?xml version="1.0" encoding="utf-8"?>
<!-- Generator: Adobe Illustrator 25.0.0, SVG Export Plug-In . SVG Version: 6.00 Build 0)  -->
<svg version="1.1" xmlns="http://www.w3.org/2000/svg" xmlns:xlink="http://www.w3.org/1999/xlink" x="0px" y="0px"
	 viewBox="0 0 82.769 239.148" enable-background="new 0 0 82.769 239.148" xml:space="preserve">
<g id="bottle_x5F_deposit_x5F_red">
	<path fill="#E7E9E9" d="M27.07,34.234c-0.357,1.031-23.54,8.467-23.873,36.481c-0.246,20.668,7.543,35.819,7.543,35.819
		l-0.616,55.734c0,0-9.904,16.34-10.117,33.195c-0.301,23.812,9.455,34.533,9.455,34.533s7.129,9.166,31.739,9.152
		c23.038-0.013,31.33-8.541,31.33-8.541s9.956-8.864,10.234-34.229c0.239-21.787-10.868-33.427-10.868-33.427l-0.42-55.746
		c0,0,8.087-13.45,7.636-35.651c-0.495-24.344-24.78-37.019-24.78-37.019l1.52-28.285L27.037,5.932L27.07,34.234z"/>
	<path fill="#FF4035" d="M57.49,29.91l-32.709,0.086c-2.553-2.288-2.824-25.588-0.028-27.766c3.965-3.088,31.291-3.212,33.598,1.173
		C59.872,6.294,59.319,28.378,57.49,29.91z"/>
	<path fill="#FF4035" d="M40.101,111.255c-14.912-0.092-29.189-4.715-29.189-4.715l-0.616,55.734c0,0,16.323,8.274,26.658,8.229
		c22.436-0.097,35.114-7.799,35.114-7.799l-0.418-55.493C71.65,107.211,56.936,111.359,40.101,111.255z"/>
</g>
<g id="Layer_1">
</g>
</svg>
