<?xml version="1.0" encoding="utf-8"?>
<!-- Generator: Adobe Illustrator 25.0.0, SVG Export Plug-In . SVG Version: 6.00 Build 0)  -->
<svg version="1.1" xmlns="http://www.w3.org/2000/svg" xmlns:xlink="http://www.w3.org/1999/xlink" x="0px" y="0px"
	 viewBox="0 0 71.635 214.025" enable-background="new 0 0 71.635 214.025" xml:space="preserve">
<g id="bottle_x5F_deposit_x5F_blue">
	<path fill="#E7E9E9" d="M54.947,39.234c-5.927-9.798-6.822-11.938-4.4-15.399c7.62-10.888,3.178-19.727,3.178-19.727h-0.009
		C53.602,1.75,46.221-0.085,37.14,0.003C28,0.091,20.607,2.092,20.627,4.472c0,0.031,0.016,0.061,0.019,0.092
		c-0.415,2.438-2.978,12.633,1.547,19.271c1.975,2.897,3.666,7.577-3.911,15.399C8.623,49.205,1.194,69.335,1.194,97.916
		c0,0-1,99.1-1,104.049s13.199,12.06,33.732,12.06c20.532,0,35.899-5.273,35.931-12.06c0.033-6.787,1.467-104.049,1.467-104.049
		C71.461,74.432,66.924,59.033,54.947,39.234z"/>
	<ellipse transform="matrix(1 -0.0098 0.0098 1 -0.0531 0.3645)" fill="#B2B2B2" cx="37.171" cy="5.6" rx="13.823" ry="3.599"/>
	<path fill="#31D8E2" d="M33.907,107.702c-17.294-0.118-33.713-4.768-33.713-4.768L0,158.547c0,0,13.181,8.398,34.363,8.398
		c26.018-0.058,36.272-7.753,36.272-7.753l1-55.235C71.635,103.958,53.43,107.835,33.907,107.702z"/>
</g>
<g id="Layer_1">
</g>
</svg>
