<?xml version="1.0" encoding="utf-8"?>
<!-- Generator: Adobe Illustrator 26.0.3, SVG Export Plug-In . SVG Version: 6.00 Build 0)  -->
<svg version="1.1" xmlns="http://www.w3.org/2000/svg" xmlns:xlink="http://www.w3.org/1999/xlink" x="0px" y="0px"
	 viewBox="0 0 269.344 132.638" enable-background="new 0 0 269.344 132.638" xml:space="preserve">
<g id="bowl_x5F_red">
	<g>
		<path fill="#AA1E28" d="M269.344,0c0,50.988-25.248,135.601-138.659,132.558C30.499,129.872,0,56.488,0,0L269.344,0z"/>
		<path fill="#FF4035" d="M0.769,7.588L0.543,13.06c1.184,14.346,4.383,29.305,10.162,43.596
			c8.386-2.124,15.541-6.581,21.481-13.342c6.13-6.977,15.125-27.067,15.125-27.067s4.208,21.386,8.822,29.171
			c7.136,12.039,19.091,16.847,34.274,13.728c18.142-3.726,28.219-14.752,34.379-29.018c2.145-4.967,3.42-10.214,5.388-16.236
			c2.196,10.908,4.819,20.73,10.04,29.991c11.699,20.751,38.913,22.402,55.725,7.156c11.596-10.516,18.308-23.312,23.907-36.696
			c0.396-0.948,6.243,26.029,14.67,36.548c5.492,6.855,13.634,10.405,22.637,10.284c7.522-17.492,10.965-35.768,11.908-51.772
			C218.028,7.174,29.16,7.238,0.769,7.588z"/>
	</g>
</g>
<g id="Layer_1">
</g>
</svg>
