<?xml version="1.0" encoding="utf-8"?>
<!-- Generator: Adobe Illustrator 25.0.0, SVG Export Plug-In . SVG Version: 6.00 Build 0)  -->
<svg version="1.1" xmlns="http://www.w3.org/2000/svg" xmlns:xlink="http://www.w3.org/1999/xlink" x="0px" y="0px"
	 viewBox="0 0 210.416 250.342" enable-background="new 0 0 210.416 250.342" xml:space="preserve">
<g id="broccoli">
	<g>
		<path fill="#8CD000" d="M26.99,122.14c0,0,4.267,7.927,2.821,37.951s-23.48,59.752-18.463,65.532
			c5.017,5.779,44.583,27.435,55.4,24.436c10.819-2.998,24.464-68.255,60.399-85.796L26.99,122.14z"/>
		<path fill="#0EB800" d="M40.472,131.711c0,0,2.701,18.849-4.62,62.711c0,0,20.985-40.593,23.423-57.399L40.472,131.711z"/>
		<path fill="#0EB800" d="M108.344,161.911c0,0-19.565,15.672-40.998,56.405L89.107,151.1L108.344,161.911z"/>
		<polygon fill="#0EB800" points="76.191,133.851 48.797,209.564 52.416,211.271 91.149,140.91 		"/>
		<path fill="#00A038" d="M186.689,80.013c-4.688-2.212-9.578-3.462-14.449-3.847c0.427-0.783,0.839-1.577,1.224-2.393
			c10.784-22.855,0.809-50.216-22.28-61.112c-18.443-8.703-39.666-4.258-52.961,9.527C93.011,15.168,86.03,9.283,77.549,5.281
			C50.286-7.584,17.864,3.863,5.13,30.849c-12.229,25.917-1.841,56.729,23.15,70.525c-0.694,1.128-1.337,2.301-1.915,3.527
			c-8.576,18.174-0.644,39.93,17.716,48.594c13.403,6.324,28.651,3.916,39.248-4.91c1.969,9.68,8.363,18.374,18.045,22.942
			c16.21,7.649,35.489,0.843,43.061-15.203c0.869-1.841,1.537-3.725,2.03-5.626c1.703,1.139,3.511,2.168,5.421,3.069
			c20.576,9.709,45.045,1.069,54.656-19.297C216.153,114.103,207.263,89.722,186.689,80.013z"/>
	</g>
</g>
<g id="Layer_1">
</g>
</svg>
