<?xml version="1.0" encoding="utf-8"?>
<!-- Generator: Adobe Illustrator 24.2.3, SVG Export Plug-In . SVG Version: 6.00 Build 0)  -->
<svg version="1.1" xmlns="http://www.w3.org/2000/svg" xmlns:xlink="http://www.w3.org/1999/xlink" x="0px" y="0px"
	 viewBox="0 0 400.612 240.471" enable-background="new 0 0 400.612 240.471" xml:space="preserve">
<g id="cake_x5F_base">
	<g id="Kakku_2_">
		<path fill="#FFFFFF" d="M363.107,19.494c-97.529-28.19-223.147-23.696-306.888,0c-69.723,19.73-40.081,214.72-40.081,214.72
			h370.362C386.499,234.214,408.34,32.568,363.107,19.494z"/>
		<path fill="#FDA519" d="M53.471,159.136c32.004,1.631,40.405,57.312,39.918,68.157c19.504-84.535,88.137-100.207,107.314-1.732
			c-2.38-12.222,11.521-46.491,27.074-58.966c17.455-14,40.794-14.651,54.329,2.965c15.796,20.648,13.603,40.734,15.391,57.483
			c2.071-17.028,13.445-53.785,32.082-62.304c57.628-35.511,73.007,62.1,70.836,75.732H0C0,240.471,0,156.41,53.471,159.136z"/>
		<path fill="#FDA519" d="M26.938,131.295c0.436-29.334,43.34-30.366,44.643-1.31C75.011,159.726,25.904,161.084,26.938,131.295z"/>
		<path fill="#FDA519" d="M331.834,122.873c0.436-29.334,43.34-30.366,44.643-1.31C379.907,151.304,330.8,152.663,331.834,122.873z"
			/>
		<path fill="#A3D02A" d="M86.409,116.216c0.436-29.334,43.34-30.366,44.643-1.31C134.482,144.646,85.374,146.006,86.409,116.216z"
			/>
		<path fill="#A3D02A" d="M186.241,111.774c0.436-29.334,43.34-30.366,44.643-1.31C234.314,140.205,185.206,141.563,186.241,111.774
			z"/>
		<path fill="#FDA519" d="M139.973,133.962c0.058-23.405,34.977-24.164,35.742-1.048
			C178.461,156.723,139.143,157.813,139.973,133.962z"/>
		<path fill="#FDA519" d="M242.052,127.223c0.058-23.405,34.977-24.164,35.742-1.048
			C280.541,149.985,241.223,151.073,242.052,127.223z"/>
		<path fill="#A3D02A" d="M287.322,145.062c0.058-23.405,34.977-24.164,35.742-1.048
			C325.81,167.823,286.493,168.913,287.322,145.062z"/>
	</g>
</g>
<g id="Layer_1">
</g>
</svg>
