<?xml version="1.0" encoding="utf-8"?>
<!-- Generator: Adobe Illustrator 25.0.0, SVG Export Plug-In . SVG Version: 6.00 Build 0)  -->
<svg version="1.1" xmlns="http://www.w3.org/2000/svg" xmlns:xlink="http://www.w3.org/1999/xlink" x="0px" y="0px"
	 viewBox="0 0 80.757 176.234" enable-background="new 0 0 80.757 176.234" xml:space="preserve">
<g id="can_x5F_deposit_x5F_green">
	<path fill="#E8E9E9" d="M0,25.025l1.036,133.703l7.776,10.102c6.924,4.291,18.189,7.871,32.628,7.355
		c14.005-0.5,25.009-4.274,31.755-8.536l7.479-9.918L80.558,24.019L75.464,9.348L4.29,10.585L0,25.025z"/>
	<path fill="#8CD000" d="M38.534,141.507c-20.655,0.199-37.63-6.538-37.63-6.538L0,49.085c3.613,3.383,26.804,7.968,39.444,7.787
		c14.845-0.213,31.723-3.573,41.204-7.704l0.11,84.781C80.757,133.949,60.966,141.291,38.534,141.507z"/>
	<ellipse transform="matrix(1 -0.0096 0.0096 1 -0.091 0.3872)" fill="#B2B2B2" cx="40.154" cy="9.646" rx="35.965" ry="9.64"/>
	<ellipse transform="matrix(1 -0.009 0.009 1 -0.0868 0.2798)" fill="#E8E9E9" cx="31.046" cy="9.789" rx="11.557" ry="2.725"/>
</g>
<g id="Layer_1">
</g>
</svg>
