<?xml version="1.0" encoding="utf-8"?>
<!-- Generator: Adobe Illustrator 25.0.0, SVG Export Plug-In . SVG Version: 6.00 Build 0)  -->
<svg version="1.1" xmlns="http://www.w3.org/2000/svg" xmlns:xlink="http://www.w3.org/1999/xlink" x="0px" y="0px"
	 viewBox="0 0 85.68 136.234" enable-background="new 0 0 85.68 136.234" xml:space="preserve">
<g id="can_x5F_deposit_x5F_blue">
	<path fill="#E8E9E9" d="M81.129,10.585L5.616,9.348L0.211,24.019l-0.123,93.712l7.935,9.918c7.158,4.262,18.832,8.036,33.691,8.536
		c15.319,0.516,27.271-3.064,34.617-7.355l8.25-10.102l1.099-93.703L81.129,10.585z"/>
	<path fill="#005DA9" d="M0,113.949l0.116-84.781c10.059,4.131,27.966,7.491,43.716,7.704c13.41,0.181,38.015-4.404,41.848-7.787
		l-0.96,85.884c0,0-18.009,6.737-39.924,6.538C20.998,121.291,0,113.949,0,113.949z"/>
	<ellipse transform="matrix(0.009 -1 1 0.009 33.0454 52.6366)" fill="#B2B2B2" cx="43.079" cy="9.646" rx="9.64" ry="38.158"/>
	<ellipse transform="matrix(0.009 -1 1 0.009 44.3545 64.3327)" fill="#E8E9E9" cx="54.634" cy="9.789" rx="2.725" ry="11.557"/>
</g>
<g id="Layer_1">
</g>
</svg>
