<?xml version="1.0" encoding="utf-8"?>
<!-- Generator: Adobe Illustrator 26.0.3, SVG Export Plug-In . SVG Version: 6.00 Build 0)  -->
<svg version="1.1" xmlns="http://www.w3.org/2000/svg" xmlns:xlink="http://www.w3.org/1999/xlink" x="0px" y="0px"
	 viewBox="0 0 161.922 142.214" enable-background="new 0 0 161.922 142.214" xml:space="preserve">
<g id="candy_x5F_cane_x5F_heart_x5F_pink">
	<path fill="#FF9EC5" d="M160.932,34.319c-8.955-35.167-53.124-41.798-78.807-19.334C56.693-9.401,10.6-4.267,1.044,32.172
		c-8.82,48.239,40.009,69.582,80.777,110.042C121.848,102.839,169.403,82.357,160.932,34.319z M125.127,79.079
		c-1.374,1.223-19.738,17.374-43.259,38.052C43.869,79.762,16.415,71.969,19.262,36.83c7.385-21.478,31.292-25.536,52.821-5.471
		c7.077,8.033,11.065,9.052,15.805,3.805C129.884-4.587,166.122,44.439,125.127,79.079z"/>
	<g>
		<path fill="#C10D26" d="M87.888,35.163c1.843-1.744,3.673-3.307,5.487-4.718L90.722,8.919c-3.024,1.712-5.915,3.721-8.597,6.067
			c-1.937-1.857-4.006-3.522-6.157-5.036l-2.617,22.807C79.652,39.491,83.439,40.088,87.888,35.163z"/>
		<path fill="#C10D26" d="M81.869,117.13c-2.301-2.262-4.561-4.412-6.78-6.47l-4.158,21.302c3.662,3.291,7.307,6.696,10.889,10.252
			c3.553-3.496,7.167-6.84,10.794-10.07l-4.161-20.803C86.312,113.224,84.114,115.156,81.869,117.13z"/>
		<path fill="#C10D26" d="M98.403,102.593l7.876,17.853c5.593-4.651,11.085-9.119,16.312-13.526l-14.089-13.208
			C105.449,96.398,102.061,99.377,98.403,102.593z"/>
		<path fill="#C10D26" d="M125.127,79.079c-0.457,0.407-2.8,2.471-6.577,5.794l13.234,14.055
			c5.496-4.971,10.516-9.961,14.817-15.148L128.632,75.9C127.532,76.97,126.366,78.031,125.127,79.079z"/>
		<path fill="#C10D26" d="M139.392,61.281l16.407,8.836c3.092-5.999,5.138-12.39,5.844-19.39l-18.696-1.722
			C142.547,52.961,141.393,57.104,139.392,61.281z"/>
		<path fill="#C10D26" d="M141.122,35.259l18.098-6.217c-2.717-6.993-6.958-12.636-12.185-16.924L132.97,24.782
			C136.589,27.38,139.391,30.985,141.122,35.259z"/>
		<path fill="#C10D26" d="M120.412,20.4l5.663-17.671c-6.786-1.185-13.917-0.992-20.846,0.585l1.78,19.28
			C111.785,20.808,116.299,20.141,120.412,20.4z"/>
		<path fill="#C10D26" d="M56.097,94.128L41.95,107.391c5.036,4.238,10.29,8.547,15.624,13.024l8.043-18.231
			C62.314,99.323,59.134,96.651,56.097,94.128z"/>
		<path fill="#C10D26" d="M36.176,77.029l-18.144,7.957c4.332,4.873,9.262,9.613,14.591,14.362l13.065-13.875
			C42.229,82.558,39.047,79.777,36.176,77.029z"/>
		<path fill="#C10D26" d="M19.965,50.939L0.833,52.701c1.214,6.762,3.72,12.986,7.22,18.878l16.395-8.83
			C22.365,59.117,20.845,55.246,19.965,50.939z"/>
		<path fill="#C10D26" d="M27.361,24.314l-14.15-12.741C8.053,16.316,4,22.53,1.628,30.232l17.814,6.12
			C21.249,31.332,23.97,27.289,27.361,24.314z"/>
		<path fill="#C10D26" d="M56.311,20.95l1.774-19.218c-7.43-1.899-15.13-2.242-22.417-0.968l5.661,17.666
			C46.018,18.02,51.099,18.827,56.311,20.95z"/>
	</g>
</g>
<g id="Layer_1">
</g>
</svg>
