<?xml version="1.0" encoding="utf-8"?>
<!-- Generator: Adobe Illustrator 24.2.3, SVG Export Plug-In . SVG Version: 6.00 Build 0)  -->
<svg version="1.1" xmlns="http://www.w3.org/2000/svg" xmlns:xlink="http://www.w3.org/1999/xlink" x="0px" y="0px"
	 viewBox="0 0 286.19 147.479" enable-background="new 0 0 286.19 147.479" xml:space="preserve">
<g id="candy_x5F_wrap_x5F_stripes_x5F_white">
	<g>
		<path fill="#CCD2D3" d="M1.981,16.626C5.27,11.778,90.809,62.568,91.17,72.22c0.394,10.541-76.324,63.499-83.176,63.755
			C1.14,134.956-2.518,25.075,1.981,16.626z"/>
		<path fill="#CCD2D3" d="M284.209,131.33c-3.288,4.848-88.828-45.941-89.189-55.594c-0.394-10.541,76.324-63.499,83.176-63.755
			C285.05,13,288.708,122.881,284.209,131.33z"/>
		<g>
			<g id="sininen_x5F_2_3_">
				<path fill="#FFFFFF" d="M70.709,80.979c-7.165-64.558,77.323-108.241,123.68-61.31c31.734,32.075,31.506,97.81-11.943,119.587
					C123.865,164.62,69.498,127.39,70.709,80.979z"/>
				<path fill="#CCD2D3" d="M157.819,1.128c-6.393-1.013-12.949-1.168-19.471-0.515c0.326,48.802,0.654,97.604,0.981,146.406
					c6.527,0.507,13.136,0.348,19.627-0.565C158.874,122.256,157.74,5.461,157.819,1.128z"/>
				<path fill="#CCD2D3" d="M112.599,7.575c-1.328,0.605-2.615,1.259-3.884,1.936c-0.001,0.07,0.002,0.142-0.001,0.212
					c-0.68,25.941-2.852,111.326-3.228,128.077c5.879,2.993,12.169,5.236,18.586,6.794c-0.008-19.095,0.42-137.161,0.484-141.375
					C120.479,4.361,116.474,5.81,112.599,7.575z"/>
				<path fill="#CCD2D3" d="M195.625,130.198c-0.134-16.38-1.14-93.366-1.385-110.674c-6.561-6.664-14.245-11.521-22.529-14.699
					c0.094,3.288,4.221,135.865,4.233,137.289c2.208-0.846,4.381-1.787,6.503-2.856
					C187.307,136.807,191.713,133.753,195.625,130.198z"/>
			</g>
			<g id="Layer_1_23_">
			</g>
		</g>
	</g>
</g>
<g id="Layer_1">
</g>
</svg>
