<?xml version="1.0" encoding="utf-8"?>
<!-- Generator: Adobe Illustrator 26.0.3, SVG Export Plug-In . SVG Version: 6.00 Build 0)  -->
<svg version="1.1" xmlns="http://www.w3.org/2000/svg" xmlns:xlink="http://www.w3.org/1999/xlink" x="0px" y="0px"
	 viewBox="0 0 253.075 614.319" enable-background="new 0 0 253.075 614.319" xml:space="preserve">
<g id="candycone_x5F_pink">
	<g id="trophyroom_x5F_donut_x5F_candy_x5F_hook_00000020388925143497905700000001237722283645926570_">
		<g>
			<g>
				<g>
					<path fill="#FF9EC5" d="M129.147,0.001c-17.472-0.075-34.902,3.89-50.844,11.996c-22.1,11.235-40.665,29.923-53.695,54.046
						C10.785,91.634,3.154,122.891,1.927,158.945C1.825,161.906,0.544,454.568,0,589.475c-0.054,13.662,10.977,24.784,24.64,24.843
						c0.003,0,0.003,0,0.005,0c13.665,0.056,24.79-10.977,24.843-24.645c0.614-152.096,1.798-419.215,1.905-429.276
						c1.795-51.257,19.771-89.259,49.336-104.287c20.725-10.538,45.132-8.665,65.281,5.008
						c12.968,8.796,42.517,35.885,36.874,97.251c-1.251,13.609,8.764,25.655,22.376,26.907c13.601,1.262,25.655-8.764,26.906-22.376
						c2.904-31.569-1.163-60.428-12.089-85.783c-10.182-23.627-26.186-43.323-46.278-56.956
						C174.228,6.89,151.651,0.095,129.147,0.001z"/>
					<path fill="#C10D26" d="M49.842,499.357c-15.449,6.725-33.131,14.423-49.58,21.591c-0.072,17.869-0.142,34.894-0.206,50.657
						c15.602-5.699,33.27-12.022,49.563-17.805C49.692,536.37,49.765,518.096,49.842,499.357z"/>
					<path fill="#C10D26" d="M50.239,389.719c-15.958,6.948-33.626,14.643-49.582,21.596c-0.07,16.878-0.139,33.701-0.206,50.177
						c15.061-5.544,32.769-11.907,49.563-17.882C50.089,425.69,50.164,407.622,50.239,389.719z"/>
					<path fill="#C10D26" d="M50.743,271.418c-16.167,7.039-33.838,14.734-49.582,21.599c-0.067,16.052-0.137,32.812-0.209,49.984
						c14.809-5.471,32.547-11.856,49.566-17.92C50.595,306.352,50.67,288.32,50.743,271.418z"/>
					<path fill="#C10D26" d="M51.246,168.299c-15.578,3.135-33.085,6.658-49.534,9.975c-0.056,11.666-0.131,28.163-0.22,48.1
						c16.368-2.227,33.894-4.52,49.518-6.532C51.115,196.025,51.196,177.988,51.246,168.299z"/>
					<path fill="#C10D26" d="M85.055,67.302c-15.578-5.051-33.731-10.937-50.919-16.505c-3.47,4.855-6.698,9.994-9.63,15.423
						c-4.622,8.558-8.534,17.762-11.765,27.555c15.624,6.205,31.976,12.789,46.163,18.528
						C64.678,93.453,73.523,78.111,85.055,67.302z"/>
					<path fill="#C10D26" d="M158.725,57.032c-1.779-16.492-3.874-35.866-5.86-54.191c-7.859-1.707-15.841-2.626-23.82-2.661
						c-8.084-0.035-16.151,0.836-24.072,2.54c0.74,17.344,1.431,35.403,1.991,50.815C123.721,47.22,142.241,48.471,158.725,57.032z"
						/>
					<path fill="#C10D26" d="M201.429,119.882c13.215-10.6,28.182-22.606,42.01-33.704c-1.072-3.001-2.213-5.967-3.464-8.877
						c-5.179-12.02-11.88-23.005-19.844-32.707C206.74,54.012,192.29,64.063,179.3,73.057
						C188.083,82.759,197.399,97.772,201.429,119.882z"/>
					<path fill="#C10D26" d="M225.155,185.458c13.601,1.262,25.655-8.764,26.906-22.373c0.804-8.746,1.018-17.261,0.756-25.572
						c-15.473,6.982-33.444,14.938-50.086,22.247C202.161,172.862,211.951,184.244,225.155,185.458z"/>
				</g>
			</g>
		</g>
	</g>
</g>
<g id="Layer_1">
</g>
</svg>
