<?xml version="1.0" encoding="utf-8"?>
<!-- Generator: Adobe Illustrator 25.0.0, SVG Export Plug-In . SVG Version: 6.00 Build 0)  -->
<svg version="1.1" xmlns="http://www.w3.org/2000/svg" xmlns:xlink="http://www.w3.org/1999/xlink" x="0px" y="0px"
	 viewBox="0 0 219.844 235.481" enable-background="new 0 0 219.844 235.481" xml:space="preserve">
<g id="candy_x5F_blue_x5F_pink">
	<g>
		<path fill="#005F8A" d="M219.83,61.981c1.177,4.684-77.026,29.432-83.162,24.355c-6.702-5.544,2.83-81.814,6.434-86.171
			C147.491-3.492,217.102,54.575,219.83,61.981z"/>
		<path fill="#005F8A" d="M0.013,173.5c-1.177-4.684,77.026-29.432,83.162-24.355c6.702,5.544-2.83,81.814-6.434,86.171
			C72.353,238.973,2.741,180.906,0.013,173.5z"/>
		<path fill="#FF9EC5" d="M113.396,59.332c-26.009-4.697-48.595,16.075-59.973,44.331c-10.139,25.178,13.473,57.87,45.94,68.481
			c34.891,11.403,63.187-31.4,62.841-56.788C161.788,84.771,136.07,63.427,113.396,59.332z"/>
		<path fill="#FFE400" d="M124.868,171.291c5.122-2.044,9.883-5.125,14.175-8.889L57.448,94.898
			c-1.461,2.824-2.81,5.748-4.025,8.765c-0.56,1.391-1,2.809-1.359,4.241L124.868,171.291z"/>
		<path fill="#FFE400" d="M148.519,152.06c2.064-2.771,3.931-5.679,5.571-8.652l-82.641-68.37c-3.371,3.496-6.486,7.446-9.297,11.76
			L148.519,152.06z"/>
		<path fill="#FFE400" d="M157.688,135.938c2.073-4.999,3.483-9.997,4.123-14.652L94.453,60.367
			c-6.069,1.794-11.783,4.955-17.02,9.175L157.688,135.938z"/>
	</g>
</g>
<g id="Layer_1">
</g>
</svg>
