<?xml version="1.0" encoding="utf-8"?>
<!-- Generator: Adobe Illustrator 24.2.3, SVG Export Plug-In . SVG Version: 6.00 Build 0)  -->
<svg version="1.1" xmlns="http://www.w3.org/2000/svg" xmlns:xlink="http://www.w3.org/1999/xlink" x="0px" y="0px"
	 viewBox="0 0 76.198 187.307" enable-background="new 0 0 76.198 187.307" xml:space="preserve">
<g id="carrot_x5F_simple_x5F_white">
	<path fill="#FFFFFF" d="M46.982,166.672C56.29,141.37,70.195,98.123,75.479,72.78c1.209-8.309,1.823-7.155-6.056-8.463
		c-0.867-0.144-13.195-1.07-28.457-0.592c4.358-20.849,19.39-14.474,20.723-26.023c-0.513-8.7-12.258-8.051-17.389-2.7
		c5.3-9.844,26.728-26.98,8.503-34.756c-4.329-1.453-13.56,3.59-20.165,13.685c-5.604,8.545-5.388,21.366-3.524,32.732
		C24.239,36.07,17.475,26.31,9.792,29.161C-8.307,37.3,14.226,55.78,26.751,64.59c-6.203,1.504-28.221,0.829-26.673,9.053
		c0.78,8.942,10.551,42.571,11.987,46.434c6.095,17.045,16.834,51.966,25.314,67.231C38.507,187.333,44.692,173.139,46.982,166.672z
		"/>
</g>
<g id="Layer_1">
</g>
</svg>
