<?xml version="1.0" encoding="utf-8"?>
<!-- Generator: Adobe Illustrator 24.2.3, SVG Export Plug-In . SVG Version: 6.00 Build 0)  -->
<svg version="1.1" xmlns="http://www.w3.org/2000/svg" xmlns:xlink="http://www.w3.org/1999/xlink" x="0px" y="0px"
	 viewBox="0 0 154.266 381.185" enable-background="new 0 0 154.266 381.185" xml:space="preserve">
<g id="carrot">
	<g>
		<g>
			<path fill="#A2CF2A" d="M68.951,143.62c0,0-99.888-58.702-51.303-81.976c31.234-12.458,56.805,81.373,56.805,81.373
				L68.951,143.62z"/>
			<path fill="#85A50F" d="M72.45,146.024c0,0-36.856-69.39-11.314-116.525C74.972,5.892,92-2.974,103.506,0.862
				c25.893,7.87,15.224,36.502-4.092,53.616c-34.13,32.943-22.5,90.851-22.5,90.851L72.45,146.024z"/>
			<path fill="#A2CF2A" d="M74.453,143.017c0,0-18.038-59.911,25.531-78.619c11.836-5.006,22.317,2.053,23.386,12.028
				c0.716,6.712-6.196,14.561-12.655,16.576c-27.773,8.627-30.184,49.72-30.184,49.72L74.453,143.017z"/>
			<path fill="#FCA419" d="M140.37,130.054c-3.124-0.441-79.076-4.096-131.626,11.282c-7.336,1.026-9.281,4.89-8.625,11.044
				c2.021,18.103,23.497,85.861,26.599,93.628c2.977,8.395,31.667,86.225,35.319,93.169c0.124,0.468,17.054,42.01,19.345,42.007
				c2.291-0.003,14.144-29.108,18.473-42.343l0,0c4.539-11.308,7.756-23.056,11.532-34.617c2.355-8.191,28.016-96.42,30.091-103.966
				c2.652-12.385,11.162-47.781,11.595-53.331C155.118,130.01,156.422,132.322,140.37,130.054z"/>
			<path fill="#F67F15" d="M11.977,199.569l137.922-36.532c1.706-7.715,3.01-14.022,3.173-16.109
				c0.033-0.268,0.064-0.518,0.096-0.776L4.693,173.56C6.768,181.538,9.333,190.602,11.977,199.569z"/>
			<path fill="#F67F15" d="M141.288,200.939l-122.227,21.9c3.639,11.594,6.639,20.621,7.657,23.17c0.109,0.306,0.255,0.715,0.43,1.2
				l107.404-22.869C137.85,212.945,140.418,204.036,141.288,200.939z"/>
			<path fill="#F67F15" d="M43.981,292.755l73.719-10.306c2.283-7.864,4.96-17.086,7.682-26.471l-88.728,17.097
				C38.953,279.278,41.46,286.019,43.981,292.755z"/>
			<path fill="#F67F15" d="M54.522,320.605c3.675,9.549,6.522,16.684,7.515,18.573c0.024,0.089,0.658,1.671,1.682,4.166
				l34.701-0.308c0.537-1.516,1.02-2.928,1.434-4.194c4.058-10.107,7.061-20.567,10.349-30.929L54.522,320.605z"/>
		</g>
	</g>
</g>
<g id="Layer_1">
</g>
</svg>
