<?xml version="1.0" encoding="utf-8"?>
<!-- Generator: Adobe Illustrator 25.0.0, SVG Export Plug-In . SVG Version: 6.00 Build 0)  -->
<svg version="1.1" xmlns="http://www.w3.org/2000/svg" xmlns:xlink="http://www.w3.org/1999/xlink" x="0px" y="0px"
	 viewBox="0 0 323.103 112.812" enable-background="new 0 0 323.103 112.812" xml:space="preserve">
<g id="carrot_x5F_core">
	<g>
		<path fill="#7FA849" d="M210.012,34.813c13.448,15.227,12.095,37.058,14.777,56.022c0.913,20.676,22.18,32.16,31.821,9.776
			c4.03-8.202-3.716-33.614-6.123-39.072c-10.66-24.173-38.021-31.281-38.021-31.281L210.012,34.813z"/>
		<path fill="#7FA849" d="M214.779,35.07c94.747-31.717,135.274,66.003,89.413,61.861c-8.15-0.736-12.785-10.045-18.624-15.78
			c-25.643-25.182-66.16-44.988-70.666-44.576L214.779,35.07z"/>
		<path fill="#B5D700" d="M216.507,38.905c28.054-1.997,63.423,15.649,56.623,44.494c-1.286,5.455-7.239,9.167-12.814,8.604
			c-16.822-1.699-10.405-20.449-14.592-28.982c-4.772-9.727-16.209-18.549-30.269-20.754L216.507,38.905z"/>
		<path fill="#FFA600" d="M65.56,68.992c6.667-3.063,17.206-2.228,23.742-0.356l21.678-0.807c6.606-3.957,17.092-6.594,24.177-5.658
			l12.632-1.025l20.159,28.729c10.455,0.328,21.499,6.212,26.533,16.077l40.441-1.384C235.817,102.593,224.795,30.13,215.58,0
			c-5.077,11.645-20.132,18.546-32.529,14.321c1.072,19.324-17.96,30.216-33.728,27.28l-23.904-3.499
			c-13.322,11.672-38.651,8.916-44.783-10.29L0,80.623l48.889,9.635C50.636,81.222,56.559,73.129,65.56,68.992z"/>
		<path fill="#F67F15" d="M221.651,105.022L188.832,15.44c-1.984-0.166-3.92-0.547-5.783-1.119
			c0.291,7.93-2.918,15.336-8.359,20.569l26.487,70.832L221.651,105.022z"/>
		<path fill="#F67F15" d="M149.323,41.601c-7.581-1.809-13.786-6.701-17.447-13.63c-1.372,3.825-3.592,7.284-6.456,10.131
			c0.033,0.082,9.739,24.069,9.739,24.069c9.066,1.728,17.072,7.251,21.219,16.276c1.917,4.172,2.745,8.555,2.666,12.858
			c2.937-0.962,5.936-1.407,8.906-1.43L149.323,41.601z"/>
		<path fill="#F67F15" d="M101.957,44.793c-10.008-1.368-17.94-7.31-21.322-16.981l-4.607,3.018l13.275,37.805
			c5.177,2.178,9.759,5.806,13.041,10.672c1.861-4.413,4.801-8.369,8.637-11.478L101.957,44.793z"/>
		<path fill="#F67F15" d="M53.879,45.337L34.983,57.712l6.824,31.224l7.081,1.322c1.735-8.977,7.593-17.018,16.495-21.178
			L53.879,45.337z"/>
	</g>
</g>
<g id="Layer_1">
</g>
</svg>
