<?xml version="1.0" encoding="utf-8"?>
<!-- Generator: Adobe Illustrator 25.0.0, SVG Export Plug-In . SVG Version: 6.00 Build 0)  -->
<svg version="1.1" xmlns="http://www.w3.org/2000/svg" xmlns:xlink="http://www.w3.org/1999/xlink" x="0px" y="0px"
	 viewBox="0 0 577.312 329.836" enable-background="new 0 0 577.312 329.836" xml:space="preserve">
<g id="celery">
	<g id="celery_x5F_1_1_">
		<g>
			<g>
				<polygon fill="#A3D02A" points="0,270.726 34.15,329.836 434.58,160.759 420.05,120.596 				"/>
				<g opacity="0.5">
					<polygon fill="#69B802" points="14.04,295.029 425.581,135.884 423.157,129.184 10.434,288.787 					"/>
					<polygon fill="#69B802" points="431.71,152.824 429.284,146.12 25.69,315.194 29.281,321.409 					"/>
				</g>
			</g>
			<g>
				<path fill="#5AA043" d="M418.203,91.868c0,0-15.895-24.174,1.152-62.792l28.254,50.67L418.203,91.868z"/>
				<path fill="#5AA043" d="M481.181,89.047c0,0,21.081-12.104,22.935-47.523l-40.392,27.288L481.181,89.047z"/>
				<g>
					<g>
						<path fill="#5AA043" d="M485.12,85.494C494.33,58.627,475.884,0.498,473.637,0c0,0-46.076,25.299-52.442,58.154
							c-10.104,52.154,11.132,52.635-11.725,86.718C431.731,148.244,472.159,123.307,485.12,85.494z"/>
					</g>
				</g>
			</g>
			<g>
				<g>
					<g>
						<path fill="#A3D02A" d="M485.565,76.316c31.391-4.767,91.649,27.126,91.747,29.698c0,0-37.025,45.633-74.436,46.075
							c-59.384,0.703-55.675-22.751-97.728-4.414C405.885,122.516,441.385,83.025,485.565,76.316z"/>
					</g>
				</g>
				<path fill="#A3D02A" d="M457.657,86.715c0,0,21.297-26.092,70.136-20.643l-46.409,49.067L457.657,86.715z"/>
			</g>
			<g>
				<path fill="#5AA043" d="M466.245,215.087c0,0,15.326,18.35,49.95,14.093l-33.334-34.459L466.245,215.087z"/>
				<g>
					<g>
						<path fill="#5AA043" d="M481.541,215.909c25.265,6.629,77.333-14.222,77.638-16.317c0,0-26.321-40.549-56.887-44.164
							c-48.52-5.738-47.524,13.771-80.331-4.886C420.374,171.186,445.982,206.579,481.541,215.909z"/>
					</g>
				</g>
			</g>
			<g>
				<g>
					<path fill="#69B802" d="M460.915,183.084c24.803-8.189,57.137-54.02,56.252-55.942c0,0-44.15-19.693-71.76-6.091
						c-43.828,21.592-32.375,37.417-70.051,39.62C385.262,178.855,426.007,194.609,460.915,183.084z"/>
				</g>
			</g>
			<g>
				<path fill="#69B802" d="M331.553,126.701c0,0-15.729-20.947-2.506-56.809l28.394,44.194L331.553,126.701z"/>
				<g>
					<g>
						<path fill="#69B802" d="M391.372,112.787c9.099-24.484-6.492-78.362-8.547-78.872c0,0-42.957,22.175-49.582,52.232
							c-10.516,47.712,8.996,48.654-12.82,79.452C340.811,169.224,378.566,147.246,391.372,112.787z"/>
					</g>
				</g>
				<path fill="#69B802" d="M369.788,143.045c0,0,25.074-7.584,35.628-44.32l-49.037,18.834L369.788,143.045z"/>
			</g>
			<g>
				<g>
					<g>
						<path fill="#69B802" d="M350.846,201.979c22.427,8.979,49.65,53.135,48.723,54.86c0,0-41.882,15.651-66.59,1.515
							c-39.221-22.44-27.743-36.393-62.396-40.583C280.769,201.553,319.283,189.342,350.846,201.979z"/>
					</g>
				</g>
				<path fill="#69B802" d="M307.48,239.247c0,0,6.532,23.33,40.298,33.794l-16.474-45.704L307.48,239.247z"/>
				<path fill="#69B802" d="M328.372,198.037c0,0,22.603-8.722,51.186,12.078l-46.48,14.137L328.372,198.037z"/>
			</g>
			<path fill="#69B802" d="M425.497,134.684c0,0,11.032-23.759,48.887-29.045l-25.538,45.903L425.497,134.684z"/>
			<path fill="#69B802" d="M450.407,183.18c0,0,24.928,8.052,54.529-16.128l-51.03-12.458L450.407,183.18z"/>
			<g>
				<g>
					<path fill="#A3D02A" d="M440.337,170.868c21.627,14.647,40.226,67.562,38.849,69.171c0,0-47.849,6.896-70.698-13.724
						c-36.271-32.734-20.933-44.833-56.579-57.234C366.401,154.29,409.899,150.254,440.337,170.868z"/>
				</g>
			</g>
			<path fill="#A3D02A" d="M418.154,162.214c0,0,27.773-3.842,54.467,27.158l-56.106,3.622L418.154,162.214z"/>
			<path fill="#A3D02A" d="M386.429,199.94c0,0,1.599,27.992,37.174,48.19l-7.291-55.748L386.429,199.94z"/>
		</g>
	</g>
</g>
<g id="Layer_1">
</g>
</svg>
