<?xml version="1.0" encoding="utf-8"?>
<!-- Generator: Adobe Illustrator 24.2.3, SVG Export Plug-In . SVG Version: 6.00 Build 0)  -->
<svg version="1.1" xmlns="http://www.w3.org/2000/svg" xmlns:xlink="http://www.w3.org/1999/xlink" x="0px" y="0px"
	 viewBox="0 0 272.995 211.194" enable-background="new 0 0 272.995 211.194" xml:space="preserve">
<g id="cheese">
	<g id="matikka_x5F_cheese_1_">
		<path fill="#FFD200" d="M1.812,90.505l270.406-57.001l0.254,143.566L5.737,211.194l-4.738-56.085
			c41.828-1.626,31.25-50.263-0.635-43.455L1.812,90.505z"/>
		<path fill="#FCE300" d="M272.995,34.137l-52.972-20.508c-5.527,21.255-32.875,18.738-30.945-8.96L163.232,0
			C113.538,21.037,2.35,89.49,2.166,90.528C1.986,91.566,272.449,35.387,272.995,34.137z"/>
		<path fill="#FCA419" d="M105.126,147.32c-13.566-23.196-53-7.262-39.775,18.897c6.549,12.952,24.906,14.198,33.087,8.522
			C108.753,167.583,109.418,154.657,105.126,147.32z"/>
		<path fill="#FCA419" d="M170.293,90.257c-13.566-23.196-53-7.262-39.775,18.897c6.549,12.952,24.906,14.198,33.087,8.522
			C173.92,110.519,174.583,97.595,170.293,90.257z"/>
		<path fill="#FCA419" d="M256.576,104.588c-17.862-30.542-69.785-9.562-52.371,24.883c8.622,17.054,32.795,18.693,43.566,11.22
			C261.351,131.267,262.225,114.249,256.576,104.588z"/>
		<path fill="#FCA419" d="M194.412,162.533c-17.862-30.542-69.786-9.562-52.371,24.883c1.109,2.193,2.479,4.127,4.04,5.824
			l49.228-6.298C199.023,178.463,198.136,168.901,194.412,162.533z"/>
		<path fill="#FCA419" d="M0.906,103.741L0,117.424c22.378-5.28,28.693,31.882,0.265,30.871l1.537,16.312
			C43.839,170.703,58.292,97.216,0.906,103.741z"/>
		<path fill="#F9D214" d="M193.443,35.603c6.808,2.26,13.641,2.717,20.384-1.028c7.733-4.088,11.806-11.363,13.615-18.074
			l-7.418-2.871c-5.527,21.255-32.875,18.738-30.945-8.96l-9.05-1.635c-1.004,2.688-1.682,5.615-1.89,8.739
			C177.348,23.606,183.013,32.141,193.443,35.603z"/>
		<path fill="#F9D214" d="M119.33,21.689L83.461,41.602C102.189,71.961,141.296,40.101,119.33,21.689z"/>
	</g>
</g>
<g id="Layer_1">
</g>
</svg>
