<?xml version="1.0" encoding="utf-8"?>
<!-- Generator: Adobe Illustrator 26.0.3, SVG Export Plug-In . SVG Version: 6.00 Build 0)  -->
<svg version="1.1" xmlns="http://www.w3.org/2000/svg" xmlns:xlink="http://www.w3.org/1999/xlink" x="0px" y="0px"
	 viewBox="0 0 100.525 50.953" enable-background="new 0 0 100.525 50.953" xml:space="preserve">
<g id="chocolate_x5F_praline_x5F_2">
	<g>
		<path fill="#6A4019" d="M98.129,42.341c-2.659,5.064-8.405,8.204-19.11,8.612c-8.747-0.035-61.981,0.337-70.362-2.613
			c-6.208-1.933-7.276-4.582-8.285-7.805C-0.862,34.419,1.114,13.944,4.27,8.344c1.49-3.428,10.129-6.579,16.859-7.182
			c8.532-1.316,54.327-1.908,65.634,0.391c6.596,1.074,9.904,4.751,11.674,7.915C101.623,14.626,100.875,32.966,98.129,42.341z"/>
		<g>
			<g>
				<path fill="#915815" d="M88.742,1.984c-0.627-0.168-1.281-0.317-1.979-0.431c-2.898-0.59-8.066-0.989-14.289-1.235
					c-2.834,4.471-5.11,9.609-6.664,15.14c-1.303,4.635-2.103,9.824-0.98,14.547c1.123,4.722,4.698,8.6,8.231,7.543
					c3.801-1.137,5.715-6.849,7.08-11.853C82.406,17.395,84.794,8.934,88.742,1.984z"/>
			</g>
			<g>
				<path fill="#915815" d="M21.773,37.548c3.8-1.137,5.714-6.849,7.08-11.853c2.464-9.029,5.072-18.25,9.678-25.507
					c-8.062,0.201-14.659,0.55-17.402,0.973c-0.164,0.015-0.333,0.038-0.499,0.055c-2.575,4.257-4.656,9.077-6.108,14.242
					c-1.303,4.635-2.103,9.824-0.98,14.547S18.24,38.605,21.773,37.548z"/>
			</g>
			<g>
				<path fill="#915815" d="M47.894,37.025c3.8-1.137,5.714-6.849,7.08-11.853c2.416-8.854,4.971-17.892,9.412-25.082
					C58.798-0.012,52.84-0.023,47.156,0.037c-2.763,4.414-4.986,9.467-6.512,14.899c-1.303,4.635-2.103,9.824-0.98,14.547
					C40.787,34.205,44.362,38.082,47.894,37.025z"/>
			</g>
		</g>
	</g>
</g>
<g id="Layer_1">
</g>
</svg>
