<?xml version="1.0" encoding="utf-8"?>
<!-- Generator: Adobe Illustrator 26.0.3, SVG Export Plug-In . SVG Version: 6.00 Build 0)  -->
<svg version="1.1" xmlns="http://www.w3.org/2000/svg" xmlns:xlink="http://www.w3.org/1999/xlink" x="0px" y="0px"
	 viewBox="0 0 77.163 69.095" enable-background="new 0 0 77.163 69.095" xml:space="preserve">
<g id="chocolate_x5F_praline_x5F_3">
	<g>
		<g>
			<path fill="#6A4019" d="M60.824,9.748c-10.49-10.042-28.72-13.587-40.1-4.566C0.83,20.952,0,62.314,0,62.314
				c23.044,13.02,75.37,4.297,77.163-1.45C77.163,60.864,72.72,21.137,60.824,9.748z"/>
		</g>
		<path fill="#915815" d="M56.553,30.702c4.362-4.479,5.154-11.336,2.001-16.795C55.398,8.443,49.573,4.81,43.819,3.284
			c-5.535-1.468-12.064-1.13-16.386,3.275c-1.935,1.971-3.65,4.983-3.564,7.91c0.097,3.297,2.223,6.077,4.57,8.016
			c3.219,2.66,7.281,4.232,11.348,4.501c3.406,0.226,8.358-0.623,10.462-3.862c1.671-2.571,0.231-5.504-1.831-7.215
			c-3.656-3.034-8.802-3.412-13.246-3.049c-1.976,0.161-1.992,3.45,0,3.288c3.503-0.286,7.467-0.209,10.573,1.787
			c1.404,0.902,3.004,2.436,1.38,3.885c-4.607,4.111-12.977,1.444-17.077-2.152c-1.738-1.524-3.501-3.805-2.976-6.355
			c0.477-2.32,2.243-4.476,4.104-5.696c3.921-2.571,9.006-2.137,13.23-0.739c7.989,2.642,18.426,12.848,9.956,21.502
			c-4.169,4.259-10.854,4.714-16.298,3.999c-6.35-0.834-12.357-3.538-16.378-9.001c-3.068-4.168-3.689-8.798-1.824-13.693
			c1.204-3.159,3.307-5.793,6.077-7.518c0.147-0.092,0.298-0.176,0.447-0.262c-2.013,0.814-3.918,1.898-5.662,3.28
			c-1.396,1.107-2.696,2.344-3.911,3.68c-1.497,4.077-1.647,8.648,0.175,12.716c3.61,8.065,11.479,12.534,19.487,13.856
			C43.222,36.549,51.372,36.021,56.553,30.702z"/>
	</g>
</g>
<g id="Layer_1">
</g>
</svg>
