<?xml version="1.0" encoding="utf-8"?>
<!-- Generator: Adobe Illustrator 26.0.3, SVG Export Plug-In . SVG Version: 6.00 Build 0)  -->
<svg version="1.1" xmlns="http://www.w3.org/2000/svg" xmlns:xlink="http://www.w3.org/1999/xlink" x="0px" y="0px"
	 viewBox="0 0 74.656 66.846" enable-background="new 0 0 74.656 66.846" xml:space="preserve">
<g id="chocolate_x5F_praline_x5F_4">
	<g>
		<path fill="#EFD0B1" d="M69.231,12.567C60.44,1.028,38.823-4.088,18.631,3.792C3.494,9.699-5.899,32.565,4.211,51.312
			c10.865,20.146,48.666,17.896,58.56,8.963C77.67,46.824,77.032,22.808,69.231,12.567z"/>
		<path fill="#6A4019" d="M68.187,26.512c2.036-0.161,4.075-0.231,6.115-0.205c-0.115-0.882-0.254-1.749-0.423-2.595
			c-2.328-0.008-4.658,0.102-6.982,0.319c-1.873-3.487-3.938-6.84-6.223-9.971c3.36,0.019,6.725,0.293,10.08,0.854
			c-0.472-0.842-0.978-1.631-1.524-2.346c-0.155-0.204-0.323-0.4-0.486-0.6c-3.352-0.426-6.713-0.587-10.07-0.508
			c-2.573-3.197-5.398-6.12-8.524-8.64c1.386-0.133,2.777-0.226,4.169-0.297c-4.044-1.388-8.333-2.028-8.571-2.031
			c-6.662,1.121-15.841,3.599-22.11,6.052c-1.612-1.001-3.281-1.916-4.997-2.755c-0.004,0.001-0.007,0.003-0.011,0.004
			c-1.048,0.409-2.065,0.907-3.053,1.472c1.723,0.76,3.401,1.597,5.02,2.523c-5.509,2.371-10.797,5.255-15.794,8.607
			c-0.875,1.531-1.645,3.149-2.3,4.835c0.418-0.311,0.824-0.64,1.248-0.944c2.681,1.655,5.23,3.506,7.629,5.538
			c-2.247,1.432-4.377,3.036-6.315,4.886c-1.857,1.773-3.495,3.725-5.008,5.774c0.069,1.302,0.205,2.61,0.422,3.918
			c1.644-2.484,3.457-4.846,5.555-6.981c2.214-2.253,4.716-4.148,7.385-5.799c3.034,2.804,5.799,5.913,8.248,9.299
			c0.558,0.772,1.093,1.562,1.616,2.358c-6.509,4.19-12.301,9.394-16.551,15.761c0.577,0.7,1.2,1.357,1.851,1.988
			c4.078-6.308,9.706-11.435,16.081-15.547c1.927,3.219,3.569,6.607,4.874,10.127c0.394,1.063,0.745,2.135,1.073,3.214
			c-3.97,2.549-7.705,5.487-11.15,8.867c0.913,0.345,1.841,0.662,2.787,0.947c2.85-2.684,5.896-5.069,9.106-7.185
			c0.165,0.638,0.321,1.279,0.47,1.923c0.503,2.184,1.291,4.791,1.397,7.271c0.903,0.072,1.806,0.13,2.707,0.162
			c-0.008-3.612-1.199-7.529-2.216-10.843c5.576-3.379,11.582-6.027,17.826-8.141c1.882,5.364,3.266,10.86,4.151,16.303
			c0.875-0.309,1.706-0.638,2.483-0.991c-0.916-5.392-2.303-10.82-4.162-16.12c5.929-1.861,12.042-3.275,18.179-4.409
			c0.199,0.558,0.388,1.114,0.581,1.672c0.474-1.531,0.855-3.079,1.145-4.631c-0.012,0.002-0.024,0.004-0.037,0.006
			C72.216,35.213,70.337,30.783,68.187,26.512z M64.127,24.336c-6.362,0.824-12.66,2.42-18.755,4.534
			c-2.489-3.992-5.306-7.744-8.433-11.17c6.721-1.989,13.613-3.302,20.549-3.586C59.944,17.285,62.143,20.73,64.127,24.336z
			 M46.35,3.255c3.345,2.368,6.357,5.193,9.08,8.352c-6.933,0.471-13.818,1.897-20.514,3.967c-2.667-2.683-5.545-5.126-8.629-7.281
			C32.757,5.895,39.49,4.197,46.35,3.255z M6.086,18.66c5.418-3.654,11.199-6.74,17.234-9.208c3.148,2.051,6.082,4.412,8.797,7.029
			c-2.461,0.831-4.896,1.733-7.292,2.711c-3.755,1.532-7.531,3.193-11.083,5.21C11.334,22.306,8.776,20.386,6.086,18.66z
			 M25.311,37.578c-2.745-4.147-5.955-7.941-9.537-11.333c3.663-2.019,7.561-3.66,11.411-5.179c2.303-0.908,4.638-1.743,6.994-2.509
			c3.234,3.409,6.131,7.181,8.684,11.212c-3.859,1.44-7.627,3.072-11.262,4.838c-2.072,1.007-4.105,2.108-6.088,3.288
			C25.444,37.791,25.38,37.683,25.311,37.578z M32.915,53.394c-1.479-4.642-3.521-9.113-6.026-13.295
			c2.26-1.343,4.597-2.569,6.98-3.682c3.37-1.573,6.847-3.039,10.397-4.347c2.49,4.234,4.621,8.708,6.38,13.309
			C44.449,47.48,38.48,50.092,32.915,53.394z M53.12,44.57c-1.761-4.621-3.884-9.119-6.359-13.384
			c6.07-2.08,12.337-3.653,18.669-4.4c2.218,4.316,4.151,8.818,5.849,13.336C65.147,41.274,59.043,42.704,53.12,44.57z"/>
	</g>
</g>
<g id="Layer_1">
</g>
</svg>
