<?xml version="1.0" encoding="utf-8"?>
<!-- Generator: Adobe Illustrator 26.0.3, SVG Export Plug-In . SVG Version: 6.00 Build 0)  -->
<svg version="1.1" xmlns="http://www.w3.org/2000/svg" xmlns:xlink="http://www.w3.org/1999/xlink" x="0px" y="0px"
	 viewBox="0 0 68.739 61.548" enable-background="new 0 0 68.739 61.548" xml:space="preserve">
<g id="chocolate_x5F_praline_x5F_5">
	<g>
		<path fill="#6A4019" d="M63.744,11.571C55.649,0.946,35.746-3.764,17.154,3.491C3.217,8.93-5.432,29.984,3.877,47.245
			c10.004,18.55,44.809,16.477,53.919,8.253C71.514,43.113,70.927,21,63.744,11.571z"/>
		<path fill="#BF9F74" d="M62.794,24.259c1.874-0.148,3.752-0.213,5.631-0.188c-0.106-0.812-0.234-1.61-0.39-2.389
			c-2.144-0.007-4.288,0.094-6.429,0.294c-1.725-3.211-3.626-6.298-5.729-9.181c3.094,0.017,6.192,0.27,9.281,0.786
			c-0.435-0.775-0.901-1.502-1.403-2.161c-0.143-0.187-0.298-0.369-0.447-0.552c-3.086-0.392-6.181-0.54-9.272-0.468
			c-2.369-2.944-4.97-5.635-7.848-7.956c1.276-0.122,2.557-0.208,3.839-0.273c-3.723-1.278-7.672-1.868-7.891-1.87
			C36.001,1.332,27.55,3.614,21.778,5.873c-1.484-0.922-3.021-1.764-4.601-2.537c-0.003,0.001-0.007,0.002-0.01,0.004
			c-0.965,0.377-1.901,0.835-2.811,1.355c1.587,0.699,3.131,1.47,4.622,2.323C13.904,9.2,9.036,11.856,4.434,14.942
			c-0.806,1.41-1.515,2.899-2.117,4.452c0.385-0.287,0.759-0.589,1.149-0.869c2.469,1.524,4.816,3.228,7.024,5.099
			c-2.069,1.318-4.03,2.795-5.814,4.499c-1.71,1.632-3.218,3.43-4.611,5.317c0.064,1.199,0.189,2.403,0.388,3.607
			c1.514-2.287,3.183-4.462,5.115-6.428c2.038-2.074,4.342-3.819,6.8-5.34c2.794,2.582,5.339,5.445,7.595,8.562
			c0.514,0.711,1.006,1.438,1.488,2.171c-5.994,3.858-11.326,8.649-15.24,14.512c0.532,0.645,1.105,1.25,1.704,1.83
			c3.754-5.808,8.937-10.529,14.806-14.315c1.774,2.964,3.286,6.083,4.488,9.324c0.363,0.978,0.686,1.966,0.988,2.959
			c-3.655,2.347-7.095,5.052-10.266,8.164c0.841,0.317,1.695,0.61,2.566,0.872c2.624-2.472,5.429-4.667,8.384-6.615
			c0.152,0.587,0.296,1.177,0.433,1.771c0.463,2.011,1.188,4.411,1.286,6.695c0.832,0.067,1.663,0.12,2.492,0.149
			c-0.007-3.326-1.104-6.932-2.04-9.983c5.134-3.111,10.664-5.549,16.413-7.496c1.732,4.938,3.007,9.999,3.822,15.011
			c0.806-0.284,1.571-0.588,2.286-0.912c-0.844-4.965-2.121-9.963-3.832-14.842c5.459-1.713,11.088-3.015,16.738-4.06
			c0.184,0.514,0.357,1.026,0.535,1.539c0.437-1.41,0.787-2.835,1.054-4.264c-0.011,0.002-0.023,0.004-0.034,0.006
			C66.504,32.27,64.774,28.191,62.794,24.259z M59.056,22.256c-5.858,0.759-11.657,2.228-17.268,4.175
			c-2.292-3.676-4.886-7.131-7.765-10.285c6.189-1.831,12.534-3.04,18.92-3.301C55.205,15.763,57.229,18.936,59.056,22.256z
			 M42.688,2.845c3.08,2.18,5.854,4.782,8.36,7.69c-6.384,0.434-12.723,1.747-18.889,3.653c-2.455-2.47-5.105-4.72-7.946-6.704
			C30.173,5.276,36.372,3.712,42.688,2.845z M5.615,17.029c4.988-3.364,10.311-6.206,15.868-8.478
			c2.899,1.889,5.6,4.063,8.099,6.472c-2.266,0.765-4.508,1.596-6.714,2.496c-3.458,1.41-6.934,2.94-10.205,4.797
			C10.447,20.386,8.092,18.619,5.615,17.029z M23.316,34.448c-2.528-3.818-5.483-7.312-8.781-10.435
			c3.373-1.859,6.961-3.37,10.506-4.768c2.12-0.836,4.271-1.605,6.44-2.31c2.977,3.139,5.645,6.612,7.996,10.323
			c-3.553,1.326-7.022,2.829-10.369,4.455c-1.908,0.927-3.779,1.941-5.605,3.028C23.439,34.644,23.38,34.545,23.316,34.448z
			 M30.318,49.011c-1.361-4.274-3.242-8.391-5.548-12.241c2.081-1.236,4.233-2.366,6.426-3.39c3.103-1.448,6.304-2.798,9.573-4.003
			c2.292,3.898,4.255,8.018,5.874,12.255C40.938,43.566,35.442,45.971,30.318,49.011z M48.922,40.886
			c-1.622-4.254-3.576-8.396-5.855-12.323c5.589-1.915,11.359-3.363,17.189-4.051c2.042,3.974,3.822,8.119,5.385,12.279
			C59.995,37.851,54.375,39.168,48.922,40.886z"/>
	</g>
</g>
<g id="Layer_1">
</g>
</svg>
