<?xml version="1.0" encoding="utf-8"?>
<!-- Generator: Adobe Illustrator 26.0.3, SVG Export Plug-In . SVG Version: 6.00 Build 0)  -->
<svg version="1.1" xmlns="http://www.w3.org/2000/svg" xmlns:xlink="http://www.w3.org/1999/xlink" x="0px" y="0px"
	 viewBox="0 0 100.188 59.283" enable-background="new 0 0 100.188 59.283" xml:space="preserve">
<g id="chocolate_x5F_praline_x5F_1">
	<g>
		<path fill="#EFD0B1" d="M98.321,49.295c-2.513,5.138-8.168,8.44-18.858,9.152c-8.744,0.214-61.947,2.1-70.408-0.611
			c-6.261-1.756-7.404-4.374-8.504-7.566c-1.408-6.079-0.014-26.602,2.981-32.289c1.392-3.469,9.938-6.864,16.648-7.659
			c8.491-1.559,54.251-3.453,65.618-1.475c6.624,0.886,10.036,4.468,11.895,7.58C101.025,21.491,100.799,39.845,98.321,49.295z"/>
		<path fill="#6A4019" d="M27.89,8.263c-2.18-3.257-7.056-3.301-11.057-1.667c-3.163,1.292-6.649,5.877-4.026,11.01
			c2.801,5.481,10.673,4.224,13.873,1.872C30.478,16.687,29.79,11.102,27.89,8.263z"/>
		<path fill="#6A4019" d="M68.821,2.725c-2.18-3.257-7.056-3.301-11.057-1.667c-3.163,1.292-6.649,5.877-4.026,11.01
			c2.801,5.481,10.673,4.224,13.873,1.872C71.409,11.149,70.721,5.564,68.821,2.725z"/>
		<path fill="#6A4019" d="M91.062,10.041c-2.18-3.257-7.056-3.301-11.057-1.667c-3.163,1.292-6.649,5.877-4.026,11.01
			c2.801,5.481,10.673,4.224,13.873,1.872C93.65,18.465,92.963,12.88,91.062,10.041z"/>
		<path fill="#915815" d="M70.799,21.828c-1.526-2.28-4.94-2.311-7.74-1.167c-2.214,0.904-4.655,4.114-2.818,7.707
			c1.961,3.837,7.471,2.957,9.711,1.311C72.611,27.726,72.13,23.816,70.799,21.828z"/>
		<path fill="#915815" d="M17.431,27.164c-1.526-2.28-4.94-2.311-7.74-1.167c-2.214,0.904-4.655,4.114-2.818,7.707
			c1.961,3.837,7.471,2.957,9.711,1.311C19.243,33.061,18.762,29.151,17.431,27.164z"/>
		<path fill="#915815" d="M41.032,20.928c-1.526-2.28-4.94-2.311-7.74-1.167c-2.214,0.904-4.655,4.114-2.818,7.707
			c1.961,3.837,7.471,2.957,9.711,1.311C42.843,26.825,42.362,22.916,41.032,20.928z"/>
		<path fill="#915815" d="M46.777,6.856c-1.526-2.28-4.94-2.311-7.74-1.167c-2.214,0.904-4.655,4.114-2.818,7.707
			c1.961,3.837,7.471,2.957,9.711,1.311C48.589,12.753,48.107,8.844,46.777,6.856z"/>
	</g>
</g>
<g id="Layer_1">
</g>
</svg>
