<?xml version="1.0" encoding="utf-8"?>
<!-- Generator: Adobe Illustrator 26.0.3, SVG Export Plug-In . SVG Version: 6.00 Build 0)  -->
<svg version="1.1" xmlns="http://www.w3.org/2000/svg" xmlns:xlink="http://www.w3.org/1999/xlink" x="0px" y="0px"
	 viewBox="0 0 453.617 406.507" enable-background="new 0 0 453.617 406.507" xml:space="preserve">
<g id="coffee_x5F_pot">
	<g>
		<path fill="#FFFFFF" d="M110.736,166.593l-3.439,181.908c0,0-10.584,49.429,34.814,54.423s175.018,3.309,175.018,3.309
			s40.043-3.379,42.255-47.452s6.467-144.664,6.253-160.275c-0.21-15.343,4.858-66.24-61.264-65.474
			c-75.816,0.878-139.187-2.669-139.187-2.669S118.434,124.002,110.736,166.593z"/>
		<path fill="#FFFFFF" d="M121.302,207.806l-66.523-72.599L0,134.171l80.359,179.357c0,0,15.853,36.488,46.022,26.719
			C156.55,330.477,121.302,207.806,121.302,207.806z"/>
		<path fill="#4A4A49" d="M140.738,132.542c7.284,6.6,18.358,9.14,28.053,10.762c43.792,7.326,88.602,8.544,132.727,3.606
			c11.476-1.284,23.263-3.105,33.131-9.103c-3.865-4.369-10.302-5.108-16.122-5.497c-48.656-3.255-96.2-3.775-144.96-3.069
			C163.303,129.39,154.017,128.484,140.738,132.542z"/>
		<path fill="#B6F4F8" d="M226.089,176.575c-15.265-0.289-34.953-1.44-54.145-7.264l-3.241-0.978
			c-17.674-5.314-34.642-11.281-46.48-25.386l6.336-5.316c10.25,12.213,25.96,17.801,42.526,22.783l3.261,0.987
			c14.389,4.363,30.491,6.501,52.087,6.91c0.343,0.006,0.682,0.013,1.025,0.019c41.707,0.677,89.379-1.084,122.162-22.051
			c0,0,2.415,1.89,3.09,2.633l2.763,3.758c-34.833,23.215-84.577,24.635-128.147,23.929
			C226.917,176.591,226.505,176.583,226.089,176.575z"/>
		<path fill="#C10D26" d="M236.853,359.207c-6.103-4.494-40.388-45.236-58.22-67.778c-8.357-10.564-19.898-28.382-23.313-40.922
			c-6.62-24.313-5.819-49.009,30.246-54.768c31.872-5.09,51.651,33.813,51.651,33.813s2.493-11.066,15.613-21.429
			c13.119-10.363,27.309-11.793,43.096-4.037c19.641,9.649,26.451,22.412,23.055,41.212c-2.728,15.1-11.453,28.276-21.115,40.543
			C278.577,310.33,252.315,340.255,236.853,359.207z"/>
		<g>
			<path fill="#FFFFFF" d="M320.157,216.437c0.03,6.854,5.906,12.063,11.66,13.188c5.754,1.125,11.528-0.842,17.329-1.194
				c43.499-2.637,75.884,27.601,59.706,59.693c-15.757,31.255-46.778,17.569-65.05,20.318c-10.343,1.556-25.267,7.249-27.339,19.277
				c-1.273,7.385,2.179,15.191,7.256,19.942c5.077,4.751,11.511,6.932,17.852,8.267c20.419,4.3,41.403,0.912,61.205-5.623
				c16.077-5.306,53.602-27.077,50.681-75.255c-3.532-58.259-60.615-95.047-117.965-76.929c-4.697,1.484-9.962,1.713-13.514,5.586
				c-3.553,3.872-4.574,11.443-0.842,15.251"/>
		</g>
		<path fill="#B6F4F8" d="M339.901,141.63l-106.306-2.01l-95.439,0.56c-18.685-0.353-27.493-14.981-27.214-29.761v0
			c0.279-14.78,12.601-26.644,27.381-26.365l201.422,1.99c14.78,0.279,27.817,14.44,27.537,29.22v0
			C367.002,130.045,354.681,141.91,339.901,141.63z"/>
		<path fill="#FFFFFF" d="M135.256,97.615c0,0,12.959-18.378,32.472-35.638c18.798-16.627,43.459-32.25,79.787-27.625
			c74.04,9.426,94.87,67.398,94.87,67.398L135.256,97.615z"/>
		<path fill="#C10D26" d="M247.966,49.424l-17.052-0.322c-16.912-0.32-30.722-2.016-30.403-18.928v0
			c0.32-16.912,14.419-30.488,31.331-30.168l17.85,0.337c16.912,0.32,29.69,14.403,29.371,31.316v0
			C278.742,48.571,264.878,49.744,247.966,49.424z"/>
	</g>
</g>
<g id="Layer_1">
</g>
</svg>
