<?xml version="1.0" encoding="utf-8"?>
<!-- Generator: Adobe Illustrator 24.2.3, SVG Export Plug-In . SVG Version: 6.00 Build 0)  -->
<svg version="1.1" id="Layer_1" xmlns="http://www.w3.org/2000/svg" xmlns:xlink="http://www.w3.org/1999/xlink" x="0px" y="0px"
	 viewBox="0 0 193.339 172.791" enable-background="new 0 0 193.339 172.791" xml:space="preserve">
<g id="cone">
	<g>
		<path fill="#CCD2D3" d="M192.868,6.846c7.621,6.609-79.454,165.944-95.044,165.944C80.797,172.791,0,22.88,0,9.808
			C2.057-3.175,179.511-2.326,192.868,6.846z"/>
		<g>
			<path fill="#FFFFFF" d="M184.931,32.264L46.292,1.324C20.043,2.806,0.671,5.57,0,9.808c0,1.037,0.512,2.941,1.457,5.558
				l174.163,36.36C179.146,44.679,182.296,38.103,184.931,32.264z"/>
			<path fill="#FFFFFF" d="M18.062,51.067c4.28,8.363,9.093,17.449,14.199,26.773l116.229,24.265
				c3.7-6.451,7.366-12.999,10.918-19.494L18.062,51.067z"/>
			<path fill="#FFFFFF" d="M65.922,135.04l55.226,11.529c3.889-5.76,8.03-12.216,12.291-19.12L49.827,108.79
				C55.267,118.028,60.714,126.944,65.922,135.04z"/>
		</g>
	</g>
</g>
<g id="Layer_1_1_">
</g>
</svg>
