<?xml version="1.0" encoding="utf-8"?>
<!-- Generator: Adobe Illustrator 24.2.3, SVG Export Plug-In . SVG Version: 6.00 Build 0)  -->
<svg version="1.1" xmlns="http://www.w3.org/2000/svg" xmlns:xlink="http://www.w3.org/1999/xlink" x="0px" y="0px"
	 viewBox="0 0 519.997 441.653" enable-background="new 0 0 519.997 441.653" xml:space="preserve">
<g id="cover_x5F_dome_x5F_white">
	<g id="kupu">
		<g id="Tarjotin_x5F_kupu_2_">
			<path fill="#CCD2D3" d="M0.1,367.392c4.808-1.148,57.421,65.56,254.234,72.895c166.694,6.213,265.652-72.543,265.652-72.543
				S501.107,80.201,261.925,81.105C-13.018,82.146,0.1,367.392,0.1,367.392z"/>
			<path fill="#FFFFFF" d="M297.049,38.129c6.322,59.858-91.89,65.693-96.006,9.161C197.217-12.09,291.323-16.007,297.049,38.129z"
				/>
			<path fill="#FFFFFF" d="M511.381,314.878c-67.967,26.478-132.811,51.139-258.86,54.379
				c-149.074,3.83-208.618-38.326-245.486-75.561c-8.397,42.658-6.924,74.713-6.924,74.713c4.808-1.148,57.421,65.56,254.234,72.895
				c166.694,6.213,265.652-72.543,265.652-72.543S518.546,346.724,511.381,314.878z"/>
		</g>
		<g id="Layer_1_13_">
		</g>
	</g>
</g>
<g id="Layer_1">
</g>
</svg>
