<?xml version="1.0" encoding="utf-8"?>
<!-- Generator: Adobe Illustrator 24.2.3, SVG Export Plug-In . SVG Version: 6.00 Build 0)  -->
<svg version="1.1" xmlns="http://www.w3.org/2000/svg" xmlns:xlink="http://www.w3.org/1999/xlink" x="0px" y="0px"
	 viewBox="0 0 238.279 234.342" enable-background="new 0 0 238.279 234.342" xml:space="preserve">
<g id="donut_x5F_white">
	<g id="donut_x5F_pink_4_">
		<g>
			<path fill="#CCD2D3" d="M220.981,44.797c-31.9-50.634-99.237-54.16-154.746-31.315C24.701,30.576-22.168,95.057,11.526,171.564
				c33.982,77.162,140.1,74.717,182.568,38.049C247.633,163.386,247.183,86.386,220.981,44.797z M141.607,142.409
				c-13.144,11.349-45.988,12.106-56.505-11.776c-10.428-23.68,4.077-43.636,16.933-48.927c17.18-7.07,38.022-5.98,47.895,9.692
				C158.038,104.27,158.177,128.101,141.607,142.409z"/>
			<path fill="#FFFFFF" d="M214.854,59.077c-25.693-40.853-85.965-48.234-143.508-31.838c-51.273,14.61-71.371,83.838-46.55,140.204
				c26.675,60.574,127.816,50.849,166.161,21.674C237.15,153.969,237.253,94.693,214.854,59.077z M141.607,142.409
				c-13.144,11.349-45.988,12.106-56.505-11.776c-10.428-23.68,4.077-43.636,16.933-48.927c17.18-7.07,38.022-5.98,47.895,9.692
				C158.038,104.27,158.177,128.101,141.607,142.409z"/>
			<path fill="#E8E9E9" d="M153.791,160.153c-3.339-5.301-10.39-5.67-16.201-3.279c-4.348,1.789-9.255,8.541-5.728,16.55
				c3.558,8.078,14.668,7.823,19.115,3.984C156.581,172.569,156.534,164.508,153.791,160.153z"/>
			<path fill="#E8E9E9" d="M208.908,96.624c-3.339-5.301-10.39-5.67-16.201-3.279c-4.348,1.789-9.255,8.541-5.728,16.55
				c3.558,8.078,14.668,7.823,19.115,3.984C211.699,109.039,211.651,100.978,208.908,96.624z"/>
			<path fill="#CCD2D3" d="M122.357,50.212c-3.34-5.301-10.39-5.67-16.201-3.279c-4.348,1.789-9.255,8.541-5.728,16.55
				c3.558,8.078,14.668,7.823,19.115,3.984C125.148,62.628,125.1,54.565,122.357,50.212z"/>
			<path fill="#E8E9E9" d="M77.381,50.212c-3.34-5.301-10.39-5.67-16.201-3.279c-4.348,1.789-9.255,8.541-5.728,16.55
				c3.558,8.078,14.668,7.823,19.115,3.984C80.172,62.628,80.125,54.565,77.381,50.212z"/>
			<path fill="#E8E9E9" d="M76.077,167.872c-3.34-5.301-10.39-5.67-16.201-3.279c-4.348,1.789-9.255,8.541-5.728,16.55
				c3.558,8.078,14.668,7.823,19.115,3.984C78.867,180.287,78.82,172.225,76.077,167.872z"/>
			<path fill="#CCD2D3" d="M58.908,131.968c-3.34-5.301-10.39-5.67-16.201-3.279c-4.348,1.789-9.255,8.541-5.728,16.55
				c3.558,8.078,14.668,7.823,19.115,3.984C61.698,144.384,61.651,136.323,58.908,131.968z"/>
			<path fill="#E8E9E9" d="M67.091,83.487c-2.72-4.318-8.463-4.618-13.197-2.67c-3.542,1.458-7.539,6.957-4.666,13.482
				c2.898,6.581,11.948,6.372,15.569,3.245C69.364,93.6,69.326,87.033,67.091,83.487z"/>
			<path fill="#E8E9E9" d="M182.59,47.929c-2.72-4.318-8.463-4.618-13.197-2.67c-3.542,1.458-7.539,6.957-4.666,13.482
				c2.898,6.581,11.948,6.372,15.569,3.245C184.863,58.043,184.825,51.476,182.59,47.929z"/>
			<path fill="#CCD2D3" d="M180.027,81.353c-2.72-4.318-8.463-4.618-13.197-2.67c-3.542,1.458-7.539,6.957-4.666,13.482
				c2.898,6.581,11.948,6.372,15.569,3.245C182.3,91.467,182.261,84.9,180.027,81.353z"/>
			<path fill="#CCD2D3" d="M200.348,137.024c-2.72-4.318-8.463-4.618-13.197-2.67c-3.542,1.458-7.539,6.957-4.666,13.482
				c2.898,6.581,11.948,6.372,15.569,3.245C202.62,147.137,202.582,140.571,200.348,137.024z"/>
			<path fill="#CCD2D3" d="M107.907,165.028c-2.72-4.318-8.463-4.618-13.197-2.67c-3.542,1.458-7.539,6.957-4.666,13.482
				c2.898,6.581,11.948,6.372,15.569,3.245C110.18,175.141,110.141,168.575,107.907,165.028z"/>
			<path fill="#E8E9E9" d="M178.477,175.608c-2.72-4.318-8.463-4.618-13.197-2.67c-3.542,1.458-7.539,6.957-4.666,13.482
				c2.898,6.581,11.948,6.372,15.569,3.245C180.75,185.722,180.711,179.155,178.477,175.608z"/>
		</g>
	</g>
</g>
<g id="Layer_1">
</g>
</svg>
