<?xml version="1.0" encoding="utf-8"?>
<!-- Generator: Adobe Illustrator 24.2.3, SVG Export Plug-In . SVG Version: 6.00 Build 0)  -->
<svg version="1.1" xmlns="http://www.w3.org/2000/svg" xmlns:xlink="http://www.w3.org/1999/xlink" x="0px" y="0px"
	 viewBox="0 0 257.303 184.76" enable-background="new 0 0 257.303 184.76" xml:space="preserve">
<g id="donut_x5F_pink_x5F_2">
	<g id="coffeehouse_x5F_doughnut_x5F_pink">
		<path fill-rule="evenodd" clip-rule="evenodd" fill="#935803" d="M244.233,55.477C185.482-30.636-36.031,4.343,8.266,130.015
			C61.129,225.777,310.515,192.778,244.233,55.477z"/>
		<path fill="#ED9EC3" d="M231.854,33.52C189.78-1.209,121.354-8.238,69.821,9.128C-31.882,46.05,5.336,117.026,12.688,123.367
			c10.523,10.041,20.062,7.53,33.111,4.804c29.618-2.661,45.381,31.141,73.848,33.057c17.076,2.253,25.196-11.913,38.913-17.492
			c10.703-2.978,23.001,3.746,33.275-0.201c9.47-3.637,12.6-14.644,21.746-18.868c7.374-3.407,16.673-1.487,24.423-4.198
			C270.523,102.443,257.458,54.915,231.854,33.52z M163.688,70.258c-18.214,17.793-48.953,15.07-65.426,7.174
			c-3.709-1.326-9.309-4.343-7.407-8.909c3.98-6.131,13.476-0.091,19.159-2.1c3.407-1.141,5.329-4.415,8.637-5.754
			c12.705-2.75,22.693,11.711,37.602-0.265C165.381,50.291,173.982,62.925,163.688,70.258z"/>
	</g>
</g>
<g id="Layer_1">
</g>
</svg>
