<?xml version="1.0" encoding="utf-8"?>
<!-- Generator: Adobe Illustrator 26.0.3, SVG Export Plug-In . SVG Version: 6.00 Build 0)  -->
<svg version="1.1" xmlns="http://www.w3.org/2000/svg" xmlns:xlink="http://www.w3.org/1999/xlink" x="0px" y="0px"
	 viewBox="0 0 530.251 372.309" enable-background="new 0 0 530.251 372.309" xml:space="preserve">
<g id="egg_x5F_stripes_x5F_top_x5F_white">
	<path fill="#CAD2D3" d="M187.621,315.721l85.482,56.588l86.976-53.473l77.95,45.167l92.223-34.01
		C509.759,155.496,407.635-15,257.758,1.051C116.707,16.156,18.182,148.675,0.045,302.915l99.513,69.172L187.621,315.721z"/>
	<path fill="#FFFFFF" d="M37.327,171.886c46.491-0.496,92.982-0.995,139.473-1.474c46.917-0.483,93.834-0.926,140.75-1.384
		c56.002-0.547,112.003-1.093,168.005-1.639c-9.862-21.506-21.128-41.747-33.7-60.226c-122.273-3.352-244.547-6.704-366.821-10.056
		C66.406,119.309,50.394,144.515,37.327,171.886z"/>
	<path fill="#FFFFFF" d="M16.376,225.475C8.65,250.303,3.131,276.269,0,302.884c109.534,4.467,219.071,8.907,328.592,13.492
		c67.034,2.806,134.048,5.803,201.065,8.773c-3.715-29.445-9.747-58.722-17.935-86.964c-81.865-2.029-163.731-4.048-245.591-6.149
		C182.876,229.899,99.627,227.681,16.376,225.475z"/>
</g>
<g id="Layer_1">
</g>
</svg>
