<?xml version="1.0" encoding="utf-8"?>
<!-- Generator: Adobe Illustrator 26.0.3, SVG Export Plug-In . SVG Version: 6.00 Build 0)  -->
<svg version="1.1" xmlns="http://www.w3.org/2000/svg" xmlns:xlink="http://www.w3.org/1999/xlink" x="0px" y="0px"
	 viewBox="0 0 133.175 153.483" enable-background="new 0 0 133.175 153.483" xml:space="preserve">
<g id="egg_x5F_candy_x5F_striped_x5F_white">
	
		<ellipse transform="matrix(0.8631 -0.505 0.505 0.8631 -29.637 44.131)" fill="#FFFFFF" cx="66.587" cy="76.735" rx="60.642" ry="81.499"/>
	<path fill="#CAD2D3" d="M47.559,81.506c26.588-15.554,55.964-19.996,80.815-14.412c-2.304-7.061-5.433-14.115-9.444-20.971
		c-5.77-9.863-12.774-18.365-20.486-25.289c-21.776-1.823-45.837,3.422-67.967,16.368C18.634,44.131,8.446,52.625,0.137,62.069
		c0.812,14.742,5.441,30.48,14.109,45.296c0.286,0.49,0.589,0.961,0.881,1.444C23.794,98.387,34.704,89.026,47.559,81.506z"/>
	<path fill="#CAD2D3" d="M72.08,115.888c-11.237,6.574-20.986,14.556-29.052,23.422c21.089,15.014,45.701,18.9,64.713,7.778
		c15.923-9.315,24.592-27.215,25.372-47.909C113.236,98.884,91.884,104.303,72.08,115.888z"/>
</g>
<g id="Layer_1">
</g>
</svg>
