<?xml version="1.0" encoding="utf-8"?>
<!-- Generator: Adobe Illustrator 26.0.3, SVG Export Plug-In . SVG Version: 6.00 Build 0)  -->
<svg version="1.1" xmlns="http://www.w3.org/2000/svg" xmlns:xlink="http://www.w3.org/1999/xlink" x="0px" y="0px"
	 viewBox="0 0 536.622 361.798" enable-background="new 0 0 536.622 361.798" xml:space="preserve">
<g id="egg_x5F_stripes_x5F_bottom_x5F_white">
	<path fill="#CAD2D3" d="M536.575,77.71c-0.384-15.296-1.432-30.691-3.103-46.06l-92.513,33.213l-77.558-45.838l-87.434,52.721
		l-84.99-57.323l-88.545,55.604L3.519,0c-3.847,30.441-4.627,61.739-1.908,93.196c13.597,157.288,119.896,280.368,266.38,267.705
		C461.889,344.14,538.822,235.914,536.575,77.71z"/>
	<path fill="#FFFFFF" d="M324.671,154.213c68.294,1.923,136.619,3.447,204.936,5.075c4.7-23.249,6.985-48.111,7.013-74.406
		c-88.805,0.661-177.61,1.353-266.412,1.874c-44.165,0.259-88.316-0.052-132.478,0.058c-45.552,0.113-91.079-0.969-136.639-0.446
		c0.161,2.275,0.323,4.551,0.52,6.828c1.506,17.416,4.153,34.41,7.86,50.85c31.356,0.654,62.62,2.951,93.983,3.421
		C177.259,148.573,250.917,152.136,324.671,154.213z"/>
	<path fill="#FFFFFF" d="M58.933,258.805c17.45-0.109,34.903-0.25,52.343-0.11c124.403,0.998,248.801,2.111,373.201,3.186
		c13.215-17.051,23.767-36.009,31.822-56.689c-64.716,0.343-129.433,0.667-194.15,1.059c-71.095,0.43-219.464,0.179-290.937,3.419
		C39.097,227.216,48.385,243.666,58.933,258.805z"/>
</g>
<g id="Layer_1">
</g>
</svg>
