<?xml version="1.0" encoding="utf-8"?>
<!-- Generator: Adobe Illustrator 25.0.0, SVG Export Plug-In . SVG Version: 6.00 Build 0)  -->
<svg version="1.1" xmlns="http://www.w3.org/2000/svg" xmlns:xlink="http://www.w3.org/1999/xlink" x="0px" y="0px"
	 viewBox="0 0 203.597 296.893" enable-background="new 0 0 203.597 296.893" xml:space="preserve">
<g id="eggplant">
	<g>
		<g>
			<g>
				<path fill="#005F8A" d="M190.039,276.919C83.342,377.037-55.754,70.384,23.623,28.133
					c50.608-26.939,105.064,79.845,128.025,116.743C169.744,173.956,230.326,239.117,190.039,276.919z"/>
			</g>
		</g>
		<g>
			<g>
				<path fill="#00759C" d="M160.706,265.456c-28.811,47.404-117.04-53.088-91.87-76.389c16.047-14.856,49.051,19.56,62.024,31.055
					C141.086,229.18,171.586,247.557,160.706,265.456z"/>
			</g>
		</g>
		<path fill="#00A038" d="M72.493,35.373c-17.838-18.04-38.587-13.346-38.587-13.346C31.065,6.31,19.302,0,19.302,0L5.901,12.077
			c11.255,8.828,13.045,14.728,14.376,16.283C1.11,44.851,0,64.9,0,64.9s14.105,1.665,22.165-8.26L39.71,74.556
			c13.682-12.708,6.54-31.073,6.54-31.073C64.066,52.319,72.493,35.373,72.493,35.373z"/>
	</g>
</g>
<g id="Layer_1">
</g>
</svg>
