<?xml version="1.0" encoding="utf-8"?>
<!-- Generator: Adobe Illustrator 24.2.3, SVG Export Plug-In . SVG Version: 6.00 Build 0)  -->
<svg version="1.1" xmlns="http://www.w3.org/2000/svg" xmlns:xlink="http://www.w3.org/1999/xlink" x="0px" y="0px"
	 viewBox="0 0 280.587 134.301" enable-background="new 0 0 280.587 134.301" xml:space="preserve">
<g id="fish_x5F_blue_x5F_green">
	<g id="fish_x5F_blue_x5F_green_1_">
		<path id="XMLID_1672_" fill="#A3D02A" d="M79.224,84.864c0,0,74.092,21.172,138.068-20.452c0,0,6.373-6.474,5.381-13.988
			c-1.016-7.691-6.645-11.958-6.645-11.958S121.634-34.65,60.095,20.727L79.224,84.864z"/>
		<path id="XMLID_1671_" fill="#3F749A" d="M280.581,92.1c0,0-59.447,13.83-70.247-34.445c-3.173-14.184,2.288-60.333,66.869-49.16
			l-38.206,39.902L280.581,92.1z"/>
		<path id="XMLID_1670_" fill="#275F88" d="M239.002,48.473l-28.997-3.534c-0.633,5.157-0.352,9.723,0.334,12.792
			c10.801,48.275,70.247,34.445,70.247,34.445L239.002,48.473z"/>
		<path fill="#BBDE8A" d="M110.769,30.779c0.382,1.688-15.533,14.877-16.742,14.623c-1.084-0.228-4.876-21.417-4.196-21.58
			C91.669,23.383,110.325,28.815,110.769,30.779z"/>
		<path fill="#69B802" d="M114.224,55.472c0.406,1.823-13.328,15.351-14.42,15.033c-0.978-0.285-5.169-23.126-4.566-23.275
			C96.865,46.828,113.753,53.35,114.224,55.472z"/>
		<path fill="#69B802" d="M143.774,21.799c0.27,1.915-18.658,15.142-19.982,14.747c-1.187-0.353-3.467-24.294-2.694-24.413
			C123.184,11.813,143.46,19.571,143.774,21.799z"/>
		<path fill="#BBDE8A" d="M149.342,47.897c0.324,1.87-20.068,15.713-21.515,15.384c-1.296-0.294-4.153-23.718-3.315-23.869
			C126.777,39.003,148.964,45.722,149.342,47.897z"/>
		<path fill="#BBDE8A" d="M183.998,27.297c0.359,1.694-15.735,14.663-16.941,14.392c-1.081-0.243-4.582-21.482-3.9-21.635
			C165,19.64,183.58,25.327,183.998,27.297z"/>
		<path fill="#69B802" d="M186.342,51.651c0.381,1.829-13.537,15.167-14.624,14.834c-0.974-0.299-4.852-23.195-4.247-23.335
			C169.102,42.77,185.899,49.523,186.342,51.651z"/>
		<path fill="#3F749A" d="M66.767,4.512c2.334,0.412,8.449,24.065,13.382,46.741L0.037,66.77
			C-1.74,59.879,61.769,3.631,66.767,4.512z"/>
		<path fill="#275F88" d="M86.894,92.498C79.414,94.55,2.127,74.776,0.037,66.773c0-0.001,0-0.002,0-0.003l80.111-15.517
			C84.684,72.107,88.22,92.133,86.894,92.498z"/>
		<circle id="XMLID_1669_" fill="#FFFFFF" cx="56.961" cy="55.232" r="16"/>
		<circle id="XMLID_1668_" fill="#285F88" cx="57.343" cy="54.451" r="8.5"/>
		<path fill="#BBDE8A" d="M108.148,5.031c0.439,1.941-17.847,17.095-19.238,16.802c-0.761-0.161-2.684-9.315-3.887-16.454
			c5.062-1.927,10.216-3.286,15.409-4.154C104.589,2.676,107.949,4.155,108.148,5.031z"/>
		<path fill="#BBDE8A" d="M100.247,72.346c2.135-0.394,23.216,6.958,23.609,9.239c0.163,0.95-4.228,4.769-8.952,8.412
			c-4.728-0.234-9.106-0.614-13.061-1.066C100.734,81.703,99.762,72.436,100.247,72.346z"/>
		<path fill="#BBDE8A" d="M118.366,0.039c4.996,0.135,9.973,0.628,14.884,1.409c-5.391,4.629-11.233,9.068-12.036,8.899
			C120.64,10.227,119.476,5.53,118.366,0.039z"/>
		<path fill="#69B802" d="M127.61,66.082c2.385-0.44,25.939,7.774,26.376,10.323c0.245,1.424-8.671,8.62-15.358,13.367
			c-2.821,0.196-5.583,0.326-8.278,0.399C128.819,82.535,126.928,66.207,127.61,66.082z"/>
		<path fill="#69B802" d="M160.233,8.506c3.468,1.238,6.843,2.562,10.106,3.941c-3.777,2.99-7.14,5.356-7.7,5.23
			C162.13,17.561,161.154,13.395,160.233,8.506z"/>
		<path fill="#BBDE8A" d="M172.915,68.327c1.801-0.307,16.942,5.055,21.91,8.125c-6.931,3.001-13.864,5.406-20.703,7.308
			C173.187,76.726,172.455,68.405,172.915,68.327z"/>
		<path id="XMLID_1667_" fill="#3F749A" d="M120.54,70.338c0,0,50.59-6.943,49.964,63.274
			C170.504,133.612,127.444,143.564,120.54,70.338z"/>
		<path id="XMLID_1666_" fill="#275F88" d="M120.64,70.444c7.25,71.835,48.514,63.769,50.125,63.426L120.64,70.444z"/>
	</g>
</g>
<g id="Layer_1">
</g>
</svg>
