<?xml version="1.0" encoding="utf-8"?>
<!-- Generator: Adobe Illustrator 25.0.0, SVG Export Plug-In . SVG Version: 6.00 Build 0)  -->
<svg version="1.1" xmlns="http://www.w3.org/2000/svg" xmlns:xlink="http://www.w3.org/1999/xlink" x="0px" y="0px"
	 viewBox="0 0 43.246 286.029" enable-background="new 0 0 43.246 286.029" xml:space="preserve">
<g id="fork_x5F_white">
	<g id="recycle_x5F_metal_x5F_fork_1_">
		<path fill="#FFFFFF" d="M21.222,0.018c4.959,0.211,2.531,52.826,6.254,52.529c4.556,0.066,2.419-51.654,7.27-52.529
			s6.018,29.963,7.865,51.906c1.342,15.936,1.444,28.37-8.891,37.971c-4.428,4.114-4.326,10.527-4.342,16.481
			C29.318,129.4,40.18,240.234,40.591,270.097c0,0-1.347,15.557-14.956,15.925S9.656,271.329,9.656,271.329
			c-2.232-30.355,6.652-135.953,6.648-164.953c0-2.15-0.601-10.271-7.271-16.481c-9.772-9.098-9.733-25.672-8.41-37.971
			c1.86-17.286,3.009-52.098,7.42-51.906s1.909,52.596,6.879,52.529C18.463,53.074,16.263-0.193,21.222,0.018z"/>
	</g>
</g>
<g id="Layer_1">
</g>
</svg>
