<?xml version="1.0" encoding="utf-8"?>
<!-- Generator: Adobe Illustrator 24.2.3, SVG Export Plug-In . SVG Version: 6.00 Build 0)  -->
<svg version="1.1" xmlns="http://www.w3.org/2000/svg" xmlns:xlink="http://www.w3.org/1999/xlink" x="0px" y="0px"
	 viewBox="0 0 807.61 733.433" enable-background="new 0 0 807.61 733.433" xml:space="preserve">
<g id="gingerbread_x5F_house">
	<g>
		<path id="XMLID_75_" fill-rule="evenodd" clip-rule="evenodd" fill="#A45700" d="M638.033,239.892
			c-1.031-19.502,5.925-48.524,37.341-49.593c24.679-0.84,52.713-5.035,62.704,26.607c7.657,26.192,5.926,93.383,5.926,93.383
			H640.636C639.098,288.245,638.23,262.003,638.033,239.892z"/>
		<g>
			<path fill="#FFFFFF" d="M726.715,222.777c-7.774-26.025-29.588-22.574-48.792-21.884c-24.446,0.879-29.858,24.748-29.056,40.788
				c0.153,18.185,0.829,39.768,2.025,57.898h5.976c-1.025-16.979-1.603-37.192-1.735-54.223
				c-0.687-15.021,3.951-37.375,24.901-38.198c16.458-0.647,35.153-3.878,41.814,20.494c5.106,20.174,3.952,71.928,3.952,71.928
				h5.526C731.326,299.58,732.673,244.319,726.715,222.777z"/>
		</g>
		<path id="XMLID_74_" fill="#D47A00" d="M33.407,350.69c-35.627-3.167-37.788-21.985-29.178-53.976
			c23.198-86.197,73.338-162.028,125.588-234.403c21.013-29.106,47.182-60.224,83.022-62.264
			c65.306-3.718,181.484,214.147,210.2,290.536c3.956,10.524-11.033,60.949-38.586,61.132L33.407,350.69z"/>
		<path id="XMLID_73_" fill="#A45700" d="M293.36,685.689c-72.849-1.838-145.699-3.677-218.548-5.515
			c-24.276,1.809-33.952-15.087-34.761-37.901c-6.877-110.696-13.17-223.518-3.404-334.018
			c37.216-85.402,91.262-163.502,134.782-246.032c9.944-17.563,25.948-37.911,45.458-32.746
			c9.436,2.498,16.491,10.328,22.232,18.221c244.293,365.852,50.86,281.726,494.112,281.267
			c28.415-4.199,41.93,11.276,45.591,38.907c15.009,83.036,15.496,181.03,6.629,268.373c-1.795,17.681,1.484,50.524-45.106,52.01
			C591.401,693.008,442.333,689.449,293.36,685.689z"/>
		<path id="XMLID_72_" fill-rule="evenodd" clip-rule="evenodd" fill="#FF9EC5" d="M688.907,273.04
			c33.204,0.967,28.338-49.448-3.334-45.51C659.496,231.026,660.629,275.234,688.907,273.04z"/>
		<path id="XMLID_71_" fill="#D47A00" d="M806.097,395.589c0.965,3.91,1.937,7.938,1.319,11.913
			c-2.199,14.157-20.976,18.219-35.725,18.888c-117.097,5.316-234.439,5.54-351.557,0.671c-12.507-0.52-26.892-2.072-33.868-12.15
			c-4.191-6.054-4.564-13.778-4.735-21.068c-0.811-34.397,11.965-70.831-3.088-103.26c106.077,0.445,217.028,0.973,323.105,1.418
			c12.905,0.054,26.052,0.144,38.328,4.002C780.483,308.763,796.16,355.338,806.097,395.589z"/>
		<path id="XMLID_70_" fill-rule="evenodd" clip-rule="evenodd" fill="#6A4019" d="M149.203,522.278
			c19.379-66.249,117.16-76.916,148.482-14.65c21.369,50.187,11.878,125.137,10.446,178.433c0,0-166.548-2.129-166.548-4.143
			C141.583,640.388,138.699,562.901,149.203,522.278z"/>
		<path id="XMLID_69_" fill="#D47A00" d="M250.787,538.524c-2.268-27.562-13.669-57.566-39.908-70.353
			c-24.691-11.938-68.285-10.857-82.18,26.438c-9.764,39.358-4.012,151.461-5.634,167.729c0.278,11.84,2.024,24.603,10.831,33.338
			c17.911,13.982,41.548,20.043,61.748,30.392c32.139,16.897,55.169,4.193,54.841-32.686
			C251.029,641.47,253.371,590.457,250.787,538.524z"/>
		<path fill="#FFFFFF" d="M210.076,714.713c-14.655,0.063-40.445-16.778-53.604-22.777c-18.52-8.444-24.889-23.871-23.703-39.792
			c-0.183-8.769-0.149-96.636,1.752-129.512c0.559-16.372,11.705-33.786,26.732-39.208c28.597-10.6,60.753,5.304,69.935,36.078
			c9.947,29.737,8.152,62.184,8.641,93.204C240.284,641.552,250.116,712.707,210.076,714.713z M178.404,485.554
			c-20.78-0.744-37.629,16.168-38.638,37.383c-1.892,32.754-1.925,120.354-1.743,129.099c-0.816,14.752,3.212,24.451,20.802,35.196
			c17.075,10.43,42.206,24.854,57.961,18.48c20.353-11.659,16.314-54.294,14.692-90.936
			C229.514,570.41,241.004,488.845,178.404,485.554z"/>
		<path id="XMLID_68_" fill="#6A4019" d="M262.331,309.496c-4.891,0.463-33.407,1.664-38.127-0.635
			c-3.763-1.833-4.614-8.367-4.696-11.801c-0.446-18.776-0.891-37.552-1.337-56.328c-0.065-2.759,0.156-6.04,2.658-7.457
			c3.273-1.854,7.215,1.045,9.807,3.713c6.816,7.019,33.151,35.917,35.024,41.102c1.564,4.33,1.217,18.634,1.127,23.383
			C266.74,303.974,266.924,309.061,262.331,309.496z"/>
		<path fill="#FFFFFF" d="M162.041,389.945c-17.558,1.542-23.778-13.639-24.628-27.13c-1.355-13.312-4.62-70.86,0.212-84.624h0.002
			c11.222-22.633,35.895-46.709,48.267-60.472c12.652-15.337,28.405-20.29,42.628-4.983c0-0.001,49.611,41.126,58.233,62.273
			c11.573,28.383,7.321,95.588-2.366,107.698c-5.823,7.28-16.476,7.158-25.945,7.167
			C258.04,389.783,162.405,390.011,162.041,389.945z M144.628,280.532c-4.222,12.551-1.148,68.589,0.18,81.614
			c1.92,15.514,5.265,21.34,17.596,20.792c0,0,96.032-0.072,96.032-0.072c7.863-0.007,15.926-0.397,20.578-4.997
			c10.698-11.297,9.501-79.414,0.99-99.94c-8.199-19.773-41.882-44.989-56.672-60.181c-11.301-12.277-21.224-7.821-31.773,4.507
			C185.478,229.014,151.123,266.335,144.628,280.532L144.628,280.532z"/>
		<path id="XMLID_67_" fill-rule="evenodd" clip-rule="evenodd" fill="#FF9EC5" d="M208.257,167.872
			c33.204,0.967,28.338-49.448-3.334-45.51C178.846,125.858,179.979,170.066,208.257,167.872z"/>
		<path id="XMLID_66_" fill-rule="evenodd" clip-rule="evenodd" fill="#FF9EC5" d="M178.291,617.162
			c33.204,0.967,28.338-49.448-3.334-45.51C148.88,575.148,150.013,619.356,178.291,617.162z"/>
		<path fill="#FFFFFF" d="M52.238,313.16c-2.535,0.027-4.403-2.9-3.076-5.174c44.178-81.776,92.441-153.208,132.536-235.575
			c8.828-19.343,31.057-36.844,44.799-11.976c47.056,75.755,90.176,146.258,141.426,242.041c0.912,1.706,0.269,3.829-1.437,4.743
			c-1.704,0.91-3.829,0.27-4.743-1.437C307.574,207.409,225.814,63.287,214.13,56.526S193.357,65.475,188,75.473
			c-23.288,47.922-48.92,91.284-76.06,137.194c-18.56,31.394-37.75,63.86-56.62,98.659C54.686,312.496,53.482,313.16,52.238,313.16z
			"/>
		<path id="XMLID_65_" fill-rule="evenodd" clip-rule="evenodd" fill="#31D8E2" d="M157.911,540.067
			c0.493,23.873,39.629,27.851,41.145,2.133C204.296,513.11,157.311,511.532,157.911,540.067z"/>
		<path id="XMLID_64_" fill-rule="evenodd" clip-rule="evenodd" fill="#31D8E2" d="M157.911,650.775
			c0.493,23.873,39.629,27.851,41.145,2.133C204.296,623.818,157.311,622.239,157.911,650.775z"/>
		<path fill="#FFFFFF" d="M806.096,395.589c-0.06-0.245-0.124-0.493-0.184-0.739c-0.207,0.182-0.404,0.39-0.574,0.658
			c-16.234,25.668-51.234,21.558-62.653-7.257c0,0,21.054-8.478,23.817-29.721c7.517,14.238,21.471,21.247,35.081,20.087
			c-0.536-1.858-1.086-3.717-1.658-5.574c-13.965,0.469-28.057-9.185-32.427-26.908c6.402-2.135,12.202-5.895,16.572-11.365
			c-0.981-1.726-2-3.42-3.055-5.078c-5.541,7.793-14.276,11.507-23.521,12.65c-26.931,3.331-30.576-21.906-30.56-22.079
			c10.325-2.589,19.404-9.424,26.469-18.283c-1.605-0.932-3.264-1.795-4.967-2.6c-6.842,8.163-15.612,14.149-25.918,15.775
			c-15.355,2.423-31.632-7.358-37.21-23.221c-2.444-0.01-4.889-0.021-7.337-0.032c-2.354,14.217-15.358,24.415-28.456,25.438
			c-14.385,1.124-30.497-9.857-33.522-25.708c-3.645-0.016-7.289-0.032-10.939-0.049c-7.33,10.981-17.32,19.719-29.618,22.927
			c-8.613,2.248-17.996,1.532-26.223-2.252c-7.708-3.546-16.961-11.097-17.441-21.003c-2.284-0.01-4.567-0.021-6.851-0.031
			c-6.731,15.243-21.664,25.545-37.349,23.39c-12.872-1.77-23.559-11.185-29.086-23.686c-3.862-0.017-7.712-0.033-11.567-0.051
			c-5.224,11.323-14.435,20.267-26.183,22.325c-14.318,2.509-28.931-7.492-33.254-22.581c-1.805-0.008-3.614-0.016-5.417-0.023
			c4.232,17.14,10.747,23.817,26.623,28.078c4.629,1.242,16.521,0.039,16.43,0.494c-4.054,20.391-22.488,34.017-40.665,32.544
			c-0.185,1.9-0.379,3.801-0.575,5.703l4.906-0.019c7.692,17.139,21.225,28.045,36.351,30.038c-0.005,0.013-0.014,0.021-0.018,0.035
			c-6.097,17.572-23.054,29.793-39.517,26.324c0.223,0.372,0.417,0.756,0.666,1.116c1.446,2.088,3.223,3.793,5.222,5.215
			c14.557,0.19,28.749-8.149,36.066-22.415c7.038,15.387,21.177,26.412,37.127,26.67c13.895,0.225,26.318-7.693,34.125-19.652
			c3.982,12.645,21.779,21.308,33.325,23.032c19.249,2.873,40.736-3.221,52.203-21.672c22.569,30.132,63.695,29.553,85.249-0.286
			c3.88,13.82,20.53,19.564,33.17,18.065c15.958-1.893,30.15-12.707,37.566-28.178c14.675,27.115,48.54,30.416,67.083,6.275
			C807.127,399.824,806.615,397.689,806.096,395.589z M682.088,297.875c6.583,13.924,20.247,23.186,34.899,23.546
			c1.177,0.029,2.339-0.02,3.493-0.101c-7.667,13.08-18.747,24.823-33.233,27.11c-14.234,2.247-31.21-10.165-33.927-25.733
			C665.982,320.338,677.888,310.916,682.088,297.875z M610.951,292.475c3.4,17.809,19.708,30.945,36.508,30.806
			c0.641-0.006,1.282-0.033,1.922-0.077c-0.018,0.042-0.041,0.075-0.057,0.119c-15.36,38.873-65.27,39.76-81.241,0.29
			C568.025,323.468,606.659,317.125,610.951,292.475z M495.498,320.551c7.625,1.203,32.243-16.793,32.952-25.491
			c-1.874,22.991,34.592,28.512,34.55,28.765c-2.862,17.307-17.326,26.246-32.334,27.024
			C490.116,350.86,495.516,320.828,495.498,320.551z M452.695,290.965c1.975,25.851,36.928,29.685,37.421,29.709
			c-0.134,0.444-7.98,26.849-32.092,25.585c-13.709-0.718-24.526-15.168-27.825-29.596
			C429.954,315.592,447.881,310.799,452.695,290.965z M394.061,356.938c14.532-2.568,27.798-13.029,33.79-28.233
			c5.794,13.198,17.647,22.835,31.235,23.522c0.86,0.044,1.707,0.023,2.554-0.005c-1.844,16.931-15.378,29.452-30.71,29.723
			C415.45,382.218,402.064,370.87,394.061,356.938z M430.754,387.776c14.195,0.946,26.747-9.603,32.443-21.552
			c5.131,14.083,20.649,22.84,36.41,24.713C499.544,391.106,462.694,449.826,430.754,387.776z M466.525,351.649
			c9.488-1.883,17.763-8.18,23.236-16.841c7.497,28.3,44.681,22.973,44.681,22.973c0,24.169-18.796,28.421-33.923,27.365
			C469.946,383.012,466.525,351.649,466.525,351.649z M542.315,419.775c-37.712-1.945-37.558-28.023-37.679-28.47
			c14.233,0.353,27.762-5.097,33.002-17.515c7.405,16.39,26.516,24.912,44.678,25.042
			C582.097,399.047,568.993,421.151,542.315,419.775z M539.914,356.318c11.504-3.47,21.731-11.137,26.411-24.131
			c8.702,18.712,22.811,25.849,40.026,26.446c3.397,0.118,10.186,0.154,10.186,0.154c-0.105,2.259,0,5.709,0,8.746
			C614.598,404.393,544.475,398.906,539.914,356.318z M586.289,399.424c-0.176-0.268,28.086-0.209,33.768-21.739
			c8.336,14.108,27.338,17.055,34.416,17.779c6.064,0.621,14.701,0.817,14.621,0.962
			C650.525,430.153,607.278,431.68,586.289,399.424z M665.76,390.582c-15.454,0.864-40.254-3.97-43.846-23.289
			c-0.412-3.26-0.412-4.643-0.412-8.969c0,0,21.882-5.476,29.546-25.98c5.098,13.294,17.506,21.843,30.894,22.293
			c6.228,0.209,12.045-1.318,17.394-4.041C694.353,370.437,687.012,389.393,665.76,390.582z M711.049,415.913
			c-12.026,3.823-31.859,2.576-38.358-20.536c15.445-3.808,23.628-17.071,28.958-33.487c5.215,15.227,18.689,26.803,34.008,25.947
			C736.421,387.793,733.485,408.781,711.049,415.913z M735.418,382.001c-15.966,0.987-29.724-15.487-30.789-32.573
			c0,0,12.049-7.459,17.051-19.885c3.35,11.871,18.684,18.122,29.283,18.732c3.784,0.218,7.623-0.033,11.357-0.767
			C762.92,364.418,751.261,381.022,735.418,382.001z"/>
		<g>
			<path fill="#FFFFFF" d="M726.234,485.939c-2.494-10.085-5.273-17.965-22.805-20.613c-24.286-3.202-94.832-3.756-115.567-1.047
				c-10.989,1.97-19.858,6.295-22.936,17.978c-5.542,16.625-4.146,105.442-2.346,117.641c1.77,9.567,5.808,14.277,17.172,17.725
				c16.565,3.449,107.929,1.699,114.557,0.512c12.635-2.262,22.396-5.417,27.064-20.449
				C726.197,569.854,728.375,497.403,726.234,485.939z M714.477,592.495c-4.253,13.692-13.143,16.565-24.651,18.626
				c-6.037,1.082-89.254,2.675-104.342-0.466c-10.35-3.14-14.028-7.431-15.641-16.144c-1.64-11.111-2.911-92.009,2.137-107.15
				c2.803-10.642,10.881-14.581,20.89-16.375c18.887-2.467,83.141-1.962,105.262,0.954c15.968,2.411,18.5,9.589,20.772,18.775
				C720.853,501.155,718.869,567.145,714.477,592.495z"/>
		</g>
		<g>
			<path fill="#FFFFFF" d="M369.631,463.325c-10.569,2.36-18.828,4.991-21.602,21.583c-3.355,22.985-3.936,89.749-1.098,109.372
				c2.064,10.4,6.597,18.794,18.841,21.706c17.423,5.245,110.503,3.924,123.287,2.22c10.026-1.675,14.963-5.496,18.576-16.251
				c3.615-15.677,1.781-102.144,0.537-108.417c-2.371-11.958-5.677-21.196-21.431-25.614
				C457.574,463.36,381.646,461.299,369.631,463.325z M481.302,474.452c14.35,4.025,17.36,12.438,19.52,23.33
				c1.134,5.713,2.803,84.47-0.489,98.749c-3.291,9.796-7.788,13.276-16.919,14.802c-11.644,1.552-96.425,2.755-112.294-2.022
				c-11.152-2.653-15.281-10.298-17.161-19.77c-2.586-17.874-2.057-78.684,1-99.62c2.527-15.112,10.049-17.508,19.676-19.658
				C385.578,468.418,454.735,470.295,481.302,474.452z"/>
		</g>
		<path id="XMLID_63_" fill="#6A4019" d="M160.877,309.335c4.929,0.46,33.671,1.646,38.43-0.65
			c3.793-1.831,4.654-8.352,4.738-11.779c0.457-18.737,0.915-37.474,1.372-56.211c0.067-2.753-0.155-6.027-2.676-7.441
			c-3.298-1.849-7.273,1.046-9.886,3.709c-6.874,7.007-33.43,35.856-35.32,41.032c-1.578,4.321-1.235,18.595-1.146,23.335
			C156.436,303.827,156.247,308.902,160.877,309.335z"/>
		<g id="square_x5F_2_x5F_white_16_">
			<path fill="#6A4019" d="M422.252,529.028c-1.413,5.57-5.804,7.717-10.165,8.432c-2.288,0.375-27.113,3.204-35.834-0.409
				c-7.464-3.091-8.63-7.63-9.447-11.099c-1.356-5.762,0.168-28.213,1.85-34.379c1.179-4.319,5.117-7.535,8.828-8.538
				c4.761-1.288,31.051-1.809,37.889,0.654c3.903,1.405,5.971,4.512,6.964,7.982C423.46,495.595,424.797,518.997,422.252,529.028z"
				/>
		</g>
		<g id="square_x5F_1_x5F_white_3_">
			<path fill="#6A4019" d="M207.378,362.619c-1.4,4.994-4.586,6.123-8.727,6.983c-2.172,0.452-32.25,1.864-37.738,0.88
				c-3.775-1.032-5.148-2.546-5.818-5.681c-0.705-4.001-1.978-33.244-0.304-38.771c0.907-3.876,3.789-5.382,7.39-6.132
				c6.805-1.082,30.047-1.545,38.076-0.713c5.799,0.712,6.787,3.282,7.7,6.581C208.765,329.523,208.711,353.407,207.378,362.619z"/>
		</g>
		<g id="square_x5F_2_x5F_white_15_">
			<path fill="#6A4019" d="M488.897,529.028c-1.413,5.57-5.804,7.717-10.165,8.432c-2.288,0.375-27.113,3.204-35.834-0.409
				c-7.464-3.091-8.63-7.63-9.447-11.099c-1.356-5.762,0.168-28.213,1.85-34.379c1.179-4.319,5.117-7.535,8.828-8.538
				c4.761-1.288,31.051-1.809,37.889,0.654c3.903,1.405,5.971,4.512,6.964,7.982C490.104,495.595,491.441,518.997,488.897,529.028z"
				/>
		</g>
		<g id="square_x5F_2_x5F_white_14_">
			<path fill="#6A4019" d="M433.351,555.845c1.413-5.57,5.804-7.717,10.165-8.432c2.288-0.375,27.113-3.204,35.834,0.409
				c7.464,3.091,8.63,7.63,9.447,11.099c1.356,5.762-0.168,28.213-1.85,34.379c-1.179,4.319-5.117,7.535-8.828,8.538
				c-4.761,1.288-31.051,1.809-37.889-0.654c-3.903-1.405-5.971-4.512-6.964-7.982C432.143,589.278,430.806,565.876,433.351,555.845
				z"/>
		</g>
		<g id="square_x5F_2_x5F_white_13_">
			<path fill="#6A4019" d="M366.706,555.845c1.413-5.57,5.804-7.717,10.165-8.432c2.288-0.375,27.113-3.204,35.834,0.409
				c7.464,3.091,8.63,7.63,9.447,11.099c1.356,5.762-0.168,28.213-1.85,34.379c-1.179,4.319-5.117,7.535-8.828,8.538
				c-4.761,1.288-31.051,1.809-37.889-0.654c-3.903-1.405-5.971-4.512-6.964-7.982C365.499,589.278,364.162,565.876,366.706,555.845
				z"/>
		</g>
		<g id="square_x5F_2_x5F_white_12_">
			<path fill="#6A4019" d="M638.473,527.721c-1.413,5.57-5.804,7.717-10.165,8.432c-2.288,0.375-27.113,3.204-35.834-0.409
				c-7.464-3.092-8.63-7.63-9.447-11.099c-1.356-5.762,0.168-28.213,1.851-34.379c1.179-4.319,5.117-7.535,8.828-8.538
				c4.761-1.288,31.051-1.809,37.888,0.654c3.903,1.405,5.971,4.512,6.964,7.982C639.681,494.288,641.018,517.69,638.473,527.721z"
				/>
		</g>
		<g id="square_x5F_2_x5F_white_11_">
			<path fill="#6A4019" d="M705.118,527.721c-1.413,5.57-5.804,7.717-10.165,8.432c-2.288,0.375-27.113,3.204-35.834-0.409
				c-7.464-3.092-8.63-7.63-9.447-11.099c-1.356-5.762,0.168-28.213,1.851-34.379c1.179-4.319,5.117-7.535,8.828-8.538
				c4.761-1.288,31.051-1.809,37.888,0.654c3.903,1.405,5.971,4.512,6.964,7.982C706.326,494.288,707.662,517.69,705.118,527.721z"
				/>
		</g>
		<g id="square_x5F_2_x5F_white_10_">
			<path fill="#6A4019" d="M649.572,554.538c1.413-5.57,5.804-7.717,10.165-8.432c2.288-0.375,27.113-3.204,35.834,0.409
				c7.464,3.092,8.63,7.63,9.447,11.099c1.356,5.762-0.168,28.213-1.851,34.379c-1.179,4.319-5.117,7.535-8.828,8.538
				c-4.761,1.288-31.051,1.809-37.888-0.654c-3.903-1.405-5.971-4.512-6.964-7.982C648.365,587.971,647.028,564.569,649.572,554.538
				z"/>
		</g>
		<g id="square_x5F_2_x5F_white_9_">
			<path fill="#6A4019" d="M582.928,554.538c1.413-5.57,5.804-7.717,10.165-8.432c2.288-0.375,27.113-3.204,35.834,0.409
				c7.464,3.092,8.63,7.63,9.447,11.099c1.356,5.762-0.168,28.213-1.851,34.379c-1.179,4.319-5.117,7.535-8.828,8.538
				c-4.761,1.288-31.051,1.809-37.888-0.654c-3.903-1.405-5.971-4.512-6.964-7.982C581.72,587.971,580.383,564.569,582.928,554.538z
				"/>
		</g>
		<g id="square_x5F_1_x5F_white_2_">
			<path fill="#6A4019" d="M270.281,362.619c-1.4,4.994-4.586,6.123-8.727,6.983c-2.172,0.452-32.25,1.864-37.738,0.88
				c-3.775-1.032-5.148-2.546-5.818-5.681c-0.705-4.001-1.978-33.244-0.304-38.771c0.907-3.876,3.789-5.382,7.39-6.132
				c6.805-1.082,30.047-1.545,38.076-0.713c5.799,0.712,6.787,3.282,7.7,6.581C271.669,329.523,271.615,353.407,270.281,362.619z"/>
		</g>
	</g>
</g>
<g id="Layer_1">
</g>
</svg>
