<?xml version="1.0" encoding="utf-8"?>
<!-- Generator: Adobe Illustrator 26.0.2, SVG Export Plug-In . SVG Version: 6.00 Build 0)  -->
<svg version="1.1" id="Layer_1" xmlns="http://www.w3.org/2000/svg" xmlns:xlink="http://www.w3.org/1999/xlink" x="0px" y="0px"
	 viewBox="0 0 222.1 209.1" style="enable-background:new 0 0 222.1 209.1;" xml:space="preserve">
<style type="text/css">
	.st0{fill:#773E0E;}
	.st1{fill:#FFFFFF;}
	.st2{fill:#FF9EC7;}
</style>
<g>
	<path class="st0" d="M70,58.5c0,0,37.6-57.7,46.9-58.4s37.9,61.2,37.9,61.2s65.7,16.1,66.7,23.1c1.1,7-46.5,50.3-46.5,50.3
		s5.7,68.7-1.7,73.8c-7.4,5.1-67.6-23.4-67.6-23.4s-59.3,25.1-66.5,19.3c-7.2-5.8,1.9-76.2,1.9-76.2S0.1,85.3,0.7,77.8
		S70,58.5,70,58.5z"/>
	<path class="st1" d="M132.1,109.6c2.9,4,8.8,4.2,13.7,2.3c3.7-1.4,7.7-6.6,4.7-12.6c-3.1-6.1-12.4-5.8-16.1-2.9
		C129.6,100.2,129.7,106.3,132.1,109.6z"/>
	<path class="st2" d="M128.6,131.3c1.8,4.6,7.5,6.2,12.7,5.6c3.9-0.5,9.1-4.5,7.6-11.1c-1.5-6.7-10.6-8.7-15-6.7
		C128.5,121.6,127.1,127.6,128.6,131.3z"/>
	<path class="st1" d="M68.5,119.6c2.9,4,8.8,4.2,13.7,2.3c3.7-1.4,7.7-6.6,4.7-12.6c-3.1-6.1-12.4-5.8-16.1-2.9
		C66.1,110.2,66.2,116.3,68.5,119.6z"/>
	<path class="st2" d="M80.2,142.5c2.9,4,8.8,4.2,13.7,2.3c3.7-1.4,7.7-6.6,4.7-12.6c-3.1-6.1-12.4-5.8-16.1-2.9
		C77.7,133.1,77.8,139.2,80.2,142.5z"/>
	<path class="st2" d="M99.1,121.4c3.5,5.5,10.7,5.8,16.7,3.2c4.4-1.9,9.4-8.9,5.7-17.2c-3.7-8.3-15.2-7.9-19.7-3.9
		C96.1,108.5,96.3,116.9,99.1,121.4z"/>
	<path class="st2" d="M79.1,95.4c3.5,5.5,10.7,5.8,16.7,3.2c4.4-1.9,9.4-8.9,5.7-17.2c-3.7-8.3-15.2-7.9-19.7-3.9
		C76.1,82.5,76.2,90.9,79.1,95.4z"/>
	<path class="st1" d="M111.7,92c3.5,5.5,10.7,5.8,16.7,3.2c4.4-1.9,9.4-8.9,5.7-17.2c-3.7-8.3-15.2-7.9-19.7-3.9
		C108.6,79.2,108.8,87.5,111.7,92z"/>
	<path class="st1" d="M105.4,154.6c3.5,5.5,10.7,5.8,16.7,3.2c4.4-1.9,9.4-8.9,5.7-17.2c-3.7-8.3-15.2-7.9-19.7-3.9
		C102.4,141.8,102.5,150.1,105.4,154.6z"/>
	<path class="st1" d="M107.7,26.5c2.3,3.6,7.2,3.8,11.1,2.1c3-1.3,6.3-6,3.8-11.5c-2.5-5.6-10.1-5.3-13.1-2.6
		C105.7,18,105.8,23.6,107.7,26.5z"/>
	<path class="st1" d="M15.5,90.4c2.3,3.6,7.2,3.8,11.1,2.1c3-1.3,6.3-6,3.8-11.5c-2.5-5.6-10.1-5.3-13.1-2.6
		C13.5,81.9,13.6,87.4,15.5,90.4z"/>
	<path class="st1" d="M44.8,192.8c2.3,3.6,7.2,3.8,11.1,2.1c3-1.3,6.3-6,3.8-11.5c-2.5-5.6-10.1-5.3-13.1-2.6
		C42.8,184.3,42.9,189.8,44.8,192.8z"/>
	<path class="st1" d="M153.7,197.5c2.3,3.6,7.2,3.8,11.1,2.1c3-1.3,6.3-6,3.8-11.5c-2.5-5.6-10.1-5.3-13.1-2.6
		C151.7,188.9,151.8,194.5,153.7,197.5z"/>
	<path class="st1" d="M193.1,95.8c2.3,3.6,7.2,3.8,11.1,2.1c3-1.3,6.3-6,3.8-11.5c-2.5-5.6-10.1-5.3-13.1-2.6
		C191.1,87.2,191.1,92.8,193.1,95.8z"/>
</g>
</svg>
