<?xml version="1.0" encoding="utf-8"?>
<!-- Generator: Adobe Illustrator 26.0.2, SVG Export Plug-In . SVG Version: 6.00 Build 0)  -->
<svg version="1.1" id="Layer_1" xmlns="http://www.w3.org/2000/svg" xmlns:xlink="http://www.w3.org/1999/xlink" x="0px" y="0px"
	 viewBox="0 0 201.8 261" style="enable-background:new 0 0 201.8 261;" xml:space="preserve">
<style type="text/css">
	.st0{fill:#BA5600;}
	.st1{fill:#FFFFFF;}
	.st2{fill:#FF9EC7;}
</style>
<path class="st0" d="M77.2,230.9c0,0-2.9,24.2,4.3,27c7.2,2.8,31.1,5,37.5,0s4.6-25.8,4.6-25.8s74.6-1.5,77.9-8.6
	S153,138.3,153,138.3s37.4,0.9,40.5-7.3S115.5-1.3,100.9,0S2.6,122.3,8.7,130.5c5.5,7.4,39.5,8.5,39.5,8.5S-2.2,215.9,0,222.9
	C2.3,229.9,77.2,230.9,77.2,230.9z"/>
<g id="Layer_1_00000090266909784192859350000016560855429757189562_">
</g>
<path class="st1" d="M92.3,50.8c-6.2,3.4-7.3,11.4-4.8,19c2.2,6.8,12.7,9.5,21.3,6.2c9.2-3.5,7.7-17,3.3-22
	C106.7,47.9,97.7,47.9,92.3,50.8z"/>
<path class="st2" d="M92.3,94.7c-6.2,3.4-7.3,11.4-4.8,19c2.2,6.8,12.7,9.5,21.3,6.2c9.2-3.5,7.7-17,3.3-22
	C106.7,91.7,97.7,91.7,92.3,94.7z"/>
<path class="st1" d="M92.3,139.5c-6.2,3.4-7.3,11.4-4.8,19c2.2,6.8,12.7,9.5,21.3,6.2c9.2-3.5,7.7-17,3.3-22
	C106.7,136.6,97.7,136.5,92.3,139.5z"/>
<path class="st2" d="M92.3,184.2c-6.2,3.4-7.3,11.4-4.8,19c2.2,6.8,12.7,9.5,21.3,6.2c9.2-3.5,7.7-17,3.3-22
	C106.7,181.2,97.7,181.2,92.3,184.2z"/>
</svg>
