<?xml version="1.0" encoding="utf-8"?>
<!-- Generator: Adobe Illustrator 26.0.2, SVG Export Plug-In . SVG Version: 6.00 Build 0)  -->
<svg version="1.1" id="Layer_1" xmlns="http://www.w3.org/2000/svg" xmlns:xlink="http://www.w3.org/1999/xlink" x="0px" y="0px"
	 viewBox="0 0 170 265.8" style="enable-background:new 0 0 170 265.8;" xml:space="preserve">
<style type="text/css">
	.st0{fill:#773E0E;}
	.st1{fill:#FFD300;}
	.st2{fill:#FF9EC7;}
</style>
<path class="st0" d="M161.5,116.1c-6.6-46.7-32.2-71.8-61.4-75.6c18.7-6.2,12.4-26.5,6.9-33.7c-6.6-8.7-18.9-8.3-28.7-3.3
	c-7.3,3.8-22,23.7,1.4,37.7c-15.5,3.1-31,11.8-44.5,26.2C-2.5,108-4.9,204.5,4.9,216.3c3.8,4.6,31.2,6.4,62.1,6.3
	c-6.4,6.7-10.6,18.7-3.7,31.4c8.9,16.2,31.9,13.6,40.5,4.8c10.8-11.1,8.8-28.6,2.3-37.2c-0.2-0.3,50.7-3.2,56.5-7.1
	C173.5,207.4,171.7,187.7,161.5,116.1z"/>
<path class="st1" d="M71.3,251c4.4,7,13.7,7.5,21.4,4.4c5.7-2.4,12.2-11.3,7.5-22c-4.7-10.7-19.3-10.4-25.2-5.3
	C67.6,234.5,67.7,245.2,71.3,251z"/>
<path class="st2" d="M10.9,205.7c3.1,5,9.7,5.3,15.1,3.1c4.1-1.7,8.6-8,5.4-15.6c-3.3-7.6-13.7-7.4-17.9-3.8
	C8.2,194,8.3,201.6,10.9,205.7z"/>
<path class="st2" d="M43.8,205.7c3.1,5,9.7,5.3,15.1,3.1c4.1-1.7,8.6-8,5.4-15.6c-3.3-7.6-13.7-7.4-17.9-3.8
	C41.2,194,41.2,201.6,43.8,205.7z"/>
<path class="st2" d="M76.4,208.9c3.1,5,9.7,5.3,15.1,3.1c4.1-1.7,8.6-8,5.4-15.6c-3.3-7.6-13.7-7.4-17.9-3.8
	C73.8,197.2,73.9,204.8,76.4,208.9z"/>
<path class="st2" d="M108.5,208.9c3.1,5,9.7,5.3,15.1,3.1c4.1-1.7,8.6-8,5.4-15.6c-3.3-7.6-13.7-7.4-17.9-3.8
	C105.9,197.2,105.9,204.8,108.5,208.9z"/>
<path class="st2" d="M139.9,205.7c3.1,5,9.7,5.3,15.1,3.1c4.1-1.7,8.6-8,5.4-15.6c-3.3-7.6-13.7-7.4-17.9-3.8
	C137.3,194,137.4,201.6,139.9,205.7z"/>
<g id="Layer_1_00000034073204363339967350000001457274599002061714_">
</g>
</svg>
