<?xml version="1.0" encoding="utf-8"?>
<!-- Generator: Adobe Illustrator 26.0.2, SVG Export Plug-In . SVG Version: 6.00 Build 0)  -->
<svg version="1.1" id="Layer_1" xmlns="http://www.w3.org/2000/svg" xmlns:xlink="http://www.w3.org/1999/xlink" x="0px" y="0px"
	 viewBox="0 0 227.2 221.8" style="enable-background:new 0 0 227.2 221.8;" xml:space="preserve">
<style type="text/css">
	.st0{fill:#BA5600;}
	.st1{fill:#FFFFFF;}
</style>
<g id="Layer_1_00000120555972702757178270000003025830094726485404_">
</g>
<g>
	<path class="st0" d="M71.8,35.4c0,0,3.4-28.3,39.8-34.8c31.5-5.6,36.6,30.6,36.6,30.6s36.6-23.9,53.9,11.9
		c13.2,27.3-7.3,47.5-7.3,47.5s38.7-0.5,31.5,48.9c-4.5,30.8-40.6,29.3-40.6,29.3s4.3,34.1-20,44.6s-32.7,5.6-50-11.7
		c0,0-14.6,26.5-46.9,17.6c-30.6-8.4-22.5-45-22.5-45S16.6,184.2,3,149.2s22.9-49.9,22.9-49.9s-30.6-31,2.7-57.4
		C54.7,21.1,71.8,35.4,71.8,35.4z"/>
	<g>
		<path class="st1" d="M117.5,74.6c5.4,4,13.2,1.7,18.7-2.8c4.1-3.4,7.2-12,0.6-18.6c-6.6-6.7-18.6-2.3-22.1,3.2
			C110.3,63.3,113.1,71.3,117.5,74.6z"/>
		<path class="st1" d="M157.1,117.8c5.4,4,13.2,1.7,18.7-2.8c4.1-3.4,7.2-12,0.6-18.6c-6.6-6.7-18.6-2.3-22.1,3.2
			C149.8,106.5,152.6,114.5,157.1,117.8z"/>
		<path class="st1" d="M110.5,158.8c4.4,3.3,10.8,1.4,15.3-2.4c3.4-2.8,5.9-9.8,0.5-15.2c-5.4-5.4-15.2-1.8-18.1,2.7
			C104.6,149.6,106.8,156.1,110.5,158.8z"/>
		<path class="st1" d="M89.7,140.1c4.4,3.3,10.8,1.4,15.3-2.4c3.4-2.8,5.9-9.8,0.5-15.2c-5.4-5.4-15.2-1.8-18.1,2.7
			C83.8,130.9,86.1,137.4,89.7,140.1z"/>
		<path class="st1" d="M56,92.8c4.4,3.3,10.8,1.4,15.3-2.4c3.4-2.8,5.9-9.8,0.5-15.2c-5.4-5.4-15.2-1.8-18.1,2.7
			C50,83.6,52.3,90.1,56,92.8z"/>
		<path class="st1" d="M164.3,85.1c3.2-4.5,1.4-10.9-2.3-15.5c-2.8-3.4-9.7-6-15-0.6c-5.4,5.5-1.8,15.4,2.7,18.3
			C155.2,91.1,161.6,88.8,164.3,85.1z"/>
		<path class="st1" d="M139,170.9c5.4,4,13.2,1.7,18.7-2.8c4.1-3.4,7.2-12,0.6-18.6c-6.6-6.7-18.6-2.3-22.1,3.2
			C131.7,159.6,134.5,167.6,139,170.9z"/>
		<path class="st1" d="M83,77.1c5.6,4.6,13.4,2.4,18.8-2.5c4.1-3.6,6.8-12.9,0-20.5C95,46.6,83,51,79.6,56.9
			C75.3,64.4,78.4,73.3,83,77.1z"/>
		<path class="st1" d="M90.7,110.8c5.6,4.6,13.4,2.4,18.8-2.5c4.1-3.6,6.8-12.9,0-20.5c-6.9-7.6-18.9-3.1-22.3,2.8
			C83,98.1,86.1,107,90.7,110.8z"/>
		<path class="st1" d="M124.6,134.5c5.6,4.6,13.4,2.4,18.8-2.5c4.1-3.6,6.8-12.9,0-20.5c-6.9-7.6-18.9-3.1-22.3,2.8
			C116.9,121.9,120,130.8,124.6,134.5z"/>
		<path class="st1" d="M162.1,144c3.6,2.9,8.6,1.5,12-1.6c2.6-2.3,4.4-8.3,0-13.1c-4.4-4.9-12.1-2-14.2,1.8
			C157.2,135.9,159.2,141.6,162.1,144z"/>
		<path class="st1" d="M123.9,100.6c3.7,3.1,8.9,1.6,12.6-1.7c2.7-2.4,4.6-8.6,0-13.6c-4.6-5.1-12.6-2.1-14.8,1.9
			C118.7,92.1,120.8,98.1,123.9,100.6z"/>
		<path class="st1" d="M56.6,152c3.7,3.1,8.9,1.6,12.6-1.7c2.7-2.4,4.6-8.6,0-13.6c-4.6-5.1-12.6-2.1-14.8,1.9
			C51.5,143.6,53.6,149.5,56.6,152z"/>
		<path class="st1" d="M112,183.4c3.7,3.1,8.9,1.6,12.6-1.7c2.7-2.4,4.6-8.6,0-13.6c-4.6-5.1-12.6-2.1-14.8,1.9
			C106.9,175,108.9,180.9,112,183.4z"/>
		<path class="st1" d="M77.4,175.7c5.6,4.6,13.4,2.4,18.8-2.5c4.1-3.6,6.8-12.9,0-20.5c-6.9-7.6-18.9-3.1-22.3,2.8
			C69.7,163,72.8,171.9,77.4,175.7z"/>
		<path class="st1" d="M55.7,125.7c5.6,4.6,13.4,2.4,18.8-2.5c4.1-3.6,6.8-12.9,0-20.5c-6.9-7.6-18.9-3.1-22.3,2.8
			C48,113,51.1,121.9,55.7,125.7z"/>
	</g>
</g>
</svg>
