<?xml version="1.0" encoding="utf-8"?>
<!-- Generator: Adobe Illustrator 26.0.3, SVG Export Plug-In . SVG Version: 6.00 Build 0)  -->
<svg version="1.1" xmlns="http://www.w3.org/2000/svg" xmlns:xlink="http://www.w3.org/1999/xlink" x="0px" y="0px"
	 viewBox="0 0 295.09 251.201" enable-background="new 0 0 295.09 251.201" xml:space="preserve">
<g id="gingerbread_x5F_heart">
	<g>
		<path fill="#894400" d="M156.142,251.201C135.086,251.209-61.262,99.08,19.302,21.983c46.583-44.578,110.231-15.525,129.98,35.121
			c0,0,56.857-87.607,125.252-40.713C349.949,68.099,196.575,251.184,156.142,251.201z"/>
		<g>
			<path fill="#FFFFFF" d="M251.402,101.148c-1.323-5.92,3.268-10.983,8.892-13.306c4.208-1.738,12.184-0.448,15.226,7.46
				c3.068,7.976-4.738,15.381-10.411,15.777C257.957,111.58,252.489,106.01,251.402,101.148z"/>
			<path fill="#E79CC3" d="M260.703,70.367c-1.323-5.92,3.268-10.983,8.892-13.306c4.208-1.738,12.184-0.448,15.226,7.46
				c3.068,7.976-4.738,15.381-10.411,15.777C267.257,80.799,261.79,75.23,260.703,70.367z"/>
			<path fill="#FFFFFF" d="M251.403,41.782c-1.323-5.92,3.268-10.983,8.892-13.306c4.208-1.738,12.184-0.448,15.226,7.46
				c3.068,7.976-4.738,15.381-10.411,15.777C257.957,52.214,252.489,46.645,251.403,41.782z"/>
			<path fill="#E79CC3" d="M220.12,29.288c-1.323-5.92,3.268-10.983,8.892-13.306c4.208-1.738,12.184-0.448,15.226,7.46
				c3.068,7.976-4.738,15.381-10.411,15.777C226.674,39.72,221.206,34.15,220.12,29.288z"/>
			<path fill="#FFFFFF" d="M188.837,39.169c-1.323-5.92,3.268-10.983,8.892-13.306c4.208-1.738,12.184-0.448,15.226,7.46
				c3.068,7.976-4.738,15.381-10.411,15.777C195.391,49.601,189.923,44.032,188.837,39.169z"/>
			<path fill="#E79CC3" d="M163.605,61.711c-1.323-5.92,3.268-10.983,8.892-13.306c4.208-1.738,12.184-0.448,15.226,7.46
				c3.068,7.976-4.738,15.381-10.411,15.777C170.159,72.143,164.691,66.573,163.605,61.711z"/>
			<path fill="#E79CC3" d="M111.151,57.873c-1.323-5.92,3.268-10.983,8.892-13.306c4.208-1.738,12.184-0.448,15.226,7.46
				c3.068,7.976-4.738,15.381-10.411,15.777C117.705,68.305,112.237,62.735,111.151,57.873z"/>
			<path fill="#FFFFFF" d="M85.933,31.906c-1.323-5.92,3.268-10.983,8.892-13.306c4.208-1.738,12.184-0.448,15.226,7.46
				c3.068,7.976-4.738,15.381-10.411,15.777C92.488,42.338,87.02,36.769,85.933,31.906z"/>
			<path fill="#E79CC3" d="M48.329,27.195c-1.323-5.92,3.268-10.983,8.892-13.306c4.208-1.738,12.184-0.448,15.226,7.46
				c3.068,7.976-4.738,15.381-10.411,15.777C54.884,37.627,49.416,32.058,48.329,27.195z"/>
			<path fill="#FFFFFF" d="M18.282,45.378c-1.323-5.92,3.268-10.983,8.892-13.306c4.208-1.738,12.184-0.448,15.226,7.46
				c3.068,7.976-4.738,15.381-10.411,15.777C24.836,55.81,19.369,50.24,18.282,45.378z"/>
			<path fill="#E79CC3" d="M11.127,79.352c-1.323-5.92,3.268-10.983,8.892-13.306c4.208-1.738,12.184-0.448,15.226,7.46
				c3.068,7.976-4.738,15.381-10.411,15.777C17.681,89.784,12.214,84.215,11.127,79.352z"/>
			<path fill="#FFFFFF" d="M23.646,113.643c-1.323-5.92,3.268-10.983,8.892-13.306c4.208-1.738,12.184-0.448,15.226,7.46
				c3.068,7.976-4.738,15.381-10.411,15.777C30.201,124.075,24.733,118.505,23.646,113.643z"/>
			<path fill="#E79CC3" d="M43.5,142.68c-1.323-5.92,3.268-10.983,8.892-13.306c4.208-1.738,12.184-0.448,15.226,7.46
				c3.068,7.976-4.738,15.381-10.411,15.777C50.054,153.112,44.586,147.542,43.5,142.68z"/>
			<path fill="#FFFFFF" d="M64.383,169.919c-1.323-5.92,3.268-10.983,8.892-13.306c4.208-1.738,12.184-0.448,15.226,7.46
				c3.068,7.976-4.738,15.381-10.411,15.777C70.937,180.351,65.47,174.781,64.383,169.919z"/>
			<path fill="#E79CC3" d="M87.857,193.542c-1.323-5.92,3.268-10.983,8.892-13.306c4.208-1.738,12.184-0.448,15.226,7.46
				c3.068,7.976-4.738,15.381-10.411,15.777C94.411,203.974,88.943,198.404,87.857,193.542z"/>
			<path fill="#FFFFFF" d="M114.818,215.355c-1.323-5.92,3.268-10.983,8.892-13.306c4.208-1.738,12.184-0.448,15.226,7.46
				c3.068,7.976-4.738,15.381-10.411,15.777C121.372,225.787,115.905,220.217,114.818,215.355z"/>
			<path fill="#E79CC3" d="M144.437,230.009c-1.323-5.92,3.268-10.983,8.891-13.306c4.208-1.738,12.184-0.448,15.226,7.46
				c3.068,7.976-4.738,15.381-10.411,15.777C150.991,240.441,145.524,234.871,144.437,230.009z"/>
			<path fill="#FFFFFF" d="M169.655,207.704c-1.323-5.92,3.268-10.983,8.891-13.306c4.208-1.738,12.184-0.448,15.226,7.46
				c3.068,7.976-4.738,15.381-10.411,15.777C176.209,218.136,170.741,212.566,169.655,207.704z"/>
			<path fill="#E79CC3" d="M194.872,184.49c-1.323-5.92,3.268-10.983,8.891-13.306c4.208-1.738,12.184-0.448,15.226,7.46
				c3.068,7.976-4.738,15.381-10.411,15.777C201.426,194.922,195.958,189.352,194.872,184.49z"/>
			<path fill="#FFFFFF" d="M216.961,157.945c-1.323-5.92,3.268-10.983,8.892-13.306c4.208-1.738,12.184-0.448,15.226,7.46
				c3.068,7.976-4.738,15.381-10.411,15.777C223.515,168.377,218.047,162.807,216.961,157.945z"/>
			<path fill="#E79CC3" d="M235.486,130.185c-1.323-5.92,3.268-10.983,8.892-13.306c4.208-1.738,12.184-0.448,15.226,7.46
				c3.068,7.976-4.738,15.381-10.411,15.777C242.04,140.617,236.572,135.048,235.486,130.185z"/>
			<path fill="#FFFFFF" d="M132.528,89.738c-1.699-7.603,4.197-14.106,11.419-17.088c5.404-2.231,15.648-0.576,19.555,9.581
				c3.94,10.244-6.085,19.753-13.371,20.262C140.946,103.136,133.924,95.983,132.528,89.738z"/>
		</g>
	</g>
</g>
<g id="Layer_1">
</g>
</svg>
