<?xml version="1.0" encoding="utf-8"?>
<!-- Generator: Adobe Illustrator 25.0.0, SVG Export Plug-In . SVG Version: 6.00 Build 0)  -->
<svg version="1.1" xmlns="http://www.w3.org/2000/svg" xmlns:xlink="http://www.w3.org/1999/xlink" x="0px" y="0px"
	 viewBox="0 0 289.919 283.045" enable-background="new 0 0 289.919 283.045" xml:space="preserve">
<g id="gingerbread_x5F_cookie_x5F_steam_x5F_white">
	<path fill="#FFFFFF" d="M245.085,107.882c0,0,24.397-27.38,5.186-60.71c-25.192-43.709-69.854-10.289-69.854-10.289
		S170.782-8.45,130.979,1.401C85.123,12.749,83.2,48.883,83.2,48.883S60.168,32.321,28.538,60.856
		c-40.223,36.286,1.605,72.828,1.605,72.828S-15.09,155.77,5.265,198.849s57.457,27.989,57.457,27.989s-7.119,47.019,32.649,54.917
		c41.954,8.332,58.359-26.43,58.359-26.43c23.63,20.333,34.737,25.863,64.89,10.44s21.682-58.211,21.682-58.211
		s46.218-1.194,49.275-40.568C294.483,103.797,245.085,107.882,245.085,107.882z"/>
</g>
<g id="Layer_1">
</g>
</svg>
