<?xml version="1.0" encoding="utf-8"?>
<!-- Generator: Adobe Illustrator 24.2.3, SVG Export Plug-In . SVG Version: 6.00 Build 0)  -->
<svg version="1.1" xmlns="http://www.w3.org/2000/svg" xmlns:xlink="http://www.w3.org/1999/xlink" x="0px" y="0px"
	 viewBox="0 0 221.162 285.972" enable-background="new 0 0 221.162 285.972" xml:space="preserve">
<g id="tree_x5F_spruce_x5F_gingerbread_x5F_white">
	<path fill="#FFFFFF" d="M84.843,253.582c0,0-2.683,26.578,5.253,29.549c7.936,2.971,34.153,4.84,41.149-0.803
		c6.996-5.643,4.535-28.362,4.535-28.362s81.725-3.246,85.231-11.046s-54.94-92.322-54.94-92.322s41.037,0.186,44.266-8.815
		c3.229-9.001-88.523-143.471-104.562-141.767S0.714,136.116,7.57,144.981c6.171,7.98,43.518,8.441,43.518,8.441
		S-2.51,238.738,0.092,246.419C2.693,254.101,84.843,253.582,84.843,253.582z"/>
</g>
<g id="Layer_1">
</g>
</svg>
