<?xml version="1.0" encoding="utf-8"?>
<!-- Generator: Adobe Illustrator 24.2.3, SVG Export Plug-In . SVG Version: 6.00 Build 0)  -->
<svg version="1.1" xmlns="http://www.w3.org/2000/svg" xmlns:xlink="http://www.w3.org/1999/xlink" x="0px" y="0px"
	 viewBox="0 0 132.774 231.063" enable-background="new 0 0 132.774 231.063" xml:space="preserve">
<g id="glass_x5F_tall_x5F_white">
	<g>
		<g id="Juomalasi_x5F_sininen_1_">
			<path fill="#FFFFFF" enable-background="new    " d="M0.64,3.122c-4.111,3.7,12.746,223.255,17.268,225.721
				c4.523,2.466,95.387,2.878,99.91,1.234c4.523-1.644,16.446-225.31,14.801-228.188L0.64,3.122z"/>
			<path fill="#CCD2D3" d="M132.62,1.889C130.975-0.989,4.752-0.578,0.64,3.122c-0.703,0.633-0.793,7.579-0.436,18.671
				l132.311-5.209C132.807,7.719,132.866,2.32,132.62,1.889z"/>
			<path fill="#CCD2D3" d="M122.74,188.234c-5.89-7.653-15.647-6.845-23.63-1.281c-7.075,3.896-11.615,19.232-11.785,25.569
				c-4.586-44.602-38.663-35.19-46.682,0.839c0.371-11.047-7.906-41.672-28.56-26.698c1.336,13.541,2.598,24.807,3.669,32.284
				l104.307-1.078C120.888,210.542,121.798,200.307,122.74,188.234z"/>
		</g>
		<g id="Layer_1_209_">
		</g>
	</g>
</g>
<g id="Layer_1">
</g>
</svg>
