<?xml version="1.0" encoding="utf-8"?>
<!-- Generator: Adobe Illustrator 24.2.3, SVG Export Plug-In . SVG Version: 6.00 Build 0)  -->
<svg version="1.1" xmlns="http://www.w3.org/2000/svg" xmlns:xlink="http://www.w3.org/1999/xlink" x="0px" y="0px"
	 viewBox="0 0 160.226 244.179" enable-background="new 0 0 160.226 244.179" xml:space="preserve">
<g id="icecream_x5F_white">
	<g>
		<path fill="#E8E9E9" d="M140.564,21.563C113.9-8.841,68.59-4.044,33.972,17.094C8.069,32.911-16.362,80.917,14.246,128.397
			c30.87,47.885,101.427,34.987,125.874,6.009C170.941,97.872,162.465,46.535,140.564,21.563z"/>
		<g>
			<path fill="#CCD2D3" d="M64.963,81.734c-17.37-26.944-17.01-54.055-8.72-75.359c-7.701,2.792-15.211,6.409-22.271,10.72
				C8.069,32.911-16.362,80.917,14.246,128.397c30.87,47.885,101.427,34.987,125.874,6.009c6.533-7.743,11.283-16.155,14.531-24.836
				C124.142,118.612,85.645,113.816,64.963,81.734z"/>
		</g>
		<path fill="#E8E9E9" d="M146.027,129.602c5.262,4.563-54.859,114.578-65.624,114.578c-11.756,0-67.543-103.507-67.543-112.532
			C14.279,122.683,136.804,123.269,146.027,129.602z"/>
		<path fill="#FFFFFF" d="M127.284,20.563c-4.552-5.19-12.286-4.371-18.196-0.763c-4.422,2.7-8.592,10.895-3.367,19
			c5.27,8.174,17.314,5.973,21.487,1.026C132.47,33.589,131.023,24.825,127.284,20.563z"/>
		<path fill="#FFFFFF" d="M140.96,54.895c-4.552-5.19-12.286-4.371-18.196-0.763c-4.422,2.7-8.592,10.895-3.367,19
			c5.27,8.174,17.314,5.973,21.487,1.026C146.146,67.922,144.699,59.158,140.96,54.895z"/>
		<path fill="#FFFFFF" d="M101.145,44.379c-4.552-5.19-12.286-4.371-18.196-0.763c-4.422,2.7-8.592,10.895-3.367,19
			c5.27,8.174,17.314,5.973,21.487,1.026C106.33,57.405,104.883,48.642,101.145,44.379z"/>
		<g>
			<path fill="#FFFFFF" d="M140.546,147.151l-95.724-21.362c-18.124,1.023-31.499,2.931-31.963,5.858
				c0,0.716,0.354,2.031,1.006,3.837l120.252,25.105C136.552,155.724,138.727,151.183,140.546,147.151z"/>
			<path fill="#FFFFFF" d="M25.331,160.135c2.955,5.774,6.279,12.048,9.804,18.486l80.251,16.754
				c2.555-4.454,5.086-8.975,7.538-13.46L25.331,160.135z"/>
			<path fill="#FFFFFF" d="M58.376,218.114l38.131,7.961c2.685-3.977,5.544-8.435,8.486-13.201l-57.73-12.884
				C51.019,206.368,54.78,212.524,58.376,218.114z"/>
		</g>
	</g>
</g>
<g id="Layer_1">
</g>
</svg>
