<?xml version="1.0" encoding="utf-8"?>
<!-- Generator: Adobe Illustrator 25.0.0, SVG Export Plug-In . SVG Version: 6.00 Build 0)  -->
<svg version="1.1" xmlns="http://www.w3.org/2000/svg" xmlns:xlink="http://www.w3.org/1999/xlink" x="0px" y="0px"
	 viewBox="0 0 118.912 246.52" enable-background="new 0 0 118.912 246.52" xml:space="preserve">
<g id="juice_x5F_carton_x5F_orange">
	<g>
		<path fill="#FFD200" d="M100.923,16.053L101.088,0L19.12,0l-2.156,18.113L100.923,16.053z"/>
		<path fill="#FFD200" d="M101.062,14.888l2.765,181.004c0,0-11.616,50.298-14.012,50.567c-4.472,0.502-88.115-2.209-89.374-4.18
			c-1.35-2.112,0.709-186.692,2.03-194.302c0.647-3.728,14.493-31.205,14.493-31.205L101.062,14.888z"/>
		<path fill="#FFE400" d="M90.861,49.956l10.201-35.068l-84.098,1.884c0,0-13.846,27.477-14.493,31.205
			C2.383,48.481,90.861,49.956,90.861,49.956z"/>
		<path fill="#FF8000" d="M89.729,246.459l25.794-21.631l3.303-190.326L88.742,49.956L89.729,246.459z"/>
		<path fill="#FFA600" d="M101.062,14.888l-12.32,35.068l30.17-15.454L101.062,14.888z"/>
		<path fill="#FDE40B" d="M22.644,166.764c20.467,11.118,49.067,6.567,58.818-21.141c16.2-46.035-25.762-77.4-60.073-55.056
			C-1.906,109.022,0.723,154.083,22.644,166.764z"/>
		<path id="XMLID_199_" fill="#FDA519" d="M13.8,126.862c0.012-12.049,6.343-23.592,17.785-28.209
			c10.892-4.395,23.994-2.789,32.031,6.185c8.199,9.155,10.125,23.772,5.123,34.905c-2.409,5.363-6.53,9.61-11.903,12.029
			c-5.771,2.598-12.323,3.108-18.528,2.118c-6.543-1.044-13.125-3.824-17.813-8.61C15.682,140.367,13.806,133.61,13.8,126.862
			C13.804,122.676,13.801,128.04,13.8,126.862z"/>
		<g>
			<path fill="#F47E20" d="M69.07,113.761c-3.395,7.546-8.388,14.376-14.591,19.854c-8.668,7.655-19.662,12.641-31.131,14.119
				c-0.018,0.002-0.037,0.004-0.055,0.007c4.336,3.297,9.689,5.299,15.016,6.149c6.204,0.99,12.757,0.48,18.528-2.118
				c5.373-2.419,9.494-6.667,11.903-12.029C72.32,131.773,72.349,122.02,69.07,113.761z"/>
		</g>
		<g>
			<path fill="#515353" d="M36.254,104.495c-1.742,0.067-3.486-0.88-4.379-2.377c-0.154,1.759-1.548,3.337-3.274,3.707l0.518,0.369
				c1.424,0.226,2.519,1.719,2.306,3.145c1.252-0.799,2.847-1.039,4.279-0.642C35.038,107.354,35.265,105.62,36.254,104.495z"/>
		</g>
		<path id="XMLID_198_" fill="#FDA519" d="M39.087,164.22c0.01-9.703,5.108-19,14.323-22.718c8.772-3.54,19.324-2.246,25.796,4.981
			c6.603,7.373,8.154,19.145,4.126,28.111c-1.94,4.319-5.259,7.74-9.587,9.688c-4.647,2.093-9.925,2.503-14.921,1.706
			c-5.269-0.841-10.57-3.08-14.346-6.934C40.603,175.096,39.092,169.654,39.087,164.22C39.091,160.848,39.088,165.168,39.087,164.22
			z"/>
		<path id="XMLID_197_" fill="#FDE40B" d="M42.124,158.808c2.061-8.412,8.448-15.396,17.225-16.671
			c8.355-1.215,17.232,2.139,21.316,9.775c4.167,7.79,3.022,18.326-2.367,25.249c-2.596,3.335-6.197,5.599-10.362,6.374
			c-4.473,0.832-9.136,0.072-13.3-1.676c-4.392-1.844-8.515-4.906-10.974-9.047C41.138,168.56,40.978,163.522,42.124,158.808
			C42.84,155.885,41.924,159.631,42.124,158.808z"/>
		<path id="XMLID_196_" fill="#FDA519" d="M59.631,160.89l-11.557-9.351c-0.445-0.36-0.526-1.007-0.184-1.467
			c1.567-2.109,6.324-7.371,14.379-6.716c0.6,0.049,1.038,0.592,0.966,1.19l-1.875,15.642
			C61.261,161.021,60.283,161.418,59.631,160.89z"/>
		<path id="XMLID_195_" fill="#FDA519" d="M63.209,160.14l2.547-15.382c0.089-0.539,0.611-0.895,1.145-0.778
			c2.391,0.524,8.543,2.387,11.845,8.114c0.266,0.462,0.106,1.054-0.36,1.315L64.62,161.13
			C63.92,161.522,63.078,160.931,63.209,160.14z"/>
		<path id="XMLID_194_" fill="#FDA519" d="M65.089,162.852l14.189-6.864c0.634-0.307,1.393-0.001,1.64,0.659
			c0.897,2.394,2.207,8.356-1.85,17.455c-0.316,0.708-1.216,0.927-1.826,0.449l-12.37-9.684
			C64.176,164.323,64.293,163.237,65.089,162.852z"/>
		<path id="XMLID_193_" fill="#FDA519" d="M64.033,166.948l11.288,9.708c0.486,0.418,0.498,1.167,0.023,1.597
			c-1.638,1.48-5.678,4.365-12.261,4.339c-0.595-0.002-1.075-0.492-1.064-1.087l0.252-13.767
			C62.288,166.834,63.349,166.359,64.033,166.948z"/>
		<path id="XMLID_192_" fill="#FDA519" d="M60.293,167.369l-1.372,13.048c-0.069,0.655-0.719,1.084-1.348,0.887
			c-2.372-0.746-7.674-2.84-11.064-7.429c-0.382-0.517-0.198-1.255,0.375-1.544l11.902-6.003
			C59.523,165.957,60.38,166.548,60.293,167.369z"/>
		<path id="XMLID_135_" fill="#FDA519" d="M57.756,164.527l-11.971,5.883c-0.648,0.318-1.429-0.003-1.661-0.686
			c-0.742-2.189-1.707-7.267,1.111-15.19c0.275-0.773,1.224-1.052,1.869-0.546l10.862,8.523
			C58.661,163.055,58.548,164.138,57.756,164.527z"/>
	</g>
</g>
<g id="Layer_1">
</g>
</svg>
