<?xml version="1.0" encoding="utf-8"?>
<!-- Generator: Adobe Illustrator 24.2.3, SVG Export Plug-In . SVG Version: 6.00 Build 0)  -->
<svg version="1.1" xmlns="http://www.w3.org/2000/svg" xmlns:xlink="http://www.w3.org/1999/xlink" x="0px" y="0px"
	 viewBox="0 0 479.875 369.374" enable-background="new 0 0 479.875 369.374" xml:space="preserve">
<g id="kettle_x5F_white">
	<g>
		<g id="kattila_1_">
			<path fill="#FFFFFF" enable-background="new    " d="M468.938,3.405C417.9-15.59,332.134,50.307,310.879,67.603
				c-60.854-36.767-206.837-37.949-273.783,8.398C-14.314,111.593,0.186,198.596,8.096,282.962
				c5.412,57.725,110.52,86.055,147.642,85.685c20.046-0.002,165.843,13.162,181.916-72.503c4.837-25.782,19.774-101.503,0-196.416
				c-0.279-1.338-0.644-2.652-1.078-3.949C366.584,84.328,521.957,23.137,468.938,3.405z"/>
			<path id="XMLID_136_" fill="#CCD2D3" d="M184.626,195.014c-112.494,4.394-161.501-36.657-154.68-78.219
				c7.371-44.916,84.363-63.919,157.316-62.399c42.185,0.879,123.673,1.459,135.345,57.126
				C334.033,166.011,243.696,192.707,184.626,195.014z"/>
		</g>
	</g>
</g>
<g id="Layer_1">
</g>
</svg>
