<?xml version="1.0" encoding="utf-8"?>
<!-- Generator: Adobe Illustrator 25.0.0, SVG Export Plug-In . SVG Version: 6.00 Build 0)  -->
<svg version="1.1" xmlns="http://www.w3.org/2000/svg" xmlns:xlink="http://www.w3.org/1999/xlink" x="0px" y="0px"
	 viewBox="0 0 253.733 255.406" enable-background="new 0 0 253.733 255.406" xml:space="preserve">
<g id="lemon_x5F_slice">
	<g>
		<path id="XMLID_11_" fill="#FAE100" d="M0,134.437C0.054,81.433,27.902,30.654,78.238,10.342
			C126.153-8.994,183.79-1.925,219.143,37.55c36.067,40.273,44.539,104.575,22.537,153.549
			c-10.598,23.591-28.728,42.276-52.364,52.918c-25.385,11.43-54.211,13.674-81.505,9.317
			c-28.783-4.595-57.739-16.823-78.361-37.876C8.281,193.846,0.026,164.121,0,134.437C0.019,116.02,0.004,139.619,0,134.437z"/>
		<path id="XMLID_10_" fill="#FFF2B2" d="M16.587,104.878c11.255-45.951,46.143-84.095,94.088-91.064
			c45.639-6.634,94.125,11.684,116.433,53.392c22.759,42.551,16.507,100.102-12.928,137.917
			c-14.179,18.215-33.852,30.584-56.599,34.814c-24.43,4.543-49.901,0.393-72.648-9.157c-23.988-10.071-46.511-26.799-59.942-49.416
			C11.204,158.147,10.331,130.625,16.587,104.878C20.497,88.913,15.494,109.373,16.587,104.878z"/>
		<path id="XMLID_9_" fill="#F6CF12" d="M112.219,116.25L49.091,65.17c-2.433-1.969-2.871-5.499-1.005-8.011
			c8.561-11.52,34.541-40.265,78.541-36.685c3.279,0.267,5.671,3.233,5.279,6.499l-10.242,85.442
			C121.119,116.964,115.779,119.131,112.219,116.25z"/>
		<path id="XMLID_8_" fill="#F6CF12" d="M131.761,112.155l13.911-84.022c0.488-2.946,3.338-4.89,6.255-4.251
			c13.061,2.862,46.665,13.036,64.699,44.322c1.456,2.525,0.578,5.758-1.964,7.183l-75.196,42.174
			C135.647,119.703,131.046,116.475,131.761,112.155z"/>
		<path id="XMLID_7_" fill="#F6CF12" d="M142.028,126.968l77.504-37.494c3.465-1.676,7.609-0.005,8.959,3.6
			c4.9,13.076,12.057,45.645-10.103,95.347c-1.723,3.865-6.64,5.063-9.973,2.455l-67.569-52.895
			C137.045,135.004,137.681,129.071,142.028,126.968z"/>
		<path id="XMLID_6_" fill="#F6CF12" d="M136.263,149.339l61.657,53.027c2.653,2.281,2.723,6.377,0.127,8.723
			c-8.945,8.083-31.015,23.845-66.975,23.7c-3.252-0.013-5.87-2.687-5.811-5.938l1.378-75.202
			C126.73,148.718,132.524,146.123,136.263,149.339z"/>
		<path id="XMLID_5_" fill="#F6CF12" d="M115.834,151.641l-7.495,71.274c-0.376,3.577-3.93,5.922-7.361,4.843
			c-12.958-4.074-41.92-15.514-60.435-40.577c-2.085-2.822-1.083-6.853,2.049-8.433l65.011-32.789
			C111.629,143.929,116.305,147.157,115.834,151.641z"/>
		<path id="XMLID_4_" fill="#F6CF12" d="M101.977,136.118L36.589,168.25c-3.537,1.738-7.807-0.014-9.072-3.747
			c-4.052-11.958-9.327-39.693,6.07-82.974c1.501-4.22,6.687-5.745,10.211-2.98l59.332,46.553
			C106.921,128.078,106.302,133.992,101.977,136.118z"/>
	</g>
</g>
<g id="Layer_1">
</g>
</svg>
