<?xml version="1.0" encoding="utf-8"?>
<!-- Generator: Adobe Illustrator 24.2.3, SVG Export Plug-In . SVG Version: 6.00 Build 0)  -->
<svg version="1.1" xmlns="http://www.w3.org/2000/svg" xmlns:xlink="http://www.w3.org/1999/xlink" x="0px" y="0px"
	 viewBox="0 0 219.12 224.954" enable-background="new 0 0 219.12 224.954" xml:space="preserve">
<g id="lemon_x5F_half">
	<g id="lemon_x5F_half_1_">
		<g>
			<g>
				<path fill="#FAE100" d="M204.374,116.012C207.39,65.314,157.647,2.129,98.577,1.071L49.383,217.708
					c34.893,13.297,103.938,10.987,133.722-29.944c16.192-11.663,29.283-8.394,34.707-28.979S210.427,128.774,204.374,116.012z"/>
			</g>
			<path fill="#F6CF12" d="M159.148,63.869C124.681-62.501-28.305,14.695,4.609,155.84
				C35.858,289.842,196.625,201.272,159.148,63.869z"/>
			<path fill="#FCF19A" d="M147.102,65.136c-29.277-117.791-164.52-44.391-136.733,87.22
				C36.751,277.305,178.934,193.213,147.102,65.136z"/>
			<g>
				<path fill="#F6CF12" d="M15.621,92.51c-2.942,15.457-3.229,32.764,0.108,51.437l49.342-28.256
					C65.071,115.69,37.211,102.558,15.621,92.51z"/>
				<path fill="#F6CF12" d="M140.777,69.86c-9.052-36.417-29.267-52.689-50.989-53.598l-15.426,94.53l66.941-38.728
					C141.132,71.331,140.96,70.597,140.777,69.86z"/>
				<path fill="#F6CF12" d="M19.345,77.9l49.558,31.212c0,0,1.393-58.951,2.883-90.232C49.928,26.049,29.216,47.318,19.345,77.9z"/>
				<path fill="#F6CF12" d="M144.365,90.732L78.01,117.614l53.403,41.687C141.374,140.545,146.864,117.023,144.365,90.732z"/>
				<path fill="#F6CF12" d="M74.293,122.77l3.16,81.139c17.387-3.248,34.913-15.608,47.75-34.337L74.293,122.77z"/>
				<path fill="#F6CF12" d="M63.836,204.526l3.196-82.836l-48.827,33.616C26.661,187.506,44.314,202.521,63.836,204.526z"/>
			</g>
		</g>
	</g>
</g>
<g id="Layer_1">
</g>
</svg>
