<?xml version="1.0" encoding="utf-8"?>
<!-- Generator: Adobe Illustrator 25.0.0, SVG Export Plug-In . SVG Version: 6.00 Build 0)  -->
<svg version="1.1" xmlns="http://www.w3.org/2000/svg" xmlns:xlink="http://www.w3.org/1999/xlink" x="0px" y="0px"
	 viewBox="0 0 242.138 224.122" enable-background="new 0 0 242.138 224.122" xml:space="preserve">
<g id="lemon">
	<g>
		<g>
			<path fill="#FFE400" d="M232.032,150.953C257.663,48.276,159.142-40.351,64.06,19.244C42.073,15.088,6.825,18.231,0.369,43.581
				C-2.464,59.167,11.76,72.576,16.944,87.397C1.877,146.984,30.927,207.765,93.88,220.472
				c25.016,7.662,78.282,3.982,104.123-17.956c16.107-0.675,42.099-6.573,44.129-25.186
				C242.427,169.44,232.47,152.491,232.032,150.953z"/>
		</g>
		<path fill="#FFD200" d="M128.817,207.312c-23.054,1.629-25.356-33.013-3.609-36.706
			C150.506,164.963,155.96,208.739,128.817,207.312z"/>
		<path fill="#FFD200" d="M151.99,144.099c-3.575,28.863-45.078,22.301-36.371-7.55C122.828,118.117,151.956,124.489,151.99,144.099
			z"/>
		<path fill="#FFD200" d="M83.126,192.255c-23.932-1.357-21.053-32.708,1.897-32.288
			C110.555,158.735,107.435,192.475,83.126,192.255z"/>
		<path fill="#FFD200" d="M56.174,90.045c29.751,3.213,12.704,41.491-12.113,30.358C26.449,110.478,37.381,88.067,56.174,90.045z"/>
		<path fill="#FFD200" d="M172.55,164.44c24.516,1.724,13.878,33.214-7.516,26.25c-7.529-1.581-9.42-10.542-7.803-17.077
			C158.954,166.337,165.969,164.946,172.55,164.44z"/>
		<path fill="#FFD200" d="M68.965,143.805c1.782,19.588-24.385,23.527-26.784,4.045C39.14,126.654,68.325,124.348,68.965,143.805z"
			/>
		<path fill="#FFD200" d="M77.217,67.937c0.641,18.291-27.924,17.943-25.751-0.195C52.571,52.489,77.97,51.759,77.217,67.937z"/>
		<path fill="#FFD200" d="M94.363,124.867c16.626-0.23,13.221,27.584-2.469,25.535C73.825,150.336,76.994,123.215,94.363,124.867z"
			/>
	</g>
</g>
<g id="Layer_1">
</g>
</svg>
