<?xml version="1.0" encoding="utf-8"?>
<!-- Generator: Adobe Illustrator 26.0.2, SVG Export Plug-In . SVG Version: 6.00 Build 0)  -->
<svg version="1.1" id="Layer_1" xmlns="http://www.w3.org/2000/svg" xmlns:xlink="http://www.w3.org/1999/xlink" x="0px" y="0px"
	 viewBox="0 0 35.9 36.3" style="enable-background:new 0 0 35.9 36.3;" xml:space="preserve">
<style type="text/css">
	.st0{fill:#C61824;}
	.st1{fill:#FF3E31;}
	.st2{fill:#FF9EC7;}
</style>
<path class="st0" d="M35.9,17C35.6,6.5,28.6-0.2,18.1,0C7.2,0.3-0.3,8.7,0,20.5c0.2,10,6.9,16,17.4,15.7C29,36,36.2,28.5,35.9,17z"
	/>
<path class="st1" d="M30.1,14.3C29.9,6.5,24.7,1.5,17,1.7C8.9,1.9,3.4,8.2,3.6,16.9c0.2,7.4,5.1,11.8,12.9,11.6
	C25,28.2,30.3,22.7,30.1,14.3z"/>
<path class="st2" d="M21,11.9c-0.1-4.1-2.8-6.7-6.9-6.6c-4.2,0.1-7.1,3.4-7,7.9c0.1,3.9,2.7,6.2,6.8,6.1
	C18.3,19.3,21.1,16.4,21,11.9z"/>
<g id="Layer_1_00000069360621602892818540000010154862970505722283_">
</g>
</svg>
