<?xml version="1.0" encoding="utf-8"?>
<!-- Generator: Adobe Illustrator 25.0.0, SVG Export Plug-In . SVG Version: 6.00 Build 0)  -->
<svg version="1.1" xmlns="http://www.w3.org/2000/svg" xmlns:xlink="http://www.w3.org/1999/xlink" x="0px" y="0px"
	 viewBox="0 0 332.373 276.047" enable-background="new 0 0 332.373 276.047" xml:space="preserve">
<g id="mug_x5F_white">
	<g>
		<path fill="#FFFFFF" d="M31.779,273.462c4.369,3.732,202.529,3.149,207.817,0c5.288-3.149,35.429-265.419,30.93-269.917
			S6.006-1.404,0.608,3.545S27.41,269.73,31.779,273.462z"/>
		<path fill="#FFFFFF" d="M317.436,82.321c-34.868-33.246-87.575,12.163-87.575,12.163l-4.866,37.302
			c13.786-17.84,51.086-36.49,68.114-28.381c17.029,8.109,14.084,31.12-4.606,54.563c-24.705,30.984-78.914,29.769-78.914,29.769
			v31.778c0,0,51.126-3.251,83.501-27.104C318.556,173.646,352.304,115.568,317.436,82.321z"/>
		<path fill="#E7E9E9" d="M0.608,3.545c-1.1,1.008-0.639,12.655,0.829,30.59h268.018c1.463-18.005,1.989-29.672,1.07-30.59
			C266.027-0.954,6.006-1.404,0.608,3.545z"/>
		<path fill="#CAD2D3" d="M260.563,122.814c-10.978-2.92-22.871,1.53-34.102,11.933c-27.207,24.697-31.269,113.237-32.637,126.05
			c-2.896-51.841-11.138-142.761-61.168-139.55c-44.196,2.836-57.395,134.146-58.187,135.285c0,0-7.67-135.268-43.512-134.707
			c-7.471,0.117-13.964,2.698-19.617,7.058c6.273,53.437,13.607,108.865,17.715,132.627c45.832,0.389,118.625,0.917,213.226,1.55
			C246.623,239.404,254.257,179.271,260.563,122.814z"/>
	</g>
</g>
<g id="Layer_1">
</g>
</svg>
