<?xml version="1.0" encoding="utf-8"?>
<!-- Generator: Adobe Illustrator 26.5.0, SVG Export Plug-In . SVG Version: 6.00 Build 0)  -->
<svg version="1.1" xmlns="http://www.w3.org/2000/svg" xmlns:xlink="http://www.w3.org/1999/xlink" x="0px" y="0px"
	 viewBox="0 0 227.273 204.296" enable-background="new 0 0 227.273 204.296" xml:space="preserve">
<g id="mug_x5F_basic_x5F_white">
	<path fill="#FFFFFF" d="M218.405,67.977c-20.702-19.274-51.995,7.051-51.995,7.051l-2.889,21.625
		c8.185-10.342,30.331-21.154,40.441-16.453c10.11,4.701,8.362,18.041-2.735,31.632c-14.668,17.962-46.853,17.258-46.853,17.258
		v18.423c0,0,30.355-1.885,49.576-15.713C219.07,120.921,239.107,87.251,218.405,67.977z"/>
	<path fill="#FFFFFF" d="M0.133,2.231c2.152-2.17,187.352-3.685,190.69,0c3.338,3.685-19.6,197.816-26.119,201.014
		c-6.52,3.198-134.719,4.121-138.451,0S-2.019,4.401,0.133,2.231z"/>
</g>
<g id="Layer_1">
</g>
</svg>
