<?xml version="1.0" encoding="utf-8"?>
<!-- Generator: Adobe Illustrator 26.5.0, SVG Export Plug-In . SVG Version: 6.00 Build 0)  -->
<svg version="1.1" xmlns="http://www.w3.org/2000/svg" xmlns:xlink="http://www.w3.org/1999/xlink" x="0px" y="0px"
	 viewBox="0 0 251.494 150.882" enable-background="new 0 0 251.494 150.882" xml:space="preserve">
<g id="mug_x5F_low_x5F_round_x5F_white">
	<path fill="#FFFFFF" d="M13.792,138.63c20.351,16.166,151.347,16.504,172.342,0c14.288-11.232,15.358-130.086,12.607-135.425
		c-2.751-5.339-190.862-3.463-196.396,0S1.252,128.669,13.792,138.63z"/>
	<path fill="#FFFFFF" d="M242.706,30.099c-22.639-21.143-56.861,7.735-56.861,7.735l-3.159,23.722
		c8.951-11.345,33.169-23.206,44.225-18.049c11.057,5.157,9.145,19.791-2.991,34.7c-16.041,19.704-51.238,18.932-51.238,18.932
		v20.209c0,0,33.195-2.067,54.216-17.237C243.433,88.178,265.345,51.243,242.706,30.099z"/>
</g>
<g id="Layer_1">
</g>
</svg>
