<?xml version="1.0" encoding="utf-8"?>
<!-- Generator: Adobe Illustrator 26.5.0, SVG Export Plug-In . SVG Version: 6.00 Build 0)  -->
<svg version="1.1" xmlns="http://www.w3.org/2000/svg" xmlns:xlink="http://www.w3.org/1999/xlink" x="0px" y="0px"
	 viewBox="0 0 237.292 243.86" enable-background="new 0 0 237.292 243.86" xml:space="preserve">
<g id="mug_x5F_tall_x5F_white">
	<path fill="#FFFFFF" d="M10.581,109.931c27.662,137.16,114.044,132.814,148.614,67.635c25.2-47.513,40.631-169.167,35.962-174.66
		C190.488-2.587,5.6,1.058,1.412,2.906S2.963,72.156,10.581,109.931z"/>
	<path fill="#FFFFFF" d="M149.536,226.751c-16.217-19.025-66.858-18.423-87.125-9.382c-14.773,6.59-25.481,20.285-21.083,24.227
		c4.399,3.942,110.093,1.931,113.583,0C158.402,239.666,154.002,231.991,149.536,226.751z"/>
	<path fill="#FFFFFF" d="M227.04,56.496c-23.93-22.447-60.104,8.212-60.104,8.212l-3.34,25.186
		c9.461-12.045,35.061-24.638,46.747-19.163c11.687,5.475,9.666,21.012-3.161,36.84c-16.955,20.92-54.16,20.1-54.16,20.1v21.456
		c0,0,35.088-2.195,57.308-18.3C227.809,118.158,250.97,78.944,227.04,56.496z"/>
</g>
<g id="Layer_1">
</g>
</svg>
