<?xml version="1.0" encoding="utf-8"?>
<!-- Generator: Adobe Illustrator 25.0.0, SVG Export Plug-In . SVG Version: 6.00 Build 0)  -->
<svg version="1.1" xmlns="http://www.w3.org/2000/svg" xmlns:xlink="http://www.w3.org/1999/xlink" x="0px" y="0px"
	 viewBox="0 0 262.695 260.861" enable-background="new 0 0 262.695 260.861" xml:space="preserve">
<g id="orange">
	<g id="orange_1_">
		<g>
			<path id="XMLID_12_" fill="#FAA219" d="M21.364,55.115c30.816-44.42,103.356-70.626,156.174-45.083
				c31.718,15.339,63.188,46.986,75.847,77.906L96.908,253.992C36.471,248.901-37.067,139.344,21.364,55.115z"/>
			<g>
				<path fill="#BD6F2B" d="M71.987,66.432c-7.064,3.821-16.202,3.456-22.938-0.915c2.942,7.583,0.391,16.943-5.991,21.986
					c7.25-0.142,16.281,0.242,18.825,8.779c3.548-5.852,9.655-10.087,16.379-11.362C72.78,80.725,70.191,73.096,71.987,66.432z"/>
			</g>
			<path fill="#F77F15" d="M51.991,233.121c51.431,45.55,137.508,33.38,184.387-24.602c42.629-52.724,31.713-127.621-20.041-171.478
				c-1.353,35.397-9.25,85.818-40.683,124.269C141.641,202.917,87.598,223.333,51.991,233.121z"/>
		</g>
	</g>
</g>
<g id="Layer_1">
</g>
</svg>
