<?xml version="1.0" encoding="utf-8"?>
<!-- Generator: Adobe Illustrator 25.0.0, SVG Export Plug-In . SVG Version: 6.00 Build 0)  -->
<svg version="1.1" xmlns="http://www.w3.org/2000/svg" xmlns:xlink="http://www.w3.org/1999/xlink" x="0px" y="0px"
	 viewBox="0 0 357.178 87.215" enable-background="new 0 0 357.178 87.215" xml:space="preserve">
<g id="pan_x5F_grey">
	<g>
		<path fill="#B2B2B2" d="M203.984,32.332c2.901-0.22,135.201-18.074,144.899-15.621s11.764,27.391,1.504,33.91
			s-149.255,6.023-149.255,6.023L203.984,32.332z"/>
		<path fill="#CAD2D3" d="M211.211,19.686C210.967,13.72,3.446,18.378,0.603,21.349C-2.24,24.32,5.898,70.831,5.898,70.831
			l0.357-0.002c-0.03,0.234-0.026,0.365-0.026,0.365s5.273,15.781,100.13,16.02c63.052,0.159,100.717-12.755,99.781-17.801
			C206.754,65.143,211.659,30.632,211.211,19.686z"/>
		<path fill="#7C7E7E" d="M106.714,0C5.203-0.006,0.184,22.398,0.184,22.398s5.732,15.973,109.004,14
			c71.586-1.367,103.46-13.152,101.195-17.41C202.412,4.007,134.317,0.002,106.714,0z"/>
		<path fill="#4A4A49" d="M182.45,29.806c-23.692-4.114-53.582-5.484-69.691-5.485c-42.544-0.003-68.133,3.932-83.513,8.503
			c16.133,2.525,41.158,4.315,79.943,3.574C141.573,35.779,165.804,33.027,182.45,29.806z"/>
	</g>
</g>
<g id="Layer_1">
</g>
</svg>
