<?xml version="1.0" encoding="utf-8"?>
<!-- Generator: Adobe Illustrator 24.2.3, SVG Export Plug-In . SVG Version: 6.00 Build 0)  -->
<svg version="1.1" xmlns="http://www.w3.org/2000/svg" xmlns:xlink="http://www.w3.org/1999/xlink" x="0px" y="0px"
	 viewBox="0 0 155.962 276.532" enable-background="new 0 0 155.962 276.532" xml:space="preserve">
<g id="pear">
	<g id="pear_x5F_green_1_">
		<g>
			<polygon fill="#935803" points="74.096,0.04 87.181,0 85.261,63.282 73.331,62.267 			"/>
			<path fill="#23813F" d="M23.202,8.631c0,0-7.328,29.796,11.695,50.554c14.668,16.006,43.191,9.091,43.191,9.091
				s9.309-26.459-10.652-44.39C47.057,5.579,23.202,8.631,23.202,8.631z"/>
			<path fill="#5AA043" d="M67.436,23.885C49.134,7.445,28.041,8.231,23.929,8.562l54.159,59.714
				C78.088,68.276,87.397,41.816,67.436,23.885z"/>
			<path fill="#69B802" d="M114.663,76.195c-10.139-15.023-33.142-27.509-59.024-12.912L18.397,227.388l78.98,48.091
				c15.626-2.376,29.856-8.724,39.589-18.79c27.71-28.657,22.353-66.271,1.562-98.863
				C119.502,127.998,126.547,93.802,114.663,76.195z"/>
			<g>
				<path fill="#5AA043" d="M49.186,232.183C23.22,186.958,56.718,153.24,64.167,130.9c9.275-27.819-8.527-67.618-8.527-67.618
					C29.758,77.88,42.334,108.71,27.784,133.578c-11.635,19.884-39.473,43.156-22.368,93.053
					c17.524,51.121,85.842,61.463,121.994,37.878C97.98,269.586,65.665,260.886,49.186,232.183z"/>
			</g>
			
				<ellipse transform="matrix(0.9902 -0.1399 0.1399 0.9902 -27.5111 18.7359)" opacity="0.25" fill="#FFFFFF" enable-background="new    " cx="119.514" cy="205.056" rx="21.906" ry="26.214"/>
		</g>
	</g>
</g>
<g id="Layer_1">
</g>
</svg>
