<?xml version="1.0" encoding="utf-8"?>
<!-- Generator: Adobe Illustrator 24.2.3, SVG Export Plug-In . SVG Version: 6.00 Build 0)  -->
<svg version="1.1" xmlns="http://www.w3.org/2000/svg" xmlns:xlink="http://www.w3.org/1999/xlink" x="0px" y="0px"
	 viewBox="0 0 229.833 243.492" enable-background="new 0 0 229.833 243.492" xml:space="preserve">
<g id="peas">
	<g>
		<g id="vihrea_x5F_2_1_">
			<path id="XMLID_194_" fill="#69B802" d="M229.793,220.747c-0.437-5.58-4.427-10.149-8.236-14.252
				C170.074,151.04,114.422,98.999,69.015,38.562c-6.494-4.152-22.655,18.006-27.644,27.023
				c-10.385,18.772-8.781,42.397-0.503,62.188c8.279,19.792,22.493,36.452,37.072,52.192c17.467,18.859,36.121,37.176,58.681,49.497
				c22.56,12.321,49.706,18.142,74.336,10.789C220.344,237.448,230.557,230.514,229.793,220.747z"/>
			<path id="XMLID_193_" fill="#A3D02A" d="M67.365,104.293c24.499-29.393,67.951,20.364,25.818,38.761
				c-14.847,4.492-33.034-7.19-33.22-22.783C60.425,114.517,63.811,108.88,67.365,104.293
				C68.597,102.791,65.81,106.3,67.365,104.293z"/>
			<path id="XMLID_192_" fill="#A3D02A" d="M105.131,181.694c-24.671-28.758,32.344-64.158,42.952-19.698
				c1.772,15.373-13.01,31.614-28.481,29.444C113.995,190.113,109.029,185.908,105.131,181.694
				C103.868,180.246,106.837,183.538,105.131,181.694z"/>
			<path id="XMLID_191_" fill="#A3D02A" d="M187.116,191.258c18.372,32.784-37.48,50.418-40.585,12.649
				C144.641,180.817,181.554,174.311,187.116,191.258z"/>
			<path fill="#23813F" d="M21.387,83.148c7.203-8.604,11.537-19.002,14.98-29.553c-1.097-7.074-0.402-14.397,0.021-21.574
				c-1.131-15.201-21.539-17.442-33.471-19.62c-4.222,0.422-2.624-3.334-2.603-6.157c0.55-1.847-0.237-5.548,1.763-6.243
				c20.053-0.15,39.238,9.374,50.947,25.464c27.006,17.645,26.591,24.275,62.279,24.027c-9.649,12.959-28.117,15.572-42.432,9.372
				c3.834,9.509,7.782,20.864,4.567,30.971c-8.746-0.77-20.697-16.779-25.926-24.221C44.281,72.414,33.277,83.307,21.387,83.148z"/>
		</g>
		<g id="Layer_1_33_">
		</g>
	</g>
</g>
<g id="Layer_1">
</g>
</svg>
