<?xml version="1.0" encoding="utf-8"?>
<!-- Generator: Adobe Illustrator 25.0.0, SVG Export Plug-In . SVG Version: 6.00 Build 0)  -->
<svg version="1.1" xmlns="http://www.w3.org/2000/svg" xmlns:xlink="http://www.w3.org/1999/xlink" x="0px" y="0px"
	 viewBox="0 0 222.797 292.48" enable-background="new 0 0 222.797 292.48" xml:space="preserve">
<g id="pinapple_x5F_core">
	<g>
		<g>
			<path fill="#00A038" d="M158.786,0c0,0-40.711,45.626-59.23,129.077c-14.28,64.347,6.112,111.193,6.112,111.193
				s37.295-34.515,51.852-114.158C172.382,44.803,158.786,0,158.786,0z"/>
			<path fill="#0EB800" d="M157.52,126.112c13.348-73.023,3.748-116.574,1.651-124.7L105.668,240.27
				C105.668,240.271,142.962,205.756,157.52,126.112z"/>
		</g>
		<g>
			<path fill="#00A038" d="M222.797,65.623c0,0-47.239,16.997-90.403,72.45c-33.282,42.758-33.718,87.297-33.718,87.297
				s40.757-10.028,79.542-64.309C217.816,105.646,222.797,65.623,222.797,65.623z"/>
			<path fill="#0EB800" d="M178.219,161.063c35.561-49.767,43.199-87.099,44.386-94.196L98.677,225.371
				C98.677,225.371,139.434,215.344,178.219,161.063z"/>
		</g>
		<g>
			<path fill="#00A038" d="M217.006,162.953c0,0-35.277-10.853-73.946,10.52c-29.816,16.48-37.295,51.164-37.295,51.164
				s29.689,12.998,65.153-9.697C207.125,191.771,217.006,162.953,217.006,162.953z"/>
			<path fill="#0EB800" d="M170.919,214.941c32.515-20.807,43.794-46.158,45.756-51.111l-110.908,60.808
				C105.766,224.638,135.455,237.636,170.919,214.941z"/>
		</g>
		<g>
			<path fill="#00A038" d="M57.665,39.554c0,0,36.491,34.479,53.859,102.571c13.391,52.504-4.032,93.496-4.032,93.496
				s-33.34-25.498-47.164-90.764C46.215,78.227,57.665,39.554,57.665,39.554z"/>
			<path fill="#0EB800" d="M60.33,144.858c-12.675-59.839-4.736-97.109-2.985-104.088l50.148,194.852
				C107.492,235.622,74.154,210.123,60.33,144.858z"/>
		</g>
		<g>
			<path fill="#00A038" d="M24.025,131.07c0,0,36.673,4.17,63.557,39.23c20.731,27.034,13.705,61.813,13.705,61.813
				s-32.41,0.032-55.83-34.956C21.55,161.434,24.025,131.07,24.025,131.07z"/>
			<path fill="#0EB800" d="M45.46,197.155c-21.473-32.08-21.664-59.824-21.481-65.15l77.309,100.108
				C101.289,232.112,68.879,232.145,45.46,197.155z"/>
		</g>
		<path fill="#F9D214" d="M27.794,258.009l39.765-19.445l75.526,16.548l27.719,37.367l33.729-17.938
			c2.054-5.102,1.87-11.056-1.041-16.244c-2.919-5.225-7.965-8.512-13.458-9.403c0.839-5.502-0.779-11.354-4.885-15.727
			c-4.12-4.395-9.828-6.356-15.386-5.869c-0.532-5.532-3.484-10.782-8.518-14.032c-4.952-3.212-10.876-3.791-16.084-2.094
			c-1.726-5.158-5.665-9.535-11.148-11.614c-5.408-2.082-11.172-1.491-15.876,1.117c-2.628-4.688-7.237-8.233-12.928-9.311
			c-5.799-1.082-11.461,0.592-15.638,4.116c-3.559-4.187-8.932-6.793-14.847-6.617c-6.005,0.156-11.276,3.122-14.609,7.592
			c-4.512-3.304-10.458-4.563-16.26-2.918c-5.84,1.655-10.237,5.866-12.334,11.088c-5.211-2.059-11.296-1.773-16.499,1.298
			c-5.163,3.06-8.338,8.185-9.071,13.711c-1.977-0.255-3.985-0.183-5.948,0.19l0.003,0.001L27.794,258.009z"/>
		<path fill="#FFE400" d="M67.558,238.564l26.967,35.718l48.559-19.169l27.719,37.367l12.089-6.429
			c-7.424-33.645-27.14-63.344-65.534-77.021c-41.324-14.722-77.379-1.991-104.022,29.116l14.458,19.864L67.558,238.564z"/>
		<polygon fill="#F9D214" points="67.558,238.564 94.525,274.282 99.844,270.949 73.71,235.55 113.921,215.799 170.803,292.48 
			177.1,289.131 149.936,253.914 172.841,242.616 168.273,237.923 146.158,248.819 119.63,212.988 135.07,205.671 128.545,201.935 
			115.865,207.89 106.576,196.554 99.325,197.275 110.157,210.704 69.96,230.454 43.098,193.803 37.495,196.76 64.241,233.255 
			24.077,252.902 27.794,258.009 		"/>
	</g>
</g>
<g id="Layer_1">
</g>
</svg>
