<?xml version="1.0" encoding="utf-8"?>
<!-- Generator: Adobe Illustrator 25.0.0, SVG Export Plug-In . SVG Version: 6.00 Build 0)  -->
<svg version="1.1" xmlns="http://www.w3.org/2000/svg" xmlns:xlink="http://www.w3.org/1999/xlink" x="0px" y="0px"
	 viewBox="0 0 521.986 513.361" enable-background="new 0 0 521.986 513.361" xml:space="preserve">
<g id="pizza_x5F_rucola">
	<g>
		<path fill="#E8CAAE" d="M484.092,98.135C414.209-12.787,266.698-20.51,145.096,29.536C54.11,66.982-48.563,208.236,25.249,375.838
			c74.443,169.034,306.912,163.679,399.943,83.352C542.479,357.922,541.49,189.241,484.092,98.135z"/>
		<path fill="#FF4035" d="M66.917,398.101c61.848,100.435,192.397,107.428,300.017,62.114
			c80.524-33.906,171.392-161.806,106.067-313.562C407.117-6.4,201.379-1.551,119.044,71.181
			C15.244,162.876,16.118,315.609,66.917,398.101z"/>
		<path fill="#FFE400" d="M461.289,270.43c12.104-40.55,43.313-54.45,30.403-105.327c-15.17-59.785-80.421-99.427-149.782-82.858
			c-38.437,9.18-69.034-46.834-134.621-34.451C91.145,69.721,150.844,160.666,64.214,239.357
			c-54.078,49.118-50.601,137.582,41.468,171.624c107.535,39.762,73.853,132.334,206.975,53.927
			c55.89-32.918,82.628-9.452,120.56-44.31C498.212,360.867,447.232,317.521,461.289,270.43z"/>
		<path fill="#4A4A49" d="M335.595,67.111c-6.682-8.879-22.356-10.484-37.321-6.92c-13.334,3.176-18.561,18.222-12.106,30.473
			c6.937,13.166,33.24,11.052,43.212,4.711C341.393,87.735,341.42,74.852,335.595,67.111z"/>
		<path fill="#4A4A49" d="M456.902,221.158c-10.013-4.82-24.674,0.952-36.331,10.989c-10.388,8.944-8.122,24.71,3.238,32.629
			c12.208,8.51,34.604-5.445,40.551-15.657C471.524,236.817,465.632,225.36,456.902,221.158z"/>
		<path fill="#4A4A49" d="M91.575,277.645c-10.013-4.82-24.674,0.952-36.331,10.989c-10.388,8.944-8.122,24.71,3.238,32.629
			c12.208,8.51,34.604-5.445,40.551-15.657C106.196,293.304,100.304,281.847,91.575,277.645z"/>
		<path fill="#4A4A49" d="M288.177,187.062c-0.971-11.07-13.422-20.726-28.006-25.621c-12.995-4.362-25.392,5.64-26.398,19.451
			c-1.081,14.842,22.357,26.967,34.174,26.864C282.184,207.63,289.024,196.712,288.177,187.062z"/>
		<path fill="#4A4A49" d="M408.491,405.91c-0.971-11.07-13.422-20.726-28.006-25.621c-12.995-4.362-25.392,5.64-26.398,19.451
			c-1.081,14.842,22.357,26.967,34.174,26.864C402.497,426.479,409.337,415.561,408.491,405.91z"/>
		<g>
			
				<ellipse transform="matrix(0.1803 -0.9836 0.9836 0.1803 -267.6544 471.2079)" fill="#C30D26" cx="148.9" cy="396.198" rx="46.582" ry="64.463"/>
			
				<ellipse transform="matrix(0.2815 -0.9596 0.9596 0.2815 -268.9433 426.2117)" fill="#FF4035" cx="150.138" cy="392.697" rx="33.681" ry="46.557"/>
			<path fill="#C30D26" d="M146.367,384.27c0,0-9.299-14.58-1.647-13.753c7.652,0.827,26.926,2.343,18.582,9.172
				c-8.344,6.829-7.73,6.989-7.73,6.989s25.087-4.407,24.817,4.142c-0.27,8.55,2.606,16.356-3.934,15.036
				c-6.54-1.319-21.731-12.173-21.731-12.173s7.847,10.107,4.95,13.659c-2.897,3.552-36.976-6.54-32.257-10.791
				c4.719-4.251,14.27-5.67,14.27-5.67s-20.357,0.117-21.33-6.19c-0.973-6.307,2.919-16.648,8.788-12.762
				S146.367,384.27,146.367,384.27z"/>
		</g>
		<g>
			
				<ellipse transform="matrix(0.5727 -0.8197 0.8197 0.5727 -79.1045 182.9963)" fill="#C30D26" cx="135.992" cy="167.381" rx="46.582" ry="64.463"/>
			
				<ellipse transform="matrix(0.6548 -0.7558 0.7558 0.6548 -76.6539 161.6009)" fill="#FF4035" cx="138.573" cy="164.711" rx="33.681" ry="46.557"/>
			<path fill="#C30D26" d="M138.644,155.479c0,0-2.4-17.126,4.217-13.194c6.617,3.932,23.518,13.319,13.091,16.064
				s-9.935,3.145-9.935,3.145s24.65,6.415,20.852,14.079c-3.798,7.664-4.426,15.96-9.826,12.042
				c-5.401-3.917-14.709-20.102-14.709-20.102s2.938,12.454-1.173,14.481s-30.915-21.313-24.857-23.219
				c6.058-1.906,15.336,0.772,15.336,0.772s-18.565-8.352-16.829-14.494c1.736-6.141,9.573-13.93,13.296-7.956
				C131.83,143.071,138.644,155.479,138.644,155.479z"/>
		</g>
		<g>
			
				<ellipse transform="matrix(0.9166 -0.3998 0.3998 0.9166 -35.442 172.989)" fill="#C30D26" cx="396.929" cy="171.448" rx="64.463" ry="46.582"/>
			
				<ellipse transform="matrix(0.9532 -0.3024 0.3024 0.9532 -32.2199 127.626)" fill="#FF4035" cx="396" cy="167.853" rx="46.557" ry="33.681"/>
			<path fill="#C30D26" d="M388.165,162.969c0,0-15.857-6.9-9.048-10.488c6.809-3.588,23.644-13.096,20.536-2.771
				c-3.107,10.325-2.508,10.115-2.508,10.115s18.347-17.668,22.899-10.425c4.551,7.243,11.297,12.111,5.135,14.669
				c-6.162,2.559-24.825,2.041-24.825,2.041s12.154,4.001,11.735,8.565c-0.419,4.564-34.324,15.227-32.784,9.066
				c1.54-6.161,8.67-12.674,8.67-12.674s-16.821,11.467-21.15,6.779s-6.877-15.44,0.161-15.494
				C374.025,162.297,388.165,162.969,388.165,162.969z"/>
		</g>
		<g>
			
				<ellipse transform="matrix(0.9656 -0.26 0.26 0.9656 -63.587 74.0251)" fill="#C30D26" cx="247.973" cy="277.33" rx="64.463" ry="46.582"/>
			
				<ellipse transform="matrix(0.9874 -0.1584 0.1584 0.9874 -40.2072 42.6584)" fill="#FF4035" cx="247.586" cy="273.637" rx="46.557" ry="33.681"/>
			<path fill="#C30D26" d="M240.558,267.65c0,0-14.664-9.166-7.4-11.709c7.264-2.543,25.318-9.461,20.721,0.292
				c-4.598,9.753-3.974,9.634-3.974,9.634s20.755-14.764,24.187-6.929c3.432,7.835,9.384,13.647,2.912,15.267
				c-6.472,1.621-24.854-1.648-24.854-1.648s11.43,5.752,10.342,10.204c-1.088,4.452-36.196,9.991-33.763,4.125
				c2.433-5.867,10.447-11.254,10.447-11.254s-18.33,8.857-21.92,3.581c-3.59-5.276-4.522-16.286,2.448-15.3
				C226.672,264.897,240.558,267.65,240.558,267.65z"/>
		</g>
		<path fill="#A45700" d="M438.992,333.682c-1.679-7.187-8.496-11.53-15.227-9.701c-1.534,0.417-2.928,1.121-4.151,2.04
			c-0.051-0.288-0.108-0.576-0.175-0.864c-1.884-8.065-9.534-12.939-17.087-10.886c-6.033,1.64-10.175,7.204-10.64,13.487
			c-2.588-0.696-5.374-0.735-8.148,0.02c-8.918,2.424-14.344,12.108-12.12,21.631c2.136,9.145,10.552,14.811,19.115,13.098
			c0.055,0.432,0.131,0.864,0.232,1.297c1.498,6.413,7.581,10.288,13.587,8.656c4.384-1.192,7.512-4.99,8.301-9.448
			c2.339,2.05,5.53,2.925,8.697,2.064c5.302-1.441,8.529-7.2,7.207-12.862c-0.152-0.65-0.359-1.268-0.611-1.855
			c0.622-0.066,1.248-0.182,1.872-0.352C436.575,348.178,440.67,340.869,438.992,333.682z"/>
		<path fill="#A45700" d="M123.791,252.574c3.377-6.562,0.998-14.287-5.314-17.254c-1.438-0.676-2.957-1.043-4.484-1.135
			c0.148-0.252,0.291-0.509,0.427-0.772c3.79-7.364,1.12-16.033-5.964-19.363c-5.658-2.659-12.418-1.105-16.843,3.38
			c-1.52-2.207-3.617-4.041-6.219-5.264c-8.364-3.931-18.771-0.07-23.246,8.625c-4.298,8.351-1.557,18.118,6.075,22.361
			c-0.238,0.364-0.461,0.743-0.664,1.138c-3.014,5.856-0.89,12.749,4.742,15.397c4.112,1.932,8.955,1.066,12.445-1.819
			c0.453,3.077,2.317,5.811,5.288,7.207c4.973,2.337,11.162,0.041,13.822-5.129c0.305-0.593,0.548-1.199,0.736-1.809
			c0.517,0.352,1.068,0.669,1.654,0.945C112.559,262.051,120.414,259.136,123.791,252.574z"/>
		<path fill="#A45700" d="M267.521,89.872c-2.366-10.127-11.972-16.247-21.456-13.669c-2.161,0.587-4.126,1.579-5.849,2.875
			c-0.072-0.406-0.152-0.812-0.246-1.218c-2.655-11.365-13.435-18.233-24.078-15.34c-8.501,2.311-14.339,10.151-14.993,19.005
			c-3.647-0.981-7.572-1.035-11.481,0.028c-12.567,3.416-20.213,17.062-17.079,30.481c3.01,12.887,14.869,20.87,26.936,18.457
			c0.077,0.608,0.184,1.218,0.327,1.828c2.111,9.037,10.683,14.498,19.146,12.198c6.178-1.679,10.586-7.031,11.697-13.314
			c3.296,2.889,7.792,4.122,12.255,2.909c7.472-2.031,12.019-10.145,10.155-18.124c-0.214-0.915-0.506-1.787-0.861-2.613
			c0.876-0.093,1.758-0.257,2.638-0.496C264.115,110.299,269.886,100,267.521,89.872z"/>
		<path fill="#A45700" d="M218.361,387.466c-5.235,8.986-2.456,20.032,6.208,24.672c1.974,1.057,4.084,1.686,6.226,1.927
			c-0.227,0.344-0.448,0.695-0.657,1.054c-5.875,10.084-2.756,22.479,6.967,27.686c7.766,4.159,17.394,2.469,23.95-3.517
			c1.977,3.218,4.793,5.953,8.365,7.865c11.48,6.148,26.41,1.48,33.347-10.426c6.663-11.435,3.525-25.382-6.903-31.915
			c0.362-0.495,0.703-1.012,1.018-1.553c4.672-8.018,2.192-17.875-5.54-22.015c-5.644-3.022-12.523-2.159-17.646,1.644
			c-0.411-4.363-2.833-8.348-6.91-10.531c-6.826-3.655-15.704-0.88-19.829,6.2c-0.473,0.812-0.86,1.646-1.169,2.491
			c-0.701-0.534-1.454-1.021-2.258-1.451C234.865,374.957,223.597,378.48,218.361,387.466z"/>
		<g id="recipe_x5F_rucola_5_">
			<path fill="#69B802" d="M348.304,169.899c-0.382-3.595,6.826-8.619,10.218-11.969c10.042-9.087,22.57-23.958,21.511-27.308
				c-2.153-7.167-20.454,12.585-22.526,8.548c-1.857-3.305,4.048-7.844,7.037-11.179c8.521-8.571,18.284-27.006,16.563-30.138
				c-3.487-6.672-19.81,12.519-21.476,11.154c-1.366-0.723,2.267-9.039,4.169-15.28c4.285-12.936,5.428-27.252,3.356-29.713
				c-4.733-5.747-10.071,13.768-10.397,13.468c1.538-0.236-10.354-39.717-20.778-35.604c-7.438,3.249,5.618,38.856,4.172,39.326
				c0.021-0.094-7.342-4.814-12.763-2.407c-5.191,1.908,8.809,15.434,10.115,17.981c1.452,1.697,6.622,10.483,5.111,12.636
				c-1.35,1.842-13.563-7.553-19.383-6.15c-5.535,0.75,8.765,14.273,9.698,16.983c1.226,1.764,9.365,14.273,7.165,15.685
				c-1.973,1.091-11.596-7.403-16.729-7.231c-5.464-0.367,5.355,19.37,7.416,25.087c1.987,3.894,3.418,8.118,1.16,9.949
				c-2.131,1.637-9.451-10.799-15.545-9.441c-8.481,0.945,6.995,29.476,4.739,36.038c-0.517,6.114-18.969,27.408-15.699,30.372
				c3.57,2.983,27.244-23.057,29.76-25.75c3.721-0.958,31.244-18.267,30.645-22.162C365.201,166.831,350.59,172.188,348.304,169.899
				z"/>
			<path fill="#A3D02A" d="M369.616,138.456c-0.21-1.198-18.216,15.616-24.389,19.107c2.182-6.682,3.908-13.464,5.175-20.291
				c9.124-8.353,17.599-18.263,24.984-29.646c-0.283-0.922-19.844,23.191-24.327,25.832c0.422-2.596,2.259-14.644,1.758-28.391
				c4.55-8.679,8.37-18.146,11.244-28.306c-0.649-1.078-7.871,18.945-11.409,24.582c-0.734-21.099-8.817-43.265-9.491-42.912
				c-0.37,0.16,7.255,22.679,7.669,43.669c-3.028-5.241-17.119-20.364-18.083-18.752c6.624,6.583,12.758,14.116,18.2,22.514
				c0.264,11.736-1.064,22.118-1.683,26.147c-3.389-6.775-16.761-23.053-17.935-21.704c6.474,7.502,12.323,16.014,17.328,25.421
				c-1.326,7.405-3.196,14.756-5.61,21.987c-1.774-5.533-13.636-24.906-15.141-23.665c5.42,8.258,10.109,17.401,13.877,27.302
				c-2.861,7.92-6.38,15.681-10.555,23.188c-1.635-5.866-8.89-21.336-10.222-20.903c3.53,7.27,6.541,15.003,8.956,23.136
				c-11.482,19.88-10.116,21.522,1.467,1.59c8.245-2.958,16.471-6.711,24.545-11.277c-0.208-0.889-18.846,7.928-23.239,8.988
				c4.491-8.028,8.24-16.344,11.242-24.835C352.985,154.877,361.628,147.273,369.616,138.456z"/>
		</g>
		<g id="recipe_x5F_rucola_4_">
			<path fill="#69B802" d="M155.393,328.795c1.057-3.457,9.657-5.257,14.09-7.01c12.8-4.427,30.151-13.202,30.49-16.699
				c0.827-7.438-23.75,3.567-24.074-0.96c-0.414-3.768,6.797-5.631,10.854-7.529c11.197-4.548,27.402-17.686,27.045-21.241
				c-0.595-7.505-23.131,3.758-24.129,1.85c-0.974-1.2,5.627-7.429,9.822-12.425c9.01-10.224,15.669-22.947,14.728-26.024
				c-2.103-7.142-14.659,8.723-14.842,8.319c1.508,0.386,6.032-40.599-5.17-40.898c-8.116,0.076-10.052,37.951-11.567,37.817
				c0.056-0.078-4.87-7.306-10.8-7.214c-5.523-0.278,2.059,17.651,2.262,20.506c0.671,2.13,1.986,12.239-0.247,13.629
				c-1.964,1.166-9.52-12.263-15.425-13.251c-5.387-1.478,2.474,16.566,2.27,19.425c0.437,2.103,3.025,16.801,0.448,17.239
				c-2.242,0.231-7.769-11.354-12.56-13.206c-4.883-2.478-2.661,19.92-3.004,25.988c0.303,4.361-0.035,8.808-2.83,9.608
				c-2.602,0.672-4.466-13.638-10.604-14.776c-8.173-2.453-5.111,29.86-9.757,35.014c-2.871,5.423-28.19,17.787-26.342,21.795
				c2.117,4.143,34.099-10.542,37.469-12.034c3.799,0.576,35.902-4.568,36.878-8.387
				C172.14,332.592,156.599,331.796,155.393,328.795z"/>
			<path fill="#A3D02A" d="M187.318,308.214c0.276-1.185-22.877,7.232-29.925,8.026c4.626-5.293,8.87-10.857,12.71-16.642
				c11.667-4.111,23.346-9.909,34.601-17.49c0.1-0.959-27.342,13.564-32.502,14.237c1.406-2.223,7.815-12.588,12.74-25.433
				c7.586-6.203,14.81-13.417,21.434-21.639c-0.175-1.246-14.663,14.347-20.127,18.148c7.59-19.7,8.836-43.261,8.077-43.2
				c-0.403,0.002-2.209,23.708-10.051,43.183c-0.733-6.008-7.774-25.443-9.292-24.337c3.516,8.652,6.208,17.986,7.926,27.844
				c-4.354,10.902-9.643,19.934-11.791,23.398c-0.464-7.561-6.391-27.776-8-26.995c3.018,9.438,5.065,19.561,5.985,30.177
				c-4.121,6.294-8.721,12.324-13.774,18.032c0.536-5.786-2.79-28.257-4.66-27.705c1.752,9.721,2.485,19.97,2.073,30.557
				c-5.735,6.167-12.013,11.928-18.795,17.2c0.793-6.037,0.178-23.114-1.216-23.237c0.4,8.072,0.141,16.367-0.822,24.795
				c-18.352,13.794-17.739,15.839,0.727,2.038c8.745,0.509,17.784,0.277,27.001-0.761c0.157-0.9-20.446-0.088-24.903-0.834
				c7.277-5.627,13.984-11.81,20.073-18.446C165.585,316.807,176.515,313.197,187.318,308.214z"/>
		</g>
		<g id="recipe_x5F_rucola_3_">
			<path fill="#69B802" d="M296.18,347.765c-2.947,3.371,12.899,36.735,15.884,39.921c0.773,4.115,7.609,43.507,12.85,42.822
				c4.941-0.85,0.22-32.509,3.45-38.688c1.835-7.666,34.056-25.597,26.499-31.669c-5.016-5.014-19.611,2.452-20.657-0.417
				c-1.05-3.132,2.896-6.31,7.173-8.834c5.459-4.227,27.858-16.561,22.395-19.538c-4.817-3.293-19.22-1.01-20.447-3.258
				c-1.249-2.695,14.176-9.732,16.426-10.676c2.546-2.031,24.496-6.285,19.646-10.377c-4.726-4.892-22.16-3.323-22.333-5.912
				c-0.137-2.985,10.174-8.26,12.6-9.003c2.804-1.647,24.469-6.089,20.653-11.08c-3.731-5.611-13.668-5.57-13.705-5.467
				c-1.101-1.332,33.111-27.521,27.958-35.168c-7.489-10.294-42.946,20.319-41.614,21.482c-0.496,0.089,6.275-21.876-1.765-19.248
				c-3.486,1.098-11.111,15.522-14.883,30.536c-1.978,7.143-3.561,17.331-5.311,17.192c-2.429,0.293-6.39-28.053-13.798-23.779
				c-3.559,1.954-5.428,25.58-2.479,38.989c0.834,5.019,3.731,12.969-0.063,15.007c-4.446,2.61-9.962-27.48-16.393-21.919
				c-3.056,2.567-0.103,24.459,3.991,39.291c1.212,5.279,5.062,14.488,2.506,17.702C311.178,356.477,300.431,342.44,296.18,347.765z
				"/>
			<path fill="#A3D02A" d="M324.19,350.003c-2.294,9.971-3.766,20.229-4.35,30.663c-3.567-3.692-16.068-23.502-16.809-22.776
				c4.961,9.297,10.561,17.907,16.666,25.766c-1.035,26.169,1.275,25.427,2.376-0.631c7.27-6.326,14.868-11.907,22.683-16.728
				c-1.013-1.227-17.395,9.188-22.536,13.817c0.57-9.743,1.923-19.328,4.005-28.666c9.645-7.199,19.712-13.11,29.94-17.726
				c-0.687-2.107-23.864,9.243-28.935,13.468c2.091-8.404,4.776-16.592,8.015-24.5c10.53-5.971,21.324-10.57,32.102-13.819
				c-0.304-2.009-23.043,5.453-30.42,9.885c1.861-4.24,6.912-15.005,14.316-26.098c10.334-4.737,20.805-8.224,31.167-10.501
				c0.058-2.133-22.667,3.785-28.764,6.965c13.184-19.876,34.215-36.824,33.957-37.203c-0.431-0.75-21.686,15.581-35.244,35.366
				c0.041-7.561,5.314-31.16,4.035-30.522c-3.434,11.494-5.538,22.899-6.463,33.993c-8.855,12.877-14.433,25.548-15.61,28.295
				c-2.69-5.264-6.756-40.301-7.59-39.59c0.147,15.415,2.236,30.081,5.896,43.649c-2.944,7.319-5.421,14.873-7.399,22.61
				c-3.793-7.109-10.815-34.201-11.746-33.18C315.772,325.861,319.427,338.418,324.19,350.003z"/>
		</g>
	</g>
</g>
<g id="Layer_1">
</g>
</svg>
