<?xml version="1.0" encoding="utf-8"?>
<!-- Generator: Adobe Illustrator 25.0.0, SVG Export Plug-In . SVG Version: 6.00 Build 0)  -->
<svg version="1.1" xmlns="http://www.w3.org/2000/svg" xmlns:xlink="http://www.w3.org/1999/xlink" x="0px" y="0px"
	 viewBox="0 0 521.986 513.361" enable-background="new 0 0 521.986 513.361" xml:space="preserve">
<g id="pizza_x5F_basil">
	<g>
		<path fill="#E8CAAE" d="M484.092,98.135C414.209-12.787,266.698-20.51,145.096,29.536C54.11,66.982-48.563,208.236,25.249,375.838
			c74.443,169.034,306.912,163.679,399.943,83.352C542.479,357.922,541.49,189.241,484.092,98.135z"/>
		<path fill="#FF4035" d="M66.917,398.101c61.848,100.435,192.397,107.428,300.017,62.114
			c80.524-33.906,171.392-161.806,106.067-313.562C407.117-6.4,201.379-1.551,119.044,71.181
			C15.244,162.876,16.118,315.609,66.917,398.101z"/>
		<g>
			<g>
				<path fill="#FFD200" d="M469.715,218.832c-65.64-88.512,10.419-146.669-138.284-151.877
					C269,64.768,259.855,31.656,210.869,40.407c-83.936,14.998-65.763,76.989-101.974,108.176
					c-31.181,26.855-63.674,21.969-80.157,70.295c-19.369,56.786,12.263,123.181,76.909,145.751
					c35.824,12.509,30.879,74.245,90.272,98.274C301.096,505.453,301.048,400,412.438,380.765
					C481.97,368.762,525.916,294.614,469.715,218.832z"/>
			</g>
		</g>
		<path fill="#4A4A49" d="M323.95,63.905c-6.682-8.879-22.356-10.484-37.321-6.92c-13.334,3.176-18.561,18.222-12.106,30.473
			c6.937,13.166,33.24,11.052,43.212,4.711C329.749,84.53,329.775,71.646,323.95,63.905z"/>
		<path fill="#4A4A49" d="M456.902,221.158c-10.013-4.82-24.674,0.952-36.331,10.989c-10.388,8.944-8.122,24.71,3.238,32.629
			c12.208,8.51,34.604-5.445,40.551-15.657C471.524,236.817,465.632,225.36,456.902,221.158z"/>
		<path fill="#4A4A49" d="M96.341,234.418c-10.013-4.82-24.674,0.952-36.331,10.989c-10.388,8.944-8.122,24.71,3.238,32.629
			c12.208,8.51,34.604-5.445,40.551-15.657C110.963,250.078,105.071,238.62,96.341,234.418z"/>
		<path fill="#4A4A49" d="M291.548,232.299c-0.971-11.07-13.422-20.726-28.006-25.621c-12.995-4.362-25.392,5.64-26.398,19.451
			c-1.081,14.842,22.357,26.967,34.174,26.864C285.554,252.868,292.394,241.95,291.548,232.299z"/>
		<path fill="#4A4A49" d="M356.772,414.812c-0.971-11.07-13.422-20.726-28.006-25.621c-12.995-4.362-25.392,5.64-26.397,19.451
			c-1.081,14.842,22.357,26.967,34.174,26.864C350.778,435.381,357.618,424.463,356.772,414.812z"/>
		<g>
			<path fill="#0EB800" d="M337.195,263.743c0,0-12.42,50.506,19.824,85.692c24.863,27.13,73.21,15.409,73.21,15.409
				s15.78-44.849-18.055-75.244C377.631,258.571,337.195,263.743,337.195,263.743z"/>
			<path fill="#8CD000" d="M412.174,289.601c-31.022-27.867-66.776-26.536-73.748-25.975l91.803,101.219
				C430.23,364.845,446.009,319.995,412.174,289.601z"/>
		</g>
		<g>
			<path fill="#0EB800" d="M299.751,366.787c0,0-48.982-17.491-87.264,11.008c-29.518,21.975-22.773,71.264-22.773,71.264
				s43.013,20.258,76.69-10.311C300.786,407.539,299.751,366.787,299.751,366.787z"/>
			<path fill="#8CD000" d="M266.404,438.748c30.877-28.028,33.188-63.732,33.339-70.725l-110.029,81.036
				C189.714,449.06,232.727,469.317,266.404,438.748z"/>
		</g>
		<g>
			<path fill="#0EB800" d="M52.828,336.828c0,0,28.094,32.799,67.434,28.039c30.334-3.671,45.791-41.977,45.791-41.977
				s-22.651-32.332-59.525-24.182C68.882,307.03,52.828,336.828,52.828,336.828z"/>
			<path fill="#8CD000" d="M106.528,298.709c-33.809,7.473-50.193,32.254-53.184,37.232l112.71-13.05
				C166.054,322.891,143.403,290.559,106.528,298.709z"/>
		</g>
		<g>
			<path fill="#0EB800" d="M211.584,102.923c0,0,2.695,43.102,36.978,62.978c26.434,15.325,61.833-5.963,61.833-5.963
				s1.371-39.453-32.983-55.138C242.339,88.787,211.584,102.923,211.584,102.923z"/>
			<path fill="#8CD000" d="M277.411,104.8c-31.498-14.38-59.497-4.451-64.881-2.276l97.864,57.414
				C310.395,159.938,311.765,120.485,277.411,104.8z"/>
		</g>
		<g>
			
				<ellipse transform="matrix(0.1803 -0.9836 0.9836 0.1803 -258.4788 461.4987)" fill="#C30D26" cx="147.663" cy="385.838" rx="46.582" ry="64.463"/>
			
				<ellipse transform="matrix(0.2815 -0.9596 0.9596 0.2815 -259.8916 417.5805)" fill="#FF4035" cx="148.9" cy="382.337" rx="33.681" ry="46.557"/>
			<path fill="#C30D26" d="M145.129,373.91c0,0-9.299-14.58-1.647-13.753c7.652,0.827,26.926,2.343,18.582,9.172
				c-8.344,6.829-7.73,6.989-7.73,6.989s25.087-4.407,24.817,4.142c-0.27,8.55,2.606,16.356-3.934,15.036
				c-6.54-1.319-21.731-12.173-21.731-12.173s7.847,10.107,4.95,13.659c-2.897,3.552-36.976-6.54-32.257-10.791
				c4.719-4.251,14.27-5.67,14.27-5.67s-20.357,0.117-21.33-6.19c-0.973-6.307,2.919-16.648,8.788-12.762
				C133.776,365.455,145.129,373.91,145.129,373.91z"/>
		</g>
		<g>
			
				<ellipse transform="matrix(0.0861 -0.9963 0.9963 0.0861 -33.0736 292.6832)" fill="#C30D26" cx="143.004" cy="164.37" rx="51.052" ry="70.648"/>
			
				<ellipse transform="matrix(0.1892 -0.9819 0.9819 0.1892 -40.771 271.4689)" fill="#FF4035" cx="143.991" cy="160.422" rx="36.912" ry="51.024"/>
			<path fill="#C30D26" d="M138.999,151.62c0,0-11.662-14.94-3.228-14.833c8.435,0.106,29.62-0.245,21.227,8.073
				c-8.393,8.319-7.706,8.43-7.706,8.43s26.911-7.418,27.506,1.937c0.595,9.356,4.544,17.573-2.728,16.813
				c-7.272-0.759-24.975-11.02-24.975-11.02s9.613,10.21,6.822,14.387s-41.021-3.288-36.315-8.417
				c4.706-5.129,14.979-7.671,14.979-7.671s-22.198,2.245-23.915-4.534c-1.717-6.78,1.453-18.466,8.26-14.837
				C125.733,143.577,138.999,151.62,138.999,151.62z"/>
		</g>
		<g>
			
				<ellipse transform="matrix(0.9166 -0.3998 0.3998 0.9166 -35.442 172.989)" fill="#C30D26" cx="396.929" cy="171.448" rx="64.463" ry="46.582"/>
			
				<ellipse transform="matrix(0.9532 -0.3024 0.3024 0.9532 -32.2199 127.626)" fill="#FF4035" cx="396" cy="167.853" rx="46.557" ry="33.681"/>
			<path fill="#C30D26" d="M388.165,162.969c0,0-15.857-6.9-9.048-10.488c6.809-3.588,23.644-13.096,20.536-2.771
				c-3.107,10.325-2.508,10.115-2.508,10.115s18.347-17.668,22.899-10.425c4.551,7.243,11.297,12.111,5.135,14.669
				c-6.162,2.559-24.825,2.041-24.825,2.041s12.154,4.001,11.735,8.565c-0.419,4.564-34.324,15.227-32.784,9.066
				c1.54-6.161,8.67-12.674,8.67-12.674s-16.821,11.467-21.15,6.779s-6.877-15.44,0.161-15.494
				C374.025,162.297,388.165,162.969,388.165,162.969z"/>
		</g>
		<g>
			
				<ellipse transform="matrix(0.9656 -0.26 0.26 0.9656 -65.4147 74.2669)" fill="#C30D26" cx="247.973" cy="284.359" rx="64.463" ry="46.582"/>
			
				<ellipse transform="matrix(0.9874 -0.1584 0.1584 0.9874 -41.3202 42.7471)" fill="#FF4035" cx="247.586" cy="280.665" rx="46.557" ry="33.681"/>
			<path fill="#C30D26" d="M240.558,274.678c0,0-14.664-9.166-7.4-11.709c7.264-2.543,25.318-9.461,20.721,0.292
				c-4.598,9.753-3.974,9.634-3.974,9.634s20.755-14.764,24.187-6.929c3.432,7.835,9.384,13.647,2.912,15.267
				c-6.472,1.621-24.854-1.648-24.854-1.648s11.43,5.752,10.342,10.204c-1.088,4.452-36.196,9.991-33.763,4.125
				c2.433-5.866,10.447-11.254,10.447-11.254s-18.33,8.857-21.92,3.581c-3.59-5.276-4.522-16.286,2.448-15.3
				C226.672,271.925,240.558,274.678,240.558,274.678z"/>
		</g>
		<g>
			<path fill="#0EB800" d="M139.333,288.707c0,0,42.503-7.648,58.293-43.994c12.174-28.025-13.054-60.733-13.054-60.733
				s-39.348,3.189-50.966,39.122C121.745,259.787,139.333,288.707,139.333,288.707z"/>
			<path fill="#8CD000" d="M133.606,223.102c-10.652,32.946,2.441,59.613,5.222,64.711l45.744-103.833
				C184.572,183.98,145.224,187.169,133.606,223.102z"/>
		</g>
	</g>
</g>
<g id="Layer_1">
</g>
</svg>
