<?xml version="1.0" encoding="utf-8"?>
<!-- Generator: Adobe Illustrator 25.0.0, SVG Export Plug-In . SVG Version: 6.00 Build 0)  -->
<svg version="1.1" xmlns="http://www.w3.org/2000/svg" xmlns:xlink="http://www.w3.org/1999/xlink" x="0px" y="0px"
	 viewBox="0 0 255.17 153.059" enable-background="new 0 0 255.17 153.059" xml:space="preserve">
<g id="plastic_x5F_butter_x5F_container">
	<g>
		<path fill="#FFD200" d="M34.125,105.235l31.391,47.666c18.533,2.711,160.177-30.386,165.262-35.523
			c9.784-8.073,15.441-72.905,1.025-80.494l-93.698-16.806L34.125,105.235z"/>
		<path fill="#FFA600" d="M7.118,54.604c0,0-0.552,50.228,7.849,59.892c3.089,5.419,32.016,35.748,50.549,38.522
			c0.117,0.017,0.259,0.027,0.385,0.042c-7.587-27.59-2.054-57.735-2.054-57.735L7.118,54.604z"/>
		<path fill="#FFE400" d="M0.592,53.41c2.719,3.747,28.627,39.163,55.601,44.275S213.887,67.21,234.248,64.716
			c20.361-2.494,20.922-3.036,20.922-7.466s-7.978-1.649-11.582-6.282s-1.03-13.385-6.178-17.504S188.502,0,178.784,0
			C158.128,0,10.068,16.739,8.315,28.956C5.226,50.482-2.127,49.662,0.592,53.41z"/>
		<path fill="#FFA600" d="M17.379,35.623c0,0,1.57-4.142,5.174-5.172s141.576-23.7,149.298-24.206
			c7.722-0.506,10.811,0.524,20.078,5.672s38.612,23.705,38.612,23.705S77.105,65.276,69.916,66.106
			c-13.385,1.544-18.019-1.282-21.623-4.568C44.69,58.252,17.379,35.623,17.379,35.623z"/>
		<path fill="#FFD200" d="M5.591,40.498c0,0,31.849,39.445,52.833,39.445c28.315,0,183.063-34.953,183.063-34.953l2.101,5.977
			c0,0-165.258,38.033-184.821,37.965C42.783,88.877,3.566,44.99,3.566,44.99L5.591,40.498z"/>
		<path fill="#FFD200" d="M108.093,23.216c26.071-4.669,58.556-4.928,64.493,3.143c9.864,13.409-45.27,25.655-80.925,20.699
			C68.099,42.668,80.018,28.458,108.093,23.216z"/>
		<g>
			<path fill="#FDE40B" d="M156.066,132.303c-1.517-0.04-2.92-0.392-3.812-1.74c-1.642-2.481-0.627-6.443,3.026-7.147
				c2.755-0.531,4.734,1.498,5.106,3.943c0.171,1.12,0.024,2.147-0.569,3.111c-0.759,1.232-1.955,1.675-3.308,1.831
				C156.364,132.317,156.214,132.303,156.066,132.303z"/>
			<path fill="#FDE40B" d="M173.407,116.588c0.056,2.539-1.676,4.293-4.21,4.271c-2.467-0.021-4.787-1.487-4.687-4.296
				c0.101-2.842,1.904-4.64,4.684-4.678C171.699,111.851,173.459,113.977,173.407,116.588z"/>
			<path fill="#FDE40B" d="M153.863,106.942c-0.001,1.7-0.57,3.115-2.179,3.877c-1.41,0.668-2.865,0.565-4.283-0.053
				c-1.407-0.613-2.289-1.669-2.407-3.213c-0.135-1.759,0.315-3.344,1.847-4.41c1.421-0.989,2.995-1.204,4.567-0.468
				c1.597,0.747,2.313,2.153,2.452,3.874C153.872,106.678,153.863,106.811,153.863,106.942z"/>
			<path fill="#FDE40B" d="M156.682,121.646c-2.502,0.064-4.076-2.034-4.086-4.637c-0.012-2.96,1.875-4.284,4.542-4.303
				c2.814-0.02,4.417,2.091,4.479,4.587C161.679,119.805,159.144,121.672,156.682,121.646z"/>
			<path fill="#FDE40B" d="M171.828,99.715c0.08,2.502-1.679,4.325-4.216,4.257c-2.69-0.072-4.72-1.529-4.663-4.268
				c0.058-2.755,1.846-4.657,4.674-4.696C170.128,94.974,171.922,97.131,171.828,99.715z"/>
			<path fill="#FDE40B" d="M137.764,111.984c-2.554,0.08-4.134-1.926-4.117-3.917c0.012-1.375,0.7-2.46,1.916-3.122
				c1.324-0.721,2.749-0.928,4.226-0.567c2.41,0.59,3.495,3.31,2.185,5.428C141.003,111.378,139.509,111.922,137.764,111.984z"/>
			<path fill="#FDE40B" d="M148.469,98.254c-2.17,0.054-3.882-1.448-4.053-3.661c-0.11-1.429,0.564-2.606,1.821-3.318
				c1.451-0.823,3.015-1.055,4.637-0.518c1.996,0.66,2.971,2.918,2.096,4.839C152.184,97.321,150.607,98.253,148.469,98.254z"/>
			<path fill="#FDE40B" d="M145.15,128.651c-1.799,0.077-3.299-1.071-3.822-2.491c-0.704-1.912,0.11-3.844,1.882-4.662
				c1.427-0.658,2.92-0.87,4.425-0.296c1.83,0.698,2.699,2.529,2.123,4.399c-0.53,1.722-1.795,2.595-3.49,2.949
				C145.881,128.632,145.492,128.682,145.15,128.651z"/>
			<path fill="#FDE40B" d="M160.704,111.182c-0.948,0.08-1.824-0.176-2.543-0.962c-0.983-1.074-0.948-3.103,0.001-4.207
				c1.27-1.478,4.069-1.689,5.319-0.795c0.707,0.506,0.94,1.245,1.081,2.019c0.161,0.885,0.133,1.768-0.393,2.557
				c-0.642,0.963-1.65,1.226-2.705,1.383C161.239,111.21,161.005,111.182,160.704,111.182z"/>
			<path fill="#FDE40B" d="M160.273,100.454c-0.074,1.157-0.49,2.302-1.874,2.785c-1.298,0.453-2.599,0.639-3.895-0.023
				c-0.829-0.423-1.277-1.129-1.424-2.009c-0.423-2.529,1.294-3.71,3.08-4.044c0.641-0.12,1.272-0.112,1.896,0.041
				c1.413,0.346,1.789,1.077,2.114,2.474C160.23,99.93,160.241,100.194,160.273,100.454z"/>
			<path fill="#FDE40B" d="M166.367,122.037c1.191-0.036,2.263,0.233,2.982,1.274c1.002,1.452,0.696,4.059-1.629,4.909
				c-1.088,0.398-2.203,0.424-3.314,0.025c-1.12-0.402-1.568-1.286-1.712-2.375c-0.171-1.295,0.06-2.471,1.223-3.252
				C164.646,122.127,165.496,122.006,166.367,122.037z"/>
			<path fill="#FDE40B" d="M141.818,117.418c-0.092,0.911-0.277,2.026-1.124,2.955c-1.011,1.109-3.127,0.917-4.156,0.1
				c-1.829-1.452-1.401-4.453-0.284-5.747c0.72-0.834,1.701-0.855,2.676-0.77C140.778,114.117,141.821,115.3,141.818,117.418z"/>
			<path fill="#FDE40B" d="M159.279,95.885c-1.951,0.111-2.88-1.24-3.034-2.735c-0.177-1.718,1.064-3.137,2.796-3.397
				c1.174-0.176,2.211-0.033,2.915,1.014c0.8,1.189,0.769,2.445,0.075,3.665C161.435,95.482,160.491,95.959,159.279,95.885z"/>
			<path fill="#FDE40B" d="M172.991,104.569c2.158-0.143,2.964,1.984,2.733,3.36c-0.197,1.173-0.702,2.111-1.864,2.577
				c-1.296,0.52-3.02,0.253-3.757-0.832c-1.286-1.895-0.539-4.445,1.856-5.002C172.315,104.59,172.67,104.543,172.991,104.569z"/>
			<path fill="#FDE40B" d="M140.533,102.298c-1.967,0.048-3.045-1.35-3.023-3.02c0.027-1.971,1.334-3.143,3.6-3.189
				c1.538-0.032,2.684,1.264,2.68,2.965C143.787,100.972,142.451,102.302,140.533,102.298z"/>
			<path fill="#FDE40B" d="M147.752,112.568c1.68-0.206,2.734,1.372,2.763,2.667c0.023,1.034-0.217,1.96-0.98,2.678
				c-0.701,0.658-1.547,0.883-2.522,0.801c-0.799-0.067-1.442-0.327-1.992-0.911c-1.426-1.513-0.762-4.293,1.2-4.979
				C146.736,112.644,147.255,112.507,147.752,112.568z"/>
		</g>
		<g>
			<path fill="#FDE40B" d="M207.571,118.491c-1.517-0.04-2.92-0.392-3.812-1.74c-1.642-2.481-0.627-6.443,3.026-7.147
				c2.755-0.531,4.734,1.498,5.106,3.943c0.171,1.12,0.024,2.147-0.569,3.111c-0.759,1.232-1.955,1.675-3.308,1.831
				C207.869,118.505,207.719,118.491,207.571,118.491z"/>
			<path fill="#FDE40B" d="M224.912,102.776c0.056,2.539-1.676,4.293-4.21,4.271c-2.467-0.021-4.787-1.487-4.687-4.296
				c0.101-2.842,1.904-4.64,4.684-4.678C223.204,98.039,224.964,100.165,224.912,102.776z"/>
			<path fill="#FDE40B" d="M205.368,93.13c-0.001,1.7-0.57,3.115-2.179,3.877c-1.41,0.668-2.865,0.565-4.283-0.053
				c-1.407-0.613-2.289-1.669-2.407-3.213c-0.135-1.759,0.315-3.344,1.847-4.41c1.421-0.989,2.995-1.204,4.567-0.468
				c1.597,0.747,2.313,2.153,2.452,3.874C205.377,92.866,205.368,92.999,205.368,93.13z"/>
			<path fill="#FDE40B" d="M208.187,107.834c-2.502,0.064-4.076-2.034-4.086-4.637c-0.012-2.96,1.875-4.284,4.542-4.303
				c2.814-0.02,4.417,2.091,4.479,4.587C213.184,105.993,210.649,107.86,208.187,107.834z"/>
			<path fill="#FDE40B" d="M223.333,85.903c0.08,2.502-1.679,4.325-4.216,4.257c-2.69-0.072-4.72-1.529-4.663-4.268
				c0.058-2.755,1.846-4.657,4.674-4.696C221.633,81.162,223.427,83.319,223.333,85.903z"/>
			<path fill="#FDE40B" d="M189.269,98.172c-2.554,0.08-4.134-1.926-4.117-3.917c0.012-1.375,0.7-2.46,1.916-3.122
				c1.324-0.721,2.749-0.928,4.226-0.567c2.41,0.59,3.495,3.31,2.185,5.428C192.508,97.566,191.014,98.11,189.269,98.172z"/>
			<path fill="#FDE40B" d="M199.974,84.442c-2.17,0.054-3.882-1.448-4.053-3.661c-0.11-1.429,0.564-2.606,1.821-3.318
				c1.451-0.823,3.015-1.055,4.637-0.518c1.996,0.66,2.971,2.918,2.096,4.839C203.689,83.509,202.112,84.441,199.974,84.442z"/>
			<path fill="#FDE40B" d="M196.655,114.839c-1.799,0.077-3.299-1.071-3.822-2.491c-0.704-1.912,0.11-3.844,1.882-4.662
				c1.427-0.658,2.92-0.87,4.425-0.296c1.83,0.698,2.699,2.529,2.123,4.399c-0.53,1.722-1.795,2.595-3.49,2.949
				C197.386,114.82,196.997,114.87,196.655,114.839z"/>
			<path fill="#FDE40B" d="M212.209,97.37c-0.948,0.08-1.824-0.176-2.543-0.962c-0.983-1.074-0.948-3.103,0.001-4.207
				c1.27-1.478,4.069-1.689,5.319-0.795c0.707,0.506,0.94,1.245,1.081,2.019c0.161,0.885,0.133,1.768-0.393,2.557
				c-0.642,0.963-1.65,1.226-2.705,1.383C212.744,97.398,212.51,97.37,212.209,97.37z"/>
			<path fill="#FDE40B" d="M211.778,86.642c-0.074,1.157-0.49,2.302-1.874,2.785c-1.298,0.453-2.599,0.639-3.895-0.023
				c-0.829-0.423-1.277-1.129-1.424-2.009c-0.423-2.529,1.294-3.71,3.08-4.044c0.641-0.12,1.272-0.112,1.896,0.041
				c1.413,0.346,1.789,1.077,2.114,2.474C211.735,86.118,211.746,86.382,211.778,86.642z"/>
			<path fill="#FDE40B" d="M217.872,108.225c1.191-0.036,2.263,0.233,2.982,1.274c1.002,1.452,0.696,4.059-1.629,4.909
				c-1.088,0.398-2.203,0.424-3.314,0.025c-1.12-0.402-1.568-1.286-1.712-2.375c-0.171-1.295,0.06-2.471,1.223-3.252
				C216.151,108.315,217.001,108.194,217.872,108.225z"/>
			<path fill="#FDE40B" d="M193.323,103.606c-0.092,0.911-0.277,2.026-1.124,2.955c-1.011,1.109-3.127,0.917-4.156,0.1
				c-1.829-1.452-1.401-4.453-0.284-5.747c0.72-0.834,1.701-0.855,2.676-0.77C192.283,100.305,193.326,101.488,193.323,103.606z"/>
			<path fill="#FDE40B" d="M210.784,82.073c-1.951,0.111-2.88-1.24-3.034-2.735c-0.177-1.718,1.064-3.137,2.796-3.397
				c1.174-0.176,2.211-0.033,2.915,1.014c0.8,1.189,0.769,2.445,0.075,3.665C212.94,81.67,211.996,82.147,210.784,82.073z"/>
			<path fill="#FDE40B" d="M224.496,90.757c2.158-0.143,2.964,1.984,2.733,3.36c-0.197,1.173-0.702,2.111-1.864,2.577
				c-1.296,0.52-3.02,0.253-3.757-0.832c-1.286-1.895-0.539-4.445,1.856-5.002C223.82,90.778,224.175,90.731,224.496,90.757z"/>
			<path fill="#FDE40B" d="M192.038,88.486c-1.967,0.048-3.045-1.35-3.023-3.02c0.027-1.971,1.334-3.143,3.6-3.189
				c1.538-0.032,2.684,1.264,2.68,2.965C195.292,87.16,193.956,88.49,192.038,88.486z"/>
			<path fill="#FDE40B" d="M199.257,98.756c1.68-0.206,2.734,1.372,2.763,2.667c0.023,1.034-0.217,1.96-0.98,2.678
				c-0.701,0.658-1.547,0.883-2.522,0.801c-0.799-0.067-1.442-0.327-1.992-0.911c-1.426-1.513-0.762-4.293,1.2-4.979
				C198.241,98.832,198.76,98.695,199.257,98.756z"/>
		</g>
		<g>
			<path fill="#FDE40B" d="M103.889,142.105c-1.517-0.04-2.92-0.392-3.812-1.74c-1.642-2.481-0.627-6.443,3.026-7.147
				c2.755-0.531,4.734,1.498,5.106,3.943c0.171,1.12,0.024,2.147-0.569,3.111c-0.759,1.232-1.955,1.675-3.308,1.831
				C104.187,142.119,104.037,142.105,103.889,142.105z"/>
			<path fill="#FDE40B" d="M121.23,126.39c0.056,2.539-1.676,4.293-4.21,4.271c-2.467-0.021-4.787-1.487-4.687-4.296
				c0.101-2.842,1.904-4.64,4.684-4.678C119.522,121.653,121.282,123.779,121.23,126.39z"/>
			<path fill="#FDE40B" d="M101.686,116.744c-0.001,1.7-0.57,3.115-2.179,3.877c-1.41,0.668-2.865,0.565-4.283-0.053
				c-1.407-0.613-2.289-1.669-2.407-3.213c-0.135-1.759,0.315-3.344,1.847-4.41c1.421-0.989,2.995-1.204,4.567-0.468
				c1.597,0.747,2.313,2.153,2.452,3.874C101.695,116.48,101.686,116.613,101.686,116.744z"/>
			<path fill="#FDE40B" d="M104.505,131.448c-2.502,0.064-4.076-2.034-4.086-4.637c-0.012-2.96,1.875-4.284,4.542-4.303
				c2.814-0.02,4.417,2.091,4.479,4.587C109.502,129.607,106.967,131.474,104.505,131.448z"/>
			<path fill="#FDE40B" d="M119.651,109.517c0.08,2.502-1.679,4.325-4.216,4.257c-2.69-0.072-4.72-1.529-4.663-4.268
				c0.058-2.755,1.846-4.657,4.674-4.696C117.951,104.776,119.745,106.933,119.651,109.517z"/>
			<path fill="#FDE40B" d="M85.587,121.786c-2.554,0.08-4.134-1.926-4.117-3.917c0.012-1.375,0.7-2.46,1.916-3.122
				c1.324-0.721,2.749-0.928,4.226-0.567c2.41,0.59,3.495,3.31,2.185,5.428C88.826,121.18,87.332,121.724,85.587,121.786z"/>
			<path fill="#FDE40B" d="M96.292,108.056c-2.17,0.054-3.882-1.448-4.053-3.661c-0.11-1.429,0.564-2.606,1.821-3.318
				c1.451-0.823,3.015-1.055,4.637-0.518c1.996,0.66,2.971,2.918,2.096,4.839C100.007,107.123,98.43,108.055,96.292,108.056z"/>
			<path fill="#FDE40B" d="M92.973,138.453c-1.799,0.077-3.299-1.071-3.822-2.491c-0.704-1.912,0.11-3.844,1.882-4.662
				c1.427-0.658,2.92-0.87,4.425-0.296c1.83,0.698,2.699,2.529,2.123,4.399c-0.53,1.722-1.795,2.595-3.49,2.949
				C93.704,138.434,93.315,138.484,92.973,138.453z"/>
			<path fill="#FDE40B" d="M108.527,120.984c-0.948,0.08-1.824-0.176-2.543-0.962c-0.983-1.074-0.948-3.103,0.001-4.207
				c1.27-1.478,4.069-1.689,5.319-0.795c0.707,0.506,0.94,1.245,1.081,2.019c0.161,0.885,0.133,1.768-0.393,2.557
				c-0.642,0.963-1.65,1.226-2.705,1.383C109.062,121.012,108.828,120.984,108.527,120.984z"/>
			<path fill="#FDE40B" d="M108.096,110.256c-0.074,1.157-0.49,2.302-1.874,2.785c-1.298,0.453-2.599,0.639-3.895-0.023
				c-0.829-0.423-1.277-1.129-1.424-2.009c-0.423-2.529,1.294-3.71,3.08-4.044c0.641-0.12,1.272-0.112,1.896,0.041
				c1.413,0.346,1.789,1.077,2.114,2.474C108.053,109.732,108.064,109.996,108.096,110.256z"/>
			<path fill="#FDE40B" d="M114.19,131.839c1.191-0.036,2.263,0.233,2.982,1.274c1.002,1.452,0.696,4.059-1.629,4.909
				c-1.088,0.398-2.203,0.424-3.314,0.025c-1.12-0.402-1.568-1.286-1.712-2.375c-0.171-1.295,0.06-2.471,1.223-3.252
				C112.469,131.929,113.319,131.808,114.19,131.839z"/>
			<path fill="#FDE40B" d="M89.641,127.22c-0.092,0.911-0.277,2.026-1.124,2.955c-1.011,1.109-3.127,0.917-4.156,0.1
				c-1.829-1.452-1.401-4.453-0.284-5.747c0.72-0.834,1.701-0.855,2.676-0.77C88.601,123.919,89.644,125.102,89.641,127.22z"/>
			<path fill="#FDE40B" d="M107.102,105.687c-1.951,0.111-2.88-1.24-3.034-2.735c-0.177-1.718,1.064-3.137,2.796-3.397
				c1.174-0.176,2.211-0.033,2.915,1.014c0.8,1.189,0.769,2.445,0.075,3.665C109.258,105.284,108.314,105.761,107.102,105.687z"/>
			<path fill="#FDE40B" d="M120.814,114.371c2.158-0.143,2.964,1.984,2.733,3.36c-0.197,1.173-0.702,2.111-1.864,2.577
				c-1.296,0.52-3.02,0.253-3.757-0.832c-1.286-1.895-0.539-4.445,1.856-5.002C120.138,114.392,120.493,114.345,120.814,114.371z"/>
			<path fill="#FDE40B" d="M88.356,112.1c-1.967,0.048-3.045-1.35-3.023-3.02c0.027-1.971,1.334-3.143,3.6-3.189
				c1.538-0.032,2.684,1.264,2.68,2.965C91.61,110.774,90.274,112.104,88.356,112.1z"/>
			<path fill="#FDE40B" d="M95.575,122.37c1.68-0.206,2.734,1.372,2.763,2.667c0.023,1.034-0.217,1.96-0.98,2.678
				c-0.701,0.658-1.547,0.883-2.522,0.801c-0.799-0.067-1.442-0.327-1.992-0.911c-1.426-1.513-0.762-4.293,1.2-4.979
				C94.559,122.446,95.078,122.309,95.575,122.37z"/>
		</g>
	</g>
</g>
<g id="Layer_1">
</g>
</svg>
