<?xml version="1.0" encoding="utf-8"?>
<!-- Generator: Adobe Illustrator 24.2.3, SVG Export Plug-In . SVG Version: 6.00 Build 0)  -->
<svg version="1.1" xmlns="http://www.w3.org/2000/svg" xmlns:xlink="http://www.w3.org/1999/xlink" x="0px" y="0px"
	 viewBox="0 0 174.427 251.447" enable-background="new 0 0 174.427 251.447" xml:space="preserve">
<g id="plum">
	<g id="plum_1_">
		<polygon fill="#5AA043" points="63.151,15.119 71.928,13.155 86.149,79.955 77.888,80.639 		"/>
		<path fill="#3F749A" d="M80.552,76.547c0,0-38.82-6.384-65.199,25.443c-37.747,45.544-3.535,154.524,76.826,149.274l42.855-93.221
			L80.552,76.547z"/>
		<path fill="#275F88" d="M144.629,85.356c-30.982-20.872-63.917-8.886-63.917-8.886c9.673,25.085,26.784,85.799,11.468,174.795
			C186.542,243.582,193.418,118.224,144.629,85.356z"/>
		<path fill="#69B802" d="M155.67,38.611c0,0-11.684-30.991-41.293-37.84C91.547-4.51,70.392,19.069,70.392,19.069
			s7.881,29.231,36.599,32.992C136.308,55.901,155.67,38.611,155.67,38.611z"/>
		<path fill="#5AA043" d="M106.99,52.061c26.33,3.448,44.619-10.138,48.076-12.945L70.392,19.069
			C70.392,19.069,78.273,48.301,106.99,52.061z"/>
	</g>
</g>
<g id="Layer_1">
</g>
</svg>
