<?xml version="1.0" encoding="utf-8"?>
<!-- Generator: Adobe Illustrator 24.2.3, SVG Export Plug-In . SVG Version: 6.00 Build 0)  -->
<svg version="1.1" xmlns="http://www.w3.org/2000/svg" xmlns:xlink="http://www.w3.org/1999/xlink" x="0px" y="0px"
	 viewBox="0 0 73.582 77.635" enable-background="new 0 0 73.582 77.635" xml:space="preserve">
<g id="popcorn">
	<path fill="#FFFFFF" d="M69.993,44.791c-1.383-2.242-3.833-4.854-6.977-6.947c19.156-9.872,0.735-42.699-19.534-25.509
		c-18.691-31.182-57.629,3.885-31.893,26.739c-26.496,14.961-2.665,48.43,22.569,28.792C46.407,89.215,85.517,72.881,69.993,44.791z
		"/>
	<g>
		<path fill="#FDE40B" d="M39.734,37.933c1.399-1.019,2.801-1.802,4.194-2.404c-2.373-2.233-3.791-4.872-4.597-8.887
			c-18.999-6.948-25.6,22.159-8.564,26.999C31.176,48.109,33.655,42.355,39.734,37.933z"/>
	</g>
</g>
<g id="Layer_1">
</g>
</svg>
