<?xml version="1.0" encoding="utf-8"?>
<!-- Generator: Adobe Illustrator 24.2.3, SVG Export Plug-In . SVG Version: 6.00 Build 0)  -->
<svg version="1.1" xmlns="http://www.w3.org/2000/svg" xmlns:xlink="http://www.w3.org/1999/xlink" x="0px" y="0px"
	 viewBox="0 0 323.348 385.839" enable-background="new 0 0 323.348 385.839" xml:space="preserve">
<g id="popcorn_x5F_bucket">
	<g>
		<path fill="#E8E9E9" d="M319.586,64.991c-0.852-0.62-1.71-1.058-2.562-1.37c13.324-16.718-14.615-31.244-21.913-12.291
			c-10.098-3.12-17.365,4.982-14.755,13.923c-8.318-3.16-16.335,0.654-20.651,4.999c-5.851-8.967-19.421-7.743-24.343-2.056
			c-6.208-16.818-29.671-12.904-34.264-1.961c-5.109-5.066-12.787-5.517-17.606-3.061c6.309-29.801-31.388-35.833-40.81-14.815
			c-4.155-6.313-12.986-9.304-18.873-7.674c-10.208-11.606-27.508-4.553-30.934,3.514c-7.432-7.48-18.569-4.369-22.967,0.613
			C57.004,19.191,22.015,39.852,29.807,61.79c-32.632-5.554-46.337,40.789,0.163,53.119l165.386,12.827l112.707-26.996
			c5.329-4.591,5.831-11.851,3.874-18.356C319.505,84.441,328.619,72.23,319.586,64.991z"/>
		<path fill="#FFFFFF" d="M276.079,44.464c-5.571-8.639-15.022-6.729-19.216-2.337c-7.205-15.767-26.356-3.235-16.94,10.742
			c-15.03,6.759-1.048,32.784,14.421,17.896c3.912,9.751,22.688,2.391,14.975-9.57C274.18,59.46,280.63,52.793,276.079,44.464z"/>
		<g>
			<path fill="#FDA519" d="M95.191,62.425c5.624,1.081,9.042,4.979,10.843,9.113c0.045-0.08,0.091-0.162,0.137-0.24
				c1.322-2.237,4.279-4.799,7.995-6.033c0.252-3.389-0.81-7.081-4.62-9.855c-4.351-3.167-8.846-2.892-12.346-1.344
				C97.236,57.138,96.361,60.1,95.191,62.425z"/>
		</g>
		<g>
			<path fill="#FDE40B" d="M156.528,59.069c-8.305-7.38-18.355-2.362-21.517,1.964c-1.634,2.236-3.352,5.797-3.162,9.73
				c5.733-0.94,12.213,0.2,18.119,5.448c1.827,1.623,3.147,3.502,4.07,5.535c0.773-0.543,1.552-1.186,2.333-1.94
				C160.084,76.223,164.563,66.208,156.528,59.069z"/>
		</g>
		<g>
			<path fill="#FDE40B" d="M53.313,77.662c0.577-2.368,1.522-4.477,2.486-6.107c0.744-1.26,1.882-2.594,3.315-3.841
				c-2.004-3.863-5.726-7.239-11.85-7.207c-11.11,0.058-15.234,10.508-14.695,15.839c0.278,2.756,1.383,6.553,4.154,9.352
				C40.28,81.275,45.696,77.854,53.313,77.662z"/>
		</g>
		<g>
			<path fill="#EB4238" d="M258.088,111.641c-5.864-48.79-59.338-41.444-65.679,4.84l-62.18-0.596
				c-7.546-56.278-57.2-43.252-68.904,1.428c0.215-7.83-14.165,267.818-14.165,267.818c2.782,1.932,227.038-0.183,232.402-5.196
				L258.088,111.641z"/>
			<path fill="#ED9EC3" d="M61.323,117.313c0.215-7.83-6.228-38.732-25.841-37.989c-31.115,0.529-35.927,28.838-34.1,45.469
				l0.033-0.001c2.057,16.522,43.029,258.454,45.742,260.338c0.763,0.529,18.152,0.755,43.11,0.7L61.323,117.313z"/>
			<path fill="#ED9EC3" d="M185.369,384.72l7.04-268.239c-2.877-67.913-67.777-37.916-62.181-0.597
				c-0.024-0.159-0.051-0.496-0.111-0.97l21.6,270.383L185.369,384.72z"/>
			<path fill="#ED9EC3" d="M279.559,379.935c5.281-4.937,41.515-248.962,42.611-259.229l0.035-0.001
				c0.311-11.29-5.076-45.002-31.464-40.942c-20.612,3.387-25.492,17.305-32.439,30.931c0.001,0.001-20.016,272.559-20.016,272.559
				C261.766,382.359,278.156,381.246,279.559,379.935z"/>
		</g>
		<g>
			<path fill="#FDE40B" d="M255.73,54.448c0.669-0.785,1.371-1.433,2.095-1.975c-1.685-0.963-2.873-2.294-3.899-4.507
				c-11.969-1.38-11.742,16.394-1.203,16.827C252.19,61.532,252.825,57.855,255.73,54.448z"/>
		</g>
		<path fill="#FFFFFF" d="M199.761,69.93c1.436-1.262,3.008-3.332,4.123-5.836c9.39,12.507,30.64-4.661,15.879-17.075
			c20.041-17.161-9.78-40.762-23.006-19.571c-13.923-17.14-34.976,3.976-17.859,19.646C165.11,58.451,181.548,84.45,199.761,69.93z"
			/>
		<g>
			<path fill="#FDA519" d="M200.992,47.447c0.899,0.878,1.63,1.785,2.229,2.709c1.31-1.969,3.026-3.304,5.8-4.369
				c2.664-14.438-18.965-15.625-20.358-2.848C192.672,42.56,197.09,43.635,200.992,47.447z"/>
		</g>
		<path fill="#FFFFFF" d="M154.112,19.067c-1.702-0.87-4.206-1.568-6.944-1.682c8.165-13.339-15.626-26.765-21.726-8.467
			c-23.34-12.304-34.287,24.116-9.713,28.6c-10.802,19.26,16.588,31.048,24.846,9.36C156.214,55.51,174.323,30.646,154.112,19.067z"
			/>
		<g>
			<path fill="#FDE40B" d="M132.758,26.21c0.484-1.159,1.059-2.173,1.697-3.071c-2.313-0.492-4.187-1.595-6.199-3.782
				c-14.403,2.846-7.534,23.389,4.856,19.975C131.282,35.746,130.653,31.243,132.758,26.21z"/>
		</g>
		<path fill="#FFFFFF" d="M51.829,54.41c1.699-0.877,3.723-2.507,5.411-4.667c6.091,14.405,30.859,2.878,19.533-12.734
			c23.592-11.813,0.355-41.917-17.598-24.549c-9.371-19.996-34.901-4.59-22.076,14.75C20.976,34.901,30.648,64.101,51.829,54.41z"/>
		<g>
			<path fill="#FDA519" d="M58.454,32.89c0.66,1.069,1.15,2.126,1.509,3.167c1.746-1.594,3.734-2.476,6.684-2.838
				c6.072-13.367-14.629-19.743-19.068-7.681C51.56,26.138,55.588,28.248,58.454,32.89z"/>
		</g>
		<g>
			<path fill="#FDA519" d="M295.094,64.111c4.61,0.886,7.412,4.081,8.889,7.471c0.037-0.066,0.075-0.133,0.112-0.197
				c1.084-1.834,3.508-3.934,6.554-4.945c0.207-2.778-0.664-5.805-3.787-8.079c-3.566-2.596-7.252-2.371-10.121-1.102
				C296.771,59.777,296.053,62.205,295.094,64.111z"/>
		</g>
	</g>
</g>
<g id="Layer_1">
</g>
</svg>
