<?xml version="1.0" encoding="utf-8"?>
<!-- Generator: Adobe Illustrator 24.2.3, SVG Export Plug-In . SVG Version: 6.00 Build 0)  -->
<svg version="1.1" xmlns="http://www.w3.org/2000/svg" xmlns:xlink="http://www.w3.org/1999/xlink" x="0px" y="0px"
	 viewBox="0 0 292.801 242.032" enable-background="new 0 0 292.801 242.032" xml:space="preserve">
<g id="pumpkin">
	<g id="pumpkin_1_">
		<g>
			<path fill="#D86713" d="M97.869,27.532c0,0,11.628-13.416,52.89-13.477c43.503-0.064,53.898,17.729,53.898,17.729l-52.73,34.648
				L97.869,27.532z"/>
			<path fill="#F67F15" d="M231.685,31.043c-48.302-14.617-71.732,8.985-80.421,23.137c-11.69-12.261-33.354-31.123-76.61-27.325
				C-49.695,47.261-7.815,264.543,120.185,232.47l62.608,3.467C305.184,257.043,331.184,53.597,231.685,31.043z"/>
			<g>
				<path fill="#69B802" d="M129.496,47.261c0,0,11.233-22.089,7.453-47.261l20.638,4.962c0,0,11.34,22.814,12.601,42.3
					L129.496,47.261L129.496,47.261z"/>
				<path fill="#5AA043" d="M149.349,47.261l-1.781-44.709L136.948,0c3.78,25.172-7.453,47.261-7.453,47.261H149.349z"/>
			</g>
			<path fill="#FAA219" d="M149.495,48.01c0,0-37.595-25.472-73.974,3.56C29.475,88.316,35.24,243.341,148.654,242.024
				c113.414-1.318,131.346-167.48,56.26-197.38C170.067,30.768,149.495,48.01,149.495,48.01z"/>
			<path fill="#E89213" d="M149.493,48.133c0,0-37.595-25.472-73.974,3.56C30.687,87.471,33.703,238.62,143.955,242.031
				C119.385,112.728,149.493,48.133,149.493,48.133z"/>
		</g>
	</g>
</g>
<g id="Layer_1">
</g>
</svg>
