<?xml version="1.0" encoding="utf-8"?>
<!-- Generator: Adobe Illustrator 25.0.0, SVG Export Plug-In . SVG Version: 6.00 Build 0)  -->
<svg version="1.1" xmlns="http://www.w3.org/2000/svg" xmlns:xlink="http://www.w3.org/1999/xlink" x="0px" y="0px"
	 viewBox="0 0 179.017 254.813" enable-background="new 0 0 179.017 254.813" xml:space="preserve">
<g id="rasberry">
	<g>
		<path fill="#00A038" d="M133.455,0c0,0-24.98,10.852-37.546,40.35c-9.69,22.746,1.483,44.615,1.483,44.615
			s22.743-7.089,32.891-35.779C140.644,19.897,133.455,0,133.455,0z"/>
		<path fill="#0EB800" d="M130.283,49.187c9.305-26.305,4.458-45.023,3.372-48.568L97.392,84.966
			C97.392,84.966,120.135,77.877,130.283,49.187z"/>
	</g>
	<g>
		<path fill="#00A038" d="M179.017,50.923c0,0-25.275-7.939-53.122,7.239c-21.471,11.704-26.986,36.568-26.986,36.568
			s21.256,9.455,46.807-6.685C171.802,71.566,179.017,50.923,179.017,50.923z"/>
		<path fill="#0EB800" d="M145.716,88.045c23.427-14.799,31.629-32.947,33.059-36.495L98.91,94.729
			C98.91,94.729,120.165,104.184,145.716,88.045z"/>
	</g>
	<g>
		<path fill="#00A038" d="M52.93,10.113c0,0,25.277,7.976,39.412,36.382c10.9,21.903,1.171,45.453,1.171,45.453
			s-22.849-4.428-34.552-32.308C47.015,31.176,52.93,10.113,52.93,10.113z"/>
		<path fill="#0EB800" d="M58.963,59.639c-10.73-25.562-7.054-45.144-6.193-48.873l40.745,81.181
			C93.513,91.947,70.665,87.519,58.963,59.639z"/>
	</g>
	<path fill="#CA3129" d="M97.562,97.32c-9.791,38.177-69.015,25.755-61.942-12.664C43.971,39.302,107.114,60.073,97.562,97.32z"/>
	<path fill="#E32D70" d="M70.782,59.438c-14.984-2.896-31.21,3.751-35.162,25.217c-3.171,17.223,6.984,29.216,20.034,33.773
		L70.782,59.438z"/>
	<path fill="#CA3129" d="M151.412,114.011c-9.791,38.177-69.015,25.755-61.942-12.664C97.82,55.994,160.964,76.764,151.412,114.011z
		"/>
	<path fill="#E32D70" d="M124.632,76.131c-14.984-2.896-31.21,3.751-35.162,25.217c-3.171,17.223,6.984,29.216,20.034,33.773
		L124.632,76.131z"/>
	<path fill="#CA3129" d="M62.527,132.706c-9.791,38.177-69.015,25.755-61.942-12.664C8.935,74.689,72.079,95.46,62.527,132.706z"/>
	<path fill="#E32D70" d="M35.747,94.825c-14.984-2.896-31.21,3.752-35.162,25.218c-3.171,17.223,6.984,29.216,20.034,33.773
		L35.747,94.825z"/>
	<path fill="#CA3129" d="M123.823,149.433c-10.941,42.665-77.13,28.782-69.225-14.153C63.93,84.595,134.498,107.808,123.823,149.433
		z"/>
	<path fill="#E32D70" d="M93.894,107.099c-16.746-3.236-34.879,4.192-39.296,28.182c-3.544,19.248,7.805,32.65,22.39,37.744
		L93.894,107.099z"/>
	<path fill="#CA3129" d="M172.081,154.013c-11.078,43.196-78.089,29.14-70.086-14.328
		C111.444,88.369,182.889,111.87,172.081,154.013z"/>
	<path fill="#E32D70" d="M141.78,111.152c-16.954-3.276-35.313,4.244-39.785,28.532c-3.588,19.487,7.902,33.057,22.668,38.212
		L141.78,111.152z"/>
	<path fill="#CA3129" d="M105.931,183.724c-10.906,42.526-76.877,28.688-68.997-14.106
		C46.235,119.098,116.571,142.235,105.931,183.724z"/>
	<path fill="#E32D70" d="M76.1,141.528c-16.691-3.225-34.765,4.178-39.168,28.089c-3.532,19.185,7.78,32.543,22.316,37.62
		L76.1,141.528z"/>
	<path fill="#CA3129" d="M64.424,186.331c-9.791,38.177-69.015,25.755-61.942-12.664C10.832,128.313,73.975,149.084,64.424,186.331z
		"/>
	<path fill="#E32D70" d="M37.644,148.45c-14.984-2.896-31.21,3.751-35.162,25.217c-3.171,17.223,6.984,29.216,20.034,33.773
		L37.644,148.45z"/>
	<path fill="#CA3129" d="M148.5,203.481c-9.791,38.177-69.015,25.755-61.942-12.664C94.908,145.464,158.051,166.234,148.5,203.481z"
		/>
	<path fill="#E32D70" d="M121.719,165.601c-14.984-2.896-31.21,3.751-35.162,25.217c-3.171,17.223,6.984,29.216,20.034,33.773
		L121.719,165.601z"/>
	<path fill="#CA3129" d="M96.781,230.645c-10.221,39.858-72.054,26.888-64.669-13.222C40.83,170.074,106.753,191.758,96.781,230.645
		z"/>
	<path fill="#E32D70" d="M68.822,191.097c-15.644-3.023-32.583,3.916-36.71,26.327c-3.311,17.981,7.292,30.501,20.916,35.26
		L68.822,191.097z"/>
</g>
<g id="Layer_1">
</g>
</svg>
