<?xml version="1.0" encoding="utf-8"?>
<!-- Generator: Adobe Illustrator 24.2.3, SVG Export Plug-In . SVG Version: 6.00 Build 0)  -->
<svg version="1.1" xmlns="http://www.w3.org/2000/svg" xmlns:xlink="http://www.w3.org/1999/xlink" x="0px" y="0px"
	 viewBox="0 0 378.615 100.633" enable-background="new 0 0 378.615 100.633" xml:space="preserve">
<g id="rolling_x5F_pin">
	<g>
		<path id="XMLID_146_" fill="#935803" d="M297.845,40.761c1.649,17.308,10.76,16.016,25.811,14.803
			c14.628-1.179,50.69-6.392,53.635-13.988c3.577-9.227-0.588-22.504-6.603-24.061c-14.81-3.834-36.539,0.006-51.66,2.147
			C304.608,21.704,296.826,23.666,297.845,40.761z"/>
		<g>
			<g id="kaulin_1_">
				<path id="XMLID_145_" fill="#BE7A2A" d="M56.39,58.825c-0.132,8.852,4.773,35.48,12.321,39.524
					c8.6,4.609,63.538,0.916,74.85,0.325c45.313-2.406,90.798-5.732,135.963-10.508c21.634-3.28,50.947-5.988,56.835-27.145
					c1.352-15.949,0.948-41.834-11.799-53.023c-12.277-9.543-46.35-8.191-65.556-7.524C209.201,2.544,158.745,5.759,109.14,11.749
					C76.121,15.903,53.775,15.988,56.39,58.825z"/>
				<path fill="#E0CAAF" d="M80.831,15.975c33.548-3.875,34.561,52.047,23.568,68.853c-6.801,10.462-26.758,18.97-38.888,12.084
					c-11.311-10.242-12.072-29.32-12.041-44.462C55.058,31.919,59.832,18.404,80.831,15.975z"/>
				<path id="XMLID_144_" fill="#BF7900" d="M81.075,58.21c-0.625-17.375-9.797-16.623-24.893-16.299
					C41.51,42.225,5.203,45.302,1.816,52.71c-4.115,9-0.74,22.5,5.172,24.409c14.558,4.701,36.476,2.15,51.697,0.904
					C73.2,76.835,81.084,75.335,81.075,58.21z"/>
			</g>
			<g id="Layer_1_78_">
			</g>
		</g>
	</g>
</g>
<g id="Layer_1">
</g>
</svg>
