<?xml version="1.0" encoding="utf-8"?>
<!-- Generator: Adobe Illustrator 24.2.3, SVG Export Plug-In . SVG Version: 6.00 Build 0)  -->
<svg version="1.1" xmlns="http://www.w3.org/2000/svg" xmlns:xlink="http://www.w3.org/1999/xlink" x="0px" y="0px"
	 viewBox="0 0 447.284 221.676" enable-background="new 0 0 447.284 221.676" xml:space="preserve">
<g id="sausage">
	<path fill="#D47A00" d="M31.931,0.049c-8.94,0.975-4.823,14.665,1.016,27.309c-5.95-9.328-13.122-16.678-19.589-12.703
		c-6.862,4.216,0.107,13.165,9.315,21.4c-8.531-5.824-17.156-9.208-21.428-3.445c-6.195,8.36,11.974,15.444,26.94,19.671
		c-3.789,7.437-5.195,16.027-4.499,25.305c0,0,73.189,104.662,162.928,124.308c104.083,22.786,228.208-58.567,228.208-58.567
		c12.233-22.036,11.738-42.447,3.621-57.401c14.738-6.022,34.849-16.159,27.135-24.179c-4.973-5.17-13.095-0.71-20.812,6.156
		c8.08-9.345,13.848-19.111,6.504-22.415c-6.923-3.115-13.096,5.09-17.805,15.103c4.175-13.287,6.508-27.391-2.483-27.215
		c-10.841,0.212-10.416,20.64-8.701,35.345c-14.801-9.297-35.228-10.679-55.45,0.207c-44.16,23.77-103.748,38.952-137.412,27.76
		C151.948,77.58,92.59,7.213,45.087,34.934C44.99,20.067,42.941-1.152,31.931,0.049z"/>
	<path fill="#BF6C21" d="M186.614,181.894C96.875,162.248,58.893,103.413,23.686,77.587c3.793,50.59,70.206,121.645,155.066,137.94
		c131.644,25.279,204.167-35.559,204.167-35.559c14.925-12.286,25.276-24.702,31.903-36.641
		C359.208,160.67,290.698,204.68,186.614,181.894z"/>
	<path fill="#BF6C21" d="M64.405,76.01c11.35-0.249,10.042-17.715-0.538-17.447C52.186,58.859,54.053,76.237,64.405,76.01z"/>
	<path fill="#BF6C21" d="M97.591,57.746c-10.168,0.492-8.991,17.659,1.361,17.432C110.302,74.93,109.588,57.166,97.591,57.746z"/>
	<path fill="#BF6C21" d="M85.253,79.553c-10.141,0.893-8.991,17.659,1.361,17.432C97.964,96.737,96.971,78.521,85.253,79.553z"/>
	<path fill="#BF6C21" d="M354.705,110.47c11.35-0.249,10.036-17.891-0.538-17.447C341.279,93.564,344.353,110.697,354.705,110.47z"
		/>
	<path fill="#BF6C21" d="M389.253,109.638c11.35-0.249,10.042-17.727-0.538-17.447C376.571,92.512,378.901,109.865,389.253,109.638z
		"/>
	<path fill="#BF6C21" d="M376.914,131.445c11.35-0.249,10.045-17.447-0.538-17.447C362.945,113.998,366.562,131.672,376.914,131.445
		z"/>
</g>
<g id="Layer_1">
</g>
</svg>
