<?xml version="1.0" encoding="utf-8"?>
<!-- Generator: Adobe Illustrator 24.2.3, SVG Export Plug-In . SVG Version: 6.00 Build 0)  -->
<svg version="1.1" xmlns="http://www.w3.org/2000/svg" xmlns:xlink="http://www.w3.org/1999/xlink" x="0px" y="0px"
	 viewBox="0 0 479.824 453.191" enable-background="new 0 0 479.824 453.191" xml:space="preserve">
<g id="shrove_x5F_semla_x5F_bun_x5F_roll">
	<g id="shrove_x5F_bun_1_">
		<g>
			<path fill="#D47A00" d="M24.028,303.89C6.769,402.566,81.538,450.31,235.229,453.022
				c169.464,2.992,246.698-33.164,218.973-144.804L24.028,303.89z"/>
			<g>
				<path fill="#C30D26" d="M442.361,208.364L21.224,220.901c-30.858,15.553-26.57,117.626,3.18,117.265
					c18.8-0.227,30.118-12.893,42.671-12.952c33.52-0.165,46.912,49.564,80.319,52.933c22.867,2.305,45.206-21.414,75.609-25.594
					c33.463-4.603,69.611,59.774,110.707,20.129c69.495-67.044,117.48,30.528,142.872-51.106
					C490.889,262.689,442.361,208.364,442.361,208.364z"/>
			</g>
			<g>
				<path fill="#FFECF4" d="M442.965,164.934L21.826,177.471c-30.858,15.553-26.57,117.626,3.18,117.265
					c18.8-0.227,30.118-12.893,42.671-12.952c33.52-0.165,46.912,49.564,80.319,52.933c22.867,2.305,45.206-21.414,75.609-25.594
					c33.463-4.603,69.611,59.774,110.707,20.129c69.495-67.044,117.48,30.528,142.872-51.106
					C491.492,219.259,442.965,164.934,442.965,164.934z"/>
			</g>
			<path fill="#D47A00" d="M463.731,194.671c0,0-45.794,66.69-223.964,67.813c-185.093,1.165-220.086-79.698-220.086-79.698
				C19.365,103.036,73.619,12.784,239.111,11.741C411.311,10.655,469.66,115.019,463.731,194.671z"/>
			<path fill="#FFECF4" d="M180.611,55.684c-3.672-6.336-11.763-6.986-18.518-4.353c-5.054,1.971-10.906,9.755-7.105,19.282
				c3.835,9.607,16.614,9.648,21.844,5.272C183.428,70.366,183.625,60.887,180.611,55.684z"/>
			<path fill="#FFECF4" d="M152.331,24.229c-4.427-7.637-14.182-8.421-22.324-5.248c-6.094,2.375-13.149,11.761-8.565,23.244
				c4.624,11.581,20.027,11.631,26.332,6.355C155.726,41.93,155.966,30.502,152.331,24.229z"/>
			<path fill="#FFECF4" d="M304.626,47.317c-3.672-6.336-11.763-6.986-18.518-4.353c-5.054,1.971-10.906,9.755-7.105,19.282
				c3.835,9.607,16.614,9.648,21.844,5.272C307.441,62,307.641,52.52,304.626,47.317z"/>
			<path fill="#FFECF4" d="M232.623,42.644c-3.672-6.336-11.763-6.986-18.518-4.353c-5.054,1.971-10.906,9.755-7.105,19.282
				c3.835,9.607,16.614,9.648,21.844,5.272C235.44,57.326,235.638,47.847,232.623,42.644z"/>
			<path fill="#FFECF4" d="M199.656,8.152c-5.154-8.891-16.51-9.805-25.991-6.11c-7.095,2.765-15.31,13.693-9.972,27.064
				c5.384,13.484,23.318,13.541,30.66,7.398C203.61,28.76,203.888,15.454,199.656,8.152z"/>
			<path fill="#FFECF4" d="M279.742,8.364c-5.154-8.891-16.51-9.805-25.991-6.11c-7.095,2.765-15.31,13.693-9.972,27.064
				c5.384,13.484,23.318,13.541,30.66,7.398C283.694,28.972,283.973,15.667,279.742,8.364z"/>
			<path fill="#FFECF4" d="M358.568,21.974c-5.154-8.891-16.51-9.805-25.991-6.11c-7.095,2.765-15.31,13.693-9.972,27.064
				c5.384,13.484,23.318,13.541,30.66,7.398C362.52,42.582,362.799,29.277,358.568,21.974z"/>
			<path fill="#FFECF4" d="M219.966,98.797c-4.427-7.637-14.182-8.421-22.324-5.248c-6.094,2.375-13.149,11.761-8.565,23.244
				c4.624,11.581,20.027,11.631,26.332,6.355C223.361,116.497,223.601,105.07,219.966,98.797z"/>
			<path fill="#FFECF4" d="M397.568,69.546c-3.672-6.336-11.763-6.986-18.518-4.353c-5.054,1.971-10.906,9.755-7.105,19.282
				c3.835,9.607,16.614,9.648,21.844,5.272C400.384,84.229,400.582,74.749,397.568,69.546z"/>
			<path fill="#FFECF4" d="M309.811,117.466c-3.672-6.336-11.763-6.986-18.518-4.353c-5.054,1.97-10.906,9.755-7.105,19.282
				c3.835,9.607,16.614,9.648,21.844,5.272C312.627,132.15,312.825,122.669,309.811,117.466z"/>
			<path fill="#FFECF4" d="M171.743,113.771c-3.672-6.336-11.763-6.986-18.518-4.353c-5.054,1.971-10.906,9.755-7.105,19.282
				c3.835,9.607,16.614,9.648,21.844,5.272C174.56,128.454,174.758,118.974,171.743,113.771z"/>
			<path fill="#FFECF4" d="M276.845,82.974c-5.154-8.891-16.51-9.805-25.991-6.11c-7.095,2.765-15.31,13.693-9.972,27.064
				c5.384,13.484,23.318,13.541,30.66,7.398C280.797,103.583,281.077,90.277,276.845,82.974z"/>
			<path fill="#FFECF4" d="M140.121,78.088c-5.154-8.891-16.51-9.805-25.991-6.11c-7.095,2.765-15.31,13.693-9.972,27.064
				c5.384,13.484,23.318,13.541,30.66,7.398C144.073,98.696,144.352,85.391,140.121,78.088z"/>
			<path fill="#FFECF4" d="M356.929,83.186c-5.154-8.891-16.51-9.805-25.991-6.11c-7.095,2.765-15.31,13.693-9.972,27.064
				c5.384,13.484,23.318,13.541,30.66,7.398C360.881,103.794,361.161,90.489,356.929,83.186z"/>
		</g>
	</g>
</g>
<g id="Layer_1">
</g>
</svg>
