<?xml version="1.0" encoding="utf-8"?>
<!-- Generator: Adobe Illustrator 24.2.3, SVG Export Plug-In . SVG Version: 6.00 Build 0)  -->
<svg version="1.1" xmlns="http://www.w3.org/2000/svg" xmlns:xlink="http://www.w3.org/1999/xlink" x="0px" y="0px"
	 viewBox="0 0 351.047 525.937" enable-background="new 0 0 351.047 525.937" xml:space="preserve">
<g id="smoothie_x5F_machine">
	<g>
		<g id="blender_1_">
			<path fill="#41759A" d="M88.979,212.828c-11.804-2.39-25.126-5.191-34.476-10.035c-30.857-15.988-30.907-70.719-1.888-89.712
				c7.154-4.683,16.458-7.68,26.026-9.875c9.329-2.14,7.274-28.974-2.589-26.786c-21.418,4.751-41.031,14.218-57.924,30.218
				C-0.364,124.154-5.108,159.03,5.742,183.934c10.838,24.877,30.427,39.973,54.553,50.199c10.203,4.325,20.658,8.06,31.604,9.274
				C101.104,244.428,102.276,215.521,88.979,212.828z"/>
			<path opacity="0.7" fill="#FFFFFF" enable-background="new    " d="M75.352,2.508c26.519-0.914,228.61-4.572,258.787-0.914
				c8.577,1.04-14.212,35.378-16.399,44.637c-13.716,58.067-19.279,305.49-28.176,323.285
				c-11.601,23.202-176.472,11.864-183.12-0.385C104.521,365.59,62.488,2.951,75.352,2.508z"/>
			<path fill="#41759A" d="M92.426,391.628c0.001,0.199,0.003,0.398,0.005,0.597c0.123,16.545,5.986,30.316,13.101,30.755
				c63.482,3.916,190.452,0.401,204.805-3.664c3.389-0.96,5.135-4.288,5.669-11.221c0.864-11.207,0.806-22.381-1.037-33.485
				c-1.199-7.231-3.206-10.896-6.797-10.694c-2.846,0.16-157.113-1.042-203.362-1.489C97.805,362.359,92.305,375.33,92.426,391.628z
				"/>
			<path fill="#295F87" d="M348.631,441.506c-4.307-24.488-4.953-39.759-61.719-44.556c-35.251-2.979-102.204-0.872-151.36,0.107
				c-57.557,1.146-72.398,11.553-76.511,40.924c-2.738,19.547-0.122,51.352,4.319,61.288c10.284,23.007,37.844,26.14,77.334,25.945
				c38.879-0.193,66.014,2.165,146.218-0.73c56.972-2.056,63.767-28.194,63.767-40.04
				C350.679,473.664,352.333,462.556,348.631,441.506z"/>
			<path fill="#55BCCE" d="M133.5,450.138c8.201,0.036,13.625-5.288,13.682-13.428c0.06-8.498-6.355-14.52-15.543-14.591
				c-7.772-0.06-12.603,4.979-12.653,13.198C118.929,444.338,124.571,450.099,133.5,450.138z"/>
			<path fill="#55BCCE" d="M135.153,495.071c8.201,0.036,13.625-5.288,13.682-13.428c0.06-8.498-6.355-14.52-15.543-14.591
				c-7.772-0.06-12.603,4.979-12.653,13.198C120.582,489.271,126.224,495.033,135.153,495.071z"/>
		</g>
		<g id="Layer_1_37_">
		</g>
	</g>
	<g id="Layer_1_36_">
	</g>
</g>
<g id="Layer_1">
</g>
</svg>
