<?xml version="1.0" encoding="utf-8"?>
<!-- Generator: Adobe Illustrator 24.2.3, SVG Export Plug-In . SVG Version: 6.00 Build 0)  -->
<svg version="1.1" xmlns="http://www.w3.org/2000/svg" xmlns:xlink="http://www.w3.org/1999/xlink" x="0px" y="0px"
	 viewBox="0 0 86.74 291.325" enable-background="new 0 0 86.74 291.325" xml:space="preserve">
<g id="spoon_x5F_white">
	<g>
		<g id="lusikka_3_">
			<path fill="#FFFFFF" d="M84.821,213.212c-1.072-5.862-9.681-29.809-34.818-30.625c0.471-1.242,0.675-2.665,0.805-3.986
				c4.41-44.602,8.82-89.204,13.23-133.806c0.976-9.88,1.9-20.188-1.678-29.448C58.779,6.087,49.199-1.667,39.47,0.311
				c-7.589,1.543-13.12,8.537-15.241,15.984c-2.121,7.448-1.473,15.366-0.824,23.083c4.045,48.156,7.396,96.371,10.049,144.625
				l0.872,0.082c-10.15,2.019-22.256,6.499-28.048,16.036c-7.55,12.431-7.542,28.151-3.906,42.435
				c4.823,18.947,16.711,36.08,30.938,45.538c7.252,4.822,16.69,3.063,19.625,2.167c13.921-4.253,24.663-16.747,29.727-31.177
				S87.619,228.516,84.821,213.212z"/>
			<g>
				<path fill="#CCD2D3" d="M80.579,256.967c-3.511,13.007-11.439,24.101-22.028,27.606c-2.232,0.739-9.441,2.09-15.143-2.491
					c-11.186-8.989-20.778-24.905-24.985-42.286c-3.172-13.104-3.594-27.419,1.882-38.54c6.722-13.654,26.217-15.087,32.146-14.883
					c20.105,0.695,27.581,23.419,28.577,28.877C83.583,229.262,84.091,243.961,80.579,256.967z"/>
			</g>
			<path fill="#B2B2B2" d="M75.346,201.239c-11.678,0.228-23.323,4.925-31.398,13.404c-3.739,3.927-6.772,8.623-8.219,13.849
				c-2.052,7.415-0.802,15.348,1.298,22.749c2.863,10.088,7.447,19.953,14.978,27.251c2.268,2.197,4.84,4.126,7.602,5.703
				c-0.349,0.135-0.7,0.262-1.055,0.38c-2.232,0.739-9.441,2.09-15.143-2.492c-11.186-8.989-20.778-24.905-24.985-42.286
				c-3.172-13.104-3.594-27.419,1.882-38.54c6.721-13.654,26.217-15.087,32.146-14.883C63.646,186.76,70.921,193.976,75.346,201.239
				z"/>
		</g>
		<g id="Layer_1_5_">
		</g>
	</g>
</g>
<g id="Layer_1">
</g>
</svg>
