<?xml version="1.0" encoding="utf-8"?>
<!-- Generator: Adobe Illustrator 26.0.3, SVG Export Plug-In . SVG Version: 6.00 Build 0)  -->
<svg version="1.1" xmlns="http://www.w3.org/2000/svg" xmlns:xlink="http://www.w3.org/1999/xlink" x="0px" y="0px"
	 viewBox="0 0 113.521 113.42" enable-background="new 0 0 113.521 113.42" xml:space="preserve">
<g id="star_x5F_pastry">
	<g>
		<g>
			<g>
				<path fill="#E8CAAE" d="M50.321-105.076c-5.332,6.151-9.05,32.291-9.179,32.938C29.405-71.77,18.027-67.322,8.524-61.196
					c-2.918,1.882-5.803,4.029-7.279,7.012C-0.23-51.2-0.006-47.04,2.914-44.922c7,5.078,32.191,9.03,32.788,9.15
					c0.339,11.783,4.797,23.211,10.946,32.749c1.882,2.918,4.029,5.803,7.012,7.279c2.983,1.476,6.779,0.949,9.261-1.668
					c6.458-6.81,9.05-32.291,9.179-32.939c11.736-0.368,23.115-4.816,32.617-10.942c2.918-1.882,5.803-4.029,7.279-7.012
					c1.476-2.983,1.511-7.557-1.668-9.262c-16.702-8.956-32.191-9.03-32.788-9.15C77.201-78.5,72.743-89.928,66.594-99.466
					c-1.882-2.918-4.029-5.803-7.012-7.279C56.599-108.221,52.683-107.802,50.321-105.076z"/>
			</g>
		</g>
		<g>
			<path fill="#CCA172" d="M41.406-72.322c-0.159-0.045-28.523,1.219-40.385,17.935c-1.646,2.319-1.198,5.852,0.6,8.168
				c2.961-2.392,15.336-5.482,27.333-5.962c12.726-0.51,21.888,4.797,22.451,0.248C51.681-54.152,50.954-69.648,41.406-72.322z"/>
		</g>
		<g>
			<path fill="#CCA172" d="M35.427-36.074c-0.045,0.159,1.219,28.523,17.935,40.385c2.319,1.646,5.852,1.198,8.168-0.6
				c-2.392-2.961-5.482-15.336-5.962-27.333c-0.51-12.726,4.797-21.888,0.248-22.451C53.597-46.349,38.101-45.623,35.427-36.074z"/>
		</g>
		<g>
			<path fill="#CCA172" d="M72.115-30.068c0.159,0.045,28.523-1.219,40.385-17.935c1.646-2.319,1.198-5.852-0.6-8.168
				c-2.961,2.392-15.336,5.482-27.333,5.962c-12.726,0.51-21.888-4.797-22.451-0.248C61.84-48.238,62.566-32.742,72.115-30.068z"/>
		</g>
		<g>
			<path fill="#CCA172" d="M78.05-66.683c0.045-0.159-1.219-28.523-17.935-40.385c-2.319-1.646-5.852-1.198-8.168,0.6
				c2.392,2.961,5.482,15.336,5.962,27.333c0.51,12.726-4.797,21.888-0.248,22.451C59.88-56.408,75.376-57.135,78.05-66.683z"/>
		</g>
		<path fill="#570602" d="M61.125-64.711c-6.77-2.173-13.169,2.648-16.477,8.967c-2.475,4.728-1.817,14.176,7.092,18.567
			c8.985,4.429,18.458-3.898,19.524-10.478C72.607-55.952,66.686-62.927,61.125-64.711z"/>
	</g>
</g>
<g id="Layer_1">
</g>
</svg>
