<?xml version="1.0" encoding="utf-8"?>
<!-- Generator: Adobe Illustrator 26.0.2, SVG Export Plug-In . SVG Version: 6.00 Build 0)  -->
<svg version="1.1" id="Layer_1" xmlns="http://www.w3.org/2000/svg" xmlns:xlink="http://www.w3.org/1999/xlink" x="0px" y="0px"
	 viewBox="0 0 148.3 169.2" style="enable-background:new 0 0 148.3 169.2;" xml:space="preserve">
<style type="text/css">
	.st0{fill:#00B900;}
	.st1{fill:#FF3E31;}
	.st2{fill:#C61824;}
	.st3{fill:#FF8000;}
</style>
<path class="st0" d="M101.9,7.5C96,12.2,83.4,22,83,21.9C82.5,21.8,76.7,7.1,74.5,0C71,7.1,63.2,22.6,62.7,22.7
	c-0.3,0-12.3-9.2-18-13.5C43.8,23.8,49.9,38.8,58.4,43l34.9-2.5C105.4,30.4,102.6,11.7,101.9,7.5z"/>
<path class="st1" d="M146.7,72.3c-4.5-17.1-17-26.7-29.1-32.6C89.7,26,19.7,26.1,4.9,56.7c-4.3,8.9-6.2,21.1-4,32S8,109,13,117.8
	c13.6,24.2,30.9,47.8,52.5,51c17.9,2.6,35.1-9.4,50.5-22.8c9.3-8.1,18.5-17,24.9-29.6C147.3,103.9,150.5,86.9,146.7,72.3z"/>
<path class="st2" d="M37.5,96.2c-3.3-15.6-2.1-33.1,7.7-45.7c7.7-9.8,19.3-15.1,31.1-19.4C46.9,29.9,14.4,37,4.9,56.7
	c-4.3,8.9-6.2,21.1-4,32C3.2,99.6,8,109,13,117.8c13.6,24.2,30.9,47.8,52.5,51c9.7,1.4,19.1-1.5,28.2-6.5
	C66,150.6,43.7,125.7,37.5,96.2z"/>
<path class="st3" d="M105.1,55.1c-0.1-4.1-2.2-6.7-5.3-6.6c-3.2,0.1-5.4,3.3-5.3,7.9c0.1,3.8,2.1,6.2,5.2,6.1
	C103.2,62.4,105.3,59.5,105.1,55.1z"/>
<path class="st3" d="M59.4,57.5c-0.1-4.1-2.2-6.7-5.3-6.6c-3.2,0.1-5.4,3.3-5.3,7.9c0.1,3.8,2.1,6.2,5.2,6.1
	C57.4,64.7,59.5,61.9,59.4,57.5z"/>
<path class="st3" d="M79.9,79.9c-0.1-4.1-2.1-6.7-5.1-6.6c-3.1,0.1-5.2,3.3-5.1,7.9c0.1,3.8,2,6.2,5,6.1
	C78.1,87.2,80.1,84.4,79.9,79.9z"/>
<path class="st3" d="M129.4,79.8c-0.1-4.1-2.1-6.7-5.1-6.6c-3.1,0.1-5.2,3.3-5.1,7.9c0.1,3.8,2,6.2,5,6.1
	C127.5,87.1,129.5,84.2,129.4,79.8z"/>
<path class="st3" d="M49.1,90.2c-0.1-4-2.1-6.6-5.1-6.6c-3.1,0.1-5.2,3.3-5.1,7.8c0.1,3.8,2,6.1,5,6.1
	C47.2,97.4,49.2,94.6,49.1,90.2z"/>
<path class="st3" d="M23.6,70.4c-0.1-3.8-2.1-6.3-5.1-6.2c-3.1,0.1-5.2,3.1-5.1,7.4c0.1,3.6,2,5.8,5,5.7
	C21.7,77.3,23.7,74.6,23.6,70.4z"/>
<path class="st3" d="M74.9,118.1c-0.1-3.8-2.1-6.3-5.1-6.2c-3.1,0.1-5.2,3.1-5.1,7.4c0.1,3.6,2,5.8,5,5.7
	C73,124.9,75,122.3,74.9,118.1z"/>
<path class="st3" d="M104.9,103.9c-0.1-3.8-2.1-6.3-5.1-6.2c-3.1,0.1-5.2,3.1-5.1,7.4c0.1,3.6,2,5.8,5,5.7
	C103,110.8,105,108.1,104.9,103.9z"/>
<path class="st3" d="M129.5,112.3c-0.1-3.1-1.7-5.1-4.1-5c-2.5,0.1-4.2,2.5-4.1,6c0.1,2.9,1.6,4.7,4.1,4.7
	C128,117.8,129.6,115.6,129.5,112.3z"/>
<path class="st3" d="M103.9,134.4c-0.1-3.1-1.7-5.1-4.1-5c-2.5,0.1-4.2,2.5-4.1,6c0.1,2.9,1.6,4.7,4.1,4.6
	C102.4,139.9,104,137.7,103.9,134.4z"/>
<path class="st3" d="M28.1,107.3c-0.1-3.2-1.8-5.2-4.2-5.2c-2.6,0.1-4.3,2.6-4.2,6.1c0.1,3,1.7,4.8,4.2,4.8
	C26.5,113,28.2,110.7,28.1,107.3z"/>
<path class="st3" d="M48.4,132.2c-0.1-3.2-1.8-5.2-4.2-5.2c-2.6,0.1-4.3,2.6-4.2,6.1c0.1,3,1.7,4.8,4.2,4.8
	C46.8,137.9,48.5,135.7,48.4,132.2z"/>
<path class="st3" d="M75,149.3c-0.1-3.2-1.8-5.2-4.2-5.2c-2.6,0.1-4.3,2.6-4.2,6.1c0.1,3,1.7,4.8,4.2,4.8
	C73.5,155,75.1,152.7,75,149.3z"/>
<g id="Layer_1_00000031896796696368278190000010507087996135901833_">
</g>
</svg>
