<?xml version="1.0" encoding="utf-8"?>
<!-- Generator: Adobe Illustrator 25.0.0, SVG Export Plug-In . SVG Version: 6.00 Build 0)  -->
<svg version="1.1" xmlns="http://www.w3.org/2000/svg" xmlns:xlink="http://www.w3.org/1999/xlink" x="0px" y="0px"
	 viewBox="0 0 187.014 221.921" enable-background="new 0 0 187.014 221.921" xml:space="preserve">
<g id="teabag">
	<path fill="#CCA172" d="M90.031,67.892c7.234,8.823,14.245,20.679,15.652,33.793c0,0.001-9.133,65.675-9.133,65.675
		c-1.397,10.045-8.114,17.743-18.253,17.508l-46.802-1.36c-9.26-0.215-17.254-7.009-20.073-15.833
		C7.431,155.181-3.37,105.897,1.039,94.598c4.021-10.305,10.759-26.38,19.592-35.284L90.031,67.892z"/>
	<path opacity="0.5" fill="#E8CAAE" d="M90.031,67.892l-69.4-8.578c-5.948,5.995-10.94,15.24-14.799,23.787l32.728,4.025
		l36.902-0.251l25.036-2.733C97.596,78.056,93.849,72.549,90.031,67.892z"/>
	<path fill="#E8CAAE" d="M90.031,67.892c-6.183-8.88-14.951-15.334-21.738-15.259l-32.42,0.364
		c-5.713,0.064-10.909,1.66-15.242,6.317c5.122,9.306,17.93,27.812,17.93,27.812l36.902-0.251L90.031,67.892z"/>
	<path fill="#CCA172" d="M50.759,62.536c-3.699-0.429-17.446-11.46-17.765-19.267c-0.587-6.161,11.698-8.688,15.118-2.257
		C52.441,47.254,55.644,61.9,50.759,62.536z M40.806,40.936c-11.098,1.04,4.446,13.925,8.443,16.827
		C48.861,53.079,47.633,41.562,40.806,40.936z"/>
	<path fill="#CCA172" d="M63.542,65.619c-13.502-0.658-19.658-5.136-4.511-13.013c4.512-2.488,10.663-4.965,14.34-2.642
		C79.86,55.455,73.95,66.832,63.542,65.619z M54.589,60.195c3.813,1.544,17.091,4.037,17.57-4.027
		c0.161-2.696-0.854-3.026-1.237-3.152C68.02,51.58,57.203,57.611,54.589,60.195z M53.577,61.197L53.577,61.197L53.577,61.197z"/>
	<path fill="#CCA172" d="M156.903,156.768l-3.06-2.307c1.536-2.038,14.897-20.366,10.861-35.99
		c-1.76-6.815-6.733-12.089-14.781-15.675c-8.428-3.757-13.476-8.419-15.433-14.252c-3.459-10.309,3.292-22.547,11.108-36.718
		c2.59-4.697,5.269-9.552,7.761-14.652c1.96-4.011,4.914-14.403-9.942-24.289C126.725,1.78,91.803-2.987,69.854,22.06
		c-8.321,9.495-10.798,19.641-12.606,27.049c-1.479,6.055-2.546,10.43-6.099,11.963l-1.517-3.517
		c1.802-0.778,2.725-4.563,3.895-9.354c1.903-7.793,4.508-18.465,13.448-28.664C88.212-4.7,124.294-4.44,145.541,9.698
		c12.056,8.021,16.266,18.921,11.263,29.158c-2.533,5.186-5.236,10.083-7.848,14.819c-7.381,13.381-13.754,24.935-10.831,33.65
		c1.596,4.761,5.967,8.676,13.361,11.972c9.166,4.085,14.863,10.214,16.93,18.217C172.9,134.874,158.555,154.578,156.903,156.768z"
		/>
	<path fill="#F67F15" d="M152.064,221.921l-36.585-13.442l-7.165-13.796l12.061-44.055l21.193-10.619l36.545,13.145l8.901,18.71
		l-15.604,42.802L152.064,221.921z"/>
	<path fill="#FFA600" d="M158.944,201.268c-12.204,6.132-29.011,4.072-34.423-10.47c-8.991-24.161,16.132-41.269,36.091-29.863
		C174.123,170.416,172.024,194.291,158.944,201.268z"/>
	<path opacity="0.2" fill="#4A4A49" d="M10.731,117.394c3.738-11.83,71.97-15.415,82.3-2.876c6.886,8.358-0.06,58.831-10.215,63.464
		c-7.461,3.404-52.814,2.662-59.215-3.723C17.2,167.874,6.993,129.224,10.731,117.394z"/>
</g>
<g id="Layer_1">
</g>
</svg>
