<?xml version="1.0" encoding="utf-8"?>
<!-- Generator: Adobe Illustrator 26.0.0, SVG Export Plug-In . SVG Version: 6.00 Build 0)  -->
<svg version="1.1" xmlns="http://www.w3.org/2000/svg" xmlns:xlink="http://www.w3.org/1999/xlink" x="0px" y="0px"
	 viewBox="0 0 315.55 234.511" enable-background="new 0 0 315.55 234.511" xml:space="preserve">
<g id="teapot">
	<g>
		<path fill="#82D8E8" d="M302.332,42.263c1.171-3.969,2.999-7.743,5.387-11.123c-25.22,2.686-37.699,29.294-41.251,51.838
			c-2.285,12.15-3.812,25.347-12.125,34.499c-10.533,11.559-29.331,13.112-43.49,7.12c-29.219-12.008-33.594-48.018-33.885-76.026
			l-69.251,2.689c0,0.004,0,0.009,0,0.014c-1.63,0.122-3.291,1.417-4.65,2.549c-7.327,6.108-19.099,8.764-26.052,2.234
			c-5.1-4.791-5.716-12.532-8.478-18.961c-48.943-69.588-125.897,83.004-0.245,146.147c5.807,7.087,13.679,14.659,24.175,21.159
			c-1.656,6.56-13.129,36.002,2.819,29.055c8.317-4.318,13.778-13.19,21.496-18.12c21.361,4.823,44.465,2.737,65.55-2.562
			c4.297,4.693,18.986,22.836,25.516,17.026c0.898-8.584-1.023-17.607-1.142-26.319c126.335-52.211,52.476-109.979,108.844-158.72
			C311.306,43.26,306.831,42.414,302.332,42.263z M74.852,129.531C24.247,143.142,9.404,76.058,25.866,53.222
			c5.829-7.275,18.241-9.79,24.35-2.753c6.946,8,1.934,22.297,9.576,29.634c5.386,5.171,14.062,3.966,21.159,6.284
			C108.122,96.855,92.752,125.376,74.852,129.531z"/>
		<path fill="#B6F4F8" d="M223.765,145.251c-8.225-6.792-20.864-4.873-28.571,0.386c-4.003,2.728-7.111,6.197-9.601,9.866
			c0.769-9.178-0.589-17.448-5.237-27.121c-1.852-3.854-4.08-7.517-6.236-11.062c-2.597-4.272-5.052-8.307-6.934-12.687
			c-8.156-18.962-7.145-40.866-4.99-55.49l-5.185,0.201c-2.146,15.247-2.968,37.654,5.484,57.305
			c2.024,4.71,4.688,9.087,7.265,13.322c2.091,3.44,4.252,6.994,5.994,10.618c2.775,5.778,4.249,10.962,4.741,16.226
			c-1.555-2.351-3.692-4.368-6.635-5.722c-8.322-3.828-18.048,0.317-23.361,6.383c-2.495,2.846-4.275,6.057-5.648,9.367
			c-0.513-2.328-1.229-4.636-2.263-6.857c-3.27-7.031-9.494-11.869-16.243-12.624c-7.667-0.84-16.036,3.833-20.323,11.406
			c-0.045,0.079-0.084,0.161-0.128,0.241c1.312-9.743,4.349-19.945,9.001-29.751c1.523-3.208,3.31-6.4,5.04-9.489
			c2.54-4.536,5.167-9.224,7.123-14.224c5.799-14.826,5.268-30.95,3.646-45.177l-5.114,0.199
			c1.582,13.689,2.166,29.182-3.288,43.119c-1.827,4.671-4.252,9.003-6.822,13.589c-1.77,3.163-3.602,6.433-5.197,9.795
			c-5.968,12.578-9.385,25.83-10.075,38.131c-0.997-1.438-2.116-2.813-3.417-4.085c-4.98-4.868-13.905-8.442-21.734-4.803
			c-9,4.185-11.011,15.119-9.895,23.957c0.567,4.481,1.671,8.885,3.254,13.129c3.545,4.306,7.858,8.783,13.052,13.091
			c-6.039-7.898-10.017-17.181-11.242-26.863c-0.892-7.049,0.474-15.66,6.984-18.688c5.376-2.502,12.128,0.027,16.011,3.826
			c3.441,3.363,5.544,7.785,7.205,12.334c0.368,3.642,1.013,7.136,1.954,10.424c3.462,12.096,9.286,27.034,18.759,38.862
			c2.557,0.501,5.149,0.84,7.758,1.07c-21.454-29.127-22.157-47.244-22.157-47.244c0.03-6.468,0.503-13.237,3.721-18.93
			c2.707-4.781,8.631-9.606,15.316-8.843c5.964,0.666,10.204,5.448,12.18,9.703c2.423,5.204,2.834,11.168,3.23,16.936l1.067,15.43
			l3.948-14.957c1.67-6.326,3.564-13.496,8.133-18.708c3.968-4.529,11.418-7.854,17.39-5.112c5.171,2.379,7.639,8.286,7.506,17.971
			c-0.552,2.728-1.242,5.602-2.053,8.693c-5.321,20.286-13.201,35.414-23.462,45.085c2.578-0.17,5.151-0.4,7.718-0.69
			c17.891-22.487,22.437-46.84,22.437-46.84c2.709-6.695,6.769-15.032,14.197-20.094c6.256-4.267,16.363-5.683,22.444-0.666
			c5.601,4.624,5.897,12.789,5.578,17.248c-0.875,12.177-6.601,25.659-16.266,35.736l6.112-2.676
			c10.965-10.948,14.749-25.814,15.243-32.694C231.86,157.414,229.226,149.76,223.765,145.251z"/>
		<path fill="#00BDD0" d="M177.282,48.63c-3.629-1.579-51.43-1.315-71.03,1.978c14.813,13.783,49.505,11.709,63.002,2.868
			C171.975,51.695,175.439,51.31,177.282,48.63z"/>
		<path fill="#82D8E8" d="M117.985,31.952c-7.549,8.392-13.989,7.669-24.734,11.13c-6.853,2.004-7.951,9.906,0.171,9.167
			c33.455-0.404,60.176-1.107,93.632-1.511c4.191,0.615,11.205-2.361,8.257-7.309c-23.053-4.644-34.195-11.75-39.368-34.449
			c-4.042-7.816-15.055-11.705-22.375-6.822C124.088,8.482,125.607,23.48,117.985,31.952z"/>
	</g>
</g>
<g id="Layer_1">
</g>
</svg>
