<?xml version="1.0" encoding="utf-8"?>
<!-- Generator: Adobe Illustrator 25.0.0, SVG Export Plug-In . SVG Version: 6.00 Build 0)  -->
<svg version="1.1" xmlns="http://www.w3.org/2000/svg" xmlns:xlink="http://www.w3.org/1999/xlink" x="0px" y="0px"
	 viewBox="0 0 166.703 199.816" enable-background="new 0 0 166.703 199.816" xml:space="preserve">
<g id="yogurt_x5F_container_x5F_blue">
	<g>
		<path fill="#B6F4F8" d="M22.458,192.178c1.168,1.023,26.277,7.508,53.322,7.635c31.654,0.15,65.957-6.221,67.62-7.221
			c3.084-1.855,21.157-157.236,18.548-159.911L4.865,32.142C1.712,35.065,19.923,189.957,22.458,192.178z"/>
		<path fill="#80D8E2" d="M60.207,65.18c31.035-10.056,70.215-0.176,78.122,34.356c13.136,57.373-52.277,88.201-95.764,56.231
			C13.727,130.15,26.807,76.872,60.207,65.18z"/>
		<path fill="#B6F4F8" d="M166.596,15.659L0.284,19.92C-0.387,20.534,0.342,35.03,0.342,35.03s4.481,15.295,85.007,13.672
			c47.631-0.961,74.849-11.46,80.28-15.94C165.629,32.763,167.108,16.171,166.596,15.659z"/>
		<path fill="#69B802" d="M76.825,124.459c1.257-9.388-10.256-16.971-23.494-14.552c-16.275,2.975-24.068,13.021-24.171,13.918
			c-0.056,0.491,7.211,10.439,21.52,14.448C58.26,140.397,74.681,140.469,76.825,124.459z"/>
		<path fill="#A3D02A" d="M75.114,126.338c1.448-8.443-5.953-14.093-15.686-14.458c-12.889-0.483-20.675,6.339-20.89,7.011
			c-0.117,0.366,3.628,8.103,14.285,14.293C58.131,136.266,73.245,137.245,75.114,126.338z"/>
		<path fill="#69B802" d="M93.489,119.411c7.716,3.005,16.536-5.21,17.213-16.957c0.831-14.441-6.094-23.136-6.836-23.409
			c-0.404-0.15-10.358,3.972-16.716,15.301C83.779,100.349,80.328,114.286,93.489,119.411z"/>
		<path fill="#A3D02A" d="M92.246,117.57c6.874,2.973,13.202-2.149,15.521-10.342c3.071-10.852-1.119-18.875-1.645-19.195
			c-0.287-0.175-7.633,1.41-15.092,9.187C87.316,101.092,83.366,113.73,92.246,117.57z"/>
		<path fill="#69B802" d="M89.973,143.478c-4.288-7.907-17.364-7.284-26.166,1.979c-10.823,11.388-11.182,23.455-10.76,24.202
			c0.231,0.408,11.374,3.975,24.594-0.953C84.646,166.093,97.285,156.962,89.973,143.478z"/>
		<path fill="#A3D02A" d="M89.711,145.877c-3.613-7.288-12.451-7.483-20.124-2.317c-10.16,6.841-12.317,16.43-12.106,17.066
			c0.115,0.347,7.317,4.187,18.957,2.974C82.234,162.995,94.378,155.292,89.711,145.877z"/>
		<path fill="#69B802" d="M74.674,106.489c9.611-5.236,8.824-21.149-2.469-31.84C58.32,61.505,43.634,61.096,42.726,61.613
			c-0.495,0.282-4.81,13.85,1.218,29.929C47.139,100.059,58.282,115.42,74.674,106.489z"/>
		<path fill="#A3D02A" d="M71.755,106.176c8.86-4.414,9.077-15.172,2.772-24.496C66.178,69.332,54.502,66.73,53.729,66.988
			c-0.421,0.141-5.078,8.914-3.575,23.077C50.903,97.118,60.307,111.878,71.755,106.176z"/>
		<path fill="#275F88" d="M75.082,123.878c-7.934,0.035-13.181-5.116-13.236-12.991c-0.057-8.221,6.148-14.047,15.037-14.116
			c7.519-0.059,12.193,4.816,12.241,12.768C89.177,118.268,83.72,123.84,75.082,123.878z"/>
		<path fill="#3F749A" d="M72.87,119.555c-5.846,0.025-9.713-3.77-9.754-9.573c-0.043-6.058,4.531-10.352,11.08-10.402
			c5.541-0.043,8.984,3.55,9.02,9.409C83.257,115.42,79.235,119.527,72.87,119.555z"/>
		<path fill="#54BDCF" d="M70.896,112.75c-3.07,0.013-5.1-1.979-5.121-5.026c-0.023-3.181,2.378-5.435,5.818-5.461
			c2.909-0.023,4.717,1.864,4.736,4.94C76.35,110.579,74.239,112.736,70.896,112.75z"/>
		<path fill="#275F88" d="M78.481,148.804c-7.934,0.035-13.181-5.116-13.236-12.991c-0.057-8.221,6.148-14.047,15.037-14.116
			c7.519-0.059,12.193,4.816,12.241,12.768C92.576,143.193,87.118,148.766,78.481,148.804z"/>
		<path fill="#3F749A" d="M76.268,144.48c-5.846,0.025-9.713-3.77-9.754-9.573c-0.043-6.058,4.531-10.352,11.08-10.402
			c5.541-0.043,8.984,3.55,9.02,9.409C86.655,140.346,82.633,144.453,76.268,144.48z"/>
		<path fill="#54BDCF" d="M74.295,137.676c-3.07,0.013-5.1-1.979-5.122-5.026c-0.023-3.181,2.378-5.435,5.818-5.461
			c2.909-0.023,4.717,1.864,4.736,4.94C79.749,135.504,77.637,137.661,74.295,137.676z"/>
		<path fill="#275F88" d="M93.519,133.589c-7.934,0.035-13.181-5.116-13.236-12.991c-0.057-8.222,6.148-14.047,15.037-14.116
			c7.519-0.059,12.193,4.816,12.241,12.768C107.615,127.978,102.156,133.551,93.519,133.589z"/>
		<path fill="#3F749A" d="M91.307,129.266c-5.846,0.025-9.713-3.77-9.754-9.573c-0.043-6.058,4.531-10.352,11.08-10.402
			c5.541-0.043,8.984,3.55,9.02,9.409C101.695,125.131,97.672,129.238,91.307,129.266z"/>
		<path fill="#54BDCF" d="M89.334,122.461c-3.07,0.013-5.1-1.979-5.121-5.026c-0.023-3.181,2.378-5.435,5.818-5.461
			c2.909-0.023,4.717,1.864,4.736,4.94C94.787,120.289,92.675,122.446,89.334,122.461z"/>
		<path fill="#275F88" d="M101.252,154.536c-7.934,0.035-13.181-5.116-13.236-12.991c-0.057-8.221,6.148-14.047,15.037-14.116
			c7.519-0.059,12.193,4.816,12.241,12.768C115.347,148.925,109.889,154.497,101.252,154.536z"/>
		<path fill="#3F749A" d="M99.04,150.212c-5.846,0.025-9.713-3.77-9.754-9.573c-0.043-6.058,4.531-10.352,11.08-10.402
			c5.541-0.043,8.984,3.55,9.02,9.409C109.426,146.078,105.404,150.185,99.04,150.212z"/>
		<path fill="#54BDCF" d="M97.066,143.407c-3.07,0.013-5.1-1.979-5.121-5.026c-0.023-3.181,2.378-5.435,5.818-5.461
			c2.909-0.023,4.717,1.864,4.736,4.94C102.52,141.236,100.408,143.393,97.066,143.407z"/>
		<path fill="#00BDD0" d="M110.771,29.794c1.281,10.876,6.898,28.514,22.508,26.018c13.79-2.205,16.165-18.355,14.746-30.404
			L110.771,29.794z"/>
		
			<ellipse transform="matrix(0.9996 -0.0292 0.0292 0.9996 -0.4881 2.4446)" fill="#31D8E2" cx="83.363" cy="17.917" rx="83.341" ry="17.755"/>
	</g>
</g>
<g id="Layer_1">
</g>
</svg>
