<?xml version="1.0" encoding="utf-8"?>
<!-- Generator: Adobe Illustrator 25.0.0, SVG Export Plug-In . SVG Version: 6.00 Build 0)  -->
<svg version="1.1" xmlns="http://www.w3.org/2000/svg" xmlns:xlink="http://www.w3.org/1999/xlink" x="0px" y="0px"
	 viewBox="0 0 118.912 246.52" enable-background="new 0 0 118.912 246.52" xml:space="preserve">
<g id="yogurt_x5F_carton_x5F_green">
	<g>
		<path fill="#85A50F" d="M101.948,18.113L99.792,0H17.824l0.165,16.053L101.948,18.113z"/>
		<path fill="#B5D700" d="M101.948,16.772c0,0,13.846,27.477,14.493,31.205c1.321,7.61,3.38,192.19,2.03,194.302
			c-1.259,1.971-84.902,4.682-89.374,4.18c-2.396-0.269-14.012-50.567-14.012-50.567L17.85,14.888L101.948,16.772z"/>
		<path fill="#CAEB74" d="M116.441,47.977c-0.647-3.728-14.493-31.205-14.493-31.205L17.85,14.888l10.201,35.068
			C28.051,49.956,116.529,48.481,116.441,47.977z"/>
		<path fill="#23813F" d="M30.17,49.956L0.086,34.502l3.303,190.326l25.794,21.631L30.17,49.956z"/>
		<path fill="#69B802" d="M0,34.502l30.17,15.454L17.85,14.888L0,34.502z"/>
		<path fill="#CAEB74" d="M98.207,174.025c-21.215,11.525-50.861,6.807-60.968-21.913c-16.792-47.717,26.703-80.229,62.269-57.068
			C123.654,114.173,120.929,160.881,98.207,174.025z"/>
		<g>
			<path fill="#A3D02A" d="M83.186,99.583c-2.204,2.109-6.887,6.584-7.049,6.553c-0.202-0.039-3.153-5.733-4.307-8.505
				c-1.148,3.011-3.668,9.588-3.864,9.629c-0.121,0.025-5.324-3.209-7.802-4.751c0.212,5.934,3.26,11.757,6.869,13.121
				c1.621,0.613,12.403-0.8,13.996-2.418C85.5,108.673,83.63,101.223,83.186,99.583z"/>
		</g>
		<g>
			<path fill="#EB4238" d="M104.043,125.952c-2.492-6.714-7.939-10.105-13.029-12.012c-11.835-4.434-40.076-1.585-44.821,11.336
				c-1.383,3.767-1.665,8.776-0.333,13.088c1.332,4.312,3.657,7.906,6.017,11.279c6.469,9.246,14.385,18.071,23.219,18.482
				c7.323,0.34,13.8-5.206,19.467-11.205c3.428-3.629,6.798-7.606,8.893-12.933C105.549,138.661,106.176,131.699,104.043,125.952z"
				/>
		</g>
		<path fill="#CC3129" d="M60.899,139.918c-1.955-6.166-2.164-13.284,1.308-18.741c2.702-4.248,7.173-6.879,11.778-9.08
			c-11.902,0.703-24.733,4.845-27.793,13.179c-1.383,3.767-1.665,8.776-0.333,13.088s3.657,7.906,6.017,11.279
			c6.469,9.246,14.385,18.071,23.219,18.482c3.956,0.184,7.664-1.352,11.131-3.746C74.602,160.763,64.599,151.583,60.899,139.918z"
			/>
		<path fill="#F77F15" d="M86.585,120.644c-0.208-1.633-1.163-2.608-2.41-2.459c-1.302,0.156-2.056,1.552-1.828,3.383
			c0.193,1.549,1.089,2.411,2.348,2.258C86.077,123.66,86.812,122.423,86.585,120.644z"/>
		<path fill="#F77F15" d="M68.195,123.422c-0.208-1.633-1.163-2.608-2.41-2.459c-1.302,0.156-2.056,1.552-1.828,3.383
			c0.193,1.549,1.089,2.411,2.348,2.258C67.687,126.438,68.421,125.201,68.195,123.422z"/>
		<path fill="#F77F15" d="M77.401,131.678c-0.208-1.633-1.129-2.613-2.322-2.47c-1.246,0.149-1.961,1.54-1.732,3.371
			c0.194,1.549,1.057,2.415,2.262,2.27C76.931,134.688,77.628,133.456,77.401,131.678z"/>
		<path fill="#F77F15" d="M97.361,129.661c-0.208-1.633-1.129-2.613-2.322-2.47c-1.246,0.149-1.961,1.54-1.732,3.371
			c0.194,1.549,1.057,2.415,2.262,2.27C96.891,132.672,97.588,131.44,97.361,129.661z"/>
		<path fill="#F77F15" d="M65.355,137.059c-0.206-1.618-1.126-2.588-2.319-2.445c-1.246,0.149-1.962,1.528-1.736,3.342
			c0.192,1.534,1.054,2.392,2.259,2.246C64.882,140.043,65.58,138.821,65.355,137.059z"/>
		<path fill="#F77F15" d="M54.294,130.09c-0.194-1.53-1.106-2.44-2.299-2.297c-1.246,0.15-1.971,1.46-1.758,3.175
			c0.18,1.451,1.036,2.256,2.241,2.11C53.8,132.917,54.506,131.756,54.294,130.09z"/>
		<path fill="#F77F15" d="M76.874,147.3c-0.194-1.53-1.106-2.44-2.299-2.297c-1.246,0.15-1.971,1.46-1.758,3.175
			c0.181,1.451,1.036,2.256,2.241,2.11C76.379,150.127,77.085,148.966,76.874,147.3z"/>
		<path fill="#F77F15" d="M88.44,140.372c-0.194-1.53-1.106-2.44-2.299-2.297c-1.246,0.15-1.971,1.46-1.758,3.175
			c0.18,1.451,1.036,2.256,2.241,2.11C87.946,143.199,88.652,142.038,88.44,140.372z"/>
		<path fill="#F77F15" d="M98.692,142.753c-0.159-1.247-0.902-1.989-1.874-1.872c-1.015,0.122-1.607,1.19-1.433,2.588
			c0.147,1.182,0.844,1.839,1.826,1.72C98.289,145.057,98.865,144.111,98.692,142.753z"/>
		<path fill="#F77F15" d="M89.245,152.702c-0.158-1.243-0.899-1.983-1.869-1.867c-1.012,0.122-1.602,1.187-1.429,2.58
			c0.147,1.179,0.842,1.833,1.821,1.714C88.843,155,89.417,154.056,89.245,152.702z"/>
		<path fill="#F77F15" d="M57.552,144.782c-0.162-1.275-0.922-2.033-1.916-1.914c-1.038,0.125-1.642,1.216-1.465,2.645
			c0.15,1.209,0.863,1.88,1.867,1.758C57.14,147.137,57.728,146.17,57.552,144.782z"/>
		<path fill="#F77F15" d="M66.761,154.05c-0.162-1.275-0.922-2.033-1.916-1.914c-1.038,0.125-1.642,1.216-1.465,2.645
			c0.15,1.209,0.863,1.88,1.867,1.758C66.349,156.405,66.937,155.438,66.761,154.05z"/>
		<path fill="#F77F15" d="M78.186,159.868c-0.162-1.275-0.922-2.033-1.916-1.914c-1.038,0.125-1.642,1.216-1.465,2.645
			c0.15,1.209,0.863,1.88,1.867,1.758C77.774,162.223,78.362,161.256,78.186,159.868z"/>
	</g>
</g>
<g id="Layer_1">
</g>
</svg>
