<?xml version="1.0" encoding="utf-8"?>
<!-- Generator: Adobe Illustrator 24.2.3, SVG Export Plug-In . SVG Version: 6.00 Build 0)  -->
<svg version="1.1" xmlns="http://www.w3.org/2000/svg" xmlns:xlink="http://www.w3.org/1999/xlink" x="0px" y="0px"
	 viewBox="0 0 513.854 257.346" enable-background="new 0 0 513.854 257.346" xml:space="preserve">
<g id="hedgehog_x5F_body">
	<g id="siili_x5F_kroppa_4_">
		<path fill="#935803" d="M513.854,235.017c0-7.973-16.561-12.011-26.212-15.271c8.925-5.772,21.978-13.578,20.197-20.348
			c-1.506-5.722-25.823-14.367-31.052-15.282c8.296-7.324,21.898-20.772,16.659-25.347c-7.795-8.098-23.963-8.486-33.603-9.158
			c7.707-7.292,17.394-21.714,16.577-25.599c-2.419-5.398-9.497-6.555-14.844-7.627c-5.915-0.983-15.104-0.678-20.265-0.392
			c6.784-8.505,18.455-26.226,12.137-29.663c-9.322-6.155-23.91-3.408-33.854-2.063c4.708-9.436,8.798-27.079,6.592-30.486
			c-4.193-4.168-11.219-2.708-16.593-1.789c-5.869,1.206-14.328,4.785-19.044,6.905c2.266-10.553,4.665-32.246-2.596-32.416
			c-10.993-1.149-21.952,7.295-30.372,13.084c0.378-10.512-3.335-28.479-6.792-30.662c-10.82-3.094-23.62,12.472-29.984,19.335
			c-2.017-10.452-8.326-25.552-11.892-26.982c-10.942-1.118-20.597,15.918-25.622,23.816C279.438,15.197,269.595,0.693,265.667,0
			c-11.417,1.221-17.533,21.558-20.72,30.125C238.9,21.815,223.871,7.67,219.129,10.1c-10.382,5.321-9.978,26.465-10.355,35.513
			c-8.26-6.499-25.026-14.104-28.833-12.592c-8.686,6.695-3.99,25.586-2.209,34.769c-10.344-4.165-28.466-10.359-30.273-3.593
			c-4.981,8.953,6.723,33.984,8.097,36.824c0.443-0.538,94.938,154.107,94.938,154.107l236.37,1.866
			C486.929,257.278,513.854,247.697,513.854,235.017z"/>
		<path fill="#F1D2B3" d="M290.051,255.44c-23.128-10.537-58.07-34.818-58.204-71.14l-0.003,0.001
			c0.151-4.235-0.087-8.69-0.66-13.198c37.32,0.052,22.516-60.16-12.827-37.216c-26.154-38.285-80.538-43.559-116.886-20.859
			c-10.603,6.557-20.286,15.598-31.186,21.249c-10.9,5.651-23.868,7.481-33.815-0.381c-4.073-3.22-8.014-8.129-12.777-7.437
			c-10.909,2.96-9.155,20.535-5.572,29.163C36.513,223.8,90.663,262.161,151.466,256.861l-0.001,0.001L290.051,255.44z"/>
		<path fill="#F5A09B" d="M182.171,228.33c-21.082,20.957-53.423,3.691-46.679-26.175c2.461-11.104,11.337-17.971,23.539-19.256
			C189.454,179.694,194.371,216.47,182.171,228.33z"/>
		<path fill="#505252" d="M31.685,129.359c-1.957,9.412-9.086,14.792-17.052,13.388c-8.46-1.49-16.61-9.93-14.206-18.736
			c2.289-8.38,9.486-14.614,18.853-12.965C29.308,112.811,33.177,121.531,31.685,129.359z"/>
		<path fill="#935803" d="M164.135,81.859c-6.621,7.298-14.923,29.303-11.987,32.665c5.348,6.125,23.275,1.76,34.983-0.977
			c-5.044,8.759-9.434,20.215-8.157,23.237c3.401,4.836,10.579,4.619,16.028,4.65c8.714-0.241,23.356-7.547,23.356-7.547
			l-15.401-31.215L164.135,81.859z"/>
	</g>
	<path fill="#BF7900" d="M286.021,164.825c-1.409-1.035,14.69-25.978,17.572-25.978c3.148,0,18.086,23.468,18.086,25.514
		C321.299,166.394,288.491,166.261,286.021,164.825z"/>
	<path fill="#BF7900" d="M255.26,205.096c-1.409-1.035,14.69-25.978,17.572-25.978c3.148,0,18.086,23.468,18.086,25.514
		C290.538,206.665,257.729,206.532,255.26,205.096z"/>
	<path fill="#BF7900" d="M296.189,241.317c-1.409-1.035,14.69-25.978,17.572-25.978c3.148,0,18.086,23.468,18.086,25.514
		C331.467,242.886,298.658,242.753,296.189,241.317z"/>
	<path fill="#BF7900" d="M323.346,205.841c-1.409-1.035,14.69-25.978,17.572-25.978c3.148,0,18.086,23.468,18.086,25.514
		C358.624,207.41,325.816,207.277,323.346,205.841z"/>
	<path fill="#BF7900" d="M373.495,237.042c-1.409-1.035,14.69-25.978,17.572-25.978c3.148,0,18.086,23.468,18.086,25.514
		C408.773,238.611,375.964,238.478,373.495,237.042z"/>
	<path fill="#BF7900" d="M443.274,237.716c-1.409-1.035,14.69-25.978,17.572-25.978c3.148,0,18.086,23.468,18.086,25.514
		C478.552,239.285,445.744,239.152,443.274,237.716z"/>
	<path fill="#BF7900" d="M371.546,190.603c-1.409-1.035,14.69-25.978,17.572-25.978c3.148,0,18.086,23.468,18.086,25.514
		C406.824,192.172,374.016,192.039,371.546,190.603z"/>
	<path fill="#BF7900" d="M423.327,196.659c-1.409-1.035,14.69-25.978,17.572-25.978c3.148,0,18.086,23.468,18.086,25.514
		C458.605,198.228,425.797,198.095,423.327,196.659z"/>
	<path fill="#BF7900" d="M411.063,145.87c-1.409-1.035,14.69-25.978,17.572-25.978c3.148,0,18.086,23.468,18.086,25.514
		C446.341,147.439,413.532,147.306,411.063,145.87z"/>
	<path fill="#BF7900" d="M351.031,144.165c-1.409-1.035,14.69-25.978,17.572-25.978c3.148,0,18.086,23.468,18.086,25.514
		C386.309,145.734,353.501,145.601,351.031,144.165z"/>
	<path fill="#BF7900" d="M374.529,106.052c-1.409-1.035,14.69-25.978,17.572-25.978c3.148,0,18.086,23.468,18.086,25.514
		C409.807,107.62,376.999,107.488,374.529,106.052z"/>
	<path fill="#BF7900" d="M298.564,119.577c-1.409-1.035,14.69-25.978,17.572-25.978c3.148,0,18.086,23.468,18.086,25.514
		C333.842,121.145,301.034,121.013,298.564,119.577z"/>
	<path fill="#BF7900" d="M325.891,77.528c-1.409-1.035,14.69-25.978,17.572-25.978c3.148,0,18.086,23.468,18.086,25.514
		C361.169,79.097,328.361,78.964,325.891,77.528z"/>
	<path fill="#BF7900" d="M263.089,72.021c-1.409-1.035,14.69-25.978,17.572-25.978c3.148,0,18.086,23.468,18.086,25.514
		C298.367,73.59,265.559,73.457,263.089,72.021z"/>
	<path fill="#BF7900" d="M239.122,115.124c-1.409-1.035,14.69-25.978,17.572-25.978c3.148,0,18.086,23.468,18.086,25.514
		C274.4,116.693,241.591,116.56,239.122,115.124z"/>
	<path fill="#BF7900" d="M194.594,80.472c-1.409-1.035,14.69-25.978,17.572-25.978c3.148,0,18.086,23.468,18.086,25.514
		C229.872,82.041,197.063,81.908,194.594,80.472z"/>
</g>
<g id="Layer_1">
</g>
</svg>
