<?xml version="1.0" encoding="utf-8"?>
<!-- Generator: Adobe Illustrator 24.2.3, SVG Export Plug-In . SVG Version: 6.00 Build 0)  -->
<svg version="1.1" xmlns="http://www.w3.org/2000/svg" xmlns:xlink="http://www.w3.org/1999/xlink" x="0px" y="0px"
	 viewBox="0 0 368.748 370.142" enable-background="new 0 0 368.748 370.142" xml:space="preserve">
<g id="hedgehog_x5F_ball">
	<g>
		<g id="siili_x5F_pallo_4_">
			<path fill="#935803" d="M368.748,171.816c-1.15-12.506-25.208-19.429-32.175-22.248c-0.017-0.08-0.035-0.161-0.051-0.241
				c40.143-25.568,24.079-33.419-10.603-38.601c7.481-7.243,17.406-23.562,16.33-27.599c-7.12-10.441-27.665-6.525-37.182-5.949
				c5.335-9.041,10.632-26.779,8.611-30.356c-8.191-9.045-34.695,2.664-39.432,4.345c2.488-10.225,2.486-28.535-0.454-31.37
				c-11.493-5.234-26.903,8.601-34.822,14.053c-0.443-10.454-5.815-28.432-9.497-30.324c-12.523-1.754-23.537,16.312-29.429,23.685
				C197.328,17.019,188.732,1.096,184.826,0c-12.636,0.7-20.066,21.213-24.222,29.375c-4.564-9.316-17.25-23.9-21.452-24.097
				c-12.157,3.519-14.788,25.182-17.002,34.066c-7.421-7.555-22.299-17.047-26.195-16.125c-10.586,6.861-7.32,26.993-7.021,36.719
				c-0.071,0.057-0.144,0.114-0.215,0.171c-42.618-21.656-40.094-2.582-27.487,29.032c-0.087,0.119-0.174,0.237-0.262,0.356
				c-9.895-3.356-28.704-4.802-31.799-2.037c-6.442,10.861,7.911,29.738,12.128,36.82c-0.01,0.024-0.019,0.048-0.029,0.071
				c-48.028,0.744-37.623,16.358-10.936,38.629c-0.004,0.027-0.008,0.055-0.013,0.082c-10.181,1.112-28.729,8.633-30.296,12.622
				c-0.889,12.588,20.571,23.069,27.452,27.442c-42.23,21.521-26.499,30.673,6.925,39.285
				c-34.176,32.279-15.954,35.923,17.678,35.439c-21.411,41.169-4.023,40.256,28.084,27.956c-3.268,9.896-4.503,28.901-1.685,31.976
				c11.146,5.946,27.466-6.974,35.669-11.908c-1.441,10.149,1.23,29.938,4.701,32.445c12.042,3.863,26.905-13.681,33.197-19.554
				c1.348,10.324,8.526,28.032,12.41,29.577c12.636,0.569,21.956-18.64,27.064-26.482c0.068,0,0.136,0.001,0.204,0.001
				c2.564,9.745,13.446,27.397,17.724,28.283c12.57-1.452,18.839-23.213,22.253-31.3c5.519,8.846,19.307,21.942,23.47,21.745
				c11.775-4.637,12.372-26.504,13.738-35.534c7.845,6.925,24.523,15.509,28.438,14.167c10.09-7.63,4.361-29.734,3.187-38.34
				c45.345,14.265,38.895-4.43,22.077-33.078c0.031-0.064,0.06-0.13,0.09-0.194c49.089,3.076,37.326-14.067,13.33-38.07
				c10.371-0.637,28.633-6.68,30.434-10.468c1.855-12.454-19.335-24.738-25.639-29.368
				C350.594,186.954,367.901,176.067,368.748,171.816z"/>
		</g>
		<path fill="#BF7900" d="M167.748,61.853c-1.409-1.035,14.69-25.978,17.572-25.978c3.148,0,18.086,23.468,18.086,25.514
			C203.026,63.421,170.218,63.289,167.748,61.853z"/>
		<path fill="#BF7900" d="M228.202,67.501c-0.312-1.72,28.526-8.769,30.62-6.787c2.286,2.164-2.997,29.477-4.404,30.963
			C252.745,92.891,229.009,70.242,228.202,67.501z"/>
		<path fill="#BF7900" d="M269.085,96.841c0.057-1.747,29.734-2.558,31.362-0.18c1.779,2.597-9.144,28.182-10.832,29.339
			C287.723,126.835,269.295,99.69,269.085,96.841z"/>
		<path fill="#BF7900" d="M304.598,162.465c1.291-1.179,22.598,19.493,22.034,22.319c-0.616,3.087-26.556,13.14-28.562,12.739
			C296.151,196.753,302.706,164.605,304.598,162.465z"/>
		<path fill="#BF7900" d="M294.103,213.37c1.718-0.323,8.954,28.469,6.986,30.575c-2.149,2.3-29.496-2.805-30.991-4.202
			C268.873,238.077,291.368,214.194,294.103,213.37z"/>
		<path fill="#BF7900" d="M279.901,251.835c1.718-0.323,8.954,28.469,6.986,30.575c-2.149,2.3-29.496-2.805-30.991-4.202
			C254.671,276.542,277.166,252.659,279.901,251.835z"/>
		<path fill="#BF7900" d="M240.61,279.778c1.737-0.195,6.822,29.053,4.704,31.008c-2.313,2.135-29.207-4.981-30.595-6.485
			C213.62,302.549,237.822,280.397,240.61,279.778z"/>
		<path fill="#BF7900" d="M196.918,306.861c1.419,1.021-14.434,26.121-17.316,26.149c-3.148,0.031-18.316-23.289-18.336-25.336
			C161.626,305.638,194.434,305.449,196.918,306.861z"/>
		<path fill="#BF7900" d="M142.877,302.005c0.361,1.71-28.265,9.577-30.414,7.656c-2.347-2.098,2.157-29.55,3.521-31.076
			C117.622,277.323,141.993,299.289,142.877,302.005z"/>
		<path fill="#BF7900" d="M103.798,282.467c0.361,1.71-28.265,9.577-30.414,7.656c-2.347-2.098,2.157-29.55,3.521-31.076
			C78.543,257.786,102.914,279.751,103.798,282.467z"/>
		<path fill="#BF7900" d="M78.029,239.98c0.361,1.71-28.265,9.577-30.414,7.656c-2.347-2.098,2.157-29.55,3.521-31.076
			C52.774,215.299,77.145,237.264,78.029,239.98z"/>
		<path fill="#BF7900" d="M65.372,201.057c-1.071,1.382-25.585-15.364-25.51-18.245c0.082-3.147,23.933-17.466,25.978-17.413
			C67.862,165.832,66.872,198.626,65.372,201.057z"/>
		<path fill="#BF7900" d="M74.441,149.947c-1.071,1.382-25.585-15.364-25.51-18.245c0.082-3.147,23.933-17.466,25.978-17.413
			C76.931,114.722,75.941,147.516,74.441,149.947z"/>
		<path fill="#BF7900" d="M85.282,110.382c-1.747,0.073-4.775-29.459-2.525-31.261c2.457-1.968,28.787,7.01,30.067,8.607
			C113.797,89.552,88.107,109.959,85.282,110.382z"/>
		<path fill="#BF7900" d="M133.126,96.877c-1.732,0.235-7.483-28.89-5.41-30.893c2.264-2.187,29.313,4.313,30.735,5.785
			C159.589,73.495,135.9,96.194,133.126,96.877z"/>
		<path fill="#BF7900" d="M159.161,105.562c-1.359-1.099,15.886-25.264,18.766-25.129c3.144,0.147,16.971,24.287,16.875,26.331
			C194.327,108.776,161.561,107.112,159.161,105.562z"/>
		<path fill="#BF7900" d="M207.502,123.054c-1.409-1.035,14.69-25.978,17.572-25.978c3.148,0,18.086,23.468,18.086,25.514
			C242.78,124.623,209.971,124.49,207.502,123.054z"/>
		<path fill="#BF7900" d="M270.765,128.616c1.036-1.408,25.968,14.707,25.967,17.589c-0.002,3.148-23.48,18.071-25.526,18.069
			C269.174,163.893,269.328,131.085,270.765,128.616z"/>
		<path fill="#BF7900" d="M264.991,174.905c1.718-0.323,8.954,28.469,6.986,30.575c-2.149,2.3-29.496-2.805-30.991-4.202
			C239.761,199.612,262.256,175.729,264.991,174.905z"/>
		<path fill="#BF7900" d="M206.987,150.407c-0.195-1.737,29.055-6.815,31.009-4.696c2.134,2.314-4.989,29.206-6.493,30.593
			C229.752,177.403,207.606,153.196,206.987,150.407z"/>
		<path fill="#BF7900" d="M135.125,143.659c-1.359-1.099,15.886-25.264,18.766-25.129c3.144,0.147,16.971,24.287,16.875,26.331
			C170.292,146.873,137.525,145.209,135.125,143.659z"/>
		<path fill="#BF7900" d="M97.062,160.442c-1.721,0.308-8.696-28.549-6.709-30.637c2.17-2.281,29.469,3.073,30.951,4.483
			C122.515,135.965,99.804,159.643,97.062,160.442z"/>
		<path fill="#BF7900" d="M117.626,207.713c-1.071,1.382-25.585-15.364-25.51-18.245c0.082-3.147,23.933-17.466,25.978-17.413
			C120.116,172.488,119.126,205.282,117.626,207.713z"/>
		<path fill="#BF7900" d="M121.862,241.696c0.361,1.71-28.265,9.577-30.414,7.656c-2.347-2.098,2.157-29.55,3.521-31.076
			C96.607,217.015,120.978,238.98,121.862,241.696z"/>
		<path fill="#BF7900" d="M174.283,270.379c1.419,1.021-14.434,26.121-17.316,26.149c-3.148,0.031-18.316-23.289-18.336-25.336
			C138.992,269.156,171.8,268.967,174.283,270.379z"/>
		<path fill="#BF7900" d="M240.61,233.144c1.737-0.195,6.822,29.053,4.704,31.008c-2.313,2.135-29.207-4.981-30.595-6.485
			C213.62,255.916,237.822,233.764,240.61,233.144z"/>
		<path fill="#BF7900" d="M211.747,239.214c1.419,1.021-14.434,26.121-17.316,26.149c-3.148,0.031-18.316-23.289-18.336-25.336
			C176.455,237.992,209.263,237.802,211.747,239.214z"/>
		<path fill="#BF7900" d="M217.344,186.701c1.737-0.195,6.822,29.053,4.704,31.008c-2.313,2.135-29.207-4.981-30.595-6.485
			C190.354,209.472,214.556,187.32,217.344,186.701z"/>
		<path fill="#BF7900" d="M162.153,190.635c-1.721,0.308-8.696-28.549-6.709-30.637c2.17-2.281,29.469,3.073,30.951,4.483
			C187.606,166.158,164.896,189.836,162.153,190.635z"/>
		<path fill="#BF7900" d="M172.18,224.266c0.361,1.71-28.265,9.577-30.414,7.656c-2.347-2.098,2.157-29.55,3.521-31.076
			C146.925,199.585,171.296,221.55,172.18,224.266z"/>
	</g>
</g>
<g id="Layer_1">
</g>
</svg>
