<?xml version="1.0" encoding="utf-8"?>
<!-- Generator: Adobe Illustrator 26.0.3, SVG Export Plug-In . SVG Version: 6.00 Build 0)  -->
<svg version="1.1" xmlns="http://www.w3.org/2000/svg" xmlns:xlink="http://www.w3.org/1999/xlink" x="0px" y="0px"
	 viewBox="0 0 171.266 152.016" enable-background="new 0 0 171.266 152.016" xml:space="preserve">
<g id="arrow_x5F_circle_x5F_reset_x5F_icon_x5F_white">
	<path fill="#FFFFFF" d="M158.692,1779.518c-1.715-0.262-20.274,20.191-20.274,20.191c-50.552-51.404-147.161-20.752-137.781,64.294
		c14.44,77.454,119.297,81.422,146.032,21.103c-7.845-2.365-23.685-7.14-31.545-9.509c-16.798,28.7-69.625,23.835-76.777-15.839
		c-3.868-37.068,29.791-59.141,56.913-48.933c16.551,6.23,24.376,15.214,24.376,15.214s-19.278,24.754-18.411,25.969
		c0.868,1.215,64.342,2.412,69.301-2.182C174.236,1846.39,163.035,1788.513,158.692,1779.518z"/>
</g>
<g id="Layer_1">
</g>
</svg>
