<?xml version="1.0" encoding="utf-8"?>
<!-- Generator: Adobe Illustrator 24.2.3, SVG Export Plug-In . SVG Version: 6.00 Build 0)  -->
<svg version="1.1" id="Layer_1" xmlns="http://www.w3.org/2000/svg" xmlns:xlink="http://www.w3.org/1999/xlink" x="0px" y="0px"
	 viewBox="0 0 170 170" style="enable-background:new 0 0 170 170;" xml:space="preserve">
<style type="text/css">
	.st0{fill:#00A2DB;}
	.st1{fill:#3D3D3C;}
</style>
<g id="sad_x5F_blue">
	<g>
		<g>
			<g>
				<g>
					<circle class="st0" cx="85" cy="85" r="85"/>
				</g>
			</g>
		</g>
		<path class="st1" d="M84.9,111.8c-17.3-0.5-30.3,14.3-34.9,19.4c3.3-16.1,20-28.3,34.9-28.2c16-0.1,29.4,8.2,35.1,28
			C115.3,126,105.9,111.7,84.9,111.8z"/>
		<path class="st1" d="M137.1,71.8c-4.8-6.3-12.3-6.2-16.8,0.3c-4.5,6.5-4.3,16.9,0.5,23.2c4.8,6.3,12.3,6.2,16.8-0.3
			C142.1,88.5,141.9,78.1,137.1,71.8z"/>
		<path class="st1" d="M46.9,71.8c-4.8-6.3-12.3-6.2-16.8,0.3c-4.5,6.5-4.3,16.9,0.5,23.2c4.8,6.3,12.3,6.2,16.8-0.3
			C51.9,88.5,51.6,78.1,46.9,71.8z"/>
	</g>
</g>
<g id="Layer_1_1_">
</g>
</svg>
