<?xml version="1.0" encoding="utf-8"?>
<!-- Generator: Adobe Illustrator 26.0.3, SVG Export Plug-In . SVG Version: 6.00 Build 0)  -->
<svg version="1.1" xmlns="http://www.w3.org/2000/svg" xmlns:xlink="http://www.w3.org/1999/xlink" x="0px" y="0px"
	 viewBox="0 0 307.009 271.359" enable-background="new 0 0 307.009 271.359" xml:space="preserve">
<g id="emoji_x5F_poop">
	<path fill="#894400" d="M290.268,176.184c17.348,17.176,26.775,50.547,0.059,70.584c-42.597,31.948-216.278,35.696-275.626-6.264
		c-18.014-12.736-20.672-51.993-1.253-70.159C56.067,130.476,246.638,132.988,290.268,176.184z"/>
	<path fill="#A45700" d="M260.614,114.039c1.745,3.379,11.539,47.759-1.313,57.141c-32.286,26.754-175.857,35.18-212.859-3.658
		c-7.547-6.765-11.45-46.114-1.415-56.237C73.898,72.12,231.344,71.59,260.614,114.039z"/>
	<g>
		<path fill="#D47A00" d="M206.001,34.431C187.982,16.15,161.938,3.67,134.146,0l2.417,4.453c-6.959,12-16.144,23.074-27.114,32.691
			C97.589,47.54,82.83,57.497,80.194,71.774c-2.183,11.826,5.129,23.892,16.002,31.547s24.817,11.491,38.715,13.711
			c16.894,2.699,34.674,3.205,50.998-1.361c16.324-4.566,31.015-14.786,36.585-28.551C229.767,69.145,220.381,49.021,206.001,34.431
			z"/>
	</g>
</g>
<g id="Layer_1">
</g>
</svg>
