<?xml version="1.0" encoding="utf-8"?>
<!-- Generator: Adobe Illustrator 24.2.3, SVG Export Plug-In . SVG Version: 6.00 Build 0)  -->
<svg version="1.1" xmlns="http://www.w3.org/2000/svg" xmlns:xlink="http://www.w3.org/1999/xlink" x="0px" y="0px"
	 viewBox="0 0 170 170" enable-background="new 0 0 170 170" xml:space="preserve">
<g id="happy_x5F_yellow">
	<g>
		<g>
			<g>
				<g>
					<circle fill="#F9D214" cx="85" cy="85" r="85"/>
				</g>
			</g>
		</g>
		<path fill="#3D3D3C" d="M85.06,124.427c17.303,0.544,30.31-14.332,34.917-19.367c-3.316,16.1-19.974,28.257-34.89,28.249
			c-15.985,0.104-29.423-8.192-35.066-28.031C54.661,110.286,64.069,124.589,85.06,124.427z"/>
		<path fill="#3D3D3C" d="M137.154,63.401c-4.765-6.33-12.289-6.183-16.805,0.326c-4.515,6.509-4.314,16.918,0.451,23.246
			c4.765,6.33,12.289,6.183,16.805-0.326C142.121,80.138,141.918,69.731,137.154,63.401z"/>
		<path fill="#3D3D3C" d="M46.943,62.649c-4.765-6.33-12.289-6.183-16.805,0.326c-4.515,6.509-4.314,16.918,0.451,23.246
			c4.765,6.33,12.289,6.183,16.805-0.326C51.909,79.386,51.707,68.979,46.943,62.649z"/>
	</g>
</g>
<g id="Layer_1">
</g>
</svg>
