<?xml version="1.0" encoding="utf-8"?>
<!-- Generator: Adobe Illustrator 24.2.3, SVG Export Plug-In . SVG Version: 6.00 Build 0)  -->
<svg version="1.1" xmlns="http://www.w3.org/2000/svg" xmlns:xlink="http://www.w3.org/1999/xlink" x="0px" y="0px"
	 viewBox="0 0 170 170" enable-background="new 0 0 170 170" xml:space="preserve">
<g id="angry_x5F_red">
	<g>
		<g>
			<g>
				<g>
					<circle fill="#EB4238" cx="85" cy="85" r="85"/>
				</g>
			</g>
		</g>
		<path fill="#3D3D3C" d="M84.93,108.418c-17.021-0.643-29.806,16.672-34.336,22.533c3.252-18.746,19.631-32.893,34.303-32.876
			c15.724-0.112,28.947,9.556,34.509,32.661C114.841,124.903,105.578,108.241,84.93,108.418z"/>
		<path fill="#3D3D3C" d="M137.096,79.325c-4.765-6.33-12.289-6.183-16.805,0.326c-4.515,6.509-4.314,16.918,0.451,23.246
			c4.765,6.33,12.289,6.183,16.805-0.326C142.062,96.062,141.859,85.655,137.096,79.325z"/>
		<path fill="#3D3D3C" d="M46.884,79.325c-4.765-6.33-12.289-6.183-16.805,0.326c-4.515,6.509-4.314,16.918,0.451,23.246
			c4.765,6.33,12.289,6.183,16.805-0.326C51.851,96.062,51.648,85.655,46.884,79.325z"/>
		<path fill="#3D3D3C" d="M120.806,72.794c12.464-6.531,20.445-18.067,20.772-23.116c0.284-4.384-31.807,14.074-39.85,18.519
			C96.109,73.222,107.297,79.872,120.806,72.794z"/>
		<path fill="#3D3D3C" d="M48.804,72.794C36.34,66.263,28.359,54.727,28.032,49.678c-0.284-4.384,31.807,14.074,39.85,18.519
			C73.502,73.222,62.314,79.872,48.804,72.794z"/>
	</g>
</g>
<g id="Layer_1">
</g>
</svg>
