<?xml version="1.0" encoding="utf-8"?>
<!-- Generator: Adobe Illustrator 27.0.0, SVG Export Plug-In . SVG Version: 6.00 Build 0)  -->
<svg version="1.1" xmlns="http://www.w3.org/2000/svg" xmlns:xlink="http://www.w3.org/1999/xlink" x="0px" y="0px"
	 viewBox="0 0 170 169.971" enable-background="new 0 0 170 169.971" xml:space="preserve">
<g id="emoji_x5F_swear">
	<circle fill="#FF8000" cx="84.713" cy="84.971" r="85"/>
	<path fill="#3D3D3C" d="M135.417,63.894c-4.765-6.33-12.289-6.183-16.805,0.326c-4.515,6.509-4.314,16.918,0.451,23.246
		c4.765,6.33,12.289,6.183,16.805-0.326C140.383,80.631,140.18,70.224,135.417,63.894z"/>
	<path fill="#3D3D3C" d="M51.407,63.894c-4.765-6.33-12.289-6.183-16.805,0.326c-4.515,6.509-4.314,16.918,0.451,23.246
		c4.765,6.33,12.289,6.183,16.805-0.326C56.374,80.631,56.171,70.224,51.407,63.894z"/>
	<path fill="#3D3D3C" d="M123.532,34.162c-12.889,5.646-21.655,16.598-22.333,21.612c-0.419,3.094,34.745-12.769,41.044-15.697
		C148.199,35.456,137.502,28.042,123.532,34.162z"/>
	<path fill="#3D3D3C" d="M45.912,34.227c12.853,5.728,21.549,16.735,22.196,21.753c0.561,4.357-32.635-12.029-40.944-15.956
		C21.237,35.366,31.981,28.02,45.912,34.227z"/>
	<path fill="#3D3D3C" d="M17.181,159.196c-4.163,0.253-9.829-0.462-12.912-4.663c-2.864-4.597-9.137-36.022-1.383-41.626
		c8.163-5.345,13.237-3.713,25.096-5.402c12.566-1.285,108.492-14.521,132.387-14.163c3.65-0.06,9.871-0.485,12.896,2.915
		c7.393,9.184,8.602,43.045,0.249,49.07c-4.349,4.04-8.478,3.774-10.757,4.179C147.664,151.602,57.103,158.347,17.181,159.196z"/>
	<path fill="#FFFFFF" d="M21.541,113.525c1.888,8.813,3.71,16.504,5.827,25.028l-10.449,3.266
		c-2.264-7.171-4.758-14.707-7.845-24.562L21.541,113.525z"/>
	<path fill="#FFFFFF" d="M25.583,153.287c-1.244,0.278-2.407,0.043-3.489-0.705c-1.082-0.748-1.756-1.782-2.023-3.103
		c-0.271-1.343-0.056-2.588,0.645-3.734c0.701-1.146,1.673-1.858,2.916-2.136c1.264-0.283,2.438-0.05,3.52,0.698
		c1.082,0.748,1.759,1.793,2.029,3.136c0.266,1.321,0.049,2.555-0.651,3.701C27.83,152.291,26.848,153.005,25.583,153.287z"/>
	<path fill="#FFFFFF" d="M126.129,102.949c-1.554,10.028-3.011,17.963-4.235,27.791l-11.322-1.257
		c0.564-8.485,1.313-16.557,2.112-28.206L126.129,102.949z"/>
	<path fill="#FFFFFF" d="M113.68,146.23c-1.409-0.282-2.524-1.06-3.347-2.332c-0.823-1.273-1.103-2.656-0.843-4.15
		c0.265-1.519,0.996-2.713,2.192-3.581c1.196-0.869,2.499-1.162,3.907-0.88c1.432,0.287,2.559,1.067,3.382,2.339
		c0.823,1.273,1.101,2.669,0.836,4.188c-0.261,1.494-0.989,2.675-2.186,3.544C116.426,146.226,115.112,146.517,113.68,146.23z"/>
	<polygon fill="#FFFFFF" points="40.969,114.22 61.089,107.993 49.215,129.105 63.906,125.257 45.522,150.874 50.061,134.057 
		40.975,136.31 	"/>
	<path fill="#FFFFFF" d="M91.655,119.976c0,0-3.464-9.698-4.474-9.795c-1.183-0.114-6.918,9.397-6.918,9.397
		c-1.508,0.097-10.763,0.912-11.077,1.806c-0.295,0.824,3.879,5.773,5.972,8.177c0,0-2.159,9.826-1.343,10.33
		c0.816,0.505,11.477-6.514,11.477-6.514s8.58,8.229,9.688,7.625c0.729-0.399-0.093-11.762-0.093-11.762s7.899-6.332,7.601-7.427
		C102.187,120.733,91.655,119.976,91.655,119.976z"/>
	<path fill="#FFFFFF" d="M151.364,113.011c0,0-6.569-7.931-7.552-7.677c-1.15,0.297-3.291,11.195-3.291,11.195
		c-1.384,0.606-9.803,4.535-9.793,5.483c0.004,0.876,5.619,4.1,8.407,5.644c0,0,1.329,9.972,2.268,10.167
		c0.939,0.196,8.56-10.044,8.56-10.044s10.875,4.801,11.71,3.855c0.549-0.624-4.107-11.022-4.107-11.022s5.26-8.65,4.605-9.577
		C161.521,110.123,151.364,113.011,151.364,113.011z"/>
</g>
<g id="Layer_1">
</g>
</svg>
