<?xml version="1.0" encoding="utf-8"?>
<!-- Generator: Adobe Illustrator 24.2.3, SVG Export Plug-In . SVG Version: 6.00 Build 0)  -->
<svg version="1.1" xmlns="http://www.w3.org/2000/svg" xmlns:xlink="http://www.w3.org/1999/xlink" x="0px" y="0px"
	 viewBox="0 0 60.033 183.543" enable-background="new 0 0 60.033 183.543" xml:space="preserve">
<g id="i_x5F_icon_x5F_white">
	<path fill="#FFFFFF" d="M60.001,152.65c-0.569,11.092,1.968,28.819-13.284,29.879c-12.463,0.513-25.879,2.549-37.915-1.192
		c-8.233-3.771-7.374-13.7-7.655-21.339c-0.058-5.166-0.063-54.085,0.02-59.25c-1.139-23.035,8.856-23.69,28.682-23.18
		c9.255,1.003,23.252-2.121,28.097,8.03C61.65,95.943,59.103,141.538,60.001,152.65z"/>
	<path fill="#FFFFFF" d="M11.522,5.948C-7.762,21.404-2.759,55.724,25.926,57.584c15.763,1.269,28.873-5.705,30.982-20.383
		C63.169,5.444,31.18-9.07,11.522,5.948z"/>
</g>
<g id="Layer_1">
</g>
</svg>
