<?xml version="1.0" encoding="utf-8"?>
<!-- Generator: Adobe Illustrator 25.0.0, SVG Export Plug-In . SVG Version: 6.00 Build 0)  -->
<svg version="1.1" xmlns="http://www.w3.org/2000/svg" xmlns:xlink="http://www.w3.org/1999/xlink" x="0px" y="0px"
	 viewBox="0 0 150.672 184.782" enable-background="new 0 0 150.672 184.782" xml:space="preserve">
<g id="lock_x5F_white">
	<path fill="#FFFFFF" d="M149.788,74.26c-0.053-5.855-5.248-10.55-11.596-10.477l-8.888,0.102C126.857,34.258,103.594,0,75.337,0
		C46.685,0,23.169,34.911,21.28,65.126l-9.923,0.114c-6.343,0.073-11.43,4.879-11.356,10.73l1.23,98.369
		c0.073,5.847,5.27,10.522,11.608,10.443l126.489-1.581c6.323-0.079,11.396-4.862,11.344-10.695L149.788,74.26z M52.533,159.813
		l14.589-38.867c-7.189-2.845-12.295-9.665-12.396-17.689c-0.134-10.69,8.67-19.467,19.662-19.605
		c10.992-0.137,20.012,8.417,20.145,19.107c0.098,7.806-4.58,14.575-11.385,17.722l14.991,38.761L52.533,159.813z M43.032,64.876
		C44.888,46.741,58.658,21.66,75.337,21.66c16.448,0,30.049,24.701,32.202,42.476L43.032,64.876z"/>
</g>
<g id="Layer_1">
</g>
</svg>
