<?xml version="1.0" encoding="utf-8"?>
<!-- Generator: Adobe Illustrator 25.1.0, SVG Export Plug-In . SVG Version: 6.00 Build 0)  -->
<svg version="1.1" xmlns="http://www.w3.org/2000/svg" xmlns:xlink="http://www.w3.org/1999/xlink" x="0px" y="0px"
	 viewBox="0 0 164 164" enable-background="new 0 0 164 164" xml:space="preserve">
<g id="not_x5F_working_x5F_sign_x5F_white">
	<path fill="#FFFFFF" d="M82,0C36.785,0,0,36.785,0,82s36.785,82,82,82s82-36.785,82-82S127.215,0,82,0z M15,82
		c0-17.908,7.076-34.185,18.562-46.217l85.844,101.777C108.717,144.78,95.842,149,82,149C45.056,149,15,118.944,15,82z
		 M130.816,127.821L45.055,26.144C55.654,19.11,68.354,15,82,15c36.944,0,67,30.056,67,67
		C149,99.712,142.079,115.828,130.816,127.821z"/>
</g>
<g id="Layer_1">
</g>
</svg>
