<?xml version="1.0" encoding="utf-8"?>
<!-- Generator: Adobe Illustrator 25.0.0, SVG Export Plug-In . SVG Version: 6.00 Build 0)  -->
<svg version="1.1" id="Layer_1" xmlns="http://www.w3.org/2000/svg" xmlns:xlink="http://www.w3.org/1999/xlink" x="0px" y="0px"
	 viewBox="0 0 119.6 234" style="enable-background:new 0 0 119.6 234;" xml:space="preserve">
<style type="text/css">
	.st0{fill:#FFFFFF;}
</style>
<g id="questionmark_x5F_white">
	<g>
		<path class="st0" d="M1.1,79.7C-3.7,41.9,6.3,6.6,44.7,1.1c24.4-3.7,53.9,1,66.4,24.5c15.4,31.6,10.5,86.9-20.9,107
			C78,139.8,77.5,155.4,77.9,168l-34.1,0.6c0.1-19.1-4.7-48.9,16.9-58.8c7.3-4,12.1-9.7,14.4-17.4c3.7-12.3,4.9-23.9,3.4-36.1
			C76.8,44.9,69,38.5,56.8,39.6C41.3,41,39,63.9,41.2,80.5L1.1,79.7z M64.2,234c-30.8-0.4-30.8-46.5,0-47
			C95.2,187.4,95.2,233.7,64.2,234z"/>
	</g>
</g>
<g id="Layer_1_1_">
</g>
</svg>
