<?xml version="1.0" encoding="utf-8"?>
<!-- Generator: Adobe Illustrator 25.0.0, SVG Export Plug-In . SVG Version: 6.00 Build 0)  -->
<svg version="1.1" xmlns="http://www.w3.org/2000/svg" xmlns:xlink="http://www.w3.org/1999/xlink" x="0px" y="0px"
	 viewBox="0 0 225.57 201.652" enable-background="new 0 0 225.57 201.652" xml:space="preserve">
<g id="recycle_x5F_clothes_x5F_icon">
	<g>
		<path fill="#FFFFFF" d="M190.958,15.839l-18.623-5.37c0,0-6.48,22.894-31.23,19.328C119.82,26.73,122.159,1.694,122.159,1.694
			L99.478,0L59.999,12.203l2.658,37.555l23.661-5.495l-6.215,24.068l3.673,4.53l18.552-68.075l14.834,1.351
			c0,0,2.004,25.108,23.128,28.593c10.766,1.775,19.65-0.319,26.397-6.23c4.633-4.058,8.543-12.126,8.543-12.126l13.648,4.242
			l-13.453,110.077l-82.168-13.796l0.942,4.836l85.491,13.9l8.512-75.379l22.764,13.191l14.603-30.076L190.958,15.839z
			 M87.22,38.923c-2.761,0.594-18.845,4.927-21.426,5.5c-0.473-5.685-0.97-21.16-0.888-28.573
			C77.238,11.797,90.445,7.614,96.81,5.827C96.017,8.79,88.28,35.695,87.22,38.923z M209.066,67.059
			c-3.013-1.674-18.418-10.923-20.187-11.978c0.245-5.263,2.679-23.546,3.646-32.25c5.401,4.099,16.731,13.378,27.21,22.166
			C217.41,51.341,211.299,62.729,209.066,67.059z"/>
		<path fill="#FFFFFF" d="M34.113,201.652c0,0-35.27-115.1-34.084-116.627l0,0c0.619-0.796,82.399-19.35,83.534-18.561
			c1.371,0.952,24.557,116.314,24.557,116.314l-23.139,5.452l-29.756-68.489l-2.246,0.544l2.375,75.819L34.113,201.652z
			 M4.591,88.073c1.858,10.069,20.442,69.203,32.826,107.548l12.813-3.347l-2.377-75.891l10.281-2.492l29.767,68.514l14.459-3.406
			C95.29,139.768,83.753,79.191,80.544,70.8C76.985,70.863,8.846,86.521,4.591,88.073z M81.282,70.836L81.282,70.836L81.282,70.836z
			"/>
	</g>
</g>
<g id="Layer_1">
</g>
</svg>
