<?xml version="1.0" encoding="utf-8"?>
<!-- Generator: Adobe Illustrator 25.0.0, SVG Export Plug-In . SVG Version: 6.00 Build 0)  -->
<svg version="1.1" xmlns="http://www.w3.org/2000/svg" xmlns:xlink="http://www.w3.org/1999/xlink" x="0px" y="0px"
	 viewBox="0 0 204.377 200.083" enable-background="new 0 0 204.377 200.083" xml:space="preserve">
<g id="recycle_x5F_arrows_x5F_white">
	<g id="recycle_x5F_arrows_x5F_white_1_">
		<path fill="#FFFFFF" d="M35.766,29.044c0,0-10.771-10.675-12.869-10.182c-2.098,0.494-11.925,57.519-8.485,59.43
			c6.665,3.703,54.073-9.139,54.813-10.373c0.741-1.234-9.638-13.449-9.638-13.449s6.542-9.504,26.167-16.169
			c16.539-5.617,31.845,0.927,32.709,0.834S130.89,6.593,130.189,6.333C127.104,3.247,98.818-6.024,68.084,5.97
			C47.841,13.87,35.766,29.044,35.766,29.044z"/>
		<path fill="#FFFFFF" d="M188.87,74.727c0,0,14.789-3.357,15.498-5.392c0.71-2.035-42.127-40.938-45.587-39.061
			c-6.702,3.636-21.316,50.527-20.672,51.814s16.521-0.912,16.521-0.912s4.507,10.621-0.405,30.757
			c-4.139,16.969-17.877,26.37-18.262,27.149s20.785,27.954,21.381,27.502c4.26-0.947,27.266-19.835,33.645-52.205
			C195.19,93.061,188.87,74.727,188.87,74.727z"/>
		<path fill="#FFFFFF" d="M65.434,183.808c0,0-4.189,14.575-2.748,16.178c1.441,1.603,56.177-17.17,56.2-21.106
			c0.046-7.625-33.989-43.036-35.427-43.093S76.293,150.7,76.293,150.7s-11.478-1.172-26.751-15.184
			c-12.871-11.808-14.484-28.376-14.981-29.089c-0.497-0.713-34.511,4.732-34.402,5.472c-1.224,4.189,4.232,33.451,29.515,54.646
			C46.324,180.506,65.434,183.808,65.434,183.808z"/>
	</g>
</g>
<g id="Layer_1">
</g>
</svg>
