<?xml version="1.0" encoding="utf-8"?>
<!-- Generator: Adobe Illustrator 25.0.0, SVG Export Plug-In . SVG Version: 6.00 Build 0)  -->
<svg version="1.1" xmlns="http://www.w3.org/2000/svg" xmlns:xlink="http://www.w3.org/1999/xlink" x="0px" y="0px"
	 viewBox="0 0 210.487 192.323" enable-background="new 0 0 210.487 192.323" xml:space="preserve">
<g id="recycle_x5F_plastic_x5F_icon">
	<g>
		<path fill="#FFFFFF" d="M51.34,192.283c7.465-0.939,95.965-19.287,101.575-20.451c-4.119-0.779-8.282-1.602-12.364-2.444
			l-86.952,18.785c-2.384-11.972-32.91-136.988-46.03-161.845l20.406-7.474l14.489,39.52l49.104-12.085L82.301,9.446l21.419-5.541
			c6.606,9.587,14.148,30.435,21.089,54.313c0.322-0.46,0.637-0.845,0.943-1.139c1.201-1.154,2.391-2.143,3.563-3.004
			C123.157,32.807,115.875,13.216,107.547,0L76.24,5.849l0.098,0.389c-0.004,0-0.021,0.002-0.021,0.002s-0.962,22.972,1.018,38.403
			l-31.719,7.807L30.948,12.44L0.636,23.542c-5.052,21.129,21.558,146.88,24.492,151.65c2.802,4.555,21.311,16.604,25.679,17.094
			c0.007,0.011,0.016,0.025,0.021,0.029c0.029,0.019,0.204,0.007,0.485-0.027c0.007-0.001,0.018,0,0.024-0.002
			C51.338,192.285,51.339,192.284,51.34,192.283z"/>
		<path fill="#FFFFFF" d="M177.156,26.573c-1.507-1.902-23.048-4.731-24.012-1.858c-0.81,2.413-2.305,10.925-3.11,15.487
			c6.887,0.773,17.608,1.821,26.466,2.647C176.331,35.932,178.805,28.655,177.156,26.573z"/>
		<path fill="#FFFFFF" d="M181.698,54.13c-2.356-1.607-3.71-3.772-4.447-6.188c-8.356-0.771-20.893-1.965-28.714-2.886
			c-3.235,3.987-12.652,2.287-22.785,12.023c-9.275,8.912-26.511,97.104-24.583,101.502c1.928,4.397,88.213,21.608,94.445,18.503
			c10.529-5.246,13.664-48.759,14.824-75.664C211.598,74.515,191.852,61.053,181.698,54.13z M181.709,147.325
			c-14.676-0.855-14.68-68.285,5.773-70.49C207.935,74.63,201.945,148.503,181.709,147.325z"/>
	</g>
</g>
<g id="Layer_1">
</g>
</svg>
