<?xml version="1.0" encoding="utf-8"?>
<!-- Generator: Adobe Illustrator 25.0.0, SVG Export Plug-In . SVG Version: 6.00 Build 0)  -->
<svg version="1.1" xmlns="http://www.w3.org/2000/svg" xmlns:xlink="http://www.w3.org/1999/xlink" x="0px" y="0px"
	 viewBox="0 0 124.418 186.953" enable-background="new 0 0 124.418 186.953" xml:space="preserve">
<g id="recycle_x5F_bio_x5F_icon">
	<g>
		<path fill="#E8E9E9" d="M5.896,10.893l0.001,0.002L5.896,10.893z"/>
		<polygon fill="#E8E9E9" points="6.144,12.249 6.144,12.249 6.144,12.247 		"/>
		<path fill="#E8E9E9" d="M20.797,0L20.797,0c0.011,0.005,0.023,0.01,0.034,0.014C20.82,0.01,20.808,0.004,20.797,0z"/>
		<path fill="#E8E9E9" d="M22.399,0.659c-0.021-0.01-0.042-0.017-0.063-0.026C22.356,0.642,22.377,0.65,22.399,0.659L22.399,0.659z"
			/>
		<path fill="#FFFFFF" d="M66.25,61.996l-5.263-3.482l5.245-47.141l10.719,2.348L66.25,61.996z"/>
		<path fill="#FFFFFF" d="M124.418,80.511c-0.002,0-8.372-11.119-12.975-13.94c-17.926-10.987-41.487-9.396-46.573-8.813
			c-2.3-1.274-9.437-5.358-19.195-7.507C14.873,43.468,0,55.967,0,55.967c27.57,12.477,7.938,36.902,7.938,36.902
			c2.261-2.239,27.408-1.58,24.726,26.389c-1.302,13.581-24.315,14.881-24.315,14.881s11.664,18.793-6.742,30.514
			c0,0,29.755,40.279,88.759,12.571c0,0-18.445-14.711,4.027-32.69c0,0-24.108-1.275-21.263-22.95
			c3.163-24.103,29.448-14.187,29.448-14.187h0.001C102.579,107.397,97.13,79.816,124.418,80.511z M76.968,177.179
			c-22.116,6.785-52.213,4.235-68.212-11.967c1.294-1.303,3.263-3.444,4.237-4.969c5.261,0.743,10.517-0.033,15.649-2.338
			c2.323-1.046,5.021-0.15,6.273,2.08c2.629,4.683,7.461,8.148,14.362,10.299C59.145,173.359,69.743,175.724,76.968,177.179z
			 M43.074,118.683c0.192-0.771,0.08-0.641,0.761-0.305c1.526,0.752,10.177,7.066,4.27,10.584
			C41.175,131.584,42.697,120.198,43.074,118.683z M59.035,117.599c0.67-0.429,0.579-0.436,0.763,0.302
			c0.412,1.65,2.411,12.462-4.17,10.623C50.132,126.182,57.72,118.441,59.035,117.599z M97.071,93.622
			C85.779,82.98,63.547,80.561,54.613,89.459c-4.462-10.293-19.997-21.084-34.556-16.153c-0.741-6.084-5.045-14.489-9.578-17.024
			c24.698-10.089,53.352,6.657,53.352,6.657s28.756-3.858,45.806,8.354c1.976,1.415,3.788,3.049,5.417,4.883
			C106.326,78.108,99.313,84.822,97.071,93.622z"/>
	</g>
</g>
<g id="Layer_1">
</g>
</svg>
