<?xml version="1.0" encoding="utf-8"?>
<!-- Generator: Adobe Illustrator 25.0.0, SVG Export Plug-In . SVG Version: 6.00 Build 0)  -->
<svg version="1.1" xmlns="http://www.w3.org/2000/svg" xmlns:xlink="http://www.w3.org/1999/xlink" x="0px" y="0px"
	 viewBox="0 0 127.264 108.521" enable-background="new 0 0 127.264 108.521" xml:space="preserve">
<g id="recycle_x5F_bottle_x5F_icon">
	<path fill="#FFFFFF" d="M77.613,107.461c-35.231,5.1-70.437-8.078-76.677-42.107C-9.431,8.818,68.862-21.224,110.409,17.34
		C140.87,45.614,130.105,99.863,77.613,107.461z"/>
	<path fill="#4A4A49" d="M60.251,51.629v0.16c0,1.423,0.032,2.751,0.096,3.982h5.734l-0.956,5.415h-4.236
		c0.743,4.12,2.092,6.179,4.046,6.179h0.032c3.164-0.021,4.746-2.569,4.746-7.644v-3.154h7.9v2.389
		c0,10.575-4.566,19.423-13.755,18.794c-8.19-0.561-10.184-5.825-11.565-15.444l-5.74-0.401l-0.561-6.31l5.66,0.177
		c-0.064-1.189-0.096-2.442-0.096-3.758l-5.564,0.27v-6.692h6.03c0.977-11.509,4.227-16.64,12.148-16.64s11.881,5.139,11.881,15.417
		c0,0.616-0.01,1.253-0.032,1.911l-7.071,0.032c0,0,0.675-9.972-4.445-9.158c-2.265,0.36-3.497,3.563-4.027,9.063h5.149l0.421,5.415
		h-5.795V51.629z"/>
	<path fill="#4A4A49" d="M92.572,22.578c0,0,5.714-7.949,6.369-7.921s10.463,23.06,9.544,23.828c-1.78,1.487-24.73,0.327-25.022,0
		s3.442-6.95,3.442-6.95s-8.233-7.782-23.272-8.217c-12.502-0.362-25.763,4.961-30.778,9.501
		c-12.072,10.927-7.259,24.13-3.991,28.782c0.152,0.216-9.505,2.358-9.31,2.241c-3.045-4.672-7.411-14.351-2.865-26.396
		C22.288,22.609,39.918,9.324,72.18,14.12C82.877,15.71,92.572,22.578,92.572,22.578z"/>
	<path fill="#4A4A49" d="M33.226,86.883c0,0-5.714,7.949-6.369,7.921s-10.463-23.06-9.544-23.828c1.78-1.487,24.73-0.327,25.022,0
		s-3.442,6.95-3.442,6.95s8.233,7.782,23.272,8.217c12.502,0.362,25.763-4.961,30.778-9.501c12.072-10.927,7.259-24.13,3.991-28.782
		c-0.152-0.216,9.505-2.358,9.31-2.241c3.045,4.672,7.411,14.351,2.865,26.396c-5.599,14.837-23.229,28.122-55.491,23.326
		C42.921,93.751,33.226,86.883,33.226,86.883z"/>
</g>
<g id="Layer_1">
</g>
</svg>
