<?xml version="1.0" encoding="utf-8"?>
<!-- Generator: Adobe Illustrator 25.0.0, SVG Export Plug-In . SVG Version: 6.00 Build 0)  -->
<svg version="1.1" xmlns="http://www.w3.org/2000/svg" xmlns:xlink="http://www.w3.org/1999/xlink" x="0px" y="0px"
	 viewBox="0 0 251.556 207.309" enable-background="new 0 0 251.556 207.309" xml:space="preserve">
<g id="recycle_x5F_metal_x5F_icon">
	<g>
		<path fill="#FFFFFF" d="M236.293,72.311l1.785-5.501c1.405,0.355,2.247,0.512,2.81,0.512c0.726,0,2.156-3.069,2.156-3.069
			c-0.523-2.228-4.024-8.386-9.334-15.068c-7.028-8.843-16.793-16.269-27.885-21.976c7.208-25.345-30.867-40-39.35-12.053
			c-20.701-2.525-40.922,0.832-54.173,11.684c-0.776,0.636-0.347,2.663,0.148,3.486c0,0,1.383,0.398,3.754,1.083l-1.223,5.761
			c-16.709-3.314-35.019,9.727-23.609,32.025c3.571,5.434,10.405,8.124,14.823,9.349l-4.456,20.981l5.766,18.247l103.949,31.099
			l11.707-36.081C250.698,121.319,263.93,81.961,236.293,72.311z M108.366,68.32c-15.632-4.341-11.732-23.136,4.367-20.567
			L108.366,68.32z M195.477,22.516c-5.929-2.331-12.091-4.182-18.312-5.538C182.596,4.637,196.338,9.534,195.477,22.516z
			 M236.272,61.144c-13.614-3.787-109.45-31.931-116.355-33.933C153.845,7.815,219,29.396,236.272,61.144z M226.47,102.589
			l6.404-19.739C246.55,89.502,241.181,106.183,226.47,102.589z"/>
		<path fill="#FFFFFF" d="M33.897,108.393c-8.05,0-16.788-3.623-23.639-10.575C4.557,92.032,0.974,84.807,0.171,77.475
			c-0.828-7.552,1.367-14.323,6.181-19.066c4.813-4.743,11.614-6.838,19.155-5.898c7.32,0.913,14.491,4.601,20.191,10.388
			c11.925,12.103,13.678,29.781,3.907,39.409C45.448,106.404,39.861,108.393,33.897,108.393z M9.862,61.971
			c-3.744,3.603-5.378,8.96-4.72,14.959c0.682,6.219,3.764,12.391,8.679,17.378l0,0c9.991,10.14,24.47,12.129,32.276,4.437
			c7.807-7.692,6.03-22.199-3.959-32.338C37.223,61.419,20.682,51.559,9.862,61.971z"/>
		<path fill="#FFFFFF" d="M101.356,90.251l-3.093,6.323l17.521,55.608l-57.656,18.197L40.197,116.03l-6.453-3.959
			c0,0,30.111,92.124,30.707,92.813c4.79,5.536,24.617,0.433,37.404-3.766c16.522-5.425,28.057-12.771,29.218-17.027
			C131.351,183.068,101.356,90.251,101.356,90.251z M59.696,175.128l57.591-18.177l1.682,5.34L61.45,180.445L59.696,175.128z
			 M63.016,185.194l57.456-18.134l1.682,5.34L64.77,190.511L63.016,185.194z M68.443,201.64l-2.105-6.38l57.32-18.091l1.953,6.198
			C122.503,188.609,82.904,204.583,68.443,201.64z"/>
		<path fill="#FFFFFF" d="M41.123,116c-6.142,0.335-7.008-2.317-7.008-2.317s-2.967-4.891,7.475-11.058
			c8.537-5.042,17.362-8.409,25.134-10.608l0,0c25.76-7.29,31.883-5.013,34.341-2.217c0.662,0.754,1.037,1.827,0.604,2.792
			C97.636,101.577,62.403,116.029,41.123,116z M39.454,110.952c2.901,0.316,10.759-0.04,30.137-6.403
			c14.929-4.902,23.059-9.747,26.055-12.196c-2.762-0.6-9.801-0.552-27.561,4.474l0,0C60.677,98.924,45.287,103.536,39.454,110.952z
			"/>
	</g>
</g>
<g id="Layer_1">
</g>
</svg>
