<?xml version="1.0" encoding="utf-8"?>
<!-- Generator: Adobe Illustrator 25.0.0, SVG Export Plug-In . SVG Version: 6.00 Build 0)  -->
<svg version="1.1" xmlns="http://www.w3.org/2000/svg" xmlns:xlink="http://www.w3.org/1999/xlink" x="0px" y="0px"
	 viewBox="0 0 176.565 196.897" enable-background="new 0 0 176.565 196.897" xml:space="preserve">
<g id="recycle_x5F_bottles_x5F_icon">
	<g>
		<path fill="#FFFFFF" d="M74.125,77.485l-7.177-12.993l-1.972,5.181l5.887,11.035c-7.727,4.611-21.573,9.441-33.24,11.388
			c-11.247,1.876-33.458-1.528-33.458-1.528l1.842-11.45l-3.801-3.639L0,89.728l12.823,77.759l9.218,8.14
			c3.711,1.469,8.02,2.407,12.664,2.8c5.604,0.473,11.697,0.15,17.809-0.996c10.975-2.058,21.001-6.311,27.509-11.669l6.121-10.346
			L74.125,77.485z M6.238,95.941c7.719,1.642,23.449,1.76,32.079,0.321c11.04-1.842,23.621-5.952,31.931-10.336l9.98,64.944
			c-4.096,2.053-17.337,8.241-32.748,10.74c-13.931,2.259-26.372,0.525-30.43-0.18L6.238,95.941z M77.047,162.738
			c-5.984,4.807-15.181,8.64-25.31,10.54c-14.331,2.688-23.99-0.002-27.791-1.444l-6.747-6.089c1.65,0.271,4.061,0.608,7.054,0.86
			c6.117,0.516,14.634,0.676,23.904-0.827c15.462-2.507,28.527-8.432,33.388-10.84L77.047,162.738z"/>
		<path fill="#FFFFFF" d="M13.83,83.008c-6.387-0.539-11.424-2.192-12.015-5.835C0.535,69.28,21.997,63.66,33.524,61.791
			c8.511-1.38,16.655-1.819,22.987-1.29c7.408,0.644,11.431,2.616,11.958,5.863l0,0c0.526,3.246-2.667,6.39-9.492,9.342
			c-5.814,2.515-13.705,4.66-22.217,6.041C30.556,82.752,21.276,83.637,13.83,83.008z M55.94,64.682
			c-5.002-0.422-12.245-0.263-21.74,1.277C14.602,69.137,5.961,74.862,5.984,76.502c0.495,1.552,10.503,4.253,30.1,1.075
			C55.66,74.402,64.304,68.686,64.3,67.04C64.034,66.235,61.25,65.13,55.94,64.682z"/>
		<g>
			
				<ellipse transform="matrix(0.9871 -0.1601 0.1601 0.9871 -11.409 5.0584)" fill="#FFFFFF" cx="25.687" cy="73.331" rx="9.587" ry="2.261"/>
		</g>
		<path fill="#FFFFFF" d="M176.554,12.882c-0.188-1.568-1.475-3.079-4.05-4.756c-5.877-3.826-20.216-9.407-24.354-7.862
			c-6.172,2.305-11.847,21.839-9.454,24.511l27.627,10.764C171.838,33.42,176.836,15.234,176.554,12.882z M165.372,30.944
			l-22.857-8.658c0.292-3.913,5.017-16.252,7.021-18.016c3.782-0.687,21.254,6.341,22.818,9.184
			C172.238,15.968,167.51,27.636,165.372,30.944z"/>
		<path fill="#54BDCF" d="M174.505,13.445l-0.039-0.015c-0.001,0.038-0.008,0.086-0.011,0.127L174.505,13.445z"/>
		<path fill="#FFFFFF" d="M165.668,33.314l-3.955-1.498l-2.062,4.637l0.901,1.017c0.142,0.161,14.166,16.276,7.842,33.907
			c-5.092,14.195-13.027,21.976-15.201,23.917c-3.236-0.39-13.546-1.875-24.025-5.95c-9.544-3.712-17.903-9.849-20.093-11.524
			c-0.199-3.288-0.459-15.052,4.688-28.067c6.82-17.242,21.362-19.03,26.141-19.618c1.457-0.179,2.188-0.269,2.809-1.01l1.519-3.93
			l-3.658-1.386c-0.046-0.09-0.08-0.204-0.106-0.332l-0.932,2.449c-0.049,0.006-0.099,0.012-0.147,0.018
			c-14.472,1.78-24.416,9.268-29.553,22.256c-5.805,14.679-5.165,27.655-4.939,30.458l-16.578,42.02
			c-1.029,0.841-3.6,3.032-6.574,6.216l0.839,5.442c2.915-3.448,5.74-6.079,7.369-7.501c3.077,3.184,10.987,10.893,17.735,13.436
			c7.887,2.972,14.71,4.2,19.905,4.639c3.872,0.327,6.829,0.214,8.656,0.059c1.021,3.531,3.217,13.391-1.55,26.088
			c-6.103,16.257-17.398,22.439-17.398,22.439c-0.085,0.041-8.647,3.915-25.099-2.709c-19.022-7.656-20.461-13.446-20.569-14.233
			c0,0-0.375-1.091-0.708-3.083c-1.256,0.613-2.563,1.194-3.912,1.742c0.146,0.594,0.283,1.05,0.383,1.358
			c0.031,2.474,2.166,9.657,23.228,18.135c6.386,2.57,11.727,3.691,15.997,4.052c5.022,0.424,8.561-0.205,10.573-0.767
			c0.337,0.146,14.573-8.899,21.048-25.315c5.851-14.833,2.954-26.272,1.827-29.672l15.855-42.482
			c2.481-2.175,10.952-10.409,16.444-25.719c6.247-17.416-4.504-32.914-7.777-37.068L165.668,33.314z M136.263,138.719
			c-3.488,0.322-13.686,0.649-27.085-4.4c-6.137-2.313-13.911-10.048-16.512-12.76l15.456-39.176
			c3.586,2.607,11.017,7.593,19.515,10.898c9.57,3.722,18.82,5.356,23.348,5.989L136.263,138.719z"/>
	</g>
</g>
<g id="Layer_1">
</g>
</svg>
