<?xml version="1.0" encoding="utf-8"?>
<!-- Generator: Adobe Illustrator 25.0.0, SVG Export Plug-In . SVG Version: 6.00 Build 0)  -->
<svg version="1.1" xmlns="http://www.w3.org/2000/svg" xmlns:xlink="http://www.w3.org/1999/xlink" x="0px" y="0px"
	 viewBox="0 0 238.602 189.836" enable-background="new 0 0 238.602 189.836" xml:space="preserve">
<g id="recycle_x5F_paper_x5F_icon">
	<g>
		<path fill="#FFFFFF" d="M222.057,53.715l-1.952,4.567c4.137,1.654,8.072,3.228,11.692,4.676l-57.352,120.437
			c-32.898-13.691-89.165-38.179-89.165-38.179l-5.536,0.576l97.17,44.045l61.688-129.542L222.057,53.715z"/>
		<path fill="#FFFFFF" d="M228.73,44.467l-29.97-10.655l-1.255,4.794c8.835,3.159,17.324,6.196,24.539,8.778l-51.963,121.554
			c-20.081-7.514-66.933-26.162-66.933-26.162l-6.899,0.81l76.552,31.706L228.73,44.467z"/>
		<path fill="#FFFFFF" d="M205.253,18.873L103.103,0c0,0-8.076,27.422-16.824,57.435c1.57,0.983,3.034,1.902,4.37,2.74
			c5.396-18.486,11.061-37.776,15.975-54.44l92.43,17.078l-35.033,133.858c-18.537-4.604-41.326-10.343-60.017-15.173
			c-2.368,0.656-4.978,1.358-7.754,2.088c30.263,8.43,71.357,19.125,71.357,19.125L205.253,18.873z"/>
		<path fill="#FFFFFF" d="M99.506,62.688c-6.078-4.06-55.062-36.578-62.438-35.139C29.44,29.037,0,90.709,0,90.709
			s16.696,68.468,23.114,73.026c1.72,0,97.725-23.637,98.232-24.651C123.082,135.613,107.332,66.062,99.506,62.688z M50.874,114.135
			c-9.479-5.269-23.65-14.368-38.623-25.483c17.214-5.189,81.337-20.528,82.795-20.78c-8.5,17.367-16.319,31.509-22.038,40.563
			c-7.499-3.999-13.01-6.799-13.483-6.68C59.525,101.755,55.896,106.932,50.874,114.135z M39.114,33.466
			c4.179-0.171,25.8,11.579,52.172,29.037C73.518,67.847,28.93,78.848,9.701,82.78C9.843,82.504,34.74,36.204,39.114,33.466z
			 M6.057,91.502c7.978,5.37,27.512,18.404,41.758,27.022c-8.334,11.973-18.904,27.24-23.889,34.781
			C18.835,139.563,7.608,101.028,6.057,91.502z M27.319,156.957c16.198-22.709,34.245-48.011,34.245-48.011
			s29.724,15.628,51.621,27.229C99.509,140.763,41.445,154.826,27.319,156.957z M77.802,111.008
			C85.639,97.65,94.2,79.327,98.412,70.032c4.467,11.492,14.11,47.959,16.307,61.435C106.934,127.005,90.675,117.956,77.802,111.008
			z"/>
	</g>
</g>
<g id="Layer_1">
</g>
</svg>
