<?xml version="1.0" encoding="utf-8"?>
<!-- Generator: Adobe Illustrator 25.0.0, SVG Export Plug-In . SVG Version: 6.00 Build 0)  -->
<svg version="1.1" xmlns="http://www.w3.org/2000/svg" xmlns:xlink="http://www.w3.org/1999/xlink" x="0px" y="0px"
	 viewBox="0 0 240.76 175.206" enable-background="new 0 0 240.76 175.206" xml:space="preserve">
<g id="recycle_x5F_carton_x5F_icon">
	<g>
		<path fill="#FFFFFF" d="M92.86,34.06c-0.093-0.39-10.155-16.428-13.343-20.992C76.903,0.969,75.37,0.424,74.245,0.024
			c-1.632-0.573-61.262,9.228-63.746,12.651c-0.661,0.91-1.704,1.845,0.707,10.181C5.545,29.523-0.616,37.786,0.049,41.484
			C0.113,41.839,20.09,151.12,23.303,160.797c0.292,0.879,23.805,14.409,24.542,14.409c0.072,0,0.13-0.004,0.179-0.007
			c2.076-0.138,67.735-15.148,68.368-16.684C116.724,157.708,92.86,34.06,92.86,34.06z M75.999,16.806
			c2.396,3.521,7.886,11.621,10.517,15.757c-9.199,2.234-37.935,8.733-58.725,13.387L18.68,27.566
			C27.77,25.873,55.636,20.054,75.999,16.806z M72.117,4.948c0.447,1.125,1.358,4.642,2.003,7.225L16.529,23.13
			c-0.507-1.847-1.624-5.98-1.796-7.168C22.182,13.304,64.051,5.825,72.117,4.948z M13.587,28.549l9.099,18.36L4.514,41.357l0,0
			L13.587,28.549z M47.939,170.186C47.82,170.151,31.313,69.402,28.493,51.641l60.193-13.814
			c4.044,17.477,20.978,105.268,22.759,118.17C102.473,158.851,53.653,169.515,47.939,170.186z"/>
		<polygon fill="#FFFFFF" points="200.69,128.808 178.201,142.468 178.115,142.36 186.374,48.115 93.822,32.28 111.482,25.809 
			208.946,43.05 216.867,39.374 110.856,20.621 87.812,29.823 110.703,136.936 177.523,149.109 205.344,131.9 211.656,81.218 
			207.377,75.113 		"/>
		<path fill="#FFFFFF" d="M213.398,88.061L185.265,47.92l31.602-8.546l23.893,34.065L213.398,88.061z M193.271,50.631l21.515,30.698
			l18.572-9.197l-18.276-26.95L193.271,50.631z"/>
	</g>
</g>
<g id="Layer_1">
</g>
</svg>
