<?xml version="1.0" encoding="utf-8"?>
<!-- Generator: Adobe Illustrator 25.0.0, SVG Export Plug-In . SVG Version: 6.00 Build 0)  -->
<svg version="1.1" id="Layer_1" xmlns="http://www.w3.org/2000/svg" xmlns:xlink="http://www.w3.org/1999/xlink" x="0px" y="0px"
	 viewBox="0 0 229.7 153.4" style="enable-background:new 0 0 229.7 153.4;" xml:space="preserve">
<style type="text/css">
	.st0{fill:#3F9D7B;}
	.st1{fill:#E8CAAE;}
</style>
<g id="tarinakone_x5F_body_x5F_hands">
	<g id="tarinakone_x5F_keho_x5F_kadet">
		<polygon class="st0" points="0,0.1 12.1,151.9 225,153.4 229.7,0 		"/>
		<path class="st1" d="M133.3,152.8c21.4-19.4,61.5-59.5,61.5-59.5s8.3-8.6,1.6-15.2c-2.2-2.2-6.1-3.3-10.4-1.4
			c-4.3,1.9-38.6,28.7-38.6,28.7s40.4-44.6,42.9-47.5c2.5-2.8,5.1-9.7,1.2-13.2c-3.9-3.6-8.1-3.3-12.3-0.4
			c-4.7,3.3-47.1,45.6-47.1,45.6l39.5-53.2c0,0,7.2-8.9-0.1-14.5c-5.2-4-11.1-2.5-17,2.9c-4.7,4.3-44,49.1-44,49.1
			s35.6-52.5,36.3-57.6c0.6-4.4-1.2-6.9-5.1-8.5c-1.4-0.6-7-2.3-12.4,1.8c-6.5,4.9-50.8,59.7-50.8,59.7s2.1-22.3,0.1-29.8
			C75.8,29.1,64.9,24.2,61,26c-2.5,1.2-2.3,17.5-3.8,24.5C55.9,56.5,53.7,57,45.1,74c-9.7,19.1-1.9,54.8,2.2,63.8
			c1.3,2.7-3.1,8.9-7.4,14.2L133.3,152.8z"/>
	</g>
</g>
<g id="Layer_1_1_">
</g>
</svg>
