<?xml version="1.0" encoding="utf-8"?>
<!-- Generator: Adobe Illustrator 25.0.0, SVG Export Plug-In . SVG Version: 6.00 Build 0)  -->
<svg version="1.1" id="Layer_1" xmlns="http://www.w3.org/2000/svg" xmlns:xlink="http://www.w3.org/1999/xlink" x="0px" y="0px"
	 viewBox="0 0 229.7 153.4" style="enable-background:new 0 0 229.7 153.4;" xml:space="preserve">
<style type="text/css">
	.st0{fill:#295E87;}
	.st1{fill:#FDE40B;}
	.st2{fill:#DFF5F4;}
	.st3{fill:#54BDCF;}
	.st4{opacity:0.3;fill:#54BDCF;enable-background:new    ;}
	.st5{fill:#ED9EC3;}
</style>
<g id="tarinakone_x5F_crazy_x5F_evening_x5F_activities">
	<g id="tarinakone_x5F_seko_x5F_iltatoimet">
		<polygon class="st0" points="0,0.1 12.1,151.9 225.1,153.4 229.7,0 		"/>
		<path class="st1" d="M54.6,10.5c0,0-37.2,29.8-17.7,64.4s69.1,2.8,69.1,2.8S39.7,83,54.6,10.5z"/>
		<path class="st1" d="M176.5,113.1c0,0,6.9-7,8.2-6.9s3.6,9.6,3.6,9.6s8.7,4.1,8.7,5.1c0,1-7.9,5.7-7.9,5.7s-1.1,9.8-2.3,10.3
			c-1.2,0.5-8.8-5.2-8.8-5.2s-9,1.9-9.8,0.9c-0.8-1,2.4-10.6,2.4-10.6s-4.5-7.1-4.3-8.2C166.6,112.8,176.5,113.1,176.5,113.1z"/>
		<path class="st1" d="M111.3,21.2c0,0,9.6-2,10.6-1.1c1,0.9-2.4,10-2.4,10s5,8.3,4.4,9.1c-0.6,0.8-9.7,0.3-9.7,0.3
			s-6.4,7.5-7.6,7.2s-4.4-9.2-4.4-9.2s-8.5-3.5-8.6-4.8c-0.1-1.3,7.9-7.4,7.9-7.4s0.2-8.5,1-9.1C103.2,15.4,111.3,21.2,111.3,21.2z"
			/>
		<path class="st1" d="M49.1,118.2c0,0,0.5-8.1,1.4-8.8c0.9-0.6,7.5,4.1,7.5,4.1s7.7-2.2,8.2-1.6c0.5,0.7-1.8,7.9-1.8,7.9
			s4.6,6.7,4.2,7.7c-0.5,1-8.3,1.6-8.3,1.6s-4.6,6.1-5.7,5.9c-1.1-0.2-4.3-7.9-4.3-7.9s-6.7-2-7.1-2.8
			C42.7,123.5,49.1,118.2,49.1,118.2z"/>
		<path class="st2" d="M146.7,94.1c0.1,0.1-23.1-22.1-26.3-25.8c-4.3-5,1.5-15,9.2-13.8c4.6,0.7,6.3-0.7,7.6-6.8
			c1.5-7.1,6.7-6.9,12-8.3c5.3-1.4,1.8-5.8,7.1-9.7c5.7-4.2,9.9,0.5,12.9-3.8s3-10.5,10.9-9.9c7.2,0.5,20,35.5,20,35.5L146.7,94.1z"
			/>
		<g>
			<path class="st3" d="M136.8,49.3c-0.6,2.3-1.4,3.8-2.5,4.5l24.4,30.6l4.7-3.8L136.8,49.3z"/>
			<path class="st4" d="M126.1,54.7c-3,0.9-5.4,3.4-6.5,6.2c8.4,8.6,24.1,23.4,31.1,30l4.1-3.3L126.1,54.7z"/>
			<path class="st3" d="M149.3,39.3c6.9,7.8,22.5,25.9,27,31.1l5.6-4.5l-29.2-30.2C152.2,37.4,151.7,38.7,149.3,39.3z"/>
			<path class="st4" d="M145.9,40.1c-2.3,0.5-4.4,1.1-6,2.5c6.3,8.8,19.7,28.2,25.5,36.6l7.2-5.7L145.9,40.1z"/>
			<path class="st4" d="M164.5,27.8c-2.3-0.1-5-0.5-8.2,1.9c-0.5,0.4-0.9,0.7-1.2,1.1c8.2,9,23.9,27.1,29.2,33.3l4.4-3.5
				C184.2,54.3,171.5,36.7,164.5,27.8z"/>
			<path class="st4" d="M180.1,16c-2.1-0.1-3.6,0.2-4.8,0.8l22.6,36.5l2.2-1.8C200.1,51.5,187.3,16.5,180.1,16z"/>
			<path class="st3" d="M194.9,55.6l-24-32.8c-0.5,1.1-1,2.1-1.7,3.1c-0.1,0.1-0.1,0.2-0.2,0.2c6.5,8.7,18.8,25.4,23.3,31.5
				L194.9,55.6z"/>
		</g>
		<path class="st5" d="M93.2,152.5c37.3-30.1,74-59.8,113.4-91.6c11.5-9,0.9-19.2-8.2-11.9c-43.2,34.7-86,69-128.9,103.4L93.2,152.5
			z"/>
	</g>
</g>
<g id="Layer_1_1_">
</g>
</svg>
