<?xml version="1.0" encoding="utf-8"?>
<!-- Generator: Adobe Illustrator 25.0.0, SVG Export Plug-In . SVG Version: 6.00 Build 0)  -->
<svg version="1.1" xmlns="http://www.w3.org/2000/svg" xmlns:xlink="http://www.w3.org/1999/xlink" x="0px" y="0px"
	 viewBox="0 0 299.8 299.221" enable-background="new 0 0 299.8 299.221" xml:space="preserve">
<g id="tarinakone_x5F_rhymes">
	<path fill="#F7D014" d="M265.161,42.259c-48.698-57.862-133.6-50.62-199.133-12.413c-49.033,28.587-96.542,117.417-41.12,207.357
		c55.895,90.709,188.312,69.28,235.126,16.028C319.052,186.095,305.159,89.784,265.161,42.259z"/>
	<g>
		<path fill="#FF4035" d="M70.438,57.432c0.364-0.792,115.001-21.049,115.19-20.757c0.142,0.219,0.687,6.602,0.166,6.578
			c0,0-114.096,20.908-114.155,20.607C71.592,63.618,70.249,57.845,70.438,57.432z"/>
		<polygon fill="#FFFFFF" points="74.519,59.399 184.102,41.279 225.281,51.889 94.702,72.3 		"/>
		<path fill="#FF8000" d="M105.79,62.262c0,0,124.928-12.966,125.273-12.373c0.591,1.018,0.169,185.394-0.521,188.063
			c-0.245,0.948-122.61,28.877-123.472,28.679c-0.862-0.198-0.533-136.319-0.524-136.944
			C106.719,118.614,105.79,62.262,105.79,62.262z"/>
		<path fill="#FF4035" d="M70.438,57.432c0.146-0.389,3.76,2.755,13.44,3.823c7.004,0.773,14.004,1.075,22.521,0.346
			c0.371-0.032,1.073,204.818,0.98,205.013c-3.77,1.165-9.398,2.393-20.664,1.36c-11.123-1.02-13.915-3.836-14.939-4.905
			C71.422,262.699,70.293,57.821,70.438,57.432z"/>
		<g>
			<path fill="#FFA600" d="M106.758,124.447c-0.037-7.042-0.068-12.362-0.089-15.162c-0.021-2.708-0.041-5.604-0.062-8.582
				c-3.07,0.407-9.637,0.945-19.765,0.101c-9.137-0.761-14.687-3.069-16.561-3.972c0.025,8.121,0.061,18.303,0.081,24.455
				c2.14,0.6,7.278,1.894,15.351,3.047C94.154,125.539,103.105,124.833,106.758,124.447z"/>
			<path fill="#FFA600" d="M106.944,163.179c-0.038-8.448-0.076-16.506-0.111-23.747c-3.085,0.407-9.641,0.937-19.73,0.096
				c-9.362-0.78-14.961-3.185-16.695-4.037c0.026,7.882,0.055,16.611,0.082,24.482c2.057,0.582,7.242,1.907,15.483,3.084
				C94.358,164.255,103.245,163.566,106.944,163.179z"/>
			<path fill="#FFA600" d="M86.93,177.904c-8.868-0.739-14.358-2.935-16.387-3.889c0.021,5.426,0.117,16.638,0.199,24.453
				c2.295,0.63,7.332,1.862,15.059,2.966c8.652,1.236,17.842,0.463,21.309,0.086c-0.033-7.83-0.067-15.854-0.102-23.758
				C104.086,178.171,97.414,178.778,86.93,177.904z"/>
		</g>
	</g>
	<path fill="#FCE30B" d="M216.191,131.708c-0.265-1.024-30.896-0.134-31.015-0.277c-2.64-4.702-13.579-23.061-16.555-22.953
		c-2.513,0.092-13.28,26.657-12.91,26.548c-0.37,0.109-30.994,9.57-31.496,11.321c-0.829,2.893,20.196,17.997,20.157,18.261
		c-0.499,6.278-2.247,25.437-0.858,26.079c2.856,1.32,29.913-21.203,30.049-21.275c0.027,0.023,13.48,8.349,20.493,11.945
		c2.911,1.493,7.638,3.961,9.319,3.527c1.681-0.434-4.249-26.994-5.08-30.51c0.055-0.082,11.169-12.372,15.663-18.439
		C214.878,134.693,216.456,132.731,216.191,131.708z"/>
</g>
<g id="Layer_1">
</g>
</svg>
