<?xml version="1.0" encoding="utf-8"?>
<!-- Generator: Adobe Illustrator 25.0.0, SVG Export Plug-In . SVG Version: 6.00 Build 0)  -->
<svg version="1.1" id="Layer_1" xmlns="http://www.w3.org/2000/svg" xmlns:xlink="http://www.w3.org/1999/xlink" x="0px" y="0px"
	 viewBox="0 0 229.7 153.4" style="enable-background:new 0 0 229.7 153.4;" xml:space="preserve">
<style type="text/css">
	.st0{fill:#3F9D7B;}
	.st1{fill:#E8CAAE;}
	.st2{opacity:0.4;fill:#C1A174;enable-background:new    ;}
	.st3{fill:#C1A174;}
</style>
<g id="tarinakone_x5F_body_x5F_ear">
	<g id="tarinakone_x5F_keho_x5F_korvat">
		<polygon class="st0" points="0,0.4 12.2,152.1 225.2,153.4 229.7,0 		"/>
		<g>
			<path class="st1" d="M98.9,32.3c4.8-10.5,20.2-32.4,58.9-15.5c36.8,16,40.7,67.7-8,104c-40.8,30.4-85.7,27.2-96.3,1.2
				C47,105.8,65.1,93,84.1,75.1C97.7,62.4,94.2,42.5,98.9,32.3z"/>
			<path class="st2" d="M77.5,99.9c0,0-1.8-7,5.5-14.4c7.3-7.4,14.3-11.1,20.2-17.3c10.7-11.3,13-42.8,23.4-44.5
				c28.4-4.6,43.1,33.9,36.2,48.4s-30.6,41.7-63.1,42C83.3,114.3,77.5,99.9,77.5,99.9z"/>
			<path class="st3" d="M112.4,62c-2-0.1-6-17.2,0.6-29.7c6.6-12.6,22.2-15.3,37.9-6.2c13.2,7.6,31.6,32.5-0.4,72.6
				c-8,10-20.8,18.6-30.4,23.1c-13.5,6.3-23.6,7.9-24.8,6.5c-1.2-1.4,27.2-6,50.7-34.7c6.3-7.7,11.6-17.5,12.7-34.3
				c1.5-24.4-22.2-33.1-31.1-27.4C109.7,43.4,114.4,62.1,112.4,62z"/>
			<path class="st3" d="M114.4,64.3c-1.3-0.1,24,23.5,1.4,38.1c-9.5,6.1-27.4,5.6-30-0.3c-2.4-5.4,5.1-13,8.9-13.9
				c6.7-1.5,13.3-0.2,13.9-0.7c1.8-1.8-5.3-6.5-14.8-5.4c-10.1,1.3-25.1,15.3-16.1,27.3c8,10.7,22.7,8,35.9,2.6
				c8-3.3,19.9-13,17.1-25.2C126.9,70.3,114.9,64.3,114.4,64.3z"/>
		</g>
	</g>
</g>
<g id="Layer_1_1_">
</g>
</svg>
