<?xml version="1.0" encoding="utf-8"?>
<!-- Generator: Adobe Illustrator 25.0.0, SVG Export Plug-In . SVG Version: 6.00 Build 0)  -->
<svg version="1.1" id="Layer_1" xmlns="http://www.w3.org/2000/svg" xmlns:xlink="http://www.w3.org/1999/xlink" x="0px" y="0px"
	 viewBox="0 0 230.1 153.7" style="enable-background:new 0 0 230.1 153.7;" xml:space="preserve">
<style type="text/css">
	.st0{fill:#3F9D7B;}
	.st1{fill:#E8CAAE;}
	.st2{opacity:0.55;fill:#C1A174;enable-background:new    ;}
	.st3{fill:#FFFFFF;}
	.st4{fill:#005F8A;}
	.st5{fill:#3F749A;}
	.st6{fill:#4A4A49;}
</style>
<g id="tarinakone_x5F_body_x5F_eye">
	<g id="tarinakone_x5F_keho_x5F_silmat">
		<polygon class="st0" points="0.5,0 12.3,151.7 225.3,153.7 230.1,0.3 		"/>
		<path class="st1" d="M29.1,76c0,0,23.8-53,93.3-49c65.7,3.8,81.7,59.8,81.7,59.8s-24.7,43.7-95,41.7C46.2,126.8,29.1,76,29.1,76z"
			/>
		<path class="st2" d="M35.8,78c0,0,19.7-41.3,87.6-39.9c63.1,1.3,77.5,47.7,77.5,47.7s-20.8,39.9-89.6,38.9
			C48.7,123.7,35.8,78,35.8,78z"/>
		<path class="st3" d="M40.4,79.7c0,0,18.5-39,82.4-37.7c59.4,1.2,72.9,43.1,72.9,43.1s-19.6,36-84.3,35
			C52.6,119.2,40.4,79.7,40.4,79.7z"/>
		<path class="st4" d="M97.2,47.6c-15.4,9.5-22.6,26.1-18,45.1c4.4,18.1,21.1,34.5,52.1,25.8c28.7-8.1,30.3-43.3,21.6-59.4
			C141.1,37.3,109.9,39.7,97.2,47.6z"/>
		<g>
			<path class="st5" d="M134.2,68.5L147,51.3c-1.2-1.2-2.5-2.2-3.9-3.1l-10.4,18.3C133.2,67.1,133.7,67.8,134.2,68.5z"/>
			<path class="st5" d="M137.6,80.1c5-0.2,14.5-0.6,19.9-0.9c0-1.7-0.1-3.4-0.3-5c-4.2,0.7-14.2,2.3-19.8,3.2
				C137.5,78.3,137.6,79.2,137.6,80.1z"/>
			<path class="st5" d="M136.9,74.5l18.7-8.7c-0.7-2.5-1.7-4.8-2.7-6.9c-0.2-0.3-0.3-0.6-0.5-0.8l-16.2,14.1
				C136.5,73,136.7,73.7,136.9,74.5z"/>
			<path class="st5" d="M116.1,101.4l-1.4,19.4c1.8,0,3.6-0.1,5.5-0.3l-0.5-19.4C118.5,101.4,117.3,101.4,116.1,101.4z"/>
			<path class="st5" d="M109.1,100c-3,5-8.3,13.9-10.4,17.5c1.8,0.8,3.6,1.5,5.6,2c2-4,6.8-13.8,9-18.3
				C111.8,101,110.4,100.6,109.1,100z"/>
			<path class="st5" d="M123.9,100.1c1.2,5.1,3.4,14.5,4.5,19.1c1-0.2,1.9-0.5,2.9-0.8c0.5-0.1,1-0.3,1.4-0.4l-6-19
				C125.8,99.4,124.9,99.8,123.9,100.1z"/>
			<path class="st5" d="M103.2,95.8L86,107.2c1.9,2.4,4,4.6,6.6,6.6l13.5-15.5C105,97.5,104.1,96.7,103.2,95.8z"/>
			<path class="st5" d="M129.7,97.2l9.6,18c1.8-1,3.4-2.1,4.9-3.4l-11.9-16.9C131.5,95.7,130.6,96.5,129.7,97.2z"/>
			<path class="st5" d="M137.5,82.8c-0.1,0.9-0.2,1.9-0.4,2.8c4.7,1.9,13.7,5.8,18.5,7.9c0.6-2,1-4.1,1.3-6.1
				C152.7,86.4,143,84.1,137.5,82.8z"/>
			<path class="st5" d="M134.7,91.8c3,3.5,10.7,12.2,13.8,15.7c1.9-2.3,3.4-4.7,4.7-7.3l-16.9-11.5
				C135.8,89.7,135.3,90.8,134.7,91.8z"/>
			<path class="st5" d="M99.3,89.4c-3.2,1.3-13,5.1-18.9,7.3c0.7,1.9,1.5,3.7,2.4,5.5l17.9-9.8C100.1,91.4,99.6,90.4,99.3,89.4z"/>
			<path class="st5" d="M98.7,75.4c-4.2-0.9-14.5-3.2-19.6-4.3c-0.6,2.1-1,4.4-1.2,6.6l20,1.2C98.1,77.7,98.3,76.5,98.7,75.4z"/>
			<path class="st5" d="M107.4,64.6c0.3-0.2,0.6-0.4,1-0.5c-2.3-4.6-7-13.8-9.1-17.7c-0.8,0.4-1.5,0.8-2.2,1.2c-2,1.2-3.8,2.6-5.5,4
				l13.2,14.8C105.7,65.8,106.5,65.2,107.4,64.6z"/>
			<path class="st5" d="M115.8,62c-1.2-5.2-3.2-14.4-4.5-19.3c-2.1,0.4-4.2,0.8-6.1,1.4l6.5,18.7C112.9,62.5,114.3,62.2,115.8,62z"
				/>
			<path class="st5" d="M121.4,61.8c0.2-6,0.6-15.4,0.8-19.9c-1.6-0.1-3.2-0.1-4.8,0l0.9,19.8C119.4,61.7,120.4,61.8,121.4,61.8z"/>
			<path class="st5" d="M129.2,64l6.7-19.5c-2-0.7-4.1-1.3-6.2-1.7l-4.5,19.6C126.5,62.8,127.9,63.3,129.2,64z"/>
			<path class="st5" d="M102.2,69c-3.7-3.1-11.4-9.6-15.3-12.7c-1.5,1.8-2.9,3.7-4,5.7L100,72.2C100.6,71.1,101.3,70,102.2,69z"/>
			<path class="st5" d="M97.9,83.3c-4.3,0.4-14.9,1.5-20,1.9c0.1,1.6,0.3,3.1,0.7,4.8L98.3,86C98.1,85.1,98,84.2,97.9,83.3z"/>
		</g>
		<path class="st6" d="M107.2,64.5C98.1,70,96.1,79.1,98.5,88c1.9,7,10.1,17.3,25.2,12.4c15.8-5.1,16-22.3,11.6-30.4
			C129.3,58.8,113.4,60.8,107.2,64.5z"/>
	</g>
</g>
<g id="Layer_1_1_">
</g>
</svg>
