<?xml version="1.0" encoding="utf-8"?>
<!-- Generator: Adobe Illustrator 25.0.0, SVG Export Plug-In . SVG Version: 6.00 Build 0)  -->
<svg version="1.1" id="Layer_1" xmlns="http://www.w3.org/2000/svg" xmlns:xlink="http://www.w3.org/1999/xlink" x="0px" y="0px"
	 viewBox="0 0 229.8 153.4" style="enable-background:new 0 0 229.8 153.4;" xml:space="preserve">
<style type="text/css">
	.st0{fill:#295E87;}
	.st1{fill:#F77F15;}
	.st2{fill:#F1D2B3;}
	.st3{fill:#FFFFFF;}
	.st4{fill:#2E3B4A;}
	.st5{fill:#C1A174;}
	.st6{fill:#EB4238;}
</style>
<g id="tarinakone_x5F_crazy_x5F_body">
	<g id="tarinakone_x5F_seko_x5F_keho">
		<polygon class="st0" points="0.2,0 12.2,151.8 225.2,153.4 229.8,0 		"/>
		<path class="st1" d="M49.9,79.9c0,0,128-2.4,131.1-3.8s6.6-38.3-3.9-58.8C173.4,10,168.7,4.4,163.4,0L59.8,0
			c-3.6,1.6-6.4,3.5-6.3,5.5C53.7,8,64,8,64,8s-13.3,6.8-17.6,26.8C40.4,62.4,49.9,79.9,49.9,79.9z"/>
		<path class="st2" d="M107.9,133.2c51.8,5.3,79.3-30.1,72.2-76.6c-4.6-30.5-18.9-49-39-56.6L94.2,0C65.6,10.3,50.6,39.2,49.3,66.9
			C48.3,89.1,58.3,128.2,107.9,133.2z"/>
		<path class="st2" d="M46,66.6c6.3-0.4,10.9,3,12.1,10.8c1.3,8.4-3.7,14.7-13,13.8c-8.9-0.9-10.7-7.9-10.5-11.9
			C34.9,73.3,38.7,67.1,46,66.6z"/>
		<path class="st2" d="M180.8,67.4c6.3-0.4,10.9,3,12.1,10.8c1.3,8.4-3.7,14.7-13,13.8c-8.9-0.9-10.7-7.9-10.5-11.9
			C169.7,74.1,173.5,67.8,180.8,67.4z"/>
		<g>
			<path class="st3" d="M143.4,50.7c8.4-0.5,14.6,3.9,16.2,13.8c1.7,10.7-4.9,18.8-17.3,17.6C130.4,81,128,72,128.2,66.9
				C128.6,59.3,133.7,51.3,143.4,50.7z"/>
			<path class="st4" d="M144,56.9c5-0.3,8.6,2.3,9.6,8.2c1,6.3-3,11.6-10.3,10.9c-7-0.7-8.4-6.5-8.2-9.5
				C135.3,62,138.2,57.3,144,56.9z"/>
		</g>
		<g>
			<path class="st3" d="M83.7,50.8c8.4-0.5,14.6,3.9,16.2,13.8c1.7,10.7-4.9,18.8-17.3,17.6C70.7,81,68.2,72.1,68.5,67
				C68.9,59.4,73.9,51.4,83.7,50.8z"/>
			<path class="st4" d="M84.8,57c5-0.3,8.6,2.3,9.6,8.2c1,6.3-3,11.6-10.3,10.9c-7-0.7-8.4-6.5-8.2-9.5C76.1,62.1,79,57.3,84.8,57z"
				/>
		</g>
		<path class="st5" d="M114.4,70.5c0,0-5.3,14.4-12.5,15.2c0,0,3.1,5.1,12.6,5.1c10,0,11.4-3.5,11.4-3.5
			C119.9,85.9,114.4,70.5,114.4,70.5z"/>
		<path class="st6" d="M94.7,92.1c0,0,4,16.1,19.2,16c14.9-0.1,19.2-16.1,19.2-16.1s-0.6,20.5-21.7,19.2
			C95.3,110.2,94.7,92.1,94.7,92.1z"/>
		<path class="st1" d="M133,13.9c0.4,1.9,6.4,34,7.7,33.5c1.2-0.4,40.5,0,40.5,0s0-31.9-19.4-47.4L76,0
			C49.8,16.9,46.4,47.5,46.4,47.5l84-0.1C130.4,47.4,132.6,12,133,13.9z"/>
		<path class="st2" d="M153.4,153c-1.9-1.7-3.7-3.4-5.6-4.8c-10.9-8.3-20.6-8.9-20.6-8.9l0-16.7l-26.3,0l0.3,16.7
			c0,0-9.2,0.6-20.1,8.9c-1.7,1.3-3.3,2.7-4.9,4.1L153.4,153z"/>
	</g>
</g>
<g id="Layer_1_1_">
</g>
</svg>
