<?xml version="1.0" encoding="utf-8"?>
<!-- Generator: Adobe Illustrator 25.0.0, SVG Export Plug-In . SVG Version: 6.00 Build 0)  -->
<svg version="1.1" id="Layer_1" xmlns="http://www.w3.org/2000/svg" xmlns:xlink="http://www.w3.org/1999/xlink" x="0px" y="0px"
	 viewBox="0 0 229.7 153.7" style="enable-background:new 0 0 229.7 153.7;" xml:space="preserve">
<style type="text/css">
	.st0{fill:#F7D014;}
	.st1{fill:#3F7498;}
	.st2{fill:#A1CE2A;}
	.st3{fill:#1F5DA6;}
</style>
<g id="tarinakone_x5F_rhymes_x5F_earth">
	<g id="tarinakone_x5F_riimit_x5F_maa">
		<polygon class="st0" points="0,0 11.8,151.7 224.8,153.7 229.7,0.2 		"/>
		<path class="st1" d="M148.7,16C50-21,9.4,113.8,97.5,140.1C160.6,169.4,239.8,55.7,148.7,16z"/>
		<path class="st2" d="M175.2,33.8c0,0-4.6,2.1-6.5,2c-2-1.1-3-1.4-4.7,0.6c-0.6,0.6-0.8,2.9-1.4,3.5c-20.7,12.9-8-3.7-22.4,6.2
			c-1.7,1.1-6.2,3.4-6.1,5.4c0.1,1,1.7,2.3,2.7,2.2c0.7,0,2.1-2,2.8-1.7c2.1,2.4,0.9,6.7-3.2,5.3c-2.5-3.1-3.1-1.8-4.8,1.2
			c-10,3.8-5.9,4.8-12,9.3c-1.2,0.3-3.7-2.4-4.6-1.6c-1,0.8-2.4,4.2-2.3,5.4c3.2,7.4,13.3-2.3,15.8-0.3c5.1,3.9,1.3,9.9,1.6,10.1
			c1.3,0.8,4.3-1,4.9-2.3c0.7-1.5-2.8-5.2-0.9-6.5c0.8-0.6,3.1,2.4,3.1,2.8c0,0.4,0,5.7,1.6,6.5c1.2,0.6,3.8-1.8,5.2-1.8
			c6.3-0.5,2.2,6.6-1,7.8c-2.3,0.6-8.5-3.3-9.3-2.5s-6.2,0.2-8.2-0.6c-2.1-0.8-1.9-4.2-3.1-5c-0.9-0.6-3.1-0.2-4.1-0.7
			c-1-0.5,0.1-2.1-2.5-2.8C103,76.1,94,92.2,101.6,103.4c1.8,1.9,8.5,1.5,10,3.7c1.8,2.7-0.1,9.8-0.8,12.9
			c-2.4,7.5-4.4,5.3,0.9,11.6c1,1.7-1.7,5.2,1.5,6.6c3.2,1.4,6.3-3.7,8.3-4.8c0.9-0.5,2.5-0.8,3.3-1.6c3.4-7.2,3.2-4.5,9.2-7.7
			c1.7-1.8,2.7-7.2,4.2-9.1c2-2.6,10.6-4.5,11-6.1c0.4-1.5-6.8-2-7.8-3.9c-1.2-2.1-2.4-15.2-0.9-13.7c1.1,1.1,3.1,2.1,2.8,3.3
			c-0.6,3,1.1,7.6,3,8.6c1.6,1.3,13.5-3.4,14.3-4.9c0.8-2.3-4.4-3.3-5.5-4.7c-1.1-1.5-3.1-5.1-2.3-6.7c0.6-1.3,2.9,2.8,4,3.6
			c2.9,2,9.7,4.6,12.2,7.2c3.5,3.7,0.3,6.5,2.3,7.9c2,1.4,5.7-3.1,7.3-4.6c1.5-1.4,6.7-6.2,6.7-6.2S201.1,60.8,175.2,33.8z"/>
		<path class="st2" d="M124.8,10.1c3.7,4.8,1.2,3.1-3.3,6.4c-1.7,3.9-3.1,21.8-13.8,16.1c-0.4-1.6,3.6-6.6,2.5-8
			C109.5,23.9,100,26,99,27.4c-1.2,1.8-2,3.7-0.8,5.3c0.7,0.9,2.8-0.4,3.6,0.3c1,0.9,2.2,3.3,2.5,4.6c2.5,6.7-5.1,4.4-9.4,6.5
			c-2.7,1.4-6.9,5-10.3,5c-6.4-3.4-13.8,4.8-19.5,3.7c-1-0.4-1.7-3.2-0.8-3.7c3.7-1.8,4-7,3-9.3c-0.6-1.3-5.7-2.2-5.7-2.2
			c8.1-12.1,21.8-21.4,29.8-23.6c7.7,3.1,16.9,0.6,24.5-4.4C116.8,9.6,123.3,9.8,124.8,10.1z"/>
		<path class="st2" d="M53.3,53.5c0,0,3.4,6.3,5.1,7.8c1.1,1,3.9,0.8,5,1.9c1.5,1.6,0.1,4.1,0.9,9.6c0.2,1.2,1.2,3.7,1.3,4.9
			c-1.5,4.8-2,3.9,0.8,8.4c-1.3,4.5,3.8,6.8,4.4,10.3c-0.5,3.6-4.1,6.2-7.6,4.6c-1.9,0.4-1.3,2.6-2.8,3.5c-1.2,0.7-5.3,1.2-5.3,1.2
			C48,93.9,46.3,70.7,53.3,53.5z"/>
		<polygon class="st3" points="176.6,95.5 176.6,95.5 176.6,95.5 		"/>
	</g>
	<g id="Layer_1_1_">
	</g>
</g>
<g id="Layer_1_2_">
</g>
</svg>
