<?xml version="1.0" encoding="utf-8"?>
<!-- Generator: Adobe Illustrator 25.0.0, SVG Export Plug-In . SVG Version: 6.00 Build 0)  -->
<svg version="1.1" id="Layer_1" xmlns="http://www.w3.org/2000/svg" xmlns:xlink="http://www.w3.org/1999/xlink" x="0px" y="0px"
	 viewBox="0 0 229.7 153.4" style="enable-background:new 0 0 229.7 153.4;" xml:space="preserve">
<style type="text/css">
	.st0{fill:#3F9D7B;}
	.st1{fill:#C1A174;}
	.st2{fill:#E8CAAE;}
</style>
<g id="tarinakone_x5F_body_x5F_nose">
	<polygon class="st0" points="0.1,0.3 12.2,152.1 225.2,153.7 229.8,0.2 	"/>
	<g>
		<path class="st1" d="M125.5,125.3c0,1.8,7.8,10.3,24,9.8c10.5-0.3,19-5.5,19.3-10.9L125.5,125.3z"/>
		<path class="st1" d="M110.1,125.7c0,1.8-7.3,10.6-23.4,11c-10.5,0.2-19.3-4.6-19.8-9.9L110.1,125.7z"/>
		<path class="st2" d="M175.5,108.4c-4.9-12.2-12.3-12.4-19-20.5c-6.8-8.1-21.2-63.7-28.8-69.3c-6.3-4.7-11.3-4.7-12.7-4.6
			c-1.5-0.1-6.4,0.2-12.5,5.2c-7.3,6-18.9,62.3-25.2,70.7c-6.3,8.4-13.7,9.1-18,21.5s8.9,23.7,14.3,21.9c2.8-0.9,7.1-6.8,11.9-6.8
			c7.7,0,8.1,2.2,13.5,6.7c8.1,6.7,15.8,6.2,19.2,6.1c2.6-0.1,11.1,0.1,18.8-7.1c5.1-4.8,5.4-7,13.1-7.4c4.7-0.2,9.4,5.5,12.2,6.2
			C167.9,132.5,180.5,120.6,175.5,108.4z"/>
		<path class="st1" d="M111.7,14.1c0,0-12.3-0.2-16.1,9.5C92,32.5,78,77,72.7,87c-2.6,4.9-7.6,8.4-12.9,12.4
			c-10.2,7.6-13.6,22.7-6,30.8c3.7,3.9,8.3,5.9,16,4.6c1.9-0.3,3.2-1.4,3.2-1.4c-0.6,0.4-6-3.8-7.7-6.3c-0.9-1.3-5.6-8.1-2.1-16.4
			c3.5-8.3,10.2-10.9,16.8-19.7c4.3-5.7,5.8-12,7.2-17.7c6.8-28.3,11.5-39.6,15.6-48.7C106.3,16.5,111.7,14.1,111.7,14.1z"/>
		<path class="st1" d="M86.8,89.6c0.6,0.6-2.6,9.6,0.6,22.6c2.2,8.8,6.3,13.6,5.9,13.9c-1.5,1.3-10.9-3.9-12.6-15.4
			C79,99.7,86.2,89,86.8,89.6z"/>
		<path class="st1" d="M118.4,14c0,0,12.3-0.8,16.6,8.7c3.9,8.7,20.2,52.5,26,62.1c2.9,4.8,8,8,13.5,11.7c10.6,7.1,14.7,22,7.5,30.4
			c-3.5,4.1-8,6.3-15.7,5.4c-1.9-0.2-3.3-1.2-3.3-1.2c0.6,0.4,5.8-4.1,7.4-6.7c0.8-1.3,5.2-8.4,1.3-16.5
			c-3.9-8.2-10.8-10.3-17.8-18.8c-4.6-5.5-6.4-11.7-8-17.3c-8.2-27.9-13.5-39-18-47.9C123.9,16,118.4,14,118.4,14z"/>
		<path class="st1" d="M147,88c-0.6,0.6,3.1,9.5,0.6,22.6c-1.7,8.9-5.6,13.9-5.2,14.2c1.5,1.3,10.7-4.4,11.9-16
			C155.3,97.8,147.6,87.4,147,88z"/>
	</g>
</g>
<g id="Layer_1_1_">
</g>
</svg>
