<?xml version="1.0" encoding="utf-8"?>
<!-- Generator: Adobe Illustrator 25.0.0, SVG Export Plug-In . SVG Version: 6.00 Build 0)  -->
<svg version="1.1" id="Layer_1" xmlns="http://www.w3.org/2000/svg" xmlns:xlink="http://www.w3.org/1999/xlink" x="0px" y="0px"
	 viewBox="0 0 229.7 153.5" style="enable-background:new 0 0 229.7 153.5;" xml:space="preserve">
<style type="text/css">
	.st0{fill:#F7D014;}
	.st1{fill:#FDA519;}
	.st2{fill:#F77F15;}
	.st3{fill:#7F4F1D;}
	.st4{opacity:0.25;fill:#7F4F1D;enable-background:new    ;}
	.st5{fill:#FFFFFF;}
	.st6{fill:#5A3605;}
	.st7{fill:#935803;}
	.st8{fill:#E8E9E9;}
	.st9{fill:#274C32;}
</style>
<g id="tarinakone_x5F_rhymes_x5F_cat">
	<g>
		<polygon class="st0" points="0,0 12,151.7 224.9,153.5 229.7,0 		"/>
		<path class="st1" d="M113.4,40.2c7.6-12.1,31.3-30.3,36.3-25.5c5,4.8,1.5,41.7-5.6,56.4L113.4,40.2z"/>
		<path class="st2" d="M128.6,55.6l-15.2-15.3c6.9-10.9,26.9-26.9,34.3-26.2L128.6,55.6z"/>
		<path class="st3" d="M122.1,42.9c2.4-6.6,20.8-20.2,21.6-20c1.3,0.2-2.7,29.3-6.4,35.6L122.1,42.9z"/>
		<path class="st1" d="M81.6,37.8c-5-13.4-24.4-36.1-30.3-32.4c-5.9,3.7-10,40.5-6.1,56.3L81.6,37.8z"/>
		<path class="st2" d="M63.6,49.7l18-11.9C77.1,25.7,60.8,6,53.4,5.1L63.6,49.7z"/>
		<path class="st3" d="M72.5,38.6c-1-6.9-16.2-24-17-24c-1.3,0-3.3,29.2-1.1,36.1L72.5,38.6z"/>
		<path class="st1" d="M191.6,94.1c-5.4-7-22.7-30.1-13.8-45.6c1.7-2.9,4-13.1-0.8-15.9c-10.3-6.2-16,7-16.8,8.8
			c-6.9,15.5-0.9,33.2,1.4,38.3c2.9,6.6,21.2,32.7,25.7,39.9c3.6,5.8,13.3,18.7,13.3,33.8l17,0.1
			C217.4,140.6,212.5,121.1,191.6,94.1z"/>
		<g>
			<path class="st2" d="M176.3,66.2l-18.9-2.6c-0.6-5.4-0.6-11.5,1.1-17.5c5,1.6,12.4,3.6,18,5.1C174.8,55.8,175,61,176.3,66.2z"/>
		</g>
		<g>
			<path class="st2" d="M189.8,91.8l-16.6,6.4c-4.3-6.5-8.5-12.9-10.5-16.7c4.8-1.9,11.8-4.6,16.9-6.6
				C182.7,81.9,186.9,88,189.8,91.8z"/>
		</g>
		<g>
			<path class="st2" d="M209.3,122l-17,5.2c-1.9-3.2-3.7-5.8-4.9-7.7c-1.2-2-3.5-5.4-6.3-9.5l16.1-8.2
				C202.4,109.1,206.3,115.8,209.3,122z"/>
		</g>
		<path class="st2" d="M215.9,140.2c-5.7-0.5-13.3-1.1-18-1.5c1.6,4.4,2.8,9.3,2.7,14.5l17,0.1C217.5,149.6,217.1,145.2,215.9,140.2
			z"/>
		<path class="st1" d="M158.8,138.4c-7.9-9.6-15.9-16.9-23.6-22.3L74.6,134c4.2,6.8,7.3,12.9,9.8,18.3l84.3,0.7
			C166.1,148.2,162.8,143.3,158.8,138.4z"/>
		<path class="st4" d="M75.5,135.5l8.8,16.6c0,0,14.8,0.2,28.7-5.7c20.6-8.6,27.3-26.5,27.3-26.5l-8.3-6.6L75.5,135.5z"/>
		<path class="st2" d="M144.4,123.3L130.3,142l23.8-9.1C150.8,129.3,147.6,126.1,144.4,123.3z"/>
		<path class="st1" d="M100.4,35.5c29.3,4.9,52.7,29.2,44.9,62.2c-3.8,16.2-16.3,50-61.6,43.1C49.7,135.5,35.6,99.7,38,83
			C42.8,50.1,71.1,30.6,100.4,35.5z"/>
		<path class="st5" d="M113.2,107.3c7.3,2.6,15.4-1.3,17.9-8.6c2.6-7.3-1.3-15.4-8.6-17.9c-7.3-2.6-15.4,1.3-17.9,8.6
			C102,96.7,105.9,104.7,113.2,107.3z"/>
		<path class="st5" d="M58.9,100.7c7.3,2.6,15.4-1.3,17.9-8.6c2.6-7.3-1.3-15.4-8.6-17.9c-7.3-2.6-15.4,1.3-17.9,8.6
			C47.7,90.1,51.5,98.1,58.9,100.7z"/>
		<path class="st6" d="M77.4,118.4c5.5,0.7,10.3-6.4,10.8-7.8c0.2,1.5,1.4,9.3,8.1,10.1c9.7,1.2,12.7-9.6,12.6-9.7
			c-0.3-0.1-5.1,8.3-11.9,7.7c-5.5-0.5-7-8.3-7.5-10.4l-2.1-0.1c-1,1.9-5.4,8.1-9.7,7.9c-5.9-0.2-9.7-7.1-9.7-10.1
			C67.5,107.8,67.9,117.2,77.4,118.4z"/>
		<path class="st7" d="M88.4,108.8c-3.7-0.5-9.5-7.4-7.3-8.8c4.1-2.8,15.2-0.2,16.3,2.3C98.4,104.7,91.2,109.1,88.4,108.8z"/>
		<path class="st2" d="M130.2,73.5c6.2-0.3-3-11.9-12-11.7c-9,0.2-8.3,5.9-5,8C117,72.3,124,73.8,130.2,73.5z"/>
		<path class="st2" d="M56.6,63.4c-5.6-2.5,7-10.1,15.4-6.7c8.3,3.4,5.6,8.5,1.8,9.3C69.4,66.9,62.2,65.8,56.6,63.4z"/>
		<path class="st2" d="M118.1,41.2c-3.9-1.9-8-3.5-12.3-4.5l3.4,16.5L118.1,41.2z"/>
		<path class="st2" d="M76.1,37l6.7,14c0,0,8.9-15.1,8.6-16.1c-0.3-1,4.9,18.5,4.9,18.5l9.4-16.7C104,36.2,90.5,32.2,76.1,37z"/>
		<path class="st2" d="M47.7,74.2c0.2-0.5-2.3-3.9-5-7.3c-1,2.3-2,4.8-2.7,7.3C43.4,74.5,47.4,74.8,47.7,74.2z"/>
		<path class="st2" d="M46.3,84l-7.2-6.5c-0.4,1.8-0.8,3.6-1,5.5c-0.1,0.8-0.2,1.6-0.2,2.5L46.3,84z"/>
		<path class="st2" d="M37.9,89.8c0.1,1.9,0.4,4,0.9,6.2l6.2-2.2L37.9,89.8z"/>
		<path class="st2" d="M146.5,90.8c0.4-3.5,0.4-6.8,0.1-10.1l-11,4.2L146.5,90.8z"/>
		<path class="st2" d="M134.4,94.6l9.6,8.3c0.6-1.9,1-3.7,1.4-5.3c0.4-1.8,0.7-3.5,1-5.3L134.4,94.6z"/>
		<path class="st2" d="M139.9,113.7c1.5-3.1,2.6-6.2,3.5-9.1c-3.7-0.3-10-0.8-10.3,0C133,105.2,136.7,109.8,139.9,113.7z"/>
		<polygon class="st8" points="47.8,103.8 17.2,94.7 17.6,92.6 48,102.6 		"/>
		<polygon class="st8" points="48,107.1 16.1,106.6 15.9,104.4 47.8,106 		"/>
		<polygon class="st8" points="48.7,110.1 18.9,121.6 18,119.7 48.1,109.1 		"/>
		<polygon class="st8" points="125.5,112.4 157.5,111.9 157.6,109.7 125.7,111.3 		"/>
		<polygon class="st8" points="124.5,115.6 155.4,123.6 156.1,121.5 124.9,114.5 		"/>
		<polygon class="st8" points="123,118.3 148.6,137.3 150.1,135.7 123.8,117.5 		"/>
		<path class="st9" d="M119.1,101.6c-4.3,0.7-8.4-2.2-9.1-6.5c-0.7-4.3,2.2-8.4,6.5-9.1c4.3-0.7,8.4,2.2,9.1,6.5
			C126.3,96.8,123.4,100.9,119.1,101.6z"/>
		<path class="st9" d="M64.3,95c-4.3,0.7-8.4-2.2-9.1-6.5c-0.7-4.3,2.2-8.4,6.5-9.1c4.3-0.7,8.4,2.2,9.1,6.5
			C71.6,90.2,68.6,94.3,64.3,95z"/>
	</g>
</g>
<g id="Layer_1_1_">
</g>
</svg>
