<?xml version="1.0" encoding="utf-8"?>
<!-- Generator: Adobe Illustrator 25.0.0, SVG Export Plug-In . SVG Version: 6.00 Build 0)  -->
<svg version="1.1" xmlns="http://www.w3.org/2000/svg" xmlns:xlink="http://www.w3.org/1999/xlink" x="0px" y="0px"
	 viewBox="0 0 299.8 299.221" enable-background="new 0 0 299.8 299.221" xml:space="preserve">
<g id="tarinakone_x5F_body">
	<g id="tarinakone_x5F_keho">
		<path fill="#009F7A" d="M265.161,42.259c-48.698-57.862-133.6-50.62-199.133-12.413c-49.033,28.587-96.542,117.417-41.12,207.357
			c55.895,90.709,188.312,69.28,235.126,16.028C319.052,186.095,305.159,89.784,265.161,42.259z"/>
		<path fill="#E8CAAE" d="M216.14,221.957c0,0-17.068-36.412-37.085-51.698c-9.514-7.265-17.989-7.765-17.989-7.765v-4.805
			c23.421-2.552,38.958-16.407,44.744-36.215c15.703,7.865,24.806-26.036,2.48-21.285c-0.023-0.63,0.779-29.713-5.681-42.435
			c-14.305-28.176-60.193-28.245-60.686-28.609c-6.459-4.768-16.472-7.096-19.289-6.502c-6.588,1.388,4.768,10.187,4.768,10.187
			s-12.78-4.062-19.94-1.517c-9.547,3.393,6.586,6.089,6.586,6.089S96.625,41.5,96.842,46.051c0.103,2.165,9.17,2.147,9.17,2.147
			S91.244,69.7,92.765,100.316c-19.256-6.917-15.489,29.652,3.039,20.447c4.815,15.527,16.781,31.431,42.411,36.047l0.1,5.686
			c0,0-8.056,0.499-17.57,7.765c-20.017,15.286-37.085,51.698-37.085,51.698s-7.921,5.891-7.559,11.866
			c0.325,5.364,4.268,6.92,5.527,6.665c2.234-0.453,3.983-7.802,3.983-7.802s2.845,6.99,4.795,4.226
			c1.902-2.695-1.84-3.402,2.032-12.354c0.213-0.494,31.771-38.695,31.771-38.695s-2.431,70.555-3.325,73.156
			s-1.951,5.852-5.689,6.827c-3.739,0.975-9.347-3.17-10.728-0.894c-1.687,2.779-0.546,9.428,5.852,9.753
			c6.398,0.325,8.29-2.438,11.541-1.138s11.306,4.214,11.948-2.845c0.244-2.682-2.394-5.494-2.194-6.502
			c2.192-11.073,18.287-42.751,18.287-42.751s16.095,31.678,18.287,42.751c0.2,1.008-2.438,3.82-2.194,6.502
			c0.642,7.059,8.697,4.145,11.948,2.845c3.251-1.3,5.143,1.463,11.541,1.138s7.539-6.974,5.852-9.753
			c-1.382-2.276-6.99,1.869-10.728,0.894s-4.795-4.226-5.689-6.827c-0.894-2.601-3.325-73.156-3.325-73.156
			s31.558,38.202,31.771,38.695c3.872,8.952,0.13,9.659,2.032,12.354c1.951,2.763,4.795-4.226,4.795-4.226s1.748,7.35,3.983,7.802
			c1.259,0.255,5.202-1.3,5.527-6.665C224.061,227.848,216.14,221.957,216.14,221.957z"/>
	</g>
</g>
<g id="Layer_1">
</g>
</svg>
