<?xml version="1.0" encoding="utf-8"?>
<!-- Generator: Adobe Illustrator 25.0.0, SVG Export Plug-In . SVG Version: 6.00 Build 0)  -->
<svg version="1.1" id="Layer_1" xmlns="http://www.w3.org/2000/svg" xmlns:xlink="http://www.w3.org/1999/xlink" x="0px" y="0px"
	 viewBox="0 0 230 153.4" style="enable-background:new 0 0 230 153.4;" xml:space="preserve">
<style type="text/css">
	.st0{fill:#3F9D7B;}
	.st1{fill:#E8CAAE;}
	.st2{opacity:0.6;fill:#FFFFFF;enable-background:new    ;}
</style>
<g id="tarinakone_x5F_body_x5F_toes">
	<g id="tarinakone_x5F_keho_x5F_varpaat">
		<polygon class="st0" points="0.3,0 12.3,151.7 225.3,153.4 230,0 		"/>
		<path class="st1" d="M39.8,25.9c-1.6,9.6,12.9,12.8,12.9,12.8s-21.8-6.5-23.5,6.8C28.4,55.1,43,58,46.2,58.8
			c-4.3-0.8-24.6-6.5-24.3,8.3c0.3,12,20.3,10,25.8,10.1c-5.9,0.4-27.5,1.3-26,14.6c2.5,13.6,26.3,7.8,31.1,7.1
			c-10.4,2.1-36.5,10-29.9,27.5c7.3,19.3,32.1,6.5,39.8,2.9c6.3-0.8,15.1,4.6,22.6,4.6c7.5,0.1,20.3-1.7,34.9-16.8
			c22-22.7,33.4-25.6,53.8-24.1c20.4,1.5,52.4,1.9,43.4-41.4c-8.1-39.4-41.3-28.6-57.8-27.1c-48.6,4.2-56-10.3-86.9-2.2
			C60,25.8,41.4,16.6,39.8,25.9z"/>
		<path class="st2" d="M44.1,131.9l-10-22c0,0-11.7,7.4-6.6,16.8C32.6,136.1,44.1,131.9,44.1,131.9z"/>
		<path class="st2" d="M34,97.8l-2.2-14.9c0,0-8.3,2.5-6.8,8.9C26.4,98.3,34,97.8,34,97.8z"/>
	</g>
</g>
<g id="Layer_1_1_">
</g>
</svg>
