<?xml version="1.0" encoding="utf-8"?>
<!-- Generator: Adobe Illustrator 25.0.0, SVG Export Plug-In . SVG Version: 6.00 Build 0)  -->
<svg version="1.1" id="Layer_1" xmlns="http://www.w3.org/2000/svg" xmlns:xlink="http://www.w3.org/1999/xlink" x="0px" y="0px"
	 viewBox="0 0 229.7 153.4" style="enable-background:new 0 0 229.7 153.4;" xml:space="preserve">
<style type="text/css">
	.st0{fill:#F7D014;}
	.st1{fill:#0EB800;}
	.st2{fill:#8CD000;}
	.st3{fill:#A45700;}
	.st4{fill:#C30D26;}
	.st5{fill:#FF4035;}
	.st6{opacity:0.25;fill:#FFFFFF;enable-background:new    ;}
</style>
<g id="tarinakone_x5F_rhymes_x5F_mixed">
	<polygon class="st0" points="0,0.3 12.2,152 225.1,153.4 229.7,0 	"/>
	<g>
		<path class="st1" d="M154.6,24.4c0,0,2,15.3-8.7,24.6c-8.3,7.2-22.1,2.1-22.1,2.1s-3.2-13.8,7.9-21.6
			C142.8,21.5,154.6,24.4,154.6,24.4z"/>
		<path class="st2" d="M131.5,29.5c10.1-7.2,20.6-5.6,22.7-5.2l-30.5,26.8C123.7,51.2,120.5,37.4,131.5,29.5z"/>
		<polygon class="st3" points="124.2,17.6 131,18.6 124.9,51.2 118.8,49.7 		"/>
		<path class="st1" d="M92.2,10.1c0,0-7.4,17.6,2.3,32.1c7.5,11.2,25.6,9.7,25.6,9.7s8.2-15.3-2.3-28.3
			C107.2,10.5,92.2,10.1,92.2,10.1z"/>
		<path class="st2" d="M117.9,23.7c-9.7-11.8-22.7-13.4-25.2-13.6L120.2,52C120.2,52,128.4,36.6,117.9,23.7z"/>
		<path class="st4" d="M122.8,46.7c0,0-27.7-16.4-49.8-1.6c-16.6,11.2-28.6,53.4-3,78.6c27.3,27,65.3,24.4,84.6,5
			c20.2-20.2,26.4-60,5.2-75.1C145.5,43.5,122.8,46.7,122.8,46.7z"/>
		<path class="st5" d="M125.3,50.6c0,0-22-14.1-39.9-0.8c-13.5,10-23.6,47.3-3.4,69.2c21.6,23.4,52.1,20.6,67.9,3.4
			c16.5-18,22-53.1,5.1-66.2C143.6,47.4,125.3,50.6,125.3,50.6z"/>
		
			<ellipse transform="matrix(1.470274e-02 -0.9999 0.9999 1.470274e-02 62.7978 217.6675)" class="st6" cx="141.8" cy="77" rx="13.7" ry="11.5"/>
	</g>
</g>
<g id="Layer_1_1_">
</g>
</svg>
