<?xml version="1.0" encoding="utf-8"?>
<!-- Generator: Adobe Illustrator 25.0.0, SVG Export Plug-In . SVG Version: 6.00 Build 0)  -->
<svg version="1.1" id="Layer_1" xmlns="http://www.w3.org/2000/svg" xmlns:xlink="http://www.w3.org/1999/xlink" x="0px" y="0px"
	 viewBox="0 0 229.9 153.8" style="enable-background:new 0 0 229.9 153.8;" xml:space="preserve">
<style type="text/css">
	.st0{fill:#3F9D7B;}
	.st1{fill:#FF4035;}
	.st2{fill:#FFFFFF;}
	.st3{fill:#ED9EC3;}
</style>
<g id="tarinakone_x5F_body_x5F_teeth">
	<g id="tarinakone_x5F_keho_x5F_hampaat">
		<polygon class="st0" points="0.3,0.4 12.2,152.1 225.2,153.8 229.9,0.4 		"/>
		<g>
			<path class="st1" d="M19.4,38c0,0,54.4,7.1,95.8,7c47.5-0.1,98-9.2,98-9.2s-3.3,95-99.1,94.5C30.3,129.9,19.4,38,19.4,38z"/>
			<path class="st2" d="M45.3,54.3c0,0,40.4,4.2,71.1,4.1c35.2-0.1,72.8-5.7,72.8-5.7s-2.6,57.5-73.7,57.3
				C53.2,109.8,45.3,54.3,45.3,54.3z"/>
			<path class="st3" d="M166.7,79.4l-0.3-24c-1.1,0.1-2.2,0.2-3.4,0.3l0.3,23.7l-19.7,0.2l-0.3-22.3c-1.1,0.1-2.2,0.1-3.4,0.2
				l0.3,22.1L117.5,80l-0.2-21.6c-0.3,0-0.6,0-0.9,0c-0.8,0-1.6,0-2.5,0l0.2,21.7l-22.6,0.3l-0.3-22.6c-1.1-0.1-2.3-0.1-3.4-0.2
				l0.3,22.8L69,80.5l-0.3-24.2c-1.2-0.1-2.3-0.2-3.4-0.3l0.3,24.5l-9.5,0.1c0.8,1.1,1.6,2.3,2.4,3.4l7.1-0.1l0.1,8.1
				c1.1,1,2.2,2,3.4,3L69,84l19.2-0.2l0.3,21.9c1.1,0.4,2.2,0.7,3.4,1.1l-0.3-23.1l22.6-0.3l0.3,26.5c0.3,0,0.6,0,1,0
				c0.8,0,1.6,0,2.4,0l-0.3-26.5l22.8-0.3l0.3,24c1.1-0.3,2.3-0.6,3.4-0.9l-0.3-23.1l19.7-0.2l0.2,14.1c1.2-0.8,2.3-1.7,3.4-2.5
				l-0.1-11.7l11.2-0.1c0.8-1.2,1.6-2.3,2.3-3.5L166.7,79.4z"/>
		</g>
	</g>
</g>
<g id="Layer_1_1_">
</g>
</svg>
