<?xml version="1.0" encoding="utf-8"?>
<!-- Generator: Adobe Illustrator 25.0.0, SVG Export Plug-In . SVG Version: 6.00 Build 0)  -->
<svg version="1.1" id="Layer_1" xmlns="http://www.w3.org/2000/svg" xmlns:xlink="http://www.w3.org/1999/xlink" x="0px" y="0px"
	 viewBox="0 0 229.7 153.2" style="enable-background:new 0 0 229.7 153.2;" xml:space="preserve">
<style type="text/css">
	.st0{fill:#295E87;}
	.st1{fill:#ED9EC3;}
	.st2{fill:#EB4238;}
</style>
<g id="tarinakone_x5F_crazy_x5F_clothes">
	<g id="tarinakone_x5F_seko_x5F_vaatteet">
		<polygon class="st0" points="0,0 11.9,151.7 224.9,153.5 229.7,0 		"/>
		<path class="st1" d="M73.5,103c0,0-9.1-55.4-33.7-44.6c-12.9,5.7-9.5,28.2-5.5,49.4c3.7,19.7,7.7,38.5,7.7,38.5L73.5,103z"/>
		<path class="st2" d="M160.3,144.1c43.5-65.8,38.2-77.8,32-98.1c-3.5-11.4-12.3-24.2-19.8-28.2c-18.8-10.2-42.5-8.8-60.1,6.9
			C92.8,42.2,73,80,61,101.6c-19.5,35.1-21.2,48.1-21.3,50.4l114.6,0.9C156.3,150.1,158.2,147.2,160.3,144.1z"/>
		<path class="st1" d="M112.4,24.7c-0.4,0.3-0.8,0.7-1.1,1c7.8,5.7,23.5,16.2,45.1,28.6c18.8,10.8,31.7,17.9,39,21.8
			c2.7-12.7-0.1-20.5-3.1-30.1c-3.5-11.4-12.3-24.2-19.8-28.2C153.6,7.6,130,8.9,112.4,24.7z"/>
		<path class="st1" d="M189.3,94c-15.4-9.2-70.2-41.8-90.7-53.9c-2.4,3.1-4.7,6.3-7,9.6l93.1,53.8C186.5,100.1,188,96.9,189.3,94z"
			/>
		<path class="st1" d="M180.7,111C161.9,99.8,107,67.1,87.8,55.4c-2,3.1-4,6.3-5.9,9.4l93.5,55.4C177.3,117,179,113.9,180.7,111z"/>
	</g>
</g>
<g id="Layer_1_1_">
</g>
</svg>
