<?xml version="1.0" encoding="utf-8"?>
<!-- Generator: Adobe Illustrator 25.0.0, SVG Export Plug-In . SVG Version: 6.00 Build 0)  -->
<svg version="1.1" id="Layer_1" xmlns="http://www.w3.org/2000/svg" xmlns:xlink="http://www.w3.org/1999/xlink" x="0px" y="0px"
	 viewBox="0 0 229.7 153.4" style="enable-background:new 0 0 229.7 153.4;" xml:space="preserve">
<style type="text/css">
	.st0{fill:#3F9D7B;}
	.st1{fill:#E8CAAE;}
	.st2{fill:#3F749A;}
	.st3{fill:#275F88;}
	.st4{fill:#5AA043;}
	.st5{fill:#54BDCF;}
	.st6{fill:#C1A174;}
	.st7{fill:#2E3B4A;}
	.st8{fill:#FBA319;}
</style>
<g id="tarinakone_x5F_body_x5F_belly">
	<g id="tarinakone_x5F_keho_x5F_maha">
		<polygon class="st0" points="0,0 11.9,151.7 224.9,153.5 229.7,0.1 		"/>
		
			<rect x="21.4" y="19.4" transform="matrix(0.9995 -3.098878e-02 3.098878e-02 0.9995 -1.6867 3.6007)" class="st1" width="187.9" height="73.6"/>
		<g>
			<path class="st2" d="M213.4,148.8c-1-11-2.6-43.8-5.2-54.5L23.2,100c-1.9,10.8-1.5,40.4-1.9,51.8l192.4,1.6
				C213.6,151.7,213.5,150.1,213.4,148.8z"/>
		</g>
		<path class="st3" d="M183.9,95.1c0,0-2.5,16.7,7.1,31.2c11.3,17.3,21.8,14.4,21.8,14.4l-2-33.1L183.9,95.1z"/>
		<path class="st3" d="M130.5,100.8c-0.9,0.3-24.9,0.7-24.9,0.7c-0.1,0.9-2.6,25.7-4.9,50.9l39.4,0.3
			C135.1,127.1,130.3,101.5,130.5,100.8z"/>
		<path class="st4" d="M130.6,100.8C130.6,100.8,130.5,100.8,130.6,100.8C130.6,100.8,130.6,100.8,130.6,100.8z"/>
		<path class="st3" d="M48,99.3c0,0,3.5,16.5-5.1,31.6c-10.2,18-21.4,15.7-21.4,15.7l0.5-33L48,99.3z"/>
		<polygon class="st5" points="21.4,90.8 210.9,87.5 211.6,109.6 21.1,113.5 		"/>
		<polygon class="st3" points="57.8,90.2 69.3,90 70.1,115.5 58.6,115.9 		"/>
		
			<rect x="162.2" y="88.5" transform="matrix(0.9995 -3.098878e-02 3.098878e-02 0.9995 -3.0391 5.2441)" class="st3" width="11" height="24.3"/>
		<path class="st6" d="M119.6,70c-3.6,2-8.8,1.5-10.5-2.8c-3-7.2,4.5-12.7,10.7-9.4C123.9,60.5,123.5,67.8,119.6,70z"/>
		<path class="st7" d="M136.1,110.8c-0.8,3.1-2.8,4.7-6,5.2c-4.2,0.5-20.2,1.1-24.9,0.2c-2.6-0.6-4.1-2.9-4.6-4.8
			c-0.7-2.9-1.7-16.5-0.6-19.9c0.6-2.4,3.2-4,5.6-4.5c5.3-1.1,18.6-1.7,24.1-1.2c3.9,0.4,5.7,2.9,6.2,5.2
			C136.6,93.2,137.2,105.2,136.1,110.8z"/>
		<path class="st3" d="M131.5,108.3c-0.6,2.3-2.1,3.5-4.4,3.9c-3.1,0.4-15,0.8-18.5,0.2c-1.9-0.5-3-2.2-3.4-3.6
			c-0.5-2.2-1.3-12.3-0.5-14.8c0.5-1.8,2.4-3,4.2-3.4c4-0.8,13.8-1.3,17.9-0.9c2.9,0.3,4.3,2.1,4.6,3.9
			C131.8,95.3,132.3,104.1,131.5,108.3z"/>
		<path class="st8" d="M216.3,0.1L14.1,0c0.8,22.7,2.1,45.2,3.9,46.3c64-4.4,187.8-2.6,197.5-5.8L216.3,0.1z"/>
	</g>
</g>
<g id="Layer_1_1_">
</g>
</svg>
