<?xml version="1.0" encoding="utf-8"?>
<!-- Generator: Adobe Illustrator 25.0.0, SVG Export Plug-In . SVG Version: 6.00 Build 0)  -->
<svg version="1.1" xmlns="http://www.w3.org/2000/svg" xmlns:xlink="http://www.w3.org/1999/xlink" x="0px" y="0px"
	 viewBox="0 0 299.8 299.221" enable-background="new 0 0 299.8 299.221" xml:space="preserve">
<g id="tarinakone_x5F_crazy">
	<g id="tarinakone_x5F_seko">
		<path fill="#3F7498" d="M265.161,42.259c-48.698-57.862-133.6-50.62-199.133-12.413c-49.033,28.587-96.542,117.417-41.12,207.357
			c55.895,90.709,188.312,69.28,235.126,16.028C319.052,186.095,305.159,89.784,265.161,42.259z"/>
		<polygon fill="#295E87" points="142.595,102.395 219.394,28.225 184.973,124.996 289.138,178.672 176.998,167.327 
			170.485,286.016 129.185,175.632 20.126,208.973 110.543,130.614 57.489,54.628 		"/>
		<polygon fill="#295E87" points="168.099,103.691 273.709,88.016 189.43,146.722 242.952,250.966 158.324,176.52 84,269.287 
			114.598,155.471 6.488,119.169 125.613,108.007 126.644,15.337 		"/>
		<g>
			<path fill="#DFF5F4" d="M103.827,125.406c0.096-0.062-17.819,15.367-20.744,17.42c-3.949,2.772-10.853-2.14-9.473-7.694
				c0.826-3.324-0.065-4.691-4.434-6.055c-5.128-1.601-4.576-5.398-5.239-9.357c-0.664-3.958-4.09-1.726-6.593-5.873
				c-2.701-4.473,1.035-7.218-1.854-9.725s-7.476-2.933-6.505-8.674c0.886-5.236,27.42-12.113,27.42-12.113L103.827,125.406z"/>
			<g>
				<path fill="#54BDCF" d="M70.366,129.485c1.663,0.623,2.662,1.287,3.148,2.167l24.131-15.73l-2.441-3.745L70.366,129.485z"/>
				<path opacity="0.3" fill="#54BDCF" enable-background="new    " d="M73.533,137.686c0.418,2.263,2.078,4.19,4.045,5.194
					c6.906-5.567,18.846-15.967,24.184-20.643l-2.108-3.234L73.533,137.686z"/>
				<path fill="#54BDCF" d="M63.921,119.649c6.233-4.508,20.583-14.651,24.706-17.562l-2.868-4.4l-24.163,19.268
					C62.708,117.375,63.601,117.876,63.921,119.649z"/>
				<path opacity="0.3" fill="#54BDCF" enable-background="new    " d="M64.263,122.206c0.207,1.711,0.473,3.298,1.412,4.581
					c6.851-3.977,22.014-12.411,28.585-16.058l-3.695-5.669L64.263,122.206z"/>
				<path opacity="0.3" fill="#54BDCF" enable-background="new    " d="M56.566,107.71c-0.232,1.68-0.731,3.639,0.778,6.138
					c0.233,0.386,0.475,0.701,0.721,0.986c7.151-5.373,21.506-15.562,26.447-19.06l-2.266-3.477
					C77.312,95.167,63.571,103.2,56.566,107.71z"/>
				<path opacity="0.3" fill="#54BDCF" enable-background="new    " d="M48.985,95.448c-0.258,1.522-0.121,2.669,0.267,3.581
					l28.293-13.943l-1.141-1.751C76.404,83.336,49.87,90.212,48.985,95.448z"/>
				<path fill="#54BDCF" d="M79.041,87.381l-25.694,15.271c0.745,0.441,1.487,0.902,2.142,1.471
					c0.061,0.053,0.103,0.107,0.159,0.161c6.862-4.179,19.959-11.986,24.742-14.833L79.041,87.381z"/>
			</g>
			<path fill="#ED9EC3" d="M74.392,84.371c-4.676-7.173,3.531-14.224,9.303-5.145c33.353,50.522,62.933,95.365,96.308,145.819
				c6.173,9.332-3.265,15.696-9.683,5.872C138.207,181.758,106.556,133.487,74.392,84.371z"/>
		</g>
		<g>
			<path fill="#ED9EC3" d="M198.875,146.986c0,0,28.901-22.175,35.709-6.181c3.571,8.39-7.984,17.534-19.291,25.813
				c-10.503,7.69-20.701,14.836-20.701,14.836L198.875,146.986z"/>
			<path fill="#EB4238" d="M190.045,193.774c0,0,5.357-5.429,12.412-33.479c3.901-15.511,11.282-42.125,9.777-59.106
				c-1.353-15.269-11.947-26.377-25.365-29.916c-5.313-1.401-15.133,0.745-21.864,4.573c-11.939,6.79-19.759,10.13-28.35,60.569
				c-4.945,29.03-3.899,44.414-3.899,44.414L190.045,193.774z"/>
			<path fill="#ED9EC3" d="M212.235,101.189c0.029,0.326,0.048,0.663,0.071,0.996c-6.25-0.762-18.292-2.749-34.036-6.469
				c-13.674-3.231-22.942-5.616-28.089-6.984c4.357-7.182,9.121-9.643,14.825-12.887c6.731-3.828,16.551-5.974,21.864-4.573
				C200.288,74.812,210.882,85.92,212.235,101.189z"/>
			<path fill="#ED9EC3" d="M145.145,99.881c11.368,2.487,51.777,11.335,66.826,14.7c-0.245,2.492-0.579,5.052-0.98,7.647
				l-67.889-15.85C143.779,104.004,144.459,101.847,145.145,99.881z"/>
			<path fill="#ED9EC3" d="M141.672,111.74c13.836,3.036,54.318,11.903,68.588,14.868c-0.422,2.363-0.887,4.734-1.381,7.088
				l-68.78-15.226C140.623,116.077,141.147,113.837,141.672,111.74z"/>
		</g>
		<path fill="#FDE40B" d="M31.312,152.934c0,0,10.373-6.18,11.898-5.569c1.525,0.611,1.227,12.569,1.227,12.569
			s9.099,7.602,8.727,8.788c-0.371,1.186-11.198,4.324-11.198,4.324s-4.411,11.26-5.973,11.487s-8.836-8.914-8.836-8.914
			s-11.277-0.635-11.962-2.095c-0.685-1.46,6.188-11.848,6.188-11.848s-3.148-9.924-2.481-11.053S31.312,152.934,31.312,152.934z"/>
		<path fill="#FDE40B" d="M108.975,222.25c0,0,7.925-8.922,9.544-8.802s4.913,11.473,4.913,11.473s10.843,4.442,10.848,5.67
			s-9.256,7.42-9.256,7.42s-0.79,11.926-2.194,12.606c-1.404,0.681-10.988-5.757-10.988-5.757s-10.813,2.772-11.895,1.601
			c-1.081-1.171,2.288-13.011,2.288-13.011s-5.932-8.408-5.641-9.671C96.885,222.517,108.975,222.25,108.975,222.25z"/>
		<path fill="#FDE40B" d="M236.094,192.58c0,0,2.816-11.596,4.303-12.25c1.487-0.653,9.719,7.83,9.719,7.83s11.66-1.161,12.24-0.079
			c0.58,1.082-4.697,10.894-4.697,10.894s4.894,10.904,3.973,12.163c-0.921,1.259-12.405,0.068-12.405,0.068
			s-8.251,7.519-9.755,6.992s-4.08-12.565-4.08-12.565s-9.182-4.645-9.517-5.897C225.541,198.485,236.094,192.58,236.094,192.58z"/>
		<path fill="#FDE40B" d="M160.116,28.202c0,0,4.276-11.324,5.854-11.797c1.578-0.473,8.811,9.09,8.811,9.09
			s11.882,0.28,12.332,1.442s-6.082,10.383-6.082,10.383s3.572,11.585,2.489,12.738c-1.083,1.153-12.496-1.473-12.496-1.473
			s-9.24,6.544-10.689,5.826c-1.449-0.717-2.546-13.156-2.546-13.156s-8.666-5.817-8.848-7.119S160.116,28.202,160.116,28.202z"/>
	</g>
</g>
<g id="Layer_1">
</g>
</svg>
