<?xml version="1.0" encoding="utf-8"?>
<!-- Generator: Adobe Illustrator 25.1.0, SVG Export Plug-In . SVG Version: 6.00 Build 0)  -->
<svg version="1.1" xmlns="http://www.w3.org/2000/svg" xmlns:xlink="http://www.w3.org/1999/xlink" x="0px" y="0px"
	 viewBox="0 0 109.007 84.107" enable-background="new 0 0 109.007 84.107" xml:space="preserve">
<g id="wifi_x5F_icon_x5F_white">
	<g>
		<path fill="#FFFFFF" d="M50.546,0.075C65.904-0.51,81.582,2.253,94.587,10.629c5.869,3.78,14.08,8.755,14.421,15.703
			c-0.242,6.27-8.217,7.462-12.328,2.929C79.672,10.505,49.158,8.434,26.636,20.018c-4.396,2.155-7.866,4.44-12.258,8.062
			c-4.303,3.548-10.038,7.164-13.622,1.078c-4.513-8.586,12.375-17.366,18.64-20.537C30.295,3.108,39.841,0.897,50.546,0.075z"/>
		<path fill="#FFFFFF" d="M48.482,81.343c-5.066-5.415-0.053-14.671,7.278-13.45C69.932,71.401,59.125,91.305,48.482,81.343z"/>
		<path fill="#FFFFFF" d="M19.374,49.076c-12.128-5.695,5.007-18.264,12.31-21.619c6.456-3.069,13.536-4.766,20.676-5.052
			c7.784-0.278,15.572,1.112,22.775,4.076c7.25,3.381,27.815,14.066,14.954,22.39C82.58,52.469,77.934,36.99,57.603,35.891
			c-8.209-0.602-16.536,1.365-23.674,5.547C27.505,45.201,25.259,51.839,19.374,49.076z"/>
		<path fill="#FFFFFF" d="M48.482,59.135c-4.425,1.331-6.657,5.76-10.908,6.879c-4.374,0.882-8.57-3.151-7.892-7.601
			c1.981-6.386,9.137-9.762,14.915-12.147c11.816-3.989,25.986-0.221,33.786,9.626c3.585,5.573-2.286,14.532-8.781,9.53
			C62.562,60,56.519,56.718,48.482,59.135z"/>
	</g>
</g>
<g id="Layer_1">
</g>
</svg>
