<?xml version="1.0" encoding="utf-8"?>
<!-- Generator: Adobe Illustrator 24.2.3, SVG Export Plug-In . SVG Version: 6.00 Build 0)  -->
<svg version="1.1" xmlns="http://www.w3.org/2000/svg" xmlns:xlink="http://www.w3.org/1999/xlink" x="0px" y="0px"
	 viewBox="0 0 166.114 165.678" enable-background="new 0 0 166.114 165.678" xml:space="preserve">
<g id="x_x5F_icon_x5F_white">
	<path fill="#FFFFFF" d="M164.307,126.212c-11.782-15.292-15.252-16.219-41.539-43.283c19.202-19.262,35.266-35.399,36.409-36.646
		c14.007-12.161,1.571-23.011-7.898-32.722C138.13-0.258,130.887-6.7,115.941,9.812c-1.314,1.27-15.54,15.471-33.182,33.102
		C38.189,2.697,41.316-20.274,3.293,25.609C-10.41,40.045,23.54,61.092,42.689,82.98c-40.237,44.602-63.276,41.491-17.365,79.524
		c14.441,13.714,35.536-20.307,57.487-39.511c27.655,24.153,39.617,50.935,59.324,37.793
		C154.053,152.839,171.856,139.572,164.307,126.212z"/>
</g>
<g id="Layer_1">
</g>
</svg>
