<?xml version="1.0" encoding="utf-8"?>
<!-- Generator: Adobe Illustrator 24.2.3, SVG Export Plug-In . SVG Version: 6.00 Build 0)  -->
<svg version="1.1" xmlns="http://www.w3.org/2000/svg" xmlns:xlink="http://www.w3.org/1999/xlink" x="0px" y="0px"
	 viewBox="0 0 183.797 159.078" enable-background="new 0 0 183.797 159.078" xml:space="preserve">
<g id="character_x5F_bird_x5F_yellow_x5F_body">
	<g id="character_x5F_bird_x5F_body">
		<path fill="#FF8000" d="M153.59,88.604c-12.877-17.642-12.846-27.558-7.405-46.965c-0.199-0.43,23.091,7.046,34.331,12.472
			c4.024,2.122,4.152,2.411,1.444,6.16C174.04,71.077,164.578,80.897,153.59,88.604z"/>
		<path fill="#FCE300" d="M129.618,19.79c40.604,35.065,29.346,114.153-22.167,133.045C43.396,176.477-14.176,130.098,3.107,62.18
			C15.316,2.86,83.001-19.778,129.618,19.79z"/>
		<path fill="#FFD200" d="M80.762,30.95c69.372-22.063,80.117,72.518,25.267,85.192C49.468,129.943,27.271,52.158,80.762,30.95z"/>
		<path fill="#FFD200" d="M57.109,110.815c25.787,1.048,24.039,37.338-1.875,37.239C33.161,148.105,31.941,109.15,57.109,110.815z"
			/>
		<g id="Layer_1_2_">
		</g>
	</g>
	<g id="Layer_1_1_">
	</g>
</g>
<g id="Layer_1">
</g>
</svg>
