<?xml version="1.0" encoding="utf-8"?>
<!-- Generator: Adobe Illustrator 26.0.2, SVG Export Plug-In . SVG Version: 6.00 Build 0)  -->
<svg version="1.1" id="Layer_1" xmlns="http://www.w3.org/2000/svg" xmlns:xlink="http://www.w3.org/1999/xlink" x="0px" y="0px"
	 viewBox="0 0 414.1 132.1" style="enable-background:new 0 0 414.1 132.1;" xml:space="preserve">
<style type="text/css">
	.st0{fill:#4B4B4A;}
	.st1{fill:#00769F;}
	.st2{fill:#E6E6E6;}
	.st3{fill:#00BED2;}
	.st4{fill:#FF3E31;}
	.st5{fill:#FFA800;}
</style>
<path class="st0" d="M405.1,0.6c-231.2-2-371,1.3-393.7,3C-4,2.8-2.5,21.8,8,21.1c0,0-4.1,0.3,14.4,0.8
	c-0.1,29.6,6.9,112.2,90.3,110.1c75.5-1.9,84.1-83.1,84.9-109.6c5.2,0,10.4,0,15.6,0c1.1,28.1,10.7,110.4,85.5,108.1
	c86.5-2.6,91.1-83,90-111.3c12.5-0.4,15.9-0.7,15.9-0.7C416.3,17.3,418,0.8,405.1,0.6z"/>
<path id="XMLID_144_" class="st1" d="M185.1,21.2L35.5,19.1c0,0-10,100.7,76.9,98.6C189.6,115.9,185.1,21.2,185.1,21.2z"/>
<path id="XMLID_143_" class="st2" d="M74.4,110.1c4.1,2.1,8.6,3.8,13.5,5.1l56.3-94.5l-16.3-0.2L74.4,110.1z"/>
<path id="XMLID_142_" class="st3" d="M56.6,96.3c5.6,6.3,12.6,11.6,21.4,15.4l55.6-91.3l-32.8-0.5L56.6,96.3z"/>
<path id="XMLID_141_" class="st4" d="M377.8,19.7l-149.6,0.4c0,0-10,100.7,76.9,98.6C382.3,116.9,377.8,19.7,377.8,19.7z"/>
<path id="XMLID_140_" class="st2" d="M267.1,111.1c4.1,2.1,8.6,3.8,13.5,5.1l57.6-96.3l-17.4,0L267.1,111.1z"/>
<path id="XMLID_139_" class="st5" d="M249.3,97.3c5.6,6.3,12.6,11.6,21.4,15.4l56.6-92.9l-33.2,0.1L249.3,97.3z"/>
<g id="Layer_1_00000046333214162910676410000007487445968544344228_">
</g>
</svg>
