<?xml version="1.0" encoding="utf-8"?>
<!-- Generator: Adobe Illustrator 24.2.3, SVG Export Plug-In . SVG Version: 6.00 Build 0)  -->
<svg version="1.1" xmlns="http://www.w3.org/2000/svg" xmlns:xlink="http://www.w3.org/1999/xlink" x="0px" y="0px"
	 viewBox="0 0 194 235" enable-background="new 0 0 194 235" xml:space="preserve">
<g id="beanie_x5F_blue">
	<g>
		<path fill="#00BDD0" d="M11.176,188.743c6.509-34.921,50.125-113.339,90.839-116.284c31.873-2.305,82.538,92.577,82.612,121.361
			C184.669,210.091,4.359,225.313,11.176,188.743z"/>
		<path fill="#00759C" d="M4.419,184.328c4.76-4.225,37.766-3.379,84.063-2.829c46.297,0.55,95.945,2.537,100.702,4.574
			c7.534,3.226,5.561,44.248-1.297,45.762c-3.27,0.722-44.401,3.799-87.143,3.049c-46.905-0.823-95.728-5.613-98.056-7.995
			C-1.761,222.336-0.341,188.552,4.419,184.328z"/>
		<path fill="#005F8A" d="M13.987,181.931l-3.219,46.857c3.356,0.507,7.642,1.04,12.651,1.571l5.077-49.188
			C22.716,181.3,17.845,181.54,13.987,181.931z"/>
		<path fill="#005F8A" d="M39.939,181.042l-3.102,50.585c4.914,0.416,10.191,0.816,15.736,1.187l3.807-51.7
			C50.485,181.059,44.99,181.029,39.939,181.042z"/>
		<path fill="#005F8A" d="M69.067,181.255l-3.548,52.342c4.761,0.258,9.638,0.488,14.575,0.684l1.083-52.873
			C77.014,181.356,72.974,181.304,69.067,181.255z"/>
		<path fill="#005F8A" d="M94.211,181.574L92.9,234.708c2.615,0.069,5.231,0.129,7.842,0.175c1.954,0.034,3.902,0.058,5.845,0.077
			l1.043-53.156C103.172,181.716,98.686,181.639,94.211,181.574z"/>
		<path fill="#005F8A" d="M121.004,182.106l-2.76,52.883c5.217-0.024,10.327-0.093,15.265-0.199l1.097-52.298
			C130.19,182.353,125.639,182.224,121.004,182.106z"/>
		<path fill="#005F8A" d="M146.055,182.889c-0.034,8.729-0.523,38.943-0.733,51.579c5.777-0.193,11.182-0.424,16.078-0.67
			l-1.711-50.326C155.445,183.267,150.877,183.072,146.055,182.889z"/>
		<path fill="#005F8A" d="M169.024,183.969l0.096,49.405c4.668-0.278,8.642-0.557,11.721-0.806l-1.903-47.91
			C176.102,184.422,172.771,184.192,169.024,183.969z"/>
		<path fill="#31D8E2" d="M139.582,98.975c-15.203,0.768-68.503,3.454-84.009,4.145c-5.424,6.411-10.573,13.452-15.324,20.747
			l114.74-2.797C150.115,113.193,144.909,105.663,139.582,98.975z"/>
		<path fill="#31D8E2" d="M179.683,171.668c-2.794-8.037-6.65-17.073-11.233-26.334c-21.298-0.153-122.21-0.509-140.377-0.654
			c-4.858,9.284-8.906,18.411-11.904,26.654c17.582-0.249,65.093-0.901,90.728-1.07
			C134.084,170.086,169.798,171.307,179.683,171.668z"/>
		<path fill="#FFA600" d="M83.621,3.257c21.147-8.255,47.995-1.01,54.686,23.917c11.117,41.414-35.005,62.761-63.171,41.911
			C54.256,51.278,60.893,12.774,83.621,3.257z"/>
	</g>
</g>
<g id="Layer_1">
</g>
</svg>
