<?xml version="1.0" encoding="utf-8"?>
<!-- Generator: Adobe Illustrator 24.2.3, SVG Export Plug-In . SVG Version: 6.00 Build 0)  -->
<svg version="1.1" xmlns="http://www.w3.org/2000/svg" xmlns:xlink="http://www.w3.org/1999/xlink" x="0px" y="0px"
	 viewBox="0 0 306.104 192.835" enable-background="new 0 0 306.104 192.835" xml:space="preserve">
<g id="bubblefoam_x5F_hat">
	<path fill="#FFFFFF" d="M14.466,145.976c-10.764-14.143,11.432-21.933,16.791-12.565c10.233-11.459,26.94-7.681,31.986,5.121
		c1.755-4.194,11.08-9.382,17.718-4.89c0.092-0.138,0.193-0.26,0.29-0.389c-16.539-22.947,1.708-52.213,17.95-51.987
		c-5.225-6.195-6.821-17.091-0.855-22.878c-9.45-17.254,4.698-36.851,16.317-36.043c-12.424-18.895,15.698-26.85,22.096-14.695
		c13.733-13.758,34.576-7.811,40.05,8.717c10.219-15.991,37.661-4.114,24.832,15.581c11.752,4.616,15.413,18.004,12.758,29.235
		c9.426,7.681,7.283,19.082,3.017,26.523c17.744,5.854,23.214,26.618,18.442,42.784c4.39,0.528,6.578,3.735,6.837,4.088
		c10.233-11.459,26.94-7.681,31.986,5.121c7.362-13.067,29.538-4.899,20.279,11.206c14.704,4.852,13.517,25.453,4.212,34.606
		c-9.263,9.112-27.019,2.176-29.566-6.417c2.075,17.994-27.016,18.077-26.455,1.655c-0.681,0.688-5.059,10.874-17.58,3.698
		c-9.599,15.155-24.999,0.411-27.42-7.759c-0.525,14.233-23.583,16.045-26.454,1.656c-0.582,0.588-3.751,7.702-13.948,4.121
		c-9.969,16.643-29.823,6.688-31.754-4.55c2.075,17.994-27.016,18.077-26.455,1.655c-0.491,0.497-3.768,5.98-10.704,3.929
		c-0.355,0.298-5.432,9.208-15.454,7.921c-9.215-1.183-14.651-5.939-15.233-11.321c-0.374,16.674-27.588,14.251-26.434-0.517
		C5.01,197.605-14.717,154.828,14.466,145.976z"/>
</g>
<g id="Layer_1">
</g>
</svg>
