<?xml version="1.0" encoding="utf-8"?>
<!-- Generator: Adobe Illustrator 24.2.3, SVG Export Plug-In . SVG Version: 6.00 Build 0)  -->
<svg version="1.1" xmlns="http://www.w3.org/2000/svg" xmlns:xlink="http://www.w3.org/1999/xlink" x="0px" y="0px"
	 viewBox="0 0 272.119 115.468" enable-background="new 0 0 272.119 115.468" xml:space="preserve">
<g id="bubblefoam_x5F_glasses">
	<path fill="#FFFFFF" d="M4.115,72.571c3.436-3.401,8.887-4.423,13.724-3.68c-4.072-10.578,10.016-17.375,15.679-8.551
		c0.617-4.261,2.21-4.079,3.97-4.107C28.89,36.878,47.596,20.306,64.83,28.793C59.433,13.373,79.558,3.674,89.099,14.75
		c12.885-27.427,52.109-3.953,36.176,19.928c4.535-1.557,7.171,1.205,7.953,2.98c-1.743-3.145,0.606-14.288,9.097-11.852
		c-0.353-12.702,14.978-10.753,17.364-5.235c7.432-5.306,18.45-1.186,20.472,7.233c0.053-0.038,2.082-3.971,6.344-2.8
		c-12.852-10.991,4.336-30.381,16.192-18.398c10.18-13.703,31.245-3.579,34.863,7.68c11.26-11.917,30.57-1.107,33.786,9.563
		c3.087,9.415-3.531,21.331-11.678,24.493c15.389,5.484,10.299,27.234-4.311,27.705c13.298,27.322-29.81,42.949-38.226,15.639
		c-12.681,12.592-36.779,0.277-34.038-14.601c-16.384,6.587-20.632-17.503-9.158-20.205c-4.198-3.098-3.518-8.512-2.379-13.751
		c-5.846,5.447-11.512-1.279-11.866-1.539c-1.248,10.209-10.332,10.189-18.086,7.167c3.797,11.225-1.61,18.388-6.314,21.58
		c11.153,8.585,3.732,26.68-9.973,19.816c0.052,20.208-20.518,18.132-32.703,10.235c0.772,18.064-26.184,14.253-24.486-1.048
		c-6.383,1.061-18.66,1.02-18.477-18.955c-2.803,0.81-6.32,1.185-9.384,0.444c-0.95,2.725-2.953,7.751-8.609,5.334
		c-0.163,6.624-3.717,10.382-7.133,12.265c13.195,21.819-25.282,23.128-16.214,1.355C-2.352,96.545-1.606,78.233,4.115,72.571z
		 M190.68,50.577c-3.977,4.941-1.99,14.403,5.439,15.394c0.252,16.575,21.411,23.808,30.346,6.841
		c10.722,7.292,22.699-13.463,7.574-18.057c0.546-0.682,4.381-3.199,4.677-6.46c0.295-3.26-2.029-8.352-6.459-8.07
		c-0.521-12.757-18.187-19.078-27.937-7.201c-9.913-10.76-25.884,8.822-11.649,15.701C191.977,49.255,191.32,49.87,190.68,50.577z
		 M73.647,78.751c3.373,3.731,9.159,2.47,14.016,2.737c-1.166,13.659,23.552,14.993,19.534-0.794
		c9.677,3.39,18.395-3.236,11.244-14.58c16.169-8.762,3.909-30.799-13.747-26.838c-3.11-12.923-26.069-10.608-18.78,5.436
		c-0.887-0.054-11.578-1.242-10.176,10.604C69.854,60.593,65.785,69.026,73.647,78.751z"/>
</g>
<g id="Layer_1">
</g>
</svg>
