<?xml version="1.0" encoding="utf-8"?>
<!-- Generator: Adobe Illustrator 24.2.3, SVG Export Plug-In . SVG Version: 6.00 Build 0)  -->
<svg version="1.1" xmlns="http://www.w3.org/2000/svg" xmlns:xlink="http://www.w3.org/1999/xlink" x="0px" y="0px"
	 viewBox="0 0 222.184 252.747" enable-background="new 0 0 222.184 252.747" xml:space="preserve">
<g id="bunny_x5F_hat_x5F_white">
	<g>
		<path fill="#FFFFFF" d="M18.835,6.438c9.288-8.77,19.418-1.61,30.957,11.611c43.207,49.505,67.625,108.993,53.427,169.904
			c10.869,0.144,22.527,1.321,34.002,3.432c4.227-55.03-34.835-149.956,10.872-190.508c11.678-5.23,18.326,14.373,25.422,21.151
			c38.768,52.882,28.061,124.908-5.249,177.712c25.205,8.99,44.718,25.52,53.918,50.249C148.148,251.663,73.989,252.466,0,252.747
			c14.267-29.355,39.949-52.509,71.906-60.661C58.319,137.732-11.204,60.605,18.835,6.438z"/>
		<path fill="#B2B2B2" d="M94.65,189.1c2.711-48.856-3.83-129.792-58.655-147.405c-0.852,23.188,22.734,51.198,31.678,72.065
			c9.466,18.349,12.013,68.619,12.079,78.203C83.824,192.26,90.518,189.469,94.65,189.1z"/>
		<path fill="#B2B2B2" d="M160.994,196.257c17.086-45.504,35.926-105.675-2.695-145.615c-3.112-4.211-7.146-2.908-6.903,2.421
			c1.382,54.38,16.134,81.06-3.791,137.216C151.354,191.9,156.971,195.247,160.994,196.257z"/>
	</g>
</g>
<g id="Layer_1">
</g>
</svg>
