<?xml version="1.0" encoding="utf-8"?>
<!-- Generator: Adobe Illustrator 24.2.3, SVG Export Plug-In . SVG Version: 6.00 Build 0)  -->
<svg version="1.1" xmlns="http://www.w3.org/2000/svg" xmlns:xlink="http://www.w3.org/1999/xlink" x="0px" y="0px"
	 viewBox="0 0 226.877 136.065" enable-background="new 0 0 226.877 136.065" xml:space="preserve">
<g id="cat_x5F_hat_x5F_white">
	<g>
		<g>
			<path fill="#FFFFFF" d="M215.526,96.925c-4.3-6.077-9.785-11.294-16.124-15.756c4.595-26.229,2.38-58.215-10.516-81.169
				c-28.869,7.856-52.202,34.791-67.371,60.014c-6.223-0.129-12.418,0.011-18.506,0.405C86.775,37.203,60.15,15.999,32.932,9.568
				c-11.861,21.776-9.206,51.169-4.953,75.217C8.386,100.084,0.044,118.643,0,136.065l226.686-2.674
				C227.725,122.05,224.592,109.735,215.526,96.925z"/>
			<g>
				<path fill="#B2B2B2" d="M183.706,14.471c-10.66-4.936-51.15,46.548-46.094,48.755c3.15,1.375,20.641-3.896,51.713,8.401
					C194.001,73.478,194.366,19.407,183.706,14.471z"/>
			</g>
		</g>
		<g>
			<path fill="#B2B2B2" d="M44.384,25.884C54.835,20.52,95.07,65.393,90.108,67.803c-3.092,1.501-50.143,14.332-50.143,14.332
				C32.586,87.931,33.933,31.247,44.384,25.884z"/>
		</g>
	</g>
</g>
<g id="Layer_1">
</g>
</svg>
