<?xml version="1.0" encoding="utf-8"?>
<!-- Generator: Adobe Illustrator 24.2.3, SVG Export Plug-In . SVG Version: 6.00 Build 0)  -->
<svg version="1.1" xmlns="http://www.w3.org/2000/svg" xmlns:xlink="http://www.w3.org/1999/xlink" x="0px" y="0px"
	 viewBox="0 0 178.954 133.816" enable-background="new 0 0 178.954 133.816" xml:space="preserve">
<g id="chef_x5F_hat_x5F_white">
	<path fill="#FDFCFC" d="M156.849,27.176c-16.711-3.446-27.162,4.127-40.174,13.028c2.83-3.18,2.798-15.501,1.758-19.413
		c-2.9-10.918-12.129-18.46-23.22-20.292C82.398-1.617,64.078,3.066,55.678,13.31c-8.116,9.897-6.725,17.534-5.009,30.385
		C31.596,13.828-10.611,31.409,2.471,66.252C7.548,79.773,15.27,82.45,26.003,83.25l-4.398,49.388l132.236,1.178l-5.152-48.972
		c17.934-0.947,27.155-5.676,29.84-23.967C180.842,45.127,173.726,30.656,156.849,27.176z"/>
</g>
<g id="Layer_1">
</g>
</svg>
