<?xml version="1.0" encoding="utf-8"?>
<!-- Generator: Adobe Illustrator 26.0.3, SVG Export Plug-In . SVG Version: 6.00 Build 0)  -->
<svg version="1.1" xmlns="http://www.w3.org/2000/svg" xmlns:xlink="http://www.w3.org/1999/xlink" x="0px" y="0px"
	 viewBox="0 0 276.034 364.423" enable-background="new 0 0 276.034 364.423" xml:space="preserve">
<g id="christmas_x5F_hat_x5F_2">
	<path fill="#C10D26" d="M156.804,3.314c75.863,25.385,38.924,161.866-58.362,127.82C24.985,101.354,56.613-21.618,156.804,3.314z"
		/>
	<path fill="#FF4035" d="M274.737,340.37c-22.342-49.83-54.033-94.892-84.709-139.854c-14.22-19.553-28.383-39.338-45.452-56.584
		c-9.896-10.234-17.773-14.745-27.773-1.361c-25.668,31.356-44.876,67.296-64.544,102.564
		c-19.086,35.091-39.404,70.322-51.846,108.405c-3.587,10.228,17.175,7.797,23.082,9.379c50.122,2.745,102.778,1.542,153.064-2.046
		c31.042-2.973,62.434-4.298,93.01-10.74C276.45,348.458,277.23,346.975,274.737,340.37z"/>
	<path fill="#AA1E28" d="M266.578,322.931c-85.212,0.73-170.468,1.126-255.641,2.855c4.027-8.924,7.951-17.897,12.756-26.446
		c75.571-0.788,151.049-5.02,226.612-5.718C256.192,303.134,261.702,312.857,266.578,322.931z"/>
	<path fill="#AA1E28" d="M235.519,268.95c-66.35,1.626-132.77,2.597-199.059,5.186c4.919-9.856,10.08-19.58,15.8-29.001
		c54.716-0.721,109.424-2.987,164.079-5.663C223.575,248.724,229.448,258.926,235.519,268.95z"/>
	<path fill="#AA1E28" d="M196.307,209.658c-42.071,1.145-84.125,2.846-126.201,3.799c5.587-10.271,11.463-20.483,18.09-30.1
		c29.321-0.388,58.639-0.984,87.958-1.531C183.44,190.675,189.811,200.221,196.307,209.658z"/>
</g>
<g id="Layer_1">
</g>
</svg>
