<?xml version="1.0" encoding="utf-8"?>
<!-- Generator: Adobe Illustrator 26.0.3, SVG Export Plug-In . SVG Version: 6.00 Build 0)  -->
<svg version="1.1" xmlns="http://www.w3.org/2000/svg" xmlns:xlink="http://www.w3.org/1999/xlink" x="0px" y="0px"
	 viewBox="0 0 206.906 266.545" enable-background="new 0 0 206.906 266.545" xml:space="preserve">
<g id="christmas_x5F_santa_x5F_hat">
	<g id="Joulu_x5F_tonttulakki_00000140730964738158676750000017151045160796229781_">
		<path fill="#FF4035" d="M0,264.465c0,0,59.15,2.777,106.908,1.913c48.82-0.884,99.679-3.928,99.679-3.928
			s11.937-64.97-110.193-211.265C96.394,51.186,0.475,184.684,0,264.465z"/>
		<path fill="#AA1E28" d="M124.636,12.035c-9.41-14.102-28.504-14.599-44.053-7.717C68.948,9.467,56.155,28.075,66.266,49.491
			c10.197,21.598,40.229,20.116,51.983,9.417C133.066,45.418,132.365,23.617,124.636,12.035z"/>
		<path fill="#AA1E28" d="M189.79,192.88c-0.074-0.111-0.145-0.222-0.219-0.332c-8.807-1.814-18.534,0.025-27.581,4.727
			c-19.509,9.943-21.571,43.806-22.436,48.721c-2.623-19.727-9.517-54.263-45.815-52.084c-32.064,1.925-40.333,52.283-40.897,52.732
			c0,0-6.924-51.471-32.946-50.573c-1.464,0.05-2.867,0.176-4.226,0.355c-7.123,18.494-12.467,36.749-14.623,53.39
			c32.295-0.683,110.718-1.47,205.067-3.592C204.603,234.779,200.452,217.142,189.79,192.88z"/>
	</g>
</g>
<g id="Layer_1">
</g>
</svg>
