<?xml version="1.0" encoding="utf-8"?>
<!-- Generator: Adobe Illustrator 26.0.3, SVG Export Plug-In . SVG Version: 6.00 Build 0)  -->
<svg version="1.1" xmlns="http://www.w3.org/2000/svg" xmlns:xlink="http://www.w3.org/1999/xlink" x="0px" y="0px"
	 viewBox="0 0 287.359 201.037" enable-background="new 0 0 287.359 201.037" xml:space="preserve">
<g id="christmas_x5F_santa_x5F_claus_x5F_mask">
	<g id="Joulu_x5F_pukki_x5F_naamari">
		<path id="XMLID_101_" fill="#CAD2D3" d="M43.873-6.955c0,0-30.89,30.273-5.965,64.348C55.239,81.086,90.59,63.81,90.59,63.81
			s9.014,30.73,38.519,29.073s30.411-28.582,30.411-28.582s16.97,28.647,43.729,17.819c27.257-7.776,15.776-39.29,15.776-39.29
			s28.163,18.081,44.707-10.196C278.361,2.15,241.818-9.783,241.818-9.783l-99.455-48.506L43.873-6.955z"/>
		<path id="XMLID_100_" fill="#E7E9E9" d="M144.096-73.2c-10.669-10.544-28.311-12.651-42.428-10.259
			c-13.334,2.259-23.545,10.832-33.454,19.402C57.605-54.88,45.692-45.801,30.803-49.351C18.418-52.304,10.389-66.484,1.893-74.909
			c-0.633-0.626-1.647-0.089-1.705,0.643C0.075-74.091-0.003-73.882,0-73.617c0.099,9.469,7.587,40.422,21.44,53.58
			C34.392-3.765,56.211,5.01,76.664,4.962c19.801-0.047,40.981-9.225,54.302-23.907c5.817-6.411,9.545-14.366,11.908-22.622
			C145.09-49.304,145.694-71.62,144.096-73.2z"/>
		<path id="XMLID_98_" fill="#E7E9E9" d="M143.263-73.2c10.669-10.544,28.311-12.651,42.428-10.259
			c13.334,2.259,23.545,10.832,33.454,19.402c10.609,9.177,22.522,18.256,37.411,14.706c12.385-2.953,20.414-17.133,28.91-25.557
			c0.633-0.626,1.647-0.089,1.705,0.643c0.113,0.174,0.191,0.383,0.188,0.649c0,17.922-15.392,45.982-21.44,53.58
			C252.967-3.765,231.148,5.01,210.696,4.962c-19.801-0.047-40.981-9.225-54.302-23.907c-5.817-6.411-9.545-14.366-11.908-22.622
			C142.269-49.304,141.665-71.62,143.263-73.2z"/>
	</g>
	<g id="circle_x5F_2_x5F_white">
		<path fill="#FF4035" d="M172.458-94.851c-9.427-14.963-29.325-16.005-45.729-9.254c-12.273,5.051-26.123,24.105-16.166,46.714
			c10.042,22.802,41.401,22.079,53.95,11.244C180.333-59.807,180.2-82.561,172.458-94.851z"/>
	</g>
</g>
<g id="Layer_1">
</g>
</svg>
