<?xml version="1.0" encoding="utf-8"?>
<!-- Generator: Adobe Illustrator 27.0.0, SVG Export Plug-In . SVG Version: 6.00 Build 0)  -->
<svg version="1.1" xmlns="http://www.w3.org/2000/svg" xmlns:xlink="http://www.w3.org/1999/xlink" x="0px" y="0px"
	 viewBox="0 0 190.308 122.85" enable-background="new 0 0 190.308 122.85" xml:space="preserve">
<g id="crown_x5F_simple_x5F_orange">
	<g id="crown_x5F_orange_00000102502438217937120570000005882399303382088323_">
		<g id="crown_x5F_yellow_00000088849097191098006680000002930081794058008755_">
			<g>
				<path id="XMLID_00000124155995144230776360000016456827075684441740_" fill="#FFD200" d="M176.808,32.57
					c-21.105,0.032-40.904,10.033-54.523,32.304L93.426,19.649L70.759,63.93c-14.133-15.571-35.786-25.762-56.098-26
					c0,0,3.636,8.671,8.193,29.152c5.189,23.323,5.192,42.328,5.192,42.328L163.4,110.13c0,0-0.143-25.558,5.372-47.305
					C172.025,50.002,176.808,32.57,176.808,32.57z"/>
				<path id="XMLID_00000142873103788250693600000011873911323012518045_" fill="#FF4035" d="M93.249,22.737
					C76.253,22.634,80.014-2.17,96.053,0.154C109.538,1.755,106.351,23.634,93.249,22.737z"/>
				<path id="XMLID_00000028282905975441576660000005677360112437288380_" fill="#FF4035" d="M0.053,33.461
					c-1.347-15.47,23.48-12.012,18.843,2.592C15.281,45.325,0.117,44.298,0.053,33.461z"/>
				<path id="XMLID_00000170983280054307724440000000224657828973988754_" fill="#FF4035" d="M176.033,36.615
					c-11.79-5.867-0.343-23.994,10.262-16.508C195.616,27.657,187.247,42.221,176.033,36.615z"/>
				<path id="XMLID_00000057846351447815649950000004910118910071123360_" fill="#FFA600" d="M27.699,122.667l136.678,0.168
					c10.388,0.697,10.339-24.006,0.012-23.325c-0.001,0-136.678,0-136.678,0C17.358,98.82,17.406,123.344,27.699,122.667z"/>
			</g>
		</g>
	</g>
</g>
<g id="Layer_1">
</g>
</svg>
