<?xml version="1.0" encoding="utf-8"?>
<!-- Generator: Adobe Illustrator 27.0.0, SVG Export Plug-In . SVG Version: 6.00 Build 0)  -->
<svg version="1.1" xmlns="http://www.w3.org/2000/svg" xmlns:xlink="http://www.w3.org/1999/xlink" x="0px" y="0px"
	 viewBox="0 0 190.308 122.85" enable-background="new 0 0 190.308 122.85" xml:space="preserve">
<g id="crown_x5F_simple_x5F_white">
	<g id="crown_x5F_yellow_00000032630520465812367030000003879049962168991396_">
		<g>
			<path id="XMLID_00000101819036221504140250000004978072498608871826_" fill="#FFFFFF" d="M176.808,32.57
				c-21.105,0.031-40.904,10.033-54.522,32.304l-28.86-45.225l-22.668,44.28c-14.133-15.571-35.786-25.762-56.098-26
				c0,0,3.636,8.671,8.194,29.152c5.19,23.322,5.192,42.328,5.192,42.328L163.4,110.13c0,0-0.144-25.558,5.372-47.304
				C172.024,50.002,176.808,32.57,176.808,32.57z"/>
			<path id="XMLID_00000018196215519164380800000002316160484107392190_" fill="#B2B2B2" d="M93.249,22.737
				C76.253,22.635,80.013-2.17,96.053,0.154C109.537,1.756,106.351,23.635,93.249,22.737z"/>
			<path id="XMLID_00000007425331968724710940000010937091984025846161_" fill="#B2B2B2" d="M0.053,33.461
				c-1.347-15.47,23.481-12.012,18.844,2.592C15.281,45.326,0.117,44.298,0.053,33.461z"/>
			<path id="XMLID_00000146486550365006026270000002428908606167097502_" fill="#B2B2B2" d="M176.032,36.615
				c-11.789-5.867-0.344-23.993,10.262-16.508C195.616,27.657,187.247,42.222,176.032,36.615z"/>
			<path id="XMLID_00000031910041455715952430000002121395388512825019_" fill="#B2B2B2" d="M27.699,122.667l136.678,0.169
				c10.388,0.698,10.339-24.005,0.012-23.325c-0.001,0-136.679,0-136.679,0C17.358,98.819,17.406,123.343,27.699,122.667z"/>
		</g>
	</g>
</g>
<g id="Layer_1">
</g>
</svg>
