<?xml version="1.0" encoding="utf-8"?>
<!-- Generator: Adobe Illustrator 24.2.3, SVG Export Plug-In . SVG Version: 6.00 Build 0)  -->
<svg version="1.1" xmlns="http://www.w3.org/2000/svg" xmlns:xlink="http://www.w3.org/1999/xlink" x="0px" y="0px"
	 viewBox="0 0 190.308 122.851" enable-background="new 0 0 190.308 122.851" xml:space="preserve">
<g id="crown_x5F_yellow">
	<g>
		<path id="XMLID_951_" fill="#FFD200" d="M176.808,32.57c-21.105,0.031-40.904,10.033-54.522,32.304l-28.86-45.225l-22.668,44.28
			c-14.133-15.571-35.786-25.762-56.098-26c0,0,3.636,8.671,8.194,29.152c5.19,23.322,5.192,42.328,5.192,42.328l135.354,0.721
			c0,0-0.144-25.558,5.372-47.304C172.024,50.002,176.808,32.57,176.808,32.57z"/>
		<path id="XMLID_950_" fill="#FF8000" d="M93.249,22.737C76.253,22.635,80.013-2.17,96.053,0.154
			C109.537,1.756,106.351,23.635,93.249,22.737z"/>
		<path id="XMLID_949_" fill="#FF8000" d="M0.053,33.461c-1.347-15.47,23.481-12.012,18.844,2.592
			C15.281,45.326,0.117,44.298,0.053,33.461z"/>
		<path id="XMLID_947_" fill="#FF8000" d="M176.032,36.615c-11.789-5.867-0.344-23.993,10.262-16.508
			C195.616,27.657,187.247,42.222,176.032,36.615z"/>
		<path id="XMLID_946_" fill="#ED9EC3" d="M27.699,122.667l136.678,0.169c10.388,0.698,10.339-24.005,0.012-23.325
			c-0.001,0-136.679,0-136.679,0C17.358,98.819,17.406,123.343,27.699,122.667z"/>
		<path id="XMLID_945_" fill="#EB4238" d="M55.439,104.418c14.84,0.478,2.403,22.163-6.094,9.915
			C46.554,108.311,52.074,104.49,55.439,104.418z"/>
		<path id="XMLID_943_" fill="#EB4238" d="M36.604,104.119c7.856-0.158,10.104,9.918,2.933,13.108
			C27.056,122.654,23.536,104.085,36.604,104.119z"/>
		<path id="XMLID_942_" fill="#EB4238" d="M74.836,103.459c7.541-0.056,9.043,11.147,2.698,14.343
			C65.754,123.581,62.973,103.388,74.836,103.459z"/>
		<path id="XMLID_940_" fill="#EB4238" d="M114.274,103.965c14.84,0.478,2.403,22.163-6.094,9.915
			C105.388,107.858,110.909,104.036,114.274,103.965z"/>
		<path id="XMLID_939_" fill="#EB4238" d="M94.952,103.665c7.856-0.158,10.104,9.918,2.933,13.108
			C85.405,122.201,81.884,103.631,94.952,103.665z"/>
		<path id="XMLID_938_" fill="#EB4238" d="M153.337,117.692c-7.856,0.158-10.104-9.918-2.933-13.108
			C162.884,99.156,166.404,117.726,153.337,117.692z"/>
		<path id="XMLID_937_" fill="#EB4238" d="M134.157,103.005c7.541-0.056,9.043,11.147,2.698,14.343
			C125.075,123.127,122.293,102.934,134.157,103.005z"/>
	</g>
</g>
<g id="Layer_1">
</g>
</svg>
