<?xml version="1.0" encoding="utf-8"?>
<!-- Generator: Adobe Illustrator 25.0.0, SVG Export Plug-In . SVG Version: 6.00 Build 0)  -->
<svg version="1.1" xmlns="http://www.w3.org/2000/svg" xmlns:xlink="http://www.w3.org/1999/xlink" x="0px" y="0px"
	 viewBox="0 0 417.519 321.881" enable-background="new 0 0 417.519 321.881" xml:space="preserve">
<g id="headphones">
	<path fill="#FF8000" d="M89.024,167.45l-31.141-0.494c0.025-1.639,0.812-40.593,19.189-80.487
		C94.614,48.39,131.649,2.493,208.458,0.095c77.138-2.408,115.16,41.425,133.473,78.62c19.121,38.835,20.593,77.788,20.646,79.427
		l-31.128,1.012c-0.012-0.314-1.431-34.637-17.858-67.486c-20.81-41.616-55.855-61.952-104.161-60.444
		c-48.57,1.516-83.454,24.209-103.685,67.446C89.85,132.642,89.03,167.106,89.024,167.45z"/>
	<path fill="#EB4238" d="M96.372,142.975c-5.79-6.613-19.918-8.324-33.551-6.3c-12.147,1.804-17.3,12.418-11.81,21.443
		c5.9,9.699,29.744,9.12,38.941,4.924C101.031,157.988,101.42,148.74,96.372,142.975z"/>
	<path fill="#EB4238" d="M367.734,139.798c-5.79-6.613-19.918-8.324-33.551-6.3c-12.147,1.804-17.3,12.418-11.81,21.443
		c5.9,9.699,29.744,9.12,38.94,4.924C372.393,154.81,372.782,145.563,367.734,139.798z"/>
	<path fill="#FF9EC5" d="M331.631,319.636c96.504,9.78,96.352-86.948,72.96-137.111c-14.652-31.421-51.195-37.008-74.185-34.144
		L331.631,319.636z"/>
	<path fill="#4A4A49" d="M303.144,159.902c-22.055,22.201-25.155,70.517-16.884,110.709c6.189,30.073,32.172,64.644,65.148,41.518
		c33.258-23.323,34.779-99.579,20.384-130.598C353.643,142.426,321.259,141.667,303.144,159.902z"/>
	<path fill="#7C7E7E" d="M312.514,188.143c-12.536,14.263-14.41,45.191-9.829,70.892c3.428,19.23,18.046,41.29,36.764,26.409
		c18.878-15.009,19.929-63.814,11.859-83.629C341.134,176.834,322.81,176.428,312.514,188.143z"/>
	<path fill="#FF9EC5" d="M88.265,320.742c-96.163,12.706-98.947-83.983-77.09-134.832c13.691-31.852,50.047-38.546,73.114-36.381
		L88.265,320.742z"/>
	<path fill="#4A4A49" d="M111.889,160.217c22.719,21.521,27.284,69.721,20.237,110.145c-5.273,30.247-30.195,65.591-63.857,43.478
		c-33.95-22.302-37.787-98.477-24.34-129.919C60.883,144.282,93.229,142.541,111.889,160.217z"/>
	<path fill="#7C7E7E" d="M104.179,188.678c12.062,13.933,14.811,44.794,11.419,70.596c-2.538,19.306-15.331,41.726-33.131,27.333
		c-17.951-14.516-20.527-63.264-13.715-83.273C77.34,178.108,94.272,177.234,104.179,188.678z"/>
	<g>
		<path fill="#FFA600" d="M142.522,15.905c-13.627,6.895-24.987,15.578-34.452,25.113l20.878,23.184
			c9.13-9.461,19.656-16.904,31.546-22.314L142.522,15.905z"/>
		<path fill="#FFA600" d="M86.503,68.733c-3.641,5.972-6.763,11.945-9.431,17.736c-3.294,7.151-6.015,14.268-8.276,21.149
			l29.784,9.15c1.962-5.917,4.318-12.014,7.165-18.099c1.82-3.889,3.763-7.606,5.819-11.163L86.503,68.733z"/>
	</g>
</g>
<g id="Layer_1">
</g>
</svg>
