<?xml version="1.0" encoding="utf-8"?>
<!-- Generator: Adobe Illustrator 27.1.1, SVG Export Plug-In . SVG Version: 6.00 Build 0)  -->
<svg version="1.1" xmlns="http://www.w3.org/2000/svg" xmlns:xlink="http://www.w3.org/1999/xlink" x="0px" y="0px"
	 viewBox="0 0 487.213 301.257" enable-background="new 0 0 487.213 301.257" xml:space="preserve">
<g id="helmet_x5F_hard_x5F_hat_x5F_white">
	<g>
		<path fill="#FFFFFF" d="M319.877,296.446c162.013-17.39,188.666-56.908,153.972-62.174c0,0,33.872-178.622-121.172-214.278
			C177.195-20.361,118.982,94.966,94.088,216.707c-38.753,11.843-107.563,5.513-91.775,23.138
			C20.611,260.271,117.148,318.207,319.877,296.446z"/>
		<path fill="#F2F2F2" d="M117.479,209.291c-0.767,11.487,34.766,29.997,45.941,3.162C278.443-63.776,410.734,50.181,418.048,51.124
			c13.342,1.722-30.894-46.636-105.341-50.894C181.066-7.299,119.939,172.436,117.479,209.291z"/>
	</g>
</g>
<g id="Layer_1">
</g>
</svg>
