<?xml version="1.0" encoding="utf-8"?>
<!-- Generator: Adobe Illustrator 26.0.3, SVG Export Plug-In . SVG Version: 6.00 Build 0)  -->
<svg version="1.1" xmlns="http://www.w3.org/2000/svg" xmlns:xlink="http://www.w3.org/1999/xlink" x="0px" y="0px"
	 viewBox="0 0 163.68 85.717" enable-background="new 0 0 163.68 85.717" xml:space="preserve">
<g id="ice_x5F_skate_x5F_yellow">
	<g id="Luistin_x5F_harakka_00000019678724988506054510000016366186882534028974_">
		<path fill="#7C7E7E" d="M48.001,50.123c-3.526-0.588-7.052-1.176-10.578-1.765C37.207,52.296,35.25,70.98,35.25,70.98
			c-8.94-0.482-17.883-0.916-26.828-1.296c-7.013-0.299-5.88-1.034-7.172,5.489c-0.442,2.228-0.506,4.541-1.07,6.731
			c-0.527,2.044,0.085,2.645,2.069,2.689c4.853,0.108,82.115,3.295,130.226-1.571c8.663-1.109,14.359-1.257,22.544-4.574
			c14.804-8.31,6.169-26.129,6.054-26.81c-3.25,12.322-5.75,15.4-23,17.75l-28.086,1.909c0,0-4.111-17.655-4.648-21.028
			c-3.347,0.292-6.693,0.584-10.041,0.875c0.49,3.218,0.09,20.683,0.09,20.683c-15.32,0.443-30.633,0.194-45.948-0.27
			C49.441,71.558,47.777,53.678,48.001,50.123z"/>
		<path id="XMLID_00000110472896657432505830000018355395966118222747_" fill="#FFD200" d="M14.202,6.795
			c0,0-7.599,40.347-2.33,51.226c4.624,9.554,116.211,5.313,123.213,2.779c7.002-2.534,8.854-26.26-0.175-33.299
			c-7.722-6.02-28.303-7.14-33.424-11.938c-5.121-4.798-7.818-15.109-7.818-15.109L15.491,0L14.202,6.795z"/>
		<g>
			<path fill="#FF8000" d="M101.485,15.563c-3.316-3.107-5.614-8.524-6.824-11.958c-26.686,13.868-11.707,32.479,8.6,13.189
				C102.555,16.41,101.954,16.002,101.485,15.563z"/>
		</g>
		<path fill="#FF8000" d="M110.18,19.306c-19.973,21.834,7.508,24.396,16.816,4.415C121.687,21.976,115.349,20.727,110.18,19.306z"
			/>
	</g>
</g>
<g id="Layer_1">
</g>
</svg>
