<?xml version="1.0" encoding="utf-8"?>
<!-- Generator: Adobe Illustrator 25.0.0, SVG Export Plug-In . SVG Version: 6.00 Build 0)  -->
<svg version="1.1" xmlns="http://www.w3.org/2000/svg" xmlns:xlink="http://www.w3.org/1999/xlink" x="0px" y="0px"
	 viewBox="0 0 305.924 172.418" enable-background="new 0 0 305.924 172.418" xml:space="preserve">
<g id="jacket_x5F_broken_x5F_blue">
	<g>
		<path fill="#275F88" d="M275.283,79.569c-11-4.333-3.731-20.377,6.873-15.389c-3.618-7.748,6.189-15.288,12.874-10.218
			c2.763-3.327,6.771-5.035,10.894-5.293C276.483,30.21,212.617,8.84,194.039,31.299c-11.133,13.459-1.798,53.318,30.755,56.12
			c18.941,1.631,61.295,15.571,61.295,15.571l-1.236-10.611C284.853,92.379,268.699,93.7,275.283,79.569z"/>
		<g>
			<path fill="#275F88" d="M126.967,31.299C101.665,0.71-7.638,51.418,0.424,65.349C7.19,77.04,28.673,100.727,34.917,102.99
				c8.876,3.217,42.354-19.94,61.295-21.571L126.967,31.299z"/>
		</g>
		<path fill="#3F749A" d="M246.693,164.902c-5.156-76.44-31.062-141.65-31.192-142.888c-16.132-5.484-105.107-7.161-120.248,0.56
			C82.726,43.618,62.442,109.64,68.51,165.719c0.113,1.044,38.677,6.135,88.538,6.678
			C197.87,172.842,246.765,165.964,246.693,164.902z"/>
		<path fill="#275F88" d="M154.746,172.397c1.681-0.012,5.665,0.013,7.347,0l-0.768-154.958c-1.68-0.007-2.595-0.006-4.276,0.001
			L154.746,172.397z"/>
		<path fill="#80D8E2" d="M159.351,17.44L125.16,9.188l-15.409,4.85L99.904,3.422l-11.136,6.707l-6.17-10.009
			c0,0-15.9,2.577-16.084,14.329s12.475,11.157,12.475,11.157L159.351,17.44z"/>
		<path fill="#80D8E2" d="M157.048,17.44c0,0,70.315-16.653,75.506-17.321c6.501-0.835,18.97,2.577,19.155,14.329
			c0.184,11.752-10.94,11.157-10.94,11.157L157.048,17.44z"/>
		<path fill="#54BDCF" d="M165.423,42.164c-0.994-10.368,14.587-8.788,11.821,1.213C175.302,49.911,164.899,46.794,165.423,42.164z"
			/>
		<path fill="#54BDCF" d="M165.423,77.547c-0.994-10.368,14.587-8.788,11.821,1.213C175.301,85.295,164.898,82.176,165.423,77.547z"
			/>
		<path fill="#54BDCF" d="M165.423,148.312c-0.994-10.368,14.587-8.788,11.821,1.213
			C175.302,156.058,164.899,152.942,165.423,148.312z"/>
		<polygon fill="#275F88" points="139.784,130.006 77.771,127.545 79.306,150.955 137.949,153.072 		"/>
		<g>
			<polygon fill="#FDA519" points="179.446,107.318 176.495,104.175 165.898,115.854 168.828,118.177 			"/>
			<polygon fill="#FDA519" points="176.924,117.697 179.865,114.545 167.511,104.744 165.386,107.821 			"/>
		</g>
		<path fill="#3F749A" d="M80.306,41.963L45,37.63c0,0-8.008,1.486-7.995,3.897c0.005,0.895,43.808,11.637,43.808,11.637
			L80.306,41.963z"/>
		<path fill="#3F749A" d="M65.204,61.425L45,37.63c0,0-8.74,3.243-8.062,3.827s22.489,29.577,22.489,29.577L65.204,61.425z"/>
		<path fill="#ED9EC3" d="M59.96,28.686C66.512,66.6,22.872,45.048,24.112,43.487C25.353,41.927,59.731,27.36,59.96,28.686z"/>
		<polygon fill="#54BDCF" points="32.225,54.079 29.631,52.779 35.131,43.7 37.193,45.144 		"/>
		<polygon fill="#54BDCF" points="46.452,56.252 43.598,56.78 42.509,46.221 45.024,46.129 		"/>
		<polygon fill="#54BDCF" points="65.046,33.479 65.204,36.377 54.592,36.102 54.824,33.596 		"/>
		<polygon fill="#54BDCF" points="60.813,49.165 59.104,51.51 51.052,44.593 52.815,42.797 		"/>
		<path fill="#275F88" d="M232.395,77.37c-0.841-2.666-32.452,1.454-32.452,1.454l9.291,16.094l-19.683,18.644l24.447,1.918
			c0,0-11.428,16.023-9.618,17.85s19.925,0.047,22.424,0s4.312,17.072,5.591,16.945c1.28-0.126,12.503-5.103,12.503-5.103
			S241.483,106.176,232.395,77.37z"/>
	</g>
</g>
<g id="Layer_1">
</g>
</svg>
