<?xml version="1.0" encoding="utf-8"?>
<!-- Generator: Adobe Illustrator 25.0.0, SVG Export Plug-In . SVG Version: 6.00 Build 0)  -->
<svg version="1.1" xmlns="http://www.w3.org/2000/svg" xmlns:xlink="http://www.w3.org/1999/xlink" x="0px" y="0px"
	 viewBox="0 0 321.006 172.418" enable-background="new 0 0 321.006 172.418" xml:space="preserve">
<g id="jacket_x5F_blue">
	<g>
		<g>
			<path fill="#82D8E8" d="M126.967,31.299C101.665,0.71-7.638,51.418,0.424,65.349C7.19,77.04,28.673,100.727,34.917,102.99
				c8.876,3.217,42.354-19.94,61.295-21.571C128.765,78.617,138.101,44.758,126.967,31.299z"/>
		</g>
		<g>
			<path fill="#82D8E8" d="M194.039,31.299c25.302-30.588,134.605,20.12,126.543,34.05c-6.766,11.691-28.249,35.378-34.493,37.641
				c-8.876,3.217-42.354-19.94-61.295-21.571C192.241,78.617,182.906,44.758,194.039,31.299z"/>
		</g>
		<path fill="#275F88" d="M246.693,164.902c-5.156-76.44-31.062-141.65-31.192-142.888c-16.132-5.484-105.107-7.161-120.248,0.56
			C82.726,43.618,62.442,109.64,68.51,165.719c0.113,1.044,38.677,6.135,88.538,6.678
			C197.87,172.842,246.765,165.964,246.693,164.902z"/>
		<path fill="#3F749A" d="M154.746,172.397c1.681-0.012,5.665,0.013,7.347,0l-0.768-154.958c-1.68-0.007-2.595-0.006-4.276,0.001
			L154.746,172.397z"/>
		<path fill="#3F749A" d="M159.351,17.44c0,0-64.789-16.045-76.753-17.321c-4.704-0.501-15.9,2.577-16.084,14.329
			s12.475,11.157,12.475,11.157L159.351,17.44z"/>
		<path fill="#3F749A" d="M157.048,17.44c0,0,70.315-16.653,75.506-17.321c6.501-0.835,18.97,2.577,19.155,14.329
			c0.184,11.752-10.94,11.157-10.94,11.157L157.048,17.44z"/>
		<path fill="#FFD200" d="M165.423,42.164c-0.994-10.368,14.587-8.788,11.821,1.213C175.302,49.911,164.899,46.794,165.423,42.164z"
			/>
		<path fill="#FFD200" d="M165.423,77.547c-0.994-10.368,14.587-8.788,11.821,1.213C175.301,85.295,164.898,82.176,165.423,77.547z"
			/>
		<path fill="#FFD200" d="M165.423,112.929c-0.994-10.368,14.587-8.788,11.821,1.213
			C175.302,120.675,164.899,117.56,165.423,112.929z"/>
		<path fill="#FFD200" d="M165.423,148.312c-0.994-10.368,14.587-8.788,11.821,1.213
			C175.302,156.058,164.899,152.942,165.423,148.312z"/>
		<polygon fill="#3F749A" points="139.784,130.006 77.771,127.545 79.306,150.955 137.949,153.072 		"/>
	</g>
</g>
<g id="Layer_1">
</g>
</svg>
