<?xml version="1.0" encoding="utf-8"?>
<!-- Generator: Adobe Illustrator 25.0.0, SVG Export Plug-In . SVG Version: 6.00 Build 0)  -->
<svg version="1.1" xmlns="http://www.w3.org/2000/svg" xmlns:xlink="http://www.w3.org/1999/xlink" x="0px" y="0px"
	 viewBox="0 0 196.392 220.865" enable-background="new 0 0 196.392 220.865" xml:space="preserve">
<g id="jeans_x5F_green">
	<g>
		<path fill="#0EB800" d="M23.019,19.11c0,0,154.507,1.923,154.507,2.329s14.107,181.322,14.107,181.322h-75.12L100.149,83.944
			L79.042,200.951H6.144L23.019,19.11z"/>
		<path fill="#00A038" d="M156.383,21.439c0,0,0.543,34.682,8.563,47.804c9.521,15.576,17.293,12.951,17.293,12.951l-4.713-60.754
			L156.383,21.439L156.383,21.439z"/>
		<path fill="#00A038" d="M44.108,19.11c0,0-0.543,34.682-8.563,47.804C26.024,82.49,17.528,79.865,17.528,79.865l5.437-60.754
			h21.143V19.11z"/>
		<polygon fill="#00A038" points="64.959,197.33 89.218,19.914 115.649,20.276 130.494,199.865 116.114,199.865 100.149,83.944 
			80.166,198.054 		"/>
		<polygon fill="#A3D02A" points="155.511,50.56 152.641,50.983 151.938,40.391 154.454,40.391 		"/>
		<polygon fill="#A3D02A" points="154.324,36.23 151.432,36.466 151.622,26.371 154.134,26.534 		"/>
		<polygon fill="#A3D02A" points="158.309,64.155 155.519,64.952 153.429,54.545 155.924,54.214 		"/>
		<polygon fill="#A3D02A" points="164.843,76.449 162.386,77.992 157.477,68.581 159.781,67.567 		"/>
		<polygon fill="#A3D02A" points="175.857,83.874 174.643,86.509 165.388,81.312 166.763,79.204 		"/>
		<polygon fill="#A3D02A" points="180.023,97.794 177.143,98.151 176.687,87.545 179.203,87.604 		"/>
		<polygon fill="#A3D02A" points="181.239,112.383 178.359,112.739 177.903,102.134 180.42,102.192 		"/>
		<polygon fill="#A3D02A" points="182.196,127.302 179.316,127.658 178.861,117.053 181.377,117.112 		"/>
		<polygon fill="#A3D02A" points="183.186,142.222 180.307,142.578 179.851,131.972 182.367,132.031 		"/>
		<polygon fill="#A3D02A" points="184.166,157.141 181.286,157.497 180.83,146.892 183.347,146.95 		"/>
		<polygon fill="#A3D02A" points="185.834,172.637 182.954,172.993 182.498,162.388 185.014,162.446 		"/>
		<polygon fill="#A3D02A" points="187.045,187.638 184.165,187.994 183.709,177.389 186.225,177.447 		"/>
		<polygon fill="#A3D02A" points="188.42,202.639 185.54,202.995 185.084,192.39 187.6,192.449 		"/>
		<polygon fill="#A3D02A" points="47.439,49.152 50.294,49.674 51.362,39.113 48.847,39.026 		"/>
		<polygon fill="#A3D02A" points="49.121,34.872 52.003,35.208 52.162,25.112 49.646,25.189 		"/>
		<polygon fill="#A3D02A" points="44.173,62.643 46.934,63.536 49.382,53.207 46.9,52.79 		"/>
		<polygon fill="#A3D02A" points="37.218,74.703 39.62,76.331 44.852,67.095 42.585,66.002 		"/>
		<polygon fill="#A3D02A" points="25.954,81.743 27.076,84.419 36.506,79.544 35.204,77.39 		"/>
		<polygon fill="#A3D02A" points="21.31,95.512 24.176,95.967 24.998,85.384 22.481,85.356 		"/>
		<polygon fill="#A3D02A" points="19.59,110.049 22.456,110.505 23.278,99.922 20.761,99.893 		"/>
		<polygon fill="#A3D02A" points="18.118,124.927 20.984,125.382 21.806,114.799 19.289,114.771 		"/>
		<polygon fill="#A3D02A" points="16.613,139.803 19.479,140.258 20.301,129.675 17.784,129.647 		"/>
		<polygon fill="#A3D02A" points="15.118,154.679 17.984,155.135 18.806,144.552 16.289,144.523 		"/>
		<polygon fill="#A3D02A" points="12.916,170.108 15.782,170.564 16.604,159.981 14.087,159.952 		"/>
		<polygon fill="#A3D02A" points="11.187,185.059 14.053,185.514 14.875,174.931 12.359,174.903 		"/>
		<polygon fill="#A3D02A" points="9.295,200.003 12.161,200.459 12.983,189.876 10.466,189.847 		"/>
		<polygon fill="#B5D700" points="3.044,196.606 83.063,196.606 79.442,220.141 0,220.141 		"/>
		<polygon fill="#B5D700" points="194.434,196.606 112.967,198.054 114.415,220.141 196.392,220.865 		"/>
		<polygon fill="#B5D700" points="20.85,0 182.573,2.897 182.573,27.156 20.002,24.983 		"/>
		<polygon fill="#00A038" points="54.105,0.617 63.878,0.793 63.878,28.848 54.105,28.848 		"/>
		<rect x="139.029" y="2.145" fill="#00A038" width="9.364" height="26.703"/>
		<path fill="#00759C" d="M104.281,19.029c-3.269,1.643-7.771,1.091-9.22-2.804c-2.408-6.471,4.321-11.054,9.667-7.999
			C108.346,10.765,107.784,17.16,104.281,19.029z"/>
	</g>
</g>
<g id="Layer_1">
</g>
</svg>
