<?xml version="1.0" encoding="utf-8"?>
<!-- Generator: Adobe Illustrator 25.0.0, SVG Export Plug-In . SVG Version: 6.00 Build 0)  -->
<svg version="1.1" xmlns="http://www.w3.org/2000/svg" xmlns:xlink="http://www.w3.org/1999/xlink" x="0px" y="0px"
	 viewBox="0 0 209.656 221.524" enable-background="new 0 0 209.656 221.524" xml:space="preserve">
<g id="jeans_x5F_broken_x5F_blue">
	<g>
		<path fill="#275F88" d="M116.055,173.548l15.842,6.73l10.536-6.73l5.287,6.848l8.09-4.997l10.231,4.997l18.244,1.605l5.414-5.557
			l-5.043-18.779l-54.615-0.738L116.055,173.548z"/>
		<path fill="#3F749A" d="M23.019,20.493c0,0,154.507,1.923,154.507,2.329s14.947,151.135,12.233,153.213
			c-3.755,0.585-10.16,0.061-10.16,0.061l-5.288-8.019l-3.69,5.757l-22.842-5.277l-9.972-5.668l-4.195,6.383
			c0,0-10.654,1.946-17.1,3.866c-1.818-5.098-16.364-87.811-16.364-87.811L79.042,202.334H6.144L23.019,20.493z"/>
		<path fill="#275F88" d="M156.383,22.822c0,0,0.543,34.682,8.563,47.804c9.521,15.576,17.293,12.951,17.293,12.951l-4.713-60.754
			L156.383,22.822L156.383,22.822z"/>
		<path fill="#275F88" d="M44.108,20.493c0,0-0.543,34.682-8.563,47.804c-9.521,15.576-18.017,12.951-18.017,12.951l5.437-60.754
			h21.143V20.493z"/>
		<polygon opacity="0.5" fill="#275F88" enable-background="new    " points="64.959,198.713 89.218,21.297 115.649,21.659 
			130.17,169.83 116.114,173.138 100.149,85.327 79.569,199.409 		"/>
		<polygon fill="#54BDCF" points="155.511,51.943 152.641,52.366 151.938,41.774 154.454,41.774 		"/>
		<polygon fill="#54BDCF" points="154.324,37.613 151.432,37.849 151.622,27.754 154.134,27.917 		"/>
		<polygon fill="#54BDCF" points="158.309,65.538 155.519,66.335 153.429,55.928 155.924,55.597 		"/>
		<polygon fill="#54BDCF" points="164.843,77.832 162.386,79.375 157.477,69.964 159.781,68.95 		"/>
		<polygon fill="#54BDCF" points="175.857,85.257 174.643,87.892 165.388,82.695 166.763,80.587 		"/>
		<polygon fill="#54BDCF" points="180.023,99.177 177.143,99.534 176.687,88.928 179.203,88.987 		"/>
		<polygon fill="#54BDCF" points="181.239,113.766 178.359,114.122 177.903,103.517 180.42,103.575 		"/>
		<polygon fill="#54BDCF" points="182.196,128.685 179.316,129.041 178.861,118.436 181.377,118.495 		"/>
		<polygon fill="#54BDCF" points="47.439,50.535 50.294,51.057 51.362,40.496 48.847,40.409 		"/>
		<polygon fill="#54BDCF" points="49.121,36.255 52.003,36.591 52.162,26.495 49.646,26.572 		"/>
		<polygon fill="#54BDCF" points="44.173,64.026 46.934,64.919 49.382,54.59 46.9,54.173 		"/>
		<polygon fill="#54BDCF" points="37.218,76.086 39.62,77.714 44.852,68.478 42.585,67.385 		"/>
		<polygon fill="#54BDCF" points="25.954,83.126 27.076,85.802 36.506,80.927 35.204,78.773 		"/>
		<polygon fill="#54BDCF" points="21.31,96.895 24.176,97.35 24.998,86.767 22.481,86.739 		"/>
		<polygon fill="#54BDCF" points="19.59,111.432 22.456,111.888 23.278,101.305 20.761,101.276 		"/>
		<polygon fill="#54BDCF" points="18.118,126.31 20.984,126.765 21.806,116.182 19.289,116.154 		"/>
		<polygon fill="#54BDCF" points="16.613,141.186 19.479,141.641 20.301,131.058 17.784,131.03 		"/>
		<polygon fill="#54BDCF" points="15.118,156.062 17.984,156.518 18.806,145.935 16.289,145.906 		"/>
		<polygon fill="#54BDCF" points="12.916,171.491 15.782,171.947 16.604,161.364 14.087,161.335 		"/>
		<polygon fill="#54BDCF" points="11.187,186.442 14.053,186.897 14.875,176.314 12.359,176.286 		"/>
		<polygon fill="#54BDCF" points="9.295,201.386 12.161,201.842 12.983,191.259 10.466,191.23 		"/>
		<polygon fill="#54BDCF" points="3.044,197.989 83.063,197.989 79.442,221.524 58.357,221.524 51.362,209.757 37.386,220.373 
			31.283,213.929 20.427,221.524 0,221.524 		"/>
		<polygon fill="#54BDCF" points="20.85,1.383 32.077,1.53 38.795,16.16 45.802,1.83 107.071,2.454 115.846,10.923 124.5,2.828 
			130.619,14.115 136.255,3.038 182.573,4.28 182.573,28.539 20.002,26.366 		"/>
		<polygon fill="#275F88" points="54.105,0 63.878,0.176 63.878,28.231 54.105,28.231 		"/>
		<rect x="139.029" y="2.528" fill="#275F88" width="9.364" height="26.703"/>
		<path fill="#275F88" d="M82.38,141.753l-52.249-8.134c0,0-8.838,2.609-7.824,2.769s57.874,16.297,57.874,16.297L82.38,141.753z"/>
		<path fill="#275F88" d="M159.983,125.115l-29.813,12.717c0,0,10.127-1.279,10.995-1.497c0.868-0.218,24.223-5.107,24.223-5.107
			L159.983,125.115z"/>
		<path fill="#80D8E2" d="M38.812,124.277c9.498-4.099,21.843-1.237,25.294,9.998c5.734,18.666-14.928,29.127-28.094,20.096
			C26.215,146.606,28.614,128.976,38.812,124.277z"/>
		<path fill="#275F88" d="M180.023,140.012l-42.818-5.255c0,0-7.922,2.965-7.034,3.076c0.888,0.111,50.358,13.38,50.358,13.38
			L180.023,140.012z"/>
		<polygon fill="#54BDCF" points="48.488,124.377 49.87,125.686 54.237,120.265 52.885,119.317 		"/>
		<polygon fill="#54BDCF" points="55.503,127.041 56.084,128.853 62.522,126.203 61.794,124.722 		"/>
		<polygon fill="#54BDCF" points="61.906,139.765 61.283,141.563 68.023,143.307 68.33,141.685 		"/>
		<polygon fill="#54BDCF" points="57.422,151.212 56.799,153.011 63.539,154.754 63.846,153.132 		"/>
		<polygon fill="#54BDCF" points="40.698,120.326 38.795,120.371 39.515,127.295 41.142,127.016 		"/>
		<polygon fill="#54BDCF" points="50.13,155.921 48.227,155.965 48.947,162.89 50.574,162.611 		"/>
		<polygon fill="#54BDCF" points="41.849,154.611 40.547,153.224 35.869,158.379 37.162,159.405 		"/>
		<polygon fill="#54BDCF" points="30.393,127.455 29.164,128.908 34.822,132.964 35.693,131.561 		"/>
		<polygon fill="#54BDCF" points="28.147,147.822 29.394,149.26 34.271,144.292 33.019,143.216 		"/>
		<polygon fill="#54BDCF" points="60.635,133.855 61.51,135.545 67.417,131.862 66.453,130.522 		"/>
		<path fill="#54BDCF" d="M186.959,143.062c-0.766,0-1.498-0.16-2.194-0.479c-4.417-2.024-5.095-9.752-5.157-10.626l2.992-0.216
			c0.129,1.759,1.035,7.026,3.417,8.116c1.084,0.494,2.558,0.06,4.381-1.296c6.677-4.965,12.082-8.621,15.853-6.891
			c2.031,0.935,3.146,3.22,3.405,6.985l-2.992,0.207c-0.121-1.743-0.508-3.934-1.668-4.467c-2.44-1.127-9.188,3.881-12.807,6.572
			C190.314,142.362,188.564,143.062,186.959,143.062z"/>
		<polygon fill="#FDA519" points="108.274,12.257 105.323,9.114 94.726,20.793 97.656,23.116 		"/>
		<polygon fill="#FDA519" points="105.752,22.636 108.693,19.484 96.339,9.683 94.214,12.76 		"/>
	</g>
</g>
<g id="Layer_1">
</g>
</svg>
