<?xml version="1.0" encoding="utf-8"?>
<!-- Generator: Adobe Illustrator 24.2.3, SVG Export Plug-In . SVG Version: 6.00 Build 0)  -->
<svg version="1.1" xmlns="http://www.w3.org/2000/svg" xmlns:xlink="http://www.w3.org/1999/xlink" x="0px" y="0px"
	 viewBox="0 0 130.487 153.307" enable-background="new 0 0 130.487 153.307" xml:space="preserve">
<g id="lifejacket_x5F_yellow">
	<path fill="#FDE40B" d="M11.891,6.782c6.046-7.498,24.547-7.879,29.288-4.457c13.713,9.898,31.694,130.633,18.903,142.581
		c-13.969,13.049-59.313,11.97-60.026-10.871S5.56,14.632,11.891,6.782z"/>
	<path fill="#FDE40B" d="M98.02,6.193C92.473,1.671,80.125-4.048,68.397,4.15C53.852,14.318,77.624,124.58,91.599,139.594
		c7.262,7.801,41.837,4.033,38.686-23.649C127.701,93.241,108.165,14.464,98.02,6.193z"/>
	<polygon fill="#F77F15" points="4.962,45.011 111.747,36.295 115.812,50.891 3.048,63.16 	"/>
	<polygon fill="#F77F15" points="1.916,78.65 120.535,67.857 124.205,82.735 0.709,96.739 	"/>
</g>
<g id="Layer_1">
</g>
</svg>
