<?xml version="1.0" encoding="utf-8"?>
<!-- Generator: Adobe Illustrator 27.0.0, SVG Export Plug-In . SVG Version: 6.00 Build 0)  -->
<svg version="1.1" xmlns="http://www.w3.org/2000/svg" xmlns:xlink="http://www.w3.org/1999/xlink" x="0px" y="0px"
	 viewBox="0 0 252.095 166.949" enable-background="new 0 0 252.095 166.949" xml:space="preserve">
<g id="mitten_x5F_white">
	<g>
		<path fill="#FFFFFF" d="M133.502,58.619c0,0,48.427-37.837,25.181-55.71c-12.195-9.376-32.01,5.633-50.309,20.604
			C91.377,37.418,75.398,51.056,75.398,51.056L133.502,58.619z"/>
		<path fill="#B2B2B2" d="M53.354,53.277c0,0,11.13-6.457,59.924-6.13c26.982,0.182,73.567-0.631,100.666,8.999
			c24.369,8.66,38.035,30.656,38.145,54.067c0.045,9.269-7.608,24.402-16.705,33.778c-16.134,16.631-24.892,27.992-110.902,20.716
			c-49.504-4.188-74.188-12.393-74.188-12.393L53.354,53.277z"/>
		<path fill="#FFFFFF" d="M54.295,52.845c2.102,1.397-2.463,100.298-2.463,100.298s-51.769-0.174-51.821-1.935
			c-0.1-3.452,0.437-96.743,3.481-97.422C6.535,53.108,54.295,52.845,54.295,52.845z"/>
		<path fill="#FFFFFF" d="M213.946,56.146c-0.521-0.184-1.063-0.358-1.596-0.537c-1.397,10.53-3.237,31.038-3.813,58.324
			c-0.499,23.697-0.518,39.843-0.459,48.828c13.571-4.083,19.603-10.824,27.312-18.769c9.094-9.376,16.748-24.51,16.705-33.778
			C251.979,86.802,238.312,64.806,213.946,56.146z"/>
		<path fill="#FFFFFF" d="M187.741,166.277c0.741-19.617,3.359-89.355,4.221-115.355c-4.173-0.652-8.495-1.19-12.905-1.629
			l-2.793,117.576C180.428,166.764,184.239,166.566,187.741,166.277z"/>
		<path fill="#FFFFFF" d="M166.903,166.939c0.886-23.879,3.507-93.743,4.689-118.303c-4.037-0.308-8.108-0.549-12.159-0.738
			l-4.188,118.771C159.378,166.819,163.257,166.91,166.903,166.939z"/>
	</g>
</g>
<g id="Layer_1">
</g>
</svg>
