<?xml version="1.0" encoding="utf-8"?>
<!-- Generator: Adobe Illustrator 24.2.3, SVG Export Plug-In . SVG Version: 6.00 Build 0)  -->
<svg version="1.1" xmlns="http://www.w3.org/2000/svg" xmlns:xlink="http://www.w3.org/1999/xlink" x="0px" y="0px"
	 viewBox="0 0 182.083 294.782" enable-background="new 0 0 182.083 294.782" xml:space="preserve">
<g id="party_x5F_hat_x5F_2">
	<path fill="#54BDCF" d="M86.726,79.604C78.437,89.847,2.317,273.236,1.67,278.024c-2.815,14.586-4.286,12.562,14.472,14.841
		c54.44,1.543,114.137,6.607,165.938-10.326C182.695,273.841,93.976,70.646,86.726,79.604z"/>
	<path fill="#3F749A" d="M163.604,234.309c-52.892,11.122-113.537,24.219-158.442,34.256c-2.154,5.48-3.411,8.861-3.492,9.459
		c-2.814,14.586-4.285,12.562,14.472,14.841c53.92,6.623,107.963-15.87,161.135-25.022
		C174.005,259.308,169.251,247.662,163.604,234.309z"/>
	<path fill="#3F749A" d="M20.523,230.712c39.969-8.566,86.945-18.851,129.327-28.264c-4.813-10.946-9.863-22.236-14.924-33.334
		c-31.739,6.692-65.852,14.002-97.442,20.882C31.476,204.285,25.661,218.255,20.523,230.712z"/>
	<path fill="#3F749A" d="M53.362,152.564c22.312-4.867,45.154-9.891,67.001-14.734c-5.916-12.411-11.524-23.768-16.421-33.106
		c-10.775,2.28-21.76,4.617-32.773,6.972C65.912,123.479,59.775,137.596,53.362,152.564z"/>
	<path fill="#FDE40B" d="M85.282,90.492c-16.831,0.259-34.88-6.825-39.422-24.942C36.171,36.241,47.477,2.652,81.754,0.861
		C151.692-10.379,152.351,92.155,85.282,90.492z"/>
	<path fill="#FDA519" d="M90.769,85.788c-9.875,0.843-11.872-14.308-1.534-16.345C100.518,67.229,102.385,86.472,90.769,85.788z"/>
	<path fill="#FDA519" d="M122.518,56.7c0.811,10.497-16.751,10.38-16.371,0.043C105.805,45.612,123.05,45.224,122.518,56.7z"/>
	<path fill="#FDA519" d="M86.461,39.148c1.016,10.009-15.469,10.632-16.311,1.212C68.266,28.746,87.025,27.017,86.461,39.148z"/>
	<path fill="#FDA519" d="M91.796,66.174c-10.174,0.292-9.983-17.717,0.75-16.453C104.034,49.694,102.825,66.733,91.796,66.174z"/>
	<path fill="#FDA519" d="M119.444,25.671c0.886,10.542-16.916,10.223-16.337,0.067C102.59,14.696,120.089,14.129,119.444,25.671z"/>
	<path fill="#FDA519" d="M56.891,48.587c-13.038-0.922-7.351-17.42,3.651-14.014C69.514,36.966,65.148,49.418,56.891,48.587z"/>
	<path fill="#FDA519" d="M76.449,23.215c-13.112-1.046-7.164-17.899,4.351-13.82C89.005,12.376,84.688,23.982,76.449,23.215z"/>
	<path fill="#FDA519" d="M70.647,79.179c-13.459-1.216-6.8-18.107,4.499-13.73C83.307,68.599,78.383,80.078,70.647,79.179z"/>
	<path fill="#FDA519" d="M99.091,46.88c-12.109-0.9-4.031-16.423,5.048-11.001C108.901,39.962,105.411,47.908,99.091,46.88z"/>
	<path fill="#FDA519" d="M98.191,27.145c0.424,6.747-12.136,8.391-13.227,1.457C83.322,19.381,98.623,18.059,98.191,27.145z"/>
	<path fill="#FDA519" d="M109.619,66.797c6.559-0.932,9.433,8.608,2.551,11.363c-3.588,1.48-9.054,0.269-9.27-4.274
		C101.927,69.733,105.5,66.333,109.619,66.797z"/>
	<path fill="#FDA519" d="M64.403,58.544c-1.2,13.557-17.654,4.666-10.262-4.896C57.957,50.16,64.854,52.665,64.403,58.544z"/>
	<path fill="#FDA519" d="M96.315,18.748c-7.487,0.37-7.237-10.65-0.499-11.279C104.054,5.482,104.296,19.445,96.315,18.748z"/>
	<path fill="#FDA519" d="M121.633,34.59c6.535-0.104,6.549,9.045,1.66,10.916C114.165,49.195,112.045,34.112,121.633,34.59z"/>
	<path fill="#FDA519" d="M61.888,30.737c-8.088,0.066-7.053-12.063,1.001-11.43C69.977,19.286,69.053,31.339,61.888,30.737z"/>
	<path fill="#FDA519" d="M75.273,49.56c7.884-0.165,5.932,12.591-1.299,11.314C66.334,60.478,68.034,48.722,75.273,49.56z"/>
</g>
<g id="Layer_1">
</g>
</svg>
