<?xml version="1.0" encoding="utf-8"?>
<!-- Generator: Adobe Illustrator 24.2.3, SVG Export Plug-In . SVG Version: 6.00 Build 0)  -->
<svg version="1.1" xmlns="http://www.w3.org/2000/svg" xmlns:xlink="http://www.w3.org/1999/xlink" x="0px" y="0px"
	 viewBox="0 0 175.057 297.89" enable-background="new 0 0 175.057 297.89" xml:space="preserve">
<g id="party_x5F_hat_x5F_1">
	<g>
		<path fill="#ED9EC3" d="M83.358,91.015c-7.968,9.848-81.132,186.17-81.753,190.774c-2.704,14.023-4.119,12.078,13.915,14.266
			c52.34,1.478,109.733,6.34,159.534-9.945C175.644,277.747,90.327,82.402,83.358,91.015z"/>
		<path fill="#3F749A" d="M157.286,239.743c-50.85,10.699-109.154,23.297-152.325,32.951c-2.071,5.268-3.279,8.52-3.356,9.094
			c-2.704,14.023-4.119,12.078,13.915,14.267c51.84,6.362,103.795-15.269,154.915-24.074
			C167.288,263.776,162.716,252.58,157.286,239.743z"/>
		<path fill="#3F749A" d="M19.725,236.3c38.425-8.24,83.588-18.133,124.333-27.188c-4.628-10.523-9.484-21.377-14.352-32.047
			c-30.514,6.437-63.309,13.469-93.68,20.086C30.253,210.891,24.663,224.323,19.725,236.3z"/>
		<path fill="#3F749A" d="M51.288,161.164c21.45-4.681,43.41-9.515,64.414-14.173c-5.689-11.932-11.082-22.85-15.791-31.827
			c-10.359,2.193-20.92,4.441-31.507,6.707C63.351,133.2,57.452,146.773,51.288,161.164z"/>
		<path id="XMLID_13_" fill="#3F749A" d="M95.429,0.823c55.105,6.985,50.155,100.434-4.909,100.628
			C6.331,101.58,21.54-10.646,95.429,0.823z"/>
		<path id="XMLID_93_" fill="#54BDCF" d="M115.445,78.912c-2.331,1.668-4.2,3.006-6.321,4.524
			c-8.083-8.361-16.053-16.605-24.716-25.566c-0.86,13.392-1.674,26.081-2.522,39.284c-3.544-0.309-6.852-0.597-10.718-0.934
			c1.255-12.479,2.472-24.573,3.826-38.036c-8.158,7.887-15.351,14.84-22.775,22.017c-1.532-2.231-2.732-3.979-4.47-6.511
			c8.552-7.049,17.101-14.096,25.65-21.142c-0.086-0.314-0.172-0.628-0.259-0.943c-11.002,0.852-22.003,1.705-33.187,2.571
			c-0.027-3.474-0.049-6.478-0.079-10.28c10.768,0.104,21.14,0.205,32.616,0.316c-7.396-7.65-14.078-14.562-21.037-21.76
			c1.837-2.453,3.391-4.528,5.425-7.244c6.706,7.843,12.979,15.18,20.082,23.487c1.348-12.023,2.597-23.165,3.891-34.703
			c2.041-0.122,3.95-0.236,6.635-0.396c-0.731,12.605-1.438,24.784-2.206,38.024c8.149-9.025,15.61-17.287,23.283-25.784
			c2.368,1.873,4.557,3.604,7.404,5.856c-8.828,7.723-17.187,15.036-26.389,23.086c13.459,0.652,26.152,1.266,39.057,1.891
			c-0.045,3.518-0.084,6.521-0.134,10.446c-12.667-1.565-25.048-3.096-38.762-4.791C98.845,61.741,107.046,70.224,115.445,78.912z"
			/>
	</g>
</g>
<g id="Layer_1">
</g>
</svg>
