<?xml version="1.0" encoding="utf-8"?>
<!-- Generator: Adobe Illustrator 27.0.0, SVG Export Plug-In . SVG Version: 6.00 Build 0)  -->
<svg version="1.1" xmlns="http://www.w3.org/2000/svg" xmlns:xlink="http://www.w3.org/1999/xlink" x="0px" y="0px"
	 viewBox="0 0 126.483 92.513" enable-background="new 0 0 126.483 92.513" xml:space="preserve">
<g id="reindeer_x5F_hat">
	<g>
		<path id="XMLID_00000096035120212481914700000005844635275215645610_" fill="#00759C" d="M99.806,1.549
			c-1.592-3.141-6.659-1.063-5.711,2.289c1.93,6.823,4.378,13.364,5.582,20.39c0.815,4.755,1.003,9.559,0.477,14.308
			c-2.817-1.359-4.905-5.27-6.121-7.562c-1.978-3.729-3.43-7.675-4.933-11.606c-1.288-3.37-6.557-2.262-5.575,1.404
			c1.834,6.852,6.979,21.871,15.651,23.393c-0.067,0.276-0.12,0.554-0.192,0.83c-1.396,5.354-3.905,10.651-7.141,15.265
			c-1.957-1.124-3.75-2.537-5.304-4.175c-1.779-1.875-2.975-3.828-5.15-5.317c-2.43-1.663-5.166,1.036-4.683,3.528
			c1.034,5.322,6.09,9.32,11.207,10.831c-4.791,5.095-11.717,9.658-18.686,10.143c-1.611,0.112-1.681,2.462-0.034,2.529
			c3.809,0.155,7.872,0.363,11.554-0.798c3.993-1.259,7.567-3.411,10.762-6.081c6.432-5.376,11.317-13.127,13.765-21.092
			C109.953,34.608,106.916,15.571,99.806,1.549z"/>
		<path id="XMLID_00000157271596239848917960000015336978307464950174_" fill="#00759C" d="M21.15,2.043
			c1.486-3.193,6.619-1.286,5.784,2.096c-1.7,6.884-3.926,13.504-4.895,20.566c-0.655,4.78-0.681,9.587,0.003,14.316
			c2.77-1.453,4.726-5.432,5.864-7.763c1.852-3.793,3.171-7.785,4.541-11.766c1.174-3.412,6.477-2.481,5.619,1.216
			c-1.603,6.909-6.24,22.093-14.857,23.905c0.076,0.274,0.138,0.55,0.219,0.823c1.575,5.304,4.261,10.514,7.65,15.016
			c1.918-1.189,3.662-2.662,5.161-4.35c1.715-1.933,2.845-3.926,4.969-5.487c2.373-1.743,5.198,0.862,4.799,3.369
			c-0.854,5.353-5.774,9.519-10.837,11.201c4.959,4.931,12.035,9.259,19.016,9.51c1.614,0.058,1.763,2.404,0.119,2.527
			c-3.802,0.283-7.855,0.627-11.574-0.41c-4.033-1.124-7.677-3.155-10.96-5.716c-6.609-5.157-11.751-12.739-14.466-20.618
			C12.119,35.424,14.515,16.295,21.15,2.043z"/>
		<path id="XMLID_00000051350880218723388570000016140482519752938172_" fill="#A45700" d="M117.251,54.539
			c11.034,0.801,11.499,18.51,4.98,25.172c-8.383,7.97-21.387,6.628-31.895,4.771c-2.288-2.144-2.748-6.282-4.383-9.095
			c-0.198-0.46-0.148-0.705,0.249-1.019C95.215,67.452,106.743,57.915,117.251,54.539z"/>
		<path id="XMLID_00000148645793301830123610000008304269139079848082_" fill="#A45700" d="M2.572,58.731
			c7.44-12.82,28.932,11.767,36.715,16.756c0.756,2.887-2.76,6.366-3.552,9.383c-5.818,2.135-12.947,1.508-19.195,0.863
			C1.974,83.822-3.802,71.423,2.572,58.731z"/>
		<path id="XMLID_00000017517604680284004560000002108751204898357144_" fill="#6A4019" d="M116.737,69.525
			c2.102,13.177-13.635,15.188-23.182,12.692c-1.674-1.178-1.86-3.97-2.924-5.739c2.138-4.077,8.227-6.504,11.917-9.633
			C108.242,62.218,115.426,60.032,116.737,69.525z"/>
		<path id="XMLID_00000071560238600804634340000006846523914926646713_" fill="#6A4019" d="M9.716,68.074
			c3.518-11.155,14.065-0.172,19.436,3.74c1.554,1.911,5.7,3.283,5.65,5.763c-1.202,1.616-1.284,4.487-3.087,5.435
			c-3.762,0.547-7.525,0.76-11.313,0.22C12.686,82.799,7.151,75.611,9.716,68.074z"/>
		<path id="XMLID_00000047019294755375363800000010775891005847665036_" fill="#FFA600" d="M63.783,67.54
			c4.402,1.016,7.8,3.915,10.794,7.177c1.367-8.74,12.421-9.114,16.182-3.879c9.781,17.089-13.875,25.455-25.382,14.025
			c-1.823-0.889-3.561,1.792-5.273,2.399c-4.886,3.111-10.47,5.402-16.333,5.243c-6.038-1.163-11.788-5.233-12.924-11.631
			c-0.886-6.849,5.288-12.433,12.477-11.402c2.888,0.432,5.284,1.865,7.366,3.855c0.38,0.363,0.525,0.424,0.821-0.111
			C53.779,68.736,59,66.752,63.783,67.54z"/>
	</g>
</g>
<g id="Layer_1">
</g>
</svg>
