<?xml version="1.0" encoding="utf-8"?>
<!-- Generator: Adobe Illustrator 27.1.1, SVG Export Plug-In . SVG Version: 6.00 Build 0)  -->
<svg version="1.1" xmlns="http://www.w3.org/2000/svg" xmlns:xlink="http://www.w3.org/1999/xlink" x="0px" y="0px"
	 viewBox="0 0 426.186 463.006" enable-background="new 0 0 426.186 463.006" xml:space="preserve">
<g id="safety_x5F_vest_x5F_green">
	<g id="Layer_1_00000108282378915419475980000008442676031462232743_">
	</g>
	<path fill="#B5D700" d="M112.199,33.895c0,0,56.748-25.414,80.882-23.634c7.966,0.587-58.469,121.737-43.559,300.325
		c3.378,40.461-2.997,109.518-32.139,132.864c-21.605,17.308-99.715,3.212-116.612-14.68
		C-8.835,418.6,74.552,326.607,70.997,215.493C69.579,60.597,112.199,33.895,112.199,33.895z"/>
	<path fill="#B5D700" d="M426.186,77.659c0,0-38.059-64.308-103.272-77.659c-15.918,0-49.224,116.425-66.371,295.014
		c-3.885,40.461-10.602,129.883,41.68,158.378c26.588,14.49,102.707,13.364,117.36-8.615c2.65-3.976-26.254-110.257-21.205-221.331
		C398.354,135.974,426.186,77.659,426.186,77.659z"/>
	<path fill="#FFFFFF" d="M31.546,364.053l116.718,2.4c1.569-13.053,2.184-26.124,2.06-38.007l-99.803-6.075
		C42.822,340.938,36.71,351.023,31.546,364.053z"/>
	<path fill="#FFFFFF" d="M397.712,324.374l-143.49,3.39c-0.588,15.687-0.347,33.262,2.027,50.406
		c34.533-3.158,116.474-9.647,146.62-12.019C400.999,353.264,399.206,339.225,397.712,324.374z"/>
</g>
<g id="Layer_1">
</g>
</svg>
