<?xml version="1.0" encoding="utf-8"?>
<!-- Generator: Adobe Illustrator 25.0.0, SVG Export Plug-In . SVG Version: 6.00 Build 0)  -->
<svg version="1.1" xmlns="http://www.w3.org/2000/svg" xmlns:xlink="http://www.w3.org/1999/xlink" x="0px" y="0px"
	 viewBox="0 0 195.083 186.581" enable-background="new 0 0 195.083 186.581" xml:space="preserve">
<g id="scarf_x5F_broken_x5F_green">
	<g>
		<path fill="#00A038" d="M177.119,3.339c-1.265-3.487-6.078-3.616-9.756-3.137c-20.059,2.608-40.242,4.253-60.459,4.962
			c-1.871,6.279-6.546,11.641-13.76,13.265c5.74,8.219-3.308,19.545-12.437,15.698c-1.714,14.708-23.472,11.058-20.837-3.381
			c-8.219,6.868-20.496-2.585-16.503-12.305c-6.045-2.8-9.734-8.665-10.759-14.951c-3.71-0.299-7.418-0.618-11.123-0.981
			c-0.717-0.07-6.196,7.199-4.991,23.6c0.688,9.36,3.9,16.999,5.731,18.337c2.248,1.643,5.169,1.967,7.943,2.215
			c48.796,4.356,98.211,1.729,146.271-7.768c1.731-0.343,3.022-1.802,3.149-3.562C180.552,22,177.494,4.375,177.119,3.339z"/>
		<path fill="#00A038" d="M50.904,41.995c1.399-1.067,3.133-1.829,5.163-2.254l0.881,4.209c-3.264,0.685-5.172,2.47-5.67,5.309
			c-0.835,4.737,2.351,11.499,6.684,14.185c3.414,2.116,5.212,5.094,5.066,8.383c-0.177,3.954-3.213,7.977-7.742,10.249
			c-4.663,2.341-9.682,2.228-13.427-0.308l2.411-3.563c2.437,1.65,5.834,1.66,9.085,0.026c3.114-1.561,5.27-4.212,5.376-6.599
			c0.077-1.713-0.944-3.239-3.036-4.536c-5.829-3.614-9.791-12.124-8.653-18.587C47.524,45.772,48.854,43.56,50.904,41.995z"/>
		<path fill="#00A038" d="M116.799,186.581l-3.002-3.08c4.416-4.304,6.367-8.065,5.801-11.178c-0.575-3.159-3.797-6.042-9.578-8.573
			c-14.474-6.337-12.795-26.585-12.716-27.446l4.284,0.389c-0.016,0.179-1.467,18.026,10.157,23.116
			c7.172,3.139,11.238,7.09,12.084,11.743C124.669,176.158,122.303,181.217,116.799,186.581z"/>
		<path fill="#00A038" d="M24.973,31.692l-0.097,4.3c-6.165-0.14-10.217,1.1-12.043,3.683c-1.853,2.622-1.656,6.941,0.584,12.841
			C19.025,67.288,3.391,80.264,2.722,80.81L0,77.479c0.139-0.114,13.898-11.572,9.395-23.436c-2.78-7.318-2.805-12.988-0.075-16.85
			C12.021,33.369,17.289,31.516,24.973,31.692z"/>
		<path fill="#00759C" d="M69.969,146.061c-2.916,0.386-14.068,13.383-14.322,15.399c0.725,2.719,3.149,4.111,5.494,1.186l0,0
			C62.434,161.45,76.617,148.257,69.969,146.061z"/>
		<path fill="#00759C" d="M77.186,143.015c-2.518,1.519-7.544,17.892-6.971,19.841c1.752,2.202,4.53,2.509,5.51-1.109l0,0
			C76.432,160.133,84.158,142.37,77.186,143.015z"/>
		<path fill="#00759C" d="M84.854,151.001c-1.415,2.578,2.459,19.261,3.934,20.658c2.62,1.025,5.177-0.105,4.208-3.726l0,0
			C92.797,166.183,90.56,146.942,84.854,151.001z"/>
		<g>
			<path fill="#00A038" d="M86.014,39.741C78.273,84.145,71.983,98.44,55.16,140.258l0.106,0.43
				c8.814,8.981,29.93,14.566,40.336,15.192c1.083,0.066,3.792-10.098,4.805-12.692c15.699-40.231,26.322-82.436,31.565-125.302
				L86.014,39.741z"/>
		</g>
		<g>
			<path fill="#8CD000" d="M110.6,114.587c-0.823-0.608-20.13-7.96-20.644-8.128c-4.442-1.445-18.037-5.262-20.354-5.421
				c-0.043-0.003-0.085-0.004-0.126-0.007c-2.677,8.144-5.519,16.232-8.518,24.261c1.091,0.834,36.388,13.466,38.434,13.654
				c0.925,0.159,1.778,0.222,2.568,0.202C105.049,131.037,107.926,122.846,110.6,114.587z"/>
		</g>
		<g>
			<path fill="#0EB800" d="M117.943,89.833c2.323-8.619,4.419-17.299,6.294-26.025c-0.356-0.169-17.899-7.5-41.072-10.564
				c-1.039,0.862-4.161,16.271-6.478,24.342C77.871,78.477,117.351,89.839,117.943,89.833z"/>
		</g>
		<path fill="#00759C" d="M162.778,156.231c-2.192,1.963-4.076,18.983-3.151,20.793c2.13,1.838,4.919,1.621,5.207-2.117l0,0
			C165.229,173.19,169.507,154.298,162.778,156.231z"/>
		<path fill="#00759C" d="M174.754,151.244c-1.545,2.504,1.483,19.359,2.884,20.832c2.565,1.154,5.177,0.156,4.391-3.51l0,0
			C181.92,166.808,180.658,147.48,174.754,151.244z"/>
		<path fill="#00759C" d="M180.457,150.053c-0.395,2.916,9.213,17.091,11.091,17.868c2.813,0.017,4.795-1.958,2.589-4.989l0,0
			C193.324,161.369,184.325,144.217,180.457,150.053z"/>
		<g>
			<path fill="#00A038" d="M121.79,25.56c13.442,43.024,22.357,87.46,26.54,132.341l0.291,0.334
				c11.948,3.952,33.277-0.75,42.817-4.954c0.992-0.437-1.25-10.715-1.537-13.485c-4.456-42.955-14.329-85.342-29.288-125.853
				C158.265,7.586,120.584,21.701,121.79,25.56z"/>
		</g>
		<g>
			<path fill="#0EB800" d="M185.873,109.701c-1.011-0.163-10.335,0.814-17.302,1.957l13.912-2.118
				c-1.798-0.063-37.131,5.962-39.263,6.879c-0.04,0.017-0.076,0.034-0.116,0.052c1.348,8.465,2.523,16.957,3.531,25.47
				c1.352,0.242,20.981-0.892,42.797-6.448C188.467,126.866,187.275,118.267,185.873,109.701z"/>
		</g>
		<g>
			<path fill="#8CD000" d="M181.073,84.33c-1.88-8.726-3.989-17.402-6.316-26.021c-0.393,0.013-6.144,0.75-18.031,2.813
				c-11.888,2.063-22.941,6.363-23.322,6.594c1.954,8.165,3.748,16.371,5.382,24.607C140.246,92.576,180.548,84.607,181.073,84.33z"
				/>
		</g>
		<path fill="#0EB800" d="M59.87,30.746c-8.219,6.868-20.496-2.585-16.503-12.305c-3.63-1.682-6.409-4.471-8.275-7.791
			c-0.409,4.229-0.828,9.377-1.075,12.439c-0.562,6.958-0.13,23.169,0.109,23.921c8.65,0.698,17.32,1.174,25.996,1.437
			c0.114-0.311,0.37-4.708,0.647-10.587C59.772,35.929,59.36,33.543,59.87,30.746z"/>
		<g>
			<path fill="#0EB800" d="M162.677,22.459c-0.384-4.656-2.985-21.2-3.047-21.361c-8.543,1.011-17.104,1.85-25.679,2.516
				c-0.247,1.184,2.651,41.04,2.794,41.467c8.983-1.064,17.937-2.367,26.851-3.901C163.788,39.422,163.621,30.86,162.677,22.459z"/>
		</g>
		<path fill="#8CD000" d="M112.116,29.066c-0.066-4.67-0.598-23.672-0.753-24.091c-1.484,0.063-2.968,0.115-4.452,0.167
			c-1.866,6.288-6.544,11.66-13.766,13.286c4.769,6.828-0.671,15.792-7.883,16.427c0.195,6.551,0.566,13.351,0.68,13.73
			c8.924-0.176,17.844-0.586,26.748-1.223c0.063-0.389,0.162-1.206,0.162-1.206C113.177,44.389,112.125,29.607,112.116,29.066z"/>
	</g>
</g>
<g id="Layer_1">
</g>
</svg>
