<?xml version="1.0" encoding="utf-8"?>
<!-- Generator: Adobe Illustrator 26.1.0, SVG Export Plug-In . SVG Version: 6.00 Build 0)  -->
<svg version="1.1" xmlns="http://www.w3.org/2000/svg" xmlns:xlink="http://www.w3.org/1999/xlink" x="0px" y="0px"
	 viewBox="0 0 302.354 306.934" enable-background="new 0 0 302.354 306.934" xml:space="preserve">
<g id="scarf_x5F_blue">
	<path fill="#FFA600" d="M74.689,260.584c1.288-6.219,10.188-21.008-1.829-19.9c-4.216,2.301-13.095,31.134-12.017,34.201
		c3.019,3.794,7.811,4.326,9.498-1.915l0,0C71.561,270.191,74.019,262.449,74.689,260.584z"/>
	<path fill="#FFA600" d="M87.157,268.951c1.288-6.219,10.188-21.008-1.829-19.9c-4.216,2.301-13.095,31.134-12.017,34.201
		c3.019,3.794,7.811,4.326,9.498-1.915l0,0C84.029,278.557,86.487,270.816,87.157,268.951z"/>
	<path fill="#FFA600" d="M101.117,273.673c1.288-6.219,10.188-21.008-1.829-19.9c-4.216,2.301-13.095,31.134-12.017,34.201
		c3.019,3.794,7.811,4.326,9.498-1.915l0,0C97.989,283.28,100.447,275.538,101.117,273.673z"/>
	<path fill="#FFA600" d="M115.365,278.493c1.288-6.219,10.188-21.008-1.829-19.9c-4.216,2.301-13.095,31.134-12.017,34.201
		c3.019,3.794,7.811,4.326,9.498-1.915l0,0C112.237,288.1,114.695,280.358,115.365,278.493z"/>
	<path fill="#FFA600" d="M129.654,279.178c1.288-6.219,10.188-21.008-1.829-19.9c-4.216,2.301-13.095,31.134-12.017,34.201
		c3.019,3.794,7.811,4.326,9.498-1.915l0,0C126.526,288.785,128.984,281.043,129.654,279.178z"/>
	<path fill="#00769F" d="M130.688,18.008c-13.345,76.544-34.743,151.683-63.742,223.768l0.183,0.74
		c15.194,15.483,51.593,25.108,69.531,26.19c1.866,0.112,6.538-17.407,8.283-21.879c27.062-69.349,45.374-142.104,54.412-215.994
		L130.688,18.008z"/>
	<path fill="#005F8D" d="M162.515,197.526c-1.42-1.047-34.7-13.722-35.585-14.01c-7.657-2.49-31.094-9.071-35.086-9.345
		c-0.074-0.005-0.145-0.007-0.218-0.011c-4.614,14.037-9.512,27.981-14.683,41.822c1.88,1.439,62.725,23.213,66.254,23.536
		c1.594,0.274,3.065,0.383,4.427,0.349C152.944,225.881,157.906,211.76,162.515,197.526z"/>
	<path fill="#00A079" d="M140.88,144.491c20.087,5.454,33.272,10.374,34.294,10.364c4.004-14.857,7.618-29.818,10.851-44.862
		c-0.612-0.291-30.856-12.929-70.801-18.209c-1.791,1.487-7.173,28.047-11.167,41.959
		C106.096,135.278,135.534,143.04,140.88,144.491z"/>
	<path fill="#FFA600" d="M243.047,285.366c-1.701-6.119-0.557-23.341-10.735-16.856c-2.695,3.976,2.608,33.675,4.97,35.908
		c4.421,1.991,8.924,0.271,7.568-6.05l0,0C244.663,295.339,243.305,287.33,243.047,285.366z"/>
	<path fill="#FFA600" d="M257.962,287.097c-1.701-6.119-0.557-23.341-10.735-16.856c-2.695,3.976,2.608,33.675,4.97,35.908
		c4.421,1.991,8.924,0.271,7.568-6.05l0,0C259.578,297.07,258.22,289.062,257.962,287.097z"/>
	<path fill="#FFA600" d="M272.536,284.906c-1.701-6.119-0.557-23.341-10.735-16.856c-2.695,3.976,2.608,33.675,4.97,35.908
		c4.421,1.991,8.924,0.271,7.568-6.05l0,0C274.151,294.879,272.794,286.871,272.536,284.906z"/>
	<path fill="#FFA600" d="M287.287,277.57c-1.701-6.119-0.557-23.341-10.735-16.856c-2.695,3.976,2.608,33.675,4.97,35.908
		c4.421,1.991,8.924,0.271,7.568-6.05l0,0C288.903,287.543,287.545,279.534,287.287,277.57z"/>
	<path fill="#FFA600" d="M300.305,271.638c-1.701-6.119-0.557-23.341-10.735-16.856c-2.695,3.976,2.608,33.675,4.97,35.908
		c4.421,1.991,8.924,0.271,7.568-6.05l0,0C301.921,281.611,300.563,273.603,300.305,271.638z"/>
	<path fill="#00769F" d="M181.805,44.06c23.171,74.164,38.538,150.764,45.749,228.128l0.501,0.575
		c20.595,6.812,57.364-1.291,73.808-8.54c1.71-0.754-2.155-18.469-2.65-23.244c-7.682-74.044-24.702-147.113-50.487-216.945
		L181.805,44.06z"/>
	<path fill="#00A079" d="M292.27,189.101c-1.742-0.281-17.815,1.404-29.824,3.374c0,0-40.025,6.625-43.7,8.208
		c-0.068,0.029-0.132,0.06-0.199,0.09c2.323,14.592,4.35,29.231,6.089,43.905c2.33,0.419,36.168-1.538,73.774-11.116
		C296.74,218.692,294.688,203.867,292.27,189.101z"/>
	<path fill="#005F8D" d="M283.994,145.369c-3.24-15.042-6.875-29.998-10.887-44.853c-0.678,0.021-10.591,1.292-31.081,4.849
		s-39.544,10.968-40.202,11.368c3.369,14.077,6.46,28.22,9.277,42.417C213.617,159.58,283.091,145.845,283.994,145.369z"/>
	<path fill="#00769F" d="M277.179,5.756c-2.18-6.011-10.477-6.233-16.817-5.408C177.052,11.181,92.511,12.517,8.901,4.325
		C7.665,4.204-1.78,16.735,0.297,45.007c1.186,16.134,6.721,29.303,9.877,31.61c3.876,2.832,8.911,3.392,13.693,3.818
		c84.115,7.509,169.296,2.981,252.143-13.392c2.983-0.59,5.21-3.107,5.429-6.139C283.099,37.924,277.826,7.541,277.179,5.756z"/>
	<path fill="#00A079" d="M75.502,83.514c0.609-1.656,3.542-70.472,2.691-74.382c-0.016-0.073-0.034-0.141-0.05-0.213
		C63.376,8.409,48.619,7.599,33.884,6.5c-0.857,2.207-2.609,23.704-3.384,33.303c-0.969,11.995-0.226,39.937,0.188,41.235
		C45.601,82.243,60.546,83.063,75.502,83.514z"/>
	<path fill="#00A079" d="M252.286,38.715c-0.664-8.024-5.147-36.544-5.251-36.822c-14.725,1.742-29.484,3.189-44.267,4.339
		c-0.425,2.041,4.571,70.745,4.817,71.479c15.484-1.835,30.92-4.08,46.286-6.725C254.2,67.957,253.91,53.195,252.286,38.715z"/>
	<path fill="#005F8D" d="M118.65,45.007c-0.221,12.032,1.064,37.768,1.359,38.747c15.384-0.304,30.76-1.012,46.107-2.109
		c0.109-0.669,0.278-2.078,0.278-2.078c0.561-3.05-1.254-28.532-1.267-29.463c-0.115-8.051-1.031-40.805-1.298-41.528
		c-14.46,0.614-28.933,0.944-43.407,0.994C119.518,11.957,118.72,41.194,118.65,45.007z"/>
</g>
<g id="Layer_1">
</g>
</svg>
