<?xml version="1.0" encoding="utf-8"?>
<!-- Generator: Adobe Illustrator 25.0.0, SVG Export Plug-In . SVG Version: 6.00 Build 0)  -->
<svg version="1.1" xmlns="http://www.w3.org/2000/svg" xmlns:xlink="http://www.w3.org/1999/xlink" x="0px" y="0px"
	 viewBox="0 0 272.582 179.991" enable-background="new 0 0 272.582 179.991" xml:space="preserve">
<g id="shirt_x5F_red">
	<g id="recycle_x5F_new_x5F_clothes_x5F_t_x5F_shirt_2_">
		<path fill="#FF8000" d="M0,23.455c0,2.597,15.893,44.982,22.162,57.339c0.904,1.781,23.673-7.063,31.56-13.081
			c1.598-11.548,6.116-61.065,6.091-63.937C58.525,4.114,0,19.893,0,23.455z"/>
		<path fill="#FF8000" d="M272.582,21.529c0,2.597-15.893,44.982-22.162,57.339c-0.904,1.781-23.673-7.063-31.56-13.081
			c-1.598-11.548-6.116-61.065-6.091-63.937C214.057,2.188,272.582,17.967,272.582,21.529z"/>
		<path fill="#EB4238" d="M229.994,174.759c-0.325-3.383-13.966-172.932-13.966-172.932l-23.832,0.259L136.05,29.975L83.797,2.299
			L57.278,4.074c0,0-16.36,116.032-16.375,116.312c-2.326,45.774-2.342,53.115-2.326,55.364c0.01,1.272,69.448,4.47,95.466,4.228
			C148.944,179.838,230.118,176.043,229.994,174.759z"/>
		<path fill="#FDA519" d="M83.625,0.679l52.425,29.296c0,0-19.568,27.753-46.764,13.993C74.797,36.637,72.56,14.643,75.015,4.597
			C75.942,0.808,80.163-1.118,83.625,0.679z"/>
		<path fill="#FDA519" d="M190.274,2.069L136.05,29.976c0,0,19.568,27.753,46.764,13.993c14.464-7.318,17.762-28.036,15.705-37.883
			C197.743,2.372,193.676,0.388,190.274,2.069z"/>
		<path fill="#FDA519" d="M89.954,123.877c13.596-5.868,31.269-1.771,36.209,14.312c8.208,26.72-21.369,41.695-40.216,28.767
			C71.921,155.84,75.356,130.604,89.954,123.877z"/>
		<path fill="#FFE400" d="M179.439,165.689c-11.942,8.756-30.083,8.71-38.491-5.863c-13.968-24.212,11.516-45.415,32.775-37.022
			C189.877,130.506,192.166,155.872,179.439,165.689z"/>
		<path fill="#FFE400" d="M61.639,163.693c12.727-9.817,10.439-35.183-5.715-42.885c-4.928-1.945-10.082-2.298-14.92-1.395
			c-0.065,0.61-0.1,0.955-0.101,0.971c-1.442,28.375-1.996,41.979-2.205,48.759C46.435,170.706,54.996,168.565,61.639,163.693z"/>
		<path fill="#FDA519" d="M225.296,116.786c-5.983-1.286-12.53-0.604-18.336,1.902c-14.598,6.727-18.033,31.963-4.007,43.078
			c8.032,5.51,18.01,5.949,26.185,2.574C228.284,153.826,226.878,136.407,225.296,116.786z"/>
	</g>
</g>
<g id="Layer_1">
</g>
</svg>
