<?xml version="1.0" encoding="utf-8"?>
<!-- Generator: Adobe Illustrator 25.0.0, SVG Export Plug-In . SVG Version: 6.00 Build 0)  -->
<svg version="1.1" xmlns="http://www.w3.org/2000/svg" xmlns:xlink="http://www.w3.org/1999/xlink" x="0px" y="0px"
	 viewBox="0 0 272.582 181.49" enable-background="new 0 0 272.582 181.49" xml:space="preserve">
<g id="shirt_x5F_broken_x5F_red">
	<g>
		<path fill="#C30D26" d="M0,23.455c0,2.597,15.893,44.982,22.162,57.339c0.904,1.781,23.673-7.063,31.56-13.081
			c1.598-11.548,6.116-61.065,6.091-63.937C58.525,4.114,0,19.893,0,23.455z"/>
		<path fill="#C30D26" d="M272.582,21.529l-5.686,16.911l-17.46,2.035l7.763,14.543l-11.978,8.207l5.198,15.643
			c-0.904,1.781-23.673-7.063-31.56-13.081c-1.598-11.548-6.116-61.065-6.091-63.937C214.057,2.188,272.582,21.529,272.582,21.529z"
			/>
		<path fill="#FF4035" d="M223.195,100.079l-7.166-98.252l-23.832,0.259L136.05,29.975L83.798,2.299L57.279,4.074L44.703,93.322
			l2.879,30.913l51.592,41.884l17.743,13.698l17.125,0.159l77.547-53.788L223.195,100.079z"/>
		<path fill="#FFA600" d="M83.625,0.679l52.425,29.296c0,0-19.568,27.753-46.764,13.993C74.797,36.637,72.56,14.643,75.015,4.597
			C75.942,0.808,80.163-1.118,83.625,0.679z"/>
		<path fill="#FFA600" d="M190.274,2.069L136.05,29.976c0,0,19.568,27.753,46.764,13.993c14.464-7.318,17.762-28.036,15.705-37.883
			C197.743,2.372,193.676,0.388,190.274,2.069z"/>
		<path fill="#C30D26" d="M83.17,60.757l-35.538-3.169c0,0,10.491,4.027,11.446,4.267s26.157,7.644,26.157,7.644L83.17,60.757z"/>
		<path fill="#C30D26" d="M94.864,85.633l-38.808-27.37c0,0-9.228-1.244-8.424-0.675c0.803,0.569,41.897,39.174,41.897,39.174
			L94.864,85.633z"/>
		<path fill="#C30D26" d="M180.484,164.501l24.747,2.26l3.49-27.886l18.196,2.086l-9.217-25.328l5.495-15.554l-17.599-2.307
			l5.994,28.415l-17.547-10.555v20h-26.48l0.84,19.259h-21.999l2.784,10.143l-14.781,4.612l-0.364,10.329l36.97-2.01
			L180.484,164.501z"/>
		<polygon fill="#C30D26" points="44.703,93.322 49.843,112.905 65.17,103.113 71.223,130.232 86.717,118.941 93.888,155.728 
			114.04,144.294 116.918,179.816 100.068,167.856 78.826,181.49 65.396,152.494 54.259,164.412 49.621,142.227 40.735,145.291 		
			"/>
		<path fill="#EB4238" d="M263.754,116.646l-4.049-0.084c0.12-5.806-1.053-9.618-3.49-11.334c-2.472-1.742-6.54-1.547-12.09,0.572
			c-13.905,5.303-26.148-9.392-26.662-10.021l3.132-2.568c0.109,0.132,10.921,13.069,22.085,8.804
			c6.89-2.629,12.225-2.667,15.867-0.1C262.152,104.455,263.905,109.411,263.754,116.646z"/>
		<path fill="#EB4238" d="M52.862,90.245l-2.691,3.027c-4.34-3.858-8.003-5.439-10.889-4.698c-2.929,0.751-5.42,3.973-7.408,9.572
			c-4.985,14.022-24.111,13.805-24.923,13.788l0.078-4.05c0.172,0.003,17.031,0.168,21.028-11.095
			c2.469-6.948,5.902-11.033,10.218-12.139C42.546,83.554,47.455,85.436,52.862,90.245z"/>
	</g>
</g>
<g id="Layer_1">
</g>
</svg>
