<?xml version="1.0" encoding="utf-8"?>
<!-- Generator: Adobe Illustrator 25.0.0, SVG Export Plug-In . SVG Version: 6.00 Build 0)  -->
<svg version="1.1" xmlns="http://www.w3.org/2000/svg" xmlns:xlink="http://www.w3.org/1999/xlink" x="0px" y="0px"
	 viewBox="0 0 170.156 100.677" enable-background="new 0 0 170.156 100.677" xml:space="preserve">
<g id="shorts_x5F_blue">
	<g id="recycle_x5F_new_x5F_clothes_x5F_shorts">
		<g>
			<path fill="#3F749A" d="M169.965,56.529c-0.598-9.766-1.116-38.731-3.074-48.286H3.264C1.306,17.798,0.788,44.46,0.19,54.226
				C-0.43,64.352,0.578,92.92,1.589,94.377c1.248,1.799,11.6,6.247,59.374,5.871c6.892-0.054,18.942,0.512,21.169-6.548
				c0.626-1.983,0.749-15.395,0.768-20.352c0.956-0.331,4.183,0.206,5.173,0c0.02,5.349,0.092,18.368,0.717,20.352
				c2.227,7.06,14.725,6.361,21.611,6.653c41.586,1.764,56.917-4.177,58.165-5.976C169.578,92.92,170.586,66.655,169.965,56.529z"/>
		</g>
		<path fill="#275F88" d="M145.411,8.243c0,0-2.636,14.649,5.385,27.77c9.521,15.576,18.834,13.322,18.834,13.322l-0.839-29.246
			L145.411,8.243z"/>
		<path fill="#275F88" d="M76.101,11.847c-0.273,1.496-9.125,70.275-10.96,88.383c6.769-0.083,15.169-0.753,16.991-6.53
			c0.626-1.983,0.749-15.395,0.768-20.352c0.956-0.331,4.183,0.206,5.173,0c0.02,5.349,0.092,18.368,0.717,20.352
			c2.227,7.06,14.725,6.361,21.611,6.653c0.545,0.023,1.066,0.04,1.602,0.06c-2.944-17.897-14.365-87.562-13.91-88.54
			C97.286,12.1,76.101,11.847,76.101,11.847z"/>
		<path fill="#5AA043" d="M98.105,11.847c-0.006-0.002-0.008,0.018-0.012,0.027C98.123,11.866,98.132,11.857,98.105,11.847z"/>
		<path fill="#275F88" d="M25.199,8.243c0,0,2.636,14.649-5.385,27.77C10.293,51.589,0.44,49.257,0.44,49.257L1.819,20.09
			L25.199,8.243z"/>
		<polygon fill="#54BDCF" points="1.93,0 169.418,2.329 169.418,21.836 1.051,20.09 		"/>
		<polygon fill="#275F88" points="34.149,0.496 44.27,0.638 44.27,23.198 34.149,23.198 		"/>
		<rect x="126.044" y="2.029" fill="#275F88" width="9.698" height="21.473"/>
		<path fill="#275F88" d="M89.532,16.369c-3.269,1.643-7.771,1.091-9.22-2.804c-2.408-6.471,4.321-11.054,9.667-7.999
			C93.598,8.106,93.035,14.501,89.532,16.369z"/>
	</g>
</g>
<g id="Layer_1">
</g>
</svg>
