<?xml version="1.0" encoding="utf-8"?>
<!-- Generator: Adobe Illustrator 24.2.3, SVG Export Plug-In . SVG Version: 6.00 Build 0)  -->
<svg version="1.1" xmlns="http://www.w3.org/2000/svg" xmlns:xlink="http://www.w3.org/1999/xlink" x="0px" y="0px"
	 viewBox="0 0 342.689 56.098" enable-background="new 0 0 342.689 56.098" xml:space="preserve">
<g id="ski">
	<g>
		<path fill="#A45700" d="M305.212,32.854l27.108-32.285c4.075,2.044,11.9,7.108,10.104,17.647
			c-1.581,9.275-5.746,21.202-18.661,28.079c-23.097,12.299-74.443,9.402-90.657,9.711c-16.214,0.31-214.965-9.266-231.311-11.925
			l-1.71-10.355L305.212,32.854z"/>
		<path fill="#CCA172" d="M179.774,26.893c46.23,2.497,106.383-2.708,120.02-5.691c18.124-3.965,20.526-15.175,25.843-19.829
			c1.981-1.734,4.892-1.819,7.034-0.289c3.12,2.229,7.049,7.029,3.943,16.228c-2.733,8.092-5.703,17.503-19.015,23.576
			c-15.221,6.944-72.21,6.635-88.424,6.944c-15.863,0.303-205.423-8.891-228.656-13.11c-0.533-0.097-0.701-0.77-0.286-1.117
			l14.476-12.116c1.089-0.911,2.458-1.406,3.878-1.403C38.018,20.125,163.134,25.994,179.774,26.893z"/>
	</g>
</g>
<g id="Layer_1">
</g>
</svg>
