<?xml version="1.0" encoding="utf-8"?>
<!-- Generator: Adobe Illustrator 27.0.0, SVG Export Plug-In . SVG Version: 6.00 Build 0)  -->
<svg version="1.1" xmlns="http://www.w3.org/2000/svg" xmlns:xlink="http://www.w3.org/1999/xlink" x="0px" y="0px"
	 viewBox="0 0 236.823 274.376" enable-background="new 0 0 236.823 274.376" xml:space="preserve">
<g id="sock_x5F_white">
	<g id="sock_x5F_white_00000062161807383198993460000013429554215761557928_">
		<g>
			<path fill="#FFFFFF" d="M131.809,0l105.013,7.242c0,0,0.701,175.116-43.635,218.864c-41.21,40.663-179.585,78.586-192.253,12.053
				c-9.352-49.114,53.661-43.287,95.584-68.956C138.811,143.307,131.809,0,131.809,0z"/>
			<path fill="#B2B2B2" d="M37.15,192.067c-23.87,8.239-41.473,18.488-36.217,46.091c5.509,28.931,34.79,38.105,69.512,35.898
				L37.15,192.067z"/>
			<path fill="#B2B2B2" d="M157.578,182.427l12.442,60.755c9.288-5.434,17.236-11.225,23.165-17.076
				c11.65-11.495,20.186-32.064,26.447-56.138L157.578,182.427z"/>
			<path fill="#B2B2B2" d="M236.822,7.242L131.809,0c0,0,0.429,8.804,0.433,22.431l104.119,9.342
				C236.859,16.707,236.822,7.242,236.822,7.242z"/>
			<path fill="#B2B2B2" d="M235.327,54.857l-103.523-8.429c-0.371,9.99-1.023,20.894-2.113,31.98l103.566,5.275
				C234.152,73.493,234.825,63.763,235.327,54.857z"/>
		</g>
	</g>
</g>
<g id="Layer_1">
</g>
</svg>
