<?xml version="1.0" encoding="utf-8"?>
<!-- Generator: Adobe Illustrator 25.0.0, SVG Export Plug-In . SVG Version: 6.00 Build 0)  -->
<svg version="1.1" xmlns="http://www.w3.org/2000/svg" xmlns:xlink="http://www.w3.org/1999/xlink" x="0px" y="0px"
	 viewBox="0 0 188.884 88.631" enable-background="new 0 0 188.884 88.631" xml:space="preserve">
<g id="sunglasses_x5F_round_x5F_white">
	<g id="XMLID_70_">
		<polygon fill="#FFFFFF" points="104.088,41.046 85.444,41.157 85.49,50.014 104.292,49.27 		"/>
	</g>
	<circle id="XMLID_69_" fill="#4A4A49" cx="44.188" cy="44.443" r="42.325"/>
	<circle id="XMLID_68_" fill="#4A4A49" cx="144.664" cy="44.22" r="42.292"/>
	
		<rect x="30.09" y="6.737" transform="matrix(0.9501 -0.312 0.312 0.9501 -12.7035 13.9617)" fill="#6B6E6D" width="14.367" height="79.875"/>
	
		<rect x="43.865" y="3.038" transform="matrix(0.9501 -0.312 0.312 0.9501 -10.9866 17.2918)" fill="#B2B2B2" width="9.345" height="79.875"/>
	
		<rect x="133.063" y="5.74" transform="matrix(0.9501 -0.312 0.312 0.9501 -7.2504 46.0447)" fill="#6B6E6D" width="14.367" height="79.875"/>
	
		<rect x="146.838" y="2.04" transform="matrix(0.9501 -0.312 0.312 0.9501 -5.5335 49.3748)" fill="#B2B2B2" width="9.345" height="79.875"/>
	<path id="XMLID_65_" fill="#FFFFFF" d="M44.739,0.235C20.33-0.063,0.302,19.483,0.003,43.891
		C-0.295,68.3,19.251,88.329,43.659,88.627c24.409,0.298,44.438-19.247,44.736-43.656C88.693,20.562,69.148,0.534,44.739,0.235z
		 M43.74,82.029C22.975,81.775,6.348,64.737,6.602,43.972C6.855,23.207,23.894,6.58,44.659,6.834
		c20.765,0.254,37.392,17.292,37.138,38.057C81.543,65.655,64.505,82.283,43.74,82.029z"/>
	<path id="XMLID_62_" fill="#FFFFFF" d="M145.225,0.003c-24.409-0.298-44.438,19.247-44.736,43.656
		c-0.298,24.409,19.247,44.438,43.656,44.736c24.409,0.298,44.438-19.247,44.736-43.656C189.179,20.33,169.634,0.302,145.225,0.003z
		 M144.226,81.797c-20.765-0.254-37.392-17.292-37.138-38.057c0.254-20.765,17.292-37.392,38.057-37.138
		c20.765,0.254,37.392,17.292,37.138,38.057C182.029,65.423,164.99,82.051,144.226,81.797z"/>
</g>
<g id="Layer_1">
</g>
</svg>
