<?xml version="1.0" encoding="utf-8"?>
<!-- Generator: Adobe Illustrator 26.0.3, SVG Export Plug-In . SVG Version: 6.00 Build 0)  -->
<svg version="1.1" xmlns="http://www.w3.org/2000/svg" xmlns:xlink="http://www.w3.org/1999/xlink" x="0px" y="0px"
	 viewBox="0 0 835.958 386.96" enable-background="new 0 0 835.958 386.96" xml:space="preserve">
<g id="sunglasses_x5F_pink">
	<g id="trophy_x5F_props_x5F_sunglasses_x5F_red_00000046328199754543464930000006365929097603168653_">
		<g>
			<g opacity="0.5">
				<circle fill="#CB443B" cx="193.482" cy="193.479" r="183.098"/>
			</g>
			<g opacity="0.5">
				<circle fill="#CB443B" cx="642.476" cy="195.706" r="183.098"/>
			</g>
			<path fill="#C2006A" d="M642.476,0c-90.865,0-167.289,62.967-187.96,147.555h-73.073C360.771,62.967,284.347,0,193.482,0
				C86.797,0,0,86.793,0,193.479S86.797,386.96,193.482,386.96c106.685,0,193.482-86.797,193.482-193.482
				c0-8.524-0.56-16.919-1.634-25.156h65.299c-1.074,8.236-1.634,16.631-1.634,25.156c0,106.685,86.797,193.482,193.482,193.482
				c106.685,0,193.482-86.797,193.482-193.482S749.161,0,642.476,0z M193.482,366.193c-95.234,0-172.714-77.48-172.714-172.714
				S98.247,20.768,193.482,20.768s172.714,77.477,172.714,172.711S288.716,366.193,193.482,366.193z M642.476,366.193
				c-95.234,0-172.714-77.48-172.714-172.714s77.48-172.711,172.714-172.711S815.19,98.244,815.19,193.479
				S737.71,366.193,642.476,366.193z"/>
		</g>
	</g>
</g>
<g id="Layer_1">
</g>
</svg>
