<?xml version="1.0" encoding="utf-8"?>
<!-- Generator: Adobe Illustrator 25.0.0, SVG Export Plug-In . SVG Version: 6.00 Build 0)  -->
<svg version="1.1" xmlns="http://www.w3.org/2000/svg" xmlns:xlink="http://www.w3.org/1999/xlink" x="0px" y="0px"
	 viewBox="0 0 221.303 81.717" enable-background="new 0 0 221.303 81.717" xml:space="preserve">
<g id="sunglasses">
	<g id="prop_x5F_sun_x5F_glasses_x5F_black_1_">
		<g>
			<path fill="#3D3D3C" d="M218.578,12.211c2.794-1.214,4.805-8.425-1.076-9.075C209.616,2.266,24.067-1.081,5.068,0.352
				c-5.298,0.4-8.871,13.875,2.069,14.693C7.8,33.669,14.344,83.991,61.896,81.637c44.214-2.188,48.251-49.731,48.371-65.512
				c1.702-0.049,3.397-0.096,5.088-0.145c0.979,16.177,7.595,65.139,51.904,62.693C217.858,75.879,219.604,29.071,218.578,12.211z"
				/>
			<path id="XMLID_61_" fill="#4B4B4A" d="M102.849,15.408L14.82,16.336c0,0-4.394,59.375,46.671,56.896
				C106.868,71.028,102.849,15.408,102.849,15.408z"/>
			<path id="XMLID_60_" fill="#9E9E9E" d="M39.019,69.283c2.426,1.16,5.092,2.106,8.023,2.786l31.744-56.409l-9.609,0.101
				L39.019,69.283z"/>
			<path id="XMLID_58_" fill="#6B6E6D" d="M28.338,61.448c3.372,3.605,7.568,6.662,12.792,8.769l31.383-54.49l-19.32,0.204
				L28.338,61.448z"/>
			<path id="XMLID_57_" fill="#4B4B4A" d="M212.133,12.323l-87.988,2.416c0,0-4.394,59.375,46.671,56.896
				C216.194,69.432,212.133,12.323,212.133,12.323z"/>
			<path id="XMLID_56_" fill="#9E9E9E" d="M148.344,67.687c2.426,1.16,5.092,2.106,8.023,2.786l32.467-57.51l-10.248,0.282
				L148.344,67.687z"/>
			<path id="XMLID_54_" fill="#6B6E6D" d="M137.664,59.852c3.372,3.605,7.568,6.662,12.792,8.769l31.933-55.48l-19.504,0.537
				L137.664,59.852z"/>
		</g>
	</g>
</g>
<g id="Layer_1">
</g>
</svg>
