<?xml version="1.0" encoding="utf-8"?>
<!-- Generator: Adobe Illustrator 25.0.0, SVG Export Plug-In . SVG Version: 6.00 Build 0)  -->
<svg version="1.1" xmlns="http://www.w3.org/2000/svg" xmlns:xlink="http://www.w3.org/1999/xlink" x="0px" y="0px"
	 viewBox="0 0 341.434 323.715" enable-background="new 0 0 341.434 323.715" xml:space="preserve">
<g id="tarinakone_x5F_helmet">
	<g>
		<g>
			
				<rect x="110.578" y="80.827" transform="matrix(0.0899 -0.996 0.996 0.0899 66.0097 249.6295)" fill="#F7D014" width="118.029" height="15.74"/>
		</g>
		<g>
			<path fill="#F7D014" d="M137.966,148.362L122.285,147l-0.011,0.149c0.037-0.807,0.531-19.893-33.49-31.034
				c-19.556-6.404-31.503-15.878-35.508-28.161l15.01-4.746c2.393,7.086,11.175,13.292,25.396,17.949
				C140.192,116.387,138.079,147.064,137.966,148.362z"/>
		</g>
		<path fill="#F57F15" d="M25.809,208.62l258.649,32.741C309.742,68.379,49.658,20.218,25.809,208.62z"/>
		<path fill="#3F7498" d="M65.669,118.405c-22.884,17.924-40.269,45.098-47.152,82.559l273.31,36.399
			c2.136-23.427-1.341-44.454-8.962-62.766C200.172,134.329,107.638,122.049,65.669,118.405z"/>
		
			<rect x="14.732" y="217.182" transform="matrix(0.9912 0.132 -0.132 0.9912 31.2417 -16.4413)" fill="#54BBCD" width="249.775" height="20.44"/>
		<path fill="#C8F3F7" d="M275.409,199.911c-38.426-1.079-77.585,33.551-58.29,84.516c14.722,38.886,63.623,45.645,86.77,30.486
			L275.409,199.911z"/>
		<path fill="#4B4B4A" d="M329.443,236.318c-23.28-68.888-111.895-26.414-90.089,51.07c10.797,38.363,49.874,43.815,68.854,28.1
			C332.136,295.676,336.807,258.109,329.443,236.318z"/>
		<g>
			<path fill="#F7D014" d="M186.383,173.179c-19.673-7.513-33.147,21.408-12.108,30.891c10.417,4.695,21.233-3.493,22.785-10.937
				C199.016,183.749,192.606,175.556,186.383,173.179z"/>
			<path fill="#FBA319" d="M170.165,175.463c-8.563,6.921-10.105,22.2,4.11,28.607c5.888,2.654,11.901,1.191,16.299-1.926
				L170.165,175.463z"/>
		</g>
		<g>
			<path fill="#F7D014" d="M128.56,165.478c-19.673-7.513-33.147,21.408-12.108,30.891c10.417,4.695,21.233-3.493,22.785-10.937
				C141.194,176.049,134.783,167.855,128.56,165.478z"/>
			<path fill="#FBA319" d="M112.342,167.762c-8.563,6.921-10.105,22.2,4.11,28.607c5.888,2.654,11.901,1.191,16.299-1.926
				L112.342,167.762z"/>
		</g>
		<g>
			<path fill="#F7D014" d="M72.372,157.995c-19.673-7.513-33.147,21.408-12.108,30.891c10.417,4.695,21.233-3.493,22.785-10.937
				C85.005,168.566,78.595,160.372,72.372,157.995z"/>
			<path fill="#FBA319" d="M56.154,160.279c-8.563,6.921-10.105,22.2,4.11,28.607c5.888,2.654,11.901,1.191,16.299-1.926
				L56.154,160.279z"/>
		</g>
		<path fill="#FBA319" d="M155.998,87.525c0,0,102.374,49.635,122.231,177.487l25.953-2.174
			C304.32,188.699,212.036,83.208,155.998,87.525z"/>
		<g>
			<path fill="#F7D014" d="M286.18,116.28c-6.062,11.409-19.462,18.682-39.83,21.619c-14.091,2.032-23.028,6.279-28.684,10.685
				l-17.228-5.117c6.953-8.562,19.835-17.709,43.666-21.146c14.909-2.15,24.652-6.793,28.177-13.426L286.18,116.28z"/>
		</g>
		<path fill="#E94238" d="M308.126,247.549c-14.5-23.492-51.563-4.111-37.21,22.521c7.106,13.185,24.889,13.274,32.434,6.759
			C312.861,268.616,312.712,254.98,308.126,247.549z"/>
		<g>
			<polygon fill="#F7D014" points="0.178,67.209 64.557,93.837 87.772,28.15 			"/>
			
				<ellipse transform="matrix(0.9133 -0.4073 0.4073 0.9133 -15.5093 21.9723)" fill="#FBA319" cx="43.858" cy="47.417" rx="47.954" ry="5.63"/>
		</g>
		<g>
			<polygon fill="#F7D014" points="341.124,109.14 272.659,122.036 263.372,52.989 			"/>
			
				<ellipse transform="matrix(0.5855 -0.8107 0.8107 0.5855 59.8302 278.6736)" fill="#FBA319" cx="302.416" cy="80.832" rx="5.63" ry="47.954"/>
		</g>
		<g>
			<polygon fill="#F7D014" points="129.339,3.048 172.556,57.692 224.858,11.669 			"/>
			
				<ellipse transform="matrix(0.0899 -0.996 0.996 0.0899 154.1586 182.8441)" fill="#FBA319" cx="177.124" cy="7.073" rx="5.63" ry="47.954"/>
		</g>
	</g>
</g>
<g id="Layer_1">
</g>
</svg>
