<?xml version="1.0" encoding="utf-8"?>
<!-- Generator: Adobe Illustrator 27.1.1, SVG Export Plug-In . SVG Version: 6.00 Build 0)  -->
<svg version="1.1" xmlns="http://www.w3.org/2000/svg" xmlns:xlink="http://www.w3.org/1999/xlink" x="0px" y="0px"
	 viewBox="0 0 444.264 850.856" enable-background="new 0 0 444.264 850.856" xml:space="preserve">
<g id="a_x5F_shape_x5F_ladder">
	<path fill="#E7EAEA" d="M224.061,247.358c13.734,18.067,105.929,581.848,97.399,594.328c-9.976,14.595-27.71,8.112-37.16,0.985
		c-10.644-8.025-104.978-576.133-96.937-592.63C193.342,237.775,218.498,240.04,224.061,247.358z"/>
	<path fill="#B2B2B2" d="M345.731,271.453c-10.15,0.988-124.191,6.044-124.636,6.033c-7.063-0.167-12.653-6.028-12.486-13.091
		c0.167-7.063,2.151-10.669,13.091-12.486c8.755-1.455,84.375-7.047,120.022-6.104L345.731,271.453z"/>
	<path fill="#B2B2B2" d="M360.001,366.472c-10.15,0.988-124.191,6.044-124.636,6.033c-7.063-0.167-12.653-6.028-12.486-13.091
		c0.167-7.063,2.151-10.669,13.091-12.486c8.755-1.455,84.375-7.047,120.022-6.104L360.001,366.472z"/>
	<path fill="#B2B2B2" d="M375.307,456.197c-10.15,0.988-124.191,6.044-124.636,6.033c-7.063-0.167-12.653-6.028-12.486-13.091
		c0.167-7.063,2.151-10.669,13.091-12.486c8.755-1.455,84.375-7.047,120.022-6.104L375.307,456.197z"/>
	<path fill="#B2B2B2" d="M388.388,560.178c-10.15,0.988-124.191,6.044-124.636,6.033c-7.063-0.167-12.653-6.028-12.486-13.091
		c0.167-7.063,2.151-10.669,13.091-12.486c8.755-1.455,84.375-7.047,120.022-6.104L388.388,560.178z"/>
	<path fill="#B2B2B2" d="M405.125,649.092c-10.155,0.939-124.219,5.439-124.664,5.426c-7.062-0.201-12.624-6.089-12.423-13.151
		c0.201-7.062,2.203-10.658,13.151-12.423c8.762-1.412,84.408-6.636,120.051-5.52L405.125,649.092z"/>
	<path fill="#B2B2B2" d="M416.778,747.022c-10.125,1.218-124.022,8.861-124.467,8.86c-7.065-0.007-12.787-5.739-12.78-12.804
		c0.007-7.065,1.909-10.715,12.804-12.78c8.719-1.653,84.193-8.96,119.853-8.826L416.778,747.022z"/>
	<path fill="#FFFFFF" d="M351.559,231.516c13.734,18.067,100.647,589.064,92.117,601.544c-9.976,14.595-27.71,8.112-37.16,0.985
		c-10.645-8.025-105.525-584.134-97.483-600.632C315.011,221.147,345.996,224.198,351.559,231.516z"/>
	<path fill="#CAD2D3" d="M324,247.275c3.72-5.905,11.573-6.316,18.047-3.652c4.844,1.993,10.31,9.513,6.38,18.436
		c-3.963,8.999-16.339,8.714-21.292,4.437C320.892,261.105,320.944,252.125,324,247.275z"/>
	<path fill="#CAD2D3" d="M341.698,349.837c3.72-5.905,11.573-6.316,18.047-3.652c4.844,1.993,10.31,9.513,6.38,18.436
		c-3.963,8.999-16.339,8.714-21.292,4.437C338.59,363.667,338.642,354.687,341.698,349.837z"/>
	<path fill="#CAD2D3" d="M353.576,435.78c3.72-5.905,11.573-6.316,18.047-3.652c4.844,1.993,10.31,9.513,6.38,18.436
		c-3.963,8.999-16.339,8.714-21.292,4.437C350.468,449.61,350.52,440.63,353.576,435.78z"/>
	<path fill="#CAD2D3" d="M368.509,539.648c3.72-5.905,11.573-6.316,18.047-3.652c4.844,1.993,10.31,9.513,6.38,18.436
		c-3.963,8.999-16.339,8.714-21.292,4.438C365.401,553.478,365.454,544.498,368.509,539.648z"/>
	<path fill="#CAD2D3" d="M382.404,628.342c3.72-5.905,11.573-6.316,18.047-3.652c4.844,1.993,10.31,9.513,6.38,18.436
		c-3.963,8.999-16.339,8.714-21.292,4.438C379.296,642.172,379.348,633.192,382.404,628.342z"/>
	<path fill="#CAD2D3" d="M423.814,726.063c-3.72-5.905-11.573-6.316-18.047-3.652c-4.844,1.993-10.31,9.513-6.38,18.436
		c3.963,8.999,16.339,8.714,21.292,4.438C426.922,739.893,426.87,730.913,423.814,726.063z"/>
	<g id="Layer_1_00000106127112694613528260000009567849762224939181_">
	</g>
	<g id="Layer_1_00000080173934244899791880000006633212070410438797_">
	</g>
	<path fill="#FFFFFF" d="M104.287,183.097C90.554,201.164-8.007,820.986,0.522,833.466c9.976,14.595,27.71,8.112,37.16,0.985
		c10.645-8.025,111.345-632.174,103.304-648.671C135.008,173.513,109.85,175.778,104.287,183.097z"/>
	<path fill="#CAD2D3" d="M235.288,242.652c-10.15-0.988-124.191-6.044-124.636-6.033c-7.063,0.167-12.653,6.028-12.486,13.091
		c0.167,7.063,2.151,10.669,13.091,12.486c8.755,1.455,84.375,7.047,120.022,6.104L235.288,242.652z"/>
	<path fill="#CAD2D3" d="M221.019,347.07c-10.15-0.988-124.191-6.044-124.636-6.033c-7.063,0.167-12.653,6.028-12.486,13.091
		c0.167,7.063,2.151,10.669,13.091,12.486c8.755,1.455,84.375,7.047,120.022,6.104L221.019,347.07z"/>
	<path fill="#CAD2D3" d="M205.712,436.794c-10.15-0.988-124.191-6.044-124.636-6.033c-7.063,0.167-12.653,6.028-12.486,13.091
		c0.167,7.063,2.151,10.669,13.091,12.486c8.755,1.455,84.375,7.047,120.022,6.104L205.712,436.794z"/>
	<path fill="#CAD2D3" d="M190.779,533.075c-10.15-0.988-124.191-6.044-124.636-6.033c-7.063,0.167-12.653,6.028-12.486,13.091
		c0.167,7.063,2.151,10.669,13.091,12.486c8.755,1.455,84.375,7.047,120.022,6.104L190.779,533.075z"/>
	<path fill="#CAD2D3" d="M178.596,623.854c-10.15-0.988-124.191-6.044-124.636-6.033c-7.063,0.167-12.653,6.028-12.486,13.091
		s2.151,10.669,13.091,12.486c8.755,1.455,84.375,7.047,120.022,6.104L178.596,623.854z"/>
	<path fill="#CAD2D3" d="M164.449,729.174c-10.15-0.988-124.191-6.044-124.636-6.033c-7.063,0.167-12.653,6.028-12.486,13.091
		c0.167,7.063,2.151,10.669,13.091,12.486c8.755,1.455,84.375,7.047,120.022,6.104L164.449,729.174z"/>
	<g id="circle_x5F_2_x5F_white">
	</g>
	<path fill="#FFFFFF" d="M282.334,84.552c-1.566-25.864-7.518-45.417-18.196-59.777C252.086,8.567,234.441,0,213.11,0
		c-0.001,0,0.001,0,0,0c-17.611,0-43.265,6.281-65.454,36.193c-12.447,16.779-22.789,39.603-30.741,67.839
		c-12.991,46.127-24.432,125.012-24.531,126.92l45.586-1.156c0.021-0.421,7.4-72.771,19.136-114.446
		c17.13-60.828,39.911-73.596,56.004-73.596c10.236,0,14.599,4.008,17.516,7.928c10.743,14.438,7.261,52.179,0.859,96.949
		c-2.536,17.731-117.276,682.981-108.747,695.46c9.976,14.595,27.71,8.112,37.16,0.985c9.34-7.042,112.942-653.032,118.816-693.782
		C282.237,124.857,283.455,103.075,282.334,84.552z"/>
	<path fill="#CAD2D3" d="M229.468,352.271c-3.72-5.905-11.573-6.316-18.047-3.652c-4.844,1.993-10.31,9.513-6.38,18.436
		c3.963,8.999,16.339,8.714,21.292,4.437C232.576,366.101,232.523,357.121,229.468,352.271z"/>
	<path fill="#CAD2D3" d="M217.589,440.188c-3.72-5.905-11.573-6.316-18.047-3.652c-4.844,1.993-10.31,9.513-6.38,18.436
		c3.963,8.999,16.339,8.714,21.292,4.437C220.698,454.019,220.645,445.039,217.589,440.188z"/>
	<path fill="#CAD2D3" d="M202.656,542.082c-3.72-5.905-11.573-6.316-18.047-3.652c-4.844,1.994-10.31,9.513-6.38,18.436
		c3.963,8.999,16.339,8.714,21.292,4.437C205.764,555.912,205.712,546.932,202.656,542.082z"/>
	<path fill="#CAD2D3" d="M188.762,632.545c-3.72-5.905-11.573-6.316-18.047-3.652c-4.844,1.994-10.31,9.513-6.38,18.436
		c3.963,8.999,16.339,8.714,21.292,4.437C191.87,646.375,191.817,637.395,188.762,632.545z"/>
	<path fill="#CAD2D3" d="M167.214,736.375c-3.72-5.905-11.573-6.316-18.047-3.652c-4.844,1.993-10.31,9.513-6.38,18.436
		c3.963,8.999,16.339,8.714,21.292,4.438C170.323,750.205,170.27,741.225,167.214,736.375z"/>
	<path fill="#CAD2D3" d="M247.166,249.709c-3.72-5.905-11.573-6.316-18.047-3.652c-4.844,1.993-10.31,9.513-6.38,18.436
		c3.963,8.999,16.339,8.714,21.292,4.437C250.274,263.539,250.221,254.559,247.166,249.709z"/>
</g>
<g id="Layer_1">
</g>
</svg>
