<?xml version="1.0" encoding="utf-8"?>
<!-- Generator: Adobe Illustrator 27.1.1, SVG Export Plug-In . SVG Version: 6.00 Build 0)  -->
<svg version="1.1" xmlns="http://www.w3.org/2000/svg" xmlns:xlink="http://www.w3.org/1999/xlink" x="0px" y="0px"
	 viewBox="0 0 1548.105 1108.65" enable-background="new 0 0 1548.105 1108.65" xml:space="preserve">
<g id="air_x5F_pipe_x5F_blue">
	<path fill="#00BDD0" d="M1548.105,50.504h-142.917l0,814.484c-2.025,77.533-78.876,100.745-133.333,100.745H42.843
		c-24.238,0-41.875,31.993-41.875,71.458c0,39.465,17.162,71.458,41.875,71.458h1229.011c105.101,0,168.773-21.512,206.697-57.458
		c75.388-71.458,68.553-185.457,68.553-208.052S1548.105,50.504,1548.105,50.504z"/>
	<path fill="#B6F4F8" d="M1271.855,1080.066c160.956,7.866,217.426-85.875,221.553-183.072
		c1.573-37.035,3.272-515.131,4.243-855.202c-16.312-2.444-43.009-1.311-56.363,2.859v834.317
		c-7.349,110.682-75.673,146.847-169.434,143.932H0.805c-2.235,19.314,0.163,45.855,7.432,57.166H1271.855z"/>
	<g>
		<path fill="#82D8E8" d="M1165.018,1108.65h38.463c-5.999-3.311-66.776-52.431-66.587-142.916h-27.934
			C1107.111,1037.596,1148.362,1089.996,1165.018,1108.65z"/>
		<path fill="#82D8E8" d="M995.018,1108.65h38.463c-5.999-3.311-66.776-52.431-66.587-142.916H938.96
			C937.111,1037.596,978.362,1089.996,995.018,1108.65z"/>
		<path fill="#82D8E8" d="M825.018,1108.65h38.463c-5.999-3.311-66.776-52.431-66.587-142.916H768.96
			C767.111,1037.596,808.362,1089.996,825.018,1108.65z"/>
		<path fill="#82D8E8" d="M655.018,1108.65h38.463c-5.999-3.311-66.776-52.431-66.587-142.916H598.96
			C597.111,1037.596,638.362,1089.996,655.018,1108.65z"/>
		<path fill="#82D8E8" d="M485.018,1108.65h38.463c-5.999-3.311-66.776-52.431-66.587-142.916H428.96
			C427.111,1037.596,468.362,1089.996,485.018,1108.65z"/>
		<path fill="#82D8E8" d="M315.018,1108.65h38.463c-5.999-3.311-66.776-52.431-66.587-142.916H258.96
			C257.111,1037.596,298.362,1089.996,315.018,1108.65z"/>
		<path fill="#82D8E8" d="M145.018,1108.65h38.463c-5.999-3.311-66.776-52.431-66.587-142.916H88.96
			C87.111,1037.596,128.362,1089.996,145.018,1108.65z"/>
	</g>
	<g>
		<path fill="#82D8E8" d="M1547.969,122.101V83.638c-3.311,5.999-52.431,66.776-142.916,66.587v27.934
			C1476.916,180.007,1529.316,138.757,1547.969,122.101z"/>
		<path fill="#82D8E8" d="M1547.969,292.101v-38.463c-3.311,5.999-52.431,66.776-142.916,66.587v27.934
			C1476.916,350.007,1529.316,308.757,1547.969,292.101z"/>
		<path fill="#82D8E8" d="M1547.969,462.101v-38.463c-3.311,5.999-52.431,66.776-142.916,66.587v27.934
			C1476.916,520.007,1529.316,478.757,1547.969,462.101z"/>
		<path fill="#82D8E8" d="M1547.969,632.101v-38.463c-3.311,5.999-52.431,66.776-142.916,66.587v27.934
			C1476.916,690.007,1529.316,648.757,1547.969,632.101z"/>
		<path fill="#82D8E8" d="M1547.969,802.101v-38.463c-3.311,5.999-52.431,66.776-142.916,66.587v27.934
			C1476.916,860.007,1529.316,818.757,1547.969,802.101z"/>
	</g>
	<g>
		<path fill="#82D8E8" d="M1316.715,960.579c-10.083,2.374-20.239,3.853-30.002,4.587c-3.114,58.507,22.232,114.445,42.35,141.047
			c11.472-1.048,22.315-2.426,32.559-4.121C1311.831,1042.365,1314.463,979.738,1316.715,960.579z"/>
		<path fill="#82D8E8" d="M1387.623,918.553c-5.977,8.028-13.212,14.842-21.28,20.585c45.021,49.255,114.289,68.988,146.022,69.114
			c5.187-8.897,9.609-18,13.378-27.145C1445.829,978.68,1400.276,933.212,1387.623,918.553z"/>
	</g>
	<ellipse fill="#82D8E8" cx="1476.511" cy="41.819" rx="71.458" ry="41.819"/>
	<ellipse fill="#008292" cx="1476.511" cy="39.819" rx="56.076" ry="32.817"/>
</g>
<g id="Layer_1">
</g>
</svg>
