<?xml version="1.0" encoding="utf-8"?>
<!-- Generator: Adobe Illustrator 24.2.3, SVG Export Plug-In . SVG Version: 6.00 Build 0)  -->
<svg version="1.1" xmlns="http://www.w3.org/2000/svg" xmlns:xlink="http://www.w3.org/1999/xlink" x="0px" y="0px"
	 viewBox="0 0 87.255 200.778" enable-background="new 0 0 87.255 200.778" xml:space="preserve">
<g id="brush_x5F_white">
	<path fill="#FFFFFF" d="M71.875,22.537c-3.817-5.658-5.275-12.239-4.108-18.542c-8.601,4.134-16.035,9.697-21.647,16.199
		c-2.126-4.296-5.088-8.348-8.755-11.979c-0.086,4.39-1.814,8.75-4.924,12.424C28.027,12.509,22.753,3.67,12.349,0
		c1.735,5.696,1.745,11.697,0.029,17.391C8.868,14.918,4.586,13.101,0,12.137C12.137,35.576,7.568,59.45,9.305,78.063
		c0.243,10.435,25.931,2.95,27.314,21.426c1.158,16.494-18.561,97.265,11.399,101.289c29.787-5.675,6.217-85.014,6.623-101.712
		c0.516-18.52,26.527-12.25,26.282-22.685c-0.148-18.569-2.196-41.04,6.333-60.478C81.534,17.12,76.209,19.417,71.875,22.537z"/>
</g>
<g id="Layer_1">
</g>
</svg>
