<?xml version="1.0" encoding="utf-8"?>
<!-- Generator: Adobe Illustrator 27.1.1, SVG Export Plug-In . SVG Version: 6.00 Build 0)  -->
<svg version="1.1" xmlns="http://www.w3.org/2000/svg" xmlns:xlink="http://www.w3.org/1999/xlink" x="0px" y="0px"
	 viewBox="0 0 134.517 636.009" enable-background="new 0 0 134.517 636.009" xml:space="preserve">
<g id="carpenter_x5F_pencil">
	<g>
		<path fill="#FF4035" d="M134.517,599.302l-4.927-475.51l-122.24-0.484L0,601.485c0,0,17.254,30.339,64.473,34.256
			C111.692,639.658,134.517,599.302,134.517,599.302z"/>
		<path fill="#A5152A" d="M105.918,626.765l-0.29-495.239l-14.475-0.057l0.291,501.521
			C96.772,631.378,101.59,629.216,105.918,626.765z"/>
		<path fill="#A5152A" d="M43.623,631.924l3.756-500.179l-14.475-0.057l-3.716,494.654C33.459,628.44,38.261,630.352,43.623,631.924
			z"/>
		<path fill="#E5CEB0" d="M84.926,0.394L54.006,0L7.35,123.676c0,0,64.93,43.915,122.24,0.484
			C129.803,123.998,101.943,41.978,84.926,0.394z"/>
		<path fill="#49494A" d="M97.371,32.553c-4.398-11.814-8.686-22.974-12.445-32.16L54.006,0L42.518,30.45
			C52.718,36.813,77.856,41.898,97.371,32.553z"/>
	</g>
</g>
<g id="Layer_1">
</g>
</svg>
