<?xml version="1.0" encoding="utf-8"?>
<!-- Generator: Adobe Illustrator 26.0.3, SVG Export Plug-In . SVG Version: 6.00 Build 0)  -->
<svg version="1.1" xmlns="http://www.w3.org/2000/svg" xmlns:xlink="http://www.w3.org/1999/xlink" x="0px" y="0px"
	 viewBox="0 0 173.25 173.249" enable-background="new 0 0 173.25 173.249" xml:space="preserve">
<g id="circular_x5F_saw_x5F_white">
	<g>
		<path fill="#FDFDFD" d="M173.25,108.119c0,0-6.422-20.434-17.947-34.458l17.581-9.952c0,0-17.203-16.457-35.091-22.559
			l10.576-18.971c0,0-21.851-4.797-39.997-1.361L108.119,0c0,0-20.435,6.422-34.458,17.947L63.709,0.365
			c0,0-16.457,17.203-22.559,35.09L22.179,24.879c0,0-4.797,21.852-1.361,39.998L0,65.131c0,0,6.422,20.434,17.947,34.458
			L0.366,109.54c0,0,17.203,16.457,35.091,22.559L24.88,151.071c0,0,21.852,4.797,39.997,1.361l0.254,20.818
			c0,0,20.435-6.422,34.458-17.947l9.952,17.581c0,0,16.457-17.203,22.559-35.09l18.971,10.577c0,0,4.797-21.852,1.361-39.998
			L173.25,108.119z"/>
		<circle fill="#CAD2D3" cx="86.625" cy="86.625" r="61.082"/>
	</g>
	<g id="circle_x5F_2_x5F_white_00000049206268123261724220000015947272196295328423_">
		<path opacity="0.75" fill="#7C7E7E" d="M104.922,73.622c-5.731-9.097-17.829-9.731-27.802-5.626
			c-7.462,3.071-15.882,14.656-9.829,28.401c6.105,13.863,25.171,13.424,32.8,6.836C109.71,94.928,109.629,81.094,104.922,73.622z"
			/>
	</g>
	<g>
		<g id="x_x5F_icon_x5F_white_00000015348770218795066000000013131605999422146697_">
			<path opacity="0.5" fill="#4A4A49" d="M99.328,92.765c-1.668-2.165-2.159-2.296-5.88-6.127c2.718-2.727,4.992-5.011,5.154-5.188
				c1.983-1.722,0.222-3.257-1.118-4.632c-1.861-1.956-2.887-2.868-5.002-0.531c-0.186,0.18-2.2,2.19-4.697,4.686
				c-6.309-5.693-5.867-8.945-11.249-2.45c-1.94,2.044,2.866,5.023,5.577,8.121c-5.696,6.314-8.957,5.873-2.458,11.257
				c2.044,1.941,5.03-2.875,8.138-5.593c3.915,3.419,5.608,7.21,8.398,5.35C97.876,96.534,100.396,94.656,99.328,92.765z"/>
		</g>
	</g>
</g>
<g id="Layer_1">
</g>
</svg>
