<?xml version="1.0" encoding="utf-8"?>
<!-- Generator: Adobe Illustrator 24.2.3, SVG Export Plug-In . SVG Version: 6.00 Build 0)  -->
<svg version="1.1" xmlns="http://www.w3.org/2000/svg" xmlns:xlink="http://www.w3.org/1999/xlink" x="0px" y="0px"
	 viewBox="0 0 98.639 335.254" enable-background="new 0 0 98.639 335.254" xml:space="preserve">
<g id="cleaning_x5F_brush">
	<path id="XMLID_47_" fill="#C1A174" d="M85.324,314.913c4.439,2.429,8.877,4.86,13.316,7.289
		c-4.402-18.687-7.902-34.293-14.4-53.322c-2.655-7.776-9.571-18.225-15.345-24.07c-5.774-5.846-14.268-6.718-23.386-5.77
		l-7.314,1.021c-9.979,4.342-17.447,14.245-22.589,23.836c-8.833,16.477-15.877,34.294-15.597,52.986
		c3.111-3.387,6.223-6.774,9.334-10.161c-0.508,5.945,0.098,11.983,1.777,17.708c3.616-4.658,7.232-9.316,10.848-13.974
		c-1.433,6.132-0.802,12.727,1.766,18.477c2.242-5.33,7.524-9.9,11.667-13.934c1.459,8.484,2.954,12.718,7.113,20.255
		c2.261-8.022,3.957-12.345,6.218-20.368c3.342,5.067,7.224,9.778,11.559,14.026c0.629-5.707,1.258-11.414,1.887-17.12
		c3.197,5.19,6.394,10.38,9.592,15.57c0.192-5.315,0.384-10.631,0.576-15.946c4.43,5.492,8.86,10.983,13.29,16.474
		C84.564,323.661,84.456,319.19,85.324,314.913z"/>
	<path opacity="0.3" fill="#E0CAAF" d="M59.057,239.521c-2.202-0.513-4.535-0.762-6.961-0.802l10.376,73.553
		c3.099,5.03,6.198,10.061,9.297,15.091c0.192-5.315,0.384-10.631,0.576-15.946c0.065,0.08,0.13,0.161,0.195,0.242L59.057,239.521z"
		/>
	<path opacity="0.3" fill="#E0CAAF" d="M45.508,239.039l-1.75,0.244l-8.232,76.419c1.421,8.013,2.947,12.229,6.988,19.552
		c2.261-8.022,3.957-12.345,6.218-20.368c0.011,0.015,0.021,0.031,0.031,0.046l1.601-76.207
		C48.773,238.759,47.151,238.869,45.508,239.039z"/>
	<path opacity="0.3" fill="#E0CAAF" d="M83.805,267.689c-12.237-26.339-22.398-27.506-22.398-27.506l24.212,74.893
		c4.34,2.376,8.679,4.751,13.019,7.127C94.237,303.515,91.459,290.693,83.805,267.689z"/>
	<path fill="#BF7900" d="M59.654,235.513c0,0-3.673-0.048-3.563-1.03L58.914,7.572c0.073-4.031-3.135-7.357-7.165-7.431
		c0,0-6.436-1.765-7.431,7.165l-2.824,226.911c0.25,1.292-3.865,0.937-3.865,0.937c-2.187-0.035-3.989,1.708-4.024,3.895
		c-0.035,2.187,1.708,3.989,3.895,4.024l22.024,0.359c2.187,0.035,3.989-1.708,4.024-3.895S61.84,235.549,59.654,235.513z"/>
</g>
<g id="Layer_1">
</g>
</svg>
