<?xml version="1.0" encoding="utf-8"?>
<!-- Generator: Adobe Illustrator 24.2.3, SVG Export Plug-In . SVG Version: 6.00 Build 0)  -->
<svg version="1.1" xmlns="http://www.w3.org/2000/svg" xmlns:xlink="http://www.w3.org/1999/xlink" x="0px" y="0px"
	 viewBox="0 0 116.268 230.72" enable-background="new 0 0 116.268 230.72" xml:space="preserve">
<g id="coil_x5F_spring_x5F_white">
	<path fill="#FFFFFF" d="M7.418,230.72c-8.567-18.211-5.547-36.69,8.499-52.049c-19.205-18.489-23.707-45.113,1.552-61.443
		C-0.123,101.741-2.6,73.17,18.046,58.551C9.835,46.611,4.9,26.969,25.975,0L36.51,8.233c-13.27,17-15.615,31.595-6.9,43.51
		c21.397-10.477,81.747-15.735,86.659,14.096c-2.883,36.196-70.546,20.097-89.086,2.642c-16.593,12.156-11.781,30.415,2.583,41.754
		c113.382-48.244,110.69,74.686-1.093,15.685c-22.518,11.279-16.666,31.731-2.775,43.813c113.125-71.383,115.491,78.783,0.59,17.213
		c-10.895,11.354-13.457,24.471-6.966,38.083L7.418,230.72z M37.385,177.925c20.539,11.163,59.074,19.142,61.104-4.392
		c-0.085-2.535-0.9-5.711-6.501-7.785C79.52,161.126,55.279,166.063,37.385,177.925z M43.679,118.947
		c13.683,7.018,48.818,15.728,56.497,3.844C97.648,106.321,63.78,112.313,43.679,118.947z M40.317,61.637
		c16.073,10.917,55.905,19.343,62.603,4.978C101.998,55.575,53.56,54.688,40.317,61.637z"/>
</g>
<g id="Layer_1">
</g>
</svg>
