<?xml version="1.0" encoding="utf-8"?>
<!-- Generator: Adobe Illustrator 27.1.1, SVG Export Plug-In . SVG Version: 6.00 Build 0)  -->
<svg version="1.1" xmlns="http://www.w3.org/2000/svg" xmlns:xlink="http://www.w3.org/1999/xlink" x="0px" y="0px"
	 viewBox="0 0 462.707 510.826" enable-background="new 0 0 462.707 510.826" xml:space="preserve">
<g id="concrete_x5F_mixer">
	<g>
		<path fill="#31D8E2" d="M287.889,280.635l-37.565,13.304c-10.432,81.585-20.629,175.498-18.913,182.25
			c5.385,16.775,76.927,18.327,77.756-5.417C309.168,457.006,298.364,360.237,287.889,280.635z"/>
		<path fill="#00BDD0" d="M165.576,286.107l-31.206-15.961c-18.48,83.004-39.691,188.12-38.018,195.326
			c4.888,16.678,69.833,18.221,70.586-5.385C166.937,447.082,166.759,361.209,165.576,286.107z"/>
		<path fill="#00BDD0" d="M337.278,243.23l-23.7,18.852c10.597,92.051,27.465,205.231,28.272,221.386
			c2.112,27.544,45.74,21.697,49.53,1.973C392.65,476.509,361.726,341.697,337.278,243.23z"/>
		<path fill="#00BDD0" d="M328.336,49.783C274.939,3.999,205.183-17.539,142.945,17.116C93.645,44.568,65.06,99.1,79.771,200.221
			c14.404,99.014,155.974,137.806,238.699,68.186C397.736,201.697,372.62,87.752,328.336,49.783z"/>
		<path fill-rule="evenodd" clip-rule="evenodd" fill="#00759C" d="M82.384,193.873c-0.709,6.449-2.686,20.196-16.227,21.947
			c-13.542,1.751-40.508,1.284-47.63-0.35c-7.122-1.635-15.76-3.736-17.394-17.278c-1.307-10.829-1.401-49.381-0.701-58.837
			c0.701-9.456,2.918-19.262,16.927-21.13c14.009-1.868,35.057-2.002,43.778-1.518c12.607,0.701,20.313,4.903,21.713,17.862
			C84.252,147.527,84.718,172.627,82.384,193.873"/>
		<path fill="#31D8E2" d="M328.336,49.783C274.939,3.999,205.183-17.539,142.945,17.116C93.645,44.568,65.06,99.1,79.771,200.221
			c14.404,99.014,166.261,88.669,216.659,45.154C359.966,190.515,372.62,87.752,328.336,49.783z"/>
		<path fill="#B6F4F8" d="M237.426,14.103C202.918-4.2,153.612,13.961,118.83,43.083c-26.025,21.79-45.103,71.212-3.411,103.198
			c42.048,32.259,117.93-0.758,140.17-33.583C283.628,71.315,265.77,29.136,237.426,14.103z"/>
		<path fill="#00759C" d="M228.09,25.62c-28.844-15.299-70.057-0.119-99.13,24.223c-21.753,18.213-37.7,59.524-2.851,86.259
			c35.146,26.964,98.573-0.633,117.163-28.071C266.708,73.441,251.781,38.186,228.09,25.62z"/>
		<path opacity="0.47" fill="#00BDD0" d="M251.825,53.63c-4.484-12.431-13.246-22.446-23.735-28.01
			c-28.844-15.299-70.057-0.119-99.13,24.223c-19.185,16.063-33.845,50.088-13.137,76.24
			C121.069,116.704,149.05,46.905,251.825,53.63z"/>
		<path fill="#0EB800" d="M51.722,134.935c-3.608-5.727-11.223-6.125-17.502-3.542c-4.697,1.933-9.998,9.226-6.187,17.879
			c3.843,8.727,15.845,8.45,20.648,4.303C54.737,148.347,54.686,139.639,51.722,134.935z"/>
		<path fill="#FF8000" d="M56.249,177.325c-4.071-6.462-12.664-6.912-19.748-3.996c-5.3,2.181-11.282,10.41-6.982,20.174
			c4.337,9.847,17.879,9.535,23.299,4.856C59.651,192.459,59.593,182.633,56.249,177.325z"/>
		<path fill="#00759C" d="M166.936,421.051c-14.18-22.508-44.113-24.075-68.788-13.92c-18.463,7.598-39.297,36.261-24.319,70.27
			c15.106,34.3,62.277,33.213,81.155,16.914C178.783,473.766,178.583,439.538,166.936,421.051z"/>
		<path fill="#31D8E2" d="M136.979,434.402c-20.075-13.499-44.683,6.232-33.711,28.958c8.85,18.331,36.914,12.966,39.074,0.935
			c5.642-2.079,59.915-20.558,120.222,4.588l10.161-28.227C208.356,417.484,159.501,427.094,136.979,434.402z"/>
		<path fill="#00759C" d="M318.248,426.57c-14.18-22.508-44.113-24.075-68.788-13.92c-18.463,7.598-39.297,36.261-24.319,70.27
			c15.106,34.3,62.277,33.213,81.155,16.914C330.096,479.285,329.895,445.057,318.248,426.57z"/>
		<path fill="#31D8E2" d="M291.959,445.252c-17.209-23.906-50.063,2.794-39.038,23.627
			C267.656,496.722,309.651,469.829,291.959,445.252z"/>
		<path fill="#00759C" d="M405.538,65.328c-48.625-26.203-96.654,3.919-113.049,41.552c-19.961,45.819,2.597,102.601,37.311,139.46
			c25.974,27.579,83.57,41.24,119.066-16.052C484.665,172.506,444.107,86.112,405.538,65.328z M400.565,81.316
			c3.985,2.147,7.995,5.136,11.907,8.81l-46.157,63.882l-43.628-61.491C341.741,74.354,371.02,65.394,400.565,81.316z
			 M306.072,116.047c1.794-4.118,4.045-8.126,6.687-11.938l46.649,64.287l-33.834,50.124
			C303.607,188.479,291.761,148.897,306.072,116.047z M337.278,232.636l31.335-51.555l48.227,60.323
			C388.693,261.973,354.594,251.005,337.278,232.636z M436.782,219.2c-2.806,4.529-5.778,8.525-8.876,12.034l-52.188-61.514
			l47.616-67.263C445.472,132.249,459.463,182.591,436.782,219.2z"/>
	</g>
</g>
<g id="Layer_1">
</g>
</svg>
