<?xml version="1.0" encoding="utf-8"?>
<!-- Generator: Adobe Illustrator 27.1.1, SVG Export Plug-In . SVG Version: 6.00 Build 0)  -->
<svg version="1.1" xmlns="http://www.w3.org/2000/svg" xmlns:xlink="http://www.w3.org/1999/xlink" x="0px" y="0px"
	 viewBox="0 0 135.148 222.836" enable-background="new 0 0 135.148 222.836" xml:space="preserve">
<g id="hook">
	<g>
		<path fill="#7C7E7E" d="M14.614,168.027c0,0,9.594,7.033,16.503,28.29c10.216,31.434,52.651,35.363,69.154,9.43
			c30.312-47.633-30.648-69.94-25.147-107.66H53.907c-10.216,43.221,47.811,79.237,15.717,91.158
			C42.119,199.461,47.62,146.023,14.614,168.027z"/>
		<path fill="#7C7E7E" d="M67.574,0C6.757,0,0,59.012,0,59.012l65.88,20l69.268-20C135.148,59.012,128.39,0,67.574,0z"/>
		<polygon fill="#FFECF4" points="101.28,132.717 33.867,132.717 0,59.012 135.148,59.012 		"/>
		<g>
			<polygon fill="#FF9EC5" points="101.28,132.717 135.148,59.012 108.914,59.012 74.712,132.717 			"/>
			<polygon fill="#FF9EC5" points="26.902,117.558 33.867,132.717 47.103,132.717 81.305,59.012 54.069,59.012 			"/>
			<polygon fill="#FF9EC5" points="13.165,87.664 26.46,59.012 0,59.012 			"/>
		</g>
	</g>
</g>
<g id="Layer_1">
</g>
</svg>
