<?xml version="1.0" encoding="utf-8"?>
<!-- Generator: Adobe Illustrator 27.1.1, SVG Export Plug-In . SVG Version: 6.00 Build 0)  -->
<svg version="1.1" xmlns="http://www.w3.org/2000/svg" xmlns:xlink="http://www.w3.org/1999/xlink" x="0px" y="0px"
	 viewBox="0 0 139.973 143.478" enable-background="new 0 0 139.973 143.478" xml:space="preserve">
<g id="drilling_x5F_machine_x5F_stripes_x5F_2">
	<path fill="#FFFFFF" d="M97.709,81.744L0,68.117c0.062,3.781,0.417,7.669,1.108,11.648l95.716,14.678
		C96.9,90.119,97.2,85.882,97.709,81.744z"/>
	<path fill="#FFFFFF" d="M103.155,57.863L3.378,45.109c-1.345,4.209-2.337,8.664-2.889,13.329l99.068,12.431
		C100.53,66.393,101.738,62.053,103.155,57.863z"/>
	<path fill="#FFFFFF" d="M113.15,35.867L12.743,26.135c-2.259,3.237-4.317,6.781-6.091,10.591l100.686,10.47
		C109.105,43.251,111.052,39.47,113.15,35.867z"/>
	<path fill="#FFFFFF" d="M125.844,18.099l-97.76-7.486c-2.988,2.048-5.941,4.559-8.748,7.477l100.7,7.275
		C121.906,22.822,123.846,20.395,125.844,18.099z"/>
	<path fill="#FFFFFF" d="M97.211,106.667L3.612,90.06c0.596,1.907,1.267,3.83,2.024,5.768c1.196,3.058,2.517,5.83,3.958,8.366
		l89.46,16.101C98.18,115.679,97.572,111.133,97.211,106.667z"/>
	<path fill="#FFFFFF" d="M139.973,4.64c-23.947-2.399-51.167-3.944-60.64-4.371C63.577-0.448,53.649,0.13,42.797,3.713l91.744,5.499
		C136.331,7.59,138.144,6.065,139.973,4.64z"/>
	<path fill="#FFFFFF" d="M18.193,115.348c8.662,8.278,20.028,12.572,34.277,16.179c8.194,1.657,30.513,7.148,53.117,11.951
		c-1.414-3.773-2.649-7.514-3.703-11.215L18.193,115.348z"/>
</g>
<g id="Layer_1">
</g>
</svg>
