<?xml version="1.0" encoding="utf-8"?>
<!-- Generator: Adobe Illustrator 27.1.1, SVG Export Plug-In . SVG Version: 6.00 Build 0)  -->
<svg version="1.1" xmlns="http://www.w3.org/2000/svg" xmlns:xlink="http://www.w3.org/1999/xlink" x="0px" y="0px"
	 viewBox="0 0 134.552 128.55" enable-background="new 0 0 134.552 128.55" xml:space="preserve">
<g id="drilling_x5F_machine_x5F_stripes_x5F_1">
	<g>
		<path fill="#FFFFFF" d="M99.064,116.582l-89.46-16.101c2.494,4.391,5.356,8.054,8.599,11.154l83.691,16.916
			C100.745,124.513,99.81,120.523,99.064,116.582z"/>
		<path fill="#FFFFFF" d="M99.567,67.156L0.499,54.725c-0.371,3.136-0.544,6.366-0.489,9.679l97.709,13.627
			C98.175,74.324,98.797,70.698,99.567,67.156z"/>
		<path fill="#FFFFFF" d="M107.347,43.482L6.662,33.012c-1.242,2.667-2.341,5.467-3.274,8.384l99.777,12.753
			C104.407,50.475,105.809,46.917,107.347,43.482z"/>
		<path fill="#FFFFFF" d="M96.833,90.729L1.118,76.051c0.586,3.37,1.414,6.806,2.504,10.295l93.599,16.607
			C96.886,98.808,96.762,94.731,96.833,90.729z"/>
		<path fill="#FFFFFF" d="M120.046,21.651l-100.7-7.275c-2.32,2.412-4.54,5.101-6.594,8.045l100.407,9.732
			C115.311,28.46,117.617,24.954,120.046,21.651z"/>
		<path fill="#FFFFFF" d="M134.552,5.499L42.807,0c-2.452,0.81-4.951,1.771-7.575,2.907C32.87,3.93,30.472,5.27,28.094,6.9
			l97.76,7.486C128.656,11.166,131.571,8.201,134.552,5.499z"/>
	</g>
</g>
<g id="Layer_1">
</g>
</svg>
