<?xml version="1.0" encoding="utf-8"?>
<!-- Generator: Adobe Illustrator 27.1.1, SVG Export Plug-In . SVG Version: 6.00 Build 0)  -->
<svg version="1.1" xmlns="http://www.w3.org/2000/svg" xmlns:xlink="http://www.w3.org/1999/xlink" x="0px" y="0px"
	 viewBox="0 0 824.328 670.672" enable-background="new 0 0 824.328 670.672" xml:space="preserve">
<g id="drilling_x5F_mahine">
	<path fill="#82D8E8" d="M29.508,60.436c88.637,18.008,341.6,70.185,341.6,70.185l10.906-53.326c0,0-243.306-48.278-340.373-67.819
		C30.4,7.213,0.388,21.354,0.005,28.634C-0.366,35.69,19.021,58.306,29.508,60.436z"/>
	<path fill="#005F8A" d="M32.571,10.002c-0.288,0.061-0.584,0.127-0.881,0.193C20.093,12.861,4.98,20.551,1.006,26.22
		C22.782,32.319,32.485,20.582,32.571,10.002z"/>
	<path fill="#005F8A" d="M0.399,31.002c1.382,4.328,6.194,11.097,11.852,17.073c3.854,3.956,7.88,7.505,11.242,9.644
		C26.249,38.59,16.331,32.403,0.399,31.002z"/>
	<path fill="#005F8A" d="M358.07,27.177c-16.099-5.82-82.557-9.717-98.534-10.438c-19.317-0.879-29.872,0.185-44.111,6.352
		c-21.755,9.421-46.614,45.653-29.586,89.207c8.794,22.494,24.168,29.962,46.834,35.699c16.426,3.321,89.607,22.052,108.071,19.756
		L358.07,27.177z"/>
	<path fill="#005F8A" d="M487.762,523.277c-6.501,20.789-7.203,48.314,2.625,73.453c8.905,22.776,197.933,76.194,216.629,73.869
		c12.308-1.531,71.109-15.066,78.668-21.992c20.001-18.328,23.192-57.909,18.662-88.24L487.762,523.277z"/>
	<path fill="#FF4035" d="M794.995,528.892c-6.48-11.504-15.903-18.863-26.743-22.781c-4.426-1.6-18.042-4.403-35.83-7.657
		c0.901-17.944,0.382-173.689-1.983-237.396l24.61-199.675c-27.204-9.834-323.3-62.404-349.427-61.19
		C326.641,3.86,289.758,192.107,356.6,219.362c11.555,4.712,106.282,35.157,189.699,51.394
		c7.532,60.276,34.739,162.332,41.897,206.367c-20.706,1.251-65.247,9.064-77.857,14.525c-11.014,4.77-20.313,20.015-24.702,39.581
		c-2.365,10.541,194.834,68.594,219.571,65.502c10.641-1.33,100.427-10.641,100.745-20.001
		C806.619,557.13,800.686,538.994,794.995,528.892z"/>
	<path fill="#00759C" d="M808.907,94.084c-16.72-32.975-58.257-35.965-81.14-39.905c-89.099-15.342-117.478,229.724-22.613,246.08
		c19.287,3.325,47.221,5.321,77.815-20.618C832.285,237.83,832.85,141.304,808.907,94.084z"/>
	<path fill="#00759C" d="M351.41,206.075c-32.613-98.24,12.24-180.525,54.212-205.882c-22.714-0.941-46.813,1.37-69.082,11.014
		c-36.762,15.92-78.77,77.146-49.995,150.744c13.428,34.345,41.642,47.938,70.055,57.411
		C354.712,215.197,352.973,210.783,351.41,206.075z"/>
	<path fill="#A5152A" d="M658.931,304.915c-11.186-24.868-88.444-34.665-88.131-13.42c0.333,22.613,30.324,158.917,38.97,188.846
		c5.963,20.64,60.432,32.669,63.183,9.976C676.943,457.395,668.899,327.077,658.931,304.915z"/>
	<path fill="#005F8A" d="M497.342,221.698c5.113,1.197,31.76,0.31,32.571-25.259c1.088-34.326-48.359-39.698-72.816-30.712
		L497.342,221.698z"/>
	<path fill="#00759C" d="M492.912,221.241l-27.751-6.74c-22.162-6.321-27.733-51.877-2.129-48.805c0,0,22.422,4.8,32.722,7.915
		C520.518,181.099,521.203,229.481,492.912,221.241z"/>
	<path fill="#005F8A" d="M673.562,120.083l47.724,9.179c1.226-3.846,2.554-7.597,3.98-11.233l-48.308-7.272
		C675.757,113.787,674.625,116.901,673.562,120.083z"/>
	<path fill="#005F8A" d="M715.623,151.038c0.899-4.365,1.919-8.665,3.053-12.877l-48.381-7.283
		c-0.937,3.439-1.796,6.938-2.577,10.484L715.623,151.038z"/>
	<path fill="#005F8A" d="M710.687,200.33l-48.552-7.309c0,3.585,0.083,7.155,0.249,10.698l48.698,9.427
		C710.83,208.911,710.699,204.632,710.687,200.33z"/>
	<path fill="#005F8A" d="M713.511,234.732c-0.683-4.027-1.239-8.133-1.672-12.299l-48.661-7.733
		c0.342,3.471,0.766,6.904,1.28,10.283L713.511,234.732z"/>
	<path fill="#005F8A" d="M710.872,190.26c0.144-3.641,0.37-7.286,0.677-10.924l-48.495-7.301c-0.282,3.233-0.5,6.472-0.653,9.71
		L710.872,190.26z"/>
	<path fill="#005F8A" d="M712.306,171.772c0.512-4.42,1.141-8.815,1.888-13.162l-48.44-7.292c-0.625,3.578-1.173,7.189-1.638,10.821
		L712.306,171.772z"/>
</g>
<g id="Layer_1">
</g>
</svg>
