<?xml version="1.0" encoding="utf-8"?>
<!-- Generator: Adobe Illustrator 24.2.3, SVG Export Plug-In . SVG Version: 6.00 Build 0)  -->
<svg version="1.1" xmlns="http://www.w3.org/2000/svg" xmlns:xlink="http://www.w3.org/1999/xlink" x="0px" y="0px"
	 viewBox="0 0 64.599 61.93" enable-background="new 0 0 64.599 61.93" xml:space="preserve">
<g id="gear_x5F_basic_x5F_white">
	<g>
		<path fill="#FFFFFF" d="M64.557,28.942c-0.27-1.906-0.562-3.809-0.821-5.717c-0.068-0.506-0.343-0.63-0.791-0.631
			c-1.535-0.003-5.194-0.06-5.49-0.081c-0.584-1.328-1.303-2.583-2.126-3.774c0.9-1.505,1.794-3.012,2.716-4.503
			c0.264-0.429,0.078-0.643-0.202-0.92c-1.282-1.272-2.577-2.533-3.814-3.848c-0.526-0.559-0.917-0.585-1.522-0.121
			c-1.216,0.933-2.469,1.817-3.714,2.713c-1.012-0.786-2.281-1.791-3.445-2.309c0.252-1.595,0.499-3.191,0.773-4.783
			c0.083-0.482,0.027-0.761-0.482-0.965c-1.76-0.705-3.506-1.449-5.246-2.205c-0.441-0.191-0.736-0.125-0.989,0.273
			c-0.417,0.658-2.157,3.381-2.561,4.113c-1.446-0.366-2.907-0.61-4.385-0.71c-0.508-1.625-1.017-3.249-1.514-4.878
			c-0.134-0.44-0.35-0.627-0.841-0.593c-1.925,0.138-3.852,0.256-5.779,0.337c-0.524,0.022-0.66,0.258-0.699,0.71
			c-0.08,0.918-0.482,4.757-0.554,5.762c-1.26,0.457-2.477,1.015-3.653,1.664c-1.378-0.986-2.763-1.962-4.113-2.983
			c-0.613-0.464-1.068-0.516-1.658,0.009C12.42,6.594,11.15,7.638,9.898,8.7C9.04,9.427,9.021,9.555,9.611,10.496
			c0.312,0.496,1.898,3.144,2.403,3.959c-0.873,0.984-1.672,2.021-2.4,3.113c-1.663-0.431-3.328-0.861-4.99-1.298
			c-0.557-0.146-0.902-0.039-1.19,0.542c-0.778,1.572-1.613,3.119-2.485,4.641c-0.362,0.632-0.29,1.005,0.293,1.443
			c1.522,1.145,3.02,2.32,4.522,3.49c-0.308,1.369-0.473,2.758-0.533,4.158c-1.67,0.579-3.308,1.25-4.961,1.875
			c-0.314,0.118-0.283,0.381-0.25,0.635c0.252,1.938,0.535,3.872,0.742,5.814c0.061,0.572,0.319,0.687,0.799,0.701
			c1.228,0.035,4.779,0.176,5.328,0.212c0.595,1.344,1.314,2.63,2.147,3.847c-0.932,1.464-1.861,2.93-2.809,4.384
			c-0.233,0.359-0.179,0.632,0.072,0.891c1.396,1.443,2.802,2.874,4.205,4.31c0.229,0.235,0.463,0.269,0.742,0.069
			c1.359-0.978,2.76-1.896,4.128-2.861c1.091,0.871,2.236,1.68,3.428,2.417c-0.326,1.681-0.65,3.363-0.986,5.043
			c-0.065,0.332,0.004,0.495,0.329,0.639c1.834,0.812,3.66,1.643,5.48,2.487c0.436,0.202,0.633,0.123,0.921-0.302
			c0.978-1.442,1.919-2.909,2.91-4.343c1.048,0.211,2.107,0.375,3.189,0.428c0.19,0.009,0.381-0.006,0.572-0.002
			c0.515,1.589,1.037,3.176,1.528,4.773c0.136,0.441,0.405,0.376,0.706,0.358c1.979-0.12,3.956-0.256,5.936-0.35
			c0.48-0.023,0.574-0.207,0.613-0.653c0.17-1.966,0.375-3.928,0.574-5.891c1.217-0.48,2.399-1.041,3.536-1.682
			c1.407,0.997,2.841,1.958,4.198,3.018c0.692,0.541,1.13,0.431,1.709-0.101c1.043-0.958,2.118-1.884,3.215-2.779
			c1.316-1.073,1.349-1.063,0.489-2.494c-0.716-1.19-1.418-2.389-2.16-3.563c0.905-0.984,1.751-2.032,2.53-3.132
			c1.697,0.418,3.395,0.835,5.09,1.264c0.384,0.097,0.581,0.043,0.781-0.349c0.873-1.713,1.769-3.416,2.714-5.09
			c0.295-0.523,0.17-0.801-0.25-1.112c-1.414-1.049-2.821-2.105-4.229-3.161c0.358-1.267,0.608-2.552,0.737-3.849
			c1.769-0.744,3.535-1.496,5.311-2.222C64.705,29.579,64.601,29.258,64.557,28.942z M45.125,31.969
			c-0.318,9.764-7.062,11.963-11.152,12.53c-11.179,1.55-15.243-6.55-15.696-10.965C17.1,22.06,25.332,18.878,30.171,18.241
			C41.954,16.692,45.287,26.98,45.125,31.969z"/>
	</g>
</g>
<g id="Layer_1">
</g>
</svg>
