<?xml version="1.0" encoding="utf-8"?>
<!-- Generator: Adobe Illustrator 25.0.0, SVG Export Plug-In . SVG Version: 6.00 Build 0)  -->
<svg version="1.1" xmlns="http://www.w3.org/2000/svg" xmlns:xlink="http://www.w3.org/1999/xlink" x="0px" y="0px"
	 viewBox="0 0 178.947 338.396" enable-background="new 0 0 178.947 338.396" xml:space="preserve">
<g id="gear_x5F_spring_x5F_white">
	<path fill="#FFFFFF" d="M40.283,85.708c194.332,120.974,174.591-153.842,1.899-20.831C26.974,53.617,19.824,26.898,25.743,1.902
		L10.931,0C7.304,11.123,2.012,42.279,29.343,76.022c-29.905,30.137-38.301,71.175-2.014,105.943
		c-46.207,37.519-24.371,85.261-3.188,101.756c-13.486,11.724-21.898,28.585-23.385,54.674h14.604
		c0.379-4.207,1.918-31.236,19.536-44.569c187.938,129.955,188.466-151.86-0.301-20.249c-24.119-23.39-28.593-58.708,3.573-81.836
		c34.861,28.207,139.008,52.888,140.243-14.133c1.22-66.212-102.425-38.345-140.153-5.308c-0.167-0.163-20.473-24.52-20.69-40.532
		h0.019C18.734,113.994,27.516,98.428,40.283,85.708z M164.002,72.554c4.94,31.882-56.335,41.862-110.609,2.123
		C76.954,57.492,155.144,15.388,164.002,72.554z M162.568,281.774c1.238,56.622-86.681,26.692-117.096,1.897
		C68.867,264.327,161.452,230.752,162.568,281.774z M163.793,177.993c1.205,48.28-83.983,27.47-114.349,4.077
		C73.199,164.257,162.589,129.751,163.793,177.993z"/>
</g>
<g id="Layer_1">
</g>
</svg>
