<?xml version="1.0" encoding="utf-8"?>
<!-- Generator: Adobe Illustrator 27.1.1, SVG Export Plug-In . SVG Version: 6.00 Build 0)  -->
<svg version="1.1" xmlns="http://www.w3.org/2000/svg" xmlns:xlink="http://www.w3.org/1999/xlink" x="0px" y="0px"
	 viewBox="0 0 298.294 298.294" enable-background="new 0 0 298.294 298.294" xml:space="preserve">
<g id="gear_x5F_tire_x5F_white">
	<path fill="#FFFFFF" d="M298.294,159.001v-19.707h-13.181c-0.285-5.39-0.844-10.712-1.656-15.934l12.305-3.297l-5.101-19.036
		l-11.459,3.07c-1.554-5.366-3.381-10.551-5.452-15.513l9.488-5.478l-9.854-17.067l-8.588,4.958
		c-0.231-0.376-0.458-0.756-0.692-1.128c-2.83-4.492-5.889-8.686-9.148-12.598l6.621-6.621l-13.935-13.935l-6.575,6.575
		c-4.348-3.668-8.926-6.97-13.707-9.908l4.893-8.475l-17.067-9.854l-5.456,9.45c-5.061-2.049-10.269-3.777-15.598-5.177
		l3.134-11.696l-19.036-5.101l-3.524,13.152c-5.175-0.61-10.418-0.954-15.707-1.039V0h-19.707v15.488
		c-5.054,0.509-10.118,1.242-15.173,2.187l-4.058-15.143l-19.036,5.101l3.929,14.665c-4.968,1.471-9.897,3.148-14.77,5.021
		l-7.08-12.263L66.04,24.909l6.343,10.987c-4.462,2.713-8.879,5.848-13.178,9.375l-8.553-8.553L36.717,50.652l8.271,8.271
		c-3.573,3.993-6.98,8.278-10.157,12.846l-9.922-5.729l-9.854,17.067l9.737,5.621c-2.411,4.844-4.566,9.909-6.421,15.176
		l-10.739-2.877l-5.101,19.036l10.683,2.862c-1.021,5.303-1.729,10.765-2.103,16.368H0v19.707h11.216
		c0.41,5.337,1.142,10.779,2.205,16.313l-10.89,2.918l5.101,19.036l10.72-2.872c1.66,5.1,3.623,10.267,5.889,15.489l-9.186,5.304
		l9.854,17.067l8.49-4.901c3.062,4.881,6.388,9.432,9.947,13.661l-6.629,6.629l13.935,13.935l6.583-6.583
		c4.339,3.696,8.899,7.032,13.628,10.039l-4.822,8.352l17.067,9.854l5.166-8.947c5.091,2.23,10.307,4.132,15.607,5.725
		l-2.852,10.645l19.036,5.101l3.043-11.357c5.377,0.858,10.786,1.429,16.188,1.718v12.171h19.707v-12.332
		c5.435-0.381,10.809-1.037,16.081-1.955l3.15,11.755l19.036-5.101l-3.026-11.292c5.314-1.666,10.45-3.61,15.348-5.827l5.598,9.697
		l17.067-9.854l-5.442-9.426c2.861-1.94,5.589-3.991,8.156-6.153c1.624-1.368,3.193-2.763,4.73-4.174l7.945,7.945l13.935-13.935
		l-8.3-8.3c3.515-4.264,6.701-8.661,9.593-13.159l10.516,6.071l9.854-17.067l-10.926-6.308c2.245-4.922,4.184-9.92,5.821-14.969
		l12.528,3.357l5.101-19.036l-12.837-3.44c0.948-5.262,1.608-10.536,1.994-15.791H298.294z"/>
</g>
<g id="Layer_1">
</g>
</svg>
