<?xml version="1.0" encoding="utf-8"?>
<!-- Generator: Adobe Illustrator 24.2.3, SVG Export Plug-In . SVG Version: 6.00 Build 0)  -->
<svg version="1.1" xmlns="http://www.w3.org/2000/svg" xmlns:xlink="http://www.w3.org/1999/xlink" x="0px" y="0px"
	 viewBox="0 0 174.79 167.576" enable-background="new 0 0 174.79 167.576" xml:space="preserve">
<g id="gear_x5F_2_x5F_white">
	<g>
		<g id="Palikka_x5F_mutteri_x5F_vaalea_2_">
			<path fill="#FFFFFF" d="M174.671,77.889c-0.754-5.156-1.571-10.302-2.296-15.461c-0.192-1.369-0.935-1.701-2.149-1.697
				c-4.155,0.013-14.058-0.095-14.859-0.148c-1.598-3.587-3.561-6.973-5.803-10.188c2.417-4.084,4.817-8.176,7.293-12.223
				c0.71-1.164,0.202-1.741-0.557-2.487c-3.487-3.426-7.008-6.822-10.372-10.366c-1.43-1.506-2.489-1.572-4.121-0.307
				c-3.279,2.541-6.66,4.95-10.018,7.39c-2.748-2.114-6.196-4.819-9.354-6.206c0.662-4.321,1.308-8.644,2.032-12.955
				c0.219-1.306,0.063-2.06-1.317-2.605c-4.774-1.886-9.508-3.878-14.226-5.9c-1.197-0.512-1.993-0.328-2.672,0.753
				c-1.12,1.787-5.795,9.179-6.879,11.164c-3.919-0.972-7.876-1.613-11.878-1.865c-1.394-4.391-2.795-8.781-4.159-13.182
				c-0.369-1.189-0.956-1.694-2.284-1.593C75.844,0.41,70.631,0.755,65.415,0.999c-1.418,0.067-1.782,0.706-1.882,1.932
				c-0.204,2.485-1.245,12.88-1.425,15.602c-3.403,1.252-6.69,2.779-9.866,4.551c-3.742-2.65-7.503-5.274-11.171-8.022
				c-1.666-1.248-2.897-1.383-4.488,0.045c-3.306,2.97-6.728,5.811-10.105,8.701c-2.313,1.979-2.361,2.324-0.751,4.863
				c0.849,1.338,5.177,8.485,6.553,10.683c-2.35,2.676-4.499,5.49-6.455,8.455c-4.507-1.146-9.017-2.287-13.521-3.448
				c-1.51-0.389-2.443-0.094-3.215,1.484c-2.085,4.265-4.326,8.462-6.667,12.592c-0.972,1.714-0.771,2.723,0.811,3.901
				c4.134,3.078,8.203,6.241,12.285,9.388c-0.815,3.71-1.243,7.471-1.389,11.259c-4.514,1.59-8.937,3.425-13.405,5.138
				c-0.847,0.324-0.76,1.036-0.667,1.722c0.707,5.241,1.497,10.473,2.084,15.727c0.173,1.546,0.873,1.856,2.172,1.886
				c3.324,0.078,12.937,0.414,14.423,0.506c1.627,3.631,3.592,7.101,5.861,10.385c-2.505,3.974-5,7.954-7.547,11.9
				c-0.627,0.974-0.477,1.713,0.206,2.412c3.796,3.886,7.621,7.743,11.435,11.611c0.622,0.632,1.257,0.722,2.008,0.176
				c3.665-2.664,7.445-5.167,11.137-7.797c2.964,2.343,6.073,4.517,9.309,6.496c-0.861,4.555-1.717,9.111-2.603,13.661
				c-0.173,0.898,0.017,1.34,0.898,1.725c4.974,2.174,9.928,4.4,14.864,6.66c1.181,0.541,1.716,0.324,2.488-0.828
				c2.627-3.916,5.158-7.898,7.819-11.792c2.839,0.558,5.708,0.989,8.636,1.116c0.515,0.022,1.031-0.022,1.548-0.014
				c1.415,4.295,2.848,8.583,4.197,12.898c0.373,1.193,1.1,1.013,1.916,0.959c5.354-0.349,10.704-0.743,16.062-1.024
				c1.3-0.068,1.551-0.568,1.65-1.775c0.434-5.322,0.963-10.636,1.477-15.951c3.287-1.315,6.479-2.849,9.549-4.598
				c3.82,2.68,7.713,5.262,11.401,8.113c1.881,1.455,3.065,1.152,4.625-0.296c2.812-2.606,5.708-5.126,8.667-7.563
				c3.549-2.922,3.637-2.895,1.291-6.757c-1.953-3.212-3.869-6.449-5.893-9.616c2.436-2.674,4.714-5.522,6.806-8.509
				c4.599,1.111,9.199,2.216,13.792,3.356c1.04,0.258,1.574,0.11,2.11-0.955c2.34-4.648,4.744-9.267,7.279-13.81
				c0.791-1.419,0.45-2.169-0.691-3.007c-3.839-2.82-7.662-5.662-11.487-8.501c0.954-3.433,1.612-6.916,1.945-10.427
				c4.778-2.036,9.548-4.094,14.345-6.083C175.08,79.612,174.796,78.744,174.671,77.889z"/>
			<path fill="#CAD2D3" d="M79.718,33.671C61.189,36.21,29.731,48.804,34.565,94.018c1.86,17.397,17.653,46.425,60.454,40.248
				c15.661-2.26,41.452-8.096,42.393-46.584C137.894,68.019,124.829,27.488,79.718,33.671z"/>
			<path fill="#7C7E7E" d="M82.131,55.015c-11.012,1.502-29.721,8.836-26.917,34.947c1.079,10.047,10.418,28.445,35.856,24.796
				c9.308-1.335,24.639-6.413,25.257-28.649C116.643,74.749,108.942,51.359,82.131,55.015z"/>
		</g>
		<g id="Layer_1_2_">
		</g>
	</g>
</g>
<g id="Layer_1">
</g>
</svg>
