<?xml version="1.0" encoding="utf-8"?>
<!-- Generator: Adobe Illustrator 25.0.0, SVG Export Plug-In . SVG Version: 6.00 Build 0)  -->
<svg version="1.1" xmlns="http://www.w3.org/2000/svg" xmlns:xlink="http://www.w3.org/1999/xlink" x="0px" y="0px"
	 viewBox="0 0 270.687 259.663" enable-background="new 0 0 270.687 259.663" xml:space="preserve">
<g id="gear_x5F_white">
	<g>
		<polygon fill="#CAD2D3" points="270.687,137.32 267.413,161.311 241.103,164.482 232.301,180.368 243.004,203.03 227.128,219.278 
			205.098,208.566 190.722,218.351 192.114,242.439 170.186,251.839 155.175,233.554 136.811,236.659 127.1,259.663 
			102.865,258.422 97.421,231.323 82.056,224.456 57.947,237.098 42.135,223.806 50.838,199.619 40.684,186.641 14.797,189.99 
			4.239,170.607 24.28,149.784 21.922,132.369 0,122.002 2.94,97.603 28.601,93.594 37.489,77.4 25.857,55.366 43.357,37.171 
			63.857,48.735 78.158,38.502 75.236,14.7 98.137,4.112 114.334,23.47 130.087,21.577 139.301,0 164.198,1.293 169.366,28.692 
			184.241,35.64 208.921,23.238 226.026,38.327 215.656,60.24 226.355,73.295 250.942,69.285 262.47,90.544 243.818,108.593 
			247.022,124.709 		"/>
		<path fill="#FFFFFF" d="M206.979,85.858C151.45-4.108,9.508,70.115,64.475,172.105c27.215,50.496,95.319,50.834,124.212,25.887
			C225.113,166.541,224.544,114.316,206.979,85.858z"/>
		<path fill="#CAD2D3" d="M171.679,107.527c-28.166-45.633-100.161-7.985-72.281,43.746c13.804,25.613,48.347,25.784,63.003,13.13
			C180.876,148.451,180.588,121.962,171.679,107.527z"/>
	</g>
</g>
<g id="Layer_1">
</g>
</svg>
