<?xml version="1.0" encoding="utf-8"?>
<!-- Generator: Adobe Illustrator 27.1.1, SVG Export Plug-In . SVG Version: 6.00 Build 0)  -->
<svg version="1.1" xmlns="http://www.w3.org/2000/svg" xmlns:xlink="http://www.w3.org/1999/xlink" x="0px" y="0px"
	 viewBox="0 0 323.43 632.887" enable-background="new 0 0 323.43 632.887" xml:space="preserve">
<g id="hammer">
	<g id="colourisland_x5F_hammer_2_">
		<g>
			<path fill="#FF8000" d="M124.622,574.836c-0.498-1.762-1.919-99.536,2.799-187.294c1.526-0.052,58.592-0.818,70.999-0.961
				c5.382,19.875,9.268,162.106,9.135,188.548C172.707,592.533,135.522,586.743,124.622,574.836z"/>
			<path fill="#B2B2B2" d="M130.544,171.689c0,0,63.514,4.244,64.375,4.264c0,0-1.097,173.239-1.135,174.148l-61.308,0.689
				L130.544,171.689z"/>
			<path fill="#00759C" d="M130.528,176.062c-3.307-28.424-2.48-82.513-46.538-74.285c-14.446-18.244,0.803-63.488,1.223-62.984
				c6.073,7.876,17.467,7.986,25.822,3.949c20.173-7.948,24.975-29.463,40.921-36.266c69.051-23.647,150.15,20.996,171.473,76.726
				c-4.081,2.216-11.578,5.715-14.797,7.511c-1.89,1.054-26.805-31.011-30.853-25.355c-3.261,4.555,20.972,30.337,18.09,31.767
				c-6.766,3.357-15.911,7.217-15.911,7.217s-8.282-6.614-18.858-14.054c-56.233-44.976-65.655,47.041-66.183,85.666
				C194.919,175.953,134.303,176.088,130.528,176.062z"/>
			<path fill="#00759C" d="M124.622,574.836c9.693,0.141,65.052,0.048,82.933,0.293c-1.004,18.964,2.477,50.881-16.763,56.293
				C140.796,634.262,126.351,639.532,124.622,574.836z"/>
			<path fill="#00759C" d="M132.834,346.059c8.599-2.377,50.973-1.731,60.511,0c4.032,4.182,5.847,43.873,6.589,48.134
				c-12.755,0.124-71.421,0.794-72.99,0.84C128.038,389.896,127.669,354.633,132.834,346.059z"/>
			<path fill="#00759C" d="M12.383,28.299c7.189-11.91,44.583-5.492,57.946-4.082c-0.245,9.262-14.992,49.225,0.226,89.415
				c-1.164,5.241-2.179,6.235-7.33,7.192c-8.164,0.084-43.565,5.224-50.258-4.908C-11.052,78.782,4.101,41.028,12.383,28.299z"/>
			<path fill="#005F8A" d="M68.29,118.418c-20.197-28.725-4.411-82.502,2.039-94.2c3.465,0.632,13.305,11.83,14.884,14.576
				c1.209,2.315-8.914,42.173-1.223,62.984C82.8,102.164,70.796,117.401,68.29,118.418z"/>
		</g>
	</g>
</g>
<g id="Layer_1">
</g>
</svg>
