<?xml version="1.0" encoding="utf-8"?>
<!-- Generator: Adobe Illustrator 26.0.3, SVG Export Plug-In . SVG Version: 6.00 Build 0)  -->
<svg version="1.1" xmlns="http://www.w3.org/2000/svg" xmlns:xlink="http://www.w3.org/1999/xlink" x="0px" y="0px"
	 viewBox="0 0 461.126 955.78" enable-background="new 0 0 461.126 955.78" xml:space="preserve">
<g id="ladders_x5F_white">
	<g>
		<g id="rectangle_x5F_long_x5F_white_00000059988554427691877690000007163503626422389168_">
			<path fill="#CAD2D3" d="M89.254,8.627c19.735,25.962,161.364,916.627,149.107,934.56c-14.335,20.972-39.818,11.656-53.398,1.416
				C169.668,933.071,24.965,36.189,36.52,12.483C45.111-5.144,81.26-1.889,89.254,8.627z"/>
		</g>
		<g id="rectangle_x5F_long_x5F_white_00000095303186820028877620000003397919732485632155_">
			<path fill="#CAD2D3" d="M272.345,8.627c19.735,25.962,161.364,916.627,149.107,934.56c-14.335,20.972-39.818,11.656-53.398,1.416
				C352.758,933.071,208.055,36.189,219.61,12.483C228.201-5.144,264.351-1.889,272.345,8.627z"/>
		</g>
		<g id="rectangle_x5F_long_x5F_white">
			<path fill="#FFFFFF" d="M338.139,142.543c-5.507,7.205-17.022,8.716-31.926,9.8c-7.818,0.569-264.538-0.26-284.078-1.913
				c-13.404-1.652-18.166-3.91-20.256-8.495c-2.125-5.846-3.77-46.745,2.766-54.712c3.631-5.599,14.092-7.672,27.055-8.616
				c24.46-1.298,256.622-1.032,285.27,0.502c20.68,1.269,23.959,5.046,26.901,9.879C346.396,94.482,343.827,129.204,338.139,142.543
				z"/>
		</g>
		<g id="rectangle_x5F_long_x5F_white_00000177463428242203082610000018035932399552512130_">
			<path fill="#FFFFFF" d="M357.818,326.808c-5.507,7.205-17.022,8.716-31.926,9.8c-7.818,0.569-264.538-0.26-284.078-1.914
				c-13.404-1.652-18.166-3.91-20.256-8.495c-2.125-5.846-3.77-46.745,2.766-54.712c3.631-5.599,14.092-7.672,27.055-8.616
				c24.46-1.298,256.622-1.032,285.27,0.502c20.68,1.269,23.959,5.046,26.901,9.879
				C366.074,278.747,363.506,313.469,357.818,326.808z"/>
		</g>
		<g id="rectangle_x5F_long_x5F_white_00000086689791208687820690000017791205923511265459_">
			<path fill="#FFFFFF" d="M390.02,511.074c-5.507,7.205-17.022,8.716-31.926,9.8c-7.818,0.569-264.538-0.26-284.078-1.914
				c-13.404-1.652-18.166-3.91-20.256-8.495c-2.125-5.846-3.77-46.745,2.766-54.712c3.631-5.599,14.092-7.672,27.055-8.616
				c24.46-1.298,256.622-1.032,285.27,0.502c20.68,1.269,23.959,5.046,26.901,9.879C398.276,463.013,395.708,497.734,390.02,511.074
				z"/>
		</g>
		<g id="rectangle_x5F_long_x5F_white_00000150085261030461213630000001726137145498366391_">
			<path fill="#FFFFFF" d="M422.221,695.339c-5.507,7.205-17.022,8.716-31.926,9.8c-7.818,0.569-264.538-0.26-284.078-1.914
				c-13.404-1.652-18.166-3.91-20.256-8.495c-2.125-5.846-3.77-46.745,2.766-54.712c3.631-5.599,14.092-7.672,27.055-8.616
				c24.46-1.298,256.622-1.032,285.27,0.502c20.68,1.269,23.959,5.046,26.901,9.879C430.478,647.278,427.91,682,422.221,695.339z"/>
		</g>
		<g id="rectangle_x5F_long_x5F_white_00000064350134979174813100000001314778173076135103_">
			<path fill="#FFFFFF" d="M454.423,879.604c-5.507,7.205-17.022,8.716-31.926,9.8c-7.818,0.569-264.538-0.26-284.078-1.914
				c-13.404-1.652-18.166-3.91-20.256-8.495c-2.125-5.846-3.77-46.745,2.766-54.712c3.631-5.599,14.092-7.672,27.055-8.616
				c24.46-1.298,256.622-1.032,285.27,0.502c20.68,1.269,23.959,5.046,26.901,9.879C462.68,831.544,460.111,866.265,454.423,879.604
				z"/>
		</g>
	</g>
</g>
<g id="Layer_1">
</g>
</svg>
