<?xml version="1.0" encoding="utf-8"?>
<!-- Generator: Adobe Illustrator 27.1.1, SVG Export Plug-In . SVG Version: 6.00 Build 0)  -->
<svg version="1.1" xmlns="http://www.w3.org/2000/svg" xmlns:xlink="http://www.w3.org/1999/xlink" x="0px" y="0px"
	 viewBox="0 0 656.079 693.367" enable-background="new 0 0 656.079 693.367" xml:space="preserve">
<g id="nailgun">
	<g>
		<path fill="#49494A" d="M317.017,535.436L235.81,40.386L3.255,0c-18.189,69.571,45.36,74.422,54.68,76.158
			c11.561,59.865,57.947,338.281,71.025,416.971c-5.016,13.047-17.52,55.391,25.05,68.888l212.364,63.542
			c16.945,30.631,59.264,61.388,158.203,67.511c83.878,5.191,91.563-59.118,92.282-83.37L317.017,535.436z"/>
		<path fill="#FFE400" d="M565.889,535.841c0.836-16.636,25.963-463.788,25.963-463.788c-25.22-9.117-294.661-55.452-318.888-56.467
			c-77.026-3.226-108.677,189.354-42.083,205.628c11.238,2.746,90.109,29.892,167.443,44.945
			c6.983,55.881,28.67,214.06,35.307,254.884c-27.183,1.089-89.796,23.237-77.103,41.672
			c32.819,47.664,227.447,84.802,260.742,49.04C625.697,602.704,597.54,543.108,565.889,535.841z"/>
		<path fill="#00759C" d="M641.782,102.369c-15.501-30.571-54.009-33.342-75.223-36.995
			c-82.602-14.223-108.911,212.973-20.964,228.136c17.881,3.083,43.778,4.933,72.14-19.114
			C663.456,235.633,663.979,146.147,641.782,102.369z"/>
		<path fill="#00759C" d="M267.905,15.325C98.518-12.64,102.217,180.967,222.457,218.513
			C220.707,214.651,166.342,72.449,267.905,15.325z"/>
		<path fill="#005F8A" d="M502.742,297.827c-10.37-23.055-81.994-32.138-81.705-12.441c0.308,20.964,24.014,202.407,32.03,230.153
			c5.528,19.135,56.026,30.287,58.576,9.249C515.343,494.266,511.984,318.372,502.742,297.827z"/>
		<g>
			<path fill="#005F8A" d="M516.307,126.473l44.244,8.51c1.137-3.566,2.368-7.043,3.69-10.414l-44.785-6.742
				C518.341,120.636,517.293,123.523,516.307,126.473z"/>
			<path fill="#005F8A" d="M555.301,155.17c0.834-4.047,1.779-8.033,2.831-11.938l-44.853-6.752
				c-0.869,3.188-1.665,6.432-2.389,9.72L555.301,155.17z"/>
			<path fill="#005F8A" d="M550.725,200.868l-45.012-6.776c0,3.324,0.077,6.633,0.231,9.918l45.147,8.74
				C550.857,208.823,550.736,204.856,550.725,200.868z"/>
			<path fill="#005F8A" d="M553.342,232.761c-0.633-3.733-1.149-7.54-1.55-11.402l-45.112-7.169c0.317,3.218,0.71,6.4,1.187,9.533
				L553.342,232.761z"/>
			<path fill="#005F8A" d="M550.896,191.532c0.133-3.376,0.343-6.755,0.628-10.127l-44.959-6.768c-0.261,2.997-0.464,6-0.605,9.002
				L550.896,191.532z"/>
			<path fill="#005F8A" d="M552.226,174.392c0.474-4.098,1.058-8.173,1.75-12.202l-44.908-6.76
				c-0.579,3.317-1.087,6.664-1.519,10.032L552.226,174.392z"/>
		</g>
		<polygon fill="#7C7E7E" points="227.241,247.536 229.821,262.972 101.022,224.316 98.165,213.727 		"/>
		<polygon fill="#7C7E7E" points="231.739,274.45 234.319,289.887 105.52,251.231 102.663,240.642 		"/>
		<polygon fill="#7C7E7E" points="236.237,301.365 238.817,316.801 110.018,278.146 107.161,267.557 		"/>
		<polygon fill="#7C7E7E" points="240.735,328.28 243.314,343.716 114.516,305.06 111.658,294.471 		"/>
		<polygon fill="#7C7E7E" points="245.233,355.194 247.812,370.631 119.013,331.975 116.156,321.386 		"/>
		<polygon fill="#7C7E7E" points="249.731,382.109 252.31,397.545 123.511,358.89 120.654,348.301 		"/>
		<polygon fill="#7C7E7E" points="254.229,409.024 256.808,424.46 128.009,385.804 125.152,375.216 		"/>
		<polygon fill="#7C7E7E" points="258.727,435.938 261.306,451.375 132.507,412.719 129.65,402.13 		"/>
		<polygon fill="#7C7E7E" points="263.225,462.853 265.804,478.289 137.005,439.634 134.148,429.045 		"/>
		<polygon fill="#7C7E7E" points="267.723,489.768 270.302,505.204 141.503,466.548 138.646,455.96 		"/>
	</g>
</g>
<g id="Layer_1">
</g>
</svg>
