<?xml version="1.0" encoding="utf-8"?>
<!-- Generator: Adobe Illustrator 27.1.1, SVG Export Plug-In . SVG Version: 6.00 Build 0)  -->
<svg version="1.1" xmlns="http://www.w3.org/2000/svg" xmlns:xlink="http://www.w3.org/1999/xlink" x="0px" y="0px"
	 viewBox="0 0 87.263 89.231" enable-background="new 0 0 87.263 89.231" xml:space="preserve">
<g id="nail_x5F_blue">
	<g id="nail_x5F_grey_30_">
		<g>
			<path fill="#82D8E8" d="M46.717,61.662L7.703,16.13L0,0c29.631,28.767,25.234,24.746,54.865,53.513L46.717,61.662z"/>
			<polygon fill="#B6F4F8" points="61.038,47.463 15.728,8.105 0,0 53.199,55.303 			"/>
			<path fill="#D9FDFF" d="M81.128,48.54c8.763,8.78,8.053,23.616-1.585,33.137c-9.639,9.522-24.556,10.123-33.319,1.343
				c-1.209-1.211-4.561-4.559-5.779-5.779c-8.763-8.78-8.053-23.616,1.585-33.137c9.639-9.522,24.556-10.123,33.319-1.343
				C76.557,43.971,79.91,47.319,81.128,48.54z"/>
			
				<ellipse transform="matrix(0.73 -0.6835 0.6835 0.73 -27.7651 61.2839)" fill="#82D8E8" cx="63.676" cy="65.78" rx="24.534" ry="22.459"/>
		</g>
	</g>
</g>
<g id="Layer_1">
</g>
</svg>
