<?xml version="1.0" encoding="utf-8"?>
<!-- Generator: Adobe Illustrator 27.1.1, SVG Export Plug-In . SVG Version: 6.00 Build 0)  -->
<svg version="1.1" xmlns="http://www.w3.org/2000/svg" xmlns:xlink="http://www.w3.org/1999/xlink" x="0px" y="0px"
	 viewBox="0 0 308.698 422.502" enable-background="new 0 0 308.698 422.502" xml:space="preserve">
<g id="paint_x5F_roller">
	<path fill="#B6F4F8" d="M145.399,245.666c-0.01-0.189-1.01-19.323-0.989-57.991c0.011-19.835,9.348-33.432,27.752-40.415
		c15.282-5.798,35.226-6.63,54.514-7.436c18.084-0.755,36.785-1.535,49.979-6.497c17.733-6.667,22.069-22.931,20.215-35.927
		c-1.807-12.665-10.457-26.809-25.177-27.932l0.869-11.379c17.992,1.374,32.634,16.876,35.605,37.7
		c3.117,21.841-7.677,40.769-27.496,48.221c-14.906,5.605-34.536,6.424-53.519,7.217c-44.371,1.853-71.314,5.23-71.331,36.455
		c-0.021,38.308,0.962,57.189,0.972,57.375L145.399,245.666z"/>
	<path fill="#005F8A" d="M125.296,422.498c-0.329-1.168-2.593-100.283,0.565-158.43c1.011-0.034,38.823-0.52,47.045-0.611
		c3.559,13.171,5.872,140.11,5.775,157.631C167.179,420.909,131.529,422.602,125.296,422.498z"/>
	<path fill="#589CAE" d="M143.894,231.316c5.566-0.503,6.457-0.764,12.776,0.387c2.579,2.138,14.805,21.91,16.426,32.645
		c-8.452,0.077-46.27,0.07-47.31,0.1C126.93,254.456,140.468,236.995,143.894,231.316z"/>
	<path fill="#E172AB" d="M258.77,115.83l-11.562,7.312l-14.722-7.327l-10.303,5.266l-14.927-5.28l-16.255,3.663l-10.337-3.678
		l-18.073,4.488l-13.565-4.505l-9.343,4.164l-22.65-4.181l-10.502,4.125l-17.401-4.141l-14.29,5.096l-8.016-4.404l-9.847,4.121
		l-9.934-4.205l-10.455,5.735l-9.213-6.378C12.248,115.693-0.008,103.423,0,88.295L0.029,36.43
		C0.037,21.303,12.307,9.047,27.434,9.055l14.604-6.558l15.634,4.972l12.274-6.892l16.335,8.511l22.062-6.478l21.738,6.503
		L146.647,0l10.079,7.485l13.431-5.074l11.494,6.729l20.547-6.171l12.91,4.866l9.9-5.483l8.618,6.474l11.163-6.39l14.041,6.747
		c15.127,0.008,27.384,12.278,27.375,27.406l-0.029,51.865C286.167,103.582,273.897,115.838,258.77,115.83z"/>
	<path opacity="0.15" fill="#FAECF4" enable-background="new    " d="M193.424,97.183l14.801,1.784l23.269-1.763l21.373,2.561
		l14.747-2.541l16.035,2.701c1.615-3.49,2.523-7.373,2.525-11.47l0.025-45.88l-1.033-0.168l-15.978,3.084l-12.341-3.135
		l-14.17,2.646l-18.485-2.36l-29.413,2.973l-16.459-3.26l-19.226,2.446l-14.434-3.625l-23.712,4.397l-31.125-3.156l-31.581,3.121
		l-23.391-4.124L17.283,44.74L0.021,42.88L0,88.295c-0.002,3.224,0.558,6.315,1.579,9.188l0.548-0.101l14.224,2.039l14.095-1.988
		l11.478,2.133l20.456-2.457l24.914,2.011l15.033-1.989l32.43,2.034l13.374-2.008l19.423,2.186L193.424,97.183z"/>
</g>
<g id="Layer_1">
</g>
</svg>
