<?xml version="1.0" encoding="utf-8"?>
<!-- Generator: Adobe Illustrator 27.1.1, SVG Export Plug-In . SVG Version: 6.00 Build 0)  -->
<svg version="1.1" xmlns="http://www.w3.org/2000/svg" xmlns:xlink="http://www.w3.org/1999/xlink" x="0px" y="0px"
	 viewBox="0 0 83.878 129.575" enable-background="new 0 0 83.878 129.575" xml:space="preserve">
<g id="paint_x5F_drip_x5F_white">
	<path fill="#FFFFFF" d="M78.101,4.831C60.705,4.762,29.49,2.761,13.585,0L3.459,6.075c0,0,12.424,9.067,35.394,11.438
		c29.176,3.012,44.971-4.881,44.971-4.881C83.773,10.728,80.991,7.866,78.101,4.831z"/>
	<path fill="#CAD2D3" d="M3.454,6.134C3.223,8.626-7.382,124.036,9.762,129.231c17.331,5.252,12.604-51.468,12.604-51.468
		s22.583,50.418,21.007-49.367c-0.04-2.568,24.684,30.855,23.502,3.676c-0.197-4.53,18.13,25.07,16.948-19.44
		C83.82,12.475,34.22,14.794,3.454,6.134z"/>
</g>
<g id="Layer_1">
</g>
</svg>
