<?xml version="1.0" encoding="utf-8"?>
<!-- Generator: Adobe Illustrator 27.2.0, SVG Export Plug-In . SVG Version: 6.00 Build 0)  -->
<svg version="1.1" xmlns="http://www.w3.org/2000/svg" xmlns:xlink="http://www.w3.org/1999/xlink" x="0px" y="0px"
	 viewBox="0 0 243.483 161.706" enable-background="new 0 0 243.483 161.706" xml:space="preserve">
<g id="paint_x5F_brush_x5F_top">
	<path fill="#CAD2D3" d="M200.515,62.834c-10.626-15.709-14.785-34.189-11.55-51.746c-24.025,11.55-44.816,27.259-60.524,45.278
		l-38.347,4.158L34.651,48.512C24.949,41.581,12.936,36.499,0,33.727c24.025,24.949,28.645,108.574,29.107,127.979h194.971
		L200.515,62.834z"/>
	<path fill="#FFFFFF" enable-background="new    " d="M128.903,56.366c-6.006-12.012-14.322-23.101-24.487-33.265
		c0,12.474-5.082,24.487-13.861,34.651C78.081,34.651,63.296,10.164,34.189,0c5.082,15.709,5.082,32.803,0,48.512
		c0,0,36.037,40.195,40.195,113.194h35.575C109.96,161.706,106.726,82.701,128.903,56.366z"/>
	<path fill="#FFFFFF" enable-background="new    " d="M243.483,43.892c-16.171,3.234-30.955,9.702-42.968,18.481
		c0,0-31.417,25.873-34.651,99.334h58.214C224.078,149.693,221.768,72.537,243.483,43.892z"/>
</g>
<g id="Layer_1">
</g>
</svg>
