<?xml version="1.0" encoding="utf-8"?>
<!-- Generator: Adobe Illustrator 27.1.1, SVG Export Plug-In . SVG Version: 6.00 Build 0)  -->
<svg version="1.1" xmlns="http://www.w3.org/2000/svg" xmlns:xlink="http://www.w3.org/1999/xlink" x="0px" y="0px"
	 viewBox="0 0 211.771 455.382" enable-background="new 0 0 211.771 455.382" xml:space="preserve">
<g id="pipe_x5F_wrench_x5F_plier_x5F_top">
	<g>
		<g>
			<path fill="#00A038" d="M67.265,455.382c0,0,117.11-44.169,126.872-95.978c10.308-54.711,17.047-153.204,17.633-272.712
				C212.469-56.057-3.159,5.457,2.251,72.99c0,0,128.588-21.245,131.098,40.083c3.228,78.868,1.719,212.329-10.983,227.956
				c-10.745,13.219-39.842,37.71-56.609,45.752C65.758,386.781,68.031,454.582,67.265,455.382z"/>
			<polygon fill="#7C7D7D" points="7.318,82.832 0,76.315 0,61.804 91.053,61.804 91.053,74.685 83.489,82.832 74.237,77.087 
				68.255,82.832 58.359,77.023 53.02,82.832 46.052,76.881 37.786,82.832 30.994,78.037 22.552,82.832 15.098,77.149 			"/>
		</g>
		<g>
			<path fill="#4A4A49" d="M120.243,430.63l-1.87-85.063c-12.771,13.676-37.62,34.021-52.616,41.214c0,0,2.274,67.8,1.508,68.6
				C67.265,455.382,92.336,445.922,120.243,430.63z"/>
		</g>
	</g>
</g>
<g id="Layer_1">
</g>
</svg>
