<?xml version="1.0" encoding="utf-8"?>
<!-- Generator: Adobe Illustrator 27.1.1, SVG Export Plug-In . SVG Version: 6.00 Build 0)  -->
<svg version="1.1" xmlns="http://www.w3.org/2000/svg" xmlns:xlink="http://www.w3.org/1999/xlink" x="0px" y="0px"
	 viewBox="0 0 353.283 240.715" enable-background="new 0 0 353.283 240.715" xml:space="preserve">
<g id="pipe_x5F_white">
	<g>
		<path fill="#CAD2D3" d="M89.221,229.348L332.973,96.355c24.611-21.25,24.403-56.645,12.359-75.762
			C330.668-2.683,299.715-4.304,274.198,6.198L30.446,139.191L89.221,229.348z"/>
		<path fill="#E7E9E9" d="M350.466,31.901c-1.311-4.153-3.038-7.981-5.135-11.309c-4.625-7.341-10.873-12.523-18.057-15.855
			L15.736,180.961c0,0,12.884,31.901,19.448,29.281L350.466,31.901z"/>
		<path fill="#FFFFFF" d="M101.58,153.586c-14.664-23.275-45.617-24.896-71.133-14.395c-19.092,7.858-40.637,37.498-25.148,72.667
			c15.621,35.469,64.401,34.346,83.923,17.49C113.832,208.098,113.624,172.703,101.58,153.586z"/>
		<path fill="#7C7E7E" d="M84.557,165.683c-9.332-14.812-29.029-15.843-45.267-9.16c-12.15,5-25.86,23.862-16.003,46.242
			c9.94,22.571,40.983,21.856,53.405,11.13C92.353,200.373,92.221,177.849,84.557,165.683z"/>
	</g>
</g>
<g id="Layer_1">
</g>
</svg>
