<?xml version="1.0" encoding="utf-8"?>
<!-- Generator: Adobe Illustrator 27.1.1, SVG Export Plug-In . SVG Version: 6.00 Build 0)  -->
<svg version="1.1" xmlns="http://www.w3.org/2000/svg" xmlns:xlink="http://www.w3.org/1999/xlink" x="0px" y="0px"
	 viewBox="0 0 520.513 1320.859" enable-background="new 0 0 520.513 1320.859" xml:space="preserve">
<g id="pipe_x5F_blue_x5F_long">
	<path fill="#31D8E2" d="M498.644-30.443H374.057c0.071,7.215,0.024,730.723,0.024,967.627c0,90.811-62.503,122.476-113.925,151.765
		c-28.999,16.517-122.926,64.421-226.37,115.958l60.522,108.297c101.162-50.463,197.597-98.953,227.512-115.993
		c73.254-41.724,176.8-95.614,176.8-256.376C498.62,701.497,498.934-0.884,498.644-30.443z"/>
	<path fill="#B6F4F8" d="M436.35-30.443h-39.221c0.07,7.223,6.977,725.476,0.007,963.11c-1.62,55.221-3.294,112.322-135.466,187.604
		c-28.009,15.954-111.444,58.234-208.972,106.896l20.645,33.56c96.624-48.233,179.196-90.115,207.739-106.372
		c66.271-37.747,155.26-82.906,155.26-220.537C436.342,695.319,436.421-23.212,436.35-30.443z"/>
	<path fill="#00BDD0" d="M116.657,1220.797c-16.841-26.73-52.388-28.592-81.692-16.531c-21.926,9.024-46.668,43.064-28.881,83.453
		c17.939,40.734,73.96,39.444,96.379,20.086C130.727,1283.401,130.489,1242.752,116.657,1220.797z"/>
	<path fill="#005F8A" d="M97.908,1234.7c-10.861-17.239-33.786-18.439-52.684-10.661c-14.14,5.82-30.097,27.772-18.626,53.82
		c11.569,26.27,47.698,25.438,62.157,12.954C106.982,1275.074,106.829,1248.859,97.908,1234.7z"/>
	<path fill="#00BDD0" d="M250.871,1068.573c-18.427,6.753-41.012,25.384-49.374,51.591c0,0,47.987-24.069,58.42-28.644
		c78.754-34.538,110.179,70.212,65.379,101.734c-8.667,6.098-64.44,36.151-64.44,36.151c36.445,9.591,70.371-6.354,83.622-15.434
		C408.338,1170.212,376.414,1022.564,250.871,1068.573z"/>
	<path fill="#00BDD0" d="M374.358,830.775c-23.993,0-27.984,34.054-15.347,47.577c47.171,50.481,172.478,24.165,160.728-29.264
		c-0.747-3.397-5.004-18.068-21.116-18.068v11.509c0,31.822-124.264,39.148-124.264,0.266L374.358,830.775L374.358,830.775z"/>
</g>
<g id="Layer_1">
</g>
</svg>
