<?xml version="1.0" encoding="utf-8"?>
<!-- Generator: Adobe Illustrator 27.1.1, SVG Export Plug-In . SVG Version: 6.00 Build 0)  -->
<svg version="1.1" xmlns="http://www.w3.org/2000/svg" xmlns:xlink="http://www.w3.org/1999/xlink" x="0px" y="0px"
	 viewBox="0 0 303.501 638.738" enable-background="new 0 0 303.501 638.738" xml:space="preserve">
<g id="pipe_x5F_cutter">
	<g>
		
			<rect x="124.804" y="432.782" transform="matrix(-1.836970e-16 1 -1 -1.836970e-16 628.8957 295.3064)" fill="#6BBDD0" width="83.982" height="58.639"/>
		<polygon fill="#82D8E8" points="137.475,449.477 137.475,438.748 196.114,448.441 196.114,459.169 		"/>
		<polygon fill="#82D8E8" points="137.475,471.246 137.475,460.518 196.114,470.21 196.114,480.939 		"/>
		<path fill="#005F8A" d="M108.449,267.272c0-71.925,109.128-72.717,109.128,0H108.449z"/>
		<path fill="#6BBDD0" d="M141.757,267.272c0-11.739,9.516-21.256,21.256-21.256s21.256,9.516,21.256,21.256H141.757z"/>
		<path fill="#005F8A" d="M68.556,148.984c-30.135,0,54.564-84.699,54.564-54.564S98.691,148.984,68.556,148.984z"/>
		<path fill="#005F8A" d="M235.695,149.783c-32.719,0-59.244-26.524-59.244-59.244S268.414,149.783,235.695,149.783z"/>
		<path fill="#FF4035" d="M234.003,413.603V273.952c0-8.572-6.949-15.522-15.522-15.522h-64.408
			c-115.345,0-123.26-171.014,0.763-171.014c35.722,0,63.217,26.707,76.521,58.282c11.581,27.487,72.144,22.738,72.144-16.715
			V77.608C303.501,34.746,268.755,0,225.893,0H77.608C34.746,0,0,34.746,0,77.608v193.001c0,83.002,103.9,61.384,103.9,142.994
			C103.9,453.38,234.003,452.588,234.003,413.603z"/>
		<path fill="#821F1B" d="M219.459,90.54c0-24.209,34.054-22.626,34.054,0C253.513,113.03,219.459,113.822,219.459,90.54z"/>
		<path fill="#821F1B" d="M50.867,90.54c0-24.209,34.054-22.626,34.054,0C84.921,113.03,50.867,113.822,50.867,90.54z"/>
		<polygon fill="#005F8A" points="251.081,611.177 251.081,531.423 207.542,479.955 126.048,479.955 82.508,531.423 82.508,611.177 
			126.048,638.738 207.542,638.738 		"/>
		<rect x="82.508" y="531.423" fill="#42759C" width="168.573" height="79.753"/>
		<rect x="233.284" y="539.338" opacity="0.34" fill="#6BBDD0" width="7.638" height="63.637"/>
		<rect x="204.917" y="539.338" opacity="0.34" fill="#6BBDD0" width="8.43" height="63.637"/>
		<rect x="175.759" y="539.338" opacity="0.34" fill="#6BBDD0" width="10.013" height="63.637"/>
		<rect x="148.184" y="539.338" opacity="0.34" fill="#6BBDD0" width="10.013" height="63.637"/>
		<rect x="120.609" y="539.338" opacity="0.34" fill="#6BBDD0" width="8.43" height="63.637"/>
		<rect x="93.034" y="539.338" opacity="0.34" fill="#6BBDD0" width="7.638" height="63.637"/>
	</g>
	<g id="Layer_1_00000027602926943959598790000015494698980258050200_">
	</g>
</g>
<g id="Layer_1">
</g>
</svg>
