<?xml version="1.0" encoding="utf-8"?>
<!-- Generator: Adobe Illustrator 27.1.1, SVG Export Plug-In . SVG Version: 6.00 Build 0)  -->
<svg version="1.1" xmlns="http://www.w3.org/2000/svg" xmlns:xlink="http://www.w3.org/1999/xlink" x="0px" y="0px"
	 viewBox="0 0 536.048 326.717" enable-background="new 0 0 536.048 326.717" xml:space="preserve">
<g id="pipe_x5F_blue_x5F_short">
	<path fill="#31D8E2" d="M512.41,112.083c28.644-24.732,28.402-65.927,14.384-88.177c-16.541-26.255-50.676-28.75-79.813-17.757
		c0,0-405.951,199.741-409.412,201.432l54.722,112.932C106.273,313.679,512.32,112.16,512.41,112.083z"/>
	<path fill="#B6F4F8" d="M526.794,23.906c-4.744-7.531-10.941-13.097-18.047-16.961C345.984,88.022,108.66,204.871,50.25,233.52
		l17.229,35.242c60.168-29.497,302.861-148.965,465.76-230.166C531.669,33.168,529.49,28.184,526.794,23.906z"/>
	<path fill="#00BDD0" d="M118.225,225.31c-17.067-27.089-53.092-28.976-82.79-16.753c-22.221,9.145-47.296,43.642-29.269,84.574
		c18.18,41.282,74.954,39.974,97.675,20.356C132.485,288.755,132.243,247.56,118.225,225.31z"/>
	<path fill="#005F8A" d="M98.412,239.39c-10.861-17.239-33.786-18.439-52.684-10.661c-14.14,5.82-30.097,27.772-18.626,53.82
		c11.569,26.27,47.698,25.438,62.157,12.954C107.487,279.764,107.333,253.549,98.412,239.39z"/>
	<g id="Layer_1_00000023245205826649797700000017635740830843192748_">
	</g>
</g>
<g id="Layer_1">
</g>
</svg>
