<?xml version="1.0" encoding="utf-8"?>
<!-- Generator: Adobe Illustrator 27.1.1, SVG Export Plug-In . SVG Version: 6.00 Build 0)  -->
<svg version="1.1" xmlns="http://www.w3.org/2000/svg" xmlns:xlink="http://www.w3.org/1999/xlink" x="0px" y="0px"
	 viewBox="0 0 715.074 940.07" enable-background="new 0 0 715.074 940.07" xml:space="preserve">
<g id="pipe_x5F_curved_x5F_orange">
	<g>
		<path fill="#FFA600" d="M152.875,0v357.543c0,137.682-4,267.729,13.978,350.019c8.938,40.915,25.207,83.805,62.32,83.632
			c34.877-0.162,54.209-15.757,84.105-100.766c17.224-48.977,38.096-103.283,79.265-150.717
			c67.988-78.335,166.986-83.024,214.615-83.024h31.478c42.215,0,76.438,34.222,76.438,76.438s-34.222,76.438-76.438,76.438h-31.478
			c-99.206,0-117.574,40.34-149.663,131.584c-15.204,43.229-56.821,198.923-227.322,198.923
			c-145.856,0-195.556-139.838-208.672-199.879C0,641.777,0,510.06,0,357.544V0H152.875z"/>
	</g>
	<path fill="#FFD200" d="M595.511,531.529h119.523c-0.287-13.984-4.31-27.048-11.141-38.219H595.511
		c-76.09,0-133.082,21.691-174.23,66.312c-35.523,38.521-53.648,87.328-71.177,134.528c-29.052,78.229-52,140.019-141.931,140.019
		c-31.278,0-55.595-10.373-74.338-31.712c-18.606-21.182-32.437-53.305-42.287-98.205c-19.113-87.128-20.589-207.241-20.589-367.416
		V0H32.74v336.837c0,162.6,1.541,284.721,21.477,375.605c11.27,51.379,27.921,89.073,50.904,115.238
		c26.058,29.667,60.73,44.709,103.053,44.709c52.485,0,92.513-17.533,122.372-53.601c25.466-30.761,39.999-69.897,55.387-111.332
		C419.531,616.984,451.266,531.529,595.511,531.529z"/>
</g>
<g id="Layer_1">
</g>
</svg>
