<?xml version="1.0" encoding="utf-8"?>
<!-- Generator: Adobe Illustrator 27.1.1, SVG Export Plug-In . SVG Version: 6.00 Build 0)  -->
<svg version="1.1" xmlns="http://www.w3.org/2000/svg" xmlns:xlink="http://www.w3.org/1999/xlink" x="0px" y="0px"
	 viewBox="0 0 80.635 366.974" enable-background="new 0 0 80.635 366.974" xml:space="preserve">
<g id="pipe_x5F_wrench_x5F_handle_x5F_1">
	<g>
		<path fill="#00A038" d="M74.007,328.551h-58.96L4.767,261.073L0.056,46.087c0,0-3.217-45.148,38.951-46.075
			C78.243-0.85,77.542,44.384,77.542,44.384l3.093,224.675L74.007,328.551z"/>
		<polygon fill="#B2B2B2" points="75.39,366.974 14.25,366.974 12.043,326.172 77.74,326.172 		"/>
		<polygon fill="#4A4A49" points="26.828,362.789 20.24,362.646 18.918,331.724 26.141,331.565 		"/>
		<polygon fill="#4A4A49" points="42.221,362.451 35.13,362.23 32.385,332.282 41.535,331.226 		"/>
		<polygon fill="#4A4A49" points="56.676,361.648 50.188,361.149 49.705,331.047 57.675,331.45 		"/>
		<polygon fill="#4A4A49" points="70.902,361.897 64.35,362.509 63.664,331.284 72.322,330.55 		"/>
		<path fill="#4A4A49" d="M54.078,22.75c-5.482-8.291-16.675-8.631-25.809-4.635c-6.834,2.99-14.381,13.867-8.507,26.448
			c5.924,12.688,23.535,11.895,30.453,5.651C58.937,42.343,58.581,29.56,54.078,22.75z"/>
		<path fill="#B2B2B2" d="M45.688,28.994c-2.719-4.112-8.27-4.28-12.8-2.299c-3.389,1.483-7.132,6.878-4.219,13.117
			c2.938,6.293,11.672,5.899,15.103,2.803C48.097,38.712,47.921,32.372,45.688,28.994z"/>
	</g>
</g>
<g id="Layer_1">
</g>
</svg>
