<?xml version="1.0" encoding="utf-8"?>
<!-- Generator: Adobe Illustrator 27.1.1, SVG Export Plug-In . SVG Version: 6.00 Build 0)  -->
<svg version="1.1" xmlns="http://www.w3.org/2000/svg" xmlns:xlink="http://www.w3.org/1999/xlink" x="0px" y="0px"
	 viewBox="0 0 41.764 512.288" enable-background="new 0 0 41.764 512.288" xml:space="preserve">
<g id="pipe_x5F_wrench_x5F_handle_x5F_2">
	<g>
		<polygon fill="#7C7D7D" points="36.078,511.582 5.479,512.288 5.479,0.706 36.078,0 		"/>
		<g>
			<polygon fill="#4A4A49" points="1.18,73.959 0.824,67.374 40.902,62.257 41.703,69.437 			"/>
			<polygon fill="#4A4A49" points="0.884,86.708 0.527,80.124 40.606,75.006 41.407,82.187 			"/>
			<polygon fill="#4A4A49" points="41.764,94.219 40.539,87.74 0.398,92.333 1.333,99.497 			"/>
			<polygon fill="#4A4A49" points="0.956,112.223 0.6,105.639 40.678,100.521 41.479,107.702 			"/>
			<polygon fill="#4A4A49" points="0.66,124.973 0.303,118.388 40.382,113.271 41.183,120.451 			"/>
			<polygon fill="#4A4A49" points="41.54,132.483 40.315,126.004 0.173,130.598 1.109,137.762 			"/>
			<polygon fill="#4A4A49" points="1.065,150.495 0.708,143.911 40.787,138.793 41.588,145.974 			"/>
			<polygon fill="#4A4A49" points="0.768,163.245 0.412,156.661 40.49,151.543 41.291,158.723 			"/>
			<polygon fill="#4A4A49" points="41.649,170.756 40.424,164.276 0.282,168.87 1.217,176.034 			"/>
			<polygon fill="#4A4A49" points="1.173,188.768 0.817,182.183 40.895,177.066 41.696,184.246 			"/>
			<polygon fill="#4A4A49" points="0.877,201.517 0.52,194.933 40.599,189.815 41.4,196.996 			"/>
			<polygon fill="#4A4A49" points="41.757,209.028 40.532,202.548 0.39,207.142 1.326,214.306 			"/>
			<polygon fill="#4A4A49" points="0.783,227.028 0.426,220.444 40.505,215.326 41.306,222.506 			"/>
			<polygon fill="#4A4A49" points="0.486,239.778 0.13,233.193 40.208,228.076 41.009,235.256 			"/>
			<polygon fill="#4A4A49" points="41.367,247.288 40.142,240.809 0,245.402 0.935,252.566 			"/>
			<polygon fill="#4A4A49" points="0.891,265.3 0.535,258.716 40.613,253.598 41.414,260.779 			"/>
			<polygon fill="#4A4A49" points="0.595,278.05 0.238,271.466 40.317,266.348 41.118,273.528 			"/>
			<polygon fill="#4A4A49" points="41.475,285.561 40.25,279.081 0.109,283.675 1.044,290.839 			"/>
		</g>
	</g>
</g>
<g id="Layer_1">
</g>
</svg>
