<?xml version="1.0" encoding="utf-8"?>
<!-- Generator: Adobe Illustrator 27.1.1, SVG Export Plug-In . SVG Version: 6.00 Build 0)  -->
<svg version="1.1" xmlns="http://www.w3.org/2000/svg" xmlns:xlink="http://www.w3.org/1999/xlink" x="0px" y="0px"
	 viewBox="0 0 231.075 666.933" enable-background="new 0 0 231.075 666.933" xml:space="preserve">
<g id="pipe_x5F_wrench_x5F_plier_x5F_under">
	<g>
		<path fill="#4A4A49" d="M1.245,16.272l87.847-0.333c0,0,3.137,16.617,45.427,23.757c40.778,6.885,46.131,82.871,49.06,118.307
			c12.673,153.292,11.108,449.767,39.281,481.518c14.063,15.85,5.807,27.411,5.807,27.411s-33.005-4.582-46.719-40.142
			c-28.672-74.342-29.936-425.479-62.939-487.211C87.301,80.271-1.788,100.312,1.245,16.272z"/>
		<polygon fill="#7C7D7D" points="84.028,0 91.053,6.154 91.053,18.748 0,18.748 0,6.154 7.844,0 17.037,6.154 23.081,0 
			32.914,6.154 38.317,0 45.219,6.154 53.554,0 60.287,6.154 68.791,0 76.174,6.154 		"/>
	</g>
</g>
<g id="Layer_1">
</g>
</svg>
