<?xml version="1.0" encoding="utf-8"?>
<!-- Generator: Adobe Illustrator 26.0.3, SVG Export Plug-In . SVG Version: 6.00 Build 0)  -->
<svg version="1.1" xmlns="http://www.w3.org/2000/svg" xmlns:xlink="http://www.w3.org/1999/xlink" x="0px" y="0px"
	 viewBox="0 0 246.609 273.029" enable-background="new 0 0 246.609 273.029" xml:space="preserve">
<g id="plug_x5F_white">
	<g>
		<path fill="#E7E9E9" d="M19.004,96.944l208.018,0l0,43.173c0,28.26-10.03,55.927-28.899,79.718l-42.19,53.195H84.901
			L44.649,218.28c-16.786-22.832-25.646-48.899-25.646-75.458L19.004,96.944z"/>
		<path fill="#FFFFFF" d="M78.255,89.019l-32.903,0c0,0-0.574-57.608,0.555-69.666c0.627-8.475,2.858-14.248,5.096-15.677
			c2.702-3.725,18.417-5.651,22.461-0.698c2.359,2.313,3.619,8.589,4.252,15.402C78.455,26.063,78.255,89.019,78.255,89.019z"/>
		<path fill="#FFFFFF" d="M200.794,89.019l-32.902,0c0,0-0.574-57.608,0.555-69.666c0.627-8.475,2.858-14.248,5.096-15.677
			c2.702-3.725,18.417-5.651,22.461-0.698c2.359,2.313,3.619,8.589,4.252,15.402C200.994,26.063,200.794,89.019,200.794,89.019z"/>
		<path fill="#B2B2B2" d="M243.229,106.5c-6.97,3.89-24.321,5.547-43.184,6.133c-9.895,0.307-139.841,2.032-167.311-0.231
			c-16.276-1.485-28.076-4.555-30.721-7.031c-2.396-2.278-4.205-20.553,4.069-24.855c4.595-3.023,20.956-5.083,37.362-5.593
			c19.808-1.329,135.023-2.016,164.666-0.249c17.293,0.825,26.532,3.064,31.173,5.495C244.696,82.91,250.429,99.298,243.229,106.5z"
			/>
	</g>
</g>
<g id="Layer_1">
</g>
</svg>
