<?xml version="1.0" encoding="utf-8"?>
<!-- Generator: Adobe Illustrator 27.2.0, SVG Export Plug-In . SVG Version: 6.00 Build 0)  -->
<svg version="1.1" xmlns="http://www.w3.org/2000/svg" xmlns:xlink="http://www.w3.org/1999/xlink" x="0px" y="0px"
	 viewBox="0 0 420.332 525.74" enable-background="new 0 0 420.332 525.74" xml:space="preserve">
<g id="reel">
	<path fill="#7C7E7E" d="M346.564,498.315c-102.544-4.286-199.097-7.745-200.543-40.78c-1.558-35.58,109.116-36.488,161.381-102.331
		l-25.104-18.401c-41.953,55.497-176.46,64.018-172.721,123.24c4.361,69.076,177.388,63.31,234.37,65.692
		c0,0,8.153,0.591,10.111-12.115C356.292,499.134,346.564,498.315,346.564,498.315z"/>
	<path fill="#F3D231" d="M104.267,405.619c-4.418,0-31.093,0-35.51,0C30.784,405.619,0,314.818,0,202.809S30.784,0,68.757,0
		c4.418,0,31.093,0,35.51,0c37.973,0,68.757,90.801,68.757,202.809S142.241,405.619,104.267,405.619z"/>
	<ellipse fill="#EAA627" cx="104.267" cy="202.809" rx="68.757" ry="202.81"/>
	<path opacity="0.2" fill="#4A4A49" d="M169.334,268.508L40.556,281.139l-35.932-5.091c0.72,5.483,1.519,10.85,2.392,16.09
		l36.513,5.38l124.011-15.224C168.193,277.78,168.791,273.183,169.334,268.508z"/>
	<path opacity="0.2" fill="#4A4A49" d="M5.647,122.221c-0.77,5.237-1.469,10.584-2.09,16.039l34.844,5.3l129.891-14.805
		c-0.192-1.442-0.388-2.876-0.591-4.302c-0.057-0.404-0.115-0.807-0.174-1.209c-0.434-3.001-0.901-5.95-1.383-8.875l-125.54,12.314
		L5.647,122.221z"/>
	<path fill="#7C7E7E" d="M265.503,340.701c-12.706,7.905-30.906,5.27-36.201,0c-0.721,0-18.024,10.539-36.201,0
		c-0.724,0-19.928,10.539-36.201,0c-19.747,8.281-36.62,3.011-43.154-4.964c-52.614-59.401-44.652-210.717-1.048-252.911
		c8.151-8.997,28.626-15.02,42.767-5.75c0.238,0,21.319-9.076,36.201,0c0.238,0,23.163-12.706,37.028-0.908
		c0.239,0,22.527-11.799,35.374,0.908L265.503,340.701z"/>
	<path fill="#727272" d="M140.886,72.488c-74.436,87.952-39.657,240.787-0.577,272.28c4.947-0.343,10.304-1.524,15.903-3.791
		c-62.814-74.017-40.908-227.242-1.697-264.485C150.319,73.988,145.625,72.749,140.886,72.488z"/>
	<path fill="#727272" d="M175.08,73.055c-72.006,88.376-38.734,238.241-0.067,272.288c7.333-0.332,13.559-2.762,16.422-3.967
		c-61.587-74.614-40.615-225.65-1.957-265.279C186.208,74.816,180.949,73.39,175.08,73.055z"/>
	<path fill="#727272" d="M213.507,72.076c-73.035,88.219-39.697,239.009-0.901,273.239c8.056-0.489,14.196-3.502,16.099-4.375
		c-61.172-74.794-40.167-225.409-1.554-264.889C225.16,74.062,219.799,72.424,213.507,72.076z"/>
	<path fill="#727272" d="M249.886,71.509c-73.863,88.399-40.044,240.393-1.019,274.101c5.375-0.288,10.997-1.647,15.896-4.496
		c-61.391-74.787-40.309-225.764-1.614-265.145C260.725,73.657,255.607,72.004,249.886,71.509z"/>
	<path fill="#F3D231" d="M350.668,0.046c-4.476,0-31.503,0-35.979,0c-38.475,0-69.664,91.999-69.664,205.486
		s31.19,205.486,69.664,205.486c4.476,0,31.503,0,35.979,0c38.475,0,69.664-91.999,69.664-205.486S389.142,0.046,350.668,0.046z"/>
	<ellipse fill="#EAA627" cx="350.668" cy="205.532" rx="69.664" ry="205.486"/>
	<path fill="#A45714" d="M355.565,239.097c-17.176,2.251-21.881-59.37,0-63.498C372.668,172.371,377.056,236.281,355.565,239.097z"
		/>
	<path opacity="0.2" fill="#4A4A49" d="M283.022,151.714l129.695-39.696c-0.813-4.683-1.687-9.257-2.615-13.724l-125.139,36.457
		l-35.475-1.701c-0.766,5.994-1.44,12.122-2.016,18.368L283.022,151.714z"/>
	<path opacity="0.2" fill="#4A4A49" d="M418.848,247.755l-130.929,46.803l-36.365-2.09c0.933,5.885,1.958,11.618,3.069,17.184
		l36.093,2.561l126.851-49.293C418.057,257.94,418.484,252.883,418.848,247.755z"/>
</g>
<g id="Layer_1">
</g>
</svg>
