<?xml version="1.0" encoding="utf-8"?>
<!-- Generator: Adobe Illustrator 27.2.0, SVG Export Plug-In . SVG Version: 6.00 Build 0)  -->
<svg version="1.1" xmlns="http://www.w3.org/2000/svg" xmlns:xlink="http://www.w3.org/1999/xlink" x="0px" y="0px"
	 viewBox="0 0 648.588 767.464" enable-background="new 0 0 648.588 767.464" xml:space="preserve">
<g id="sander_x5F_holder">
	<g>
		<g>
			<polygon fill="#82D8E8" points="648.588,212.055 82.117,414.15 0,206.812 569.214,0 			"/>
			<polygon fill="#00BDD0" points="47.664,327.159 613.243,117.629 599.835,81.807 33.978,292.602 			"/>
			<g>
				<path fill="#B6F4F8" d="M457.569,81.606c-36.692,41.054,36.203,58.589,47.868,45.139
					C516.478,114.014,488.039,47.514,457.569,81.606z"/>
				<path fill="#B6F4F8" d="M573.359,182.703c33.234-43.9-40.845-55.453-51.378-41.1
					C512.011,155.189,545.761,219.158,573.359,182.703z"/>
				<path fill="#00759C" d="M501.157,117.271c-25.515,20.778,5.751,56.236,28.299,35.892
					C551.888,132.924,524.331,98.4,501.157,117.271z"/>
			</g>
			<g>
				<path fill="#B6F4F8" d="M145.238,197.306c-54.442-8.232-29.213,62.37-11.571,64.769
					C150.364,264.345,190.448,204.142,145.238,197.306z"/>
				<path fill="#B6F4F8" d="M124.019,349.548c54.931,3.781,24.048-64.538,6.27-65.495
					C113.462,283.147,78.403,346.408,124.019,349.548z"/>
				<path fill="#00759C" d="M139.252,253.306c-31.356-9.979-43.913,35.597-14.546,43.33
					C153.923,304.33,167.73,262.369,139.252,253.306z"/>
			</g>
		</g>
		<polygon fill="#00BDD0" points="354.08,248.97 361.304,383.98 325.701,384.023 327.684,248.834 		"/>
		<polygon fill="#B5D700" points="379.242,435.465 385.097,737.332 316.085,737.726 310.23,435.86 		"/>
		<polygon fill="#00A038" points="384.024,442.955 361.297,371.357 324.94,372.062 304.177,443.35 		"/>
		<path fill="#00A038" d="M312.809,726.288l75.626-0.374c0,0,4.746,39.584-24.466,41.027
			C331.486,768.546,313.671,769.138,312.809,726.288z"/>
		<path fill="#B6F4F8" d="M268.33,223.737l117.822-41.784c0,0,26.81,65.853-34.136,88.264
			C318.495,282.545,294.809,272.228,268.33,223.737z"/>
		<path fill="#00759C" d="M357.031,220.388c-19.732-26.333-56.422,3.478-37.005,26.828
			C339.344,270.447,374.952,244.305,357.031,220.388z"/>
	</g>
</g>
<g id="Layer_1">
</g>
</svg>
