<?xml version="1.0" encoding="utf-8"?>
<!-- Generator: Adobe Illustrator 24.2.3, SVG Export Plug-In . SVG Version: 6.00 Build 0)  -->
<svg version="1.1" xmlns="http://www.w3.org/2000/svg" xmlns:xlink="http://www.w3.org/1999/xlink" x="0px" y="0px"
	 viewBox="0 0 72.025 160.333" enable-background="new 0 0 72.025 160.333" xml:space="preserve">
<g id="sand_x5F_showel_x5F_white">
	<path fill="#FFFFFF" d="M39.122,160.328c-17.273-0.292-21.658-13.606-22.226-18.136c-2.225-19.204,12.463-23.218,12.463-23.218
		L27.051,63.49c0,0-6.485,0.042-16.003-10.59C4.063,45.097-0.842,23.821,0.121,4.175c29.803-7.62,70.88-2.641,71.413-1.816
		c0.529,0.824,1.873,34.285-4.473,46.278c-7.384,13.957-18.221,14.398-18.221,14.398l-1.449,56.534c0,0,12.959,4.882,12.483,21.396
		C59.622,149.797,54.449,160.587,39.122,160.328z M50.144,139.706c-0.129-3.877-3.228-11.26-11.812-11.149
		c-8.777,0.112-9.961,7.065-10.1,10.43c-0.189,4.551,3.298,10.836,11.299,10.913C48.145,149.983,50.256,143.238,50.144,139.706z"/>
</g>
<g id="Layer_1">
</g>
</svg>
