<?xml version="1.0" encoding="utf-8"?>
<!-- Generator: Adobe Illustrator 27.1.1, SVG Export Plug-In . SVG Version: 6.00 Build 0)  -->
<svg version="1.1" xmlns="http://www.w3.org/2000/svg" xmlns:xlink="http://www.w3.org/1999/xlink" x="0px" y="0px"
	 viewBox="0 0 297.323 878.255" enable-background="new 0 0 297.323 878.255" xml:space="preserve">
<g id="saw">
	<g id="saw_x5F_red_2_">
		<g>
			<polygon fill="#B2B2B2" points="220.054,128.154 163.135,210.268 61.619,222.937 116.281,837.738 198.884,877.648 
				198.839,878.135 199.22,877.811 200.139,878.255 200.262,876.921 234.71,847.508 207.205,814.134 240.403,785.787 
				212.897,752.416 246.095,724.07 218.59,690.695 251.786,662.352 224.281,628.978 257.479,600.631 229.973,567.26 
				263.171,538.914 235.666,505.539 268.863,477.193 241.358,443.822 274.555,415.475 247.05,382.101 280.247,353.758 
				252.742,320.384 285.939,292.037 258.434,258.663 291.631,230.319 264.126,196.945 297.323,168.599 268.781,133.968 			"/>
			<polygon opacity="0.5" fill="#7C7E7E" points="233.655,128.13 166.118,860.43 182.211,868.378 215.467,845.733 187.962,812.359 
				221.16,784.013 193.654,750.641 226.852,722.295 199.347,688.921 232.544,660.577 205.039,627.203 238.236,598.857 
				210.731,565.485 243.928,537.139 216.423,503.765 249.62,475.418 222.115,442.047 255.312,413.701 227.807,380.327 
				261.004,351.983 233.499,318.609 266.696,290.262 239.191,256.888 272.388,228.545 244.883,195.171 278.08,166.824 
				250.049,132.816 			"/>
			<g>
				<path fill="#FF4035" d="M0.173,7.197c-1.282,7.749,4.502,201.046,18.885,214.175c14.383,13.129,123.039,20.789,142.831,19.466
					s72.501-60.978,84.298-77.985c11.797-17.008-4.002-133.336-10.743-139.467c-6.74-6.131-166.401-4.331-166.401-4.331
					S51.137,7.962,47.536,2.908C43.938-2.143,1.456-0.552,0.173,7.197z M205.616,107.969c-1.007,10.923-50,55.885-67.389,56.727
					c-17.387,0.845-72.981-1.224-81.138-7.483c-8.153-6.258-8.036-64.47-0.067-70.815c7.97-6.345,131.677-8.313,136.359-7.881
					C198.064,78.948,206.623,97.049,205.616,107.969z"/>
			</g>
			
				<ellipse transform="matrix(0.0918 -0.9958 0.9958 0.0918 -114.3363 267.6629)" fill="#821F1B" cx="89.574" cy="196.515" rx="17.125" ry="17.125"/>
			
				<ellipse transform="matrix(0.0918 -0.9958 0.9958 0.0918 -63.6371 334.7086)" fill="#821F1B" cx="151.68" cy="202.242" rx="17.125" ry="17.125"/>
			
				<ellipse transform="matrix(0.1249 -0.9922 0.9922 0.1249 14.6341 340.9727)" fill="#821F1B" cx="200.615" cy="162.19" rx="17.125" ry="17.125"/>
		</g>
	</g>
</g>
<g id="Layer_1">
</g>
</svg>
