<?xml version="1.0" encoding="utf-8"?>
<!-- Generator: Adobe Illustrator 27.1.1, SVG Export Plug-In . SVG Version: 6.00 Build 0)  -->
<svg version="1.1" xmlns="http://www.w3.org/2000/svg" xmlns:xlink="http://www.w3.org/1999/xlink" x="0px" y="0px"
	 viewBox="0 0 980.851 1023.588" enable-background="new 0 0 980.851 1023.588" xml:space="preserve">
<g id="sawbuck_x5F_front">
	<g>
		<g>
			<polygon fill="#00759C" points="703.382,1000.274 731.991,1023.588 955.153,0 919.2,0 			"/>
			<polygon fill="#00BDD0" points="941.201,45.803 980.851,45.803 955.153,0 919.2,0 			"/>
			<polygon fill="#005F8A" points="772.038,1023.588 731.991,1023.588 941.201,45.803 980.851,45.803 			"/>
		</g>
		<ellipse fill="#00BDD0" cx="813.063" cy="521.699" rx="26.967" ry="52.782"/>
		<path fill="#00759C" d="M800.663,497.489c-1.646,0-616.73,0-618.376,0c-6.831,0-12.369,10.839-12.369,24.21
			s5.538,24.21,12.369,24.21c1.646,0,616.73,0,618.376,0c6.831,0,12.369-10.839,12.369-24.21S807.495,497.489,800.663,497.489z"/>
		<ellipse fill="#00BDD0" cx="162.564" cy="521.699" rx="24.157" ry="47.281"/>
		<g>
			<polygon fill="#00759C" points="0,1000.81 18.853,1023.588 242.015,0 206.063,0 			"/>
			<polygon fill="#00BDD0" points="228.064,45.803 267.714,45.803 242.015,0 206.063,0 			"/>
			<polygon fill="#005F8A" points="58.901,1023.588 18.853,1023.588 228.064,45.803 267.714,45.803 			"/>
		</g>
		<ellipse fill="#82D8E8" cx="99.925" cy="521.699" rx="31.778" ry="62.199"/>
		<ellipse fill="#005F8A" cx="81.221" cy="521.699" rx="21.148" ry="41.392"/>
	</g>
</g>
<g id="Layer_1">
</g>
</svg>
