<?xml version="1.0" encoding="utf-8"?>
<!-- Generator: Adobe Illustrator 25.0.0, SVG Export Plug-In . SVG Version: 6.00 Build 0)  -->
<svg version="1.1" xmlns="http://www.w3.org/2000/svg" xmlns:xlink="http://www.w3.org/1999/xlink" x="0px" y="0px"
	 viewBox="0 0 137.007 263.228" enable-background="new 0 0 137.007 263.228" xml:space="preserve">
<g id="scissors">
	<g>
		<path fill="#B2B2B2" d="M101.502,27.073c0.335-4.275,1.935-11.821,1.154-14.722c-1.832-6.806-6.374-10.623-7.902-10.017
			S50.493,164.992,50.493,164.992l11.189,0.267c0,0,8.038-24.161,12.237-27.362c1.724-1.314,8.691-7.627,11.126-14.415
			C87.057,117.878,100.818,35.806,101.502,27.073z"/>
		<path fill="#FFD200" d="M6.654,210.929c9.224-15.761,19.999-8.912,29.569-17.678c5.605-5.135,12.289-32.663,15.701-33.03
			s9.038,0.708,10.402,3.152c1.363,2.444-10.804,30.402-10.33,37.841c0.474,7.439,9.01,11.832,6.186,29.319
			c-3.266,20.226-18.952,35.957-42.521,28.431C-1.32,253.542-4.759,230.432,6.654,210.929z M11.863,232.125
			c0.14,7.626,6.371,18.129,18.405,15.737c12.137-2.413,17.307-21.365,14.599-28.771c-3.906-10.685-13.804-13.004-20.756-10.391
			C15.649,211.88,11.676,221.933,11.863,232.125z"/>
		<path fill="#CAD2D3" d="M51.881,24.232c0-4.288-1.005-11.936,0-14.768c2.358-6.642,7.185-10.093,8.661-9.369
			s31.414,165.619,31.414,165.619l-11.176-0.608c0,0-6.125-24.716-10.062-28.235c-1.616-1.445-8.068-8.283-9.966-15.24
			C59.186,115.888,51.881,32.991,51.881,24.232z"/>
		<path fill="#FFD200" d="M132.071,214.937c-7.964-16.434-19.241-10.447-28.097-19.935c-5.187-5.557-9.699-33.523-13.072-34.156
			s-9.066,0-10.616,2.33c-1.55,2.33,8.395,31.154,7.341,38.533c-1.054,7.379-9.907,11.092-8.458,28.746
			c1.676,20.419,16.084,37.328,40.17,31.667C136.691,258.043,141.926,235.272,132.071,214.937z M125.222,235.662
			c-0.735,7.592-7.768,17.576-19.578,14.25c-11.911-3.354-15.585-22.652-12.306-29.824c4.729-10.347,14.857-10.882,21.582-7.735
			C123.108,216.186,126.205,225.515,125.222,235.662z"/>
		<circle fill="#FFFFFF" cx="72.988" cy="121.522" r="5.83"/>
	</g>
</g>
<g id="Layer_1">
</g>
</svg>
