<?xml version="1.0" encoding="utf-8"?>
<!-- Generator: Adobe Illustrator 27.1.1, SVG Export Plug-In . SVG Version: 6.00 Build 0)  -->
<svg version="1.1" xmlns="http://www.w3.org/2000/svg" xmlns:xlink="http://www.w3.org/1999/xlink" x="0px" y="0px"
	 viewBox="0 0 164.04 95.549" enable-background="new 0 0 164.04 95.549" xml:space="preserve">
<g id="screw_x5F_white">
	<g>
		<g>
			<path fill="#CAD2D3" d="M91.219,23.525l-71.025-0.306C6.168,24.55-2.116,38.829,0.471,52.308
				c2.263,11.794,12.517,20.029,24.076,20.171l72.051,0.298L91.219,23.525z"/>
			<g>
				<path fill="#7C7E7E" d="M50.626,23.35L40.21,23.305C15.92,32.92,20.018,64.54,38.089,72.534l7.55,0.031
					C31.132,65.415,18.154,35.119,50.626,23.35z"/>
				<path fill="#7C7E7E" d="M34.462,23.28L24.05,23.235c-23.991,9.604-20.102,40.77-2.38,49.019
					c0.949,0.124,1.905,0.213,2.876,0.225l5.158,0.021C15.173,65.454,2.07,35.11,34.462,23.28z"/>
				<path fill="#7C7E7E" d="M66.798,23.42l-10.419-0.045C32.002,32.911,36.011,64.509,54.014,72.6l7.561,0.031
					C47.091,65.376,34.241,35.126,66.798,23.42z"/>
				<path fill="#7C7E7E" d="M81.949,23.485L71.587,23.44C47.742,33.468,52.291,65.199,70.72,72.669l7.49,0.031
					C63.593,66.114,49.961,35.588,81.949,23.485z"/>
			</g>
		</g>
		<g>
			<path fill="#FFFFFF" d="M115.551,95.522c25.395,0.813,44.627-17.142,47.901-39.682c3.528-24.285-8.736-50.256-39.147-55.216
				C92.214-4.61,68.115,24.138,69.431,47.1C71.017,74.769,88.952,94.67,115.551,95.522z"/>
			<polygon fill="#7C7E7E" points="150.542,39.82 125.278,38.385 123.847,13.341 111.813,13.353 108.33,38.263 83.513,40.149 
				83.333,54.556 108.208,55.212 109.475,80.743 123.753,80.501 125.156,55.334 151.63,53.836 			"/>
		</g>
	</g>
</g>
<g id="Layer_1">
</g>
</svg>
