<?xml version="1.0" encoding="utf-8"?>
<!-- Generator: Adobe Illustrator 27.1.1, SVG Export Plug-In . SVG Version: 6.00 Build 0)  -->
<svg version="1.1" xmlns="http://www.w3.org/2000/svg" xmlns:xlink="http://www.w3.org/1999/xlink" x="0px" y="0px"
	 viewBox="0 0 191.2 638.933" enable-background="new 0 0 191.2 638.933" xml:space="preserve">
<g id="screw_x5F_driver">
	<g>
		<path fill="#82D8E8" d="M69.712,38.161c0.306,97.621,0.352,376.393,0.352,376.393l58.746-0.108c0,0-2.059-267.714-2.584-374.58
			C126.165,27.49,104.669-1.148,96.89,0.036C89.351,1.183,69.676,26.61,69.712,38.161z"/>
		<path fill="#005F8A" d="M123.691,30.393c-0.127-0.291-0.261-0.59-0.396-0.889C117.946,17.827,106.52,3.53,99.66,0.566
			C97.965,24.915,112.489,32.61,123.691,30.393z"/>
		<path fill="#005F8A" d="M94.473,0.969C90.2,3.374,84.095,9.937,79.013,17.221c-3.34,4.937-6.213,9.967-7.741,13.987
			C92.093,29.948,96.469,18.115,94.473,0.969z"/>
		<path fill="#00A038" d="M155.701,348.354c27.05-25.482,20.248-64.279-1.28-92.527c-16.108-21.136-62.226-38.432-105.034-8.177
			c-43.174,30.513-27.507,90.495,0.828,109.323C85.937,380.709,133.483,369.284,155.701,348.354z"/>
		<path fill="#0EB800" d="M169.048,411.138c-19.22-58.162-10.358-64.317-9.344-78.423c7.189-100-131.38-83.664-125.346-11.054
			c2.944,28.568,0.863,62.06-11.621,92.798c-26.573,65.427-55.7,227.8,75.894,224.422
			C228.226,635.554,190.554,476.217,169.048,411.138z"/>
		<path fill="#00A038" d="M134.443,604.856c19.749-15.984,16.851-42.105,3.354-61.741c-10.099-14.692-40.989-27.94-71.781-9.361
			c-31.055,18.738-23.037,59.315-4.433,72.923C85.037,623.832,118.223,617.984,134.443,604.856z"/>
	</g>
</g>
<g id="Layer_1">
</g>
</svg>
