<?xml version="1.0" encoding="utf-8"?>
<!-- Generator: Adobe Illustrator 27.1.1, SVG Export Plug-In . SVG Version: 6.00 Build 0)  -->
<svg version="1.1" xmlns="http://www.w3.org/2000/svg" xmlns:xlink="http://www.w3.org/1999/xlink" x="0px" y="0px"
	 viewBox="0 0 949.236 235.38" enable-background="new 0 0 949.236 235.38" xml:space="preserve">
<g id="spirit_x5F_level_x5F_body">
	<path fill="#005F8A" d="M928.711,0H692.496l0.098,39.708c0.103,42.35-34.145,62.765-76.495,62.869l-293.993,0.79
		c-42.35,0.103-76.765-20.145-76.869-62.495L245.14,0H19.951C8.906,0.027-0.027,8.895,0,19.941L0.476,215.38
		c0.027,11.046,9.003,20.027,20.049,20h908.76c11.046-0.027,19.978-8.954,19.951-20L948.76,19.941
		C948.733,8.895,939.757-0.027,928.711,0z"/>
	<path fill="#FF4035" d="M888.763,235.379L888.189,0H722.496l0.098,39.708c0,57.025-45.404,91.868-91.495,91.868l-323.993,0.79
		c-54.904,0-91.869-43.614-91.869-91.495L215.14,0H60.474l0.574,235.379H888.763z"/>
</g>
<g id="Layer_1">
</g>
</svg>
