<?xml version="1.0" encoding="utf-8"?>
<!-- Generator: Adobe Illustrator 27.1.1, SVG Export Plug-In . SVG Version: 6.00 Build 0)  -->
<svg version="1.1" xmlns="http://www.w3.org/2000/svg" xmlns:xlink="http://www.w3.org/1999/xlink" x="0px" y="0px"
	 viewBox="0 0 1524.012 97.212" enable-background="new 0 0 1524.012 97.212" xml:space="preserve">
<g id="tape_x5F_measure_x5F_meter">
	<polygon fill="#FFE400" points="31.368,94.486 1524.012,94.619 1511.21,0.133 17.52,0 	"/>
	<path id="jiiri_1_" fill="#4F9CAE" d="M6.422,82.555L0.507,41.147C-3.495,12.092,17.52,0,17.52,0l13.848,94.486l0,0
		C24.37,99.026,7.814,99.606,6.422,82.555z"/>
	<polygon fill="#00BDD0" points="31.368,94.486 69.272,94.619 55.424,0.133 17.52,0 	"/>
	<polygon fill="#7C7D7D" points="156.704,70.747 160.762,95.302 167.806,95.302 163.747,70.747 	"/>
	<polygon fill="#7C7D7D" points="88.827,70.747 92.885,95.302 99.929,95.302 95.87,70.747 	"/>
	<polygon fill="#7C7D7D" points="292.458,70.747 296.516,95.302 303.56,95.302 299.501,70.747 	"/>
	<polygon fill="#7C7D7D" points="224.581,70.747 228.639,95.302 235.683,95.302 231.624,70.747 	"/>
	<polygon fill="#7C7D7D" points="428.212,70.747 432.27,95.302 439.314,95.302 435.255,70.747 	"/>
	<polygon fill="#7C7D7D" points="360.335,70.747 364.393,95.302 371.437,95.302 367.378,70.747 	"/>
	<polygon fill="#7C7D7D" points="563.966,70.747 568.024,95.302 575.068,95.302 571.009,70.747 	"/>
	<polygon fill="#7C7D7D" points="496.089,70.747 500.147,95.302 507.191,95.302 503.132,70.747 	"/>
	<polygon fill="#7C7D7D" points="699.719,70.747 703.778,95.302 710.822,95.302 706.763,70.747 	"/>
	<polygon fill="#7C7D7D" points="631.842,70.747 635.901,95.302 642.945,95.302 638.886,70.747 	"/>
	<polygon fill="#7C7D7D" points="835.473,70.747 839.532,95.302 846.576,95.302 842.517,70.747 	"/>
	<polygon fill="#7C7D7D" points="767.596,70.747 771.655,95.302 778.699,95.302 774.64,70.747 	"/>
	<polygon fill="#7C7D7D" points="971.227,70.747 975.286,95.302 982.33,95.302 978.271,70.747 	"/>
	<polygon fill="#7C7D7D" points="903.35,70.747 907.409,95.302 914.453,95.302 910.394,70.747 	"/>
	<polygon fill="#7C7D7D" points="1106.981,70.747 1111.04,95.302 1118.084,95.302 1114.025,70.747 	"/>
	<polygon fill="#7C7D7D" points="1039.104,70.747 1043.163,95.302 1050.207,95.302 1046.148,70.747 	"/>
	<polygon fill="#7C7D7D" points="1242.735,70.747 1246.794,95.302 1253.838,95.302 1249.779,70.747 	"/>
	<polygon fill="#7C7D7D" points="1174.858,70.747 1178.917,95.302 1185.961,95.302 1181.902,70.747 	"/>
	<polygon fill="#7C7D7D" points="1378.489,70.747 1382.548,95.302 1389.592,95.302 1385.533,70.747 	"/>
	<polygon fill="#7C7D7D" points="1310.612,70.747 1314.671,95.302 1321.715,95.302 1317.656,70.747 	"/>
	<g>
		<path fill="#4A4A49" d="M147.675,15.085c-0.129,8.682-0.193,17.317-0.193,25.907c0,4.304,0.018,8.599,0.055,12.884l-6.843,0.359
			c-0.129-11.054-0.285-21.29-0.469-30.708c-1.545,0.313-3.642,1.086-6.291,2.318l-1.324-6.042l7.67-4.856L147.675,15.085z"/>
		<path fill="#4A4A49" d="M164.254,14.312c7.265,0,10.898,6.622,10.898,19.865c0,13.262-3.89,19.893-11.67,19.893
			c-7.781,0-11.671-6.87-11.671-20.61C151.811,20.695,155.958,14.312,164.254,14.312z M159.288,34.37
			c-0.019,0.497-0.028,0.975-0.028,1.435c0,7.266,1.499,10.898,4.498,10.898c3.163,0,4.745-4.111,4.745-12.333
			c0-8.222-1.48-12.333-4.442-12.333S159.509,26.148,159.288,34.37z"/>
	</g>
	<g>
		<path fill="#4A4A49" d="M270.284,27.886c-0.092-1.104-0.138-2.125-0.138-3.062c0-3.292,0.597-5.665,1.793-7.118
			c1.526-1.857,3.476-2.97,5.849-3.338c0.846-0.128,1.673-0.193,2.483-0.193c1.453,0,2.851,0.203,4.194,0.607
			c2.097,0.644,3.678,1.914,4.745,3.808c0.865,1.582,1.297,3.605,1.297,6.07c0,0.479-0.009,0.984-0.027,1.518
			c-0.221,3.164-1.173,6.075-2.856,8.732c-1.683,2.658-4.594,6.46-8.732,11.408l12.057,0.083l-0.083,6.925
			c-5.279,0.239-12.084,0.359-20.417,0.359l-0.634-7.532c5.003-5.408,8.571-9.564,10.705-12.471
			c1.949-2.667,2.924-5.288,2.924-7.863v-0.689c-0.203-2.759-1.361-4.139-3.477-4.139h-0.11c-1.839,0.055-2.759,1.729-2.759,5.021
			c0,0.625,0.027,1.297,0.083,2.014L270.284,27.886z"/>
		<path fill="#4A4A49" d="M307.308,14.312c7.265,0,10.898,6.622,10.898,19.865c0,13.262-3.89,19.893-11.67,19.893
			c-7.781,0-11.671-6.87-11.671-20.61C294.865,20.695,299.012,14.312,307.308,14.312z M302.342,34.37
			c-0.019,0.497-0.028,0.975-0.028,1.435c0,7.266,1.499,10.898,4.498,10.898c3.163,0,4.745-4.111,4.745-12.333
			c0-8.222-1.48-12.333-4.442-12.333S302.563,26.148,302.342,34.37z"/>
	</g>
	<g>
		<path fill="#4A4A49" d="M409.38,27.611c-0.074-0.975-0.11-1.885-0.11-2.731c0-2.924,0.441-5.177,1.324-6.759
			c1.122-2.023,2.961-3.274,5.518-3.752c1.25-0.239,2.446-0.359,3.586-0.359c1.159,0,2.263,0.129,3.311,0.386
			c2.042,0.497,3.674,1.61,4.897,3.338c1.223,1.729,1.88,4.102,1.973,7.119v0.828c0,2.612-0.405,4.516-1.214,5.711
			c-0.901,1.343-2.382,2.355-4.442,3.035c1.71,0.258,2.994,0.878,3.849,1.862c0.855,0.984,1.448,2.304,1.779,3.959
			c0.184,0.92,0.276,1.932,0.276,3.035c0,0.901-0.064,1.876-0.193,2.924c-0.276,2.3-1.21,4.286-2.801,5.959
			c-1.591,1.674-4.042,2.548-7.353,2.621h-0.441c-3.109,0-5.592-0.809-7.449-2.428c-1.932-1.656-2.897-5.215-2.897-10.678v-0.166
			l7.146-0.414c-0.019,0.313-0.027,0.616-0.027,0.911c0,3.862,1.011,5.858,3.035,5.987c0.147,0.019,0.285,0.028,0.414,0.028
			c1.913,0,3.062-1.012,3.449-3.035c0.11-0.57,0.166-1.113,0.166-1.628c0-1.453-0.414-2.713-1.242-3.78
			c-1.141-1.435-3.026-2.152-5.656-2.152l-0.331-5.242c0.312,0.019,0.607,0.027,0.883,0.027c2.299,0,3.881-0.662,4.746-1.986
			c0.809-1.232,1.214-2.833,1.214-4.801c0-0.386-0.019-0.781-0.055-1.186c-0.166-2.354-1.224-3.532-3.173-3.532h-0.359
			c-1.931,0.129-2.897,2.06-2.897,5.794c0,0.441,0.009,0.911,0.028,1.407L409.38,27.611z"/>
		<path fill="#4A4A49" d="M446.459,14.312c7.265,0,10.898,6.622,10.898,19.865c0,13.262-3.89,19.893-11.67,19.893
			c-7.781,0-11.671-6.87-11.671-20.61C434.016,20.695,438.163,14.312,446.459,14.312z M441.493,34.37
			c-0.019,0.497-0.028,0.975-0.028,1.435c0,7.266,1.499,10.898,4.498,10.898c3.163,0,4.745-4.111,4.745-12.333
			c0-8.222-1.48-12.333-4.442-12.333S441.714,26.148,441.493,34.37z"/>
	</g>
	<g>
		<path fill="#4A4A49" d="M542.228,42.095l-0.58-6.594c3.164-6.916,6.824-14.071,10.981-21.465l8.884,0.497l-0.11,21.299
			l3.891,0.083v6.594h-3.78v11.615l-6.677-0.249l0.083-11.505L542.228,42.095z M555.03,35.915l0.083-14.236
			c-2.023,4.672-4.175,9.372-6.456,14.098L555.03,35.915z"/>
		<path fill="#4A4A49" d="M581.983,14.312c7.265,0,10.898,6.622,10.898,19.865c0,13.262-3.89,19.893-11.67,19.893
			c-7.781,0-11.671-6.87-11.671-20.61C569.54,20.695,573.687,14.312,581.983,14.312z M577.017,34.37
			c-0.019,0.497-0.028,0.975-0.028,1.435c0,7.266,1.499,10.898,4.498,10.898c3.163,0,4.745-4.111,4.745-12.333
			c0-8.222-1.48-12.333-4.442-12.333S577.238,26.148,577.017,34.37z"/>
	</g>
	<g>
		<path fill="#C30D26" d="M680.476,41.875l6.483-0.552c0,4.028,1.269,6.042,3.808,6.042c2.52,0,3.89-1.204,4.111-3.614
			c0.092-1.122,0.138-2.253,0.138-3.394c0-1.306-0.065-2.621-0.193-3.945c-0.239-2.409-1.232-3.614-2.979-3.614h-0.166
			c-1.876,0.092-3.238,1.555-4.083,4.387l-6.705-0.166l0.772-22.872l18.541-0.331l0.083,6.704l-12.278,0.249l-0.497,9.381
			c0.846-2.446,2.382-3.844,4.608-4.194c0.533-0.092,1.057-0.138,1.572-0.138c1.601,0,3.072,0.423,4.415,1.27
			c1.766,1.104,2.87,3.734,3.311,7.891c0.147,1.417,0.221,2.805,0.221,4.166c0,2.575-0.276,5.012-0.828,7.312
			c-0.847,3.513-2.502,5.693-4.966,6.539c-1.748,0.607-3.504,0.911-5.27,0.911c-0.717,0-1.444-0.055-2.18-0.166
			c-2.501-0.349-4.479-1.425-5.932-3.228c-1.343-1.637-2.014-4.166-2.014-7.587C680.448,42.592,680.457,42.243,680.476,41.875z"/>
		<path fill="#C30D26" d="M717.831,14.312c7.265,0,10.898,6.622,10.898,19.865c0,13.262-3.89,19.893-11.67,19.893
			c-7.781,0-11.671-6.87-11.671-20.61C705.387,20.695,709.535,14.312,717.831,14.312z M712.865,34.37
			c-0.019,0.497-0.028,0.975-0.028,1.435c0,7.266,1.499,10.898,4.498,10.898c3.163,0,4.745-4.111,4.745-12.333
			c0-8.222-1.48-12.333-4.442-12.333S713.085,26.148,712.865,34.37z"/>
	</g>
	<g>
		<path fill="#4A4A49" d="M821.412,34.729c1.435-2.704,3.513-4.056,6.235-4.056h0.055c2.741,0.019,4.829,1.025,6.263,3.021
			c1.435,1.996,2.198,4.291,2.29,6.884v0.69c0,2.373-0.405,4.736-1.214,7.091c-0.883,2.575-2.272,4.286-4.166,5.131
			c-1.38,0.644-2.934,0.966-4.663,0.966c-0.625,0-1.278-0.045-1.959-0.138c-2.52-0.313-4.534-1.472-6.042-3.477
			c-1.508-2.004-2.594-4.672-3.256-8.001c-0.497-2.446-0.745-5.187-0.745-8.222c0-1.066,0.037-2.161,0.11-3.283
			c0.221-4.341,0.772-7.877,1.655-10.608s2.198-4.676,3.945-5.835c1.71-1.122,3.66-1.683,5.849-1.683h0.166
			c2.244,0.037,4.143,0.763,5.697,2.18s2.562,3.348,3.021,5.794c0.294,1.619,0.441,3.209,0.441,4.773
			c0,0.828-0.037,1.637-0.11,2.428h-6.18c0.037-0.644,0.055-1.241,0.055-1.793c0-3.439-0.635-5.325-1.904-5.656
			c-0.331-0.073-0.644-0.11-0.938-0.11c-1.067,0-1.959,0.543-2.676,1.628c-0.938,1.398-1.518,3.329-1.738,5.794
			c-0.166,1.674-0.249,3.21-0.249,4.607C821.357,33.515,821.375,34.14,821.412,34.729z M821.964,39.971
			c0.037,2.428,0.354,4.245,0.952,5.449c0.598,1.205,1.485,1.899,2.663,2.083c0.184,0.037,0.376,0.055,0.579,0.055
			c0.919,0,1.738-0.377,2.456-1.131c0.791-0.828,1.187-2.317,1.187-4.47v-0.552c-0.074-2.446-0.929-3.88-2.566-4.304
			c-0.258-0.055-0.515-0.083-0.772-0.083C825.045,37.019,823.546,38.003,821.964,39.971z"/>
		<path fill="#4A4A49" d="M852.642,14.312c7.265,0,10.898,6.622,10.898,19.865c0,13.262-3.89,19.893-11.67,19.893
			c-7.781,0-11.671-6.87-11.671-20.61C840.199,20.695,844.346,14.312,852.642,14.312z M847.676,34.37
			c-0.019,0.497-0.028,0.975-0.028,1.435c0,7.266,1.499,10.898,4.498,10.898c3.163,0,4.745-4.111,4.745-12.333
			c0-8.222-1.48-12.333-4.442-12.333S847.897,26.148,847.676,34.37z"/>
	</g>
	<g>
		<path fill="#4A4A49" d="M947.57,21.761l0.276-6.897c6.677-0.11,13.096-0.193,19.258-0.249v7.008
			c-5.114,10.484-8.075,20.886-8.884,31.204l-6.539-0.745c0.81-9.988,3.467-20.123,7.974-30.404L947.57,21.761z"/>
		<path fill="#4A4A49" d="M984.014,14.312c7.265,0,10.898,6.622,10.898,19.865c0,13.262-3.89,19.893-11.67,19.893
			c-7.781,0-11.671-6.87-11.671-20.61C971.571,20.695,975.719,14.312,984.014,14.312z M979.048,34.37
			c-0.019,0.497-0.028,0.975-0.028,1.435c0,7.266,1.499,10.898,4.498,10.898c3.163,0,4.745-4.111,4.745-12.333
			c0-8.222-1.48-12.333-4.442-12.333S979.269,26.148,979.048,34.37z"/>
	</g>
	<g>
		<path fill="#4A4A49" d="M1101.156,34.701c2.501,1.122,4.056,2.741,4.663,4.856c0.423,1.472,0.634,2.979,0.634,4.524
			c0,0.699-0.046,1.407-0.138,2.125c-0.276,2.3-1.21,4.286-2.801,5.959c-1.591,1.674-4.042,2.548-7.353,2.621h-0.441
			c-3.109,0-5.592-0.809-7.449-2.428c-1.95-1.674-2.962-4.037-3.035-7.091c-0.019-0.202-0.027-0.404-0.027-0.607
			c0-2.777,0.533-4.994,1.6-6.649c1.14-1.766,2.547-2.878,4.221-3.338c-1.232-0.497-2.483-1.485-3.752-2.966
			c-1.269-1.48-1.922-3.609-1.958-6.387v-0.248c0-2.649,0.552-4.966,1.655-6.953c1.122-2.023,2.961-3.274,5.518-3.752
			c1.25-0.239,2.446-0.359,3.586-0.359c1.159,0,2.263,0.129,3.311,0.386c2.042,0.497,3.674,1.61,4.897,3.338
			c1.223,1.729,1.88,4.01,1.973,6.843v0.8c0,2.465-0.405,4.378-1.214,5.739C1104.145,32.641,1102.848,33.837,1101.156,34.701z
			 M1095.942,37.488c-1.876,0.993-2.98,2.17-3.311,3.531c-0.184,0.772-0.276,1.518-0.276,2.235c0,0.552,0.055,1.085,0.166,1.6
			c0.257,1.214,0.745,2.079,1.462,2.594c0.515,0.386,1.113,0.58,1.793,0.58c0.257,0,0.533-0.028,0.828-0.083
			c1.03-0.184,1.78-0.63,2.249-1.338c0.469-0.708,0.74-1.688,0.814-2.938c0.018-0.147,0.028-0.304,0.028-0.469
			c0-1.066-0.221-2.078-0.663-3.035C1098.516,39.061,1097.487,38.169,1095.942,37.488z M1095.886,30.535
			c1.913-0.828,3.025-2.161,3.338-4.001c0.128-0.699,0.193-1.342,0.193-1.931c0-0.919-0.157-1.692-0.469-2.317
			c-0.497-1.012-1.371-1.554-2.621-1.628h-0.249c-1.141,0-2.032,0.479-2.676,1.435c-0.515,0.772-0.772,1.766-0.772,2.98
			c0,0.441,0.037,0.92,0.11,1.435C1092.998,28.402,1094.047,29.744,1095.886,30.535z"/>
		<path fill="#4A4A49" d="M1122.509,14.312c7.265,0,10.898,6.622,10.898,19.865c0,13.262-3.89,19.893-11.67,19.893
			c-7.781,0-11.671-6.87-11.671-20.61C1110.066,20.695,1114.213,14.312,1122.509,14.312z M1117.543,34.37
			c-0.019,0.497-0.028,0.975-0.028,1.435c0,7.266,1.499,10.898,4.498,10.898c3.163,0,4.745-4.111,4.745-12.333
			c0-8.222-1.48-12.333-4.442-12.333S1117.763,26.148,1117.543,34.37z"/>
	</g>
	<g>
		<path fill="#4A4A49" d="M1240.004,35.695c-1.435,2.704-3.513,4.056-6.235,4.056c-0.019,0-0.027-0.009-0.027-0.027
			c-2.759,0-4.902-0.998-6.429-2.994c-1.527-1.996-2.327-4.759-2.4-8.291c-0.019-0.257-0.027-0.524-0.027-0.8
			c0-3.182,0.45-5.959,1.352-8.333c0.975-2.575,2.501-4.294,4.58-5.159c1.526-0.625,3.118-0.938,4.773-0.938
			c0.607,0,1.223,0.046,1.849,0.138c2.336,0.313,4.258,1.472,5.767,3.477c1.508,2.005,2.593,4.663,3.255,7.974
			c0.497,2.465,0.745,5.214,0.745,8.25c0,1.067-0.028,2.152-0.083,3.255c-0.239,4.359-0.8,7.905-1.683,10.636
			c-0.883,2.731-2.198,4.667-3.946,5.808c-1.71,1.141-3.743,1.71-6.097,1.71c-0.055,0-0.11-0.009-0.166-0.027
			c-2.446-0.018-4.534-0.92-6.263-2.704c-1.692-1.729-2.538-4.819-2.538-9.27V42.04h6.18c-0.037,0.423-0.055,0.828-0.055,1.214
			c0,2.042,0.552,3.375,1.655,4c0.533,0.331,1.067,0.497,1.601,0.497c0.735,0,1.453-0.303,2.152-0.91
			c1.195-1.011,1.867-2.667,2.014-4.966c0.073-1.269,0.11-2.464,0.11-3.587C1240.087,37.368,1240.059,36.504,1240.004,35.695z
			 M1239.728,30.452c0.018-0.625,0.028-1.214,0.028-1.766c0-2.63-0.276-4.598-0.828-5.904c-0.699-1.563-1.628-2.437-2.787-2.621
			c-0.166-0.018-0.322-0.028-0.469-0.028c-0.993,0-1.904,0.506-2.731,1.518c-0.883,1.085-1.324,3.044-1.324,5.877v0.662
			c0.073,3.182,1.122,4.883,3.145,5.104c0.184,0.037,0.377,0.055,0.58,0.055C1237.089,33.349,1238.551,32.384,1239.728,30.452z"/>
		<path fill="#4A4A49" d="M1263.592,14.312c7.265,0,10.898,6.622,10.898,19.865c0,13.262-3.89,19.893-11.67,19.893
			c-7.781,0-11.671-6.87-11.671-20.61C1251.149,20.695,1255.296,14.312,1263.592,14.312z M1258.626,34.37
			c-0.019,0.497-0.028,0.975-0.028,1.435c0,7.266,1.499,10.898,4.498,10.898c3.163,0,4.745-4.111,4.745-12.333
			c0-8.222-1.48-12.333-4.442-12.333S1258.846,26.148,1258.626,34.37z"/>
	</g>
	<g>
		<path fill="#C30D26" d="M1355.213,15.085c-0.129,8.682-0.193,17.317-0.193,25.907c0,4.304,0.018,8.599,0.055,12.884l-6.843,0.359
			c-0.129-11.054-0.285-21.29-0.469-30.708c-1.545,0.313-3.642,1.086-6.291,2.318l-1.324-6.042l7.67-4.856L1355.213,15.085z"/>
		<path fill="#C30D26" d="M1371.793,14.312c7.265,0,10.898,6.622,10.898,19.865c0,13.262-3.89,19.893-11.67,19.893
			c-7.781,0-11.671-6.87-11.671-20.61C1359.349,20.695,1363.497,14.312,1371.793,14.312z M1366.826,34.37
			c-0.019,0.497-0.028,0.975-0.028,1.435c0,7.266,1.499,10.898,4.498,10.898c3.163,0,4.745-4.111,4.745-12.333
			c0-8.222-1.48-12.333-4.442-12.333S1367.047,26.148,1366.826,34.37z"/>
		<path fill="#C30D26" d="M1398.774,14.312c7.265,0,10.898,6.622,10.898,19.865c0,13.262-3.89,19.893-11.67,19.893
			c-7.781,0-11.671-6.87-11.671-20.61C1386.33,20.695,1390.478,14.312,1398.774,14.312z M1393.807,34.37
			c-0.019,0.497-0.028,0.975-0.028,1.435c0,7.266,1.499,10.898,4.498,10.898c3.163,0,4.745-4.111,4.745-12.333
			c0-8.222-1.48-12.333-4.442-12.333S1394.028,26.148,1393.807,34.37z"/>
	</g>
</g>
<g id="Layer_1">
</g>
</svg>
