<?xml version="1.0" encoding="utf-8"?>
<!-- Generator: Adobe Illustrator 27.1.1, SVG Export Plug-In . SVG Version: 6.00 Build 0)  -->
<svg version="1.1" xmlns="http://www.w3.org/2000/svg" xmlns:xlink="http://www.w3.org/1999/xlink" x="0px" y="0px"
	 viewBox="0 0 349.071 278.107" enable-background="new 0 0 349.071 278.107" xml:space="preserve">
<g id="tape_x5F_measure_x5F_body">
	<g>
		<path fill="#FF4035" d="M312.713,29.496C306.249,12.701,290.092,0,269.862,0H131.157C99.971,0,73.326,18.437,60.784,46.991
			L0,178.497l19.045,99.61h197.879h8.302c40.988,0,78.1-24.233,94.583-61.76l25.138-57.229c5.417-12.332,5.24-25.245,0.969-36.441
			C340.426,108.282,316.824,40.176,312.713,29.496z"/>
		<path fill="#C00D26" d="M19.045,278.107h206.181c40.988,0,78.1-24.233,94.583-61.76l25.138-57.229
			c13.994-31.859-9.342-67.597-44.139-67.597H154.967c-32.791,0-62.48,19.386-75.667,49.408L19.045,278.107z"/>
		<path fill="#FF4035" d="M302.451,138.913c-17.523-34.628-76.227-37.169-130.031-21.684
			c-40.258,11.586-95.182,55.509-81.512,107.803c13.787,52.741,107.982,51.283,153.177,26.337
			C301.063,219.919,316.843,167.355,302.451,138.913z"/>
		<path fill="#FF8000" d="M279.145,149.906c-13.609-26.893-59.199-28.866-100.985-16.84c-31.265,8.998-73.92,43.11-63.304,83.722
			c10.707,40.959,83.861,39.827,118.961,20.454C278.067,212.817,290.322,171.995,279.145,149.906z"/>
		<path fill="#FFA600" d="M255.757,160.937c-9.681-19.131-42.113-20.534-71.838-11.98c-22.241,6.401-52.584,30.667-45.032,59.557
			c7.617,29.137,59.656,28.332,84.625,14.55C254.991,205.69,263.709,176.651,255.757,160.937z"/>
		<path fill="#00759C" d="M26.16,227.8l48.152-108.474L62.427,59.43c0,0-16.159,3.278-27.801,21.798
			c-4.777,7.6-9.911,17.517-14.304,26.569c-7.317,15.079-10.184,31.928-8.216,48.573L26.16,227.8z"/>
		<g>
			<path fill="#00BDD0" d="M19.143,110.342l15.307,62.074l4.233-11.641l-16.886-55.99c-0.499,1.011-0.992,2.017-1.475,3.012
				C19.913,108.64,19.523,109.489,19.143,110.342z"/>
			<path fill="#00BDD0" d="M47.678,142.432L31.034,87.243c-1.08,1.891-2.164,3.858-3.241,5.864l14.947,60.614L47.678,142.432z"/>
			<path fill="#00BDD0" d="M26.336,190.76l4.939-11.288l-16.831-55.807c-0.905,3.414-1.609,6.876-2.096,10.371L26.336,190.76z"/>
			<path fill="#00BDD0" d="M55.615,126.029l-15.67-51.96c-1.036,1.185-2.062,2.455-3.066,3.832l14.238,57.74L55.615,126.029z"/>
		</g>
	</g>
</g>
<g id="Layer_1">
</g>
</svg>
