<?xml version="1.0" encoding="utf-8"?>
<!-- Generator: Adobe Illustrator 27.1.1, SVG Export Plug-In . SVG Version: 6.00 Build 0)  -->
<svg version="1.1" xmlns="http://www.w3.org/2000/svg" xmlns:xlink="http://www.w3.org/1999/xlink" x="0px" y="0px"
	 viewBox="0 0 710.756 351.646" enable-background="new 0 0 710.756 351.646" xml:space="preserve">
<g id="trowel">
	<g>
		<path fill="#31D8E2" d="M418.652,61.555c0,0-239.716-123.332-418.635-20.845c0,0-6.948,220.609,258.824,310.937L418.652,61.555z"
			/>
		<path fill="#00759C" d="M443.551,137.986c-7.527,217.134-116.963-36.479-199.185,18.529
			c-20.7,13.848,240.295,209.028,230.977-7.587L443.551,137.986z"/>
		<path fill="#005F8A" d="M493.973,141.228c-12.202-26.719-60.181-24.085-61.902,16.12
			C429.029,228.421,522.788,204.327,493.973,141.228z"/>
		<path fill="#FFE400" d="M520.835,147.914c-12.353-26.65-59.074-16.879-63.16,14.599c-4.734,36.47,15.41,43.626,32.526,43.358
			c10.826-0.17,185.953,142.133,215.018,55.045C730.618,184.813,528.989,165.504,520.835,147.914z"/>
		<path fill="#005F8A" d="M707.279,233.284c-11.25-27.133-52.392-23.459-54.113,16.746
			C650.124,321.103,727.873,282.952,707.279,233.284z"/>
	</g>
</g>
<g id="Layer_1">
</g>
</svg>
