<?xml version="1.0" encoding="utf-8"?>
<!-- Generator: Adobe Illustrator 24.2.3, SVG Export Plug-In . SVG Version: 6.00 Build 0)  -->
<svg version="1.1" xmlns="http://www.w3.org/2000/svg" xmlns:xlink="http://www.w3.org/1999/xlink" x="0px" y="0px"
	 viewBox="0 0 362.017 207.24" enable-background="new 0 0 362.017 207.24" xml:space="preserve">
<g id="watering_x5F_can_x5F_orange">
	<polygon fill="#FDA519" points="47.72,73.307 126.905,175.152 142.844,119.47 55.197,52.551 	"/>
	<path fill="#F77F15" d="M140.97,118.038l-20.921-15.972c-2.42,11.851-7.47,34.366-11.03,50.084l17.143,22.049l0.953,0.217
		L140.97,118.038z"/>
	<path fill="#F77F15" d="M57.925,54.632L47.722,73.307L65.684,96.41l12.974-25.948L57.925,54.632z"/>
	<path fill="#FDA519" d="M48.872,0.41c0,0,33.993,30.399,17.126,66.12C48.22,104.179,1.18,90.015,1.18,90.015L48.872,0.41z"/>
	
		<ellipse transform="matrix(0.4698 -0.8828 0.8828 0.4698 -26.5962 45.5667)" fill="#F77F15" cx="24.638" cy="44.925" rx="50.754" ry="6.99"/>
	<path fill="#FDA519" d="M355.374,87.734c-9.469-27.592-56.391-32.086-78.821-31.06l-1.935-24H132.426L114.342,207.24h174.047
		l-2.464-31.343C305.146,177.905,385.374,175.152,355.374,87.734z M283.9,150.137l-5.777-73.497
		c18.17-1.882,55.405-2.462,61.553,23.207C354.905,163.436,300.776,154.382,283.9,150.137z"/>
	<polygon fill="#FDA519" points="126.905,175.152 127.114,174.416 126.163,174.199 	"/>
	<path fill="#F77F15" d="M116.253,197.031c-0.736-26.561,27.066-37.671,31.044-1.985c4.067-24.296,33.923-38.407,37.242-0.172
		c1.32-26.014,33.886-37.617,34.171,0.107c3.488-29.735,33.396-32.71,35.246-0.372c1.091-9.205,4.441-19.45,13.388-22.068
		c8.049-2.65,13.837,0.823,16.918,10.15c0.108,0.327,1.897,8.153,2.209,11.897C286.651,194.482,123.588,197.109,116.253,197.031z"/>
	<polygon fill="#F77F15" points="274.616,32.673 132.426,32.673 130.797,48.593 276.538,56.493 	"/>
</g>
<g id="Layer_1">
</g>
</svg>
